<svg xmlns="http://www.w3.org/2000/svg" xmlns:xlink="http://www.w3.org/1999/xlink" width="200" zoomAndPan="magnify" viewBox="0 0 150 149.999998" height="200" preserveAspectRatio="xMidYMid meet" version="1.0"><defs><clipPath id="dfb7e39416"><path d="M 22 11.210938 L 128 11.210938 L 128 138.710938 L 22 138.710938 Z M 22 11.210938 " clip-rule="nonzero"/></clipPath></defs><g clip-path="url(#dfb7e39416)"><path fill="#000000" d="M 115.667969 108.511719 C 102.355469 132.960938 95.691406 133.351562 90.335938 133.667969 C 87.554688 133.835938 85.222656 132.523438 82.726562 131.132812 C 80.304688 129.78125 77.800781 128.382812 74.847656 128.382812 C 71.890625 128.382812 69.386719 129.78125 66.964844 131.132812 C 64.472656 132.523438 62.136719 133.832031 59.359375 133.667969 C 54.003906 133.351562 47.335938 132.960938 34.023438 108.511719 C 26.449219 94.597656 24.785156 77.988281 29.683594 65.167969 C 32.507812 57.777344 37.332031 52.542969 43.261719 50.4375 C 47.691406 48.867188 52.277344 48.070312 56.894531 48.070312 C 66.78125 48.070312 73.621094 51.753906 73.683594 51.785156 L 74.84375 52.425781 L 76.003906 51.789062 C 76.070312 51.753906 82.910156 48.070312 92.796875 48.070312 C 97.417969 48.070312 102.003906 48.867188 106.429688 50.4375 C 112.363281 52.542969 117.183594 57.777344 120.011719 65.167969 C 124.910156 77.988281 123.246094 94.597656 115.667969 108.511719 Z M 60.859375 31.957031 C 48.636719 31.957031 42.769531 23.328125 40.601562 19 C 44.714844 18.050781 48.699219 17.566406 52.476562 17.566406 C 64.050781 17.566406 71.207031 21.972656 74.46875 24.628906 C 74.382812 24.839844 74.296875 25.054688 74.21875 25.265625 C 66.839844 23.605469 53.164062 21.023438 52.476562 20.894531 L 51.589844 25.625 C 51.75 25.65625 64.898438 28.136719 72.375 29.785156 C 68.261719 31.226562 64.402344 31.957031 60.859375 31.957031 Z M 124.496094 63.449219 C 121.160156 54.71875 115.3125 48.488281 108.035156 45.902344 C 103.089844 44.148438 97.964844 43.257812 92.796875 43.257812 C 86.785156 43.257812 81.808594 44.453125 78.441406 45.585938 C 78.394531 37.144531 80.25 22.605469 89.386719 17.953125 L 85.964844 11.210938 C 81.835938 13.316406 78.824219 16.53125 76.632812 20.234375 C 72.429688 17.070312 64.5 12.753906 52.476562 12.753906 C 47.453125 12.753906 42.125 13.523438 36.644531 15.046875 L 34.214844 15.71875 L 35.003906 18.117188 C 35.070312 18.308594 36.597656 22.871094 40.507812 27.429688 C 45.75 33.539062 52.785156 36.769531 60.859375 36.769531 C 64.265625 36.769531 67.890625 36.195312 71.683594 35.066406 C 71.058594 39.066406 70.90625 42.753906 70.914062 45.476562 C 67.554688 44.375 62.707031 43.257812 56.894531 43.257812 C 51.730469 43.257812 46.601562 44.148438 41.660156 45.902344 C 34.378906 48.488281 28.53125 54.71875 25.195312 63.449219 C 19.808594 77.550781 21.578125 95.699219 29.808594 110.816406 C 43.296875 135.59375 51.046875 138 59.078125 138.472656 C 63.230469 138.71875 66.476562 136.914062 69.304688 135.335938 C 71.363281 134.1875 73.136719 133.195312 74.847656 133.195312 C 76.554688 133.195312 78.332031 134.1875 80.390625 135.335938 C 83.042969 136.816406 86.054688 138.496094 89.863281 138.496094 C 90.109375 138.496094 90.363281 138.488281 90.617188 138.472656 C 98.648438 138 106.394531 135.59375 119.886719 110.816406 C 128.117188 95.699219 129.882812 77.550781 124.496094 63.449219 " fill-opacity="1" fill-rule="nonzero"/></g><path fill="#000000" d="M 106.265625 54.128906 L 104.265625 58.503906 C 104.375 58.554688 115.363281 63.832031 115.824219 84.988281 L 120.628906 84.882812 C 120.097656 60.746094 106.828125 54.386719 106.265625 54.128906 " fill-opacity="1" fill-rule="nonzero"/><path fill="#000000" d="M 112.832031 96.597656 L 117.269531 98.441406 L 119.519531 93.011719 L 115.082031 91.167969 L 112.832031 96.597656 " fill-opacity="1" fill-rule="nonzero"/></svg>