<svg xmlns="http://www.w3.org/2000/svg" xmlns:xlink="http://www.w3.org/1999/xlink" width="200" zoomAndPan="magnify" viewBox="0 0 150 149.999998" height="200" preserveAspectRatio="xMidYMid meet" version="1.0"><path fill="#000000" d="M 82.476562 65.933594 C 81.730469 65.1875 80.609375 65.1875 79.859375 65.933594 C 79.113281 66.683594 79.113281 67.804688 79.859375 68.550781 L 88.269531 76.960938 C 88.644531 77.335938 89.207031 77.523438 89.578125 77.523438 C 89.953125 77.523438 90.515625 77.335938 90.886719 76.960938 C 91.636719 76.214844 91.636719 75.09375 90.886719 74.347656 Z M 82.476562 65.933594 " fill-opacity="1" fill-rule="nonzero"/><path fill="#000000" d="M 80.609375 76.960938 C 79.859375 76.214844 78.738281 76.214844 77.992188 76.960938 C 77.242188 77.710938 77.242188 78.832031 77.992188 79.578125 L 83.222656 84.8125 C 83.597656 85.1875 84.160156 85.375 84.53125 85.375 C 84.90625 85.375 85.46875 85.1875 85.839844 84.8125 C 86.589844 84.066406 86.589844 82.945312 85.839844 82.195312 Z M 80.609375 76.960938 " fill-opacity="1" fill-rule="nonzero"/><path fill="#000000" d="M 44.90625 93.222656 C 44.160156 92.476562 43.039062 92.476562 42.289062 93.222656 C 41.542969 93.972656 41.542969 95.09375 42.289062 95.839844 L 50.140625 103.691406 C 50.515625 104.066406 51.074219 104.253906 51.449219 104.253906 C 51.824219 104.253906 52.382812 104.066406 52.757812 103.691406 C 53.503906 102.945312 53.503906 101.824219 52.757812 101.074219 Z M 44.90625 93.222656 " fill-opacity="1" fill-rule="nonzero"/><path fill="#000000" d="M 116.308594 16.777344 C 116.121094 16.214844 115.746094 15.652344 115.1875 15.46875 C 114.625 15.28125 114.066406 15.28125 113.503906 15.46875 C 108.457031 18.457031 103.597656 24.253906 100.421875 31.167969 C 98.738281 34.90625 97.617188 38.832031 97.054688 42.757812 C 94.066406 41.261719 90.699219 40.515625 87.335938 40.515625 C 81.355469 40.515625 75.933594 42.757812 71.824219 47.054688 C 64.90625 53.785156 23.222656 105.1875 15.5625 125.933594 C 15 128.363281 15.5625 130.980469 17.429688 132.664062 C 18.738281 133.972656 20.421875 134.71875 22.289062 134.71875 C 22.851562 134.71875 23.597656 134.71875 24.347656 134.347656 C 44.90625 126.683594 96.121094 85 103.039062 78.085938 C 109.953125 71.167969 111.261719 60.699219 107.148438 52.476562 C 110.886719 52.101562 115 50.980469 118.925781 49.113281 C 126.027344 45.933594 131.636719 41.449219 134.625 36.214844 C 135 35.652344 135 35.09375 134.625 34.53125 C 134.4375 33.972656 133.878906 33.597656 133.316406 33.410156 C 130.515625 32.851562 127.523438 33.039062 124.160156 33.410156 C 125.839844 30.421875 127.148438 27.429688 127.523438 24.4375 C 127.710938 23.878906 127.523438 23.128906 126.960938 22.757812 C 126.402344 22.382812 125.839844 22.195312 125.28125 22.195312 C 122.476562 22.757812 119.300781 23.878906 116.308594 25.5625 C 116.871094 22.570312 116.871094 19.578125 116.308594 16.777344 Z M 102.476562 72.851562 L 95 65.375 C 94.253906 64.625 93.128906 64.625 92.382812 65.375 C 91.636719 66.121094 91.636719 67.242188 92.382812 67.992188 L 100.234375 75.839844 C 97.804688 78.269531 90.886719 84.066406 81.914062 91.167969 L 71.636719 80.886719 C 70.886719 80.140625 69.765625 80.140625 69.019531 80.886719 C 68.269531 81.636719 68.269531 82.757812 69.019531 83.503906 L 78.925781 93.410156 C 75.1875 96.214844 71.261719 99.390625 67.335938 102.382812 L 62.101562 97.148438 C 61.355469 96.402344 60.234375 96.402344 59.484375 97.148438 C 58.738281 97.898438 58.738281 99.019531 59.484375 99.765625 L 64.347656 104.625 C 60.421875 107.617188 56.496094 110.421875 52.570312 113.222656 L 46.960938 107.992188 C 46.214844 107.242188 45.09375 107.242188 44.347656 107.992188 C 43.597656 108.738281 43.597656 109.859375 44.347656 110.609375 L 49.207031 115.46875 C 47.523438 116.589844 46.027344 117.710938 44.347656 118.832031 L 42.289062 116.777344 C 41.542969 116.027344 40.421875 116.027344 39.671875 116.777344 C 38.925781 117.523438 38.925781 118.644531 39.671875 119.390625 L 41.167969 120.886719 C 34.066406 125.5625 27.710938 129.113281 23.039062 130.792969 C 21.914062 131.167969 20.792969 130.792969 19.859375 130.046875 C 19.113281 129.300781 18.738281 127.992188 18.925781 127.054688 C 20.046875 124.253906 21.730469 120.699219 23.972656 116.777344 L 29.765625 122.570312 C 30.140625 122.945312 30.699219 123.128906 31.074219 123.128906 C 31.449219 123.128906 32.007812 122.945312 32.382812 122.570312 C 33.128906 121.824219 33.128906 120.699219 32.382812 119.953125 L 26.027344 113.597656 C 28.457031 109.671875 31.261719 105.375 34.4375 100.886719 L 35.1875 101.636719 C 35.5625 102.007812 36.121094 102.195312 36.496094 102.195312 C 37.054688 102.195312 37.429688 102.007812 37.804688 101.636719 C 38.550781 100.886719 38.550781 99.765625 37.804688 99.019531 L 36.683594 97.523438 C 41.167969 91.167969 46.027344 84.625 50.699219 78.457031 L 59.671875 87.429688 C 60.046875 87.804688 60.609375 87.992188 60.980469 87.992188 C 61.355469 87.992188 61.914062 87.804688 62.289062 87.429688 C 63.039062 86.683594 63.039062 85.5625 62.289062 84.8125 L 52.945312 75.46875 C 54.066406 73.972656 55.1875 72.476562 56.308594 71.167969 L 57.617188 72.476562 C 57.992188 72.851562 58.550781 73.039062 58.925781 73.039062 C 59.300781 73.039062 59.859375 72.851562 60.234375 72.476562 C 60.980469 71.730469 60.980469 70.609375 60.234375 69.859375 L 58.550781 68.175781 C 59.671875 66.683594 60.792969 65.1875 61.914062 63.878906 L 67.898438 69.859375 C 68.269531 70.234375 68.832031 70.421875 69.207031 70.421875 C 69.578125 70.421875 70.140625 70.234375 70.515625 69.859375 C 71.261719 69.113281 71.261719 67.992188 70.515625 67.242188 L 64.347656 61.074219 C 65.652344 59.578125 66.777344 58.085938 67.898438 56.777344 L 69.390625 58.269531 C 69.765625 58.644531 70.328125 58.832031 70.699219 58.832031 C 71.074219 58.832031 71.636719 58.644531 72.007812 58.269531 C 72.757812 57.523438 72.757812 56.402344 72.007812 55.652344 L 70.328125 53.972656 C 72.007812 51.914062 73.316406 50.421875 74.253906 49.671875 C 77.617188 46.308594 82.289062 44.253906 87.148438 44.253906 C 92.007812 44.253906 96.683594 46.121094 100.046875 49.671875 C 106.589844 55.839844 107.335938 65.746094 102.476562 72.851562 Z M 129.390625 36.960938 C 126.589844 40.515625 122.101562 43.691406 117.054688 45.933594 C 114.625 47.054688 112.195312 47.804688 109.578125 48.363281 C 112.195312 46.683594 114.8125 44.625 117.054688 42.382812 C 118.550781 40.886719 119.671875 39.578125 120.980469 38.085938 C 123.972656 37.335938 126.960938 36.777344 129.390625 36.960938 Z M 107.523438 32.664062 C 106.589844 33.597656 105.652344 34.53125 104.71875 35.652344 C 103.972656 36.402344 104.160156 37.710938 104.90625 38.269531 C 105.652344 39.019531 106.960938 38.832031 107.523438 38.085938 C 108.269531 37.148438 109.207031 36.214844 109.953125 35.28125 C 114.253906 31.355469 118.738281 28.363281 123.039062 26.871094 C 121.542969 31.167969 118.550781 35.652344 114.625 39.765625 C 111.261719 43.128906 107.335938 45.933594 103.410156 47.617188 C 103.222656 47.242188 103.039062 47.054688 102.851562 47.054688 C 102.101562 46.308594 101.355469 45.746094 100.609375 45.1875 C 100.980469 41.261719 102.101562 37.148438 103.972656 33.039062 C 106.402344 27.804688 109.578125 23.503906 112.945312 20.699219 C 112.945312 23.316406 112.570312 26.121094 111.824219 29.113281 C 110.515625 30.046875 109.019531 31.355469 107.523438 32.664062 Z M 107.523438 32.664062 " fill-opacity="1" fill-rule="nonzero"/></svg>