<svg xmlns="http://www.w3.org/2000/svg" xmlns:xlink="http://www.w3.org/1999/xlink" width="200" zoomAndPan="magnify" viewBox="0 0 150 112.499997" height="150" preserveAspectRatio="xMidYMid meet" version="1.0"><defs><clipPath id="4caeb64bdd"><path d="M 31 8 L 115.964844 8 L 115.964844 55 L 31 55 Z M 31 8 " clip-rule="nonzero"/></clipPath><clipPath id="72638edc9d"><path d="M 71 97 L 86 97 L 86 104.226562 L 71 104.226562 Z M 71 97 " clip-rule="nonzero"/></clipPath></defs><path fill="#000000" d="M 100.625 88.164062 C 100.640625 90.859375 100.824219 93.617188 100.648438 96.308594 C 100.402344 100.074219 97.171875 100.824219 93.972656 100.859375 C 88.507812 100.917969 83.027344 100.792969 77.558594 100.761719 C 76.785156 100.757812 76.785156 101.960938 77.558594 101.964844 C 81.050781 101.988281 84.546875 102.007812 88.039062 102.03125 C 91.101562 102.050781 94.59375 102.535156 97.578125 101.6875 C 99.5625 101.125 101.199219 99.785156 101.675781 97.710938 C 102.359375 94.742188 101.84375 91.195312 101.824219 88.171875 C 101.820312 87.394531 100.617188 87.390625 100.625 88.164062 Z M 100.625 88.164062 " fill-opacity="1" fill-rule="nonzero"/><path fill="#ffeabd" d="M 32.894531 52.980469 C 32.605469 53.707031 32.546875 54.601562 32.460938 55.339844 C 32.226562 57.246094 32.207031 59.183594 32.394531 61.09375 C 32.773438 64.921875 33.984375 68.671875 35.972656 71.960938 C 36.664062 73.113281 37.746094 72.996094 38.796875 72.417969 C 39.71875 71.914062 41.679688 70.824219 41.5 69.539062 C 41.378906 68.671875 40.59375 67.640625 40.261719 66.820312 C 39.875 65.863281 39.539062 64.890625 39.253906 63.898438 C 38.09375 59.898438 37.664062 55.730469 37.246094 51.597656 C 36.277344 51.457031 35.285156 51.496094 34.332031 51.703125 C 33.566406 51.875 33.144531 52.363281 32.894531 52.980469 Z M 32.894531 52.980469 " fill-opacity="1" fill-rule="nonzero"/><path fill="#000000" d="M 37.390625 73.066406 C 36.589844 73.066406 36.089844 72.585938 35.785156 72.078125 C 33.808594 68.804688 32.558594 65.015625 32.175781 61.117188 C 31.984375 59.175781 32.007812 57.222656 32.242188 55.3125 C 32.257812 55.183594 32.269531 55.054688 32.285156 54.921875 C 32.359375 54.269531 32.441406 53.527344 32.691406 52.902344 C 33.011719 52.117188 33.527344 51.660156 34.28125 51.492188 C 35.265625 51.273438 36.273438 51.238281 37.273438 51.382812 C 37.371094 51.398438 37.449219 51.472656 37.457031 51.574219 C 37.65625 53.53125 37.859375 55.558594 38.152344 57.582031 C 38.167969 57.703125 38.089844 57.8125 37.96875 57.828125 C 37.851562 57.847656 37.738281 57.765625 37.726562 57.644531 C 37.4375 55.667969 37.234375 53.699219 37.042969 51.789062 C 36.152344 51.675781 35.253906 51.722656 34.375 51.914062 C 33.761719 52.050781 33.355469 52.414062 33.09375 53.0625 C 32.863281 53.636719 32.785156 54.339844 32.714844 54.964844 C 32.699219 55.101562 32.683594 55.234375 32.667969 55.363281 C 32.441406 57.242188 32.417969 59.160156 32.605469 61.070312 C 32.984375 64.90625 34.210938 68.632812 36.152344 71.851562 C 36.691406 72.746094 37.523438 72.871094 38.6875 72.230469 C 39.398438 71.839844 41.066406 70.921875 41.269531 69.90625 C 41.292969 69.789062 41.410156 69.714844 41.523438 69.738281 C 41.644531 69.761719 41.71875 69.875 41.691406 69.996094 C 41.449219 71.210938 39.722656 72.164062 38.894531 72.617188 C 38.308594 72.9375 37.808594 73.066406 37.390625 73.066406 Z M 37.390625 73.066406 " fill-opacity="1" fill-rule="nonzero"/><path fill="#dbd2ea" d="M 40.804688 70.648438 C 40.28125 70.128906 39.628906 70.40625 38.027344 70.8125 C 36.636719 71.164062 35.144531 71.582031 34.257812 72.714844 C 33.019531 74.3125 33.488281 76.601562 34.054688 78.542969 C 35.109375 82.160156 35.941406 86.878906 37.878906 90.121094 C 39.441406 92.734375 42.621094 91 45.175781 90.179688 C 45.542969 90.0625 45.921875 89.925781 46.152344 89.625 C 46.546875 89.113281 46.355469 88.378906 46.148438 87.769531 C 44.886719 84.046875 43.816406 80.25 42.765625 76.464844 C 42.363281 75.019531 42.109375 73.414062 41.550781 72.023438 C 41.277344 71.332031 41.058594 70.894531 40.804688 70.648438 Z M 40.804688 70.648438 " fill-opacity="1" fill-rule="nonzero"/><path fill="#000000" d="M 40.339844 91.726562 C 39.296875 91.726562 38.359375 91.351562 37.695312 90.234375 C 36.230469 87.785156 35.382812 84.460938 34.628906 81.527344 C 34.367188 80.492188 34.117188 79.523438 33.847656 78.605469 C 33.25 76.546875 32.8125 74.226562 34.089844 72.585938 C 35.054688 71.34375 36.746094 70.914062 37.972656 70.605469 C 38.1875 70.550781 38.386719 70.496094 38.570312 70.445312 C 39.800781 70.121094 40.421875 69.957031 40.957031 70.492188 C 41.253906 70.789062 41.492188 71.289062 41.757812 71.949219 C 42.128906 72.875 42.371094 73.898438 42.601562 74.886719 C 42.71875 75.394531 42.839844 75.917969 42.980469 76.410156 C 44.105469 80.457031 45.136719 84.097656 46.359375 87.703125 C 46.59375 88.394531 46.777344 89.183594 46.328125 89.761719 C 46.0625 90.105469 45.648438 90.261719 45.246094 90.390625 C 44.855469 90.515625 44.449219 90.664062 44.039062 90.8125 C 42.816406 91.25 41.507812 91.726562 40.339844 91.726562 Z M 40.089844 70.578125 C 39.789062 70.578125 39.359375 70.683594 38.683594 70.867188 C 38.5 70.914062 38.300781 70.964844 38.082031 71.023438 C 36.617188 71.394531 35.238281 71.8125 34.429688 72.847656 C 33.269531 74.339844 33.695312 76.535156 34.265625 78.484375 C 34.535156 79.402344 34.785156 80.382812 35.050781 81.414062 C 35.832031 84.464844 36.640625 87.617188 38.070312 90.011719 C 39.300781 92.066406 41.636719 91.21875 43.894531 90.402344 C 44.3125 90.253906 44.722656 90.101562 45.117188 89.976562 C 45.46875 89.863281 45.796875 89.742188 45.988281 89.496094 C 46.3125 89.082031 46.160156 88.460938 45.949219 87.847656 C 44.722656 84.226562 43.6875 80.582031 42.5625 76.53125 C 42.425781 76.03125 42.296875 75.5 42.179688 74.992188 C 41.953125 74.015625 41.714844 73.011719 41.355469 72.117188 C 41.0625 71.394531 40.863281 71.015625 40.652344 70.804688 C 40.496094 70.648438 40.332031 70.578125 40.089844 70.578125 Z M 40.089844 70.578125 " fill-opacity="1" fill-rule="nonzero"/><path fill="#f191bc" d="M 38.921875 73.375 C 38.773438 70.296875 39.445312 67.105469 41.957031 65.109375 C 43.964844 63.511719 48.53125 60.839844 50.945312 62.949219 C 51.636719 63.554688 52.070312 64.398438 52.453125 65.238281 C 53.367188 67.25 54.070312 69.378906 54.859375 71.445312 C 56.480469 75.675781 58.472656 79.855469 59.925781 84.144531 C 60.914062 87.066406 61.605469 90.636719 58.246094 92.265625 C 56.183594 93.269531 53.917969 93.84375 51.621094 93.941406 C 44.992188 94.222656 42.183594 87.039062 40.597656 81.785156 C 39.882812 79.414062 39.285156 76.996094 39.015625 74.535156 C 38.972656 74.15625 38.941406 73.765625 38.921875 73.375 Z M 38.921875 73.375 " fill-opacity="1" fill-rule="nonzero"/><path fill="#000000" d="M 38.90625 72.972656 C 38.785156 72.972656 38.691406 72.875 38.6875 72.757812 C 38.671875 71.328125 38.84375 70.019531 39.203125 68.871094 C 39.238281 68.753906 39.359375 68.691406 39.476562 68.726562 C 39.589844 68.761719 39.652344 68.886719 39.617188 69 C 39.273438 70.109375 39.105469 71.371094 39.117188 72.753906 C 39.121094 72.871094 39.027344 72.96875 38.90625 72.972656 Z M 38.90625 72.972656 " fill-opacity="1" fill-rule="nonzero"/><path fill="#000000" d="M 56.007812 74.542969 C 55.921875 74.542969 55.84375 74.492188 55.808594 74.40625 C 55.347656 73.292969 54.980469 72.378906 54.65625 71.523438 C 54.414062 70.894531 54.179688 70.257812 53.945312 69.617188 C 53.425781 68.195312 52.886719 66.722656 52.253906 65.328125 C 51.910156 64.566406 51.480469 63.703125 50.800781 63.109375 C 48.539062 61.136719 44.113281 63.664062 42.085938 65.273438 C 41.996094 65.351562 41.855469 65.332031 41.785156 65.238281 C 41.710938 65.144531 41.726562 65.007812 41.820312 64.9375 C 44.097656 63.121094 48.617188 60.625 51.082031 62.785156 C 51.828125 63.4375 52.28125 64.34375 52.644531 65.148438 C 53.285156 66.550781 53.824219 68.03125 54.347656 69.464844 C 54.582031 70.101562 54.8125 70.734375 55.054688 71.363281 C 55.378906 72.210938 55.742188 73.121094 56.203125 74.234375 C 56.25 74.347656 56.195312 74.472656 56.085938 74.519531 C 56.066406 74.539062 56.035156 74.542969 56.007812 74.542969 Z M 56.007812 74.542969 " fill-opacity="1" fill-rule="nonzero"/><path fill="#000000" d="M 51.230469 94.171875 C 44.921875 94.171875 42.125 87.613281 40.386719 81.855469 C 39.535156 79.035156 39.03125 76.71875 38.796875 74.566406 C 38.753906 74.164062 38.722656 73.769531 38.707031 73.386719 C 38.699219 73.230469 38.695312 73.066406 38.691406 72.910156 C 38.6875 72.792969 38.78125 72.691406 38.902344 72.6875 C 39.023438 72.679688 39.117188 72.78125 39.121094 72.898438 C 39.125 73.050781 39.128906 73.210938 39.136719 73.363281 C 39.15625 73.734375 39.1875 74.125 39.230469 74.515625 C 39.460938 76.640625 39.960938 78.9375 40.804688 81.730469 C 42.53125 87.453125 45.3125 93.992188 51.609375 93.730469 C 53.863281 93.632812 56.121094 93.0625 58.148438 92.078125 C 58.640625 91.839844 59.058594 91.546875 59.398438 91.207031 C 59.480469 91.125 59.617188 91.125 59.703125 91.207031 C 59.789062 91.292969 59.789062 91.429688 59.703125 91.515625 C 59.332031 91.886719 58.871094 92.210938 58.335938 92.46875 C 56.257812 93.480469 53.9375 94.066406 51.625 94.167969 C 51.496094 94.167969 51.367188 94.171875 51.230469 94.171875 Z M 51.230469 94.171875 " fill-opacity="1" fill-rule="nonzero"/><path fill="#000000" d="M 53.683594 91.714844 C 52.207031 91.714844 50.824219 91.4375 49.621094 90.898438 C 47.621094 90.003906 46.109375 88.332031 45.570312 86.433594 C 45.542969 86.320312 45.605469 86.199219 45.722656 86.164062 C 45.835938 86.132812 45.953125 86.199219 45.988281 86.316406 C 46.492188 88.09375 47.914062 89.65625 49.796875 90.5 C 51.449219 91.242188 53.449219 91.457031 55.582031 91.128906 C 55.703125 91.109375 55.8125 91.191406 55.832031 91.308594 C 55.851562 91.425781 55.769531 91.539062 55.652344 91.558594 C 54.980469 91.660156 54.324219 91.714844 53.683594 91.714844 Z M 53.683594 91.714844 " fill-opacity="1" fill-rule="nonzero"/><path fill="#000000" d="M 53.5 87.988281 C 52.84375 87.988281 52.1875 87.945312 51.53125 87.824219 C 49.941406 87.523438 48.652344 86.765625 47.894531 85.683594 C 47.828125 85.582031 47.851562 85.449219 47.949219 85.378906 C 48.050781 85.308594 48.183594 85.332031 48.253906 85.433594 C 48.941406 86.417969 50.132812 87.117188 51.609375 87.394531 C 52.953125 87.648438 54.347656 87.542969 55.699219 87.445312 C 55.816406 87.4375 55.917969 87.523438 55.925781 87.644531 C 55.933594 87.761719 55.847656 87.867188 55.726562 87.878906 C 54.996094 87.929688 54.25 87.988281 53.5 87.988281 Z M 53.5 87.988281 " fill-opacity="1" fill-rule="nonzero"/><path fill="#ffeabd" d="M 112.820312 52.980469 C 113.109375 53.707031 113.167969 54.601562 113.257812 55.339844 C 113.492188 57.246094 113.507812 59.183594 113.320312 61.09375 C 112.941406 64.921875 111.734375 68.671875 109.746094 71.960938 C 109.050781 73.113281 107.96875 72.996094 106.917969 72.417969 C 105.996094 71.914062 104.035156 70.824219 104.214844 69.539062 C 104.335938 68.671875 105.121094 67.640625 105.457031 66.820312 C 105.84375 65.863281 106.175781 64.890625 106.464844 63.898438 C 107.625 59.898438 108.050781 55.730469 108.46875 51.597656 C 109.4375 51.457031 110.429688 51.496094 111.382812 51.703125 C 112.148438 51.875 112.570312 52.363281 112.820312 52.980469 Z M 112.820312 52.980469 " fill-opacity="1" fill-rule="nonzero"/><path fill="#000000" d="M 108.324219 73.066406 C 107.90625 73.066406 107.414062 72.9375 106.820312 72.613281 C 105.988281 72.15625 104.261719 71.207031 104.019531 69.988281 C 103.996094 69.867188 104.074219 69.757812 104.1875 69.730469 C 104.308594 69.710938 104.417969 69.78125 104.441406 69.898438 C 104.644531 70.917969 106.308594 71.832031 107.027344 72.222656 C 108.195312 72.863281 109.019531 72.742188 109.5625 71.84375 C 111.503906 68.628906 112.726562 64.898438 113.109375 61.0625 C 113.296875 59.152344 113.277344 57.234375 113.042969 55.355469 C 113.027344 55.226562 113.011719 55.09375 112.996094 54.957031 C 112.925781 54.332031 112.847656 53.628906 112.617188 53.054688 C 112.355469 52.40625 111.945312 52.042969 111.339844 51.90625 C 110.457031 51.714844 109.5625 51.671875 108.667969 51.78125 C 108.484375 53.609375 108.273438 55.660156 107.988281 57.636719 C 107.972656 57.757812 107.859375 57.839844 107.742188 57.820312 C 107.625 57.804688 107.542969 57.695312 107.558594 57.574219 C 107.851562 55.546875 108.066406 53.429688 108.253906 51.566406 C 108.265625 51.464844 108.34375 51.386719 108.4375 51.375 C 109.4375 51.234375 110.445312 51.265625 111.429688 51.484375 C 112.183594 51.652344 112.703125 52.109375 113.019531 52.894531 C 113.273438 53.519531 113.355469 54.261719 113.425781 54.914062 C 113.441406 55.046875 113.457031 55.175781 113.472656 55.304688 C 113.703125 57.214844 113.726562 59.167969 113.535156 61.109375 C 113.148438 65.007812 111.90625 68.796875 109.929688 72.070312 C 109.625 72.585938 109.125 73.066406 108.324219 73.066406 Z M 108.324219 73.066406 " fill-opacity="1" fill-rule="nonzero"/><path fill="#dbd2ea" d="M 104.910156 70.648438 C 105.433594 70.128906 106.085938 70.40625 107.6875 70.8125 C 109.078125 71.164062 110.570312 71.582031 111.457031 72.714844 C 112.699219 74.3125 112.226562 76.601562 111.660156 78.542969 C 110.605469 82.160156 109.777344 86.878906 107.835938 90.121094 C 106.273438 92.734375 103.09375 91 100.539062 90.179688 C 100.175781 90.0625 99.796875 89.925781 99.5625 89.625 C 99.167969 89.113281 99.359375 88.378906 99.566406 87.769531 C 100.828125 84.046875 101.898438 80.25 102.953125 76.464844 C 103.351562 75.019531 103.605469 73.414062 104.164062 72.023438 C 104.441406 71.332031 104.660156 70.894531 104.910156 70.648438 Z M 104.910156 70.648438 " fill-opacity="1" fill-rule="nonzero"/><path fill="#000000" d="M 105.375 91.726562 C 104.207031 91.726562 102.898438 91.25 101.675781 90.808594 C 101.261719 90.660156 100.859375 90.511719 100.46875 90.386719 C 100.066406 90.257812 99.652344 90.101562 99.386719 89.757812 C 98.9375 89.183594 99.117188 88.394531 99.355469 87.699219 C 100.582031 84.089844 101.613281 80.449219 102.738281 76.40625 C 102.875 75.914062 102.996094 75.390625 103.117188 74.882812 C 103.347656 73.894531 103.585938 72.867188 103.957031 71.945312 C 104.277344 71.152344 104.503906 70.742188 104.757812 70.488281 C 105.296875 69.953125 105.914062 70.117188 107.144531 70.441406 C 107.328125 70.492188 107.527344 70.542969 107.742188 70.601562 C 108.976562 70.914062 110.660156 71.339844 111.625 72.582031 C 112.90625 74.222656 112.464844 76.546875 111.867188 78.601562 C 111.597656 79.515625 111.351562 80.488281 111.085938 81.523438 C 110.335938 84.457031 109.480469 87.785156 108.023438 90.230469 C 107.355469 91.347656 106.421875 91.726562 105.375 91.726562 Z M 105.625 70.578125 C 105.378906 70.578125 105.214844 70.648438 105.0625 70.800781 C 104.851562 71.007812 104.648438 71.386719 104.355469 72.113281 C 103.996094 73.007812 103.761719 74.015625 103.535156 74.988281 C 103.414062 75.496094 103.292969 76.027344 103.148438 76.527344 C 102.023438 80.574219 100.996094 84.21875 99.761719 87.84375 C 99.554688 88.457031 99.40625 89.078125 99.722656 89.492188 C 99.914062 89.738281 100.242188 89.859375 100.597656 89.972656 C 100.992188 90.097656 101.398438 90.25 101.816406 90.398438 C 104.078125 91.21875 106.414062 92.0625 107.640625 90.007812 C 109.070312 87.617188 109.878906 84.460938 110.660156 81.414062 C 110.925781 80.378906 111.175781 79.402344 111.445312 78.480469 C 112.011719 76.53125 112.4375 74.335938 111.28125 72.84375 C 110.472656 71.808594 109.09375 71.386719 107.632812 71.019531 C 107.414062 70.964844 107.214844 70.910156 107.03125 70.863281 C 106.355469 70.683594 105.929688 70.578125 105.625 70.578125 Z M 104.910156 70.648438 Z M 104.910156 70.648438 " fill-opacity="1" fill-rule="nonzero"/><path fill="#f191bc" d="M 106.792969 73.375 C 106.941406 70.296875 106.273438 67.105469 103.757812 65.109375 C 101.753906 63.511719 97.183594 60.839844 94.769531 62.949219 C 94.078125 63.554688 93.644531 64.398438 93.261719 65.238281 C 92.347656 67.25 91.644531 69.378906 90.855469 71.445312 C 89.238281 75.675781 87.242188 79.855469 85.789062 84.144531 C 84.800781 87.066406 84.109375 90.636719 87.46875 92.265625 C 89.53125 93.269531 91.800781 93.84375 94.09375 93.941406 C 100.722656 94.222656 103.535156 87.039062 105.117188 81.785156 C 105.835938 79.414062 106.433594 76.996094 106.699219 74.535156 C 106.742188 74.15625 106.773438 73.765625 106.792969 73.375 Z M 106.792969 73.375 " fill-opacity="1" fill-rule="nonzero"/><path fill="#000000" d="M 106.8125 72.972656 C 106.6875 72.972656 106.59375 72.871094 106.59375 72.753906 C 106.609375 71.367188 106.441406 70.105469 106.09375 69 C 106.0625 68.886719 106.121094 68.765625 106.238281 68.726562 C 106.351562 68.691406 106.46875 68.753906 106.507812 68.871094 C 106.867188 70.019531 107.042969 71.328125 107.027344 72.757812 C 107.027344 72.875 106.929688 72.972656 106.8125 72.972656 Z M 106.8125 72.972656 " fill-opacity="1" fill-rule="nonzero"/><path fill="#000000" d="M 89.707031 74.542969 C 89.679688 74.542969 89.652344 74.539062 89.625 74.527344 C 89.511719 74.480469 89.460938 74.355469 89.503906 74.242188 C 89.964844 73.132812 90.328125 72.21875 90.652344 71.371094 C 90.894531 70.742188 91.125 70.109375 91.359375 69.472656 C 91.882812 68.039062 92.421875 66.554688 93.066406 65.152344 C 93.429688 64.347656 93.882812 63.441406 94.628906 62.789062 C 97.097656 60.628906 101.613281 63.125 103.894531 64.941406 C 103.984375 65.011719 104.003906 65.152344 103.929688 65.242188 C 103.855469 65.335938 103.71875 65.355469 103.625 65.277344 C 101.597656 63.667969 97.171875 61.140625 94.914062 63.113281 C 94.230469 63.707031 93.800781 64.570312 93.457031 65.332031 C 92.824219 66.722656 92.285156 68.199219 91.765625 69.621094 C 91.53125 70.257812 91.296875 70.894531 91.054688 71.523438 C 90.730469 72.378906 90.363281 73.292969 89.902344 74.40625 C 89.871094 74.492188 89.792969 74.542969 89.707031 74.542969 Z M 89.707031 74.542969 " fill-opacity="1" fill-rule="nonzero"/><path fill="#000000" d="M 94.484375 94.171875 C 94.355469 94.171875 94.21875 94.167969 94.085938 94.164062 C 91.777344 94.0625 89.457031 93.480469 87.375 92.464844 C 86.839844 92.207031 86.378906 91.882812 86.007812 91.511719 C 85.925781 91.425781 85.925781 91.289062 86.007812 91.203125 C 86.09375 91.121094 86.230469 91.121094 86.316406 91.203125 C 86.652344 91.542969 87.074219 91.835938 87.5625 92.074219 C 89.589844 93.0625 91.851562 93.628906 94.101562 93.726562 C 100.398438 93.984375 103.179688 87.453125 104.90625 81.726562 C 105.75 78.933594 106.253906 76.636719 106.480469 74.511719 C 106.523438 74.125 106.554688 73.734375 106.574219 73.359375 C 106.582031 73.207031 106.585938 73.046875 106.589844 72.894531 C 106.59375 72.777344 106.683594 72.691406 106.8125 72.683594 C 106.929688 72.6875 107.027344 72.785156 107.023438 72.90625 C 107.019531 73.0625 107.015625 73.226562 107.007812 73.382812 C 106.988281 73.765625 106.957031 74.160156 106.914062 74.5625 C 106.679688 76.714844 106.175781 79.03125 105.324219 81.851562 C 103.589844 87.613281 100.792969 94.171875 94.484375 94.171875 Z M 94.484375 94.171875 " fill-opacity="1" fill-rule="nonzero"/><path fill="#000000" d="M 92.03125 91.714844 C 91.394531 91.714844 90.734375 91.664062 90.066406 91.558594 C 89.949219 91.539062 89.871094 91.425781 89.886719 91.308594 C 89.90625 91.1875 90.015625 91.109375 90.136719 91.128906 C 92.269531 91.457031 94.269531 91.242188 95.925781 90.5 C 97.804688 89.65625 99.230469 88.09375 99.730469 86.316406 C 99.765625 86.199219 99.882812 86.136719 100 86.164062 C 100.113281 86.195312 100.179688 86.320312 100.148438 86.433594 C 99.613281 88.332031 98.097656 90 96.101562 90.898438 C 94.890625 91.4375 93.507812 91.714844 92.03125 91.714844 Z M 92.03125 91.714844 " fill-opacity="1" fill-rule="nonzero"/><path fill="#000000" d="M 92.214844 87.988281 C 91.464844 87.988281 90.71875 87.933594 89.984375 87.878906 C 89.867188 87.871094 89.777344 87.765625 89.785156 87.644531 C 89.792969 87.523438 89.894531 87.4375 90.015625 87.445312 C 91.363281 87.542969 92.761719 87.648438 94.101562 87.394531 C 95.578125 87.117188 96.769531 86.417969 97.460938 85.433594 C 97.527344 85.332031 97.664062 85.308594 97.761719 85.378906 C 97.863281 85.449219 97.882812 85.582031 97.816406 85.683594 C 97.0625 86.765625 95.769531 87.523438 94.179688 87.824219 C 93.53125 87.945312 92.871094 87.988281 92.214844 87.988281 Z M 92.214844 87.988281 " fill-opacity="1" fill-rule="nonzero"/><g clip-path="url(#4caeb64bdd)"><path fill="#dbd2ea" d="M 38.992188 50.648438 C 39.820312 43.164062 41.136719 35.308594 45.402344 28.933594 C 48.5 24.308594 53.28125 21.195312 58.550781 19.382812 C 65.933594 16.839844 74.019531 15.753906 81.785156 16.804688 C 87.957031 17.644531 94.421875 19.894531 98.984375 24.246094 C 102.621094 27.71875 104.835938 32.367188 106.042969 37.203125 C 107.324219 42.335938 106.789062 47.402344 107.816406 52.539062 C 107.875 52.851562 107.945312 53.171875 108.105469 53.445312 C 108.632812 54.359375 109.882812 54.472656 110.941406 54.476562 C 111.78125 54.476562 112.6875 54.460938 113.378906 53.976562 C 114.089844 53.480469 114.421875 52.597656 114.625 51.75 C 115.851562 46.589844 114.722656 40.371094 113.445312 35.308594 C 112.132812 30.09375 109.875 25.105469 106.4375 20.953125 C 101.59375 15.113281 94.332031 11.601562 87.046875 9.96875 C 77.820312 7.894531 68.058594 8.546875 59.011719 11.160156 C 51.984375 13.1875 45.285156 16.695312 40.648438 22.488281 C 34.234375 30.5 32.398438 40.695312 31.296875 50.644531 C 31.070312 52.71875 33.230469 54.5 35.144531 54.5 C 37.414062 54.507812 38.761719 52.730469 38.992188 50.648438 Z M 38.992188 50.648438 " fill-opacity="1" fill-rule="nonzero"/><path fill="#000000" d="M 35.144531 54.722656 C 34.023438 54.722656 32.816406 54.152344 32 53.234375 C 31.304688 52.460938 30.980469 51.535156 31.085938 50.625 C 31.578125 46.152344 32.28125 40.890625 33.773438 35.78125 C 35.332031 30.4375 37.527344 26.046875 40.476562 22.355469 C 44.671875 17.117188 50.886719 13.28125 58.953125 10.953125 C 66.863281 8.671875 75.042969 7.984375 82.601562 8.964844 C 82.71875 8.980469 82.804688 9.089844 82.789062 9.207031 C 82.773438 9.328125 82.667969 9.40625 82.546875 9.394531 C 75.046875 8.421875 66.929688 9.105469 59.070312 11.371094 C 51.09375 13.675781 44.953125 17.460938 40.816406 22.628906 C 34.488281 30.53125 32.605469 40.777344 31.511719 50.671875 C 31.425781 51.453125 31.710938 52.265625 32.320312 52.945312 C 33.058594 53.773438 34.140625 54.285156 35.144531 54.285156 C 37.527344 54.285156 38.589844 52.3125 38.773438 50.621094 C 39.613281 43.042969 40.972656 35.152344 45.21875 28.808594 C 48.105469 24.496094 52.691406 21.164062 58.472656 19.171875 C 66.308594 16.476562 74.378906 15.582031 81.808594 16.585938 C 86.835938 17.265625 93.925781 19.125 99.125 24.089844 C 105.867188 30.523438 107.148438 39.660156 107.527344 48.570312 C 107.589844 49.96875 107.652344 51.558594 108.292969 52.898438 C 108.394531 53.109375 108.523438 53.347656 108.71875 53.496094 C 108.960938 53.683594 109.304688 53.746094 109.609375 53.800781 C 110.457031 53.949219 111.332031 54.101562 112.1875 54.007812 C 113.109375 53.90625 113.890625 53.503906 114.320312 52.902344 C 114.738281 52.320312 114.851562 51.542969 114.921875 50.855469 C 115.402344 46.316406 114.738281 40.75 112.949219 34.300781 C 112.917969 34.1875 112.984375 34.066406 113.101562 34.03125 C 113.214844 34.003906 113.332031 34.066406 113.367188 34.183594 C 115.171875 40.683594 115.839844 46.308594 115.351562 50.902344 C 115.273438 51.640625 115.148438 52.484375 114.671875 53.15625 C 114.167969 53.855469 113.28125 54.324219 112.230469 54.4375 C 111.3125 54.535156 110.40625 54.378906 109.535156 54.226562 C 109.199219 54.167969 108.777344 54.09375 108.449219 53.839844 C 108.183594 53.632812 108.023438 53.339844 107.898438 53.082031 C 107.222656 51.664062 107.152344 50.027344 107.089844 48.585938 C 106.714844 39.765625 105.453125 30.730469 98.824219 24.402344 C 93.707031 19.515625 86.714844 17.6875 81.746094 17.015625 C 74.382812 16.019531 66.382812 16.90625 58.609375 19.585938 C 52.914062 21.546875 48.40625 24.820312 45.570312 29.050781 C 41.375 35.316406 40.03125 43.148438 39.199219 50.667969 C 38.984375 52.691406 37.640625 54.722656 35.144531 54.722656 Z M 35.144531 54.722656 " fill-opacity="1" fill-rule="nonzero"/></g><g clip-path="url(#72638edc9d)"><path fill="#f191bc" d="M 77.363281 97.316406 C 76.09375 97.386719 74.785156 97.464844 73.660156 98.046875 C 72.53125 98.628906 71.632812 99.863281 71.851562 101.113281 C 72.023438 102.09375 72.839844 102.867188 73.757812 103.257812 C 74.671875 103.648438 75.691406 103.722656 76.683594 103.792969 C 79.113281 103.960938 81.519531 104.105469 83.953125 103.949219 C 84.148438 103.9375 84.355469 103.921875 84.527344 103.824219 C 84.734375 103.714844 84.867188 103.507812 84.980469 103.300781 C 85.597656 102.144531 85.730469 100.738281 85.332031 99.484375 C 85.179688 99.007812 84.941406 98.539062 84.550781 98.230469 C 84.210938 97.960938 83.78125 97.839844 83.363281 97.734375 C 81.398438 97.253906 79.367188 97.214844 77.363281 97.316406 Z M 77.363281 97.316406 " fill-opacity="1" fill-rule="nonzero"/><path fill="#f191bc" d="M 81.746094 104.214844 C 80.101562 104.214844 78.445312 104.109375 76.667969 103.992188 C 75.714844 103.925781 74.636719 103.847656 73.675781 103.441406 C 72.59375 102.980469 71.820312 102.101562 71.652344 101.148438 C 71.398438 99.703125 72.464844 98.433594 73.5625 97.871094 C 74.75 97.257812 76.128906 97.183594 77.347656 97.117188 C 79.777344 96.988281 81.703125 97.121094 83.40625 97.535156 C 83.820312 97.636719 84.289062 97.769531 84.667969 98.066406 C 85.042969 98.359375 85.324219 98.800781 85.519531 99.417969 C 85.9375 100.730469 85.800781 102.175781 85.152344 103.382812 C 85.03125 103.605469 84.875 103.851562 84.617188 103.992188 C 84.402344 104.109375 84.160156 104.125 83.964844 104.136719 C 83.222656 104.195312 82.484375 104.214844 81.746094 104.214844 Z M 79.050781 97.472656 C 78.519531 97.472656 77.960938 97.484375 77.375 97.515625 C 76.199219 97.578125 74.859375 97.652344 73.75 98.222656 C 72.746094 98.742188 71.84375 99.886719 72.050781 101.074219 C 72.222656 102.058594 73.085938 102.746094 73.839844 103.070312 C 74.734375 103.449219 75.734375 103.519531 76.699219 103.585938 C 79.253906 103.765625 81.5625 103.898438 83.941406 103.742188 C 84.105469 103.730469 84.292969 103.71875 84.429688 103.640625 C 84.597656 103.554688 84.710938 103.367188 84.800781 103.195312 C 85.390625 102.09375 85.519531 100.730469 85.140625 99.539062 C 84.972656 99.003906 84.738281 98.625 84.421875 98.378906 C 84.105469 98.132812 83.679688 98.011719 83.3125 97.921875 C 82.0625 97.621094 80.679688 97.472656 79.050781 97.472656 Z M 79.050781 97.472656 " fill-opacity="1" fill-rule="nonzero"/><path fill="#000000" d="M 81.746094 104.230469 C 80.101562 104.230469 78.441406 104.125 76.667969 104.003906 C 75.714844 103.9375 74.636719 103.859375 73.671875 103.453125 C 72.585938 102.992188 71.804688 102.105469 71.640625 101.148438 C 71.386719 99.695312 72.457031 98.421875 73.558594 97.851562 C 74.644531 97.289062 75.871094 97.179688 77.140625 97.109375 C 77.261719 97.09375 77.363281 97.195312 77.371094 97.3125 C 77.375 97.433594 77.285156 97.535156 77.167969 97.542969 C 75.949219 97.609375 74.773438 97.714844 73.761719 98.238281 C 72.765625 98.753906 71.863281 99.890625 72.070312 101.074219 C 72.242188 102.050781 73.097656 102.738281 73.847656 103.054688 C 74.742188 103.433594 75.738281 103.503906 76.703125 103.570312 C 79.257812 103.746094 81.566406 103.878906 83.945312 103.722656 C 84.109375 103.710938 84.292969 103.699219 84.425781 103.625 C 84.589844 103.539062 84.703125 103.355469 84.792969 103.1875 C 85.28125 102.273438 85.453125 101.191406 85.273438 100.148438 C 85.253906 100.03125 85.332031 99.917969 85.449219 99.898438 C 85.570312 99.878906 85.679688 99.957031 85.699219 100.078125 C 85.894531 101.210938 85.707031 102.390625 85.171875 103.390625 C 85.050781 103.613281 84.890625 103.863281 84.628906 104.007812 C 84.410156 104.125 84.164062 104.140625 83.96875 104.15625 C 83.226562 104.210938 82.484375 104.230469 81.746094 104.230469 Z M 81.746094 104.230469 " fill-opacity="1" fill-rule="nonzero"/></g><path fill="#000000" d="M 77.09375 102.082031 C 77.070312 102.082031 77.042969 102.078125 77.019531 102.070312 C 75.804688 101.628906 74.75 100.726562 74.132812 99.582031 C 74.074219 99.476562 74.113281 99.34375 74.222656 99.285156 C 74.324219 99.226562 74.457031 99.265625 74.515625 99.375 C 75.082031 100.421875 76.046875 101.257812 77.171875 101.660156 C 77.28125 101.703125 77.34375 101.828125 77.300781 101.9375 C 77.265625 102.03125 77.179688 102.082031 77.09375 102.082031 Z M 77.09375 102.082031 " fill-opacity="1" fill-rule="nonzero"/><path fill="#000000" d="M 79.769531 101.324219 C 79.746094 101.324219 79.71875 101.320312 79.695312 101.308594 C 78.546875 100.882812 77.53125 100.152344 76.765625 99.195312 C 76.691406 99.101562 76.703125 98.964844 76.796875 98.890625 C 76.894531 98.816406 77.027344 98.828125 77.101562 98.925781 C 77.816406 99.824219 78.765625 100.507812 79.84375 100.90625 C 79.953125 100.949219 80.011719 101.070312 79.96875 101.1875 C 79.941406 101.269531 79.859375 101.324219 79.769531 101.324219 Z M 79.769531 101.324219 " fill-opacity="1" fill-rule="nonzero"/></svg>