<svg xmlns="http://www.w3.org/2000/svg" xmlns:xlink="http://www.w3.org/1999/xlink" width="300" zoomAndPan="magnify" viewBox="0 0 224.87999 225" height="300" preserveAspectRatio="xMidYMid meet" version="1.0"><defs><clipPath id="a497807753"><path d="M 19 39.382812 L 206 39.382812 L 206 185.554688 L 19 185.554688 Z M 19 39.382812 " clip-rule="nonzero"/></clipPath><clipPath id="0603e56d7a"><path d="M 19 39.382812 L 206.644531 39.382812 L 206.644531 185.554688 L 19 185.554688 Z M 19 39.382812 " clip-rule="nonzero"/></clipPath><clipPath id="a3a5660477"><path d="M 19 46 L 195 46 L 195 185.554688 L 19 185.554688 Z M 19 46 " clip-rule="nonzero"/></clipPath><clipPath id="b2ef63a933"><path d="M 19 46 L 196 46 L 196 185.554688 L 19 185.554688 Z M 19 46 " clip-rule="nonzero"/></clipPath><clipPath id="67dd8db751"><path d="M 104 39.382812 L 145 39.382812 L 145 125 L 104 125 Z M 104 39.382812 " clip-rule="nonzero"/></clipPath><clipPath id="aff2eb1589"><path d="M 104 39.382812 L 145 39.382812 L 145 126 L 104 126 Z M 104 39.382812 " clip-rule="nonzero"/></clipPath><clipPath id="d809f9dbbc"><path d="M 22 39.382812 L 60 39.382812 L 60 48 L 22 48 Z M 22 39.382812 " clip-rule="nonzero"/></clipPath><clipPath id="0833b0a06d"><path d="M 21 39.382812 L 61 39.382812 L 61 49 L 21 49 Z M 21 39.382812 " clip-rule="nonzero"/></clipPath><clipPath id="d8e88ef4b9"><path d="M 165 39.382812 L 205 39.382812 L 205 49 L 165 49 Z M 165 39.382812 " clip-rule="nonzero"/></clipPath><clipPath id="7d51ac3913"><path d="M 165 39.382812 L 206 39.382812 L 206 50 L 165 50 Z M 165 39.382812 " clip-rule="nonzero"/></clipPath><clipPath id="6660335785"><path d="M 147 41 L 206.644531 41 L 206.644531 185 L 147 185 Z M 147 41 " clip-rule="nonzero"/></clipPath></defs><g clip-path="url(#a497807753)"><path fill="#000000" d="M 200.683594 39.90625 L 179.6875 39.90625 C 178.816406 39.90625 177.984375 40.132812 177.25 40.53125 L 177.238281 40.539062 C 177.109375 40.609375 176.988281 40.683594 176.867188 40.765625 L 165.976562 47.367188 C 165.917969 47.398438 165.859375 47.433594 165.804688 47.46875 L 165.789062 47.480469 L 165.792969 47.480469 C 164.847656 48.078125 164.105469 48.980469 163.71875 50.082031 L 144.289062 105.5 L 122.292969 42.78125 C 121.6875 41.058594 120.058594 39.90625 118.230469 39.90625 C 117.503906 39.90625 116.8125 40.09375 116.203125 40.421875 L 116.203125 40.417969 L 104.929688 47.25 L 104.933594 47.257812 C 104.054688 47.757812 103.351562 48.558594 103 49.558594 L 83.386719 105.5 L 61.574219 43.304688 C 60.863281 41.269531 58.9375 39.90625 56.777344 39.90625 L 35.777344 39.90625 C 34.699219 39.90625 33.722656 40.234375 32.917969 40.78125 L 22.25 47.257812 C 22.054688 47.359375 21.867188 47.472656 21.6875 47.601562 L 21.679688 47.605469 C 19.914062 48.851562 19.015625 51.179688 19.804688 53.4375 L 64.765625 181.636719 C 65.480469 183.671875 67.40625 185.035156 69.566406 185.035156 L 83.667969 185.03125 C 84.734375 185.03125 85.746094 184.699219 86.582031 184.113281 L 97.402344 177.558594 C 97.441406 177.535156 97.480469 177.511719 97.519531 177.488281 L 97.53125 177.480469 C 98.488281 176.882812 99.246094 175.972656 99.636719 174.855469 L 111.460938 141.128906 L 125.667969 181.636719 C 126.378906 183.671875 128.304688 185.035156 130.464844 185.035156 L 144.566406 185.03125 C 145.667969 185.03125 146.707031 184.675781 147.554688 184.058594 L 147.558594 184.058594 L 158.105469 177.667969 L 158.101562 177.667969 C 159.214844 177.085938 160.101562 176.097656 160.535156 174.855469 L 205.484375 46.65625 C 206.640625 43.359375 204.1875 39.90625 200.683594 39.90625 Z M 200.683594 39.90625 " fill-opacity="1" fill-rule="nonzero"/></g><g clip-path="url(#0603e56d7a)"><path fill="#000000" d="M 130.464844 185.542969 C 128.09375 185.542969 125.96875 184.039062 125.1875 181.804688 L 111.460938 142.664062 L 100.117188 175.023438 C 99.703125 176.207031 98.886719 177.226562 97.820312 177.898438 C 97.8125 177.90625 97.800781 177.910156 97.792969 177.917969 C 97.746094 177.945312 97.703125 177.972656 97.660156 177.996094 L 86.851562 184.542969 C 85.914062 185.195312 84.8125 185.539062 83.667969 185.539062 L 69.566406 185.542969 C 67.191406 185.542969 65.070312 184.039062 64.285156 181.804688 L 19.324219 53.601562 C 18.496094 51.238281 19.3125 48.671875 21.355469 47.210938 C 21.375 47.199219 21.390625 47.1875 21.40625 47.175781 C 21.59375 47.046875 21.792969 46.925781 22 46.816406 L 32.65625 40.347656 C 32.664062 40.339844 32.671875 40.335938 32.679688 40.332031 C 33.59375 39.722656 34.664062 39.398438 35.777344 39.398438 L 56.777344 39.398438 C 59.148438 39.398438 61.269531 40.902344 62.054688 43.136719 L 83.386719 103.964844 L 102.519531 49.390625 C 102.886719 48.339844 103.625 47.449219 104.59375 46.867188 C 104.617188 46.847656 104.640625 46.832031 104.667969 46.8125 L 115.9375 39.984375 C 115.96875 39.964844 116 39.949219 116.035156 39.9375 C 116.71875 39.585938 117.476562 39.398438 118.230469 39.398438 C 120.273438 39.398438 122.097656 40.691406 122.773438 42.613281 L 144.289062 103.964844 L 163.238281 49.914062 C 163.648438 48.746094 164.449219 47.734375 165.496094 47.0625 C 165.507812 47.058594 165.515625 47.050781 165.527344 47.042969 C 165.59375 47 165.65625 46.960938 165.722656 46.925781 L 176.59375 40.335938 C 176.71875 40.253906 176.851562 40.171875 176.988281 40.097656 C 176.996094 40.09375 177 40.089844 177.007812 40.085938 C 177.832031 39.636719 178.757812 39.398438 179.6875 39.398438 L 200.683594 39.398438 C 202.519531 39.398438 204.183594 40.257812 205.246094 41.75 C 206.308594 43.246094 206.570312 45.097656 205.960938 46.824219 L 161.015625 175.023438 C 160.554688 176.347656 159.613281 177.4375 158.371094 178.101562 C 158.371094 178.101562 158.371094 178.101562 158.367188 178.101562 L 147.828125 184.492188 C 146.871094 185.175781 145.742188 185.539062 144.566406 185.539062 Z M 111.460938 140.621094 C 111.675781 140.621094 111.867188 140.757812 111.941406 140.960938 L 126.144531 181.46875 C 126.789062 183.296875 128.523438 184.527344 130.464844 184.527344 L 144.566406 184.523438 C 145.539062 184.523438 146.46875 184.222656 147.257812 183.648438 C 147.277344 183.632812 147.300781 183.621094 147.320312 183.609375 L 157.8125 177.253906 C 157.828125 177.242188 157.847656 177.230469 157.867188 177.21875 C 158.894531 176.679688 159.675781 175.78125 160.054688 174.6875 L 205.003906 46.492188 C 205.5 45.074219 205.285156 43.5625 204.414062 42.339844 C 203.546875 41.117188 202.1875 40.414062 200.683594 40.414062 L 179.6875 40.414062 C 178.929688 40.414062 178.167969 40.609375 177.496094 40.976562 C 177.492188 40.980469 177.488281 40.980469 177.488281 40.980469 C 177.484375 40.980469 177.484375 40.984375 177.484375 40.984375 C 177.367188 41.046875 177.253906 41.117188 177.148438 41.1875 C 177.140625 41.191406 177.136719 41.195312 177.128906 41.199219 L 166.238281 47.800781 C 166.179688 47.835938 166.128906 47.867188 166.078125 47.898438 C 166.074219 47.902344 166.070312 47.902344 166.0625 47.90625 C 165.199219 48.457031 164.535156 49.289062 164.199219 50.25 L 144.769531 105.667969 C 144.695312 105.871094 144.503906 106.007812 144.289062 106.007812 C 144.074219 106.007812 143.878906 105.871094 143.808594 105.667969 L 121.8125 42.949219 C 121.28125 41.433594 119.84375 40.414062 118.230469 40.414062 C 117.617188 40.414062 117 40.570312 116.441406 40.871094 C 116.429688 40.878906 116.414062 40.882812 116.398438 40.890625 L 105.277344 47.632812 C 105.25 47.65625 105.21875 47.679688 105.1875 47.699219 C 104.386719 48.15625 103.777344 48.875 103.480469 49.726562 L 83.867188 105.667969 C 83.796875 105.871094 83.601562 106.007812 83.386719 106.007812 C 83.171875 106.007812 82.980469 105.871094 82.90625 105.667969 L 61.09375 43.472656 C 60.453125 41.644531 58.71875 40.414062 56.777344 40.414062 L 35.777344 40.414062 C 34.851562 40.414062 33.960938 40.6875 33.207031 41.203125 C 33.183594 41.214844 33.160156 41.230469 33.136719 41.242188 L 22.515625 47.691406 C 22.507812 47.695312 22.496094 47.703125 22.488281 47.707031 C 22.3125 47.800781 22.144531 47.902344 21.988281 48.011719 C 21.984375 48.011719 21.976562 48.015625 21.972656 48.019531 C 20.28125 49.214844 19.605469 51.324219 20.285156 53.269531 L 65.246094 181.46875 C 65.886719 183.296875 67.621094 184.527344 69.566406 184.527344 L 83.667969 184.523438 C 84.609375 184.523438 85.515625 184.238281 86.289062 183.699219 C 86.300781 183.6875 86.316406 183.679688 86.332031 183.671875 L 97.140625 177.125 C 97.179688 177.101562 97.214844 177.078125 97.25 177.058594 C 97.253906 177.054688 97.257812 177.054688 97.261719 177.050781 C 98.140625 176.5 98.816406 175.660156 99.15625 174.6875 L 110.980469 140.960938 C 111.050781 140.757812 111.242188 140.621094 111.460938 140.621094 Z M 111.460938 140.621094 " fill-opacity="1" fill-rule="nonzero"/></g><g clip-path="url(#a3a5660477)"><path fill="#ffffff" d="M 107.0625 128.589844 L 88.464844 181.632812 C 87.75 183.667969 85.828125 185.03125 83.667969 185.03125 L 69.566406 185.035156 C 67.40625 185.035156 65.480469 183.671875 64.765625 181.636719 L 19.804688 53.4375 C 18.648438 50.136719 21.101562 46.683594 24.605469 46.683594 L 45.605469 46.683594 C 47.765625 46.683594 49.691406 48.046875 50.402344 50.082031 L 76.613281 124.820312 L 103 49.558594 C 103.605469 47.835938 105.234375 46.683594 107.0625 46.683594 C 108.890625 46.683594 110.515625 47.835938 111.121094 49.558594 L 137.515625 124.820312 L 163.71875 50.082031 C 164.433594 48.046875 166.355469 46.683594 168.515625 46.683594 L 189.511719 46.683594 C 193.015625 46.683594 195.46875 50.136719 194.3125 53.433594 L 149.367188 181.632812 C 148.652344 183.667969 146.726562 185.03125 144.566406 185.03125 L 130.464844 185.035156 C 128.304688 185.035156 126.378906 183.671875 125.667969 181.636719 Z M 107.0625 128.589844 " fill-opacity="1" fill-rule="nonzero"/></g><g clip-path="url(#b2ef63a933)"><path fill="#000000" d="M 130.464844 185.542969 C 128.09375 185.542969 125.972656 184.039062 125.1875 181.804688 L 107.0625 130.125 L 88.945312 181.800781 C 88.160156 184.035156 86.039062 185.539062 83.667969 185.539062 L 69.566406 185.542969 C 67.191406 185.542969 65.070312 184.039062 64.285156 181.804688 L 19.324219 53.601562 C 18.71875 51.875 18.980469 50.023438 20.042969 48.527344 C 21.105469 47.035156 22.769531 46.175781 24.605469 46.175781 L 45.605469 46.175781 C 47.976562 46.175781 50.101562 47.679688 50.882812 49.914062 L 76.613281 123.28125 L 102.519531 49.390625 C 103.195312 47.46875 105.019531 46.175781 107.0625 46.175781 C 109.101562 46.175781 110.925781 47.46875 111.601562 49.390625 L 137.515625 123.285156 L 163.238281 49.914062 C 164.023438 47.679688 166.144531 46.175781 168.519531 46.175781 L 189.511719 46.175781 C 191.347656 46.175781 193.011719 47.035156 194.074219 48.527344 C 195.136719 50.023438 195.398438 51.871094 194.792969 53.601562 L 149.847656 181.800781 C 149.0625 184.035156 146.941406 185.539062 144.566406 185.539062 Z M 107.0625 128.082031 C 107.277344 128.082031 107.46875 128.21875 107.542969 128.421875 L 126.144531 181.46875 C 126.789062 183.296875 128.523438 184.527344 130.464844 184.527344 L 144.566406 184.523438 C 146.507812 184.523438 148.246094 183.292969 148.886719 181.464844 L 193.832031 53.265625 C 194.328125 51.851562 194.113281 50.339844 193.246094 49.117188 C 192.375 47.890625 191.015625 47.191406 189.511719 47.191406 L 168.515625 47.191406 C 166.574219 47.191406 164.839844 48.421875 164.199219 50.25 L 137.996094 124.988281 C 137.921875 125.191406 137.730469 125.328125 137.515625 125.328125 C 137.300781 125.328125 137.105469 125.191406 137.035156 124.988281 L 110.640625 49.726562 C 110.109375 48.210938 108.671875 47.191406 107.0625 47.191406 C 105.449219 47.191406 104.011719 48.210938 103.480469 49.726562 L 77.09375 124.988281 C 77.023438 125.191406 76.832031 125.328125 76.613281 125.328125 C 76.398438 125.328125 76.207031 125.191406 76.132812 124.988281 L 49.925781 50.25 C 49.28125 48.421875 47.546875 47.191406 45.605469 47.191406 L 24.605469 47.191406 C 23.101562 47.191406 21.742188 47.894531 20.871094 49.117188 C 20.003906 50.339844 19.789062 51.851562 20.285156 53.269531 L 65.246094 181.46875 C 65.886719 183.296875 67.625 184.527344 69.566406 184.527344 L 83.667969 184.523438 C 85.609375 184.523438 87.34375 183.292969 87.984375 181.464844 L 106.582031 128.421875 C 106.652344 128.21875 106.847656 128.082031 107.0625 128.082031 Z M 107.0625 128.082031 " fill-opacity="1" fill-rule="nonzero"/></g><g clip-path="url(#67dd8db751)"><path fill="#c2b092" d="M 111.121094 49.558594 L 137.515625 124.820312 L 144.289062 105.5 L 122.292969 42.78125 C 121.6875 41.058594 120.058594 39.90625 118.230469 39.90625 C 117.503906 39.90625 116.8125 40.09375 116.203125 40.421875 L 116.203125 40.417969 L 104.929688 47.25 L 104.933594 47.257812 C 105.570312 46.894531 106.296875 46.683594 107.0625 46.683594 C 108.890625 46.683594 110.519531 47.835938 111.121094 49.558594 Z M 111.121094 49.558594 " fill-opacity="1" fill-rule="nonzero"/></g><g clip-path="url(#aff2eb1589)"><path fill="#000000" d="M 137.515625 125.328125 C 137.300781 125.328125 137.105469 125.191406 137.035156 124.988281 L 110.640625 49.726562 C 110.109375 48.210938 108.671875 47.191406 107.0625 47.191406 C 106.417969 47.191406 105.769531 47.367188 105.1875 47.699219 C 105.0625 47.769531 104.914062 47.785156 104.773438 47.738281 C 104.636719 47.695312 104.527344 47.59375 104.46875 47.460938 C 104.367188 47.226562 104.449219 46.945312 104.667969 46.8125 L 115.9375 39.984375 C 115.96875 39.964844 116 39.949219 116.035156 39.9375 C 116.71875 39.585938 117.476562 39.398438 118.230469 39.398438 C 120.273438 39.398438 122.097656 40.691406 122.773438 42.613281 L 144.769531 105.332031 C 144.804688 105.441406 144.808594 105.558594 144.769531 105.667969 L 137.996094 124.988281 C 137.921875 125.191406 137.730469 125.328125 137.515625 125.328125 Z M 111.601562 49.390625 L 137.515625 123.285156 L 143.75 105.5 L 121.8125 42.949219 C 121.28125 41.433594 119.84375 40.414062 118.230469 40.414062 C 117.617188 40.414062 117 40.570312 116.441406 40.871094 C 116.429688 40.878906 116.414062 40.882812 116.398438 40.890625 L 107.625 46.210938 C 109.433594 46.421875 110.988281 47.648438 111.601562 49.390625 Z M 111.601562 49.390625 " fill-opacity="1" fill-rule="nonzero"/></g><g clip-path="url(#d809f9dbbc)"><path fill="#c2b092" d="M 56.777344 39.90625 L 35.777344 39.90625 C 34.699219 39.90625 33.722656 40.234375 32.917969 40.78125 L 22.25 47.257812 C 22.949219 46.894531 23.742188 46.683594 24.605469 46.683594 L 45.605469 46.683594 C 46.765625 46.683594 47.855469 47.078125 48.730469 47.757812 L 59.894531 40.976562 C 59.023438 40.300781 57.933594 39.90625 56.777344 39.90625 Z M 56.777344 39.90625 " fill-opacity="1" fill-rule="nonzero"/></g><g clip-path="url(#0833b0a06d)"><path fill="#000000" d="M 48.730469 48.265625 C 48.617188 48.265625 48.507812 48.230469 48.417969 48.160156 C 47.613281 47.535156 46.617188 47.191406 45.605469 47.191406 L 24.605469 47.191406 C 23.855469 47.191406 23.144531 47.363281 22.488281 47.707031 C 22.246094 47.835938 21.945312 47.746094 21.808594 47.507812 C 21.671875 47.269531 21.753906 46.964844 21.988281 46.824219 L 32.65625 40.347656 C 32.664062 40.339844 32.671875 40.335938 32.679688 40.332031 C 33.59375 39.722656 34.664062 39.398438 35.777344 39.398438 L 56.777344 39.398438 C 58.007812 39.398438 59.226562 39.816406 60.207031 40.578125 C 60.339844 40.679688 60.414062 40.839844 60.402344 41.007812 C 60.394531 41.175781 60.304688 41.324219 60.160156 41.410156 L 48.992188 48.191406 C 48.914062 48.242188 48.820312 48.265625 48.730469 48.265625 Z M 25.011719 46.175781 L 45.605469 46.175781 C 46.722656 46.175781 47.828125 46.519531 48.753906 47.148438 L 58.941406 40.960938 C 58.277344 40.605469 57.53125 40.414062 56.777344 40.414062 L 35.777344 40.414062 C 34.851562 40.414062 33.960938 40.6875 33.207031 41.203125 C 33.183594 41.214844 33.160156 41.230469 33.136719 41.242188 Z M 25.011719 46.175781 " fill-opacity="1" fill-rule="nonzero"/></g><path fill="#c2b092" d="M 61.574219 43.304688 C 61.246094 42.359375 60.652344 41.5625 59.894531 40.976562 L 48.730469 47.757812 C 49.480469 48.34375 50.074219 49.140625 50.402344 50.082031 L 76.613281 124.820312 L 83.386719 105.5 Z M 61.574219 43.304688 " fill-opacity="1" fill-rule="nonzero"/><path fill="#000000" d="M 76.613281 125.328125 C 76.398438 125.328125 76.207031 125.191406 76.132812 124.988281 L 49.925781 50.25 C 49.636719 49.425781 49.113281 48.703125 48.417969 48.160156 C 48.285156 48.058594 48.210938 47.894531 48.222656 47.730469 C 48.230469 47.5625 48.324219 47.414062 48.464844 47.324219 L 59.632812 40.542969 C 59.8125 40.433594 60.042969 40.449219 60.207031 40.578125 C 61.0625 41.242188 61.699219 42.125 62.054688 43.136719 L 83.867188 105.332031 C 83.90625 105.441406 83.90625 105.558594 83.867188 105.667969 L 77.09375 124.988281 C 77.023438 125.191406 76.832031 125.328125 76.613281 125.328125 Z M 49.582031 47.835938 C 50.164062 48.421875 50.609375 49.132812 50.882812 49.914062 L 76.613281 123.28125 L 82.847656 105.5 L 61.09375 43.472656 C 60.84375 42.753906 60.414062 42.113281 59.847656 41.601562 Z M 49.582031 47.835938 " fill-opacity="1" fill-rule="nonzero"/><g clip-path="url(#d8e88ef4b9)"><path fill="#c2b092" d="M 200.683594 39.90625 L 179.6875 39.90625 C 178.816406 39.90625 177.984375 40.132812 177.25 40.53125 L 177.238281 40.539062 C 177.109375 40.609375 176.988281 40.683594 176.867188 40.765625 L 165.976562 47.367188 C 166.730469 46.929688 167.601562 46.683594 168.519531 46.683594 L 189.511719 46.683594 C 191.15625 46.683594 192.558594 47.449219 193.476562 48.59375 L 204.644531 41.8125 C 203.726562 40.667969 202.324219 39.90625 200.683594 39.90625 Z M 200.683594 39.90625 " fill-opacity="1" fill-rule="nonzero"/></g><g clip-path="url(#7d51ac3913)"><path fill="#000000" d="M 193.476562 49.101562 C 193.328125 49.101562 193.179688 49.035156 193.078125 48.910156 C 192.207031 47.816406 190.90625 47.191406 189.511719 47.191406 L 168.519531 47.191406 C 167.71875 47.191406 166.925781 47.402344 166.230469 47.804688 C 165.988281 47.945312 165.679688 47.863281 165.539062 47.625 C 165.398438 47.386719 165.472656 47.078125 165.710938 46.933594 L 176.59375 40.335938 C 176.71875 40.253906 176.851562 40.171875 176.988281 40.097656 C 176.996094 40.09375 177 40.089844 177.007812 40.085938 C 177.832031 39.636719 178.757812 39.398438 179.6875 39.398438 L 200.683594 39.398438 C 202.386719 39.398438 203.972656 40.164062 205.042969 41.496094 C 205.132812 41.609375 205.171875 41.757812 205.144531 41.902344 C 205.121094 42.046875 205.035156 42.171875 204.910156 42.246094 L 193.742188 49.027344 C 193.660156 49.078125 193.566406 49.101562 193.476562 49.101562 Z M 168.917969 46.175781 L 189.511719 46.175781 C 191.066406 46.175781 192.527344 46.8125 193.582031 47.9375 L 203.855469 41.699219 C 203.007812 40.875 201.878906 40.414062 200.683594 40.414062 L 179.6875 40.414062 C 178.929688 40.414062 178.167969 40.609375 177.496094 40.976562 C 177.492188 40.980469 177.488281 40.980469 177.488281 40.980469 C 177.484375 40.980469 177.484375 40.984375 177.484375 40.984375 C 177.367188 41.046875 177.253906 41.117188 177.148438 41.1875 C 177.140625 41.191406 177.136719 41.195312 177.128906 41.199219 Z M 168.917969 46.175781 " fill-opacity="1" fill-rule="nonzero"/></g><path fill="#c2b092" d="M 193.476562 48.59375 C 194.515625 49.894531 194.925781 51.683594 194.3125 53.433594 L 149.367188 181.632812 C 149.015625 182.632812 148.375 183.464844 147.558594 184.058594 L 158.105469 177.667969 C 159.214844 177.085938 160.101562 176.097656 160.535156 174.855469 L 205.484375 46.65625 C 206.097656 44.902344 205.6875 43.113281 204.644531 41.8125 Z M 193.476562 48.59375 " fill-opacity="1" fill-rule="nonzero"/><g clip-path="url(#6660335785)"><path fill="#000000" d="M 147.558594 184.566406 C 147.511719 184.566406 147.460938 184.5625 147.417969 184.546875 C 147.28125 184.507812 147.164062 184.414062 147.101562 184.285156 C 146.992188 184.066406 147.054688 183.792969 147.257812 183.648438 C 148.015625 183.097656 148.578125 182.34375 148.886719 181.464844 L 193.832031 53.265625 C 194.351562 51.78125 194.070312 50.152344 193.078125 48.910156 C 192.988281 48.796875 192.949219 48.648438 192.976562 48.507812 C 193.003906 48.363281 193.089844 48.238281 193.214844 48.160156 L 204.378906 41.378906 C 204.597656 41.246094 204.882812 41.296875 205.042969 41.496094 C 206.257812 43.011719 206.601562 45.003906 205.960938 46.824219 L 161.015625 175.023438 C 160.550781 176.347656 159.613281 177.441406 158.371094 178.101562 C 158.371094 178.101562 158.367188 178.101562 158.367188 178.101562 L 147.820312 184.492188 C 147.742188 184.542969 147.648438 184.566406 147.558594 184.566406 Z M 194.210938 48.742188 C 195.144531 50.1875 195.367188 51.964844 194.792969 53.601562 L 149.847656 181.800781 C 149.800781 181.925781 149.753906 182.046875 149.703125 182.167969 L 157.8125 177.253906 C 157.828125 177.242188 157.847656 177.230469 157.867188 177.21875 C 158.894531 176.679688 159.675781 175.78125 160.058594 174.6875 L 205.003906 46.492188 C 205.476562 45.140625 205.289062 43.675781 204.507812 42.488281 Z M 194.210938 48.742188 " fill-opacity="1" fill-rule="nonzero"/></g><path fill="#c2b092" d="M 88.464844 181.632812 C 88.105469 182.660156 87.433594 183.519531 86.582031 184.113281 L 97.402344 177.558594 C 97.441406 177.535156 97.480469 177.511719 97.519531 177.488281 L 97.53125 177.480469 C 98.488281 176.882812 99.246094 175.972656 99.636719 174.855469 L 111.460938 141.128906 L 107.0625 128.589844 Z M 88.464844 181.632812 " fill-opacity="1" fill-rule="nonzero"/><path fill="#000000" d="M 86.582031 184.621094 C 86.503906 184.621094 86.425781 184.605469 86.351562 184.566406 C 86.191406 184.488281 86.085938 184.328125 86.074219 184.152344 C 86.058594 183.972656 86.140625 183.800781 86.289062 183.699219 C 87.082031 183.144531 87.667969 182.375 87.984375 181.464844 L 106.582031 128.421875 C 106.652344 128.214844 106.847656 128.082031 107.0625 128.082031 C 107.277344 128.082031 107.46875 128.21875 107.542969 128.421875 L 111.941406 140.960938 C 111.976562 141.070312 111.976562 141.1875 111.941406 141.296875 L 100.117188 175.023438 C 99.703125 176.207031 98.886719 177.226562 97.820312 177.898438 C 97.8125 177.90625 97.800781 177.910156 97.792969 177.917969 C 97.746094 177.945312 97.703125 177.972656 97.660156 177.996094 L 86.84375 184.546875 C 86.761719 184.597656 86.671875 184.621094 86.582031 184.621094 Z M 107.0625 130.125 L 88.945312 181.800781 C 88.898438 181.929688 88.851562 182.054688 88.796875 182.175781 L 97.140625 177.125 C 97.179688 177.101562 97.214844 177.078125 97.25 177.058594 C 97.253906 177.054688 97.257812 177.054688 97.261719 177.050781 C 98.140625 176.5 98.816406 175.660156 99.15625 174.6875 L 110.921875 141.128906 Z M 107.0625 130.125 " fill-opacity="1" fill-rule="nonzero"/></svg>