<svg xmlns="http://www.w3.org/2000/svg" xmlns:xlink="http://www.w3.org/1999/xlink" width="300" zoomAndPan="magnify" viewBox="0 0 224.87999 225" height="300" preserveAspectRatio="xMidYMid meet" version="1.0"><defs><clipPath id="ad1716f475"><path d="M 21 25.191406 L 204 25.191406 L 204 199.847656 L 21 199.847656 Z M 21 25.191406 " clip-rule="nonzero"/></clipPath><clipPath id="aeef7bb9d7"><path d="M 20 25.191406 L 204 25.191406 L 204 199.847656 L 20 199.847656 Z M 20 25.191406 " clip-rule="nonzero"/></clipPath><clipPath id="b79bf3c504"><path d="M 21 33 L 187 33 L 187 199.847656 L 21 199.847656 Z M 21 33 " clip-rule="nonzero"/></clipPath><clipPath id="3c71428e57"><path d="M 20 33 L 187 33 L 187 199.847656 L 20 199.847656 Z M 20 33 " clip-rule="nonzero"/></clipPath><clipPath id="77011d1abf"><path d="M 25 25.191406 L 78 25.191406 L 78 35 L 25 35 Z M 25 25.191406 " clip-rule="nonzero"/></clipPath><clipPath id="18ece16c95"><path d="M 24 25.191406 L 79 25.191406 L 79 36 L 24 36 Z M 24 25.191406 " clip-rule="nonzero"/></clipPath><clipPath id="217dca1f75"><path d="M 117 197 L 119 197 L 119 199.847656 L 117 199.847656 Z M 117 197 " clip-rule="nonzero"/></clipPath><clipPath id="ba0a510683"><path d="M 147 25.191406 L 202 25.191406 L 202 36 L 147 36 Z M 147 25.191406 " clip-rule="nonzero"/></clipPath><clipPath id="17f48cfda8"><path d="M 146 25.191406 L 202 25.191406 L 202 37 L 146 37 Z M 146 25.191406 " clip-rule="nonzero"/></clipPath><clipPath id="718a920692"><path d="M 117 27 L 204 27 L 204 199.847656 L 117 199.847656 Z M 117 27 " clip-rule="nonzero"/></clipPath></defs><g clip-path="url(#ad1716f475)"><path fill="#000000" d="M 196.949219 25.820312 L 166.761719 25.820312 C 165.898438 25.820312 165.0625 26.007812 164.296875 26.355469 L 164.292969 26.351562 L 164.253906 26.371094 C 164.183594 26.402344 164.113281 26.4375 164.042969 26.472656 L 147.460938 34.414062 C 147.308594 34.476562 147.164062 34.546875 147.019531 34.625 L 146.894531 34.683594 L 146.898438 34.691406 C 146.222656 35.070312 145.617188 35.570312 145.121094 36.1875 L 115.496094 73.304688 L 79.402344 28.09375 C 78.257812 26.65625 76.519531 25.820312 74.679688 25.820312 L 44.492188 25.820312 C 43.277344 25.820312 42.195312 26.15625 41.289062 26.726562 L 25.40625 34.304688 C 21.777344 35.679688 20.171875 40.402344 22.851562 43.761719 L 85.972656 122.835938 L 85.972656 193.152344 C 85.972656 196.5 88.683594 199.214844 92.023438 199.214844 L 115.59375 199.214844 C 116.449219 199.214844 117.257812 199.035156 117.996094 198.714844 L 134.882812 190.636719 C 137.046875 189.710938 138.558594 187.5625 138.558594 185.058594 L 138.558594 114.738281 L 201.671875 35.667969 C 204.839844 31.699219 202.019531 25.820312 196.949219 25.820312 Z M 196.949219 25.820312 " fill-opacity="1" fill-rule="nonzero"/></g><g clip-path="url(#aeef7bb9d7)"><path fill="#000000" d="M 115.59375 199.820312 L 92.023438 199.820312 C 88.355469 199.820312 85.367188 196.828125 85.367188 193.152344 L 85.367188 123.046875 L 22.378906 44.140625 C 21.035156 42.453125 20.585938 40.304688 21.148438 38.242188 C 21.710938 36.175781 23.214844 34.496094 25.167969 33.746094 L 41 26.191406 C 42.035156 25.550781 43.242188 25.210938 44.492188 25.210938 L 74.679688 25.210938 C 76.714844 25.210938 78.605469 26.125 79.875 27.714844 L 115.496094 72.335938 L 144.648438 35.808594 C 145.160156 35.171875 145.785156 34.636719 146.511719 34.214844 C 146.550781 34.183594 146.589844 34.160156 146.632812 34.136719 L 146.75 34.082031 C 146.894531 34.003906 147.050781 33.929688 147.210938 33.863281 L 163.78125 25.925781 C 163.847656 25.890625 163.925781 25.855469 164.003906 25.820312 L 164.03125 25.804688 C 164.054688 25.792969 164.078125 25.785156 164.101562 25.777344 C 164.953125 25.402344 165.847656 25.210938 166.761719 25.210938 L 196.949219 25.210938 C 199.53125 25.210938 201.828125 26.660156 202.945312 28.992188 C 204.0625 31.324219 203.757812 34.027344 202.144531 36.046875 L 139.164062 114.949219 L 139.164062 185.058594 C 139.164062 187.726562 137.585938 190.128906 135.140625 191.183594 L 118.253906 199.261719 C 118.25 199.265625 118.242188 199.269531 118.234375 199.269531 C 117.398438 199.636719 116.507812 199.820312 115.59375 199.820312 Z M 44.492188 26.425781 C 43.441406 26.425781 42.472656 26.699219 41.609375 27.238281 C 41.589844 27.25 41.570312 27.261719 41.550781 27.273438 L 25.664062 34.851562 C 25.648438 34.859375 25.632812 34.863281 25.617188 34.871094 C 24.015625 35.480469 22.78125 36.859375 22.316406 38.5625 C 21.855469 40.246094 22.222656 42.003906 23.324219 43.382812 L 86.445312 122.457031 C 86.53125 122.5625 86.578125 122.695312 86.578125 122.835938 L 86.578125 193.152344 C 86.578125 196.160156 89.019531 198.609375 92.023438 198.609375 L 115.59375 198.609375 C 116.339844 198.609375 117.0625 198.457031 117.746094 198.164062 L 134.605469 190.097656 C 134.617188 190.089844 134.632812 190.082031 134.644531 190.078125 C 136.65625 189.21875 137.957031 187.246094 137.957031 185.058594 L 137.957031 114.738281 C 137.957031 114.601562 138 114.464844 138.085938 114.359375 L 201.199219 35.289062 C 202.519531 33.636719 202.769531 31.425781 201.855469 29.515625 C 200.941406 27.609375 199.0625 26.425781 196.949219 26.425781 L 166.761719 26.425781 C 166.003906 26.425781 165.253906 26.585938 164.542969 26.90625 C 164.527344 26.914062 164.515625 26.917969 164.503906 26.921875 C 164.433594 26.953125 164.375 26.984375 164.316406 27.011719 L 147.71875 34.960938 C 147.714844 34.964844 147.707031 34.96875 147.699219 34.96875 C 147.5625 35.03125 147.429688 35.09375 147.304688 35.160156 C 147.296875 35.164062 147.289062 35.167969 147.28125 35.171875 L 147.242188 35.1875 C 147.226562 35.199219 147.210938 35.210938 147.191406 35.222656 C 146.5625 35.574219 146.027344 36.027344 145.59375 36.566406 L 115.96875 73.683594 C 115.855469 73.828125 115.679688 73.914062 115.496094 73.914062 C 115.3125 73.914062 115.140625 73.828125 115.023438 73.683594 L 78.933594 28.472656 C 77.894531 27.171875 76.34375 26.425781 74.679688 26.425781 Z M 44.492188 26.425781 " fill-opacity="1" fill-rule="nonzero"/></g><g clip-path="url(#b79bf3c504)"><path fill="#ffffff" d="M 85.972656 193.152344 L 85.972656 122.835938 L 22.851562 43.761719 C 19.683594 39.792969 22.503906 33.914062 27.574219 33.914062 L 57.765625 33.914062 C 59.601562 33.914062 61.339844 34.75 62.488281 36.1875 L 103.808594 87.949219 L 145.121094 36.1875 C 146.269531 34.75 148.007812 33.914062 149.84375 33.914062 L 180.03125 33.914062 C 185.105469 33.914062 187.921875 39.792969 184.757812 43.761719 L 121.644531 122.832031 L 121.644531 193.152344 C 121.644531 196.5 118.9375 199.214844 115.59375 199.214844 L 92.023438 199.214844 C 88.683594 199.214844 85.972656 196.5 85.972656 193.152344 Z M 85.972656 193.152344 " fill-opacity="1" fill-rule="nonzero"/></g><g clip-path="url(#3c71428e57)"><path fill="#000000" d="M 115.59375 199.820312 L 92.023438 199.820312 C 88.355469 199.820312 85.367188 196.828125 85.367188 193.152344 L 85.367188 123.046875 L 22.378906 44.140625 C 20.765625 42.121094 20.460938 39.417969 21.578125 37.085938 C 22.695312 34.753906 24.992188 33.308594 27.574219 33.308594 L 57.765625 33.308594 C 59.796875 33.308594 61.691406 34.21875 62.960938 35.808594 L 103.808594 86.980469 L 144.648438 35.808594 C 145.917969 34.21875 147.8125 33.304688 149.84375 33.304688 L 180.035156 33.304688 C 182.613281 33.304688 184.910156 34.753906 186.03125 37.085938 C 187.148438 39.417969 186.839844 42.121094 185.226562 44.140625 L 122.25 123.042969 L 122.25 193.152344 C 122.25 196.828125 119.265625 199.820312 115.59375 199.820312 Z M 27.574219 34.519531 C 25.464844 34.519531 23.582031 35.703125 22.667969 37.609375 C 21.753906 39.519531 22.003906 41.730469 23.324219 43.382812 L 86.445312 122.457031 C 86.53125 122.5625 86.578125 122.695312 86.578125 122.835938 L 86.578125 193.152344 C 86.578125 196.160156 89.019531 198.609375 92.023438 198.609375 L 115.59375 198.609375 C 118.597656 198.609375 121.039062 196.160156 121.039062 193.152344 L 121.039062 122.832031 C 121.039062 122.695312 121.085938 122.558594 121.171875 122.453125 L 184.285156 43.382812 C 185.601562 41.730469 185.855469 39.519531 184.9375 37.609375 C 184.023438 35.703125 182.144531 34.519531 180.035156 34.519531 L 149.84375 34.519531 C 148.183594 34.519531 146.632812 35.265625 145.59375 36.566406 L 104.28125 88.328125 C 104.164062 88.472656 103.992188 88.554688 103.808594 88.554688 C 103.625 88.554688 103.449219 88.472656 103.335938 88.328125 L 62.015625 36.566406 C 60.976562 35.265625 59.425781 34.519531 57.765625 34.519531 Z M 27.574219 34.519531 " fill-opacity="1" fill-rule="nonzero"/></g><g clip-path="url(#77011d1abf)"><path fill="#c2b092" d="M 74.679688 25.820312 L 44.492188 25.820312 C 43.277344 25.820312 42.195312 26.15625 41.289062 26.726562 L 25.40625 34.304688 C 26.066406 34.054688 26.792969 33.914062 27.574219 33.914062 L 57.765625 33.914062 C 58.90625 33.914062 60.011719 34.238281 60.957031 34.828125 L 77.894531 26.746094 C 76.945312 26.148438 75.832031 25.820312 74.679688 25.820312 Z M 74.679688 25.820312 " fill-opacity="1" fill-rule="nonzero"/></g><g clip-path="url(#18ece16c95)"><path fill="#000000" d="M 60.957031 35.433594 C 60.847656 35.433594 60.738281 35.402344 60.640625 35.34375 C 59.773438 34.804688 58.78125 34.519531 57.765625 34.519531 L 27.574219 34.519531 C 26.890625 34.519531 26.234375 34.636719 25.617188 34.871094 C 25.316406 34.984375 24.976562 34.839844 24.847656 34.542969 C 24.722656 34.242188 24.851562 33.894531 25.144531 33.757812 L 41 26.191406 C 42.035156 25.550781 43.242188 25.210938 44.492188 25.210938 L 74.679688 25.210938 C 75.933594 25.210938 77.15625 25.566406 78.21875 26.234375 C 78.40625 26.351562 78.511719 26.5625 78.5 26.78125 C 78.488281 27.003906 78.355469 27.199219 78.15625 27.292969 L 61.21875 35.375 C 61.136719 35.414062 61.046875 35.433594 60.957031 35.433594 Z M 28.902344 33.304688 L 57.765625 33.304688 C 58.894531 33.304688 60.003906 33.59375 60.988281 34.140625 L 76.503906 26.738281 C 75.921875 26.53125 75.304688 26.425781 74.679688 26.425781 L 44.492188 26.425781 C 43.441406 26.425781 42.472656 26.699219 41.609375 27.238281 C 41.589844 27.25 41.570312 27.261719 41.550781 27.273438 Z M 28.902344 33.304688 " fill-opacity="1" fill-rule="nonzero"/></g><path fill="#c2b092" d="M 79.402344 28.09375 C 78.976562 27.554688 78.464844 27.105469 77.894531 26.746094 L 60.957031 34.828125 C 61.535156 35.1875 62.054688 35.644531 62.488281 36.1875 L 103.808594 87.949219 L 115.496094 73.304688 Z M 79.402344 28.09375 " fill-opacity="1" fill-rule="nonzero"/><path fill="#000000" d="M 103.808594 88.554688 C 103.625 88.554688 103.449219 88.472656 103.335938 88.328125 L 62.015625 36.566406 C 61.628906 36.082031 61.167969 35.671875 60.640625 35.34375 C 60.453125 35.226562 60.34375 35.015625 60.355469 34.792969 C 60.367188 34.574219 60.5 34.375 60.699219 34.28125 L 77.636719 26.199219 C 77.824219 26.109375 78.042969 26.121094 78.21875 26.234375 C 78.851562 26.632812 79.410156 27.128906 79.875 27.714844 L 115.96875 72.925781 C 116.144531 73.148438 116.144531 73.460938 115.96875 73.683594 L 104.28125 88.328125 C 104.164062 88.472656 103.992188 88.554688 103.808594 88.554688 Z M 62.128906 34.941406 C 62.429688 35.203125 62.707031 35.496094 62.960938 35.808594 L 103.808594 86.980469 L 114.722656 73.304688 L 78.933594 28.472656 C 78.617188 28.078125 78.253906 27.734375 77.847656 27.441406 Z M 62.128906 34.941406 " fill-opacity="1" fill-rule="nonzero"/><path fill="#c2b092" d="M 118.390625 198.523438 L 117.996094 198.714844 C 118.128906 198.65625 118.261719 198.59375 118.390625 198.523438 Z M 118.390625 198.523438 " fill-opacity="1" fill-rule="nonzero"/><g clip-path="url(#217dca1f75)"><path fill="#000000" d="M 117.996094 199.320312 C 117.765625 199.320312 117.546875 199.1875 117.445312 198.964844 C 117.308594 198.664062 117.4375 198.308594 117.734375 198.167969 L 118.132812 197.976562 C 118.429688 197.835938 118.785156 197.957031 118.933594 198.253906 C 119.082031 198.550781 118.964844 198.910156 118.671875 199.0625 C 118.527344 199.136719 118.378906 199.207031 118.234375 199.273438 C 118.15625 199.304688 118.074219 199.320312 117.996094 199.320312 Z M 117.996094 199.320312 " fill-opacity="1" fill-rule="nonzero"/></g><g clip-path="url(#ba0a510683)"><path fill="#c2b092" d="M 196.949219 25.820312 L 166.761719 25.820312 C 165.898438 25.820312 165.0625 26.007812 164.296875 26.355469 L 164.292969 26.351562 L 164.253906 26.371094 C 164.183594 26.402344 164.113281 26.4375 164.042969 26.472656 L 147.460938 34.414062 C 148.207031 34.09375 149.011719 33.914062 149.84375 33.914062 L 180.035156 33.914062 C 181.855469 33.914062 183.386719 34.675781 184.453125 35.832031 L 201.382812 27.753906 C 200.316406 26.585938 198.78125 25.820312 196.949219 25.820312 Z M 196.949219 25.820312 " fill-opacity="1" fill-rule="nonzero"/></g><g clip-path="url(#17f48cfda8)"><path fill="#000000" d="M 184.453125 36.4375 C 184.289062 36.4375 184.125 36.371094 184.007812 36.242188 C 182.984375 35.132812 181.570312 34.519531 180.035156 34.519531 L 149.84375 34.519531 C 149.117188 34.519531 148.394531 34.671875 147.699219 34.972656 C 147.398438 35.101562 147.046875 34.964844 146.910156 34.664062 C 146.773438 34.363281 146.902344 34.007812 147.199219 33.867188 L 163.78125 25.925781 C 163.847656 25.890625 163.925781 25.855469 164.003906 25.820312 L 164.03125 25.804688 C 164.054688 25.792969 164.078125 25.785156 164.101562 25.777344 C 164.953125 25.402344 165.847656 25.210938 166.761719 25.210938 L 196.949219 25.210938 C 198.839844 25.210938 200.570312 25.96875 201.828125 27.34375 C 201.960938 27.484375 202.015625 27.679688 201.976562 27.871094 C 201.941406 28.058594 201.816406 28.21875 201.644531 28.300781 L 184.710938 36.378906 C 184.628906 36.417969 184.542969 36.4375 184.453125 36.4375 Z M 151.175781 33.304688 L 180.035156 33.304688 C 181.757812 33.304688 183.359375 33.941406 184.582031 35.101562 L 200.324219 27.589844 C 199.378906 26.832031 198.207031 26.425781 196.949219 26.425781 L 166.761719 26.425781 C 166.003906 26.425781 165.253906 26.585938 164.542969 26.90625 C 164.527344 26.914062 164.515625 26.917969 164.503906 26.921875 C 164.433594 26.953125 164.375 26.984375 164.316406 27.011719 Z M 151.175781 33.304688 " fill-opacity="1" fill-rule="nonzero"/></g><path fill="#c2b092" d="M 184.453125 35.832031 C 186.355469 37.894531 186.785156 41.21875 184.757812 43.761719 L 121.644531 122.832031 L 121.644531 193.152344 C 121.644531 195.488281 120.324219 197.511719 118.394531 198.523438 L 134.882812 190.636719 L 134.882812 190.632812 C 137.046875 189.710938 138.558594 187.5625 138.558594 185.058594 L 138.558594 114.738281 L 201.671875 35.667969 C 203.695312 33.132812 203.273438 29.816406 201.382812 27.753906 Z M 184.453125 35.832031 " fill-opacity="1" fill-rule="nonzero"/><g clip-path="url(#718a920692)"><path fill="#000000" d="M 118.394531 199.132812 C 118.171875 199.132812 117.957031 199.007812 117.851562 198.796875 C 117.703125 198.5 117.820312 198.140625 118.113281 197.988281 C 119.917969 197.042969 121.039062 195.1875 121.039062 193.152344 L 121.039062 122.832031 C 121.039062 122.695312 121.085938 122.558594 121.171875 122.453125 L 184.285156 43.382812 C 186.207031 40.976562 185.601562 37.96875 184.007812 36.242188 C 183.878906 36.101562 183.824219 35.90625 183.859375 35.71875 C 183.894531 35.527344 184.019531 35.367188 184.191406 35.285156 L 201.125 27.207031 C 201.363281 27.09375 201.652344 27.148438 201.828125 27.34375 C 203.757812 29.449219 204.484375 33.113281 202.144531 36.046875 L 139.164062 114.949219 L 139.164062 185.058594 C 139.164062 187.726562 137.585938 190.128906 135.140625 191.183594 L 118.652344 199.070312 C 118.570312 199.113281 118.480469 199.132812 118.394531 199.132812 Z M 122.25 123.042969 L 122.25 193.152344 C 122.25 194.320312 121.945312 195.4375 121.398438 196.414062 L 134.605469 190.097656 C 134.617188 190.089844 134.632812 190.082031 134.644531 190.078125 C 136.65625 189.21875 137.957031 187.246094 137.957031 185.058594 L 137.957031 114.738281 C 137.957031 114.601562 138 114.464844 138.085938 114.359375 L 201.199219 35.289062 C 202.996094 33.039062 202.582031 30.261719 201.222656 28.503906 L 185.40625 36.046875 C 186.949219 38.203125 187.359375 41.472656 185.226562 44.140625 Z M 122.25 123.042969 " fill-opacity="1" fill-rule="nonzero"/></g></svg>