<svg xmlns="http://www.w3.org/2000/svg" xmlns:xlink="http://www.w3.org/1999/xlink" width="200" zoomAndPan="magnify" viewBox="0 0 150 112.499997" height="150" preserveAspectRatio="xMidYMid meet" version="1.0"><defs><clipPath id="704586758f"><path d="M 22 23.628906 L 122.890625 23.628906 L 122.890625 100.789062 L 22 100.789062 Z M 22 23.628906 " clip-rule="nonzero"/></clipPath><clipPath id="4504c8afd0"><path d="M 20.363281 11.199219 L 124 11.199219 L 124 96 L 20.363281 96 Z M 20.363281 11.199219 " clip-rule="nonzero"/></clipPath><clipPath id="6294cb54b1"><path d="M 41 11.199219 L 123 11.199219 L 123 67 L 41 67 Z M 41 11.199219 " clip-rule="nonzero"/></clipPath></defs><path fill="#ef3220" d="M 128.371094 47.839844 C 127.699219 46.960938 126.570312 46.753906 125.535156 46.660156 C 123.835938 46.503906 122.066406 46.488281 120.394531 46.820312 C 120.070312 46.886719 119.917969 47.09375 119.890625 47.332031 C 118.894531 48.554688 118.984375 50.675781 118.96875 52.191406 C 118.953125 53.410156 118.875 55.03125 120.058594 55.785156 C 121.140625 56.476562 122.984375 56.175781 124.199219 56.199219 C 125.34375 56.222656 127.042969 56.476562 127.972656 55.59375 C 128.875 54.742188 128.835938 52.929688 128.894531 51.808594 C 128.960938 50.59375 129.164062 48.875 128.371094 47.839844 Z M 76.253906 66.035156 C 76.410156 67.871094 76.371094 69.65625 76.136719 71.488281 C 76.101562 71.765625 75.828125 72.046875 75.542969 72.058594 C 74.773438 72.085938 74.003906 72.117188 73.238281 72.148438 C 72.757812 72.164062 72.445312 71.820312 72.476562 71.351562 C 72.507812 71.011719 72.507812 70.675781 72.488281 70.339844 C 70.816406 70.398438 68.886719 71.203125 67.347656 70.816406 C 67.027344 70.734375 66.859375 70.542969 66.78125 70.222656 C 66.621094 69.570312 66.824219 68.769531 66.933594 68.121094 C 66.933594 68.109375 66.945312 68.097656 66.945312 68.085938 C 66.914062 67.886719 67.019531 67.648438 67.253906 67.628906 C 67.292969 67.628906 67.328125 67.625 67.363281 67.625 C 67.480469 67.589844 67.601562 67.578125 67.722656 67.601562 C 69.257812 67.5 70.792969 67.441406 72.328125 67.382812 C 72.367188 66.800781 72.410156 66.105469 72.820312 65.746094 C 73.402344 65.230469 74.90625 65.523438 75.589844 65.507812 C 75.90625 65.496094 76.226562 65.691406 76.253906 66.035156 " fill-opacity="1" fill-rule="nonzero"/><path fill="#f8e505" d="M 124.296875 36.421875 C 121.5 38.371094 117.644531 38.199219 114.414062 38.648438 C 111.324219 39.082031 108.242188 39.460938 105.128906 39.726562 C 97.617188 40.378906 90.191406 41.15625 82.636719 41.152344 C 75.570312 41.148438 68.378906 40.875 61.378906 39.898438 C 55.878906 39.128906 50.839844 36.832031 47.945312 31.988281 C 44.949219 28.335938 51.351562 22.132812 54.027344 20.007812 C 59.964844 15.285156 66.492188 14.820312 73.800781 14.507812 C 81.261719 14.1875 88.75 14.085938 96.214844 14.007812 C 100.125 13.964844 104.03125 13.980469 107.9375 14 C 110.925781 14.011719 113.953125 13.824219 116.921875 14.242188 C 122.210938 14.992188 126.667969 17.996094 128.152344 23.3125 C 129.394531 27.761719 128.28125 33.640625 124.296875 36.421875 " fill-opacity="1" fill-rule="nonzero"/><g clip-path="url(#704586758f)"><path fill="#397dc9" d="M 80.886719 68.761719 C 79.507812 71.917969 74.152344 73.105469 71.101562 72.664062 C 68.640625 72.304688 68.433594 70.144531 69.21875 68.226562 C 69.046875 65.402344 74.246094 64.863281 76.050781 64.710938 C 77.347656 64.601562 79.847656 64.164062 80.828125 65.324219 C 81.570312 66.195312 81.296875 67.816406 80.886719 68.761719 Z M 121.832031 47.1875 C 120.292969 45.054688 116.542969 45.3125 114.238281 45.226562 C 111.097656 45.109375 107.953125 45.226562 104.808594 45.242188 C 98.285156 45.277344 91.851562 44.351562 85.355469 43.90625 C 78.992188 43.472656 72.609375 43.523438 66.234375 43.480469 C 63.125 43.460938 60.019531 43.453125 56.914062 43.421875 C 54.761719 43.394531 52.507812 43.324219 50.445312 44.019531 C 49.558594 44.316406 48.714844 44.773438 48.058594 45.453125 C 47.585938 45.9375 47.554688 46.207031 46.816406 46.234375 C 46.152344 46.261719 45.46875 46.269531 44.804688 46.203125 C 42.273438 45.957031 42.507812 43.714844 42.484375 41.617188 C 42.472656 40.902344 42.484375 40.183594 42.507812 39.464844 C 42.519531 39.082031 42.484375 38.640625 42.5625 38.269531 C 42.628906 37.957031 42.703125 37.859375 42.882812 37.742188 C 43.648438 37.222656 44.355469 37.203125 44.9375 36.34375 C 45.957031 34.832031 46.027344 32.785156 46.101562 31.027344 C 46.171875 29.304688 46.59375 27.089844 45.628906 25.542969 C 44.777344 24.1875 43.117188 23.828125 41.628906 23.726562 C 39.914062 23.609375 38.199219 23.816406 36.492188 23.871094 C 33.6875 23.960938 30.667969 23.554688 27.921875 24.25 C 25.683594 24.816406 25.207031 26.710938 25.007812 28.761719 C 24.804688 30.878906 24.503906 33.480469 25.53125 35.441406 C 26.066406 36.460938 26.941406 36.929688 28.046875 37.085938 C 28.976562 37.21875 28.878906 37.1875 28.941406 38.164062 C 29 39.09375 29.050781 40.027344 29.09375 40.960938 C 29.171875 42.574219 29.175781 44.1875 29.234375 45.804688 C 29.265625 46.671875 29.683594 48.554688 28.917969 49.25 C 28.441406 49.675781 27.671875 49.375 27.070312 49.417969 C 25.71875 49.515625 24.492188 50.113281 23.613281 51.144531 C 22.136719 52.878906 21.976562 55.230469 22.1875 57.402344 C 22.382812 59.378906 22.921875 61.71875 24.894531 62.636719 C 26.890625 63.566406 29.390625 63.214844 31.511719 63.050781 C 36.25 62.679688 41.101562 62.585938 45.855469 62.773438 C 47.335938 62.832031 49.066406 62.910156 50.386719 63.667969 C 52.039062 64.621094 51.539062 66.21875 50.902344 67.71875 C 49.78125 70.355469 48.039062 72.699219 46.71875 75.234375 C 45.242188 78.058594 43.828125 80.914062 42.460938 83.792969 C 41.132812 86.585938 39.847656 89.402344 38.632812 92.25 C 37.792969 94.21875 36.789062 96.839844 38.785156 98.484375 C 40.488281 99.882812 43.085938 99.707031 45.152344 99.859375 C 47.878906 100.066406 50.554688 100.804688 53.300781 100.789062 C 55.65625 100.777344 57.328125 99.9375 57.972656 97.5625 C 58.765625 94.632812 59.199219 91.640625 60.191406 88.757812 C 61.128906 86.027344 62.425781 83.464844 63.789062 80.929688 C 64.371094 79.847656 64.988281 78.644531 65.980469 77.878906 C 66.996094 77.089844 68.308594 76.90625 69.546875 76.765625 C 72.289062 76.453125 75.015625 76.023438 77.757812 75.691406 C 79.722656 75.453125 81.960938 75.234375 83.40625 73.714844 C 85.402344 71.617188 85.066406 66.003906 85.066406 66.003906 C 85.066406 66.003906 104.394531 67.070312 113.90625 66.472656 C 117.652344 66.238281 121.226562 65.148438 122.011719 60.96875 C 122.453125 58.636719 122.410156 56.164062 122.523438 53.796875 C 122.621094 51.714844 123.140625 49.003906 121.832031 47.1875 " fill-opacity="1" fill-rule="nonzero"/></g><g clip-path="url(#4504c8afd0)"><path fill="#45b83a" d="M 123.640625 51.4375 C 123.535156 45.277344 119.90625 44.886719 114.574219 44.496094 C 108.789062 44.074219 103 43.773438 97.203125 43.632812 C 96.269531 43.609375 94.496094 43.40625 92.523438 43.253906 C 93.503906 43.039062 94.308594 42.460938 94.527344 41.3125 C 94.859375 39.542969 94.480469 37.457031 94.449219 35.664062 C 94.40625 33.441406 94.371094 31.21875 94.332031 29 C 94.261719 24.742188 94.359375 20.433594 94.089844 16.183594 C 93.90625 13.308594 92.210938 12.007812 89.40625 11.777344 C 87.710938 11.636719 85.273438 12.472656 85.9375 14.476562 C 85.96875 18.503906 86.125 22.527344 86.246094 26.550781 C 86.367188 30.546875 86.210938 34.664062 86.640625 38.636719 C 86.867188 40.710938 87.652344 42.480469 89.738281 43.097656 C 86.730469 43.007812 83.929688 43.257812 83.457031 44.597656 C 83.507812 44.453125 83.910156 46.839844 83.867188 47.519531 C 83.777344 48.917969 83.722656 50.316406 83.695312 51.71875 C 83.640625 54.714844 83.691406 57.71875 83.828125 60.710938 C 83.914062 62.546875 83.625 65.09375 85.074219 66.449219 C 86.878906 68.132812 90.753906 67.308594 92.996094 67.234375 C 98.644531 67.050781 104.292969 66.863281 109.941406 66.675781 C 113.847656 66.542969 120.527344 67.882812 122.664062 63.667969 C 123.449219 62.113281 123.410156 60.285156 123.335938 58.597656 C 123.234375 56.128906 123.679688 53.910156 123.640625 51.4375 Z M 61.429688 65.742188 C 59.078125 65.28125 55.90625 65.75 55.214844 68.4375 C 52.207031 72.347656 49.601562 76.59375 47.347656 80.972656 C 46.050781 83.488281 44.839844 86.066406 43.800781 88.699219 C 43.351562 89.84375 42.898438 91.15625 43.113281 92.40625 C 43.328125 93.65625 44.285156 93.898438 45.371094 94.207031 C 46.792969 94.613281 48.234375 94.953125 49.683594 95.230469 C 50.71875 95.425781 51.988281 95.84375 52.859375 95.019531 C 53.640625 94.28125 53.886719 92.996094 54.234375 92.019531 C 54.761719 90.546875 55.285156 89.078125 55.816406 87.609375 C 56.882812 84.667969 57.984375 81.734375 59.253906 78.867188 C 60.460938 76.136719 62 73.59375 63.277344 70.90625 C 63.761719 69.894531 64.417969 68.453125 64.121094 67.3125 C 63.820312 66.160156 62.421875 65.933594 61.429688 65.742188 Z M 28.570312 51.152344 C 28.496094 50.085938 28.636719 48.835938 27.292969 48.746094 C 26.28125 48.679688 25.207031 48.789062 24.195312 48.894531 C 23.367188 48.980469 22.398438 49.015625 21.625 49.328125 C 21.390625 49.421875 21.1875 49.570312 21.015625 49.746094 C 20.871094 49.792969 20.746094 49.914062 20.734375 50.113281 C 20.734375 50.117188 20.734375 50.121094 20.734375 50.121094 C 20.433594 50.640625 20.371094 51.292969 20.65625 51.839844 C 20.566406 54.882812 20.746094 57.945312 21.101562 60.96875 C 21.242188 62.15625 21.542969 63.109375 22.800781 63.476562 C 24.25 63.902344 26.003906 63.769531 27.488281 63.65625 C 28.554688 63.574219 29.277344 63.167969 29.339844 62.019531 C 29.433594 60.253906 29.09375 58.363281 28.964844 56.601562 C 28.835938 54.785156 28.703125 52.96875 28.570312 51.152344 Z M 70.351562 42.589844 C 68.695312 41.402344 65.824219 41.949219 63.929688 41.964844 C 61.753906 41.980469 58.761719 41.425781 56.6875 42.453125 C 54.816406 43.378906 54.988281 45.425781 55.050781 47.445312 C 55.210938 52.6875 55.15625 57.414062 61.777344 57.046875 C 63.96875 56.925781 67.207031 57.144531 69.191406 56.164062 C 71.917969 54.816406 71.625 51.46875 71.59375 48.894531 C 71.570312 46.875 72.265625 43.957031 70.351562 42.589844 Z M 44.835938 36.480469 C 44.871094 36.4375 44.902344 36.390625 44.9375 36.34375 C 45.957031 34.832031 46.027344 32.785156 46.101562 31.027344 C 46.171875 29.304688 46.59375 27.089844 45.628906 25.542969 C 45.476562 25.300781 45.296875 25.089844 45.097656 24.90625 C 47.179688 24.429688 50.308594 23.738281 50.855469 26.375 C 51.292969 28.5 50.789062 30.84375 50.558594 32.972656 C 50.4375 34.074219 50.535156 35.636719 49.726562 36.515625 C 48.882812 37.4375 47.296875 37.304688 46.164062 37.132812 C 45.558594 37.042969 45.132812 36.824219 44.835938 36.480469 " fill-opacity="1" fill-rule="nonzero"/></g><g clip-path="url(#6294cb54b1)"><path fill="#110f0d" d="M 43.125 46.519531 C 43.09375 46.21875 42.832031 46.003906 42.53125 46.027344 C 42.234375 46.054688 42.015625 46.320312 42.042969 46.621094 C 42.175781 48.015625 42.203125 49.449219 42.230469 50.835938 L 42.433594 61.035156 C 42.4375 61.332031 42.679688 61.570312 42.976562 61.570312 C 42.976562 61.570312 42.984375 61.570312 42.984375 61.570312 C 43.285156 61.5625 43.523438 61.3125 43.515625 61.011719 L 43.316406 50.8125 C 43.285156 49.410156 43.257812 47.953125 43.125 46.519531 Z M 47.675781 46.316406 C 47.386719 46.316406 47.128906 46.550781 47.125 46.851562 C 47.035156 51.910156 47.027344 57.042969 47.105469 62.105469 C 47.109375 62.402344 47.351562 62.640625 47.648438 62.640625 C 47.648438 62.640625 47.652344 62.640625 47.65625 62.640625 C 47.957031 62.636719 48.195312 62.390625 48.191406 62.089844 C 48.113281 57.039062 48.117188 51.917969 48.210938 46.871094 C 48.214844 46.570312 47.976562 46.324219 47.675781 46.316406 Z M 90.621094 43.109375 C 90.636719 43.398438 90.875 43.625 91.160156 43.625 C 91.171875 43.625 91.179688 43.625 91.191406 43.625 C 91.488281 43.609375 91.71875 43.351562 91.703125 43.050781 C 91.46875 38.53125 91.140625 32.882812 90.828125 27.414062 C 90.511719 21.9375 90.1875 16.277344 89.949219 11.75 C 89.933594 11.449219 89.679688 11.21875 89.378906 11.234375 C 89.082031 11.25 88.851562 11.503906 88.867188 11.804688 C 89.101562 16.335938 89.429688 22 89.746094 27.476562 C 90.058594 32.941406 90.382812 38.589844 90.621094 43.109375 Z M 42.207031 36.671875 C 42.507812 36.664062 42.742188 36.414062 42.734375 36.113281 C 42.640625 32.378906 42.652344 28.589844 42.761719 24.855469 C 42.773438 24.554688 42.535156 24.304688 42.238281 24.296875 C 41.9375 24.285156 41.6875 24.523438 41.679688 24.824219 C 41.566406 28.578125 41.558594 32.386719 41.652344 36.140625 C 41.660156 36.4375 41.898438 36.671875 42.191406 36.671875 C 42.199219 36.671875 42.203125 36.671875 42.207031 36.671875 Z M 122.410156 55.601562 C 113.152344 55.40625 103.804688 55.113281 94.511719 54.734375 C 94.574219 51.257812 94.726562 47.785156 94.96875 44.339844 C 94.992188 44.039062 94.765625 43.78125 94.46875 43.757812 C 94.167969 43.742188 93.910156 43.964844 93.886719 44.261719 C 93.640625 47.71875 93.488281 51.203125 93.425781 54.6875 C 90.617188 54.570312 87.808594 54.445312 85.011719 54.3125 C 84.714844 54.300781 84.460938 54.527344 84.445312 54.828125 C 84.429688 55.128906 84.660156 55.382812 84.960938 55.398438 C 87.769531 55.53125 90.589844 55.65625 93.414062 55.777344 C 93.375 59.027344 93.410156 62.28125 93.53125 65.511719 C 93.542969 65.804688 93.78125 66.035156 94.074219 66.035156 C 94.078125 66.035156 94.085938 66.035156 94.09375 66.035156 C 94.390625 66.023438 94.625 65.769531 94.613281 65.472656 C 94.496094 62.265625 94.460938 59.042969 94.496094 55.820312 C 103.789062 56.203125 113.132812 56.496094 122.386719 56.691406 C 122.390625 56.691406 122.394531 56.691406 122.398438 56.691406 C 122.691406 56.691406 122.933594 56.453125 122.9375 56.15625 C 122.945312 55.859375 122.707031 55.609375 122.410156 55.601562 Z M 72.136719 48.871094 C 72.152344 49.167969 71.921875 49.425781 71.621094 49.4375 C 70.878906 49.472656 70.046875 49.515625 69.152344 49.5625 C 65.113281 49.769531 59.695312 50.046875 55.984375 50.046875 C 55.683594 50.046875 55.390625 50.042969 55.113281 50.039062 C 54.8125 50.035156 54.574219 49.789062 54.578125 49.488281 C 54.582031 49.191406 54.824219 48.953125 55.121094 48.953125 C 55.121094 48.953125 55.125 48.953125 55.128906 48.953125 C 58.78125 49.003906 64.742188 48.699219 69.097656 48.476562 C 69.992188 48.429688 70.828125 48.390625 71.570312 48.351562 C 71.871094 48.335938 72.121094 48.570312 72.136719 48.871094 " fill-opacity="1" fill-rule="nonzero"/></g></svg>