<svg xmlns="http://www.w3.org/2000/svg" xmlns:xlink="http://www.w3.org/1999/xlink" width="100" zoomAndPan="magnify" viewBox="0 0 75 74.999997" height="100" preserveAspectRatio="xMidYMid meet" version="1.0"><defs><clipPath id="75acb91468"><path d="M 9 7.5 L 65.925781 7.5 L 65.925781 67.5 L 9 67.5 Z M 9 7.5 " clip-rule="nonzero"/></clipPath><clipPath id="df77a75e11"><path d="M 38 8 L 65.925781 8 L 65.925781 67 L 38 67 Z M 38 8 " clip-rule="nonzero"/></clipPath><clipPath id="8a84463e8d"><path d="M 38 7.5 L 65.925781 7.5 L 65.925781 67 L 38 67 Z M 38 7.5 " clip-rule="nonzero"/></clipPath><clipPath id="d302e05ea0"><path d="M 31 7.5 L 44 7.5 L 44 11 L 31 11 Z M 31 7.5 " clip-rule="nonzero"/></clipPath><clipPath id="28fdb87c95"><path d="M 31 7.5 L 44 7.5 L 44 12 L 31 12 Z M 31 7.5 " clip-rule="nonzero"/></clipPath><clipPath id="495bf47118"><path d="M 9 10 L 61 10 L 61 67.5 L 9 67.5 Z M 9 10 " clip-rule="nonzero"/></clipPath><clipPath id="6448e79b61"><path d="M 9 10 L 62 10 L 62 67.5 L 9 67.5 Z M 9 10 " clip-rule="nonzero"/></clipPath><clipPath id="f8fd08d35f"><path d="M 21 58 L 29 58 L 29 67.5 L 21 67.5 Z M 21 58 " clip-rule="nonzero"/></clipPath></defs><g clip-path="url(#75acb91468)"><path fill="#000000" d="M 65.347656 61.636719 L 44.359375 9.039062 C 44.066406 8.296875 43.375 7.792969 42.585938 7.734375 C 42.535156 7.730469 42.484375 7.730469 42.433594 7.730469 L 36.949219 7.730469 C 36.558594 7.730469 36.1875 7.839844 35.867188 8.035156 L 31.597656 10.667969 C 31.089844 10.875 30.671875 11.285156 30.457031 11.820312 L 9.46875 64.417969 C 8.921875 65.785156 9.925781 67.273438 11.398438 67.273438 L 20.117188 67.273438 C 20.542969 67.273438 20.949219 67.140625 21.285156 66.914062 L 25.703125 64.222656 C 26.105469 63.996094 26.429688 63.632812 26.609375 63.183594 L 28.429688 58.628906 L 45.265625 58.628906 C 45.273438 58.628906 45.28125 58.632812 45.28125 58.640625 L 48.207031 65.964844 C 48.519531 66.753906 49.285156 67.273438 50.132812 67.273438 L 58.855469 67.273438 C 59.429688 67.273438 59.933594 67.042969 60.300781 66.679688 C 60.300781 66.679688 60.300781 66.679688 60.300781 66.683594 L 64.289062 64.300781 C 64.421875 64.238281 64.550781 64.160156 64.667969 64.070312 L 64.679688 64.066406 L 64.679688 64.0625 C 65.378906 63.523438 65.710938 62.554688 65.347656 61.636719 Z M 34.464844 43.566406 C 34.453125 43.566406 34.445312 43.550781 34.449219 43.539062 L 36.855469 37.511719 L 39.269531 43.566406 Z M 34.464844 43.566406 " fill-opacity="1" fill-rule="nonzero"/><path fill="#000000" d="M 58.855469 67.480469 L 50.132812 67.480469 C 49.195312 67.480469 48.359375 66.914062 48.011719 66.042969 L 45.136719 58.835938 L 28.570312 58.835938 L 26.804688 63.261719 C 26.609375 63.742188 26.257812 64.148438 25.804688 64.402344 L 21.398438 67.085938 C 21.019531 67.34375 20.574219 67.480469 20.117188 67.480469 L 11.398438 67.480469 C 10.636719 67.480469 9.929688 67.105469 9.503906 66.472656 C 9.078125 65.84375 8.992188 65.046875 9.277344 64.339844 L 30.265625 11.742188 C 30.492188 11.175781 30.941406 10.714844 31.503906 10.480469 L 35.757812 7.859375 C 36.121094 7.636719 36.53125 7.519531 36.949219 7.519531 L 42.433594 7.519531 C 42.488281 7.519531 42.546875 7.523438 42.601562 7.527344 C 43.464844 7.589844 44.230469 8.15625 44.554688 8.960938 L 65.539062 61.558594 C 65.917969 62.511719 65.632812 63.574219 64.828125 64.210938 C 64.816406 64.222656 64.800781 64.234375 64.785156 64.242188 L 64.785156 64.246094 C 64.664062 64.335938 64.527344 64.417969 64.382812 64.484375 L 60.421875 66.855469 C 59.996094 67.257812 59.441406 67.480469 58.855469 67.480469 Z M 28.429688 58.417969 L 45.265625 58.417969 C 45.359375 58.417969 45.441406 58.476562 45.476562 58.5625 L 48.398438 65.886719 C 48.683594 66.601562 49.363281 67.066406 50.132812 67.066406 L 58.855469 67.066406 C 59.34375 67.066406 59.804688 66.875 60.15625 66.53125 C 60.164062 66.527344 60.167969 66.519531 60.175781 66.515625 C 60.191406 66.503906 60.207031 66.496094 60.222656 66.488281 L 64.179688 64.121094 C 64.1875 64.117188 64.195312 64.113281 64.199219 64.109375 C 64.324219 64.054688 64.4375 63.984375 64.542969 63.90625 C 64.546875 63.902344 64.546875 63.902344 64.550781 63.898438 C 65.226562 63.378906 65.46875 62.5 65.152344 61.714844 L 44.167969 9.113281 C 43.90625 8.457031 43.277344 7.996094 42.570312 7.941406 C 42.523438 7.9375 42.476562 7.9375 42.433594 7.9375 L 36.949219 7.9375 C 36.609375 7.9375 36.269531 8.03125 35.976562 8.210938 L 31.707031 10.84375 C 31.695312 10.847656 31.6875 10.855469 31.675781 10.859375 C 31.210938 11.050781 30.835938 11.429688 30.652344 11.894531 L 9.660156 64.496094 C 9.425781 65.082031 9.496094 65.71875 9.847656 66.242188 C 10.203125 66.765625 10.765625 67.066406 11.398438 67.066406 L 20.117188 67.066406 C 20.492188 67.066406 20.855469 66.953125 21.167969 66.742188 C 21.171875 66.738281 21.175781 66.738281 21.175781 66.734375 L 25.59375 64.042969 C 25.96875 63.832031 26.261719 63.5 26.417969 63.105469 L 28.234375 58.550781 C 28.265625 58.472656 28.34375 58.417969 28.429688 58.417969 Z M 39.269531 43.773438 L 34.464844 43.773438 C 34.390625 43.773438 34.320312 43.734375 34.277344 43.675781 C 34.238281 43.613281 34.226562 43.53125 34.257812 43.460938 L 36.660156 37.433594 C 36.691406 37.355469 36.769531 37.304688 36.855469 37.304688 C 36.9375 37.304688 37.015625 37.355469 37.046875 37.433594 L 39.460938 43.488281 C 39.488281 43.550781 39.480469 43.625 39.441406 43.683594 C 39.402344 43.738281 39.339844 43.773438 39.269531 43.773438 Z M 34.746094 43.355469 L 38.960938 43.355469 L 36.855469 38.074219 Z M 34.746094 43.355469 " fill-opacity="1" fill-rule="nonzero"/></g><g clip-path="url(#df77a75e11)"><path fill="#c2b092" d="M 65.347656 61.636719 L 44.359375 9.039062 C 44.183594 8.589844 43.855469 8.230469 43.457031 8.003906 L 38.921875 10.800781 C 39.308594 11.03125 39.621094 11.382812 39.796875 11.820312 L 60.78125 64.417969 C 61.113281 65.25 60.871094 66.121094 60.300781 66.679688 L 60.300781 66.683594 L 64.289062 64.300781 C 64.421875 64.234375 64.550781 64.160156 64.667969 64.070312 L 64.679688 64.0625 C 65.378906 63.523438 65.710938 62.554688 65.347656 61.636719 Z M 65.347656 61.636719 " fill-opacity="1" fill-rule="nonzero"/></g><g clip-path="url(#8a84463e8d)"><path fill="#000000" d="M 60.300781 66.890625 C 60.234375 66.890625 60.167969 66.859375 60.128906 66.796875 C 60.074219 66.714844 60.085938 66.601562 60.15625 66.53125 C 60.699219 66 60.871094 65.199219 60.589844 64.496094 L 39.605469 11.894531 C 39.449219 11.511719 39.179688 11.195312 38.816406 10.980469 C 38.753906 10.941406 38.714844 10.875 38.714844 10.804688 C 38.710938 10.730469 38.75 10.660156 38.8125 10.625 L 43.347656 7.824219 C 43.410156 7.785156 43.492188 7.785156 43.558594 7.820312 C 44.007812 8.078125 44.363281 8.480469 44.554688 8.960938 L 65.539062 61.558594 C 65.917969 62.511719 65.632812 63.574219 64.828125 64.210938 C 64.816406 64.222656 64.800781 64.234375 64.785156 64.242188 L 64.785156 64.246094 C 64.664062 64.335938 64.527344 64.417969 64.382812 64.484375 L 60.410156 66.863281 C 60.375 66.882812 60.339844 66.890625 60.300781 66.890625 Z M 39.300781 10.8125 C 39.605469 11.058594 39.84375 11.378906 39.988281 11.742188 L 60.976562 64.339844 C 61.199219 64.898438 61.1875 65.503906 60.976562 66.039062 L 64.179688 64.121094 C 64.1875 64.117188 64.195312 64.113281 64.199219 64.109375 C 64.324219 64.054688 64.4375 63.984375 64.542969 63.90625 C 64.546875 63.902344 64.546875 63.902344 64.550781 63.898438 C 65.226562 63.378906 65.46875 62.5 65.152344 61.714844 L 44.167969 9.113281 C 44.027344 8.761719 43.777344 8.457031 43.457031 8.246094 Z M 39.300781 10.8125 " fill-opacity="1" fill-rule="nonzero"/></g><g clip-path="url(#d302e05ea0)"><path fill="#c2b092" d="M 42.585938 7.734375 C 42.535156 7.730469 42.484375 7.730469 42.433594 7.730469 L 36.949219 7.730469 C 36.558594 7.730469 36.1875 7.839844 35.867188 8.035156 L 31.597656 10.667969 C 31.84375 10.566406 32.109375 10.507812 32.386719 10.507812 L 37.867188 10.507812 C 37.9375 10.507812 38.007812 10.515625 38.074219 10.519531 C 38.378906 10.550781 38.664062 10.648438 38.921875 10.800781 L 43.457031 8.003906 C 43.191406 7.851562 42.898438 7.757812 42.585938 7.734375 Z M 42.585938 7.734375 " fill-opacity="1" fill-rule="nonzero"/></g><g clip-path="url(#28fdb87c95)"><path fill="#000000" d="M 38.921875 11.007812 C 38.886719 11.007812 38.847656 11 38.816406 10.980469 C 38.578125 10.839844 38.320312 10.753906 38.054688 10.726562 C 37.980469 10.722656 37.921875 10.71875 37.867188 10.71875 L 32.386719 10.71875 C 32.144531 10.71875 31.90625 10.765625 31.675781 10.859375 C 31.578125 10.898438 31.460938 10.859375 31.414062 10.761719 C 31.363281 10.664062 31.398438 10.546875 31.488281 10.488281 L 35.761719 7.859375 C 36.121094 7.636719 36.53125 7.519531 36.949219 7.519531 L 42.433594 7.519531 C 42.488281 7.519531 42.546875 7.523438 42.601562 7.527344 C 42.9375 7.550781 43.257812 7.652344 43.558594 7.820312 C 43.621094 7.855469 43.660156 7.925781 43.664062 8 C 43.664062 8.070312 43.625 8.140625 43.5625 8.179688 L 39.03125 10.976562 C 38.996094 11 38.960938 11.007812 38.921875 11.007812 Z M 32.585938 10.300781 L 37.867188 10.300781 C 37.9375 10.300781 38.007812 10.304688 38.09375 10.3125 C 38.382812 10.34375 38.65625 10.425781 38.914062 10.558594 L 43.011719 8.03125 C 42.871094 7.984375 42.722656 7.953125 42.570312 7.941406 C 42.523438 7.9375 42.476562 7.9375 42.433594 7.9375 L 36.949219 7.9375 C 36.609375 7.9375 36.269531 8.03125 35.976562 8.210938 Z M 32.585938 10.300781 " fill-opacity="1" fill-rule="nonzero"/></g><g clip-path="url(#495bf47118)"><path fill="#ffffff" d="M 48.207031 65.964844 L 45.28125 58.640625 C 45.28125 58.632812 45.273438 58.628906 45.265625 58.628906 L 24.988281 58.628906 C 24.980469 58.628906 24.972656 58.632812 24.96875 58.640625 L 22.046875 65.964844 C 21.730469 66.753906 20.96875 67.273438 20.117188 67.273438 L 11.398438 67.273438 C 9.925781 67.273438 8.921875 65.785156 9.46875 64.417969 L 30.457031 11.820312 C 30.773438 11.027344 31.539062 10.507812 32.386719 10.507812 L 37.867188 10.507812 C 38.71875 10.507812 39.480469 11.027344 39.796875 11.820312 L 60.78125 64.417969 C 61.328125 65.785156 60.324219 67.273438 58.855469 67.273438 L 50.132812 67.273438 C 49.285156 67.273438 48.519531 66.753906 48.207031 65.964844 Z M 40.367188 46.320312 L 35.707031 34.632812 C 35.496094 34.109375 34.757812 34.109375 34.546875 34.632812 L 29.886719 46.320312 C 29.878906 46.332031 29.890625 46.347656 29.902344 46.347656 L 40.351562 46.347656 C 40.363281 46.347656 40.375 46.332031 40.367188 46.320312 Z M 40.367188 46.320312 " fill-opacity="1" fill-rule="nonzero"/></g><g clip-path="url(#6448e79b61)"><path fill="#000000" d="M 58.855469 67.480469 L 50.132812 67.480469 C 49.195312 67.480469 48.359375 66.914062 48.011719 66.042969 L 45.136719 58.835938 L 25.113281 58.835938 L 22.238281 66.042969 C 21.890625 66.914062 21.058594 67.480469 20.117188 67.480469 L 11.398438 67.480469 C 10.636719 67.480469 9.929688 67.105469 9.503906 66.476562 C 9.078125 65.84375 8.992188 65.046875 9.277344 64.339844 L 30.265625 11.742188 C 30.613281 10.867188 31.445312 10.300781 32.386719 10.300781 L 37.867188 10.300781 C 38.808594 10.300781 39.640625 10.867188 39.988281 11.742188 L 60.976562 64.339844 C 61.257812 65.046875 61.171875 65.84375 60.746094 66.476562 C 60.320312 67.105469 59.613281 67.480469 58.855469 67.480469 Z M 48.398438 65.886719 C 48.683594 66.601562 49.363281 67.066406 50.132812 67.066406 L 58.855469 67.066406 C 59.484375 67.066406 60.046875 66.765625 60.402344 66.242188 C 60.753906 65.71875 60.824219 65.082031 60.589844 64.496094 L 39.605469 11.894531 C 39.320312 11.179688 38.636719 10.71875 37.867188 10.71875 L 32.386719 10.71875 C 31.617188 10.71875 30.9375 11.179688 30.652344 11.894531 L 9.660156 64.496094 C 9.425781 65.082031 9.496094 65.71875 9.847656 66.242188 C 10.203125 66.765625 10.765625 67.066406 11.398438 67.066406 L 20.117188 67.066406 C 20.886719 67.066406 21.566406 66.601562 21.851562 65.886719 L 24.777344 58.5625 C 24.8125 58.476562 24.894531 58.417969 24.988281 58.417969 L 45.265625 58.417969 C 45.359375 58.417969 45.441406 58.476562 45.476562 58.5625 Z M 40.351562 46.554688 L 29.902344 46.554688 C 29.828125 46.554688 29.757812 46.515625 29.714844 46.453125 C 29.671875 46.390625 29.664062 46.3125 29.691406 46.242188 L 34.355469 34.558594 C 34.484375 34.234375 34.78125 34.035156 35.128906 34.035156 C 35.472656 34.035156 35.769531 34.234375 35.898438 34.558594 L 40.5625 46.242188 C 40.589844 46.3125 40.582031 46.390625 40.539062 46.453125 C 40.496094 46.515625 40.425781 46.554688 40.351562 46.554688 Z M 30.183594 46.136719 L 40.070312 46.136719 L 35.511719 34.710938 C 35.4375 34.519531 35.261719 34.449219 35.128906 34.449219 C 34.992188 34.449219 34.820312 34.519531 34.742188 34.710938 Z M 30.183594 46.136719 " fill-opacity="1" fill-rule="nonzero"/></g><path fill="#c2b092" d="M 24.96875 58.640625 L 22.046875 65.964844 C 21.890625 66.359375 21.621094 66.683594 21.285156 66.914062 L 25.703125 64.222656 C 26.105469 63.992188 26.429688 63.632812 26.609375 63.183594 L 28.429688 58.628906 L 24.988281 58.628906 C 24.980469 58.628906 24.972656 58.632812 24.96875 58.640625 Z M 24.96875 58.640625 " fill-opacity="1" fill-rule="nonzero"/><g clip-path="url(#f8fd08d35f)"><path fill="#000000" d="M 21.285156 67.121094 C 21.21875 67.121094 21.148438 67.085938 21.109375 67.023438 C 21.050781 66.929688 21.074219 66.804688 21.167969 66.742188 C 21.476562 66.53125 21.714844 66.234375 21.851562 65.886719 L 24.777344 58.5625 C 24.808594 58.476562 24.894531 58.417969 24.988281 58.417969 L 28.429688 58.417969 C 28.496094 58.417969 28.5625 58.453125 28.601562 58.511719 C 28.640625 58.566406 28.648438 58.640625 28.621094 58.703125 L 26.804688 63.261719 C 26.609375 63.742188 26.257812 64.148438 25.804688 64.402344 L 21.394531 67.089844 C 21.359375 67.109375 21.320312 67.121094 21.285156 67.121094 Z M 25.113281 58.835938 L 22.238281 66.042969 C 22.230469 66.0625 22.222656 66.082031 22.214844 66.105469 L 25.59375 64.042969 C 25.96875 63.832031 26.261719 63.5 26.417969 63.105469 L 28.121094 58.835938 Z M 25.113281 58.835938 " fill-opacity="1" fill-rule="nonzero"/></g><path fill="#c2b092" d="M 34.464844 43.566406 C 34.453125 43.566406 34.445312 43.550781 34.449219 43.539062 L 36.855469 37.511719 L 35.707031 34.632812 C 35.496094 34.109375 34.757812 34.109375 34.546875 34.632812 L 29.886719 46.320312 C 29.878906 46.332031 29.890625 46.347656 29.902344 46.347656 Z M 34.464844 43.566406 " fill-opacity="1" fill-rule="nonzero"/><path fill="#000000" d="M 29.902344 46.554688 C 29.828125 46.554688 29.757812 46.515625 29.714844 46.453125 C 29.671875 46.390625 29.664062 46.3125 29.691406 46.242188 L 34.355469 34.558594 C 34.484375 34.234375 34.78125 34.035156 35.128906 34.035156 C 35.472656 34.035156 35.769531 34.234375 35.898438 34.558594 L 37.046875 37.433594 C 37.066406 37.484375 37.066406 37.539062 37.046875 37.589844 L 34.671875 43.539062 C 34.683594 43.621094 34.644531 43.699219 34.574219 43.742188 L 30.011719 46.523438 C 29.976562 46.542969 29.941406 46.554688 29.902344 46.554688 Z M 35.128906 34.449219 C 34.992188 34.449219 34.820312 34.519531 34.742188 34.710938 L 30.289062 45.867188 L 34.261719 43.445312 L 36.628906 37.511719 L 35.511719 34.710938 C 35.4375 34.519531 35.261719 34.449219 35.128906 34.449219 Z M 34.46875 43.355469 Z M 34.464844 43.355469 Z M 34.464844 43.355469 " fill-opacity="1" fill-rule="nonzero"/><path fill="#c2b092" d="M 40.367188 46.320312 L 39.269531 43.566406 L 34.464844 43.566406 L 29.902344 46.347656 L 40.351562 46.347656 C 40.363281 46.347656 40.375 46.332031 40.367188 46.320312 Z M 40.367188 46.320312 " fill-opacity="1" fill-rule="nonzero"/><path fill="#000000" d="M 40.351562 46.554688 L 29.902344 46.554688 C 29.808594 46.554688 29.726562 46.492188 29.703125 46.402344 C 29.675781 46.3125 29.714844 46.214844 29.792969 46.167969 L 34.359375 43.386719 C 34.390625 43.367188 34.429688 43.355469 34.464844 43.355469 L 39.269531 43.355469 C 39.355469 43.355469 39.429688 43.410156 39.460938 43.488281 L 40.5625 46.242188 C 40.5625 46.242188 40.5625 46.246094 40.5625 46.246094 C 40.589844 46.316406 40.582031 46.394531 40.539062 46.457031 C 40.496094 46.515625 40.425781 46.554688 40.351562 46.554688 Z M 30.644531 46.136719 L 40.070312 46.136719 L 39.128906 43.773438 L 34.523438 43.773438 Z M 30.644531 46.136719 " fill-opacity="1" fill-rule="nonzero"/></svg>