<svg xmlns="http://www.w3.org/2000/svg" xmlns:xlink="http://www.w3.org/1999/xlink" width="200" zoomAndPan="magnify" viewBox="0 0 150 112.499997" height="150" preserveAspectRatio="xMidYMid meet" version="1.0"><defs><clipPath id="805613d320"><path d="M 11.53125 33 L 37 33 L 37 46 L 11.53125 46 Z M 11.53125 33 " clip-rule="nonzero"/></clipPath><clipPath id="8223310949"><path d="M 138.074219 56.523438 L 138.3125 56.523438 L 138.3125 57 L 138.074219 57 Z M 138.074219 56.523438 " clip-rule="nonzero"/></clipPath><clipPath id="3fd4fd9d31"><path d="M 54 30.457031 L 56 30.457031 L 56 31 L 54 31 Z M 54 30.457031 " clip-rule="nonzero"/></clipPath><clipPath id="d50b5dbf96"><path d="M 32.601562 30.457031 L 138.3125 30.457031 L 138.3125 80.371094 L 32.601562 80.371094 Z M 32.601562 30.457031 " clip-rule="nonzero"/></clipPath><clipPath id="9c01ee6d2b"><path d="M 67.480469 64.007812 L 81.429688 64.007812 L 81.429688 81.230469 L 67.480469 81.230469 Z M 67.480469 64.007812 " clip-rule="nonzero"/></clipPath></defs><path fill="#8aa9b7" d="M 82.496094 70.285156 C 82.492188 70.28125 82.492188 70.28125 82.492188 70.28125 C 82.488281 70.277344 82.480469 70.269531 82.476562 70.269531 L 82.496094 70.285156 " fill-opacity="1" fill-rule="nonzero"/><path fill="#8aa9b7" d="M 90.773438 74.441406 C 90.730469 74.128906 90.566406 73.863281 90.410156 73.628906 L 90.414062 73.570312 C 90.433594 73.550781 90.363281 73.496094 90.289062 73.445312 C 90.214844 73.394531 90.136719 73.339844 90.148438 73.3125 L 90.035156 73.226562 C 90.019531 73.195312 89.976562 73.136719 90.035156 73.175781 C 89.953125 73.085938 89.945312 73.089844 89.875 73.035156 C 89.855469 73 89.839844 72.960938 89.824219 72.925781 C 89.5625 72.570312 89.289062 72.28125 89.082031 71.871094 C 88.992188 71.617188 88.828125 71.261719 88.675781 70.890625 C 88.523438 70.519531 88.375 70.140625 88.265625 69.859375 C 88.09375 69.46875 88.007812 69.03125 87.894531 68.585938 C 87.78125 68.140625 87.640625 67.691406 87.386719 67.300781 C 87.382812 67.273438 87.328125 67.210938 87.320312 67.214844 C 87.199219 66.96875 87.050781 66.726562 86.894531 66.492188 C 86.894531 66.492188 86.859375 66.4375 86.796875 66.351562 C 86.734375 66.261719 86.636719 66.144531 86.523438 66.007812 C 86.460938 65.945312 86.398438 65.875 86.332031 65.804688 C 86.265625 65.738281 86.191406 65.667969 86.117188 65.601562 C 86.046875 65.53125 85.964844 65.46875 85.890625 65.410156 C 85.816406 65.347656 85.734375 65.292969 85.660156 65.242188 C 85.515625 65.140625 85.378906 65.066406 85.28125 65.023438 C 85.183594 64.984375 85.128906 64.972656 85.128906 65.011719 C 85.128906 65.035156 85.152344 65.074219 85.199219 65.136719 C 85.160156 65.109375 85.121094 65.082031 85.078125 65.054688 L 79.625 64.476562 C 79.683594 64.652344 79.746094 64.828125 79.808594 65 C 79.777344 64.953125 79.75 64.902344 79.726562 64.863281 C 79.636719 64.714844 79.566406 64.617188 79.515625 64.554688 C 79.410156 64.425781 79.371094 64.445312 79.355469 64.527344 C 79.339844 64.6875 79.457031 65.105469 79.457031 65.105469 C 79.503906 65.320312 79.574219 65.496094 79.640625 65.667969 C 79.675781 65.75 79.710938 65.832031 79.746094 65.914062 C 79.78125 65.992188 79.820312 66.074219 79.867188 66.152344 C 79.953125 66.308594 80.046875 66.472656 80.144531 66.652344 C 80.195312 66.746094 80.253906 66.839844 80.3125 66.9375 C 80.375 67.039062 80.4375 67.144531 80.503906 67.261719 C 80.554688 67.363281 80.597656 67.460938 80.648438 67.546875 C 80.691406 67.632812 80.734375 67.710938 80.773438 67.789062 C 80.851562 67.9375 80.921875 68.070312 80.988281 68.203125 C 81.0625 68.335938 81.140625 68.464844 81.234375 68.613281 C 81.332031 68.761719 81.4375 68.933594 81.59375 69.128906 C 81.660156 69.226562 81.730469 69.324219 81.804688 69.425781 C 81.878906 69.523438 81.945312 69.621094 82.027344 69.714844 C 82.183594 69.910156 82.339844 70.097656 82.492188 70.28125 C 82.6875 70.425781 82.894531 70.753906 83.113281 70.933594 C 83.125 70.964844 83.136719 70.996094 83.152344 71.023438 C 83.230469 71.085938 83.3125 71.160156 83.363281 71.234375 L 83.347656 71.234375 C 83.464844 71.324219 83.558594 71.445312 83.617188 71.492188 L 83.605469 71.492188 L 83.722656 71.613281 L 83.691406 71.597656 C 83.882812 71.757812 84.0625 71.933594 84.210938 72.09375 L 84.230469 72.0625 C 84.375 72.242188 84.507812 72.347656 84.628906 72.449219 C 84.75 72.550781 84.871094 72.648438 85.003906 72.808594 L 84.992188 72.808594 C 85.238281 72.964844 85.394531 73.113281 85.542969 73.265625 C 85.617188 73.34375 85.695312 73.421875 85.785156 73.496094 C 85.878906 73.570312 85.984375 73.644531 86.113281 73.722656 C 86.050781 73.683594 86.121094 73.753906 86.109375 73.753906 C 86.328125 73.910156 86.550781 74.085938 86.617188 74.039062 C 86.769531 74.15625 86.722656 74.148438 86.71875 74.179688 C 86.746094 74.160156 86.890625 74.25 87.015625 74.339844 L 86.949219 74.304688 L 87.304688 74.554688 L 87.285156 74.46875 C 87.457031 74.613281 87.269531 74.550781 87.464844 74.667969 L 87.503906 74.632812 C 87.757812 74.820312 87.855469 74.976562 88.082031 75.179688 C 88.214844 75.269531 88.363281 75.367188 88.535156 75.449219 C 88.703125 75.535156 88.902344 75.609375 89.125 75.644531 C 89.34375 75.683594 89.589844 75.675781 89.8125 75.617188 C 90.03125 75.5625 90.222656 75.460938 90.371094 75.339844 C 90.519531 75.214844 90.625 75.070312 90.691406 74.917969 C 90.761719 74.765625 90.789062 74.605469 90.773438 74.441406 " fill-opacity="1" fill-rule="nonzero"/><g clip-path="url(#805613d320)"><path fill="#6664b2" d="M 36.832031 40.304688 C 36.75 40.28125 36.664062 40.257812 36.582031 40.234375 C 36.296875 40.082031 35.738281 39.835938 34.808594 39.46875 L 34.851562 39.460938 C 34.023438 39.191406 33.5 39.039062 32.902344 38.957031 C 32.835938 38.835938 32.21875 38.757812 32.03125 38.671875 L 32.050781 38.671875 C 31.519531 38.601562 31.015625 38.316406 30.507812 38.246094 C 30.527344 38.246094 30.546875 38.222656 30.660156 38.25 C 30.296875 38.164062 29.800781 38.050781 29.792969 37.988281 C 28.929688 37.765625 27.746094 37.410156 27.171875 37.347656 L 27.210938 37.339844 C 26.882812 37.316406 26.804688 37.238281 26.449219 37.171875 C 26.429688 37.160156 26.40625 37.148438 26.414062 37.148438 C 26.054688 37.113281 25.417969 36.882812 25.132812 36.832031 L 25.125 36.789062 L 24.445312 36.609375 L 24.695312 36.6875 C 24.582031 36.765625 24.203125 36.480469 23.691406 36.410156 C 23.238281 36.273438 22.699219 36.367188 22.234375 36.183594 C 21.996094 36.171875 22.457031 36.164062 22.105469 36.105469 C 22.113281 36.050781 22.277344 36.117188 22.199219 36.050781 C 21.859375 35.980469 21.667969 35.84375 21.246094 35.765625 L 21.238281 35.71875 C 20.679688 35.644531 20.238281 35.382812 19.859375 35.355469 C 19.296875 35.238281 19.523438 35.128906 18.921875 35.050781 L 18.714844 34.929688 C 18.46875 34.855469 18.519531 34.953125 18.25 34.847656 C 18.277344 34.816406 17.914062 34.722656 18.082031 34.734375 C 17.476562 34.507812 16.800781 34.464844 16.011719 34.144531 C 15.8125 34.164062 15.414062 34.011719 15.265625 34.027344 C 15.253906 33.988281 14.445312 33.792969 14.925781 33.855469 C 14.964844 33.859375 15.035156 33.878906 15.027344 33.890625 L 15.09375 33.867188 C 14.871094 33.761719 14.65625 33.714844 14.441406 33.675781 C 14.332031 33.65625 14.222656 33.636719 14.113281 33.613281 C 14.054688 33.601562 13.992188 33.589844 13.929688 33.578125 C 13.867188 33.566406 13.804688 33.550781 13.738281 33.539062 C 13.882812 33.574219 14.113281 33.636719 13.957031 33.625 C 13.785156 33.582031 13.632812 33.558594 13.476562 33.535156 L 13.578125 33.511719 C 13.460938 33.496094 13.34375 33.480469 13.226562 33.464844 C 13.167969 33.460938 13.109375 33.457031 13.046875 33.453125 L 12.957031 33.445312 L 12.914062 33.445312 L 12.859375 33.441406 L 12.917969 33.464844 L 12.96875 33.488281 C 12.808594 33.472656 12.554688 33.453125 12.355469 33.472656 C 12.152344 33.492188 11.941406 33.546875 11.796875 33.722656 C 11.734375 33.808594 11.816406 33.742188 11.886719 33.710938 C 11.921875 33.695312 11.949219 33.683594 11.949219 33.691406 C 11.945312 33.699219 11.90625 33.722656 11.832031 33.792969 C 11.785156 33.839844 11.730469 33.898438 11.703125 33.976562 C 11.671875 34.054688 11.667969 34.140625 11.683594 34.21875 C 11.707031 34.375 11.796875 34.542969 11.964844 34.707031 C 12.003906 34.75 12.050781 34.789062 12.097656 34.828125 L 12.171875 34.890625 C 12.195312 34.910156 12.222656 34.933594 12.234375 34.941406 L 12.417969 35.078125 C 12.539062 35.167969 12.660156 35.253906 12.78125 35.339844 C 12.765625 35.269531 12.894531 35.359375 13.035156 35.4375 L 13.023438 35.484375 C 13.296875 35.632812 13.328125 35.683594 13.359375 35.734375 C 13.375 35.761719 13.390625 35.785156 13.4375 35.824219 C 13.480469 35.863281 13.558594 35.917969 13.6875 35.984375 L 13.808594 35.988281 C 14.304688 36.199219 14 36.21875 14.5625 36.429688 C 14.363281 36.3125 14.519531 36.289062 14.753906 36.457031 L 14.667969 36.457031 C 14.808594 36.53125 14.863281 36.546875 14.945312 36.609375 C 14.855469 36.578125 14.871094 36.636719 15.070312 36.75 C 15.019531 36.738281 14.964844 36.726562 14.910156 36.714844 C 15.046875 36.769531 15.191406 36.820312 15.328125 36.875 C 15.597656 37.085938 16.085938 37.3125 16.179688 37.433594 C 16.179688 37.433594 16.214844 37.457031 16.277344 37.496094 C 16.335938 37.535156 16.417969 37.585938 16.507812 37.632812 C 16.683594 37.730469 16.882812 37.835938 16.972656 37.847656 C 16.828125 37.808594 17.167969 38.019531 17.046875 38.003906 C 17.234375 38.058594 17.738281 38.300781 17.910156 38.449219 L 17.871094 38.433594 C 18.222656 38.648438 18.542969 38.800781 18.851562 38.945312 C 19.007812 39.019531 19.160156 39.09375 19.3125 39.171875 C 19.46875 39.246094 19.625 39.328125 19.78125 39.425781 C 19.773438 39.367188 20.113281 39.570312 20.054688 39.464844 C 20.761719 39.761719 21.25 40.203125 21.585938 40.144531 C 21.902344 40.289062 21.9375 40.367188 22.09375 40.453125 L 22.011719 40.429688 C 22.609375 40.695312 22.785156 40.765625 23.222656 40.976562 C 23.449219 41.058594 23.523438 40.992188 23.910156 41.191406 C 23.765625 41.167969 23.929688 41.234375 24.078125 41.296875 C 23.980469 41.261719 23.945312 41.261719 24.128906 41.371094 C 24.160156 41.371094 24.207031 41.382812 24.25 41.398438 C 24.25 41.398438 24.257812 41.40625 24.25 41.40625 C 24.503906 41.503906 24.464844 41.476562 24.351562 41.417969 C 24.359375 41.417969 24.355469 41.40625 24.324219 41.382812 C 24.558594 41.539062 25.039062 41.695312 25.042969 41.769531 C 25.796875 42.078125 26.355469 42.25 26.988281 42.488281 C 27.046875 42.546875 26.890625 42.511719 26.703125 42.449219 L 27.152344 42.621094 C 27.128906 42.660156 26.886719 42.539062 26.746094 42.492188 C 27.242188 42.78125 27.863281 42.875 28.457031 43.191406 L 28.597656 43.210938 L 28.632812 43.230469 C 28.640625 43.210938 28.789062 43.242188 28.882812 43.273438 C 28.957031 43.347656 28.839844 43.359375 29.148438 43.480469 C 29.378906 43.617188 29.847656 43.742188 30.175781 43.847656 C 30.007812 43.769531 30.070312 43.773438 30.148438 43.789062 C 30.304688 43.847656 30.378906 43.921875 30.503906 43.953125 L 30.5 43.996094 C 30.535156 43.96875 30.925781 44.117188 30.988281 44.117188 C 31.058594 44.1875 30.734375 44.054688 30.683594 44.070312 C 31.304688 44.304688 30.996094 44.1875 31.617188 44.425781 C 31.960938 44.515625 31.574219 44.351562 31.75 44.371094 C 32.046875 44.472656 32.34375 44.546875 32.667969 44.707031 L 32.578125 44.621094 C 33.140625 44.796875 33.46875 44.925781 33.820312 45.117188 C 34.179688 45.214844 34.484375 45.296875 34.742188 45.363281 C 35.101562 45.5 35.460938 45.636719 35.820312 45.773438 L 35.855469 45.59375 C 36.066406 45.613281 36.054688 45.554688 35.9375 45.46875 C 35.921875 45.457031 35.902344 45.445312 35.882812 45.433594 L 36.808594 40.425781 C 36.816406 40.417969 36.816406 40.414062 36.8125 40.402344 L 36.832031 40.304688 " fill-opacity="1" fill-rule="nonzero"/></g><path fill="#6664b2" d="M 28.75 43.300781 L 28.632812 43.230469 C 28.632812 43.242188 28.660156 43.261719 28.75 43.300781 " fill-opacity="1" fill-rule="nonzero"/><path fill="#6664b2" d="M 26.414062 37.148438 C 26.421875 37.148438 26.433594 37.152344 26.445312 37.152344 C 26.421875 37.148438 26.414062 37.144531 26.414062 37.148438 " fill-opacity="1" fill-rule="nonzero"/><path fill="#6664b2" d="M 30.496094 44.007812 L 30.5 43.996094 C 30.496094 44 30.496094 44.003906 30.496094 44.007812 " fill-opacity="1" fill-rule="nonzero"/><path fill="#8aa9b7" d="M 76.332031 71.292969 C 76.339844 71.300781 76.515625 71.3125 77.015625 71.316406 L 76.332031 71.292969 " fill-opacity="1" fill-rule="nonzero"/><g clip-path="url(#8223310949)"><path fill="#8aa9b7" d="M 138.128906 56.742188 C 138.1875 56.800781 138.261719 56.863281 138.3125 56.914062 C 138.183594 56.792969 138.140625 56.753906 138.128906 56.742188 " fill-opacity="1" fill-rule="nonzero"/></g><path fill="#8aa9b7" d="M 128.390625 69.757812 C 128.402344 69.804688 128.414062 69.855469 128.425781 69.902344 C 128.414062 69.847656 128.402344 69.800781 128.390625 69.757812 " fill-opacity="1" fill-rule="nonzero"/><path fill="#8aa9b7" d="M 86.558594 70.757812 L 86.535156 70.75 C 86.519531 70.753906 86.523438 70.757812 86.558594 70.757812 " fill-opacity="1" fill-rule="nonzero"/><g clip-path="url(#3fd4fd9d31)"><path fill="#8aa9b7" d="M 54.945312 30.484375 L 55.207031 30.457031 L 54.945312 30.484375 " fill-opacity="1" fill-rule="nonzero"/></g><g clip-path="url(#d50b5dbf96)"><path fill="#8aa9b7" d="M 138.183594 56.804688 C 138.140625 56.761719 138.113281 56.734375 138.128906 56.742188 C 138 56.628906 137.867188 56.503906 137.726562 56.378906 C 137.691406 56.347656 137.652344 56.320312 137.617188 56.289062 C 137.582031 56.261719 137.546875 56.234375 137.511719 56.207031 C 137.460938 56.164062 137.40625 56.121094 137.351562 56.078125 C 137.242188 56 137.125 55.917969 137.003906 55.832031 C 136.878906 55.753906 136.753906 55.671875 136.621094 55.589844 C 136.09375 55.277344 135.484375 55.015625 134.871094 54.820312 C 134.253906 54.621094 133.632812 54.492188 133.082031 54.402344 C 132.527344 54.316406 132.035156 54.273438 131.671875 54.253906 L 131.578125 54.207031 C 130.382812 54.125 129.1875 54.128906 128.003906 54.125 L 129.335938 54.144531 C 129.105469 54.191406 128.429688 54.171875 127.492188 54.144531 C 126.558594 54.113281 125.363281 54.074219 124.09375 53.96875 C 122.914062 53.824219 121.722656 53.609375 120.539062 53.273438 C 119.355469 52.941406 118.1875 52.488281 117.082031 51.910156 C 115.996094 51.414062 118.050781 52.316406 116.449219 51.539062 C 116.421875 51.464844 117.203125 51.886719 116.816406 51.636719 C 115.25 50.863281 114.328125 50.222656 112.457031 49.144531 L 112.402344 49.0625 C 111.789062 48.714844 111.199219 48.363281 110.632812 48.027344 C 110.058594 47.695312 109.511719 47.367188 108.992188 47.058594 C 107.953125 46.421875 106.992188 45.894531 106.148438 45.472656 C 104.867188 44.777344 104.441406 44.539062 104.007812 44.28125 C 103.789062 44.152344 103.570312 44.023438 103.230469 43.847656 C 103.0625 43.757812 102.863281 43.65625 102.621094 43.535156 C 102.378906 43.414062 102.097656 43.273438 101.75 43.117188 L 100.710938 42.546875 C 100.128906 42.257812 99.914062 42.171875 99.679688 42.078125 C 99.449219 41.984375 99.207031 41.871094 98.554688 41.5625 C 98.648438 41.566406 96.90625 40.78125 97.691406 41.101562 C 96.226562 40.378906 94.683594 39.765625 93.035156 39.082031 C 92.199219 38.761719 91.335938 38.429688 90.433594 38.070312 C 89.984375 37.886719 89.515625 37.722656 89.039062 37.539062 C 88.5625 37.359375 88.074219 37.175781 87.574219 36.976562 C 87.347656 36.917969 87.054688 36.816406 86.722656 36.714844 C 86.394531 36.609375 86.03125 36.492188 85.679688 36.378906 C 84.96875 36.148438 84.289062 35.921875 83.949219 35.835938 C 83.90625 35.796875 82.863281 35.484375 82.132812 35.257812 C 81.402344 35.027344 80.976562 34.886719 82.148438 35.207031 C 82.351562 35.261719 82.703125 35.371094 82.675781 35.375 L 82.96875 35.417969 C 82.386719 35.222656 81.828125 35.042969 81.28125 34.878906 C 81.007812 34.796875 80.738281 34.714844 80.46875 34.640625 C 80.195312 34.574219 79.925781 34.503906 79.65625 34.433594 C 79.117188 34.296875 78.578125 34.160156 78.027344 34.019531 C 77.753906 33.953125 77.476562 33.871094 77.191406 33.808594 C 76.910156 33.738281 76.621094 33.671875 76.324219 33.597656 C 76.671875 33.6875 77.078125 33.792969 77.320312 33.855469 C 77.5625 33.921875 77.636719 33.949219 77.324219 33.882812 L 75.132812 33.34375 L 75.597656 33.421875 L 74.375 33.117188 C 74.238281 33.082031 74.101562 33.046875 73.964844 33.019531 L 72.320312 32.660156 L 72.765625 32.800781 C 71.960938 32.621094 71.421875 32.480469 70.855469 32.347656 C 70.285156 32.230469 69.6875 32.117188 68.765625 31.984375 C 67.933594 31.867188 70.289062 32.320312 68.578125 32.023438 C 68.308594 31.972656 68.023438 31.917969 67.722656 31.859375 C 67.421875 31.804688 67.105469 31.753906 66.777344 31.699219 C 66.125 31.59375 65.429688 31.480469 64.710938 31.363281 C 64.355469 31.300781 63.988281 31.261719 63.625 31.210938 C 63.257812 31.164062 62.890625 31.117188 62.523438 31.070312 C 61.789062 30.976562 61.066406 30.878906 60.363281 30.8125 C 60.621094 30.890625 59.867188 30.8125 59.089844 30.761719 L 59.003906 30.710938 C 57.511719 30.632812 57.242188 30.609375 56.96875 30.566406 C 56.835938 30.546875 56.699219 30.523438 56.414062 30.511719 C 56.269531 30.503906 56.089844 30.496094 55.851562 30.488281 C 55.730469 30.488281 55.597656 30.484375 55.449219 30.480469 C 55.296875 30.480469 55.132812 30.484375 54.945312 30.484375 L 54.421875 30.542969 C 53.078125 30.601562 52.71875 30.609375 52.316406 30.609375 C 52.117188 30.605469 51.910156 30.617188 51.5625 30.644531 C 51.390625 30.660156 51.183594 30.675781 50.929688 30.707031 C 50.671875 30.738281 50.371094 30.785156 50 30.839844 C 50.585938 30.773438 50.726562 30.78125 50.539062 30.824219 C 50.445312 30.84375 50.273438 30.875 50.03125 30.90625 C 49.789062 30.941406 49.480469 30.996094 49.121094 31.042969 L 49.480469 30.945312 C 48.683594 31.0625 48.425781 31.144531 47.894531 31.230469 C 48.128906 31.175781 48.191406 31.148438 48.046875 31.164062 C 47.972656 31.171875 47.847656 31.1875 47.671875 31.222656 C 47.496094 31.257812 47.265625 31.308594 46.976562 31.375 C 47.230469 31.300781 47.484375 31.222656 47.742188 31.152344 C 47.378906 31.242188 47.015625 31.339844 46.65625 31.4375 C 46.296875 31.542969 45.9375 31.65625 45.582031 31.765625 C 44.75 32.003906 43.6875 32.359375 42.78125 32.777344 C 41.871094 33.183594 41.121094 33.621094 40.800781 33.777344 C 40.800781 33.777344 40.75 33.808594 40.660156 33.863281 C 40.570312 33.917969 40.441406 33.988281 40.289062 34.089844 C 40.136719 34.191406 39.953125 34.300781 39.761719 34.4375 C 39.667969 34.503906 39.566406 34.574219 39.464844 34.644531 C 39.363281 34.722656 39.257812 34.796875 39.15625 34.875 C 38.355469 35.460938 37.566406 36.207031 37.25 36.5625 C 37.417969 36.371094 37.195312 36.578125 36.957031 36.796875 C 36.703125 37.039062 36.445312 37.304688 36.628906 37.070312 C 36.3125 37.441406 35.699219 38.183594 35.15625 39 C 34.605469 39.816406 34.140625 40.710938 33.886719 41.230469 L 33.96875 41.027344 C 33.511719 41.988281 33.1875 42.9375 33 43.863281 C 32.898438 44.328125 32.839844 44.789062 32.792969 45.238281 C 32.777344 45.464844 32.757812 45.691406 32.75 45.917969 C 32.75 46.140625 32.738281 46.363281 32.75 46.582031 C 32.789062 48.355469 33.183594 50.050781 33.894531 51.816406 C 33.886719 51.726562 34.066406 52.148438 34.257812 52.523438 C 34.445312 52.894531 34.632812 53.222656 34.546875 52.988281 C 35.484375 54.707031 36.550781 56.144531 37.515625 57.25 C 38 57.800781 38.457031 58.273438 38.867188 58.652344 C 39.070312 58.84375 39.269531 59.011719 39.445312 59.15625 C 39.625 59.300781 39.789062 59.421875 39.941406 59.519531 C 40.609375 60.09375 41.015625 60.429688 41.339844 60.691406 C 41.5 60.824219 41.640625 60.941406 41.78125 61.058594 C 41.929688 61.175781 42.074219 61.300781 42.261719 61.433594 C 42.144531 61.355469 42.027344 61.273438 41.914062 61.191406 C 42.582031 61.679688 43.140625 62.070312 43.636719 62.398438 C 43.761719 62.480469 43.878906 62.5625 43.996094 62.640625 C 44.109375 62.714844 44.222656 62.785156 44.335938 62.855469 C 44.554688 62.996094 44.765625 63.128906 44.964844 63.257812 C 45.167969 63.386719 45.371094 63.503906 45.574219 63.625 C 45.773438 63.742188 45.972656 63.871094 46.1875 63.988281 C 46.613281 64.226562 47.058594 64.496094 47.605469 64.777344 C 48.148438 65.0625 48.480469 65.195312 48.917969 65.386719 C 49.027344 65.4375 49.140625 65.488281 49.269531 65.546875 C 49.398438 65.601562 49.539062 65.664062 49.695312 65.734375 C 49.855469 65.808594 50.027344 65.886719 50.226562 65.976562 C 50.425781 66.070312 50.648438 66.167969 50.898438 66.28125 C 50.5625 66.15625 50.605469 66.179688 50.820312 66.28125 C 51.039062 66.378906 51.429688 66.554688 51.8125 66.707031 C 51.324219 66.511719 51.167969 66.460938 52.15625 66.898438 C 52.300781 66.945312 52.519531 67.03125 52.726562 67.101562 C 52.734375 67.109375 52.773438 67.125 52.753906 67.121094 C 53.394531 67.363281 53.660156 67.460938 53.695312 67.464844 C 53.726562 67.472656 53.523438 67.390625 53.226562 67.273438 C 53.257812 67.277344 53.210938 67.253906 53.03125 67.171875 C 53.195312 67.242188 53.375 67.316406 53.566406 67.394531 C 53.757812 67.472656 53.960938 67.542969 54.167969 67.621094 C 54.375 67.699219 54.585938 67.777344 54.796875 67.851562 C 55.007812 67.921875 55.214844 67.992188 55.410156 68.058594 C 55.804688 68.195312 56.167969 68.308594 56.4375 68.398438 C 56.707031 68.488281 56.886719 68.554688 56.925781 68.582031 C 58.90625 69.167969 60.632812 69.5625 62.28125 69.882812 C 63.933594 70.195312 65.507812 70.433594 67.210938 70.640625 C 67.402344 70.683594 67.296875 70.683594 67.019531 70.660156 C 66.742188 70.636719 66.296875 70.589844 65.804688 70.519531 C 66.203125 70.582031 66.605469 70.632812 67.007812 70.683594 C 67.410156 70.738281 67.816406 70.777344 68.21875 70.824219 C 68.207031 70.84375 67.855469 70.8125 67.417969 70.761719 C 66.980469 70.707031 66.453125 70.636719 66.082031 70.585938 C 68.945312 71.074219 72.03125 71.1875 75.421875 71.3125 C 75.65625 71.308594 75.894531 71.296875 76.128906 71.285156 L 76.332031 71.292969 C 76.324219 71.28125 76.515625 71.273438 76.765625 71.261719 C 77.015625 71.257812 77.332031 71.242188 77.585938 71.238281 C 77.824219 71.253906 77.816406 71.277344 77.957031 71.296875 C 78.101562 71.3125 78.394531 71.320312 79.234375 71.296875 C 79.566406 71.300781 79.96875 71.285156 80.414062 71.269531 C 80.855469 71.25 81.339844 71.214844 81.839844 71.183594 C 82.832031 71.105469 83.875 71.011719 84.742188 70.914062 C 84.507812 70.933594 84.351562 70.945312 84.253906 70.953125 C 84.15625 70.957031 84.117188 70.957031 84.121094 70.953125 C 84.128906 70.941406 84.304688 70.921875 84.503906 70.894531 C 84.921875 70.851562 85.253906 70.832031 85.558594 70.808594 C 85.867188 70.78125 86.148438 70.757812 86.46875 70.714844 L 86.535156 70.75 C 86.5625 70.738281 86.640625 70.726562 86.761719 70.707031 C 86.953125 70.675781 87.246094 70.632812 87.554688 70.589844 C 88.179688 70.503906 88.878906 70.394531 89.03125 70.363281 C 89.511719 70.335938 87.746094 70.578125 87.539062 70.628906 C 89.210938 70.414062 89.628906 70.335938 90.042969 70.277344 C 90.253906 70.246094 90.460938 70.210938 90.824219 70.152344 C 91.007812 70.121094 91.226562 70.085938 91.503906 70.039062 C 91.785156 69.992188 92.121094 69.929688 92.535156 69.855469 C 94.296875 69.484375 92.207031 69.867188 93.042969 69.660156 C 94.597656 69.359375 96.105469 69 97.882812 68.617188 L 97.308594 68.699219 C 100.199219 67.988281 101.921875 67.542969 103.875 67.082031 C 105.691406 66.566406 107.226562 66.117188 108.515625 65.738281 C 110.386719 65.230469 112.257812 64.726562 114.128906 64.238281 C 114.566406 64.125 115.003906 64.015625 115.441406 63.902344 C 115.59375 63.871094 115.761719 63.835938 115.945312 63.796875 C 116.003906 63.992188 116.066406 64.207031 116.136719 64.4375 C 116.210938 64.675781 116.289062 64.929688 116.371094 65.207031 C 116.542969 65.761719 116.746094 66.390625 116.988281 67.097656 C 117.226562 67.808594 117.507812 68.601562 117.855469 69.464844 C 118.207031 70.332031 118.621094 71.277344 119.144531 72.28125 L 119.039062 72.113281 C 119.550781 73.09375 120.089844 73.945312 120.640625 74.703125 C 121.191406 75.457031 121.753906 76.113281 122.332031 76.699219 C 123.488281 77.867188 124.699219 78.75 126.09375 79.417969 C 126.191406 79.492188 126.441406 79.644531 126.796875 79.796875 C 126.886719 79.835938 126.980469 79.875 127.078125 79.917969 C 127.199219 79.964844 127.328125 80.011719 127.460938 80.0625 C 127.546875 80.09375 127.632812 80.125 127.722656 80.15625 C 127.765625 80.171875 127.808594 80.1875 127.855469 80.203125 L 127.921875 80.226562 L 127.9375 80.234375 C 127.941406 80.230469 127.941406 80.222656 127.945312 80.21875 L 127.960938 80.1875 C 128.042969 80.015625 128.128906 79.84375 128.210938 79.664062 C 128.257812 79.566406 128.273438 79.523438 128.300781 79.464844 C 128.324219 79.40625 128.351562 79.347656 128.375 79.289062 C 128.417969 79.171875 128.464844 79.054688 128.507812 78.9375 C 128.546875 78.820312 128.585938 78.703125 128.621094 78.589844 C 128.65625 78.472656 128.6875 78.359375 128.71875 78.25 C 128.839844 77.808594 128.910156 77.421875 128.960938 77.164062 L 128.953125 77.261719 C 129.144531 75.90625 129.128906 74.5 128.980469 73.128906 C 128.828125 71.757812 128.554688 70.425781 128.214844 69.179688 C 128.246094 69.265625 128.28125 69.316406 128.390625 69.757812 C 128.289062 69.339844 128.179688 68.894531 128.066406 68.457031 C 127.9375 67.964844 127.796875 67.472656 127.65625 67.042969 C 127.375 66.179688 127.113281 65.546875 127.113281 65.46875 C 126.894531 64.945312 126.640625 64.410156 126.363281 63.863281 C 126.226562 63.589844 126.082031 63.316406 125.9375 63.039062 C 125.871094 62.917969 125.804688 62.796875 125.738281 62.675781 L 125.691406 62.59375 L 125.683594 62.578125 C 125.679688 62.574219 125.691406 62.574219 125.695312 62.570312 L 125.824219 62.507812 C 125.964844 62.4375 126.105469 62.367188 126.25 62.300781 C 126.535156 62.171875 126.820312 62.03125 127.109375 61.910156 C 127.691406 61.652344 128.269531 61.410156 128.84375 61.175781 C 129.992188 60.710938 131.105469 60.28125 132.09375 59.882812 C 133.078125 59.480469 133.941406 59.117188 134.59375 58.800781 L 134.417969 58.894531 C 134.789062 58.71875 135.097656 58.574219 135.371094 58.441406 C 135.652344 58.3125 135.894531 58.191406 136.148438 58.070312 C 136.402344 57.953125 136.65625 57.824219 136.949219 57.671875 C 137.023438 57.636719 137.101562 57.59375 137.179688 57.554688 C 137.199219 57.542969 137.21875 57.535156 137.238281 57.523438 C 137.265625 57.507812 137.296875 57.492188 137.324219 57.476562 C 137.378906 57.445312 137.4375 57.414062 137.496094 57.378906 C 137.726562 57.246094 137.972656 57.105469 138.25 56.949219 C 138.265625 56.9375 138.285156 56.929688 138.296875 56.921875 C 138.285156 56.90625 138.269531 56.894531 138.257812 56.878906 C 138.230469 56.855469 138.207031 56.828125 138.183594 56.804688 " fill-opacity="1" fill-rule="nonzero"/></g><path fill="#353535" d="M 62.363281 61.539062 C 62.300781 61.492188 62.40625 61.492188 62.324219 61.449219 C 62.335938 61.472656 62.273438 61.472656 62.273438 61.445312 L 62.300781 61.445312 C 62.292969 61.429688 62.277344 61.425781 62.28125 61.414062 C 62.296875 61.421875 62.316406 61.410156 62.304688 61.386719 L 62.339844 61.394531 C 62.320312 61.382812 62.300781 61.371094 62.277344 61.363281 C 62.292969 61.320312 62.234375 61.28125 62.257812 61.253906 C 62.257812 61.253906 62.253906 61.234375 62.242188 61.214844 C 62.230469 61.195312 62.214844 61.175781 62.191406 61.179688 C 62.222656 61.183594 62.203125 61.140625 62.234375 61.136719 C 62.199219 61.132812 62.148438 61.097656 62.152344 61.058594 L 62.160156 61.0625 C 62.140625 61.015625 62.105469 60.992188 62.074219 60.972656 C 62.039062 60.953125 62.003906 60.9375 61.984375 60.894531 C 61.96875 60.917969 61.945312 60.882812 61.929688 60.917969 C 61.886719 60.910156 61.867188 60.875 61.84375 60.851562 C 61.820312 60.828125 61.796875 60.816406 61.757812 60.859375 C 61.722656 60.851562 61.730469 60.816406 61.710938 60.804688 L 61.722656 60.800781 C 61.648438 60.785156 61.628906 60.78125 61.574219 60.769531 C 61.542969 60.777344 61.53125 60.828125 61.484375 60.8125 C 61.503906 60.792969 61.480469 60.796875 61.464844 60.796875 C 61.476562 60.792969 61.480469 60.785156 61.453125 60.769531 C 61.449219 60.777344 61.445312 60.78125 61.441406 60.785156 C 61.441406 60.78125 61.4375 60.78125 61.4375 60.78125 C 61.40625 60.789062 61.414062 60.796875 61.429688 60.796875 C 61.429688 60.800781 61.429688 60.804688 61.433594 60.8125 C 61.398438 60.78125 61.347656 60.824219 61.335938 60.789062 C 61.242188 60.820312 61.195312 60.886719 61.148438 60.9375 C 61.132812 60.929688 61.132812 60.90625 61.148438 60.886719 L 61.109375 60.921875 C 61.09375 60.902344 61.125 60.894531 61.136719 60.878906 C 61.097656 60.878906 61.074219 60.90625 61.054688 60.941406 C 61.039062 60.972656 61.023438 61.003906 60.984375 61.019531 L 60.992188 61.042969 L 60.988281 61.042969 C 60.996094 61.050781 60.996094 61.074219 60.996094 61.082031 C 60.972656 61.078125 60.953125 61.046875 60.933594 61.078125 C 60.894531 61.089844 60.898438 61.152344 60.894531 61.1875 C 60.90625 61.171875 60.914062 61.183594 60.921875 61.195312 C 60.914062 61.210938 60.886719 61.207031 60.890625 61.226562 L 60.859375 61.214844 C 60.890625 61.21875 60.875 61.265625 60.882812 61.277344 C 60.855469 61.277344 60.875 61.246094 60.859375 61.234375 C 60.835938 61.296875 60.847656 61.265625 60.828125 61.332031 C 60.839844 61.371094 60.859375 61.332031 60.878906 61.359375 C 60.875 61.390625 60.890625 61.421875 60.863281 61.449219 L 60.894531 61.445312 C 60.90625 61.5 60.898438 61.527344 60.871094 61.558594 C 60.839844 61.574219 60.804688 61.597656 60.769531 61.636719 L 60.761719 61.628906 C 60.738281 61.675781 60.722656 61.714844 60.722656 61.753906 C 60.71875 61.789062 60.730469 61.824219 60.757812 61.855469 C 60.695312 61.867188 60.757812 61.933594 60.742188 61.957031 L 60.738281 61.957031 C 60.765625 61.980469 60.765625 62.007812 60.761719 62.042969 C 60.761719 62.070312 60.761719 62.105469 60.792969 62.125 C 60.785156 62.125 60.773438 62.128906 60.765625 62.117188 C 60.785156 62.152344 60.828125 62.195312 60.796875 62.214844 C 60.8125 62.238281 60.828125 62.261719 60.84375 62.285156 C 60.859375 62.308594 60.878906 62.332031 60.898438 62.351562 C 60.941406 62.390625 60.984375 62.421875 61.027344 62.421875 L 61.019531 62.425781 C 61.070312 62.417969 61.058594 62.449219 61.105469 62.457031 C 61.105469 62.460938 61.105469 62.464844 61.105469 62.464844 C 61.128906 62.460938 61.15625 62.472656 61.179688 62.484375 C 61.207031 62.5 61.230469 62.511719 61.246094 62.511719 L 61.242188 62.53125 C 61.269531 62.535156 61.292969 62.542969 61.320312 62.546875 C 61.308594 62.542969 61.300781 62.539062 61.292969 62.535156 C 61.304688 62.507812 61.316406 62.519531 61.332031 62.535156 C 61.347656 62.550781 61.375 62.574219 61.40625 62.554688 C 61.429688 62.558594 61.457031 62.53125 61.480469 62.5 C 61.507812 62.46875 61.527344 62.441406 61.550781 62.453125 C 61.570312 62.421875 61.535156 62.503906 61.566406 62.476562 C 61.574219 62.507812 61.554688 62.5 61.566406 62.523438 C 61.597656 62.503906 61.628906 62.546875 61.667969 62.515625 L 61.679688 62.539062 C 61.722656 62.480469 61.796875 62.535156 61.816406 62.476562 C 61.859375 62.433594 61.886719 62.523438 61.921875 62.449219 C 61.933594 62.457031 61.945312 62.460938 61.960938 62.464844 C 61.988281 62.453125 61.953125 62.421875 61.988281 62.414062 C 62 62.433594 62.03125 62.40625 62.027344 62.433594 C 62.066406 62.421875 62.089844 62.390625 62.109375 62.355469 C 62.132812 62.320312 62.152344 62.285156 62.207031 62.265625 C 62.1875 62.222656 62.234375 62.199219 62.214844 62.167969 C 62.230469 62.175781 62.265625 62.085938 62.273438 62.152344 C 62.273438 62.15625 62.269531 62.164062 62.261719 62.160156 L 62.28125 62.179688 C 62.351562 62.148438 62.304688 62.074219 62.332031 62.027344 C 62.320312 62.039062 62.3125 62.058594 62.300781 62.039062 C 62.308594 62.023438 62.316406 62.007812 62.320312 61.992188 L 62.339844 62.007812 C 62.347656 61.984375 62.363281 61.960938 62.371094 61.9375 L 62.34375 61.941406 C 62.363281 61.910156 62.410156 61.902344 62.378906 61.855469 C 62.363281 61.835938 62.339844 61.886719 62.339844 61.847656 C 62.359375 61.800781 62.390625 61.730469 62.394531 61.664062 C 62.367188 61.671875 62.367188 61.65625 62.359375 61.640625 L 62.382812 61.636719 C 62.34375 61.574219 62.4375 61.605469 62.398438 61.542969 L 62.363281 61.539062 " fill-opacity="1" fill-rule="nonzero"/><path fill="#a7bec6" d="M 61.808594 34.734375 L 61.832031 34.714844 C 61.824219 34.714844 61.8125 34.71875 61.808594 34.734375 " fill-opacity="1" fill-rule="nonzero"/><path fill="#a7bec6" d="M 64.878906 35.242188 C 64.929688 35.253906 64.886719 35.191406 64.949219 35.226562 C 64.953125 35.179688 64.898438 35.125 64.847656 35.070312 C 64.796875 35.011719 64.753906 34.960938 64.769531 34.890625 C 64.671875 34.871094 64.671875 34.800781 64.597656 34.792969 C 64.613281 34.789062 64.59375 34.757812 64.582031 34.734375 C 64.570312 34.710938 64.570312 34.695312 64.636719 34.71875 C 64.648438 34.722656 64.652344 34.734375 64.640625 34.738281 L 64.691406 34.734375 C 64.707031 34.683594 64.660156 34.648438 64.613281 34.625 C 64.5625 34.597656 64.515625 34.574219 64.484375 34.542969 C 64.492188 34.566406 64.519531 34.59375 64.476562 34.589844 C 64.457031 34.566406 64.4375 34.546875 64.417969 34.527344 L 64.460938 34.519531 L 64.378906 34.410156 L 64.359375 34.453125 C 64.332031 34.394531 64.359375 34.324219 64.253906 34.320312 C 64.203125 34.328125 64.265625 34.40625 64.203125 34.375 C 64.171875 34.3125 64.125 34.226562 64.0625 34.171875 C 64.042969 34.21875 64.027344 34.207031 64.003906 34.207031 L 64.023438 34.167969 C 63.921875 34.179688 64.046875 34.066406 63.949219 34.070312 L 63.90625 34.117188 C 63.804688 34.160156 63.910156 34.015625 63.785156 34.089844 C 63.816406 34.09375 63.757812 34.183594 63.730469 34.148438 L 63.757812 34.117188 C 63.734375 34.117188 63.722656 34.128906 63.710938 34.117188 C 63.734375 34.097656 63.742188 34.0625 63.710938 34.054688 L 63.75 34.015625 C 63.722656 34.03125 63.691406 34.046875 63.664062 34.066406 C 63.636719 34.007812 63.546875 34.035156 63.546875 33.972656 C 63.546875 33.972656 63.457031 33.917969 63.417969 33.976562 C 63.449219 33.941406 63.394531 33.910156 63.421875 33.871094 C 63.382812 33.90625 63.300781 33.929688 63.277344 33.875 L 63.285156 33.871094 C 63.230469 33.835938 63.175781 33.847656 63.128906 33.855469 C 63.074219 33.867188 63.027344 33.878906 62.976562 33.847656 C 62.980469 33.898438 62.921875 33.871094 62.9375 33.933594 C 62.882812 33.964844 62.832031 33.9375 62.789062 33.921875 C 62.746094 33.910156 62.710938 33.917969 62.707031 34.019531 C 62.660156 34.035156 62.640625 33.980469 62.613281 33.976562 L 62.621094 33.964844 C 62.53125 34 62.507812 34.007812 62.4375 34.027344 C 62.40625 34.054688 62.4375 34.144531 62.371094 34.148438 C 62.375 34.105469 62.355469 34.121094 62.332031 34.132812 C 62.34375 34.121094 62.34375 34.105469 62.304688 34.097656 C 62.304688 34.109375 62.300781 34.117188 62.296875 34.125 C 62.296875 34.125 62.292969 34.121094 62.292969 34.117188 C 62.261719 34.148438 62.273438 34.15625 62.292969 34.152344 C 62.292969 34.15625 62.296875 34.160156 62.308594 34.167969 C 62.25 34.144531 62.210938 34.226562 62.171875 34.179688 C 62.070312 34.265625 62.046875 34.378906 62.007812 34.472656 C 61.976562 34.464844 61.964844 34.425781 61.976562 34.394531 C 61.960938 34.414062 61.949219 34.4375 61.9375 34.464844 C 61.902344 34.4375 61.941406 34.410156 61.949219 34.386719 C 61.894531 34.398438 61.875 34.457031 61.867188 34.515625 C 61.855469 34.574219 61.859375 34.632812 61.808594 34.679688 L 61.839844 34.710938 L 61.832031 34.714844 C 61.851562 34.71875 61.871094 34.75 61.875 34.765625 C 61.835938 34.773438 61.78125 34.75 61.78125 34.8125 C 61.757812 34.835938 61.761719 34.871094 61.78125 34.90625 C 61.792969 34.941406 61.820312 34.972656 61.835938 35 C 61.835938 34.96875 61.863281 34.972656 61.878906 34.984375 C 61.886719 35.007812 61.847656 35.035156 61.871094 35.050781 L 61.820312 35.070312 C 61.867188 35.042969 61.894531 35.121094 61.921875 35.117188 C 61.890625 35.148438 61.875 35.09375 61.84375 35.097656 C 61.863281 35.148438 61.871094 35.160156 61.878906 35.171875 C 61.886719 35.183594 61.890625 35.199219 61.921875 35.246094 C 61.984375 35.273438 61.960938 35.210938 62.015625 35.207031 C 62.03125 35.222656 62.054688 35.234375 62.074219 35.25 C 62.09375 35.261719 62.109375 35.28125 62.117188 35.308594 L 62.140625 35.265625 C 62.222656 35.296875 62.253906 35.320312 62.277344 35.386719 C 62.339844 35.378906 62.390625 35.359375 62.429688 35.335938 C 62.445312 35.335938 62.460938 35.335938 62.480469 35.335938 C 62.492188 35.402344 62.519531 35.476562 62.566406 35.570312 L 62.554688 35.582031 C 62.648438 35.664062 62.71875 35.695312 62.816406 35.640625 C 62.800781 35.742188 62.90625 35.675781 62.921875 35.710938 L 62.917969 35.71875 C 62.960938 35.6875 62.992188 35.714844 63.023438 35.738281 C 63.054688 35.761719 63.089844 35.785156 63.128906 35.753906 C 63.125 35.761719 63.117188 35.789062 63.101562 35.789062 C 63.152344 35.785156 63.222656 35.769531 63.222656 35.828125 C 63.339844 35.828125 63.511719 35.855469 63.582031 35.761719 L 63.578125 35.777344 C 63.617188 35.714844 63.632812 35.765625 63.679688 35.730469 C 63.683594 35.738281 63.683594 35.742188 63.683594 35.746094 C 63.707031 35.710938 63.738281 35.707031 63.769531 35.707031 C 63.804688 35.703125 63.851562 35.703125 63.871094 35.6875 L 63.882812 35.722656 C 63.921875 35.714844 63.960938 35.707031 64 35.695312 C 63.984375 35.695312 63.96875 35.695312 63.953125 35.695312 C 63.941406 35.640625 63.96875 35.65625 64.007812 35.667969 C 64.046875 35.679688 64.101562 35.695312 64.125 35.652344 C 64.171875 35.648438 64.175781 35.585938 64.175781 35.535156 C 64.171875 35.480469 64.164062 35.4375 64.21875 35.449219 C 64.203125 35.398438 64.261719 35.519531 64.273438 35.472656 C 64.324219 35.511719 64.28125 35.507812 64.332031 35.535156 C 64.355469 35.496094 64.464844 35.539062 64.492188 35.488281 L 64.539062 35.515625 C 64.539062 35.46875 64.589844 35.464844 64.640625 35.453125 C 64.695312 35.445312 64.746094 35.4375 64.726562 35.402344 C 64.761719 35.347656 64.933594 35.425781 64.9375 35.359375 C 64.933594 35.355469 64.925781 35.347656 64.917969 35.34375 C 64.941406 35.339844 64.960938 35.335938 64.980469 35.328125 C 64.96875 35.289062 64.867188 35.277344 64.878906 35.242188 " fill-opacity="1" fill-rule="nonzero"/><path fill="#a7bec6" d="M 63.949219 34.070312 L 63.96875 34.046875 L 63.949219 34.070312 " fill-opacity="1" fill-rule="nonzero"/><path fill="#a7bec6" d="M 71.316406 35.71875 L 71.308594 35.695312 C 71.308594 35.703125 71.308594 35.714844 71.316406 35.71875 " fill-opacity="1" fill-rule="nonzero"/><path fill="#a7bec6" d="M 73.160156 34.796875 L 73.175781 34.789062 C 73.101562 34.804688 73.132812 34.757812 73.082031 34.75 C 73.082031 34.742188 73.085938 34.738281 73.085938 34.734375 C 73.011719 34.753906 72.984375 34.664062 72.941406 34.660156 L 72.964844 34.628906 C 72.941406 34.613281 72.917969 34.597656 72.890625 34.585938 L 72.914062 34.609375 C 72.839844 34.691406 72.898438 34.519531 72.808594 34.542969 C 72.765625 34.496094 72.601562 34.679688 72.582031 34.609375 C 72.535156 34.644531 72.636719 34.546875 72.585938 34.566406 C 72.609375 34.515625 72.617188 34.542969 72.628906 34.496094 C 72.582031 34.503906 72.59375 34.414062 72.53125 34.433594 L 72.546875 34.390625 C 72.457031 34.441406 72.453125 34.289062 72.382812 34.347656 C 72.308594 34.367188 72.375 34.214844 72.285156 34.273438 L 72.273438 34.210938 C 72.242188 34.191406 72.234375 34.273438 72.207031 34.238281 C 72.214844 34.203125 72.167969 34.203125 72.195312 34.171875 C 72.164062 34.136719 72.117188 34.148438 72.074219 34.15625 C 72.027344 34.164062 71.984375 34.171875 71.933594 34.117188 C 71.90625 34.1875 71.859375 34.140625 71.835938 34.195312 C 71.835938 34.164062 71.734375 34.1875 71.796875 34.121094 C 71.800781 34.117188 71.808594 34.117188 71.808594 34.128906 L 71.816406 34.085938 C 71.757812 34.003906 71.707031 34.128906 71.648438 34.117188 C 71.664062 34.132812 71.6875 34.128906 71.675781 34.15625 C 71.65625 34.15625 71.636719 34.15625 71.621094 34.15625 L 71.628906 34.117188 L 71.542969 34.105469 L 71.558594 34.148438 C 71.519531 34.128906 71.496094 34.054688 71.457031 34.121094 C 71.441406 34.160156 71.503906 34.175781 71.464844 34.195312 C 71.402344 34.175781 71.332031 34.136719 71.214844 34.152344 C 71.238281 34.199219 71.214844 34.203125 71.191406 34.222656 L 71.171875 34.179688 C 71.097656 34.269531 71.09375 34.109375 71.011719 34.1875 C 71.015625 34.207031 71.019531 34.226562 71.023438 34.246094 C 71.003906 34.296875 70.980469 34.28125 70.953125 34.269531 C 70.929688 34.257812 70.90625 34.253906 70.902344 34.324219 C 70.929688 34.300781 70.980469 34.394531 70.929688 34.394531 L 70.910156 34.359375 C 70.894531 34.375 70.898438 34.394531 70.878906 34.394531 C 70.875 34.371094 70.839844 34.34375 70.808594 34.367188 C 70.804688 34.351562 70.800781 34.332031 70.792969 34.316406 C 70.789062 34.347656 70.789062 34.375 70.789062 34.40625 C 70.695312 34.398438 70.683594 34.484375 70.609375 34.457031 C 70.609375 34.457031 70.578125 34.472656 70.550781 34.492188 C 70.527344 34.511719 70.507812 34.535156 70.53125 34.558594 C 70.507812 34.523438 70.4375 34.554688 70.402344 34.523438 C 70.425781 34.566406 70.402344 34.632812 70.320312 34.636719 L 70.320312 34.632812 C 70.242188 34.664062 70.214844 34.710938 70.191406 34.75 C 70.167969 34.792969 70.144531 34.828125 70.058594 34.867188 C 70.097656 34.867188 70.089844 34.878906 70.09375 34.886719 C 70.097656 34.894531 70.105469 34.90625 70.15625 34.902344 L 70.160156 34.90625 C 70.242188 34.949219 70.230469 34.988281 70.242188 35.019531 C 70.25 35.050781 70.277344 35.078125 70.421875 35.082031 C 70.46875 35.117188 70.402344 35.128906 70.410156 35.152344 L 70.386719 35.144531 C 70.476562 35.210938 70.496094 35.230469 70.546875 35.28125 C 70.59375 35.300781 70.699219 35.265625 70.71875 35.316406 C 70.664062 35.316406 70.691406 35.332031 70.710938 35.347656 C 70.691406 35.339844 70.671875 35.339844 70.671875 35.375 C 70.691406 35.371094 70.703125 35.371094 70.714844 35.375 C 70.710938 35.375 70.707031 35.375 70.703125 35.378906 C 70.75 35.398438 70.753906 35.386719 70.746094 35.371094 C 70.75 35.371094 70.757812 35.367188 70.761719 35.355469 C 70.746094 35.40625 70.855469 35.421875 70.804688 35.464844 C 70.921875 35.53125 71.046875 35.523438 71.140625 35.546875 C 71.132812 35.582031 71.097656 35.59375 71.0625 35.589844 C 71.085938 35.597656 71.109375 35.605469 71.132812 35.613281 C 71.109375 35.65625 71.082031 35.617188 71.054688 35.613281 C 71.066406 35.640625 71.082031 35.65625 71.109375 35.667969 C 71.121094 35.671875 71.132812 35.675781 71.144531 35.675781 C 71.15625 35.675781 71.164062 35.675781 71.175781 35.675781 C 71.214844 35.675781 71.257812 35.667969 71.277344 35.714844 L 71.308594 35.6875 L 71.308594 35.695312 C 71.316406 35.675781 71.34375 35.660156 71.355469 35.65625 C 71.351562 35.699219 71.320312 35.742188 71.355469 35.753906 C 71.371094 35.804688 71.445312 35.765625 71.488281 35.757812 C 71.46875 35.746094 71.484375 35.726562 71.496094 35.714844 C 71.515625 35.71875 71.511719 35.761719 71.53125 35.746094 L 71.515625 35.800781 C 71.523438 35.75 71.582031 35.761719 71.59375 35.742188 C 71.59375 35.785156 71.554688 35.769531 71.542969 35.796875 C 71.617188 35.8125 71.578125 35.804688 71.65625 35.816406 C 71.703125 35.789062 71.660156 35.765625 71.691406 35.722656 C 71.726562 35.722656 71.765625 35.6875 71.796875 35.730469 L 71.796875 35.679688 C 71.863281 35.65625 71.898438 35.664062 71.933594 35.722656 C 71.976562 35.691406 72.011719 35.664062 72.042969 35.636719 C 72.082031 35.636719 72.121094 35.640625 72.160156 35.640625 L 72.144531 35.507812 C 72.148438 35.5 72.152344 35.492188 72.15625 35.484375 C 72.171875 35.441406 72.179688 35.40625 72.179688 35.371094 C 72.214844 35.429688 72.269531 35.492188 72.355469 35.558594 L 72.351562 35.574219 C 72.464844 35.605469 72.539062 35.601562 72.59375 35.503906 C 72.628906 35.597656 72.683594 35.492188 72.714844 35.515625 L 72.714844 35.523438 C 72.734375 35.476562 72.773438 35.480469 72.808594 35.484375 C 72.847656 35.488281 72.886719 35.492188 72.902344 35.449219 C 72.902344 35.457031 72.914062 35.480469 72.902344 35.488281 C 72.941406 35.457031 72.988281 35.410156 73.015625 35.457031 C 73.082031 35.414062 73.167969 35.367188 73.21875 35.304688 L 73.488281 34.960938 L 73.269531 34.824219 C 73.238281 34.804688 73.199219 34.792969 73.160156 34.796875 " fill-opacity="1" fill-rule="nonzero"/><path fill="#a7bec6" d="M 71.011719 34.1875 C 71.007812 34.175781 71.007812 34.167969 71.003906 34.15625 L 71.011719 34.1875 " fill-opacity="1" fill-rule="nonzero"/><path fill="#a7bec6" d="M 68.597656 39.363281 L 68.589844 39.335938 C 68.585938 39.34375 68.585938 39.351562 68.597656 39.363281 " fill-opacity="1" fill-rule="nonzero"/><path fill="#a7bec6" d="M 69.554688 37.925781 L 69.5625 37.894531 L 69.554688 37.925781 " fill-opacity="1" fill-rule="nonzero"/><path fill="#a7bec6" d="M 68.253906 38.585938 L 68.257812 38.578125 L 68.175781 38.589844 L 68.175781 38.820312 L 68.25 38.59375 L 68.253906 38.585938 " fill-opacity="1" fill-rule="nonzero"/><path fill="#a7bec6" d="M 70.742188 38.898438 C 70.75 38.859375 70.746094 38.824219 70.699219 38.808594 C 70.664062 38.773438 70.6875 38.75 70.703125 38.726562 C 70.71875 38.703125 70.726562 38.679688 70.664062 38.65625 C 70.675781 38.632812 70.6875 38.613281 70.695312 38.59375 C 70.675781 38.546875 70.613281 38.605469 70.605469 38.546875 C 70.632812 38.523438 70.597656 38.488281 70.636719 38.484375 C 70.628906 38.429688 70.582031 38.410156 70.535156 38.386719 C 70.488281 38.363281 70.445312 38.335938 70.425781 38.261719 C 70.359375 38.304688 70.339844 38.234375 70.292969 38.273438 C 70.308594 38.246094 70.195312 38.207031 70.289062 38.183594 C 70.296875 38.183594 70.304688 38.1875 70.296875 38.199219 L 70.324219 38.167969 C 70.308594 38.058594 70.191406 38.144531 70.140625 38.105469 C 70.152344 38.125 70.175781 38.132812 70.148438 38.152344 C 70.132812 38.140625 70.113281 38.132812 70.09375 38.121094 L 70.121094 38.09375 L 70.039062 38.039062 L 70.039062 38.085938 C 70.003906 38.050781 70.003906 37.972656 69.9375 38.019531 C 69.90625 38.046875 69.964844 38.089844 69.914062 38.089844 C 69.863281 38.046875 69.773438 37.984375 69.699219 37.964844 C 69.703125 38.015625 69.683594 38.011719 69.664062 38.019531 L 69.664062 37.976562 C 69.582031 38.035156 69.636719 37.878906 69.554688 37.925781 L 69.539062 37.988281 C 69.476562 38.078125 69.496094 37.898438 69.429688 38.019531 C 69.457031 38.007812 69.449219 38.113281 69.414062 38.097656 L 69.417969 38.054688 C 69.398438 38.066406 69.394531 38.085938 69.378906 38.078125 C 69.390625 38.054688 69.378906 38.015625 69.351562 38.027344 L 69.363281 37.972656 C 69.347656 38 69.332031 38.027344 69.316406 38.054688 C 69.269531 38.019531 69.210938 38.085938 69.183594 38.03125 C 69.183594 38.03125 69.085938 38.023438 69.082031 38.09375 C 69.089844 38.050781 69.035156 38.046875 69.039062 38 C 69.027344 38.046875 68.972656 38.105469 68.929688 38.066406 L 68.933594 38.0625 C 68.820312 38.046875 68.796875 38.183594 68.695312 38.164062 C 68.71875 38.207031 68.664062 38.203125 68.703125 38.257812 C 68.652344 38.351562 68.496094 38.210938 68.5625 38.402344 C 68.53125 38.429688 68.5 38.382812 68.476562 38.382812 L 68.480469 38.371094 C 68.425781 38.417969 68.40625 38.429688 68.359375 38.453125 C 68.34375 38.484375 68.390625 38.566406 68.339844 38.570312 C 68.332031 38.53125 68.320312 38.550781 68.304688 38.558594 C 68.3125 38.546875 68.304688 38.535156 68.273438 38.523438 C 68.277344 38.539062 68.277344 38.546875 68.277344 38.550781 C 68.273438 38.550781 68.273438 38.550781 68.269531 38.546875 C 68.265625 38.550781 68.261719 38.558594 68.261719 38.5625 L 68.257812 38.578125 L 68.273438 38.574219 L 68.277344 38.574219 C 68.277344 38.582031 68.285156 38.585938 68.292969 38.59375 C 68.289062 38.589844 68.285156 38.589844 68.28125 38.589844 L 68.253906 38.585938 L 68.25 38.59375 L 68.191406 38.863281 C 68.179688 38.910156 68.238281 38.949219 68.1875 38.980469 C 68.261719 39.078125 68.363281 39.101562 68.441406 39.144531 C 68.425781 39.171875 68.390625 39.179688 68.363281 39.167969 L 68.417969 39.207031 C 68.386719 39.242188 68.371094 39.199219 68.351562 39.191406 C 68.351562 39.246094 68.398438 39.265625 68.441406 39.273438 C 68.488281 39.289062 68.535156 39.292969 68.554688 39.347656 L 68.589844 39.328125 L 68.589844 39.335938 C 68.601562 39.316406 68.632812 39.304688 68.644531 39.304688 C 68.636719 39.347656 68.601562 39.386719 68.640625 39.40625 C 68.65625 39.457031 68.742188 39.429688 68.792969 39.425781 C 68.773438 39.410156 68.789062 39.390625 68.800781 39.382812 C 68.820312 39.386719 68.820312 39.425781 68.84375 39.414062 L 68.828125 39.46875 C 68.835938 39.417969 68.898438 39.433594 68.914062 39.410156 C 68.914062 39.453125 68.871094 39.4375 68.859375 39.464844 C 68.949219 39.480469 68.902344 39.472656 68.992188 39.484375 C 69.042969 39.449219 68.988281 39.429688 69.019531 39.386719 C 69.058594 39.378906 69.09375 39.34375 69.136719 39.375 L 69.125 39.328125 C 69.15625 39.308594 69.183594 39.300781 69.207031 39.300781 C 69.226562 39.300781 69.246094 39.3125 69.269531 39.324219 C 69.257812 39.402344 69.269531 39.507812 69.339844 39.652344 L 69.328125 39.667969 C 69.417969 39.746094 69.488281 39.777344 69.582031 39.714844 C 69.570312 39.8125 69.667969 39.742188 69.6875 39.777344 L 69.683594 39.785156 C 69.722656 39.75 69.753906 39.773438 69.789062 39.792969 C 69.820312 39.8125 69.855469 39.832031 69.890625 39.800781 C 69.886719 39.808594 69.882812 39.835938 69.867188 39.835938 C 69.917969 39.824219 69.984375 39.800781 69.988281 39.859375 C 70.019531 39.851562 70.046875 39.851562 70.089844 39.84375 C 70.136719 39.839844 70.179688 39.828125 70.222656 39.820312 C 70.304688 39.792969 70.378906 39.757812 70.394531 39.703125 L 70.394531 39.71875 C 70.410156 39.644531 70.457031 39.691406 70.484375 39.640625 C 70.492188 39.644531 70.5 39.644531 70.5 39.648438 C 70.507812 39.578125 70.632812 39.574219 70.648438 39.535156 L 70.6875 39.5625 L 70.753906 39.515625 L 70.761719 39.496094 L 70.746094 39.511719 L 70.730469 39.519531 C 70.710938 39.503906 70.707031 39.496094 70.707031 39.488281 C 70.707031 39.476562 70.742188 39.480469 70.761719 39.460938 C 70.777344 39.449219 70.792969 39.421875 70.773438 39.382812 C 70.785156 39.347656 70.738281 39.292969 70.6875 39.246094 C 70.644531 39.199219 70.59375 39.164062 70.617188 39.140625 C 70.566406 39.105469 70.703125 39.179688 70.660156 39.128906 C 70.71875 39.136719 70.695312 39.15625 70.742188 39.152344 C 70.714844 39.101562 70.789062 39.078125 70.742188 39.015625 L 70.789062 39.011719 C 70.738281 38.972656 70.738281 38.9375 70.742188 38.898438 " fill-opacity="1" fill-rule="nonzero"/><path fill="#a7bec6" d="M 68.175781 38.867188 L 68.175781 38.820312 L 68.160156 38.875 C 68.171875 38.882812 68.175781 38.878906 68.175781 38.867188 " fill-opacity="1" fill-rule="nonzero"/><path fill="#a7bec6" d="M 77.011719 38.425781 L 77.003906 38.394531 C 76.996094 38.402344 76.996094 38.414062 77.011719 38.425781 " fill-opacity="1" fill-rule="nonzero"/><path fill="#a7bec6" d="M 78.167969 36.480469 L 78.175781 36.453125 L 78.167969 36.480469 " fill-opacity="1" fill-rule="nonzero"/><path fill="#a7bec6" d="M 80.011719 38.125 C 80.011719 38.078125 79.949219 38.015625 79.886719 37.964844 C 79.820312 37.917969 79.765625 37.878906 79.777344 37.839844 C 79.710938 37.808594 79.875 37.867188 79.8125 37.8125 C 79.871094 37.804688 79.859375 37.839844 79.898438 37.820312 C 79.875 37.789062 79.878906 37.757812 79.878906 37.726562 C 79.878906 37.695312 79.875 37.660156 79.839844 37.625 L 79.878906 37.605469 C 79.847656 37.585938 79.824219 37.5625 79.808594 37.535156 C 79.792969 37.507812 79.792969 37.492188 79.785156 37.46875 C 79.773438 37.425781 79.765625 37.382812 79.714844 37.382812 C 79.625 37.332031 79.773438 37.246094 79.636719 37.226562 L 79.652344 37.15625 C 79.625 37.117188 79.578125 37.183594 79.5625 37.128906 C 79.589844 37.101562 79.53125 37.0625 79.578125 37.058594 C 79.554688 36.996094 79.492188 36.972656 79.433594 36.949219 C 79.371094 36.925781 79.3125 36.898438 79.269531 36.816406 C 79.203125 36.863281 79.15625 36.789062 79.109375 36.828125 C 79.121094 36.796875 78.976562 36.765625 79.082031 36.734375 C 79.089844 36.734375 79.101562 36.738281 79.097656 36.75 L 79.121094 36.714844 C 79.074219 36.605469 78.957031 36.695312 78.882812 36.65625 C 78.902344 36.679688 78.9375 36.6875 78.90625 36.707031 C 78.882812 36.699219 78.859375 36.6875 78.835938 36.679688 L 78.859375 36.648438 C 78.824219 36.632812 78.789062 36.613281 78.753906 36.597656 L 78.757812 36.644531 C 78.710938 36.609375 78.707031 36.527344 78.628906 36.578125 C 78.59375 36.609375 78.667969 36.648438 78.609375 36.652344 C 78.542969 36.605469 78.441406 36.546875 78.347656 36.523438 C 78.351562 36.574219 78.324219 36.570312 78.300781 36.578125 L 78.300781 36.535156 C 78.199219 36.589844 78.265625 36.4375 78.167969 36.480469 L 78.148438 36.542969 C 78.058594 36.628906 78.097656 36.453125 78.003906 36.570312 C 78.042969 36.5625 78.023438 36.667969 77.980469 36.648438 L 77.988281 36.605469 C 77.964844 36.617188 77.957031 36.636719 77.9375 36.628906 C 77.953125 36.605469 77.945312 36.566406 77.90625 36.574219 L 77.929688 36.519531 C 77.90625 36.546875 77.882812 36.574219 77.863281 36.601562 C 77.804688 36.5625 77.726562 36.628906 77.695312 36.570312 C 77.695312 36.570312 77.574219 36.558594 77.558594 36.625 C 77.574219 36.582031 77.511719 36.578125 77.519531 36.527344 C 77.496094 36.578125 77.417969 36.628906 77.371094 36.589844 L 77.378906 36.582031 C 77.308594 36.570312 77.25 36.601562 77.191406 36.632812 C 77.136719 36.664062 77.082031 36.695312 76.996094 36.699219 C 77.023438 36.742188 76.9375 36.75 76.984375 36.800781 C 76.929688 36.863281 76.851562 36.871094 76.789062 36.902344 C 76.726562 36.929688 76.683594 36.976562 76.738281 37.066406 C 76.699219 37.128906 76.644531 37.109375 76.613281 37.140625 L 76.613281 37.117188 C 76.550781 37.261719 76.546875 37.304688 76.515625 37.410156 C 76.527344 37.46875 76.613281 37.484375 76.589844 37.566406 C 76.554688 37.539062 76.558594 37.574219 76.5625 37.605469 C 76.554688 37.585938 76.539062 37.578125 76.519531 37.621094 C 76.53125 37.628906 76.539062 37.636719 76.542969 37.644531 C 76.542969 37.648438 76.539062 37.648438 76.535156 37.648438 C 76.554688 37.699219 76.5625 37.6875 76.566406 37.664062 C 76.574219 37.664062 76.578125 37.660156 76.589844 37.65625 C 76.546875 37.714844 76.617188 37.800781 76.558594 37.820312 C 76.617188 37.972656 76.726562 38.039062 76.816406 38.121094 C 76.792969 38.148438 76.753906 38.144531 76.722656 38.121094 L 76.785156 38.1875 C 76.746094 38.214844 76.734375 38.160156 76.707031 38.140625 C 76.707031 38.175781 76.722656 38.203125 76.742188 38.222656 C 76.761719 38.246094 76.789062 38.261719 76.816406 38.277344 C 76.871094 38.308594 76.925781 38.332031 76.957031 38.402344 C 76.972656 38.398438 76.988281 38.390625 77 38.386719 L 77.003906 38.394531 C 77.015625 38.378906 77.050781 38.371094 77.070312 38.375 C 77.058594 38.417969 77.015625 38.457031 77.070312 38.484375 C 77.089844 38.542969 77.195312 38.53125 77.257812 38.535156 C 77.230469 38.515625 77.25 38.5 77.269531 38.492188 C 77.296875 38.5 77.296875 38.542969 77.320312 38.535156 L 77.304688 38.589844 C 77.3125 38.539062 77.390625 38.5625 77.410156 38.542969 C 77.410156 38.585938 77.355469 38.5625 77.339844 38.589844 C 77.449219 38.621094 77.394531 38.605469 77.503906 38.632812 C 77.570312 38.605469 77.507812 38.578125 77.542969 38.539062 C 77.597656 38.539062 77.648438 38.511719 77.695312 38.554688 L 77.6875 38.503906 C 77.785156 38.480469 77.832031 38.496094 77.886719 38.550781 C 77.945312 38.523438 77.992188 38.496094 78.035156 38.46875 C 78.082031 38.472656 78.128906 38.480469 78.171875 38.480469 C 78.191406 38.503906 78.207031 38.523438 78.230469 38.550781 L 78.21875 38.5625 C 78.34375 38.636719 78.4375 38.664062 78.542969 38.59375 C 78.546875 38.699219 78.65625 38.621094 78.6875 38.652344 L 78.683594 38.664062 C 78.726562 38.628906 78.769531 38.648438 78.816406 38.667969 C 78.855469 38.6875 78.902344 38.703125 78.945312 38.667969 C 78.941406 38.675781 78.9375 38.703125 78.917969 38.707031 C 78.980469 38.695312 79.0625 38.667969 79.070312 38.726562 C 79.109375 38.722656 79.148438 38.71875 79.191406 38.710938 L 79.25 38.707031 C 79.273438 38.703125 79.308594 38.695312 79.335938 38.691406 C 79.445312 38.671875 79.550781 38.625 79.589844 38.570312 L 79.589844 38.585938 C 79.625 38.511719 79.675781 38.554688 79.730469 38.503906 C 79.738281 38.511719 79.746094 38.511719 79.75 38.515625 C 79.761719 38.476562 79.808594 38.460938 79.863281 38.445312 C 79.914062 38.433594 79.96875 38.421875 79.984375 38.402344 L 80.027344 38.425781 L 80.035156 38.425781 L 80.042969 38.394531 C 80.046875 38.386719 80.042969 38.371094 80.039062 38.359375 L 80.03125 38.289062 L 80.027344 38.339844 C 79.972656 38.300781 79.988281 38.285156 80.007812 38.257812 C 80.027344 38.230469 80.050781 38.1875 80.011719 38.125 " fill-opacity="1" fill-rule="nonzero"/><path fill="#a7bec6" d="M 84.152344 38.445312 L 84.15625 38.421875 C 84.152344 38.429688 84.148438 38.4375 84.152344 38.445312 " fill-opacity="1" fill-rule="nonzero"/><path fill="#a7bec6" d="M 84.742188 38.003906 L 84.75 37.992188 C 84.75 37.992188 84.75 37.992188 84.75 37.996094 Z M 85.195312 37.683594 L 85.230469 37.65625 C 85.183594 37.660156 85.183594 37.636719 85.183594 37.609375 C 85.179688 37.585938 85.179688 37.5625 85.140625 37.578125 C 85.085938 37.570312 85.210938 37.460938 85.113281 37.488281 L 85.136719 37.429688 C 85.125 37.40625 85.078125 37.476562 85.078125 37.4375 C 85.101562 37.410156 85.070312 37.398438 85.101562 37.378906 C 85.097656 37.339844 85.058594 37.335938 85.023438 37.332031 C 84.988281 37.332031 84.957031 37.324219 84.945312 37.265625 C 84.902344 37.324219 84.886719 37.269531 84.855469 37.316406 C 84.863281 37.285156 84.789062 37.285156 84.851562 37.234375 C 84.855469 37.230469 84.863281 37.234375 84.855469 37.246094 L 84.875 37.207031 C 84.863281 37.117188 84.785156 37.222656 84.75 37.203125 C 84.761719 37.21875 84.777344 37.21875 84.757812 37.246094 C 84.746094 37.238281 84.734375 37.234375 84.722656 37.230469 L 84.738281 37.195312 L 84.683594 37.164062 L 84.683594 37.210938 C 84.660156 37.183594 84.660156 37.105469 84.621094 37.164062 C 84.601562 37.195312 84.640625 37.226562 84.609375 37.234375 C 84.574219 37.203125 84.519531 37.152344 84.460938 37.140625 C 84.46875 37.191406 84.457031 37.191406 84.441406 37.203125 L 84.4375 37.160156 C 84.386719 37.222656 84.40625 37.066406 84.355469 37.121094 L 84.351562 37.179688 C 84.320312 37.273438 84.304688 37.09375 84.277344 37.226562 C 84.296875 37.210938 84.308594 37.316406 84.28125 37.304688 L 84.273438 37.261719 C 84.261719 37.273438 84.265625 37.292969 84.253906 37.289062 C 84.253906 37.261719 84.238281 37.226562 84.21875 37.242188 L 84.21875 37.1875 C 84.210938 37.214844 84.207031 37.242188 84.199219 37.273438 C 84.152344 37.246094 84.125 37.320312 84.085938 37.273438 C 84.085938 37.273438 84.066406 37.277344 84.046875 37.289062 C 84.027344 37.304688 84.011719 37.324219 84.027344 37.355469 C 84.015625 37.3125 83.96875 37.324219 83.949219 37.28125 C 83.960938 37.332031 83.941406 37.398438 83.886719 37.382812 L 83.886719 37.375 C 83.832031 37.390625 83.820312 37.4375 83.8125 37.476562 C 83.800781 37.515625 83.792969 37.558594 83.742188 37.589844 C 83.789062 37.609375 83.746094 37.644531 83.808594 37.65625 C 83.820312 37.707031 83.785156 37.738281 83.757812 37.769531 C 83.734375 37.804688 83.734375 37.835938 83.835938 37.855469 C 83.84375 37.890625 83.785156 37.898438 83.777344 37.917969 L 83.765625 37.910156 C 83.773438 37.949219 83.785156 37.96875 83.789062 37.988281 C 83.796875 38.007812 83.800781 38.023438 83.800781 38.050781 C 83.828125 38.070312 83.917969 38.042969 83.910156 38.082031 C 83.871094 38.085938 83.882812 38.097656 83.886719 38.113281 C 83.878906 38.105469 83.867188 38.105469 83.851562 38.136719 C 83.863281 38.132812 83.871094 38.132812 83.875 38.136719 C 83.875 38.136719 83.871094 38.136719 83.867188 38.140625 C 83.890625 38.15625 83.898438 38.148438 83.898438 38.136719 C 83.90625 38.132812 83.910156 38.128906 83.917969 38.121094 C 83.886719 38.167969 83.953125 38.179688 83.898438 38.214844 C 83.925781 38.242188 83.960938 38.253906 83.992188 38.261719 C 84.027344 38.269531 84.058594 38.273438 84.085938 38.28125 C 84.066406 38.308594 84.039062 38.320312 84.015625 38.316406 L 84.054688 38.335938 C 84.019531 38.371094 84.019531 38.339844 84 38.335938 C 83.992188 38.382812 84.023438 38.386719 84.058594 38.390625 C 84.089844 38.394531 84.125 38.390625 84.125 38.4375 L 84.15625 38.414062 L 84.15625 38.421875 C 84.167969 38.40625 84.191406 38.390625 84.203125 38.386719 C 84.1875 38.425781 84.152344 38.46875 84.179688 38.480469 C 84.179688 38.527344 84.246094 38.496094 84.28125 38.484375 C 84.269531 38.472656 84.285156 38.453125 84.296875 38.441406 C 84.308594 38.445312 84.300781 38.484375 84.316406 38.472656 L 84.300781 38.527344 C 84.3125 38.476562 84.351562 38.484375 84.363281 38.464844 C 84.359375 38.503906 84.332031 38.492188 84.320312 38.519531 C 84.375 38.53125 84.347656 38.523438 84.40625 38.53125 C 84.441406 38.496094 84.410156 38.480469 84.433594 38.433594 C 84.457031 38.425781 84.484375 38.386719 84.507812 38.421875 L 84.5 38.371094 C 84.542969 38.332031 84.558594 38.328125 84.589844 38.371094 C 84.609375 38.328125 84.621094 38.285156 84.628906 38.246094 C 84.632812 38.246094 84.636719 38.242188 84.636719 38.238281 C 84.644531 38.242188 84.648438 38.25 84.652344 38.269531 C 84.699219 38.246094 84.773438 38.261719 84.789062 38.164062 L 84.789062 38.179688 C 84.796875 38.113281 84.8125 38.164062 84.824219 38.128906 C 84.828125 38.136719 84.828125 38.140625 84.828125 38.144531 C 84.839844 38.078125 84.886719 38.125 84.898438 38.09375 L 84.90625 38.132812 L 84.941406 38.117188 L 84.925781 38.113281 C 84.914062 38.003906 84.96875 38.171875 84.984375 38.097656 C 85.011719 38.109375 84.996094 37.871094 85.035156 37.917969 C 85.039062 37.867188 85.039062 38 85.050781 37.957031 C 85.0625 38.011719 85.046875 37.996094 85.0625 38.039062 C 85.0625 38.03125 85.066406 38.027344 85.070312 38.03125 L 85.234375 38.105469 L 85.207031 37.746094 C 85.207031 37.726562 85.234375 37.691406 85.195312 37.683594 " fill-opacity="1" fill-rule="nonzero"/><path fill="#a7bec6" d="M 81.785156 43.300781 L 81.777344 43.28125 C 81.777344 43.289062 81.777344 43.300781 81.785156 43.300781 " fill-opacity="1" fill-rule="nonzero"/><path fill="#a7bec6" d="M 81.152344 42.695312 C 81.15625 42.707031 81.160156 42.726562 81.160156 42.734375 L 81.15625 42.746094 L 81.144531 42.703125 Z M 81.285156 42.441406 L 81.28125 42.441406 L 81.28125 42.445312 C 81.28125 42.441406 81.285156 42.441406 81.285156 42.441406 Z M 81.1875 42.695312 L 81.171875 42.71875 L 81.164062 42.675781 C 81.171875 42.679688 81.179688 42.6875 81.1875 42.695312 Z M 82.160156 41.949219 L 82.109375 42.085938 C 82.109375 42.089844 82.109375 42.09375 82.105469 42.097656 L 82.105469 42.082031 C 82.097656 42.144531 82.085938 42.09375 82.066406 42.128906 C 82.066406 42.121094 82.066406 42.117188 82.066406 42.113281 C 82.054688 42.179688 82.007812 42.132812 81.996094 42.160156 L 81.988281 42.121094 L 81.953125 42.132812 L 81.964844 42.140625 C 81.976562 42.25 81.929688 42.078125 81.910156 42.152344 C 81.898438 42.144531 81.890625 42.179688 81.886719 42.222656 C 81.871094 42.214844 81.851562 42.207031 81.839844 42.199219 C 81.8125 42.179688 81.804688 42.171875 81.820312 42.214844 C 81.804688 42.210938 81.785156 42.164062 81.769531 42.199219 L 81.765625 42.152344 C 81.742188 42.238281 81.699219 42.105469 81.6875 42.183594 C 81.660156 42.222656 81.648438 42.058594 81.625 42.144531 L 81.605469 42.089844 C 81.589844 42.082031 81.605469 42.164062 81.585938 42.136719 C 81.582031 42.097656 81.558594 42.109375 81.566406 42.074219 C 81.523438 42.019531 81.503906 42.164062 81.441406 42.074219 C 81.441406 42.144531 81.410156 42.105469 81.410156 42.160156 C 81.40625 42.128906 81.363281 42.164062 81.378906 42.089844 C 81.382812 42.085938 81.386719 42.085938 81.386719 42.097656 L 81.386719 42.054688 C 81.347656 41.980469 81.34375 42.105469 81.3125 42.097656 C 81.324219 42.109375 81.332031 42.105469 81.332031 42.132812 L 81.304688 42.132812 L 81.304688 42.09375 L 81.265625 42.082031 L 81.277344 42.125 C 81.253906 42.101562 81.238281 42.027344 81.226562 42.09375 C 81.222656 42.128906 81.25 42.152344 81.234375 42.167969 C 81.207031 42.140625 81.164062 42.101562 81.128906 42.089844 C 81.140625 42.140625 81.132812 42.140625 81.125 42.152344 L 81.117188 42.109375 C 81.09375 42.171875 81.09375 42.015625 81.066406 42.066406 L 81.066406 42.035156 L 81.070312 42.109375 L 80.746094 42.632812 L 80.765625 42.628906 C 80.863281 42.636719 80.6875 42.6875 80.820312 42.6875 C 80.804688 42.671875 80.902344 42.640625 80.894531 42.667969 L 80.855469 42.679688 C 80.867188 42.6875 80.882812 42.683594 80.878906 42.695312 C 80.855469 42.699219 80.824219 42.71875 80.835938 42.730469 L 80.785156 42.742188 C 80.8125 42.742188 80.84375 42.742188 80.871094 42.738281 C 80.84375 42.785156 80.914062 42.796875 80.867188 42.835938 C 80.867188 42.835938 80.871094 42.851562 80.882812 42.867188 C 80.890625 42.878906 80.910156 42.886719 80.941406 42.875 C 80.898438 42.886719 80.90625 42.925781 80.863281 42.945312 C 80.910156 42.933594 80.964844 42.945312 80.941406 42.988281 L 80.933594 42.988281 C 80.9375 43.03125 80.96875 43.042969 81 43.054688 C 81.03125 43.0625 81.0625 43.070312 81.0625 43.113281 C 81.09375 43.074219 81.097656 43.113281 81.136719 43.0625 C 81.179688 43.058594 81.175781 43.097656 81.183594 43.125 C 81.191406 43.148438 81.207031 43.160156 81.273438 43.085938 C 81.300781 43.09375 81.273438 43.140625 81.277344 43.15625 L 81.265625 43.160156 C 81.316406 43.175781 81.328125 43.179688 81.359375 43.203125 C 81.382812 43.195312 81.429688 43.113281 81.445312 43.144531 C 81.421875 43.175781 81.433594 43.175781 81.445312 43.179688 C 81.4375 43.183594 81.429688 43.191406 81.429688 43.222656 C 81.4375 43.210938 81.445312 43.207031 81.449219 43.203125 C 81.449219 43.207031 81.449219 43.210938 81.445312 43.210938 C 81.46875 43.210938 81.472656 43.195312 81.464844 43.1875 C 81.46875 43.183594 81.46875 43.175781 81.472656 43.167969 C 81.46875 43.21875 81.523438 43.183594 81.5 43.246094 C 81.5625 43.253906 81.621094 43.203125 81.671875 43.191406 C 81.667969 43.226562 81.648438 43.25 81.632812 43.257812 L 81.667969 43.257812 C 81.65625 43.300781 81.640625 43.277344 81.628906 43.285156 C 81.652344 43.371094 81.730469 43.230469 81.761719 43.308594 L 81.777344 43.273438 L 81.777344 43.28125 C 81.78125 43.261719 81.796875 43.238281 81.804688 43.230469 C 81.804688 43.273438 81.789062 43.324219 81.8125 43.324219 C 81.828125 43.367188 81.871094 43.3125 81.898438 43.289062 C 81.882812 43.285156 81.890625 43.261719 81.894531 43.246094 C 81.90625 43.246094 81.914062 43.285156 81.921875 43.269531 L 81.921875 43.324219 C 81.917969 43.273438 81.953125 43.269531 81.960938 43.246094 C 81.964844 43.285156 81.941406 43.28125 81.9375 43.3125 C 81.984375 43.308594 81.960938 43.3125 82.007812 43.304688 C 82.03125 43.261719 82.003906 43.253906 82.011719 43.203125 C 82.03125 43.191406 82.046875 43.152344 82.074219 43.183594 L 82.0625 43.132812 C 82.09375 43.09375 82.113281 43.09375 82.148438 43.136719 C 82.164062 43.101562 82.171875 43.066406 82.179688 43.03125 C 82.199219 43.023438 82.21875 43.019531 82.242188 43.011719 L 82.1875 42.96875 C 82.1875 42.929688 82.183594 42.894531 82.179688 42.867188 C 82.175781 42.832031 82.167969 42.800781 82.15625 42.777344 C 82.164062 42.769531 82.167969 42.761719 82.167969 42.746094 C 82.171875 42.753906 82.1875 42.777344 82.175781 42.785156 C 82.203125 42.757812 82.226562 42.710938 82.265625 42.753906 C 82.292969 42.722656 82.332031 42.691406 82.363281 42.652344 C 82.390625 42.609375 82.40625 42.566406 82.386719 42.519531 L 82.160156 41.949219 " fill-opacity="1" fill-rule="nonzero"/><path fill="#a7bec6" d="M 56.871094 32.199219 C 56.875 32.191406 56.878906 32.179688 56.882812 32.171875 L 56.871094 32.199219 " fill-opacity="1" fill-rule="nonzero"/><path fill="#a7bec6" d="M 55.769531 32.484375 C 55.773438 32.488281 55.777344 32.492188 55.78125 32.492188 C 55.78125 32.496094 55.785156 32.503906 55.792969 32.511719 C 55.789062 32.503906 55.78125 32.503906 55.777344 32.5 L 55.769531 32.5 Z M 57.425781 32.609375 C 57.390625 32.589844 57.347656 32.574219 57.328125 32.542969 C 57.335938 32.566406 57.351562 32.589844 57.316406 32.589844 C 57.308594 32.570312 57.292969 32.554688 57.28125 32.539062 L 57.316406 32.523438 C 57.300781 32.496094 57.28125 32.464844 57.257812 32.4375 L 57.238281 32.480469 C 57.21875 32.429688 57.25 32.363281 57.171875 32.382812 C 57.132812 32.398438 57.171875 32.457031 57.125 32.441406 C 57.109375 32.414062 57.089844 32.375 57.066406 32.347656 C 57.042969 32.320312 57.011719 32.285156 56.980469 32.269531 C 56.96875 32.316406 56.953125 32.3125 56.933594 32.316406 L 56.945312 32.273438 C 56.863281 32.308594 56.949219 32.175781 56.871094 32.199219 C 56.859375 32.21875 56.851562 32.238281 56.84375 32.253906 C 56.769531 32.328125 56.832031 32.160156 56.746094 32.265625 C 56.773438 32.261719 56.742188 32.363281 56.71875 32.339844 L 56.730469 32.296875 C 56.714844 32.304688 56.707031 32.320312 56.699219 32.3125 C 56.710938 32.289062 56.710938 32.25 56.6875 32.253906 L 56.710938 32.203125 C 56.691406 32.226562 56.671875 32.253906 56.65625 32.277344 C 56.628906 32.226562 56.570312 32.28125 56.5625 32.222656 C 56.5625 32.222656 56.492188 32.191406 56.476562 32.257812 C 56.488281 32.214844 56.449219 32.203125 56.460938 32.152344 C 56.441406 32.199219 56.390625 32.242188 56.367188 32.191406 L 56.371094 32.1875 C 56.289062 32.144531 56.246094 32.265625 56.171875 32.214844 C 56.183594 32.265625 56.144531 32.246094 56.164062 32.308594 C 56.109375 32.378906 56.011719 32.203125 56.035156 32.402344 C 56.007812 32.421875 55.988281 32.367188 55.96875 32.359375 L 55.972656 32.347656 C 55.921875 32.382812 55.90625 32.386719 55.863281 32.394531 C 55.847656 32.421875 55.875 32.511719 55.832031 32.503906 C 55.832031 32.464844 55.820312 32.476562 55.804688 32.480469 C 55.8125 32.472656 55.808594 32.457031 55.78125 32.441406 C 55.785156 32.453125 55.785156 32.460938 55.78125 32.46875 C 55.78125 32.464844 55.78125 32.464844 55.777344 32.460938 C 55.769531 32.46875 55.769531 32.476562 55.769531 32.480469 L 55.765625 32.496094 L 55.644531 32.460938 L 55.679688 32.65625 C 55.671875 32.671875 55.664062 32.691406 55.65625 32.710938 L 55.640625 32.703125 C 55.644531 32.707031 55.648438 32.710938 55.65625 32.714844 C 55.632812 32.785156 55.617188 32.882812 55.636719 33.019531 L 55.621094 33.03125 C 55.667969 33.105469 55.707031 33.136719 55.792969 33.089844 C 55.753906 33.183594 55.84375 33.125 55.847656 33.164062 L 55.839844 33.167969 C 55.914062 33.117188 55.90625 33.265625 55.972656 33.21875 C 55.96875 33.226562 55.957031 33.253906 55.949219 33.25 C 55.984375 33.25 56.035156 33.242188 56.015625 33.300781 C 56.097656 33.3125 56.199219 33.367188 56.269531 33.285156 L 56.265625 33.300781 C 56.304688 33.246094 56.300781 33.300781 56.339844 33.273438 C 56.339844 33.28125 56.339844 33.285156 56.339844 33.289062 C 56.382812 33.234375 56.429688 33.296875 56.457031 33.273438 L 56.453125 33.3125 L 56.515625 33.308594 L 56.492188 33.296875 C 56.511719 33.195312 56.53125 33.371094 56.585938 33.304688 C 56.613281 33.316406 56.648438 33.195312 56.679688 33.148438 C 56.6875 33.144531 56.695312 33.136719 56.703125 33.132812 C 56.707031 33.132812 56.710938 33.136719 56.710938 33.140625 C 56.730469 33.089844 56.695312 33.222656 56.722656 33.183594 C 56.722656 33.238281 56.710938 33.21875 56.71875 33.261719 C 56.746094 33.238281 56.765625 33.316406 56.800781 33.28125 L 56.804688 33.324219 C 56.847656 33.246094 56.898438 33.375 56.925781 33.296875 C 56.972656 33.257812 56.976562 33.421875 57.019531 33.332031 L 57.046875 33.386719 C 57.074219 33.390625 57.054688 33.3125 57.082031 33.335938 C 57.085938 33.375 57.121094 33.359375 57.109375 33.398438 C 57.148438 33.421875 57.171875 33.394531 57.203125 33.371094 L 57.519531 33.128906 L 57.480469 33.023438 C 57.460938 32.976562 57.449219 32.929688 57.488281 32.863281 C 57.414062 32.851562 57.433594 32.78125 57.378906 32.78125 C 57.390625 32.773438 57.382812 32.746094 57.382812 32.722656 C 57.375 32.703125 57.378906 32.683594 57.429688 32.703125 C 57.433594 32.707031 57.4375 32.71875 57.425781 32.722656 L 57.46875 32.710938 C 57.496094 32.660156 57.460938 32.628906 57.425781 32.609375 " fill-opacity="1" fill-rule="nonzero"/><path fill="#a3bdc6" d="M 70.695312 66.046875 C 66.476562 65.484375 62.242188 64.921875 58.136719 63.804688 C 49.144531 61.363281 41.105469 56.378906 33.550781 50.90625 C 33.652344 51.195312 33.761719 51.488281 33.878906 51.78125 C 33.871094 51.691406 34.050781 52.113281 34.242188 52.488281 C 34.433594 52.859375 34.617188 53.1875 34.53125 52.953125 C 35.46875 54.671875 36.535156 56.109375 37.5 57.214844 C 37.984375 57.765625 38.441406 58.238281 38.855469 58.617188 C 39.058594 58.8125 39.253906 58.972656 39.429688 59.121094 C 39.613281 59.265625 39.777344 59.386719 39.925781 59.484375 C 40.597656 60.0625 41 60.394531 41.324219 60.65625 C 41.484375 60.789062 41.625 60.90625 41.769531 61.023438 C 41.914062 61.140625 42.0625 61.265625 42.246094 61.398438 C 42.128906 61.320312 42.015625 61.242188 41.902344 61.15625 C 42.570312 61.644531 43.125 62.039062 43.621094 62.363281 C 43.746094 62.445312 43.863281 62.527344 43.980469 62.605469 C 44.09375 62.679688 44.210938 62.75 44.320312 62.820312 C 44.539062 62.960938 44.75 63.09375 44.953125 63.222656 C 45.15625 63.351562 45.359375 63.46875 45.558594 63.589844 C 45.761719 63.707031 45.960938 63.835938 46.171875 63.953125 C 46.597656 64.191406 47.046875 64.460938 47.589844 64.746094 C 48.136719 65.027344 48.464844 65.160156 48.902344 65.351562 C 49.011719 65.402344 49.125 65.453125 49.253906 65.511719 C 49.382812 65.566406 49.523438 65.628906 49.679688 65.699219 C 49.839844 65.769531 50.015625 65.851562 50.210938 65.945312 C 50.410156 66.035156 50.632812 66.132812 50.882812 66.246094 C 50.550781 66.117188 50.589844 66.144531 50.804688 66.246094 C 51.023438 66.34375 51.414062 66.519531 51.796875 66.671875 C 51.308594 66.476562 51.152344 66.425781 52.140625 66.863281 C 52.285156 66.910156 52.503906 66.996094 52.714844 67.066406 C 52.722656 67.074219 52.757812 67.089844 52.738281 67.085938 C 53.378906 67.328125 53.648438 67.425781 53.679688 67.429688 C 53.710938 67.4375 53.507812 67.355469 53.210938 67.238281 C 53.242188 67.246094 53.195312 67.21875 53.015625 67.136719 C 53.179688 67.207031 53.359375 67.28125 53.550781 67.359375 C 53.742188 67.433594 53.949219 67.511719 54.15625 67.585938 C 54.363281 67.664062 54.570312 67.742188 54.78125 67.816406 C 54.992188 67.886719 55.199219 67.957031 55.394531 68.023438 C 55.789062 68.160156 56.152344 68.273438 56.421875 68.363281 C 56.695312 68.453125 56.875 68.519531 56.910156 68.546875 C 58.890625 69.132812 60.617188 69.527344 62.265625 69.847656 C 63.917969 70.160156 65.496094 70.398438 67.195312 70.605469 C 67.386719 70.648438 67.28125 70.648438 67.003906 70.625 C 66.726562 70.601562 66.28125 70.554688 65.789062 70.484375 C 66.1875 70.546875 66.59375 70.597656 66.996094 70.648438 C 67.394531 70.703125 67.800781 70.746094 68.203125 70.789062 C 68.191406 70.8125 67.84375 70.777344 67.402344 70.726562 C 66.96875 70.671875 66.4375 70.605469 66.066406 70.550781 C 68.929688 71.039062 72.015625 71.152344 75.410156 71.277344 C 75.644531 71.273438 75.878906 71.261719 76.113281 71.25 L 76.316406 71.257812 C 76.3125 71.25 76.5 71.238281 76.75 71.230469 C 77.003906 71.222656 77.320312 71.207031 77.570312 71.203125 C 77.8125 71.21875 77.800781 71.242188 77.945312 71.261719 C 78.085938 71.277344 78.378906 71.285156 79.21875 71.261719 C 79.550781 71.265625 79.953125 71.25 80.398438 71.230469 C 80.84375 71.214844 81.324219 71.179688 81.824219 71.148438 C 82.816406 71.074219 83.859375 70.972656 84.726562 70.878906 C 84.492188 70.898438 84.335938 70.914062 84.238281 70.917969 C 84.140625 70.921875 84.101562 70.921875 84.105469 70.917969 C 84.113281 70.90625 84.289062 70.882812 84.492188 70.855469 C 84.910156 70.816406 85.238281 70.796875 85.546875 70.773438 C 85.851562 70.746094 86.132812 70.722656 86.457031 70.679688 L 86.519531 70.714844 C 86.546875 70.703125 86.628906 70.691406 86.746094 70.671875 C 86.9375 70.640625 87.230469 70.597656 87.542969 70.554688 C 88.164062 70.46875 88.867188 70.359375 89.019531 70.328125 C 89.496094 70.300781 87.730469 70.546875 87.527344 70.59375 C 89.199219 70.378906 89.613281 70.300781 90.03125 70.242188 C 90.238281 70.210938 90.445312 70.179688 90.808594 70.117188 C 90.992188 70.085938 91.210938 70.050781 91.492188 70.003906 C 91.769531 69.953125 92.109375 69.894531 92.523438 69.820312 C 94.28125 69.449219 92.191406 69.832031 93.027344 69.625 C 94.585938 69.324219 96.089844 68.964844 97.867188 68.582031 L 97.296875 68.664062 C 98.03125 68.484375 98.691406 68.320312 99.300781 68.167969 C 95.75 67.871094 92.125 67.953125 88.5625 67.832031 C 82.578125 67.625 76.628906 66.835938 70.695312 66.046875 " fill-opacity="1" fill-rule="nonzero"/><path fill="#8aa9b7" d="M 71.382812 73.085938 C 71.378906 73.082031 71.378906 73.082031 71.378906 73.078125 C 71.371094 73.074219 71.367188 73.066406 71.359375 73.058594 L 71.382812 73.085938 " fill-opacity="1" fill-rule="nonzero"/><g clip-path="url(#9c01ee6d2b)"><path fill="#8aa9b7" d="M 81.3125 79.300781 C 81.253906 78.816406 81.050781 78.410156 80.859375 78.046875 L 80.863281 77.960938 C 80.886719 77.925781 80.796875 77.847656 80.707031 77.769531 C 80.621094 77.691406 80.527344 77.613281 80.539062 77.570312 L 80.402344 77.441406 C 80.382812 77.390625 80.332031 77.296875 80.398438 77.359375 C 80.304688 77.222656 80.289062 77.230469 80.203125 77.144531 C 80.183594 77.089844 80.164062 77.035156 80.144531 76.976562 C 79.824219 76.433594 79.488281 75.996094 79.234375 75.367188 C 79.117188 74.972656 78.914062 74.425781 78.722656 73.859375 C 78.527344 73.289062 78.339844 72.703125 78.203125 72.273438 C 77.988281 71.671875 77.875 70.992188 77.726562 70.308594 C 77.578125 69.621094 77.398438 68.929688 77.085938 68.335938 C 77.078125 68.289062 77.011719 68.195312 77.003906 68.199219 C 76.851562 67.820312 76.671875 67.453125 76.480469 67.089844 C 76.480469 67.089844 76.433594 67.007812 76.355469 66.875 C 76.28125 66.742188 76.160156 66.5625 76.023438 66.355469 C 75.949219 66.257812 75.871094 66.152344 75.792969 66.046875 C 75.710938 65.9375 75.617188 65.835938 75.53125 65.734375 C 75.445312 65.628906 75.34375 65.535156 75.253906 65.441406 C 75.164062 65.347656 75.066406 65.265625 74.976562 65.191406 C 74.804688 65.035156 74.636719 64.925781 74.519531 64.863281 C 74.40625 64.800781 74.339844 64.792969 74.339844 64.847656 C 74.34375 64.882812 74.371094 64.945312 74.425781 65.039062 C 74.378906 64.996094 74.332031 64.957031 74.285156 64.917969 L 67.808594 64.167969 C 67.878906 64.4375 67.957031 64.707031 68.039062 64.976562 C 68.003906 64.898438 67.96875 64.828125 67.9375 64.761719 C 67.828125 64.539062 67.742188 64.386719 67.675781 64.289062 C 67.550781 64.097656 67.503906 64.128906 67.488281 64.253906 C 67.472656 64.507812 67.625 65.148438 67.625 65.148438 C 67.6875 65.476562 67.777344 65.75 67.859375 66.011719 C 67.902344 66.140625 67.949219 66.265625 67.996094 66.390625 C 68.039062 66.511719 68.085938 66.636719 68.144531 66.757812 C 68.253906 66.996094 68.367188 67.246094 68.492188 67.523438 C 68.550781 67.664062 68.621094 67.808594 68.699219 67.960938 C 68.773438 68.117188 68.847656 68.28125 68.929688 68.457031 C 68.996094 68.617188 69.050781 68.765625 69.109375 68.894531 C 69.167969 69.027344 69.21875 69.148438 69.269531 69.265625 C 69.367188 69.496094 69.449219 69.699219 69.535156 69.902344 C 69.625 70.105469 69.722656 70.304688 69.839844 70.535156 C 69.957031 70.761719 70.085938 71.019531 70.277344 71.324219 C 70.363281 71.472656 70.449219 71.621094 70.539062 71.769531 C 70.628906 71.921875 70.714844 72.074219 70.8125 72.21875 C 71.003906 72.511719 71.195312 72.800781 71.378906 73.078125 C 71.617188 73.300781 71.871094 73.800781 72.132812 74.074219 C 72.148438 74.121094 72.167969 74.167969 72.183594 74.214844 C 72.277344 74.304688 72.378906 74.417969 72.4375 74.535156 L 72.425781 74.535156 C 72.566406 74.671875 72.679688 74.855469 72.746094 74.921875 L 72.734375 74.925781 L 72.875 75.109375 L 72.839844 75.085938 C 73.070312 75.332031 73.292969 75.597656 73.46875 75.84375 L 73.492188 75.792969 C 73.671875 76.066406 73.828125 76.222656 73.976562 76.378906 C 74.125 76.53125 74.265625 76.683594 74.433594 76.925781 L 74.417969 76.929688 C 74.714844 77.164062 74.902344 77.386719 75.085938 77.621094 C 75.175781 77.738281 75.269531 77.855469 75.378906 77.96875 C 75.492188 78.085938 75.617188 78.199219 75.777344 78.3125 C 75.699219 78.253906 75.785156 78.355469 75.769531 78.359375 C 76.03125 78.597656 76.300781 78.859375 76.378906 78.789062 C 76.566406 78.964844 76.507812 78.953125 76.507812 79.003906 C 76.535156 78.972656 76.710938 79.109375 76.859375 79.242188 L 76.78125 79.195312 L 77.210938 79.570312 L 77.183594 79.433594 C 77.390625 79.65625 77.171875 79.5625 77.402344 79.738281 L 77.445312 79.683594 C 77.753906 79.96875 77.871094 80.207031 78.148438 80.511719 C 78.3125 80.652344 78.488281 80.796875 78.695312 80.921875 C 78.894531 81.050781 79.132812 81.160156 79.398438 81.210938 C 79.660156 81.261719 79.953125 81.242188 80.210938 81.148438 C 80.472656 81.058594 80.695312 80.894531 80.863281 80.699219 C 81.035156 80.503906 81.15625 80.277344 81.234375 80.039062 C 81.308594 79.804688 81.339844 79.550781 81.3125 79.300781 " fill-opacity="1" fill-rule="nonzero"/></g></svg>