<svg xmlns="http://www.w3.org/2000/svg" xmlns:xlink="http://www.w3.org/1999/xlink" width="200" zoomAndPan="magnify" viewBox="0 0 150 112.499997" height="150" preserveAspectRatio="xMidYMid meet" version="1.0"><defs><clipPath id="id1"><path d="M 20 3 L 124 3 L 124 104 L 20 104 Z M 20 3 " clip-rule="nonzero"/></clipPath><clipPath id="id2"><path d="M 0.332031 38.160156 L 90.457031 -14.804688 L 140.773438 70.8125 L 50.648438 123.777344 Z M 0.332031 38.160156 " clip-rule="nonzero"/></clipPath><clipPath id="id3"><path d="M 0.332031 38.160156 L 90.457031 -14.804688 L 140.773438 70.8125 L 50.648438 123.777344 Z M 0.332031 38.160156 " clip-rule="nonzero"/></clipPath><clipPath id="id4"><path d="M 0.335938 38.160156 L 90.636719 -14.910156 L 141.039062 70.847656 L 50.738281 123.917969 Z M 0.335938 38.160156 " clip-rule="nonzero"/></clipPath><clipPath id="id5"><path d="M 0.335938 38.160156 L 90.460938 -14.808594 L 140.773438 70.800781 L 50.648438 123.769531 Z M 0.335938 38.160156 " clip-rule="nonzero"/></clipPath><clipPath id="id6"><path d="M 39.402344 12.148438 L 112.476562 12.148438 L 112.476562 98.675781 L 39.402344 98.675781 Z M 39.402344 12.148438 " clip-rule="nonzero"/></clipPath></defs><g clip-path="url(#id1)"><g clip-path="url(#id2)"><g clip-path="url(#id3)"><g clip-path="url(#id4)"><g clip-path="url(#id5)"><path fill="#486cbd" d="M 104.945312 13.359375 C 101.792969 10.304688 98.214844 7.761719 94.160156 6.011719 C 83.035156 1.214844 70.160156 3.113281 58.527344 6.566406 C 53.121094 8.167969 47.761719 10.109375 42.988281 13.109375 C 34.085938 18.707031 27.683594 27.792969 24.226562 37.710938 C 20.210938 49.253906 18.835938 63.457031 22.949219 75.09375 C 27.035156 86.648438 36.003906 96.144531 47.546875 100.441406 C 57.019531 103.96875 67.484375 104.292969 77.472656 102.660156 C 91.035156 100.449219 104.382812 94.363281 113.082031 83.730469 C 119.234375 76.210938 122.804688 66.625 123.066406 56.933594 C 123.320312 47.46875 120.503906 38.128906 116.335938 29.632812 C 113.421875 23.691406 109.667969 17.949219 104.945312 13.359375 " fill-opacity="1" fill-rule="nonzero"/></g></g></g></g></g><path fill="#f2fbfe" d="M 39.65625 47.957031 L 41.265625 49.800781 C 40.589844 50.097656 39.972656 50.558594 39.550781 51.582031 C 39.550781 51.582031 37.976562 49.25 39.65625 47.957031 " fill-opacity="1" fill-rule="nonzero"/><path fill="#d9e2e7" d="M 40.261719 50.472656 C 40.566406 50.164062 40.910156 49.957031 41.265625 49.800781 L 39.65625 47.957031 C 39.28125 48.246094 39.066406 48.585938 38.964844 48.941406 C 39.375 49.46875 39.832031 49.960938 40.261719 50.472656 " fill-opacity="1" fill-rule="nonzero"/><path fill="#f2fbfe" d="M 92.484375 61.511719 L 89.5 62.640625 C 90.09375 63.394531 90.515625 64.300781 90.367188 65.726562 C 90.367188 65.726562 93.609375 64.019531 92.484375 61.511719 " fill-opacity="1" fill-rule="nonzero"/><path fill="#f2fbfe" d="M 94.695312 57.507812 L 93.359375 58.824219 C 93.859375 59.085938 94.304688 59.476562 94.566406 60.28125 C 94.566406 60.28125 95.902344 58.589844 94.695312 57.507812 " fill-opacity="1" fill-rule="nonzero"/><path fill="#d9e2e7" d="M 92.703125 62.871094 C 92.753906 62.453125 92.703125 61.996094 92.484375 61.511719 L 89.5 62.640625 C 89.734375 62.9375 89.941406 63.261719 90.097656 63.632812 C 90.964844 63.371094 91.824219 63.082031 92.703125 62.871094 " fill-opacity="1" fill-rule="nonzero"/><path fill="#f2fbfe" d="M 41.230469 51.761719 L 42.550781 53.269531 C 41.996094 53.511719 41.492188 53.890625 41.148438 54.726562 C 41.148438 54.726562 39.859375 52.820312 41.230469 51.761719 " fill-opacity="1" fill-rule="nonzero"/><path fill="#f2fbfe" d="M 54.421875 19.019531 C 54.714844 19.859375 54.796875 20.914062 54.421875 22.421875 C 55.292969 21.886719 55.96875 21.148438 56.402344 20.160156 C 56.402344 20.160156 55.882812 19.289062 54.421875 19.019531 " fill-opacity="1" fill-rule="nonzero"/><path fill="#d9e2e7" d="M 55.398438 20.433594 C 55.234375 20.285156 55.558594 20.570312 55.550781 20.5625 C 55.652344 20.652344 55.753906 20.738281 55.855469 20.828125 C 55.898438 20.859375 55.9375 20.894531 55.976562 20.929688 C 56.136719 20.691406 56.28125 20.4375 56.402344 20.160156 C 56.402344 20.160156 55.882812 19.289062 54.421875 19.019531 C 54.527344 19.328125 54.609375 19.667969 54.648438 20.046875 C 54.914062 20.09375 55.175781 20.234375 55.398438 20.433594 " fill-opacity="1" fill-rule="nonzero"/><path fill="#f2fbfe" d="M 42.542969 17.617188 C 43.589844 17.289062 44.613281 16.640625 45.761719 17.617188 C 44.101562 18.746094 43.449219 19.988281 43.707031 21.320312 C 41.953125 20.628906 41.667969 19.351562 42.542969 17.617188 " fill-opacity="1" fill-rule="nonzero"/><path fill="#d9e2e7" d="M 45.761719 17.617188 C 44.613281 16.640625 43.589844 17.289062 42.542969 17.617188 C 42.273438 18.152344 42.113281 18.644531 42.074219 19.089844 C 42.589844 19.015625 42.988281 18.886719 42.988281 18.886719 C 43.515625 18.492188 44.09375 18.414062 44.671875 18.523438 C 44.96875 18.214844 45.332031 17.910156 45.761719 17.617188 " fill-opacity="1" fill-rule="nonzero"/><path fill="#f2fbfe" d="M 48.179688 19.257812 L 51.402344 19.257812 C 49.738281 20.472656 49.085938 21.628906 49.34375 22.964844 C 47.589844 22.269531 47.304688 20.992188 48.179688 19.257812 " fill-opacity="1" fill-rule="nonzero"/><path fill="#d9e2e7" d="M 48.304688 21.074219 C 48.710938 21.453125 49.070312 21.621094 49.390625 21.769531 C 49.621094 20.910156 50.28125 20.125 51.402344 19.257812 L 48.179688 19.257812 C 47.988281 19.777344 47.855469 20.078125 47.777344 20.417969 C 48.105469 20.753906 48.304688 21.074219 48.304688 21.074219 " fill-opacity="1" fill-rule="nonzero"/><path fill="#6eb32e" d="M 83.089844 24.617188 C 83.851562 23.472656 84.554688 22.324219 83.921875 21.066406 C 82.621094 20.007812 81.347656 20.058594 80.085938 20.589844 L 83.089844 24.617188 " fill-opacity="1" fill-rule="nonzero"/><path fill="#66a830" d="M 83.742188 22.84375 C 83.480469 22.121094 82.796875 21.542969 82.195312 21.058594 C 81.945312 20.855469 81.84375 20.539062 81.863281 20.226562 C 81.265625 20.199219 80.675781 20.34375 80.085938 20.589844 L 83.089844 24.617188 C 83.40625 24.140625 83.714844 23.664062 83.917969 23.175781 C 83.84375 23.078125 83.785156 22.964844 83.742188 22.84375 " fill-opacity="1" fill-rule="nonzero"/><path fill="#6eb32e" d="M 84.378906 30.765625 C 85.503906 29.972656 86.574219 29.152344 86.441406 27.75 C 85.609375 26.296875 84.40625 25.886719 83.035156 25.933594 L 84.378906 30.765625 " fill-opacity="1" fill-rule="nonzero"/><path fill="#66a830" d="M 85.628906 29.34375 C 85.648438 28.574219 85.21875 27.789062 84.832031 27.125 C 84.671875 26.84375 84.695312 26.515625 84.824219 26.230469 C 84.277344 25.992188 83.671875 25.910156 83.035156 25.933594 L 84.378906 30.765625 C 84.847656 30.4375 85.308594 30.097656 85.671875 29.71875 C 85.644531 29.597656 85.628906 29.472656 85.628906 29.34375 " fill-opacity="1" fill-rule="nonzero"/><path fill="#6eb32e" d="M 84.378906 37.210938 C 85.695312 36.796875 86.964844 36.34375 87.269531 34.96875 C 86.929688 33.332031 85.90625 32.574219 84.585938 32.199219 L 84.378906 37.210938 " fill-opacity="1" fill-rule="nonzero"/><path fill="#66a830" d="M 86.007812 36.238281 C 86.261719 35.511719 86.09375 34.632812 85.933594 33.882812 C 85.867188 33.566406 85.988281 33.261719 86.199219 33.027344 C 85.753906 32.636719 85.203125 32.375 84.585938 32.199219 L 84.378906 37.210938 C 84.925781 37.039062 85.46875 36.859375 85.933594 36.609375 C 85.941406 36.484375 85.964844 36.359375 86.007812 36.238281 " fill-opacity="1" fill-rule="nonzero"/><path fill="#6eb32e" d="M 83.714844 43.777344 C 85.050781 43.4375 86.347656 43.050781 86.726562 41.699219 C 86.476562 40.042969 85.5 39.230469 84.203125 38.78125 L 83.714844 43.777344 " fill-opacity="1" fill-rule="nonzero"/><path fill="#66a830" d="M 85.394531 42.894531 C 85.6875 42.183594 85.574219 41.296875 85.453125 40.539062 C 85.40625 40.222656 85.542969 39.921875 85.765625 39.699219 C 85.339844 39.28125 84.808594 38.992188 84.203125 38.78125 L 83.714844 43.777344 C 84.273438 43.632812 84.820312 43.484375 85.300781 43.261719 C 85.316406 43.136719 85.347656 43.015625 85.394531 42.894531 " fill-opacity="1" fill-rule="nonzero"/><path fill="#6eb32e" d="M 81.878906 49.457031 C 83.246094 49.625 84.59375 49.738281 85.445312 48.617188 C 85.820312 46.988281 85.207031 45.875 84.167969 44.988281 L 81.878906 49.457031 " fill-opacity="1" fill-rule="nonzero"/><path fill="#66a830" d="M 83.765625 49.246094 C 84.300781 48.691406 84.515625 47.824219 84.683594 47.074219 C 84.753906 46.761719 84.996094 46.53125 85.285156 46.40625 C 85.042969 45.867188 84.652344 45.402344 84.167969 44.988281 L 81.878906 49.457031 C 82.445312 49.527344 83.011719 49.585938 83.542969 49.550781 C 83.601562 49.441406 83.675781 49.339844 83.765625 49.246094 " fill-opacity="1" fill-rule="nonzero"/><path fill="#6eb32e" d="M 80.347656 67.113281 C 81.605469 66.550781 82.816406 65.949219 82.957031 64.550781 C 82.421875 62.964844 81.316406 62.332031 79.964844 62.113281 L 80.347656 67.113281 " fill-opacity="1" fill-rule="nonzero"/><path fill="#66a830" d="M 81.851562 65.957031 C 82.015625 65.207031 81.75 64.355469 81.5 63.628906 C 81.394531 63.324219 81.480469 63.003906 81.660156 62.746094 C 81.171875 62.410156 80.59375 62.214844 79.964844 62.113281 L 80.347656 67.113281 C 80.871094 66.878906 81.386719 66.636719 81.820312 66.332031 C 81.8125 66.210938 81.824219 66.082031 81.851562 65.957031 " fill-opacity="1" fill-rule="nonzero"/><path fill="#6eb32e" d="M 82.3125 74.894531 C 83.515625 74.226562 84.671875 73.527344 84.691406 72.117188 C 84.023438 70.585938 82.871094 70.046875 81.5 69.945312 L 82.3125 74.894531 " fill-opacity="1" fill-rule="nonzero"/><path fill="#66a830" d="M 83.710938 73.613281 C 83.8125 72.851562 83.472656 72.027344 83.160156 71.324219 C 83.03125 71.027344 83.089844 70.703125 83.25 70.429688 C 82.730469 70.136719 82.140625 69.992188 81.5 69.945312 L 82.3125 74.894531 C 82.816406 74.617188 83.308594 74.332031 83.714844 73.992188 C 83.695312 73.871094 83.695312 73.742188 83.710938 73.613281 " fill-opacity="1" fill-rule="nonzero"/><path fill="#6eb32e" d="M 85.75 80.757812 C 86.582031 79.664062 87.359375 78.5625 86.8125 77.265625 C 85.582031 76.125 84.308594 76.09375 83.011719 76.542969 L 85.75 80.757812 " fill-opacity="1" fill-rule="nonzero"/><path fill="#66a830" d="M 86.515625 79.027344 C 86.300781 78.289062 85.65625 77.667969 85.089844 77.144531 C 84.851562 76.925781 84.773438 76.605469 84.8125 76.292969 C 84.21875 76.230469 83.617188 76.332031 83.011719 76.542969 L 85.75 80.757812 C 86.097656 80.300781 86.433594 79.84375 86.667969 79.375 C 86.601562 79.265625 86.550781 79.152344 86.515625 79.027344 " fill-opacity="1" fill-rule="nonzero"/><path fill="#6eb32e" d="M 92.496094 79.429688 C 91.242188 78.855469 89.992188 78.34375 88.839844 79.15625 C 87.988281 80.601562 88.234375 81.84375 88.957031 83.003906 L 92.496094 79.429688 " fill-opacity="1" fill-rule="nonzero"/><path fill="#66a830" d="M 90.628906 79.0625 C 89.953125 79.429688 89.484375 80.191406 89.097656 80.855469 C 88.933594 81.132812 88.636719 81.28125 88.320312 81.3125 C 88.390625 81.902344 88.621094 82.464844 88.957031 83.003906 L 92.496094 79.429688 C 91.972656 79.191406 91.449219 78.964844 90.9375 78.835938 C 90.847656 78.921875 90.742188 79 90.628906 79.0625 " fill-opacity="1" fill-rule="nonzero"/><path fill="#6eb32e" d="M 94.878906 72.636719 C 93.503906 72.738281 92.160156 72.890625 91.546875 74.15625 C 91.503906 75.828125 92.324219 76.800781 93.519531 77.464844 L 94.878906 72.636719 " fill-opacity="1" fill-rule="nonzero"/><path fill="#66a830" d="M 93.070312 73.210938 C 92.65625 73.859375 92.617188 74.753906 92.597656 75.519531 C 92.59375 75.84375 92.402344 76.113281 92.144531 76.292969 C 92.488281 76.777344 92.964844 77.15625 93.519531 77.464844 L 94.878906 72.636719 C 94.308594 72.679688 93.738281 72.730469 93.230469 72.867188 C 93.191406 72.984375 93.140625 73.101562 93.070312 73.210938 " fill-opacity="1" fill-rule="nonzero"/><path fill="#6eb32e" d="M 96.980469 65.996094 C 95.605469 66.097656 94.261719 66.25 93.648438 67.515625 C 93.605469 69.1875 94.425781 70.160156 95.621094 70.828125 L 96.980469 65.996094 " fill-opacity="1" fill-rule="nonzero"/><path fill="#66a830" d="M 95.171875 66.570312 C 94.757812 67.21875 94.714844 68.113281 94.699219 68.878906 C 94.695312 69.203125 94.503906 69.472656 94.246094 69.652344 C 94.589844 70.136719 95.066406 70.515625 95.621094 70.828125 L 96.980469 65.996094 C 96.40625 66.039062 95.839844 66.089844 95.332031 66.226562 C 95.292969 66.347656 95.242188 66.460938 95.171875 66.570312 " fill-opacity="1" fill-rule="nonzero"/><path fill="#6eb32e" d="M 99.070312 60.277344 C 97.855469 60.371094 96.667969 60.503906 96.125 61.625 C 96.085938 63.105469 96.8125 63.964844 97.871094 64.554688 L 99.070312 60.277344 " fill-opacity="1" fill-rule="nonzero"/><path fill="#66a830" d="M 97.472656 60.789062 C 97.105469 61.363281 97.070312 62.152344 97.054688 62.832031 C 97.046875 63.117188 96.882812 63.355469 96.652344 63.515625 C 96.957031 63.945312 97.375 64.277344 97.871094 64.554688 L 99.070312 60.277344 C 98.566406 60.316406 98.0625 60.363281 97.613281 60.484375 C 97.578125 60.589844 97.53125 60.691406 97.472656 60.789062 " fill-opacity="1" fill-rule="nonzero"/><path fill="#6eb32e" d="M 102.714844 55.066406 C 101.5 54.96875 100.304688 54.914062 99.59375 55.941406 C 99.324219 57.394531 99.90625 58.355469 100.859375 59.101562 L 102.714844 55.066406 " fill-opacity="1" fill-rule="nonzero"/><path fill="#66a830" d="M 101.054688 55.320312 C 100.601562 55.832031 100.445312 56.605469 100.324219 57.273438 C 100.273438 57.554688 100.070312 57.765625 99.816406 57.886719 C 100.054688 58.359375 100.414062 58.753906 100.859375 59.101562 L 102.714844 55.066406 C 102.207031 55.023438 101.707031 54.992188 101.238281 55.042969 C 101.191406 55.140625 101.128906 55.234375 101.054688 55.320312 " fill-opacity="1" fill-rule="nonzero"/><path fill="#6eb32e" d="M 107.0625 52.570312 C 106.058594 51.882812 105.046875 51.246094 103.917969 51.78125 C 102.957031 52.910156 102.980469 54.035156 103.4375 55.152344 L 107.0625 52.570312 " fill-opacity="1" fill-rule="nonzero"/><path fill="#66a830" d="M 105.496094 51.96875 C 104.847656 52.1875 104.324219 52.78125 103.882812 53.300781 C 103.699219 53.519531 103.417969 53.605469 103.140625 53.585938 C 103.109375 54.109375 103.222656 54.632812 103.4375 55.152344 L 107.0625 52.570312 C 106.644531 52.28125 106.222656 52.007812 105.796875 51.820312 C 105.703125 51.882812 105.601562 51.933594 105.496094 51.96875 " fill-opacity="1" fill-rule="nonzero"/><path fill="#8fcf25" d="M 49.585938 31.585938 C 49.585938 31.585938 56.074219 32.90625 61.589844 22.246094 L 63.898438 23.894531 C 63.898438 23.894531 53.210938 36.339844 49.585938 31.585938 " fill-opacity="1" fill-rule="nonzero"/><path fill="#30461d" d="M 61.589844 22.246094 C 60.28125 28.210938 55.957031 30.425781 51.394531 32.351562 C 51.394531 32.351562 63.894531 41.253906 74.15625 24.425781 C 74.15625 24.425781 84.257812 10.851562 61.589844 22.246094 " fill-opacity="1" fill-rule="nonzero"/><path fill="#8fcf25" d="M 71.222656 13.339844 C 70.789062 6.683594 63.3125 7.109375 65.90625 13.339844 L 66.636719 15.347656 L 71.222656 13.339844 " fill-opacity="1" fill-rule="nonzero"/><path fill="#ffffff" d="M 70.1875 12.234375 C 70.496094 13.613281 69.914062 14.914062 68.886719 15.140625 C 67.863281 15.363281 66.785156 14.425781 66.480469 13.046875 C 66.175781 11.664062 67.019531 9.894531 68.042969 9.671875 C 69.066406 9.445312 69.882812 10.851562 70.1875 12.234375 " fill-opacity="1" fill-rule="nonzero"/><path fill="#f2fbfe" d="M 69.148438 10.078125 C 69.976562 11.074219 69.832031 12.652344 68.777344 13.363281 C 68.164062 13.855469 67.488281 14.054688 66.855469 14.007812 C 67.335938 14.832031 68.125 15.308594 68.886719 15.140625 C 69.914062 14.914062 70.496094 13.613281 70.1875 12.234375 C 70.007812 11.402344 69.636719 10.566406 69.148438 10.078125 " fill-opacity="1" fill-rule="nonzero"/><path fill="#30461d" d="M 67.425781 10.078125 C 66.632812 10.179688 66.402344 11.921875 66.417969 12.527344 C 68.027344 15.84375 70.261719 12.042969 67.425781 10.078125 " fill-opacity="1" fill-rule="nonzero"/><path fill="#ffffff" d="M 67.742188 11.449219 C 67.816406 11.789062 67.734375 12.097656 67.558594 12.136719 C 67.382812 12.175781 67.179688 11.929688 67.105469 11.589844 C 67.03125 11.25 67.109375 10.941406 67.289062 10.902344 C 67.464844 10.863281 67.667969 11.109375 67.742188 11.449219 " fill-opacity="1" fill-rule="nonzero"/><path fill="#db2247" d="M 70.304688 23.742188 C 70.304688 23.742188 69.9375 20.640625 65.90625 23.375 C 64.167969 24.554688 61.171875 28.910156 58.851562 31.039062 C 56.988281 32.746094 51.789062 32.316406 53.070312 33.773438 C 53.070312 33.773438 66.089844 38.335938 70.304688 23.742188 " fill-opacity="1" fill-rule="nonzero"/><path fill="#71b92d" d="M 62.054688 95.074219 L 53.988281 86.132812 C 53.988281 86.132812 47.019531 85.222656 49.039062 91.242188 C 49.546875 92.761719 51.660156 94.476562 53.066406 95.480469 C 51.441406 94.5625 48.804688 93.707031 48.304688 97.445312 C 48.304688 97.445312 47.570312 100.910156 52.519531 100.179688 L 60.589844 100 C 60.589844 100 64.804688 100.363281 62.054688 95.074219 " fill-opacity="1" fill-rule="nonzero"/><path fill="#6ab02f" d="M 62.054688 95.074219 L 53.988281 86.132812 C 53.988281 86.132812 52.703125 85.964844 51.394531 86.25 C 53.386719 90.199219 56.875 94.671875 62.917969 97.378906 C 62.808594 96.765625 62.542969 96.007812 62.054688 95.074219 " fill-opacity="1" fill-rule="nonzero"/><path fill="#71b92d" d="M 61.320312 46.363281 C 61.320312 46.363281 55.820312 45.269531 53.253906 48.1875 C 53.253906 48.1875 51.054688 41.984375 47.386719 44.355469 C 47.386719 44.355469 46.105469 45.816406 45.003906 45.085938 C 45.003906 45.085938 42.804688 43.261719 42.253906 45.996094 C 42.253906 45.996094 37.855469 45.996094 40.421875 49.464844 C 40.964844 50.199219 43.171875 49.648438 44.820312 48.734375 L 44.636719 50.742188 C 44.636719 50.742188 38.402344 51.652344 41.886719 53.113281 C 41.886719 53.113281 46.652344 54.023438 48.304688 51.652344 C 48.304688 51.652344 49.953125 57.855469 55.453125 55.667969 L 61.320312 46.363281 " fill-opacity="1" fill-rule="nonzero"/><path fill="#6ab02f" d="M 58.921875 46.160156 C 57.960938 47.300781 55.179688 50.832031 52.765625 56.109375 C 53.535156 56.191406 54.429688 56.074219 55.453125 55.667969 L 61.320312 46.363281 C 61.320312 46.363281 60.292969 46.160156 58.921875 46.160156 " fill-opacity="1" fill-rule="nonzero"/><path fill="#62a331" d="M 48.304688 51.652344 C 49.21875 50.191406 49.050781 48.734375 48.304688 47.273438 C 48.699219 48.851562 48.824219 50.351562 48.304688 51.652344 " fill-opacity="1" fill-rule="nonzero"/><path fill="#8fcf25" d="M 74.15625 13.523438 C 74.15625 13.523438 75.238281 7.472656 78.90625 9.476562 C 80.320312 10.25 81.671875 14.617188 78.1875 15.53125 L 74.15625 13.523438 " fill-opacity="1" fill-rule="nonzero"/><path fill="#8fcf25" d="M 53.253906 15.894531 C 53.738281 9.640625 47.878906 9.15625 48.304688 14.4375 L 53.253906 15.894531 " fill-opacity="1" fill-rule="nonzero"/><path fill="#8fcf25" d="M 43.71875 14.984375 C 43.71875 14.984375 43.355469 9.875 46.46875 10.96875 C 46.46875 10.96875 47.570312 11.152344 48.304688 14.4375 L 43.71875 14.984375 " fill-opacity="1" fill-rule="nonzero"/><g clip-path="url(#id6)"><path fill="#8fcf25" d="M 112.476562 52.382812 C 112.476562 52.382812 105.875 49.828125 101.839844 55.667969 C 100.320312 57.863281 96.339844 61.503906 94.140625 73 C 93.378906 76.96875 90.050781 86.109375 84.972656 78.472656 C 84.972656 78.472656 78.035156 66.90625 82.773438 50.195312 C 84.109375 45.480469 86.769531 36.089844 84.109375 27.558594 C 82.5 20.253906 78.921875 15.164062 78.921875 15.164062 C 73.605469 8.78125 66.457031 14.617188 66.457031 14.617188 C 60.40625 18.085938 53.621094 14.984375 53.621094 14.984375 C 46.105469 11.882812 41.703125 15.347656 41.703125 15.347656 C 38.769531 13.339844 39.6875 16.808594 39.6875 16.808594 C 39.6875 19.179688 42.988281 18.085938 42.988281 18.085938 C 45.1875 16.445312 48.304688 20.273438 48.304688 20.273438 C 51.238281 23.011719 51.789062 18.996094 51.789062 18.996094 C 54.171875 17.71875 58.386719 21.734375 58.386719 21.734375 C 63.15625 27.753906 68.289062 20.457031 68.289062 20.457031 C 69.929688 18.121094 74.523438 20.457031 74.523438 20.457031 C 69.753906 20.089844 68.140625 27.769531 65.722656 30.671875 C 60.40625 37.058594 49.585938 31.585938 49.585938 31.585938 C 46.835938 33.410156 50.6875 34.6875 50.6875 34.6875 C 52.703125 34.867188 53.621094 36.695312 53.621094 36.695312 C 54.539062 39.066406 58.753906 36.511719 58.753906 36.511719 C 61.0625 34.214844 62.925781 36.195312 63.277344 36.617188 C 63.085938 39.097656 62.359375 43.433594 59.671875 46.363281 C 59.671875 46.363281 48.121094 58.949219 49.222656 77.011719 C 49.222656 77.011719 51.789062 101.640625 81.304688 98.355469 C 85.84375 97.851562 94.875 100.179688 99.273438 92.152344 C 101.492188 88.109375 104.09375 79.195312 103.675781 69.714844 C 103.675781 69.714844 103.125 57.308594 112.476562 52.382812 " fill-opacity="1" fill-rule="nonzero"/></g><path fill="#ecf38b" d="M 92.261719 93.882812 C 66.855469 96.652344 63.839844 73.089844 71.859375 55.300781 C 76.015625 46.070312 84.386719 22.824219 74.5 20.457031 C 69.75 20.117188 68.136719 27.773438 65.722656 30.671875 C 60.40625 37.058594 49.585938 31.585938 49.585938 31.585938 C 46.835938 33.410156 50.6875 34.6875 50.6875 34.6875 C 52.703125 34.867188 53.621094 36.695312 53.621094 36.695312 C 54.539062 39.066406 57.589844 37.667969 58.753906 36.511719 C 61.0625 34.214844 62.925781 36.195312 63.277344 36.617188 C 63.085938 39.097656 62.359375 43.433594 59.671875 46.363281 C 59.671875 46.363281 48.121094 58.949219 49.222656 77.011719 C 49.222656 77.011719 51.789062 101.640625 81.304688 98.355469 C 85.84375 97.851562 94.875 100.179688 99.273438 92.152344 C 100.082031 90.679688 100.941406 88.550781 101.6875 85.988281 C 101.777344 87.511719 95.363281 93.148438 92.261719 93.882812 " fill-opacity="1" fill-rule="nonzero"/><path fill="#cfd77b" d="M 72.488281 34.769531 C 71.375 36.734375 68.222656 40.25 61.589844 35.496094 C 65.816406 37.046875 70.5625 37.257812 72.488281 34.769531 " fill-opacity="1" fill-rule="nonzero"/><path fill="#62a331" d="M 55.625 97.496094 C 52.285156 95.292969 50.0625 92.535156 48.671875 89.359375 C 48.671875 89.359375 48.074219 94.113281 55.625 97.496094 " fill-opacity="1" fill-rule="nonzero"/><path fill="#62a331" d="M 40.109375 46.609375 C 40.109375 46.609375 43.171875 44.6875 44.933594 46.113281 C 43.328125 45.910156 41.71875 46.101562 40.109375 46.609375 " fill-opacity="1" fill-rule="nonzero"/><path fill="#7bc12a" d="M 79.5 67.324219 C 79.089844 67.472656 78.535156 66.996094 78.265625 66.253906 C 77.992188 65.511719 78.105469 64.789062 78.515625 64.640625 C 78.925781 64.492188 79.480469 64.972656 79.75 65.714844 C 80.023438 66.453125 79.910156 67.175781 79.5 67.324219 " fill-opacity="1" fill-rule="nonzero"/><path fill="#7bc12a" d="M 79.015625 71.125 C 78.433594 71.273438 77.648438 70.792969 77.261719 70.050781 C 76.875 69.308594 77.035156 68.585938 77.617188 68.4375 C 78.203125 68.289062 78.988281 68.769531 79.375 69.511719 C 79.761719 70.253906 79.601562 70.972656 79.015625 71.125 " fill-opacity="1" fill-rule="nonzero"/><path fill="#7bc12a" d="M 81.746094 78.347656 C 81.015625 78.53125 80.035156 77.933594 79.554688 77.007812 C 79.074219 76.082031 79.273438 75.179688 80 74.996094 C 80.730469 74.808594 81.710938 75.410156 82.191406 76.335938 C 82.675781 77.257812 82.472656 78.160156 81.746094 78.347656 " fill-opacity="1" fill-rule="nonzero"/><path fill="#7bc12a" d="M 78.8125 74.476562 C 78.398438 74.582031 77.839844 74.242188 77.566406 73.714844 C 77.292969 73.1875 77.40625 72.675781 77.820312 72.570312 C 78.234375 72.464844 78.792969 72.804688 79.066406 73.332031 C 79.34375 73.859375 79.230469 74.371094 78.8125 74.476562 " fill-opacity="1" fill-rule="nonzero"/><path fill="#7bc12a" d="M 93.714844 81.507812 C 93.695312 82.257812 92.847656 83.03125 91.824219 83.238281 C 90.796875 83.449219 89.980469 83.011719 90 82.261719 C 90.019531 81.515625 90.867188 80.738281 91.894531 80.53125 C 92.917969 80.324219 93.734375 80.761719 93.714844 81.507812 " fill-opacity="1" fill-rule="nonzero"/><path fill="#7bc12a" d="M 82.125 40.605469 C 81.464844 40.253906 81.144531 39.15625 81.414062 38.148438 C 81.683594 37.140625 82.441406 36.609375 83.105469 36.960938 C 83.769531 37.3125 84.089844 38.410156 83.816406 39.417969 C 83.546875 40.425781 82.792969 40.957031 82.125 40.605469 " fill-opacity="1" fill-rule="nonzero"/><path fill="#7bc12a" d="M 80.929688 49.503906 C 80.183594 49.417969 79.480469 48.511719 79.363281 47.476562 C 79.242188 46.441406 79.753906 45.671875 80.5 45.753906 C 81.246094 45.839844 81.949219 46.746094 82.066406 47.78125 C 82.1875 48.816406 81.679688 49.585938 80.929688 49.503906 " fill-opacity="1" fill-rule="nonzero"/><path fill="#7bc12a" d="M 81.105469 73.210938 C 80.738281 73.304688 80.25 73.003906 80.007812 72.539062 C 79.765625 72.078125 79.867188 71.625 80.230469 71.53125 C 80.597656 71.441406 81.085938 71.742188 81.328125 72.203125 C 81.570312 72.667969 81.46875 73.117188 81.105469 73.210938 " fill-opacity="1" fill-rule="nonzero"/><path fill="#7bc12a" d="M 96.214844 75.773438 C 95.648438 75.472656 95.378906 74.535156 95.609375 73.675781 C 95.84375 72.816406 96.492188 72.367188 97.054688 72.667969 C 97.621094 72.96875 97.890625 73.90625 97.660156 74.765625 C 97.425781 75.621094 96.78125 76.074219 96.214844 75.773438 " fill-opacity="1" fill-rule="nonzero"/><path fill="#7bc12a" d="M 95.976562 72.058594 C 95.644531 71.882812 95.488281 71.332031 95.621094 70.828125 C 95.757812 70.324219 96.140625 70.058594 96.472656 70.234375 C 96.804688 70.410156 96.960938 70.960938 96.824219 71.464844 C 96.691406 71.96875 96.308594 72.234375 95.976562 72.058594 " fill-opacity="1" fill-rule="nonzero"/><path fill="#7bc12a" d="M 96.660156 69.324219 C 96.328125 69.144531 96.171875 68.59375 96.304688 68.089844 C 96.441406 67.585938 96.824219 67.324219 97.15625 67.5 C 97.488281 67.675781 97.644531 68.226562 97.507812 68.730469 C 97.371094 69.234375 96.992188 69.5 96.660156 69.324219 " fill-opacity="1" fill-rule="nonzero"/><path fill="#7bc12a" d="M 97.625 65.546875 C 97.292969 65.371094 97.136719 64.820312 97.273438 64.316406 C 97.410156 63.8125 97.789062 63.546875 98.121094 63.722656 C 98.453125 63.898438 98.609375 64.453125 98.472656 64.953125 C 98.339844 65.457031 97.957031 65.722656 97.625 65.546875 " fill-opacity="1" fill-rule="nonzero"/><path fill="#7bc12a" d="M 98.839844 63.023438 C 98.507812 62.847656 98.351562 62.296875 98.484375 61.792969 C 98.621094 61.289062 99.003906 61.023438 99.335938 61.199219 C 99.667969 61.375 99.824219 61.929688 99.6875 62.429688 C 99.550781 62.9375 99.171875 63.199219 98.839844 63.023438 " fill-opacity="1" fill-rule="nonzero"/><path fill="#7bc12a" d="M 97.496094 71.089844 C 97.164062 70.914062 97.003906 70.363281 97.140625 69.859375 C 97.277344 69.355469 97.65625 69.089844 97.988281 69.265625 C 98.320312 69.445312 98.480469 69.996094 98.34375 70.5 C 98.207031 71.003906 97.828125 71.269531 97.496094 71.089844 " fill-opacity="1" fill-rule="nonzero"/><path fill="#7bc12a" d="M 82.710938 44.570312 C 82.304688 44.675781 81.757812 44.339844 81.492188 43.824219 C 81.222656 43.308594 81.332031 42.808594 81.738281 42.703125 C 82.144531 42.601562 82.691406 42.933594 82.960938 43.449219 C 83.230469 43.964844 83.117188 44.46875 82.710938 44.570312 " fill-opacity="1" fill-rule="nonzero"/><path fill="#7bc12a" d="M 80.382812 44.921875 C 79.980469 45.027344 79.433594 44.691406 79.164062 44.175781 C 78.894531 43.660156 79.007812 43.160156 79.414062 43.054688 C 79.816406 42.953125 80.367188 43.285156 80.632812 43.800781 C 80.902344 44.316406 80.789062 44.820312 80.382812 44.921875 " fill-opacity="1" fill-rule="nonzero"/><path fill="#7bc12a" d="M 84.023438 35.359375 C 83.625 35.460938 83.09375 35.136719 82.828125 34.632812 C 82.566406 34.128906 82.675781 33.640625 83.074219 33.539062 C 83.46875 33.4375 84.003906 33.761719 84.265625 34.265625 C 84.527344 34.769531 84.417969 35.257812 84.023438 35.359375 " fill-opacity="1" fill-rule="nonzero"/><path fill="#7bc12a" d="M 83.570312 30.1875 C 83.175781 30.289062 82.640625 29.964844 82.378906 29.460938 C 82.117188 28.957031 82.226562 28.46875 82.621094 28.367188 C 83.019531 28.265625 83.550781 28.589844 83.8125 29.09375 C 84.078125 29.597656 83.964844 30.085938 83.570312 30.1875 " fill-opacity="1" fill-rule="nonzero"/><path fill="#7bc12a" d="M 83.0625 32.710938 C 82.667969 32.808594 82.132812 32.484375 81.871094 31.980469 C 81.609375 31.476562 81.71875 30.988281 82.113281 30.886719 C 82.511719 30.785156 83.046875 31.113281 83.304688 31.617188 C 83.570312 32.117188 83.460938 32.609375 83.0625 32.710938 " fill-opacity="1" fill-rule="nonzero"/><path fill="#7bc12a" d="M 80.972656 81.34375 C 80.609375 81.4375 80.117188 81.136719 79.875 80.675781 C 79.636719 80.210938 79.734375 79.761719 80.101562 79.667969 C 80.464844 79.574219 80.957031 79.875 81.199219 80.335938 C 81.4375 80.800781 81.339844 81.25 80.972656 81.34375 " fill-opacity="1" fill-rule="nonzero"/><path fill="#7bc12a" d="M 85.570312 83.902344 C 85.207031 83.992188 84.714844 83.695312 84.472656 83.230469 C 84.234375 82.765625 84.332031 82.316406 84.699219 82.222656 C 85.0625 82.128906 85.554688 82.429688 85.796875 82.894531 C 86.035156 83.355469 85.9375 83.808594 85.570312 83.902344 " fill-opacity="1" fill-rule="nonzero"/><path fill="#7bc12a" d="M 84.175781 81.546875 C 83.652344 81.683594 82.945312 81.25 82.59375 80.582031 C 82.246094 79.914062 82.390625 79.261719 82.917969 79.128906 C 83.445312 78.996094 84.152344 79.425781 84.5 80.09375 C 84.847656 80.761719 84.703125 81.414062 84.175781 81.546875 " fill-opacity="1" fill-rule="nonzero"/><path fill="#7bc12a" d="M 89.101562 84.0625 C 88.6875 84.410156 87.859375 84.328125 87.253906 83.878906 C 86.648438 83.425781 86.496094 82.777344 86.910156 82.429688 C 87.324219 82.082031 88.152344 82.164062 88.757812 82.617188 C 89.363281 83.066406 89.515625 83.714844 89.101562 84.0625 " fill-opacity="1" fill-rule="nonzero"/><path fill="#7bc12a" d="M 95.503906 76.90625 C 95.714844 77.402344 95.386719 78.164062 94.773438 78.601562 C 94.15625 79.042969 93.492188 78.992188 93.28125 78.496094 C 93.070312 77.996094 93.398438 77.234375 94.015625 76.796875 C 94.628906 76.359375 95.296875 76.40625 95.503906 76.90625 " fill-opacity="1" fill-rule="nonzero"/><path fill="#80be29" d="M 64.304688 16.53125 C 64.304688 16.53125 66.367188 15.128906 68.835938 17.53125 C 66.910156 16.484375 65.546875 16.402344 64.304688 16.53125 " fill-opacity="1" fill-rule="nonzero"/><path fill="#80be29" d="M 61.574219 16.578125 C 61.574219 16.578125 63.417969 15.855469 64.902344 18.140625 C 63.597656 16.996094 62.558594 16.695312 61.574219 16.578125 " fill-opacity="1" fill-rule="nonzero"/><path fill="#80be29" d="M 66.554688 15.441406 C 66.554688 15.441406 69.160156 14.417969 71.257812 17.652344 C 69.414062 16.03125 67.945312 15.605469 66.554688 15.441406 " fill-opacity="1" fill-rule="nonzero"/><path fill="#ffffff" d="M 79.023438 13.472656 C 78.738281 14.859375 77.675781 15.816406 76.648438 15.605469 C 75.617188 15.398438 75.015625 14.105469 75.300781 12.71875 C 75.585938 11.332031 77.078125 10.054688 78.105469 10.265625 C 79.132812 10.472656 79.304688 12.089844 79.023438 13.472656 " fill-opacity="1" fill-rule="nonzero"/><path fill="#f2fbfe" d="M 78.949219 11.085938 C 79.300781 12.328125 78.523438 13.710938 77.269531 13.9375 C 76.507812 14.140625 75.8125 14.050781 75.25 13.75 C 75.355469 14.695312 75.882812 15.449219 76.648438 15.605469 C 77.675781 15.816406 78.738281 14.859375 79.023438 13.472656 C 79.191406 12.640625 79.195312 11.726562 78.949219 11.085938 " fill-opacity="1" fill-rule="nonzero"/><path fill="#30461d" d="M 77.375 10.386719 C 76.605469 10.164062 75.6875 11.664062 75.453125 12.222656 C 75.574219 15.902344 79.167969 13.328125 77.375 10.386719 " fill-opacity="1" fill-rule="nonzero"/><path fill="#ffffff" d="M 77.105469 11.769531 C 77.035156 12.109375 76.835938 12.359375 76.65625 12.324219 C 76.480469 12.289062 76.394531 11.980469 76.464844 11.640625 C 76.535156 11.296875 76.734375 11.050781 76.910156 11.085938 C 77.089844 11.121094 77.175781 11.429688 77.105469 11.769531 " fill-opacity="1" fill-rule="nonzero"/><path fill="#8fcf25" d="M 77.511719 87.007812 L 87.410156 86.460938 C 87.410156 86.460938 93.644531 85.914062 90.527344 92.300781 L 87.59375 97.957031 C 87.59375 97.957031 91.078125 97.410156 91.8125 99.050781 C 91.8125 99.050781 93.277344 102.335938 90.527344 102.335938 C 90.527344 102.335938 90.710938 105.253906 85.578125 103.0625 C 85.578125 103.0625 82.738281 104.054688 81.542969 103.429688 C 81.542969 103.429688 78.058594 101.605469 80.261719 96.859375 L 81.175781 95.035156 C 81.175781 95.035156 71.09375 87.375 77.511719 87.007812 " fill-opacity="1" fill-rule="nonzero"/><path fill="#71b92d" d="M 90.527344 102.335938 C 90.894531 99.050781 86.128906 99.960938 86.128906 99.960938 C 87.898438 100.046875 89.539062 100.4375 90.527344 102.335938 " fill-opacity="1" fill-rule="nonzero"/><path fill="#8fcf25" d="M 76.785156 53.3125 C 76.785156 53.3125 89.070312 48.570312 89.253906 52.039062 C 89.320312 53.234375 91.089844 55.140625 92.371094 55.503906 C 92.371094 55.503906 95.488281 55.140625 95.121094 57.328125 C 95.121094 57.328125 95.855469 58.96875 92.921875 59.152344 C 92.238281 63.300781 90.925781 65.414062 87.238281 59.882812 C 87.238281 59.882812 86.6875 65.171875 81.1875 62.4375 C 81.1875 62.4375 81.003906 58.605469 84.121094 60.066406 L 84.488281 57.511719 C 84.488281 57.511719 78.4375 65.539062 75.503906 60.792969 C 75.503906 60.792969 69.269531 52.039062 76.785156 53.3125 " fill-opacity="1" fill-rule="nonzero"/><path fill="#75c02c" d="M 82.378906 86.742188 C 92.71875 85.625 92.8125 87.757812 88.679688 95.863281 C 90.035156 92.570312 99.917969 83.519531 82.378906 86.742188 " fill-opacity="1" fill-rule="nonzero"/><path fill="#75c02c" d="M 83.546875 91.988281 C 80.257812 96.210938 79.457031 98.25 80.058594 101.890625 C 80.058594 101.890625 76.070312 98.808594 83.546875 91.988281 " fill-opacity="1" fill-rule="nonzero"/><path fill="#527f2d" d="M 50.46875 15.894531 C 50.46875 15.894531 48.328125 12.011719 50.46875 11.957031 C 50.46875 11.957031 53.761719 12.664062 50.46875 15.894531 " fill-opacity="1" fill-rule="nonzero"/><path fill="#527f2d" d="M 45.796875 15.097656 C 45.796875 15.097656 43.765625 11.902344 45.429688 11.671875 C 46.300781 11.550781 48.082031 12.296875 45.796875 15.097656 " fill-opacity="1" fill-rule="nonzero"/><path fill="#75c02c" d="M 87.527344 50.792969 C 79.183594 49.867188 79.785156 53.273438 75.144531 53.195312 C 78.042969 54.332031 80.851562 51.542969 87.527344 50.792969 " fill-opacity="1" fill-rule="nonzero"/><path fill="#75c02c" d="M 73.476562 57.023438 C 74.820312 59.742188 77.03125 65.101562 83.546875 58.632812 C 83.546875 58.632812 76.628906 68.582031 73.476562 57.023438 " fill-opacity="1" fill-rule="nonzero"/><path fill="#f2fbfe" d="M 56.445312 33.640625 C 57.269531 33.921875 58.632812 33.78125 59.75 33.699219 C 58.296875 32.878906 58.171875 31.578125 58.246094 30.207031 C 57.132812 31.414062 56.179688 32.601562 56.445312 33.640625 " fill-opacity="1" fill-rule="nonzero"/><path fill="#d9e2e7" d="M 59.027344 33.148438 C 58.359375 33.285156 57.699219 33.304688 56.992188 33.355469 C 56.789062 33.367188 56.589844 33.347656 56.402344 33.292969 C 56.40625 33.410156 56.417969 33.527344 56.445312 33.640625 C 57.269531 33.921875 58.632812 33.78125 59.75 33.699219 C 59.457031 33.535156 59.222656 33.351562 59.027344 33.148438 " fill-opacity="1" fill-rule="nonzero"/><path fill="#f2fbfe" d="M 50.207031 31.835938 C 51.027344 32.121094 52.277344 33.089844 53.394531 33.007812 C 51.414062 32.160156 51.382812 30.644531 51.980469 29.300781 C 50.273438 29.902344 49.699219 30.558594 50.207031 31.835938 " fill-opacity="1" fill-rule="nonzero"/><path fill="#d9e2e7" d="M 52.1875 32.183594 C 51.402344 31.910156 50.6875 31.515625 50.085938 30.890625 C 50.070312 30.875 50.058594 30.859375 50.046875 30.84375 C 50.003906 31.128906 50.054688 31.453125 50.207031 31.835938 C 51.027344 32.121094 52.277344 33.089844 53.394531 33.011719 C 52.855469 32.777344 52.464844 32.496094 52.1875 32.183594 " fill-opacity="1" fill-rule="nonzero"/><path fill="#f2fbfe" d="M 61.589844 33.347656 C 62.390625 33.160156 63.195312 32.890625 63.917969 32.289062 C 64.128906 30.558594 63.519531 29.753906 62.742188 29.277344 C 62.765625 31 62.378906 32.355469 61.589844 33.347656 " fill-opacity="1" fill-rule="nonzero"/><path fill="#d9e2e7" d="M 63.265625 32.210938 C 62.957031 32.488281 62.523438 32.5625 62.140625 32.457031 C 61.984375 32.777344 61.804688 33.078125 61.589844 33.347656 C 62.390625 33.160156 63.195312 32.890625 63.917969 32.289062 C 63.957031 31.957031 63.96875 31.660156 63.953125 31.390625 C 63.761719 31.691406 63.539062 31.96875 63.265625 32.210938 " fill-opacity="1" fill-rule="nonzero"/><path fill="#f2fbfe" d="M 54.789062 30.765625 L 57.15625 29.300781 C 56.992188 27.890625 56.320312 27.664062 55.292969 27.03125 C 55.546875 28.546875 55.46875 29.234375 54.789062 30.765625 " fill-opacity="1" fill-rule="nonzero"/><path fill="#d9e2e7" d="M 55.480469 29.519531 C 55.398438 29.554688 55.320312 29.578125 55.238281 29.597656 C 55.132812 29.945312 54.988281 30.320312 54.789062 30.765625 L 57.15625 29.300781 C 57.117188 28.964844 57.050781 28.699219 56.953125 28.476562 C 56.558594 28.925781 56.039062 29.265625 55.480469 29.519531 " fill-opacity="1" fill-rule="nonzero"/><path fill="#75c02c" d="M 84.121094 60.066406 L 85.003906 55.417969 C 85.003906 55.417969 85.636719 58.242188 84.121094 60.066406 " fill-opacity="1" fill-rule="nonzero"/><path fill="#acdc53" d="M 69.320312 9.644531 C 67.945312 9.574219 66.320312 8.402344 65.695312 11.519531 C 65.695312 11.519531 65.542969 7.113281 69.320312 9.644531 " fill-opacity="1" fill-rule="nonzero"/><path fill="#acdc53" d="M 79.898438 11.703125 C 77.410156 8.308594 76.328125 10.101562 75.144531 11.519531 C 75.257812 9.953125 78.582031 7.007812 79.898438 11.703125 " fill-opacity="1" fill-rule="nonzero"/><path fill="#cfd77b" d="M 66.371094 46.589844 C 64.523438 47.070312 61.972656 47.03125 59.332031 46.753906 C 59.097656 47.027344 58.757812 47.449219 58.335938 48.003906 C 64.171875 48.347656 66.371094 46.589844 66.371094 46.589844 " fill-opacity="1" fill-rule="nonzero"/><path fill="#cfd77b" d="M 65.320312 63.667969 C 61.703125 65.664062 55.007812 64.925781 50.519531 64.097656 C 50.34375 64.769531 50.179688 65.460938 50.03125 66.164062 C 61.6875 68.992188 65.320312 63.667969 65.320312 63.667969 " fill-opacity="1" fill-rule="nonzero"/><path fill="#cfd77b" d="M 62.5 73.289062 C 59.257812 74.476562 53.539062 74.207031 49.15625 73.738281 C 49.144531 74.226562 49.144531 74.722656 49.152344 75.21875 C 59.277344 76.433594 62.5 73.289062 62.5 73.289062 " fill-opacity="1" fill-rule="nonzero"/><path fill="#cfd77b" d="M 65.160156 55.203125 C 62.375 55.925781 57.984375 55.472656 54.097656 54.789062 C 53.871094 55.234375 53.644531 55.695312 53.417969 56.171875 C 62.054688 57.6875 65.160156 55.203125 65.160156 55.203125 " fill-opacity="1" fill-rule="nonzero"/><path fill="#cfd77b" d="M 69.085938 89.695312 C 66.3125 91.019531 61.34375 91.765625 57.167969 92.175781 C 57.554688 92.523438 57.957031 92.867188 58.382812 93.199219 C 66.730469 92.203125 69.085938 89.695312 69.085938 89.695312 " fill-opacity="1" fill-rule="nonzero"/><path fill="#cfd77b" d="M 63.105469 82.496094 C 60.121094 83.347656 55.046875 83.234375 50.839844 82.929688 C 50.996094 83.316406 51.164062 83.714844 51.347656 84.117188 C 60.222656 84.675781 63.105469 82.496094 63.105469 82.496094 " fill-opacity="1" fill-rule="nonzero"/></svg>