<svg xmlns="http://www.w3.org/2000/svg" xmlns:xlink="http://www.w3.org/1999/xlink" width="200" zoomAndPan="magnify" viewBox="0 0 150 112.499997" height="150" preserveAspectRatio="xMidYMid meet" version="1.0"><defs><clipPath id="b3d142daee"><path d="M 37 12.640625 L 57 12.640625 L 57 36 L 37 36 Z M 37 12.640625 " clip-rule="nonzero"/></clipPath><clipPath id="1fbadb1c37"><path d="M 40.203125 86.089844 L 54.785156 86.089844 L 54.785156 99.253906 L 40.203125 99.253906 Z M 40.203125 86.089844 " clip-rule="nonzero"/></clipPath><clipPath id="829ef795d7"><path d="M 126.378906 82.183594 L 140.992188 82.183594 L 140.992188 95.285156 L 126.378906 95.285156 Z M 126.378906 82.183594 " clip-rule="nonzero"/></clipPath><clipPath id="72166a77ed"><path d="M 126.417969 82.183594 L 140.992188 82.183594 L 140.992188 92.65625 L 126.417969 92.65625 Z M 126.417969 82.183594 " clip-rule="nonzero"/></clipPath></defs><g clip-path="url(#b3d142daee)"><path fill="#7aab21" d="M 46.949219 35.640625 C 46.898438 35.492188 45.84375 32.429688 45.910156 30.441406 C 45.714844 30.519531 45.46875 30.546875 45.15625 30.484375 C 44.089844 30.273438 42.535156 29.339844 40.605469 27.058594 L 40.394531 26.742188 L 40.617188 26.40625 C 40.664062 26.339844 41.542969 25.019531 43.199219 24.78125 C 43.132812 24.742188 43.0625 24.703125 42.992188 24.660156 C 41.515625 23.765625 39.765625 22.371094 37.785156 20.515625 C 37.425781 20.171875 37.308594 19.632812 37.503906 19.175781 C 37.570312 19.019531 37.667969 18.878906 37.792969 18.761719 C 38.078125 18.5 38.46875 18.386719 38.84375 18.464844 C 39.058594 18.503906 39.253906 18.605469 39.414062 18.75 C 42.730469 21.753906 45.261719 23.710938 46.015625 23.859375 C 46.03125 23.863281 46.042969 23.867188 46.054688 23.867188 C 46.125 23.875 46.175781 23.878906 46.21875 23.878906 C 46.210938 23.855469 46.203125 23.828125 46.199219 23.804688 C 46.050781 23.214844 45.707031 21.835938 46.78125 18.996094 C 48.441406 14.625 47.933594 12.707031 47.910156 12.640625 C 48.007812 12.824219 50.617188 17.039062 50.347656 20.867188 C 50.859375 20.5 51.78125 20.027344 53.453125 19.570312 C 54.289062 19.339844 54.867188 18.917969 55.175781 18.316406 C 55.746094 17.199219 55.324219 15.824219 55.304688 15.769531 C 55.417969 15.980469 58.441406 20.777344 52.03125 26.328125 L 51.914062 26.429688 L 51.769531 26.382812 C 51.765625 26.382812 51.738281 26.375 51.695312 26.363281 C 51.554688 26.335938 51.203125 26.292969 51.015625 26.519531 C 50.832031 26.746094 50.640625 27.40625 51.441406 29.339844 C 51.875 30.398438 51.882812 31.417969 51.457031 32.378906 C 50.453125 34.644531 47.425781 35.761719 47.296875 35.808594 L 47.039062 35.902344 L 46.949219 35.640625 " fill-opacity="1" fill-rule="nonzero"/></g><path fill="#548536" d="M 51.109375 29.84375 C 52.785156 33.902344 47.125 35.953125 47.125 35.953125 C 47.125 35.953125 45.707031 31.859375 46.203125 30.105469 C 46.011719 30.578125 45.015625 31.972656 40.765625 26.953125 C 40.765625 26.953125 41.996094 25.070312 44.273438 25.472656 C 43.953125 25.332031 43.550781 25.128906 43.054688 24.828125 C 41.878906 24.117188 40.191406 22.875 37.894531 20.714844 C 37.601562 20.441406 37.527344 20.023438 37.671875 19.679688 C 37.722656 19.558594 37.800781 19.449219 37.898438 19.355469 C 38.253906 19.03125 38.796875 19.027344 39.15625 19.347656 C 40.738281 20.785156 44.859375 24.429688 45.949219 24.535156 C 47.304688 24.667969 45.203125 24.109375 46.957031 19.488281 C 48.632812 15.070312 48.121094 13.375 48.074219 13.230469 C 48.191406 13.457031 50.554688 18.097656 49.910156 22.011719 C 49.910156 22.011719 50.226562 21.109375 53.445312 20.230469 C 56.605469 19.367188 55.425781 16.175781 55.382812 16.0625 C 55.453125 16.191406 58.039062 21.097656 51.773438 26.523438 C 51.773438 26.523438 49.433594 25.78125 51.109375 29.84375 " fill-opacity="1" fill-rule="nonzero"/><path fill="#63b21f" d="M 43.054688 24.828125 C 41.878906 24.117188 40.191406 22.875 37.894531 20.714844 C 37.601562 20.441406 37.527344 20.023438 37.671875 19.679688 C 39.59375 21.238281 42.9375 24.050781 43.054688 24.828125 " fill-opacity="1" fill-rule="nonzero"/><path fill="#7aab21" d="M 139.320312 61.183594 C 139.035156 61.121094 138.238281 61.222656 137.171875 61.417969 C 137.171875 61.421875 137.171875 61.421875 137.167969 61.421875 C 134.9375 61.832031 131.523438 62.660156 129.171875 63.25 C 127.300781 63.71875 125.363281 63.867188 123.441406 63.699219 C 113.019531 62.785156 102.746094 60.136719 93.59375 56.976562 C 81.234375 52.707031 70.925781 47.5 65.074219 44.359375 C 54.464844 38.65625 52.199219 31.992188 48.238281 28.304688 C 44.273438 24.617188 50.863281 25.507812 50.863281 25.507812 L 131.445312 56.746094 C 131.445312 56.746094 140.59375 61.46875 139.320312 61.183594 " fill-opacity="1" fill-rule="nonzero"/><path fill="#456f0d" d="M 109.511719 55.910156 C 100.398438 54.09375 89.984375 50.675781 80.191406 46.285156 C 68.097656 40.867188 57.585938 34.332031 48.9375 26.871094 C 48.738281 26.695312 48.644531 26.4375 48.691406 26.175781 C 48.738281 25.917969 48.914062 25.703125 49.164062 25.609375 C 50.84375 24.96875 55.578125 23.648438 63.210938 25.167969 C 66.527344 25.828125 70.015625 26.957031 73.578125 28.527344 C 89.523438 35.554688 115.605469 43.785156 120.679688 44.941406 C 126.746094 46.320312 133.660156 49.21875 139.019531 60.25 C 139.472656 60.535156 139.492188 60.816406 139.421875 61.007812 C 139.269531 61.429688 138.816406 61.527344 136.394531 61.046875 C 135.320312 60.832031 134.417969 60.558594 133.371094 60.238281 C 131.882812 59.789062 130.027344 59.226562 126.878906 58.597656 C 123.800781 57.984375 120.050781 57.417969 115.417969 56.867188 C 113.601562 56.652344 111.613281 56.328125 109.511719 55.910156 " fill-opacity="1" fill-rule="nonzero"/><path fill="#63b21f" d="M 136.472656 60.648438 C 132.617188 59.878906 130.996094 58.3125 115.464844 56.464844 C 100.039062 54.625 70.484375 44.933594 49.203125 26.5625 C 49.011719 26.394531 49.066406 26.082031 49.308594 25.988281 C 50.730469 25.445312 55.109375 24.160156 62.1875 25.390625 C 65.382812 25.945312 69.136719 27.015625 73.414062 28.902344 C 89.425781 35.953125 115.699219 44.222656 120.589844 45.335938 C 121.441406 45.527344 122.375 45.761719 123.359375 46.070312 C 128.054688 47.542969 134.023438 50.824219 138.707031 60.539062 C 138.707031 60.539062 140.328125 61.414062 136.472656 60.648438 " fill-opacity="1" fill-rule="nonzero"/><path fill="#3a572b" d="M 50.726562 27.449219 C 50.726562 27.449219 59.164062 24.128906 72.035156 31.664062 C 84.90625 39.195312 126.230469 49.636719 129.394531 51.785156 C 132.5625 53.933594 136.417969 60.914062 136.417969 60.914062 C 136.417969 60.914062 133.210938 58.359375 105.9375 54.714844 C 78.664062 51.066406 50.726562 27.449219 50.726562 27.449219 " fill-opacity="1" fill-rule="nonzero"/><path fill="#548536" d="M 65.421875 33.269531 C 64.746094 34.050781 63.816406 34.570312 62.789062 34.527344 C 59.707031 34.398438 57.5625 32.921875 56.375 32.199219 C 55.621094 31.746094 55.132812 29.523438 55.964844 27.867188 C 56.445312 26.910156 57.371094 26.140625 58.941406 26.011719 C 63.230469 25.65625 65.207031 27.984375 65.207031 27.984375 C 67.125 29.121094 66.78125 31.710938 65.421875 33.269531 " fill-opacity="1" fill-rule="nonzero"/><path fill="#93c73f" d="M 65.421875 33.269531 C 63.589844 33.757812 61.601562 33.011719 59.335938 31.820312 C 57.582031 30.902344 56.558594 29.300781 55.964844 27.867188 C 56.445312 26.910156 57.371094 26.140625 58.941406 26.011719 C 63.230469 25.65625 65.207031 27.984375 65.207031 27.984375 C 67.125 29.121094 66.78125 31.710938 65.421875 33.269531 " fill-opacity="1" fill-rule="nonzero"/><path fill="#a8d242" d="M 64.339844 31.203125 C 64.339844 31.203125 66.96875 30.273438 63.90625 28.371094 C 60.847656 26.472656 59.808594 26.105469 58.539062 27.464844 C 57.269531 28.828125 62.492188 32.128906 64.339844 31.203125 " fill-opacity="1" fill-rule="nonzero"/><path fill="#fffdff" d="M 63.050781 28.769531 C 63.050781 28.769531 61.242188 27.277344 60.8125 27.757812 C 60.382812 28.238281 64.695312 30.546875 63.050781 28.769531 " fill-opacity="1" fill-rule="nonzero"/><path fill="#548536" d="M 74.996094 39.320312 C 74.320312 40.097656 73.390625 40.621094 72.363281 40.578125 C 69.28125 40.445312 67.136719 38.96875 65.949219 38.25 C 65.195312 37.792969 64.707031 35.570312 65.539062 33.914062 C 66.023438 32.957031 66.945312 32.191406 68.515625 32.058594 C 72.804688 31.703125 74.78125 34.035156 74.78125 34.035156 C 76.699219 35.171875 76.355469 37.757812 74.996094 39.320312 " fill-opacity="1" fill-rule="nonzero"/><path fill="#93c73f" d="M 74.996094 39.320312 C 73.164062 39.804688 71.175781 39.058594 68.910156 37.871094 C 67.15625 36.949219 66.132812 35.351562 65.539062 33.914062 C 66.023438 32.957031 66.945312 32.191406 68.515625 32.058594 C 72.804688 31.703125 74.78125 34.035156 74.78125 34.035156 C 76.699219 35.171875 76.355469 37.757812 74.996094 39.320312 " fill-opacity="1" fill-rule="nonzero"/><path fill="#a8d242" d="M 73.914062 37.253906 C 73.914062 37.253906 76.542969 36.324219 73.480469 34.421875 C 70.421875 32.519531 69.386719 32.152344 68.113281 33.515625 C 66.84375 34.875 72.066406 38.175781 73.914062 37.253906 " fill-opacity="1" fill-rule="nonzero"/><path fill="#fffdff" d="M 72.628906 34.816406 C 72.628906 34.816406 70.816406 33.324219 70.386719 33.804688 C 69.957031 34.285156 74.269531 36.597656 72.628906 34.816406 " fill-opacity="1" fill-rule="nonzero"/><path fill="#548536" d="M 86.191406 45.265625 C 85.4375 46.167969 84.410156 46.773438 83.28125 46.734375 C 79.894531 46.617188 77.546875 44.945312 76.25 44.128906 C 75.425781 43.609375 74.910156 41.066406 75.84375 39.15625 C 76.382812 38.050781 77.40625 37.160156 79.136719 36.996094 C 83.855469 36.542969 86.003906 39.199219 86.003906 39.199219 C 88.105469 40.484375 87.699219 43.460938 86.191406 45.265625 " fill-opacity="1" fill-rule="nonzero"/><path fill="#93c73f" d="M 86.191406 45.265625 C 84.167969 45.839844 81.992188 45.007812 79.507812 43.664062 C 77.589844 42.625 76.480469 40.796875 75.84375 39.15625 C 76.382812 38.050781 77.40625 37.160156 79.136719 36.996094 C 83.855469 36.542969 86.003906 39.199219 86.003906 39.199219 C 88.105469 40.484375 87.699219 43.460938 86.191406 45.265625 " fill-opacity="1" fill-rule="nonzero"/><path fill="#a8d242" d="M 85.019531 42.902344 C 85.019531 42.902344 87.921875 41.808594 84.574219 39.65625 C 81.226562 37.503906 80.089844 37.09375 78.679688 38.667969 C 77.265625 40.246094 82.976562 43.984375 85.019531 42.902344 " fill-opacity="1" fill-rule="nonzero"/><path fill="#fffdff" d="M 83.628906 40.117188 C 83.628906 40.117188 81.652344 38.425781 81.175781 38.980469 C 80.699219 39.535156 85.417969 42.144531 83.628906 40.117188 " fill-opacity="1" fill-rule="nonzero"/><path fill="#548536" d="M 98.289062 49.746094 C 97.535156 50.648438 96.507812 51.253906 95.382812 51.214844 C 91.992188 51.097656 89.648438 49.425781 88.347656 48.609375 C 87.527344 48.089844 87.007812 45.546875 87.941406 43.636719 C 88.480469 42.53125 89.503906 41.640625 91.234375 41.476562 C 95.953125 41.023438 98.105469 43.679688 98.105469 43.679688 C 100.207031 44.964844 99.800781 47.941406 98.289062 49.746094 " fill-opacity="1" fill-rule="nonzero"/><path fill="#93c73f" d="M 98.289062 49.746094 C 96.269531 50.320312 94.089844 49.488281 91.609375 48.144531 C 89.691406 47.105469 88.582031 45.277344 87.941406 43.636719 C 88.480469 42.53125 89.503906 41.640625 91.234375 41.476562 C 95.953125 41.023438 98.105469 43.679688 98.105469 43.679688 C 100.207031 44.964844 99.800781 47.941406 98.289062 49.746094 " fill-opacity="1" fill-rule="nonzero"/><path fill="#a8d242" d="M 97.121094 47.382812 C 97.121094 47.382812 100.019531 46.289062 96.671875 44.136719 C 93.324219 41.984375 92.1875 41.574219 90.777344 43.148438 C 89.367188 44.726562 95.078125 48.464844 97.121094 47.382812 " fill-opacity="1" fill-rule="nonzero"/><path fill="#fffdff" d="M 95.730469 44.597656 C 95.730469 44.597656 93.75 42.90625 93.273438 43.460938 C 92.796875 44.015625 97.515625 46.625 95.730469 44.597656 " fill-opacity="1" fill-rule="nonzero"/><path fill="#548536" d="M 110.042969 53.191406 C 109.289062 54.09375 108.261719 54.699219 107.132812 54.660156 C 103.746094 54.542969 101.402344 52.871094 100.101562 52.054688 C 99.28125 51.535156 98.761719 48.992188 99.695312 47.082031 C 100.234375 45.976562 101.257812 45.085938 102.988281 44.921875 C 107.707031 44.46875 109.859375 47.125 109.859375 47.125 C 111.960938 48.410156 111.550781 51.386719 110.042969 53.191406 " fill-opacity="1" fill-rule="nonzero"/><path fill="#93c73f" d="M 110.042969 53.191406 C 108.019531 53.765625 105.84375 52.933594 103.363281 51.589844 C 101.445312 50.550781 100.335938 48.722656 99.695312 47.082031 C 100.234375 45.976562 101.257812 45.085938 102.988281 44.921875 C 107.707031 44.46875 109.859375 47.125 109.859375 47.125 C 111.960938 48.410156 111.550781 51.386719 110.042969 53.191406 " fill-opacity="1" fill-rule="nonzero"/><path fill="#a8d242" d="M 108.875 50.828125 C 108.875 50.828125 111.773438 49.734375 108.425781 47.582031 C 105.078125 45.429688 103.941406 45.019531 102.53125 46.59375 C 101.121094 48.171875 106.832031 51.90625 108.875 50.828125 " fill-opacity="1" fill-rule="nonzero"/><path fill="#fffdff" d="M 107.480469 48.042969 C 107.480469 48.042969 105.503906 46.351562 105.027344 46.90625 C 104.550781 47.460938 109.269531 50.070312 107.480469 48.042969 " fill-opacity="1" fill-rule="nonzero"/><path fill="#548536" d="M 121.507812 55.664062 C 120.828125 56.488281 119.898438 57.046875 118.882812 57.015625 C 115.835938 56.914062 113.726562 55.394531 112.558594 54.652344 C 111.820312 54.183594 111.363281 51.863281 112.207031 50.117188 C 112.695312 49.109375 113.621094 48.292969 115.175781 48.136719 C 119.425781 47.710938 121.355469 50.128906 121.355469 50.128906 C 123.242188 51.296875 122.871094 54.015625 121.507812 55.664062 " fill-opacity="1" fill-rule="nonzero"/><path fill="#93c73f" d="M 121.507812 55.664062 C 119.683594 56.195312 117.726562 55.441406 115.496094 54.21875 C 113.773438 53.277344 112.777344 51.613281 112.207031 50.117188 C 112.695312 49.109375 113.621094 48.292969 115.175781 48.136719 C 119.425781 47.710938 121.355469 50.128906 121.355469 50.128906 C 123.242188 51.296875 122.871094 54.015625 121.507812 55.664062 " fill-opacity="1" fill-rule="nonzero"/><path fill="#a8d242" d="M 120.460938 53.511719 C 120.460938 53.511719 123.074219 52.507812 120.066406 50.550781 C 117.058594 48.597656 116.035156 48.222656 114.761719 49.664062 C 113.488281 51.105469 118.617188 54.503906 120.460938 53.511719 " fill-opacity="1" fill-rule="nonzero"/><path fill="#fffdff" d="M 119.214844 50.976562 C 119.214844 50.976562 117.4375 49.433594 117.007812 49.941406 C 116.578125 50.449219 120.816406 52.820312 119.214844 50.976562 " fill-opacity="1" fill-rule="nonzero"/><path fill="#548536" d="M 130.730469 57.851562 C 130.179688 58.535156 129.433594 59 128.617188 58.976562 C 126.171875 58.90625 124.484375 57.664062 123.550781 57.058594 C 122.960938 56.671875 122.601562 54.761719 123.289062 53.320312 C 123.6875 52.488281 124.429688 51.808594 125.683594 51.675781 C 129.097656 51.304688 130.632812 53.289062 130.632812 53.289062 C 132.144531 54.246094 131.832031 56.484375 130.730469 57.851562 " fill-opacity="1" fill-rule="nonzero"/><path fill="#93c73f" d="M 130.730469 57.851562 C 129.265625 58.296875 127.699219 57.683594 125.910156 56.6875 C 124.53125 55.917969 123.742188 54.550781 123.289062 53.320312 C 123.6875 52.488281 124.429688 51.808594 125.683594 51.675781 C 129.097656 51.304688 130.632812 53.289062 130.632812 53.289062 C 132.144531 54.246094 131.832031 56.484375 130.730469 57.851562 " fill-opacity="1" fill-rule="nonzero"/><path fill="#a8d242" d="M 129.898438 56.082031 C 129.898438 56.082031 132 55.242188 129.597656 53.644531 C 127.191406 52.046875 126.371094 51.742188 125.34375 52.9375 C 124.3125 54.128906 128.417969 56.90625 129.898438 56.082031 " fill-opacity="1" fill-rule="nonzero"/><path fill="#fffdff" d="M 128.910156 53.996094 C 128.910156 53.996094 127.492188 52.734375 127.144531 53.15625 C 126.796875 53.574219 130.191406 55.511719 128.910156 53.996094 " fill-opacity="1" fill-rule="nonzero"/><path fill="#548536" d="M 58.878906 37.324219 C 58.878906 37.324219 78.082031 50.535156 96.507812 55.171875 C 96.507812 55.171875 82.257812 53.855469 58.878906 37.324219 " fill-opacity="1" fill-rule="nonzero"/><path fill="#548536" d="M 137.167969 61.421875 C 134.9375 61.832031 131.523438 62.660156 129.171875 63.25 C 127.300781 63.71875 125.363281 63.867188 123.441406 63.699219 C 113.019531 62.785156 102.746094 60.136719 93.59375 56.976562 C 94.324219 56.832031 96.292969 57.085938 100.097656 57.960938 C 100.097656 57.960938 117.382812 62.78125 124.296875 62.777344 C 128.277344 62.777344 133.84375 61.488281 137.167969 61.421875 " fill-opacity="1" fill-rule="nonzero"/><path fill="#548536" d="M 51.425781 24.105469 C 51.425781 24.105469 47.785156 25.730469 49.433594 30.613281 C 51.085938 35.496094 38.957031 22.867188 51.425781 24.105469 " fill-opacity="1" fill-rule="nonzero"/><path fill="#426b28" d="M 49.671875 25.277344 C 49.671875 25.277344 48.925781 26.234375 48.769531 27.71875 C 48.609375 29.207031 47.597656 27.347656 47.945312 26.3125 C 48.289062 25.277344 48.875 25.117188 49.671875 25.277344 " fill-opacity="1" fill-rule="nonzero"/><path fill="#426b28" d="M 47.730469 23.921875 C 47.730469 23.921875 47.304688 21.90625 47.941406 19.410156 C 48.578125 16.914062 48.578125 16.222656 48.578125 16.222656 C 48.578125 16.222656 50.597656 20.628906 47.730469 23.921875 " fill-opacity="1" fill-rule="nonzero"/><path fill="#426b28" d="M 49.855469 24.144531 C 49.855469 24.144531 51.105469 22.25 53.074219 21.398438 C 55.039062 20.546875 55.515625 19.539062 55.515625 19.539062 C 55.515625 19.539062 52.570312 24.894531 49.855469 24.144531 " fill-opacity="1" fill-rule="nonzero"/><path fill="#426b28" d="M 45.921875 26.738281 C 45.921875 26.738281 44.113281 26.101562 42.414062 27.007812 C 42.414062 27.007812 44.675781 28.835938 45.527344 28.730469 C 46.375 28.625 47.679688 26.949219 45.921875 26.738281 " fill-opacity="1" fill-rule="nonzero"/><path fill="#426b28" d="M 48 29.5 C 48 29.5 47.121094 30.429688 47.734375 32.898438 C 47.734375 32.898438 47.628906 34.117188 47.550781 34.515625 C 47.550781 34.515625 49.410156 32.113281 49.554688 31.042969 C 49.699219 29.976562 49.273438 28.648438 48 29.5 " fill-opacity="1" fill-rule="nonzero"/><path fill="#517c35" d="M 123.359375 46.070312 C 107.4375 44.277344 82.191406 34.363281 75.96875 31.34375 C 67.777344 27.363281 64.71875 26.753906 64.71875 26.753906 C 63.761719 26.265625 62.921875 25.8125 62.1875 25.390625 C 65.382812 25.945312 69.136719 27.015625 73.414062 28.902344 C 89.425781 35.953125 115.699219 44.222656 120.589844 45.335938 C 121.441406 45.527344 122.371094 45.761719 123.359375 46.070312 " fill-opacity="1" fill-rule="nonzero"/><path fill="#548536" d="M 105.398438 92.816406 C 104.875 94.339844 103.933594 95.574219 102.636719 95.960938 C 98.742188 97.121094 95.460938 95.75 93.683594 95.144531 C 92.558594 94.761719 91.03125 91.488281 91.390625 88.519531 C 91.597656 86.800781 92.429688 85.183594 94.332031 84.28125 C 99.53125 81.824219 102.953125 84.609375 102.953125 84.609375 C 105.816406 85.546875 106.449219 89.765625 105.398438 92.816406 " fill-opacity="1" fill-rule="nonzero"/><path fill="#93c73f" d="M 105.398438 92.816406 C 103.3125 94.394531 100.53125 94.101562 97.214844 93.238281 C 94.65625 92.566406 92.71875 90.507812 91.390625 88.519531 C 91.597656 86.800781 92.429688 85.183594 94.332031 84.28125 C 99.53125 81.824219 102.953125 84.609375 102.953125 84.609375 C 105.816406 85.546875 106.449219 89.765625 105.398438 92.816406 " fill-opacity="1" fill-rule="nonzero"/><path fill="#a8d242" d="M 103.203125 90.050781 C 103.203125 90.050781 106.09375 87.425781 101.496094 85.792969 C 96.898438 84.160156 95.457031 84.042969 94.433594 86.746094 C 93.410156 89.445312 101.277344 92.320312 103.203125 90.050781 " fill-opacity="1" fill-rule="nonzero"/><path fill="#fffdff" d="M 100.59375 86.792969 C 100.59375 86.792969 97.722656 85.253906 97.382812 86.195312 C 97.046875 87.140625 103.371094 88.863281 100.59375 86.792969 " fill-opacity="1" fill-rule="nonzero"/><g clip-path="url(#1fbadb1c37)"><path fill="#548536" d="M 54.289062 95.660156 C 53.765625 97.183594 52.820312 98.414062 51.527344 98.800781 C 47.632812 99.964844 44.347656 98.59375 42.574219 97.988281 C 41.445312 97.601562 39.921875 94.332031 40.277344 91.359375 C 40.484375 89.644531 41.320312 88.027344 43.222656 87.125 C 48.421875 84.667969 51.84375 87.453125 51.84375 87.453125 C 54.703125 88.386719 55.339844 92.609375 54.289062 95.660156 " fill-opacity="1" fill-rule="nonzero"/></g><path fill="#93c73f" d="M 54.289062 95.660156 C 52.203125 97.234375 49.421875 96.945312 46.105469 96.082031 C 43.542969 95.410156 41.609375 93.351562 40.277344 91.359375 C 40.484375 89.644531 41.320312 88.027344 43.222656 87.125 C 48.421875 84.667969 51.84375 87.453125 51.84375 87.453125 C 54.703125 88.386719 55.339844 92.609375 54.289062 95.660156 " fill-opacity="1" fill-rule="nonzero"/><path fill="#a8d242" d="M 52.089844 92.894531 C 52.089844 92.894531 54.980469 90.269531 50.386719 88.636719 C 45.789062 87.003906 44.347656 86.886719 43.324219 89.589844 C 42.300781 92.289062 50.167969 95.164062 52.089844 92.894531 " fill-opacity="1" fill-rule="nonzero"/><path fill="#fffdff" d="M 49.480469 89.636719 C 49.480469 89.636719 46.609375 88.09375 46.273438 89.039062 C 45.9375 89.984375 52.261719 91.707031 49.480469 89.636719 " fill-opacity="1" fill-rule="nonzero"/><path fill="#548536" d="M 62.964844 81.308594 C 62.441406 82.835938 61.5 84.066406 60.203125 84.453125 C 56.308594 85.613281 53.027344 84.242188 51.25 83.636719 C 50.125 83.253906 48.597656 79.980469 48.957031 77.011719 C 49.160156 75.292969 49.996094 73.675781 51.902344 72.773438 C 57.097656 70.316406 60.519531 73.101562 60.519531 73.101562 C 63.382812 74.039062 64.015625 78.257812 62.964844 81.308594 " fill-opacity="1" fill-rule="nonzero"/><path fill="#93c73f" d="M 62.964844 81.308594 C 60.878906 82.886719 58.101562 82.59375 54.78125 81.730469 C 52.222656 81.058594 50.285156 79 48.957031 77.011719 C 49.160156 75.292969 49.996094 73.675781 51.902344 72.773438 C 57.097656 70.316406 60.519531 73.101562 60.519531 73.101562 C 63.382812 74.039062 64.015625 78.257812 62.964844 81.308594 " fill-opacity="1" fill-rule="nonzero"/><path fill="#a8d242" d="M 60.765625 78.542969 C 60.765625 78.542969 63.660156 75.917969 59.0625 74.285156 C 54.464844 72.65625 53.023438 72.535156 52 75.238281 C 50.976562 77.9375 58.84375 80.8125 60.765625 78.542969 " fill-opacity="1" fill-rule="nonzero"/><path fill="#fffdff" d="M 58.15625 75.285156 C 58.15625 75.285156 55.289062 73.746094 54.949219 74.6875 C 54.613281 75.632812 60.9375 77.355469 58.15625 75.285156 " fill-opacity="1" fill-rule="nonzero"/><path fill="#548536" d="M 72.050781 86.589844 C 71.527344 88.113281 70.582031 89.34375 69.285156 89.730469 C 65.390625 90.894531 62.109375 89.523438 60.332031 88.917969 C 59.207031 88.53125 57.683594 85.261719 58.039062 82.289062 C 58.246094 80.574219 59.078125 78.957031 60.984375 78.054688 C 66.179688 75.59375 69.605469 78.382812 69.605469 78.382812 C 72.464844 79.316406 73.097656 83.539062 72.050781 86.589844 " fill-opacity="1" fill-rule="nonzero"/><path fill="#93c73f" d="M 72.050781 86.589844 C 69.964844 88.164062 67.183594 87.875 63.867188 87.007812 C 61.304688 86.339844 59.367188 84.28125 58.039062 82.289062 C 58.246094 80.574219 59.078125 78.957031 60.984375 78.054688 C 66.179688 75.59375 69.605469 78.382812 69.605469 78.382812 C 72.464844 79.316406 73.097656 83.539062 72.050781 86.589844 " fill-opacity="1" fill-rule="nonzero"/><path fill="#a8d242" d="M 69.851562 83.824219 C 69.851562 83.824219 72.742188 81.199219 68.144531 79.566406 C 63.546875 77.933594 62.105469 77.816406 61.082031 80.515625 C 60.058594 83.21875 67.925781 86.09375 69.851562 83.824219 " fill-opacity="1" fill-rule="nonzero"/><path fill="#fffdff" d="M 67.242188 80.566406 C 67.242188 80.566406 64.371094 79.023438 64.035156 79.96875 C 63.699219 80.910156 70.019531 82.636719 67.242188 80.566406 " fill-opacity="1" fill-rule="nonzero"/><g clip-path="url(#829ef795d7)"><path fill="#548536" d="M 140.707031 91.234375 C 140.296875 92.792969 139.445312 94.085938 138.183594 94.566406 C 134.382812 96.011719 131.007812 94.882812 129.191406 94.40625 C 128.042969 94.105469 126.28125 90.953125 126.421875 87.964844 C 126.5 86.238281 127.214844 84.566406 129.046875 83.527344 C 134.050781 80.695312 137.667969 83.226562 137.667969 83.226562 C 140.589844 83.949219 141.53125 88.113281 140.707031 91.234375 " fill-opacity="1" fill-rule="nonzero"/></g><g clip-path="url(#72166a77ed)"><path fill="#93c73f" d="M 140.707031 91.234375 C 138.742188 92.957031 135.949219 92.871094 132.578125 92.25 C 129.972656 91.765625 127.894531 89.855469 126.421875 87.964844 C 126.5 86.238281 127.214844 84.566406 129.046875 83.527344 C 134.050781 80.695312 137.667969 83.226562 137.667969 83.226562 C 140.589844 83.949219 141.53125 88.113281 140.707031 91.234375 " fill-opacity="1" fill-rule="nonzero"/></g><path fill="#a8d242" d="M 138.3125 88.632812 C 138.3125 88.632812 141.003906 85.804688 136.300781 84.511719 C 131.597656 83.21875 130.148438 83.207031 129.328125 85.976562 C 128.503906 88.746094 136.558594 91.035156 138.3125 88.632812 " fill-opacity="1" fill-rule="nonzero"/><path fill="#fffdff" d="M 135.472656 85.574219 C 135.472656 85.574219 132.496094 84.246094 132.230469 85.214844 C 131.964844 86.179688 138.394531 87.4375 135.472656 85.574219 " fill-opacity="1" fill-rule="nonzero"/><path fill="#7aab21" d="M 21.59375 56.449219 C 21.515625 56.3125 19.882812 53.515625 19.558594 51.550781 C 19.382812 51.664062 19.144531 51.742188 18.828125 51.742188 C 17.738281 51.742188 16.03125 51.128906 13.695312 49.273438 L 13.421875 49 L 13.578125 48.628906 C 13.609375 48.554688 14.214844 47.085938 15.792969 46.53125 C 15.71875 46.507812 15.640625 46.480469 15.566406 46.453125 C 13.941406 45.863281 11.949219 44.839844 9.648438 43.402344 C 9.222656 43.136719 9.007812 42.632812 9.105469 42.144531 C 9.140625 41.976562 9.210938 41.820312 9.308594 41.679688 C 9.535156 41.371094 9.898438 41.183594 10.285156 41.183594 C 10.5 41.183594 10.710938 41.242188 10.898438 41.355469 C 14.738281 43.652344 17.601562 45.078125 18.371094 45.078125 C 18.386719 45.078125 18.398438 45.078125 18.410156 45.078125 C 18.480469 45.070312 18.53125 45.0625 18.574219 45.058594 C 18.5625 45.035156 18.550781 45.011719 18.542969 44.988281 C 18.28125 44.4375 17.671875 43.152344 18.171875 40.15625 C 18.941406 35.546875 18.066406 33.765625 18.03125 33.703125 C 18.164062 33.867188 21.546875 37.488281 22.035156 41.292969 C 22.464844 40.835938 23.277344 40.191406 24.824219 39.417969 C 25.601562 39.03125 26.085938 38.503906 26.269531 37.851562 C 26.609375 36.644531 25.929688 35.378906 25.894531 35.328125 C 26.050781 35.511719 29.953125 39.628906 24.753906 46.324219 L 24.660156 46.445312 L 24.507812 46.425781 C 24.503906 46.425781 24.476562 46.425781 24.433594 46.425781 C 24.289062 46.425781 23.933594 46.453125 23.796875 46.710938 C 23.660156 46.964844 23.605469 47.652344 24.765625 49.390625 C 25.398438 50.34375 25.605469 51.34375 25.375 52.371094 C 24.835938 54.785156 22.085938 56.472656 21.96875 56.542969 L 21.734375 56.6875 L 21.59375 56.449219 " fill-opacity="1" fill-rule="nonzero"/><path fill="#548536" d="M 24.539062 49.949219 C 26.980469 53.605469 21.828125 56.71875 21.828125 56.71875 C 21.828125 56.71875 19.632812 52.980469 19.78125 51.164062 C 19.683594 51.667969 18.980469 53.230469 13.828125 49.136719 C 13.828125 49.136719 14.667969 47.050781 16.980469 47 C 16.636719 46.921875 16.203125 46.800781 15.660156 46.605469 C 14.367188 46.136719 12.46875 45.25 9.789062 43.578125 C 9.449219 43.367188 9.296875 42.972656 9.371094 42.605469 C 9.398438 42.480469 9.449219 42.355469 9.53125 42.246094 C 9.8125 41.855469 10.347656 41.746094 10.761719 41.996094 C 12.597656 43.09375 17.351562 45.859375 18.4375 45.753906 C 19.792969 45.617188 17.625 45.480469 18.4375 40.609375 C 19.21875 35.949219 18.382812 34.382812 18.308594 34.253906 C 18.46875 34.449219 21.695312 38.542969 21.828125 42.503906 C 21.828125 42.503906 21.964844 41.554688 24.945312 40.066406 C 27.878906 38.601562 26.097656 35.703125 26.03125 35.601562 C 26.125 35.714844 29.625 40.019531 24.539062 46.566406 C 24.539062 46.566406 22.097656 46.292969 24.539062 49.949219 " fill-opacity="1" fill-rule="nonzero"/><path fill="#63b21f" d="M 15.660156 46.605469 C 14.367188 46.136719 12.46875 45.25 9.789062 43.578125 C 9.449219 43.367188 9.296875 42.972656 9.371094 42.605469 C 11.558594 43.761719 15.390625 45.867188 15.660156 46.605469 " fill-opacity="1" fill-rule="nonzero"/><path fill="#7aab21" d="M 117.183594 63.457031 C 116.890625 63.449219 116.132812 63.707031 115.125 64.105469 C 115.125 64.109375 115.125 64.109375 115.121094 64.109375 C 113.011719 64.949219 109.828125 66.429688 107.636719 67.464844 C 105.894531 68.289062 104.023438 68.8125 102.105469 69.023438 C 91.707031 70.164062 81.109375 69.574219 71.519531 68.261719 C 58.5625 66.488281 47.433594 63.398438 41.078125 61.457031 C 29.554688 57.9375 26.03125 51.84375 21.421875 49 C 16.8125 46.160156 23.449219 45.75 23.449219 45.75 L 108.59375 60.644531 C 108.59375 60.644531 118.488281 63.488281 117.183594 63.457031 " fill-opacity="1" fill-rule="nonzero"/><path fill="#456f0d" d="M 86.921875 64.105469 C 77.628906 64.105469 66.746094 62.789062 56.277344 60.394531 C 43.359375 57.441406 31.769531 53.089844 21.828125 47.457031 C 21.597656 47.328125 21.457031 47.089844 21.453125 46.828125 C 21.445312 46.5625 21.574219 46.320312 21.800781 46.179688 C 23.324219 45.222656 27.707031 43 35.492188 43 C 38.875 43 42.515625 43.429688 46.320312 44.273438 C 63.328125 48.046875 90.519531 51.027344 95.726562 51.167969 C 101.941406 51.335938 109.292969 52.828125 116.707031 62.601562 C 117.207031 62.792969 117.28125 63.0625 117.25 63.265625 C 117.183594 63.707031 116.757812 63.894531 114.289062 63.894531 C 113.195312 63.894531 112.253906 63.800781 111.164062 63.695312 C 109.617188 63.542969 107.691406 63.351562 104.476562 63.351562 C 101.335938 63.351562 97.550781 63.527344 92.898438 63.890625 C 91.074219 64.035156 89.0625 64.105469 86.921875 64.105469 " fill-opacity="1" fill-rule="nonzero"/><path fill="#63b21f" d="M 114.285156 63.488281 C 110.355469 63.488281 108.457031 62.269531 92.867188 63.488281 C 77.375 64.699219 46.492188 60.964844 22.027344 47.105469 C 21.804688 46.976562 21.800781 46.660156 22.019531 46.523438 C 23.308594 45.710938 27.347656 43.597656 34.53125 43.417969 C 37.773438 43.339844 41.664062 43.65625 46.230469 44.667969 C 63.3125 48.460938 90.699219 51.4375 95.714844 51.574219 C 96.585938 51.597656 97.542969 51.640625 98.574219 51.753906 C 103.464844 52.28125 109.960938 54.335938 116.457031 62.945312 C 116.457031 62.945312 118.21875 63.488281 114.285156 63.488281 " fill-opacity="1" fill-rule="nonzero"/><path fill="#3a572b" d="M 23.695312 47.675781 C 23.695312 47.675781 31.316406 42.773438 45.417969 47.648438 C 59.515625 52.519531 102.085938 54.6875 105.609375 56.175781 C 109.136719 57.664062 114.285156 63.757812 114.285156 63.757812 C 114.285156 63.757812 110.640625 61.878906 83.179688 63.632812 C 55.722656 65.382812 23.695312 47.675781 23.695312 47.675781 " fill-opacity="1" fill-rule="nonzero"/><path fill="#548536" d="M 39.246094 50.515625 C 38.734375 51.414062 37.925781 52.105469 36.910156 52.265625 C 33.863281 52.738281 31.46875 51.710938 30.164062 51.234375 C 29.335938 50.933594 28.421875 48.851562 28.914062 47.066406 C 29.199219 46.03125 29.953125 45.097656 31.46875 44.664062 C 35.605469 43.476562 38 45.375 38 45.375 C 40.105469 46.113281 40.273438 48.722656 39.246094 50.515625 " fill-opacity="1" fill-rule="nonzero"/><path fill="#93c73f" d="M 39.246094 50.515625 C 37.542969 51.351562 35.449219 51.007812 32.992188 50.285156 C 31.09375 49.722656 29.777344 48.355469 28.914062 47.066406 C 29.199219 46.03125 29.953125 45.097656 31.46875 44.664062 C 35.605469 43.476562 38 45.375 38 45.375 C 40.105469 46.113281 40.273438 48.722656 39.246094 50.515625 " fill-opacity="1" fill-rule="nonzero"/><path fill="#a8d242" d="M 37.78125 48.699219 C 37.78125 48.699219 40.175781 47.277344 36.800781 46.007812 C 33.429688 44.742188 32.339844 44.582031 31.359375 46.167969 C 30.382812 47.75 36.148438 49.96875 37.78125 48.699219 " fill-opacity="1" fill-rule="nonzero"/><path fill="#fffdff" d="M 36.039062 46.5625 C 36.039062 46.5625 33.972656 45.453125 33.644531 46.007812 C 33.320312 46.5625 38 47.988281 36.039062 46.5625 " fill-opacity="1" fill-rule="nonzero"/><path fill="#548536" d="M 49.820312 54.578125 C 49.308594 55.472656 48.5 56.167969 47.484375 56.324219 C 44.4375 56.800781 42.042969 55.769531 40.738281 55.296875 C 39.910156 54.996094 38.996094 52.914062 39.488281 51.125 C 39.773438 50.09375 40.527344 49.160156 42.042969 48.722656 C 46.179688 47.535156 48.574219 49.4375 48.574219 49.4375 C 50.679688 50.175781 50.847656 52.78125 49.820312 54.578125 " fill-opacity="1" fill-rule="nonzero"/><path fill="#93c73f" d="M 49.820312 54.578125 C 48.117188 55.414062 46.023438 55.070312 43.566406 54.34375 C 41.667969 53.785156 40.351562 52.417969 39.488281 51.125 C 39.773438 50.09375 40.527344 49.160156 42.042969 48.722656 C 46.179688 47.535156 48.574219 49.4375 48.574219 49.4375 C 50.679688 50.175781 50.847656 52.78125 49.820312 54.578125 " fill-opacity="1" fill-rule="nonzero"/><path fill="#a8d242" d="M 48.355469 52.761719 C 48.355469 52.761719 50.75 51.335938 47.375 50.070312 C 44.003906 48.804688 42.914062 48.644531 41.933594 50.226562 C 40.957031 51.8125 46.722656 54.027344 48.355469 52.761719 " fill-opacity="1" fill-rule="nonzero"/><path fill="#fffdff" d="M 46.613281 50.625 C 46.613281 50.625 44.546875 49.515625 44.222656 50.070312 C 43.894531 50.625 48.574219 52.050781 46.613281 50.625 " fill-opacity="1" fill-rule="nonzero"/><path fill="#548536" d="M 61.964844 58.222656 C 61.402344 59.253906 60.511719 60.050781 59.398438 60.234375 C 56.054688 60.777344 53.425781 59.59375 51.992188 59.050781 C 51.082031 58.703125 50.078125 56.308594 50.617188 54.253906 C 50.933594 53.066406 51.761719 51.992188 53.425781 51.492188 C 57.964844 50.125 60.59375 52.308594 60.59375 52.308594 C 62.90625 53.160156 63.089844 56.160156 61.964844 58.222656 " fill-opacity="1" fill-rule="nonzero"/><path fill="#93c73f" d="M 61.964844 58.222656 C 60.09375 59.183594 57.796875 58.789062 55.097656 57.957031 C 53.011719 57.3125 51.566406 55.738281 50.617188 54.253906 C 50.933594 53.066406 51.761719 51.992188 53.425781 51.492188 C 57.964844 50.125 60.59375 52.308594 60.59375 52.308594 C 62.90625 53.160156 63.089844 56.160156 61.964844 58.222656 " fill-opacity="1" fill-rule="nonzero"/><path fill="#a8d242" d="M 60.355469 56.132812 C 60.355469 56.132812 62.984375 54.496094 59.277344 53.039062 C 55.574219 51.582031 54.378906 51.398438 53.304688 53.222656 C 52.230469 55.042969 58.5625 57.589844 60.355469 56.132812 " fill-opacity="1" fill-rule="nonzero"/><path fill="#fffdff" d="M 58.441406 53.675781 C 58.441406 53.675781 56.171875 52.402344 55.8125 53.039062 C 55.457031 53.675781 60.59375 55.316406 58.441406 53.675781 " fill-opacity="1" fill-rule="nonzero"/><path fill="#548536" d="M 74.707031 60.253906 C 74.144531 61.285156 73.257812 62.082031 72.140625 62.261719 C 68.796875 62.808594 66.167969 61.625 64.734375 61.078125 C 63.824219 60.734375 62.820312 58.339844 63.363281 56.285156 C 63.675781 55.097656 64.503906 54.019531 66.167969 53.519531 C 70.707031 52.15625 73.335938 54.339844 73.335938 54.339844 C 75.648438 55.191406 75.832031 58.1875 74.707031 60.253906 " fill-opacity="1" fill-rule="nonzero"/><path fill="#93c73f" d="M 74.707031 60.253906 C 72.835938 61.214844 70.539062 60.820312 67.839844 59.988281 C 65.757812 59.34375 64.308594 57.769531 63.363281 56.285156 C 63.675781 55.097656 64.503906 54.019531 66.167969 53.519531 C 70.707031 52.15625 73.335938 54.339844 73.335938 54.339844 C 75.648438 55.191406 75.832031 58.1875 74.707031 60.253906 " fill-opacity="1" fill-rule="nonzero"/><path fill="#a8d242" d="M 73.097656 58.164062 C 73.097656 58.164062 75.726562 56.527344 72.023438 55.070312 C 68.320312 53.613281 67.125 53.429688 66.046875 55.25 C 64.972656 57.074219 71.304688 59.621094 73.097656 58.164062 " fill-opacity="1" fill-rule="nonzero"/><path fill="#fffdff" d="M 71.1875 55.707031 C 71.1875 55.707031 68.917969 54.433594 68.558594 55.070312 C 68.199219 55.707031 73.335938 57.34375 71.1875 55.707031 " fill-opacity="1" fill-rule="nonzero"/><path fill="#548536" d="M 86.90625 61.335938 C 86.347656 62.367188 85.457031 63.164062 84.34375 63.347656 C 80.996094 63.894531 78.371094 62.710938 76.933594 62.164062 C 76.027344 61.816406 75.023438 59.421875 75.5625 57.367188 C 75.875 56.179688 76.707031 55.105469 78.371094 54.605469 C 82.910156 53.238281 85.539062 55.425781 85.539062 55.425781 C 87.851562 56.273438 88.035156 59.273438 86.90625 61.335938 " fill-opacity="1" fill-rule="nonzero"/><path fill="#93c73f" d="M 86.90625 61.335938 C 85.039062 62.296875 82.738281 61.902344 80.042969 61.070312 C 77.957031 60.425781 76.511719 58.851562 75.5625 57.367188 C 75.875 56.179688 76.707031 55.105469 78.371094 54.605469 C 82.910156 53.238281 85.539062 55.425781 85.539062 55.425781 C 87.851562 56.273438 88.035156 59.273438 86.90625 61.335938 " fill-opacity="1" fill-rule="nonzero"/><path fill="#a8d242" d="M 85.300781 59.25 C 85.300781 59.25 87.929688 57.609375 84.222656 56.152344 C 80.519531 54.695312 79.324219 54.511719 78.25 56.335938 C 77.175781 58.15625 83.507812 60.707031 85.300781 59.25 " fill-opacity="1" fill-rule="nonzero"/><path fill="#fffdff" d="M 83.386719 56.789062 C 83.386719 56.789062 81.117188 55.515625 80.757812 56.152344 C 80.402344 56.789062 85.539062 58.429688 83.386719 56.789062 " fill-opacity="1" fill-rule="nonzero"/><path fill="#548536" d="M 98.632812 61.523438 C 98.128906 62.464844 97.328125 63.191406 96.328125 63.359375 C 93.316406 63.859375 90.953125 62.777344 89.660156 62.277344 C 88.84375 61.960938 87.941406 59.777344 88.429688 57.898438 C 88.710938 56.816406 89.457031 55.832031 90.953125 55.378906 C 95.035156 54.128906 97.402344 56.125 97.402344 56.125 C 99.484375 56.902344 99.648438 59.640625 98.632812 61.523438 " fill-opacity="1" fill-rule="nonzero"/><path fill="#93c73f" d="M 98.632812 61.523438 C 96.953125 62.398438 94.882812 62.039062 92.457031 61.28125 C 90.582031 60.691406 89.28125 59.253906 88.429688 57.898438 C 88.710938 56.816406 89.457031 55.832031 90.953125 55.378906 C 95.035156 54.128906 97.402344 56.125 97.402344 56.125 C 99.484375 56.902344 99.648438 59.640625 98.632812 61.523438 " fill-opacity="1" fill-rule="nonzero"/><path fill="#a8d242" d="M 97.1875 59.617188 C 97.1875 59.617188 99.550781 58.121094 96.21875 56.789062 C 92.886719 55.460938 91.8125 55.292969 90.84375 56.957031 C 89.878906 58.621094 95.574219 60.949219 97.1875 59.617188 " fill-opacity="1" fill-rule="nonzero"/><path fill="#fffdff" d="M 95.46875 57.371094 C 95.46875 57.371094 93.425781 56.207031 93.101562 56.789062 C 92.78125 57.371094 97.402344 58.867188 95.46875 57.371094 " fill-opacity="1" fill-rule="nonzero"/><path fill="#548536" d="M 108.109375 61.867188 C 107.703125 62.644531 107.0625 63.242188 106.257812 63.382812 C 103.84375 63.792969 101.949219 62.902344 100.914062 62.488281 C 100.257812 62.230469 99.535156 60.425781 99.925781 58.875 C 100.148438 57.980469 100.75 57.171875 101.949219 56.792969 C 105.222656 55.765625 107.121094 57.414062 107.121094 57.414062 C 108.789062 58.054688 108.921875 60.3125 108.109375 61.867188 " fill-opacity="1" fill-rule="nonzero"/><path fill="#93c73f" d="M 108.109375 61.867188 C 106.757812 62.589844 105.101562 62.292969 103.15625 61.667969 C 101.652344 61.179688 100.609375 59.996094 99.925781 58.875 C 100.148438 57.980469 100.75 57.171875 101.949219 56.792969 C 105.222656 55.765625 107.121094 57.414062 107.121094 57.414062 C 108.789062 58.054688 108.921875 60.3125 108.109375 61.867188 " fill-opacity="1" fill-rule="nonzero"/><path fill="#a8d242" d="M 106.949219 60.292969 C 106.949219 60.292969 108.84375 59.058594 106.171875 57.960938 C 103.5 56.863281 102.636719 56.726562 101.863281 58.097656 C 101.085938 59.46875 105.65625 61.390625 106.949219 60.292969 " fill-opacity="1" fill-rule="nonzero"/><path fill="#fffdff" d="M 105.570312 58.441406 C 105.570312 58.441406 103.929688 57.480469 103.671875 57.960938 C 103.414062 58.441406 107.121094 59.675781 105.570312 58.441406 " fill-opacity="1" fill-rule="nonzero"/><path fill="#548536" d="M 33.621094 55.769531 C 33.621094 55.769531 55.042969 64.976562 74.023438 65.925781 C 74.023438 65.925781 59.789062 67.414062 33.621094 55.769531 " fill-opacity="1" fill-rule="nonzero"/><path fill="#548536" d="M 115.121094 64.109375 C 113.011719 64.949219 109.828125 66.429688 107.636719 67.464844 C 105.894531 68.289062 104.023438 68.8125 102.105469 69.023438 C 91.707031 70.164062 81.109375 69.574219 71.519531 68.261719 C 72.207031 67.976562 74.183594 67.84375 78.089844 67.953125 C 78.089844 67.953125 95.984375 69.308594 102.761719 67.953125 C 106.667969 67.175781 111.871094 64.824219 115.121094 64.109375 " fill-opacity="1" fill-rule="nonzero"/><path fill="#548536" d="M 23.726562 44.261719 C 23.726562 44.261719 20.472656 46.566406 23.046875 51.03125 C 25.625 55.5 11.253906 45.480469 23.726562 44.261719 " fill-opacity="1" fill-rule="nonzero"/><path fill="#426b28" d="M 22.234375 45.753906 C 22.234375 45.753906 21.691406 46.835938 21.828125 48.324219 C 21.964844 49.8125 20.609375 48.1875 20.742188 47.105469 C 20.878906 46.023438 21.421875 45.753906 22.234375 45.753906 " fill-opacity="1" fill-rule="nonzero"/><path fill="#426b28" d="M 20.066406 44.804688 C 20.066406 44.804688 19.253906 42.910156 19.386719 40.335938 C 19.523438 37.765625 19.386719 37.089844 19.386719 37.089844 C 19.386719 37.089844 22.234375 41.015625 20.066406 44.804688 " fill-opacity="1" fill-rule="nonzero"/><path fill="#426b28" d="M 22.195312 44.605469 C 22.195312 44.605469 23.046875 42.503906 24.8125 41.285156 C 26.574219 40.066406 26.84375 38.984375 26.84375 38.984375 C 26.84375 38.984375 25.003906 44.8125 22.195312 44.605469 " fill-opacity="1" fill-rule="nonzero"/><path fill="#426b28" d="M 18.84375 47.917969 C 18.84375 47.917969 16.949219 47.648438 15.457031 48.867188 C 15.457031 48.867188 18.03125 50.21875 18.84375 49.949219 C 19.660156 49.679688 20.609375 47.78125 18.84375 47.917969 " fill-opacity="1" fill-rule="nonzero"/><path fill="#426b28" d="M 21.421875 50.21875 C 21.421875 50.21875 20.742188 51.304688 21.828125 53.605469 C 21.828125 53.605469 21.964844 54.824219 21.964844 55.230469 C 21.964844 55.230469 23.316406 52.507812 23.25 51.433594 C 23.183594 50.355469 22.507812 49.136719 21.421875 50.21875 " fill-opacity="1" fill-rule="nonzero"/><path fill="#517c35" d="M 98.574219 51.753906 C 82.605469 53.101562 55.90625 48.3125 49.214844 46.566406 C 40.402344 44.261719 37.28125 44.261719 37.28125 44.261719 C 36.246094 43.96875 35.332031 43.6875 34.53125 43.421875 C 37.773438 43.339844 41.664062 43.65625 46.230469 44.667969 C 63.3125 48.460938 90.699219 51.4375 95.714844 51.574219 C 96.585938 51.597656 97.542969 51.640625 98.574219 51.753906 " fill-opacity="1" fill-rule="nonzero"/></svg>