<svg xmlns="http://www.w3.org/2000/svg" xmlns:xlink="http://www.w3.org/1999/xlink" width="200" zoomAndPan="magnify" viewBox="0 0 150 112.499997" height="150" preserveAspectRatio="xMidYMid meet" version="1.0"><defs><clipPath id="b4338e24f8"><path d="M 75 54 L 81 54 L 81 100.800781 L 75 100.800781 Z M 75 54 " clip-rule="nonzero"/></clipPath></defs><g clip-path="url(#b4338e24f8)"><path fill="#c9c6bc" d="M 77.511719 55.167969 C 77.488281 54.734375 76.808594 54.734375 76.832031 55.144531 C 77.171875 62.859375 74.375 70.433594 75.375 78.144531 C 76.332031 85.515625 82.0625 92.589844 79.535156 100.207031 C 79.398438 100.621094 80.058594 100.800781 80.195312 100.390625 C 82.675781 92.90625 77.398438 86.0625 76.171875 78.898438 C 74.828125 70.980469 77.855469 63.109375 77.511719 55.167969 Z M 77.511719 55.167969 " fill-opacity="1" fill-rule="nonzero"/></g><path fill="#ff917b" d="M 91.746094 31.050781 C 89.90625 19.414062 80.878906 11.199219 71.625 12.660156 C 62.367188 14.121094 56.320312 24.777344 58.164062 36.390625 C 59.777344 46.613281 69.578125 53.753906 75.875 54.734375 L 75.511719 56.011719 L 77.605469 55.648438 L 79.015625 56.125 L 78.648438 54.710938 C 85.0625 53.34375 93.542969 42.480469 91.746094 31.050781 Z M 91.746094 31.050781 " fill-opacity="1" fill-rule="nonzero"/><path fill="#ffffff" d="M 70.054688 18.867188 C 70.53125 18.523438 69.554688 16.996094 69.121094 17.316406 C 65.734375 19.621094 63.390625 23.042969 62.414062 27.011719 C 62.300781 27.515625 63.390625 28.882812 63.574219 28.152344 C 64.527344 24.367188 66.847656 21.078125 70.054688 18.867188 Z M 70.054688 18.867188 " fill-opacity="1" fill-rule="nonzero"/></svg>