<svg xmlns="http://www.w3.org/2000/svg" xmlns:xlink="http://www.w3.org/1999/xlink" width="200" zoomAndPan="magnify" viewBox="0 0 150 112.499997" height="150" preserveAspectRatio="xMidYMid meet" version="1.0"><defs><clipPath id="0da4fa60e3"><path d="M 21 18.316406 L 42 18.316406 L 42 54 L 21 54 Z M 21 18.316406 " clip-rule="nonzero"/></clipPath><clipPath id="fc9da61f8c"><path d="M 11.53125 18.316406 L 31 18.316406 L 31 51 L 11.53125 51 Z M 11.53125 18.316406 " clip-rule="nonzero"/></clipPath><clipPath id="0a7d59cba4"><path d="M 90 40 L 134 40 L 134 93.730469 L 90 93.730469 Z M 90 40 " clip-rule="nonzero"/></clipPath><clipPath id="2951b5eefa"><path d="M 73 58 L 138.46875 58 L 138.46875 77 L 73 77 Z M 73 58 " clip-rule="nonzero"/></clipPath></defs><path fill="#d18031" d="M 124.367188 49.894531 L 23.367188 27.726562 L 24.007812 24.261719 L 125.515625 43.101562 L 124.367188 49.894531 " fill-opacity="1" fill-rule="nonzero"/><path fill="#d18031" d="M 116.890625 76.238281 L 17.597656 43.914062 L 18.578125 40.527344 L 118.703125 69.589844 L 116.890625 76.238281 " fill-opacity="1" fill-rule="nonzero"/><g clip-path="url(#0da4fa60e3)"><path fill="#44a6aa" d="M 29.757812 51.65625 C 29.113281 53.230469 27.203125 53.9375 25.492188 53.238281 L 23.164062 52.285156 C 21.449219 51.585938 20.582031 49.738281 21.226562 48.164062 L 32.472656 20.648438 C 33.117188 19.070312 35.027344 18.363281 36.742188 19.0625 L 39.066406 20.015625 C 40.78125 20.71875 41.648438 22.5625 41.003906 24.140625 L 29.757812 51.65625 " fill-opacity="1" fill-rule="nonzero"/></g><path fill="#286b65" d="M 41.023438 54.542969 C 40.394531 56.125 38.492188 56.851562 36.773438 56.167969 L 34.4375 55.242188 C 32.714844 54.558594 31.828125 52.722656 32.457031 51.136719 L 43.417969 23.507812 C 44.046875 21.925781 45.953125 21.199219 47.671875 21.882812 L 50.007812 22.808594 C 51.726562 23.492188 52.613281 25.328125 51.988281 26.914062 L 41.023438 54.542969 " fill-opacity="1" fill-rule="nonzero"/><path fill="#f5b818" d="M 51.609375 59.148438 C 50.964844 60.878906 49.039062 61.757812 47.304688 61.113281 L 44.945312 60.238281 C 43.210938 59.59375 42.324219 57.667969 42.96875 55.9375 L 54.179688 25.710938 C 54.824219 23.980469 56.75 23.101562 58.484375 23.746094 L 60.84375 24.621094 C 62.578125 25.265625 63.464844 27.191406 62.824219 28.921875 L 51.609375 59.148438 " fill-opacity="1" fill-rule="nonzero"/><path fill="#c0e01e" d="M 63.234375 63.945312 C 62.605469 65.871094 60.671875 66.972656 58.910156 66.398438 L 56.519531 65.617188 C 54.757812 65.046875 53.839844 63.019531 54.46875 61.089844 L 65.414062 27.414062 C 66.042969 25.488281 67.976562 24.390625 69.738281 24.964844 L 72.128906 25.742188 C 73.890625 26.3125 74.808594 28.34375 74.179688 30.269531 L 63.234375 63.945312 " fill-opacity="1" fill-rule="nonzero"/><path fill="#aa2022" d="M 75.527344 68.742188 C 74.917969 70.816406 72.984375 72.078125 71.207031 71.554688 L 68.796875 70.84375 C 67.019531 70.320312 66.074219 68.214844 66.683594 66.140625 L 77.339844 29.871094 C 77.953125 27.796875 79.886719 26.535156 81.660156 27.058594 L 84.074219 27.769531 C 85.847656 28.289062 86.792969 30.398438 86.183594 32.472656 L 75.527344 68.742188 " fill-opacity="1" fill-rule="nonzero"/><path fill="#7e1b5d" d="M 88.320312 71.125 C 87.769531 73.21875 85.871094 74.53125 84.082031 74.0625 L 81.652344 73.417969 C 79.863281 72.945312 78.855469 70.867188 79.410156 68.777344 L 89.039062 32.222656 C 89.589844 30.132812 91.488281 28.816406 93.277344 29.289062 L 95.707031 29.929688 C 97.496094 30.402344 98.503906 32.480469 97.949219 34.574219 L 88.320312 71.125 " fill-opacity="1" fill-rule="nonzero"/><path fill="#ef4d1c" d="M 99.28125 77.25 C 98.710938 79.570312 96.792969 81.09375 94.992188 80.648438 L 92.550781 80.050781 C 90.753906 79.605469 89.757812 77.367188 90.328125 75.050781 L 100.277344 34.539062 C 100.847656 32.21875 102.769531 30.699219 104.5625 31.140625 L 107.007812 31.742188 C 108.804688 32.183594 109.800781 34.421875 109.230469 36.738281 L 99.28125 77.25 " fill-opacity="1" fill-rule="nonzero"/><path fill="#e62324" d="M 110.628906 80.660156 C 110.007812 83.0625 108.054688 84.636719 106.261719 84.175781 L 103.828125 83.550781 C 102.035156 83.085938 101.082031 80.765625 101.699219 78.363281 L 112.488281 36.394531 C 113.109375 33.992188 115.0625 32.421875 116.855469 32.882812 L 119.289062 33.507812 C 121.082031 33.96875 122.035156 36.292969 121.417969 38.695312 L 110.628906 80.660156 " fill-opacity="1" fill-rule="nonzero"/><path fill="#a4a6a9" d="M 37.3125 23.738281 C 37.3125 24.789062 36.464844 25.640625 35.414062 25.640625 C 34.363281 25.640625 33.511719 24.789062 33.511719 23.738281 C 33.511719 22.691406 34.363281 21.839844 35.414062 21.839844 C 36.464844 21.839844 37.3125 22.691406 37.3125 23.738281 " fill-opacity="1" fill-rule="nonzero"/><path fill="#a4a6a9" d="M 28.335938 45.839844 C 28.335938 46.890625 27.484375 47.742188 26.433594 47.742188 C 25.386719 47.742188 24.535156 46.890625 24.535156 45.839844 C 24.535156 44.789062 25.386719 43.941406 26.433594 43.941406 C 27.484375 43.941406 28.335938 44.789062 28.335938 45.839844 " fill-opacity="1" fill-rule="nonzero"/><path fill="#a4a6a9" d="M 48.714844 26.417969 C 48.714844 27.46875 47.863281 28.320312 46.816406 28.320312 C 45.765625 28.320312 44.914062 27.46875 44.914062 26.417969 C 44.914062 25.367188 45.765625 24.515625 46.816406 24.515625 C 47.863281 24.515625 48.714844 25.367188 48.714844 26.417969 " fill-opacity="1" fill-rule="nonzero"/><path fill="#a4a6a9" d="M 40.066406 49.894531 C 40.066406 50.945312 39.214844 51.796875 38.167969 51.796875 C 37.117188 51.796875 36.265625 50.945312 36.265625 49.894531 C 36.265625 48.84375 37.117188 47.996094 38.167969 47.996094 C 39.214844 47.996094 40.066406 48.84375 40.066406 49.894531 " fill-opacity="1" fill-rule="nonzero"/><path fill="#a4a6a9" d="M 50.449219 53.972656 C 50.449219 55.023438 49.597656 55.875 48.550781 55.875 C 47.5 55.875 46.648438 55.023438 46.648438 53.972656 C 46.648438 52.921875 47.5 52.074219 48.550781 52.074219 C 49.597656 52.074219 50.449219 52.921875 50.449219 53.972656 " fill-opacity="1" fill-rule="nonzero"/><path fill="#a4a6a9" d="M 62.789062 57.335938 C 62.789062 58.386719 61.9375 59.238281 60.886719 59.238281 C 59.835938 59.238281 58.988281 58.386719 58.988281 57.335938 C 58.988281 56.285156 59.835938 55.433594 60.886719 55.433594 C 61.9375 55.433594 62.789062 56.285156 62.789062 57.335938 " fill-opacity="1" fill-rule="nonzero"/><path fill="#a4a6a9" d="M 71.050781 31.378906 C 71.050781 32.429688 70.199219 33.277344 69.148438 33.277344 C 68.101562 33.277344 67.25 32.429688 67.25 31.378906 C 67.25 30.328125 68.101562 29.476562 69.148438 29.476562 C 70.199219 29.476562 71.050781 30.328125 71.050781 31.378906 " fill-opacity="1" fill-rule="nonzero"/><path fill="#a4a6a9" d="M 82.425781 33.523438 C 82.425781 34.574219 81.574219 35.425781 80.523438 35.425781 C 79.472656 35.425781 78.625 34.574219 78.625 33.523438 C 78.625 32.472656 79.472656 31.621094 80.523438 31.621094 C 81.574219 31.621094 82.425781 32.472656 82.425781 33.523438 " fill-opacity="1" fill-rule="nonzero"/><path fill="#a4a6a9" d="M 74.65625 60.96875 C 74.65625 62.019531 73.808594 62.871094 72.757812 62.871094 C 71.707031 62.871094 70.855469 62.019531 70.855469 60.96875 C 70.855469 59.917969 71.707031 59.066406 72.757812 59.066406 C 73.808594 59.066406 74.65625 59.917969 74.65625 60.96875 " fill-opacity="1" fill-rule="nonzero"/><path fill="#a4a6a9" d="M 86.390625 64.277344 C 86.390625 65.328125 85.539062 66.179688 84.488281 66.179688 C 83.441406 66.179688 82.589844 65.328125 82.589844 64.277344 C 82.589844 63.226562 83.441406 62.375 84.488281 62.375 C 85.539062 62.375 86.390625 63.226562 86.390625 64.277344 " fill-opacity="1" fill-rule="nonzero"/><path fill="#a4a6a9" d="M 94.761719 36.445312 C 94.761719 37.492188 93.910156 38.34375 92.859375 38.34375 C 91.8125 38.34375 90.960938 37.492188 90.960938 36.445312 C 90.960938 35.394531 91.8125 34.542969 92.859375 34.542969 C 93.910156 34.542969 94.761719 35.394531 94.761719 36.445312 " fill-opacity="1" fill-rule="nonzero"/><path fill="#a4a6a9" d="M 105.722656 38.925781 C 105.722656 39.972656 104.871094 40.824219 103.820312 40.824219 C 102.773438 40.824219 101.921875 39.972656 101.921875 38.925781 C 101.921875 37.875 102.773438 37.023438 103.820312 37.023438 C 104.871094 37.023438 105.722656 37.875 105.722656 38.925781 " fill-opacity="1" fill-rule="nonzero"/><path fill="#a4a6a9" d="M 98.230469 68.410156 C 98.230469 69.457031 97.378906 70.308594 96.332031 70.308594 C 95.28125 70.308594 94.429688 69.457031 94.429688 68.410156 C 94.429688 67.359375 95.28125 66.507812 96.332031 66.507812 C 97.378906 66.507812 98.230469 67.359375 98.230469 68.410156 " fill-opacity="1" fill-rule="nonzero"/><path fill="#a4a6a9" d="M 117.839844 41.957031 C 117.839844 43.003906 116.988281 43.855469 115.9375 43.855469 C 114.890625 43.855469 114.039062 43.003906 114.039062 41.957031 C 114.039062 40.90625 114.890625 40.054688 115.9375 40.054688 C 116.988281 40.054688 117.839844 40.90625 117.839844 41.957031 " fill-opacity="1" fill-rule="nonzero"/><path fill="#a4a6a9" d="M 110.734375 72.488281 C 110.734375 73.539062 109.882812 74.390625 108.832031 74.390625 C 107.785156 74.390625 106.933594 73.539062 106.933594 72.488281 C 106.933594 71.4375 107.785156 70.585938 108.832031 70.585938 C 109.882812 70.585938 110.734375 71.4375 110.734375 72.488281 " fill-opacity="1" fill-rule="nonzero"/><path fill="#a4a6a9" d="M 59.8125 29.503906 C 59.8125 30.554688 58.960938 31.40625 57.914062 31.40625 C 56.863281 31.40625 56.011719 30.554688 56.011719 29.503906 C 56.011719 28.453125 56.863281 27.601562 57.914062 27.601562 C 58.960938 27.601562 59.8125 28.453125 59.8125 29.503906 " fill-opacity="1" fill-rule="nonzero"/><path fill="#f09e3c" d="M 120.628906 89.832031 L 112.566406 88.015625 L 123.683594 38.71875 L 131.742188 40.539062 L 120.628906 89.832031 " fill-opacity="1" fill-rule="nonzero"/><g clip-path="url(#fc9da61f8c)"><path fill="#f09e3c" d="M 17.546875 50.183594 L 11.519531 47.574219 L 24.027344 18.667969 L 30.058594 21.28125 L 17.546875 50.183594 " fill-opacity="1" fill-rule="nonzero"/></g><g clip-path="url(#0a7d59cba4)"><path fill="#f7c4a5" d="M 131.621094 93.703125 L 90.484375 42.3125 L 92.785156 40.46875 L 133.921875 91.859375 L 131.621094 93.703125 " fill-opacity="1" fill-rule="nonzero"/></g><path fill="#ec1d27" d="M 96.171875 38.925781 C 96.171875 42.242188 93.484375 44.933594 90.167969 44.933594 C 86.851562 44.933594 84.164062 42.242188 84.164062 38.925781 C 84.164062 35.605469 86.851562 32.917969 90.167969 32.917969 C 93.484375 32.917969 96.171875 35.605469 96.171875 38.925781 " fill-opacity="1" fill-rule="nonzero"/><g clip-path="url(#2951b5eefa)"><path fill="#f7c4a5" d="M 137.789062 76.816406 L 73.726562 61.765625 L 74.398438 58.894531 L 138.460938 73.945312 L 137.789062 76.816406 " fill-opacity="1" fill-rule="nonzero"/></g><path fill="#ec1d27" d="M 76.113281 55.589844 C 78.160156 58.199219 77.703125 61.976562 75.089844 64.023438 C 72.484375 66.070312 68.707031 65.613281 66.664062 63 C 64.617188 60.390625 65.074219 56.617188 67.683594 54.566406 C 70.292969 52.519531 74.066406 52.976562 76.113281 55.589844 " fill-opacity="1" fill-rule="nonzero"/></svg>