<svg xmlns="http://www.w3.org/2000/svg" xmlns:xlink="http://www.w3.org/1999/xlink" width="200" zoomAndPan="magnify" viewBox="0 0 150 112.499997" height="150" preserveAspectRatio="xMidYMid meet" version="1.0"><defs><clipPath id="c72c7e9c77"><path d="M 48 69 L 69 69 L 69 100.800781 L 48 100.800781 Z M 48 69 " clip-rule="nonzero"/></clipPath><clipPath id="3642b801c5"><path d="M 50 98 L 52 98 L 52 100.800781 L 50 100.800781 Z M 50 98 " clip-rule="nonzero"/></clipPath><clipPath id="4f12ff7432"><path d="M 49 98 L 51 98 L 51 100.800781 L 49 100.800781 Z M 49 98 " clip-rule="nonzero"/></clipPath><clipPath id="70a849fcc6"><path d="M 48.917969 37.839844 L 113.433594 37.839844 L 113.433594 99.296875 L 48.917969 99.296875 Z M 48.917969 37.839844 " clip-rule="nonzero"/></clipPath><clipPath id="d27f998bfd"><path d="M 57 69 L 77 69 L 77 100.800781 L 57 100.800781 Z M 57 69 " clip-rule="nonzero"/></clipPath><clipPath id="b603e17001"><path d="M 57 98 L 59 98 L 59 100.800781 L 57 100.800781 Z M 57 98 " clip-rule="nonzero"/></clipPath><clipPath id="31a2a50cec"><path d="M 59 98 L 61 98 L 61 100.800781 L 59 100.800781 Z M 59 98 " clip-rule="nonzero"/></clipPath><clipPath id="cfce45b957"><path d="M 44 11.199219 L 54 11.199219 L 54 30 L 44 30 Z M 44 11.199219 " clip-rule="nonzero"/></clipPath></defs><g clip-path="url(#c72c7e9c77)"><path fill="#966038" d="M 54.769531 85.773438 C 52.898438 82.535156 51.148438 78.070312 53.164062 74.625 C 54.488281 72.363281 56.714844 70.480469 59.363281 70.070312 C 62.761719 69.542969 66.308594 71.707031 67.578125 74.808594 C 68.851562 77.914062 67.941406 81.65625 65.613281 84.113281 C 64.902344 84.863281 64.078125 85.503906 63.371094 86.253906 C 62.285156 87.402344 61.5 88.78125 60.722656 90.148438 C 60.640625 90.292969 60.558594 90.445312 60.546875 90.609375 C 60.53125 90.855469 60.679688 91.082031 60.824219 91.289062 C 62.386719 93.503906 64.714844 95.902344 65.808594 98.359375 C 66.34375 99.566406 65.6875 99.828125 64.328125 100.042969 C 63.324219 100.203125 62.277344 100.050781 61.265625 100.050781 C 58.738281 100.050781 56.246094 100.15625 53.722656 100.15625 C 52.652344 100.15625 47.410156 100.804688 48.589844 98.753906 C 49.574219 97.042969 53.757812 96.132812 55.480469 95.949219 C 56.503906 95.839844 57.542969 95.761719 58.578125 95.804688 C 59.40625 95.839844 60.453125 96.257812 61.214844 96.0625 C 60.792969 94.394531 58.847656 92.40625 57.878906 90.890625 C 56.800781 89.207031 55.765625 87.5 54.769531 85.773438 " fill-opacity="1" fill-rule="nonzero"/></g><g clip-path="url(#3642b801c5)"><path fill="#875632" d="M 51.054688 98.96875 C 50.785156 99.359375 50.605469 99.785156 50.511719 100.238281 C 50.675781 100.246094 50.847656 100.25 51.015625 100.253906 C 51.105469 99.882812 51.265625 99.535156 51.488281 99.210938 C 51.667969 98.953125 51.234375 98.707031 51.054688 98.96875 " fill-opacity="1" fill-rule="nonzero"/></g><g clip-path="url(#4f12ff7432)"><path fill="#875632" d="M 49.640625 99.019531 C 49.363281 99.308594 49.195312 99.65625 49.140625 100.023438 C 49.289062 100.070312 49.449219 100.109375 49.625 100.140625 C 49.65625 99.859375 49.777344 99.589844 49.992188 99.363281 C 50.210938 99.132812 49.859375 98.789062 49.640625 99.019531 " fill-opacity="1" fill-rule="nonzero"/></g><g clip-path="url(#70a849fcc6)"><path fill="#ba7644" d="M 112.09375 94.277344 C 113.054688 93.207031 113.691406 92 113.332031 90.890625 C 112.855469 89.414062 110.988281 90.179688 109.996094 90.675781 C 107.585938 91.882812 105.015625 93.03125 102.234375 92.894531 C 95.902344 92.578125 92.160156 86.722656 88.964844 82.207031 C 88.40625 81.414062 87.84375 80.695312 87.40625 79.835938 C 86.316406 77.691406 85.1875 75.703125 83.898438 73.664062 C 81.671875 70.136719 80.390625 65.90625 77.03125 63.191406 C 73.738281 60.527344 69.964844 58.457031 66.835938 55.597656 C 64.867188 53.804688 63.320312 51.589844 62.335938 49.148438 C 61.808594 47.835938 61.265625 46.441406 61.152344 45.023438 C 61.042969 43.667969 61.582031 42.648438 61 41.375 C 60 39.167969 57.246094 37.679688 54.800781 37.90625 C 49.628906 38.382812 51.40625 43.464844 51.929688 46.578125 C 52.429688 49.582031 52.207031 52.820312 51.484375 55.773438 C 50.75 58.765625 49.859375 61.722656 49.355469 64.765625 C 48.757812 68.363281 48.683594 72.128906 49.941406 75.5625 C 51.5 79.824219 55.089844 83.277344 59.382812 85.042969 C 61.660156 85.980469 64.128906 86.460938 66.597656 86.507812 C 68.898438 86.554688 71.011719 87.222656 72.695312 88.746094 C 77.542969 93.125 82.660156 96.824219 89.203125 98.34375 C 92.964844 99.214844 96.875 99.460938 100.722656 99.078125 C 103.328125 98.816406 106.109375 98.269531 108.484375 97.046875 C 109.4375 96.554688 110.984375 95.507812 112.09375 94.277344 " fill-opacity="1" fill-rule="nonzero"/></g><path fill="#a6693d" d="M 111.335938 90.144531 C 110.847656 90.273438 110.363281 90.492188 109.996094 90.675781 C 109.503906 90.921875 109.007812 91.164062 108.5 91.398438 C 109.472656 91.039062 110.414062 90.601562 111.335938 90.144531 " fill-opacity="1" fill-rule="nonzero"/><path fill="#a6693d" d="M 102.355469 98.398438 C 98.507812 98.78125 94.597656 98.539062 90.839844 97.664062 C 84.292969 96.148438 79.175781 92.445312 74.328125 88.066406 C 72.644531 86.546875 70.53125 85.875 68.230469 85.832031 C 65.761719 85.78125 63.292969 85.300781 61.015625 84.367188 C 56.722656 82.601562 53.132812 79.144531 51.574219 74.882812 C 50.316406 71.453125 50.390625 67.683594 50.988281 64.089844 C 51.492188 61.046875 52.382812 58.085938 53.117188 55.097656 C 53.839844 52.140625 54.0625 48.902344 53.5625 45.898438 C 53.144531 43.40625 51.921875 39.648438 54.113281 38.007812 C 49.796875 38.863281 51.433594 43.613281 51.929688 46.578125 C 52.429688 49.582031 52.207031 52.820312 51.484375 55.773438 C 50.75 58.765625 49.859375 61.722656 49.355469 64.765625 C 48.757812 68.363281 48.683594 72.128906 49.941406 75.5625 C 51.5 79.824219 55.089844 83.277344 59.382812 85.042969 C 61.660156 85.980469 64.128906 86.460938 66.597656 86.507812 C 68.898438 86.554688 71.011719 87.222656 72.695312 88.746094 C 77.542969 93.125 82.660156 96.824219 89.203125 98.34375 C 92.964844 99.214844 96.875 99.460938 100.722656 99.078125 C 103.21875 98.828125 105.875 98.316406 108.183594 97.195312 C 106.300781 97.859375 104.28125 98.207031 102.355469 98.398438 " fill-opacity="1" fill-rule="nonzero"/><path fill="#ba8b84" d="M 46.753906 69.648438 C 46.753906 69.648438 52.132812 68.691406 58.820312 69.164062 L 55.375 75.617188 L 47.65625 73.070312 L 46.753906 69.648438 " fill-opacity="1" fill-rule="nonzero"/><path fill="#d99b6f" d="M 52.140625 56.453125 C 52.222656 55.015625 52.355469 53.566406 52.824219 52.203125 C 53.296875 50.839844 54.136719 49.554688 55.382812 48.777344 C 55.570312 48.65625 55.785156 48.550781 56.003906 48.578125 C 56.15625 48.597656 56.289062 48.679688 56.402344 48.777344 C 56.855469 49.160156 57.03125 49.773438 57.050781 50.355469 C 57.082031 51.277344 56.78125 52.191406 56.332031 53.007812 C 55.882812 53.824219 55.292969 54.554688 54.707031 55.285156 C 54.1875 55.929688 53.636719 56.59375 52.871094 56.933594 L 52.140625 56.453125 " fill-opacity="1" fill-rule="nonzero"/><path fill="#d99b6f" d="M 53.929688 58 C 54.617188 56.726562 55.359375 55.460938 56.371094 54.410156 C 57.382812 53.359375 58.699219 52.527344 60.167969 52.320312 C 60.386719 52.289062 60.628906 52.277344 60.816406 52.390625 C 60.945312 52.46875 61.03125 52.597656 61.09375 52.730469 C 61.339844 53.261719 61.238281 53.890625 61.007812 54.429688 C 60.640625 55.28125 59.976562 55.988281 59.21875 56.550781 C 58.460938 57.113281 57.609375 57.542969 56.765625 57.96875 C 56.015625 58.347656 55.230469 58.734375 54.386719 58.730469 L 53.929688 58 " fill-opacity="1" fill-rule="nonzero"/><path fill="#edb1a8" d="M 54.488281 58.34375 C 54.574219 58.210938 54.550781 57.867188 54.625 57.695312 C 54.707031 57.507812 54.832031 57.332031 54.941406 57.160156 C 55.214844 56.738281 55.511719 56.335938 55.84375 55.957031 C 56.636719 55.046875 57.636719 54.15625 58.796875 53.726562 C 58.980469 53.660156 59.21875 53.617188 59.335938 53.761719 C 59.394531 53.832031 59.40625 53.929688 59.410156 54.019531 C 59.4375 54.910156 58.949219 55.753906 58.285156 56.371094 C 57.625 56.988281 56.800781 57.414062 55.988281 57.828125 C 55.410156 58.125 54.828125 58.425781 54.246094 58.722656 C 54.246094 58.722656 54.488281 58.347656 54.488281 58.34375 " fill-opacity="1" fill-rule="nonzero"/><path fill="#d99b6f" d="M 57.234375 76.292969 C 57.941406 75.113281 58.054688 73.601562 57.546875 72.21875 C 56.632812 69.71875 53.675781 68.554688 53.242188 65.457031 C 53.203125 65.164062 53.183594 64.851562 53.3125 64.582031 C 53.40625 64.386719 53.570312 64.230469 53.71875 64.070312 C 55.007812 62.695312 55.480469 60.644531 54.917969 58.867188 C 54.199219 56.597656 51.480469 54.5 48.992188 55.882812 C 48.386719 56.21875 47.84375 56.660156 47.207031 56.9375 C 45.703125 57.589844 43.964844 57.222656 42.324219 57.0625 C 41.695312 57 41.011719 56.984375 40.480469 57.320312 C 39.910156 57.679688 39.644531 58.386719 39.679688 59.050781 C 39.714844 59.710938 40.003906 60.335938 40.339844 60.910156 C 40.808594 61.710938 41.382812 62.464844 42.144531 63.003906 C 43.160156 63.722656 44.421875 64.007812 45.597656 64.4375 C 46.773438 64.871094 47.964844 65.554688 48.425781 66.6875 C 48.78125 67.566406 48.628906 68.554688 48.425781 69.476562 C 47.886719 71.96875 45.789062 75.847656 48.6875 77.582031 C 50.417969 78.621094 53.578125 78.765625 55.417969 77.914062 C 56.21875 77.542969 56.828125 76.972656 57.234375 76.292969 " fill-opacity="1" fill-rule="nonzero"/><path fill="#c99067" d="M 49.6875 77.097656 C 46.789062 75.363281 48.886719 71.484375 49.429688 68.992188 C 49.628906 68.070312 49.78125 67.082031 49.425781 66.203125 C 48.96875 65.070312 47.773438 64.386719 46.597656 63.953125 C 45.425781 63.519531 44.164062 63.238281 43.148438 62.519531 C 42.382812 61.980469 41.808594 61.222656 41.34375 60.425781 C 41.003906 59.851562 40.714844 59.226562 40.679688 58.566406 C 40.652344 58.023438 40.828125 57.453125 41.207031 57.066406 C 40.949219 57.105469 40.703125 57.179688 40.480469 57.320312 C 39.910156 57.679688 39.644531 58.386719 39.679688 59.050781 C 39.714844 59.710938 40.003906 60.335938 40.339844 60.910156 C 40.808594 61.710938 41.382812 62.464844 42.144531 63.003906 C 43.160156 63.722656 44.421875 64.007812 45.597656 64.4375 C 46.773438 64.871094 47.964844 65.554688 48.425781 66.6875 C 48.78125 67.566406 48.628906 68.554688 48.425781 69.476562 C 47.886719 71.96875 45.789062 75.847656 48.6875 77.582031 C 50.417969 78.621094 53.578125 78.765625 55.417969 77.914062 C 55.617188 77.824219 55.800781 77.71875 55.976562 77.605469 C 54.105469 78.25 51.285156 78.054688 49.6875 77.097656 " fill-opacity="1" fill-rule="nonzero"/><path fill="#ffffff" d="M 52.757812 60.050781 C 52.757812 61.101562 51.875 61.957031 50.789062 61.957031 C 49.703125 61.957031 48.824219 61.101562 48.824219 60.050781 C 48.824219 58.996094 49.703125 58.144531 50.789062 58.144531 C 51.875 58.144531 52.757812 58.996094 52.757812 60.050781 " fill-opacity="1" fill-rule="nonzero"/><path fill="#000000" d="M 52.671875 60.414062 C 52.671875 61.222656 51.996094 61.875 51.167969 61.875 C 50.335938 61.875 49.660156 61.222656 49.660156 60.414062 C 49.660156 59.609375 50.335938 58.953125 51.167969 58.953125 C 51.996094 58.953125 52.671875 59.609375 52.671875 60.414062 " fill-opacity="1" fill-rule="nonzero"/><path fill="#ffffff" d="M 51.167969 58.996094 C 50.359375 58.996094 49.703125 59.632812 49.703125 60.414062 C 49.703125 61.199219 50.359375 61.835938 51.167969 61.835938 C 51.972656 61.835938 52.628906 61.199219 52.628906 60.414062 C 52.628906 59.632812 51.972656 58.996094 51.167969 58.996094 Z M 51.167969 61.914062 C 50.3125 61.914062 49.617188 61.242188 49.617188 60.414062 C 49.617188 59.585938 50.3125 58.914062 51.167969 58.914062 C 52.019531 58.914062 52.714844 59.585938 52.714844 60.414062 C 52.714844 61.242188 52.019531 61.914062 51.167969 61.914062 " fill-opacity="1" fill-rule="nonzero"/><path fill="#42210b" d="M 41.46875 57.296875 C 41.257812 57.488281 40.933594 57.804688 40.648438 57.882812 C 40.320312 57.972656 40.140625 57.679688 39.984375 57.421875 C 39.917969 57.3125 39.859375 57.199219 39.839844 57.074219 C 39.820312 56.949219 39.847656 56.8125 39.933594 56.722656 C 40.054688 56.601562 40.242188 56.589844 40.414062 56.589844 C 40.761719 56.582031 41.109375 56.574219 41.445312 56.660156 C 41.511719 56.679688 41.585938 56.703125 41.632812 56.753906 C 41.707031 56.832031 41.710938 56.953125 41.667969 57.050781 C 41.628906 57.148438 41.546875 57.226562 41.46875 57.296875 " fill-opacity="1" fill-rule="nonzero"/><path fill="#e09d94" d="M 51.011719 63.023438 C 51.011719 63.457031 50.582031 63.808594 50.050781 63.808594 C 49.519531 63.808594 49.089844 63.457031 49.089844 63.023438 C 49.089844 62.589844 49.519531 62.238281 50.050781 62.238281 C 50.582031 62.238281 51.011719 62.589844 51.011719 63.023438 " fill-opacity="1" fill-rule="nonzero"/><path fill="#edb1a8" d="M 66.605469 79.300781 C 65.519531 77.601562 64.109375 76.105469 62.601562 74.746094 C 61.886719 74.101562 61.117188 73.457031 60.582031 72.652344 C 60.160156 72.011719 60.058594 71.570312 59.570312 71.230469 C 59.1875 69.988281 58.847656 69.167969 58.847656 69.167969 C 49.890625 70.707031 46.78125 69.621094 46.78125 69.621094 C 45.117188 79.515625 53.902344 82.539062 55.828125 83.078125 C 56.929688 83.863281 58.125 84.527344 59.382812 85.042969 C 61.660156 85.980469 64.128906 86.460938 66.597656 86.507812 C 67.246094 86.523438 67.878906 86.585938 68.492188 86.703125 C 68.875 84.109375 68.066406 81.578125 66.605469 79.300781 " fill-opacity="1" fill-rule="nonzero"/><path fill="#dba49b" d="M 67.746094 85.699219 C 65.277344 85.644531 62.808594 85.15625 60.535156 84.214844 C 59.28125 83.695312 58.089844 83.03125 56.988281 82.242188 C 55.113281 81.714844 46.898438 78.875 47.8125 69.800781 C 47.097656 69.703125 46.78125 69.589844 46.78125 69.589844 C 45.117188 79.472656 53.875 82.503906 55.820312 83.046875 C 56.917969 83.835938 58.113281 84.5 59.367188 85.019531 C 61.636719 85.960938 64.105469 86.449219 66.574219 86.503906 C 67.222656 86.519531 67.855469 86.585938 68.46875 86.703125 C 68.519531 86.382812 68.546875 86.066406 68.5625 85.746094 C 68.292969 85.722656 68.019531 85.703125 67.746094 85.699219 " fill-opacity="1" fill-rule="nonzero"/><path fill="#ba7644" d="M 65.886719 64.503906 C 64.351562 68.539062 61.167969 71.960938 57.183594 73.851562 C 56.398438 74.226562 55.507812 74.546875 54.667969 74.304688 C 53.832031 74.066406 53.222656 73.011719 53.75 72.335938 C 53.945312 72.082031 54.246094 71.9375 54.535156 71.789062 C 55.527344 71.292969 56.492188 70.71875 57.300781 69.96875 C 58.96875 68.410156 59.863281 66.101562 59.65625 63.867188 L 65.886719 64.503906 " fill-opacity="1" fill-rule="nonzero"/><path fill="#a86b3e" d="M 59.90625 63.871094 C 60.046875 65.804688 59.480469 67.746094 58.253906 69.289062 C 57.589844 70.128906 56.746094 70.800781 55.824219 71.363281 C 55.214844 71.734375 54.511719 71.957031 54.085938 72.527344 C 53.976562 72.671875 53.90625 72.808594 53.875 72.933594 C 54.28125 72.800781 54.648438 72.59375 54.976562 72.3125 C 55.214844 72.105469 55.566406 72.453125 55.324219 72.660156 C 54.914062 73.011719 54.453125 73.265625 53.941406 73.425781 C 54.011719 73.546875 54.117188 73.667969 54.261719 73.792969 C 54.316406 73.839844 54.371094 73.878906 54.425781 73.914062 C 54.453125 73.890625 54.484375 73.871094 54.523438 73.855469 C 55.011719 73.6875 55.460938 73.441406 55.863281 73.125 C 56.113281 72.929688 56.460938 73.277344 56.210938 73.472656 C 55.875 73.738281 55.519531 73.953125 55.132812 74.128906 C 55.222656 74.132812 55.3125 74.136719 55.40625 74.132812 C 56.546875 74.085938 57.703125 73.355469 58.644531 72.78125 C 59.691406 72.144531 60.664062 71.390625 61.546875 70.550781 C 63.355469 68.824219 64.746094 66.738281 65.644531 64.4375 C 65.757812 64.148438 66.238281 64.28125 66.125 64.574219 C 65.140625 67.089844 63.597656 69.363281 61.566406 71.203125 C 60.597656 72.082031 59.519531 72.863281 58.371094 73.511719 C 57.394531 74.0625 56.214844 74.726562 55.042969 74.617188 C 54.226562 74.539062 53.457031 73.972656 53.324219 73.148438 C 53.152344 72.074219 54.214844 71.703125 55.007812 71.269531 C 57.847656 69.710938 59.640625 67.089844 59.40625 63.859375 C 59.386719 63.546875 59.886719 63.5625 59.90625 63.871094 " fill-opacity="1" fill-rule="nonzero"/><g clip-path="url(#d27f998bfd)"><path fill="#a86b3e" d="M 63.445312 85.773438 C 61.574219 82.535156 59.824219 78.070312 61.839844 74.625 C 63.160156 72.363281 65.390625 70.480469 68.039062 70.070312 C 71.4375 69.542969 74.984375 71.707031 76.253906 74.808594 C 77.527344 77.914062 76.617188 81.65625 74.289062 84.113281 C 73.578125 84.863281 72.753906 85.503906 72.046875 86.253906 C 70.960938 87.402344 70.175781 88.78125 69.398438 90.148438 C 69.316406 90.292969 69.230469 90.445312 69.222656 90.609375 C 69.203125 90.855469 69.355469 91.082031 69.5 91.289062 C 71.0625 93.503906 73.390625 95.902344 74.480469 98.359375 C 75.015625 99.566406 74.363281 99.828125 73.003906 100.042969 C 72 100.203125 70.953125 100.050781 69.941406 100.050781 C 67.410156 100.050781 64.921875 100.15625 62.398438 100.15625 C 61.324219 100.15625 56.085938 100.804688 57.265625 98.753906 C 58.25 97.042969 62.429688 96.132812 64.152344 95.949219 C 65.179688 95.839844 66.21875 95.761719 67.25 95.804688 C 68.078125 95.839844 69.125 96.257812 69.890625 96.0625 C 69.46875 94.394531 67.519531 92.40625 66.550781 90.890625 C 65.476562 89.207031 64.441406 87.5 63.445312 85.773438 " fill-opacity="1" fill-rule="nonzero"/></g><g clip-path="url(#b603e17001)"><path fill="#875632" d="M 58.320312 98.570312 C 57.859375 98.875 57.542969 99.335938 57.445312 99.851562 C 57.574219 99.933594 57.738281 100.003906 57.921875 100.054688 C 57.972656 99.628906 58.191406 99.242188 58.574219 98.988281 C 58.839844 98.8125 58.589844 98.394531 58.320312 98.570312 " fill-opacity="1" fill-rule="nonzero"/></g><g clip-path="url(#31a2a50cec)"><path fill="#875632" d="M 59.972656 98.632812 C 59.5 99.070312 59.242188 99.632812 59.207031 100.238281 C 59.371094 100.246094 59.535156 100.25 59.699219 100.253906 C 59.730469 99.769531 59.953125 99.320312 60.328125 98.976562 C 60.5625 98.761719 60.207031 98.417969 59.972656 98.632812 " fill-opacity="1" fill-rule="nonzero"/></g><g clip-path="url(#cfce45b957)"><path fill="#9e653a" d="M 53.40625 27.765625 C 52.726562 26.121094 53.039062 24.140625 53.082031 22.242188 C 53.148438 19.542969 52.140625 16.65625 50.308594 14.910156 C 49.453125 14.089844 47.113281 11.207031 45.652344 12.101562 C 45.027344 12.484375 45.089844 13.335938 45.113281 13.96875 C 45.152344 15.070312 44.695312 15.890625 44.453125 16.949219 C 43.828125 19.683594 44.535156 22.492188 45.796875 24.816406 C 46.449219 26.019531 47.335938 27.367188 48.402344 28.167969 C 49.113281 28.703125 50.378906 29.714844 51.125 29.730469 L 53.40625 27.765625 " fill-opacity="1" fill-rule="nonzero"/></g><path fill="#edb1a8" d="M 50.8125 28.414062 C 50.925781 27.199219 50.796875 26.011719 50.914062 24.785156 C 51.117188 22.707031 51.105469 20.566406 50.355469 18.671875 C 50.082031 17.976562 49.714844 17.378906 49.273438 16.808594 C 48.890625 16.324219 48.441406 15.914062 48.105469 15.390625 C 47.847656 14.988281 47.5625 14.554688 47.207031 14.246094 C 47.003906 14.066406 46.628906 13.734375 46.347656 13.875 C 46.058594 14.019531 46.058594 14.453125 46.035156 14.734375 C 45.972656 15.554688 45.886719 16.230469 45.65625 17.050781 C 45.019531 19.332031 45.234375 21.910156 46.230469 23.960938 C 46.765625 25.058594 47.464844 25.84375 48.234375 26.730469 C 48.820312 27.402344 49.746094 28.03125 50.8125 28.414062 " fill-opacity="1" fill-rule="nonzero"/><path fill="#9e653a" d="M 61.808594 28.648438 C 62.894531 27.222656 63.113281 25.234375 63.566406 23.382812 C 64.210938 20.757812 65.941406 18.210938 68.171875 16.972656 C 69.210938 16.390625 72.230469 14.175781 73.410156 15.402344 C 73.914062 15.925781 73.628906 16.734375 73.441406 17.339844 C 73.113281 18.394531 73.34375 19.300781 73.300781 20.386719 C 73.1875 23.183594 71.769531 25.726562 69.941406 27.664062 C 68.996094 28.667969 67.785156 29.753906 66.542969 30.269531 C 65.714844 30.609375 64.226562 31.277344 63.5 31.109375 L 61.808594 28.648438 " fill-opacity="1" fill-rule="nonzero"/><path fill="#edb1a8" d="M 64.148438 29.914062 C 64.355469 28.707031 64.792969 27.59375 65 26.375 C 65.347656 24.316406 65.917969 22.25 67.140625 20.597656 C 67.585938 19.996094 68.097656 19.507812 68.675781 19.066406 C 69.167969 18.691406 69.714844 18.40625 70.175781 17.980469 C 70.53125 17.652344 70.917969 17.304688 71.34375 17.09375 C 71.585938 16.972656 72.039062 16.742188 72.273438 16.945312 C 72.511719 17.15625 72.398438 17.578125 72.347656 17.855469 C 72.195312 18.664062 72.101562 19.335938 72.109375 20.191406 C 72.128906 22.550781 71.246094 24.992188 69.746094 26.730469 C 68.941406 27.664062 68.058594 28.25 67.082031 28.914062 C 66.339844 29.421875 65.277344 29.800781 64.148438 29.914062 " fill-opacity="1" fill-rule="nonzero"/><path fill="#ba7644" d="M 56.761719 47.398438 C 56.0625 47.5 55.339844 47.441406 54.621094 47.160156 C 53.492188 46.714844 52.546875 45.914062 51.710938 45.054688 C 47.984375 41.21875 46.9375 36.375 47.664062 31.246094 C 47.964844 29.113281 49.058594 27.125 51.238281 26.347656 C 52.757812 25.808594 54.480469 25.84375 56.074219 25.832031 C 58.433594 25.8125 60.914062 26.277344 63.113281 27.109375 C 64.261719 27.546875 65.355469 28.226562 66.003906 29.242188 C 66.789062 30.476562 66.84375 32.003906 66.765625 33.40625 C 66.628906 35.929688 66.140625 38.398438 64.859375 40.621094 C 63.9375 42.210938 62.738281 43.648438 61.328125 44.855469 C 60.042969 45.949219 58.503906 47.15625 56.761719 47.398438 " fill-opacity="1" fill-rule="nonzero"/><path fill="#9e643a" d="M 58.074219 46.890625 C 57.371094 46.988281 56.652344 46.933594 55.933594 46.648438 C 54.804688 46.207031 53.859375 45.40625 53.023438 44.542969 C 49.296875 40.710938 48.25 35.867188 48.976562 30.738281 C 49.242188 28.863281 50.117188 27.101562 51.804688 26.175781 C 51.613281 26.226562 51.425781 26.28125 51.238281 26.347656 C 49.058594 27.125 47.964844 29.113281 47.664062 31.246094 C 46.9375 36.375 47.984375 41.21875 51.710938 45.054688 C 52.546875 45.914062 53.492188 46.714844 54.621094 47.160156 C 55.339844 47.441406 56.0625 47.5 56.761719 47.398438 C 57.414062 47.308594 58.039062 47.082031 58.632812 46.777344 C 58.449219 46.824219 58.261719 46.863281 58.074219 46.890625 " fill-opacity="1" fill-rule="nonzero"/><path fill="#ffffff" d="M 49.070312 32.972656 C 48.652344 34.34375 49.460938 35.78125 50.875 36.183594 C 52.285156 36.589844 53.769531 35.804688 54.1875 34.4375 C 54.605469 33.066406 53.796875 31.628906 52.382812 31.222656 C 50.96875 30.820312 49.484375 31.601562 49.070312 32.972656 " fill-opacity="1" fill-rule="nonzero"/><path fill="#000000" d="M 49.636719 33.160156 C 49.316406 34.210938 49.9375 35.3125 51.019531 35.621094 C 52.101562 35.929688 53.238281 35.332031 53.558594 34.28125 C 53.878906 33.230469 53.257812 32.128906 52.175781 31.820312 C 51.09375 31.511719 49.957031 32.109375 49.636719 33.160156 " fill-opacity="1" fill-rule="nonzero"/><path fill="#ffffff" d="M 49.691406 33.175781 C 49.382812 34.195312 49.984375 35.265625 51.035156 35.566406 C 52.085938 35.867188 53.195312 35.285156 53.503906 34.265625 C 53.8125 33.246094 53.210938 32.171875 52.160156 31.875 C 51.109375 31.574219 50.003906 32.15625 49.691406 33.175781 Z M 49.582031 33.144531 C 49.910156 32.066406 51.082031 31.449219 52.191406 31.769531 C 53.304688 32.085938 53.941406 33.21875 53.613281 34.296875 C 53.285156 35.375 52.113281 35.992188 51.003906 35.671875 C 49.894531 35.355469 49.253906 34.222656 49.582031 33.144531 " fill-opacity="1" fill-rule="nonzero"/><path fill="#edb1a8" d="M 49.414062 39.445312 C 49.402344 40.070312 50.011719 40.589844 50.777344 40.605469 C 51.546875 40.621094 52.179688 40.125 52.191406 39.5 C 52.203125 38.875 51.59375 38.359375 50.828125 38.34375 C 50.058594 38.328125 49.425781 38.824219 49.414062 39.445312 " fill-opacity="1" fill-rule="nonzero"/><path fill="#000000" d="M 50.851562 28.765625 C 51.09375 28.460938 51.605469 28.414062 51.90625 28.660156 C 52.160156 28.867188 52.527344 28.515625 52.273438 28.304688 C 51.695312 27.835938 50.859375 27.9375 50.40625 28.511719 C 50.203125 28.769531 50.652344 29.019531 50.851562 28.765625 " fill-opacity="1" fill-rule="nonzero"/><path fill="#000000" d="M 62.71875 29.804688 C 62.988281 29.453125 63.542969 29.53125 63.703125 29.9375 C 63.824219 30.234375 64.324219 30.105469 64.203125 29.800781 C 63.871094 28.972656 62.820312 28.839844 62.273438 29.550781 C 62.074219 29.808594 62.523438 30.058594 62.71875 29.804688 " fill-opacity="1" fill-rule="nonzero"/><path fill="#edb1a8" d="M 61.433594 40.132812 C 61.421875 40.757812 62.03125 41.277344 62.796875 41.292969 C 63.566406 41.308594 64.199219 40.8125 64.210938 40.1875 C 64.222656 39.5625 63.613281 39.046875 62.847656 39.03125 C 62.078125 39.015625 61.449219 39.507812 61.433594 40.132812 " fill-opacity="1" fill-rule="nonzero"/><path fill="#ffffff" d="M 59.96875 33.929688 C 59.550781 35.296875 60.359375 36.738281 61.773438 37.140625 C 63.183594 37.542969 64.667969 36.761719 65.085938 35.390625 C 65.503906 34.023438 64.695312 32.582031 63.28125 32.179688 C 61.867188 31.773438 60.386719 32.558594 59.96875 33.929688 " fill-opacity="1" fill-rule="nonzero"/><path fill="#000000" d="M 60.535156 34.117188 C 60.21875 35.164062 60.835938 36.265625 61.917969 36.578125 C 63 36.886719 64.136719 36.285156 64.457031 35.238281 C 64.777344 34.1875 64.15625 33.085938 63.074219 32.777344 C 61.992188 32.464844 60.855469 33.066406 60.535156 34.117188 " fill-opacity="1" fill-rule="nonzero"/><path fill="#ffffff" d="M 60.589844 34.132812 C 60.28125 35.148438 60.882812 36.222656 61.933594 36.523438 C 62.984375 36.824219 64.09375 36.238281 64.402344 35.222656 C 64.710938 34.203125 64.109375 33.128906 63.058594 32.828125 C 62.007812 32.527344 60.902344 33.113281 60.589844 34.132812 Z M 60.480469 34.101562 C 60.808594 33.023438 61.980469 32.40625 63.089844 32.722656 C 64.203125 33.042969 64.839844 34.175781 64.511719 35.253906 C 64.183594 36.328125 63.011719 36.945312 61.902344 36.628906 C 60.792969 36.3125 60.152344 35.175781 60.480469 34.101562 " fill-opacity="1" fill-rule="nonzero"/><path fill="#42210b" d="M 56.582031 42.371094 C 55.90625 42.152344 53.664062 39.808594 55.089844 39.121094 C 56.519531 38.433594 59.152344 39.058594 59.082031 39.957031 C 59.007812 40.855469 57.222656 42.578125 56.582031 42.371094 " fill-opacity="1" fill-rule="nonzero"/><path fill="#ffffff" d="M 57.8125 39.570312 C 58.054688 39.664062 58.261719 39.824219 58.421875 40.019531 C 58.558594 40.183594 58.796875 39.949219 58.664062 39.789062 C 58.460938 39.546875 58.199219 39.371094 57.90625 39.253906 C 57.703125 39.175781 57.617188 39.492188 57.8125 39.570312 " fill-opacity="1" fill-rule="nonzero"/><path fill="#000000" d="M 54.40625 42.65625 C 55.117188 44.378906 58.34375 44.597656 59.308594 42.964844 C 59.441406 42.746094 59.085938 42.542969 58.953125 42.765625 C 58.183594 44.070312 55.382812 43.957031 54.800781 42.550781 C 54.703125 42.316406 54.308594 42.417969 54.40625 42.65625 " fill-opacity="1" fill-rule="nonzero"/><path fill="#000000" d="M 45.097656 64.265625 C 45.953125 64.078125 46.765625 63.507812 47.304688 62.898438 C 47.472656 62.703125 47.183594 62.421875 47.011719 62.613281 C 46.316406 63.402344 44.988281 64.285156 43.875 63.808594 C 43.824219 63.785156 43.773438 63.785156 43.730469 63.796875 C 44.179688 63.964844 44.640625 64.109375 45.097656 64.265625 " fill-opacity="1" fill-rule="nonzero"/><path fill="#ed7c6b" d="M 44.742188 76.472656 C 44.820312 76.453125 44.890625 76.425781 44.960938 76.378906 C 45.003906 76.351562 45.046875 76.316406 45.089844 76.277344 C 45.105469 76.261719 45.117188 76.25 45.132812 76.234375 C 45.230469 76.140625 45.332031 76.050781 45.429688 75.953125 C 45.625 75.765625 45.8125 75.570312 45.996094 75.371094 C 46.054688 75.304688 46.117188 75.238281 46.175781 75.167969 C 46.480469 74.824219 46.769531 74.464844 47.039062 74.085938 C 47.304688 73.707031 47.546875 73.3125 47.757812 72.894531 C 48.546875 71.316406 48.597656 69.054688 47.1875 67.773438 C 45.675781 66.394531 42.6875 66.777344 42.1875 68.941406 C 40.257812 67.351562 36.527344 69.246094 37.644531 72.71875 C 38.238281 74.550781 40.167969 75.480469 41.824219 75.972656 C 42.4375 76.15625 43.058594 76.292969 43.6875 76.390625 C 43.910156 76.425781 44.132812 76.457031 44.359375 76.480469 C 44.425781 76.488281 44.484375 76.492188 44.539062 76.492188 C 44.613281 76.492188 44.679688 76.484375 44.742188 76.472656 " fill-opacity="1" fill-rule="nonzero"/><path fill="#d99b6f" d="M 53.84375 69.558594 C 52.21875 71.703125 49.71875 73.210938 47.011719 73.675781 C 46.480469 73.765625 45.890625 73.808594 45.433594 73.527344 C 44.980469 73.246094 44.804688 72.519531 45.234375 72.203125 C 45.398438 72.085938 45.601562 72.046875 45.800781 72.007812 C 46.480469 71.875 47.15625 71.695312 47.769531 71.382812 C 49.039062 70.734375 49.976562 69.507812 50.25 68.144531 L 53.84375 69.558594 " fill-opacity="1" fill-rule="nonzero"/><path fill="#c99067" d="M 50.398438 68.1875 C 50.136719 69.363281 49.457031 70.421875 48.457031 71.136719 C 47.910156 71.527344 47.292969 71.785156 46.644531 71.96875 C 46.214844 72.089844 45.757812 72.105469 45.402344 72.371094 C 45.3125 72.441406 45.246094 72.507812 45.203125 72.578125 C 45.472656 72.566406 45.726562 72.503906 45.96875 72.390625 C 46.152344 72.308594 46.296875 72.574219 46.117188 72.65625 C 45.8125 72.796875 45.492188 72.871094 45.160156 72.882812 C 45.175781 72.96875 45.21875 73.054688 45.285156 73.15625 C 45.308594 73.191406 45.332031 73.222656 45.359375 73.253906 C 45.378906 73.242188 45.402344 73.238281 45.429688 73.234375 C 45.75 73.214844 46.058594 73.144531 46.355469 73.023438 C 46.539062 72.949219 46.683594 73.214844 46.5 73.289062 C 46.253906 73.390625 46.003906 73.460938 45.742188 73.5 C 45.796875 73.519531 45.847656 73.535156 45.90625 73.546875 C 46.59375 73.710938 47.410156 73.46875 48.070312 73.28125 C 48.808594 73.074219 49.519531 72.789062 50.191406 72.433594 C 51.574219 71.707031 52.769531 70.695312 53.710938 69.476562 C 53.832031 69.324219 54.09375 69.484375 53.972656 69.636719 C 52.945312 70.972656 51.625 72.070312 50.089844 72.828125 C 49.355469 73.1875 48.578125 73.472656 47.777344 73.667969 C 47.101562 73.835938 46.28125 74.035156 45.601562 73.773438 C 45.128906 73.59375 44.773438 73.128906 44.839844 72.617188 C 44.925781 71.945312 45.625 71.902344 46.171875 71.777344 C 48.140625 71.320312 49.667969 70.058594 50.101562 68.097656 C 50.144531 67.910156 50.4375 68 50.398438 68.1875 " fill-opacity="1" fill-rule="nonzero"/></svg>