<svg xmlns="http://www.w3.org/2000/svg" xmlns:xlink="http://www.w3.org/1999/xlink" width="500" zoomAndPan="magnify" viewBox="0 0 375 374.999991" height="500" preserveAspectRatio="xMidYMid meet" version="1.0"><defs><clipPath id="4fc4938e9c"><path d="M 57.125 31.128906 L 327.875 31.128906 L 327.875 343.878906 L 57.125 343.878906 Z M 57.125 31.128906 " clip-rule="nonzero"/></clipPath><clipPath id="a93c804ff6"><path d="M 63.945312 41.25 L 321.195312 41.25 L 321.195312 338.25 L 63.945312 338.25 Z M 63.945312 41.25 " clip-rule="nonzero"/></clipPath></defs><path fill="#000000" d="M 145.945312 151.035156 L 156.480469 151.035156 C 159.003906 168.679688 174.175781 182.292969 192.5 182.292969 C 210.824219 182.292969 226 168.679688 228.519531 151.035156 L 239.054688 151.035156 C 239.238281 152.746094 239.359375 154.472656 239.359375 156.246094 C 239.359375 182.089844 218.351562 203.132812 192.5 203.132812 C 166.648438 203.132812 145.640625 182.089844 145.640625 156.246094 C 145.640625 154.472656 145.761719 152.746094 145.945312 151.035156 Z M 192.5 161.453125 C 195.367188 161.453125 197.707031 159.113281 197.707031 156.246094 L 197.707031 151.035156 L 218.003906 151.035156 C 215.585938 162.917969 205.070312 171.875 192.5 171.875 C 179.929688 171.875 169.414062 162.917969 166.996094 151.035156 L 187.292969 151.035156 L 187.292969 156.246094 C 187.292969 159.113281 189.632812 161.453125 192.5 161.453125 Z M 192.5 109.355469 C 212.859375 109.355469 230.167969 122.441406 236.613281 140.613281 L 148.386719 140.613281 C 154.832031 122.441406 172.140625 109.355469 192.5 109.355469 Z M 192.5 213.554688 C 224.085938 213.554688 249.773438 187.851562 249.773438 156.246094 C 249.773438 124.640625 224.085938 98.9375 192.5 98.9375 C 160.914062 98.9375 135.226562 124.640625 135.226562 156.246094 C 135.226562 187.851562 160.914062 213.554688 192.5 213.554688 " fill-opacity="1" fill-rule="nonzero"/><path fill="#000000" d="M 156.03125 255.476562 L 149.625 244.8125 L 162.359375 244.8125 Z M 124.8125 244.8125 L 137.484375 244.8125 L 151.597656 268.335938 C 152.535156 269.90625 154.222656 270.863281 156.054688 270.863281 C 156.054688 270.863281 156.074219 270.863281 156.074219 270.863281 C 157.902344 270.863281 159.59375 269.882812 160.527344 268.316406 L 174.460938 244.8125 L 260.1875 244.8125 L 260.1875 234.390625 L 124.8125 234.390625 L 124.8125 244.8125 " fill-opacity="1" fill-rule="nonzero"/><g clip-path="url(#4fc4938e9c)"><path fill="#000000" d="M 267.46875 287.527344 C 266.167969 288.527344 265.394531 290.074219 265.394531 291.699219 L 265.394531 322.960938 C 265.394531 328.699219 260.714844 333.378906 254.980469 333.378906 C 249.246094 333.378906 244.566406 328.699219 244.566406 322.960938 L 244.566406 309.019531 C 244.566406 307.289062 243.734375 305.703125 242.308594 304.726562 C 241.433594 304.113281 240.398438 303.808594 239.359375 303.808594 C 238.730469 303.808594 238.101562 303.910156 237.488281 304.15625 C 208.691406 315.289062 176.3125 315.289062 147.511719 304.15625 C 145.925781 303.546875 144.113281 303.75 142.691406 304.726562 C 141.265625 305.703125 140.433594 307.289062 140.433594 309.019531 L 140.433594 322.960938 C 140.433594 328.699219 135.753906 333.378906 130.019531 333.378906 C 124.285156 333.378906 119.605469 328.699219 119.605469 322.960938 L 119.605469 291.699219 C 119.605469 290.074219 118.832031 288.527344 117.53125 287.527344 C 85.761719 263.65625 67.539062 227.207031 67.539062 187.503906 C 67.539062 147.800781 85.761719 111.351562 117.53125 87.476562 C 118.367188 86.828125 119.015625 85.953125 119.339844 84.953125 L 131.382812 48.8125 L 142.875 68.003906 C 144.175781 70.140625 146.820312 71.074219 149.160156 70.199219 C 176.902344 59.945312 208.101562 59.945312 235.84375 70.199219 C 238.179688 71.074219 240.824219 70.140625 242.128906 68.003906 L 253.617188 48.8125 L 265.660156 84.953125 C 265.984375 85.953125 266.636719 86.828125 267.46875 87.476562 C 299.238281 111.351562 317.460938 147.800781 317.460938 187.503906 C 317.460938 227.207031 299.238281 263.65625 267.46875 287.527344 Z M 275.035156 80.132812 L 259.921875 34.769531 C 259.273438 32.835938 257.5625 31.453125 255.550781 31.25 C 253.496094 31.003906 251.5625 32 250.527344 33.730469 L 235.375 58.988281 C 207.773438 49.769531 177.226562 49.769531 149.625 58.988281 L 134.472656 33.730469 C 133.4375 32 131.484375 31.003906 129.449219 31.25 C 127.4375 31.453125 125.726562 32.835938 125.078125 34.769531 L 109.964844 80.132812 C 76.367188 105.996094 57.125 145.050781 57.125 187.503906 C 57.125 229.628906 76.0625 268.398438 109.191406 294.265625 L 109.191406 322.960938 C 109.191406 334.457031 118.527344 343.800781 130.019531 343.800781 C 141.511719 343.800781 150.847656 334.457031 150.847656 322.960938 L 150.847656 316.386719 C 177.734375 325.117188 207.265625 325.117188 234.152344 316.386719 L 234.152344 322.960938 C 234.152344 334.457031 243.488281 343.800781 254.980469 343.800781 C 266.472656 343.800781 275.808594 334.457031 275.808594 322.960938 L 275.808594 294.265625 C 308.941406 268.398438 327.875 229.628906 327.875 187.503906 C 327.875 145.050781 308.636719 105.996094 275.035156 80.132812 " fill-opacity="1" fill-rule="nonzero"/></g><path fill="#000000" d="M 148.335938 155.117188 L 158.34375 155.117188 C 160.742188 171.871094 175.15625 184.800781 192.570312 184.800781 C 209.980469 184.800781 224.398438 171.871094 226.792969 155.117188 L 236.804688 155.117188 C 236.976562 156.742188 237.09375 158.382812 237.09375 160.066406 C 237.09375 184.609375 217.128906 204.59375 192.570312 204.59375 C 168.007812 204.59375 148.042969 184.609375 148.042969 160.066406 C 148.042969 158.382812 148.160156 156.742188 148.335938 155.117188 Z M 192.570312 165.011719 C 195.292969 165.011719 197.515625 162.789062 197.515625 160.066406 L 197.515625 155.117188 L 216.800781 155.117188 C 214.503906 166.402344 204.511719 174.90625 192.570312 174.90625 C 180.625 174.90625 170.636719 166.402344 168.335938 155.117188 L 187.621094 155.117188 L 187.621094 160.066406 C 187.621094 162.789062 189.84375 165.011719 192.570312 165.011719 Z M 192.570312 115.535156 C 211.914062 115.535156 228.359375 127.964844 234.484375 145.222656 L 150.652344 145.222656 C 156.78125 127.964844 173.226562 115.535156 192.570312 115.535156 Z M 192.570312 214.488281 C 222.582031 214.488281 246.988281 190.078125 246.988281 160.066406 C 246.988281 130.050781 222.582031 105.640625 192.570312 105.640625 C 162.558594 105.640625 138.152344 130.050781 138.152344 160.066406 C 138.152344 190.078125 162.558594 214.488281 192.570312 214.488281 " fill-opacity="1" fill-rule="nonzero"/><path fill="#000000" d="M 157.917969 254.300781 L 151.832031 244.171875 L 163.929688 244.171875 Z M 128.257812 244.171875 L 140.296875 244.171875 L 153.707031 266.515625 C 154.597656 268.003906 156.199219 268.910156 157.9375 268.910156 C 157.9375 268.910156 157.957031 268.910156 157.957031 268.910156 C 159.699219 268.910156 161.300781 267.984375 162.191406 266.496094 L 175.429688 244.171875 L 256.882812 244.171875 L 256.882812 234.277344 L 128.257812 234.277344 L 128.257812 244.171875 " fill-opacity="1" fill-rule="nonzero"/><g clip-path="url(#a93c804ff6)"><path fill="#000000" d="M 263.800781 284.738281 C 262.5625 285.6875 261.828125 287.15625 261.828125 288.703125 L 261.828125 318.386719 C 261.828125 323.835938 257.382812 328.28125 251.933594 328.28125 C 246.484375 328.28125 242.039062 323.835938 242.039062 318.386719 L 242.039062 305.148438 C 242.039062 303.503906 241.246094 301.996094 239.894531 301.070312 C 239.0625 300.492188 238.078125 300.199219 237.09375 300.199219 C 236.492188 300.199219 235.894531 300.296875 235.316406 300.527344 C 207.953125 311.101562 177.1875 311.101562 149.824219 300.527344 C 148.316406 299.949219 146.59375 300.140625 145.242188 301.070312 C 143.890625 301.996094 143.097656 303.503906 143.097656 305.148438 L 143.097656 318.386719 C 143.097656 323.835938 138.652344 328.28125 133.203125 328.28125 C 127.753906 328.28125 123.308594 323.835938 123.308594 318.386719 L 123.308594 288.703125 C 123.308594 287.15625 122.574219 285.6875 121.339844 284.738281 C 91.152344 262.070312 73.839844 227.457031 73.839844 189.75 C 73.839844 152.042969 91.152344 117.429688 121.339844 94.761719 C 122.128906 94.140625 122.75 93.3125 123.058594 92.363281 L 134.5 58.039062 L 145.417969 76.265625 C 146.652344 78.292969 149.164062 79.183594 151.386719 78.351562 C 177.746094 68.613281 207.390625 68.613281 233.75 78.351562 C 235.972656 79.183594 238.484375 78.292969 239.722656 76.265625 L 250.640625 58.039062 L 262.078125 92.363281 C 262.390625 93.3125 263.007812 94.140625 263.800781 94.761719 C 293.984375 117.429688 311.300781 152.042969 311.300781 189.75 C 311.300781 227.457031 293.984375 262.070312 263.800781 284.738281 Z M 270.988281 87.785156 L 256.628906 44.707031 C 256.011719 42.867188 254.386719 41.554688 252.476562 41.363281 C 250.523438 41.128906 248.6875 42.078125 247.703125 43.71875 L 233.304688 67.703125 C 207.082031 58.949219 178.054688 58.949219 151.832031 67.703125 L 137.4375 43.71875 C 136.449219 42.078125 134.59375 41.128906 132.664062 41.363281 C 130.75 41.554688 129.125 42.867188 128.507812 44.707031 L 114.148438 87.785156 C 82.226562 112.347656 63.945312 149.433594 63.945312 189.75 C 63.945312 229.753906 81.933594 266.574219 113.414062 291.136719 L 113.414062 318.386719 C 113.414062 329.304688 122.285156 338.175781 133.203125 338.175781 C 144.121094 338.175781 152.992188 329.304688 152.992188 318.386719 L 152.992188 312.144531 C 178.539062 320.433594 206.597656 320.433594 232.144531 312.144531 L 232.144531 318.386719 C 232.144531 329.304688 241.015625 338.175781 251.933594 338.175781 C 262.851562 338.175781 271.722656 329.304688 271.722656 318.386719 L 271.722656 291.136719 C 303.203125 266.574219 321.195312 229.753906 321.195312 189.75 C 321.195312 149.433594 302.914062 112.347656 270.988281 87.785156 " fill-opacity="1" fill-rule="nonzero"/></g></svg>