<svg xmlns="http://www.w3.org/2000/svg" xmlns:xlink="http://www.w3.org/1999/xlink" width="200" zoomAndPan="magnify" viewBox="0 0 150 112.499997" height="150" preserveAspectRatio="xMidYMid meet" version="1.0"><defs><clipPath id="78c7c3e94c"><path d="M 73 84 L 82 84 L 82 100.800781 L 73 100.800781 Z M 73 84 " clip-rule="nonzero"/></clipPath><clipPath id="a1ee69a7bf"><path d="M 73 95 L 82 95 L 82 100.800781 L 73 100.800781 Z M 73 95 " clip-rule="nonzero"/></clipPath><clipPath id="01a514ec49"><path d="M 34 11.199219 L 50 11.199219 L 50 33 L 34 33 Z M 34 11.199219 " clip-rule="nonzero"/></clipPath><clipPath id="a6a7cdbf88"><path d="M 47 85 L 57 85 L 57 100.800781 L 47 100.800781 Z M 47 85 " clip-rule="nonzero"/></clipPath><clipPath id="688e02124b"><path d="M 47 95 L 57 95 L 57 100.800781 L 47 100.800781 Z M 47 95 " clip-rule="nonzero"/></clipPath></defs><path fill="#935c36" d="M 37.867188 21.785156 C 37.386719 22.140625 37.019531 22.535156 36.742188 22.976562 C 36.140625 22.09375 35.082031 19.957031 35.265625 16.90625 C 35.335938 15.753906 35.703125 13.015625 35.933594 13.613281 C 36.394531 14.503906 37.148438 15.125 37.546875 15.570312 C 38.488281 16.628906 39.277344 17.011719 40.140625 18.148438 C 40.65625 18.820312 41.128906 19.832031 41.035156 20.753906 C 39.910156 20.808594 38.789062 21.109375 37.867188 21.785156 " fill-opacity="1" fill-rule="nonzero"/><path fill="#fac0b0" d="M 36.851562 22.816406 C 35.691406 20.453125 35.304688 18.117188 35.796875 15.546875 C 36.101562 16.078125 36.421875 16.609375 36.773438 17.125 C 37.601562 18.34375 38.617188 19.601562 38.707031 21.128906 C 38.710938 21.1875 38.722656 21.238281 38.734375 21.292969 C 38.433594 21.429688 38.140625 21.585938 37.867188 21.785156 C 37.445312 22.097656 37.117188 22.441406 36.851562 22.816406 " fill-opacity="1" fill-rule="nonzero"/><path fill="#552d18" d="M 99.660156 49.449219 C 99.660156 49.449219 105.0625 46.679688 105.632812 51.238281 C 106.203125 55.796875 99.546875 65.710938 103.472656 73.972656 C 107.398438 82.238281 116.667969 77.964844 114.449219 72.378906 C 114.449219 72.378906 112.402344 75.890625 110.695312 74.417969 C 108.988281 72.949219 106.65625 71.410156 110.527344 65.085938 C 114.394531 58.761719 120.023438 47.363281 112.117188 40.46875 C 104.210938 33.574219 94.199219 39.332031 95.050781 48.675781 C 95.90625 58.019531 99.660156 49.449219 99.660156 49.449219 " fill-opacity="1" fill-rule="nonzero"/><path fill="#895632" d="M 81.703125 77.777344 C 80.949219 78.683594 80.375 79.722656 79.714844 80.699219 C 78.425781 82.605469 77.660156 84.429688 77.273438 85.445312 C 76.488281 87.488281 78.957031 92.722656 79.988281 89.542969 C 81.097656 86.132812 83.945312 85.859375 86 82.902344 C 86.75 81.816406 87.527344 80.75 88.253906 79.644531 C 88.859375 78.726562 89.339844 77.546875 88.503906 76.632812 C 87.890625 75.964844 85.082031 73.714844 81.703125 77.777344 " fill-opacity="1" fill-rule="nonzero"/><g clip-path="url(#78c7c3e94c)"><path fill="#895632" d="M 77.535156 84.785156 C 76.757812 85.902344 75.96875 92.5625 75.566406 93.71875 C 75.222656 94.707031 74.550781 95.578125 74.335938 96.613281 C 74.140625 97.546875 73.238281 99.261719 74.003906 100.054688 C 74.738281 100.8125 76.144531 100.765625 77.09375 100.699219 C 78.308594 100.605469 79.65625 100.632812 80.84375 100.0625 C 81.574219 99.714844 81.753906 99.382812 81.539062 98.613281 C 81.40625 98.144531 81.332031 97.6875 81.199219 97.21875 C 81.046875 96.671875 80.835938 96.164062 80.550781 95.714844 C 80.238281 95.222656 79.890625 94.984375 80.28125 94.414062 C 80.660156 93.851562 81.441406 93.765625 81.785156 93.15625 C 82.164062 92.488281 81.488281 92.042969 81.175781 91.457031 C 80.449219 90.101562 80.347656 88.863281 81.234375 87.335938 L 77.535156 84.785156 " fill-opacity="1" fill-rule="nonzero"/></g><g clip-path="url(#a1ee69a7bf)"><path fill="#251512" d="M 81.199219 97.21875 C 81.070312 96.738281 80.878906 96.300781 80.644531 95.898438 C 79.238281 96.238281 77.578125 96.277344 76.214844 95.96875 C 75.609375 95.832031 75.160156 95.601562 74.839844 95.277344 C 74.628906 95.703125 74.433594 96.140625 74.335938 96.613281 C 74.140625 97.546875 73.238281 99.261719 74.003906 100.054688 C 74.738281 100.8125 76.144531 100.765625 77.09375 100.699219 C 78.308594 100.605469 79.65625 100.632812 80.84375 100.0625 C 81.574219 99.714844 81.753906 99.382812 81.539062 98.613281 C 81.40625 98.144531 81.332031 97.6875 81.199219 97.21875 " fill-opacity="1" fill-rule="nonzero"/></g><path fill="#895632" d="M 90.070312 51.523438 C 91.175781 53.714844 91.171875 55.9375 90.800781 58.292969 C 89.992188 63.433594 87.457031 68.410156 87.378906 73.527344 C 87.363281 74.542969 87.460938 75.40625 88.226562 76.265625 C 86.515625 77.386719 81.160156 81.332031 80.78125 78.96875 C 80.269531 75.804688 77.867188 72.445312 77.371094 71.453125 C 74.636719 65.972656 70.636719 61.582031 69.308594 55.320312 C 68.863281 53.21875 69.507812 50.628906 70.78125 48.902344 C 72.714844 46.277344 75.9375 47.085938 78.824219 46.878906 C 81.707031 46.671875 85.507812 42.46875 90.070312 51.523438 " fill-opacity="1" fill-rule="nonzero"/><path fill="#895632" d="M 53.929688 68.671875 C 52.421875 69.464844 50.878906 69.488281 49.242188 69.257812 C 45.664062 68.757812 43.1875 68.21875 39.636719 68.226562 C 38.929688 68.226562 38.167969 68.28125 37.433594 68.363281 C 36.640625 67.1875 33.160156 63.007812 34.277344 61.777344 C 34.773438 61.234375 35.894531 61.046875 36.523438 60.683594 C 37.167969 60.308594 37.90625 59.992188 38.589844 59.636719 C 42.359375 57.667969 46.722656 55.261719 51.050781 54.265625 C 52.503906 53.929688 54.308594 54.347656 55.523438 55.214844 C 57.363281 56.527344 58.316406 58.539062 58.496094 60.546875 C 58.675781 62.554688 60.15625 65.386719 53.929688 68.671875 " fill-opacity="1" fill-rule="nonzero"/><path fill="#895632" d="M 32.453125 66.367188 C 32.460938 67.546875 32.695312 68.710938 32.820312 69.882812 C 33.066406 72.171875 33.367188 74.480469 34.050781 76.6875 C 34.539062 78.265625 35.15625 80.664062 36.871094 81.347656 C 38.898438 82.15625 39.128906 79.617188 38.933594 78.265625 C 38.425781 74.714844 39.382812 71.085938 39.039062 67.496094 C 38.910156 66.183594 38.8125 64.867188 38.65625 63.550781 C 38.523438 62.460938 38.132812 61.25 36.90625 61.09375 C 36.003906 60.976562 32.410156 61.078125 32.453125 66.367188 " fill-opacity="1" fill-rule="nonzero"/><path fill="#935c36" d="M 51.148438 46.28125 C 51.140625 46.328125 51.132812 46.367188 51.128906 46.40625 C 50.578125 49.976562 48.78125 53.234375 48.449219 56.855469 C 48.15625 60.035156 47.761719 67.132812 49.839844 69.597656 C 52.203125 72.398438 56.949219 70.355469 60.492188 70.917969 C 64.351562 71.527344 68.414062 71.890625 72.320312 71.742188 C 77.84375 71.535156 84.9375 69.542969 90.011719 67.289062 C 94.65625 65.230469 97.277344 63.472656 98.140625 62.214844 C 100.46875 58.832031 101.984375 55.75 101.203125 51.800781 C 100.472656 48.113281 98.351562 45.453125 94.558594 44.789062 C 93.59375 44.617188 84.398438 44.527344 83.453125 44.496094 C 79.296875 44.351562 75.273438 45.324219 71.078125 45.691406 C 68.386719 45.921875 62.757812 43.175781 61.4375 33.5 C 60.855469 29.246094 59.578125 24.703125 51.761719 20.246094 L 49.945312 40.582031 C 51.882812 40.652344 51.34375 44.972656 51.148438 46.28125 " fill-opacity="1" fill-rule="nonzero"/><path fill="#fac0ad" d="M 30.632812 36.953125 C 30.890625 37.746094 32.558594 38.964844 33.351562 38.707031 C 34.140625 38.449219 33.753906 36.816406 33.496094 36.023438 C 33.238281 35.230469 32.390625 34.796875 31.597656 35.050781 C 30.808594 35.308594 30.375 36.160156 30.632812 36.953125 " fill-opacity="1" fill-rule="nonzero"/><path fill="#935c36" d="M 51.761719 20.246094 C 50.183594 19.28125 47.902344 18.929688 46.042969 18.835938 C 42.640625 18.664062 37.265625 19.714844 36.089844 23.273438 C 35.109375 26.253906 35.800781 29.699219 34.800781 32.609375 C 33.679688 35.875 30.722656 37.75 30.242188 41.335938 C 29.832031 44.40625 31.074219 47.652344 34.386719 48.335938 C 35.613281 48.59375 37.605469 48.769531 38.792969 48.351562 C 40.34375 47.804688 40.761719 46.296875 41.667969 45.210938 C 43.679688 42.800781 47.5625 44.28125 50.113281 42.433594 C 53.171875 40.222656 53.808594 36.1875 54.21875 33.078125 C 55.59375 22.726562 53.542969 21.335938 51.761719 20.246094 " fill-opacity="1" fill-rule="nonzero"/><path fill="#fac0ad" d="M 43.0625 44.183594 C 43.480469 42.664062 43.367188 41.050781 42.371094 39.53125 C 40.511719 36.683594 36.507812 33.910156 33.160156 35.621094 C 31.933594 37.371094 30.558594 38.988281 30.242188 41.335938 C 29.832031 44.40625 31.074219 47.652344 34.386719 48.335938 C 35.613281 48.59375 37.605469 48.769531 38.792969 48.351562 C 40.34375 47.804688 40.761719 46.296875 41.667969 45.210938 C 42.070312 44.730469 42.542969 44.410156 43.0625 44.183594 " fill-opacity="1" fill-rule="nonzero"/><path fill="#784a2b" d="M 53.230469 29.296875 C 53.230469 29.296875 53.355469 29.46875 53.53125 29.800781 C 53.707031 30.128906 53.933594 30.617188 54.128906 31.234375 C 54.222656 31.542969 54.320312 31.878906 54.386719 32.242188 C 54.460938 32.605469 54.523438 32.996094 54.546875 33.402344 C 54.582031 33.808594 54.585938 34.226562 54.566406 34.65625 C 54.535156 35.082031 54.492188 35.515625 54.40625 35.945312 C 54.328125 36.371094 54.207031 36.792969 54.074219 37.199219 C 53.945312 37.605469 53.773438 37.992188 53.597656 38.359375 C 53.421875 38.722656 53.230469 39.066406 53.027344 39.375 C 52.832031 39.691406 52.617188 39.96875 52.421875 40.222656 C 52.214844 40.472656 52.03125 40.699219 51.84375 40.882812 C 51.664062 41.074219 51.511719 41.234375 51.371094 41.359375 C 51.089844 41.609375 50.929688 41.746094 50.929688 41.746094 C 50.929688 41.746094 51.054688 41.570312 51.273438 41.273438 C 51.390625 41.132812 51.507812 40.9375 51.65625 40.730469 C 51.808594 40.523438 51.953125 40.273438 52.125 40.011719 C 52.210938 39.882812 52.28125 39.738281 52.367188 39.59375 C 52.449219 39.445312 52.539062 39.296875 52.617188 39.136719 C 52.785156 38.824219 52.9375 38.480469 53.089844 38.128906 C 53.242188 37.773438 53.371094 37.394531 53.492188 37.011719 C 53.613281 36.625 53.71875 36.230469 53.785156 35.824219 C 53.871094 35.425781 53.917969 35.015625 53.957031 34.617188 C 53.976562 34.210938 54.007812 33.8125 53.992188 33.429688 C 53.984375 33.042969 53.960938 32.667969 53.921875 32.316406 C 53.882812 31.964844 53.828125 31.628906 53.777344 31.320312 C 53.546875 30.09375 53.230469 29.296875 53.230469 29.296875 " fill-opacity="1" fill-rule="nonzero"/><path fill="#fac0ad" d="M 42.378906 37.453125 C 41.953125 38.769531 39.171875 40.792969 37.855469 40.367188 C 36.542969 39.941406 37.1875 37.222656 37.617188 35.902344 C 38.042969 34.585938 39.457031 33.863281 40.769531 34.292969 C 42.085938 34.71875 42.804688 36.132812 42.378906 37.453125 " fill-opacity="1" fill-rule="nonzero"/><path fill="#f8a48d" d="M 40.640625 35.878906 C 40.429688 35.621094 40.140625 35.40625 39.820312 35.332031 C 39.511719 35.257812 38.871094 35.339844 38.652344 35.605469 C 38.359375 35.96875 38.648438 36.558594 38.839844 36.902344 C 39.371094 37.851562 39.652344 38.574219 39.476562 39.464844 C 39.960938 39.179688 40.449219 38.566406 40.660156 38.269531 C 41.117188 37.625 41.195312 36.703125 40.753906 36.035156 C 40.722656 35.984375 40.683594 35.933594 40.640625 35.878906 " fill-opacity="1" fill-rule="nonzero"/><path fill="#f79889" d="M 39.285156 37.023438 C 39.09375 36.675781 38.804688 36.089844 39.097656 35.722656 C 39.277344 35.5 39.75 35.410156 40.082031 35.429688 C 39.996094 35.386719 39.910156 35.351562 39.820312 35.332031 C 39.511719 35.257812 38.871094 35.339844 38.652344 35.605469 C 38.359375 35.96875 38.648438 36.558594 38.839844 36.902344 C 39.371094 37.851562 39.652344 38.574219 39.476562 39.464844 C 39.644531 39.367188 39.808594 39.226562 39.964844 39.078125 C 39.96875 38.402344 39.710938 37.785156 39.285156 37.023438 " fill-opacity="1" fill-rule="nonzero"/><path fill="#f8a48d" d="M 42.417969 42.464844 C 42.417969 42.464844 42.390625 42.628906 42.308594 42.90625 C 42.21875 43.183594 42.097656 43.582031 41.882812 44.035156 C 41.78125 44.265625 41.652344 44.503906 41.515625 44.757812 C 41.371094 45.003906 41.214844 45.265625 41.027344 45.519531 C 40.839844 45.773438 40.636719 46.03125 40.410156 46.269531 C 40.183594 46.511719 39.941406 46.746094 39.679688 46.960938 C 39.550781 47.070312 39.410156 47.164062 39.277344 47.265625 C 39.136719 47.355469 38.996094 47.453125 38.855469 47.535156 C 38.566406 47.707031 38.273438 47.851562 37.980469 47.96875 C 37.691406 48.089844 37.394531 48.175781 37.117188 48.246094 C 36.835938 48.316406 36.566406 48.355469 36.316406 48.390625 C 36.070312 48.417969 35.839844 48.441406 35.636719 48.4375 C 35.433594 48.433594 35.257812 48.441406 35.113281 48.425781 C 34.824219 48.402344 34.660156 48.390625 34.660156 48.390625 C 34.660156 48.390625 34.824219 48.382812 35.113281 48.367188 C 35.257812 48.363281 35.429688 48.335938 35.628906 48.320312 C 35.828125 48.300781 36.050781 48.25 36.289062 48.214844 C 36.53125 48.164062 36.789062 48.109375 37.054688 48.019531 C 37.320312 47.9375 37.59375 47.832031 37.871094 47.710938 C 38.152344 47.589844 38.421875 47.4375 38.695312 47.273438 C 38.832031 47.191406 38.964844 47.097656 39.097656 47.011719 C 39.222656 46.910156 39.359375 46.820312 39.480469 46.714844 C 39.730469 46.511719 39.96875 46.289062 40.1875 46.058594 C 40.40625 45.828125 40.617188 45.59375 40.804688 45.351562 C 41.175781 44.871094 41.492188 44.390625 41.722656 43.957031 C 41.960938 43.523438 42.140625 43.152344 42.25 42.886719 C 42.363281 42.621094 42.417969 42.464844 42.417969 42.464844 " fill-opacity="1" fill-rule="nonzero"/><g clip-path="url(#01a514ec49)"><path fill="#552d18" d="M 46.042969 18.835938 C 46 18.859375 44.554688 19.730469 44.242188 20.453125 C 43.816406 21.433594 44.273438 22.542969 44.183594 23.546875 C 43.707031 23.09375 43.582031 22.28125 43.550781 21.65625 C 42.160156 22.382812 42.375 24.464844 42.277344 25.765625 C 42.019531 25.015625 41.800781 23.488281 41.054688 23.027344 C 40.851562 23.855469 41.011719 24.929688 40.914062 25.777344 C 40.792969 26.785156 40.527344 27.53125 39.851562 28.316406 C 39.328125 28.925781 38.730469 29.375 38.382812 30.117188 C 37.992188 30.957031 37.964844 31.492188 37.894531 32.417969 C 37.660156 31.828125 37.589844 31.4375 37.589844 30.742188 C 37.589844 29.859375 37.785156 29.140625 38.066406 28.304688 C 38.605469 26.6875 38.394531 24.539062 37.6875 23.039062 C 37.261719 23.003906 36.484375 22.660156 35.707031 24.347656 C 35.601562 23.351562 35.894531 22.363281 36.21875 21.429688 C 36.410156 20.886719 36.796875 20.402344 36.953125 19.859375 C 36.230469 20.105469 35.53125 20.738281 34.695312 20.859375 C 35.273438 19.570312 36.011719 18.714844 37.125 17.765625 C 37.574219 17.386719 37.9375 16.953125 38.4375 16.644531 C 38.726562 16.46875 39.074219 16.34375 39.324219 16.128906 C 38.527344 15.402344 37.40625 15.78125 36.433594 15.660156 C 37.160156 14.835938 38.027344 14.3125 38.972656 13.78125 C 39.742188 13.351562 40.128906 13.167969 41.015625 13.195312 C 41.496094 13.210938 41.96875 13.269531 42.445312 13.238281 C 42.046875 12.992188 41.59375 12.683594 41.152344 12.46875 C 40.449219 12.121094 39.382812 12.007812 38.804688 11.566406 C 39.820312 11.210938 41.039062 11.359375 42.074219 11.542969 C 42.667969 11.648438 43.273438 11.84375 43.828125 12.09375 C 44.183594 12.253906 44.960938 12.875 45.296875 12.773438 C 45.296875 12.773438 48.421875 13.722656 48.992188 15.570312 C 49.566406 17.421875 46.042969 18.835938 46.042969 18.835938 " fill-opacity="1" fill-rule="nonzero"/></g><path fill="#3a2015" d="M 47.679688 30.335938 C 47.679688 30.335938 47.621094 30.214844 47.53125 30.011719 C 47.484375 29.914062 47.429688 29.796875 47.367188 29.660156 C 47.300781 29.53125 47.234375 29.386719 47.148438 29.25 C 47.066406 29.109375 46.972656 28.976562 46.867188 28.871094 C 46.8125 28.820312 46.757812 28.769531 46.6875 28.714844 C 46.65625 28.6875 46.617188 28.664062 46.574219 28.625 L 46.558594 28.613281 L 46.550781 28.605469 L 46.5625 28.621094 L 46.558594 28.617188 L 46.527344 28.589844 L 46.460938 28.539062 L 46.375 28.492188 C 46.339844 28.476562 46.308594 28.457031 46.273438 28.441406 C 46.203125 28.410156 46.128906 28.386719 46.058594 28.363281 C 45.910156 28.324219 45.757812 28.300781 45.601562 28.308594 C 45.445312 28.308594 45.285156 28.34375 45.125 28.394531 C 44.988281 28.4375 44.960938 28.453125 44.890625 28.476562 C 44.820312 28.511719 44.753906 28.546875 44.6875 28.585938 C 44.558594 28.664062 44.441406 28.765625 44.335938 28.882812 C 44.230469 29.003906 44.140625 29.144531 44.058594 29.285156 C 43.980469 29.425781 43.90625 29.570312 43.847656 29.703125 C 43.789062 29.832031 43.730469 29.953125 43.691406 30.054688 C 43.605469 30.257812 43.546875 30.378906 43.546875 30.378906 C 43.546875 30.378906 43.484375 30.257812 43.421875 30.042969 C 43.355469 29.820312 43.28125 29.5 43.300781 29.082031 C 43.3125 28.875 43.347656 28.644531 43.441406 28.398438 C 43.535156 28.15625 43.683594 27.902344 43.894531 27.679688 C 43.996094 27.570312 44.117188 27.476562 44.242188 27.386719 C 44.378906 27.296875 44.558594 27.199219 44.644531 27.167969 C 44.921875 27.039062 45.242188 26.964844 45.566406 26.957031 C 45.890625 26.949219 46.21875 27.007812 46.515625 27.136719 C 46.664062 27.195312 46.808594 27.273438 46.933594 27.367188 C 47 27.410156 47.058594 27.460938 47.117188 27.511719 C 47.175781 27.558594 47.242188 27.628906 47.292969 27.683594 C 47.335938 27.734375 47.375 27.785156 47.414062 27.832031 C 47.449219 27.878906 47.488281 27.929688 47.523438 27.984375 C 47.597656 28.097656 47.675781 28.214844 47.726562 28.339844 C 47.839844 28.589844 47.878906 28.828125 47.898438 29.035156 C 47.925781 29.453125 47.855469 29.769531 47.796875 29.996094 C 47.769531 30.105469 47.734375 30.1875 47.714844 30.246094 C 47.691406 30.300781 47.679688 30.335938 47.679688 30.335938 " fill-opacity="1" fill-rule="nonzero"/><path fill="#3a2015" d="M 36.832031 26.980469 C 36.808594 26.878906 36.769531 26.773438 36.730469 26.675781 L 36.671875 26.542969 L 36.585938 26.398438 C 36.5625 26.355469 36.550781 26.324219 36.511719 26.273438 L 36.378906 26.117188 C 36.285156 26.011719 36.191406 25.945312 36.089844 25.863281 C 35.941406 25.769531 35.777344 25.699219 35.609375 25.648438 C 35.570312 26.003906 35.542969 26.363281 35.515625 26.726562 L 35.542969 26.738281 C 35.589844 26.769531 35.65625 26.800781 35.6875 26.824219 L 35.746094 26.863281 C 35.769531 26.875 35.804688 26.921875 35.832031 26.949219 L 35.878906 27 L 35.898438 27.023438 L 35.902344 27.027344 L 35.886719 27 L 35.890625 27.007812 L 35.902344 27.019531 L 35.972656 27.105469 C 36.019531 27.15625 36.050781 27.207031 36.085938 27.253906 C 36.148438 27.351562 36.203125 27.46875 36.246094 27.589844 C 36.324219 27.832031 36.382812 28.054688 36.417969 28.234375 C 36.453125 28.40625 36.484375 28.503906 36.484375 28.503906 C 36.484375 28.503906 36.542969 28.417969 36.625 28.261719 C 36.664062 28.183594 36.710938 28.085938 36.75 27.964844 C 36.792969 27.84375 36.828125 27.703125 36.847656 27.539062 C 36.867188 27.378906 36.875 27.1875 36.832031 26.980469 " fill-opacity="1" fill-rule="nonzero"/><path fill="#895632" d="M 34.453125 77.980469 C 35.167969 82.175781 37.273438 83.5 37.605469 83.695312 C 38.65625 84.316406 39.625 85.105469 40.449219 86.003906 C 41.160156 86.78125 41.601562 87.785156 42.410156 88.46875 C 43.132812 89.082031 44.214844 90.695312 45.273438 90.398438 C 46.285156 90.109375 46.917969 88.847656 47.308594 87.980469 C 47.804688 86.867188 48.46875 85.691406 48.535156 84.371094 C 48.574219 83.5625 48.367188 83.246094 47.59375 83.070312 C 47.117188 82.964844 46.679688 82.8125 46.203125 82.707031 C 45.652344 82.582031 45.105469 82.527344 44.574219 82.566406 C 43.992188 82.605469 43.621094 82.796875 43.304688 82.183594 C 42.992188 81.582031 43.285156 80.855469 42.914062 80.261719 C 42.507812 79.609375 41.796875 79.992188 41.132812 79.988281 C 39.597656 79.984375 38.964844 79.109375 38.792969 75.246094 L 34.453125 77.980469 " fill-opacity="1" fill-rule="nonzero"/><path fill="#251512" d="M 47.59375 83.070312 C 47.117188 82.964844 46.679688 82.8125 46.203125 82.707031 C 45.652344 82.582031 45.105469 82.527344 44.574219 82.566406 C 44.480469 83.453125 44.328125 84.324219 43.828125 85.082031 C 43.207031 86.019531 42.410156 86.835938 41.359375 87.222656 C 41.671875 87.671875 41.992188 88.113281 42.410156 88.46875 C 43.132812 89.082031 44.214844 90.695312 45.273438 90.398438 C 46.285156 90.109375 46.917969 88.847656 47.308594 87.980469 C 47.804688 86.867188 48.46875 85.691406 48.535156 84.371094 C 48.574219 83.5625 48.367188 83.246094 47.59375 83.070312 " fill-opacity="1" fill-rule="nonzero"/><path fill="#935c36" d="M 51.003906 75.671875 C 50.808594 76.898438 50.84375 78.152344 50.769531 79.390625 C 50.625 81.820312 50.53125 84.269531 50.851562 86.6875 C 51.085938 88.414062 51.308594 91.015625 52.96875 92.03125 C 54.9375 93.222656 55.621094 90.625 55.65625 89.1875 C 55.75 85.402344 57.382812 81.796875 57.652344 78.003906 C 57.753906 76.617188 57.882812 75.230469 57.949219 73.835938 C 58.003906 72.675781 57.808594 71.347656 56.558594 70.96875 C 55.640625 70.6875 51.886719 70.160156 51.003906 75.671875 " fill-opacity="1" fill-rule="nonzero"/><g clip-path="url(#a6a7cdbf88)"><path fill="#935c36" d="M 50.699219 85.105469 C 50.972656 88.046875 51.039062 88.992188 51 89.398438 C 50.867188 90.683594 50.535156 91.957031 50.03125 93.148438 C 49.601562 94.167969 48.835938 95.035156 48.535156 96.109375 C 48.261719 97.074219 47.191406 98.820312 47.941406 99.707031 C 48.664062 100.554688 50.152344 100.605469 51.152344 100.601562 C 52.433594 100.589844 53.851562 100.714844 55.144531 100.195312 C 55.9375 99.878906 56.152344 99.542969 55.976562 98.71875 C 55.871094 98.214844 55.824219 97.730469 55.71875 97.226562 C 55.59375 96.640625 55.40625 96.089844 55.136719 95.597656 C 54.84375 95.058594 54.496094 94.785156 54.945312 94.210938 C 55.386719 93.648438 56.210938 93.609375 56.617188 92.992188 C 57.0625 92.316406 56.382812 91.800781 56.09375 91.160156 C 55.421875 89.683594 55.9375 88.667969 55.996094 86.230469 L 50.699219 85.105469 " fill-opacity="1" fill-rule="nonzero"/></g><g clip-path="url(#688e02124b)"><path fill="#251512" d="M 55.71875 97.226562 C 55.601562 96.675781 55.421875 96.160156 55.179688 95.691406 C 53.855469 95.871094 52.519531 95.972656 51.175781 95.863281 C 50.40625 95.800781 49.546875 95.648438 48.902344 95.207031 C 48.753906 95.496094 48.621094 95.792969 48.535156 96.109375 C 48.261719 97.074219 47.191406 98.820312 47.941406 99.707031 C 48.664062 100.554688 50.152344 100.605469 51.152344 100.601562 C 52.433594 100.589844 53.851562 100.714844 55.144531 100.195312 C 55.9375 99.878906 56.152344 99.542969 55.976562 98.71875 C 55.871094 98.214844 55.824219 97.730469 55.71875 97.226562 " fill-opacity="1" fill-rule="nonzero"/></g><path fill="#935c36" d="M 64.171875 63.203125 C 64.460938 64.976562 63.964844 66.53125 63.1875 68.09375 C 61.484375 71.507812 57.957031 75.699219 57.167969 81.15625 C 57.0625 81.894531 50.871094 84.714844 50.636719 82.976562 C 49.695312 76.015625 49.011719 69.617188 50.191406 55.3125 C 50.324219 53.742188 55.53125 55.40625 57.59375 55.898438 C 59.652344 56.394531 62.984375 55.863281 64.171875 63.203125 " fill-opacity="1" fill-rule="nonzero"/><path fill="#935c36" d="M 100.5 75.121094 C 99.601562 75.886719 98.859375 76.8125 98.042969 77.660156 C 96.449219 79.324219 94.226562 81.425781 93.671875 82.355469 C 92.554688 84.238281 98.5 87.816406 98.492188 84.476562 C 98.488281 82.730469 102.328125 81.378906 103.078125 80.933594 C 104.503906 80.085938 105.730469 79.046875 106.632812 78.082031 C 107.386719 77.28125 108.0625 76.203125 107.394531 75.160156 C 106.90625 74.390625 104.519531 71.695312 100.5 75.121094 " fill-opacity="1" fill-rule="nonzero"/><path fill="#935c36" d="M 93.671875 82.355469 C 92.390625 85.058594 96.054688 90.453125 96.457031 91.609375 C 96.800781 92.597656 97.332031 93.921875 97.804688 94.871094 C 98.230469 95.726562 98.875 97.367188 99.96875 97.511719 C 101.011719 97.648438 102.089844 96.738281 102.789062 96.09375 C 103.683594 95.269531 104.757812 94.453125 105.339844 93.265625 C 105.695312 92.539062 105.632812 92.164062 104.988281 91.699219 C 104.59375 91.410156 104.25 91.101562 103.855469 90.8125 C 103.398438 90.480469 102.917969 90.214844 102.414062 90.039062 C 101.863281 89.847656 101.445312 89.875 101.398438 89.1875 C 101.347656 88.507812 101.90625 87.957031 101.800781 87.265625 C 101.683594 86.507812 100.875 86.574219 100.269531 86.3125 C 98.859375 85.699219 98.570312 85.289062 98.320312 83.539062 L 93.671875 82.355469 " fill-opacity="1" fill-rule="nonzero"/><path fill="#251512" d="M 104.988281 91.699219 C 104.59375 91.410156 104.25 91.101562 103.855469 90.8125 C 103.398438 90.480469 102.917969 90.214844 102.414062 90.039062 C 102.292969 89.996094 102.179688 89.964844 102.070312 89.933594 C 100.734375 91.417969 98.839844 92.304688 96.890625 92.765625 C 97.175781 93.496094 97.5 94.261719 97.804688 94.871094 C 98.230469 95.726562 98.875 97.367188 99.96875 97.511719 C 101.011719 97.648438 102.089844 96.738281 102.789062 96.09375 C 103.683594 95.269531 104.757812 94.453125 105.339844 93.265625 C 105.695312 92.539062 105.632812 92.164062 104.988281 91.699219 " fill-opacity="1" fill-rule="nonzero"/><path fill="#935c36" d="M 100.761719 69.160156 C 100.082031 66 101.542969 65.179688 102.320312 62.539062 C 103.484375 58.585938 103.167969 56.257812 102.613281 53.871094 C 100.308594 43.992188 96.296875 44.710938 92.972656 44.554688 C 90.082031 44.417969 86.976562 44.675781 84.480469 46.765625 C 82.835938 48.144531 81.667969 50.511719 81.539062 52.660156 C 80.988281 62.054688 82.425781 64.992188 85.578125 70.242188 C 89.402344 76.605469 98.566406 74.171875 98.320312 77.367188 C 98.160156 79.441406 102.480469 75.613281 105.039062 73.511719 C 103.355469 73.339844 101.40625 72.167969 100.761719 69.160156 " fill-opacity="1" fill-rule="nonzero"/><path fill="#784a2b" d="M 81.433594 55.3125 C 81.433594 55.3125 81.429688 55.375 81.421875 55.488281 C 81.410156 55.605469 81.40625 55.773438 81.398438 55.992188 C 81.394531 56.207031 81.382812 56.46875 81.390625 56.769531 C 81.394531 57.070312 81.410156 57.410156 81.429688 57.777344 C 81.4375 58.148438 81.488281 58.546875 81.519531 58.964844 C 81.550781 59.175781 81.578125 59.390625 81.605469 59.609375 C 81.636719 59.832031 81.660156 60.054688 81.703125 60.28125 C 81.742188 60.511719 81.78125 60.742188 81.816406 60.976562 C 81.859375 61.207031 81.917969 61.441406 81.96875 61.679688 C 82.058594 62.152344 82.199219 62.625 82.328125 63.097656 L 82.421875 63.453125 L 82.535156 63.804688 C 82.613281 64.039062 82.6875 64.269531 82.761719 64.5 C 82.910156 64.960938 83.105469 65.394531 83.265625 65.824219 C 83.34375 66.042969 83.449219 66.242188 83.539062 66.449219 C 83.628906 66.648438 83.71875 66.847656 83.804688 67.039062 C 83.96875 67.429688 84.171875 67.777344 84.34375 68.105469 C 84.429688 68.265625 84.511719 68.421875 84.59375 68.574219 C 84.667969 68.722656 84.742188 68.863281 84.824219 68.988281 C 84.980469 69.246094 85.117188 69.46875 85.230469 69.65625 C 85.453125 70.027344 85.578125 70.242188 85.578125 70.242188 C 85.578125 70.242188 85.433594 70.039062 85.179688 69.691406 C 85.054688 69.511719 84.902344 69.296875 84.726562 69.054688 C 84.542969 68.8125 84.382812 68.507812 84.1875 68.191406 C 84 67.871094 83.78125 67.53125 83.597656 67.144531 C 83.410156 66.761719 83.1875 66.367188 83.011719 65.933594 C 82.84375 65.5 82.640625 65.0625 82.480469 64.597656 C 82.402344 64.367188 82.324219 64.132812 82.246094 63.898438 L 82.125 63.542969 L 82.023438 63.183594 C 81.898438 62.703125 81.765625 62.222656 81.679688 61.738281 C 81.632812 61.5 81.578125 61.261719 81.539062 61.027344 C 81.503906 60.789062 81.46875 60.554688 81.433594 60.324219 C 81.351562 59.863281 81.335938 59.410156 81.292969 58.984375 C 81.277344 58.558594 81.246094 58.15625 81.25 57.78125 C 81.25 57.597656 81.246094 57.417969 81.25 57.25 C 81.261719 57.078125 81.265625 56.917969 81.273438 56.765625 C 81.289062 56.464844 81.316406 56.203125 81.335938 55.984375 C 81.382812 55.554688 81.433594 55.3125 81.433594 55.3125 " fill-opacity="1" fill-rule="nonzero"/><path fill="#784a2b" d="M 61.417969 71.058594 C 61.417969 71.058594 61.523438 70.855469 61.703125 70.503906 C 61.792969 70.328125 61.910156 70.121094 62.027344 69.871094 C 62.144531 69.621094 62.269531 69.339844 62.417969 69.039062 C 62.5625 68.734375 62.6875 68.390625 62.839844 68.035156 C 62.984375 67.679688 63.101562 67.289062 63.25 66.898438 C 63.371094 66.496094 63.5 66.082031 63.609375 65.65625 C 63.664062 65.441406 63.714844 65.226562 63.765625 65.007812 C 63.820312 64.792969 63.851562 64.570312 63.894531 64.351562 C 63.988281 63.914062 64.03125 63.46875 64.089844 63.03125 C 64.125 62.59375 64.167969 62.160156 64.171875 61.742188 C 64.175781 61.636719 64.179688 61.535156 64.183594 61.429688 C 64.183594 61.328125 64.179688 61.226562 64.179688 61.125 C 64.175781 60.921875 64.183594 60.726562 64.171875 60.53125 C 64.148438 60.148438 64.128906 59.785156 64.085938 59.449219 C 64.054688 59.113281 64 58.8125 63.96875 58.539062 C 63.917969 58.269531 63.875 58.035156 63.839844 57.839844 C 63.753906 57.453125 63.707031 57.230469 63.707031 57.230469 C 63.707031 57.230469 63.777344 57.449219 63.898438 57.824219 C 63.949219 58.015625 64.011719 58.25 64.082031 58.515625 C 64.140625 58.785156 64.21875 59.085938 64.261719 59.425781 C 64.320312 59.761719 64.363281 60.128906 64.402344 60.515625 C 64.421875 60.710938 64.425781 60.914062 64.4375 61.117188 C 64.457031 61.324219 64.457031 61.535156 64.453125 61.746094 C 64.457031 62.171875 64.429688 62.613281 64.394531 63.0625 C 64.375 63.285156 64.339844 63.507812 64.3125 63.734375 C 64.289062 63.960938 64.25 64.183594 64.207031 64.40625 C 64.160156 64.632812 64.125 64.855469 64.070312 65.078125 C 64.015625 65.296875 63.960938 65.515625 63.90625 65.730469 C 63.855469 65.953125 63.78125 66.160156 63.714844 66.371094 C 63.644531 66.578125 63.585938 66.789062 63.511719 66.988281 C 63.355469 67.382812 63.214844 67.773438 63.050781 68.125 C 62.882812 68.476562 62.738281 68.816406 62.578125 69.117188 C 62.417969 69.417969 62.265625 69.691406 62.132812 69.929688 C 61.992188 70.167969 61.859375 70.367188 61.753906 70.535156 C 61.542969 70.867188 61.417969 71.058594 61.417969 71.058594 " fill-opacity="1" fill-rule="nonzero"/><path fill="#43bcbb" d="M 64.476562 42.28125 C 65.003906 46.503906 64.800781 49.027344 64.277344 50.9375 C 63.945312 52.144531 63.457031 53.3125 63.160156 54.53125 C 62.664062 56.582031 63.933594 55.703125 65.457031 55.855469 C 68.042969 56.113281 69.164062 57.867188 71.902344 58.058594 C 74.710938 58.253906 77.148438 57.496094 79.003906 56.265625 C 82.605469 53.875 83.675781 48.539062 83.09375 44.488281 C 79.066406 44.410156 75.152344 45.335938 71.078125 45.691406 C 69.464844 45.828125 66.789062 44.890625 64.621094 42.027344 C 64.585938 42.117188 64.539062 42.203125 64.476562 42.28125 " fill-opacity="1" fill-rule="nonzero"/><path fill="#57c7c9" d="M 65.242188 42.996094 C 65.316406 43.191406 65.382812 43.390625 65.445312 43.585938 L 65.746094 43.488281 C 65.683594 43.289062 65.613281 43.085938 65.535156 42.882812 L 65.242188 42.996094 " fill-opacity="1" fill-rule="nonzero"/><path fill="#57c7c9" d="M 65.773438 44.78125 C 65.867188 45.183594 65.945312 45.589844 66.019531 46 L 66.332031 45.941406 C 66.257812 45.53125 66.175781 45.121094 66.078125 44.707031 Z M 66.222656 47.230469 C 66.285156 47.636719 66.347656 48.046875 66.417969 48.46875 L 66.730469 48.414062 C 66.660156 48 66.597656 47.589844 66.535156 47.179688 Z M 66.679688 49.707031 C 66.808594 50.148438 66.972656 50.542969 67.164062 50.894531 L 67.445312 50.742188 C 67.261719 50.414062 67.105469 50.039062 66.984375 49.621094 Z M 67.941406 51.925781 C 68.257812 52.234375 68.609375 52.484375 68.992188 52.679688 L 69.136719 52.394531 C 68.78125 52.214844 68.457031 51.984375 68.164062 51.699219 Z M 70.203125 53.105469 C 70.609375 53.199219 71.035156 53.246094 71.472656 53.261719 L 71.484375 52.941406 C 71.0625 52.929688 70.65625 52.882812 70.273438 52.796875 Z M 72.742188 53.210938 C 73.152344 53.167969 73.570312 53.101562 73.992188 53.015625 L 73.925781 52.707031 C 73.515625 52.789062 73.109375 52.855469 72.707031 52.894531 Z M 75.214844 52.703125 C 75.636719 52.570312 76.03125 52.417969 76.398438 52.25 L 76.265625 51.960938 C 75.910156 52.125 75.527344 52.269531 75.121094 52.398438 Z M 77.511719 51.636719 C 77.878906 51.394531 78.210938 51.132812 78.515625 50.851562 L 78.300781 50.621094 C 78.011719 50.890625 77.691406 51.140625 77.339844 51.371094 Z M 79.371094 49.90625 C 79.628906 49.566406 79.855469 49.207031 80.054688 48.828125 L 79.777344 48.683594 C 79.582031 49.042969 79.367188 49.390625 79.121094 49.714844 Z M 80.566406 47.664062 C 80.710938 47.273438 80.828125 46.867188 80.925781 46.449219 L 80.617188 46.375 C 80.523438 46.785156 80.40625 47.179688 80.269531 47.558594 L 80.566406 47.664062 " fill-opacity="1" fill-rule="nonzero"/><path fill="#57c7c9" d="M 81.160156 45.1875 C 81.191406 44.976562 81.21875 44.765625 81.238281 44.550781 L 80.925781 44.519531 C 80.902344 44.730469 80.875 44.9375 80.847656 45.144531 L 81.160156 45.1875 " fill-opacity="1" fill-rule="nonzero"/><path fill="#552d18" d="M 49.179688 17.109375 C 49.824219 15.734375 53.765625 15.328125 55.390625 15.136719 C 56.664062 14.988281 59.105469 15.605469 60.015625 16.453125 C 58.570312 16.09375 57.707031 16.253906 56.300781 16.773438 C 56.878906 18.222656 60.574219 18.53125 61.84375 19.859375 C 63.390625 21.480469 64.21875 23.792969 64.519531 26.03125 C 65.0625 30.035156 64.921875 35.140625 68.714844 38.003906 C 66.019531 39.441406 63.613281 36.773438 62.226562 35.117188 C 62.808594 37.636719 64.390625 40.117188 66.636719 41.519531 C 65.683594 41.894531 64.800781 41.257812 63.914062 40.960938 C 64.511719 42.046875 66.15625 43.832031 67.234375 44.515625 C 64.191406 46.152344 69.316406 50.5 69.039062 52.773438 C 68.179688 52.023438 67.582031 50.933594 66.78125 50.039062 C 65.574219 48.691406 65.453125 48.988281 63.636719 49.15625 C 60.457031 49.449219 59.707031 48.195312 58.710938 45.613281 C 57.476562 47.332031 58.667969 49.351562 59.09375 51.058594 C 56.660156 49.601562 56.34375 45.90625 56.988281 43.523438 C 57.554688 41.429688 58.316406 39.03125 57.273438 37.035156 C 56.203125 37.625 55.714844 40.042969 55.808594 41.191406 C 54.929688 39.574219 55.523438 37.269531 55.980469 35.632812 C 56.535156 33.648438 56.839844 32.722656 56.476562 30.636719 C 55.855469 27.085938 56.179688 25.578125 54.285156 22.421875 C 53.230469 20.667969 50.230469 19.550781 50.230469 19.550781 C 50.230469 19.550781 48.472656 18.613281 49.179688 17.109375 " fill-opacity="1" fill-rule="nonzero"/><path fill="#935c36" d="M 48.671875 21.785156 C 49.152344 22.140625 49.519531 22.535156 49.796875 22.976562 C 50.398438 22.09375 51.457031 19.957031 51.273438 16.90625 C 51.203125 15.753906 50.839844 13.015625 50.605469 13.613281 C 50.144531 14.503906 49.390625 15.125 48.992188 15.570312 C 48.050781 16.628906 47.265625 17.011719 46.398438 18.148438 C 45.882812 18.820312 45.414062 19.832031 45.503906 20.753906 C 46.632812 20.808594 47.75 21.109375 48.671875 21.785156 " fill-opacity="1" fill-rule="nonzero"/><path fill="#fac0b0" d="M 49.6875 22.816406 C 50.847656 20.453125 51.238281 18.117188 50.742188 15.546875 C 50.4375 16.078125 50.121094 16.609375 49.769531 17.125 C 48.941406 18.34375 47.921875 19.601562 47.832031 21.128906 C 47.828125 21.1875 47.816406 21.238281 47.808594 21.292969 C 48.109375 21.429688 48.402344 21.585938 48.671875 21.785156 C 49.09375 22.097656 49.425781 22.441406 49.6875 22.816406 " fill-opacity="1" fill-rule="nonzero"/></svg>