<svg xmlns="http://www.w3.org/2000/svg" xmlns:xlink="http://www.w3.org/1999/xlink" width="200" zoomAndPan="magnify" viewBox="0 0 150 112.499997" height="150" preserveAspectRatio="xMidYMid meet" version="1.0"><defs><clipPath id="608ae5016d"><path d="M 11.53125 13.054688 L 138.46875 13.054688 L 138.46875 98.816406 L 11.53125 98.816406 Z M 11.53125 13.054688 " clip-rule="nonzero"/></clipPath></defs><path fill="#8c7768" d="M 132.078125 73.859375 C 132.089844 73.84375 132.109375 73.59375 132.15625 72.867188 C 132.128906 73.199219 132.105469 73.527344 132.078125 73.859375 " fill-opacity="1" fill-rule="nonzero"/><path fill="#8c7768" d="M 65.398438 51.199219 C 65.460938 51.15625 65.539062 51.109375 65.597656 51.070312 C 65.453125 51.160156 65.410156 51.1875 65.398438 51.199219 " fill-opacity="1" fill-rule="nonzero"/><g clip-path="url(#608ae5016d)"><path fill="#8c7768" d="M 138.378906 92.433594 C 138.257812 91.800781 138.039062 91.199219 137.734375 90.648438 C 137.417969 90.109375 137.074219 89.609375 136.695312 89.132812 C 135.945312 88.175781 135.101562 87.304688 134.304688 86.355469 C 134.140625 86.128906 134.253906 86.234375 134.523438 86.53125 C 134.792969 86.824219 135.234375 87.304688 135.71875 87.851562 C 134.9375 86.957031 134.140625 86.089844 133.464844 85.152344 C 133.480469 85.152344 133.5625 85.246094 133.691406 85.40625 C 133.757812 85.488281 133.828125 85.585938 133.914062 85.691406 C 134 85.796875 134.09375 85.914062 134.191406 86.035156 C 134.59375 86.523438 135.101562 87.105469 135.464844 87.511719 C 134.792969 86.699219 134.085938 85.90625 133.476562 85.039062 C 133.167969 84.605469 132.902344 84.148438 132.65625 83.675781 C 132.605469 83.554688 132.550781 83.433594 132.496094 83.3125 C 132.472656 83.25 132.441406 83.191406 132.417969 83.128906 L 132.355469 82.941406 C 132.3125 82.8125 132.261719 82.6875 132.226562 82.558594 C 132.1875 82.433594 132.15625 82.300781 132.125 82.171875 C 131.886719 81.113281 131.882812 79.972656 131.914062 78.792969 C 131.945312 77.613281 131.984375 76.410156 132.058594 75.175781 L 132.054688 74.152344 L 132.078125 73.859375 C 132.066406 73.863281 132.0625 73.589844 132.070312 73.226562 C 132.078125 72.859375 132.097656 72.398438 132.113281 72.035156 C 132.160156 71.6875 132.191406 71.703125 132.226562 71.496094 C 132.265625 71.292969 132.308594 70.871094 132.410156 69.65625 C 132.523438 68.699219 132.652344 67.335938 132.839844 65.90625 C 133.027344 64.476562 133.273438 62.976562 133.546875 61.75 C 133.246094 63.074219 133.3125 62.640625 133.417969 62.066406 C 133.542969 61.46875 133.683594 61.007812 133.796875 60.578125 C 133.914062 60.148438 134.027344 59.75 134.136719 59.289062 L 134.210938 59.214844 C 134.214844 59.113281 134.363281 58.464844 134.535156 57.742188 C 134.742188 56.847656 134.964844 55.835938 135.003906 55.613281 C 135.105469 55.277344 135.011719 55.746094 134.882812 56.332031 C 134.761719 56.921875 134.589844 57.628906 134.574219 57.785156 C 135.152344 55.390625 135.265625 54.78125 135.394531 54.179688 C 135.453125 53.878906 135.515625 53.578125 135.621094 53.046875 C 135.667969 52.785156 135.730469 52.460938 135.804688 52.054688 C 135.871094 51.644531 135.957031 51.152344 136.046875 50.542969 C 136.371094 47.925781 135.914062 51.003906 136.035156 49.75 C 136.175781 48.601562 136.292969 47.457031 136.351562 46.269531 C 136.359375 46.121094 136.367188 45.972656 136.378906 45.820312 C 136.382812 45.671875 136.386719 45.523438 136.390625 45.371094 C 136.402344 45.066406 136.414062 44.757812 136.421875 44.449219 C 136.425781 44.136719 136.429688 43.820312 136.433594 43.5 C 136.4375 43.335938 136.433594 43.175781 136.429688 43.011719 C 136.425781 42.847656 136.425781 42.683594 136.421875 42.515625 C 136.410156 42.800781 136.398438 43.078125 136.382812 43.363281 C 136.378906 43.089844 136.363281 42.824219 136.355469 42.5625 C 136.34375 42.304688 136.339844 42.054688 136.320312 41.804688 C 136.300781 41.558594 136.285156 41.320312 136.269531 41.085938 C 136.261719 40.96875 136.25 40.851562 136.242188 40.734375 C 136.230469 40.621094 136.21875 40.507812 136.207031 40.394531 C 136.183594 40.171875 136.160156 39.953125 136.140625 39.734375 C 136.117188 39.523438 136.097656 39.308594 136.066406 39.105469 C 136.007812 38.691406 135.953125 38.292969 135.898438 37.90625 C 135.644531 36.363281 135.351562 35.011719 134.980469 33.589844 C 134.820312 33.105469 134.671875 32.636719 134.511719 32.183594 C 134.339844 31.738281 134.179688 31.300781 134.011719 30.882812 C 133.832031 30.464844 133.660156 30.0625 133.488281 29.671875 C 133.304688 29.292969 133.125 28.921875 132.949219 28.5625 C 132.867188 28.382812 132.765625 28.214844 132.675781 28.042969 C 132.582031 27.875 132.492188 27.707031 132.402344 27.546875 C 132.339844 27.4375 132.28125 27.328125 132.21875 27.21875 C 130.832031 24.703125 129.078125 22.402344 126.949219 20.453125 C 126.414062 19.964844 125.867188 19.5 125.3125 19.0625 C 125.210938 18.976562 125.105469 18.886719 124.992188 18.789062 C 124.804688 18.625 124.589844 18.46875 124.367188 18.296875 C 124.140625 18.125 123.902344 17.933594 123.636719 17.746094 C 122.582031 17 121.214844 16.132812 119.421875 15.304688 C 119.308594 15.253906 119.199219 15.195312 119.082031 15.148438 C 118.964844 15.101562 118.847656 15.050781 118.730469 15.003906 C 118.492188 14.902344 118.246094 14.804688 117.996094 14.699219 C 117.746094 14.605469 117.484375 14.515625 117.21875 14.421875 C 117.085938 14.375 116.953125 14.328125 116.816406 14.28125 C 116.683594 14.230469 116.542969 14.195312 116.402344 14.152344 C 116.121094 14.070312 115.832031 13.984375 115.542969 13.894531 C 115.246094 13.824219 114.941406 13.75 114.632812 13.675781 C 114.324219 13.59375 114.007812 13.539062 113.683594 13.476562 C 113.359375 13.417969 113.03125 13.347656 112.6875 13.308594 L 112.984375 13.324219 C 111.371094 13.078125 109.886719 13.023438 108.519531 13.070312 C 108.347656 13.074219 108.175781 13.074219 108.007812 13.085938 C 107.839844 13.097656 107.675781 13.109375 107.507812 13.121094 C 107.34375 13.132812 107.179688 13.144531 107.019531 13.160156 C 106.9375 13.164062 106.855469 13.167969 106.777344 13.179688 C 106.699219 13.1875 106.617188 13.199219 106.539062 13.207031 C 106.222656 13.25 105.910156 13.289062 105.605469 13.328125 C 105.300781 13.375 105 13.433594 104.707031 13.484375 C 104.558594 13.511719 104.410156 13.535156 104.265625 13.566406 C 104.121094 13.597656 103.976562 13.632812 103.835938 13.664062 C 103.546875 13.730469 103.265625 13.789062 102.988281 13.863281 C 102.4375 14.023438 101.886719 14.164062 101.363281 14.351562 C 101.097656 14.445312 100.835938 14.527344 100.574219 14.625 C 100.316406 14.726562 100.058594 14.828125 99.800781 14.929688 C 99.671875 14.984375 99.542969 15.03125 99.414062 15.085938 L 99.035156 15.257812 C 98.785156 15.375 98.53125 15.488281 98.277344 15.605469 C 98.105469 15.65625 97.71875 15.824219 97.210938 16.058594 C 96.957031 16.179688 96.6875 16.332031 96.390625 16.488281 C 96.246094 16.570312 96.097656 16.652344 95.941406 16.734375 C 95.792969 16.824219 95.640625 16.917969 95.484375 17.007812 C 95.332031 17.101562 95.179688 17.195312 95.023438 17.289062 L 94.792969 17.433594 C 94.714844 17.484375 94.644531 17.53125 94.566406 17.582031 C 94.269531 17.78125 93.976562 17.976562 93.703125 18.160156 C 93.4375 18.351562 93.1875 18.535156 92.96875 18.695312 C 92.855469 18.773438 92.75 18.847656 92.65625 18.914062 C 92.5625 18.984375 92.476562 19.050781 92.402344 19.109375 L 92.507812 19.011719 C 92.316406 19.167969 92.125 19.328125 91.929688 19.484375 C 91.738281 19.644531 91.542969 19.796875 91.355469 19.964844 C 91.167969 20.132812 90.980469 20.296875 90.789062 20.460938 L 90.503906 20.710938 L 90.226562 20.96875 C 89.484375 21.65625 88.757812 22.347656 88.066406 23.097656 C 87.71875 23.46875 87.390625 23.859375 87.082031 24.269531 C 86.925781 24.472656 86.78125 24.683594 86.640625 24.898438 C 86.507812 25.109375 86.375 25.324219 86.246094 25.535156 C 85.734375 26.394531 85.300781 27.277344 84.925781 28.152344 C 84.949219 28.082031 84.964844 28.027344 85.015625 27.886719 C 85.070312 27.746094 85.164062 27.527344 85.355469 27.128906 C 84.742188 28.382812 84.128906 29.90625 83.65625 31.128906 C 83.175781 32.347656 82.804688 33.261719 82.730469 33.34375 C 82.128906 34.859375 81.429688 36.503906 80.503906 38.0625 C 79.582031 39.625 78.453125 41.113281 77.230469 42.421875 C 76.011719 43.738281 74.699219 44.863281 73.496094 45.816406 C 72.285156 46.765625 71.171875 47.539062 70.316406 48.140625 L 70.542969 47.964844 C 69.566406 48.652344 68.914062 49.066406 68.222656 49.488281 C 67.53125 49.914062 66.808594 50.347656 65.667969 51.054688 C 65.539062 51.125 65.371094 51.21875 65.398438 51.199219 C 64.296875 51.910156 62.667969 52.898438 61.121094 53.921875 C 59.570312 54.933594 58.128906 56.011719 57.320312 56.699219 C 57.273438 56.714844 57.226562 56.730469 57.179688 56.75 C 56.847656 57.035156 56.507812 57.308594 56.183594 57.605469 L 55.699219 58.046875 C 55.617188 58.121094 55.535156 58.191406 55.457031 58.269531 L 55.222656 58.496094 L 54.75 58.957031 C 54.59375 59.109375 54.449219 59.273438 54.296875 59.433594 L 53.84375 59.910156 L 53.410156 60.402344 C 53.839844 59.910156 54.296875 59.4375 54.757812 58.972656 C 54.570312 59.265625 53.847656 59.953125 52.941406 60.996094 C 52.488281 61.515625 51.984375 62.117188 51.453125 62.777344 C 50.921875 63.433594 50.359375 64.144531 49.761719 64.867188 C 49.1875 65.527344 48.601562 66.175781 47.96875 66.789062 C 47.8125 66.945312 47.648438 67.089844 47.488281 67.242188 C 47.324219 67.394531 47.152344 67.53125 46.984375 67.675781 L 46.859375 67.785156 L 46.726562 67.886719 L 46.464844 68.089844 C 46.289062 68.230469 46.109375 68.347656 45.921875 68.46875 C 45.167969 68.933594 44.347656 69.324219 43.503906 69.65625 C 42.660156 69.988281 41.78125 70.257812 40.886719 70.429688 C 40.464844 70.535156 40.34375 70.550781 40.363281 70.542969 C 40.382812 70.53125 40.542969 70.492188 40.675781 70.449219 C 40.808594 70.410156 40.914062 70.375 40.828125 70.382812 C 40.742188 70.390625 40.46875 70.457031 39.828125 70.558594 C 39.78125 70.527344 40.078125 70.480469 40.304688 70.429688 C 40.527344 70.382812 40.675781 70.347656 40.347656 70.375 C 39.726562 70.492188 39.15625 70.550781 38.605469 70.554688 C 38.058594 70.558594 37.53125 70.5 37.027344 70.347656 C 36.773438 70.277344 36.53125 70.167969 36.300781 70.03125 C 36.246094 69.996094 36.1875 69.957031 36.132812 69.921875 C 36.078125 69.882812 36.027344 69.835938 35.976562 69.792969 C 35.949219 69.773438 35.921875 69.753906 35.898438 69.726562 L 35.828125 69.652344 C 35.785156 69.601562 35.722656 69.554688 35.695312 69.5 C 35.542969 69.296875 35.445312 69.011719 35.382812 68.695312 C 35.320312 68.375 35.300781 68.015625 35.296875 67.632812 L 35.355469 67.511719 C 35.359375 66.511719 35.515625 65.523438 35.699219 64.585938 C 35.886719 63.648438 36.109375 62.746094 36.332031 61.890625 C 36.558594 61.035156 36.785156 60.226562 36.976562 59.449219 C 37.074219 59.0625 37.164062 58.683594 37.230469 58.304688 C 37.296875 57.925781 37.339844 57.542969 37.296875 57.152344 C 37.265625 56.855469 37.183594 56.554688 37 56.3125 C 36.914062 56.191406 36.800781 56.097656 36.6875 56.019531 C 36.570312 55.945312 36.449219 55.898438 36.332031 55.863281 C 36.089844 55.804688 35.878906 55.8125 35.699219 55.835938 C 35.515625 55.859375 35.359375 55.898438 35.222656 55.9375 C 34.941406 56.019531 34.734375 56.09375 34.539062 56.15625 C 34.34375 56.21875 34.171875 56.273438 33.996094 56.328125 C 33.640625 56.441406 33.285156 56.558594 32.757812 56.761719 C 32.234375 56.96875 31.535156 57.253906 30.53125 57.769531 C 29.996094 58.003906 29.46875 58.261719 28.953125 58.550781 C 28.847656 58.617188 28.753906 58.675781 28.664062 58.730469 C 28.578125 58.785156 28.5 58.839844 28.425781 58.890625 C 28.355469 58.941406 28.289062 58.984375 28.226562 59.027344 C 28.167969 59.074219 28.113281 59.117188 28.058594 59.15625 C 27.960938 59.234375 27.871094 59.300781 27.792969 59.367188 C 27.71875 59.433594 27.648438 59.492188 27.578125 59.554688 C 27.433594 59.675781 27.289062 59.816406 27.078125 60.003906 C 26.871094 60.199219 26.597656 60.453125 26.222656 60.851562 C 26.234375 60.816406 26.128906 60.929688 25.972656 61.101562 C 25.890625 61.1875 25.808594 61.292969 25.71875 61.40625 C 25.632812 61.515625 25.535156 61.628906 25.460938 61.742188 C 25.378906 61.851562 25.304688 61.957031 25.242188 62.042969 C 25.183594 62.128906 25.140625 62.199219 25.113281 62.238281 C 25.0625 62.3125 25.082031 62.253906 25.25 61.976562 C 24.898438 62.492188 24.59375 63.046875 24.355469 63.640625 C 24.117188 64.230469 23.9375 64.859375 23.859375 65.511719 C 23.839844 65.675781 23.832031 65.839844 23.820312 66.007812 C 23.8125 66.089844 23.8125 66.171875 23.8125 66.253906 L 23.8125 66.5 C 23.8125 66.5 23.816406 66.507812 23.816406 66.515625 L 23.816406 66.542969 L 23.824219 66.59375 L 23.828125 66.617188 L 23.828125 66.632812 L 23.808594 66.632812 L 23.730469 66.628906 C 23.671875 66.625 23.617188 66.621094 23.5625 66.621094 C 23.410156 66.617188 23.253906 66.613281 23.097656 66.613281 C 22.769531 66.601562 22.4375 66.617188 22.101562 66.628906 C 19.433594 66.75 16.585938 67.425781 13.730469 68.921875 C 13.582031 69.015625 13.410156 69.125 13.21875 69.246094 C 13.03125 69.367188 12.828125 69.503906 12.609375 69.644531 C 12.277344 69.878906 11.925781 70.128906 11.566406 70.382812 C 11.484375 70.40625 11.574219 70.453125 11.601562 70.496094 L 11.722656 70.621094 L 11.964844 70.867188 L 12.207031 71.117188 C 12.246094 71.15625 12.285156 71.199219 12.328125 71.238281 L 12.429688 71.335938 C 12.832031 71.730469 13.265625 72.070312 13.644531 72.355469 C 13.839844 72.492188 14.015625 72.621094 14.179688 72.726562 C 14.34375 72.824219 14.484375 72.910156 14.597656 72.976562 C 14.609375 72.992188 14.710938 73.054688 14.867188 73.152344 C 14.945312 73.199219 15.035156 73.257812 15.136719 73.320312 C 15.242188 73.378906 15.359375 73.441406 15.480469 73.507812 C 15.972656 73.777344 16.601562 74.074219 17.140625 74.277344 C 17.410156 74.382812 17.652344 74.464844 17.835938 74.53125 C 18.023438 74.59375 18.152344 74.636719 18.191406 74.652344 C 18.230469 74.667969 18.179688 74.660156 18.007812 74.617188 C 17.835938 74.574219 17.550781 74.484375 17.117188 74.335938 C 16.96875 74.28125 16.765625 74.207031 16.605469 74.132812 C 16.449219 74.0625 16.332031 74.007812 16.351562 74.007812 L 16.140625 73.941406 L 15.929688 73.871094 C 16.753906 74.300781 17.585938 74.621094 18.417969 74.851562 C 19.25 75.082031 20.082031 75.230469 20.917969 75.308594 C 21.753906 75.382812 22.59375 75.394531 23.449219 75.332031 C 24.265625 75.273438 25.097656 75.152344 25.949219 74.953125 C 24.902344 75.1875 23.601562 75.308594 24.519531 75.164062 C 25.640625 75.023438 26.746094 74.738281 27.800781 74.328125 C 27.585938 74.429688 27.367188 74.519531 27.152344 74.613281 L 27.75 74.402344 C 27.945312 74.324219 28.144531 74.246094 28.339844 74.160156 L 28.691406 74 L 28.769531 73.960938 C 28.769531 73.960938 28.773438 73.957031 28.773438 73.960938 L 28.777344 73.972656 L 28.78125 73.996094 L 28.816406 74.195312 L 28.824219 74.242188 L 28.828125 74.253906 L 28.828125 74.261719 L 28.832031 74.28125 L 28.851562 74.359375 L 28.933594 74.664062 C 28.988281 74.867188 29.035156 75.074219 29.097656 75.277344 L 29.296875 75.878906 L 29.128906 75.199219 C 29.222656 75.492188 29.308594 75.765625 29.390625 76.019531 C 29.476562 76.269531 29.574219 76.496094 29.65625 76.71875 C 29.699219 76.828125 29.738281 76.9375 29.78125 77.042969 C 29.828125 77.144531 29.875 77.246094 29.921875 77.347656 C 30.015625 77.546875 30.097656 77.746094 30.199219 77.941406 C 30.40625 78.328125 30.609375 78.726562 30.894531 79.152344 C 30.964844 79.257812 31.035156 79.371094 31.109375 79.484375 C 31.183594 79.601562 31.273438 79.710938 31.359375 79.832031 C 31.535156 80.066406 31.71875 80.324219 31.949219 80.585938 C 32.359375 81.0625 32.007812 80.597656 31.765625 80.261719 C 31.652344 80.089844 31.5625 79.949219 31.59375 79.988281 C 31.613281 80.003906 31.660156 80.066406 31.75 80.1875 C 31.839844 80.3125 31.988281 80.484375 32.191406 80.738281 C 32.253906 80.816406 32.316406 80.898438 32.382812 80.980469 C 32.449219 81.0625 32.519531 81.144531 32.589844 81.226562 C 32.730469 81.390625 32.875 81.558594 33.023438 81.730469 C 33.183594 81.898438 33.339844 82.066406 33.503906 82.238281 C 33.589844 82.324219 33.667969 82.414062 33.753906 82.496094 C 33.84375 82.582031 33.929688 82.664062 34.019531 82.75 C 34.371094 83.097656 34.757812 83.425781 35.148438 83.769531 C 35.355469 83.929688 35.558594 84.09375 35.765625 84.261719 C 35.871094 84.34375 35.976562 84.421875 36.085938 84.5 C 36.195312 84.578125 36.304688 84.660156 36.414062 84.738281 C 37.289062 85.367188 38.234375 85.945312 39.203125 86.457031 C 40.171875 86.972656 41.164062 87.414062 42.128906 87.796875 C 41.960938 87.699219 42.136719 87.75 42.488281 87.878906 C 42.664062 87.945312 42.886719 88.015625 43.128906 88.105469 C 43.375 88.191406 43.644531 88.28125 43.917969 88.367188 L 44.027344 88.460938 C 44.550781 88.632812 44.972656 88.742188 45.308594 88.847656 C 45.648438 88.945312 45.90625 89.015625 46.109375 89.078125 C 46.519531 89.199219 46.707031 89.261719 46.894531 89.328125 C 47.085938 89.394531 47.269531 89.460938 47.679688 89.570312 C 47.882812 89.625 48.136719 89.691406 48.480469 89.765625 C 48.648438 89.804688 48.839844 89.847656 49.054688 89.894531 C 49.269531 89.9375 49.507812 89.984375 49.769531 90.039062 C 50.027344 90.066406 50.28125 90.09375 50.539062 90.117188 C 51.503906 90.285156 52.113281 90.386719 52.554688 90.472656 C 52.992188 90.554688 53.265625 90.613281 53.550781 90.675781 C 54.117188 90.792969 54.738281 90.933594 56.898438 91.175781 C 56.046875 91.054688 55.855469 90.992188 56.132812 91.007812 C 56.40625 91.019531 57.160156 91.105469 58.203125 91.257812 L 57.664062 91.238281 C 58.246094 91.3125 58.632812 91.355469 58.972656 91.390625 C 59.308594 91.429688 59.597656 91.460938 59.984375 91.511719 C 59.636719 91.484375 59.542969 91.492188 59.75 91.535156 C 59.957031 91.574219 60.464844 91.644531 61.316406 91.734375 L 60.164062 91.671875 C 61.246094 91.761719 62.324219 91.84375 63.40625 91.90625 C 64.03125 91.976562 64.746094 92.042969 65.484375 92.097656 C 66.222656 92.15625 66.992188 92.199219 67.699219 92.25 C 69.117188 92.351562 70.363281 92.457031 70.875 92.53125 C 70.875 92.53125 71.210938 92.558594 71.734375 92.59375 C 72.261719 92.628906 72.976562 92.667969 73.734375 92.691406 C 74.113281 92.703125 74.5 92.703125 74.882812 92.703125 C 75.261719 92.695312 75.632812 92.695312 75.976562 92.671875 C 76.320312 92.652344 76.636719 92.636719 76.90625 92.601562 C 77.089844 92.582031 77.25 92.566406 77.382812 92.546875 C 77.140625 92.589844 77.558594 92.574219 77.996094 92.527344 C 78.125 92.519531 78.253906 92.507812 78.371094 92.496094 C 78.488281 92.480469 78.589844 92.46875 78.664062 92.460938 C 78.808594 92.449219 78.839844 92.453125 78.628906 92.507812 C 78.871094 92.453125 79.203125 92.394531 79.585938 92.289062 C 79.632812 92.277344 79.679688 92.265625 79.730469 92.253906 L 79.746094 92.246094 C 79.757812 92.242188 79.773438 92.234375 79.789062 92.226562 C 79.820312 92.214844 79.859375 92.199219 79.902344 92.183594 C 79.890625 92.21875 79.882812 92.25 79.875 92.285156 L 79.859375 92.339844 L 79.851562 92.355469 L 79.839844 92.402344 L 79.789062 92.574219 C 79.65625 93.03125 79.550781 93.5 79.480469 93.960938 C 79.410156 94.421875 79.378906 94.875 79.398438 95.292969 C 79.417969 95.707031 79.480469 96.082031 79.570312 96.378906 C 79.53125 96.265625 79.496094 96.152344 79.46875 96.035156 C 79.515625 96.25 79.578125 96.460938 79.660156 96.664062 C 79.742188 96.867188 79.84375 97.0625 79.960938 97.242188 C 80.199219 97.613281 80.511719 97.917969 80.855469 98.160156 C 80.945312 98.21875 81.03125 98.28125 81.125 98.328125 C 81.21875 98.375 81.3125 98.421875 81.402344 98.46875 C 81.5 98.507812 81.59375 98.546875 81.6875 98.582031 C 81.785156 98.617188 81.878906 98.640625 81.976562 98.667969 C 82.363281 98.769531 82.746094 98.8125 83.117188 98.820312 C 83.863281 98.824219 84.558594 98.695312 85.214844 98.519531 C 85.542969 98.429688 85.863281 98.320312 86.167969 98.210938 C 86.324219 98.15625 86.476562 98.097656 86.625 98.039062 C 86.777344 97.984375 86.929688 97.921875 87.078125 97.859375 C 88.277344 97.363281 89.402344 96.761719 90.496094 96.058594 C 91.585938 95.351562 92.632812 94.527344 93.652344 93.570312 C 93.539062 93.636719 94.015625 93.160156 94.425781 92.726562 C 94.839844 92.296875 95.21875 91.921875 94.9375 92.136719 C 95.429688 91.644531 95.929688 91.199219 96.460938 90.851562 C 96.988281 90.492188 97.550781 90.25 98.128906 90.085938 C 98.707031 89.921875 99.289062 89.832031 99.859375 89.765625 C 100.429688 89.703125 100.980469 89.671875 101.515625 89.621094 C 103.652344 89.429688 105.308594 89.175781 106.300781 88.917969 C 108.847656 88.554688 109.324219 88.585938 110.640625 88.46875 C 110.4375 88.492188 110.238281 88.511719 110.035156 88.539062 C 112.414062 88.292969 113.953125 88.269531 115.328125 88.332031 C 115.503906 88.339844 115.671875 88.34375 115.839844 88.355469 C 116.007812 88.371094 116.175781 88.386719 116.34375 88.402344 C 116.507812 88.417969 116.675781 88.433594 116.847656 88.449219 C 117.015625 88.464844 117.183594 88.496094 117.355469 88.519531 C 117.527344 88.546875 117.703125 88.570312 117.882812 88.597656 C 117.929688 88.605469 117.972656 88.609375 118.019531 88.617188 C 118.0625 88.628906 118.109375 88.636719 118.152344 88.644531 C 118.246094 88.664062 118.335938 88.683594 118.429688 88.703125 C 118.617188 88.742188 118.808594 88.785156 119.011719 88.824219 C 119.210938 88.867188 119.410156 88.925781 119.621094 88.980469 C 119.828125 89.039062 120.015625 89.09375 120.1875 89.140625 C 120.359375 89.195312 120.519531 89.242188 120.671875 89.289062 C 120.824219 89.339844 120.96875 89.390625 121.117188 89.4375 C 121.265625 89.492188 121.417969 89.550781 121.574219 89.609375 C 121.734375 89.671875 121.898438 89.742188 122.085938 89.820312 C 122.269531 89.90625 122.46875 89.996094 122.691406 90.109375 C 123.136719 90.332031 123.671875 90.632812 124.34375 91.054688 C 123.441406 90.566406 124.5625 91.210938 125.558594 91.867188 C 125.238281 91.664062 125.023438 91.535156 125.054688 91.566406 C 125.085938 91.59375 125.359375 91.78125 126.003906 92.226562 C 126.199219 92.335938 126.488281 92.515625 126.761719 92.683594 C 126.769531 92.695312 126.820312 92.730469 126.792969 92.71875 C 127.636719 93.257812 127.996094 93.46875 128.039062 93.488281 C 128.082031 93.507812 127.8125 93.335938 127.421875 93.082031 C 127.464844 93.101562 127.402344 93.050781 127.167969 92.882812 C 128.023438 93.476562 129.261719 94.246094 130.375 94.792969 C 131.480469 95.351562 132.445312 95.660156 132.554688 95.742188 C 133.289062 95.980469 134.011719 96.148438 134.730469 96.25 C 135.09375 96.300781 135.460938 96.328125 135.832031 96.304688 C 136.203125 96.285156 136.578125 96.207031 136.925781 96.050781 C 137.269531 95.894531 137.582031 95.664062 137.816406 95.375 C 138.054688 95.089844 138.21875 94.757812 138.320312 94.421875 C 138.519531 93.746094 138.492188 93.066406 138.378906 92.433594 " fill-opacity="1" fill-rule="nonzero"/></g><path fill="#8c7768" d="M 49.773438 90.039062 C 49.773438 90.039062 49.773438 90.039062 49.769531 90.039062 C 49.644531 90.027344 49.519531 90.011719 49.390625 89.996094 L 49.773438 90.039062 " fill-opacity="1" fill-rule="nonzero"/><path fill="#8c7768" d="M 25.949219 74.953125 C 25.988281 74.945312 26.027344 74.9375 26.0625 74.925781 C 26.023438 74.9375 25.988281 74.945312 25.949219 74.953125 " fill-opacity="1" fill-rule="nonzero"/><path fill="#8c7768" d="M 134.234375 59.191406 L 134.210938 59.214844 C 134.210938 59.242188 134.214844 59.234375 134.234375 59.191406 " fill-opacity="1" fill-rule="nonzero"/><path fill="#ffffff" d="M 106.644531 57.925781 C 106.644531 57.925781 106.644531 57.921875 106.644531 57.921875 C 106.640625 57.914062 106.636719 57.90625 106.632812 57.898438 L 106.644531 57.925781 " fill-opacity="1" fill-rule="nonzero"/><path fill="#ffffff" d="M 110.90625 62.738281 C 110.882812 62.363281 110.863281 61.976562 110.859375 61.613281 L 110.914062 61.542969 C 111.007812 61.503906 110.726562 61.160156 110.808594 61.097656 L 110.742188 60.933594 C 110.753906 60.886719 110.757812 60.785156 110.789062 60.863281 C 110.773438 60.710938 110.757812 60.710938 110.714844 60.601562 L 110.75 60.429688 C 110.710938 59.820312 110.523438 59.324219 110.472656 58.691406 C 110.484375 58.5 110.472656 58.269531 110.457031 58.019531 C 110.441406 57.769531 110.417969 57.492188 110.390625 57.214844 C 110.335938 56.660156 110.265625 56.097656 110.21875 55.683594 C 110.128906 55.101562 110.179688 54.46875 110.234375 53.835938 C 110.292969 53.203125 110.359375 52.570312 110.300781 51.972656 C 110.3125 51.933594 110.289062 51.832031 110.277344 51.832031 C 110.296875 51.46875 110.316406 51.105469 110.34375 50.742188 C 110.34375 50.742188 110.363281 50.414062 110.386719 49.980469 C 110.410156 49.546875 110.4375 49.011719 110.433594 48.597656 C 110.429688 48.1875 110.390625 47.894531 110.277344 47.953125 C 110.242188 47.96875 110.199219 48.023438 110.144531 48.121094 C 110.152344 48.058594 110.15625 48 110.164062 47.941406 L 106.644531 49.046875 C 106.632812 49.308594 106.625 49.574219 106.617188 49.835938 C 106.554688 49.480469 106.5 49.25 106.445312 49.113281 C 106.363281 48.910156 106.292969 48.921875 106.234375 49.027344 C 106.117188 49.242188 106.050781 49.851562 106.050781 49.851562 C 106.007812 50.152344 105.992188 50.417969 105.984375 50.671875 C 105.984375 50.921875 105.996094 51.160156 106.015625 51.402344 C 106.058594 51.890625 106.128906 52.40625 106.1875 53.125 C 106.199219 53.441406 106.203125 53.699219 106.203125 53.929688 C 106.203125 54.160156 106.203125 54.363281 106.207031 54.566406 C 106.210938 54.769531 106.21875 54.976562 106.238281 55.210938 C 106.257812 55.445312 106.285156 55.710938 106.339844 56.035156 C 106.355469 56.191406 106.375 56.351562 106.398438 56.511719 C 106.421875 56.667969 106.449219 56.828125 106.472656 56.988281 C 106.523438 57.304688 106.589844 57.621094 106.644531 57.921875 C 106.78125 58.191406 106.785156 58.710938 106.925781 59.035156 L 106.902344 59.175781 C 106.953125 59.289062 106.996094 59.417969 106.992188 59.542969 L 106.976562 59.539062 C 107.050781 59.703125 107.070312 59.902344 107.109375 59.984375 L 107.09375 59.980469 L 107.144531 60.1875 L 107.117188 60.15625 C 107.222656 60.449219 107.300781 60.757812 107.347656 61.035156 L 107.40625 60.996094 C 107.441406 61.296875 107.507812 61.488281 107.570312 61.675781 C 107.601562 61.769531 107.632812 61.859375 107.660156 61.964844 C 107.675781 62.015625 107.6875 62.066406 107.695312 62.125 C 107.710938 62.199219 107.722656 62.261719 107.738281 62.332031 L 107.71875 62.328125 C 107.910156 62.632812 107.976562 62.894531 108.042969 63.164062 C 108.109375 63.429688 108.183594 63.699219 108.394531 63.996094 C 108.339844 63.921875 108.378906 64.042969 108.359375 64.042969 C 108.503906 64.339844 108.660156 64.65625 108.773438 64.605469 C 108.875 64.824219 108.824219 64.796875 108.792969 64.847656 C 108.84375 64.824219 108.953125 65 109.042969 65.164062 L 108.984375 65.097656 C 109.070312 65.257812 109.164062 65.410156 109.261719 65.566406 L 109.300781 65.421875 C 109.359375 65.550781 109.34375 65.585938 109.328125 65.613281 C 109.324219 65.625 109.316406 65.640625 109.324219 65.664062 C 109.328125 65.671875 109.335938 65.6875 109.347656 65.707031 C 109.359375 65.726562 109.375 65.746094 109.402344 65.785156 L 109.472656 65.730469 C 109.605469 65.945312 109.722656 66.152344 109.875 66.320312 C 109.953125 66.402344 110.039062 66.476562 110.140625 66.527344 C 110.242188 66.578125 110.367188 66.613281 110.503906 66.585938 C 110.777344 66.503906 110.957031 66.28125 111.070312 65.980469 C 111.121094 65.828125 111.167969 65.667969 111.183594 65.5 L 111.199219 65.375 L 111.207031 65.285156 C 111.207031 65.226562 111.210938 65.167969 111.207031 65.113281 C 111.203125 64.675781 111.140625 64.273438 111.078125 63.875 C 111.011719 63.480469 110.9375 63.09375 110.90625 62.738281 " fill-opacity="1" fill-rule="nonzero"/><path fill="#ffffff" d="M 118.898438 56.660156 C 118.898438 56.660156 118.898438 56.660156 118.898438 56.65625 C 118.898438 56.648438 118.898438 56.640625 118.894531 56.632812 L 118.898438 56.660156 " fill-opacity="1" fill-rule="nonzero"/><path fill="#ffffff" d="M 123.542969 51.589844 C 123.558594 51.550781 123.527344 51.453125 123.519531 51.453125 C 123.523438 51.269531 123.519531 51.085938 123.523438 50.902344 C 123.519531 50.722656 123.511719 50.539062 123.503906 50.355469 C 123.503906 50.355469 123.503906 50.335938 123.503906 50.296875 C 123.5 50.257812 123.496094 50.203125 123.488281 50.132812 C 123.476562 49.996094 123.46875 49.804688 123.429688 49.585938 C 123.378906 49.152344 123.261719 48.621094 123.128906 48.226562 C 122.984375 47.835938 122.84375 47.582031 122.757812 47.675781 C 122.730469 47.707031 122.710938 47.769531 122.695312 47.875 C 122.679688 47.820312 122.664062 47.765625 122.648438 47.710938 L 119.492188 48.136719 C 119.507812 48.394531 119.523438 48.65625 119.539062 48.917969 C 119.304688 48.046875 119.15625 47.984375 119.078125 48.164062 C 118.984375 48.386719 118.972656 48.964844 118.972656 48.964844 C 118.933594 49.542969 118.96875 49.976562 119.011719 50.4375 C 119.0625 50.898438 119.128906 51.390625 119.15625 52.074219 C 119.144531 52.378906 119.132812 52.625 119.117188 52.84375 C 119.09375 53.0625 119.078125 53.253906 119.058594 53.445312 C 119.023438 53.832031 118.988281 54.222656 118.984375 54.847656 C 118.964844 55.144531 118.953125 55.449219 118.941406 55.757812 C 118.929688 56.0625 118.914062 56.367188 118.898438 56.65625 C 118.96875 56.941406 118.835938 57.417969 118.878906 57.75 L 118.8125 57.871094 C 118.828125 57.988281 118.832031 58.121094 118.792969 58.230469 L 118.777344 58.222656 C 118.800781 58.394531 118.753906 58.578125 118.761719 58.664062 L 118.75 58.65625 L 118.730469 58.859375 L 118.710938 58.820312 C 118.71875 59.117188 118.6875 59.421875 118.628906 59.679688 L 118.695312 59.667969 C 118.621094 59.945312 118.605469 60.140625 118.59375 60.328125 C 118.578125 60.515625 118.5625 60.699219 118.480469 60.945312 L 118.464844 60.9375 C 118.5 61.273438 118.425781 61.523438 118.351562 61.773438 C 118.277344 62.023438 118.199219 62.273438 118.214844 62.621094 C 118.210938 62.535156 118.171875 62.648438 118.160156 62.640625 C 118.140625 62.792969 118.117188 62.949219 118.113281 63.074219 C 118.113281 63.132812 118.113281 63.195312 118.125 63.238281 C 118.136719 63.28125 118.15625 63.308594 118.1875 63.316406 C 118.148438 63.558594 118.125 63.511719 118.070312 63.539062 C 118.125 63.542969 118.125 63.757812 118.132812 63.957031 L 118.109375 63.867188 C 118.117188 64.054688 118.136719 64.253906 118.195312 64.457031 C 118.21875 64.40625 118.246094 64.359375 118.273438 64.316406 C 118.289062 64.46875 118.273438 64.5 118.253906 64.527344 C 118.234375 64.554688 118.21875 64.578125 118.304688 64.730469 L 118.382812 64.6875 C 118.496094 64.921875 118.648438 65.089844 118.851562 65.199219 C 118.949219 65.246094 119.0625 65.28125 119.1875 65.292969 C 119.3125 65.300781 119.457031 65.28125 119.59375 65.230469 C 119.84375 65.105469 120.019531 64.9375 120.171875 64.757812 C 120.308594 64.585938 120.425781 64.40625 120.527344 64.21875 C 120.730469 63.847656 120.867188 63.460938 120.992188 63.089844 C 121.230469 62.347656 121.453125 61.628906 121.734375 60.980469 L 121.816406 60.941406 C 121.914062 60.941406 121.792969 60.527344 121.894531 60.5 L 121.898438 60.332031 C 121.929688 60.292969 121.972656 60.203125 121.972656 60.289062 C 122.015625 60.144531 122.003906 60.136719 122.007812 60.023438 L 122.109375 59.882812 C 122.316406 59.320312 122.339844 58.800781 122.511719 58.199219 C 122.660156 57.847656 122.789062 57.316406 122.886719 56.769531 C 122.980469 56.226562 123.046875 55.667969 123.085938 55.257812 C 123.113281 54.679688 123.265625 54.074219 123.390625 53.449219 C 123.519531 52.832031 123.617188 52.191406 123.542969 51.589844 " fill-opacity="1" fill-rule="nonzero"/><path fill="#66574d" d="M 102.957031 46.929688 L 102.972656 46.832031 C 102.960938 46.835938 102.953125 46.863281 102.957031 46.929688 " fill-opacity="1" fill-rule="nonzero"/><path fill="#66574d" d="M 110.960938 49.046875 C 110.953125 49.050781 110.945312 49.054688 110.941406 49.058594 C 110.953125 49.054688 110.957031 49.050781 110.960938 49.046875 " fill-opacity="1" fill-rule="nonzero"/><path fill="#66574d" d="M 103.4375 48.148438 L 103.449219 48.136719 C 103.441406 48.140625 103.4375 48.140625 103.4375 48.148438 " fill-opacity="1" fill-rule="nonzero"/><path fill="#66574d" d="M 111.015625 40.980469 C 111.015625 40.980469 111.015625 40.980469 111.019531 40.980469 C 111.03125 40.96875 111.039062 40.953125 111.050781 40.9375 L 111.015625 40.980469 " fill-opacity="1" fill-rule="nonzero"/><path fill="#66574d" d="M 117.765625 48.882812 L 117.707031 48.816406 C 117.703125 48.832031 117.714844 48.851562 117.765625 48.882812 " fill-opacity="1" fill-rule="nonzero"/><path fill="#66574d" d="M 124.792969 46.871094 C 124.800781 46.875 124.800781 46.882812 124.804688 46.886719 C 124.800781 46.875 124.796875 46.871094 124.792969 46.871094 " fill-opacity="1" fill-rule="nonzero"/><path fill="#66574d" d="M 116.578125 41.195312 L 116.609375 41.144531 L 116.578125 41.195312 " fill-opacity="1" fill-rule="nonzero"/><path fill="#66574d" d="M 124.90625 47.359375 L 124.933594 47.382812 C 124.8125 47.1875 124.878906 47.117188 124.78125 46.902344 C 124.789062 46.886719 124.789062 46.867188 124.792969 46.871094 C 124.65625 46.679688 124.578125 46.265625 124.46875 46.121094 L 124.515625 46.085938 C 124.449219 45.960938 124.386719 45.832031 124.3125 45.710938 C 124.332031 45.757812 124.355469 45.808594 124.375 45.855469 C 124.292969 45.867188 124.277344 45.785156 124.25 45.675781 C 124.222656 45.5625 124.1875 45.414062 124.0625 45.308594 C 123.992188 45.183594 123.839844 45.105469 123.699219 45.03125 C 123.554688 44.953125 123.40625 44.886719 123.351562 44.75 C 123.207031 44.683594 123.519531 44.769531 123.347656 44.640625 C 123.40625 44.582031 123.449219 44.683594 123.46875 44.601562 C 123.308594 44.464844 123.304688 44.289062 123.09375 44.132812 L 123.136719 44.082031 C 122.816406 43.925781 122.742188 43.574219 122.492188 43.515625 C 122.195312 43.332031 122.433594 43.214844 122.066406 43.09375 L 122.003906 42.941406 C 121.886719 42.835938 121.851562 42.964844 121.730469 42.835938 C 121.769531 42.792969 121.570312 42.679688 121.683594 42.691406 C 121.542969 42.542969 121.351562 42.46875 121.152344 42.386719 C 120.957031 42.292969 120.742188 42.21875 120.539062 42.035156 C 120.394531 42.085938 120.175781 41.933594 120.070312 41.976562 C 120.078125 41.917969 119.582031 41.792969 119.894531 41.792969 C 119.921875 41.792969 119.960938 41.808594 119.953125 41.824219 L 120.007812 41.777344 C 119.765625 41.570312 119.476562 41.65625 119.199219 41.570312 C 119.277344 41.613281 119.390625 41.636719 119.304688 41.660156 L 119.042969 41.582031 L 119.113281 41.542969 L 118.917969 41.476562 C 118.855469 41.453125 118.789062 41.4375 118.722656 41.417969 L 118.765625 41.496094 C 118.578125 41.425781 118.527344 41.296875 118.289062 41.351562 C 118.179688 41.386719 118.460938 41.464844 118.25 41.457031 C 118.125 41.417969 117.960938 41.367188 117.789062 41.320312 C 117.617188 41.28125 117.433594 41.25 117.261719 41.230469 C 117.292969 41.304688 117.203125 41.292969 117.105469 41.308594 L 117.09375 41.246094 C 116.90625 41.289062 116.871094 41.261719 116.835938 41.222656 C 116.800781 41.183594 116.765625 41.144531 116.578125 41.195312 L 116.519531 41.289062 C 116.359375 41.371094 116.3125 41.339844 116.257812 41.324219 C 116.203125 41.304688 116.140625 41.285156 115.972656 41.414062 C 116.117188 41.371094 116.066406 41.535156 115.886719 41.546875 L 115.917969 41.476562 C 115.820312 41.507812 115.796875 41.546875 115.726562 41.550781 C 115.777344 41.503906 115.734375 41.453125 115.589844 41.507812 C 115.617188 41.472656 115.640625 41.4375 115.667969 41.402344 C 115.585938 41.464844 115.503906 41.535156 115.425781 41.601562 C 115.308594 41.613281 115.171875 41.671875 115.054688 41.734375 C 114.933594 41.796875 114.832031 41.859375 114.765625 41.847656 C 114.765625 41.847656 114.738281 41.867188 114.695312 41.894531 C 114.652344 41.925781 114.589844 41.957031 114.535156 42.011719 C 114.480469 42.0625 114.417969 42.113281 114.378906 42.171875 C 114.335938 42.230469 114.308594 42.285156 114.308594 42.324219 C 114.320312 42.261719 114.273438 42.285156 114.222656 42.308594 C 114.171875 42.339844 114.121094 42.371094 114.121094 42.3125 C 114.113281 42.339844 114.101562 42.378906 114.082031 42.417969 C 113.992188 42.328125 113.898438 42.242188 113.8125 42.136719 C 113.867188 42.230469 113.960938 42.335938 113.867188 42.289062 C 113.800781 42.203125 113.726562 42.121094 113.652344 42.039062 L 113.738281 42.054688 C 113.632812 41.921875 113.507812 41.808594 113.378906 41.695312 L 113.394531 41.792969 C 113.3125 41.703125 113.257812 41.632812 113.195312 41.566406 C 113.136719 41.496094 113.050781 41.453125 112.910156 41.429688 C 112.78125 41.421875 113.070312 41.613281 112.839844 41.519531 C 112.578125 41.335938 112.140625 41.140625 111.753906 41.074219 C 111.78125 41.152344 111.675781 41.132812 111.570312 41.140625 L 111.566406 41.074219 C 111.359375 41.101562 111.324219 41.070312 111.289062 41.027344 C 111.253906 40.988281 111.21875 40.949219 111.019531 40.980469 C 110.996094 41.011719 110.972656 41.042969 110.949219 41.074219 C 110.773438 41.140625 110.726562 41.113281 110.671875 41.089844 C 110.621094 41.066406 110.558594 41.042969 110.375 41.152344 C 110.527344 41.125 110.460938 41.285156 110.273438 41.277344 L 110.3125 41.210938 C 110.214844 41.234375 110.183594 41.265625 110.113281 41.261719 C 110.171875 41.222656 110.132812 41.164062 109.984375 41.199219 L 110.074219 41.109375 C 109.984375 41.160156 109.894531 41.210938 109.8125 41.265625 C 109.585938 41.234375 109.269531 41.386719 109.164062 41.320312 C 109.164062 41.320312 109.046875 41.335938 108.921875 41.367188 C 108.792969 41.398438 108.660156 41.449219 108.621094 41.507812 C 108.695312 41.425781 108.441406 41.472656 108.492188 41.386719 C 108.445312 41.433594 108.339844 41.496094 108.226562 41.542969 C 108.113281 41.59375 107.992188 41.628906 107.914062 41.613281 L 107.9375 41.597656 C 107.40625 41.695312 107.121094 41.996094 106.652344 42.105469 C 106.703125 42.164062 106.460938 42.230469 106.554688 42.292969 C 106.160156 42.582031 105.667969 42.519531 105.660156 42.867188 C 105.476562 42.988281 105.402344 42.9375 105.292969 42.984375 L 105.332031 42.945312 C 104.988281 43.179688 104.894531 43.246094 104.632812 43.417969 C 104.519531 43.535156 104.582031 43.65625 104.34375 43.804688 C 104.378906 43.703125 104.296875 43.785156 104.214844 43.851562 C 104.261719 43.800781 104.265625 43.769531 104.132812 43.835938 C 104.132812 43.859375 104.113281 43.890625 104.097656 43.914062 C 104.09375 43.910156 104.089844 43.914062 104.085938 43.90625 C 103.96875 44.042969 104.003906 44.03125 104.070312 43.980469 C 104.070312 43.992188 104.082031 43.996094 104.113281 43.988281 C 103.925781 44.058594 103.75 44.355469 103.667969 44.3125 C 103.320312 44.753906 103.210938 45.179688 103.128906 45.621094 C 103.066406 45.660156 103.054688 45.546875 103.078125 45.40625 C 103.050781 45.515625 103.023438 45.625 103.007812 45.734375 C 102.972656 45.726562 102.972656 45.675781 102.984375 45.617188 C 103 45.554688 103.023438 45.488281 103.03125 45.433594 C 102.917969 45.609375 102.898438 45.828125 102.902344 46.042969 C 102.914062 46.261719 102.9375 46.480469 102.910156 46.714844 C 102.933594 46.746094 102.957031 46.773438 102.980469 46.804688 L 102.972656 46.832031 C 103.003906 46.828125 103.054688 46.921875 103.078125 46.984375 C 103.035156 47.058594 102.9375 47.007812 102.996094 47.234375 C 102.984375 47.429688 103.195312 47.722656 103.34375 47.910156 C 103.289062 47.792969 103.339844 47.8125 103.386719 47.851562 C 103.441406 47.949219 103.425781 48.035156 103.496094 48.09375 L 103.449219 48.136719 C 103.503906 48.117188 103.6875 48.34375 103.738281 48.347656 C 103.738281 48.390625 103.699219 48.371094 103.652344 48.332031 C 103.609375 48.296875 103.558594 48.25 103.53125 48.25 C 103.679688 48.433594 103.726562 48.46875 103.765625 48.511719 C 103.785156 48.535156 103.808594 48.554688 103.847656 48.589844 C 103.886719 48.621094 103.9375 48.671875 104.03125 48.742188 C 104.261719 48.84375 104.042969 48.65625 104.175781 48.667969 C 104.328125 48.765625 104.492188 48.820312 104.65625 48.921875 C 104.804688 49.101562 105.058594 49.335938 105.480469 49.5625 L 105.449219 49.578125 C 106 49.78125 106.375 49.820312 106.765625 49.71875 C 106.820312 49.871094 107.222656 49.738281 107.355469 49.78125 L 107.34375 49.792969 C 107.675781 49.671875 108.050781 49.847656 108.367188 49.703125 C 108.355469 49.714844 108.351562 49.757812 108.277344 49.769531 C 108.515625 49.722656 108.828125 49.636719 108.859375 49.71875 C 109.417969 49.601562 110.191406 49.441406 110.492188 49.207031 L 110.476562 49.234375 C 110.644531 49.089844 110.722656 49.148438 110.925781 49.035156 C 110.941406 49.042969 110.960938 49.042969 110.960938 49.046875 C 111.140625 48.894531 111.570312 48.824219 111.726562 48.714844 L 111.757812 48.761719 C 111.898438 48.703125 112.035156 48.636719 112.171875 48.566406 L 112.011719 48.628906 C 111.996094 48.460938 112.367188 48.578125 112.613281 48.316406 C 112.683594 48.277344 112.742188 48.222656 112.792969 48.15625 C 112.84375 48.085938 112.886719 48.011719 112.925781 47.933594 C 112.96875 47.855469 113.007812 47.78125 113.058594 47.714844 C 113.101562 47.648438 113.15625 47.59375 113.226562 47.554688 C 113.285156 47.398438 113.214844 47.738281 113.339844 47.539062 C 113.402344 47.589844 113.296875 47.648438 113.386719 47.65625 C 113.457031 47.5625 113.539062 47.511719 113.617188 47.445312 C 113.703125 47.382812 113.78125 47.304688 113.851562 47.171875 L 113.910156 47.199219 C 113.96875 47.003906 114.082031 46.867188 114.171875 46.722656 C 114.261719 46.585938 114.339844 46.449219 114.324219 46.3125 C 114.359375 46.117188 114.417969 46.070312 114.472656 46.011719 C 114.527344 45.957031 114.574219 45.890625 114.546875 45.679688 C 114.546875 45.675781 114.546875 45.675781 114.550781 45.671875 C 114.59375 45.789062 114.574219 45.851562 114.605469 45.933594 L 114.566406 45.898438 C 114.679688 46.0625 114.746094 46.171875 114.816406 46.265625 C 114.882812 46.359375 114.941406 46.441406 115.023438 46.566406 C 115.078125 46.617188 115.136719 46.625 115.195312 46.652344 C 115.257812 46.675781 115.324219 46.714844 115.394531 46.824219 C 115.296875 46.792969 115.371094 46.867188 115.4375 46.941406 C 115.390625 46.902344 115.359375 46.898438 115.414062 47.019531 C 115.4375 47.023438 115.464844 47.039062 115.488281 47.054688 C 115.488281 47.058594 115.488281 47.0625 115.480469 47.066406 C 115.601562 47.175781 115.59375 47.144531 115.550781 47.082031 C 115.558594 47.078125 115.5625 47.066406 115.558594 47.039062 C 115.617188 47.214844 115.886719 47.375 115.832031 47.457031 C 116.195312 47.789062 116.523438 47.941406 116.863281 48.152344 C 116.871094 48.21875 116.769531 48.195312 116.664062 48.136719 L 116.902344 48.300781 C 116.859375 48.355469 116.75 48.230469 116.671875 48.1875 C 116.722656 48.261719 116.785156 48.320312 116.859375 48.375 C 116.933594 48.421875 117.019531 48.460938 117.101562 48.5 C 117.269531 48.582031 117.441406 48.664062 117.59375 48.804688 L 117.691406 48.800781 L 117.707031 48.816406 C 117.722656 48.792969 117.820312 48.804688 117.875 48.824219 C 117.894531 48.902344 117.800781 48.949219 117.980469 49.035156 C 118.09375 49.15625 118.390625 49.21875 118.59375 49.265625 C 118.496094 49.210938 118.542969 49.195312 118.59375 49.195312 C 118.6875 49.230469 118.714844 49.308594 118.796875 49.3125 L 118.773438 49.390625 C 118.765625 49.304688 119.042969 49.414062 119.089844 49.394531 C 119.121094 49.472656 118.929688 49.386719 118.890625 49.417969 C 119.074219 49.492188 119.125 49.503906 119.171875 49.519531 C 119.21875 49.535156 119.265625 49.550781 119.457031 49.609375 C 119.675781 49.617188 119.441406 49.523438 119.558594 49.488281 C 119.648438 49.511719 119.742188 49.515625 119.835938 49.53125 C 119.929688 49.542969 120.023438 49.566406 120.121094 49.617188 L 120.074219 49.53125 C 120.160156 49.539062 120.238281 49.550781 120.304688 49.558594 C 120.378906 49.566406 120.441406 49.574219 120.5 49.585938 C 120.605469 49.609375 120.695312 49.644531 120.785156 49.691406 C 120.945312 49.824219 121.167969 49.988281 121.5 50.160156 L 121.472656 50.175781 C 121.980469 50.351562 122.367188 50.390625 122.75 50.230469 C 122.789062 50.304688 122.914062 50.289062 123.039062 50.257812 C 123.167969 50.21875 123.296875 50.164062 123.371094 50.15625 L 123.363281 50.175781 C 123.441406 50.117188 123.523438 50.074219 123.609375 50.035156 C 123.695312 49.996094 123.78125 49.957031 123.871094 49.917969 C 124.046875 49.832031 124.214844 49.71875 124.296875 49.550781 C 124.296875 49.570312 124.324219 49.601562 124.265625 49.664062 C 124.355469 49.5625 124.445312 49.433594 124.515625 49.332031 C 124.589844 49.230469 124.644531 49.152344 124.6875 49.167969 C 124.835938 48.886719 124.96875 48.53125 125.007812 48.1875 C 125.046875 47.839844 125 47.535156 124.90625 47.359375 " fill-opacity="1" fill-rule="nonzero"/><path fill="#353535" d="M 106.566406 37.234375 L 106.59375 37.222656 C 106.585938 37.21875 106.578125 37.222656 106.566406 37.234375 " fill-opacity="1" fill-rule="nonzero"/><path fill="#353535" d="M 108.902344 38.234375 C 108.910156 38.207031 108.910156 38.179688 108.914062 38.152344 L 108.953125 38.171875 C 108.960938 38.128906 108.96875 38.085938 108.972656 38.042969 L 108.925781 38.0625 C 108.949219 38.003906 109.03125 37.96875 108.953125 37.910156 C 108.910156 37.882812 108.890625 37.972656 108.867188 37.914062 C 108.882812 37.871094 108.890625 37.820312 108.898438 37.761719 C 108.902344 37.703125 108.902344 37.640625 108.890625 37.589844 C 108.84375 37.617188 108.832031 37.589844 108.8125 37.566406 L 108.855469 37.546875 C 108.75 37.46875 108.941406 37.460938 108.839844 37.382812 L 108.769531 37.394531 C 108.640625 37.355469 108.835938 37.292969 108.664062 37.269531 C 108.691406 37.300781 108.582031 37.34375 108.574219 37.292969 L 108.621094 37.277344 C 108.597656 37.257812 108.574219 37.261719 108.574219 37.238281 C 108.601562 37.238281 108.632812 37.207031 108.601562 37.179688 L 108.664062 37.167969 C 108.625 37.160156 108.585938 37.15625 108.546875 37.15625 C 108.546875 37.074219 108.433594 37.046875 108.464844 36.980469 C 108.464844 36.980469 108.445312 36.949219 108.417969 36.925781 C 108.386719 36.902344 108.351562 36.882812 108.316406 36.902344 C 108.367188 36.882812 108.320312 36.820312 108.367188 36.796875 C 108.304688 36.8125 108.203125 36.785156 108.195312 36.71875 L 108.207031 36.71875 C 108.152344 36.652344 108.082031 36.632812 108.015625 36.621094 C 107.949219 36.605469 107.886719 36.597656 107.828125 36.542969 C 107.816406 36.597656 107.753906 36.542969 107.75 36.621094 C 107.671875 36.636719 107.621094 36.582031 107.570312 36.558594 C 107.519531 36.53125 107.472656 36.527344 107.4375 36.636719 C 107.375 36.644531 107.367188 36.582031 107.332031 36.570312 L 107.347656 36.558594 C 107.285156 36.5625 107.246094 36.578125 107.210938 36.578125 C 107.171875 36.585938 107.140625 36.589844 107.09375 36.597656 C 107.050781 36.628906 107.070312 36.722656 106.992188 36.726562 C 107.003906 36.675781 106.972656 36.695312 106.945312 36.707031 C 106.960938 36.691406 106.964844 36.675781 106.914062 36.664062 C 106.914062 36.679688 106.90625 36.6875 106.902344 36.699219 C 106.898438 36.695312 106.898438 36.691406 106.898438 36.6875 C 106.851562 36.71875 106.867188 36.726562 106.890625 36.726562 C 106.894531 36.730469 106.898438 36.738281 106.910156 36.746094 C 106.839844 36.714844 106.78125 36.8125 106.742188 36.753906 C 106.613281 36.851562 106.582031 36.976562 106.527344 37.078125 C 106.492188 37.0625 106.484375 37.023438 106.5 36.984375 L 106.453125 37.058594 C 106.414062 37.023438 106.460938 37 106.472656 36.972656 C 106.40625 36.984375 106.382812 37.042969 106.367188 37.101562 C 106.355469 37.160156 106.339844 37.214844 106.28125 37.25 L 106.304688 37.289062 L 106.296875 37.292969 C 106.316406 37.304688 106.328125 37.339844 106.328125 37.355469 C 106.28125 37.351562 106.234375 37.308594 106.210938 37.367188 C 106.152344 37.394531 106.179688 37.5 106.191406 37.566406 C 106.207031 37.535156 106.226562 37.554688 106.242188 37.570312 C 106.234375 37.597656 106.1875 37.601562 106.199219 37.628906 L 106.140625 37.617188 C 106.195312 37.621094 106.1875 37.707031 106.210938 37.71875 C 106.164062 37.730469 106.179688 37.667969 106.148438 37.65625 C 106.136719 37.773438 106.132812 37.714844 106.132812 37.835938 C 106.175781 37.898438 106.191406 37.828125 106.246094 37.859375 C 106.25 37.910156 106.300781 37.957031 106.269531 38.019531 L 106.320312 37.996094 C 106.34375 38.039062 106.363281 38.070312 106.367188 38.101562 C 106.367188 38.136719 106.363281 38.167969 106.347656 38.203125 C 106.367188 38.222656 106.386719 38.234375 106.410156 38.246094 C 106.402344 38.257812 106.398438 38.265625 106.394531 38.277344 L 106.375 38.28125 C 106.367188 38.367188 106.371094 38.429688 106.480469 38.488281 C 106.375 38.523438 106.492188 38.585938 106.464844 38.625 L 106.457031 38.625 C 106.558594 38.679688 106.4375 38.820312 106.550781 38.886719 C 106.539062 38.886719 106.511719 38.898438 106.5 38.875 C 106.539062 38.941406 106.617188 39.019531 106.566406 39.0625 C 106.59375 39.101562 106.632812 39.144531 106.667969 39.1875 C 106.707031 39.226562 106.746094 39.265625 106.789062 39.296875 C 106.875 39.359375 106.96875 39.394531 107.039062 39.371094 L 107.023438 39.382812 C 107.113281 39.351562 107.101562 39.414062 107.179688 39.402344 C 107.179688 39.414062 107.183594 39.417969 107.179688 39.421875 C 107.265625 39.382812 107.367188 39.464844 107.425781 39.441406 L 107.421875 39.488281 C 107.464844 39.488281 107.511719 39.488281 107.554688 39.488281 L 107.503906 39.476562 C 107.519531 39.417969 107.539062 39.4375 107.570312 39.460938 C 107.605469 39.484375 107.652344 39.515625 107.695312 39.472656 C 107.742188 39.476562 107.777344 39.410156 107.804688 39.347656 C 107.835938 39.285156 107.859375 39.226562 107.902344 39.242188 C 107.921875 39.175781 107.898438 39.335938 107.941406 39.28125 C 107.960938 39.335938 107.925781 39.324219 107.957031 39.367188 C 108.003906 39.320312 108.078125 39.390625 108.132812 39.3125 L 108.15625 39.351562 C 108.183594 39.289062 108.230469 39.277344 108.277344 39.265625 C 108.324219 39.253906 108.363281 39.238281 108.363281 39.183594 C 108.40625 39.082031 108.519531 39.234375 108.523438 39.085938 L 108.601562 39.09375 C 108.640625 39.058594 108.558594 39.015625 108.613281 38.988281 C 108.648438 39.015625 108.679688 38.953125 108.695312 39 C 108.757812 38.960938 108.769531 38.894531 108.78125 38.828125 C 108.796875 38.757812 108.808594 38.691406 108.882812 38.628906 C 108.820312 38.574219 108.882812 38.511719 108.828125 38.472656 C 108.867188 38.476562 108.863281 38.320312 108.921875 38.421875 C 108.929688 38.429688 108.925781 38.441406 108.910156 38.4375 L 108.957031 38.457031 C 109.0625 38.378906 108.933594 38.28125 108.949219 38.199219 C 108.933594 38.222656 108.933594 38.257812 108.902344 38.234375 " fill-opacity="1" fill-rule="nonzero"/><path fill="#353535" d="M 108.871094 37.300781 L 108.902344 37.296875 L 108.871094 37.300781 " fill-opacity="1" fill-rule="nonzero"/><path fill="#353535" d="M 120.066406 37.164062 L 120.097656 37.164062 C 120.089844 37.160156 120.082031 37.15625 120.066406 37.164062 " fill-opacity="1" fill-rule="nonzero"/><path fill="#353535" d="M 122.242188 38.53125 L 122.269531 38.542969 L 122.242188 38.53125 " fill-opacity="1" fill-rule="nonzero"/><path fill="#353535" d="M 122.183594 38.511719 C 122.097656 38.414062 122.273438 38.453125 122.152344 38.347656 C 122.160156 38.390625 122.0625 38.371094 122.074219 38.324219 L 122.117188 38.332031 C 122.105469 38.304688 122.089844 38.296875 122.09375 38.277344 C 122.117188 38.292969 122.15625 38.28125 122.144531 38.238281 L 122.199219 38.261719 C 122.171875 38.238281 122.144531 38.210938 122.113281 38.191406 C 122.148438 38.121094 122.074219 38.039062 122.121094 38 C 122.121094 38 122.121094 37.964844 122.109375 37.929688 C 122.097656 37.894531 122.074219 37.855469 122.039062 37.851562 C 122.085938 37.863281 122.074219 37.789062 122.125 37.792969 C 122.070312 37.773438 121.996094 37.695312 122.023438 37.636719 L 122.03125 37.640625 C 122.015625 37.5625 121.96875 37.507812 121.921875 37.460938 C 121.875 37.414062 121.824219 37.375 121.804688 37.300781 C 121.769531 37.335938 121.742188 37.261719 121.707031 37.316406 C 121.636719 37.285156 121.617188 37.21875 121.589844 37.167969 C 121.5625 37.121094 121.523438 37.09375 121.445312 37.15625 C 121.386719 37.125 121.410156 37.074219 121.390625 37.046875 L 121.40625 37.046875 C 121.289062 36.988281 121.257812 36.972656 121.171875 36.933594 C 121.117188 36.933594 121.082031 37.015625 121.011719 36.972656 C 121.046875 36.941406 121.011719 36.941406 120.980469 36.933594 C 121 36.933594 121.011719 36.921875 120.976562 36.890625 C 120.964844 36.898438 120.957031 36.90625 120.945312 36.90625 C 120.945312 36.90625 120.945312 36.902344 120.945312 36.898438 C 120.890625 36.902344 120.898438 36.914062 120.921875 36.925781 C 120.921875 36.929688 120.921875 36.9375 120.925781 36.949219 C 120.878906 36.886719 120.777344 36.9375 120.769531 36.875 C 120.601562 36.890625 120.503906 36.984375 120.40625 37.054688 C 120.378906 37.027344 120.394531 36.992188 120.425781 36.964844 L 120.347656 37.011719 C 120.328125 36.96875 120.382812 36.964844 120.40625 36.945312 C 120.34375 36.933594 120.292969 36.972656 120.253906 37.019531 C 120.210938 37.066406 120.171875 37.109375 120.105469 37.121094 L 120.105469 37.167969 L 120.097656 37.164062 C 120.109375 37.179688 120.101562 37.214844 120.097656 37.234375 C 120.058594 37.214844 120.035156 37.160156 119.992188 37.203125 C 119.929688 37.207031 119.910156 37.3125 119.890625 37.371094 C 119.914062 37.351562 119.925781 37.375 119.925781 37.394531 C 119.910156 37.414062 119.867188 37.402344 119.867188 37.429688 L 119.824219 37.398438 C 119.871094 37.421875 119.824219 37.492188 119.835938 37.511719 C 119.792969 37.503906 119.832031 37.457031 119.8125 37.433594 C 119.746094 37.53125 119.78125 37.480469 119.722656 37.582031 C 119.726562 37.652344 119.773438 37.597656 119.796875 37.644531 C 119.78125 37.695312 119.792969 37.757812 119.738281 37.792969 L 119.789062 37.796875 C 119.785156 37.890625 119.761719 37.933594 119.707031 37.976562 C 119.648438 37.992188 119.582031 38.019531 119.507812 38.066406 L 119.496094 38.050781 C 119.441406 38.121094 119.398438 38.179688 119.386719 38.242188 C 119.367188 38.304688 119.375 38.363281 119.40625 38.425781 C 119.300781 38.425781 119.375 38.554688 119.34375 38.589844 L 119.335938 38.585938 C 119.371094 38.636719 119.359375 38.6875 119.34375 38.738281 C 119.328125 38.789062 119.320312 38.84375 119.359375 38.886719 C 119.351562 38.882812 119.324219 38.886719 119.320312 38.863281 C 119.339844 38.933594 119.386719 39.019531 119.332031 39.042969 C 119.347656 39.082031 119.363281 39.128906 119.382812 39.171875 C 119.402344 39.21875 119.425781 39.261719 119.449219 39.304688 C 119.5 39.390625 119.566406 39.457031 119.636719 39.46875 L 119.621094 39.472656 C 119.707031 39.484375 119.675781 39.53125 119.75 39.558594 C 119.746094 39.566406 119.75 39.574219 119.746094 39.574219 C 119.789062 39.578125 119.828125 39.609375 119.863281 39.636719 C 119.898438 39.667969 119.933594 39.699219 119.964844 39.699219 L 119.945312 39.734375 C 119.988281 39.753906 120.027344 39.777344 120.066406 39.789062 C 120.054688 39.78125 120.039062 39.773438 120.027344 39.761719 C 120.058594 39.71875 120.074219 39.742188 120.09375 39.777344 C 120.117188 39.808594 120.152344 39.855469 120.207031 39.835938 C 120.25 39.855469 120.304688 39.816406 120.355469 39.773438 C 120.410156 39.730469 120.453125 39.695312 120.488281 39.722656 C 120.53125 39.675781 120.445312 39.800781 120.507812 39.765625 C 120.503906 39.824219 120.476562 39.800781 120.488281 39.84375 C 120.546875 39.824219 120.585938 39.910156 120.660156 39.871094 L 120.664062 39.914062 C 120.757812 39.832031 120.863281 39.953125 120.917969 39.863281 C 121.007812 39.808594 121.019531 39.972656 121.101562 39.859375 C 121.121094 39.875 121.140625 39.886719 121.160156 39.898438 C 121.207031 39.890625 121.164062 39.820312 121.226562 39.828125 C 121.238281 39.863281 121.300781 39.824219 121.285156 39.871094 C 121.351562 39.867188 121.402344 39.824219 121.449219 39.773438 C 121.5 39.726562 121.550781 39.675781 121.648438 39.664062 C 121.628906 39.582031 121.714844 39.558594 121.695312 39.503906 C 121.722656 39.523438 121.808594 39.382812 121.800781 39.5 C 121.796875 39.507812 121.789062 39.519531 121.777344 39.511719 L 121.800781 39.546875 C 121.929688 39.527344 121.886719 39.378906 121.945312 39.308594 C 121.917969 39.328125 121.898438 39.359375 121.890625 39.324219 C 121.910156 39.300781 121.921875 39.273438 121.941406 39.25 L 121.960938 39.285156 C 121.988281 39.25 122.019531 39.214844 122.042969 39.179688 L 121.996094 39.175781 C 122.039062 39.128906 122.121094 39.136719 122.089844 39.046875 C 122.070312 39.003906 122.015625 39.082031 122.023438 39.015625 C 122.078125 38.949219 122.160156 38.839844 122.1875 38.734375 C 122.136719 38.738281 122.144531 38.710938 122.136719 38.679688 L 122.179688 38.679688 C 122.136719 38.566406 122.28125 38.648438 122.242188 38.53125 L 122.183594 38.511719 " fill-opacity="1" fill-rule="nonzero"/><path fill="#353535" d="M 111.296875 41.382812 L 111.296875 41.335938 C 111.289062 41.339844 111.285156 41.355469 111.296875 41.382812 " fill-opacity="1" fill-rule="nonzero"/><path fill="#353535" d="M 117.316406 40.449219 C 117.214844 40.425781 117.136719 40.277344 117.0625 40.285156 C 117.078125 40.25 116.832031 40.089844 117.007812 40.140625 C 117.019531 40.144531 117.039062 40.164062 117.03125 40.171875 L 117.074219 40.152344 C 116.988281 39.972656 116.796875 39.996094 116.660156 39.90625 C 116.695312 39.941406 116.753906 39.972656 116.703125 39.976562 C 116.660156 39.945312 116.617188 39.921875 116.570312 39.898438 L 116.617188 39.878906 C 116.550781 39.835938 116.488281 39.800781 116.421875 39.761719 L 116.429688 39.816406 C 116.339844 39.753906 116.328125 39.667969 116.191406 39.683594 C 116.128906 39.699219 116.269531 39.773438 116.15625 39.75 C 116.035156 39.675781 115.84375 39.574219 115.671875 39.527344 C 115.679688 39.578125 115.632812 39.566406 115.582031 39.566406 L 115.585938 39.523438 C 115.394531 39.546875 115.535156 39.417969 115.347656 39.433594 L 115.304688 39.488281 C 115.132812 39.546875 115.230469 39.386719 115.035156 39.476562 C 115.109375 39.480469 115.054688 39.574219 114.972656 39.546875 L 115 39.507812 C 114.949219 39.511719 114.933594 39.527344 114.898438 39.511719 C 114.933594 39.492188 114.921875 39.457031 114.851562 39.453125 L 114.902344 39.40625 L 114.761719 39.46875 C 114.660156 39.417969 114.492188 39.460938 114.453125 39.402344 C 114.453125 39.402344 114.394531 39.390625 114.332031 39.390625 C 114.269531 39.386719 114.199219 39.394531 114.171875 39.425781 C 114.21875 39.386719 114.09375 39.371094 114.128906 39.324219 C 114.070312 39.367188 113.898438 39.40625 113.828125 39.359375 L 113.84375 39.351562 C 113.582031 39.3125 113.40625 39.4375 113.171875 39.402344 C 113.1875 39.453125 113.066406 39.4375 113.101562 39.5 C 112.878906 39.589844 112.652344 39.429688 112.605469 39.640625 C 112.503906 39.671875 112.472656 39.617188 112.414062 39.621094 L 112.4375 39.605469 C 112.246094 39.664062 112.1875 39.675781 112.042969 39.710938 C 111.976562 39.746094 111.988281 39.839844 111.855469 39.851562 C 111.886719 39.804688 111.835938 39.828125 111.789062 39.839844 C 111.816406 39.824219 111.824219 39.808594 111.753906 39.804688 C 111.746094 39.820312 111.734375 39.828125 111.722656 39.839844 C 111.722656 39.835938 111.71875 39.835938 111.71875 39.832031 C 111.636719 39.871094 111.65625 39.878906 111.695312 39.867188 C 111.695312 39.875 111.703125 39.878906 111.71875 39.886719 C 111.667969 39.878906 111.601562 39.902344 111.542969 39.929688 C 111.484375 39.953125 111.433594 39.984375 111.40625 39.964844 C 111.375 39.988281 111.34375 40.015625 111.320312 40.039062 C 111.210938 40.15625 111.164062 40.300781 111.15625 40.425781 C 111.144531 40.546875 111.164062 40.648438 111.1875 40.753906 C 111.15625 40.78125 111.121094 40.730469 111.105469 40.65625 C 111.109375 40.714844 111.121094 40.773438 111.132812 40.832031 C 111.085938 40.835938 111.09375 40.734375 111.082031 40.679688 C 111.046875 40.792969 111.085938 40.898438 111.132812 40.996094 C 111.179688 41.09375 111.238281 41.1875 111.25 41.296875 L 111.296875 41.324219 L 111.296875 41.335938 C 111.316406 41.328125 111.359375 41.359375 111.378906 41.386719 C 111.351562 41.429688 111.292969 41.421875 111.339844 41.515625 C 111.339844 41.605469 111.460938 41.714844 111.53125 41.796875 C 111.511719 41.742188 111.539062 41.746094 111.5625 41.761719 C 111.589844 41.804688 111.570312 41.851562 111.605469 41.878906 L 111.558594 41.910156 C 111.59375 41.867188 111.675781 41.996094 111.707031 42 C 111.6875 42.042969 111.636719 41.949219 111.601562 41.953125 C 111.714844 42.125 111.65625 42.042969 111.777344 42.210938 C 111.875 42.277344 111.808594 42.164062 111.878906 42.179688 C 111.941406 42.253906 112.027344 42.304688 112.066406 42.410156 L 112.085938 42.351562 C 112.21875 42.464844 112.28125 42.542969 112.328125 42.65625 C 112.328125 42.660156 112.324219 42.660156 112.324219 42.660156 L 112.28125 42.628906 C 112.292969 42.652344 112.308594 42.675781 112.324219 42.695312 C 112.320312 42.726562 112.320312 42.761719 112.324219 42.808594 C 112.347656 42.925781 112.40625 43.109375 112.582031 43.308594 L 112.5625 43.316406 C 112.800781 43.511719 113 43.578125 113.214844 43.542969 C 113.226562 43.652344 113.453125 43.59375 113.515625 43.628906 L 113.507812 43.636719 C 113.605469 43.601562 113.691406 43.621094 113.785156 43.632812 C 113.875 43.644531 113.96875 43.652344 114.046875 43.605469 C 114.039062 43.613281 114.042969 43.640625 114.003906 43.648438 C 114.125 43.621094 114.28125 43.5625 114.304688 43.617188 C 114.589844 43.539062 114.96875 43.414062 115.089844 43.257812 L 115.082031 43.277344 C 115.148438 43.179688 115.199219 43.214844 115.285156 43.140625 C 115.292969 43.144531 115.300781 43.144531 115.300781 43.148438 C 115.371094 43.046875 115.582031 43.003906 115.644531 42.9375 L 115.667969 42.96875 C 115.730469 42.933594 115.792969 42.894531 115.855469 42.855469 L 115.78125 42.886719 C 115.75 42.78125 115.957031 42.867188 116.054688 42.722656 C 116.191406 42.652344 116.179688 42.375 116.328125 42.328125 C 116.355469 42.246094 116.328125 42.429688 116.390625 42.332031 C 116.425781 42.375 116.371094 42.394531 116.421875 42.410156 C 116.488281 42.324219 116.59375 42.34375 116.671875 42.222656 L 116.703125 42.253906 C 116.78125 42.078125 116.984375 42.054688 117.007812 41.910156 C 117.054688 41.824219 117.097656 41.816406 117.136719 41.804688 C 117.179688 41.789062 117.21875 41.769531 117.234375 41.65625 C 117.265625 41.640625 117.296875 41.628906 117.328125 41.609375 C 117.378906 41.527344 117.292969 41.519531 117.359375 41.429688 C 117.390625 41.453125 117.429688 41.304688 117.445312 41.378906 C 117.507812 41.257812 117.515625 41.101562 117.480469 40.945312 C 117.449219 40.78125 117.378906 40.621094 117.316406 40.449219 " fill-opacity="1" fill-rule="nonzero"/><path fill="#353535" d="M 115.347656 39.433594 L 115.367188 39.40625 L 115.347656 39.433594 " fill-opacity="1" fill-rule="nonzero"/><path fill="#a89486" d="M 58.796875 58.429688 L 58.824219 58.433594 C 58.816406 58.429688 58.804688 58.425781 58.796875 58.429688 " fill-opacity="1" fill-rule="nonzero"/><path fill="#a89486" d="M 60.628906 58.851562 C 60.640625 58.855469 60.65625 58.855469 60.667969 58.859375 L 60.628906 58.851562 " fill-opacity="1" fill-rule="nonzero"/><path fill="#a89486" d="M 60.550781 58.773438 C 60.578125 58.761719 60.59375 58.738281 60.519531 58.710938 C 60.527344 58.742188 60.398438 58.75 60.417969 58.707031 L 60.472656 58.703125 C 60.460938 58.683594 60.4375 58.683594 60.445312 58.664062 C 60.476562 58.671875 60.523438 58.652344 60.507812 58.617188 L 60.578125 58.625 C 60.542969 58.609375 60.507812 58.597656 60.46875 58.585938 C 60.488281 58.554688 60.476562 58.523438 60.46875 58.496094 C 60.457031 58.46875 60.445312 58.445312 60.472656 58.417969 C 60.472656 58.417969 60.472656 58.386719 60.457031 58.363281 C 60.4375 58.332031 60.410156 58.308594 60.371094 58.324219 C 60.425781 58.3125 60.40625 58.25 60.464844 58.230469 C 60.449219 58.234375 60.433594 58.234375 60.414062 58.230469 C 60.394531 58.222656 60.375 58.214844 60.359375 58.203125 C 60.324219 58.183594 60.304688 58.15625 60.308594 58.121094 L 60.316406 58.121094 C 60.277344 58.039062 60.210938 58.019531 60.148438 58.003906 C 60.085938 57.988281 60.035156 57.984375 59.992188 57.925781 C 59.972656 57.988281 59.929688 57.933594 59.917969 58.015625 C 59.851562 58.039062 59.816406 57.984375 59.777344 57.957031 C 59.738281 57.929688 59.703125 57.925781 59.671875 58.050781 C 59.625 58.058594 59.621094 57.984375 59.59375 57.972656 L 59.605469 57.960938 C 59.507812 57.980469 59.484375 57.984375 59.414062 57.988281 C 59.386719 58.019531 59.40625 58.136719 59.347656 58.121094 C 59.351562 58.070312 59.332031 58.082031 59.3125 58.089844 C 59.320312 58.078125 59.320312 58.0625 59.285156 58.039062 C 59.285156 58.054688 59.28125 58.066406 59.277344 58.074219 C 59.277344 58.070312 59.273438 58.070312 59.273438 58.066406 C 59.246094 58.089844 59.257812 58.101562 59.273438 58.101562 C 59.277344 58.109375 59.28125 58.121094 59.289062 58.128906 C 59.230469 58.082031 59.199219 58.171875 59.160156 58.101562 C 59.148438 58.109375 59.140625 58.113281 59.132812 58.121094 C 59.058594 58.195312 59.054688 58.285156 59.019531 58.351562 C 58.988281 58.324219 58.976562 58.285156 58.984375 58.257812 L 58.953125 58.304688 C 58.914062 58.261719 58.953125 58.257812 58.960938 58.238281 C 58.902344 58.222656 58.890625 58.265625 58.882812 58.308594 C 58.871094 58.351562 58.867188 58.394531 58.808594 58.394531 L 58.832031 58.4375 L 58.824219 58.433594 C 58.828125 58.4375 58.828125 58.441406 58.832031 58.445312 C 58.816406 58.445312 58.796875 58.445312 58.777344 58.449219 C 58.765625 58.441406 58.753906 58.441406 58.746094 58.453125 C 58.746094 58.453125 58.742188 58.453125 58.742188 58.453125 C 58.734375 58.453125 58.730469 58.453125 58.726562 58.457031 C 58.714844 58.457031 58.707031 58.460938 58.695312 58.460938 L 58.679688 58.449219 C 58.566406 58.523438 58.511719 58.601562 58.585938 58.695312 C 58.453125 58.679688 58.535156 58.78125 58.484375 58.796875 L 58.476562 58.792969 C 58.515625 58.832031 58.484375 58.863281 58.457031 58.898438 C 58.425781 58.933594 58.398438 58.972656 58.441406 59 C 58.429688 59 58.394531 59 58.390625 58.984375 C 58.402344 59.035156 58.433594 59.097656 58.359375 59.113281 C 58.375 59.230469 58.402344 59.414062 58.542969 59.425781 L 58.523438 59.429688 C 58.613281 59.429688 58.5625 59.472656 58.621094 59.488281 C 58.613281 59.496094 58.613281 59.5 58.605469 59.503906 C 58.699219 59.496094 58.699219 59.59375 58.753906 59.597656 L 58.714844 59.632812 C 58.742188 59.648438 58.765625 59.664062 58.792969 59.679688 C 58.785156 59.667969 58.78125 59.660156 58.773438 59.652344 C 58.828125 59.605469 58.824219 59.632812 58.824219 59.664062 C 58.824219 59.695312 58.828125 59.738281 58.886719 59.71875 C 58.90625 59.742188 58.976562 59.695312 59.039062 59.652344 C 59.101562 59.605469 59.152344 59.5625 59.160156 59.597656 C 59.210938 59.542969 59.085938 59.683594 59.148438 59.648438 C 59.113281 59.714844 59.105469 59.683594 59.089844 59.738281 C 59.144531 59.71875 59.125 59.824219 59.199219 59.785156 L 59.179688 59.839844 C 59.234375 59.796875 59.257812 59.8125 59.285156 59.832031 C 59.308594 59.851562 59.335938 59.875 59.367188 59.820312 C 59.445312 59.769531 59.398438 59.988281 59.492188 59.863281 C 59.503906 59.886719 59.511719 59.910156 59.523438 59.929688 C 59.5625 59.9375 59.546875 59.832031 59.589844 59.855469 C 59.589844 59.90625 59.644531 59.878906 59.625 59.933594 C 59.675781 59.957031 59.726562 59.910156 59.773438 59.863281 C 59.820312 59.820312 59.863281 59.78125 59.949219 59.796875 C 59.933594 59.695312 60.015625 59.699219 59.996094 59.628906 C 60.023438 59.660156 60.101562 59.539062 60.097656 59.664062 C 60.097656 59.671875 60.085938 59.679688 60.078125 59.667969 L 60.101562 59.71875 C 60.164062 59.730469 60.191406 59.6875 60.199219 59.640625 C 60.214844 59.59375 60.210938 59.539062 60.246094 59.511719 C 60.214844 59.519531 60.199219 59.546875 60.183594 59.507812 C 60.203125 59.488281 60.222656 59.472656 60.238281 59.453125 L 60.265625 59.492188 C 60.296875 59.46875 60.328125 59.441406 60.359375 59.410156 L 60.300781 59.394531 C 60.355469 59.367188 60.457031 59.386719 60.417969 59.296875 C 60.390625 59.253906 60.320312 59.3125 60.332031 59.253906 C 60.402344 59.210938 60.507812 59.125 60.550781 59.03125 C 60.484375 59.03125 60.496094 59.007812 60.488281 58.984375 L 60.542969 58.984375 C 60.484375 58.890625 60.675781 58.953125 60.628906 58.851562 C 60.601562 58.847656 60.578125 58.84375 60.550781 58.839844 C 60.5 58.804688 60.527344 58.792969 60.550781 58.773438 " fill-opacity="1" fill-rule="nonzero"/><path fill="#a89486" d="M 64.925781 55.015625 L 64.957031 55.023438 C 64.945312 55.015625 64.9375 55.011719 64.925781 55.015625 " fill-opacity="1" fill-rule="nonzero"/><path fill="#a89486" d="M 66.878906 55.296875 C 66.890625 55.304688 66.90625 55.304688 66.917969 55.308594 L 66.878906 55.296875 " fill-opacity="1" fill-rule="nonzero"/><path fill="#a89486" d="M 66.800781 55.195312 C 66.820312 55.175781 66.84375 55.152344 66.757812 55.105469 C 66.773438 55.148438 66.640625 55.140625 66.65625 55.089844 L 66.710938 55.09375 C 66.695312 55.066406 66.671875 55.0625 66.679688 55.042969 C 66.710938 55.054688 66.757812 55.035156 66.738281 54.996094 C 66.761719 55 66.785156 55.003906 66.808594 55.007812 C 66.769531 54.988281 66.730469 54.96875 66.691406 54.953125 C 66.710938 54.917969 66.691406 54.878906 66.675781 54.847656 C 66.660156 54.820312 66.648438 54.792969 66.675781 54.761719 C 66.675781 54.761719 66.667969 54.726562 66.644531 54.699219 C 66.625 54.667969 66.589844 54.640625 66.550781 54.65625 C 66.605469 54.644531 66.574219 54.574219 66.636719 54.550781 C 66.566406 54.558594 66.464844 54.519531 66.472656 54.445312 L 66.484375 54.445312 C 66.445312 54.371094 66.367188 54.34375 66.296875 54.328125 C 66.226562 54.308594 66.160156 54.300781 66.09375 54.238281 C 66.082031 54.300781 66.007812 54.25 66.011719 54.332031 C 65.929688 54.355469 65.867188 54.308594 65.804688 54.292969 C 65.738281 54.273438 65.683594 54.289062 65.6875 54.417969 C 65.628906 54.445312 65.597656 54.382812 65.5625 54.378906 L 65.570312 54.363281 C 65.464844 54.425781 65.441406 54.449219 65.371094 54.484375 C 65.355469 54.527344 65.421875 54.625 65.359375 54.640625 C 65.34375 54.589844 65.332031 54.613281 65.316406 54.628906 C 65.320312 54.613281 65.3125 54.597656 65.269531 54.59375 C 65.277344 54.605469 65.277344 54.617188 65.277344 54.625 C 65.277344 54.625 65.273438 54.621094 65.269531 54.617188 C 65.257812 54.65625 65.269531 54.660156 65.285156 54.65625 C 65.289062 54.660156 65.296875 54.664062 65.3125 54.671875 C 65.242188 54.652344 65.246094 54.742188 65.1875 54.6875 C 65.132812 54.769531 65.160156 54.863281 65.136719 54.9375 C 65.101562 54.914062 65.085938 54.878906 65.085938 54.855469 L 65.0625 54.902344 C 65.019531 54.859375 65.058594 54.855469 65.058594 54.835938 C 64.949219 54.816406 65.050781 54.992188 64.9375 54.984375 L 64.964844 55.023438 L 64.957031 55.023438 C 64.976562 55.039062 64.988281 55.074219 64.988281 55.085938 C 64.945312 55.058594 64.902344 55.007812 64.878906 55.035156 C 64.847656 55.023438 64.839844 55.054688 64.84375 55.089844 C 64.742188 55.140625 64.699219 55.210938 64.734375 55.320312 C 64.675781 55.292969 64.65625 55.316406 64.648438 55.34375 C 64.644531 55.375 64.644531 55.410156 64.621094 55.414062 L 64.613281 55.40625 C 64.636719 55.460938 64.609375 55.492188 64.570312 55.519531 C 64.539062 55.550781 64.503906 55.585938 64.535156 55.636719 C 64.527344 55.628906 64.492188 55.621094 64.496094 55.601562 C 64.496094 55.664062 64.511719 55.746094 64.441406 55.738281 C 64.441406 55.8125 64.433594 55.902344 64.449219 55.984375 C 64.464844 56.066406 64.503906 56.136719 64.574219 56.164062 L 64.550781 56.164062 C 64.605469 56.179688 64.605469 56.195312 64.609375 56.21875 L 64.636719 56.378906 L 64.9375 56.429688 C 64.945312 56.433594 64.957031 56.433594 64.972656 56.417969 C 64.976562 56.425781 64.976562 56.429688 64.976562 56.433594 C 65.007812 56.351562 65.082031 56.414062 65.109375 56.378906 L 65.117188 56.429688 L 65.191406 56.410156 L 65.164062 56.402344 C 65.160156 56.265625 65.226562 56.484375 65.273438 56.386719 C 65.332031 56.398438 65.34375 56.097656 65.402344 56.152344 C 65.417969 56.085938 65.398438 56.261719 65.425781 56.207031 C 65.441406 56.273438 65.417969 56.253906 65.4375 56.304688 C 65.46875 56.265625 65.511719 56.367188 65.550781 56.308594 L 65.566406 56.363281 C 65.605469 56.25 65.707031 56.402344 65.726562 56.296875 C 65.777344 56.234375 65.824219 56.4375 65.859375 56.308594 L 65.914062 56.367188 C 65.953125 56.367188 65.902344 56.273438 65.953125 56.292969 C 65.96875 56.335938 66.011719 56.304688 66.011719 56.355469 C 66.070312 56.371094 66.101562 56.324219 66.136719 56.277344 C 66.171875 56.234375 66.207031 56.195312 66.292969 56.207031 C 66.257812 56.121094 66.339844 56.125 66.308594 56.058594 C 66.339844 56.085938 66.40625 55.976562 66.414062 56.089844 C 66.414062 56.097656 66.40625 56.105469 66.394531 56.09375 L 66.425781 56.140625 C 66.554688 56.160156 66.484375 56 66.539062 55.957031 C 66.511719 55.960938 66.496094 55.988281 66.480469 55.949219 C 66.496094 55.933594 66.511719 55.917969 66.527344 55.902344 L 66.554688 55.9375 C 66.582031 55.917969 66.613281 55.894531 66.640625 55.867188 L 66.582031 55.847656 C 66.636719 55.824219 66.730469 55.851562 66.6875 55.757812 C 66.660156 55.714844 66.597656 55.765625 66.609375 55.710938 C 66.671875 55.667969 66.769531 55.589844 66.808594 55.492188 C 66.746094 55.484375 66.753906 55.460938 66.746094 55.433594 L 66.800781 55.4375 C 66.742188 55.324219 66.929688 55.417969 66.878906 55.296875 C 66.855469 55.289062 66.828125 55.28125 66.804688 55.273438 C 66.75 55.226562 66.777344 55.210938 66.800781 55.195312 " fill-opacity="1" fill-rule="nonzero"/><path fill="#a89486" d="M 62.746094 58.992188 C 62.738281 58.980469 62.726562 58.976562 62.722656 58.980469 L 62.746094 58.992188 " fill-opacity="1" fill-rule="nonzero"/><path fill="#a89486" d="M 63.792969 58.324219 C 63.792969 58.324219 63.792969 58.324219 63.792969 58.320312 L 63.800781 58.285156 L 63.792969 58.324219 " fill-opacity="1" fill-rule="nonzero"/><path fill="#a89486" d="M 63.921875 58.242188 L 63.804688 58.3125 C 63.800781 58.316406 63.796875 58.320312 63.792969 58.320312 L 63.78125 58.398438 C 63.734375 58.507812 63.761719 58.28125 63.707031 58.429688 C 63.726562 58.421875 63.714844 58.554688 63.695312 58.527344 L 63.699219 58.476562 C 63.6875 58.488281 63.683594 58.507812 63.675781 58.496094 C 63.683594 58.46875 63.679688 58.417969 63.660156 58.429688 L 63.671875 58.363281 C 63.660156 58.394531 63.648438 58.429688 63.640625 58.460938 C 63.609375 58.40625 63.574219 58.480469 63.554688 58.40625 C 63.554688 58.40625 63.492188 58.378906 63.492188 58.460938 C 63.496094 58.410156 63.460938 58.394531 63.460938 58.332031 C 63.453125 58.394531 63.421875 58.445312 63.390625 58.390625 L 63.394531 58.382812 C 63.308594 58.335938 63.304688 58.492188 63.226562 58.4375 C 63.25 58.5 63.210938 58.476562 63.246094 58.550781 C 63.222656 58.644531 63.082031 58.433594 63.164062 58.675781 C 63.148438 58.695312 63.113281 58.632812 63.097656 58.628906 L 63.097656 58.613281 C 63.0625 58.652344 63.050781 58.660156 63.019531 58.671875 C 63.015625 58.703125 63.074219 58.804688 63.035156 58.796875 C 63.019531 58.75 63.011719 58.765625 63.003906 58.769531 C 63.003906 58.761719 62.996094 58.742188 62.96875 58.726562 C 62.972656 58.738281 62.976562 58.75 62.976562 58.753906 C 62.976562 58.753906 62.972656 58.75 62.972656 58.746094 C 62.964844 58.769531 62.972656 58.78125 62.984375 58.78125 C 62.988281 58.789062 62.996094 58.796875 63.003906 58.804688 C 62.953125 58.765625 62.960938 58.839844 62.914062 58.773438 C 62.878906 58.820312 62.898438 58.914062 62.886719 58.964844 C 62.855469 58.9375 62.839844 58.902344 62.839844 58.882812 L 62.824219 58.914062 C 62.785156 58.871094 62.816406 58.875 62.816406 58.859375 C 62.71875 58.816406 62.820312 58.984375 62.726562 58.953125 L 62.753906 58.992188 L 62.746094 58.992188 C 62.765625 59.007812 62.78125 59.039062 62.78125 59.046875 C 62.742188 59.019531 62.695312 58.96875 62.683594 58.988281 C 62.632812 58.96875 62.667969 59.042969 62.671875 59.078125 C 62.6875 59.074219 62.707031 59.09375 62.71875 59.113281 C 62.714844 59.121094 62.667969 59.09375 62.683594 59.113281 L 62.625 59.074219 C 62.679688 59.109375 62.664062 59.140625 62.683594 59.160156 C 62.640625 59.136719 62.660156 59.121094 62.628906 59.09375 C 62.609375 59.136719 62.617188 59.113281 62.597656 59.15625 C 62.628906 59.207031 62.65625 59.191406 62.699219 59.234375 C 62.699219 59.257812 62.734375 59.300781 62.683594 59.296875 L 62.742188 59.320312 C 62.765625 59.375 62.753906 59.386719 62.683594 59.382812 C 62.714844 59.421875 62.746094 59.453125 62.773438 59.480469 C 62.765625 59.5 62.757812 59.519531 62.753906 59.539062 L 62.773438 59.554688 C 62.777344 59.558594 62.78125 59.558594 62.785156 59.5625 C 62.777344 59.585938 62.765625 59.609375 62.757812 59.636719 C 62.738281 59.707031 62.722656 59.804688 62.746094 59.921875 L 62.734375 59.9375 C 62.789062 60.011719 62.847656 60.042969 62.917969 59.949219 C 62.902344 60.074219 62.976562 59.972656 62.988281 60.011719 L 62.988281 60.023438 C 63.015625 59.976562 63.035156 59.996094 63.058594 60.019531 C 63.082031 60.042969 63.105469 60.0625 63.128906 60.019531 C 63.125 60.03125 63.125 60.066406 63.117188 60.066406 C 63.152344 60.050781 63.191406 60.015625 63.199219 60.089844 C 63.238281 60.074219 63.289062 60.074219 63.328125 60.054688 C 63.367188 60.035156 63.398438 60.003906 63.398438 59.9375 L 63.402344 59.960938 C 63.402344 59.875 63.429688 59.9375 63.441406 59.890625 C 63.445312 59.898438 63.449219 59.902344 63.453125 59.90625 C 63.445312 59.820312 63.515625 59.863281 63.523438 59.824219 L 63.546875 59.867188 C 63.558594 59.855469 63.574219 59.84375 63.585938 59.828125 L 63.566406 59.832031 C 63.503906 59.710938 63.640625 59.882812 63.628906 59.789062 C 63.675781 59.78125 63.519531 59.519531 63.582031 59.554688 C 63.550781 59.5 63.636719 59.644531 63.621094 59.59375 C 63.667969 59.648438 63.640625 59.632812 63.683594 59.675781 C 63.679688 59.632812 63.761719 59.707031 63.753906 59.644531 L 63.789062 59.6875 C 63.75 59.585938 63.902344 59.679688 63.851562 59.59375 C 63.839844 59.53125 63.996094 59.675781 63.941406 59.566406 L 64.011719 59.597656 C 64.035156 59.585938 63.945312 59.53125 63.992188 59.535156 C 64.027344 59.5625 64.039062 59.53125 64.066406 59.566406 C 64.113281 59.558594 64.109375 59.519531 64.105469 59.480469 C 64.105469 59.445312 64.109375 59.414062 64.179688 59.398438 C 64.101562 59.347656 64.164062 59.332031 64.105469 59.296875 C 64.144531 59.308594 64.136719 59.222656 64.207031 59.292969 C 64.210938 59.296875 64.207031 59.304688 64.191406 59.300781 L 64.242188 59.320312 C 64.300781 59.3125 64.292969 59.285156 64.273438 59.257812 C 64.253906 59.226562 64.222656 59.199219 64.238281 59.175781 C 64.214844 59.1875 64.21875 59.207031 64.183594 59.1875 L 64.199219 59.144531 L 64.242188 59.160156 C 64.253906 59.140625 64.265625 59.121094 64.277344 59.097656 L 64.21875 59.101562 C 64.25 59.074219 64.347656 59.0625 64.269531 59.023438 C 64.222656 59.003906 64.191406 59.050781 64.175781 59.015625 C 64.195312 58.996094 64.21875 58.96875 64.238281 58.9375 C 64.257812 58.90625 64.273438 58.875 64.273438 58.84375 C 64.210938 58.859375 64.210938 58.84375 64.199219 58.828125 L 64.25 58.816406 C 64.171875 58.777344 64.335938 58.769531 64.304688 58.730469 L 63.921875 58.242188 " fill-opacity="1" fill-rule="nonzero"/><path fill="#a89486" d="M 77.589844 52.390625 L 77.46875 52.460938 C 77.46875 52.464844 77.464844 52.46875 77.460938 52.472656 L 77.445312 52.546875 C 77.398438 52.65625 77.425781 52.433594 77.375 52.578125 C 77.394531 52.570312 77.382812 52.703125 77.359375 52.675781 L 77.367188 52.625 C 77.355469 52.636719 77.351562 52.65625 77.34375 52.644531 C 77.347656 52.617188 77.347656 52.566406 77.328125 52.578125 L 77.339844 52.511719 C 77.328125 52.542969 77.316406 52.578125 77.304688 52.609375 C 77.277344 52.554688 77.238281 52.628906 77.222656 52.554688 C 77.222656 52.554688 77.160156 52.527344 77.160156 52.609375 C 77.164062 52.558594 77.128906 52.542969 77.128906 52.480469 C 77.121094 52.542969 77.085938 52.59375 77.058594 52.539062 L 77.058594 52.53125 C 76.976562 52.484375 76.96875 52.640625 76.894531 52.585938 C 76.917969 52.648438 76.878906 52.625 76.910156 52.699219 C 76.890625 52.792969 76.75 52.582031 76.832031 52.824219 C 76.816406 52.84375 76.78125 52.78125 76.761719 52.777344 L 76.761719 52.761719 C 76.730469 52.800781 76.71875 52.808594 76.683594 52.820312 C 76.683594 52.851562 76.738281 52.953125 76.699219 52.945312 C 76.683594 52.898438 76.679688 52.914062 76.667969 52.917969 C 76.671875 52.910156 76.664062 52.894531 76.632812 52.875 C 76.640625 52.886719 76.640625 52.898438 76.644531 52.90625 C 76.640625 52.902344 76.640625 52.898438 76.636719 52.894531 C 76.628906 52.917969 76.640625 52.929688 76.652344 52.929688 C 76.65625 52.9375 76.660156 52.945312 76.671875 52.953125 C 76.621094 52.914062 76.628906 52.988281 76.582031 52.921875 C 76.542969 52.96875 76.566406 53.0625 76.554688 53.113281 C 76.523438 53.085938 76.503906 53.050781 76.503906 53.03125 L 76.492188 53.0625 C 76.449219 53.019531 76.480469 53.023438 76.484375 53.007812 C 76.386719 52.964844 76.488281 53.136719 76.394531 53.105469 L 76.417969 53.140625 L 76.414062 53.140625 C 76.429688 53.15625 76.449219 53.1875 76.449219 53.195312 C 76.40625 53.167969 76.363281 53.117188 76.347656 53.136719 C 76.300781 53.117188 76.332031 53.191406 76.339844 53.226562 C 76.355469 53.222656 76.375 53.246094 76.386719 53.261719 C 76.382812 53.269531 76.335938 53.242188 76.347656 53.261719 L 76.292969 53.222656 C 76.347656 53.257812 76.332031 53.289062 76.351562 53.308594 C 76.304688 53.285156 76.328125 53.269531 76.296875 53.242188 C 76.273438 53.285156 76.285156 53.261719 76.265625 53.304688 C 76.296875 53.355469 76.320312 53.339844 76.367188 53.382812 C 76.367188 53.40625 76.398438 53.445312 76.351562 53.445312 L 76.410156 53.46875 C 76.433594 53.523438 76.417969 53.535156 76.351562 53.527344 C 76.382812 53.570312 76.410156 53.601562 76.441406 53.628906 C 76.433594 53.648438 76.425781 53.667969 76.417969 53.6875 L 76.441406 53.703125 C 76.445312 53.707031 76.449219 53.707031 76.453125 53.710938 C 76.441406 53.734375 76.433594 53.757812 76.425781 53.785156 C 76.40625 53.855469 76.390625 53.953125 76.414062 54.066406 L 76.402344 54.085938 C 76.457031 54.160156 76.515625 54.191406 76.585938 54.097656 C 76.570312 54.222656 76.644531 54.117188 76.65625 54.164062 L 76.652344 54.171875 C 76.683594 54.128906 76.699219 54.144531 76.726562 54.167969 C 76.746094 54.191406 76.773438 54.214844 76.792969 54.167969 C 76.792969 54.179688 76.792969 54.214844 76.78125 54.214844 C 76.816406 54.199219 76.855469 54.164062 76.867188 54.238281 C 76.90625 54.222656 76.953125 54.21875 76.992188 54.203125 C 77.03125 54.183594 77.0625 54.152344 77.066406 54.085938 L 77.070312 54.109375 C 77.066406 54.027344 77.097656 54.085938 77.109375 54.039062 C 77.113281 54.046875 77.117188 54.050781 77.117188 54.054688 C 77.113281 53.972656 77.183594 54.011719 77.1875 53.972656 L 77.214844 54.015625 C 77.226562 54.003906 77.238281 53.992188 77.253906 53.976562 L 77.230469 53.980469 C 77.167969 53.859375 77.308594 54.03125 77.296875 53.9375 C 77.339844 53.929688 77.1875 53.667969 77.25 53.703125 C 77.21875 53.644531 77.304688 53.792969 77.289062 53.742188 C 77.335938 53.796875 77.308594 53.785156 77.347656 53.824219 C 77.347656 53.78125 77.429688 53.855469 77.417969 53.796875 L 77.457031 53.835938 C 77.414062 53.734375 77.566406 53.828125 77.515625 53.742188 C 77.507812 53.679688 77.660156 53.824219 77.605469 53.71875 L 77.679688 53.746094 C 77.703125 53.734375 77.613281 53.679688 77.65625 53.683594 C 77.695312 53.710938 77.703125 53.675781 77.734375 53.714844 C 77.78125 53.710938 77.773438 53.667969 77.773438 53.632812 C 77.769531 53.59375 77.773438 53.5625 77.847656 53.546875 C 77.769531 53.496094 77.832031 53.480469 77.773438 53.445312 C 77.8125 53.457031 77.800781 53.371094 77.871094 53.441406 C 77.878906 53.445312 77.875 53.453125 77.859375 53.449219 L 77.910156 53.46875 C 77.964844 53.460938 77.957031 53.433594 77.941406 53.40625 C 77.921875 53.375 77.890625 53.347656 77.902344 53.324219 C 77.882812 53.335938 77.882812 53.355469 77.847656 53.335938 L 77.863281 53.292969 L 77.90625 53.3125 C 77.921875 53.289062 77.933594 53.269531 77.945312 53.246094 L 77.886719 53.25 C 77.917969 53.222656 78.015625 53.210938 77.933594 53.171875 C 77.890625 53.152344 77.859375 53.199219 77.839844 53.164062 C 77.859375 53.144531 77.886719 53.117188 77.90625 53.085938 C 77.925781 53.058594 77.9375 53.023438 77.941406 52.992188 C 77.878906 53.007812 77.878906 52.992188 77.863281 52.976562 L 77.917969 52.964844 C 77.835938 52.925781 78.003906 52.917969 77.972656 52.878906 L 77.589844 52.390625 " fill-opacity="1" fill-rule="nonzero"/><path fill="#a89486" d="M 76.257812 47.429688 L 76.285156 47.433594 C 76.28125 47.421875 76.273438 47.417969 76.257812 47.429688 " fill-opacity="1" fill-rule="nonzero"/><path fill="#a89486" d="M 78.503906 46.621094 L 78.539062 46.59375 L 78.503906 46.621094 " fill-opacity="1" fill-rule="nonzero"/><path fill="#a89486" d="M 78.359375 46.582031 C 78.378906 46.605469 78.273438 46.695312 78.273438 46.640625 L 78.320312 46.605469 C 78.300781 46.59375 78.28125 46.605469 78.28125 46.582031 C 78.308594 46.570312 78.339844 46.527344 78.316406 46.503906 L 78.375 46.46875 L 78.269531 46.492188 C 78.277344 46.402344 78.167969 46.398438 78.191406 46.324219 C 78.195312 46.320312 78.105469 46.222656 78.035156 46.285156 C 78.085938 46.25 78.035156 46.207031 78.085938 46.164062 C 78.023438 46.195312 77.917969 46.21875 77.921875 46.15625 L 77.929688 46.152344 C 77.921875 46.144531 77.917969 46.136719 77.910156 46.132812 C 77.867188 46.113281 77.816406 46.128906 77.773438 46.152344 C 77.726562 46.171875 77.683594 46.191406 77.664062 46.152344 C 77.636719 46.230469 77.609375 46.199219 77.574219 46.300781 C 77.507812 46.367188 77.492188 46.328125 77.46875 46.308594 C 77.441406 46.296875 77.410156 46.308594 77.332031 46.5 C 77.28125 46.542969 77.308594 46.4375 77.289062 46.433594 L 77.308594 46.40625 C 77.207031 46.488281 77.183594 46.5 77.117188 46.542969 C 77.074219 46.601562 77.03125 46.789062 76.984375 46.789062 C 77.015625 46.699219 76.988281 46.734375 76.964844 46.753906 C 76.980469 46.730469 76.992188 46.699219 76.96875 46.675781 C 76.960938 46.703125 76.953125 46.722656 76.945312 46.738281 C 76.945312 46.734375 76.945312 46.730469 76.945312 46.722656 C 76.902344 46.777344 76.910156 46.792969 76.925781 46.789062 C 76.921875 46.800781 76.921875 46.8125 76.925781 46.828125 C 76.898438 46.769531 76.816406 46.925781 76.824219 46.8125 C 76.699219 46.945312 76.621094 47.140625 76.546875 47.261719 C 76.527344 47.222656 76.542969 47.152344 76.566406 47.105469 C 76.546875 47.132812 76.523438 47.164062 76.503906 47.195312 C 76.492188 47.121094 76.535156 47.109375 76.554688 47.074219 C 76.503906 47.054688 76.464844 47.132812 76.425781 47.207031 C 76.390625 47.28125 76.359375 47.359375 76.292969 47.363281 L 76.296875 47.433594 L 76.285156 47.433594 C 76.296875 47.457031 76.296875 47.511719 76.289062 47.535156 C 76.25 47.5 76.230469 47.417969 76.183594 47.480469 C 76.121094 47.480469 76.097656 47.613281 76.078125 47.691406 C 76.0625 47.695312 76.050781 47.695312 76.035156 47.699219 L 76.023438 47.683594 C 75.894531 47.769531 75.824219 47.871094 75.875 48.019531 C 75.75 47.988281 75.8125 48.148438 75.765625 48.179688 L 75.757812 48.171875 C 75.792969 48.246094 75.765625 48.300781 75.742188 48.363281 C 75.71875 48.421875 75.699219 48.492188 75.753906 48.542969 C 75.742188 48.539062 75.707031 48.542969 75.703125 48.515625 C 75.726562 48.605469 75.792969 48.707031 75.726562 48.742188 C 75.75 48.792969 75.78125 48.851562 75.816406 48.90625 C 75.847656 48.957031 75.886719 49.003906 75.933594 49.046875 C 76.023438 49.125 76.132812 49.167969 76.222656 49.140625 L 76.203125 49.152344 C 76.308594 49.109375 76.296875 49.175781 76.390625 49.15625 C 76.390625 49.164062 76.394531 49.171875 76.394531 49.175781 C 76.445312 49.144531 76.5 49.140625 76.550781 49.140625 C 76.605469 49.140625 76.65625 49.140625 76.6875 49.113281 L 76.691406 49.164062 C 76.746094 49.148438 76.800781 49.125 76.851562 49.101562 L 76.792969 49.113281 C 76.792969 49.035156 76.820312 49.050781 76.867188 49.058594 C 76.914062 49.070312 76.980469 49.070312 77.019531 48.996094 C 77.074219 48.972656 77.089844 48.875 77.085938 48.792969 C 77.082031 48.714844 77.066406 48.65625 77.128906 48.648438 C 77.105469 48.582031 77.1875 48.734375 77.195312 48.660156 C 77.257812 48.699219 77.207031 48.707031 77.269531 48.726562 C 77.285156 48.691406 77.324219 48.683594 77.367188 48.667969 C 77.40625 48.648438 77.449219 48.625 77.460938 48.585938 L 77.523438 48.601562 C 77.515625 48.535156 77.570312 48.5 77.632812 48.460938 C 77.691406 48.421875 77.746094 48.382812 77.707031 48.351562 C 77.71875 48.304688 77.78125 48.289062 77.84375 48.265625 C 77.898438 48.246094 77.949219 48.21875 77.910156 48.175781 L 78.042969 48.117188 C 78.09375 48.066406 77.933594 48.109375 78.019531 48.050781 C 78.085938 48.035156 78.113281 47.972656 78.160156 47.984375 C 78.25 47.910156 78.246094 47.855469 78.246094 47.808594 C 78.25 47.78125 78.25 47.753906 78.269531 47.71875 C 78.285156 47.6875 78.324219 47.644531 78.378906 47.589844 C 78.257812 47.621094 78.363281 47.515625 78.269531 47.546875 C 78.328125 47.511719 78.320312 47.414062 78.417969 47.417969 C 78.425781 47.417969 78.421875 47.429688 78.398438 47.441406 L 78.476562 47.410156 C 78.558594 47.332031 78.542969 47.308594 78.515625 47.296875 C 78.488281 47.28125 78.445312 47.28125 78.460938 47.242188 C 78.433594 47.273438 78.4375 47.296875 78.390625 47.308594 L 78.410156 47.242188 L 78.46875 47.21875 C 78.484375 47.179688 78.5 47.140625 78.511719 47.105469 L 78.441406 47.164062 C 78.484375 47.097656 78.597656 47 78.503906 47.023438 C 78.453125 47.039062 78.410156 47.128906 78.394531 47.097656 C 78.449219 47.011719 78.503906 46.878906 78.507812 46.792969 C 78.445312 46.855469 78.445312 46.832031 78.429688 46.824219 L 78.480469 46.773438 C 78.390625 46.761719 78.585938 46.644531 78.503906 46.621094 L 78.433594 46.667969 C 78.320312 46.691406 78.511719 46.539062 78.359375 46.582031 " fill-opacity="1" fill-rule="nonzero"/><path fill="#a89486" d="M 80.902344 43.3125 L 80.929688 43.316406 C 80.921875 43.3125 80.910156 43.308594 80.902344 43.3125 " fill-opacity="1" fill-rule="nonzero"/><path fill="#a89486" d="M 82.523438 43.742188 L 82.558594 43.757812 L 82.523438 43.742188 " fill-opacity="1" fill-rule="nonzero"/><path fill="#a89486" d="M 82.441406 43.597656 C 82.445312 43.625 82.320312 43.582031 82.351562 43.558594 L 82.402344 43.574219 C 82.394531 43.554688 82.375 43.546875 82.386719 43.535156 C 82.414062 43.550781 82.460938 43.554688 82.457031 43.527344 L 82.519531 43.554688 C 82.488281 43.53125 82.460938 43.507812 82.429688 43.488281 C 82.496094 43.457031 82.429688 43.378906 82.503906 43.359375 C 82.503906 43.359375 82.515625 43.332031 82.511719 43.292969 C 82.507812 43.257812 82.492188 43.210938 82.449219 43.203125 C 82.503906 43.226562 82.507812 43.136719 82.570312 43.148438 C 82.507812 43.113281 82.421875 43 82.433594 42.914062 L 82.449219 42.921875 C 82.410156 42.796875 82.308594 42.722656 82.207031 42.683594 C 82.105469 42.644531 82.015625 42.632812 81.9375 42.582031 C 81.933594 42.640625 81.851562 42.597656 81.863281 42.683594 C 81.785156 42.714844 81.734375 42.679688 81.679688 42.664062 C 81.628906 42.652344 81.589844 42.664062 81.605469 42.792969 C 81.5625 42.816406 81.53125 42.75 81.503906 42.746094 L 81.511719 42.730469 C 81.429688 42.78125 81.410156 42.796875 81.347656 42.824219 C 81.335938 42.851562 81.363281 42.917969 81.355469 42.949219 C 81.351562 42.960938 81.347656 42.96875 81.335938 42.96875 C 81.320312 42.921875 81.308594 42.9375 81.292969 42.949219 C 81.300781 42.9375 81.292969 42.921875 81.257812 42.90625 C 81.261719 42.921875 81.261719 42.933594 81.261719 42.941406 C 81.261719 42.9375 81.257812 42.933594 81.257812 42.929688 C 81.242188 42.960938 81.253906 42.96875 81.269531 42.96875 C 81.273438 42.972656 81.28125 42.980469 81.289062 42.988281 C 81.230469 42.957031 81.230469 43.042969 81.175781 42.980469 C 81.117188 43.054688 81.132812 43.15625 81.109375 43.226562 C 81.074219 43.203125 81.058594 43.167969 81.058594 43.140625 L 81.035156 43.1875 C 80.992188 43.148438 81.03125 43.144531 81.035156 43.125 C 80.917969 43.105469 81.019531 43.277344 80.910156 43.277344 L 80.9375 43.320312 L 80.929688 43.316406 C 80.933594 43.320312 80.933594 43.320312 80.933594 43.320312 C 80.914062 43.320312 80.894531 43.324219 80.875 43.328125 C 80.871094 43.328125 80.867188 43.328125 80.863281 43.332031 C 80.859375 43.332031 80.859375 43.332031 80.855469 43.332031 L 80.839844 43.320312 C 80.753906 43.378906 80.71875 43.4375 80.777344 43.523438 C 80.773438 43.53125 80.773438 43.535156 80.769531 43.539062 C 80.675781 43.523438 80.75 43.613281 80.707031 43.625 L 80.695312 43.617188 C 80.738281 43.660156 80.710938 43.683594 80.683594 43.710938 C 80.65625 43.734375 80.625 43.761719 80.664062 43.796875 C 80.65625 43.796875 80.621094 43.789062 80.621094 43.773438 C 80.628906 43.820312 80.652344 43.882812 80.578125 43.878906 C 80.585938 43.984375 80.558594 44.136719 80.683594 44.191406 L 80.664062 44.1875 C 80.75 44.214844 80.683594 44.234375 80.730469 44.269531 C 80.71875 44.269531 80.714844 44.277344 80.710938 44.277344 C 80.796875 44.300781 80.746094 44.386719 80.789062 44.40625 L 80.742188 44.421875 C 80.753906 44.445312 80.765625 44.472656 80.777344 44.496094 L 80.777344 44.464844 C 80.882812 44.4375 80.78125 44.503906 80.789062 44.550781 L 80.835938 44.777344 L 81.164062 44.75 C 81.175781 44.75 81.1875 44.742188 81.195312 44.722656 C 81.222656 44.722656 81.230469 44.648438 81.234375 44.582031 C 81.242188 44.511719 81.242188 44.449219 81.277344 44.472656 C 81.273438 44.40625 81.292969 44.578125 81.308594 44.519531 C 81.335938 44.585938 81.308594 44.566406 81.335938 44.617188 C 81.359375 44.574219 81.417969 44.660156 81.441406 44.597656 L 81.46875 44.648438 C 81.480469 44.535156 81.605469 44.660156 81.597656 44.554688 C 81.621094 44.484375 81.722656 44.671875 81.71875 44.542969 L 81.78125 44.589844 C 81.8125 44.582031 81.746094 44.503906 81.792969 44.511719 C 81.820312 44.550781 81.847656 44.515625 81.859375 44.5625 C 81.914062 44.570312 81.929688 44.523438 81.945312 44.480469 C 81.964844 44.4375 81.984375 44.398438 82.0625 44.402344 C 82.011719 44.328125 82.082031 44.324219 82.042969 44.269531 C 82.074219 44.292969 82.109375 44.199219 82.140625 44.292969 C 82.144531 44.304688 82.136719 44.308594 82.125 44.300781 L 82.164062 44.339844 C 82.28125 44.355469 82.183594 44.21875 82.226562 44.183594 C 82.203125 44.1875 82.195312 44.207031 82.171875 44.175781 C 82.183594 44.160156 82.195312 44.148438 82.207031 44.136719 L 82.238281 44.171875 L 82.304688 44.117188 L 82.25 44.097656 C 82.292969 44.078125 82.386719 44.113281 82.335938 44.035156 C 82.308594 43.996094 82.253906 44.03125 82.257812 43.988281 C 82.3125 43.960938 82.398438 43.914062 82.441406 43.855469 C 82.378906 43.839844 82.386719 43.824219 82.378906 43.800781 L 82.433594 43.820312 C 82.382812 43.726562 82.558594 43.832031 82.523438 43.742188 L 82.453125 43.707031 C 82.359375 43.621094 82.570312 43.699219 82.441406 43.597656 " fill-opacity="1" fill-rule="nonzero"/></svg>