<svg xmlns="http://www.w3.org/2000/svg" xmlns:xlink="http://www.w3.org/1999/xlink" width="200" zoomAndPan="magnify" viewBox="0 0 150 112.499997" height="150" preserveAspectRatio="xMidYMid meet" version="1.0"><defs><clipPath id="dce1849431"><path d="M 71 6.96875 L 80 6.96875 L 80 27 L 71 27 Z M 71 6.96875 " clip-rule="nonzero"/></clipPath></defs><g clip-path="url(#dce1849431)"><path fill="#58b835" d="M 75.167969 26.128906 C 75.167969 26.128906 77.898438 17.550781 71.757812 9.699219 L 78.625 6.96875 C 78.625 6.96875 80.628906 19.246094 77.21875 26.25 L 75.167969 26.128906 " fill-opacity="1" fill-rule="nonzero"/></g><path fill="#e62138" d="M 74.074219 25.152344 C 74.074219 25.152344 49.277344 22.71875 41.390625 36.695312 C 33.503906 50.667969 40.90625 69.574219 50.234375 82.839844 C 59.566406 96.105469 67.523438 102.375 76.324219 103.582031 C 85.121094 104.789062 93.800781 96.722656 102.734375 79.078125 C 111.667969 61.429688 116.257812 46.105469 110.058594 35.890625 C 103.859375 25.679688 89.460938 24.257812 74.074219 25.152344 " fill-opacity="1" fill-rule="nonzero"/><path fill="#4fa036" d="M 72.027344 22.941406 C 72.027344 22.941406 63.835938 16.457031 53.9375 17.820312 L 50.867188 17.632812 C 50.867188 17.632812 62.46875 25.671875 72.027344 22.941406 " fill-opacity="1" fill-rule="nonzero"/><path fill="#4fa036" d="M 77.96875 24.84375 C 77.96875 24.84375 74.199219 16.789062 66.777344 15.777344 L 64.667969 14.882812 C 64.667969 14.882812 70.359375 25.207031 77.96875 24.84375 " fill-opacity="1" fill-rule="nonzero"/><path fill="#4fa036" d="M 82.910156 22.601562 C 82.910156 22.601562 91.140625 18.199219 100.695312 20.570312 L 106.5 22.601562 C 106.5 22.601562 91.40625 26.355469 82.910156 22.601562 " fill-opacity="1" fill-rule="nonzero"/><path fill="#4fa036" d="M 76.425781 24.011719 C 76.425781 24.011719 81.195312 17.511719 89.371094 16.972656 L 94.539062 17.195312 C 94.539062 17.195312 84.269531 25.070312 76.425781 24.011719 " fill-opacity="1" fill-rule="nonzero"/><path fill="#58b835" d="M 63.152344 29.429688 C 63.152344 29.429688 57.007812 31.816406 54.960938 38.304688 C 52.914062 44.789062 54.960938 45.8125 54.960938 45.8125 C 54.960938 45.8125 64.859375 37.28125 68.273438 35.914062 C 71.683594 34.546875 75.484375 31.816406 75.484375 31.816406 C 75.484375 31.816406 80.558594 34.546875 84.65625 37.621094 C 88.75 40.695312 94.894531 43.765625 95.578125 45.8125 C 96.261719 47.863281 97.964844 42.402344 95.578125 37.621094 C 93.1875 32.839844 89.09375 29.429688 89.09375 29.429688 C 89.09375 29.429688 101.039062 31.816406 104.792969 35.914062 C 108.546875 40.011719 111.769531 39.601562 111.769531 39.601562 C 111.769531 39.601562 109.230469 27.941406 102.746094 24.929688 C 96.261719 21.917969 90.003906 20.132812 82.910156 22.601562 C 82.910156 22.601562 76.464844 24.648438 72.027344 22.941406 C 67.589844 21.234375 61.789062 20.617188 56.328125 21.4375 C 50.867188 22.257812 46.429688 24.308594 41.992188 28.746094 C 41.992188 28.746094 55.644531 26.015625 63.152344 29.429688 " fill-opacity="1" fill-rule="nonzero"/><path fill="#dd2529" d="M 102.734375 79.078125 C 108.425781 67.835938 112.339844 57.546875 112.839844 48.910156 C 112.316406 49.359375 112.417969 50.433594 111.769531 51.980469 C 108.207031 60.492188 105.476562 65.101562 100.695312 73.292969 C 95.917969 81.488281 86 84.402344 77.96875 84.386719 C 65.621094 84.367188 59.738281 82 50.867188 72.78125 C 43.816406 65.460938 38.410156 52.6875 38.140625 52.039062 C 38.71875 62.730469 44.039062 74.03125 50.234375 82.839844 C 59.566406 96.105469 67.523438 102.375 76.324219 103.582031 C 85.121094 104.789062 93.800781 96.722656 102.734375 79.078125 " fill-opacity="1" fill-rule="nonzero"/><path fill="#dd2529" d="M 88.410156 61.292969 C 88.410156 62.960938 87.753906 64.3125 86.945312 64.3125 C 86.136719 64.3125 85.484375 62.960938 85.484375 61.292969 C 85.484375 59.625 86.136719 58.273438 86.945312 58.273438 C 87.753906 58.273438 88.410156 59.625 88.410156 61.292969 " fill-opacity="1" fill-rule="nonzero"/><path fill="#f4d1b1" d="M 87.800781 60.546875 C 87.800781 61.613281 87.417969 62.476562 86.945312 62.476562 C 86.476562 62.476562 86.09375 61.613281 86.09375 60.546875 C 86.09375 59.480469 86.476562 58.617188 86.945312 58.617188 C 87.417969 58.617188 87.800781 59.480469 87.800781 60.546875 " fill-opacity="1" fill-rule="nonzero"/><path fill="#dd2529" d="M 97.589844 55.847656 C 97.957031 57.472656 97.621094 58.9375 96.832031 59.117188 C 96.046875 59.296875 95.105469 58.125 94.734375 56.5 C 94.363281 54.871094 94.703125 53.410156 95.492188 53.230469 C 96.277344 53.050781 97.21875 54.222656 97.589844 55.847656 " fill-opacity="1" fill-rule="nonzero"/><path fill="#f4d1b1" d="M 96.828125 55.253906 C 97.0625 56.292969 96.882812 57.222656 96.425781 57.328125 C 95.964844 57.429688 95.402344 56.671875 95.164062 55.632812 C 94.925781 54.59375 95.105469 53.667969 95.566406 53.5625 C 96.027344 53.457031 96.589844 54.214844 96.828125 55.253906 " fill-opacity="1" fill-rule="nonzero"/><path fill="#dd2529" d="M 75.371094 57.695312 C 75.242188 59.359375 74.488281 60.65625 73.679688 60.59375 C 72.875 60.53125 72.324219 59.132812 72.453125 57.46875 C 72.582031 55.808594 73.339844 54.511719 74.144531 54.570312 C 74.949219 54.632812 75.5 56.03125 75.371094 57.695312 " fill-opacity="1" fill-rule="nonzero"/><path fill="#f4d1b1" d="M 74.722656 56.789062 C 74.78125 57.855469 74.445312 58.738281 73.976562 58.765625 C 73.503906 58.789062 73.078125 57.945312 73.019531 56.882812 C 72.960938 55.816406 73.296875 54.933594 73.769531 54.910156 C 74.238281 54.882812 74.667969 55.726562 74.722656 56.789062 " fill-opacity="1" fill-rule="nonzero"/><path fill="#dd2529" d="M 64.910156 56.542969 C 64.488281 58.15625 63.515625 59.300781 62.730469 59.09375 C 61.949219 58.890625 61.65625 57.417969 62.078125 55.804688 C 62.5 54.191406 63.472656 53.046875 64.253906 53.25 C 65.039062 53.457031 65.332031 54.929688 64.910156 56.542969 " fill-opacity="1" fill-rule="nonzero"/><path fill="#f4d1b1" d="M 64.433594 55.539062 C 64.300781 56.59375 63.816406 57.40625 63.347656 57.347656 C 62.878906 57.289062 62.609375 56.382812 62.738281 55.324219 C 62.871094 54.269531 63.359375 53.457031 63.828125 53.515625 C 64.292969 53.574219 64.566406 54.480469 64.433594 55.539062 " fill-opacity="1" fill-rule="nonzero"/><path fill="#dd2529" d="M 55.429688 52.867188 C 55.011719 54.480469 54.035156 55.625 53.253906 55.421875 C 52.472656 55.214844 52.179688 53.742188 52.597656 52.128906 C 53.019531 50.515625 53.996094 49.371094 54.777344 49.578125 C 55.558594 49.78125 55.851562 51.253906 55.429688 52.867188 " fill-opacity="1" fill-rule="nonzero"/><path fill="#f4d1b1" d="M 54.953125 51.863281 C 54.820312 52.917969 54.335938 53.730469 53.871094 53.671875 C 53.402344 53.613281 53.128906 52.707031 53.261719 51.648438 C 53.394531 50.59375 53.878906 49.78125 54.347656 49.839844 C 54.816406 49.898438 55.085938 50.804688 54.953125 51.863281 " fill-opacity="1" fill-rule="nonzero"/><path fill="#dd2529" d="M 48.292969 43.253906 C 47.683594 44.804688 46.578125 45.820312 45.824219 45.527344 C 45.074219 45.230469 44.960938 43.730469 45.570312 42.179688 C 46.183594 40.628906 47.289062 39.609375 48.039062 39.90625 C 48.792969 40.203125 48.90625 41.703125 48.292969 43.253906 " fill-opacity="1" fill-rule="nonzero"/><path fill="#f4d1b1" d="M 47.941406 42.195312 C 47.683594 43.230469 47.105469 43.976562 46.648438 43.863281 C 46.191406 43.75 46.027344 42.816406 46.285156 41.785156 C 46.546875 40.75 47.125 40.003906 47.582031 40.117188 C 48.039062 40.230469 48.199219 41.164062 47.941406 42.195312 " fill-opacity="1" fill-rule="nonzero"/><path fill="#dd2529" d="M 42.996094 55.289062 C 42.765625 56.941406 41.933594 58.191406 41.132812 58.082031 C 40.332031 57.96875 39.867188 56.539062 40.097656 54.886719 C 40.324219 53.238281 41.160156 51.988281 41.960938 52.097656 C 42.761719 52.207031 43.226562 53.636719 42.996094 55.289062 " fill-opacity="1" fill-rule="nonzero"/><path fill="#f4d1b1" d="M 42.40625 54.347656 C 42.398438 55.414062 42.007812 56.273438 41.539062 56.273438 C 41.066406 56.269531 40.691406 55.402344 40.699219 54.335938 C 40.707031 53.269531 41.09375 52.40625 41.566406 52.410156 C 42.035156 52.414062 42.414062 53.28125 42.40625 54.347656 " fill-opacity="1" fill-rule="nonzero"/><path fill="#dd2529" d="M 49.492188 61.816406 C 49.265625 63.464844 48.429688 64.714844 47.628906 64.605469 C 46.828125 64.496094 46.367188 63.066406 46.59375 61.414062 C 46.824219 59.761719 47.65625 58.511719 48.457031 58.621094 C 49.257812 58.734375 49.722656 60.164062 49.492188 61.816406 " fill-opacity="1" fill-rule="nonzero"/><path fill="#f4d1b1" d="M 48.902344 60.871094 C 48.894531 61.9375 48.507812 62.796875 48.035156 62.796875 C 47.566406 62.792969 47.1875 61.925781 47.195312 60.859375 C 47.203125 59.792969 47.589844 58.933594 48.0625 58.933594 C 48.535156 58.9375 48.910156 59.804688 48.902344 60.871094 " fill-opacity="1" fill-rule="nonzero"/><path fill="#dd2529" d="M 59.050781 68.554688 C 58.824219 70.207031 57.988281 71.457031 57.1875 71.347656 C 56.386719 71.234375 55.921875 69.804688 56.152344 68.15625 C 56.378906 66.503906 57.214844 65.253906 58.015625 65.363281 C 58.816406 65.472656 59.28125 66.902344 59.050781 68.554688 " fill-opacity="1" fill-rule="nonzero"/><path fill="#f4d1b1" d="M 58.460938 67.613281 C 58.453125 68.679688 58.0625 69.542969 57.59375 69.539062 C 57.121094 69.535156 56.746094 68.667969 56.753906 67.601562 C 56.761719 66.535156 57.148438 65.671875 57.621094 65.675781 C 58.089844 65.679688 58.46875 66.546875 58.460938 67.613281 " fill-opacity="1" fill-rule="nonzero"/><path fill="#dd2529" d="M 71.429688 44.648438 C 71.199219 46.300781 70.367188 47.550781 69.566406 47.441406 C 68.765625 47.328125 68.300781 45.902344 68.53125 44.25 C 68.757812 42.597656 69.59375 41.347656 70.394531 41.457031 C 71.195312 41.566406 71.65625 42.996094 71.429688 44.648438 " fill-opacity="1" fill-rule="nonzero"/><path fill="#f4d1b1" d="M 70.835938 43.707031 C 70.828125 44.773438 70.441406 45.632812 69.96875 45.628906 C 69.5 45.628906 69.125 44.761719 69.128906 43.695312 C 69.140625 42.628906 69.527344 41.765625 69.996094 41.769531 C 70.46875 41.773438 70.84375 42.640625 70.835938 43.707031 " fill-opacity="1" fill-rule="nonzero"/><path fill="#dd2529" d="M 85.4375 46.28125 C 85.40625 47.949219 84.730469 49.289062 83.921875 49.277344 C 83.113281 49.261719 82.480469 47.898438 82.511719 46.230469 C 82.542969 44.5625 83.222656 43.222656 84.027344 43.238281 C 84.835938 43.25 85.46875 44.613281 85.4375 46.28125 " fill-opacity="1" fill-rule="nonzero"/><path fill="#f4d1b1" d="M 84.738281 45.417969 C 84.859375 46.476562 84.578125 47.378906 84.109375 47.429688 C 83.640625 47.484375 83.164062 46.667969 83.042969 45.609375 C 82.921875 44.550781 83.207031 43.648438 83.675781 43.59375 C 84.140625 43.542969 84.621094 44.359375 84.738281 45.417969 " fill-opacity="1" fill-rule="nonzero"/><path fill="#dd2529" d="M 102.476562 41.6875 C 102.824219 43.316406 102.464844 44.777344 101.671875 44.945312 C 100.882812 45.113281 99.960938 43.925781 99.613281 42.292969 C 99.269531 40.664062 99.628906 39.203125 100.421875 39.035156 C 101.210938 38.867188 102.132812 40.054688 102.476562 41.6875 " fill-opacity="1" fill-rule="nonzero"/><path fill="#f4d1b1" d="M 101.601562 41 C 101.957031 42.007812 101.886719 42.949219 101.441406 43.105469 C 100.996094 43.261719 100.347656 42.574219 99.992188 41.570312 C 99.636719 40.5625 99.710938 39.621094 100.15625 39.464844 C 100.597656 39.308594 101.246094 39.996094 101.601562 41 " fill-opacity="1" fill-rule="nonzero"/><path fill="#dd2529" d="M 107.898438 57.386719 C 107.753906 59.046875 106.984375 60.339844 106.179688 60.269531 C 105.375 60.199219 104.839844 58.796875 104.980469 57.132812 C 105.125 55.472656 105.894531 54.183594 106.699219 54.25 C 107.503906 54.320312 108.039062 55.722656 107.898438 57.386719 " fill-opacity="1" fill-rule="nonzero"/><path fill="#f4d1b1" d="M 107.257812 56.472656 C 107.304688 57.539062 106.964844 58.421875 106.492188 58.441406 C 106.023438 58.460938 105.601562 57.617188 105.554688 56.550781 C 105.503906 55.484375 105.847656 54.605469 106.320312 54.585938 C 106.789062 54.5625 107.210938 55.410156 107.257812 56.472656 " fill-opacity="1" fill-rule="nonzero"/><path fill="#dd2529" d="M 103.210938 67.449219 C 103.070312 69.113281 102.300781 70.402344 101.496094 70.335938 C 100.691406 70.265625 100.15625 68.859375 100.296875 67.199219 C 100.441406 65.539062 101.207031 64.246094 102.011719 64.316406 C 102.820312 64.386719 103.355469 65.789062 103.210938 67.449219 " fill-opacity="1" fill-rule="nonzero"/><path fill="#f4d1b1" d="M 102.574219 66.539062 C 102.621094 67.605469 102.28125 68.484375 101.808594 68.507812 C 101.335938 68.527344 100.917969 67.679688 100.871094 66.617188 C 100.820312 65.550781 101.164062 64.671875 101.636719 64.648438 C 102.105469 64.628906 102.527344 65.472656 102.574219 66.539062 " fill-opacity="1" fill-rule="nonzero"/><path fill="#dd2529" d="M 80.824219 69.070312 C 80.683594 70.734375 79.914062 72.023438 79.109375 71.957031 C 78.304688 71.886719 77.765625 70.484375 77.910156 68.820312 C 78.050781 67.160156 78.820312 65.867188 79.625 65.9375 C 80.429688 66.007812 80.96875 67.410156 80.824219 69.070312 " fill-opacity="1" fill-rule="nonzero"/><path fill="#f4d1b1" d="M 80.1875 68.160156 C 80.234375 69.226562 79.890625 70.105469 79.421875 70.128906 C 78.949219 70.148438 78.53125 69.300781 78.480469 68.238281 C 78.433594 67.171875 78.777344 66.292969 79.246094 66.269531 C 79.71875 66.25 80.136719 67.097656 80.1875 68.160156 " fill-opacity="1" fill-rule="nonzero"/><path fill="#dd2529" d="M 69.632812 72.460938 C 69.488281 74.121094 68.71875 75.410156 67.914062 75.34375 C 67.109375 75.273438 66.574219 73.871094 66.714844 72.210938 C 66.855469 70.546875 67.625 69.257812 68.433594 69.328125 C 69.238281 69.394531 69.773438 70.796875 69.632812 72.460938 " fill-opacity="1" fill-rule="nonzero"/><path fill="#f4d1b1" d="M 68.992188 71.546875 C 69.039062 72.613281 68.695312 73.496094 68.226562 73.515625 C 67.753906 73.535156 67.335938 72.691406 67.285156 71.625 C 67.238281 70.558594 67.582031 69.679688 68.050781 69.660156 C 68.523438 69.636719 68.945312 70.484375 68.992188 71.546875 " fill-opacity="1" fill-rule="nonzero"/><path fill="#dd2529" d="M 62.667969 80.460938 C 62.9375 82.105469 62.511719 83.546875 61.714844 83.675781 C 60.917969 83.808594 60.050781 82.582031 59.78125 80.933594 C 59.507812 79.289062 59.933594 77.847656 60.734375 77.71875 C 61.53125 77.585938 62.398438 78.816406 62.667969 80.460938 " fill-opacity="1" fill-rule="nonzero"/><path fill="#f4d1b1" d="M 61.824219 79.734375 C 62.132812 80.757812 62.015625 81.695312 61.566406 81.828125 C 61.117188 81.964844 60.5 81.25 60.191406 80.230469 C 59.882812 79.207031 59.996094 78.269531 60.449219 78.132812 C 60.898438 77.996094 61.515625 78.714844 61.824219 79.734375 " fill-opacity="1" fill-rule="nonzero"/><path fill="#dd2529" d="M 52.746094 73.972656 C 53.015625 75.617188 52.589844 77.058594 51.792969 77.1875 C 50.996094 77.320312 50.128906 76.09375 49.859375 74.445312 C 49.589844 72.800781 50.015625 71.359375 50.8125 71.230469 C 51.609375 71.097656 52.476562 72.324219 52.746094 73.972656 " fill-opacity="1" fill-rule="nonzero"/><path fill="#f4d1b1" d="M 51.902344 73.246094 C 52.210938 74.265625 52.097656 75.203125 51.644531 75.339844 C 51.195312 75.476562 50.578125 74.761719 50.269531 73.742188 C 49.960938 72.71875 50.078125 71.78125 50.527344 71.644531 C 50.980469 71.507812 51.59375 72.226562 51.902344 73.246094 " fill-opacity="1" fill-rule="nonzero"/><path fill="#dd2529" d="M 77.355469 82.304688 C 77.628906 83.953125 77.199219 85.394531 76.402344 85.523438 C 75.605469 85.65625 74.738281 84.425781 74.46875 82.78125 C 74.199219 81.136719 74.625 79.695312 75.421875 79.5625 C 76.21875 79.433594 77.085938 80.660156 77.355469 82.304688 " fill-opacity="1" fill-rule="nonzero"/><path fill="#f4d1b1" d="M 76.511719 81.582031 C 76.820312 82.601562 76.707031 83.539062 76.253906 83.675781 C 75.804688 83.8125 75.1875 83.097656 74.878906 82.074219 C 74.570312 81.054688 74.6875 80.117188 75.136719 79.980469 C 75.585938 79.84375 76.203125 80.558594 76.511719 81.582031 " fill-opacity="1" fill-rule="nonzero"/><path fill="#dd2529" d="M 93.414062 77.769531 C 93.34375 79.4375 92.636719 80.757812 91.828125 80.726562 C 91.019531 80.691406 90.421875 79.3125 90.492188 77.648438 C 90.5625 75.980469 91.273438 74.65625 92.082031 74.691406 C 92.886719 74.726562 93.484375 76.105469 93.414062 77.769531 " fill-opacity="1" fill-rule="nonzero"/><path fill="#f4d1b1" d="M 92.738281 76.886719 C 92.832031 77.949219 92.527344 78.84375 92.058594 78.886719 C 91.589844 78.925781 91.132812 78.101562 91.039062 77.039062 C 90.945312 75.976562 91.25 75.082031 91.71875 75.039062 C 92.1875 75 92.644531 75.824219 92.738281 76.886719 " fill-opacity="1" fill-rule="nonzero"/><path fill="#dd2529" d="M 86.945312 91.617188 C 86.875 93.285156 86.164062 94.609375 85.355469 94.574219 C 84.550781 94.539062 83.953125 93.164062 84.019531 91.496094 C 84.089844 89.828125 84.800781 88.507812 85.609375 88.539062 C 86.417969 88.574219 87.015625 89.953125 86.945312 91.617188 " fill-opacity="1" fill-rule="nonzero"/><path fill="#f4d1b1" d="M 86.265625 90.738281 C 86.359375 91.796875 86.058594 92.691406 85.585938 92.734375 C 85.117188 92.777344 84.660156 91.949219 84.566406 90.886719 C 84.472656 89.824219 84.777344 88.929688 85.246094 88.890625 C 85.714844 88.847656 86.171875 89.675781 86.265625 90.738281 " fill-opacity="1" fill-rule="nonzero"/><path fill="#dd2529" d="M 72.035156 92.710938 C 72.175781 94.375 71.640625 95.777344 70.835938 95.847656 C 70.03125 95.914062 69.261719 94.625 69.117188 92.960938 C 68.976562 91.300781 69.511719 89.898438 70.316406 89.828125 C 71.121094 89.757812 71.890625 91.050781 72.035156 92.710938 " fill-opacity="1" fill-rule="nonzero"/><path fill="#f4d1b1" d="M 71.25 91.925781 C 71.476562 92.964844 71.292969 93.890625 70.832031 93.992188 C 70.371094 94.09375 69.8125 93.332031 69.582031 92.289062 C 69.355469 91.25 69.539062 90.324219 70 90.222656 C 70.460938 90.121094 71.019531 90.882812 71.25 91.925781 " fill-opacity="1" fill-rule="nonzero"/><path fill="#4fa036" d="M 83.890625 35.230469 C 82.265625 33.011719 79.207031 28.746094 75.488281 29.855469 C 75.488281 29.855469 67.007812 36.179688 63.023438 39.296875 C 63.015625 39.304688 63.011719 39.308594 63.003906 39.316406 C 65.085938 37.753906 67.078125 36.394531 68.273438 35.914062 C 71.683594 34.546875 75.484375 31.816406 75.484375 31.816406 C 75.484375 31.816406 80.558594 34.546875 84.65625 37.621094 C 86.3125 38.867188 88.304688 40.109375 90.136719 41.285156 C 90.136719 41.285156 85.515625 37.449219 83.890625 35.230469 " fill-opacity="1" fill-rule="nonzero"/><path fill="#4fa036" d="M 89.09375 29.429688 L 93.871094 34.792969 C 91.625 31.5625 89.09375 29.429688 89.09375 29.429688 " fill-opacity="1" fill-rule="nonzero"/><path fill="#4fa036" d="M 111.769531 39.601562 C 111.769531 39.601562 111.757812 39.558594 111.753906 39.539062 C 109.441406 38.722656 106.601562 37.261719 105.730469 35.914062 C 104.445312 33.921875 101.890625 32.160156 97.710938 30.453125 C 93.53125 28.746094 89.09375 29.429688 89.09375 29.429688 C 89.09375 29.429688 101.039062 31.816406 104.792969 35.914062 C 108.546875 40.011719 111.769531 39.601562 111.769531 39.601562 " fill-opacity="1" fill-rule="nonzero"/><path fill="#4fa036" d="M 63.152344 29.429688 C 63.152344 29.429688 53.085938 23.199219 41.992188 28.746094 C 41.992188 28.746094 55.644531 26.015625 63.152344 29.429688 " fill-opacity="1" fill-rule="nonzero"/></svg>