<svg xmlns="http://www.w3.org/2000/svg" xmlns:xlink="http://www.w3.org/1999/xlink" width="200" zoomAndPan="magnify" viewBox="0 0 150 112.499997" height="150" preserveAspectRatio="xMidYMid meet" version="1.0"><defs><clipPath id="4e012c275e"><path d="M 39 41 L 96 41 L 96 100.800781 L 39 100.800781 Z M 39 41 " clip-rule="nonzero"/></clipPath><clipPath id="e0778f3ad0"><path d="M 69 23 L 124.464844 23 L 124.464844 77 L 69 77 Z M 69 23 " clip-rule="nonzero"/></clipPath></defs><path fill="#239e8c" d="M 61.183594 42.671875 C 59.582031 45.847656 60.597656 49.589844 63.460938 51.023438 C 65.300781 51.945312 67.453125 51.679688 69.1875 50.53125 L 72.355469 52.117188 L 61.890625 72.851562 L 50.035156 66.917969 L 51.558594 63.902344 C 53.628906 63.792969 55.515625 62.722656 56.441406 60.890625 C 57.878906 58.039062 56.457031 54.4375 53.265625 52.839844 C 50.078125 51.242188 46.324219 52.25 44.886719 55.101562 C 43.960938 56.9375 44.222656 59.085938 45.378906 60.808594 L 43.855469 63.820312 L 29.933594 56.847656 L 38.578125 39.71875 L 35.515625 38.1875 C 33.785156 39.335938 31.628906 39.597656 29.789062 38.675781 C 26.925781 37.242188 25.90625 33.503906 27.511719 30.324219 C 29.113281 27.148438 32.738281 25.730469 35.597656 27.164062 C 37.4375 28.085938 38.515625 29.96875 38.621094 32.035156 L 41.679688 33.570312 L 48.960938 19.140625 L 56.683594 23.007812 L 57.789062 20.824219 C 56.632812 19.101562 56.371094 16.953125 57.296875 15.117188 C 58.734375 12.269531 62.488281 11.253906 65.679688 12.851562 C 68.867188 14.449219 70.289062 18.054688 68.851562 20.90625 C 67.925781 22.742188 66.035156 23.8125 63.960938 23.917969 L 62.855469 26.101562 L 80.917969 35.148438 L 75.457031 45.96875 L 72.292969 44.382812 C 72.179688 42.3125 71.109375 40.433594 69.269531 39.511719 C 66.410156 38.078125 62.789062 39.496094 61.183594 42.671875 " fill-opacity="1" fill-rule="nonzero"/><g clip-path="url(#4e012c275e)"><path fill="#e77d67" d="M 71.109375 58.441406 C 72.890625 57.410156 75.050781 57.542969 76.855469 58.585938 L 79.917969 56.8125 L 73.8125 46.339844 L 62.394531 52.945312 L 60.769531 50.160156 C 61.808594 48.363281 61.933594 46.1875 60.886719 44.398438 C 59.265625 41.613281 55.449219 40.796875 52.355469 42.585938 C 49.269531 44.371094 48.078125 48.082031 49.703125 50.871094 C 50.746094 52.660156 52.707031 53.632812 54.792969 53.617188 L 56.417969 56.40625 L 42.882812 64.234375 L 51.019531 78.195312 L 48.058594 79.910156 C 46.265625 78.871094 44.09375 78.738281 42.3125 79.769531 C 39.542969 81.371094 38.75 85.160156 40.546875 88.242188 C 42.339844 91.316406 46.039062 92.515625 48.808594 90.910156 C 50.589844 89.882812 51.550781 87.9375 51.53125 85.867188 L 54.492188 84.152344 L 64.160156 100.730469 L 77.636719 92.929688 L 75.933594 90.015625 C 73.855469 90.035156 71.90625 89.078125 70.871094 87.304688 C 69.261719 84.546875 70.464844 80.863281 73.554688 79.078125 C 76.640625 77.292969 80.445312 78.074219 82.054688 80.832031 C 83.089844 82.609375 82.957031 84.769531 81.914062 86.554688 L 83.617188 89.472656 L 95.089844 82.832031 L 83.386719 62.765625 L 80.324219 64.539062 C 80.339844 66.613281 79.386719 68.550781 77.601562 69.582031 C 74.835938 71.183594 71.132812 69.988281 69.339844 66.914062 C 67.546875 63.839844 68.339844 60.042969 71.109375 58.441406 " fill-opacity="1" fill-rule="nonzero"/></g><g clip-path="url(#e0778f3ad0)"><path fill="#f4c84b" d="M 112.960938 46.332031 C 114.714844 47.101562 115.738281 48.957031 115.828125 51.105469 L 118.707031 52.371094 L 124.460938 39.367188 L 104.632812 30.660156 L 103.09375 34.136719 C 104.191406 35.824219 104.429688 38.039062 103.535156 40.058594 C 102.148438 43.195312 98.558594 44.65625 95.519531 43.324219 C 92.476562 41.988281 91.140625 38.363281 92.527344 35.226562 C 93.421875 33.207031 95.230469 31.886719 97.214844 31.554688 L 98.753906 28.078125 L 88.40625 23.53125 L 83.921875 33.667969 L 80.902344 32.339844 C 80.625 30.4375 79.410156 28.714844 77.527344 27.886719 C 74.597656 26.601562 71.160156 27.945312 69.851562 30.90625 C 68.542969 33.859375 69.859375 37.300781 72.789062 38.589844 C 74.675781 39.414062 76.769531 39.148438 78.371094 38.0625 L 81.390625 39.386719 L 72.894531 58.585938 L 84.132812 63.519531 L 83.382812 65.210938 C 81.335938 65.386719 79.53125 66.492188 78.730469 68.304688 C 77.484375 71.117188 79.125 74.5625 82.394531 76 C 85.660156 77.433594 89.320312 76.3125 90.566406 73.5 C 91.367188 71.691406 90.96875 69.617188 89.710938 67.988281 L 90.460938 66.296875 L 108.953125 74.417969 L 115.710938 59.148438 L 112.828125 57.882812 C 111.171875 59.273438 109.109375 59.773438 107.355469 59.003906 C 104.628906 57.804688 103.683594 54 105.230469 50.5 C 106.777344 47.003906 110.234375 45.136719 112.960938 46.332031 " fill-opacity="1" fill-rule="nonzero"/></g></svg>