<svg xmlns="http://www.w3.org/2000/svg" xmlns:xlink="http://www.w3.org/1999/xlink" width="300" zoomAndPan="magnify" viewBox="0 0 224.87999 225" height="300" preserveAspectRatio="xMidYMid meet" version="1.0"><defs><clipPath id="124a71114e"><path d="M 43.101562 23 L 181.777344 23 L 181.777344 202 L 43.101562 202 Z M 43.101562 23 " clip-rule="nonzero"/></clipPath><clipPath id="3df90182d4"><path d="M 43.101562 22.546875 L 181.777344 22.546875 L 181.777344 202.453125 L 43.101562 202.453125 Z M 43.101562 22.546875 " clip-rule="nonzero"/></clipPath><clipPath id="6946745694"><path d="M 43.101562 31 L 168 31 L 168 202 L 43.101562 202 Z M 43.101562 31 " clip-rule="nonzero"/></clipPath><clipPath id="e6cd6b1985"><path d="M 43.101562 30 L 168 30 L 168 202.453125 L 43.101562 202.453125 Z M 43.101562 30 " clip-rule="nonzero"/></clipPath><clipPath id="af485c8373"><path d="M 47 23 L 181.777344 23 L 181.777344 130 L 47 130 Z M 47 23 " clip-rule="nonzero"/></clipPath><clipPath id="68d3942bda"><path d="M 46 22.546875 L 181.777344 22.546875 L 181.777344 130 L 46 130 Z M 46 22.546875 " clip-rule="nonzero"/></clipPath></defs><g clip-path="url(#124a71114e)"><path fill="#000000" d="M 181.042969 77.75 C 180.75 47.40625 155.566406 23.171875 125.21875 23.171875 L 63.699219 23.171875 C 62.480469 23.171875 61.34375 23.527344 60.382812 24.132812 L 60.378906 24.128906 L 47.1875 32.175781 C 46.875 32.332031 46.582031 32.511719 46.300781 32.714844 L 46.285156 32.726562 C 44.742188 33.863281 43.730469 35.691406 43.730469 37.757812 L 43.730469 195.578125 C 43.730469 199.027344 46.527344 201.820312 49.976562 201.820312 L 74.320312 201.820312 C 75.535156 201.820312 76.667969 201.46875 77.628906 200.867188 L 77.628906 200.871094 L 90.992188 192.742188 L 90.988281 192.742188 C 92.953125 191.6875 94.285156 189.621094 94.285156 187.238281 L 94.285156 141.757812 L 112.203125 141.757812 C 125.53125 141.757812 137.769531 137 147.3125 129.097656 C 167.273438 120.664062 181.269531 100.796875 181.042969 77.75 Z M 125.925781 96.585938 L 100.53125 96.585938 C 97.082031 96.585938 94.285156 93.789062 94.285156 90.339844 L 94.285156 68.34375 L 111.8125 68.34375 C 121.765625 68.34375 130.191406 76.132812 130.484375 86.082031 C 130.597656 89.921875 129.519531 93.511719 127.59375 96.507812 C 127.042969 96.554688 126.488281 96.585938 125.925781 96.585938 Z M 125.925781 96.585938 " fill-opacity="1" fill-rule="nonzero"/></g><g clip-path="url(#3df90182d4)"><path fill="#000000" d="M 74.320312 202.445312 L 49.976562 202.445312 C 46.1875 202.445312 43.109375 199.363281 43.109375 195.578125 L 43.109375 37.757812 C 43.109375 35.601562 44.140625 33.546875 45.878906 32.253906 C 45.902344 32.230469 45.925781 32.214844 45.953125 32.195312 C 46.25 31.984375 46.5625 31.792969 46.886719 31.628906 L 60.054688 23.59375 C 60.078125 23.582031 60.097656 23.570312 60.121094 23.558594 C 61.203125 22.898438 62.4375 22.546875 63.699219 22.546875 L 125.21875 22.546875 C 140.105469 22.546875 154.175781 28.261719 164.835938 38.632812 C 175.546875 49.054688 181.523438 62.945312 181.667969 77.746094 C 181.777344 89.015625 178.527344 99.910156 172.265625 109.25 C 166.179688 118.332031 157.664062 125.382812 147.640625 129.636719 C 137.683594 137.855469 125.101562 142.382812 112.203125 142.382812 L 94.910156 142.382812 L 94.910156 187.238281 C 94.910156 189.761719 93.535156 192.070312 91.316406 193.277344 L 77.953125 201.402344 C 77.9375 201.414062 77.921875 201.421875 77.90625 201.429688 C 76.824219 202.09375 75.585938 202.445312 74.320312 202.445312 Z M 46.667969 33.222656 C 46.664062 33.222656 46.660156 33.226562 46.65625 33.230469 C 45.195312 34.304688 44.355469 35.953125 44.355469 37.757812 L 44.355469 195.578125 C 44.355469 198.675781 46.878906 201.199219 49.976562 201.199219 L 74.320312 201.199219 C 75.371094 201.199219 76.398438 200.898438 77.296875 200.335938 C 77.316406 200.324219 77.335938 200.316406 77.355469 200.304688 L 90.640625 192.226562 C 90.65625 192.214844 90.675781 192.203125 90.695312 192.191406 C 92.523438 191.210938 93.660156 189.3125 93.660156 187.238281 L 93.660156 141.757812 C 93.660156 141.414062 93.941406 141.132812 94.285156 141.132812 L 112.203125 141.132812 C 124.84375 141.132812 137.167969 136.6875 146.914062 128.617188 C 146.960938 128.578125 147.011719 128.546875 147.070312 128.523438 C 167.542969 119.871094 180.636719 99.941406 180.417969 77.757812 C 180.128906 48.003906 155.367188 23.796875 125.21875 23.796875 L 63.699219 23.796875 C 62.644531 23.796875 61.613281 24.097656 60.714844 24.660156 C 60.6875 24.675781 60.664062 24.691406 60.636719 24.703125 L 47.511719 32.707031 C 47.5 32.71875 47.484375 32.726562 47.46875 32.734375 C 47.191406 32.871094 46.921875 33.035156 46.667969 33.21875 C 46.667969 33.222656 46.667969 33.222656 46.667969 33.222656 Z M 125.925781 97.210938 L 100.53125 97.210938 C 96.742188 97.210938 93.660156 94.128906 93.660156 90.339844 L 93.660156 68.34375 C 93.660156 68 93.941406 67.71875 94.285156 67.71875 L 111.8125 67.71875 C 116.8125 67.71875 121.566406 69.605469 125.199219 73.027344 C 128.863281 76.480469 130.960938 81.109375 131.109375 86.0625 C 131.222656 89.898438 130.1875 93.625 128.117188 96.84375 C 128.015625 97.003906 127.839844 97.109375 127.648438 97.128906 C 127.039062 97.183594 126.472656 97.210938 125.925781 97.210938 Z M 94.910156 68.96875 L 94.910156 90.339844 C 94.910156 93.441406 97.433594 95.960938 100.53125 95.960938 L 125.925781 95.960938 C 126.34375 95.960938 126.773438 95.945312 127.230469 95.910156 C 129.054688 92.964844 129.964844 89.578125 129.859375 86.101562 C 129.578125 76.652344 121.484375 68.96875 111.8125 68.96875 Z M 94.910156 68.96875 " fill-opacity="1" fill-rule="nonzero"/></g><g clip-path="url(#6946745694)"><path fill="#ffffff" d="M 43.730469 195.578125 L 43.730469 37.757812 C 43.730469 34.308594 46.527344 31.511719 49.976562 31.511719 L 111.5 31.511719 C 141.847656 31.511719 167.027344 55.742188 167.324219 86.089844 C 167.621094 116.734375 142.777344 141.757812 112.203125 141.757812 L 80.566406 141.757812 L 80.566406 195.578125 C 80.566406 199.027344 77.769531 201.820312 74.320312 201.820312 L 49.976562 201.820312 C 46.527344 201.820312 43.730469 199.027344 43.730469 195.578125 Z M 112.203125 104.925781 C 122.472656 104.925781 130.792969 96.417969 130.484375 86.082031 C 130.1875 76.132812 121.765625 68.34375 111.8125 68.34375 L 86.808594 68.34375 C 83.359375 68.34375 80.566406 71.140625 80.566406 74.589844 L 80.566406 98.679688 C 80.566406 102.128906 83.359375 104.925781 86.808594 104.925781 Z M 112.203125 104.925781 " fill-opacity="1" fill-rule="nonzero"/></g><g clip-path="url(#e6cd6b1985)"><path fill="#000000" d="M 74.320312 202.445312 L 49.976562 202.445312 C 46.1875 202.445312 43.109375 199.363281 43.109375 195.578125 L 43.109375 37.757812 C 43.109375 33.96875 46.1875 30.886719 49.976562 30.886719 L 111.5 30.886719 C 126.382812 30.886719 140.453125 36.601562 151.117188 46.972656 C 161.824219 57.394531 167.804688 71.28125 167.949219 86.085938 C 168.09375 101.058594 162.355469 115.179688 151.796875 125.839844 C 141.234375 136.507812 127.171875 142.382812 112.203125 142.382812 L 81.191406 142.382812 L 81.191406 195.578125 C 81.191406 199.363281 78.109375 202.445312 74.320312 202.445312 Z M 49.976562 32.136719 C 46.878906 32.136719 44.355469 34.65625 44.355469 37.757812 L 44.355469 195.578125 C 44.355469 198.675781 46.878906 201.199219 49.976562 201.199219 L 74.320312 201.199219 C 77.417969 201.199219 79.941406 198.675781 79.941406 195.578125 L 79.941406 141.757812 C 79.941406 141.414062 80.21875 141.132812 80.566406 141.132812 L 112.203125 141.132812 C 126.835938 141.132812 140.582031 135.390625 150.910156 124.960938 C 161.234375 114.539062 166.839844 100.734375 166.699219 86.097656 C 166.410156 56.34375 141.648438 32.136719 111.5 32.136719 Z M 112.203125 105.550781 L 86.808594 105.550781 C 83.023438 105.550781 79.941406 102.46875 79.941406 98.679688 L 79.941406 74.589844 C 79.941406 70.800781 83.023438 67.71875 86.808594 67.71875 L 111.8125 67.71875 C 116.8125 67.71875 121.566406 69.605469 125.199219 73.027344 C 128.863281 76.480469 130.960938 81.109375 131.109375 86.0625 C 131.261719 91.21875 129.367188 96.097656 125.769531 99.800781 C 122.171875 103.507812 117.355469 105.550781 112.203125 105.550781 Z M 86.808594 68.96875 C 83.710938 68.96875 81.191406 71.492188 81.191406 74.589844 L 81.191406 98.679688 C 81.191406 101.777344 83.710938 104.300781 86.808594 104.300781 L 112.203125 104.300781 C 117.011719 104.300781 121.515625 102.394531 124.875 98.933594 C 128.234375 95.472656 130.003906 90.914062 129.859375 86.101562 C 129.578125 76.652344 121.484375 68.96875 111.8125 68.96875 Z M 86.808594 68.96875 " fill-opacity="1" fill-rule="nonzero"/></g><path fill="#c2b092" d="M 80.566406 195.578125 C 80.566406 197.808594 79.390625 199.761719 77.628906 200.867188 L 77.628906 200.871094 L 90.992188 192.742188 L 90.988281 192.742188 C 92.953125 191.6875 94.285156 189.621094 94.285156 187.238281 L 94.285156 141.757812 L 80.566406 141.757812 Z M 80.566406 195.578125 " fill-opacity="1" fill-rule="nonzero"/><path fill="#000000" d="M 77.628906 201.492188 C 77.570312 201.492188 77.511719 201.484375 77.457031 201.46875 C 77.289062 201.421875 77.148438 201.304688 77.070312 201.148438 C 76.925781 200.859375 77.023438 200.507812 77.296875 200.339844 C 78.953125 199.300781 79.941406 197.519531 79.941406 195.578125 L 79.941406 141.757812 C 79.941406 141.414062 80.21875 141.132812 80.566406 141.132812 L 94.285156 141.132812 C 94.628906 141.132812 94.910156 141.414062 94.910156 141.757812 L 94.910156 187.238281 C 94.910156 189.761719 93.535156 192.070312 91.316406 193.277344 L 77.953125 201.402344 C 77.855469 201.464844 77.742188 201.492188 77.628906 201.492188 Z M 81.191406 142.382812 L 81.191406 195.578125 C 81.191406 196.539062 80.992188 197.46875 80.621094 198.320312 L 90.640625 192.226562 C 90.65625 192.214844 90.675781 192.203125 90.695312 192.191406 C 92.523438 191.210938 93.660156 189.3125 93.660156 187.238281 L 93.660156 142.382812 Z M 81.191406 142.382812 " fill-opacity="1" fill-rule="nonzero"/><g clip-path="url(#af485c8373)"><path fill="#c2b092" d="M 181.042969 77.75 C 180.75 47.40625 155.566406 23.171875 125.21875 23.171875 L 63.699219 23.171875 C 62.480469 23.171875 61.34375 23.527344 60.382812 24.132812 L 60.378906 24.128906 L 47.1875 32.175781 C 48.027344 31.753906 48.972656 31.511719 49.976562 31.511719 L 111.5 31.511719 C 141.847656 31.511719 167.027344 55.742188 167.324219 86.089844 C 167.492188 103.375 159.660156 118.871094 147.3125 129.097656 C 167.273438 120.664062 181.269531 100.796875 181.042969 77.75 Z M 181.042969 77.75 " fill-opacity="1" fill-rule="nonzero"/></g><g clip-path="url(#68d3942bda)"><path fill="#000000" d="M 147.3125 129.722656 C 147.101562 129.722656 146.894531 129.613281 146.777344 129.421875 C 146.617188 129.15625 146.675781 128.8125 146.914062 128.617188 C 159.648438 118.070312 166.859375 102.570312 166.699219 86.097656 C 166.410156 56.34375 141.648438 32.136719 111.5 32.136719 L 49.976562 32.136719 C 49.105469 32.136719 48.257812 32.335938 47.46875 32.734375 C 47.167969 32.882812 46.804688 32.769531 46.640625 32.476562 C 46.480469 32.183594 46.578125 31.816406 46.863281 31.640625 L 60.054688 23.59375 C 60.078125 23.582031 60.097656 23.570312 60.121094 23.558594 C 61.203125 22.898438 62.4375 22.546875 63.699219 22.546875 L 125.21875 22.546875 C 140.105469 22.546875 154.175781 28.261719 164.835938 38.632812 C 175.546875 49.054688 181.523438 62.945312 181.667969 77.746094 C 181.777344 89.015625 178.527344 99.910156 172.265625 109.25 C 166.160156 118.359375 157.617188 125.421875 147.554688 129.671875 C 147.476562 129.707031 147.394531 129.722656 147.3125 129.722656 Z M 50.5 30.886719 L 111.5 30.886719 C 126.382812 30.886719 140.453125 36.601562 151.117188 46.972656 C 161.824219 57.394531 167.804688 71.28125 167.949219 86.085938 C 168.097656 101.511719 161.929688 116.097656 150.898438 126.730469 C 169.160156 117.316406 180.621094 98.527344 180.417969 77.757812 C 180.128906 48.003906 155.367188 23.796875 125.21875 23.796875 L 63.699219 23.796875 C 62.644531 23.796875 61.613281 24.097656 60.714844 24.660156 C 60.6875 24.675781 60.664062 24.691406 60.636719 24.703125 Z M 50.5 30.886719 " fill-opacity="1" fill-rule="nonzero"/></g><path fill="#c2b092" d="M 94.285156 90.339844 L 94.285156 68.34375 L 86.808594 68.34375 C 83.359375 68.34375 80.566406 71.140625 80.566406 74.589844 L 80.566406 98.679688 C 80.566406 100.34375 81.21875 101.851562 82.277344 102.96875 L 95.9375 94.558594 C 94.914062 93.449219 94.285156 91.96875 94.285156 90.339844 Z M 94.285156 90.339844 " fill-opacity="1" fill-rule="nonzero"/><path fill="#000000" d="M 82.28125 103.59375 C 82.113281 103.59375 81.945312 103.527344 81.824219 103.398438 C 80.609375 102.113281 79.941406 100.4375 79.941406 98.679688 L 79.941406 74.589844 C 79.941406 70.800781 83.023438 67.71875 86.808594 67.71875 L 94.285156 67.71875 C 94.628906 67.71875 94.910156 68 94.910156 68.34375 L 94.910156 90.339844 C 94.910156 91.746094 95.4375 93.09375 96.394531 94.136719 C 96.523438 94.273438 96.578125 94.460938 96.554688 94.644531 C 96.527344 94.828125 96.421875 94.992188 96.261719 95.089844 L 82.605469 103.5 C 82.503906 103.5625 82.390625 103.59375 82.28125 103.59375 Z M 86.808594 68.96875 C 83.710938 68.96875 81.191406 71.492188 81.191406 74.589844 L 81.191406 98.679688 C 81.191406 99.949219 81.617188 101.167969 82.402344 102.160156 L 95 94.402344 C 94.132812 93.226562 93.660156 91.808594 93.660156 90.339844 L 93.660156 68.96875 Z M 86.808594 68.96875 " fill-opacity="1" fill-rule="nonzero"/><path fill="#c2b092" d="M 125.925781 96.585938 L 100.53125 96.585938 C 98.710938 96.585938 97.078125 95.800781 95.9375 94.558594 L 82.277344 102.96875 C 83.417969 104.171875 85.023438 104.925781 86.808594 104.925781 L 112.203125 104.925781 C 118.65625 104.925781 124.335938 101.566406 127.59375 96.503906 C 127.042969 96.554688 126.488281 96.585938 125.925781 96.585938 Z M 125.925781 96.585938 " fill-opacity="1" fill-rule="nonzero"/><path fill="#000000" d="M 112.203125 105.550781 L 86.808594 105.550781 C 84.910156 105.550781 83.140625 104.785156 81.824219 103.398438 C 81.695312 103.261719 81.636719 103.074219 81.660156 102.886719 C 81.683594 102.699219 81.792969 102.535156 81.953125 102.4375 L 95.609375 94.027344 C 95.863281 93.871094 96.195312 93.917969 96.394531 94.136719 C 97.460938 95.296875 98.96875 95.960938 100.53125 95.960938 L 125.925781 95.960938 C 126.4375 95.960938 126.964844 95.9375 127.535156 95.882812 C 127.773438 95.863281 128.003906 95.976562 128.125 96.183594 C 128.25 96.386719 128.246094 96.644531 128.117188 96.84375 C 124.609375 102.296875 118.660156 105.550781 112.203125 105.550781 Z M 83.308594 103.070312 C 84.296875 103.867188 85.519531 104.300781 86.808594 104.300781 L 112.203125 104.300781 C 117.8125 104.300781 123.011719 101.671875 126.347656 97.203125 C 126.203125 97.207031 126.0625 97.210938 125.925781 97.210938 L 100.53125 97.210938 C 98.792969 97.210938 97.109375 96.539062 95.839844 95.351562 Z M 83.308594 103.070312 " fill-opacity="1" fill-rule="nonzero"/></svg>