<svg xmlns="http://www.w3.org/2000/svg" xmlns:xlink="http://www.w3.org/1999/xlink" width="200" zoomAndPan="magnify" viewBox="0 0 150 112.499997" height="150" preserveAspectRatio="xMidYMid meet" version="1.0"><defs><clipPath id="38555d7f75"><path d="M 67 51 L 105 51 L 105 100.800781 L 67 100.800781 Z M 67 51 " clip-rule="nonzero"/></clipPath><clipPath id="fce086feae"><path d="M 67 53 L 105 53 L 105 100.800781 L 67 100.800781 Z M 67 53 " clip-rule="nonzero"/></clipPath><clipPath id="36e757836e"><path d="M 58 11.199219 L 74 11.199219 L 74 31 L 58 31 Z M 58 11.199219 " clip-rule="nonzero"/></clipPath><clipPath id="fe515a0fbd"><path d="M 46.878906 22.664062 L 108.417969 22.664062 L 108.417969 64.925781 L 46.878906 64.925781 Z M 46.878906 22.664062 " clip-rule="nonzero"/></clipPath><clipPath id="84bb424dc5"><path d="M 46.878906 33.074219 L 108.417969 33.074219 L 108.417969 64.925781 L 46.878906 64.925781 Z M 46.878906 33.074219 " clip-rule="nonzero"/></clipPath><clipPath id="d9b9fbf7d5"><path d="M 43 68 L 105 68 L 105 100.800781 L 43 100.800781 Z M 43 68 " clip-rule="nonzero"/></clipPath><clipPath id="d8ecb66533"><path d="M 73 80 L 81 80 L 81 100.800781 L 73 100.800781 Z M 73 80 " clip-rule="nonzero"/></clipPath><clipPath id="efde030d95"><path d="M 87 90 L 94 90 L 94 100.800781 L 87 100.800781 Z M 87 90 " clip-rule="nonzero"/></clipPath></defs><g clip-path="url(#38555d7f75)"><path fill="#b3b3b3" d="M 91.832031 54.085938 C 93.777344 60.0625 97.386719 65.074219 100.242188 70.535156 C 103.097656 75.996094 105.265625 82.519531 103.867188 88.699219 C 102.828125 93.285156 99.773438 97.1875 95.941406 98.820312 C 93.722656 99.765625 91.324219 99.972656 88.960938 100.035156 C 84.351562 100.160156 79.726562 99.757812 75.183594 98.839844 C 73.488281 98.5 71.710938 98.027344 70.46875 96.652344 C 69.101562 95.136719 68.65625 92.839844 68.351562 90.675781 C 66.527344 77.738281 67.320312 64.3125 70.652344 51.789062 L 91.832031 54.085938 " fill-opacity="1" fill-rule="nonzero"/></g><g clip-path="url(#fce086feae)"><path fill="#a1a1a1" d="M 100.242188 70.535156 C 97.386719 65.074219 93.777344 60.0625 91.832031 54.085938 L 89.574219 53.839844 C 91.5625 59.527344 95.007812 64.367188 97.757812 69.625 C 100.019531 73.953125 103.664062 81.332031 100.507812 86.023438 C 99.886719 86.945312 98.777344 88.117188 97.878906 88.777344 C 94.457031 91.285156 89.339844 90.691406 85.402344 90.140625 C 80.273438 89.421875 68.449219 85.777344 67.167969 93.46875 C 66.390625 98.136719 70.9375 97.964844 73.882812 98.539062 C 78.894531 99.519531 83.839844 100.171875 88.960938 100.035156 C 91.324219 99.972656 93.722656 99.765625 95.941406 98.820312 C 99.773438 97.1875 102.828125 93.285156 103.867188 88.699219 C 105.265625 82.519531 103.097656 75.996094 100.242188 70.535156 " fill-opacity="1" fill-rule="nonzero"/></g><g clip-path="url(#36e757836e)"><path fill="#d9d9d9" d="M 58.25 30.800781 C 57.929688 25.039062 58.671875 19.214844 60.429688 13.714844 C 60.761719 12.667969 61.316406 11.46875 62.398438 11.285156 C 62.898438 11.199219 63.414062 11.367188 63.871094 11.585938 C 65.53125 12.382812 66.761719 13.851562 67.84375 15.34375 C 70.253906 18.671875 72.199219 22.34375 73.601562 26.214844 L 58.25 30.800781 " fill-opacity="1" fill-rule="nonzero"/></g><path fill="#000000" d="M 61.625 27.164062 C 61.574219 25.226562 61.734375 23.28125 62.09375 21.375 C 62.3125 20.214844 63.105469 17.628906 64.675781 18.835938 C 66.402344 20.152344 67.707031 23.085938 68.542969 25.03125 L 61.625 27.164062 " fill-opacity="1" fill-rule="nonzero"/><path fill="#d9d9d9" d="M 100.855469 36.453125 C 102.785156 31.011719 103.714844 25.21875 103.578125 19.445312 C 103.550781 18.34375 103.359375 17.035156 102.375 16.554688 C 101.914062 16.328125 101.375 16.34375 100.871094 16.421875 C 99.058594 16.714844 97.464844 17.773438 96.007812 18.898438 C 92.753906 21.40625 89.855469 24.375 87.421875 27.6875 L 100.855469 36.453125 " fill-opacity="1" fill-rule="nonzero"/><path fill="#000000" d="M 98.644531 32.003906 C 99.234375 30.160156 99.632812 28.25 99.824219 26.316406 C 99.9375 25.144531 99.90625 22.4375 98.0625 23.144531 C 96.035156 23.921875 93.957031 26.363281 92.605469 27.988281 L 98.644531 32.003906 " fill-opacity="1" fill-rule="nonzero"/><path fill="#f2f2f2" d="M 98.753906 51.707031 C 101.878906 46.074219 97.035156 39.816406 91.972656 37.558594 C 90.058594 36.707031 87.878906 36.394531 85.84375 36.980469 C 84.601562 37.339844 83.449219 38 82.472656 38.839844 C 80.257812 40.75 78.890625 43.582031 78.179688 46.382812 C 77.695312 48.285156 77.394531 50.234375 76.957031 52.148438 C 76.875 52.519531 76.871094 52.707031 76.433594 52.769531 C 75.339844 52.925781 75.78125 51.824219 75.882812 51.144531 C 76.003906 50.359375 76.125 49.574219 76.230469 48.789062 C 76.457031 47.109375 76.632812 45.417969 76.625 43.722656 C 76.605469 40.554688 75.875 37.132812 73.15625 35.1875 C 70.777344 33.488281 67.738281 32.6875 64.832031 33.097656 C 61.644531 33.542969 58.480469 35.265625 56.609375 37.9375 C 55.402344 39.660156 54.425781 41.339844 54.238281 43.527344 C 54.113281 45.042969 54.804688 46.496094 55.484375 47.773438 C 56.820312 50.273438 58.664062 51.90625 61.097656 53.378906 C 62.550781 54.257812 64.195312 55.570312 65.175781 56.960938 C 66.410156 58.71875 67.347656 60.710938 68.84375 62.289062 C 70.679688 64.226562 73.347656 65.109375 75.976562 64.792969 C 77.28125 64.636719 78.546875 64.199219 79.679688 63.53125 C 81 62.746094 81.878906 61.539062 83.101562 60.648438 C 84.039062 59.964844 85.09375 59.390625 86.117188 58.847656 C 89.238281 57.199219 92.851562 56.5625 95.859375 54.742188 C 97.085938 54 98.074219 52.933594 98.753906 51.707031 " fill-opacity="1" fill-rule="nonzero"/><g clip-path="url(#fe515a0fbd)"><path fill="#b3b3b3" d="M 108.417969 51.039062 C 107.550781 51.167969 106.875 51.273438 105.976562 51.054688 C 107.125 50.222656 107.640625 48.667969 107.949219 47.347656 C 107.460938 47.9375 106.4375 48.191406 105.542969 48.363281 C 105.679688 47.230469 105.699219 46.023438 105.585938 44.742188 C 105.042969 38.503906 101.28125 33.042969 96.375 29.386719 C 95.785156 28.949219 95.179688 28.535156 94.558594 28.144531 C 87.253906 23.542969 77.953125 21.847656 69.460938 23.105469 C 65.3125 23.71875 61.222656 25.097656 57.746094 27.488281 C 56.0625 28.648438 54.539062 30.042969 53.261719 31.644531 C 52.90625 32.09375 50.085938 36.71875 50.574219 36.933594 C 49.957031 36.660156 48.941406 35.792969 48.539062 35.242188 C 48.476562 36.964844 48.464844 38.628906 48.984375 40.289062 C 48.167969 40.128906 47.558594 39.578125 47.0625 38.957031 C 46.699219 40.359375 47.402344 42.746094 47.894531 44.070312 C 48.566406 45.890625 49.71875 47.886719 50.851562 49.457031 C 52.0625 51.132812 53.703125 52.460938 55.484375 53.484375 C 58.773438 55.375 62.339844 57.011719 66.058594 58.3125 C 66.914062 59.6875 67.722656 61.105469 68.84375 62.289062 C 70.679688 64.226562 73.347656 65.109375 75.976562 64.792969 C 77.28125 64.636719 78.546875 64.199219 79.679688 63.53125 C 80.585938 62.992188 81.285156 62.257812 82.027344 61.5625 C 84.765625 61.710938 87.492188 61.636719 90.164062 61.308594 C 94.777344 60.746094 99.554688 58.488281 103.488281 56.074219 C 104.433594 55.492188 105.34375 54.855469 106.191406 54.140625 C 106.980469 53.476562 108.246094 52.085938 108.417969 51.039062 " fill-opacity="1" fill-rule="nonzero"/></g><path fill="#8a8a8a" d="M 68.347656 26.96875 C 68.257812 27.261719 68.25 27.585938 68.351562 27.878906 C 68.421875 28.074219 68.601562 28.21875 68.816406 28.164062 C 69.003906 28.121094 69.171875 27.898438 69.101562 27.699219 C 69.035156 27.503906 69.03125 27.371094 69.082031 27.195312 C 69.144531 26.992188 69.027344 26.769531 68.828125 26.710938 C 68.628906 26.648438 68.40625 26.765625 68.347656 26.96875 " fill-opacity="1" fill-rule="nonzero"/><path fill="#8a8a8a" d="M 71.949219 25.496094 C 71.75 25.90625 71.625 26.316406 71.570312 26.769531 C 71.546875 26.980469 71.75 27.164062 71.945312 27.167969 C 72.171875 27.175781 72.316406 27 72.34375 26.792969 C 72.378906 26.488281 72.464844 26.1875 72.597656 25.914062 C 72.6875 25.726562 72.667969 25.5 72.480469 25.378906 C 72.320312 25.277344 72.039062 25.308594 71.949219 25.496094 " fill-opacity="1" fill-rule="nonzero"/><path fill="#8a8a8a" d="M 71.101562 30.363281 C 71.152344 30.484375 71.160156 30.683594 71.132812 30.804688 C 71.089844 31.007812 71.179688 31.222656 71.390625 31.289062 C 71.578125 31.34375 71.824219 31.234375 71.871094 31.03125 C 71.949219 30.671875 71.917969 30.335938 71.78125 30 C 71.703125 29.804688 71.433594 29.746094 71.261719 29.839844 C 71.0625 29.945312 71.023438 30.167969 71.101562 30.363281 " fill-opacity="1" fill-rule="nonzero"/><path fill="#8a8a8a" d="M 75.488281 28.898438 C 75.296875 29.28125 75.28125 29.683594 75.457031 30.078125 C 75.542969 30.265625 75.804688 30.332031 75.980469 30.238281 C 76.171875 30.132812 76.222656 29.90625 76.136719 29.714844 C 76.082031 29.585938 76.089844 29.410156 76.136719 29.3125 C 76.230469 29.125 76.207031 28.898438 76.019531 28.78125 C 75.859375 28.675781 75.578125 28.710938 75.488281 28.898438 " fill-opacity="1" fill-rule="nonzero"/><path fill="#8a8a8a" d="M 77.945312 26.238281 C 77.96875 26.507812 77.988281 26.777344 78.011719 27.050781 C 78.027344 27.257812 78.160156 27.441406 78.386719 27.449219 C 78.578125 27.453125 78.796875 27.28125 78.78125 27.070312 C 78.757812 26.800781 78.738281 26.53125 78.714844 26.257812 C 78.699219 26.050781 78.566406 25.867188 78.339844 25.859375 C 78.152344 25.855469 77.929688 26.027344 77.945312 26.238281 " fill-opacity="1" fill-rule="nonzero"/><path fill="#8a8a8a" d="M 77.773438 32.121094 C 77.761719 32.296875 77.753906 32.472656 77.742188 32.644531 C 77.730469 32.847656 77.914062 33.046875 78.117188 33.042969 C 78.332031 33.039062 78.496094 32.882812 78.511719 32.667969 C 78.523438 32.492188 78.535156 32.316406 78.542969 32.144531 C 78.558594 31.941406 78.375 31.742188 78.171875 31.746094 C 77.957031 31.75 77.789062 31.90625 77.773438 32.121094 " fill-opacity="1" fill-rule="nonzero"/><path fill="#8a8a8a" d="M 83.519531 27.886719 C 83.464844 28.113281 83.414062 28.335938 83.363281 28.558594 C 83.316406 28.761719 83.410156 28.976562 83.617188 29.042969 C 83.808594 29.097656 84.050781 28.988281 84.097656 28.785156 C 84.152344 28.5625 84.203125 28.339844 84.253906 28.113281 C 84.304688 27.910156 84.207031 27.695312 84 27.632812 C 83.8125 27.574219 83.566406 27.683594 83.519531 27.886719 " fill-opacity="1" fill-rule="nonzero"/><path fill="#8a8a8a" d="M 82.742188 32.320312 C 82.710938 32.578125 82.679688 32.835938 82.652344 33.09375 C 82.628906 33.300781 82.832031 33.484375 83.027344 33.492188 C 83.25 33.496094 83.398438 33.324219 83.421875 33.113281 C 83.453125 32.855469 83.480469 32.597656 83.511719 32.339844 C 83.535156 32.132812 83.332031 31.949219 83.136719 31.941406 C 82.914062 31.9375 82.765625 32.109375 82.742188 32.320312 " fill-opacity="1" fill-rule="nonzero"/><path fill="#8a8a8a" d="M 87.082031 32.191406 C 87.074219 32.367188 87.066406 32.542969 87.054688 32.714844 C 87.046875 32.917969 87.226562 33.117188 87.429688 33.113281 C 87.644531 33.109375 87.816406 32.953125 87.828125 32.738281 C 87.835938 32.5625 87.84375 32.390625 87.855469 32.214844 C 87.863281 32.011719 87.683594 31.8125 87.480469 31.816406 C 87.265625 31.820312 87.09375 31.976562 87.082031 32.191406 " fill-opacity="1" fill-rule="nonzero"/><path fill="#8a8a8a" d="M 90.453125 30.582031 C 90.367188 30.863281 90.324219 31.160156 90.34375 31.457031 C 90.355469 31.664062 90.496094 31.847656 90.71875 31.855469 C 90.910156 31.859375 91.125 31.6875 91.113281 31.476562 C 91.101562 31.246094 91.121094 31.027344 91.1875 30.808594 C 91.335938 30.332031 90.597656 30.105469 90.453125 30.582031 " fill-opacity="1" fill-rule="nonzero"/><path fill="#8a8a8a" d="M 92.371094 33.699219 C 92.359375 33.992188 92.351562 34.285156 92.339844 34.578125 C 92.324219 35.074219 93.09375 35.097656 93.109375 34.597656 C 93.121094 34.304688 93.128906 34.015625 93.140625 33.722656 C 93.15625 33.226562 92.386719 33.199219 92.371094 33.699219 " fill-opacity="1" fill-rule="nonzero"/><path fill="#8a8a8a" d="M 64.640625 29.832031 C 64.691406 30.03125 64.691406 30.226562 64.640625 30.421875 C 64.585938 30.625 64.691406 30.84375 64.894531 30.90625 C 65.089844 30.964844 65.324219 30.851562 65.378906 30.652344 C 65.464844 30.320312 65.472656 29.984375 65.390625 29.65625 C 65.273438 29.171875 64.523438 29.347656 64.640625 29.832031 " fill-opacity="1" fill-rule="nonzero"/><g clip-path="url(#84bb424dc5)"><path fill="#e6e6eb" d="M 108.417969 51.039062 C 107.550781 51.167969 106.875 51.273438 105.976562 51.054688 C 107.125 50.222656 107.640625 48.667969 107.949219 47.347656 C 107.460938 47.9375 106.4375 48.191406 105.542969 48.363281 C 105.679688 47.230469 105.699219 46.023438 105.585938 44.742188 C 105.453125 43.214844 105.125 41.734375 104.636719 40.316406 C 102.816406 39.496094 100.796875 38.996094 98.894531 38.601562 C 97.4375 38.296875 95.773438 38.070312 94.289062 38.140625 C 90.621094 38.308594 86.734375 37.71875 83.535156 39.996094 C 80.230469 42.351562 79.0625 47.121094 78.179688 50.839844 C 77.585938 53.335938 77.835938 55.980469 75.253906 57.128906 C 73.234375 55.089844 74.457031 52.71875 74.828125 50.167969 C 75.382812 46.382812 76.058594 41.519531 73.863281 38.097656 C 70.742188 33.242188 64.027344 32.417969 58.863281 33.738281 C 57.585938 34.066406 56.335938 34.53125 55.160156 35.140625 C 54.136719 35.671875 53.273438 36.609375 52.148438 36.917969 C 51.519531 37.09375 50.957031 37.046875 50.523438 36.796875 C 50.519531 36.828125 50.523438 36.855469 50.53125 36.878906 L 50.535156 36.886719 C 50.542969 36.910156 50.558594 36.925781 50.574219 36.933594 C 49.957031 36.660156 48.941406 35.792969 48.539062 35.242188 C 48.476562 36.964844 48.464844 38.628906 48.984375 40.289062 C 48.167969 40.128906 47.558594 39.578125 47.0625 38.957031 C 46.699219 40.359375 47.402344 42.746094 47.894531 44.070312 C 48.566406 45.890625 49.71875 47.886719 50.851562 49.457031 C 52.0625 51.132812 53.703125 52.460938 55.484375 53.484375 C 58.773438 55.375 62.339844 57.011719 66.058594 58.3125 C 66.441406 58.445312 67.488281 60.398438 67.726562 60.914062 C 68.066406 61.394531 68.433594 61.855469 68.84375 62.289062 C 70.242188 63.765625 72.125 64.628906 74.105469 64.816406 C 74.152344 64.820312 74.203125 64.824219 74.253906 64.828125 C 74.390625 64.839844 74.527344 64.84375 74.667969 64.847656 C 74.726562 64.851562 74.785156 64.851562 74.84375 64.851562 C 74.980469 64.855469 75.113281 64.851562 75.25 64.847656 C 75.304688 64.84375 75.359375 64.84375 75.417969 64.839844 C 75.605469 64.832031 75.789062 64.816406 75.976562 64.792969 C 76.195312 64.765625 76.410156 64.730469 76.625 64.6875 C 76.679688 64.679688 76.730469 64.667969 76.785156 64.65625 C 76.996094 64.613281 77.210938 64.5625 77.417969 64.5 L 77.421875 64.5 C 77.632812 64.441406 77.839844 64.371094 78.046875 64.296875 C 78.097656 64.277344 78.144531 64.261719 78.191406 64.242188 C 78.707031 64.046875 79.207031 63.808594 79.679688 63.53125 C 80.585938 62.992188 81.285156 62.257812 82.027344 61.5625 C 84.765625 61.710938 87.492188 61.636719 90.164062 61.308594 C 94.777344 60.746094 99.554688 58.488281 103.488281 56.074219 C 104.433594 55.492188 105.34375 54.855469 106.191406 54.140625 C 106.980469 53.476562 108.246094 52.085938 108.417969 51.039062 " fill-opacity="1" fill-rule="nonzero"/></g><path fill="#000000" d="M 76.316406 63.339844 C 73.152344 64.257812 71.179688 62.820312 69.410156 60.175781 C 68.9375 59.46875 68.445312 58.707031 68.441406 57.851562 C 68.4375 56.699219 69.367188 55.703125 70.4375 55.289062 C 71.507812 54.871094 72.695312 54.917969 73.839844 55.003906 C 75.828125 55.152344 77.945312 55.46875 79.441406 56.796875 C 79.945312 57.246094 80.371094 57.824219 80.488281 58.492188 C 80.660156 59.492188 80.109375 60.480469 79.441406 61.246094 C 78.609375 62.203125 77.535156 62.984375 76.316406 63.339844 " fill-opacity="1" fill-rule="nonzero"/><path fill="#ffffff" d="M 70.625 57.222656 C 71.113281 56.65625 71.824219 56.453125 72.527344 56.710938 C 73.164062 56.945312 73.46875 55.9375 72.835938 55.703125 C 71.820312 55.328125 70.625 55.621094 69.914062 56.449219 C 69.480469 56.960938 70.1875 57.738281 70.625 57.222656 " fill-opacity="1" fill-rule="nonzero"/><path fill="#000000" d="M 74.085938 45.972656 C 74.523438 44.582031 74.445312 43.074219 74.128906 41.652344 C 73.679688 39.640625 72.835938 38.558594 71.214844 37.367188 C 68.785156 35.582031 65.292969 35.621094 62.402344 36.160156 C 59.3125 36.734375 56.332031 38.253906 54.238281 40.636719 C 52.210938 42.9375 50.710938 45.179688 49.933594 48.085938 C 50.234375 48.566406 50.542969 49.027344 50.851562 49.457031 C 52.0625 51.132812 53.703125 52.460938 55.484375 53.484375 C 57.328125 54.546875 59.265625 55.523438 61.265625 56.410156 C 61.699219 56.035156 62.113281 55.636719 62.503906 55.230469 C 63.25 54.453125 63.847656 53.472656 64.722656 52.828125 C 65.597656 52.191406 66.800781 51.917969 67.808594 51.53125 C 70.511719 50.5 73.21875 48.738281 74.085938 45.972656 " fill-opacity="1" fill-rule="nonzero"/><path fill="#000000" d="M 102.984375 56.378906 C 102.871094 53.273438 101.832031 50.121094 100.179688 47.550781 C 99.945312 47.183594 99.699219 46.832031 99.4375 46.492188 C 96.433594 42.535156 90.90625 39.003906 85.765625 40.191406 C 81.730469 41.125 78.878906 45.296875 80.039062 49.425781 C 81.207031 53.574219 85.585938 55.714844 86.984375 59.730469 C 87.183594 60.304688 87.328125 60.921875 87.460938 61.550781 C 88.367188 61.5 89.269531 61.421875 90.164062 61.308594 C 94.582031 60.769531 99.152344 58.675781 102.984375 56.378906 " fill-opacity="1" fill-rule="nonzero"/><path fill="#ffffff" d="M 71.15625 41.582031 C 70.738281 43.367188 68.960938 44.476562 67.183594 44.058594 C 65.402344 43.640625 64.300781 41.851562 64.71875 40.066406 C 65.132812 38.277344 66.914062 37.167969 68.691406 37.589844 C 70.46875 38.007812 71.570312 39.792969 71.15625 41.582031 " fill-opacity="1" fill-rule="nonzero"/><path fill="#ffffff" d="M 89.449219 45.410156 C 89.03125 47.195312 87.253906 48.304688 85.476562 47.886719 C 83.699219 47.46875 82.59375 45.679688 83.011719 43.894531 C 83.425781 42.109375 85.207031 41 86.984375 41.417969 C 88.761719 41.835938 89.867188 43.625 89.449219 45.410156 " fill-opacity="1" fill-rule="nonzero"/><path fill="#000000" d="M 70.484375 41.457031 C 70.167969 42.808594 68.824219 43.648438 67.476562 43.332031 C 66.128906 43.015625 65.292969 41.660156 65.609375 40.308594 C 65.925781 38.957031 67.273438 38.117188 68.617188 38.433594 C 69.964844 38.75 70.800781 40.101562 70.484375 41.457031 " fill-opacity="1" fill-rule="nonzero"/><path fill="#000000" d="M 88.652344 45.269531 C 88.339844 46.621094 86.992188 47.460938 85.644531 47.144531 C 84.296875 46.828125 83.460938 45.472656 83.777344 44.121094 C 84.09375 42.769531 85.441406 41.929688 86.785156 42.246094 C 88.132812 42.5625 88.96875 43.917969 88.652344 45.269531 " fill-opacity="1" fill-rule="nonzero"/><path fill="#ce8e8e" d="M 91.347656 58.867188 C 91.0625 58.867188 90.769531 58.835938 90.472656 58.765625 C 88.816406 58.375 87.722656 56.988281 88.03125 55.671875 C 88.28125 54.589844 89.402344 53.886719 90.710938 53.886719 C 90.996094 53.886719 91.289062 53.921875 91.585938 53.992188 C 93.242188 54.382812 94.335938 55.765625 94.03125 57.085938 C 93.777344 58.167969 92.660156 58.867188 91.347656 58.867188 " fill-opacity="1" fill-rule="nonzero"/><path fill="#ce8e8e" d="M 59.773438 51.996094 C 59.488281 51.996094 59.195312 51.964844 58.898438 51.894531 C 57.242188 51.503906 56.148438 50.117188 56.453125 48.800781 C 56.707031 47.71875 57.824219 47.015625 59.136719 47.015625 C 59.421875 47.015625 59.714844 47.050781 60.011719 47.121094 C 61.667969 47.511719 62.761719 48.894531 62.453125 50.214844 C 62.203125 51.296875 61.082031 51.996094 59.773438 51.996094 " fill-opacity="1" fill-rule="nonzero"/><g clip-path="url(#d9b9fbf7d5)"><path fill="#8a8a8a" d="M 100.023438 95.886719 C 96.53125 98.710938 91.746094 99.621094 87.386719 100.140625 C 81.875 100.796875 76.292969 100.398438 70.777344 100.027344 C 65.457031 99.671875 60.121094 98.792969 55.171875 96.722656 C 50.148438 94.621094 45.355469 90.824219 43.75 85.398438 C 41.242188 76.910156 47.261719 67.148438 56.648438 68.488281 C 65.371094 69.730469 72.875 77.046875 78.679688 83.160156 C 82.050781 86.710938 85.683594 90.539062 90.394531 92.226562 C 94.621094 93.738281 100.226562 92.957031 103.046875 89.105469 C 103.300781 88.757812 103.449219 88.375 103.632812 87.992188 C 103.773438 87.699219 103.820312 87.261719 104.007812 87.015625 C 104.523438 86.335938 104.375 88.285156 104.355469 88.492188 C 104.234375 89.714844 103.863281 90.734375 103.320312 91.835938 C 102.832031 92.835938 102.167969 93.75 101.421875 94.570312 C 100.984375 95.050781 100.515625 95.488281 100.023438 95.886719 " fill-opacity="1" fill-rule="nonzero"/></g><path fill="#343436" d="M 56.648438 68.488281 C 55.074219 68.261719 53.597656 68.351562 52.238281 68.691406 C 50.429688 72.351562 49.363281 76.414062 48.636719 80.414062 C 47.96875 84.097656 47.554688 87.839844 47.445312 91.585938 C 49.183594 93.394531 51.316406 94.863281 53.558594 95.984375 C 53.546875 95.628906 53.535156 95.273438 53.527344 94.917969 C 53.5 93.316406 53.523438 91.714844 53.605469 90.117188 C 53.765625 86.96875 54.148438 83.847656 54.769531 80.757812 C 55.613281 76.570312 56.765625 72.40625 59.089844 68.996094 C 58.289062 68.777344 57.472656 68.605469 56.648438 68.488281 " fill-opacity="1" fill-rule="nonzero"/><path fill="#343436" d="M 70.097656 75.035156 C 68.46875 73.726562 66.757812 72.527344 64.980469 71.507812 C 62.714844 76.683594 61.269531 82.160156 60.632812 87.8125 C 60.25 91.203125 60.199219 94.632812 60.492188 98.035156 C 60.507812 98.183594 60.519531 98.335938 60.53125 98.496094 C 62.578125 99.015625 64.664062 99.386719 66.761719 99.648438 C 66.746094 99.511719 66.730469 99.367188 66.710938 99.214844 C 66.554688 97.777344 66.457031 96.335938 66.421875 94.890625 C 66.355469 92.167969 66.5 89.253906 66.886719 86.671875 C 67.484375 82.664062 68.558594 78.753906 70.097656 75.035156 " fill-opacity="1" fill-rule="nonzero"/><g clip-path="url(#d8ecb66533)"><path fill="#343436" d="M 80.632812 85.191406 C 79.96875 84.515625 79.320312 83.832031 78.679688 83.160156 C 77.773438 82.203125 76.824219 81.21875 75.832031 80.230469 C 73.609375 86.628906 72.710938 93.390625 73.140625 100.1875 C 75.15625 100.316406 77.175781 100.429688 79.195312 100.472656 C 78.75 95.378906 79.257812 90.167969 80.632812 85.191406 " fill-opacity="1" fill-rule="nonzero"/></g><g clip-path="url(#efde030d95)"><path fill="#343436" d="M 93.3125 92.878906 C 92.304688 92.773438 91.316406 92.554688 90.394531 92.226562 C 89.269531 91.824219 88.210938 91.296875 87.195312 90.683594 C 87.179688 91.671875 87.191406 92.660156 87.234375 93.648438 C 87.328125 95.800781 87.566406 97.949219 87.914062 100.074219 C 89.882812 99.828125 91.921875 99.488281 93.878906 98.921875 C 93.785156 98.375 93.699219 97.824219 93.632812 97.273438 C 93.453125 95.816406 93.351562 94.347656 93.3125 92.878906 " fill-opacity="1" fill-rule="nonzero"/></g><path fill="#8a8a8a" d="M 70.296875 68.9375 C 70.296875 69.140625 70.296875 69.34375 70.296875 69.542969 C 70.296875 69.726562 70.449219 69.886719 70.632812 69.886719 C 70.816406 69.886719 70.972656 69.730469 70.972656 69.542969 C 70.972656 69.34375 70.972656 69.140625 70.972656 68.9375 C 70.972656 68.753906 70.816406 68.597656 70.632812 68.597656 C 70.449219 68.597656 70.296875 68.753906 70.296875 68.9375 " fill-opacity="1" fill-rule="nonzero"/><path fill="#8a8a8a" d="M 72.886719 67.277344 C 72.839844 67.730469 72.789062 68.183594 72.742188 68.640625 C 72.695312 69.074219 73.375 69.070312 73.421875 68.640625 C 73.46875 68.183594 73.515625 67.730469 73.5625 67.277344 C 73.609375 66.839844 72.933594 66.84375 72.886719 67.277344 " fill-opacity="1" fill-rule="nonzero"/><path fill="#8a8a8a" d="M 72.554688 71.96875 C 72.554688 72.167969 72.554688 72.371094 72.554688 72.574219 C 72.554688 72.757812 72.710938 72.914062 72.894531 72.914062 C 73.078125 72.914062 73.234375 72.757812 73.234375 72.574219 C 73.234375 72.371094 73.234375 72.167969 73.234375 71.96875 C 73.234375 71.78125 73.078125 71.625 72.894531 71.625 C 72.710938 71.625 72.554688 71.78125 72.554688 71.96875 " fill-opacity="1" fill-rule="nonzero"/><path fill="#8a8a8a" d="M 75.117188 69.695312 C 75.117188 69.898438 75.117188 70.097656 75.117188 70.300781 C 75.117188 70.484375 75.273438 70.640625 75.457031 70.640625 C 75.640625 70.640625 75.796875 70.484375 75.796875 70.300781 C 75.796875 70.097656 75.796875 69.898438 75.796875 69.695312 C 75.796875 69.511719 75.640625 69.355469 75.457031 69.355469 C 75.273438 69.355469 75.117188 69.511719 75.117188 69.695312 " fill-opacity="1" fill-rule="nonzero"/><path fill="#8a8a8a" d="M 78.734375 67.878906 C 78.734375 68.128906 78.734375 68.382812 78.734375 68.636719 C 78.734375 69.074219 79.414062 69.074219 79.414062 68.636719 C 79.414062 68.382812 79.414062 68.128906 79.414062 67.878906 C 79.414062 67.441406 78.734375 67.4375 78.734375 67.878906 " fill-opacity="1" fill-rule="nonzero"/><path fill="#8a8a8a" d="M 77.5 72.726562 C 77.546875 73.132812 77.59375 73.535156 77.640625 73.941406 C 77.664062 74.125 77.78125 74.277344 77.980469 74.28125 C 78.148438 74.28125 78.339844 74.121094 78.320312 73.941406 C 78.273438 73.535156 78.222656 73.132812 78.175781 72.726562 C 78.15625 72.542969 78.035156 72.390625 77.835938 72.386719 C 77.671875 72.386719 77.476562 72.542969 77.5 72.726562 " fill-opacity="1" fill-rule="nonzero"/></svg>