<svg xmlns="http://www.w3.org/2000/svg" xmlns:xlink="http://www.w3.org/1999/xlink" width="200" zoomAndPan="magnify" viewBox="0 0 150 112.499997" height="150" preserveAspectRatio="xMidYMid meet" version="1.0"><defs><clipPath id="66fad05e09"><path d="M 46 26 L 138.46875 26 L 138.46875 84 L 46 84 Z M 46 26 " clip-rule="nonzero"/></clipPath><clipPath id="cc6b6602cf"><path d="M 11.53125 53 L 57 53 L 57 77 L 11.53125 77 Z M 11.53125 53 " clip-rule="nonzero"/></clipPath><clipPath id="70e6606c39"><path d="M 11.53125 53 L 57 53 L 57 74 L 11.53125 74 Z M 11.53125 53 " clip-rule="nonzero"/></clipPath></defs><g clip-path="url(#66fad05e09)"><path fill="#07d9c4" d="M 133.535156 34.597656 C 130.132812 32.089844 125.710938 32.402344 121.699219 33.226562 C 119.742188 33.625 117.640625 34.105469 115.851562 33.15625 C 113.699219 32.011719 112.625 29.113281 110.523438 27.859375 C 109.199219 27.066406 107.632812 27.027344 106.132812 27.003906 C 96.289062 26.863281 86.449219 26.71875 76.605469 26.574219 C 75.613281 26.558594 74.601562 26.550781 73.644531 26.867188 C 70.503906 27.902344 69.015625 31.898438 67.683594 35.324219 C 67.4375 35.957031 67.152344 36.621094 66.636719 36.984375 C 65.558594 37.738281 64.222656 36.789062 63.28125 35.855469 C 60.289062 32.902344 57.507812 29.664062 54.980469 26.1875 C 55.589844 27.027344 46.535156 28.261719 46.347656 28.335938 C 47.199219 31.117188 54.671875 36.472656 57.773438 49.242188 C 58.589844 52.597656 58.988281 56.074219 59.785156 59.433594 C 60.582031 62.792969 61.910156 66.136719 64.277344 68.308594 C 65.503906 69.4375 66.957031 70.203125 68.21875 71.285156 C 70.675781 73.394531 72.269531 76.605469 74.707031 78.742188 C 77.148438 80.886719 80.242188 81.792969 83.273438 82.460938 C 88.519531 83.613281 93.980469 83.214844 99.332031 83.222656 C 102.179688 83.226562 104.703125 82.855469 107.359375 81.640625 C 110.121094 80.378906 112.679688 79.265625 114.914062 77.011719 C 118.011719 73.886719 121.105469 70.757812 124.203125 67.632812 C 127.394531 64.882812 130.617188 62.105469 133.234375 58.648438 C 135.851562 55.191406 137.855469 50.957031 138.164062 46.417969 C 138.476562 41.878906 136.859375 37.050781 133.535156 34.597656 Z M 132.589844 48.679688 C 132.589844 48.679688 127.886719 61.753906 121.25 61.054688 L 120.476562 46.359375 C 120.476562 46.359375 121.550781 38.96875 127.804688 40.125 C 134.058594 41.28125 132.589844 48.679688 132.589844 48.679688 Z M 132.589844 48.679688 " fill-opacity="1" fill-rule="nonzero"/></g><path fill="#a60d86" d="M 121.445312 70.417969 C 99.847656 77.636719 79.203125 74.070312 67.589844 70.777344 C 67.804688 70.941406 68.015625 71.105469 68.21875 71.28125 C 70.675781 73.394531 72.269531 76.601562 74.710938 78.742188 C 77.152344 80.882812 80.246094 81.792969 83.277344 82.457031 C 88.519531 83.613281 93.984375 83.210938 99.335938 83.21875 C 102.183594 83.226562 104.707031 82.851562 107.363281 81.636719 C 110.121094 80.378906 112.683594 79.261719 114.914062 77.007812 C 117.09375 74.8125 119.269531 72.617188 121.445312 70.417969 Z M 121.445312 70.417969 " fill-opacity="1" fill-rule="nonzero"/><path fill="#a60d86" d="M 110.523438 27.855469 C 109.199219 27.0625 107.632812 27.023438 106.132812 27.003906 C 96.289062 26.859375 86.449219 26.714844 76.605469 26.574219 C 75.613281 26.558594 74.601562 26.546875 73.644531 26.863281 C 72.089844 27.375 70.945312 28.613281 70.019531 30.144531 C 73.226562 32.613281 80.304688 36.316406 93.449219 35.78125 C 105.359375 35.296875 110.828125 32.664062 113.28125 30.695312 C 112.445312 29.621094 111.625 28.515625 110.523438 27.855469 Z M 110.523438 27.855469 " fill-opacity="1" fill-rule="nonzero"/><path fill="#07d9c4" d="M 85.808594 17.273438 C 85.808594 17.273438 72.945312 18.054688 73.648438 26.863281 C 73.648438 26.863281 73.511719 31.011719 89.878906 30.753906 C 89.878906 30.753906 105.484375 32.082031 108.546875 27.753906 C 111.609375 23.429688 107.296875 21.328125 107.296875 21.328125 C 107.296875 21.328125 103.175781 18.996094 97.511719 18.046875 C 97.511719 18.046875 96.59375 11.933594 91.921875 12.070312 C 87.246094 12.207031 85.808594 17.273438 85.808594 17.273438 Z M 85.808594 17.273438 " fill-opacity="1" fill-rule="nonzero"/><path fill="#1a1a18" d="M 86.234375 22.660156 C 84.296875 17.632812 92.949219 14.304688 95.476562 13.59375 C 94.648438 12.691406 93.5 12.023438 91.917969 12.070312 C 87.242188 12.207031 85.808594 17.273438 85.808594 17.273438 C 85.808594 17.273438 72.941406 18.054688 73.644531 26.863281 C 73.644531 26.863281 73.511719 31.011719 89.875 30.753906 C 89.875 30.753906 94.847656 31.179688 99.726562 30.769531 C 97.199219 30.140625 88.132812 27.578125 86.234375 22.660156 Z M 86.234375 22.660156 " fill-opacity="0.0667" fill-rule="nonzero"/><path fill="#07d9c4" d="M 54.96875 26.109375 C 55.015625 26.28125 54.949219 26.472656 54.773438 26.691406 C 54.597656 26.90625 54.320312 27.125 53.949219 27.355469 C 53.578125 27.582031 53.140625 27.800781 52.628906 28.003906 C 52.121094 28.210938 51.578125 28.390625 51.007812 28.542969 C 50.4375 28.691406 49.878906 28.804688 49.335938 28.882812 C 48.792969 28.957031 48.300781 28.988281 47.867188 28.972656 C 47.429688 28.960938 47.082031 28.90625 46.820312 28.804688 C 46.5625 28.707031 46.410156 28.570312 46.363281 28.402344 C 46.316406 28.230469 46.382812 28.035156 46.558594 27.820312 C 46.734375 27.605469 47.011719 27.382812 47.382812 27.15625 C 47.753906 26.929688 48.191406 26.710938 48.703125 26.507812 C 49.210938 26.300781 49.753906 26.121094 50.324219 25.96875 C 50.894531 25.816406 51.453125 25.703125 51.996094 25.628906 C 52.539062 25.554688 53.03125 25.523438 53.464844 25.535156 C 53.902344 25.550781 54.25 25.605469 54.511719 25.707031 C 54.769531 25.804688 54.921875 25.941406 54.96875 26.109375 Z M 54.96875 26.109375 " fill-opacity="1" fill-rule="nonzero"/><path fill="#1a1a18" d="M 54.96875 26.109375 C 55.015625 26.28125 54.949219 26.472656 54.773438 26.691406 C 54.597656 26.90625 54.320312 27.125 53.949219 27.355469 C 53.578125 27.582031 53.140625 27.800781 52.628906 28.003906 C 52.121094 28.210938 51.578125 28.390625 51.007812 28.542969 C 50.4375 28.691406 49.878906 28.804688 49.335938 28.882812 C 48.792969 28.957031 48.300781 28.988281 47.867188 28.972656 C 47.429688 28.960938 47.082031 28.90625 46.820312 28.804688 C 46.5625 28.707031 46.410156 28.570312 46.363281 28.402344 C 46.316406 28.230469 46.382812 28.035156 46.558594 27.820312 C 46.734375 27.605469 47.011719 27.382812 47.382812 27.15625 C 47.753906 26.929688 48.191406 26.710938 48.703125 26.507812 C 49.210938 26.300781 49.753906 26.121094 50.324219 25.96875 C 50.894531 25.816406 51.453125 25.703125 51.996094 25.628906 C 52.539062 25.554688 53.03125 25.523438 53.464844 25.535156 C 53.902344 25.550781 54.25 25.605469 54.511719 25.707031 C 54.769531 25.804688 54.921875 25.941406 54.96875 26.109375 Z M 54.96875 26.109375 " fill-opacity="0.1373" fill-rule="nonzero"/><path fill="#a60d86" d="M 76.96875 37.148438 L 78.070312 37.082031 C 78.269531 37.074219 78.464844 36.996094 78.628906 36.859375 L 79.53125 36.125 C 80.210938 35.578125 81.148438 36.09375 81.179688 37.039062 L 81.222656 38.300781 C 81.230469 38.527344 81.292969 38.75 81.410156 38.933594 L 82.039062 39.960938 C 82.515625 40.734375 82.050781 41.808594 81.222656 41.855469 L 80.121094 41.921875 C 79.917969 41.929688 79.726562 42.007812 79.5625 42.144531 L 78.65625 42.878906 C 77.976562 43.425781 77.042969 42.910156 77.011719 41.964844 L 76.96875 40.703125 C 76.960938 40.476562 76.894531 40.253906 76.78125 40.070312 L 76.148438 39.042969 C 75.675781 38.273438 76.140625 37.199219 76.96875 37.148438 Z M 76.96875 37.148438 " fill-opacity="1" fill-rule="nonzero"/><path fill="#a60d86" d="M 85.601562 38.945312 L 86.699219 39.035156 C 86.898438 39.050781 87.097656 39.003906 87.277344 38.894531 L 88.25 38.292969 C 88.984375 37.839844 89.851562 38.488281 89.785156 39.433594 L 89.691406 40.695312 C 89.675781 40.921875 89.714844 41.148438 89.808594 41.351562 L 90.324219 42.460938 C 90.710938 43.292969 90.136719 44.296875 89.308594 44.226562 L 88.210938 44.136719 C 88.011719 44.121094 87.808594 44.171875 87.632812 44.28125 L 86.660156 44.882812 C 85.925781 45.332031 85.058594 44.6875 85.125 43.742188 L 85.21875 42.480469 C 85.234375 42.253906 85.195312 42.023438 85.101562 41.820312 L 84.585938 40.710938 C 84.199219 39.878906 84.773438 38.878906 85.601562 38.945312 Z M 85.601562 38.945312 " fill-opacity="1" fill-rule="nonzero"/><path fill="#a60d86" d="M 94.101562 39.589844 L 95.207031 39.523438 C 95.40625 39.511719 95.601562 39.4375 95.761719 39.300781 L 96.667969 38.566406 C 97.34375 38.011719 98.28125 38.53125 98.3125 39.476562 L 98.359375 40.738281 C 98.367188 40.964844 98.429688 41.1875 98.546875 41.375 L 99.179688 42.398438 C 99.65625 43.171875 99.195312 44.246094 98.367188 44.296875 L 97.261719 44.359375 C 97.0625 44.375 96.867188 44.449219 96.707031 44.582031 L 95.800781 45.320312 C 95.125 45.871094 94.1875 45.355469 94.15625 44.40625 L 94.109375 43.148438 C 94.101562 42.917969 94.039062 42.699219 93.921875 42.511719 L 93.289062 41.484375 C 92.8125 40.714844 93.277344 39.636719 94.101562 39.589844 Z M 94.101562 39.589844 " fill-opacity="1" fill-rule="nonzero"/><path fill="#a60d86" d="M 103.039062 38.519531 L 104.140625 38.457031 C 104.339844 38.441406 104.535156 38.367188 104.699219 38.234375 L 105.601562 37.496094 C 106.28125 36.945312 107.214844 37.460938 107.25 38.410156 L 107.292969 39.667969 C 107.300781 39.898438 107.367188 40.117188 107.484375 40.304688 L 108.117188 41.332031 C 108.59375 42.101562 108.128906 43.179688 107.300781 43.226562 L 106.199219 43.292969 C 106 43.304688 105.804688 43.378906 105.640625 43.515625 L 104.738281 44.25 C 104.0625 44.804688 103.125 44.285156 103.089844 43.339844 L 103.046875 42.078125 C 103.039062 41.851562 102.972656 41.628906 102.855469 41.441406 L 102.222656 40.417969 C 101.75 39.644531 102.210938 38.570312 103.039062 38.519531 Z M 103.039062 38.519531 " fill-opacity="1" fill-rule="nonzero"/><path fill="#a60d86" d="M 110.867188 35.261719 L 111.96875 35.199219 C 112.171875 35.183594 112.363281 35.109375 112.527344 34.976562 L 113.429688 34.238281 C 114.109375 33.6875 115.046875 34.203125 115.078125 35.152344 L 115.121094 36.410156 C 115.128906 36.640625 115.195312 36.859375 115.3125 37.046875 L 115.945312 38.074219 C 116.421875 38.84375 115.957031 39.921875 115.128906 39.96875 L 114.027344 40.035156 C 113.828125 40.046875 113.632812 40.125 113.46875 40.257812 L 112.566406 40.996094 C 111.890625 41.546875 110.953125 41.027344 110.917969 40.082031 L 110.875 38.820312 C 110.867188 38.59375 110.800781 38.371094 110.6875 38.1875 L 110.050781 37.160156 C 109.578125 36.386719 110.039062 35.3125 110.867188 35.261719 Z M 110.867188 35.261719 " fill-opacity="1" fill-rule="nonzero"/><path fill="#a60d86" d="M 69.066406 35.273438 L 70.167969 35.207031 C 70.367188 35.199219 70.5625 35.121094 70.726562 34.984375 L 71.632812 34.25 C 72.3125 33.703125 73.246094 34.21875 73.277344 35.164062 L 73.320312 36.425781 C 73.328125 36.652344 73.394531 36.875 73.507812 37.058594 L 74.136719 38.085938 C 74.613281 38.859375 74.148438 39.933594 73.320312 39.980469 L 72.21875 40.046875 C 72.019531 40.054688 71.824219 40.132812 71.660156 40.269531 L 70.753906 41.003906 C 70.074219 41.550781 69.140625 41.035156 69.109375 40.089844 L 69.066406 38.828125 C 69.058594 38.601562 68.992188 38.378906 68.878906 38.195312 L 68.25 37.167969 C 67.777344 36.394531 68.242188 35.324219 69.066406 35.273438 Z M 69.066406 35.273438 " fill-opacity="1" fill-rule="nonzero"/><path fill="#f3cb09" d="M 90.726562 83.253906 C 93.59375 83.324219 96.480469 83.214844 99.332031 83.21875 C 102.007812 80.726562 104.285156 76.597656 105.570312 73.976562 C 96.78125 75.050781 88.542969 74.667969 81.457031 73.683594 C 83.777344 76.597656 87.253906 80.601562 90.726562 83.253906 Z M 90.726562 83.253906 " fill-opacity="1" fill-rule="nonzero"/><path fill="#1a1a18" d="M 72.074219 27.9375 C 72.015625 27.910156 71.957031 27.886719 71.898438 27.855469 C 69.898438 29.527344 68.742188 32.601562 67.683594 35.316406 C 67.4375 35.949219 67.152344 36.613281 66.636719 36.976562 C 65.558594 37.730469 64.222656 36.785156 63.28125 35.851562 C 60.289062 32.894531 57.507812 29.660156 54.980469 26.179688 C 55.589844 27.023438 46.535156 28.257812 46.347656 28.332031 C 47.199219 31.113281 54.671875 36.46875 57.773438 49.234375 C 58.589844 52.59375 58.988281 56.066406 59.785156 59.429688 C 60.582031 62.789062 61.910156 66.128906 64.277344 68.304688 C 65.503906 69.429688 66.957031 70.199219 68.21875 71.28125 C 70.675781 73.390625 72.269531 76.597656 74.707031 78.738281 C 77.148438 80.882812 80.242188 81.789062 83.273438 82.453125 C 88.519531 83.609375 93.980469 83.210938 99.332031 83.21875 C 101.371094 83.21875 103.242188 83.023438 105.113281 82.46875 C 70.871094 76.320312 70.800781 41.347656 72.074219 27.9375 Z M 72.074219 27.9375 " fill-opacity="0.0667" fill-rule="nonzero"/><g clip-path="url(#cc6b6602cf)"><path fill="#07d9c4" d="M 56.871094 65.015625 C 56.871094 65.402344 56.835938 65.789062 56.765625 66.171875 C 56.691406 66.554688 56.582031 66.9375 56.4375 67.316406 C 56.292969 67.695312 56.113281 68.070312 55.898438 68.4375 C 55.679688 68.808594 55.429688 69.171875 55.148438 69.527344 C 54.863281 69.882812 54.546875 70.230469 54.195312 70.570312 C 53.847656 70.914062 53.464844 71.242188 53.050781 71.5625 C 52.640625 71.886719 52.199219 72.195312 51.726562 72.492188 C 51.257812 72.792969 50.757812 73.078125 50.234375 73.351562 C 49.707031 73.621094 49.160156 73.882812 48.585938 74.125 C 48.011719 74.371094 47.414062 74.601562 46.796875 74.816406 C 46.179688 75.03125 45.542969 75.226562 44.890625 75.410156 C 44.234375 75.59375 43.5625 75.757812 42.878906 75.90625 C 42.191406 76.050781 41.492188 76.183594 40.785156 76.292969 C 40.074219 76.40625 39.355469 76.5 38.625 76.574219 C 37.898438 76.648438 37.164062 76.707031 36.425781 76.746094 C 35.6875 76.78125 34.945312 76.800781 34.203125 76.800781 C 33.460938 76.800781 32.71875 76.78125 31.980469 76.746094 C 31.242188 76.707031 30.507812 76.648438 29.78125 76.574219 C 29.050781 76.5 28.332031 76.40625 27.621094 76.292969 C 26.910156 76.183594 26.214844 76.050781 25.527344 75.90625 C 24.839844 75.757812 24.171875 75.59375 23.515625 75.410156 C 22.859375 75.226562 22.226562 75.03125 21.609375 74.816406 C 20.988281 74.601562 20.394531 74.371094 19.820312 74.125 C 19.246094 73.882812 18.695312 73.621094 18.171875 73.351562 C 17.648438 73.078125 17.148438 72.792969 16.679688 72.492188 C 16.207031 72.195312 15.765625 71.886719 15.351562 71.5625 C 14.941406 71.242188 14.558594 70.914062 14.207031 70.570312 C 13.859375 70.230469 13.542969 69.882812 13.257812 69.527344 C 12.972656 69.171875 12.722656 68.808594 12.507812 68.4375 C 12.292969 68.070312 12.113281 67.695312 11.96875 67.316406 C 11.824219 66.9375 11.714844 66.554688 11.640625 66.171875 C 11.570312 65.789062 11.53125 65.402344 11.53125 65.015625 C 11.53125 64.632812 11.570312 64.246094 11.640625 63.863281 C 11.714844 63.476562 11.824219 63.097656 11.96875 62.71875 C 12.113281 62.339844 12.292969 61.964844 12.507812 61.597656 C 12.722656 61.226562 12.972656 60.863281 13.257812 60.507812 C 13.542969 60.152344 13.859375 59.800781 14.207031 59.460938 C 14.558594 59.121094 14.941406 58.789062 15.351562 58.46875 C 15.765625 58.148438 16.207031 57.839844 16.679688 57.542969 C 17.148438 57.242188 17.648438 56.957031 18.171875 56.683594 C 18.695312 56.410156 19.246094 56.152344 19.820312 55.90625 C 20.394531 55.664062 20.988281 55.433594 21.609375 55.21875 C 22.226562 55.003906 22.859375 54.804688 23.515625 54.625 C 24.171875 54.441406 24.839844 54.277344 25.527344 54.128906 C 26.214844 53.980469 26.910156 53.851562 27.621094 53.738281 C 28.332031 53.628906 29.050781 53.535156 29.78125 53.460938 C 30.507812 53.382812 31.242188 53.328125 31.980469 53.289062 C 32.71875 53.25 33.460938 53.234375 34.203125 53.234375 C 34.945312 53.234375 35.6875 53.25 36.425781 53.289062 C 37.164062 53.328125 37.898438 53.382812 38.625 53.460938 C 39.355469 53.535156 40.074219 53.628906 40.785156 53.738281 C 41.492188 53.851562 42.191406 53.980469 42.878906 54.128906 C 43.5625 54.277344 44.234375 54.441406 44.890625 54.625 C 45.542969 54.804688 46.179688 55.003906 46.796875 55.21875 C 47.414062 55.433594 48.011719 55.664062 48.585938 55.90625 C 49.160156 56.152344 49.707031 56.410156 50.234375 56.683594 C 50.757812 56.957031 51.257812 57.242188 51.726562 57.542969 C 52.199219 57.839844 52.640625 58.148438 53.050781 58.46875 C 53.464844 58.789062 53.847656 59.121094 54.195312 59.460938 C 54.546875 59.800781 54.863281 60.152344 55.148438 60.507812 C 55.429688 60.863281 55.679688 61.226562 55.898438 61.597656 C 56.113281 61.964844 56.292969 62.339844 56.4375 62.71875 C 56.582031 63.097656 56.691406 63.476562 56.765625 63.863281 C 56.835938 64.246094 56.871094 64.632812 56.871094 65.015625 Z M 56.871094 65.015625 " fill-opacity="1" fill-rule="nonzero"/></g><g clip-path="url(#70e6606c39)"><path fill="#07d9c4" d="M 56.871094 63.519531 C 56.871094 63.859375 56.835938 64.195312 56.765625 64.527344 C 56.691406 64.863281 56.582031 65.195312 56.4375 65.527344 C 56.292969 65.859375 56.113281 66.183594 55.898438 66.507812 C 55.679688 66.828125 55.429688 67.144531 55.148438 67.457031 C 54.863281 67.769531 54.546875 68.070312 54.195312 68.371094 C 53.847656 68.667969 53.464844 68.953125 53.050781 69.234375 C 52.640625 69.515625 52.199219 69.785156 51.726562 70.046875 C 51.257812 70.304688 50.757812 70.554688 50.234375 70.792969 C 49.707031 71.03125 49.160156 71.257812 48.585938 71.472656 C 48.011719 71.683594 47.414062 71.886719 46.796875 72.074219 C 46.179688 72.261719 45.542969 72.433594 44.890625 72.589844 C 44.234375 72.75 43.5625 72.894531 42.878906 73.023438 C 42.191406 73.152344 41.492188 73.265625 40.785156 73.363281 C 40.074219 73.460938 39.355469 73.542969 38.625 73.609375 C 37.898438 73.675781 37.164062 73.722656 36.425781 73.757812 C 35.6875 73.789062 34.945312 73.804688 34.203125 73.804688 C 33.460938 73.804688 32.71875 73.789062 31.980469 73.757812 C 31.242188 73.722656 30.507812 73.675781 29.78125 73.609375 C 29.050781 73.542969 28.332031 73.460938 27.621094 73.363281 C 26.910156 73.265625 26.214844 73.152344 25.527344 73.023438 C 24.839844 72.894531 24.171875 72.75 23.515625 72.589844 C 22.859375 72.433594 22.226562 72.261719 21.609375 72.074219 C 20.988281 71.886719 20.394531 71.683594 19.820312 71.472656 C 19.246094 71.257812 18.695312 71.03125 18.171875 70.792969 C 17.648438 70.554688 17.148438 70.304688 16.679688 70.046875 C 16.207031 69.785156 15.765625 69.515625 15.351562 69.234375 C 14.941406 68.953125 14.558594 68.667969 14.207031 68.371094 C 13.859375 68.070312 13.542969 67.769531 13.257812 67.457031 C 12.972656 67.144531 12.722656 66.828125 12.507812 66.507812 C 12.292969 66.183594 12.113281 65.859375 11.96875 65.527344 C 11.824219 65.195312 11.714844 64.863281 11.640625 64.527344 C 11.570312 64.195312 11.53125 63.859375 11.53125 63.519531 C 11.53125 63.183594 11.570312 62.847656 11.640625 62.511719 C 11.714844 62.175781 11.824219 61.84375 11.96875 61.515625 C 12.113281 61.183594 12.292969 60.855469 12.507812 60.535156 C 12.722656 60.210938 12.972656 59.894531 13.257812 59.585938 C 13.542969 59.273438 13.859375 58.96875 14.207031 58.671875 C 14.558594 58.375 14.941406 58.085938 15.351562 57.804688 C 15.765625 57.527344 16.207031 57.257812 16.679688 56.996094 C 17.148438 56.734375 17.648438 56.484375 18.171875 56.246094 C 18.695312 56.007812 19.246094 55.785156 19.820312 55.570312 C 20.394531 55.355469 20.988281 55.15625 21.609375 54.96875 C 22.226562 54.78125 22.859375 54.609375 23.515625 54.449219 C 24.171875 54.289062 24.839844 54.148438 25.527344 54.019531 C 26.214844 53.890625 26.910156 53.777344 27.621094 53.679688 C 28.332031 53.582031 29.050781 53.5 29.78125 53.433594 C 30.507812 53.367188 31.242188 53.316406 31.980469 53.285156 C 32.71875 53.25 33.460938 53.234375 34.203125 53.234375 C 34.945312 53.234375 35.6875 53.25 36.425781 53.285156 C 37.164062 53.316406 37.898438 53.367188 38.625 53.433594 C 39.355469 53.5 40.074219 53.582031 40.785156 53.679688 C 41.492188 53.777344 42.191406 53.890625 42.878906 54.019531 C 43.5625 54.148438 44.234375 54.289062 44.890625 54.449219 C 45.542969 54.609375 46.179688 54.78125 46.796875 54.96875 C 47.414062 55.15625 48.011719 55.355469 48.585938 55.570312 C 49.160156 55.785156 49.707031 56.007812 50.234375 56.246094 C 50.757812 56.484375 51.257812 56.734375 51.726562 56.996094 C 52.199219 57.257812 52.640625 57.527344 53.050781 57.804688 C 53.464844 58.085938 53.847656 58.375 54.195312 58.671875 C 54.546875 58.96875 54.863281 59.273438 55.148438 59.585938 C 55.429688 59.894531 55.679688 60.210938 55.898438 60.535156 C 56.113281 60.855469 56.292969 61.183594 56.4375 61.515625 C 56.582031 61.84375 56.691406 62.175781 56.765625 62.511719 C 56.835938 62.847656 56.871094 63.183594 56.871094 63.519531 Z M 56.871094 63.519531 " fill-opacity="1" fill-rule="nonzero"/><path fill="#1a1a18" d="M 56.871094 63.519531 C 56.871094 63.859375 56.835938 64.195312 56.765625 64.527344 C 56.691406 64.863281 56.582031 65.195312 56.4375 65.527344 C 56.292969 65.859375 56.113281 66.183594 55.898438 66.507812 C 55.679688 66.828125 55.429688 67.144531 55.148438 67.457031 C 54.863281 67.769531 54.546875 68.070312 54.195312 68.371094 C 53.847656 68.667969 53.464844 68.953125 53.050781 69.234375 C 52.640625 69.515625 52.199219 69.785156 51.726562 70.046875 C 51.257812 70.304688 50.757812 70.554688 50.234375 70.792969 C 49.707031 71.03125 49.160156 71.257812 48.585938 71.472656 C 48.011719 71.683594 47.414062 71.886719 46.796875 72.074219 C 46.179688 72.261719 45.542969 72.433594 44.890625 72.589844 C 44.234375 72.75 43.5625 72.894531 42.878906 73.023438 C 42.191406 73.152344 41.492188 73.265625 40.785156 73.363281 C 40.074219 73.460938 39.355469 73.542969 38.625 73.609375 C 37.898438 73.675781 37.164062 73.722656 36.425781 73.757812 C 35.6875 73.789062 34.945312 73.804688 34.203125 73.804688 C 33.460938 73.804688 32.71875 73.789062 31.980469 73.757812 C 31.242188 73.722656 30.507812 73.675781 29.78125 73.609375 C 29.050781 73.542969 28.332031 73.460938 27.621094 73.363281 C 26.910156 73.265625 26.214844 73.152344 25.527344 73.023438 C 24.839844 72.894531 24.171875 72.75 23.515625 72.589844 C 22.859375 72.433594 22.226562 72.261719 21.609375 72.074219 C 20.988281 71.886719 20.394531 71.683594 19.820312 71.472656 C 19.246094 71.257812 18.695312 71.03125 18.171875 70.792969 C 17.648438 70.554688 17.148438 70.304688 16.679688 70.046875 C 16.207031 69.785156 15.765625 69.515625 15.351562 69.234375 C 14.941406 68.953125 14.558594 68.667969 14.207031 68.371094 C 13.859375 68.070312 13.542969 67.769531 13.257812 67.457031 C 12.972656 67.144531 12.722656 66.828125 12.507812 66.507812 C 12.292969 66.183594 12.113281 65.859375 11.96875 65.527344 C 11.824219 65.195312 11.714844 64.863281 11.640625 64.527344 C 11.570312 64.195312 11.53125 63.859375 11.53125 63.519531 C 11.53125 63.183594 11.570312 62.847656 11.640625 62.511719 C 11.714844 62.175781 11.824219 61.84375 11.96875 61.515625 C 12.113281 61.183594 12.292969 60.855469 12.507812 60.535156 C 12.722656 60.210938 12.972656 59.894531 13.257812 59.585938 C 13.542969 59.273438 13.859375 58.96875 14.207031 58.671875 C 14.558594 58.375 14.941406 58.085938 15.351562 57.804688 C 15.765625 57.527344 16.207031 57.257812 16.679688 56.996094 C 17.148438 56.734375 17.648438 56.484375 18.171875 56.246094 C 18.695312 56.007812 19.246094 55.785156 19.820312 55.570312 C 20.394531 55.355469 20.988281 55.15625 21.609375 54.96875 C 22.226562 54.78125 22.859375 54.609375 23.515625 54.449219 C 24.171875 54.289062 24.839844 54.148438 25.527344 54.019531 C 26.214844 53.890625 26.910156 53.777344 27.621094 53.679688 C 28.332031 53.582031 29.050781 53.5 29.78125 53.433594 C 30.507812 53.367188 31.242188 53.316406 31.980469 53.285156 C 32.71875 53.25 33.460938 53.234375 34.203125 53.234375 C 34.945312 53.234375 35.6875 53.25 36.425781 53.285156 C 37.164062 53.316406 37.898438 53.367188 38.625 53.433594 C 39.355469 53.5 40.074219 53.582031 40.785156 53.679688 C 41.492188 53.777344 42.191406 53.890625 42.878906 54.019531 C 43.5625 54.148438 44.234375 54.289062 44.890625 54.449219 C 45.542969 54.609375 46.179688 54.78125 46.796875 54.96875 C 47.414062 55.15625 48.011719 55.355469 48.585938 55.570312 C 49.160156 55.785156 49.707031 56.007812 50.234375 56.246094 C 50.757812 56.484375 51.257812 56.734375 51.726562 56.996094 C 52.199219 57.257812 52.640625 57.527344 53.050781 57.804688 C 53.464844 58.085938 53.847656 58.375 54.195312 58.671875 C 54.546875 58.96875 54.863281 59.273438 55.148438 59.585938 C 55.429688 59.894531 55.679688 60.210938 55.898438 60.535156 C 56.113281 60.855469 56.292969 61.183594 56.4375 61.515625 C 56.582031 61.84375 56.691406 62.175781 56.765625 62.511719 C 56.835938 62.847656 56.871094 63.183594 56.871094 63.519531 Z M 56.871094 63.519531 " fill-opacity="0.1373" fill-rule="nonzero"/></g><path fill="#07d9c4" d="M 18.542969 49.117188 C 18.542969 49.117188 17.113281 64.085938 27.316406 67.609375 C 27.316406 67.609375 31.609375 68.851562 39.808594 67.992188 C 48.007812 67.132812 52.066406 50.539062 50.65625 49.117188 Z M 18.542969 49.117188 " fill-opacity="1" fill-rule="nonzero"/><path fill="#a60d86" d="M 33.894531 59.699219 C 25.992188 59.519531 21.53125 58.105469 19.027344 56.675781 C 19.894531 60.949219 22.0625 65.796875 27.316406 67.609375 C 27.316406 67.609375 31.609375 68.851562 39.808594 67.992188 C 44.832031 67.464844 48.300781 61.03125 49.910156 55.800781 C 47.039062 57.878906 42.121094 59.890625 33.894531 59.699219 Z M 33.894531 59.699219 " fill-opacity="1" fill-rule="nonzero"/><path fill="#07d9c4" d="M 50.65625 49.117188 C 50.65625 49.535156 50.554688 49.953125 50.347656 50.363281 C 50.140625 50.773438 49.835938 51.175781 49.433594 51.5625 C 49.03125 51.949219 48.535156 52.316406 47.949219 52.667969 C 47.363281 53.015625 46.699219 53.339844 45.953125 53.636719 C 45.207031 53.933594 44.398438 54.195312 43.519531 54.429688 C 42.644531 54.664062 41.71875 54.859375 40.742188 55.019531 C 39.769531 55.179688 38.765625 55.300781 37.730469 55.382812 C 36.699219 55.464844 35.652344 55.507812 34.597656 55.507812 C 33.546875 55.507812 32.5 55.464844 31.46875 55.382812 C 30.433594 55.300781 29.429688 55.179688 28.453125 55.019531 C 27.480469 54.859375 26.554688 54.664062 25.679688 54.429688 C 24.800781 54.195312 23.992188 53.933594 23.246094 53.636719 C 22.5 53.339844 21.835938 53.015625 21.25 52.667969 C 20.664062 52.316406 20.167969 51.949219 19.765625 51.5625 C 19.363281 51.175781 19.058594 50.773438 18.851562 50.363281 C 18.644531 49.953125 18.542969 49.535156 18.542969 49.117188 C 18.542969 48.699219 18.644531 48.28125 18.851562 47.871094 C 19.058594 47.457031 19.363281 47.058594 19.765625 46.671875 C 20.167969 46.285156 20.664062 45.914062 21.25 45.566406 C 21.835938 45.21875 22.5 44.894531 23.246094 44.597656 C 23.992188 44.300781 24.800781 44.035156 25.679688 43.804688 C 26.554688 43.570312 27.480469 43.375 28.453125 43.214844 C 29.429688 43.054688 30.433594 42.929688 31.46875 42.851562 C 32.5 42.769531 33.546875 42.726562 34.597656 42.726562 C 35.652344 42.726562 36.699219 42.769531 37.730469 42.851562 C 38.765625 42.929688 39.769531 43.054688 40.742188 43.214844 C 41.71875 43.375 42.644531 43.570312 43.519531 43.804688 C 44.398438 44.035156 45.207031 44.300781 45.953125 44.597656 C 46.699219 44.894531 47.363281 45.21875 47.949219 45.566406 C 48.535156 45.914062 49.03125 46.285156 49.433594 46.671875 C 49.835938 47.058594 50.140625 47.457031 50.347656 47.871094 C 50.554688 48.28125 50.65625 48.699219 50.65625 49.117188 Z M 50.65625 49.117188 " fill-opacity="1" fill-rule="nonzero"/><path fill="#1a1a18" d="M 50.65625 49.117188 C 50.65625 49.535156 50.554688 49.953125 50.347656 50.363281 C 50.140625 50.773438 49.835938 51.175781 49.433594 51.5625 C 49.03125 51.949219 48.535156 52.316406 47.949219 52.667969 C 47.363281 53.015625 46.699219 53.339844 45.953125 53.636719 C 45.207031 53.933594 44.398438 54.195312 43.519531 54.429688 C 42.644531 54.664062 41.71875 54.859375 40.742188 55.019531 C 39.769531 55.179688 38.765625 55.300781 37.730469 55.382812 C 36.699219 55.464844 35.652344 55.507812 34.597656 55.507812 C 33.546875 55.507812 32.5 55.464844 31.46875 55.382812 C 30.433594 55.300781 29.429688 55.179688 28.453125 55.019531 C 27.480469 54.859375 26.554688 54.664062 25.679688 54.429688 C 24.800781 54.195312 23.992188 53.933594 23.246094 53.636719 C 22.5 53.339844 21.835938 53.015625 21.25 52.667969 C 20.664062 52.316406 20.167969 51.949219 19.765625 51.5625 C 19.363281 51.175781 19.058594 50.773438 18.851562 50.363281 C 18.644531 49.953125 18.542969 49.535156 18.542969 49.117188 C 18.542969 48.699219 18.644531 48.28125 18.851562 47.871094 C 19.058594 47.457031 19.363281 47.058594 19.765625 46.671875 C 20.167969 46.285156 20.664062 45.914062 21.25 45.566406 C 21.835938 45.21875 22.5 44.894531 23.246094 44.597656 C 23.992188 44.300781 24.800781 44.035156 25.679688 43.804688 C 26.554688 43.570312 27.480469 43.375 28.453125 43.214844 C 29.429688 43.054688 30.433594 42.929688 31.46875 42.851562 C 32.5 42.769531 33.546875 42.726562 34.597656 42.726562 C 35.652344 42.726562 36.699219 42.769531 37.730469 42.851562 C 38.765625 42.929688 39.769531 43.054688 40.742188 43.214844 C 41.71875 43.375 42.644531 43.570312 43.519531 43.804688 C 44.398438 44.035156 45.207031 44.300781 45.953125 44.597656 C 46.699219 44.894531 47.363281 45.21875 47.949219 45.566406 C 48.535156 45.914062 49.03125 46.285156 49.433594 46.671875 C 49.835938 47.058594 50.140625 47.457031 50.347656 47.871094 C 50.554688 48.28125 50.65625 48.699219 50.65625 49.117188 Z M 50.65625 49.117188 " fill-opacity="0.0667" fill-rule="nonzero"/><path fill="#1a1a18" d="M 39.136719 52.5625 C 30.269531 52.5625 23.082031 49.699219 23.082031 46.171875 C 23.082031 45.570312 23.296875 44.984375 23.6875 44.433594 C 20.527344 45.601562 18.542969 47.269531 18.542969 49.121094 C 18.542969 52.648438 25.730469 55.507812 34.597656 55.507812 C 41.953125 55.507812 48.148438 53.542969 50.046875 50.855469 C 47.183594 51.914062 43.351562 52.5625 39.136719 52.5625 Z M 39.136719 52.5625 " fill-opacity="0.0667" fill-rule="nonzero"/><path fill="#f3cb09" d="M 33.894531 59.699219 C 30.75 59.628906 28.148438 59.359375 26 58.972656 C 27.878906 61.625 31.4375 66.355469 34.207031 68.292969 C 34.652344 68.292969 35.121094 68.289062 35.613281 68.273438 C 37.1875 66.898438 41.386719 62.945312 42.320312 58.992188 C 39.992188 59.496094 37.214844 59.777344 33.894531 59.699219 Z M 33.894531 59.699219 " fill-opacity="1" fill-rule="nonzero"/><path fill="#f3cb09" d="M 84.183594 88.207031 C 84.183594 88.59375 84.144531 88.976562 84.074219 89.363281 C 84 89.746094 83.890625 90.128906 83.746094 90.507812 C 83.601562 90.882812 83.421875 91.257812 83.207031 91.628906 C 82.992188 91.996094 82.742188 92.359375 82.457031 92.71875 C 82.171875 93.074219 81.855469 93.421875 81.507812 93.761719 C 81.15625 94.101562 80.773438 94.433594 80.363281 94.753906 C 79.949219 95.074219 79.507812 95.386719 79.035156 95.683594 C 78.566406 95.980469 78.066406 96.265625 77.542969 96.539062 C 77.019531 96.8125 76.46875 97.070312 75.894531 97.316406 C 75.320312 97.5625 74.726562 97.792969 74.109375 98.003906 C 73.488281 98.21875 72.855469 98.417969 72.199219 98.601562 C 71.542969 98.78125 70.875 98.945312 70.1875 99.09375 C 69.503906 99.242188 68.804688 99.371094 68.09375 99.484375 C 67.382812 99.597656 66.664062 99.691406 65.933594 99.765625 C 65.207031 99.839844 64.472656 99.898438 63.734375 99.933594 C 62.996094 99.972656 62.253906 99.992188 61.511719 99.992188 C 60.769531 99.992188 60.027344 99.972656 59.289062 99.933594 C 58.550781 99.898438 57.816406 99.839844 57.089844 99.765625 C 56.363281 99.691406 55.640625 99.597656 54.929688 99.484375 C 54.222656 99.371094 53.523438 99.242188 52.835938 99.09375 C 52.152344 98.945312 51.480469 98.78125 50.824219 98.601562 C 50.171875 98.417969 49.535156 98.21875 48.917969 98.003906 C 48.300781 97.792969 47.703125 97.5625 47.128906 97.316406 C 46.554688 97.070312 46.007812 96.8125 45.480469 96.539062 C 44.957031 96.265625 44.457031 95.980469 43.988281 95.683594 C 43.515625 95.386719 43.074219 95.074219 42.664062 94.753906 C 42.25 94.433594 41.867188 94.101562 41.519531 93.761719 C 41.167969 93.421875 40.851562 93.074219 40.566406 92.71875 C 40.285156 92.359375 40.035156 91.996094 39.816406 91.628906 C 39.601562 91.257812 39.421875 90.882812 39.277344 90.507812 C 39.132812 90.128906 39.023438 89.746094 38.949219 89.363281 C 38.878906 88.976562 38.84375 88.59375 38.84375 88.207031 C 38.84375 87.820312 38.878906 87.4375 38.949219 87.050781 C 39.023438 86.667969 39.132812 86.285156 39.277344 85.90625 C 39.421875 85.53125 39.601562 85.15625 39.816406 84.785156 C 40.035156 84.417969 40.285156 84.054688 40.566406 83.699219 C 40.851562 83.339844 41.167969 82.992188 41.519531 82.652344 C 41.867188 82.3125 42.25 81.980469 42.664062 81.660156 C 43.074219 81.339844 43.515625 81.03125 43.988281 80.730469 C 44.457031 80.433594 44.957031 80.148438 45.480469 79.875 C 46.007812 79.601562 46.554688 79.34375 47.128906 79.097656 C 47.703125 78.851562 48.300781 78.625 48.917969 78.410156 C 49.535156 78.195312 50.171875 77.996094 50.824219 77.8125 C 51.480469 77.632812 52.152344 77.46875 52.835938 77.320312 C 53.523438 77.171875 54.222656 77.042969 54.929688 76.929688 C 55.640625 76.816406 56.363281 76.722656 57.089844 76.648438 C 57.816406 76.574219 58.550781 76.515625 59.289062 76.480469 C 60.027344 76.441406 60.769531 76.421875 61.511719 76.421875 C 62.253906 76.421875 62.996094 76.441406 63.734375 76.480469 C 64.472656 76.515625 65.207031 76.574219 65.933594 76.648438 C 66.664062 76.722656 67.382812 76.816406 68.09375 76.929688 C 68.804688 77.042969 69.503906 77.171875 70.1875 77.320312 C 70.875 77.46875 71.542969 77.632812 72.199219 77.8125 C 72.855469 77.996094 73.488281 78.195312 74.109375 78.410156 C 74.726562 78.625 75.320312 78.851562 75.894531 79.097656 C 76.46875 79.34375 77.019531 79.601562 77.542969 79.875 C 78.066406 80.148438 78.566406 80.433594 79.035156 80.730469 C 79.507812 81.03125 79.949219 81.339844 80.363281 81.660156 C 80.773438 81.980469 81.15625 82.3125 81.507812 82.652344 C 81.855469 82.992188 82.171875 83.339844 82.457031 83.699219 C 82.742188 84.054688 82.992188 84.417969 83.207031 84.785156 C 83.421875 85.15625 83.601562 85.53125 83.746094 85.90625 C 83.890625 86.285156 84 86.667969 84.074219 87.050781 C 84.144531 87.4375 84.183594 87.820312 84.183594 88.207031 Z M 84.183594 88.207031 " fill-opacity="1" fill-rule="nonzero"/><path fill="#f3cb09" d="M 84.183594 86.707031 C 84.183594 87.046875 84.144531 87.382812 84.074219 87.714844 C 84 88.050781 83.890625 88.382812 83.746094 88.714844 C 83.601562 89.046875 83.421875 89.371094 83.207031 89.695312 C 82.992188 90.015625 82.742188 90.332031 82.457031 90.644531 C 82.171875 90.957031 81.855469 91.257812 81.507812 91.558594 C 81.15625 91.855469 80.773438 92.140625 80.363281 92.421875 C 79.949219 92.703125 79.507812 92.972656 79.035156 93.234375 C 78.566406 93.492188 78.066406 93.742188 77.542969 93.980469 C 77.019531 94.21875 76.46875 94.445312 75.894531 94.660156 C 75.320312 94.871094 74.726562 95.074219 74.109375 95.261719 C 73.488281 95.449219 72.855469 95.621094 72.199219 95.777344 C 71.542969 95.9375 70.875 96.082031 70.1875 96.210938 C 69.503906 96.339844 68.804688 96.453125 68.09375 96.550781 C 67.382812 96.648438 66.664062 96.730469 65.933594 96.796875 C 65.207031 96.863281 64.472656 96.910156 63.734375 96.945312 C 62.996094 96.976562 62.253906 96.992188 61.511719 96.992188 C 60.769531 96.992188 60.027344 96.976562 59.289062 96.945312 C 58.550781 96.910156 57.816406 96.863281 57.089844 96.796875 C 56.363281 96.730469 55.640625 96.648438 54.929688 96.550781 C 54.222656 96.453125 53.523438 96.339844 52.835938 96.210938 C 52.152344 96.082031 51.480469 95.9375 50.824219 95.777344 C 50.171875 95.621094 49.535156 95.449219 48.917969 95.261719 C 48.300781 95.074219 47.703125 94.871094 47.128906 94.660156 C 46.554688 94.445312 46.007812 94.21875 45.480469 93.980469 C 44.957031 93.742188 44.457031 93.492188 43.988281 93.234375 C 43.515625 92.972656 43.074219 92.703125 42.664062 92.421875 C 42.25 92.140625 41.867188 91.855469 41.519531 91.558594 C 41.167969 91.257812 40.851562 90.957031 40.566406 90.644531 C 40.285156 90.332031 40.035156 90.015625 39.816406 89.695312 C 39.601562 89.371094 39.421875 89.046875 39.277344 88.714844 C 39.132812 88.382812 39.023438 88.050781 38.949219 87.714844 C 38.878906 87.382812 38.84375 87.046875 38.84375 86.707031 C 38.84375 86.371094 38.878906 86.035156 38.949219 85.699219 C 39.023438 85.363281 39.132812 85.03125 39.277344 84.703125 C 39.421875 84.371094 39.601562 84.042969 39.816406 83.722656 C 40.035156 83.398438 40.285156 83.082031 40.566406 82.773438 C 40.851562 82.460938 41.167969 82.15625 41.519531 81.859375 C 41.867188 81.5625 42.25 81.273438 42.664062 80.992188 C 43.074219 80.714844 43.515625 80.445312 43.988281 80.183594 C 44.457031 79.921875 44.957031 79.671875 45.480469 79.433594 C 46.007812 79.195312 46.554688 78.972656 47.128906 78.757812 C 47.703125 78.542969 48.300781 78.34375 48.917969 78.15625 C 49.535156 77.96875 50.171875 77.796875 50.824219 77.636719 C 51.480469 77.480469 52.152344 77.335938 52.835938 77.207031 C 53.523438 77.078125 54.222656 76.964844 54.929688 76.867188 C 55.640625 76.769531 56.363281 76.6875 57.089844 76.621094 C 57.816406 76.554688 58.550781 76.503906 59.289062 76.472656 C 60.027344 76.4375 60.769531 76.421875 61.511719 76.421875 C 62.253906 76.421875 62.996094 76.4375 63.734375 76.472656 C 64.472656 76.503906 65.207031 76.554688 65.933594 76.621094 C 66.664062 76.6875 67.382812 76.769531 68.09375 76.867188 C 68.804688 76.964844 69.503906 77.078125 70.1875 77.207031 C 70.875 77.335938 71.542969 77.476562 72.199219 77.636719 C 72.855469 77.796875 73.488281 77.96875 74.109375 78.15625 C 74.726562 78.34375 75.320312 78.542969 75.894531 78.757812 C 76.46875 78.972656 77.019531 79.195312 77.542969 79.433594 C 78.066406 79.671875 78.566406 79.921875 79.035156 80.183594 C 79.507812 80.445312 79.949219 80.714844 80.363281 80.992188 C 80.773438 81.273438 81.15625 81.5625 81.507812 81.859375 C 81.855469 82.15625 82.171875 82.460938 82.457031 82.773438 C 82.742188 83.082031 82.992188 83.398438 83.207031 83.722656 C 83.421875 84.042969 83.601562 84.371094 83.746094 84.703125 C 83.890625 85.03125 84 85.363281 84.074219 85.699219 C 84.144531 86.035156 84.183594 86.371094 84.183594 86.707031 Z M 84.183594 86.707031 " fill-opacity="1" fill-rule="nonzero"/><path fill="#1a1a18" d="M 84.183594 86.707031 C 84.183594 87.046875 84.144531 87.382812 84.074219 87.714844 C 84 88.050781 83.890625 88.382812 83.746094 88.714844 C 83.601562 89.046875 83.421875 89.371094 83.207031 89.695312 C 82.992188 90.015625 82.742188 90.332031 82.457031 90.644531 C 82.171875 90.957031 81.855469 91.257812 81.507812 91.558594 C 81.15625 91.855469 80.773438 92.140625 80.363281 92.421875 C 79.949219 92.703125 79.507812 92.972656 79.035156 93.234375 C 78.566406 93.492188 78.066406 93.742188 77.542969 93.980469 C 77.019531 94.21875 76.46875 94.445312 75.894531 94.660156 C 75.320312 94.871094 74.726562 95.074219 74.109375 95.261719 C 73.488281 95.449219 72.855469 95.621094 72.199219 95.777344 C 71.542969 95.9375 70.875 96.082031 70.1875 96.210938 C 69.503906 96.339844 68.804688 96.453125 68.09375 96.550781 C 67.382812 96.648438 66.664062 96.730469 65.933594 96.796875 C 65.207031 96.863281 64.472656 96.910156 63.734375 96.945312 C 62.996094 96.976562 62.253906 96.992188 61.511719 96.992188 C 60.769531 96.992188 60.027344 96.976562 59.289062 96.945312 C 58.550781 96.910156 57.816406 96.863281 57.089844 96.796875 C 56.363281 96.730469 55.640625 96.648438 54.929688 96.550781 C 54.222656 96.453125 53.523438 96.339844 52.835938 96.210938 C 52.152344 96.082031 51.480469 95.9375 50.824219 95.777344 C 50.171875 95.621094 49.535156 95.449219 48.917969 95.261719 C 48.300781 95.074219 47.703125 94.871094 47.128906 94.660156 C 46.554688 94.445312 46.007812 94.21875 45.480469 93.980469 C 44.957031 93.742188 44.457031 93.492188 43.988281 93.234375 C 43.515625 92.972656 43.074219 92.703125 42.664062 92.421875 C 42.25 92.140625 41.867188 91.855469 41.519531 91.558594 C 41.167969 91.257812 40.851562 90.957031 40.566406 90.644531 C 40.285156 90.332031 40.035156 90.015625 39.816406 89.695312 C 39.601562 89.371094 39.421875 89.046875 39.277344 88.714844 C 39.132812 88.382812 39.023438 88.050781 38.949219 87.714844 C 38.878906 87.382812 38.84375 87.046875 38.84375 86.707031 C 38.84375 86.371094 38.878906 86.035156 38.949219 85.699219 C 39.023438 85.363281 39.132812 85.03125 39.277344 84.703125 C 39.421875 84.371094 39.601562 84.042969 39.816406 83.722656 C 40.035156 83.398438 40.285156 83.082031 40.566406 82.773438 C 40.851562 82.460938 41.167969 82.15625 41.519531 81.859375 C 41.867188 81.5625 42.25 81.273438 42.664062 80.992188 C 43.074219 80.714844 43.515625 80.445312 43.988281 80.183594 C 44.457031 79.921875 44.957031 79.671875 45.480469 79.433594 C 46.007812 79.195312 46.554688 78.972656 47.128906 78.757812 C 47.703125 78.542969 48.300781 78.34375 48.917969 78.15625 C 49.535156 77.96875 50.171875 77.796875 50.824219 77.636719 C 51.480469 77.480469 52.152344 77.335938 52.835938 77.207031 C 53.523438 77.078125 54.222656 76.964844 54.929688 76.867188 C 55.640625 76.769531 56.363281 76.6875 57.089844 76.621094 C 57.816406 76.554688 58.550781 76.503906 59.289062 76.472656 C 60.027344 76.4375 60.769531 76.421875 61.511719 76.421875 C 62.253906 76.421875 62.996094 76.4375 63.734375 76.472656 C 64.472656 76.503906 65.207031 76.554688 65.933594 76.621094 C 66.664062 76.6875 67.382812 76.769531 68.09375 76.867188 C 68.804688 76.964844 69.503906 77.078125 70.1875 77.207031 C 70.875 77.335938 71.542969 77.476562 72.199219 77.636719 C 72.855469 77.796875 73.488281 77.96875 74.109375 78.15625 C 74.726562 78.34375 75.320312 78.542969 75.894531 78.757812 C 76.46875 78.972656 77.019531 79.195312 77.542969 79.433594 C 78.066406 79.671875 78.566406 79.921875 79.035156 80.183594 C 79.507812 80.445312 79.949219 80.714844 80.363281 80.992188 C 80.773438 81.273438 81.15625 81.5625 81.507812 81.859375 C 81.855469 82.15625 82.171875 82.460938 82.457031 82.773438 C 82.742188 83.082031 82.992188 83.398438 83.207031 83.722656 C 83.421875 84.042969 83.601562 84.371094 83.746094 84.703125 C 83.890625 85.03125 84 85.363281 84.074219 85.699219 C 84.144531 86.035156 84.183594 86.371094 84.183594 86.707031 Z M 84.183594 86.707031 " fill-opacity="0.1373" fill-rule="nonzero"/><path fill="#f3cb09" d="M 45.851562 72.308594 C 45.851562 72.308594 44.421875 87.277344 54.625 90.800781 C 54.625 90.800781 58.917969 92.039062 67.117188 91.183594 C 75.316406 90.324219 79.378906 73.730469 77.964844 72.308594 Z M 45.851562 72.308594 " fill-opacity="1" fill-rule="nonzero"/><path fill="#a60d86" d="M 61.207031 82.890625 C 53.304688 82.710938 48.84375 81.296875 46.339844 79.863281 C 47.207031 84.140625 49.375 88.984375 54.628906 90.800781 C 54.628906 90.800781 58.921875 92.039062 67.121094 91.183594 C 72.144531 90.65625 75.613281 84.222656 77.222656 78.992188 C 74.351562 81.066406 69.429688 83.078125 61.207031 82.890625 Z M 61.207031 82.890625 " fill-opacity="1" fill-rule="nonzero"/><path fill="#f3cb09" d="M 77.964844 72.308594 C 77.964844 72.726562 77.863281 73.140625 77.65625 73.554688 C 77.453125 73.964844 77.148438 74.363281 76.742188 74.753906 C 76.339844 75.140625 75.84375 75.507812 75.261719 75.855469 C 74.675781 76.207031 74.007812 76.527344 73.261719 76.824219 C 72.515625 77.121094 71.707031 77.386719 70.828125 77.621094 C 69.953125 77.851562 69.027344 78.050781 68.054688 78.210938 C 67.078125 78.371094 66.074219 78.492188 65.042969 78.574219 C 64.007812 78.65625 62.964844 78.695312 61.910156 78.695312 C 60.855469 78.695312 59.8125 78.65625 58.777344 78.574219 C 57.742188 78.492188 56.738281 78.371094 55.765625 78.210938 C 54.789062 78.050781 53.867188 77.851562 52.988281 77.621094 C 52.113281 77.386719 51.300781 77.121094 50.554688 76.824219 C 49.808594 76.527344 49.144531 76.207031 48.558594 75.855469 C 47.972656 75.507812 47.480469 75.140625 47.074219 74.753906 C 46.671875 74.363281 46.367188 73.964844 46.160156 73.554688 C 45.957031 73.140625 45.851562 72.726562 45.851562 72.308594 C 45.851562 71.886719 45.957031 71.472656 46.160156 71.058594 C 46.367188 70.648438 46.671875 70.25 47.074219 69.863281 C 47.480469 69.472656 47.972656 69.105469 48.558594 68.757812 C 49.144531 68.40625 49.808594 68.085938 50.554688 67.789062 C 51.300781 67.492188 52.113281 67.226562 52.988281 66.992188 C 53.867188 66.761719 54.789062 66.5625 55.765625 66.402344 C 56.738281 66.242188 57.742188 66.121094 58.777344 66.039062 C 59.8125 65.957031 60.855469 65.917969 61.910156 65.917969 C 62.964844 65.917969 64.007812 65.957031 65.042969 66.039062 C 66.074219 66.121094 67.078125 66.242188 68.054688 66.402344 C 69.027344 66.5625 69.953125 66.761719 70.828125 66.992188 C 71.707031 67.226562 72.515625 67.492188 73.261719 67.789062 C 74.007812 68.085938 74.675781 68.40625 75.261719 68.757812 C 75.84375 69.105469 76.339844 69.472656 76.742188 69.863281 C 77.148438 70.25 77.453125 70.648438 77.65625 71.058594 C 77.863281 71.472656 77.964844 71.886719 77.964844 72.308594 Z M 77.964844 72.308594 " fill-opacity="1" fill-rule="nonzero"/><path fill="#1a1a18" d="M 77.988281 72.214844 C 77.988281 72.632812 77.886719 73.050781 77.679688 73.460938 C 77.476562 73.871094 77.171875 74.273438 76.765625 74.660156 C 76.363281 75.046875 75.867188 75.414062 75.28125 75.765625 C 74.699219 76.113281 74.03125 76.4375 73.285156 76.730469 C 72.539062 77.027344 71.730469 77.292969 70.851562 77.527344 C 69.976562 77.761719 69.050781 77.957031 68.078125 78.117188 C 67.101562 78.277344 66.097656 78.398438 65.066406 78.480469 C 64.03125 78.5625 62.988281 78.605469 61.933594 78.605469 C 60.878906 78.605469 59.835938 78.5625 58.800781 78.480469 C 57.765625 78.398438 56.761719 78.277344 55.789062 78.117188 C 54.8125 77.957031 53.890625 77.761719 53.011719 77.527344 C 52.136719 77.292969 51.324219 77.027344 50.578125 76.730469 C 49.832031 76.4375 49.167969 76.113281 48.582031 75.765625 C 47.996094 75.414062 47.503906 75.046875 47.097656 74.660156 C 46.695312 74.273438 46.390625 73.871094 46.183594 73.460938 C 45.980469 73.050781 45.875 72.632812 45.875 72.214844 C 45.875 71.792969 45.980469 71.378906 46.183594 70.96875 C 46.390625 70.554688 46.695312 70.15625 47.097656 69.769531 C 47.503906 69.378906 47.996094 69.011719 48.582031 68.664062 C 49.167969 68.316406 49.832031 67.992188 50.578125 67.695312 C 51.324219 67.398438 52.136719 67.132812 53.011719 66.902344 C 53.890625 66.667969 54.8125 66.46875 55.789062 66.308594 C 56.761719 66.148438 57.765625 66.027344 58.800781 65.945312 C 59.835938 65.863281 60.878906 65.824219 61.933594 65.824219 C 62.988281 65.824219 64.03125 65.863281 65.066406 65.945312 C 66.097656 66.027344 67.101562 66.148438 68.078125 66.308594 C 69.050781 66.46875 69.976562 66.667969 70.851562 66.902344 C 71.730469 67.132812 72.539062 67.398438 73.285156 67.695312 C 74.03125 67.992188 74.699219 68.316406 75.28125 68.664062 C 75.867188 69.011719 76.363281 69.378906 76.765625 69.769531 C 77.171875 70.15625 77.476562 70.554688 77.679688 70.96875 C 77.886719 71.378906 77.988281 71.792969 77.988281 72.214844 Z M 77.988281 72.214844 " fill-opacity="0.0667" fill-rule="nonzero"/><path fill="#1a1a18" d="M 66.449219 75.75 C 57.582031 75.75 50.394531 72.886719 50.394531 69.359375 C 50.394531 68.757812 50.609375 68.171875 51 67.621094 C 47.839844 68.789062 45.855469 70.457031 45.855469 72.308594 C 45.855469 75.835938 53.042969 78.695312 61.910156 78.695312 C 69.265625 78.695312 75.460938 76.730469 77.359375 74.042969 C 74.496094 75.101562 70.664062 75.75 66.449219 75.75 Z M 66.449219 75.75 " fill-opacity="0.0667" fill-rule="nonzero"/><path fill="#07d9c4" d="M 61.207031 82.890625 C 58.0625 82.816406 55.460938 82.550781 53.3125 82.164062 C 55.191406 84.816406 58.75 89.546875 61.519531 91.484375 C 61.964844 91.484375 62.433594 91.476562 62.925781 91.464844 C 64.5 90.089844 68.699219 86.136719 69.632812 82.183594 C 67.304688 82.6875 64.523438 82.96875 61.207031 82.890625 Z M 61.207031 82.890625 " fill-opacity="1" fill-rule="nonzero"/></svg>