<svg xmlns="http://www.w3.org/2000/svg" xmlns:xlink="http://www.w3.org/1999/xlink" width="200" zoomAndPan="magnify" viewBox="0 0 150 112.499997" height="150" preserveAspectRatio="xMidYMid meet" version="1.0"><defs><clipPath id="ba64544319"><path d="M 77 42 L 118 42 L 118 80.640625 L 77 80.640625 Z M 77 42 " clip-rule="nonzero"/></clipPath><clipPath id="26a5d50669"><path d="M 96 42 L 118 42 L 118 80.640625 L 96 80.640625 Z M 96 42 " clip-rule="nonzero"/></clipPath><clipPath id="e53cb8973f"><path d="M 76 42 L 118.640625 42 L 118.640625 52 L 76 52 Z M 76 42 " clip-rule="nonzero"/></clipPath><clipPath id="50bb96981d"><path d="M 76 36 L 118.640625 36 L 118.640625 49 L 76 49 Z M 76 36 " clip-rule="nonzero"/></clipPath><clipPath id="e4d0c16033"><path d="M 88 11.199219 L 105 11.199219 L 105 36 L 88 36 Z M 88 11.199219 " clip-rule="nonzero"/></clipPath><clipPath id="669671bc8e"><path d="M 88 11.199219 L 103 11.199219 L 103 36 L 88 36 Z M 88 11.199219 " clip-rule="nonzero"/></clipPath><clipPath id="9cf380eac7"><path d="M 34 58 L 85 58 L 85 100.621094 L 34 100.621094 Z M 34 58 " clip-rule="nonzero"/></clipPath><clipPath id="b1298b37eb"><path d="M 35 67 L 78 67 L 78 100.621094 L 35 100.621094 Z M 35 67 " clip-rule="nonzero"/></clipPath><clipPath id="4e55c60c47"><path d="M 58 58 L 85 58 L 85 100.621094 L 58 100.621094 Z M 58 58 " clip-rule="nonzero"/></clipPath><clipPath id="bc191a7c11"><path d="M 30.199219 59 L 88.441406 59 L 88.441406 96 L 30.199219 96 Z M 30.199219 59 " clip-rule="nonzero"/></clipPath><clipPath id="9b728d49c8"><path d="M 30.199219 60 L 88 60 L 88 96 L 30.199219 96 Z M 30.199219 60 " clip-rule="nonzero"/></clipPath></defs><g clip-path="url(#ba64544319)"><path fill="#35aadb" d="M 117.066406 42.285156 L 112.753906 76.976562 L 112.648438 76.976562 C 111.816406 78.902344 106.167969 80.4375 99.058594 80.636719 C 98.53125 80.648438 98.003906 80.648438 97.460938 80.648438 C 89.613281 80.648438 83.148438 79.046875 82.277344 76.976562 L 82.171875 76.976562 L 82.160156 76.820312 L 78.9375 49.785156 L 78.898438 49.507812 L 77.855469 42.28125 L 117.066406 42.28125 Z M 117.066406 42.285156 " fill-opacity="1" fill-rule="nonzero"/></g><path fill="#ffffff" d="M 108.265625 73.558594 C 107.597656 77.929688 104.910156 78.59375 100.839844 78.625 C 92.980469 78.738281 89.246094 79.578125 82.160156 76.820312 L 78.941406 49.789062 L 78.902344 49.507812 C 89.15625 52.835938 94.734375 53.011719 106.488281 52.109375 C 107.210938 52.054688 109.191406 51.511719 109.570312 52.5 C 109.761719 53 109.195312 54.363281 109.09375 54.90625 C 107.230469 64.621094 108.703125 70.539062 108.265625 73.558594 Z M 108.265625 73.558594 " fill-opacity="0.098" fill-rule="nonzero"/><g clip-path="url(#26a5d50669)"><path fill="#444445" d="M 117.058594 42.285156 L 112.75 76.980469 L 112.644531 76.980469 C 111.757812 79.050781 105.300781 80.652344 97.457031 80.652344 C 97.144531 80.652344 96.835938 80.648438 96.527344 80.644531 C 103.941406 80.523438 109.933594 78.96875 110.785156 76.980469 L 110.890625 76.980469 L 115.195312 42.285156 Z M 117.058594 42.285156 " fill-opacity="0.098" fill-rule="nonzero"/></g><path fill="#ffffff" d="M 87.601562 42.285156 L 87.601562 79.675781 C 86.074219 79.324219 84.804688 78.890625 83.875 78.40625 C 83.042969 77.96875 82.488281 77.488281 82.269531 76.980469 L 82.164062 76.980469 L 77.863281 42.285156 Z M 87.601562 42.285156 " fill-opacity="0.098" fill-rule="nonzero"/><path fill="#ffffff" d="M 83.875 42.285156 L 83.875 78.40625 C 83.042969 77.96875 82.488281 77.488281 82.269531 76.980469 L 82.164062 76.980469 L 77.863281 42.285156 Z M 83.875 42.285156 " fill-opacity="0.098" fill-rule="nonzero"/><g clip-path="url(#e53cb8973f)"><path fill="#58b2e4" d="M 118.453125 42.59375 L 118.453125 45.542969 C 118.453125 48.695312 109.050781 51.25 97.457031 51.25 C 85.863281 51.25 76.464844 48.695312 76.464844 45.542969 L 76.464844 42.59375 C 76.464844 45.746094 85.863281 48.304688 97.457031 48.304688 C 109.050781 48.304688 118.453125 45.746094 118.453125 42.59375 Z M 118.453125 42.59375 " fill-opacity="1" fill-rule="nonzero"/></g><g clip-path="url(#50bb96981d)"><path fill="#79c2e2" d="M 118.453125 42.59375 C 118.453125 45.746094 109.050781 48.304688 97.457031 48.304688 C 85.863281 48.304688 76.464844 45.75 76.464844 42.59375 C 76.464844 42.546875 76.46875 42.496094 76.472656 42.445312 C 76.765625 39.363281 86.046875 36.886719 97.457031 36.886719 C 108.59375 36.886719 117.703125 39.246094 118.40625 42.222656 C 118.4375 42.347656 118.453125 42.46875 118.453125 42.59375 Z M 118.453125 42.59375 " fill-opacity="1" fill-rule="nonzero"/></g><path fill="#35aadb" d="M 115.90625 43.285156 C 115.90625 47.335938 101.527344 48.300781 97.464844 48.300781 C 93.070312 48.300781 79.007812 47.355469 79.007812 43.285156 C 79.007812 39.199219 93.199219 38.265625 97.277344 38.265625 C 100.972656 38.484375 115.90625 39.136719 115.90625 43.285156 Z M 115.90625 43.285156 " fill-opacity="1" fill-rule="nonzero"/><path fill="#f7ba49" d="M 80.035156 49.957031 C 80.035156 49.957031 96.789062 57.367188 81.855469 77.714844 L 72.527344 75.644531 L 73.894531 53.964844 Z M 80.035156 49.957031 " fill-opacity="1" fill-rule="nonzero"/><path fill="#fbd187" d="M 79.859375 79.441406 L 68.238281 77.933594 C 67.679688 77.859375 67.214844 77.488281 67.023438 76.960938 C 65.515625 72.835938 59.925781 54.941406 73.207031 47.144531 L 77.761719 47.003906 C 77.761719 47.003906 91.402344 56.835938 81.429688 78.574219 C 81.152344 79.171875 80.507812 79.527344 79.859375 79.441406 Z M 79.859375 79.441406 " fill-opacity="1" fill-rule="nonzero"/><path fill="#fbd187" d="M 81.4375 78.570312 C 81.160156 79.128906 80.554688 79.492188 79.9375 79.445312 C 80.46875 79.410156 80.9375 79.101562 81.144531 78.628906 C 85.222656 69.714844 85.152344 62.914062 83.746094 58.046875 C 81.867188 51.574219 77.640625 48.519531 77.640625 48.519531 L 73.308594 48.65625 C 60.644531 56.078125 65.972656 73.140625 67.398438 77.078125 C 67.398438 77.09375 67.398438 77.09375 67.417969 77.113281 C 67.566406 77.484375 67.847656 77.753906 68.199219 77.914062 C 67.664062 77.84375 67.207031 77.480469 67.019531 76.953125 C 65.519531 72.832031 59.925781 54.933594 73.210938 47.144531 L 77.765625 47 C 77.769531 47 91.410156 56.84375 81.4375 78.570312 Z M 81.4375 78.570312 " fill-opacity="1" fill-rule="nonzero"/><path fill="#f7ba49" d="M 83.75 58.046875 C 82.945312 57.605469 82.113281 57.234375 81.230469 56.988281 C 76.71875 55.757812 74.570312 57.984375 73.097656 61.753906 C 70.167969 69.183594 68.722656 73.429688 67.417969 77.113281 C 67.402344 77.09375 67.402344 77.09375 67.398438 77.078125 C 65.972656 73.140625 60.648438 56.082031 73.308594 48.65625 L 77.640625 48.519531 C 77.644531 48.523438 81.871094 51.578125 83.75 58.046875 Z M 83.75 58.046875 " fill-opacity="1" fill-rule="nonzero"/><path fill="#fbd187" d="M 74.445312 51.410156 C 74.445312 51.410156 77.785156 52.394531 77.769531 47 L 78.347656 38.902344 L 73.089844 38.824219 L 72.59375 49.074219 C 72.589844 49.074219 72.429688 51.199219 74.445312 51.410156 Z M 74.445312 51.410156 " fill-opacity="1" fill-rule="nonzero"/><path fill="#fbd187" d="M 83.71875 14.410156 L 70.878906 14.414062 C 70.878906 14.414062 69.183594 13.96875 68.546875 17.15625 L 68.429688 21.105469 C 68.429688 21.105469 68.386719 27.550781 73.679688 29.054688 L 73.089844 38.824219 L 78.339844 38.902344 L 79.074219 29.371094 C 79.074219 29.371094 84.410156 28.445312 85.214844 18.996094 C 85.214844 18.996094 85.726562 14.519531 83.71875 14.410156 Z M 75.507812 25.789062 C 74.210938 25.046875 72.132812 23.128906 73.324219 18.730469 L 80.226562 18.515625 C 80.226562 18.515625 81.554688 23.492188 77.363281 25.773438 C 76.785156 26.089844 76.082031 26.113281 75.507812 25.789062 Z M 75.507812 25.789062 " fill-opacity="1" fill-rule="nonzero"/><path fill="#35aadb" d="M 83.71875 14.410156 L 70.878906 14.414062 C 70.878906 14.414062 70.585938 14.335938 70.195312 14.472656 C 69.652344 14.675781 68.914062 15.285156 68.546875 17.15625 L 68.429688 21.105469 C 68.429688 21.105469 68.386719 27.550781 73.679688 29.054688 L 73.089844 38.824219 L 76.519531 38.875 L 78.339844 38.902344 L 79.074219 29.367188 C 79.074219 29.367188 84.410156 28.445312 85.214844 18.992188 C 85.214844 18.996094 85.726562 14.519531 83.71875 14.410156 Z M 75.570312 25.808594 C 75.550781 25.808594 75.535156 25.8125 75.515625 25.792969 C 74.207031 25.042969 72.144531 23.125 73.328125 18.730469 L 80.226562 18.515625 C 80.226562 18.515625 81.546875 23.488281 77.367188 25.769531 C 76.792969 26.082031 76.109375 26.121094 75.570312 25.808594 Z M 75.570312 25.808594 " fill-opacity="1" fill-rule="nonzero"/><path fill="#ffffff" d="M 81.886719 14.464844 L 70.195312 14.472656 C 69.652344 14.675781 68.914062 15.285156 68.546875 17.15625 L 68.429688 21.105469 C 68.429688 21.105469 68.386719 27.550781 73.679688 29.054688 L 73.089844 38.824219 L 76.519531 38.875 L 77.242188 29.425781 C 77.242188 29.425781 82.578125 28.503906 83.382812 19.054688 C 83.382812 19.054688 83.894531 14.574219 81.886719 14.464844 Z M 77.367188 25.769531 C 76.792969 26.082031 75.605469 26.996094 73.683594 25.851562 C 72.386719 25.078125 70.308594 23.183594 71.492188 18.789062 L 80.226562 18.515625 C 80.226562 18.515625 81.550781 23.488281 77.367188 25.769531 Z M 77.367188 25.769531 " fill-opacity="0.149" fill-rule="nonzero"/><path fill="#ffffff" d="M 74 37.976562 L 74.578125 28.417969 L 73.914062 28.226562 C 69.300781 26.914062 69.285156 21.167969 69.285156 21.113281 L 69.402344 17.183594 C 69.59375 16.269531 69.941406 15.582031 70.382812 15.332031 L 81.886719 15.328125 C 81.933594 15.332031 82.007812 15.355469 82.101562 15.46875 C 82.601562 16.0625 82.65625 17.867188 82.53125 18.957031 C 81.796875 27.570312 77.277344 28.542969 77.085938 28.578125 L 76.445312 28.703125 L 76.386719 29.359375 L 75.730469 38 Z M 70.667969 18.5625 C 69.355469 23.429688 71.722656 25.683594 73.25 26.59375 C 74.042969 27.066406 74.835938 27.296875 75.605469 27.269531 C 76.546875 27.242188 77.222656 26.847656 77.625 26.613281 L 77.777344 26.527344 C 81.554688 24.464844 81.574219 20.238281 81.058594 18.292969 L 80.878906 17.632812 L 70.832031 17.945312 Z M 70.667969 18.5625 " fill-opacity="0.149" fill-rule="nonzero"/><path fill="#f7ba49" d="M 97.464844 48.300781 C 96.664062 48.300781 95.863281 48.289062 95.089844 48.257812 L 98.609375 45.945312 L 99.109375 45.628906 C 99.109375 45.628906 99.480469 45.785156 100.054688 46.128906 C 100.054688 46.128906 100.066406 46.128906 100.066406 46.144531 C 100.710938 46.535156 101.640625 47.164062 102.585938 48.042969 C 102.15625 48.085938 101.726562 48.113281 101.328125 48.144531 C 100.984375 48.171875 100.640625 48.1875 100.3125 48.214844 C 99.195312 48.273438 98.207031 48.300781 97.464844 48.300781 Z M 97.464844 48.300781 " fill-opacity="1" fill-rule="nonzero"/><path fill="#fbd187" d="M 88.695312 47.699219 C 88.292969 47.640625 87.90625 47.582031 87.535156 47.527344 C 88.652344 45.929688 90.136719 44.476562 92.070312 43.269531 C 92.242188 43.140625 92.414062 43.039062 92.585938 42.9375 L 96.949219 42.808594 C 96.949219 42.808594 97.277344 43.054688 97.808594 43.542969 C 97.878906 43.613281 97.964844 43.6875 98.035156 43.773438 C 98.292969 44.003906 98.566406 44.289062 98.867188 44.636719 C 99.238281 45.066406 99.652344 45.554688 100.054688 46.128906 C 100.054688 46.128906 100.066406 46.128906 100.066406 46.144531 C 100.484375 46.71875 100.910156 47.394531 101.328125 48.144531 C 100.984375 48.171875 100.640625 48.1875 100.3125 48.214844 C 99.195312 48.273438 98.207031 48.300781 97.464844 48.300781 C 96.664062 48.300781 95.863281 48.289062 95.089844 48.257812 C 92.800781 48.1875 90.640625 47.984375 88.695312 47.699219 Z M 88.695312 47.699219 " fill-opacity="1" fill-rule="nonzero"/><path fill="#fbd187" d="M 100.3125 48.214844 C 99.738281 47.296875 99.136719 46.546875 98.609375 45.945312 C 97.707031 44.953125 97.007812 44.390625 96.847656 44.277344 C 96.835938 44.277344 96.820312 44.261719 96.820312 44.261719 L 92.683594 44.390625 C 92.457031 44.535156 92.226562 44.664062 92 44.835938 C 90.683594 45.671875 89.59375 46.648438 88.695312 47.699219 C 88.292969 47.640625 87.90625 47.582031 87.535156 47.527344 C 88.652344 45.929688 90.136719 44.476562 92.070312 43.269531 C 92.242188 43.140625 92.414062 43.039062 92.585938 42.9375 L 96.949219 42.808594 C 96.949219 42.808594 97.277344 43.054688 97.808594 43.542969 C 97.878906 43.613281 97.964844 43.6875 98.035156 43.773438 C 98.292969 44.003906 98.566406 44.289062 98.867188 44.636719 C 99.238281 45.066406 99.652344 45.554688 100.054688 46.128906 C 100.054688 46.128906 100.066406 46.128906 100.066406 46.144531 C 100.484375 46.71875 100.910156 47.394531 101.328125 48.144531 C 100.984375 48.171875 100.640625 48.1875 100.3125 48.214844 Z M 100.3125 48.214844 " fill-opacity="1" fill-rule="nonzero"/><path fill="#f7ba49" d="M 100.3125 48.214844 C 96.234375 48.425781 92.195312 48.214844 88.695312 47.699219 C 89.957031 46.230469 91.128906 45.367188 92.683594 44.390625 L 96.820312 44.261719 C 96.820312 44.261719 96.835938 44.277344 96.847656 44.277344 C 97.804688 44.976562 99.257812 46.523438 100.3125 48.214844 Z M 100.3125 48.214844 " fill-opacity="1" fill-rule="nonzero"/><path fill="#fbd187" d="M 93.769531 47.019531 C 93.769531 47.019531 96.960938 47.960938 96.945312 42.800781 L 97.5 35.058594 L 92.472656 34.984375 L 91.996094 44.785156 C 91.996094 44.785156 91.84375 46.816406 93.769531 47.019531 Z M 93.769531 47.019531 " fill-opacity="1" fill-rule="nonzero"/><g clip-path="url(#e4d0c16033)"><path fill="#fbd187" d="M 102.644531 11.640625 L 90.351562 11.640625 C 90.351562 11.640625 90.082031 11.566406 89.710938 11.699219 C 89.636719 11.726562 89.582031 11.753906 89.507812 11.796875 C 89.4375 11.828125 89.367188 11.871094 89.292969 11.925781 C 89.238281 11.972656 89.195312 12 89.152344 12.058594 C 89.09375 12.101562 89.050781 12.144531 89.007812 12.199219 C 88.894531 12.316406 88.808594 12.445312 88.722656 12.601562 C 88.664062 12.675781 88.621094 12.761719 88.578125 12.847656 C 88.492188 13.019531 88.40625 13.222656 88.335938 13.464844 C 88.292969 13.59375 88.25 13.710938 88.222656 13.855469 C 88.179688 13.984375 88.148438 14.128906 88.121094 14.269531 L 88.019531 18.039062 C 88.019531 18.238281 88.0625 24.234375 93.042969 25.644531 L 92.46875 34.988281 L 95.746094 35.03125 L 97.492188 35.058594 L 98.195312 25.945312 C 98.195312 25.945312 103.300781 25.054688 104.074219 16.023438 C 104.074219 16.023438 104.558594 11.742188 102.644531 11.640625 Z M 95.632812 22.738281 C 95.488281 22.738281 95.347656 22.726562 95.203125 22.683594 C 95.074219 22.652344 94.960938 22.609375 94.84375 22.539062 C 94.832031 22.539062 94.800781 22.539062 94.789062 22.523438 C 93.542969 21.804688 91.570312 19.980469 92.699219 15.765625 L 99.296875 15.566406 C 99.296875 15.566406 100.554688 20.324219 96.5625 22.507812 C 96.277344 22.667969 95.945312 22.738281 95.632812 22.738281 Z M 95.632812 22.738281 " fill-opacity="1" fill-rule="nonzero"/><path fill="#ea715f" d="M 102.644531 11.640625 L 90.351562 11.640625 C 90.1875 11.726562 88.734375 11.195312 88.121094 14.269531 L 88.019531 18.039062 C 88.019531 18.238281 88.0625 24.234375 93.042969 25.644531 L 92.46875 34.988281 L 95.746094 35.03125 L 97.492188 35.058594 L 98.195312 25.945312 C 98.195312 25.945312 103.300781 25.054688 104.074219 16.023438 C 104.074219 16.023438 104.558594 11.742188 102.644531 11.640625 Z M 95.632812 22.738281 C 94.148438 22.738281 91.464844 20.367188 92.699219 15.765625 L 99.296875 15.566406 C 99.296875 15.566406 100.554688 20.324219 96.5625 22.507812 C 96.277344 22.667969 95.945312 22.738281 95.632812 22.738281 Z M 95.632812 22.738281 " fill-opacity="1" fill-rule="nonzero"/></g><g clip-path="url(#669671bc8e)"><path fill="#ffffff" d="M 100.882812 11.699219 L 89.710938 11.699219 C 88.742188 12.085938 88.324219 13.246094 88.121094 14.269531 L 88.019531 18.039062 C 88.019531 18.238281 88.0625 24.234375 93.042969 25.644531 L 92.46875 34.988281 L 95.746094 35.03125 L 96.449219 26.003906 C 96.449219 26.003906 101.542969 25.113281 102.3125 16.082031 C 102.3125 16.082031 102.800781 11.796875 100.882812 11.699219 Z M 96.5625 22.507812 C 96.019531 22.796875 94.875 23.671875 93.042969 22.582031 C 91.796875 21.847656 89.808594 20.023438 90.941406 15.824219 L 92.699219 15.765625 L 99.296875 15.566406 C 99.296875 15.566406 100.554688 20.324219 96.5625 22.507812 Z M 96.5625 22.507812 " fill-opacity="0.149" fill-rule="nonzero"/></g><path fill="#ffffff" d="M 101.082031 12.648438 C 100.996094 12.546875 100.925781 12.515625 100.882812 12.515625 L 89.882812 12.515625 C 89.464844 12.761719 89.121094 13.421875 88.953125 14.285156 L 88.835938 18.050781 C 88.835938 24.371094 93.796875 24.894531 93.902344 25.039062 L 93.34375 34.167969 L 94.988281 34.199219 C 95 34.050781 95.71875 24.746094 95.675781 25.3125 C 101.613281 24.046875 102.210938 13.980469 101.082031 12.648438 Z M 94.875 23.933594 C 88.164062 24.195312 90.34375 15.164062 90.308594 15.019531 L 99.925781 14.71875 C 99.886719 14.859375 101.625 23.71875 94.875 23.933594 Z M 94.875 23.933594 " fill-opacity="0.149" fill-rule="nonzero"/><path fill="#ffffff" d="M 95.554688 35.625 C 96.257812 35.621094 96.652344 35.828125 96.519531 36.941406 C 96.375 38.136719 96.253906 39.066406 95.585938 44.273438 C 95.554688 44.53125 95.519531 44.796875 95.386719 45.019531 C 95.089844 45.515625 93.960938 45.976562 93.371094 45.738281 C 92.691406 45.460938 92.601562 44.644531 92.585938 43.960938 C 92.539062 41.75 92.78125 39.085938 93.070312 36.898438 C 93.121094 36.515625 93.144531 36.011719 93.496094 35.773438 C 93.988281 35.429688 94.988281 35.625 95.554688 35.625 Z M 95.554688 35.625 " fill-opacity="0.2471" fill-rule="nonzero"/><path fill="#ffffff" d="M 94.144531 36.851562 C 94.410156 36.492188 94.910156 36.207031 95.292969 36.433594 C 95.679688 36.667969 95.664062 37.230469 95.597656 37.675781 C 94.742188 43.492188 94.773438 43.613281 94.523438 44.070312 C 94.273438 44.535156 93.652344 44.925781 93.171875 44.527344 C 92.765625 44.191406 93.105469 43.808594 93.167969 43.394531 C 93.609375 40.582031 93.210938 38.117188 94.144531 36.851562 Z M 94.144531 36.851562 " fill-opacity="0.2471" fill-rule="nonzero"/><path fill="#ffffff" d="M 73.335938 47.578125 C 73.328125 48.386719 73.332031 49.230469 73.695312 49.949219 C 73.847656 50.25 74.070312 50.53125 74.378906 50.667969 C 74.988281 50.941406 75.722656 50.558594 76.078125 49.992188 C 76.433594 49.425781 76.5 48.730469 76.554688 48.066406 C 76.726562 46.050781 76.898438 44.039062 77.070312 42.027344 C 77.105469 41.585938 77.140625 41.132812 76.992188 40.71875 C 76.777344 40.121094 76.199219 39.707031 75.59375 39.527344 C 75.082031 39.378906 74.148438 39.191406 73.6875 39.578125 C 73.171875 40.011719 73.390625 41.101562 73.386719 41.683594 C 73.371094 43.648438 73.351562 45.613281 73.335938 47.578125 Z M 73.335938 47.578125 " fill-opacity="0.2471" fill-rule="nonzero"/><path fill="#ffffff" d="M 74.039062 63.96875 C 74.703125 62.074219 75.429688 59.964844 77.195312 59.023438 C 78.429688 58.363281 79.929688 58.4375 81.289062 58.773438 C 82.921875 59.175781 83.582031 59.886719 83.414062 62.148438 C 83.140625 65.847656 82.25 69.472656 81.363281 73.078125 C 81.078125 74.234375 80.789062 75.394531 80.449219 76.535156 C 80.3125 76.992188 80.144531 77.476562 79.761719 77.761719 C 79.414062 78.023438 78.953125 78.066406 78.519531 78.089844 C 75.5 78.25 72.453125 77.941406 69.523438 77.175781 C 69.152344 77.074219 68.320312 76.835938 68.285156 76.339844 C 68.257812 75.976562 68.972656 75.136719 69.160156 74.796875 C 69.808594 73.636719 70.425781 72.457031 71.003906 71.261719 C 72.15625 68.890625 73.167969 66.453125 74.039062 63.96875 Z M 74.039062 63.96875 " fill-opacity="0.149" fill-rule="nonzero"/><path fill="#ffffff" d="M 73.03125 70.738281 C 73.710938 68.328125 74.804688 66.0625 75.894531 63.8125 C 78.101562 59.257812 81.328125 59.878906 81.976562 60.96875 C 82.28125 61.480469 82.167969 62.125 82.050781 62.707031 C 81.238281 66.652344 80.421875 70.605469 79.25 74.460938 C 78.703125 76.246094 78.121094 76.570312 76.457031 76.558594 C 75.144531 76.550781 73.828125 76.542969 72.515625 76.53125 C 70.335938 76.519531 69.890625 75.425781 70.386719 74.851562 C 71.632812 73.425781 71.96875 74.492188 73.03125 70.738281 Z M 73.03125 70.738281 " fill-opacity="0.149" fill-rule="nonzero"/><path fill="#ffffff" d="M 74.554688 40.730469 C 74.699219 40.519531 74.921875 40.34375 75.175781 40.324219 C 75.515625 40.292969 75.832031 40.542969 75.988281 40.847656 C 76.714844 42.296875 75.625 49.226562 75.070312 49.796875 C 74.84375 50.035156 74.414062 49.929688 74.210938 49.671875 C 73.820312 49.164062 73.359375 42.535156 74.554688 40.730469 Z M 74.554688 40.730469 " fill-opacity="0.2471" fill-rule="nonzero"/><g clip-path="url(#9cf380eac7)"><path fill="#ea715f" d="M 84.125 58.441406 L 78.675781 95.949219 L 78.542969 95.949219 C 77.484375 98.355469 70.339844 100.28125 61.347656 100.535156 C 60.679688 100.546875 60 100.558594 59.320312 100.558594 C 49.398438 100.558594 41.21875 98.539062 40.101562 95.949219 L 39.96875 95.949219 L 35.890625 67.851562 L 34.519531 58.441406 Z M 84.125 58.441406 " fill-opacity="1" fill-rule="nonzero"/></g><g clip-path="url(#b1298b37eb)"><path fill="#ffffff" d="M 76.234375 74.816406 C 75.121094 76.667969 74.441406 78.761719 74.257812 80.902344 C 73.992188 84.179688 74.804688 87.75 73.105469 90.566406 C 71.820312 92.695312 69.40625 93.820312 67.378906 95.285156 C 65.21875 96.84375 63.421875 98.875 61.347656 100.535156 C 60.679688 100.546875 60 100.558594 59.320312 100.558594 C 49.398438 100.558594 41.21875 98.539062 40.101562 95.949219 L 39.96875 95.949219 L 35.890625 67.851562 C 37.566406 68.359375 39.230469 68.890625 40.925781 69.324219 C 47.84375 71.09375 54.976562 71.949219 62.113281 71.878906 C 66.164062 71.84375 70.207031 71.492188 74.199219 70.851562 C 75.121094 70.691406 76.210938 70.585938 76.84375 71.273438 C 77.703125 72.242188 76.902344 73.71875 76.234375 74.816406 Z M 76.234375 74.816406 " fill-opacity="0.098" fill-rule="nonzero"/></g><g clip-path="url(#4e55c60c47)"><path fill="#444445" d="M 84.121094 58.4375 L 78.671875 95.945312 L 78.535156 95.945312 C 77.414062 98.542969 69.242188 100.554688 59.320312 100.554688 C 58.921875 100.554688 58.53125 100.550781 58.140625 100.546875 C 67.527344 100.394531 75.105469 98.441406 76.183594 95.945312 L 76.316406 95.945312 L 81.765625 58.4375 Z M 84.121094 58.4375 " fill-opacity="0.098" fill-rule="nonzero"/></g><path fill="#ffffff" d="M 46.847656 58.4375 L 46.847656 99.324219 C 44.914062 98.886719 43.308594 98.34375 42.132812 97.734375 C 41.082031 97.1875 40.375 96.582031 40.101562 95.945312 L 39.96875 95.945312 L 34.523438 58.4375 Z M 46.847656 58.4375 " fill-opacity="0.098" fill-rule="nonzero"/><path fill="#ffffff" d="M 42.132812 58.4375 L 42.132812 97.734375 C 41.082031 97.1875 40.375 96.582031 40.101562 95.945312 L 39.96875 95.945312 L 34.523438 58.4375 Z M 42.132812 58.4375 " fill-opacity="0.098" fill-rule="nonzero"/><path fill="#f4887e" d="M 85.882812 58.832031 L 85.882812 62.53125 C 85.882812 66.488281 73.992188 69.695312 59.320312 69.695312 C 44.648438 69.695312 32.753906 66.488281 32.753906 62.53125 L 32.753906 58.832031 C 32.753906 62.785156 44.648438 65.996094 59.320312 65.996094 C 73.992188 65.996094 85.882812 62.785156 85.882812 58.832031 Z M 85.882812 58.832031 " fill-opacity="1" fill-rule="nonzero"/><path fill="#ea715f" d="M 59.320312 65.996094 C 52.804688 65.996094 32.179688 64.476562 32.765625 58.644531 C 33.136719 54.769531 44.882812 51.664062 59.320312 51.664062 C 73.410156 51.664062 84.941406 54.625 85.828125 58.363281 C 87.234375 63.984375 68.113281 65.996094 59.320312 65.996094 Z M 59.320312 65.996094 " fill-opacity="1" fill-rule="nonzero"/><path fill="#d75548" d="M 82.667969 59.699219 C 82.667969 64.914062 64.140625 66.171875 58.15625 65.988281 C 52.835938 65.988281 35.964844 64.539062 35.964844 59.699219 C 35.964844 57.398438 40.527344 55.378906 47.359375 54.277344 C 47.820312 54.207031 48.304688 54.132812 48.789062 54.074219 C 53.222656 53.472656 58.390625 53.296875 62.101562 53.445312 C 67 53.554688 82.667969 55.050781 82.667969 59.699219 Z M 82.667969 59.699219 " fill-opacity="1" fill-rule="nonzero"/><g clip-path="url(#bc191a7c11)"><path fill="#e5e5e4" d="M 59.320312 95.730469 C 43.261719 95.730469 30.199219 82.707031 30.199219 66.699219 L 30.199219 60.9375 C 30.199219 60.234375 30.773438 59.664062 31.476562 59.664062 C 32.183594 59.664062 32.753906 60.234375 32.753906 60.9375 L 32.753906 66.699219 C 32.753906 81.300781 44.671875 93.183594 59.320312 93.183594 C 73.964844 93.183594 85.882812 81.300781 85.882812 66.699219 L 85.882812 60.9375 C 85.882812 60.234375 86.457031 59.664062 87.160156 59.664062 C 87.867188 59.664062 88.4375 60.234375 88.4375 60.9375 L 88.4375 66.699219 C 88.441406 82.707031 75.378906 95.730469 59.320312 95.730469 Z M 59.320312 95.730469 " fill-opacity="1" fill-rule="nonzero"/></g><g clip-path="url(#9b728d49c8)"><path fill="#ffffff" d="M 59.320312 95.125 C 43.597656 95.125 30.804688 82.375 30.804688 66.699219 L 30.804688 60.9375 C 30.804688 60.570312 31.105469 60.269531 31.476562 60.269531 C 31.847656 60.269531 32.148438 60.570312 32.148438 60.9375 L 32.148438 66.699219 C 32.148438 81.636719 44.339844 93.785156 59.320312 93.785156 C 74.304688 93.785156 86.492188 81.636719 86.492188 66.699219 L 86.492188 60.9375 C 86.492188 60.570312 86.792969 60.269531 87.164062 60.269531 C 87.535156 60.269531 87.835938 60.570312 87.835938 60.9375 L 87.835938 66.699219 C 87.832031 82.375 75.042969 95.125 59.320312 95.125 Z M 59.320312 95.125 " fill-opacity="0.2" fill-rule="nonzero"/></g><path fill="#ffcb66" d="M 64.019531 51.109375 C 64.019531 54.449219 62.089844 57.402344 59.226562 58.816406 C 58.207031 59.308594 57.636719 60.410156 57.757812 61.535156 C 57.902344 63.023438 58.035156 64.535156 58.15625 65.988281 C 57.132812 65.988281 54.714844 65.902344 53.109375 65.769531 C 52.941406 65.757812 52.78125 65.746094 52.625 65.734375 C 53.035156 60.878906 52.988281 61.878906 52.988281 61.511719 C 53 60.328125 52.308594 59.238281 51.242188 58.65625 C 49.523438 57.71875 48.113281 56.203125 47.359375 54.277344 C 46.777344 52.851562 46.582031 51.230469 46.886719 49.535156 C 47.492188 46.125 50.222656 43.34375 53.632812 42.679688 C 56.53125 42.109375 59.226562 42.992188 61.152344 44.722656 C 62.914062 46.296875 64.019531 48.582031 64.019531 51.109375 Z M 64.019531 51.109375 " fill-opacity="1" fill-rule="nonzero"/><path fill="#ffffff" d="M 50.183594 57.972656 C 47.714844 56.125 46.273438 52.984375 46.878906 49.53125 C 48.042969 43.011719 56.089844 40.183594 61.152344 44.71875 C 66.429688 52.027344 58.59375 61.824219 50.183594 57.972656 Z M 50.183594 57.972656 " fill-opacity="0.149" fill-rule="nonzero"/><path fill="#ffffff" d="M 58 44.316406 C 58.296875 44.53125 58.5625 44.777344 58.796875 45.058594 C 59.035156 45.339844 59.242188 45.648438 59.410156 45.984375 C 59.582031 46.320312 59.71875 46.675781 59.816406 47.054688 C 59.914062 47.433594 59.972656 47.824219 59.996094 48.234375 C 60.015625 48.640625 60 49.050781 59.941406 49.472656 C 59.886719 49.890625 59.792969 50.308594 59.664062 50.722656 C 59.53125 51.140625 59.363281 51.542969 59.164062 51.941406 C 58.960938 52.335938 58.730469 52.714844 58.464844 53.074219 C 58.203125 53.4375 57.910156 53.773438 57.59375 54.085938 C 57.277344 54.398438 56.941406 54.679688 56.585938 54.933594 C 56.226562 55.183594 55.859375 55.402344 55.476562 55.582031 C 55.09375 55.761719 54.703125 55.90625 54.308594 56.011719 C 53.914062 56.113281 53.519531 56.175781 53.128906 56.199219 C 52.738281 56.222656 52.355469 56.203125 51.980469 56.144531 C 51.609375 56.085938 51.253906 55.984375 50.910156 55.847656 C 50.570312 55.707031 50.253906 55.53125 49.960938 55.316406 C 49.664062 55.101562 49.398438 54.855469 49.160156 54.574219 C 48.925781 54.292969 48.71875 53.988281 48.550781 53.652344 C 48.378906 53.316406 48.242188 52.957031 48.144531 52.578125 C 48.046875 52.199219 47.988281 51.808594 47.964844 51.402344 C 47.945312 50.996094 47.960938 50.582031 48.015625 50.164062 C 48.074219 49.742188 48.167969 49.328125 48.296875 48.910156 C 48.429688 48.496094 48.59375 48.089844 48.796875 47.695312 C 49 47.296875 49.230469 46.917969 49.496094 46.558594 C 49.757812 46.195312 50.050781 45.859375 50.367188 45.546875 C 50.683594 45.234375 51.019531 44.953125 51.375 44.703125 C 51.730469 44.449219 52.101562 44.234375 52.484375 44.050781 C 52.867188 43.871094 53.257812 43.726562 53.652344 43.625 C 54.046875 43.519531 54.441406 43.457031 54.832031 43.433594 C 55.222656 43.410156 55.605469 43.429688 55.980469 43.488281 C 56.351562 43.546875 56.707031 43.648438 57.046875 43.789062 C 57.390625 43.925781 57.707031 44.105469 58 44.316406 Z M 58 44.316406 " fill-opacity="0.149" fill-rule="nonzero"/><path fill="#ffffff" d="M 56.675781 65.953125 C 56.398438 65.953125 56.117188 65.941406 55.839844 65.929688 C 54.90625 65.890625 53.996094 65.84375 53.109375 65.769531 C 52.941406 65.757812 52.78125 65.746094 52.625 65.734375 C 52.734375 64.441406 52.84375 63.109375 52.976562 61.777344 C 52.988281 61.683594 52.988281 61.597656 52.988281 61.511719 C 53.144531 61.511719 53.292969 61.511719 53.4375 61.523438 C 54.433594 61.597656 55.546875 61.71875 56.15625 62.492188 C 56.617188 63.109375 56.652344 63.921875 56.664062 64.683594 C 56.675781 65.105469 56.675781 65.527344 56.675781 65.953125 Z M 56.675781 65.953125 " fill-opacity="0.149" fill-rule="nonzero"/><path fill="#ffffff" d="M 55.839844 65.648438 L 55.839844 65.929688 C 54.90625 65.890625 53.996094 65.84375 53.109375 65.769531 C 53.242188 64.210938 53.59375 62.457031 54.6875 62.769531 C 55.816406 63.109375 55.839844 64.730469 55.839844 65.648438 Z M 55.839844 65.648438 " fill-opacity="0.149" fill-rule="nonzero"/><path fill="#85be57" d="M 72.28125 60.460938 L 72.246094 60.542969 L 72.136719 60.808594 L 70.363281 65.25 C 70.058594 65.285156 69.769531 65.335938 69.453125 65.371094 L 69.441406 65.371094 C 68.980469 65.429688 68.519531 65.492188 68.035156 65.539062 C 67.476562 65.601562 66.917969 65.660156 66.335938 65.710938 C 66.175781 65.722656 66.019531 65.734375 65.863281 65.746094 C 65.644531 65.769531 65.414062 65.78125 65.195312 65.792969 L 67.875 59.117188 L 68.023438 58.753906 L 69.234375 59.238281 Z M 72.28125 60.460938 " fill-opacity="1" fill-rule="nonzero"/><path fill="#85be57" d="M 81.296875 46.703125 C 81.957031 46.964844 82.277344 47.710938 82.011719 48.371094 L 77.648438 59.253906 C 76.929688 61.046875 74.898438 61.914062 73.109375 61.199219 L 66.910156 58.730469 C 65.117188 58.015625 64.246094 55.988281 64.960938 54.199219 L 69.328125 43.316406 C 69.59375 42.65625 70.339844 42.335938 71 42.597656 C 71.660156 42.863281 71.980469 43.609375 71.71875 44.269531 L 68.542969 52.183594 C 68.277344 52.851562 68.597656 53.601562 69.269531 53.871094 C 69.933594 54.132812 70.691406 53.816406 70.960938 53.144531 L 74 45.570312 C 74.335938 44.722656 75.300781 44.3125 76.148438 44.652344 C 76.996094 44.988281 77.410156 45.949219 77.070312 46.792969 L 74.03125 54.371094 C 73.761719 55.039062 74.09375 55.792969 74.757812 56.054688 C 75.425781 56.324219 76.179688 56.003906 76.449219 55.332031 L 79.621094 47.417969 C 79.886719 46.757812 80.636719 46.4375 81.296875 46.703125 Z M 81.296875 46.703125 " fill-opacity="1" fill-rule="nonzero"/><path fill="#ffffff" d="M 79.667969 47.898438 C 79.105469 48.703125 78.765625 51.097656 76.238281 55.769531 C 76.070312 56.082031 75.878906 56.410156 75.570312 56.570312 C 75.136719 56.796875 74.621094 56.632812 74.171875 56.460938 C 73.804688 56.320312 73.402344 56.148438 73.246094 55.78125 C 73.117188 55.488281 73.1875 55.140625 73.257812 54.820312 C 74.765625 48.039062 76 48.519531 76.394531 46.914062 C 76.542969 46.316406 76.324219 45.574219 75.757812 45.394531 C 75.367188 45.273438 74.925781 45.453125 74.625 45.746094 C 73.554688 46.789062 71.960938 52.292969 71.480469 53.15625 C 70.574219 54.789062 69.046875 54.878906 68.394531 54.074219 C 67.789062 53.328125 68.152344 52.285156 68.484375 51.4375 C 69.257812 49.476562 70.027344 47.515625 70.800781 45.554688 C 70.996094 45.058594 71.167969 44.421875 70.792969 44.0625 C 70.402344 43.683594 69.589844 43.710938 68.960938 45.25 C 66.089844 52.3125 64.488281 54.964844 65.796875 57.0625 C 66.34375 57.945312 67.339844 58.40625 68.277344 58.820312 C 69.347656 59.292969 70.417969 59.765625 71.488281 60.238281 C 72.527344 60.695312 73.695312 61.160156 74.777344 60.753906 C 75.746094 60.386719 76.363281 59.421875 76.878906 58.503906 C 77.875 56.726562 78.769531 54.890625 79.558594 53.007812 C 79.816406 52.386719 81.390625 48.28125 81.371094 47.964844 C 81.3125 46.984375 80.0625 47.335938 79.667969 47.898438 Z M 79.667969 47.898438 " fill-opacity="0.098" fill-rule="nonzero"/><path fill="#ffffff" d="M 78.066406 52.90625 C 77.496094 53.894531 77.039062 54.960938 76.460938 55.957031 C 75.78125 57.128906 75.300781 57.25 74.121094 57.015625 C 72.683594 56.730469 72.472656 56.226562 72.660156 55.105469 C 73.589844 49.523438 74.882812 49.328125 74.65625 48.308594 C 74.015625 45.40625 72.789062 55.496094 69.316406 55.285156 C 67.683594 55.183594 66.957031 54.546875 67.5625 52.605469 C 68.183594 50.625 69.207031 48.800781 70.003906 46.882812 C 70.4375 45.835938 69.804688 45.449219 69.257812 45.757812 C 68.558594 46.152344 65.824219 53.683594 65.714844 54.1875 C 65.277344 56.222656 65.871094 56.808594 67.128906 57.5625 C 68.953125 58.652344 70.902344 59.582031 72.976562 60.054688 C 74.664062 60.4375 75.234375 60.011719 76.011719 58.664062 C 77.226562 56.558594 78.441406 54.441406 79.601562 52.316406 C 79.96875 51.617188 80.34375 50.902344 80.527344 50.132812 C 80.699219 49.433594 80.335938 48.722656 79.679688 49.460938 C 78.753906 50.496094 78.710938 51.792969 78.066406 52.90625 Z M 78.066406 52.90625 " fill-opacity="0.098" fill-rule="nonzero"/><path fill="#ffffff" d="M 70.558594 61.792969 C 70.328125 62.976562 69.890625 64.199219 69.453125 65.371094 L 69.441406 65.371094 C 68.980469 65.433594 68.519531 65.492188 68.035156 65.542969 C 67.476562 65.601562 66.917969 65.664062 66.335938 65.710938 C 66.175781 65.722656 66.019531 65.734375 65.863281 65.746094 C 66.324219 64.671875 66.785156 63.59375 67.28125 62.527344 C 67.621094 61.792969 68.007812 61.015625 68.640625 60.570312 C 69.734375 59.769531 70.8125 60.449219 70.558594 61.792969 Z M 70.558594 61.792969 " fill-opacity="0.098" fill-rule="nonzero"/><path fill="#ffffff" d="M 69.210938 62.226562 C 68.894531 63.3125 68.472656 64.4375 68.035156 65.539062 C 67.476562 65.601562 66.917969 65.660156 66.335938 65.710938 C 66.664062 64.898438 66.992188 64.101562 67.34375 63.300781 C 67.632812 62.636719 67.949219 61.933594 68.347656 61.464844 C 69.054688 60.640625 69.539062 61.050781 69.210938 62.226562 Z M 69.210938 62.226562 " fill-opacity="0.098" fill-rule="nonzero"/></svg>