<svg xmlns="http://www.w3.org/2000/svg" xmlns:xlink="http://www.w3.org/1999/xlink" width="300" zoomAndPan="magnify" viewBox="0 0 224.87999 225" height="300" preserveAspectRatio="xMidYMid meet" version="1.0"><defs><clipPath id="e7140770c7"><path d="M 31.222656 23 L 193.882812 23 L 193.882812 202 L 31.222656 202 Z M 31.222656 23 " clip-rule="nonzero"/></clipPath><clipPath id="a320769139"><path d="M 31.222656 22.546875 L 193.882812 22.546875 L 193.882812 202.453125 L 31.222656 202.453125 Z M 31.222656 22.546875 " clip-rule="nonzero"/></clipPath><clipPath id="ba2a33b1a0"><path d="M 31.222656 31 L 176 31 L 176 202 L 31.222656 202 Z M 31.222656 31 " clip-rule="nonzero"/></clipPath><clipPath id="4514b2aff0"><path d="M 31.222656 30 L 177 30 L 177 202.453125 L 31.222656 202.453125 Z M 31.222656 30 " clip-rule="nonzero"/></clipPath><clipPath id="f36e73f418"><path d="M 34 22.546875 L 192 22.546875 L 192 34 L 34 34 Z M 34 22.546875 " clip-rule="nonzero"/></clipPath><clipPath id="8af4d5937b"><path d="M 172 158 L 193.882812 158 L 193.882812 202 L 172 202 Z M 172 158 " clip-rule="nonzero"/></clipPath><clipPath id="e3c6312cc2"><path d="M 171 158 L 193.882812 158 L 193.882812 202 L 171 202 Z M 171 158 " clip-rule="nonzero"/></clipPath><clipPath id="247828d8fe"><path d="M 88 47 L 193.882812 47 L 193.882812 166 L 88 166 Z M 88 47 " clip-rule="nonzero"/></clipPath><clipPath id="417a304996"><path d="M 173 24 L 193.882812 24 L 193.882812 57 L 173 57 Z M 173 24 " clip-rule="nonzero"/></clipPath><clipPath id="74e2b5d47f"><path d="M 172 24 L 193.882812 24 L 193.882812 58 L 172 58 Z M 172 24 " clip-rule="nonzero"/></clipPath></defs><g clip-path="url(#e7140770c7)"><path fill="#000000" d="M 186.949219 156.648438 L 106.203125 156.648438 L 191.757812 49.851562 C 192.652344 48.734375 193.136719 47.347656 193.128906 45.917969 L 193.042969 29.386719 C 193.027344 25.949219 190.230469 23.171875 186.789062 23.171875 L 55.640625 23.171875 C 54.585938 23.171875 53.589844 23.4375 52.71875 23.898438 L 35.433594 32.132812 L 35.441406 32.132812 C 33.34375 33.144531 31.894531 35.277344 31.894531 37.757812 L 31.894531 62.097656 C 31.894531 65.546875 34.695312 68.34375 38.148438 68.34375 L 118.894531 68.34375 L 33.332031 175.152344 C 32.445312 176.257812 31.960938 177.636719 31.960938 179.054688 L 31.960938 195.578125 C 31.960938 199.027344 34.761719 201.820312 38.214844 201.820312 L 169.457031 201.820312 C 170.5625 201.820312 171.597656 201.53125 172.5 201.03125 L 189.847656 192.769531 L 189.84375 192.769531 C 191.839844 191.726562 193.203125 189.640625 193.203125 187.238281 L 193.203125 162.894531 C 193.203125 159.445312 190.402344 156.648438 186.949219 156.648438 Z M 186.949219 156.648438 " fill-opacity="1" fill-rule="nonzero"/></g><g clip-path="url(#a320769139)"><path fill="#000000" d="M 169.457031 202.445312 L 38.214844 202.445312 C 34.421875 202.445312 31.335938 199.363281 31.335938 195.578125 L 31.335938 179.054688 C 31.335938 177.5 31.871094 175.976562 32.84375 174.761719 L 117.59375 68.96875 L 38.148438 68.96875 C 34.355469 68.96875 31.269531 65.886719 31.269531 62.097656 L 31.269531 37.757812 C 31.269531 35.171875 32.761719 32.769531 35.085938 31.613281 C 35.109375 31.59375 35.136719 31.582031 35.164062 31.566406 L 52.449219 23.332031 C 52.453125 23.328125 52.460938 23.328125 52.46875 23.324219 C 53.445312 22.816406 54.542969 22.546875 55.640625 22.546875 L 186.789062 22.546875 C 190.5625 22.546875 193.648438 25.613281 193.667969 29.382812 L 193.753906 45.914062 C 193.761719 47.480469 193.226562 49.019531 192.246094 50.242188 L 107.503906 156.027344 L 186.949219 156.027344 C 190.742188 156.027344 193.828125 159.109375 193.828125 162.894531 L 193.828125 187.238281 C 193.828125 189.773438 192.441406 192.085938 190.199219 193.289062 C 190.175781 193.304688 190.148438 193.320312 190.117188 193.335938 L 172.769531 201.597656 C 172.761719 201.601562 172.753906 201.605469 172.746094 201.605469 C 171.738281 202.15625 170.601562 202.445312 169.457031 202.445312 Z M 35.78125 32.65625 C 35.761719 32.671875 35.734375 32.683594 35.710938 32.695312 C 33.742188 33.644531 32.519531 35.582031 32.519531 37.757812 L 32.519531 62.097656 C 32.519531 65.199219 35.042969 67.71875 38.148438 67.71875 L 118.894531 67.71875 C 119.136719 67.71875 119.355469 67.855469 119.457031 68.074219 C 119.5625 68.289062 119.535156 68.546875 119.382812 68.734375 L 33.820312 175.542969 C 33.023438 176.535156 32.585938 177.78125 32.585938 179.054688 L 32.585938 195.578125 C 32.585938 198.675781 35.113281 201.195312 38.214844 201.195312 L 169.457031 201.195312 C 170.410156 201.195312 171.359375 200.949219 172.195312 200.484375 C 172.222656 200.46875 172.253906 200.453125 172.289062 200.441406 L 189.515625 192.238281 C 189.527344 192.230469 189.542969 192.222656 189.554688 192.214844 C 191.417969 191.242188 192.578125 189.332031 192.578125 187.238281 L 192.578125 162.894531 C 192.578125 159.796875 190.050781 157.273438 186.949219 157.273438 L 106.203125 157.273438 C 105.960938 157.273438 105.742188 157.136719 105.636719 156.921875 C 105.535156 156.703125 105.5625 156.449219 105.710938 156.261719 L 191.269531 49.460938 C 192.070312 48.460938 192.507812 47.203125 192.503906 45.921875 L 192.417969 29.390625 C 192.402344 26.304688 189.878906 23.796875 186.789062 23.796875 L 55.640625 23.796875 C 54.714844 23.796875 53.828125 24.015625 53.011719 24.449219 C 52.988281 24.460938 52.964844 24.472656 52.941406 24.480469 Z M 35.78125 32.65625 " fill-opacity="1" fill-rule="nonzero"/></g><g clip-path="url(#ba2a33b1a0)"><path fill="#ffffff" d="M 31.960938 195.578125 L 31.960938 179.054688 C 31.960938 177.636719 32.445312 176.257812 33.332031 175.152344 L 118.894531 68.34375 L 38.148438 68.34375 C 34.695312 68.34375 31.894531 65.546875 31.894531 62.097656 L 31.894531 37.757812 C 31.894531 34.308594 34.695312 31.511719 38.148438 31.511719 L 169.296875 31.511719 C 172.738281 31.511719 175.53125 34.289062 175.550781 37.726562 L 175.636719 54.257812 C 175.640625 55.6875 175.160156 57.074219 174.265625 58.191406 L 88.707031 164.988281 L 169.457031 164.988281 C 172.910156 164.988281 175.710938 167.785156 175.710938 171.234375 L 175.710938 195.578125 C 175.710938 199.027344 172.910156 201.820312 169.457031 201.820312 L 38.214844 201.820312 C 34.761719 201.820312 31.960938 199.027344 31.960938 195.578125 Z M 31.960938 195.578125 " fill-opacity="1" fill-rule="nonzero"/></g><g clip-path="url(#4514b2aff0)"><path fill="#000000" d="M 169.457031 202.445312 L 38.214844 202.445312 C 34.421875 202.445312 31.335938 199.363281 31.335938 195.578125 L 31.335938 179.054688 C 31.335938 177.5 31.871094 175.976562 32.84375 174.761719 L 117.59375 68.96875 L 38.148438 68.96875 C 34.355469 68.96875 31.269531 65.886719 31.269531 62.097656 L 31.269531 37.757812 C 31.269531 33.96875 34.355469 30.886719 38.148438 30.886719 L 169.296875 30.886719 C 173.070312 30.886719 176.15625 33.953125 176.175781 37.722656 L 176.261719 54.253906 C 176.269531 55.820312 175.734375 57.359375 174.753906 58.582031 L 90.007812 164.363281 L 169.457031 164.363281 C 173.25 164.363281 176.335938 167.445312 176.335938 171.234375 L 176.335938 195.578125 C 176.335938 199.363281 173.25 202.445312 169.457031 202.445312 Z M 38.148438 32.136719 C 35.042969 32.136719 32.519531 34.65625 32.519531 37.757812 L 32.519531 62.097656 C 32.519531 65.199219 35.042969 67.71875 38.148438 67.71875 L 118.894531 67.71875 C 119.136719 67.71875 119.355469 67.855469 119.457031 68.074219 C 119.5625 68.289062 119.535156 68.546875 119.382812 68.734375 L 33.820312 175.542969 C 33.023438 176.535156 32.585938 177.78125 32.585938 179.054688 L 32.585938 195.578125 C 32.585938 198.675781 35.113281 201.195312 38.214844 201.195312 L 169.457031 201.195312 C 172.558594 201.195312 175.085938 198.675781 175.085938 195.578125 L 175.085938 171.234375 C 175.085938 168.136719 172.558594 165.613281 169.457031 165.613281 L 88.707031 165.613281 C 88.46875 165.613281 88.25 165.476562 88.144531 165.261719 C 88.039062 165.042969 88.070312 164.785156 88.21875 164.597656 L 173.777344 57.800781 C 174.578125 56.800781 175.015625 55.542969 175.007812 54.261719 L 174.925781 37.726562 C 174.910156 34.644531 172.382812 32.136719 169.296875 32.136719 Z M 38.148438 32.136719 " fill-opacity="1" fill-rule="nonzero"/></g><path fill="#c2b092" d="M 186.789062 23.171875 L 55.640625 23.171875 C 54.585938 23.171875 53.589844 23.4375 52.71875 23.898438 L 35.433594 32.132812 L 35.441406 32.132812 C 36.261719 31.738281 37.175781 31.511719 38.148438 31.511719 L 169.296875 31.511719 C 170.964844 31.511719 172.476562 32.167969 173.597656 33.230469 L 191.097656 24.894531 C 189.972656 23.832031 188.460938 23.171875 186.789062 23.171875 Z M 186.789062 23.171875 " fill-opacity="1" fill-rule="nonzero"/><g clip-path="url(#f36e73f418)"><path fill="#000000" d="M 173.597656 33.855469 C 173.441406 33.855469 173.285156 33.796875 173.167969 33.683594 C 172.117188 32.6875 170.742188 32.136719 169.296875 32.136719 L 38.148438 32.136719 C 37.304688 32.136719 36.484375 32.324219 35.710938 32.695312 C 35.535156 32.78125 35.332031 32.78125 35.160156 32.691406 C 34.945312 32.585938 34.808594 32.367188 34.8125 32.125 C 34.8125 31.886719 34.949219 31.671875 35.164062 31.566406 L 52.445312 23.332031 C 52.453125 23.328125 52.460938 23.328125 52.46875 23.324219 C 53.445312 22.816406 54.542969 22.546875 55.640625 22.546875 L 186.789062 22.546875 C 188.558594 22.546875 190.238281 23.222656 191.527344 24.445312 C 191.675781 24.585938 191.746094 24.792969 191.714844 24.996094 C 191.683594 25.195312 191.550781 25.371094 191.367188 25.460938 L 173.867188 33.796875 C 173.78125 33.835938 173.691406 33.855469 173.597656 33.855469 Z M 39.496094 30.886719 L 169.296875 30.886719 C 170.917969 30.886719 172.464844 31.453125 173.703125 32.488281 L 189.933594 24.757812 C 189.007812 24.132812 187.917969 23.796875 186.789062 23.796875 L 55.640625 23.796875 C 54.714844 23.796875 53.828125 24.015625 53.011719 24.449219 C 52.988281 24.460938 52.964844 24.472656 52.941406 24.480469 Z M 39.496094 30.886719 " fill-opacity="1" fill-rule="nonzero"/></g><g clip-path="url(#8af4d5937b)"><path fill="#c2b092" d="M 175.710938 171.234375 L 175.710938 195.578125 C 175.710938 197.921875 174.414062 199.960938 172.5 201.03125 L 189.847656 192.769531 L 189.84375 192.769531 C 191.839844 191.726562 193.203125 189.640625 193.203125 187.238281 L 193.203125 162.894531 C 193.203125 161.332031 192.625 159.90625 191.671875 158.808594 L 174.175781 167.144531 C 175.128906 168.242188 175.710938 169.667969 175.710938 171.234375 Z M 175.710938 171.234375 " fill-opacity="1" fill-rule="nonzero"/></g><g clip-path="url(#e3c6312cc2)"><path fill="#000000" d="M 172.5 201.65625 C 172.304688 201.65625 172.113281 201.566406 171.992188 201.398438 C 171.886719 201.253906 171.851562 201.070312 171.890625 200.894531 C 171.929688 200.722656 172.039062 200.570312 172.195312 200.484375 C 173.976562 199.492188 175.085938 197.609375 175.085938 195.578125 L 175.085938 171.234375 C 175.085938 169.886719 174.59375 168.578125 173.703125 167.554688 C 173.574219 167.40625 173.523438 167.207031 173.5625 167.015625 C 173.601562 166.828125 173.730469 166.664062 173.90625 166.582031 L 191.402344 158.246094 C 191.65625 158.125 191.960938 158.1875 192.144531 158.398438 C 193.230469 159.652344 193.828125 161.246094 193.828125 162.894531 L 193.828125 187.238281 C 193.828125 189.773438 192.441406 192.085938 190.199219 193.289062 C 190.175781 193.304688 190.148438 193.320312 190.117188 193.335938 L 172.769531 201.597656 C 172.683594 201.636719 172.589844 201.65625 172.5 201.65625 Z M 175.140625 167.375 C 175.917969 168.511719 176.335938 169.855469 176.335938 171.234375 L 176.335938 195.578125 C 176.335938 196.773438 176.023438 197.925781 175.453125 198.933594 L 189.515625 192.238281 C 189.527344 192.230469 189.542969 192.222656 189.554688 192.214844 C 191.417969 191.242188 192.578125 189.332031 192.578125 187.238281 L 192.578125 162.894531 C 192.578125 161.703125 192.195312 160.546875 191.492188 159.585938 Z M 175.140625 167.375 " fill-opacity="1" fill-rule="nonzero"/></g><path fill="#c2b092" d="M 191.757812 49.851562 C 192.105469 49.417969 192.386719 48.945312 192.605469 48.445312 L 175.117188 56.777344 C 174.894531 57.28125 174.613281 57.757812 174.265625 58.191406 L 88.707031 164.988281 L 106.199219 156.648438 Z M 191.757812 49.851562 " fill-opacity="1" fill-rule="nonzero"/><g clip-path="url(#247828d8fe)"><path fill="#000000" d="M 88.707031 165.613281 C 88.519531 165.613281 88.339844 165.53125 88.21875 165.378906 C 88.035156 165.148438 88.035156 164.828125 88.21875 164.597656 L 173.777344 57.800781 C 174.082031 57.417969 174.339844 56.988281 174.542969 56.527344 C 174.601562 56.390625 174.710938 56.277344 174.84375 56.214844 L 192.335938 47.882812 C 192.570312 47.769531 192.851562 47.816406 193.039062 47.996094 C 193.226562 48.175781 193.28125 48.457031 193.179688 48.695312 C 192.933594 49.253906 192.621094 49.773438 192.246094 50.242188 L 106.691406 157.039062 C 106.628906 157.113281 106.554688 157.171875 106.46875 157.214844 L 88.976562 165.554688 C 88.890625 165.59375 88.800781 165.613281 88.707031 165.613281 Z M 175.589844 57.242188 C 175.359375 57.722656 175.082031 58.171875 174.753906 58.582031 L 90.898438 163.253906 L 105.800781 156.148438 L 190.863281 49.964844 Z M 175.589844 57.242188 " fill-opacity="1" fill-rule="nonzero"/></g><g clip-path="url(#417a304996)"><path fill="#c2b092" d="M 193.128906 45.917969 L 193.042969 29.386719 C 193.035156 27.617188 192.285156 26.027344 191.097656 24.894531 L 173.597656 33.230469 C 174.789062 34.363281 175.539062 35.953125 175.550781 37.726562 L 175.636719 54.257812 C 175.640625 55.128906 175.457031 55.988281 175.113281 56.777344 L 192.605469 48.445312 C 192.953125 47.652344 193.132812 46.792969 193.128906 45.917969 Z M 193.128906 45.917969 " fill-opacity="1" fill-rule="nonzero"/></g><g clip-path="url(#74e2b5d47f)"><path fill="#000000" d="M 175.117188 57.402344 C 174.957031 57.402344 174.800781 57.34375 174.679688 57.226562 C 174.492188 57.046875 174.4375 56.769531 174.542969 56.527344 C 174.855469 55.804688 175.011719 55.042969 175.007812 54.261719 L 174.925781 37.726562 C 174.917969 36.1875 174.292969 34.75 173.167969 33.683594 C 173.019531 33.542969 172.949219 33.335938 172.980469 33.132812 C 173.011719 32.929688 173.144531 32.757812 173.328125 32.667969 L 190.828125 24.332031 C 191.0625 24.222656 191.339844 24.265625 191.527344 24.445312 C 192.898438 25.746094 193.660156 27.5 193.667969 29.382812 L 193.753906 45.914062 C 193.757812 46.875 193.566406 47.8125 193.179688 48.695312 C 193.117188 48.832031 193.011719 48.945312 192.875 49.007812 L 175.382812 57.34375 C 175.296875 57.382812 175.207031 57.402344 175.117188 57.402344 Z M 174.636719 33.429688 C 175.625 34.640625 176.167969 36.136719 176.175781 37.722656 L 176.261719 54.253906 C 176.261719 54.710938 176.21875 55.160156 176.132812 55.601562 L 192.121094 47.984375 C 192.378906 47.324219 192.507812 46.628906 192.503906 45.921875 L 192.417969 29.390625 C 192.410156 27.992188 191.898438 26.679688 190.960938 25.652344 Z M 174.636719 33.429688 " fill-opacity="1" fill-rule="nonzero"/></g><path fill="#c2b092" d="M 186.949219 156.648438 L 106.203125 156.648438 L 88.707031 164.988281 L 169.457031 164.988281 C 171.34375 164.988281 173.027344 165.828125 174.175781 167.144531 L 191.671875 158.808594 C 190.523438 157.488281 188.835938 156.648438 186.949219 156.648438 Z M 186.949219 156.648438 " fill-opacity="1" fill-rule="nonzero"/><path fill="#000000" d="M 174.175781 167.769531 C 174 167.769531 173.824219 167.695312 173.703125 167.554688 C 172.628906 166.320312 171.082031 165.613281 169.457031 165.613281 L 88.707031 165.613281 C 88.414062 165.613281 88.164062 165.410156 88.097656 165.128906 C 88.03125 164.84375 88.175781 164.550781 88.4375 164.425781 L 105.929688 156.085938 C 106.015625 156.046875 106.109375 156.027344 106.199219 156.027344 L 186.949219 156.027344 C 188.941406 156.027344 190.832031 156.890625 192.144531 158.402344 C 192.273438 158.546875 192.324219 158.746094 192.285156 158.9375 C 192.242188 159.128906 192.117188 159.289062 191.941406 159.375 L 174.445312 167.710938 C 174.359375 167.75 174.265625 167.769531 174.175781 167.769531 Z M 91.46875 164.363281 L 169.457031 164.363281 C 171.285156 164.363281 173.03125 165.09375 174.320312 166.382812 L 190.601562 158.625 C 189.589844 157.757812 188.296875 157.273438 186.949219 157.273438 L 106.34375 157.273438 Z M 91.46875 164.363281 " fill-opacity="1" fill-rule="nonzero"/></svg>