<svg xmlns="http://www.w3.org/2000/svg" xmlns:xlink="http://www.w3.org/1999/xlink" width="200" zoomAndPan="magnify" viewBox="0 0 150 95.999999" height="128" preserveAspectRatio="xMidYMid meet" version="1.0"><defs><clipPath id="e4d6ea6ab7"><path d="M 9.601562 9.601562 L 99.601562 9.601562 L 99.601562 86.101562 L 9.601562 86.101562 Z M 9.601562 9.601562 " clip-rule="nonzero"/></clipPath><clipPath id="0e15826967"><path d="M 92 9.601562 L 140.695312 9.601562 L 140.695312 66 L 92 66 Z M 92 9.601562 " clip-rule="nonzero"/></clipPath><clipPath id="96d5fcf87c"><path d="M 21.390625 23 L 43 23 L 43 48.085938 L 21.390625 48.085938 Z M 21.390625 23 " clip-rule="nonzero"/></clipPath><clipPath id="cc18511e56"><path d="M 45 21.085938 L 66 21.085938 L 66 48.085938 L 45 48.085938 Z M 45 21.085938 " clip-rule="nonzero"/></clipPath><clipPath id="010fac9751"><path d="M 66 26 L 87.390625 26 L 87.390625 48 L 66 48 Z M 66 26 " clip-rule="nonzero"/></clipPath><clipPath id="351813a684"><path d="M 60 52 L 74.664062 52 L 74.664062 70 L 60 70 Z M 60 52 " clip-rule="nonzero"/></clipPath><clipPath id="ed9197d39c"><path d="M 45 50.804688 L 58 50.804688 L 58 64 L 45 64 Z M 45 50.804688 " clip-rule="nonzero"/></clipPath><clipPath id="2fc9f3f5ea"><path d="M 41 79 L 47 79 L 47 84.554688 L 41 84.554688 Z M 41 79 " clip-rule="nonzero"/></clipPath><clipPath id="dd71afac0d"><path d="M 36.414062 68 L 47 68 L 47 80 L 36.414062 80 Z M 36.414062 68 " clip-rule="nonzero"/></clipPath></defs><g clip-path="url(#e4d6ea6ab7)"><path fill="#486cbd" d="M 99.597656 42.253906 C 99.597656 24.226562 79.453125 9.601562 54.601562 9.601562 C 29.746094 9.601562 9.601562 24.226562 9.601562 42.253906 C 9.601562 58.511719 25.996094 72.011719 47.441406 74.5 C 50.8125 83.019531 64.230469 86.101562 64.230469 86.101562 C 64.230469 86.101562 57.902344 81.085938 58.082031 74.820312 C 81.308594 73.53125 99.597656 59.441406 99.597656 42.253906 Z M 99.597656 42.253906 " fill-opacity="1" fill-rule="nonzero"/></g><g clip-path="url(#0e15826967)"><path fill="#ef8a5e" d="M 133.691406 13.636719 C 135.832031 15.28125 137.433594 17.234375 138.367188 19.71875 C 138.785156 20.832031 139.484375 21.84375 139.851562 22.96875 C 140.691406 25.542969 140.363281 28.101562 139.324219 30.558594 C 137.3125 35.292969 134.105469 39.164062 130.285156 42.570312 C 128.65625 44.027344 126.960938 45.410156 125.328125 46.863281 C 122.714844 49.183594 122.03125 52.0625 122.816406 55.390625 C 123.234375 57.15625 123.589844 58.9375 123.882812 60.726562 C 124.320312 63.386719 122.875 65.027344 120.171875 65.152344 C 117.578125 65.269531 115.507812 64.113281 113.621094 62.582031 C 110.386719 59.964844 109.148438 56.523438 109.453125 52.4375 C 109.785156 47.957031 112.058594 44.320312 114.519531 40.765625 C 117.140625 36.984375 119.921875 33.308594 122.441406 29.464844 C 123.929688 27.199219 125.058594 24.707031 126.328125 22.304688 C 126.5625 21.859375 126.707031 21.363281 126.855469 20.882812 C 127.367188 19.203125 126.71875 17.957031 125.039062 17.359375 C 123.550781 16.828125 121.996094 16.84375 120.488281 17.074219 C 115.582031 17.832031 111.988281 20.621094 109.1875 24.535156 C 108.988281 24.8125 108.824219 25.277344 108.917969 25.574219 C 109.949219 28.925781 109.644531 32.285156 109.085938 35.65625 C 108.941406 36.53125 108.894531 37.421875 108.820312 38.308594 C 108.738281 39.285156 108.753906 40.277344 108.585938 41.234375 C 108.355469 42.527344 107.558594 43.429688 106.296875 43.894531 C 105.625 44.144531 104.96875 44.511719 104.277344 44.609375 C 103.5625 44.710938 102.722656 44.742188 102.09375 44.460938 C 100.757812 43.859375 99.441406 43.152344 98.269531 42.285156 C 93.914062 39.0625 91.945312 34.648438 92.214844 29.328125 C 92.285156 27.988281 92.875 26.605469 93.5 25.378906 C 95.007812 22.398438 97.351562 20.101562 100.042969 18.132812 C 105.378906 14.234375 111.300781 11.625 117.8125 10.4375 C 122.289062 9.621094 126.742188 9.671875 130.910156 11.855469 C 131.867188 12.355469 132.734375 13.011719 133.691406 13.636719 Z M 115.566406 46.769531 C 115.210938 47.425781 114.855469 48.074219 114.511719 48.734375 C 114.460938 48.828125 114.484375 48.957031 114.472656 49.066406 C 114.539062 49.023438 114.640625 48.992188 114.667969 48.929688 C 115.003906 48.1875 115.328125 47.441406 115.703125 46.648438 C 115.707031 46.609375 115.707031 46.570312 115.710938 46.53125 C 115.695312 46.589844 115.683594 46.644531 115.566406 46.769531 Z M 132.4375 23.429688 C 131.828125 25.449219 131.21875 27.46875 130.617188 29.488281 C 130.566406 29.644531 130.570312 29.820312 130.550781 29.988281 C 130.703125 29.878906 130.886719 29.796875 131.007812 29.660156 C 131.320312 29.296875 131.617188 28.917969 131.890625 28.53125 C 133.792969 25.871094 135.421875 23.125 135.183594 19.671875 C 135.121094 18.730469 134.824219 17.953125 134.023438 17.484375 C 132.917969 16.832031 131.746094 16.28125 130.601562 15.695312 C 130.507812 15.648438 130.378906 15.664062 130.265625 15.652344 C 130.308594 15.75 130.339844 15.855469 130.402344 15.941406 C 130.671875 16.296875 130.96875 16.636719 131.226562 17.003906 C 132.558594 18.910156 132.597656 21.074219 132.4375 23.429688 Z M 116.390625 61.300781 C 115.652344 60.917969 114.914062 60.53125 114.171875 60.148438 C 114.050781 60.085938 113.914062 60.039062 113.78125 59.988281 C 113.796875 60.121094 113.773438 60.269531 113.824219 60.386719 C 114.371094 61.625 115.21875 62.496094 116.640625 62.753906 C 118.746094 63.132812 120.390625 62.136719 120.652344 60.214844 C 120.71875 59.722656 120.707031 59.195312 120.601562 58.710938 C 120.109375 56.484375 119.574219 54.265625 119.050781 52.042969 C 119.03125 51.960938 119.015625 51.875 119 51.792969 C 118.988281 51.878906 118.957031 51.96875 118.960938 52.054688 C 118.992188 53.003906 119.085938 53.953125 119.050781 54.902344 C 118.992188 56.464844 118.964844 58.042969 118.699219 59.578125 C 118.515625 60.613281 117.769531 61.375 116.390625 61.300781 Z M 127.058594 15.222656 C 126.226562 15.21875 125.390625 15.210938 124.558594 15.210938 C 124.480469 15.210938 124.402344 15.253906 124.328125 15.273438 C 124.382812 15.332031 124.429688 15.40625 124.496094 15.453125 C 125.953125 16.480469 127.414062 17.507812 128.882812 18.523438 C 128.9375 18.5625 129.175781 18.480469 129.183594 18.433594 C 129.359375 17.347656 128.28125 15.625 127.058594 15.222656 Z M 126.933594 12.539062 C 126.871094 12.582031 126.808594 12.628906 126.746094 12.671875 C 126.777344 12.679688 126.804688 12.683594 126.832031 12.695312 C 127.792969 13.039062 128.773438 13.335938 129.707031 13.738281 C 130.78125 14.199219 131.8125 14.761719 132.867188 15.269531 C 132.980469 15.324219 133.136719 15.308594 133.273438 15.324219 C 133.222656 15.199219 133.207031 15.027344 133.117188 14.953125 C 132.582031 14.523438 132.089844 13.949219 131.472656 13.738281 C 130.039062 13.242188 128.539062 12.925781 126.933594 12.539062 Z M 100.742188 35.398438 C 100.707031 34.511719 100.675781 33.621094 100.640625 32.734375 C 100.636719 32.628906 100.617188 32.523438 100.601562 32.417969 C 100.566406 32.519531 100.5 32.621094 100.492188 32.730469 C 100.375 34.289062 100.253906 35.847656 100.179688 37.410156 C 100.167969 37.628906 100.441406 38.070312 100.515625 38.054688 C 100.945312 37.976562 101.15625 37.71875 101.027344 37.21875 C 100.890625 36.679688 100.855469 36.113281 100.742188 35.398438 Z M 102.242188 41.78125 C 102.464844 41.703125 102.726562 41.675781 102.898438 41.535156 C 103.085938 41.382812 103.183594 41.125 103.324219 40.910156 C 103.066406 40.824219 102.8125 40.6875 102.546875 40.65625 C 102.203125 40.613281 101.847656 40.628906 101.503906 40.664062 C 101.28125 40.6875 101.066406 40.792969 100.84375 40.859375 C 100.96875 41.179688 101.015625 41.578125 101.242188 41.789062 C 101.398438 41.9375 101.804688 41.824219 102.242188 41.78125 Z M 97.492188 39.203125 C 97.21875 38.441406 96.953125 37.675781 96.667969 36.917969 C 96.621094 36.796875 96.488281 36.707031 96.394531 36.601562 C 96.386719 36.738281 96.335938 36.894531 96.386719 37.007812 C 96.710938 37.730469 97.058594 38.441406 97.492188 39.203125 Z M 102.269531 24.777344 C 102.21875 24.671875 102.171875 24.574219 102.125 24.46875 C 102.050781 24.65625 101.976562 24.839844 101.902344 25.027344 C 102.023438 24.980469 102.140625 24.933594 102.269531 24.777344 Z M 102.269531 24.777344 " fill-opacity="1" fill-rule="nonzero"/></g><path fill="#ef8a5e" d="M 115.738281 84.558594 C 112.996094 83.105469 110.652344 81.34375 109.472656 78.429688 C 107.597656 73.820312 110.582031 68.902344 115.582031 68.335938 C 120.039062 67.828125 123.539062 69.632812 125.683594 73.304688 C 127.152344 75.824219 127.871094 78.824219 126.230469 81.75 C 124.640625 84.578125 120.898438 86.078125 117.589844 85.199219 C 116.980469 85.035156 116.394531 84.792969 115.738281 84.558594 Z M 122.730469 71.941406 L 122.761719 71.957031 C 122.761719 71.957031 122.703125 71.917969 122.675781 71.796875 C 122.101562 71.480469 121.535156 71.160156 120.957031 70.859375 C 120.890625 70.824219 120.765625 70.90625 120.671875 70.9375 C 120.730469 70.996094 120.777344 71.078125 120.851562 71.109375 C 121.46875 71.382812 122.09375 71.644531 122.730469 71.941406 Z M 115.691406 78.929688 C 115.398438 78.90625 115.09375 78.117188 114.839844 78.835938 C 114.316406 80.292969 115.609375 81.769531 117.140625 81.53125 C 117.640625 81.453125 118.128906 81.304688 118.617188 81.167969 C 118.746094 81.128906 118.859375 81.019531 118.980469 80.945312 C 118.863281 80.867188 118.75 80.777344 118.625 80.703125 C 117.6875 80.136719 116.742188 79.570312 115.691406 78.929688 Z M 122.40625 75.597656 C 122.589844 75.949219 122.769531 76.300781 122.949219 76.652344 C 123.089844 76.238281 123.28125 75.832031 123.359375 75.40625 C 123.410156 75.128906 123.359375 74.808594 123.265625 74.535156 C 122.929688 73.566406 121.382812 72.859375 120.347656 73.175781 C 120.292969 73.191406 120.238281 73.214844 120.179688 73.230469 C 120.277344 73.269531 120.375 73.304688 120.472656 73.347656 C 121.109375 73.617188 121.785156 73.832031 122.378906 74.179688 C 122.851562 74.449219 123.257812 74.878906 122.339844 75.183594 C 122.3125 75.191406 122.347656 75.378906 122.40625 75.597656 Z M 122.40625 75.597656 " fill-opacity="1" fill-rule="nonzero"/><g clip-path="url(#96d5fcf87c)"><path fill="#000000" d="M 31.675781 36.488281 C 28.765625 36.910156 27.3125 37.953125 27.316406 39.625 C 27.316406 41.226562 28.460938 42.164062 30.746094 42.441406 C 33.863281 42.085938 35.421875 41.457031 35.417969 40.554688 L 35.417969 38.359375 C 35.414062 37.316406 35.101562 36.691406 34.480469 36.484375 Z M 32.285156 26.097656 C 34.671875 26.214844 36.429688 26.605469 37.558594 27.265625 C 38.683594 27.921875 39.425781 32.976562 39.785156 42.425781 C 39.789062 43.957031 39.269531 44.898438 38.230469 45.25 C 37.453125 45.25 36.621094 44.832031 35.734375 44 L 32.308594 44.628906 L 30.75 44.632812 C 26.386719 44.636719 24.203125 43.597656 24.203125 41.507812 C 24.195312 36.289062 26.582031 33.675781 31.359375 33.667969 L 34.113281 33.949219 C 35.1875 33.878906 35.722656 33.261719 35.71875 32.09375 L 35.71875 30.84375 C 35.714844 29.746094 34.824219 29.09375 33.039062 28.886719 C 32.746094 28.855469 32.4375 28.835938 32.117188 28.839844 C 30.476562 28.839844 28.457031 29.285156 26.054688 30.175781 C 25.984375 30.183594 25.917969 30.1875 25.855469 30.1875 C 25.027344 30.1875 24.78125 29.664062 25.117188 28.613281 C 26.621094 26.941406 29.011719 26.101562 32.285156 26.097656 Z M 31.65625 23.277344 C 25.425781 24.085938 22.308594 25.972656 22.3125 28.929688 L 22.316406 30.183594 C 22.316406 31.785156 23.089844 32.617188 24.632812 32.683594 C 24.734375 32.6875 24.84375 32.691406 24.949219 32.691406 C 24.992188 32.691406 25.03125 32.691406 25.070312 32.6875 L 25.074219 32.6875 C 22.617188 34.183594 21.390625 36.601562 21.394531 39.945312 L 21.398438 42.140625 C 22.113281 45.6875 24.609375 47.460938 28.882812 47.453125 L 31.066406 47.449219 C 33.074219 47.394531 34.261719 47.203125 34.625 46.871094 C 35.484375 47.628906 36.597656 48.007812 37.957031 48.007812 C 38.40625 48.007812 38.878906 47.964844 39.378906 47.882812 C 41.402344 47.566406 42.578125 45.957031 42.902344 43.050781 L 42.902344 42.109375 L 42.109375 32.714844 C 41.996094 26.414062 39.136719 23.269531 33.527344 23.277344 Z M 31.65625 23.277344 " fill-opacity="1" fill-rule="nonzero"/></g><g clip-path="url(#cc18511e56)"><path fill="#000000" d="M 56.398438 34.601562 C 55.886719 34.601562 55.320312 34.679688 54.699219 34.84375 C 53.261719 35.226562 52.546875 36.082031 52.546875 37.402344 C 52.550781 39.855469 53.488281 41.214844 55.359375 41.472656 C 57.089844 41.46875 58.4375 40.738281 59.40625 39.273438 L 59.40625 38.019531 C 59.402344 36.488281 58.96875 35.480469 58.101562 34.992188 C 57.625 34.730469 57.058594 34.597656 56.398438 34.601562 Z M 49.421875 23.289062 C 49.515625 23.289062 49.617188 23.296875 49.722656 23.3125 C 51.074219 23.554688 51.910156 26.578125 52.230469 32.390625 L 52.230469 33.332031 L 52.542969 33.644531 C 53.773438 32.96875 55.070312 32.628906 56.429688 32.628906 C 56.792969 32.628906 57.15625 32.652344 57.527344 32.699219 C 60.4375 32.695312 61.894531 35.09375 61.902344 39.894531 C 61.902344 42.035156 60.347656 43.394531 57.230469 43.976562 C 56.710938 44.101562 56.179688 44.164062 55.636719 44.164062 C 54.820312 44.167969 53.976562 44.027344 53.101562 43.746094 C 52.742188 44.917969 52.199219 45.503906 51.484375 45.503906 C 51.070312 45.503906 50.597656 45.3125 50.066406 44.925781 C 49.492188 44.925781 48.859375 38.558594 48.167969 25.820312 C 47.992188 24.132812 48.410156 23.289062 49.421875 23.289062 Z M 48.527344 21.121094 C 46.621094 21.121094 45.480469 22.480469 45.101562 25.195312 L 45.746094 38.351562 C 45.753906 44.355469 46.898438 47.589844 49.1875 48.058594 L 50.433594 48.054688 C 51.972656 48.054688 52.804688 47.738281 52.925781 47.113281 C 53.660156 47.34375 54.433594 47.457031 55.246094 47.457031 C 56.277344 47.453125 57.375 47.269531 58.535156 46.898438 C 62.53125 45.515625 64.710938 42.867188 65.066406 38.953125 C 64.757812 32.683594 61.59375 29.550781 55.578125 29.5625 C 55.414062 29.5625 55.25 29.5625 55.082031 29.570312 L 54.769531 29.253906 C 54.15625 23.828125 52.28125 21.113281 49.148438 21.121094 Z M 48.527344 21.121094 " fill-opacity="1" fill-rule="nonzero"/></g><g clip-path="url(#010fac9751)"><path fill="#000000" d="M 79.550781 29.433594 C 80.28125 29.433594 81.019531 29.46875 81.757812 29.546875 C 83.421875 29.542969 84.320312 30.089844 84.460938 31.1875 C 84.585938 32.265625 84.351562 32.9375 83.761719 33.199219 C 83.613281 33.261719 83.382812 33.296875 83.078125 33.296875 C 82.222656 33.296875 80.761719 33.050781 78.699219 32.550781 L 76.777344 32.476562 C 76.726562 32.476562 76.679688 32.472656 76.632812 32.472656 C 74.636719 32.476562 73.335938 33.90625 72.730469 36.761719 C 72.769531 39.964844 74.746094 41.632812 78.660156 41.765625 C 80.585938 41.171875 82.039062 40.875 83.011719 40.871094 C 83.929688 40.871094 84.425781 41.132812 84.503906 41.65625 C 84.878906 43.8125 83.199219 44.894531 79.464844 44.898438 C 79.40625 44.898438 79.347656 44.898438 79.285156 44.898438 C 78.125 44.882812 76.246094 44.503906 73.648438 43.757812 C 71.050781 43.011719 69.6875 40.855469 69.5625 37.289062 C 69.886719 33.339844 71.328125 30.988281 73.890625 30.234375 C 75.746094 29.703125 77.632812 29.4375 79.550781 29.433594 Z M 78.855469 26.445312 C 76.050781 26.449219 73.46875 27.054688 71.109375 28.257812 C 67.871094 29.894531 66.371094 33.570312 66.605469 39.277344 C 67.285156 44.410156 71.289062 47.257812 78.613281 47.824219 L 82.667969 47.765625 C 85.816406 47.65625 87.375 45.546875 87.332031 41.441406 C 87.363281 38.9375 86.132812 37.683594 83.640625 37.6875 L 83.015625 37.6875 L 78.34375 38.582031 C 76.886719 38.550781 76.160156 37.941406 76.160156 36.757812 C 76.710938 35.78125 77.46875 35.292969 78.4375 35.289062 C 78.984375 35.289062 79.601562 35.445312 80.285156 35.761719 C 81.484375 36.316406 82.585938 36.59375 83.585938 36.59375 C 84.144531 36.59375 84.671875 36.503906 85.171875 36.328125 C 86.539062 35.855469 87.234375 34.324219 87.265625 31.730469 C 87.003906 28.808594 85.296875 27.132812 82.144531 26.699219 C 81.015625 26.53125 79.921875 26.445312 78.855469 26.445312 Z M 78.855469 26.445312 " fill-opacity="1" fill-rule="nonzero"/></g><path fill="#f8010e" d="M 56.40625 34.628906 C 57.054688 34.628906 57.617188 34.761719 58.089844 35.019531 C 58.945312 35.5 59.375 36.5 59.375 38.019531 L 59.378906 39.265625 L 59.375 39.265625 C 58.414062 40.714844 57.078125 41.4375 55.359375 41.441406 C 53.507812 41.183594 52.582031 39.839844 52.578125 37.402344 C 52.574219 36.097656 53.285156 35.25 54.707031 34.871094 C 55.324219 34.710938 55.890625 34.628906 56.398438 34.628906 C 56.402344 34.628906 56.402344 34.628906 56.40625 34.628906 Z M 49.425781 23.257812 C 49.421875 23.257812 49.421875 23.257812 49.421875 23.257812 C 48.539062 23.261719 48.097656 23.882812 48.097656 25.132812 C 48.101562 25.34375 48.113281 25.574219 48.140625 25.824219 C 48.828125 38.511719 49.46875 44.886719 50.054688 44.953125 C 50.585938 45.339844 51.0625 45.535156 51.480469 45.535156 L 51.484375 45.535156 C 52.210938 45.53125 52.757812 44.949219 53.121094 43.785156 C 53.984375 44.058594 54.820312 44.195312 55.625 44.195312 C 55.628906 44.195312 55.632812 44.195312 55.636719 44.195312 C 56.183594 44.195312 56.714844 44.128906 57.238281 44.003906 C 60.367188 43.421875 61.933594 42.054688 61.929688 39.894531 C 61.925781 35.078125 60.457031 32.667969 57.535156 32.667969 C 57.535156 32.667969 57.53125 32.667969 57.53125 32.667969 C 57.164062 32.621094 56.800781 32.597656 56.441406 32.597656 C 56.4375 32.597656 56.433594 32.597656 56.429688 32.597656 C 55.070312 32.601562 53.777344 32.9375 52.546875 33.609375 L 52.261719 33.320312 L 52.257812 32.390625 C 51.9375 26.5625 51.09375 23.527344 49.730469 23.28125 L 49.726562 23.28125 C 49.621094 23.265625 49.519531 23.257812 49.425781 23.257812 Z M 49.425781 23.257812 " fill-opacity="1" fill-rule="nonzero"/><path fill="#ef8a5e" d="M 34.472656 36.511719 C 35.082031 36.71875 35.386719 37.332031 35.386719 38.359375 L 35.390625 40.554688 C 35.390625 41.441406 33.84375 42.058594 30.746094 42.410156 C 28.480469 42.136719 27.347656 41.207031 27.34375 39.625 C 27.34375 37.972656 28.785156 36.9375 31.675781 36.515625 Z M 32.285156 26.066406 C 29.003906 26.070312 26.605469 26.914062 25.097656 28.59375 L 25.089844 28.601562 C 24.8125 29.476562 24.929688 29.996094 25.441406 30.160156 C 25.558594 30.199219 25.695312 30.214844 25.851562 30.214844 L 25.855469 30.214844 C 25.917969 30.214844 25.988281 30.214844 26.058594 30.207031 L 26.066406 30.207031 C 28.464844 29.316406 30.480469 28.871094 32.117188 28.867188 C 32.121094 28.867188 32.125 28.867188 32.128906 28.867188 C 32.445312 28.867188 32.75 28.882812 33.039062 28.917969 C 34.804688 29.121094 35.6875 29.765625 35.6875 30.84375 L 35.691406 32.09375 C 35.691406 33.242188 35.167969 33.851562 34.113281 33.921875 L 31.363281 33.636719 L 31.359375 33.636719 C 26.558594 33.644531 24.164062 36.269531 24.171875 41.507812 C 24.175781 43.609375 26.355469 44.660156 30.714844 44.660156 C 30.726562 44.660156 30.738281 44.660156 30.75 44.660156 L 32.3125 44.660156 L 35.726562 44.03125 C 36.613281 44.863281 37.445312 45.277344 38.226562 45.277344 L 38.242188 45.277344 C 39.292969 44.921875 39.816406 43.972656 39.816406 42.425781 C 39.457031 32.964844 38.707031 27.902344 37.570312 27.238281 C 36.441406 26.574219 34.679688 26.183594 32.285156 26.066406 Z M 32.285156 26.066406 " fill-opacity="1" fill-rule="nonzero"/><path fill="#f8ed68" d="M 79.582031 29.398438 C 79.570312 29.398438 79.5625 29.398438 79.550781 29.398438 C 77.628906 29.402344 75.738281 29.667969 73.878906 30.203125 C 71.304688 30.957031 69.851562 33.320312 69.527344 37.285156 L 69.527344 37.292969 C 69.652344 40.875 71.023438 43.042969 73.640625 43.792969 C 76.242188 44.539062 78.121094 44.917969 79.285156 44.933594 C 79.339844 44.933594 79.394531 44.933594 79.445312 44.933594 C 79.453125 44.933594 79.460938 44.933594 79.464844 44.933594 C 82.882812 44.929688 84.59375 44.023438 84.589844 42.21875 C 84.589844 42.039062 84.570312 41.847656 84.535156 41.648438 C 84.457031 41.109375 83.953125 40.835938 83.019531 40.835938 C 83.019531 40.835938 83.015625 40.835938 83.011719 40.835938 C 82.035156 40.839844 80.582031 41.136719 78.652344 41.730469 C 74.765625 41.597656 72.804688 39.941406 72.765625 36.761719 C 73.367188 33.929688 74.65625 32.511719 76.632812 32.511719 C 76.632812 32.511719 76.636719 32.511719 76.636719 32.511719 C 76.683594 32.511719 76.726562 32.511719 76.773438 32.511719 L 78.695312 32.585938 L 78.691406 32.585938 C 80.753906 33.082031 82.214844 33.332031 83.070312 33.332031 C 83.074219 33.332031 83.074219 33.332031 83.078125 33.332031 C 83.386719 33.332031 83.621094 33.296875 83.777344 33.230469 C 84.382812 32.960938 84.621094 32.277344 84.496094 31.183594 C 84.355469 30.066406 83.445312 29.511719 81.769531 29.511719 C 81.765625 29.511719 81.761719 29.511719 81.761719 29.511719 C 81.027344 29.4375 80.304688 29.398438 79.582031 29.398438 Z M 79.582031 29.398438 " fill-opacity="1" fill-rule="nonzero"/><path fill="#ef8a5e" d="M 61.191406 76.980469 C 63.015625 77.523438 64.933594 76.480469 65.472656 74.652344 L 65.554688 74.378906 C 66.097656 72.550781 65.054688 70.628906 63.230469 70.085938 C 61.40625 69.546875 59.488281 70.585938 58.945312 72.414062 L 58.867188 72.691406 C 58.324219 74.519531 59.363281 76.441406 61.191406 76.980469 " fill-opacity="1" fill-rule="nonzero"/><g clip-path="url(#351813a684)"><path fill="#ef8a5e" d="M 68.460938 53.003906 C 65.289062 52.058594 63.132812 52.464844 61.648438 53.617188 C 59.800781 55.050781 60.363281 57.984375 62.605469 58.652344 L 62.773438 58.703125 C 63.960938 59.054688 65.207031 58.558594 65.902344 57.535156 C 66.117188 57.214844 66.359375 57.089844 66.660156 57.179688 C 67.179688 57.332031 67.292969 57.707031 67.007812 58.675781 C 66.65625 59.855469 66.164062 60.5 64.925781 61.375 C 62.660156 62.925781 61.398438 64.136719 60.703125 66.492188 L 60.527344 67.082031 C 60.429688 67.40625 60.617188 67.746094 60.941406 67.84375 L 66.375 69.457031 C 66.699219 69.554688 67.039062 69.367188 67.136719 69.042969 C 67.453125 67.96875 67.957031 67.289062 69.769531 65.867188 C 71.796875 64.359375 72.949219 63.644531 73.699219 61.117188 C 74.664062 57.859375 73.789062 54.585938 68.460938 53.003906 " fill-opacity="1" fill-rule="nonzero"/></g><path fill="#ef8a5e" d="M 51.132812 70.425781 C 52.621094 70.433594 53.835938 69.234375 53.84375 67.742188 L 53.84375 67.515625 C 53.851562 66.023438 52.648438 64.808594 51.160156 64.800781 C 49.671875 64.792969 48.457031 65.996094 48.449219 67.488281 L 48.449219 67.714844 C 48.441406 69.203125 49.644531 70.417969 51.132812 70.425781 " fill-opacity="1" fill-rule="nonzero"/><g clip-path="url(#ed9197d39c)"><path fill="#ef8a5e" d="M 51.359375 50.824219 C 48.773438 50.8125 47.242188 51.589844 46.378906 52.777344 C 45.300781 54.257812 46.367188 56.339844 48.195312 56.347656 L 48.332031 56.351562 C 49.300781 56.355469 50.128906 55.710938 50.429688 54.789062 C 50.523438 54.503906 50.671875 54.355469 50.917969 54.355469 C 51.34375 54.359375 51.511719 54.613281 51.507812 55.40625 C 51.5 56.367188 51.273438 56.960938 50.535156 57.886719 C 49.167969 59.546875 48.484375 60.730469 48.476562 62.65625 L 48.472656 63.136719 C 48.472656 63.402344 48.6875 63.617188 48.949219 63.617188 L 53.382812 63.640625 C 53.648438 63.644531 53.863281 63.429688 53.867188 63.164062 C 53.871094 62.285156 54.101562 61.667969 55.152344 60.203125 C 56.347656 58.625 57.054688 57.835938 57.066406 55.773438 C 57.082031 53.117188 55.707031 50.847656 51.359375 50.824219 " fill-opacity="1" fill-rule="nonzero"/></g><g clip-path="url(#2fc9f3f5ea)"><path fill="#ef8a5e" d="M 44.882812 84.191406 C 46.03125 83.832031 46.675781 82.605469 46.316406 81.453125 L 46.261719 81.277344 C 45.902344 80.125 44.675781 79.480469 43.523438 79.84375 C 42.375 80.203125 41.730469 81.429688 42.089844 82.582031 L 42.144531 82.757812 C 42.503906 83.910156 43.730469 84.550781 44.882812 84.191406 " fill-opacity="1" fill-rule="nonzero"/></g><g clip-path="url(#dd71afac0d)"><path fill="#ef8a5e" d="M 40.25 69.003906 C 38.25 69.628906 37.257812 70.605469 36.882812 71.734375 C 36.414062 73.144531 37.746094 74.488281 39.164062 74.046875 L 39.265625 74.011719 C 40.015625 73.777344 40.496094 73.078125 40.503906 72.292969 C 40.503906 72.046875 40.585938 71.898438 40.773438 71.839844 C 41.101562 71.734375 41.296875 71.890625 41.484375 72.503906 C 41.71875 73.246094 41.6875 73.761719 41.34375 74.660156 C 40.699219 76.277344 40.460938 77.359375 40.925781 78.84375 L 41.039062 79.214844 C 41.105469 79.421875 41.324219 79.535156 41.527344 79.472656 L 44.953125 78.398438 C 45.160156 78.335938 45.273438 78.117188 45.210938 77.910156 C 45 77.234375 45.023438 76.699219 45.476562 75.308594 C 46.011719 73.796875 46.367188 73.015625 45.867188 71.421875 C 45.226562 69.367188 43.613281 67.953125 40.25 69.003906 " fill-opacity="1" fill-rule="nonzero"/></g></svg>