<svg xmlns="http://www.w3.org/2000/svg" xmlns:xlink="http://www.w3.org/1999/xlink" width="300" zoomAndPan="magnify" viewBox="0 0 224.87999 225" height="300" preserveAspectRatio="xMidYMid meet" version="1.0"><defs><clipPath id="aba61c5f3d"><path d="M 39.765625 22.546875 L 185.1875 22.546875 L 185.1875 202.453125 L 39.765625 202.453125 Z M 39.765625 22.546875 " clip-rule="nonzero"/></clipPath><clipPath id="b5634469fa"><path d="M 39.765625 30 L 172 30 L 172 202.453125 L 39.765625 202.453125 Z M 39.765625 30 " clip-rule="nonzero"/></clipPath><clipPath id="25327859a9"><path d="M 43 22.546875 L 90 22.546875 L 90 35 L 43 35 Z M 43 22.546875 " clip-rule="nonzero"/></clipPath><clipPath id="9effaf0469"><path d="M 136 22.546875 L 184 22.546875 L 184 34 L 136 34 Z M 136 22.546875 " clip-rule="nonzero"/></clipPath><clipPath id="c96cc5ad98"><path d="M 145 24 L 185.1875 24 L 185.1875 189 L 145 189 Z M 145 24 " clip-rule="nonzero"/></clipPath></defs><path fill="#000000" d="M 178.261719 23.171875 L 153.90625 23.171875 C 152.585938 23.171875 151.367188 23.582031 150.359375 24.277344 L 150.355469 24.277344 L 137.03125 32.363281 L 137.035156 32.363281 C 135.179688 33.445312 133.925781 35.453125 133.925781 37.757812 L 133.925781 136.6875 C 133.925781 144.007812 131.128906 150.683594 126.546875 155.714844 C 124.398438 156.28125 122.148438 156.605469 119.832031 156.644531 C 103.988281 156.917969 91.023438 143.683594 91.023438 127.847656 L 91.023438 29.417969 C 91.023438 25.96875 88.226562 23.171875 84.773438 23.171875 L 60.417969 23.171875 C 59.078125 23.171875 57.835938 23.597656 56.820312 24.316406 L 56.820312 24.3125 L 43.980469 32.136719 C 43.609375 32.3125 43.261719 32.527344 42.9375 32.769531 L 42.933594 32.773438 C 41.421875 33.914062 40.441406 35.71875 40.441406 37.757812 L 40.441406 135.972656 C 40.441406 171.914062 69.269531 201.613281 105.230469 201.820312 C 120.601562 201.910156 134.761719 196.648438 145.960938 187.796875 C 168.660156 177.601562 184.507812 154.789062 184.507812 128.347656 L 184.507812 29.417969 C 184.507812 25.96875 181.710938 23.171875 178.261719 23.171875 Z M 178.261719 23.171875 " fill-opacity="1" fill-rule="nonzero"/><g clip-path="url(#aba61c5f3d)"><path fill="#000000" d="M 105.609375 202.445312 C 105.484375 202.445312 105.355469 202.445312 105.226562 202.445312 C 87.710938 202.34375 71.257812 195.34375 58.902344 182.734375 C 52.914062 176.621094 48.214844 169.523438 44.929688 161.632812 C 41.535156 153.480469 39.816406 144.847656 39.816406 135.972656 L 39.816406 37.757812 C 39.816406 35.597656 40.804688 33.609375 42.527344 32.296875 C 42.546875 32.28125 42.5625 32.269531 42.582031 32.257812 C 42.925781 32 43.292969 31.773438 43.679688 31.585938 L 56.492188 23.78125 C 56.5 23.777344 56.503906 23.773438 56.511719 23.769531 C 57.667969 22.96875 59.015625 22.546875 60.417969 22.546875 L 84.773438 22.546875 C 88.5625 22.546875 91.648438 25.628906 91.648438 29.417969 L 91.648438 127.847656 C 91.648438 135.386719 94.753906 142.765625 100.167969 148.085938 C 105.507812 153.328125 112.484375 156.140625 119.820312 156.019531 C 121.96875 155.984375 124.117188 155.695312 126.210938 155.15625 C 130.785156 150.066406 133.300781 143.515625 133.300781 136.6875 L 133.300781 37.757812 C 133.300781 35.347656 134.589844 33.09375 136.664062 31.859375 C 136.675781 31.847656 136.691406 31.835938 136.707031 31.828125 L 150.035156 23.742188 C 150.035156 23.742188 150.039062 23.738281 150.042969 23.738281 C 151.1875 22.957031 152.519531 22.546875 153.90625 22.546875 L 178.261719 22.546875 C 182.050781 22.546875 185.132812 25.628906 185.132812 29.417969 L 185.132812 128.347656 C 185.132812 154.167969 169.890625 177.703125 146.289062 188.335938 C 140.570312 192.84375 134.203125 196.347656 127.367188 198.75 C 120.386719 201.203125 113.066406 202.445312 105.609375 202.445312 Z M 43.3125 33.269531 C 43.308594 33.273438 43.308594 33.273438 43.308594 33.273438 C 41.882812 34.347656 41.066406 35.984375 41.066406 37.757812 L 41.066406 135.972656 C 41.066406 171.734375 69.851562 200.992188 105.234375 201.195312 C 105.359375 201.195312 105.492188 201.195312 105.617188 201.195312 C 120.261719 201.199219 134.070312 196.398438 145.574219 187.304688 C 145.613281 187.273438 145.660156 187.246094 145.707031 187.226562 C 168.898438 176.8125 183.882812 153.699219 183.882812 128.347656 L 183.882812 29.417969 C 183.882812 26.320312 181.359375 23.796875 178.261719 23.796875 L 153.90625 23.796875 C 152.757812 23.796875 151.65625 24.140625 150.714844 24.792969 C 150.691406 24.808594 150.664062 24.824219 150.640625 24.835938 L 137.410156 32.863281 C 137.390625 32.878906 137.371094 32.890625 137.351562 32.902344 C 135.625 33.910156 134.550781 35.769531 134.550781 37.757812 L 134.550781 136.6875 C 134.550781 143.886719 131.875 150.792969 127.011719 156.136719 C 126.929688 156.226562 126.824219 156.289062 126.707031 156.320312 C 124.460938 156.910156 122.152344 157.230469 119.839844 157.269531 C 112.164062 157.40625 104.871094 154.457031 99.292969 148.976562 C 93.640625 143.421875 90.398438 135.722656 90.398438 127.847656 L 90.398438 29.417969 C 90.398438 26.320312 87.875 23.796875 84.773438 23.796875 L 60.417969 23.796875 C 59.253906 23.796875 58.132812 24.152344 57.179688 24.828125 C 57.152344 24.847656 57.121094 24.863281 57.089844 24.878906 L 44.304688 32.667969 C 44.285156 32.679688 44.269531 32.691406 44.25 32.699219 C 43.921875 32.855469 43.605469 33.050781 43.316406 33.269531 C 43.3125 33.269531 43.3125 33.269531 43.3125 33.269531 Z M 43.3125 33.269531 " fill-opacity="1" fill-rule="nonzero"/></g><path fill="#ffffff" d="M 105.230469 201.820312 C 69.269531 201.613281 40.441406 171.914062 40.441406 135.972656 L 40.441406 37.757812 C 40.441406 34.308594 43.238281 31.511719 46.6875 31.511719 L 71.042969 31.511719 C 74.496094 31.511719 77.292969 34.308594 77.292969 37.757812 L 77.292969 136.1875 C 77.292969 152.023438 90.261719 165.257812 106.101562 164.984375 C 121.488281 164.722656 133.925781 152.128906 133.925781 136.6875 L 133.925781 37.757812 C 133.925781 34.308594 136.722656 31.511719 140.175781 31.511719 L 164.53125 31.511719 C 167.980469 31.511719 170.78125 34.308594 170.78125 37.757812 L 170.78125 136.6875 C 170.78125 172.730469 141.339844 202.027344 105.230469 201.820312 Z M 105.230469 201.820312 " fill-opacity="1" fill-rule="nonzero"/><g clip-path="url(#b5634469fa)"><path fill="#000000" d="M 105.613281 202.445312 C 105.484375 202.445312 105.355469 202.445312 105.226562 202.445312 C 87.710938 202.34375 71.257812 195.34375 58.902344 182.734375 C 52.914062 176.621094 48.214844 169.523438 44.929688 161.632812 C 41.535156 153.480469 39.816406 144.847656 39.816406 135.972656 L 39.816406 37.757812 C 39.816406 33.96875 42.898438 30.886719 46.6875 30.886719 L 71.042969 30.886719 C 74.835938 30.886719 77.917969 33.96875 77.917969 37.757812 L 77.917969 136.1875 C 77.917969 143.726562 81.023438 151.105469 86.441406 156.425781 C 91.777344 161.667969 98.757812 164.484375 106.089844 164.359375 C 121.09375 164.105469 133.300781 151.691406 133.300781 136.6875 L 133.300781 37.757812 C 133.300781 33.96875 136.386719 30.886719 140.175781 30.886719 L 164.53125 30.886719 C 168.320312 30.886719 171.40625 33.96875 171.40625 37.757812 L 171.40625 136.6875 C 171.40625 145.582031 169.648438 154.21875 166.1875 162.347656 C 162.847656 170.203125 158.066406 177.25 151.976562 183.296875 C 145.890625 189.347656 138.816406 194.082031 130.941406 197.378906 C 122.902344 200.742188 114.382812 202.445312 105.613281 202.445312 Z M 46.6875 32.136719 C 43.585938 32.136719 41.066406 34.65625 41.066406 37.757812 L 41.066406 135.972656 C 41.066406 171.734375 69.851562 200.992188 105.234375 201.195312 C 105.359375 201.195312 105.488281 201.195312 105.613281 201.195312 C 122.757812 201.199219 138.898438 194.535156 151.097656 182.414062 C 163.386719 170.199219 170.15625 153.960938 170.15625 136.6875 L 170.15625 37.757812 C 170.15625 34.65625 167.632812 32.136719 164.53125 32.136719 L 140.175781 32.136719 C 137.074219 32.136719 134.550781 34.65625 134.550781 37.757812 L 134.550781 136.6875 C 134.550781 144.316406 131.597656 151.515625 126.230469 156.964844 C 120.871094 162.410156 113.726562 165.480469 106.113281 165.609375 C 98.441406 165.746094 91.140625 162.796875 85.566406 157.316406 C 79.910156 151.761719 76.667969 144.058594 76.667969 136.1875 L 76.667969 37.757812 C 76.667969 34.65625 74.144531 32.136719 71.042969 32.136719 Z M 46.6875 32.136719 " fill-opacity="1" fill-rule="nonzero"/></g><path fill="#c2b092" d="M 84.773438 23.171875 L 60.417969 23.171875 C 59.078125 23.171875 57.835938 23.597656 56.820312 24.316406 L 56.820312 24.3125 L 43.980469 32.136719 C 44.800781 31.738281 45.714844 31.511719 46.6875 31.511719 L 71.046875 31.511719 C 72.828125 31.511719 74.433594 32.261719 75.570312 33.460938 L 89.285156 25.105469 C 88.148438 23.917969 86.550781 23.171875 84.773438 23.171875 Z M 84.773438 23.171875 " fill-opacity="1" fill-rule="nonzero"/><g clip-path="url(#25327859a9)"><path fill="#000000" d="M 75.570312 34.085938 C 75.40625 34.085938 75.238281 34.015625 75.117188 33.890625 C 74.042969 32.757812 72.597656 32.136719 71.042969 32.136719 L 46.6875 32.136719 C 45.84375 32.136719 45.023438 32.324219 44.25 32.699219 C 43.949219 32.84375 43.589844 32.726562 43.429688 32.433594 C 43.269531 32.140625 43.371094 31.777344 43.652344 31.601562 L 56.492188 23.78125 C 56.5 23.777344 56.503906 23.773438 56.511719 23.769531 C 57.667969 22.96875 59.015625 22.546875 60.417969 22.546875 L 84.773438 22.546875 C 86.664062 22.546875 88.425781 23.300781 89.738281 24.671875 C 89.867188 24.808594 89.929688 25 89.90625 25.1875 C 89.878906 25.375 89.773438 25.539062 89.609375 25.636719 L 75.898438 33.992188 C 75.796875 34.054688 75.683594 34.085938 75.570312 34.085938 Z M 47.230469 30.886719 L 71.046875 30.886719 C 72.773438 30.886719 74.394531 31.519531 75.660156 32.671875 L 88.25 25.003906 C 87.261719 24.222656 86.054688 23.796875 84.773438 23.796875 L 60.417969 23.796875 C 59.253906 23.796875 58.132812 24.152344 57.179688 24.828125 C 57.152344 24.847656 57.121094 24.863281 57.089844 24.878906 Z M 47.230469 30.886719 " fill-opacity="1" fill-rule="nonzero"/></g><path fill="#c2b092" d="M 119.832031 156.644531 C 103.988281 156.917969 91.023438 143.683594 91.023438 127.847656 L 91.023438 29.417969 C 91.023438 27.742188 90.359375 26.226562 89.285156 25.105469 L 75.570312 33.460938 C 76.636719 34.578125 77.292969 36.089844 77.292969 37.757812 L 77.292969 136.1875 C 77.292969 152.023438 90.257812 165.257812 106.101562 164.984375 C 114.195312 164.847656 121.46875 161.296875 126.546875 155.714844 C 124.398438 156.28125 122.148438 156.605469 119.832031 156.644531 Z M 119.832031 156.644531 " fill-opacity="1" fill-rule="nonzero"/><path fill="#000000" d="M 105.621094 165.613281 C 98.128906 165.613281 91.023438 162.679688 85.566406 157.316406 C 79.910156 151.761719 76.667969 144.058594 76.667969 136.1875 L 76.667969 37.757812 C 76.667969 36.316406 76.117188 34.941406 75.117188 33.890625 C 74.988281 33.753906 74.925781 33.566406 74.953125 33.378906 C 74.976562 33.191406 75.085938 33.023438 75.246094 32.925781 L 88.960938 24.570312 C 89.210938 24.417969 89.535156 24.460938 89.738281 24.671875 C 90.96875 25.960938 91.648438 27.644531 91.648438 29.417969 L 91.648438 127.847656 C 91.648438 135.386719 94.753906 142.765625 100.167969 148.085938 C 105.503906 153.328125 112.484375 156.144531 119.820312 156.019531 C 122.03125 155.984375 124.242188 155.675781 126.390625 155.113281 C 126.65625 155.042969 126.9375 155.15625 127.082031 155.390625 C 127.226562 155.628906 127.195312 155.929688 127.011719 156.136719 C 121.652344 162.019531 114.035156 165.472656 106.113281 165.609375 C 105.949219 165.613281 105.785156 165.613281 105.621094 165.613281 Z M 76.519531 33.613281 C 77.425781 34.804688 77.917969 36.25 77.917969 37.757812 L 77.917969 136.1875 C 77.917969 143.726562 81.023438 151.105469 86.441406 156.425781 C 91.777344 161.667969 98.765625 164.484375 106.089844 164.359375 C 112.972656 164.242188 119.617188 161.507812 124.621094 156.789062 C 123.042969 157.082031 121.441406 157.242188 119.84375 157.269531 C 112.164062 157.40625 104.871094 154.457031 99.292969 148.976562 C 93.640625 143.421875 90.398438 135.722656 90.398438 127.847656 L 90.398438 29.417969 C 90.398438 28.132812 89.960938 26.90625 89.164062 25.910156 Z M 76.519531 33.613281 " fill-opacity="1" fill-rule="nonzero"/><path fill="#c2b092" d="M 178.261719 23.171875 L 153.90625 23.171875 C 152.585938 23.171875 151.367188 23.582031 150.359375 24.277344 L 150.355469 24.277344 L 137.03125 32.363281 L 137.035156 32.363281 C 137.960938 31.824219 139.03125 31.511719 140.175781 31.511719 L 164.53125 31.511719 C 166.257812 31.511719 167.820312 32.210938 168.949219 33.339844 L 182.664062 24.988281 C 181.53125 23.867188 179.976562 23.171875 178.261719 23.171875 Z M 178.261719 23.171875 " fill-opacity="1" fill-rule="nonzero"/><g clip-path="url(#9effaf0469)"><path fill="#000000" d="M 168.949219 33.964844 C 168.789062 33.964844 168.628906 33.902344 168.507812 33.78125 C 167.445312 32.71875 166.035156 32.136719 164.53125 32.136719 L 140.175781 32.136719 C 139.1875 32.136719 138.210938 32.402344 137.351562 32.902344 C 137.128906 33.03125 136.851562 33.011719 136.648438 32.855469 C 136.488281 32.726562 136.398438 32.527344 136.410156 32.324219 C 136.421875 32.121094 136.535156 31.933594 136.707031 31.828125 L 150.03125 23.742188 C 150.035156 23.742188 150.039062 23.738281 150.042969 23.738281 C 151.1875 22.957031 152.519531 22.546875 153.90625 22.546875 L 178.261719 22.546875 C 180.085938 22.546875 181.804688 23.257812 183.101562 24.542969 C 183.238281 24.679688 183.304688 24.871094 183.28125 25.058594 C 183.261719 25.25 183.152344 25.421875 182.988281 25.519531 L 169.273438 33.875 C 169.175781 33.933594 169.0625 33.964844 168.949219 33.964844 Z M 140.667969 30.886719 L 164.53125 30.886719 C 166.199219 30.886719 167.78125 31.476562 169.027344 32.5625 L 181.605469 24.898438 C 180.640625 24.183594 179.480469 23.796875 178.261719 23.796875 L 153.90625 23.796875 C 152.757812 23.796875 151.65625 24.140625 150.714844 24.792969 C 150.691406 24.808594 150.664062 24.824219 150.640625 24.835938 Z M 140.667969 30.886719 " fill-opacity="1" fill-rule="nonzero"/></g><path fill="#c2b092" d="M 182.660156 24.988281 L 168.949219 33.339844 C 170.082031 34.472656 170.78125 36.03125 170.78125 37.757812 L 170.78125 136.6875 C 170.78125 157.386719 161.066406 175.859375 145.960938 187.796875 C 168.660156 177.601562 184.507812 154.789062 184.507812 128.347656 L 184.507812 29.417969 C 184.507812 27.683594 183.800781 26.117188 182.660156 24.988281 Z M 182.660156 24.988281 " fill-opacity="1" fill-rule="nonzero"/><g clip-path="url(#c96cc5ad98)"><path fill="#000000" d="M 145.960938 188.421875 C 145.75 188.421875 145.542969 188.3125 145.425781 188.121094 C 145.261719 187.851562 145.328125 187.503906 145.574219 187.308594 C 161.195312 174.960938 170.15625 156.511719 170.15625 136.6875 L 170.15625 37.757812 C 170.15625 36.253906 169.570312 34.84375 168.507812 33.78125 C 168.371094 33.648438 168.304688 33.457031 168.328125 33.265625 C 168.351562 33.078125 168.460938 32.90625 168.625 32.808594 L 182.335938 24.453125 C 182.582031 24.304688 182.898438 24.339844 183.101562 24.542969 C 184.414062 25.84375 185.132812 27.574219 185.132812 29.417969 L 185.132812 128.347656 C 185.132812 154.191406 169.859375 177.75 146.21875 188.367188 C 146.136719 188.402344 146.046875 188.421875 145.960938 188.421875 Z M 169.914062 33.484375 C 170.878906 34.695312 171.40625 36.1875 171.40625 37.757812 L 171.40625 136.6875 C 171.40625 146.902344 169.113281 156.699219 164.59375 165.804688 C 161.035156 172.976562 156.105469 179.535156 150.191406 185 C 170.8125 173.75 183.882812 152.027344 183.882812 128.347656 L 183.882812 29.417969 C 183.882812 28.074219 183.414062 26.800781 182.550781 25.785156 Z M 169.914062 33.484375 " fill-opacity="1" fill-rule="nonzero"/></g></svg>