<svg xmlns="http://www.w3.org/2000/svg" xmlns:xlink="http://www.w3.org/1999/xlink" width="200" zoomAndPan="magnify" viewBox="0 0 150 112.499997" height="150" preserveAspectRatio="xMidYMid meet" version="1.0"><defs><clipPath id="e811e5f495"><path d="M 49 11.199219 L 65 11.199219 L 65 24 L 49 24 Z M 49 11.199219 " clip-rule="nonzero"/></clipPath><clipPath id="c96b096d3c"><path d="M 35.070312 13 L 53 13 L 53 29 L 35.070312 29 Z M 35.070312 13 " clip-rule="nonzero"/></clipPath><clipPath id="768f4940bd"><path d="M 56 69 L 66 69 L 66 100.800781 L 56 100.800781 Z M 56 69 " clip-rule="nonzero"/></clipPath><clipPath id="a426e5c71f"><path d="M 56 94 L 66 94 L 66 100.800781 L 56 100.800781 Z M 56 94 " clip-rule="nonzero"/></clipPath><clipPath id="f41ad4ad4b"><path d="M 107 42 L 114.964844 42 L 114.964844 55 L 107 55 Z M 107 42 " clip-rule="nonzero"/></clipPath></defs><g clip-path="url(#e811e5f495)"><path fill="#3c2319" d="M 61.992188 15.578125 C 60.566406 13.511719 56.351562 11.378906 55.6875 12.046875 C 55.015625 12.710938 56.011719 13.371094 56.554688 13.800781 C 57.097656 14.226562 57.738281 14.597656 58.03125 15.222656 C 56.914062 14.691406 55.878906 14.304688 54.644531 14.160156 C 53.414062 14.019531 51.960938 14.15625 51.007812 14.949219 C 50.914062 15.03125 50.8125 15.125 50.796875 15.25 C 50.765625 15.480469 51.011719 15.640625 51.222656 15.742188 C 52.480469 16.335938 53.738281 16.933594 54.996094 17.53125 C 53.300781 17.523438 51.488281 17.546875 50.09375 18.515625 C 49.917969 18.636719 49.738281 18.800781 49.726562 19.015625 C 49.71875 19.324219 50.054688 19.515625 50.355469 19.605469 C 51.664062 19.988281 53.0625 19.773438 54.425781 19.875 C 55.78125 19.984375 57.289062 20.589844 57.710938 21.890625 C 57.890625 22.4375 57.875 23.09375 58.28125 23.507812 C 58.609375 23.835938 59.113281 23.898438 59.578125 23.933594 C 61.140625 24.046875 63.933594 23.886719 64.332031 22.023438 C 64.75 20.105469 63.042969 17.101562 61.992188 15.578125 " fill-opacity="1" fill-rule="nonzero"/></g><g clip-path="url(#c96b096d3c)"><path fill="#dddbd9" d="M 44.351562 16.933594 C 42.769531 16.089844 41.191406 15.242188 39.613281 14.398438 C 38.964844 14.050781 38.265625 13.695312 37.539062 13.78125 C 36.238281 13.933594 35.515625 15.390625 35.378906 16.695312 C 35.101562 19.3125 36.253906 21.953125 38.070312 23.855469 C 39.886719 25.761719 42.308594 27 44.8125 27.808594 C 46.117188 28.234375 47.5 28.554688 48.855469 28.347656 C 50.210938 28.140625 51.539062 27.304688 52.003906 26.015625 C 53.582031 21.578125 47.34375 18.535156 44.351562 16.933594 " fill-opacity="1" fill-rule="nonzero"/></g><path fill="#dddbd9" d="M 77.589844 17.675781 C 78.410156 16.976562 79.214844 16.246094 80.175781 15.753906 C 81.132812 15.265625 82.292969 15.046875 83.292969 15.4375 C 84.777344 16.015625 85.507812 17.8125 85.269531 19.390625 C 85.027344 20.960938 84.019531 22.3125 82.875 23.417969 C 79.988281 26.207031 72.921875 29.804688 68.859375 27.4375 C 64.214844 24.726562 75.628906 19.324219 77.589844 17.675781 " fill-opacity="1" fill-rule="nonzero"/><path fill="#dddbd9" d="M 73.324219 41.492188 C 73.054688 43.796875 72.371094 46.046875 70.898438 47.597656 C 70.015625 48.53125 68.847656 49.210938 67.308594 49.503906 L 67.292969 49.503906 C 67.027344 49.558594 66.75 49.59375 66.460938 49.621094 C 63.695312 49.867188 47.882812 51.546875 44.269531 49.066406 C 41.722656 47.3125 41.8125 42.398438 42.597656 38.613281 L 42.597656 38.609375 C 42.707031 38.09375 42.824219 37.601562 42.953125 37.140625 C 42.976562 37.054688 42.996094 36.972656 43.023438 36.890625 C 43.175781 36.371094 43.332031 35.894531 43.492188 35.480469 C 43.597656 35.21875 43.710938 34.917969 43.835938 34.589844 C 44.011719 34.121094 44.199219 33.605469 44.390625 33.0625 L 44.390625 33.058594 C 44.539062 32.664062 44.6875 32.25 44.835938 31.839844 C 45.15625 30.953125 45.46875 30.066406 45.738281 29.300781 C 45.886719 28.882812 46.019531 28.507812 46.132812 28.1875 L 46.132812 28.183594 C 46.355469 27.566406 46.503906 27.152344 46.542969 27.074219 C 47.5625 24.953125 49.152344 23.058594 51.058594 21.605469 C 51.214844 21.488281 51.375 21.371094 51.53125 21.257812 L 51.570312 21.234375 C 52.25 20.753906 52.96875 20.335938 53.714844 19.980469 L 53.871094 19.902344 C 54.828125 19.453125 55.832031 19.121094 56.851562 18.90625 L 56.859375 18.90625 C 57.625 18.742188 58.410156 18.65625 59.195312 18.652344 C 60.585938 18.640625 61.984375 18.882812 63.335938 19.433594 C 64.007812 19.710938 64.675781 20.0625 65.324219 20.496094 C 65.769531 20.792969 66.199219 21.128906 66.621094 21.507812 L 66.699219 21.578125 C 67.351562 22.164062 67.949219 22.792969 68.5 23.460938 C 68.609375 23.589844 68.710938 23.722656 68.8125 23.851562 C 69.855469 25.179688 70.707031 26.640625 71.378906 28.183594 C 71.640625 28.761719 71.871094 29.359375 72.074219 29.964844 C 72.304688 30.613281 72.496094 31.273438 72.667969 31.941406 C 72.851562 32.679688 73.003906 33.429688 73.125 34.183594 C 73.199219 34.648438 73.265625 35.121094 73.3125 35.59375 C 73.375 36.160156 73.417969 36.726562 73.441406 37.296875 C 73.5 38.613281 73.488281 40.0625 73.324219 41.492188 " fill-opacity="1" fill-rule="nonzero"/><path fill="#dddbd9" d="M 104.386719 71.542969 C 104.332031 71.707031 104.269531 71.871094 104.195312 72.03125 C 103.082031 74.542969 100.128906 76.347656 96.972656 77.167969 C 96.679688 77.25 96.378906 77.316406 96.078125 77.378906 L 96.066406 77.378906 C 93.140625 78 90.046875 77.992188 87.007812 77.941406 C 86.835938 77.941406 86.667969 77.9375 86.5 77.933594 C 86.328125 77.929688 86.160156 77.929688 85.988281 77.925781 C 83.429688 77.882812 80.859375 77.835938 78.296875 77.734375 C 76.648438 77.671875 75 77.59375 73.355469 77.476562 L 73.226562 77.46875 L 73.199219 77.464844 C 70.945312 77.3125 68.695312 77.089844 66.460938 76.777344 C 66.285156 76.75 66.109375 76.726562 65.933594 76.695312 L 65.90625 76.695312 C 65.691406 76.664062 65.480469 76.628906 65.269531 76.597656 C 64.78125 76.523438 64.289062 76.433594 63.792969 76.332031 C 60.945312 75.730469 58.117188 74.605469 57.289062 72.390625 C 57.207031 72.171875 57.148438 71.945312 57.105469 71.714844 L 57.101562 71.695312 L 57.101562 71.6875 C 56.957031 70.832031 57.074219 69.945312 57.152344 69.078125 L 57.152344 69.042969 C 57.25 68.234375 57.300781 67.417969 57.3125 66.597656 C 57.332031 65.394531 57.261719 64.179688 57.132812 62.980469 C 57.042969 62.164062 56.929688 61.355469 56.789062 60.554688 C 56.710938 60.128906 56.578125 59.675781 56.425781 59.1875 C 55.824219 57.335938 54.882812 55.15625 55.53125 53.535156 C 56.367188 51.460938 59.382812 51.230469 61.625 50.765625 C 63.171875 50.441406 64.765625 50.113281 66.273438 49.640625 L 66.277344 49.640625 L 66.28125 49.636719 C 67.699219 49.195312 69.039062 48.617188 70.195312 47.792969 C 70.429688 47.621094 70.667969 47.441406 70.972656 47.375 L 71.117188 47.355469 C 71.925781 47.285156 72.488281 48.09375 72.851562 48.730469 C 73.195312 49.335938 73.621094 49.910156 74.109375 50.445312 C 74.5 50.863281 74.925781 51.253906 75.394531 51.613281 C 76 52.082031 76.660156 52.5 77.371094 52.851562 C 77.90625 53.121094 78.464844 53.351562 79.046875 53.546875 C 79.160156 53.585938 79.269531 53.617188 79.382812 53.652344 C 80.121094 53.875 80.878906 54.039062 81.65625 54.15625 C 82.410156 54.28125 83.179688 54.359375 83.957031 54.417969 C 84.441406 54.453125 84.925781 54.480469 85.417969 54.5 C 86.429688 54.542969 87.449219 54.566406 88.457031 54.601562 C 89.121094 54.621094 89.78125 54.644531 90.433594 54.691406 C 91.535156 54.753906 92.613281 54.867188 93.644531 55.0625 C 94.390625 55.207031 95.117188 55.394531 95.808594 55.644531 C 96.488281 55.890625 97.144531 56.203125 97.753906 56.589844 L 97.828125 56.632812 C 98.105469 56.808594 98.371094 57 98.621094 57.203125 C 98.765625 57.320312 98.902344 57.4375 99.035156 57.558594 C 99.902344 58.335938 100.601562 59.238281 101.222656 60.164062 C 101.535156 60.636719 101.835938 61.121094 102.113281 61.613281 C 102.515625 62.316406 102.882812 63.039062 103.203125 63.777344 L 103.207031 63.78125 C 103.574219 64.617188 103.894531 65.464844 104.152344 66.328125 C 104.667969 68.035156 104.964844 69.847656 104.386719 71.542969 " fill-opacity="1" fill-rule="nonzero"/><path fill="#dddbd9" d="M 105.105469 71.046875 C 104.894531 72.683594 104.40625 74.308594 103.890625 75.914062 L 103.625 76.726562 C 103.339844 77.613281 103.054688 78.507812 102.8125 79.40625 C 102.527344 80.484375 102.304688 81.574219 102.222656 82.660156 C 102.148438 83.601562 102.179688 84.542969 102.363281 85.484375 C 102.605469 86.75 103.117188 88.097656 102.496094 89.277344 C 102.402344 89.457031 102.285156 89.621094 102.152344 89.785156 C 101.785156 90.246094 101.308594 90.65625 100.953125 91.132812 C 100.625 91.578125 100.421875 92.050781 100.292969 92.546875 C 100.125 93.164062 100.078125 93.816406 100.050781 94.476562 C 100 95.714844 100.023438 96.980469 99.5 98.125 C 99.308594 98.539062 99.023438 98.953125 98.566406 99.195312 C 98.089844 99.453125 97.492188 99.488281 96.921875 99.507812 C 94.804688 99.578125 91.972656 99.960938 90.589844 99.160156 C 89.808594 98.710938 90.335938 96.796875 91.175781 94.664062 C 91.820312 93.015625 92.644531 91.242188 93.1875 89.917969 C 93.699219 88.667969 94.054688 87.285156 94.089844 85.945312 C 94.117188 84.917969 93.953125 83.910156 93.519531 83.011719 C 93.15625 82.238281 92.585938 81.535156 91.777344 80.96875 C 90.976562 80.410156 90.007812 80.035156 89.132812 79.550781 C 88.292969 79.085938 87.585938 78.542969 87.007812 77.941406 C 86.566406 77.492188 86.199219 77.007812 85.902344 76.496094 C 84.878906 74.765625 84.609375 72.734375 84.949219 70.726562 L 84.949219 70.722656 C 85.027344 70.277344 85.128906 69.832031 85.265625 69.394531 C 85.9375 67.160156 87.335938 65.027344 89.246094 63.460938 C 90.140625 62.726562 91.140625 62.117188 92.234375 61.675781 C 92.972656 61.375 93.746094 61.148438 94.554688 61.019531 C 95.148438 60.917969 95.761719 60.871094 96.386719 60.871094 C 96.664062 60.875 96.933594 60.890625 97.21875 60.910156 C 97.816406 60.960938 98.425781 61.054688 99.046875 61.207031 L 99.144531 61.234375 C 99.808594 61.402344 100.425781 61.648438 100.984375 61.964844 C 101.851562 62.4375 102.589844 63.0625 103.203125 63.777344 L 103.207031 63.78125 C 104.253906 65.007812 104.90625 66.5 105.117188 67.984375 C 105.261719 69.007812 105.242188 70.03125 105.105469 71.046875 " fill-opacity="1" fill-rule="nonzero"/><g clip-path="url(#768f4940bd)"><path fill="#dddbd9" d="M 65.242188 99.886719 C 64.636719 100.234375 56.953125 100.628906 56.5625 100.054688 C 56.105469 99.371094 56.433594 97.683594 56.894531 95.617188 C 57.085938 94.773438 57.300781 93.867188 57.488281 92.9375 C 57.605469 92.359375 57.714844 91.769531 57.804688 91.191406 C 58.132812 89.082031 58.210938 87.011719 57.535156 85.464844 C 57.222656 84.761719 56.785156 84.089844 56.609375 83.359375 C 56.308594 82.097656 56.8125 80.816406 57.101562 79.554688 C 57.140625 79.390625 57.167969 79.210938 57.183594 79.015625 C 57.230469 78.40625 57.1875 77.652344 57.121094 76.835938 C 56.984375 75.167969 56.769531 73.234375 57.097656 71.710938 L 57.101562 71.695312 L 57.101562 71.6875 C 57.488281 69.933594 58.605469 68.738281 61.421875 69.15625 C 61.875 69.226562 62.296875 69.382812 62.671875 69.601562 C 63.371094 70.011719 63.90625 70.648438 64.175781 71.328125 C 64.589844 72.367188 64.492188 73.496094 64.257812 74.570312 C 64.128906 75.15625 63.960938 75.746094 63.792969 76.332031 C 63.3125 77.960938 62.808594 79.597656 63.050781 81.234375 L 63.089844 81.464844 C 63.148438 81.777344 63.234375 82.082031 63.324219 82.386719 C 63.503906 82.984375 63.695312 83.585938 63.730469 84.207031 C 63.78125 85.339844 63.277344 86.445312 63.070312 87.570312 C 63.011719 87.867188 62.980469 88.164062 62.984375 88.460938 C 62.988281 88.859375 63.0625 89.246094 63.167969 89.632812 C 63.355469 90.332031 63.671875 91.023438 63.953125 91.707031 C 64.273438 92.488281 64.664062 93.652344 64.992188 94.859375 C 65.589844 97.085938 65.960938 99.472656 65.242188 99.886719 " fill-opacity="1" fill-rule="nonzero"/></g><path fill="#d79f94" d="M 39.382812 44.136719 C 37.898438 49.488281 41.320312 54.390625 46.035156 56.621094 C 52.226562 59.554688 59.671875 60.140625 66.039062 57.65625 C 70.269531 56.003906 74.457031 52.507812 74.742188 47.667969 C 74.917969 44.769531 73.960938 41.742188 71.980469 39.695312 C 67.097656 34.65625 59.140625 32.453125 52.199219 33.507812 C 46.660156 34.351562 40.925781 38.578125 39.382812 44.136719 " fill-opacity="1" fill-rule="nonzero"/><path fill="#dddbd9" d="M 112.558594 54.246094 C 112.546875 54.980469 112.5 55.707031 112.375 56.425781 C 112.3125 56.78125 112.230469 57.132812 112.128906 57.480469 L 112.113281 57.542969 C 111.902344 58.222656 111.582031 58.890625 111.171875 59.484375 C 110.910156 59.867188 110.605469 60.214844 110.265625 60.523438 C 109.804688 60.929688 109.285156 61.261719 108.703125 61.472656 C 108.605469 61.511719 108.511719 61.542969 108.40625 61.570312 C 108.078125 61.667969 107.742188 61.722656 107.402344 61.75 C 106.6875 61.808594 105.960938 61.746094 105.230469 61.675781 C 104.703125 61.625 104.179688 61.566406 103.65625 61.542969 C 103.136719 61.515625 102.617188 61.523438 102.113281 61.613281 C 101.757812 61.675781 101.40625 61.769531 101.070312 61.921875 L 100.984375 61.964844 C 100.460938 62.210938 99.949219 62.570312 99.425781 62.796875 C 99.035156 62.964844 98.632812 63.054688 98.210938 62.96875 C 97.84375 62.890625 97.53125 62.738281 97.269531 62.523438 C 96.777344 62.125 96.480469 61.523438 96.386719 60.871094 C 96.230469 59.867188 96.554688 58.753906 97.363281 58.105469 C 97.71875 57.820312 98.171875 57.621094 98.71875 57.570312 C 98.824219 57.5625 98.925781 57.558594 99.035156 57.558594 C 99.234375 57.558594 99.445312 57.574219 99.664062 57.617188 C 100.957031 57.835938 102.101562 58.535156 103.265625 59.136719 L 103.488281 59.25 C 103.921875 59.46875 104.386719 59.675781 104.859375 59.832031 C 105.5 60.046875 106.164062 60.175781 106.816406 60.132812 C 107.042969 60.121094 107.277344 60.085938 107.5 60.023438 C 107.734375 59.964844 107.964844 59.875 108.175781 59.769531 C 108.515625 59.597656 108.832031 59.375 109.113281 59.109375 C 109.429688 58.816406 109.703125 58.480469 109.929688 58.109375 C 110.085938 57.867188 110.222656 57.617188 110.332031 57.355469 C 110.46875 57.035156 110.582031 56.699219 110.675781 56.363281 C 110.769531 56.03125 110.84375 55.691406 110.90625 55.351562 C 110.988281 54.882812 111.050781 54.414062 111.109375 53.949219 C 111.125 53.789062 111.148438 53.632812 111.164062 53.476562 C 111.210938 53.085938 111.261719 52.679688 111.480469 52.351562 C 111.691406 52.023438 112.128906 51.792969 112.503906 51.933594 C 112.535156 52.699219 112.570312 53.476562 112.558594 54.246094 " fill-opacity="1" fill-rule="nonzero"/><path fill="#dddbd9" d="M 85.898438 92.539062 C 85.839844 93.378906 85.742188 94.292969 85.027344 94.90625 C 84.832031 95.074219 84.589844 95.21875 84.402344 95.390625 C 84.304688 95.488281 84.214844 95.582031 84.160156 95.703125 C 83.960938 96.128906 84.25 96.59375 84.324219 97.042969 C 84.507812 98.164062 84.101562 99.21875 82.761719 99.5 C 80.890625 99.890625 76.085938 99.726562 75.875 99.039062 C 75.5625 98.019531 75.800781 95.757812 76.054688 94.585938 C 76.070312 94.503906 76.089844 94.425781 76.109375 94.355469 C 76.296875 93.585938 76.535156 92.832031 76.753906 92.070312 C 76.988281 91.273438 77.210938 90.476562 77.347656 89.660156 C 77.578125 88.320312 77.722656 86.488281 77.851562 84.460938 L 77.851562 84.457031 C 77.984375 82.3125 78.105469 79.957031 78.296875 77.734375 C 78.714844 72.957031 79.472656 68.824219 81.464844 68.914062 C 82.273438 68.953125 83.097656 69.121094 83.753906 69.507812 C 84.292969 69.824219 84.671875 70.246094 84.949219 70.722656 L 84.949219 70.726562 C 85.429688 71.574219 85.582031 72.601562 85.667969 73.554688 C 85.757812 74.53125 85.835938 75.511719 85.902344 76.496094 C 85.933594 76.972656 85.960938 77.449219 85.988281 77.925781 C 86.03125 78.726562 86.070312 79.527344 86.09375 80.332031 C 86.117188 80.9375 86.136719 81.539062 86.140625 82.140625 C 86.214844 85.609375 86.132812 89.078125 85.898438 92.539062 " fill-opacity="1" fill-rule="nonzero"/><path fill="#d79f94" d="M 47.707031 37.8125 C 47.707031 39.292969 46.625 40.488281 45.289062 40.488281 C 43.960938 40.488281 42.878906 39.292969 42.878906 37.8125 C 42.878906 36.332031 43.960938 35.132812 45.289062 35.132812 C 46.625 35.132812 47.707031 36.332031 47.707031 37.8125 " fill-opacity="1" fill-rule="nonzero"/><path fill="#d79f94" d="M 71.339844 38.113281 C 71.339844 39.59375 70.261719 40.792969 68.925781 40.792969 C 67.59375 40.792969 66.515625 39.59375 66.515625 38.113281 C 66.515625 36.636719 67.59375 35.4375 68.925781 35.4375 C 70.261719 35.4375 71.339844 36.636719 71.339844 38.113281 " fill-opacity="1" fill-rule="nonzero"/><path fill="#3c2319" d="M 52.867188 31.414062 C 52.867188 32.632812 52.253906 33.617188 51.503906 33.617188 C 50.75 33.617188 50.140625 32.632812 50.140625 31.414062 C 50.140625 30.195312 50.75 29.207031 51.503906 29.207031 C 52.253906 29.207031 52.867188 30.195312 52.867188 31.414062 " fill-opacity="1" fill-rule="nonzero"/><path fill="#ffffff" d="M 52.785156 32.246094 C 52.785156 32.519531 52.582031 32.738281 52.335938 32.738281 C 52.089844 32.738281 51.886719 32.519531 51.886719 32.246094 C 51.886719 31.976562 52.089844 31.753906 52.335938 31.753906 C 52.582031 31.753906 52.785156 31.976562 52.785156 32.246094 " fill-opacity="1" fill-rule="nonzero"/><path fill="#3c2319" d="M 64.683594 31.867188 C 64.683594 33.085938 64.074219 34.074219 63.320312 34.074219 C 62.566406 34.074219 61.957031 33.085938 61.957031 31.867188 C 61.957031 30.648438 62.566406 29.664062 63.320312 29.664062 C 64.074219 29.664062 64.683594 30.648438 64.683594 31.867188 " fill-opacity="1" fill-rule="nonzero"/><path fill="#ffffff" d="M 64.601562 32.699219 C 64.601562 32.96875 64.402344 33.191406 64.152344 33.191406 C 63.90625 33.191406 63.707031 32.96875 63.707031 32.699219 C 63.707031 32.429688 63.90625 32.210938 64.152344 32.210938 C 64.402344 32.210938 64.601562 32.429688 64.601562 32.699219 " fill-opacity="1" fill-rule="nonzero"/><path fill="#3c2319" d="M 52.234375 26.371094 C 52.136719 26.269531 52.03125 26.207031 51.90625 26.160156 L 51.816406 26.132812 C 51.734375 26.113281 51.644531 26.101562 51.5625 26.113281 C 51.476562 26.117188 51.390625 26.125 51.304688 26.148438 C 51.199219 26.171875 51.101562 26.214844 51.015625 26.273438 C 50.808594 26.402344 50.652344 26.589844 50.59375 26.824219 C 50.566406 26.921875 50.578125 27.03125 50.628906 27.117188 C 50.675781 27.195312 50.765625 27.269531 50.855469 27.292969 C 51.058594 27.335938 51.238281 27.234375 51.3125 27.042969 L 51.296875 27.074219 L 51.339844 27.003906 L 51.375 26.972656 L 51.421875 26.941406 L 51.511719 26.917969 L 51.554688 26.917969 L 51.628906 26.941406 L 51.722656 26.992188 L 51.675781 26.957031 C 51.757812 27.019531 51.839844 27.058594 51.945312 27.058594 C 52.042969 27.058594 52.164062 27.015625 52.234375 26.941406 C 52.382812 26.777344 52.390625 26.53125 52.234375 26.371094 " fill-opacity="1" fill-rule="nonzero"/><path fill="#3c2319" d="M 63.980469 26.289062 L 63.898438 26.164062 L 63.722656 26.027344 C 63.582031 25.957031 63.445312 25.925781 63.285156 25.910156 C 63.164062 25.898438 63.035156 25.917969 62.921875 25.953125 C 62.769531 25.996094 62.589844 26.085938 62.523438 26.238281 L 62.511719 26.253906 C 62.40625 26.371094 62.382812 26.566406 62.511719 26.683594 C 62.621094 26.785156 62.769531 26.789062 62.890625 26.714844 L 63.0625 26.660156 L 62.980469 26.695312 L 63.140625 26.648438 L 63.238281 26.648438 L 63.339844 26.679688 L 63.371094 26.695312 L 63.464844 26.738281 L 63.554688 26.773438 L 63.75 26.773438 L 63.789062 26.761719 C 63.882812 26.742188 63.964844 26.652344 63.992188 26.558594 L 64.003906 26.484375 L 63.980469 26.289062 " fill-opacity="1" fill-rule="nonzero"/><path fill="#3c2319" d="M 45.777344 37.222656 C 45.71875 37.117188 45.632812 37.035156 45.53125 36.96875 L 45.308594 36.875 L 45.128906 36.851562 L 44.941406 36.875 C 44.855469 36.886719 44.765625 36.929688 44.6875 36.96875 L 44.476562 37.136719 C 44.386719 37.234375 44.324219 37.332031 44.285156 37.457031 L 44.265625 37.644531 L 44.296875 37.832031 L 44.367188 37.976562 L 44.398438 38.050781 L 44.535156 38.25 L 44.625 38.324219 L 44.726562 38.390625 C 44.835938 38.441406 44.941406 38.472656 45.066406 38.472656 C 45.191406 38.472656 45.292969 38.441406 45.40625 38.390625 L 45.605469 38.246094 L 45.761719 38.042969 C 45.800781 37.972656 45.835938 37.890625 45.855469 37.808594 C 45.871094 37.726562 45.886719 37.640625 45.878906 37.554688 C 45.863281 37.433594 45.84375 37.332031 45.777344 37.222656 " fill-opacity="1" fill-rule="nonzero"/><path fill="#3c2319" d="M 69.226562 38.003906 L 69.226562 37.972656 C 69.214844 37.863281 69.207031 37.828125 69.160156 37.726562 L 69.070312 37.601562 L 69.027344 37.554688 L 69.019531 37.546875 L 68.949219 37.496094 L 68.933594 37.480469 L 68.800781 37.441406 L 68.652344 37.445312 L 68.5625 37.480469 L 68.460938 37.578125 L 68.4375 37.625 L 68.285156 37.734375 L 68.199219 37.855469 C 68.152344 37.949219 68.144531 37.984375 68.132812 38.089844 L 68.140625 38.195312 L 68.15625 38.277344 L 68.167969 38.351562 C 68.195312 38.4375 68.242188 38.53125 68.3125 38.59375 L 68.410156 38.667969 L 68.417969 38.671875 L 68.507812 38.710938 L 68.664062 38.71875 L 68.859375 38.65625 L 68.917969 38.625 C 69.019531 38.585938 69.109375 38.53125 69.164062 38.433594 L 69.207031 38.335938 L 69.21875 38.308594 L 69.226562 38.273438 C 69.242188 38.183594 69.242188 38.09375 69.226562 38.003906 " fill-opacity="1" fill-rule="nonzero"/><path fill="#3c2319" d="M 69.019531 37.546875 L 68.949219 37.496094 L 69.019531 37.546875 " fill-opacity="1" fill-rule="nonzero"/><path fill="#3c2319" d="M 69.019531 37.546875 L 69.019531 37.550781 L 69.027344 37.554688 Z M 69.019531 37.546875 " fill-opacity="1" fill-rule="nonzero"/><path fill="#3c2319" d="M 69.304688 50.605469 C 69.34375 51.621094 68.886719 52.660156 68.347656 53.5 C 67.808594 54.347656 67.085938 55.082031 66.25 55.640625 C 64.324219 56.910156 61.894531 57.214844 59.664062 56.726562 C 59.347656 56.660156 59.210938 57.144531 59.53125 57.21875 C 61.902344 57.75 64.511719 57.4375 66.5625 56.070312 C 67.460938 55.46875 68.234375 54.6875 68.820312 53.777344 C 69.429688 52.820312 69.710938 51.789062 69.976562 50.695312 C 70.09375 50.199219 69.285156 50.113281 69.304688 50.605469 " fill-opacity="1" fill-rule="nonzero"/><path fill="#3c2319" d="M 69.1875 50.722656 L 69.179688 50.726562 L 69.191406 50.722656 L 69.1875 50.722656 " fill-opacity="1" fill-rule="nonzero"/><path fill="#3c2319" d="M 70.203125 50.503906 C 70.054688 50.246094 69.699219 50.140625 69.421875 50.15625 C 69.144531 50.160156 68.867188 50.261719 68.6875 50.480469 C 68.605469 50.574219 68.585938 50.722656 68.6875 50.820312 C 68.785156 50.910156 68.929688 50.910156 69.027344 50.820312 L 69.046875 50.800781 L 69.054688 50.796875 L 69.054688 50.792969 L 69.109375 50.765625 L 69.167969 50.734375 L 69.171875 50.730469 L 69.183594 50.726562 L 69.1875 50.722656 L 69.191406 50.722656 L 69.308594 50.695312 L 69.324219 50.6875 L 69.476562 50.6875 L 69.503906 50.695312 L 69.601562 50.722656 L 69.621094 50.730469 L 69.625 50.734375 L 69.65625 50.746094 L 69.714844 50.785156 L 69.753906 50.8125 L 69.761719 50.8125 L 69.800781 50.84375 L 69.839844 50.863281 L 69.929688 50.894531 C 70.011719 50.90625 70.105469 50.886719 70.164062 50.824219 C 70.242188 50.738281 70.265625 50.605469 70.203125 50.503906 " fill-opacity="1" fill-rule="nonzero"/><path fill="#d79f94" d="M 40.695312 17.125 C 40.1875 16.859375 39.652344 16.601562 39.078125 16.578125 C 38.503906 16.550781 37.875 16.816406 37.648438 17.34375 C 37.492188 17.703125 37.546875 18.121094 37.636719 18.503906 C 38.074219 20.351562 39.335938 21.925781 40.851562 23.066406 C 42.371094 24.210938 44.144531 24.964844 45.917969 25.640625 C 46.238281 25.761719 46.648438 25.859375 46.875 25.601562 C 47.117188 25.328125 46.921875 24.886719 46.648438 24.640625 C 46.378906 24.390625 46.027344 24.191406 45.914062 23.839844 C 46.015625 24.148438 47.664062 23.902344 47.488281 22.902344 C 47.359375 22.160156 46.207031 21.152344 45.695312 20.632812 C 44.253906 19.1875 42.5 18.066406 40.695312 17.125 " fill-opacity="1" fill-rule="nonzero"/><path fill="#d79f94" d="M 75.089844 21.566406 C 76.089844 20.773438 77.183594 20.113281 78.3125 19.519531 C 78.851562 19.234375 79.421875 18.957031 80.035156 18.933594 C 80.648438 18.910156 81.308594 19.203125 81.539062 19.769531 C 81.691406 20.144531 81.628906 20.574219 81.511719 20.960938 C 81.082031 22.351562 79.96875 23.425781 78.789062 24.285156 C 76.898438 25.667969 74.734375 26.671875 72.460938 27.214844 C 72.484375 26.492188 72.917969 25.804688 73.558594 25.464844 L 71.53125 25.089844 C 71.019531 24.640625 71.390625 24.558594 71.761719 24.148438 C 72.589844 23.226562 74.089844 22.359375 75.089844 21.566406 " fill-opacity="1" fill-rule="nonzero"/><path fill="#3c2319" d="M 55.226562 26.539062 C 55.214844 26.664062 55.191406 26.789062 55.109375 26.890625 C 54.898438 27.152344 54.402344 27.089844 54.160156 26.851562 C 53.914062 26.613281 53.847656 26.28125 53.773438 25.964844 C 53.417969 24.449219 52.507812 23.332031 51.808594 21.957031 C 51.710938 21.765625 51.621094 21.507812 51.570312 21.234375 C 52.25 20.753906 52.96875 20.335938 53.714844 19.980469 C 55.003906 21.449219 55.355469 25.59375 55.226562 26.539062 " fill-opacity="1" fill-rule="nonzero"/><path fill="#3c2319" d="M 59.703125 21.660156 C 59.636719 22.472656 59.566406 23.292969 59.398438 24.101562 C 59.226562 24.925781 58.914062 25.789062 58.09375 26.34375 C 58.019531 26.398438 57.933594 26.445312 57.828125 26.453125 C 57.714844 26.460938 57.605469 26.417969 57.519531 26.351562 C 57.238281 26.152344 57.191406 25.832031 57.167969 25.539062 C 57.003906 23.589844 56.921875 21.636719 56.921875 19.691406 C 56.921875 19.488281 56.871094 19.203125 56.859375 18.90625 C 57.625 18.742188 58.410156 18.65625 59.195312 18.652344 C 59.273438 18.75 59.335938 18.847656 59.378906 18.921875 C 59.839844 19.777344 59.777344 20.734375 59.703125 21.660156 " fill-opacity="1" fill-rule="nonzero"/><path fill="#3c2319" d="M 65.324219 20.496094 C 65.296875 21.21875 64.722656 21.816406 64.242188 22.34375 C 63.179688 23.496094 62.320312 24.835938 61.722656 26.285156 C 61.636719 26.492188 61.550781 26.707031 61.390625 26.871094 C 61.238281 27.03125 60.980469 27.121094 60.78125 27.019531 C 60.441406 26.851562 60.511719 26.355469 60.628906 25.996094 C 61.226562 24.195312 61.683594 20.699219 63.277344 19.476562 L 63.335938 19.433594 C 64.007812 19.710938 64.675781 20.0625 65.324219 20.496094 " fill-opacity="1" fill-rule="nonzero"/><path fill="#3c2319" d="M 68.5 23.460938 C 68.425781 23.550781 68.351562 23.625 68.277344 23.695312 C 67.671875 24.253906 67.113281 24.859375 66.597656 25.507812 C 66.390625 25.765625 66.179688 26.042969 65.875 26.175781 C 65.570312 26.3125 65.144531 26.246094 65.007812 25.941406 C 64.929688 25.777344 64.957031 25.585938 64.988281 25.402344 C 65.199219 24.234375 65.734375 22.59375 66.699219 21.578125 C 67.351562 22.164062 67.949219 22.792969 68.5 23.460938 " fill-opacity="1" fill-rule="nonzero"/><path fill="#3c2319" d="M 72.667969 31.941406 C 71.371094 31.863281 69.683594 31.417969 69.222656 31.335938 C 68.949219 31.289062 68.628906 31.207031 68.523438 30.949219 C 68.417969 30.707031 68.5625 30.425781 68.769531 30.261719 C 69.230469 29.902344 70.75 29.769531 72.074219 29.964844 C 72.304688 30.613281 72.496094 31.273438 72.667969 31.941406 " fill-opacity="1" fill-rule="nonzero"/><path fill="#3c2319" d="M 73.3125 35.59375 C 73.035156 35.507812 72.757812 35.421875 72.480469 35.335938 C 71.773438 35.121094 71.042969 34.890625 70.511719 34.382812 C 70.40625 34.28125 70.304688 34.160156 70.320312 34.019531 C 70.34375 33.773438 70.667969 33.695312 70.917969 33.703125 C 71.675781 33.71875 72.429688 33.886719 73.125 34.183594 C 73.199219 34.648438 73.265625 35.121094 73.3125 35.59375 " fill-opacity="1" fill-rule="nonzero"/><path fill="#3c2319" d="M 47.296875 30.667969 C 47.273438 30.878906 45.964844 31.410156 44.835938 31.839844 C 45.15625 30.953125 45.46875 30.066406 45.738281 29.300781 C 45.941406 29.289062 46.121094 29.296875 46.257812 29.335938 C 46.847656 29.503906 47.359375 30.058594 47.296875 30.667969 " fill-opacity="1" fill-rule="nonzero"/><path fill="#3c2319" d="M 41.464844 35.058594 L 41.46875 35.296875 L 41.464844 35.058594 " fill-opacity="1" fill-rule="nonzero"/><path fill="#3c2319" d="M 41.46875 35.296875 L 41.472656 35.304688 L 41.46875 35.3125 Z M 41.46875 35.296875 " fill-opacity="1" fill-rule="nonzero"/><path fill="#3c2319" d="M 45.984375 33.84375 C 45.863281 33.953125 45.699219 33.984375 45.539062 34.019531 C 44.957031 34.148438 44.382812 34.339844 43.835938 34.589844 C 44.011719 34.121094 44.199219 33.605469 44.390625 33.0625 L 44.390625 33.058594 L 44.496094 33.011719 C 44.875 32.84375 45.308594 32.703125 45.695312 32.855469 C 46.082031 33.007812 46.300781 33.574219 45.984375 33.84375 " fill-opacity="1" fill-rule="nonzero"/><g clip-path="url(#a426e5c71f)"><path fill="#3c2319" d="M 65.242188 99.886719 C 64.636719 100.234375 56.953125 100.628906 56.5625 100.054688 C 56.105469 99.371094 56.433594 97.683594 56.894531 95.617188 C 57.144531 95.660156 57.375 95.695312 57.59375 95.714844 C 59.695312 95.890625 61.828125 95.667969 63.84375 95.039062 C 64.210938 94.929688 64.621094 94.800781 64.992188 94.859375 C 65.589844 97.085938 65.960938 99.472656 65.242188 99.886719 " fill-opacity="1" fill-rule="nonzero"/></g><path fill="#3c2319" d="M 84.324219 97.042969 C 84.507812 98.164062 84.101562 99.21875 82.761719 99.5 C 80.890625 99.890625 76.085938 99.726562 75.875 99.039062 C 75.5625 98.019531 75.800781 95.757812 76.054688 94.585938 C 76.777344 94.734375 77.5 94.972656 78.054688 95.089844 C 80.136719 95.535156 82.289062 95.636719 84.402344 95.390625 C 84.304688 95.488281 84.214844 95.582031 84.160156 95.703125 C 83.960938 96.128906 84.25 96.59375 84.324219 97.042969 " fill-opacity="1" fill-rule="nonzero"/><path fill="#3c2319" d="M 100.050781 94.476562 C 100 95.714844 100.023438 96.980469 99.5 98.125 C 99.308594 98.539062 99.023438 98.953125 98.566406 99.195312 C 98.089844 99.453125 97.492188 99.488281 96.921875 99.507812 C 94.804688 99.578125 91.972656 99.960938 90.589844 99.160156 C 89.808594 98.710938 90.335938 96.796875 91.175781 94.664062 C 91.710938 94.625 92.253906 94.644531 92.75 94.65625 C 95.203125 94.730469 97.609375 94.710938 100.050781 94.476562 " fill-opacity="1" fill-rule="nonzero"/><path fill="#dddbd9" d="M 84.601562 89.550781 C 84.417969 90.242188 84.226562 90.953125 83.738281 91.535156 C 82.863281 92.589844 81.1875 93 79.609375 92.871094 C 79.3125 92.851562 79.023438 92.804688 78.738281 92.746094 C 78.039062 92.59375 77.378906 92.359375 76.753906 92.070312 C 76.0625 91.757812 75.40625 91.371094 74.769531 90.976562 C 74.5 90.808594 74.238281 90.644531 73.976562 90.476562 C 73.359375 90.082031 72.742188 89.6875 72.125 89.289062 C 70.347656 88.15625 68.570312 87.019531 66.792969 85.882812 C 66.054688 85.40625 65.289062 84.90625 64.894531 84.210938 C 64.34375 83.230469 64.652344 82.085938 64.964844 81.035156 C 65.019531 80.863281 65.070312 80.65625 65.121094 80.425781 C 65.238281 79.921875 65.359375 79.285156 65.5 78.578125 C 65.621094 77.992188 65.75 77.351562 65.90625 76.695312 L 65.929688 76.59375 L 65.933594 76.585938 C 66.152344 75.660156 66.410156 74.691406 66.738281 73.769531 L 66.742188 73.765625 C 67.789062 70.8125 69.515625 68.335938 72.640625 69.109375 C 73.929688 69.429688 74.835938 70.441406 75.121094 71.511719 C 75.402344 72.582031 75.15625 73.703125 74.738281 74.746094 C 74.523438 75.289062 74.257812 75.820312 73.953125 76.339844 C 73.726562 76.722656 73.476562 77.097656 73.207031 77.460938 L 73.199219 77.464844 C 72.699219 78.132812 72.121094 78.765625 71.476562 79.347656 C 71.226562 79.578125 70.945312 79.816406 70.890625 80.125 C 70.808594 80.574219 71.230469 80.976562 71.648438 81.28125 C 71.800781 81.394531 71.957031 81.5 72.117188 81.601562 C 72.605469 81.917969 73.128906 82.199219 73.679688 82.441406 C 74.019531 82.59375 74.363281 82.726562 74.71875 82.847656 C 74.859375 82.894531 75.003906 82.9375 75.144531 82.980469 C 75.359375 83.042969 75.578125 83.105469 75.796875 83.164062 C 76.253906 83.296875 76.703125 83.4375 77.089844 83.671875 C 77.425781 83.863281 77.707031 84.148438 77.851562 84.457031 L 77.851562 84.460938 C 77.949219 84.683594 77.980469 84.925781 77.894531 85.160156 C 78.429688 85.398438 78.984375 85.339844 79.558594 85.191406 C 80.445312 84.964844 81.375 84.507812 82.304688 84.53125 C 83.5625 84.5625 84.5625 85.503906 84.847656 86.503906 C 85.128906 87.503906 84.867188 88.546875 84.601562 89.550781 " fill-opacity="1" fill-rule="nonzero"/><path fill="#3c2319" d="M 84.601562 89.550781 C 84.417969 90.242188 84.226562 90.953125 83.738281 91.535156 C 82.863281 92.589844 81.1875 93 79.609375 92.871094 L 79.632812 92.804688 C 79.929688 92.136719 79.941406 91.382812 79.949219 90.652344 C 79.972656 88.785156 79.671875 87.019531 79.558594 85.191406 C 80.445312 84.964844 81.375 84.507812 82.304688 84.53125 C 83.5625 84.5625 84.5625 85.503906 84.847656 86.503906 C 85.128906 87.503906 84.867188 88.546875 84.601562 89.550781 " fill-opacity="1" fill-rule="nonzero"/><g clip-path="url(#f41ad4ad4b)"><path fill="#3c2319" d="M 109.925781 51.648438 C 109.90625 51.269531 109.902344 50.886719 109.816406 50.515625 C 109.472656 49.054688 107.847656 47.996094 107.941406 46.492188 C 107.949219 46.386719 107.96875 46.273438 108.027344 46.179688 C 108.097656 46.066406 108.226562 46 108.355469 45.964844 C 108.914062 45.824219 109.457031 46.261719 109.78125 46.734375 C 110.109375 47.207031 110.355469 47.769531 110.839844 48.089844 C 110.101562 46.816406 109.632812 45.382812 109.480469 43.921875 C 109.433594 43.480469 109.515625 42.902344 109.949219 42.808594 C 110.191406 42.757812 110.433594 42.90625 110.617188 43.070312 C 111.84375 44.175781 111.703125 46.105469 112.261719 47.65625 C 112.050781 46.496094 111.863281 45.21875 112.453125 44.195312 C 112.605469 43.9375 112.875 43.675781 113.167969 43.75 C 113.507812 43.835938 113.585938 44.273438 113.597656 44.621094 C 113.632812 45.828125 113.640625 47.03125 113.613281 48.238281 C 113.609375 47.886719 113.722656 47.535156 113.917969 47.246094 C 114.058594 47.042969 114.277344 46.859375 114.519531 46.890625 C 114.957031 46.949219 115.007812 47.554688 114.941406 47.984375 C 114.804688 48.890625 114.667969 49.796875 114.53125 50.699219 C 114.394531 51.597656 114.246094 52.53125 113.734375 53.28125 C 112.203125 55.523438 110.050781 53.703125 109.925781 51.648438 " fill-opacity="1" fill-rule="nonzero"/></g><path fill="#c5bfbe" d="M 67.210938 69.0625 C 66.535156 70.117188 66.402344 71.367188 66.289062 72.582031 C 66.222656 73.308594 66.160156 74.035156 66.089844 74.765625 C 66.054688 75.136719 66.023438 75.515625 65.988281 75.886719 C 65.953125 76.238281 65.894531 76.59375 65.949219 76.9375 C 65.992188 77.195312 66.34375 77.136719 66.414062 76.9375 C 66.53125 76.609375 66.523438 76.234375 66.550781 75.886719 C 66.582031 75.558594 66.609375 75.230469 66.640625 74.902344 C 66.699219 74.222656 66.761719 73.546875 66.820312 72.863281 C 66.925781 71.644531 66.988281 70.386719 67.636719 69.316406 C 67.804688 69.039062 67.378906 68.792969 67.210938 69.0625 " fill-opacity="1" fill-rule="nonzero"/><path fill="#c5bfbe" d="M 76.597656 75.167969 C 75.789062 76.238281 74.34375 76.414062 73.472656 77.402344 L 73.355469 77.476562 L 73.226562 77.46875 L 73.207031 77.460938 C 73.078125 77.394531 73 77.203125 73.117188 77.050781 C 73.347656 76.75 73.636719 76.53125 73.953125 76.339844 C 74.664062 75.910156 75.496094 75.640625 76.058594 75.007812 C 77.054688 73.871094 76.964844 72.152344 76.796875 70.75 C 76.746094 70.363281 77.410156 70.34375 77.414062 70.75 C 77.453125 72.269531 77.574219 73.882812 76.597656 75.167969 " fill-opacity="1" fill-rule="nonzero"/><path fill="#3c2319" d="M 105.230469 61.675781 C 104.703125 61.625 104.179688 61.566406 103.65625 61.542969 C 103.421875 60.71875 103.25 59.84375 103.265625 59.136719 L 103.488281 59.25 C 103.921875 59.46875 104.386719 59.675781 104.859375 59.832031 C 105.003906 60.425781 105.132812 61.078125 105.230469 61.675781 " fill-opacity="1" fill-rule="nonzero"/><path fill="#3c2319" d="M 108.703125 61.472656 C 108.605469 61.511719 108.511719 61.542969 108.40625 61.570312 C 108.078125 61.667969 107.742188 61.722656 107.402344 61.75 C 107.195312 61.242188 106.980469 60.664062 106.816406 60.132812 C 107.042969 60.121094 107.277344 60.085938 107.5 60.023438 C 107.734375 59.964844 107.964844 59.875 108.175781 59.769531 C 108.402344 60.328125 108.582031 60.960938 108.703125 61.472656 " fill-opacity="1" fill-rule="nonzero"/><path fill="#3c2319" d="M 111.171875 59.484375 C 110.910156 59.867188 110.605469 60.214844 110.265625 60.523438 C 109.957031 60.164062 109.503906 59.660156 109.113281 59.109375 C 109.429688 58.816406 109.703125 58.480469 109.929688 58.109375 L 110.101562 58.257812 C 110.5 58.609375 110.925781 59.019531 111.171875 59.484375 " fill-opacity="1" fill-rule="nonzero"/><path fill="#3c2319" d="M 112.375 56.425781 C 112.3125 56.78125 112.230469 57.132812 112.128906 57.480469 C 111.601562 57.171875 111.113281 56.796875 110.675781 56.363281 C 110.769531 56.03125 110.84375 55.691406 110.90625 55.351562 C 111.476562 55.570312 111.988281 55.945312 112.375 56.425781 " fill-opacity="1" fill-rule="nonzero"/><path fill="#3c2319" d="M 77.371094 52.851562 C 77.253906 53.558594 77.070312 54.222656 76.972656 54.582031 C 76.585938 56.027344 75.933594 57.402344 74.976562 58.554688 C 73.507812 60.308594 71.296875 61.492188 69.011719 61.460938 C 68.714844 61.457031 68.347656 61.371094 68.285156 61.078125 C 68.238281 60.871094 68.390625 60.675781 68.535156 60.519531 C 69.894531 59.058594 71.691406 58.054688 73.03125 56.582031 C 74.113281 55.386719 74.800781 53.949219 75.1875 52.394531 C 75.234375 52.210938 75.296875 51.921875 75.394531 51.613281 C 76 52.082031 76.660156 52.5 77.371094 52.851562 " fill-opacity="1" fill-rule="nonzero"/><path fill="#3c2319" d="M 81.648438 57.054688 C 81.058594 58.953125 79.71875 60.527344 78.25 61.871094 C 77.75 62.332031 77.183594 62.789062 76.507812 62.839844 C 76.152344 62.867188 75.761719 62.75 75.570312 62.453125 C 75.234375 61.945312 75.621094 61.289062 75.980469 60.792969 C 76.839844 59.605469 77.578125 58.332031 78.1875 57 C 78.628906 56.035156 78.820312 54.589844 79.382812 53.652344 C 80.121094 53.875 80.878906 54.039062 81.65625 54.15625 C 81.855469 55.207031 81.828125 56.492188 81.648438 57.054688 " fill-opacity="1" fill-rule="nonzero"/><path fill="#3c2319" d="M 85.265625 58.960938 C 84.425781 61.273438 83.289062 63.480469 81.886719 65.503906 C 81.414062 66.195312 80.628906 66.941406 79.867188 66.601562 C 79.777344 66.5625 79.6875 66.5 79.648438 66.40625 C 79.605469 66.304688 79.636719 66.191406 79.667969 66.089844 C 79.875 65.460938 80.230469 64.898438 80.5625 64.328125 C 81.84375 62.140625 82.816406 59.777344 83.460938 57.324219 C 83.5625 56.929688 83.710938 55.324219 83.957031 54.417969 C 84.441406 54.453125 84.925781 54.480469 85.417969 54.5 C 85.652344 54.960938 85.800781 55.5 85.832031 55.789062 C 85.957031 56.867188 85.640625 57.945312 85.265625 58.960938 " fill-opacity="1" fill-rule="nonzero"/><path fill="#3c2319" d="M 91.085938 57.058594 C 91.085938 58.023438 90.769531 58.957031 90.460938 59.867188 C 90.058594 61.066406 89.648438 62.261719 89.246094 63.460938 C 88.703125 65.078125 88.15625 66.699219 87.605469 68.316406 C 87.34375 69.085938 86.855469 70.015625 86.046875 69.941406 C 85.6875 69.910156 85.429688 69.699219 85.265625 69.394531 C 85.007812 68.957031 84.9375 68.328125 84.980469 67.796875 C 85.203125 65.21875 86.183594 62.796875 87.058594 60.386719 C 87.769531 58.421875 88.132812 56.5625 88.457031 54.601562 C 89.121094 54.621094 89.78125 54.644531 90.433594 54.691406 C 90.859375 55.429688 91.09375 56.296875 91.085938 57.058594 " fill-opacity="1" fill-rule="nonzero"/><path fill="#3c2319" d="M 95.808594 55.644531 C 95.707031 56.90625 95.125 58.5 94.980469 59.035156 C 94.800781 59.691406 94.65625 60.351562 94.554688 61.019531 C 94.414062 61.933594 94.34375 62.859375 94.351562 63.78125 C 94.355469 65.835938 94.730469 67.898438 94.425781 69.933594 C 94.355469 70.390625 94.097656 70.960938 93.640625 70.910156 C 93.441406 70.886719 93.277344 70.746094 93.144531 70.59375 C 92.40625 69.765625 92.203125 68.59375 92.101562 67.488281 C 91.925781 65.554688 91.96875 63.597656 92.234375 61.675781 C 92.34375 60.882812 92.488281 60.097656 92.667969 59.324219 C 92.851562 58.542969 93.066406 56.398438 93.644531 55.0625 C 94.390625 55.207031 95.117188 55.394531 95.808594 55.644531 " fill-opacity="1" fill-rule="nonzero"/><path fill="#3c2319" d="M 100.695312 69.097656 C 100.695312 69.449219 100.644531 69.871094 100.335938 70.03125 C 99.875 70.277344 99.394531 69.742188 99.160156 69.28125 C 98.105469 67.171875 97.472656 64.871094 97.269531 62.523438 C 97.261719 62.414062 97.253906 62.304688 97.242188 62.191406 C 97.230469 61.996094 97.214844 61.515625 97.21875 60.910156 C 97.222656 60.074219 97.253906 58.996094 97.363281 58.105469 C 97.445312 57.4375 97.570312 56.871094 97.753906 56.589844 L 97.828125 56.632812 C 98.105469 56.808594 98.371094 57 98.621094 57.203125 C 98.65625 57.316406 98.6875 57.4375 98.71875 57.570312 C 98.960938 58.640625 99.058594 60.207031 99.144531 61.234375 C 99.179688 61.648438 99.214844 61.976562 99.253906 62.148438 C 99.308594 62.363281 99.363281 62.578125 99.425781 62.796875 C 99.972656 64.871094 100.664062 66.933594 100.695312 69.097656 " fill-opacity="1" fill-rule="nonzero"/><path fill="#3c2319" d="M 105.105469 71.046875 C 104.894531 72.683594 104.40625 74.308594 103.890625 75.914062 C 103.773438 75.96875 103.652344 76.019531 103.535156 76.0625 C 101.167969 77.015625 98.609375 77.660156 96.078125 77.378906 L 96.066406 77.378906 C 95.953125 77.367188 95.835938 77.351562 95.71875 77.335938 C 95.15625 77.253906 94.5625 77.105469 94.183594 76.675781 C 94.03125 76.507812 93.925781 76.28125 93.972656 76.0625 C 94.046875 75.75 94.386719 75.59375 94.6875 75.496094 C 96.570312 74.898438 98.589844 74.867188 100.464844 74.257812 C 101.855469 73.808594 103.136719 73.035156 104.195312 72.03125 C 104.523438 71.726562 104.824219 71.398438 105.105469 71.046875 " fill-opacity="1" fill-rule="nonzero"/><path fill="#3c2319" d="M 102.8125 79.40625 C 102.527344 80.484375 102.304688 81.574219 102.222656 82.660156 C 101.34375 83.261719 100.445312 83.832031 99.535156 84.378906 C 98.664062 84.894531 95.769531 86.199219 94.089844 85.945312 C 94.117188 84.917969 93.953125 83.910156 93.519531 83.011719 C 94.085938 82.621094 94.921875 82.5625 95.652344 82.375 C 97.4375 81.941406 99.1875 81.363281 100.824219 80.511719 C 101.492188 80.160156 102.144531 79.761719 102.8125 79.40625 " fill-opacity="1" fill-rule="nonzero"/><path fill="#3c2319" d="M 102.152344 89.785156 C 101.785156 90.246094 101.308594 90.65625 100.953125 91.132812 C 100.625 91.578125 100.421875 92.050781 100.292969 92.546875 C 99.574219 92.464844 98.855469 92.339844 98.152344 92.175781 C 97.175781 91.945312 96.207031 91.625 95.359375 91.078125 C 95.226562 90.988281 95.074219 90.867188 95.082031 90.703125 C 95.085938 90.554688 95.222656 90.445312 95.351562 90.375 C 96.132812 89.945312 97.089844 90.164062 97.976562 90.273438 C 99.375 90.445312 100.804688 89.863281 102.152344 89.785156 " fill-opacity="1" fill-rule="nonzero"/><path fill="#3c2319" d="M 86.140625 82.140625 C 84.742188 82.316406 82.214844 81.285156 81.472656 80.984375 C 81.105469 80.835938 80.695312 80.613281 80.652344 80.222656 C 80.617188 79.894531 80.875 79.589844 81.1875 79.472656 C 81.492188 79.355469 81.835938 79.378906 82.164062 79.421875 C 82.746094 79.492188 84.832031 79.761719 86.09375 80.332031 C 86.117188 80.9375 86.136719 81.539062 86.140625 82.140625 " fill-opacity="1" fill-rule="nonzero"/><path fill="#3c2319" d="M 73.679688 82.441406 C 73.25 83.519531 71.734375 85.066406 71.304688 85.480469 C 70.824219 85.9375 70.179688 86.390625 69.550781 86.171875 C 69.457031 86.136719 69.363281 86.085938 69.292969 86.007812 C 69.203125 85.90625 69.167969 85.765625 69.160156 85.628906 C 69.074219 84.597656 70.691406 82.359375 72.117188 81.601562 C 72.605469 81.917969 73.128906 82.199219 73.679688 82.441406 " fill-opacity="1" fill-rule="nonzero"/><path fill="#3c2319" d="M 75.796875 83.164062 C 75.792969 84.828125 75.785156 87.3125 75.730469 87.667969 C 75.609375 88.429688 75.339844 89.902344 74.769531 90.976562 C 74.5 90.808594 74.238281 90.644531 73.976562 90.476562 C 73.359375 90.082031 72.742188 89.6875 72.125 89.289062 C 72.734375 87.101562 74.210938 84.398438 74.402344 83.761719 C 74.492188 83.460938 74.589844 83.140625 74.71875 82.847656 C 74.859375 82.894531 75.003906 82.9375 75.144531 82.980469 C 75.359375 83.042969 75.578125 83.105469 75.796875 83.164062 " fill-opacity="1" fill-rule="nonzero"/><path fill="#3c2319" d="M 69.191406 79.886719 C 68.546875 80.136719 66.199219 80.636719 65.121094 80.425781 C 65.238281 79.921875 65.359375 79.285156 65.5 78.578125 C 66.488281 78.042969 67.980469 77.90625 68.597656 77.886719 C 69.191406 77.878906 69.929688 78.015625 70.101562 78.585938 C 70.269531 79.144531 69.738281 79.671875 69.191406 79.886719 " fill-opacity="1" fill-rule="nonzero"/><path fill="#3c2319" d="M 64.09375 64.285156 C 62.765625 65.242188 60.996094 65.269531 59.445312 65.816406 C 58.734375 66.0625 58.035156 66.433594 57.3125 66.597656 C 57.332031 65.394531 57.261719 64.179688 57.132812 62.980469 C 57.421875 63.003906 57.707031 63.015625 57.992188 63.007812 C 59.488281 62.976562 60.949219 62.582031 62.398438 62.214844 C 62.863281 62.09375 63.339844 61.976562 63.816406 62.054688 C 64.289062 62.128906 64.75 62.453125 64.84375 62.921875 C 64.949219 63.460938 64.542969 63.96875 64.09375 64.285156 " fill-opacity="1" fill-rule="nonzero"/><path fill="#3c2319" d="M 63.007812 69.203125 C 62.914062 69.351562 62.800781 69.480469 62.671875 69.601562 C 62.5 69.765625 62.296875 69.90625 62.101562 70.042969 C 61.398438 70.519531 58.546875 71.882812 57.105469 71.714844 L 57.097656 71.710938 L 57.101562 71.695312 L 57.101562 71.6875 C 56.957031 70.832031 57.074219 69.945312 57.152344 69.078125 L 57.152344 69.042969 C 57.574219 68.699219 58.109375 68.488281 58.664062 68.363281 C 59.59375 68.152344 62.382812 67.03125 63.054688 68.03125 C 63.28125 68.375 63.222656 68.847656 63.007812 69.203125 " fill-opacity="1" fill-rule="nonzero"/><path fill="#3c2319" d="M 60.636719 78.765625 C 60.230469 79.203125 59.550781 79.191406 58.960938 79.132812 C 58.574219 79.09375 57.859375 79.09375 57.183594 79.015625 C 57.230469 78.40625 57.1875 77.652344 57.121094 76.835938 C 58.207031 76.734375 59.550781 77.195312 60.261719 77.570312 C 60.515625 77.703125 60.773438 77.886719 60.832031 78.160156 C 60.878906 78.378906 60.785156 78.605469 60.636719 78.765625 " fill-opacity="1" fill-rule="nonzero"/><path fill="#3c2319" d="M 63.167969 89.632812 C 62.152344 89.878906 61.070312 89.824219 60.085938 89.484375 C 59.789062 89.375 59.484375 89.238281 59.28125 88.992188 C 59.078125 88.753906 58.992188 88.386719 59.152344 88.113281 C 59.367188 87.757812 59.863281 87.71875 60.273438 87.730469 C 61.164062 87.765625 62.148438 87.609375 63.070312 87.570312 C 63.011719 87.867188 62.980469 88.164062 62.984375 88.460938 C 62.988281 88.859375 63.0625 89.246094 63.167969 89.632812 " fill-opacity="1" fill-rule="nonzero"/><path fill="#3c2319" d="M 61.496094 92.5 C 61.3125 92.671875 61.050781 92.738281 60.804688 92.796875 C 59.941406 92.996094 59.054688 93.152344 58.175781 93.066406 C 57.953125 93.042969 57.714844 93.003906 57.488281 92.9375 C 57.605469 92.359375 57.714844 91.769531 57.804688 91.191406 C 58.859375 91.058594 60.328125 91.460938 61.121094 91.601562 C 61.300781 91.628906 61.488281 91.671875 61.601562 91.8125 C 61.765625 92.007812 61.683594 92.324219 61.496094 92.5 " fill-opacity="1" fill-rule="nonzero"/><path fill="#3c2319" d="M 63.324219 82.386719 C 63.039062 82.539062 62.5625 82.59375 62.144531 82.566406 C 61.15625 82.519531 60.171875 82.46875 59.183594 82.414062 C 58.695312 82.390625 58.082031 82.253906 58.003906 81.773438 C 57.945312 81.441406 58.222656 81.128906 58.542969 81.015625 C 58.863281 80.910156 59.207031 80.949219 59.542969 80.984375 C 60.34375 81.066406 62.203125 80.765625 63.050781 81.234375 L 63.089844 81.464844 C 63.148438 81.777344 63.234375 82.082031 63.324219 82.386719 " fill-opacity="1" fill-rule="nonzero"/></svg>