<svg xmlns="http://www.w3.org/2000/svg" xmlns:xlink="http://www.w3.org/1999/xlink" width="200" zoomAndPan="magnify" viewBox="0 0 150 112.499997" height="150" preserveAspectRatio="xMidYMid meet" version="1.0"><defs><clipPath id="2c2adb2945"><path d="M 49 7.101562 L 59 7.101562 L 59 20 L 49 20 Z M 49 7.101562 " clip-rule="nonzero"/></clipPath><clipPath id="5707a3992f"><path d="M 49 7.101562 L 59 7.101562 L 59 20 L 49 20 Z M 49 7.101562 " clip-rule="nonzero"/></clipPath><clipPath id="5a576c14c8"><path d="M 64.230469 28 L 129.550781 28 L 129.550781 100.449219 L 64.230469 100.449219 Z M 64.230469 28 " clip-rule="nonzero"/></clipPath></defs><path fill="#502660" d="M 51.121094 17.980469 C 51.175781 18.683594 51.203125 19.386719 51.203125 20.09375 C 51.191406 24.296875 48.457031 25.710938 45.503906 27.875 C 42.746094 29.890625 40.140625 32.128906 37.707031 34.53125 C 31.34375 40.8125 25.914062 48.5 23.710938 57.292969 C 18.898438 76.464844 30.410156 93.390625 63.902344 89.074219 C 97.398438 84.753906 101.175781 56.605469 86.75 42.097656 C 81.375 36.695312 75.351562 33.199219 68.613281 29.875 C 63.226562 27.214844 58.589844 23.296875 58.222656 16.882812 C 58.066406 14.183594 58.199219 11.371094 57.085938 8.910156 C 56.988281 8.6875 56.871094 8.464844 56.675781 8.328125 C 56.410156 8.140625 56.054688 8.148438 55.730469 8.171875 C 53.445312 8.351562 51.195312 8.933594 49.109375 9.886719 C 50.214844 12.449219 50.898438 15.195312 51.121094 17.980469 " fill-opacity="1" fill-rule="nonzero"/><path fill="#5f2f71" d="M 31.570312 45.921875 C 29.355469 49.984375 27.558594 54.414062 27.449219 59.042969 C 27.335938 63.671875 29.15625 68.542969 32.949219 71.167969 C 37.273438 74.160156 43.375 73.625 47.8125 70.804688 C 52.25 67.984375 55.195312 63.257812 57.023438 58.308594 C 58.496094 54.320312 59.335938 50 58.707031 45.792969 C 57.875 40.253906 52.878906 30.015625 45.835938 31.316406 C 42.980469 31.84375 40.410156 34.785156 38.410156 36.683594 C 35.613281 39.339844 33.414062 42.539062 31.570312 45.921875 " fill-opacity="1" fill-rule="nonzero"/><g clip-path="url(#2c2adb2945)"><path fill="#507e2d" d="M 58.40625 15.832031 C 58.199219 13.121094 58.167969 10.261719 57.085938 7.871094 C 56.988281 7.652344 56.871094 7.429688 56.675781 7.289062 C 56.410156 7.101562 56.054688 7.113281 55.730469 7.136719 C 54.058594 7.269531 48.703125 7.59375 49.039062 10.148438 C 49.125 10.8125 49.476562 11.402344 49.75 12.011719 C 50.765625 14.25 50.730469 16.945312 49.664062 19.160156 C 50.523438 18.382812 51.382812 17.605469 52.238281 16.828125 C 52.933594 17.53125 53.722656 18.144531 54.578125 18.644531 C 54.730469 17.710938 55.03125 16.804688 55.46875 15.96875 C 56.378906 16.882812 57.472656 17.617188 58.660156 18.113281 C 58.542969 17.375 58.464844 16.609375 58.40625 15.832031 " fill-opacity="1" fill-rule="nonzero"/></g><path fill="#411d4c" d="M 26.742188 49.203125 C 25.449219 51.78125 24.414062 54.480469 23.710938 57.292969 C 18.898438 76.464844 30.410156 93.390625 63.902344 89.074219 C 97.398438 84.753906 101.175781 56.605469 86.75 42.097656 C 81.375 36.695312 75.351562 33.195312 68.613281 29.875 C 64.207031 27.699219 60.300781 24.679688 58.824219 20.136719 C 58 23.828125 59.070312 27.984375 61.167969 31.230469 C 63.890625 35.4375 68.050781 38.457031 72.082031 41.414062 C 76.117188 44.371094 80.230469 47.480469 82.796875 51.785156 C 85.199219 55.8125 86.058594 60.738281 85.167969 65.34375 C 84.046875 71.132812 80.257812 76.1875 75.464844 79.589844 C 70.671875 82.992188 64.941406 84.863281 59.15625 85.832031 C 51.457031 87.121094 43.214844 86.808594 36.308594 83.148438 C 31 80.332031 26.675781 75.273438 25.257812 69.347656 C 23.757812 63.0625 25.921875 55.742188 26.710938 49.449219 C 26.722656 49.371094 26.734375 49.285156 26.742188 49.203125 " fill-opacity="1" fill-rule="nonzero"/><path fill="#7e4095" d="M 32.097656 44.941406 C 29.949219 48.75 28.894531 53.785156 31.425781 57.34375 C 32.980469 59.53125 35.679688 60.734375 38.351562 60.796875 C 41.023438 60.855469 43.648438 59.863281 45.859375 58.351562 C 50.265625 55.34375 53.125 50.277344 53.804688 44.964844 C 54.40625 40.261719 51.726562 30.527344 45.101562 33 C 39.960938 34.914062 34.742188 40.246094 32.097656 44.941406 " fill-opacity="1" fill-rule="nonzero"/><path fill="#411d4d" d="M 37.726562 58.441406 C 36.917969 66.460938 37.800781 75.265625 43.140625 81.285156 C 41.210938 75.320312 40.820312 68.964844 40.867188 62.695312 C 40.941406 52.410156 42.433594 41.445312 49.109375 33.652344 C 47.691406 35.308594 45.914062 36.496094 44.582031 38.332031 C 43.199219 40.246094 42.054688 42.332031 41.125 44.507812 C 39.234375 48.917969 38.207031 53.675781 37.726562 58.441406 " fill-opacity="1" fill-rule="nonzero"/><path fill="#411d4d" d="M 59.785156 82.566406 C 61.824219 74.1875 62.890625 65.523438 62.277344 56.917969 C 61.667969 48.316406 59.335938 39.765625 54.929688 32.367188 C 55.582031 33.464844 55.140625 36.703125 55.265625 38.007812 C 55.46875 40.058594 55.726562 42.109375 56.011719 44.152344 C 56.617188 48.453125 57.363281 52.730469 58.046875 57.019531 C 59.386719 65.453125 60.511719 74.011719 59.785156 82.566406 " fill-opacity="1" fill-rule="nonzero"/><path fill="#411d4d" d="M 78.742188 55.425781 C 80.578125 61.691406 80.964844 68.722656 78.003906 74.539062 C 78.773438 70.210938 77.664062 65.792969 76.5625 61.539062 C 75.46875 57.304688 74.367188 53.058594 72.746094 49 C 69.992188 42.09375 65.601562 37.136719 61.183594 31.386719 C 62.988281 31.410156 65.660156 34.550781 66.929688 35.796875 C 68.75 37.582031 70.421875 39.519531 71.921875 41.585938 C 74.957031 45.765625 77.289062 50.460938 78.742188 55.425781 " fill-opacity="1" fill-rule="nonzero"/><path fill="#2d1a33" d="M 63.902344 89.074219 C 97.398438 84.753906 101.175781 56.605469 86.75 42.097656 C 85.070312 40.410156 83.328125 38.90625 81.519531 37.539062 C 81.863281 41.144531 83.589844 44.761719 84.972656 47.972656 C 86.617188 51.796875 87.949219 55.804688 88.316406 59.953125 C 88.683594 64.105469 88.035156 68.425781 85.941406 72.019531 C 83.691406 75.882812 79.980469 78.632812 76.277344 81.117188 C 72.011719 83.976562 67.519531 86.679688 62.535156 87.863281 C 56.523438 89.296875 50.214844 88.429688 44.0625 88.882812 C 49.539062 89.933594 56.128906 90.074219 63.902344 89.074219 " fill-opacity="1" fill-rule="nonzero"/><path fill="#7da929" d="M 50.140625 10.035156 C 50.167969 9.792969 50.28125 9.566406 50.433594 9.378906 C 50.710938 9.035156 51.113281 8.820312 51.546875 8.742188 C 51.980469 8.660156 52.441406 8.71875 52.839844 8.917969 C 57.222656 11.148438 49.691406 13.84375 50.140625 10.035156 " fill-opacity="1" fill-rule="nonzero"/><g clip-path="url(#5707a3992f)"><path fill="#506625" d="M 58.40625 15.832031 C 58.199219 13.121094 58.167969 10.261719 57.085938 7.871094 C 56.988281 7.652344 56.871094 7.429688 56.675781 7.289062 C 56.410156 7.101562 56.054688 7.113281 55.730469 7.136719 C 55.121094 7.183594 54.019531 7.257812 52.882812 7.457031 C 53.445312 7.867188 54.152344 8.222656 54.484375 8.625 C 55.492188 9.828125 55.703125 11.480469 55.582031 13 C 55.519531 13.789062 55.335938 14.636719 54.730469 15.148438 C 54.128906 15.65625 53.003906 15.550781 52.753906 14.800781 C 52.519531 15.234375 52.148438 15.59375 51.707031 15.816406 C 51.597656 15.351562 50.957031 15.199219 50.535156 15.421875 C 50.519531 15.429688 50.503906 15.441406 50.488281 15.449219 C 50.492188 16.726562 50.21875 18.007812 49.664062 19.160156 C 50.523438 18.382812 51.382812 17.605469 52.238281 16.828125 C 52.933594 17.53125 53.722656 18.144531 54.578125 18.644531 C 54.730469 17.710938 55.03125 16.804688 55.46875 15.96875 C 56.378906 16.882812 57.472656 17.617188 58.660156 18.113281 C 58.542969 17.375 58.464844 16.609375 58.40625 15.832031 " fill-opacity="1" fill-rule="nonzero"/></g><g clip-path="url(#5a576c14c8)"><path fill="#502660" d="M 129.273438 79.703125 C 129.953125 75.140625 129.371094 70.445312 127.59375 66.125 C 124.941406 59.671875 121.035156 54.734375 117.210938 50.359375 C 114.039062 46.734375 113.085938 43.796875 114.113281 40.828125 C 114.238281 40.472656 114.375 40.109375 114.515625 39.726562 C 115.175781 37.9375 116 35.714844 115.917969 33.257812 C 115.910156 32.929688 115.875 31.933594 115.257812 30.949219 C 114.441406 29.65625 113.175781 29.242188 112.757812 29.105469 C 110.601562 28.394531 108.359375 28.074219 106.09375 28.148438 L 104.15625 28.210938 C 103.347656 28.234375 102.710938 28.90625 102.726562 29.71875 L 102.757812 31.667969 C 102.789062 33.554688 102.507812 35.425781 101.929688 37.226562 C 101.785156 37.679688 101.621094 38.128906 101.4375 38.5625 C 101.019531 39.570312 100.648438 39.769531 98.148438 40.335938 C 97.828125 40.410156 97.496094 40.484375 97.148438 40.566406 C 94.351562 41.242188 91.539062 42.152344 88.78125 43.269531 C 84.960938 44.8125 81.496094 46.664062 78.476562 48.773438 C 75.007812 51.195312 72.089844 53.984375 69.808594 57.066406 C 64.535156 64.179688 62.964844 71.980469 65.382812 79.039062 C 66.894531 83.441406 69.882812 87.359375 74.257812 90.679688 C 76.9375 92.707031 80.15625 94.515625 83.828125 96.046875 C 86.300781 97.078125 89.019531 98.003906 91.910156 98.792969 C 98.785156 100.679688 105.117188 100.957031 110.71875 99.621094 C 113.355469 98.992188 115.808594 98.003906 118.015625 96.6875 C 120.136719 95.421875 122.027344 93.847656 123.636719 92.011719 C 126.636719 88.589844 128.585938 84.332031 129.273438 79.703125 " fill-opacity="1" fill-rule="nonzero"/></g><path fill="#6840a3" d="M 127.8125 79.484375 C 128.449219 75.1875 127.902344 70.765625 126.230469 66.695312 C 123.660156 60.441406 119.84375 55.621094 116.101562 51.339844 C 112.585938 47.320312 111.511719 43.824219 112.71875 40.339844 C 112.847656 39.96875 112.984375 39.597656 113.128906 39.207031 C 113.777344 37.457031 114.511719 35.472656 114.441406 33.308594 C 114.433594 33.054688 114.414062 32.386719 114.007812 31.746094 C 113.476562 30.902344 112.621094 30.621094 112.296875 30.515625 C 110.308594 29.859375 108.234375 29.5625 106.140625 29.632812 L 104.203125 29.695312 L 104.234375 31.644531 C 104.269531 33.691406 103.964844 35.726562 103.335938 37.683594 C 103.179688 38.175781 103 38.664062 102.800781 39.136719 C 102.066406 40.90625 100.941406 41.226562 98.472656 41.785156 C 98.15625 41.855469 97.828125 41.929688 97.492188 42.011719 C 94.769531 42.671875 92.023438 43.558594 89.332031 44.644531 C 85.617188 46.148438 82.246094 47.949219 79.320312 49.992188 C 75.984375 52.324219 73.179688 55.003906 70.992188 57.953125 C 66.019531 64.660156 64.523438 71.976562 66.78125 78.554688 C 68.195312 82.675781 71.011719 86.355469 75.148438 89.492188 C 77.738281 91.453125 80.832031 93.1875 84.394531 94.675781 C 86.816406 95.683594 89.453125 96.582031 92.300781 97.363281 C 98.933594 99.179688 105.015625 99.453125 110.378906 98.175781 C 112.867188 97.582031 115.183594 96.652344 117.257812 95.410156 C 119.25 94.222656 121.019531 92.75 122.527344 91.03125 C 125.339844 87.820312 127.167969 83.828125 127.8125 79.484375 " fill-opacity="1" fill-rule="nonzero"/><path fill="#fcfbc7" d="M 105.210938 38.292969 C 105.035156 38.835938 104.839844 39.371094 104.621094 39.898438 C 103.3125 43.039062 100.832031 43.242188 97.953125 43.9375 C 95.269531 44.585938 92.628906 45.445312 90.066406 46.484375 C 83.371094 49.195312 76.9375 53.25 72.570312 59.140625 C 63.054688 71.972656 66.4375 88.222656 92.816406 95.449219 C 119.199219 102.675781 130.71875 82.804688 124.40625 67.449219 C 122.058594 61.730469 118.632812 57.238281 114.621094 52.648438 C 111.410156 48.980469 109.15625 44.601562 110.859375 39.6875 C 111.574219 37.621094 112.542969 35.558594 112.472656 33.371094 C 112.46875 33.175781 112.449219 32.972656 112.34375 32.808594 C 112.203125 32.585938 111.9375 32.480469 111.6875 32.398438 C 109.921875 31.820312 108.058594 31.550781 106.203125 31.609375 C 106.242188 33.875 105.902344 36.140625 105.210938 38.292969 " fill-opacity="1" fill-rule="nonzero"/><path fill="#eb5a48" d="M 85.4375 53.925781 C 80.90625 56.683594 77.183594 60.757812 74.824219 65.523438 C 73.675781 67.855469 72.832031 70.417969 73 73.015625 C 73.378906 78.890625 78.667969 83.207031 83.960938 85.730469 C 90.136719 88.671875 96.949219 90.253906 103.78125 90.328125 C 108.902344 90.386719 114.519531 89.339844 117.792969 85.382812 C 119.050781 83.859375 119.867188 82.007812 120.390625 80.097656 C 122.105469 73.871094 120.746094 67 117.375 61.5 C 114.339844 56.550781 108.664062 50.757812 102.914062 49.109375 C 97.546875 47.574219 89.878906 51.21875 85.4375 53.925781 " fill-opacity="1" fill-rule="nonzero"/><path fill="#cf1e25" d="M 100.277344 54.984375 C 100.4375 53.667969 100.859375 52.265625 101.941406 51.503906 C 102.347656 51.21875 102.878906 51.042969 103.335938 51.234375 C 103.976562 51.496094 104.164062 52.316406 104.195312 53.011719 C 104.238281 54.019531 104.140625 55.046875 103.773438 55.988281 C 103.464844 56.777344 102.453125 58.542969 101.371094 58.324219 C 100.101562 58.070312 100.164062 55.910156 100.277344 54.984375 " fill-opacity="1" fill-rule="nonzero"/><path fill="#f1dc0a" d="M 102.683594 51.40625 C 102.796875 51.335938 102.929688 51.28125 103.058594 51.296875 C 103.332031 51.332031 103.46875 51.644531 103.507812 51.917969 C 103.605469 52.625 103.148438 54.414062 102.078125 53.988281 C 101.042969 53.574219 102.074219 51.777344 102.683594 51.40625 " fill-opacity="1" fill-rule="nonzero"/><path fill="#cf1e25" d="M 81.925781 79.144531 C 82.789062 78.144531 83.917969 77.214844 85.234375 77.191406 C 85.730469 77.183594 86.269531 77.332031 86.542969 77.746094 C 86.929688 78.324219 86.632812 79.109375 86.269531 79.707031 C 85.746094 80.566406 85.09375 81.363281 84.269531 81.9375 C 83.574219 82.417969 81.757812 83.316406 80.976562 82.53125 C 80.066406 81.605469 81.316406 79.851562 81.925781 79.144531 " fill-opacity="1" fill-rule="nonzero"/><path fill="#f1dc0a" d="M 85.90625 77.523438 C 86.039062 77.53125 86.179688 77.558594 86.277344 77.644531 C 86.484375 77.828125 86.425781 78.164062 86.304688 78.410156 C 85.996094 79.050781 84.621094 80.285156 83.972656 79.328125 C 83.34375 78.402344 85.195312 77.488281 85.90625 77.523438 " fill-opacity="1" fill-rule="nonzero"/><path fill="#cf1e25" d="M 79.285156 74.828125 C 80.4375 74.179688 81.8125 73.6875 83.058594 74.113281 C 83.527344 74.273438 83.984375 74.597656 84.105469 75.078125 C 84.273438 75.757812 83.730469 76.394531 83.1875 76.832031 C 82.40625 77.464844 81.523438 77.992188 80.554688 78.25 C 79.738281 78.46875 77.726562 78.699219 77.257812 77.691406 C 76.707031 76.511719 78.480469 75.285156 79.285156 74.828125 " fill-opacity="1" fill-rule="nonzero"/><path fill="#f1dc0a" d="M 83.582031 74.65625 C 83.703125 74.707031 83.824219 74.78125 83.890625 74.898438 C 84.023438 75.136719 83.851562 75.433594 83.65625 75.625 C 83.152344 76.125 81.445312 76.816406 81.152344 75.695312 C 80.871094 74.613281 82.921875 74.382812 83.582031 74.65625 " fill-opacity="1" fill-rule="nonzero"/><path fill="#cf1e25" d="M 117.210938 77.289062 C 115.972656 76.832031 114.710938 76.097656 114.21875 74.867188 C 114.035156 74.40625 113.988281 73.847656 114.273438 73.441406 C 114.675781 72.871094 115.511719 72.875 116.195312 73.003906 C 117.179688 73.191406 118.152344 73.523438 118.976562 74.097656 C 119.671875 74.578125 121.152344 75.96875 120.695312 76.980469 C 120.160156 78.164062 118.082031 77.609375 117.210938 77.289062 " fill-opacity="1" fill-rule="nonzero"/><path fill="#f1dc0a" d="M 114.292969 74.117188 C 114.25 73.992188 114.226562 73.851562 114.273438 73.726562 C 114.371094 73.46875 114.703125 73.40625 114.976562 73.429688 C 115.683594 73.492188 117.3125 74.347656 116.65625 75.300781 C 116.019531 76.21875 114.511719 74.800781 114.292969 74.117188 " fill-opacity="1" fill-rule="nonzero"/><path fill="#cf1e25" d="M 91.945312 84.378906 C 91.992188 83.054688 92.292969 81.621094 93.300781 80.765625 C 93.679688 80.449219 94.195312 80.226562 94.664062 80.371094 C 95.328125 80.578125 95.585938 81.378906 95.679688 82.070312 C 95.808594 83.070312 95.796875 84.105469 95.511719 85.070312 C 95.273438 85.882812 94.421875 87.730469 93.324219 87.609375 C 92.035156 87.46875 91.914062 85.308594 91.945312 84.378906 " fill-opacity="1" fill-rule="nonzero"/><path fill="#f1dc0a" d="M 94.03125 80.601562 C 94.140625 80.523438 94.265625 80.457031 94.398438 80.460938 C 94.671875 80.472656 94.835938 80.773438 94.898438 81.042969 C 95.054688 81.734375 94.757812 83.5625 93.652344 83.226562 C 92.585938 82.90625 93.457031 81.023438 94.03125 80.601562 " fill-opacity="1" fill-rule="nonzero"/><path fill="#cf1e25" d="M 86.074219 81.886719 C 86.5625 80.652344 87.328125 79.40625 88.566406 78.945312 C 89.027344 78.773438 89.585938 78.738281 89.980469 79.039062 C 90.535156 79.457031 90.511719 80.296875 90.363281 80.980469 C 90.152344 81.96875 89.792969 82.933594 89.199219 83.75 C 88.703125 84.433594 87.277344 85.882812 86.285156 85.394531 C 85.121094 84.824219 85.730469 82.75 86.074219 81.886719 " fill-opacity="1" fill-rule="nonzero"/><path fill="#f1dc0a" d="M 89.308594 79.039062 C 89.4375 79 89.578125 78.980469 89.699219 79.03125 C 89.953125 79.136719 90.007812 79.472656 89.972656 79.746094 C 89.890625 80.453125 88.996094 82.070312 88.070312 81.382812 C 87.171875 80.714844 88.625 79.242188 89.308594 79.039062 " fill-opacity="1" fill-rule="nonzero"/><path fill="#cf1e25" d="M 114.382812 83.085938 C 113.507812 82.089844 112.746094 80.839844 112.894531 79.523438 C 112.953125 79.03125 113.175781 78.515625 113.617188 78.292969 C 114.238281 77.984375 114.972656 78.386719 115.515625 78.828125 C 116.292969 79.460938 116.988281 80.21875 117.445312 81.117188 C 117.828125 81.875 118.472656 83.804688 117.59375 84.476562 C 116.5625 85.265625 114.996094 83.78125 114.382812 83.085938 " fill-opacity="1" fill-rule="nonzero"/><path fill="#f1dc0a" d="M 113.3125 78.898438 C 113.335938 78.769531 113.382812 78.632812 113.484375 78.542969 C 113.6875 78.363281 114.011719 78.46875 114.242188 78.621094 C 114.832031 79.015625 115.863281 80.546875 114.835938 81.066406 C 113.839844 81.570312 113.183594 79.601562 113.3125 78.898438 " fill-opacity="1" fill-rule="nonzero"/><path fill="#cf1e25" d="M 108.414062 85.335938 C 107.925781 84.101562 107.628906 82.667969 108.210938 81.476562 C 108.429688 81.03125 108.8125 80.621094 109.304688 80.566406 C 109.996094 80.488281 110.550781 81.113281 110.910156 81.710938 C 111.429688 82.574219 111.832031 83.523438 111.957031 84.527344 C 112.066406 85.367188 112.023438 87.402344 110.96875 87.734375 C 109.734375 88.125 108.757812 86.199219 108.414062 85.335938 " fill-opacity="1" fill-rule="nonzero"/><path fill="#f1dc0a" d="M 108.816406 81.03125 C 108.882812 80.917969 108.96875 80.804688 109.09375 80.753906 C 109.347656 80.65625 109.617188 80.863281 109.78125 81.085938 C 110.207031 81.65625 110.660156 83.449219 109.515625 83.589844 C 108.414062 83.726562 108.457031 81.648438 108.816406 81.03125 " fill-opacity="1" fill-rule="nonzero"/><path fill="#cf1e25" d="M 95.429688 54.84375 C 95.402344 53.488281 95.683594 52.046875 96.90625 51.277344 C 97.359375 50.988281 97.996094 50.8125 98.597656 51.015625 C 99.449219 51.296875 99.828125 52.144531 99.988281 52.867188 C 100.21875 53.910156 100.269531 54.96875 99.976562 55.933594 C 99.726562 56.742188 98.769531 58.550781 97.375 58.308594 C 95.742188 58.027344 95.449219 55.796875 95.429688 54.84375 " fill-opacity="1" fill-rule="nonzero"/><path fill="#f1dc0a" d="M 97.816406 51.183594 C 97.945312 51.113281 98.097656 51.058594 98.265625 51.078125 C 98.613281 51.121094 98.839844 51.445312 98.933594 51.726562 C 99.179688 52.457031 98.921875 54.300781 97.507812 53.839844 C 96.140625 53.398438 97.117188 51.554688 97.816406 51.183594 " fill-opacity="1" fill-rule="nonzero"/><path fill="#cf1e25" d="M 89.550781 55.816406 C 89.125 54.527344 88.976562 53.066406 89.917969 51.96875 C 90.269531 51.558594 90.824219 51.203125 91.457031 51.21875 C 92.355469 51.238281 92.964844 51.933594 93.328125 52.578125 C 93.855469 53.503906 94.210938 54.5 94.210938 55.511719 C 94.214844 56.359375 93.828125 58.371094 92.425781 58.554688 C 90.785156 58.765625 89.847656 56.722656 89.550781 55.816406 " fill-opacity="1" fill-rule="nonzero"/><path fill="#f1dc0a" d="M 90.757812 51.613281 C 90.863281 51.507812 90.996094 51.40625 91.160156 51.378906 C 91.5 51.3125 91.8125 51.558594 91.988281 51.796875 C 92.4375 52.421875 92.730469 54.261719 91.242188 54.242188 C 89.808594 54.222656 90.203125 52.175781 90.757812 51.613281 " fill-opacity="1" fill-rule="nonzero"/><path fill="#cf1e25" d="M 112.34375 64.007812 C 113.433594 63.257812 114.757812 62.652344 116.042969 62.964844 C 116.519531 63.082031 117.003906 63.367188 117.164062 63.835938 C 117.394531 64.496094 116.90625 65.175781 116.40625 65.664062 C 115.683594 66.359375 114.847656 66.964844 113.90625 67.304688 C 113.113281 67.59375 111.125 68 110.570312 67.039062 C 109.921875 65.910156 111.578125 64.53125 112.34375 64.007812 " fill-opacity="1" fill-rule="nonzero"/><path fill="#f1dc0a" d="M 116.609375 63.457031 C 116.734375 63.5 116.863281 63.5625 116.933594 63.671875 C 117.089844 63.898438 116.945312 64.210938 116.765625 64.417969 C 116.304688 64.957031 114.667969 65.796875 114.277344 64.707031 C 113.90625 63.652344 115.929688 63.242188 116.609375 63.457031 " fill-opacity="1" fill-rule="nonzero"/><path fill="#cf1e25" d="M 115.367188 67.992188 C 116.640625 67.644531 118.089844 67.511719 119.199219 68.230469 C 119.613281 68.5 119.976562 68.925781 119.976562 69.421875 C 119.976562 70.121094 119.292969 70.605469 118.660156 70.898438 C 117.746094 71.320312 116.765625 71.613281 115.761719 71.625 C 114.917969 71.636719 112.910156 71.359375 112.699219 70.269531 C 112.457031 68.988281 114.472656 68.234375 115.367188 67.992188 " fill-opacity="1" fill-rule="nonzero"/><path fill="#f1dc0a" d="M 119.570312 68.882812 C 119.675781 68.964844 119.777344 69.0625 119.8125 69.191406 C 119.882812 69.457031 119.644531 69.703125 119.410156 69.839844 C 118.796875 70.199219 116.972656 70.449219 116.964844 69.292969 C 116.957031 68.171875 119 68.457031 119.570312 68.882812 " fill-opacity="1" fill-rule="nonzero"/><path fill="#cf1e25" d="M 104.210938 56.140625 C 104.734375 54.886719 105.578125 53.6875 107.003906 53.480469 C 107.535156 53.40625 108.183594 53.503906 108.65625 53.933594 C 109.320312 54.542969 109.320312 55.46875 109.175781 56.195312 C 108.964844 57.242188 108.582031 58.230469 107.921875 58.992188 C 107.371094 59.628906 105.765625 60.890625 104.585938 60.101562 C 103.210938 59.175781 103.84375 57.015625 104.210938 56.140625 " fill-opacity="1" fill-rule="nonzero"/><path fill="#f1dc0a" d="M 107.871094 53.769531 C 108.019531 53.761719 108.179688 53.769531 108.328125 53.859375 C 108.625 54.035156 108.703125 54.425781 108.675781 54.722656 C 108.601562 55.488281 107.621094 57.070312 106.515625 56.070312 C 105.445312 55.109375 107.082031 53.824219 107.871094 53.769531 " fill-opacity="1" fill-rule="nonzero"/><path fill="#cf1e25" d="M 91.949219 76.808594 C 91.925781 75.480469 92.152344 74.03125 93.117188 73.128906 C 93.476562 72.789062 93.980469 72.539062 94.457031 72.660156 C 95.132812 72.832031 95.429688 73.617188 95.558594 74.304688 C 95.738281 75.296875 95.78125 76.328125 95.550781 77.308594 C 95.351562 78.132812 94.597656 80.023438 93.492188 79.960938 C 92.203125 79.886719 91.964844 77.738281 91.949219 76.808594 " fill-opacity="1" fill-rule="nonzero"/><path fill="#f1dc0a" d="M 93.835938 72.925781 C 93.941406 72.839844 94.0625 72.765625 94.195312 72.765625 C 94.46875 72.761719 94.648438 73.054688 94.722656 73.316406 C 94.917969 74 94.714844 75.839844 93.597656 75.566406 C 92.511719 75.300781 93.285156 73.375 93.835938 72.925781 " fill-opacity="1" fill-rule="nonzero"/><path fill="#cf1e25" d="M 97.265625 76.925781 C 97.332031 75.570312 97.71875 74.152344 98.988281 73.472656 C 99.464844 73.214844 100.109375 73.085938 100.699219 73.332031 C 101.527344 73.675781 101.84375 74.546875 101.949219 75.277344 C 102.105469 76.332031 102.082031 77.394531 101.722656 78.335938 C 101.417969 79.125 100.335938 80.859375 98.960938 80.519531 C 97.351562 80.125 97.21875 77.875 97.265625 76.925781 " fill-opacity="1" fill-rule="nonzero"/><path fill="#f1dc0a" d="M 99.90625 73.445312 C 100.039062 73.382812 100.195312 73.339844 100.363281 73.371094 C 100.703125 73.4375 100.90625 73.777344 100.980469 74.0625 C 101.175781 74.808594 100.785156 76.632812 99.410156 76.074219 C 98.078125 75.53125 99.183594 73.765625 99.90625 73.445312 " fill-opacity="1" fill-rule="nonzero"/><path fill="#cf1e25" d="M 98.710938 62.789062 C 98.84375 64.109375 98.734375 65.570312 97.847656 66.550781 C 97.515625 66.917969 97.035156 67.207031 96.546875 67.125 C 95.863281 67.007812 95.5 66.25 95.320312 65.574219 C 95.054688 64.601562 94.933594 63.578125 95.085938 62.578125 C 95.214844 61.742188 95.816406 59.796875 96.921875 59.769531 C 98.214844 59.738281 98.621094 61.863281 98.710938 62.789062 " fill-opacity="1" fill-rule="nonzero"/><path fill="#f1dc0a" d="M 97.144531 66.8125 C 97.046875 66.902344 96.933594 66.984375 96.800781 67 C 96.527344 67.023438 96.328125 66.75 96.230469 66.492188 C 95.980469 65.824219 96.035156 63.976562 97.171875 64.160156 C 98.273438 64.335938 97.65625 66.316406 97.144531 66.8125 " fill-opacity="1" fill-rule="nonzero"/><path fill="#cf1e25" d="M 93.695312 63.210938 C 94.476562 64.28125 95.128906 65.589844 94.863281 66.890625 C 94.765625 67.375 94.5 67.871094 94.039062 68.050781 C 93.390625 68.304688 92.695312 67.839844 92.195312 67.351562 C 91.476562 66.648438 90.847656 65.832031 90.472656 64.898438 C 90.15625 64.109375 89.683594 62.128906 90.621094 61.539062 C 91.71875 60.847656 93.148438 62.460938 93.695312 63.210938 " fill-opacity="1" fill-rule="nonzero"/><path fill="#f1dc0a" d="M 94.394531 67.476562 C 94.359375 67.605469 94.300781 67.734375 94.191406 67.8125 C 93.972656 67.976562 93.65625 67.84375 93.445312 67.671875 C 92.890625 67.226562 92 65.609375 93.070312 65.179688 C 94.101562 64.765625 94.582031 66.785156 94.394531 67.476562 " fill-opacity="1" fill-rule="nonzero"/><path fill="#cf1e25" d="M 88.351562 65.308594 C 89.664062 65.464844 91.058594 65.882812 91.824219 66.964844 C 92.109375 67.371094 92.285156 67.902344 92.101562 68.363281 C 91.84375 69.011719 91.027344 69.203125 90.335938 69.238281 C 89.332031 69.289062 88.3125 69.191406 87.375 68.828125 C 86.589844 68.523438 84.828125 67.515625 85.035156 66.425781 C 85.285156 65.148438 87.433594 65.203125 88.351562 65.308594 " fill-opacity="1" fill-rule="nonzero"/><path fill="#f1dc0a" d="M 91.925781 67.710938 C 91.996094 67.824219 92.050781 67.957031 92.035156 68.089844 C 92 68.359375 91.691406 68.5 91.421875 68.539062 C 90.71875 68.644531 88.933594 68.195312 89.355469 67.113281 C 89.761719 66.074219 91.554688 67.101562 91.925781 67.710938 " fill-opacity="1" fill-rule="nonzero"/><path fill="#cf1e25" d="M 103.714844 62.53125 C 103.984375 63.832031 104.035156 65.296875 103.253906 66.367188 C 102.960938 66.765625 102.515625 67.105469 102.023438 67.074219 C 101.328125 67.03125 100.886719 66.316406 100.636719 65.664062 C 100.273438 64.726562 100.039062 63.71875 100.085938 62.710938 C 100.128906 61.867188 100.519531 59.867188 101.613281 59.722656 C 102.898438 59.554688 103.527344 61.621094 103.714844 62.53125 " fill-opacity="1" fill-rule="nonzero"/><path fill="#f1dc0a" d="M 102.582031 66.699219 C 102.496094 66.800781 102.390625 66.898438 102.261719 66.921875 C 101.992188 66.976562 101.761719 66.726562 101.640625 66.480469 C 101.320312 65.84375 101.179688 64 102.332031 64.058594 C 103.441406 64.117188 103.042969 66.152344 102.582031 66.699219 " fill-opacity="1" fill-rule="nonzero"/><path fill="#cf1e25" d="M 108.011719 67.753906 C 107.300781 68.867188 106.3125 69.945312 105.007812 70.160156 C 104.523438 70.238281 103.96875 70.164062 103.636719 69.796875 C 103.171875 69.277344 103.359375 68.457031 103.632812 67.816406 C 104.027344 66.886719 104.5625 66.007812 105.300781 65.324219 C 105.917969 64.746094 107.59375 63.597656 108.472656 64.269531 C 109.507812 65.050781 108.515625 66.96875 108.011719 67.753906 " fill-opacity="1" fill-rule="nonzero"/><path fill="#f1dc0a" d="M 104.296875 69.925781 C 104.164062 69.9375 104.023438 69.929688 103.914062 69.855469 C 103.683594 69.707031 103.695312 69.363281 103.777344 69.101562 C 103.996094 68.425781 105.179688 67.011719 105.960938 67.863281 C 106.710938 68.691406 105.007812 69.859375 104.296875 69.925781 " fill-opacity="1" fill-rule="nonzero"/><path fill="#cf1e25" d="M 100.636719 72.652344 C 99.269531 72.65625 97.84375 72.320312 97.171875 70.96875 C 96.921875 70.464844 96.800781 69.765625 97.050781 69.105469 C 97.410156 68.175781 98.292969 67.777344 99.03125 67.613281 C 100.097656 67.378906 101.167969 67.339844 102.113281 67.679688 C 102.90625 67.96875 104.644531 69.046875 104.285156 70.574219 C 103.863281 72.359375 101.59375 72.644531 100.636719 72.652344 " fill-opacity="1" fill-rule="nonzero"/><path fill="#f1dc0a" d="M 97.15625 69.96875 C 97.097656 69.824219 97.054688 69.652344 97.089844 69.472656 C 97.160156 69.09375 97.503906 68.851562 97.796875 68.75 C 98.550781 68.492188 100.382812 68.808594 99.800781 70.351562 C 99.242188 71.84375 97.472656 70.738281 97.15625 69.96875 " fill-opacity="1" fill-rule="nonzero"/><path fill="#cf1e25" d="M 91.011719 74.75 C 90.066406 75.722656 88.84375 76.53125 87.445312 76.199219 C 86.921875 76.074219 86.351562 75.742188 86.070312 75.167969 C 85.675781 74.359375 86.011719 73.492188 86.410156 72.871094 C 86.988281 71.976562 87.703125 71.195312 88.59375 70.730469 C 89.339844 70.34375 91.292969 69.757812 92.101562 70.925781 C 93.046875 72.292969 91.671875 74.070312 91.011719 74.75 " fill-opacity="1" fill-rule="nonzero"/><path fill="#f1dc0a" d="M 86.738281 75.609375 C 86.597656 75.5625 86.453125 75.496094 86.347656 75.359375 C 86.136719 75.082031 86.207031 74.695312 86.339844 74.429688 C 86.683594 73.738281 88.171875 72.632812 88.839844 73.964844 C 89.484375 75.257812 87.492188 75.847656 86.738281 75.609375 " fill-opacity="1" fill-rule="nonzero"/><path fill="#cf1e25" d="M 107.15625 74.371094 C 108.152344 75.242188 109.074219 76.378906 109.09375 77.703125 C 109.101562 78.199219 108.953125 78.742188 108.542969 79.015625 C 107.964844 79.40625 107.183594 79.105469 106.589844 78.738281 C 105.734375 78.210938 104.945312 77.554688 104.375 76.722656 C 103.898438 76.023438 103.007812 74.195312 103.792969 73.414062 C 104.714844 72.496094 106.457031 73.757812 107.15625 74.371094 " fill-opacity="1" fill-rule="nonzero"/><path fill="#f1dc0a" d="M 108.761719 78.378906 C 108.753906 78.511719 108.730469 78.652344 108.640625 78.75 C 108.460938 78.957031 108.125 78.898438 107.878906 78.777344 C 107.242188 78.464844 106.019531 77.082031 106.972656 76.429688 C 107.894531 75.800781 108.800781 77.664062 108.761719 78.378906 " fill-opacity="1" fill-rule="nonzero"/><path fill="#cf1e25" d="M 108.652344 75.042969 C 107.804688 73.984375 107.15625 72.667969 107.65625 71.3125 C 107.839844 70.804688 108.238281 70.277344 108.839844 70.066406 C 109.683594 69.765625 110.496094 70.207031 111.0625 70.679688 C 111.878906 71.363281 112.5625 72.171875 112.914062 73.117188 C 113.207031 73.910156 113.546875 75.929688 112.300781 76.59375 C 110.835938 77.371094 109.246094 75.785156 108.652344 75.042969 " fill-opacity="1" fill-rule="nonzero"/><path fill="#f1dc0a" d="M 108.320312 70.679688 C 108.382812 70.542969 108.46875 70.40625 108.613281 70.320312 C 108.914062 70.140625 109.289062 70.257812 109.535156 70.421875 C 110.171875 70.851562 111.085938 72.46875 109.691406 72.972656 C 108.339844 73.460938 107.992188 71.402344 108.320312 70.679688 " fill-opacity="1" fill-rule="nonzero"/><path fill="#cf1e25" d="M 112.5 61.097656 C 111.867188 62.269531 110.945312 63.410156 109.605469 63.640625 C 109.105469 63.726562 108.523438 63.652344 108.140625 63.269531 C 107.605469 62.726562 107.71875 61.867188 107.941406 61.191406 C 108.261719 60.21875 108.730469 59.289062 109.433594 58.566406 C 110.019531 57.960938 111.648438 56.746094 112.636719 57.441406 C 113.789062 58.257812 112.945312 60.273438 112.5 61.097656 " fill-opacity="1" fill-rule="nonzero"/><path fill="#f1dc0a" d="M 108.84375 63.398438 C 108.707031 63.414062 108.558594 63.40625 108.433594 63.332031 C 108.179688 63.175781 108.160156 62.816406 108.21875 62.542969 C 108.378906 61.828125 109.472656 60.335938 110.371094 61.226562 C 111.238281 62.089844 109.574219 63.324219 108.84375 63.398438 " fill-opacity="1" fill-rule="nonzero"/><path fill="#cf1e25" d="M 89.53125 56.765625 C 90.296875 57.855469 90.902344 59.191406 90.511719 60.496094 C 90.367188 60.988281 90.042969 61.480469 89.53125 61.652344 C 88.8125 61.898438 88.09375 61.414062 87.59375 60.914062 C 86.867188 60.195312 86.25 59.359375 85.914062 58.40625 C 85.632812 57.609375 85.273438 55.597656 86.332031 55.019531 C 87.570312 54.339844 88.996094 55.996094 89.53125 56.765625 " fill-opacity="1" fill-rule="nonzero"/><path fill="#f1dc0a" d="M 89.960938 61.082031 C 89.910156 61.210938 89.839844 61.339844 89.71875 61.417969 C 89.464844 61.578125 89.136719 61.4375 88.917969 61.261719 C 88.355469 60.800781 87.511719 59.152344 88.703125 58.742188 C 89.855469 58.339844 90.21875 60.386719 89.960938 61.082031 " fill-opacity="1" fill-rule="nonzero"/><path fill="#cf1e25" d="M 84.988281 59.117188 C 86.140625 59.78125 87.25 60.734375 87.449219 62.082031 C 87.523438 62.585938 87.4375 63.175781 87.046875 63.546875 C 86.496094 64.074219 85.640625 63.941406 84.976562 63.703125 C 84.015625 63.359375 83.105469 62.867188 82.402344 62.144531 C 81.8125 61.539062 80.640625 59.875 81.355469 58.898438 C 82.191406 57.757812 84.175781 58.652344 84.988281 59.117188 " fill-opacity="1" fill-rule="nonzero"/><path fill="#f1dc0a" d="M 87.191406 62.847656 C 87.203125 62.984375 87.191406 63.132812 87.113281 63.253906 C 86.953125 63.507812 86.597656 63.519531 86.324219 63.453125 C 85.621094 63.277344 84.164062 62.140625 85.066406 61.261719 C 85.941406 60.410156 87.132812 62.109375 87.191406 62.847656 " fill-opacity="1" fill-rule="nonzero"/><path fill="#cf1e25" d="M 106.972656 84.804688 C 106.769531 86.125 106.28125 87.507812 105.101562 88.179688 C 104.660156 88.429688 104.082031 88.558594 103.597656 88.324219 C 102.910156 88 102.726562 87.152344 102.710938 86.441406 C 102.6875 85.414062 102.820312 84.382812 103.234375 83.464844 C 103.582031 82.691406 104.710938 80.996094 105.875 81.316406 C 107.234375 81.691406 107.113281 83.878906 106.972656 84.804688 " fill-opacity="1" fill-rule="nonzero"/><path fill="#f1dc0a" d="M 104.300781 88.210938 C 104.175781 88.269531 104.035156 88.316406 103.894531 88.285156 C 103.601562 88.222656 103.460938 87.894531 103.425781 87.613281 C 103.335938 86.890625 103.867188 85.113281 105.011719 85.648438 C 106.113281 86.167969 104.964844 87.894531 104.300781 88.210938 " fill-opacity="1" fill-rule="nonzero"/><path fill="#cf1e25" d="M 102.074219 83.328125 C 102.445312 84.609375 102.585938 86.070312 101.800781 87.179688 C 101.503906 87.59375 101.039062 87.957031 100.5 87.953125 C 99.738281 87.949219 99.214844 87.257812 98.902344 86.621094 C 98.449219 85.703125 98.132812 84.710938 98.125 83.703125 C 98.117188 82.855469 98.425781 80.835938 99.613281 80.632812 C 101.003906 80.394531 101.816406 82.429688 102.074219 83.328125 " fill-opacity="1" fill-rule="nonzero"/><path fill="#f1dc0a" d="M 101.089844 87.550781 C 101 87.65625 100.890625 87.757812 100.75 87.789062 C 100.460938 87.859375 100.195312 87.621094 100.046875 87.382812 C 99.660156 86.761719 99.394531 84.929688 100.652344 84.925781 C 101.871094 84.925781 101.554688 86.980469 101.089844 87.550781 " fill-opacity="1" fill-rule="nonzero"/><path fill="#cf1e25" d="M 81.273438 62.382812 C 82.425781 63.046875 83.535156 64 83.734375 65.347656 C 83.8125 65.851562 83.722656 66.4375 83.335938 66.8125 C 82.78125 67.339844 81.929688 67.207031 81.265625 66.96875 C 80.300781 66.625 79.390625 66.128906 78.6875 65.410156 C 78.097656 64.804688 76.925781 63.136719 77.640625 62.164062 C 78.480469 61.019531 80.464844 61.914062 81.273438 62.382812 " fill-opacity="1" fill-rule="nonzero"/><path fill="#f1dc0a" d="M 83.480469 66.109375 C 83.488281 66.25 83.480469 66.398438 83.402344 66.519531 C 83.242188 66.769531 82.882812 66.785156 82.613281 66.714844 C 81.90625 66.542969 80.449219 65.40625 81.355469 64.523438 C 82.230469 63.671875 83.421875 65.375 83.480469 66.109375 " fill-opacity="1" fill-rule="nonzero"/><path fill="#cf1e25" d="M 78.734375 69.171875 C 80.054688 69.007812 81.511719 69.105469 82.472656 70.066406 C 82.832031 70.425781 83.113281 70.945312 83.023438 71.480469 C 82.894531 72.234375 82.132812 72.640625 81.457031 72.851562 C 80.480469 73.152344 79.457031 73.304688 78.464844 73.152344 C 77.632812 73.023438 75.703125 72.390625 75.695312 71.179688 C 75.683594 69.761719 77.808594 69.285156 78.734375 69.171875 " fill-opacity="1" fill-rule="nonzero"/><path fill="#f1dc0a" d="M 82.722656 70.832031 C 82.8125 70.9375 82.890625 71.0625 82.902344 71.207031 C 82.921875 71.503906 82.644531 71.730469 82.386719 71.839844 C 81.71875 72.121094 79.875 72.089844 80.074219 70.839844 C 80.269531 69.632812 82.238281 70.277344 82.722656 70.832031 " fill-opacity="1" fill-rule="nonzero"/></svg>