<svg xmlns="http://www.w3.org/2000/svg" xmlns:xlink="http://www.w3.org/1999/xlink" width="300" zoomAndPan="magnify" viewBox="0 0 224.87999 225" height="300" preserveAspectRatio="xMidYMid meet" version="1.0"><defs><clipPath id="bb31a232df"><path d="M 35.605469 22.546875 L 189.273438 22.546875 L 189.273438 202.453125 L 35.605469 202.453125 Z M 35.605469 22.546875 " clip-rule="nonzero"/></clipPath><clipPath id="de8b113f1a"><path d="M 35.605469 30 L 168 30 L 168 202.453125 L 35.605469 202.453125 Z M 35.605469 30 " clip-rule="nonzero"/></clipPath><clipPath id="1862816434"><path d="M 39 22.546875 L 94 22.546875 L 94 35 L 39 35 Z M 39 22.546875 " clip-rule="nonzero"/></clipPath><clipPath id="7baf983dbf"><path d="M 143 169 L 189.273438 169 L 189.273438 202 L 143 202 Z M 143 169 " clip-rule="nonzero"/></clipPath><clipPath id="5c3a8f4f7f"><path d="M 107 99 L 189.273438 99 L 189.273438 180 L 107 180 Z M 107 99 " clip-rule="nonzero"/></clipPath></defs><path fill="#000000" d="M 187 166.5625 L 129.886719 100.027344 L 184.550781 53.195312 C 187.167969 50.953125 187.472656 47.015625 185.230469 44.398438 L 169.40625 25.9375 C 167.785156 24.046875 165.285156 23.371094 163.03125 23.984375 L 163.03125 23.980469 L 163.027344 23.984375 C 162.640625 24.089844 162.265625 24.230469 161.898438 24.414062 L 141.015625 32.363281 L 141.015625 32.367188 C 140.222656 32.609375 139.464844 33.015625 138.796875 33.589844 L 94.867188 71.214844 L 94.867188 29.410156 C 94.867188 25.964844 92.074219 23.171875 88.628906 23.171875 L 64.316406 23.171875 C 63.40625 23.171875 62.542969 23.371094 61.761719 23.722656 L 61.761719 23.71875 L 40.507812 31.832031 C 40.335938 31.890625 40.167969 31.953125 40.003906 32.023438 L 39.980469 32.035156 C 37.792969 33.003906 36.261719 35.191406 36.261719 37.738281 L 36.261719 195.375 C 36.261719 198.820312 39.058594 201.613281 42.5 201.613281 L 66.816406 201.613281 C 67.894531 201.613281 68.90625 201.34375 69.789062 200.863281 L 90.914062 192.851562 L 90.914062 192.847656 C 93.226562 191.9375 94.867188 189.6875 94.867188 187.046875 L 94.867188 149.457031 L 137.257812 198.839844 C 138.996094 200.863281 141.746094 201.496094 144.113281 200.636719 L 144.117188 200.636719 C 144.242188 200.59375 144.363281 200.550781 144.484375 200.496094 L 165.871094 192.332031 C 166.582031 192.082031 167.257812 191.703125 167.867188 191.183594 L 186.328125 175.363281 C 188.945312 173.117188 189.246094 169.179688 187 166.5625 Z M 187 166.5625 " fill-opacity="1" fill-rule="nonzero"/><g clip-path="url(#bb31a232df)"><path fill="#000000" d="M 66.816406 202.238281 L 42.5 202.238281 C 38.71875 202.238281 35.640625 199.160156 35.640625 195.375 L 35.640625 37.738281 C 35.640625 35.046875 37.222656 32.597656 39.675781 31.488281 C 39.703125 31.476562 39.726562 31.460938 39.753906 31.453125 L 39.769531 31.445312 C 39.929688 31.378906 40.101562 31.3125 40.296875 31.246094 L 61.539062 23.136719 C 61.546875 23.136719 61.550781 23.132812 61.554688 23.132812 C 62.433594 22.746094 63.363281 22.546875 64.316406 22.546875 L 88.628906 22.546875 C 92.414062 22.546875 95.492188 25.625 95.492188 29.410156 L 95.492188 69.859375 L 138.390625 33.113281 C 139.097656 32.511719 139.902344 32.0625 140.789062 31.78125 C 140.792969 31.78125 140.792969 31.78125 140.792969 31.78125 L 161.648438 23.839844 C 162.039062 23.648438 162.449219 23.496094 162.863281 23.382812 C 162.867188 23.382812 162.871094 23.378906 162.875 23.378906 C 165.421875 22.691406 168.167969 23.535156 169.878906 25.53125 L 185.703125 43.992188 C 186.894531 45.382812 187.476562 47.15625 187.335938 48.984375 C 187.195312 50.8125 186.347656 52.476562 184.957031 53.667969 L 130.769531 100.09375 L 187.472656 166.15625 C 188.667969 167.546875 189.25 169.320312 189.109375 171.148438 C 188.96875 172.976562 188.125 174.640625 186.730469 175.835938 L 168.269531 191.660156 C 167.644531 192.195312 166.925781 192.613281 166.136719 192.898438 C 166.121094 192.902344 166.109375 192.910156 166.09375 192.914062 L 144.71875 201.074219 C 144.609375 201.121094 144.496094 201.164062 144.382812 201.203125 L 144.328125 201.222656 C 141.65625 202.191406 138.628906 201.394531 136.785156 199.246094 L 95.492188 151.140625 L 95.492188 187.046875 C 95.492188 189.863281 93.804688 192.355469 91.191406 193.410156 C 91.175781 193.417969 91.15625 193.425781 91.136719 193.433594 L 70.050781 201.429688 C 69.0625 201.960938 67.945312 202.238281 66.816406 202.238281 Z M 40.265625 32.59375 C 40.253906 32.597656 40.246094 32.601562 40.234375 32.605469 C 38.199219 33.507812 36.886719 35.519531 36.886719 37.738281 L 36.886719 195.375 C 36.886719 198.472656 39.40625 200.992188 42.5 200.992188 L 66.816406 200.992188 C 67.75 200.992188 68.675781 200.757812 69.492188 200.3125 C 69.515625 200.300781 69.542969 200.289062 69.570312 200.277344 L 90.644531 192.285156 C 90.65625 192.277344 90.671875 192.273438 90.683594 192.269531 C 92.847656 191.417969 94.246094 189.367188 94.246094 187.046875 L 94.246094 149.457031 C 94.246094 149.195312 94.40625 148.960938 94.652344 148.871094 C 94.894531 148.78125 95.171875 148.851562 95.339844 149.050781 L 137.730469 198.433594 C 139.238281 200.191406 141.71875 200.839844 143.898438 200.050781 L 143.957031 200.03125 C 144.050781 199.996094 144.144531 199.964844 144.234375 199.925781 C 144.242188 199.921875 144.253906 199.917969 144.261719 199.914062 L 165.59375 191.773438 C 165.613281 191.761719 165.636719 191.75 165.664062 191.742188 C 166.328125 191.507812 166.933594 191.160156 167.460938 190.710938 L 185.921875 174.886719 C 187.058594 173.910156 187.75 172.550781 187.863281 171.054688 C 187.980469 169.558594 187.503906 168.105469 186.527344 166.96875 L 129.414062 100.433594 C 129.304688 100.304688 129.253906 100.144531 129.265625 99.976562 C 129.277344 99.8125 129.355469 99.660156 129.480469 99.550781 L 184.144531 52.71875 C 185.285156 51.746094 185.976562 50.382812 186.089844 48.886719 C 186.207031 47.394531 185.730469 45.941406 184.753906 44.804688 L 168.933594 26.34375 C 167.53125 24.710938 165.28125 24.019531 163.195312 24.585938 C 163.191406 24.585938 163.191406 24.585938 163.1875 24.585938 C 162.84375 24.679688 162.5 24.8125 162.175781 24.972656 C 162.160156 24.980469 162.140625 24.988281 162.121094 24.996094 L 141.277344 32.933594 C 141.25 32.945312 141.226562 32.953125 141.199219 32.960938 C 140.460938 33.191406 139.789062 33.558594 139.203125 34.0625 L 95.273438 71.6875 C 95.089844 71.847656 94.828125 71.882812 94.609375 71.78125 C 94.386719 71.679688 94.246094 71.457031 94.246094 71.214844 L 94.246094 29.410156 C 94.246094 26.3125 91.726562 23.796875 88.628906 23.796875 L 64.316406 23.796875 C 63.523438 23.796875 62.75 23.960938 62.019531 24.292969 C 61.992188 24.304688 61.964844 24.3125 61.933594 24.320312 L 40.730469 32.414062 C 40.722656 32.417969 40.714844 32.421875 40.707031 32.421875 C 40.542969 32.480469 40.394531 32.535156 40.265625 32.59375 Z M 40.265625 32.59375 " fill-opacity="1" fill-rule="nonzero"/></g><path fill="#ffffff" d="M 80.136719 132.292969 L 73.054688 138.359375 L 73.054688 195.375 C 73.054688 198.820312 70.261719 201.613281 66.816406 201.613281 L 42.5 201.613281 C 39.054688 201.613281 36.265625 198.820312 36.265625 195.375 L 36.265625 37.738281 C 36.265625 34.292969 39.054688 31.5 42.5 31.5 L 66.816406 31.5 C 70.261719 31.5 73.054688 34.292969 73.054688 37.738281 L 73.054688 89.902344 L 138.796875 33.589844 C 141.414062 31.347656 145.347656 31.652344 147.589844 34.265625 L 163.414062 52.726562 C 165.65625 55.34375 165.355469 59.28125 162.738281 61.523438 L 108.074219 108.355469 L 165.1875 174.890625 C 167.429688 177.507812 167.128906 181.449219 164.511719 183.691406 L 146.050781 199.515625 C 143.4375 201.753906 139.5 201.453125 137.257812 198.839844 Z M 80.136719 132.292969 " fill-opacity="1" fill-rule="nonzero"/><g clip-path="url(#de8b113f1a)"><path fill="#000000" d="M 66.816406 202.238281 L 42.5 202.238281 C 38.71875 202.238281 35.640625 199.160156 35.640625 195.375 L 35.640625 37.738281 C 35.640625 33.957031 38.71875 30.878906 42.5 30.878906 L 66.816406 30.878906 C 70.601562 30.878906 73.679688 33.957031 73.679688 37.738281 L 73.679688 88.546875 L 138.390625 33.113281 C 141.261719 30.65625 145.601562 30.988281 148.0625 33.859375 L 163.886719 52.320312 C 165.082031 53.714844 165.660156 55.488281 165.519531 57.3125 C 165.378906 59.140625 164.535156 60.804688 163.144531 61.996094 L 108.953125 108.421875 L 165.660156 174.484375 C 166.855469 175.878906 167.433594 177.652344 167.292969 179.480469 C 167.15625 181.308594 166.3125 182.972656 164.917969 184.164062 L 146.457031 199.988281 C 143.585938 202.449219 139.246094 202.117188 136.785156 199.246094 L 80.066406 133.171875 L 73.679688 138.644531 L 73.679688 195.378906 C 73.679688 199.160156 70.601562 202.238281 66.816406 202.238281 Z M 42.5 32.125 C 39.40625 32.125 36.886719 34.644531 36.886719 37.738281 L 36.886719 195.375 C 36.886719 198.472656 39.40625 200.992188 42.5 200.992188 L 66.816406 200.992188 C 69.910156 200.992188 72.429688 198.472656 72.429688 195.375 L 72.429688 138.359375 C 72.429688 138.175781 72.511719 138.003906 72.648438 137.882812 L 79.730469 131.816406 C 79.992188 131.59375 80.382812 131.625 80.609375 131.886719 L 137.730469 198.433594 C 139.746094 200.78125 143.296875 201.054688 145.644531 199.039062 L 164.105469 183.21875 C 165.246094 182.242188 165.9375 180.878906 166.050781 179.382812 C 166.164062 177.886719 165.691406 176.4375 164.710938 175.296875 L 107.601562 108.761719 C 107.492188 108.636719 107.4375 108.472656 107.453125 108.308594 C 107.464844 108.144531 107.542969 107.988281 107.667969 107.882812 L 162.332031 61.050781 C 163.46875 60.074219 164.160156 58.714844 164.277344 57.21875 C 164.390625 55.722656 163.917969 54.273438 162.941406 53.132812 L 147.117188 34.671875 C 145.101562 32.324219 141.550781 32.050781 139.203125 34.0625 L 73.460938 90.375 C 73.273438 90.535156 73.015625 90.570312 72.792969 90.46875 C 72.570312 90.367188 72.429688 90.144531 72.429688 89.902344 L 72.429688 37.738281 C 72.429688 34.644531 69.910156 32.125 66.816406 32.125 Z M 42.5 32.125 " fill-opacity="1" fill-rule="nonzero"/></g><path fill="#c2b092" d="M 88.628906 23.171875 L 64.316406 23.171875 C 63.40625 23.171875 62.542969 23.371094 61.761719 23.722656 L 61.761719 23.71875 L 40.507812 31.832031 C 41.136719 31.621094 41.804688 31.5 42.5 31.5 L 66.816406 31.5 C 68.582031 31.5 70.171875 32.238281 71.308594 33.417969 L 93.125 25.089844 C 91.988281 23.910156 90.398438 23.171875 88.628906 23.171875 Z M 88.628906 23.171875 " fill-opacity="1" fill-rule="nonzero"/><g clip-path="url(#1862816434)"><path fill="#000000" d="M 71.308594 34.042969 C 71.140625 34.042969 70.976562 33.976562 70.859375 33.851562 C 69.789062 32.738281 68.351562 32.125 66.816406 32.125 L 42.5 32.125 C 41.898438 32.125 41.292969 32.226562 40.707031 32.421875 C 40.386719 32.53125 40.035156 32.363281 39.921875 32.042969 C 39.808594 31.722656 39.96875 31.371094 40.285156 31.25 L 61.539062 23.136719 C 61.546875 23.136719 61.550781 23.132812 61.554688 23.132812 C 62.433594 22.746094 63.363281 22.546875 64.316406 22.546875 L 88.628906 22.546875 C 90.511719 22.546875 92.265625 23.296875 93.574219 24.660156 C 93.71875 24.808594 93.78125 25.023438 93.734375 25.226562 C 93.6875 25.429688 93.542969 25.597656 93.347656 25.671875 L 71.53125 34 C 71.457031 34.027344 71.382812 34.042969 71.308594 34.042969 Z M 44.757812 30.878906 L 66.816406 30.878906 C 68.554688 30.878906 70.1875 31.519531 71.460938 32.691406 L 91.9375 24.875 C 90.984375 24.175781 89.839844 23.796875 88.628906 23.796875 L 64.316406 23.796875 C 63.523438 23.796875 62.75 23.960938 62.019531 24.292969 C 61.992188 24.304688 61.964844 24.3125 61.933594 24.320312 Z M 44.757812 30.878906 " fill-opacity="1" fill-rule="nonzero"/></g><path fill="#c2b092" d="M 71.308594 33.417969 C 72.386719 34.539062 73.054688 36.058594 73.054688 37.738281 L 73.054688 89.902344 L 94.867188 71.214844 L 94.867188 29.410156 C 94.867188 27.730469 94.203125 26.210938 93.125 25.089844 Z M 71.308594 33.417969 " fill-opacity="1" fill-rule="nonzero"/><path fill="#000000" d="M 73.054688 90.523438 C 72.964844 90.523438 72.875 90.507812 72.792969 90.46875 C 72.570312 90.367188 72.429688 90.144531 72.429688 89.902344 L 72.429688 37.738281 C 72.429688 36.285156 71.871094 34.902344 70.859375 33.851562 C 70.714844 33.699219 70.652344 33.488281 70.699219 33.28125 C 70.746094 33.078125 70.890625 32.910156 71.085938 32.835938 L 92.902344 24.507812 C 93.136719 24.417969 93.402344 24.476562 93.574219 24.660156 C 94.8125 25.945312 95.492188 27.632812 95.492188 29.410156 L 95.492188 71.214844 C 95.492188 71.398438 95.414062 71.570312 95.273438 71.6875 L 73.460938 90.375 C 73.34375 90.472656 73.199219 90.523438 73.054688 90.523438 Z M 72.351562 33.6875 C 73.210938 34.859375 73.675781 36.269531 73.675781 37.738281 L 73.675781 88.546875 L 94.246094 70.929688 L 94.246094 29.410156 C 94.246094 28.09375 93.785156 26.835938 92.945312 25.828125 Z M 72.351562 33.6875 " fill-opacity="1" fill-rule="nonzero"/><path fill="#c2b092" d="M 73.054688 138.359375 L 73.054688 195.375 C 73.054688 197.746094 71.734375 199.804688 69.789062 200.863281 L 90.914062 192.851562 L 90.914062 192.847656 C 93.226562 191.9375 94.867188 189.6875 94.867188 187.046875 L 94.867188 149.457031 L 80.136719 132.292969 Z M 73.054688 138.359375 " fill-opacity="1" fill-rule="nonzero"/><path fill="#000000" d="M 69.789062 201.484375 C 69.554688 201.484375 69.328125 201.347656 69.222656 201.121094 C 69.085938 200.824219 69.203125 200.46875 69.492188 200.3125 C 71.304688 199.328125 72.429688 197.4375 72.429688 195.375 L 72.429688 138.359375 C 72.429688 138.175781 72.507812 138.003906 72.648438 137.882812 L 79.730469 131.816406 C 79.988281 131.59375 80.382812 131.625 80.609375 131.886719 L 95.34375 149.050781 C 95.4375 149.164062 95.492188 149.308594 95.492188 149.457031 L 95.492188 187.046875 C 95.492188 189.863281 93.808594 192.355469 91.191406 193.410156 C 91.175781 193.417969 91.15625 193.425781 91.136719 193.433594 L 70.011719 201.445312 C 69.9375 201.472656 69.863281 201.484375 69.789062 201.484375 Z M 73.675781 138.644531 L 73.675781 195.378906 C 73.675781 196.742188 73.273438 198.046875 72.550781 199.148438 L 90.644531 192.285156 C 90.65625 192.277344 90.671875 192.273438 90.683594 192.269531 C 92.847656 191.417969 94.246094 189.367188 94.246094 187.046875 L 94.246094 149.6875 L 80.066406 133.171875 Z M 73.675781 138.644531 " fill-opacity="1" fill-rule="nonzero"/><path fill="#c2b092" d="M 185.230469 44.398438 L 169.40625 25.9375 C 167.785156 24.046875 165.285156 23.371094 163.03125 23.984375 L 163.03125 23.980469 L 163.027344 23.984375 C 162.640625 24.089844 162.265625 24.230469 161.898438 24.414062 L 141.015625 32.363281 L 141.015625 32.367188 C 143.316406 31.65625 145.921875 32.320312 147.589844 34.265625 L 163.414062 52.726562 C 164.351562 53.820312 164.835938 55.140625 164.902344 56.476562 L 186.722656 48.628906 C 186.761719 47.136719 186.277344 45.621094 185.230469 44.398438 Z M 185.230469 44.398438 " fill-opacity="1" fill-rule="nonzero"/><path fill="#000000" d="M 164.902344 57.097656 C 164.78125 57.097656 164.660156 57.0625 164.554688 56.996094 C 164.390625 56.886719 164.289062 56.703125 164.277344 56.507812 C 164.21875 55.25 163.753906 54.082031 162.941406 53.132812 L 147.117188 34.671875 C 145.660156 32.976562 143.339844 32.304688 141.199219 32.960938 C 140.933594 33.042969 140.648438 32.941406 140.496094 32.710938 C 140.390625 32.554688 140.363281 32.355469 140.421875 32.175781 C 140.480469 31.996094 140.617188 31.847656 140.792969 31.78125 L 161.648438 23.839844 C 162.039062 23.652344 162.445312 23.496094 162.859375 23.382812 C 162.863281 23.382812 162.871094 23.378906 162.875 23.378906 C 165.417969 22.691406 168.167969 23.535156 169.878906 25.53125 L 185.703125 43.992188 C 186.808594 45.285156 187.394531 46.9375 187.34375 48.648438 C 187.335938 48.90625 187.171875 49.128906 186.933594 49.21875 L 165.113281 57.0625 C 165.042969 57.085938 164.972656 57.097656 164.902344 57.097656 Z M 144.5625 31.679688 C 145.898438 32.023438 147.128906 32.769531 148.0625 33.859375 L 163.886719 52.320312 C 164.703125 53.273438 165.230469 54.398438 165.4375 55.621094 L 186.09375 48.191406 C 186.039062 46.945312 185.570312 45.753906 184.753906 44.804688 L 168.933594 26.34375 C 167.53125 24.710938 165.28125 24.019531 163.195312 24.585938 C 163.191406 24.585938 163.191406 24.585938 163.1875 24.585938 C 162.839844 24.683594 162.5 24.8125 162.175781 24.972656 C 162.160156 24.980469 162.140625 24.988281 162.121094 24.996094 Z M 144.5625 31.679688 " fill-opacity="1" fill-rule="nonzero"/><path fill="#c2b092" d="M 166.6875 178.800781 C 166.730469 180.609375 165.992188 182.421875 164.511719 183.691406 L 146.050781 199.515625 C 145.566406 199.929688 145.039062 200.253906 144.484375 200.496094 L 165.871094 192.332031 C 166.582031 192.082031 167.257812 191.703125 167.867188 191.183594 L 186.328125 175.363281 C 187.808594 174.09375 188.546875 172.28125 188.503906 170.472656 Z M 166.6875 178.800781 " fill-opacity="1" fill-rule="nonzero"/><g clip-path="url(#7baf983dbf)"><path fill="#000000" d="M 144.484375 201.121094 C 144.238281 201.121094 144.007812 200.972656 143.90625 200.730469 C 143.78125 200.417969 143.925781 200.058594 144.234375 199.925781 C 144.746094 199.703125 145.222656 199.402344 145.644531 199.039062 L 164.105469 183.21875 C 165.390625 182.117188 166.105469 180.511719 166.0625 178.816406 C 166.058594 178.550781 166.21875 178.3125 166.464844 178.214844 L 188.28125 169.890625 C 188.46875 169.816406 188.683594 169.84375 188.851562 169.957031 C 189.019531 170.066406 189.121094 170.257812 189.125 170.457031 C 189.175781 172.53125 188.300781 174.488281 186.730469 175.835938 L 168.269531 191.660156 C 167.644531 192.195312 166.925781 192.613281 166.136719 192.898438 C 166.121094 192.902344 166.109375 192.910156 166.09375 192.914062 L 144.707031 201.078125 C 144.632812 201.105469 144.558594 201.121094 144.484375 201.121094 Z M 167.308594 179.230469 C 167.230469 181.136719 166.375 182.914062 164.917969 184.164062 L 148.375 198.34375 L 165.59375 191.773438 C 165.613281 191.761719 165.640625 191.75 165.664062 191.742188 C 166.328125 191.507812 166.933594 191.160156 167.460938 190.710938 L 185.921875 174.886719 C 186.972656 173.988281 187.640625 172.75 187.828125 171.398438 Z M 167.308594 179.230469 " fill-opacity="1" fill-rule="nonzero"/></g><path fill="#c2b092" d="M 184.550781 53.195312 C 185.941406 52 186.671875 50.328125 186.722656 48.628906 L 164.902344 56.476562 C 164.996094 58.335938 164.261719 60.21875 162.738281 61.523438 L 108.074219 108.355469 L 129.886719 100.027344 Z M 184.550781 53.195312 " fill-opacity="1" fill-rule="nonzero"/><path fill="#000000" d="M 108.074219 108.980469 C 107.859375 108.980469 107.652344 108.867188 107.539062 108.675781 C 107.382812 108.414062 107.4375 108.078125 107.667969 107.882812 L 162.332031 61.050781 C 163.65625 59.914062 164.367188 58.257812 164.28125 56.507812 C 164.265625 56.230469 164.433594 55.980469 164.691406 55.890625 L 186.511719 48.042969 C 186.703125 47.972656 186.921875 48.003906 187.085938 48.125 C 187.253906 48.246094 187.351562 48.441406 187.34375 48.648438 C 187.289062 50.585938 186.421875 52.414062 184.957031 53.667969 L 130.292969 100.5 C 130.238281 100.546875 130.175781 100.582031 130.109375 100.609375 L 108.296875 108.9375 C 108.222656 108.964844 108.148438 108.980469 108.074219 108.980469 Z M 165.53125 56.910156 C 165.5 58.878906 164.644531 60.710938 163.144531 61.996094 L 111.210938 106.492188 L 129.5625 99.480469 L 184.144531 52.722656 C 185.101562 51.902344 185.746094 50.78125 185.992188 49.554688 Z M 165.53125 56.910156 " fill-opacity="1" fill-rule="nonzero"/><path fill="#c2b092" d="M 187 166.5625 L 129.886719 100.027344 L 108.074219 108.355469 L 165.1875 174.890625 C 166.160156 176.027344 166.652344 177.414062 166.6875 178.800781 L 188.503906 170.472656 C 188.46875 169.085938 187.976562 167.699219 187 166.5625 Z M 187 166.5625 " fill-opacity="1" fill-rule="nonzero"/><g clip-path="url(#5c3a8f4f7f)"><path fill="#000000" d="M 166.6875 179.421875 C 166.566406 179.421875 166.445312 179.386719 166.339844 179.316406 C 166.171875 179.203125 166.066406 179.015625 166.0625 178.816406 C 166.03125 177.527344 165.550781 176.277344 164.710938 175.296875 L 107.601562 108.761719 C 107.46875 108.609375 107.417969 108.398438 107.46875 108.203125 C 107.519531 108.003906 107.660156 107.84375 107.851562 107.773438 L 129.664062 99.441406 C 129.910156 99.347656 130.191406 99.421875 130.359375 99.621094 L 187.472656 166.15625 C 188.5 167.351562 189.089844 168.882812 189.125 170.457031 C 189.132812 170.722656 188.972656 170.960938 188.722656 171.054688 L 166.910156 179.382812 C 166.835938 179.410156 166.761719 179.421875 166.6875 179.421875 Z M 109.125 108.621094 L 165.660156 174.484375 C 166.496094 175.460938 167.042969 176.660156 167.234375 177.921875 L 187.851562 170.054688 C 187.734375 168.917969 187.273438 167.835938 186.527344 166.96875 L 129.699219 100.765625 Z M 109.125 108.621094 " fill-opacity="1" fill-rule="nonzero"/></g></svg>