<svg xmlns="http://www.w3.org/2000/svg" xmlns:xlink="http://www.w3.org/1999/xlink" width="200" zoomAndPan="magnify" viewBox="0 0 150 112.499997" height="150" preserveAspectRatio="xMidYMid meet" version="1.0"><defs><clipPath id="4326109d7f"><path d="M 47 11.199219 L 103.484375 11.199219 L 103.484375 77 L 47 77 Z M 47 11.199219 " clip-rule="nonzero"/></clipPath><clipPath id="f3a5eec151"><path d="M 66 79 L 88 79 L 88 100.800781 L 66 100.800781 Z M 66 79 " clip-rule="nonzero"/></clipPath></defs><g clip-path="url(#4326109d7f)"><path fill="#f7af76" d="M 95.328125 15.925781 C 97.820312 17.851562 99.683594 20.140625 100.773438 23.054688 C 101.257812 24.355469 102.074219 25.542969 102.5 26.859375 C 103.476562 29.875 103.097656 32.871094 101.882812 35.746094 C 99.546875 41.292969 95.8125 45.828125 91.363281 49.820312 C 89.464844 51.523438 87.492188 53.144531 85.589844 54.84375 C 82.550781 57.5625 81.753906 60.9375 82.671875 64.832031 C 83.15625 66.898438 83.570312 68.984375 83.914062 71.082031 C 84.421875 74.199219 82.734375 76.121094 79.589844 76.265625 C 76.570312 76.402344 74.164062 75.050781 71.964844 73.257812 C 68.199219 70.191406 66.757812 66.160156 67.113281 61.375 C 67.5 56.125 70.148438 51.867188 73.011719 47.703125 C 76.0625 43.277344 79.296875 38.96875 82.234375 34.464844 C 83.964844 31.816406 85.28125 28.894531 86.757812 26.082031 C 87.03125 25.558594 87.199219 24.980469 87.371094 24.414062 C 87.96875 22.449219 87.210938 20.988281 85.253906 20.285156 C 83.523438 19.667969 81.710938 19.683594 79.960938 19.953125 C 74.25 20.84375 70.0625 24.105469 66.804688 28.691406 C 66.574219 29.019531 66.382812 29.5625 66.488281 29.910156 C 67.691406 33.835938 67.335938 37.769531 66.6875 41.71875 C 66.519531 42.742188 66.460938 43.789062 66.375 44.824219 C 66.28125 45.96875 66.300781 47.128906 66.101562 48.253906 C 65.835938 49.769531 64.910156 50.824219 63.4375 51.367188 C 62.65625 51.660156 61.894531 52.089844 61.089844 52.207031 C 60.257812 52.324219 59.277344 52.363281 58.546875 52.03125 C 56.992188 51.328125 55.460938 50.5 54.097656 49.484375 C 49.023438 45.710938 46.734375 40.535156 47.046875 34.308594 C 47.128906 32.738281 47.816406 31.121094 48.542969 29.679688 C 50.300781 26.191406 53.027344 23.5 56.160156 21.195312 C 62.371094 16.628906 69.265625 13.574219 76.847656 12.183594 C 82.058594 11.226562 87.238281 11.28125 92.089844 13.839844 C 93.203125 14.429688 94.214844 15.195312 95.328125 15.925781 Z M 74.230469 54.734375 C 73.816406 55.503906 73.398438 56.265625 73 57.039062 C 72.945312 57.144531 72.972656 57.296875 72.957031 57.425781 C 73.035156 57.375 73.152344 57.339844 73.183594 57.265625 C 73.574219 56.394531 73.953125 55.519531 74.386719 54.59375 C 74.390625 54.546875 74.394531 54.503906 74.398438 54.457031 C 74.382812 54.523438 74.363281 54.589844 74.230469 54.734375 Z M 93.867188 27.398438 C 93.160156 29.765625 92.449219 32.128906 91.746094 34.492188 C 91.691406 34.679688 91.695312 34.882812 91.671875 35.078125 C 91.851562 34.953125 92.066406 34.855469 92.203125 34.695312 C 92.566406 34.269531 92.910156 33.828125 93.234375 33.371094 C 95.445312 30.257812 97.34375 27.039062 97.066406 23 C 96.992188 21.894531 96.644531 20.984375 95.714844 20.433594 C 94.425781 19.671875 93.066406 19.027344 91.730469 18.339844 C 91.621094 18.285156 91.472656 18.304688 91.339844 18.289062 C 91.390625 18.402344 91.425781 18.527344 91.5 18.625 C 91.8125 19.042969 92.160156 19.441406 92.457031 19.871094 C 94.011719 22.105469 94.054688 24.636719 93.867188 27.398438 Z M 75.191406 71.757812 C 74.332031 71.304688 73.472656 70.855469 72.609375 70.40625 C 72.464844 70.332031 72.304688 70.277344 72.152344 70.214844 C 72.167969 70.375 72.144531 70.546875 72.203125 70.683594 C 72.835938 72.136719 73.824219 73.15625 75.480469 73.457031 C 77.933594 73.898438 79.847656 72.734375 80.152344 70.484375 C 80.230469 69.90625 80.214844 69.289062 80.09375 68.722656 C 79.519531 66.113281 78.894531 63.515625 78.285156 60.910156 C 78.265625 60.8125 78.246094 60.714844 78.226562 60.617188 C 78.210938 60.722656 78.175781 60.824219 78.179688 60.925781 C 78.21875 62.039062 78.328125 63.152344 78.285156 64.257812 C 78.21875 66.089844 78.1875 67.941406 77.875 69.738281 C 77.660156 70.949219 76.792969 71.839844 75.191406 71.757812 Z M 87.605469 17.785156 C 86.636719 17.78125 85.667969 17.769531 84.695312 17.769531 C 84.605469 17.769531 84.515625 17.820312 84.425781 17.847656 C 84.492188 17.914062 84.546875 18 84.625 18.054688 C 86.324219 19.257812 88.023438 20.464844 89.730469 21.652344 C 89.796875 21.699219 90.074219 21.601562 90.082031 21.546875 C 90.289062 20.273438 89.03125 18.257812 87.605469 17.785156 Z M 87.460938 14.640625 C 87.390625 14.695312 87.316406 14.746094 87.246094 14.796875 C 87.28125 14.808594 87.3125 14.8125 87.34375 14.824219 C 88.464844 15.226562 89.605469 15.574219 90.691406 16.046875 C 91.941406 16.589844 93.140625 17.242188 94.367188 17.839844 C 94.503906 17.90625 94.683594 17.882812 94.84375 17.90625 C 94.785156 17.757812 94.765625 17.558594 94.660156 17.46875 C 94.039062 16.96875 93.464844 16.292969 92.746094 16.046875 C 91.074219 15.464844 89.332031 15.097656 87.460938 14.640625 Z M 56.976562 41.414062 C 56.933594 40.375 56.898438 39.335938 56.855469 38.296875 C 56.847656 38.171875 56.828125 38.046875 56.8125 37.925781 C 56.769531 38.046875 56.691406 38.164062 56.683594 38.292969 C 56.546875 40.117188 56.40625 41.945312 56.316406 43.773438 C 56.304688 44.03125 56.625 44.542969 56.710938 44.527344 C 57.207031 44.433594 57.457031 44.136719 57.308594 43.550781 C 57.148438 42.914062 57.105469 42.253906 56.976562 41.414062 Z M 58.71875 48.890625 C 58.976562 48.800781 59.285156 48.765625 59.484375 48.601562 C 59.699219 48.425781 59.816406 48.121094 59.976562 47.875 C 59.675781 47.769531 59.382812 47.613281 59.074219 47.574219 C 58.675781 47.523438 58.261719 47.542969 57.859375 47.585938 C 57.601562 47.613281 57.347656 47.734375 57.09375 47.8125 C 57.234375 48.1875 57.289062 48.65625 57.554688 48.902344 C 57.738281 49.078125 58.210938 48.941406 58.71875 48.890625 Z M 53.191406 45.875 C 52.875 44.984375 52.5625 44.085938 52.230469 43.199219 C 52.179688 43.054688 52.019531 42.949219 51.910156 42.828125 C 51.90625 42.988281 51.84375 43.171875 51.902344 43.304688 C 52.28125 44.148438 52.683594 44.980469 53.191406 45.875 Z M 58.75 28.976562 C 58.695312 28.855469 58.636719 28.738281 58.582031 28.617188 C 58.496094 28.832031 58.410156 29.050781 58.324219 29.269531 C 58.464844 29.214844 58.601562 29.160156 58.75 28.976562 Z M 58.75 28.976562 " fill-opacity="1" fill-rule="nonzero"/></g><g clip-path="url(#f3a5eec151)"><path fill="#f7af76" d="M 74.429688 98.996094 C 71.238281 97.292969 68.511719 95.230469 67.136719 91.820312 C 64.953125 86.417969 68.425781 80.660156 74.25 79.992188 C 79.4375 79.398438 83.511719 81.511719 86.003906 85.816406 C 87.71875 88.769531 88.554688 92.28125 86.644531 95.707031 C 84.792969 99.023438 80.433594 100.777344 76.585938 99.746094 C 75.875 99.554688 75.195312 99.273438 74.429688 98.996094 Z M 82.570312 84.21875 L 82.605469 84.238281 C 82.605469 84.238281 82.539062 84.1875 82.503906 84.046875 C 81.839844 83.679688 81.175781 83.304688 80.503906 82.949219 C 80.429688 82.910156 80.28125 83.007812 80.171875 83.042969 C 80.242188 83.113281 80.296875 83.207031 80.382812 83.242188 C 81.101562 83.5625 81.828125 83.871094 82.570312 84.21875 Z M 74.375 92.402344 C 74.035156 92.375 73.679688 91.449219 73.382812 92.292969 C 72.777344 94 74.28125 95.730469 76.0625 95.449219 C 76.644531 95.359375 77.210938 95.183594 77.777344 95.023438 C 77.933594 94.980469 78.0625 94.855469 78.203125 94.765625 C 78.066406 94.671875 77.933594 94.566406 77.792969 94.480469 C 76.699219 93.816406 75.597656 93.15625 74.375 92.402344 Z M 82.191406 88.5 C 82.402344 88.914062 82.613281 89.324219 82.824219 89.738281 C 82.988281 89.253906 83.207031 88.777344 83.300781 88.277344 C 83.363281 87.953125 83.300781 87.574219 83.195312 87.257812 C 82.800781 86.121094 81 85.292969 79.796875 85.664062 C 79.730469 85.683594 79.667969 85.707031 79.601562 85.726562 C 79.714844 85.773438 79.828125 85.816406 79.941406 85.863281 C 80.683594 86.179688 81.46875 86.433594 82.160156 86.839844 C 82.710938 87.15625 83.183594 87.660156 82.113281 88.015625 C 82.085938 88.023438 82.125 88.246094 82.191406 88.5 Z M 82.191406 88.5 " fill-opacity="1" fill-rule="nonzero"/></g></svg>