<svg xmlns="http://www.w3.org/2000/svg" xmlns:xlink="http://www.w3.org/1999/xlink" width="1024" zoomAndPan="magnify" viewBox="0 0 768 767.999994" height="1024" preserveAspectRatio="xMidYMid meet" version="1.0"><defs><filter x="0%" y="0%" width="100%" height="100%" id="208e35c991"><feColorMatrix values="0 0 0 0 1 0 0 0 0 1 0 0 0 0 1 0 0 0 1 0" color-interpolation-filters="sRGB"/></filter><g/><mask id="7b5d217098"><g filter="url(#208e35c991)"><rect x="-76.8" width="921.6" fill="#000000" y="-76.799999" height="921.599993" fill-opacity="0.9294"/></g></mask><clipPath id="d53b51c2bf"><path d="M 0 0.914062 L 767.652344 0.914062 L 767.652344 300.914062 L 0 300.914062 Z M 0 0.914062 " clip-rule="nonzero"/></clipPath><clipPath id="3327372578"><rect x="0" width="768" y="0" height="304"/></clipPath><clipPath id="43e75fe664"><path d="M 105.089844 277.480469 L 287.339844 277.480469 L 287.339844 459.730469 L 105.089844 459.730469 Z M 105.089844 277.480469 " clip-rule="nonzero"/></clipPath><clipPath id="32e03b84d7"><path d="M 292.707031 277.480469 L 474.957031 277.480469 L 474.957031 459.730469 L 292.707031 459.730469 Z M 292.707031 277.480469 " clip-rule="nonzero"/></clipPath><clipPath id="e555f807b6"><path d="M 481.019531 277.480469 L 663.269531 277.480469 L 663.269531 459.730469 L 481.019531 459.730469 Z M 481.019531 277.480469 " clip-rule="nonzero"/></clipPath><clipPath id="6f79e5938a"><path d="M 144 479.65625 L 623 479.65625 L 623 490.15625 L 144 490.15625 Z M 144 479.65625 " clip-rule="nonzero"/></clipPath><clipPath id="ed44dab4a3"><path d="M 144.75 484.816406 C 144.75 481.96875 147.140625 479.65625 150.089844 479.65625 L 617.230469 479.65625 C 620.175781 479.65625 622.570312 481.96875 622.570312 484.816406 C 622.570312 487.664062 620.175781 489.976562 617.230469 489.976562 L 150.089844 490.15625 C 147.140625 490.15625 144.75 487.664062 144.75 484.816406 Z M 144.75 484.816406 " clip-rule="nonzero"/></clipPath><linearGradient x1="832.40997" gradientTransform="matrix(-0.000000499237, 1.779661, -1.841321, -0.00000048252, 4888.174765, -996.556292)" y1="2576.0999" x2="832.40997" gradientUnits="userSpaceOnUse" y2="2316.599891" id="bb0b5ebb7b"><stop stop-opacity="1" stop-color="rgb(97.299194%, 1.599121%, 61.199951%)" offset="0"/><stop stop-opacity="1" stop-color="rgb(97.30072%, 1.660156%, 61.177063%)" offset="0.03125"/><stop stop-opacity="1" stop-color="rgb(97.309875%, 2.050781%, 61.032104%)" offset="0.0351562"/><stop stop-opacity="1" stop-color="rgb(97.317505%, 2.380371%, 60.91156%)" offset="0.0390625"/><stop stop-opacity="1" stop-color="rgb(97.325134%, 2.709961%, 60.78949%)" offset="0.0429687"/><stop stop-opacity="1" stop-color="rgb(97.332764%, 3.039551%, 60.667419%)" offset="0.046875"/><stop stop-opacity="1" stop-color="rgb(97.340393%, 3.369141%, 60.545349%)" offset="0.0507812"/><stop stop-opacity="1" stop-color="rgb(97.348022%, 3.69873%, 60.424805%)" offset="0.0546875"/><stop stop-opacity="1" stop-color="rgb(97.355652%, 4.02832%, 60.302734%)" offset="0.0585937"/><stop stop-opacity="1" stop-color="rgb(97.363281%, 4.359436%, 60.18219%)" offset="0.0625"/><stop stop-opacity="1" stop-color="rgb(97.370911%, 4.689026%, 60.06012%)" offset="0.0664062"/><stop stop-opacity="1" stop-color="rgb(97.37854%, 5.018616%, 59.938049%)" offset="0.0703125"/><stop stop-opacity="1" stop-color="rgb(97.386169%, 5.348206%, 59.815979%)" offset="0.0742188"/><stop stop-opacity="1" stop-color="rgb(97.393799%, 5.677795%, 59.695435%)" offset="0.078125"/><stop stop-opacity="1" stop-color="rgb(97.401428%, 6.007385%, 59.573364%)" offset="0.0820312"/><stop stop-opacity="1" stop-color="rgb(97.409058%, 6.336975%, 59.451294%)" offset="0.0859375"/><stop stop-opacity="1" stop-color="rgb(97.416687%, 6.666565%, 59.329224%)" offset="0.0898437"/><stop stop-opacity="1" stop-color="rgb(97.424316%, 6.997681%, 59.208679%)" offset="0.09375"/><stop stop-opacity="1" stop-color="rgb(97.431946%, 7.327271%, 59.086609%)" offset="0.0976562"/><stop stop-opacity="1" stop-color="rgb(97.439575%, 7.65686%, 58.966064%)" offset="0.101562"/><stop stop-opacity="1" stop-color="rgb(97.447205%, 7.98645%, 58.843994%)" offset="0.105469"/><stop stop-opacity="1" stop-color="rgb(97.454834%, 8.31604%, 58.721924%)" offset="0.109375"/><stop stop-opacity="1" stop-color="rgb(97.462463%, 8.64563%, 58.599854%)" offset="0.113281"/><stop stop-opacity="1" stop-color="rgb(97.470093%, 8.97522%, 58.479309%)" offset="0.117187"/><stop stop-opacity="1" stop-color="rgb(97.477722%, 9.30481%, 58.357239%)" offset="0.121094"/><stop stop-opacity="1" stop-color="rgb(97.485352%, 9.634399%, 58.236694%)" offset="0.125"/><stop stop-opacity="1" stop-color="rgb(97.492981%, 9.963989%, 58.114624%)" offset="0.128906"/><stop stop-opacity="1" stop-color="rgb(97.50061%, 10.295105%, 57.992554%)" offset="0.132812"/><stop stop-opacity="1" stop-color="rgb(97.50824%, 10.624695%, 57.870483%)" offset="0.136719"/><stop stop-opacity="1" stop-color="rgb(97.515869%, 10.954285%, 57.749939%)" offset="0.140625"/><stop stop-opacity="1" stop-color="rgb(97.523499%, 11.283875%, 57.627869%)" offset="0.144531"/><stop stop-opacity="1" stop-color="rgb(97.531128%, 11.613464%, 57.505798%)" offset="0.148437"/><stop stop-opacity="1" stop-color="rgb(97.538757%, 11.943054%, 57.383728%)" offset="0.152344"/><stop stop-opacity="1" stop-color="rgb(97.546387%, 12.272644%, 57.263184%)" offset="0.15625"/><stop stop-opacity="1" stop-color="rgb(97.554016%, 12.602234%, 57.141113%)" offset="0.160156"/><stop stop-opacity="1" stop-color="rgb(97.561646%, 12.931824%, 57.020569%)" offset="0.164062"/><stop stop-opacity="1" stop-color="rgb(97.569275%, 13.261414%, 56.898499%)" offset="0.167969"/><stop stop-opacity="1" stop-color="rgb(97.576904%, 13.592529%, 56.776428%)" offset="0.171875"/><stop stop-opacity="1" stop-color="rgb(97.584534%, 13.922119%, 56.654358%)" offset="0.175781"/><stop stop-opacity="1" stop-color="rgb(97.592163%, 14.251709%, 56.533813%)" offset="0.179687"/><stop stop-opacity="1" stop-color="rgb(97.599792%, 14.581299%, 56.411743%)" offset="0.183594"/><stop stop-opacity="1" stop-color="rgb(97.607422%, 14.910889%, 56.291199%)" offset="0.1875"/><stop stop-opacity="1" stop-color="rgb(97.615051%, 15.240479%, 56.169128%)" offset="0.191406"/><stop stop-opacity="1" stop-color="rgb(97.622681%, 15.570068%, 56.047058%)" offset="0.195312"/><stop stop-opacity="1" stop-color="rgb(97.63031%, 15.899658%, 55.924988%)" offset="0.199219"/><stop stop-opacity="1" stop-color="rgb(97.637939%, 16.229248%, 55.804443%)" offset="0.203125"/><stop stop-opacity="1" stop-color="rgb(97.645569%, 16.558838%, 55.682373%)" offset="0.207031"/><stop stop-opacity="1" stop-color="rgb(97.653198%, 16.889954%, 55.560303%)" offset="0.210938"/><stop stop-opacity="1" stop-color="rgb(97.660828%, 17.219543%, 55.438232%)" offset="0.214844"/><stop stop-opacity="1" stop-color="rgb(97.669983%, 17.549133%, 55.317688%)" offset="0.21875"/><stop stop-opacity="1" stop-color="rgb(97.677612%, 17.878723%, 55.195618%)" offset="0.222656"/><stop stop-opacity="1" stop-color="rgb(97.685242%, 18.208313%, 55.075073%)" offset="0.226562"/><stop stop-opacity="1" stop-color="rgb(97.692871%, 18.537903%, 54.953003%)" offset="0.230469"/><stop stop-opacity="1" stop-color="rgb(97.7005%, 18.867493%, 54.830933%)" offset="0.234375"/><stop stop-opacity="1" stop-color="rgb(97.70813%, 19.197083%, 54.708862%)" offset="0.238281"/><stop stop-opacity="1" stop-color="rgb(97.715759%, 19.528198%, 54.588318%)" offset="0.242187"/><stop stop-opacity="1" stop-color="rgb(97.723389%, 19.857788%, 54.466248%)" offset="0.246094"/><stop stop-opacity="1" stop-color="rgb(97.731018%, 20.187378%, 54.345703%)" offset="0.25"/><stop stop-opacity="1" stop-color="rgb(97.738647%, 20.516968%, 54.223633%)" offset="0.253906"/><stop stop-opacity="1" stop-color="rgb(97.746277%, 20.846558%, 54.101562%)" offset="0.257812"/><stop stop-opacity="1" stop-color="rgb(97.753906%, 21.176147%, 53.979492%)" offset="0.261719"/><stop stop-opacity="1" stop-color="rgb(97.761536%, 21.505737%, 53.858948%)" offset="0.265625"/><stop stop-opacity="1" stop-color="rgb(97.769165%, 21.835327%, 53.736877%)" offset="0.269531"/><stop stop-opacity="1" stop-color="rgb(97.776794%, 22.164917%, 53.616333%)" offset="0.273438"/><stop stop-opacity="1" stop-color="rgb(97.784424%, 22.494507%, 53.494263%)" offset="0.277344"/><stop stop-opacity="1" stop-color="rgb(97.792053%, 22.825623%, 53.372192%)" offset="0.28125"/><stop stop-opacity="1" stop-color="rgb(97.799683%, 23.155212%, 53.250122%)" offset="0.285156"/><stop stop-opacity="1" stop-color="rgb(97.807312%, 23.484802%, 53.129578%)" offset="0.289062"/><stop stop-opacity="1" stop-color="rgb(97.814941%, 23.814392%, 53.007507%)" offset="0.292969"/><stop stop-opacity="1" stop-color="rgb(97.822571%, 24.143982%, 52.885437%)" offset="0.296875"/><stop stop-opacity="1" stop-color="rgb(97.8302%, 24.473572%, 52.763367%)" offset="0.300781"/><stop stop-opacity="1" stop-color="rgb(97.83783%, 24.803162%, 52.642822%)" offset="0.304688"/><stop stop-opacity="1" stop-color="rgb(97.845459%, 25.132751%, 52.520752%)" offset="0.308594"/><stop stop-opacity="1" stop-color="rgb(97.853088%, 25.462341%, 52.400208%)" offset="0.3125"/><stop stop-opacity="1" stop-color="rgb(97.860718%, 25.791931%, 52.278137%)" offset="0.316406"/><stop stop-opacity="1" stop-color="rgb(97.868347%, 26.123047%, 52.156067%)" offset="0.320312"/><stop stop-opacity="1" stop-color="rgb(97.875977%, 26.452637%, 52.033997%)" offset="0.324219"/><stop stop-opacity="1" stop-color="rgb(97.883606%, 26.782227%, 51.913452%)" offset="0.328125"/><stop stop-opacity="1" stop-color="rgb(97.891235%, 27.111816%, 51.791382%)" offset="0.332031"/><stop stop-opacity="1" stop-color="rgb(97.898865%, 27.441406%, 51.670837%)" offset="0.335938"/><stop stop-opacity="1" stop-color="rgb(97.906494%, 27.770996%, 51.548767%)" offset="0.339844"/><stop stop-opacity="1" stop-color="rgb(97.914124%, 28.100586%, 51.426697%)" offset="0.34375"/><stop stop-opacity="1" stop-color="rgb(97.921753%, 28.430176%, 51.304626%)" offset="0.347656"/><stop stop-opacity="1" stop-color="rgb(97.929382%, 28.761292%, 51.184082%)" offset="0.351562"/><stop stop-opacity="1" stop-color="rgb(97.937012%, 29.090881%, 51.062012%)" offset="0.355469"/><stop stop-opacity="1" stop-color="rgb(97.944641%, 29.420471%, 50.939941%)" offset="0.359375"/><stop stop-opacity="1" stop-color="rgb(97.952271%, 29.750061%, 50.817871%)" offset="0.363281"/><stop stop-opacity="1" stop-color="rgb(97.9599%, 30.079651%, 50.697327%)" offset="0.367188"/><stop stop-opacity="1" stop-color="rgb(97.967529%, 30.409241%, 50.575256%)" offset="0.371094"/><stop stop-opacity="1" stop-color="rgb(97.975159%, 30.738831%, 50.454712%)" offset="0.375"/><stop stop-opacity="1" stop-color="rgb(97.982788%, 31.06842%, 50.332642%)" offset="0.378906"/><stop stop-opacity="1" stop-color="rgb(97.990417%, 31.39801%, 50.210571%)" offset="0.382812"/><stop stop-opacity="1" stop-color="rgb(97.998047%, 31.7276%, 50.088501%)" offset="0.386719"/><stop stop-opacity="1" stop-color="rgb(98.005676%, 32.058716%, 49.967957%)" offset="0.390625"/><stop stop-opacity="1" stop-color="rgb(98.013306%, 32.388306%, 49.845886%)" offset="0.394531"/><stop stop-opacity="1" stop-color="rgb(98.020935%, 32.717896%, 49.725342%)" offset="0.398438"/><stop stop-opacity="1" stop-color="rgb(98.028564%, 33.047485%, 49.603271%)" offset="0.402344"/><stop stop-opacity="1" stop-color="rgb(98.036194%, 33.377075%, 49.481201%)" offset="0.40625"/><stop stop-opacity="1" stop-color="rgb(98.043823%, 33.706665%, 49.359131%)" offset="0.410156"/><stop stop-opacity="1" stop-color="rgb(98.051453%, 34.036255%, 49.238586%)" offset="0.414062"/><stop stop-opacity="1" stop-color="rgb(98.059082%, 34.365845%, 49.116516%)" offset="0.417969"/><stop stop-opacity="1" stop-color="rgb(98.066711%, 34.695435%, 48.994446%)" offset="0.421875"/><stop stop-opacity="1" stop-color="rgb(98.074341%, 35.025024%, 48.872375%)" offset="0.425781"/><stop stop-opacity="1" stop-color="rgb(98.08197%, 35.35614%, 48.751831%)" offset="0.429688"/><stop stop-opacity="1" stop-color="rgb(98.0896%, 35.68573%, 48.629761%)" offset="0.433594"/><stop stop-opacity="1" stop-color="rgb(98.097229%, 36.01532%, 48.509216%)" offset="0.4375"/><stop stop-opacity="1" stop-color="rgb(98.104858%, 36.34491%, 48.387146%)" offset="0.441406"/><stop stop-opacity="1" stop-color="rgb(98.112488%, 36.6745%, 48.265076%)" offset="0.445312"/><stop stop-opacity="1" stop-color="rgb(98.120117%, 37.004089%, 48.143005%)" offset="0.449219"/><stop stop-opacity="1" stop-color="rgb(98.127747%, 37.333679%, 48.022461%)" offset="0.453125"/><stop stop-opacity="1" stop-color="rgb(98.135376%, 37.663269%, 47.900391%)" offset="0.457031"/><stop stop-opacity="1" stop-color="rgb(98.143005%, 37.992859%, 47.779846%)" offset="0.460938"/><stop stop-opacity="1" stop-color="rgb(98.150635%, 38.322449%, 47.657776%)" offset="0.464844"/><stop stop-opacity="1" stop-color="rgb(98.158264%, 38.653564%, 47.535706%)" offset="0.46875"/><stop stop-opacity="1" stop-color="rgb(98.165894%, 38.983154%, 47.413635%)" offset="0.472656"/><stop stop-opacity="1" stop-color="rgb(98.173523%, 39.312744%, 47.293091%)" offset="0.476562"/><stop stop-opacity="1" stop-color="rgb(98.181152%, 39.642334%, 47.171021%)" offset="0.480469"/><stop stop-opacity="1" stop-color="rgb(98.188782%, 39.971924%, 47.04895%)" offset="0.484375"/><stop stop-opacity="1" stop-color="rgb(98.196411%, 40.301514%, 46.92688%)" offset="0.488281"/><stop stop-opacity="1" stop-color="rgb(98.204041%, 40.631104%, 46.806335%)" offset="0.492188"/><stop stop-opacity="1" stop-color="rgb(98.21167%, 40.960693%, 46.684265%)" offset="0.496094"/><stop stop-opacity="1" stop-color="rgb(98.219299%, 41.291809%, 46.563721%)" offset="0.5"/><stop stop-opacity="1" stop-color="rgb(98.226929%, 41.621399%, 46.44165%)" offset="0.503906"/><stop stop-opacity="1" stop-color="rgb(98.236084%, 41.950989%, 46.31958%)" offset="0.507812"/><stop stop-opacity="1" stop-color="rgb(98.243713%, 42.280579%, 46.19751%)" offset="0.511719"/><stop stop-opacity="1" stop-color="rgb(98.251343%, 42.610168%, 46.076965%)" offset="0.515625"/><stop stop-opacity="1" stop-color="rgb(98.258972%, 42.939758%, 45.954895%)" offset="0.519531"/><stop stop-opacity="1" stop-color="rgb(98.266602%, 43.269348%, 45.834351%)" offset="0.523437"/><stop stop-opacity="1" stop-color="rgb(98.274231%, 43.598938%, 45.71228%)" offset="0.527344"/><stop stop-opacity="1" stop-color="rgb(98.28186%, 43.928528%, 45.59021%)" offset="0.53125"/><stop stop-opacity="1" stop-color="rgb(98.28949%, 44.258118%, 45.46814%)" offset="0.535156"/><stop stop-opacity="1" stop-color="rgb(98.297119%, 44.589233%, 45.347595%)" offset="0.539062"/><stop stop-opacity="1" stop-color="rgb(98.304749%, 44.918823%, 45.225525%)" offset="0.542969"/><stop stop-opacity="1" stop-color="rgb(98.312378%, 45.248413%, 45.103455%)" offset="0.546875"/><stop stop-opacity="1" stop-color="rgb(98.320007%, 45.578003%, 44.981384%)" offset="0.550781"/><stop stop-opacity="1" stop-color="rgb(98.327637%, 45.907593%, 44.86084%)" offset="0.554687"/><stop stop-opacity="1" stop-color="rgb(98.335266%, 46.237183%, 44.73877%)" offset="0.558594"/><stop stop-opacity="1" stop-color="rgb(98.342896%, 46.566772%, 44.618225%)" offset="0.5625"/><stop stop-opacity="1" stop-color="rgb(98.350525%, 46.896362%, 44.496155%)" offset="0.566406"/><stop stop-opacity="1" stop-color="rgb(98.358154%, 47.225952%, 44.374084%)" offset="0.570312"/><stop stop-opacity="1" stop-color="rgb(98.365784%, 47.555542%, 44.252014%)" offset="0.574219"/><stop stop-opacity="1" stop-color="rgb(98.373413%, 47.886658%, 44.13147%)" offset="0.578125"/><stop stop-opacity="1" stop-color="rgb(98.381042%, 48.216248%, 44.009399%)" offset="0.582031"/><stop stop-opacity="1" stop-color="rgb(98.388672%, 48.545837%, 43.888855%)" offset="0.585937"/><stop stop-opacity="1" stop-color="rgb(98.396301%, 48.875427%, 43.766785%)" offset="0.589844"/><stop stop-opacity="1" stop-color="rgb(98.403931%, 49.205017%, 43.644714%)" offset="0.59375"/><stop stop-opacity="1" stop-color="rgb(98.41156%, 49.534607%, 43.522644%)" offset="0.597656"/><stop stop-opacity="1" stop-color="rgb(98.419189%, 49.864197%, 43.4021%)" offset="0.601562"/><stop stop-opacity="1" stop-color="rgb(98.426819%, 50.193787%, 43.280029%)" offset="0.605469"/><stop stop-opacity="1" stop-color="rgb(98.434448%, 50.524902%, 43.157959%)" offset="0.609375"/><stop stop-opacity="1" stop-color="rgb(98.442078%, 50.854492%, 43.035889%)" offset="0.613281"/><stop stop-opacity="1" stop-color="rgb(98.449707%, 51.184082%, 42.915344%)" offset="0.617187"/><stop stop-opacity="1" stop-color="rgb(98.457336%, 51.513672%, 42.793274%)" offset="0.621094"/><stop stop-opacity="1" stop-color="rgb(98.464966%, 51.843262%, 42.672729%)" offset="0.625"/><stop stop-opacity="1" stop-color="rgb(98.472595%, 52.172852%, 42.550659%)" offset="0.628906"/><stop stop-opacity="1" stop-color="rgb(98.480225%, 52.502441%, 42.428589%)" offset="0.632812"/><stop stop-opacity="1" stop-color="rgb(98.487854%, 52.832031%, 42.306519%)" offset="0.636719"/><stop stop-opacity="1" stop-color="rgb(98.495483%, 53.161621%, 42.185974%)" offset="0.640625"/><stop stop-opacity="1" stop-color="rgb(98.503113%, 53.491211%, 42.063904%)" offset="0.644531"/><stop stop-opacity="1" stop-color="rgb(98.510742%, 53.822327%, 41.943359%)" offset="0.648437"/><stop stop-opacity="1" stop-color="rgb(98.518372%, 54.151917%, 41.821289%)" offset="0.652344"/><stop stop-opacity="1" stop-color="rgb(98.526001%, 54.481506%, 41.699219%)" offset="0.65625"/><stop stop-opacity="1" stop-color="rgb(98.53363%, 54.811096%, 41.577148%)" offset="0.660156"/><stop stop-opacity="1" stop-color="rgb(98.54126%, 55.140686%, 41.456604%)" offset="0.664062"/><stop stop-opacity="1" stop-color="rgb(98.548889%, 55.470276%, 41.334534%)" offset="0.667969"/><stop stop-opacity="1" stop-color="rgb(98.556519%, 55.799866%, 41.212463%)" offset="0.671875"/><stop stop-opacity="1" stop-color="rgb(98.564148%, 56.129456%, 41.090393%)" offset="0.675781"/><stop stop-opacity="1" stop-color="rgb(98.571777%, 56.459045%, 40.969849%)" offset="0.679687"/><stop stop-opacity="1" stop-color="rgb(98.579407%, 56.788635%, 40.847778%)" offset="0.683594"/><stop stop-opacity="1" stop-color="rgb(98.587036%, 57.119751%, 40.727234%)" offset="0.6875"/><stop stop-opacity="1" stop-color="rgb(98.594666%, 57.449341%, 40.605164%)" offset="0.691406"/><stop stop-opacity="1" stop-color="rgb(98.602295%, 57.778931%, 40.483093%)" offset="0.695312"/><stop stop-opacity="1" stop-color="rgb(98.609924%, 58.108521%, 40.361023%)" offset="0.699219"/><stop stop-opacity="1" stop-color="rgb(98.617554%, 58.43811%, 40.240479%)" offset="0.703125"/><stop stop-opacity="1" stop-color="rgb(98.625183%, 58.7677%, 40.118408%)" offset="0.707031"/><stop stop-opacity="1" stop-color="rgb(98.632812%, 59.09729%, 39.997864%)" offset="0.710937"/><stop stop-opacity="1" stop-color="rgb(98.640442%, 59.42688%, 39.875793%)" offset="0.714844"/><stop stop-opacity="1" stop-color="rgb(98.648071%, 59.75647%, 39.753723%)" offset="0.71875"/><stop stop-opacity="1" stop-color="rgb(98.655701%, 60.08606%, 39.631653%)" offset="0.722656"/><stop stop-opacity="1" stop-color="rgb(98.66333%, 60.417175%, 39.511108%)" offset="0.726562"/><stop stop-opacity="1" stop-color="rgb(98.670959%, 60.746765%, 39.389038%)" offset="0.730469"/><stop stop-opacity="1" stop-color="rgb(98.678589%, 61.076355%, 39.266968%)" offset="0.734375"/><stop stop-opacity="1" stop-color="rgb(98.686218%, 61.405945%, 39.144897%)" offset="0.738281"/><stop stop-opacity="1" stop-color="rgb(98.693848%, 61.735535%, 39.024353%)" offset="0.742187"/><stop stop-opacity="1" stop-color="rgb(98.701477%, 62.065125%, 38.902283%)" offset="0.746094"/><stop stop-opacity="1" stop-color="rgb(98.709106%, 62.394714%, 38.781738%)" offset="0.75"/><stop stop-opacity="1" stop-color="rgb(98.716736%, 62.724304%, 38.659668%)" offset="0.753906"/><stop stop-opacity="1" stop-color="rgb(98.724365%, 63.05542%, 38.537598%)" offset="0.757812"/><stop stop-opacity="1" stop-color="rgb(98.731995%, 63.38501%, 38.415527%)" offset="0.761719"/><stop stop-opacity="1" stop-color="rgb(98.739624%, 63.7146%, 38.294983%)" offset="0.765625"/><stop stop-opacity="1" stop-color="rgb(98.747253%, 64.044189%, 38.172913%)" offset="0.769531"/><stop stop-opacity="1" stop-color="rgb(98.754883%, 64.373779%, 38.052368%)" offset="0.773437"/><stop stop-opacity="1" stop-color="rgb(98.762512%, 64.703369%, 37.930298%)" offset="0.777344"/><stop stop-opacity="1" stop-color="rgb(98.770142%, 65.032959%, 37.808228%)" offset="0.78125"/><stop stop-opacity="1" stop-color="rgb(98.777771%, 65.362549%, 37.686157%)" offset="0.785156"/><stop stop-opacity="1" stop-color="rgb(98.7854%, 65.692139%, 37.565613%)" offset="0.789062"/><stop stop-opacity="1" stop-color="rgb(98.79303%, 66.021729%, 37.443542%)" offset="0.792969"/><stop stop-opacity="1" stop-color="rgb(98.802185%, 66.352844%, 37.321472%)" offset="0.796875"/><stop stop-opacity="1" stop-color="rgb(98.809814%, 66.682434%, 37.199402%)" offset="0.800781"/><stop stop-opacity="1" stop-color="rgb(98.817444%, 67.012024%, 37.078857%)" offset="0.804688"/><stop stop-opacity="1" stop-color="rgb(98.825073%, 67.341614%, 36.956787%)" offset="0.808594"/><stop stop-opacity="1" stop-color="rgb(98.832703%, 67.671204%, 36.836243%)" offset="0.8125"/><stop stop-opacity="1" stop-color="rgb(98.840332%, 68.000793%, 36.714172%)" offset="0.816406"/><stop stop-opacity="1" stop-color="rgb(98.847961%, 68.330383%, 36.592102%)" offset="0.820312"/><stop stop-opacity="1" stop-color="rgb(98.855591%, 68.659973%, 36.470032%)" offset="0.824219"/><stop stop-opacity="1" stop-color="rgb(98.86322%, 68.989563%, 36.349487%)" offset="0.828125"/><stop stop-opacity="1" stop-color="rgb(98.87085%, 69.319153%, 36.227417%)" offset="0.832031"/><stop stop-opacity="1" stop-color="rgb(98.878479%, 69.650269%, 36.106873%)" offset="0.835937"/><stop stop-opacity="1" stop-color="rgb(98.886108%, 69.979858%, 35.984802%)" offset="0.839844"/><stop stop-opacity="1" stop-color="rgb(98.893738%, 70.309448%, 35.862732%)" offset="0.84375"/><stop stop-opacity="1" stop-color="rgb(98.901367%, 70.639038%, 35.740662%)" offset="0.847656"/><stop stop-opacity="1" stop-color="rgb(98.908997%, 70.968628%, 35.620117%)" offset="0.851562"/><stop stop-opacity="1" stop-color="rgb(98.916626%, 71.298218%, 35.498047%)" offset="0.855469"/><stop stop-opacity="1" stop-color="rgb(98.924255%, 71.627808%, 35.375977%)" offset="0.859375"/><stop stop-opacity="1" stop-color="rgb(98.931885%, 71.957397%, 35.253906%)" offset="0.863281"/><stop stop-opacity="1" stop-color="rgb(98.939514%, 72.288513%, 35.133362%)" offset="0.867188"/><stop stop-opacity="1" stop-color="rgb(98.947144%, 72.618103%, 35.011292%)" offset="0.871094"/><stop stop-opacity="1" stop-color="rgb(98.954773%, 72.947693%, 34.890747%)" offset="0.875"/><stop stop-opacity="1" stop-color="rgb(98.962402%, 73.277283%, 34.768677%)" offset="0.878906"/><stop stop-opacity="1" stop-color="rgb(98.970032%, 73.606873%, 34.646606%)" offset="0.882812"/><stop stop-opacity="1" stop-color="rgb(98.977661%, 73.936462%, 34.524536%)" offset="0.886719"/><stop stop-opacity="1" stop-color="rgb(98.985291%, 74.266052%, 34.403992%)" offset="0.890625"/><stop stop-opacity="1" stop-color="rgb(98.99292%, 74.595642%, 34.281921%)" offset="0.894531"/><stop stop-opacity="1" stop-color="rgb(99.000549%, 74.925232%, 34.161377%)" offset="0.898437"/><stop stop-opacity="1" stop-color="rgb(99.008179%, 75.254822%, 34.039307%)" offset="0.902344"/><stop stop-opacity="1" stop-color="rgb(99.015808%, 75.585938%, 33.917236%)" offset="0.90625"/><stop stop-opacity="1" stop-color="rgb(99.023438%, 75.915527%, 33.795166%)" offset="0.910156"/><stop stop-opacity="1" stop-color="rgb(99.031067%, 76.245117%, 33.674622%)" offset="0.914062"/><stop stop-opacity="1" stop-color="rgb(99.038696%, 76.574707%, 33.552551%)" offset="0.917969"/><stop stop-opacity="1" stop-color="rgb(99.046326%, 76.904297%, 33.430481%)" offset="0.921875"/><stop stop-opacity="1" stop-color="rgb(99.053955%, 77.233887%, 33.308411%)" offset="0.925781"/><stop stop-opacity="1" stop-color="rgb(99.061584%, 77.563477%, 33.187866%)" offset="0.929688"/><stop stop-opacity="1" stop-color="rgb(99.069214%, 77.893066%, 33.065796%)" offset="0.933594"/><stop stop-opacity="1" stop-color="rgb(99.076843%, 78.222656%, 32.945251%)" offset="0.9375"/><stop stop-opacity="1" stop-color="rgb(99.084473%, 78.552246%, 32.823181%)" offset="0.941406"/><stop stop-opacity="1" stop-color="rgb(99.092102%, 78.883362%, 32.701111%)" offset="0.945312"/><stop stop-opacity="1" stop-color="rgb(99.099731%, 79.212952%, 32.579041%)" offset="0.949219"/><stop stop-opacity="1" stop-color="rgb(99.107361%, 79.542542%, 32.458496%)" offset="0.953125"/><stop stop-opacity="1" stop-color="rgb(99.11499%, 79.872131%, 32.336426%)" offset="0.957031"/><stop stop-opacity="1" stop-color="rgb(99.12262%, 80.201721%, 32.215881%)" offset="0.960937"/><stop stop-opacity="1" stop-color="rgb(99.130249%, 80.531311%, 32.093811%)" offset="0.964844"/><stop stop-opacity="1" stop-color="rgb(99.137878%, 80.860901%, 31.971741%)" offset="0.96875"/><stop stop-opacity="1" stop-color="rgb(99.145508%, 81.190491%, 31.84967%)" offset="0.972656"/><stop stop-opacity="1" stop-color="rgb(99.153137%, 81.520081%, 31.729126%)" offset="0.976562"/><stop stop-opacity="1" stop-color="rgb(99.160767%, 81.84967%, 31.607056%)" offset="0.980469"/><stop stop-opacity="1" stop-color="rgb(99.168396%, 82.180786%, 31.484985%)" offset="0.984375"/><stop stop-opacity="1" stop-color="rgb(99.176025%, 82.510376%, 31.362915%)" offset="0.988281"/><stop stop-opacity="1" stop-color="rgb(99.183655%, 82.839966%, 31.242371%)" offset="0.992187"/><stop stop-opacity="1" stop-color="rgb(99.191284%, 83.169556%, 31.1203%)" offset="0.996094"/><stop stop-opacity="1" stop-color="rgb(99.198914%, 83.499146%, 30.999756%)" offset="1"/></linearGradient><clipPath id="bff5a758bb"><path d="M 330.695312 509.695312 L 357.695312 509.695312 L 357.695312 536.695312 L 330.695312 536.695312 Z M 330.695312 509.695312 " clip-rule="nonzero"/></clipPath></defs><g mask="url(#7b5d217098)"><g transform="matrix(1, 0, 0, 1, 0, 255)"><g clip-path="url(#3327372578)"><g clip-path="url(#d53b51c2bf)"><path fill="#ffffff" d="M -0.347656 0.914062 L 767.652344 0.914062 L 767.652344 300.914062 L -0.347656 300.914062 L -0.347656 0.914062 " fill-opacity="1" fill-rule="nonzero"/></g></g></g></g><g clip-path="url(#43e75fe664)"><path fill="#000000" d="M 196.214844 277.480469 C 145.996094 277.480469 105.089844 318.386719 105.089844 368.605469 C 105.089844 418.824219 145.996094 459.730469 196.214844 459.730469 C 246.433594 459.730469 287.339844 418.824219 287.339844 368.605469 C 287.339844 318.386719 246.433594 277.480469 196.214844 277.480469 Z M 196.214844 295.707031 C 236.585938 295.707031 269.113281 328.234375 269.113281 368.605469 C 269.113281 408.972656 236.585938 441.503906 196.214844 441.503906 C 155.84375 441.503906 123.316406 408.972656 123.316406 368.605469 C 123.316406 328.234375 155.84375 295.707031 196.214844 295.707031 Z M 157.859375 332.15625 L 157.859375 405.054688 L 172.882812 405.054688 L 172.882812 385.121094 L 171.367188 350.789062 L 191 405.054688 L 201.324219 405.054688 L 221.007812 350.71875 L 219.496094 385.121094 L 219.496094 405.054688 L 234.570312 405.054688 L 234.570312 332.15625 L 214.847656 332.15625 L 196.214844 385.03125 L 177.492188 332.15625 Z M 157.859375 332.15625 " fill-opacity="1" fill-rule="nonzero"/></g><g clip-path="url(#32e03b84d7)"><path fill="#000000" d="M 383.832031 277.480469 C 333.613281 277.480469 292.707031 318.386719 292.707031 368.605469 C 292.707031 418.824219 333.613281 459.730469 383.832031 459.730469 C 434.050781 459.730469 474.957031 418.824219 474.957031 368.605469 C 474.957031 318.386719 434.050781 277.480469 383.832031 277.480469 Z M 383.832031 295.707031 C 424.203125 295.707031 456.734375 328.234375 456.734375 368.605469 C 456.734375 408.972656 424.203125 441.503906 383.832031 441.503906 C 343.464844 441.503906 310.933594 408.972656 310.933594 368.605469 C 310.933594 328.234375 343.464844 295.707031 383.832031 295.707031 Z M 393.140625 332.15625 L 393.140625 381.953125 C 393.140625 385.542969 392.308594 388.304688 390.632812 390.246094 C 388.945312 392.1875 386.703125 393.167969 383.867188 393.167969 C 382.457031 393.167969 381.164062 392.996094 380.023438 392.648438 C 378.886719 392.304688 377.933594 391.71875 377.121094 390.90625 C 376.320312 390.09375 375.699219 389.042969 375.273438 387.71875 C 374.84375 386.398438 374.632812 384.765625 374.632812 382.824219 L 359.714844 382.824219 C 359.714844 386.644531 360.3125 389.960938 361.515625 392.738281 C 362.71875 395.527344 364.390625 397.8125 366.53125 399.644531 C 368.664062 401.46875 371.207031 402.828125 374.152344 403.71875 C 377.09375 404.605469 380.339844 405.054688 383.867188 405.054688 C 387.285156 405.054688 390.464844 404.519531 393.40625 403.453125 C 396.351562 402.40625 398.902344 400.894531 401.0625 398.898438 C 403.21875 396.910156 404.914062 394.480469 406.132812 391.617188 C 407.355469 388.757812 407.964844 385.527344 407.964844 381.9375 L 407.964844 332.15625 Z M 393.140625 332.15625 " fill-opacity="1" fill-rule="nonzero"/></g><g clip-path="url(#e555f807b6)"><path fill="#ff1616" d="M 572.144531 277.480469 C 521.820312 277.480469 481.019531 318.28125 481.019531 368.605469 C 481.019531 418.929688 521.820312 459.730469 572.144531 459.730469 C 622.46875 459.730469 663.269531 418.929688 663.269531 368.605469 C 663.269531 318.28125 622.46875 277.480469 572.144531 277.480469 Z M 571.757812 407.460938 C 555.460938 407.460938 544.351562 397.652344 543.878906 384.253906 L 558.363281 384.253906 C 559.242188 390.484375 564.75 394.636719 571.855469 394.636719 C 579.90625 394.636719 585.457031 389.238281 585.457031 381.089844 C 585.457031 372.835938 579.851562 367.328125 571.910156 367.328125 C 566.09375 367.328125 561.679688 369.875 559.089844 374.082031 L 545.074219 374.082031 L 548.808594 330.636719 L 595.890625 330.636719 L 595.890625 343.667969 L 560.953125 343.667969 L 559.289062 362.925781 L 560.222656 362.925781 C 563.390625 358.355469 568.683594 355.605469 576.109375 355.605469 C 590.332031 355.605469 600.402344 366.039062 600.402344 380.730469 C 600.410156 396.609375 588.933594 407.460938 571.757812 407.460938 Z M 571.757812 407.460938 " fill-opacity="1" fill-rule="nonzero"/></g><g clip-path="url(#6f79e5938a)"><g clip-path="url(#ed44dab4a3)"><path fill="url(#bb0b5ebb7b)" d="M 622.570312 479.65625 L 144.75 479.65625 L 144.75 490.15625 L 622.570312 490.15625 Z M 622.570312 479.65625 " fill-rule="nonzero"/></g></g><g fill="#000000" fill-opacity="1"><g transform="translate(259.035772, 534.149662)"><g><path d="M 25.6875 -23.390625 L 25.6875 0 L 23.3125 0 L 23.3125 -18 L 14.8125 0 L 13.421875 0 L 4.921875 -17.921875 L 4.921875 0 L 2.546875 0 L 2.546875 -23.390625 L 4.75 -23.390625 L 14.125 -3.421875 L 23.484375 -23.390625 Z M 25.6875 -23.390625 "/></g></g></g><g fill="#000000" fill-opacity="1"><g transform="translate(287.272635, 534.149662)"><g><path d="M 20 -4.515625 C 21.800781 -6.335938 22.703125 -8.726562 22.703125 -11.6875 C 22.703125 -14.644531 21.8125 -17.023438 20.03125 -18.828125 C 18.25 -20.640625 15.988281 -21.546875 13.25 -21.546875 C 10.519531 -21.546875 8.253906 -20.640625 6.453125 -18.828125 C 4.660156 -17.023438 3.765625 -14.644531 3.765625 -11.6875 C 3.765625 -8.726562 4.660156 -6.335938 6.453125 -4.515625 C 8.253906 -2.703125 10.515625 -1.796875 13.234375 -1.796875 C 15.953125 -1.796875 18.207031 -2.703125 20 -4.515625 Z M 4.796875 -3.125 C 2.503906 -5.375 1.359375 -8.226562 1.359375 -11.6875 C 1.359375 -15.144531 2.503906 -18 4.796875 -20.25 C 7.085938 -22.5 9.910156 -23.625 13.265625 -23.625 C 16.617188 -23.625 19.4375 -22.5 21.71875 -20.25 C 24 -18 25.140625 -15.144531 25.140625 -11.6875 C 25.140625 -8.226562 24 -5.375 21.71875 -3.125 C 19.4375 -0.882812 16.617188 0.234375 13.265625 0.234375 C 9.910156 0.234375 7.085938 -0.882812 4.796875 -3.125 Z M 4.796875 -3.125 "/></g></g></g><g fill="#000000" fill-opacity="1"><g transform="translate(313.746815, 534.149662)"><g><path d="M 11.921875 -5.765625 L 11.921875 -23.390625 L 14.296875 -23.390625 L 14.296875 -5.765625 C 14.296875 -3.953125 13.738281 -2.5 12.625 -1.40625 C 11.507812 -0.3125 10.003906 0.234375 8.109375 0.234375 C 6.222656 0.234375 4.710938 -0.3125 3.578125 -1.40625 C 2.453125 -2.5 1.890625 -3.953125 1.890625 -5.765625 L 4.34375 -5.765625 C 4.363281 -4.628906 4.671875 -3.679688 5.265625 -2.921875 C 5.867188 -2.171875 6.820312 -1.796875 8.125 -1.796875 C 9.4375 -1.796875 10.394531 -2.171875 11 -2.921875 C 11.613281 -3.679688 11.921875 -4.628906 11.921875 -5.765625 Z M 11.921875 -5.765625 "/></g></g></g><g fill="#000000" fill-opacity="1"><g transform="translate(332.085517, 534.149662)"><g><path d="M 20 -4.515625 C 21.800781 -6.335938 22.703125 -8.726562 22.703125 -11.6875 C 22.703125 -14.644531 21.8125 -17.023438 20.03125 -18.828125 C 18.25 -20.640625 15.988281 -21.546875 13.25 -21.546875 C 10.519531 -21.546875 8.253906 -20.640625 6.453125 -18.828125 C 4.660156 -17.023438 3.765625 -14.644531 3.765625 -11.6875 C 3.765625 -8.726562 4.660156 -6.335938 6.453125 -4.515625 C 8.253906 -2.703125 10.515625 -1.796875 13.234375 -1.796875 C 15.953125 -1.796875 18.207031 -2.703125 20 -4.515625 Z M 4.796875 -3.125 C 2.503906 -5.375 1.359375 -8.226562 1.359375 -11.6875 C 1.359375 -15.144531 2.503906 -18 4.796875 -20.25 C 7.085938 -22.5 9.910156 -23.625 13.265625 -23.625 C 16.617188 -23.625 19.4375 -22.5 21.71875 -20.25 C 24 -18 25.140625 -15.144531 25.140625 -11.6875 C 25.140625 -8.226562 24 -5.375 21.71875 -3.125 C 19.4375 -0.882812 16.617188 0.234375 13.265625 0.234375 C 9.910156 0.234375 7.085938 -0.882812 4.796875 -3.125 Z M 4.796875 -3.125 "/></g></g></g><g fill="#000000" fill-opacity="1"><g transform="translate(358.559697, 534.149662)"><g/></g></g><g fill="#000000" fill-opacity="1"><g transform="translate(368.729031, 534.149662)"><g><path d="M 4.921875 -1.828125 L 9.734375 -1.828125 C 12.867188 -1.828125 15.253906 -2.679688 16.890625 -4.390625 C 18.535156 -6.097656 19.359375 -8.488281 19.359375 -11.5625 C 19.359375 -14.632812 18.535156 -17.019531 16.890625 -18.71875 C 15.253906 -20.425781 12.867188 -21.28125 9.734375 -21.28125 L 4.921875 -21.28125 Z M 9.734375 -23.390625 C 13.503906 -23.390625 16.457031 -22.34375 18.59375 -20.25 C 20.726562 -18.15625 21.796875 -15.253906 21.796875 -11.546875 C 21.796875 -7.847656 20.734375 -5 18.609375 -3 C 16.484375 -1 13.523438 0 9.734375 0 L 2.546875 0 L 2.546875 -23.390625 Z M 9.734375 -23.390625 "/></g></g></g><g fill="#000000" fill-opacity="1"><g transform="translate(391.949018, 534.149662)"><g><path d="M 10.265625 0.34375 C 7.617188 0.34375 5.472656 -0.535156 3.828125 -2.296875 C 2.179688 -4.066406 1.359375 -6.390625 1.359375 -9.265625 C 1.359375 -12.148438 2.195312 -14.46875 3.875 -16.21875 C 5.5625 -17.96875 7.742188 -18.84375 10.421875 -18.84375 C 13.097656 -18.84375 15.226562 -18.015625 16.8125 -16.359375 C 18.394531 -14.710938 19.1875 -12.671875 19.1875 -10.234375 C 19.1875 -9.578125 19.140625 -8.96875 19.046875 -8.40625 L 3.796875 -8.40625 C 3.890625 -6.28125 4.535156 -4.609375 5.734375 -3.390625 C 6.929688 -2.171875 8.441406 -1.5625 10.265625 -1.5625 C 11.691406 -1.5625 12.90625 -1.890625 13.90625 -2.546875 C 14.914062 -3.203125 15.613281 -4.0625 16 -5.125 L 18.53125 -5.125 C 17.925781 -3.539062 16.929688 -2.234375 15.546875 -1.203125 C 14.171875 -0.171875 12.410156 0.34375 10.265625 0.34375 Z M 16.734375 -10.265625 C 16.734375 -12.296875 16.117188 -13.914062 14.890625 -15.125 C 13.660156 -16.34375 12.132812 -16.953125 10.3125 -16.953125 C 8.5 -16.953125 6.988281 -16.359375 5.78125 -15.171875 C 4.570312 -13.984375 3.910156 -12.347656 3.796875 -10.265625 Z M 16.734375 -10.265625 "/></g></g></g><g fill="#000000" fill-opacity="1"><g transform="translate(412.457178, 534.149662)"><g><path d="M 2.03125 -13.390625 C 2.03125 -14.921875 2.660156 -16.210938 3.921875 -17.265625 C 5.191406 -18.316406 6.804688 -18.84375 8.765625 -18.84375 C 10.734375 -18.84375 12.265625 -18.328125 13.359375 -17.296875 C 14.460938 -16.273438 15.070312 -14.859375 15.1875 -13.046875 L 12.75 -13.046875 C 12.695312 -14.179688 12.304688 -15.113281 11.578125 -15.84375 C 10.859375 -16.582031 9.851562 -16.953125 8.5625 -16.953125 C 7.28125 -16.953125 6.269531 -16.632812 5.53125 -16 C 4.800781 -15.363281 4.4375 -14.597656 4.4375 -13.703125 C 4.4375 -12.816406 4.707031 -12.113281 5.25 -11.59375 C 5.789062 -11.070312 6.472656 -10.71875 7.296875 -10.53125 C 8.128906 -10.351562 9.023438 -10.140625 9.984375 -9.890625 C 10.941406 -9.640625 11.832031 -9.375 12.65625 -9.09375 C 13.476562 -8.8125 14.160156 -8.300781 14.703125 -7.5625 C 15.242188 -6.832031 15.515625 -5.894531 15.515625 -4.75 C 15.515625 -3.257812 14.894531 -2.035156 13.65625 -1.078125 C 12.414062 -0.128906 10.785156 0.34375 8.765625 0.34375 C 6.742188 0.34375 5.144531 -0.175781 3.96875 -1.21875 C 2.789062 -2.257812 2.144531 -3.671875 2.03125 -5.453125 L 4.46875 -5.453125 C 4.519531 -4.304688 4.925781 -3.367188 5.6875 -2.640625 C 6.457031 -1.921875 7.515625 -1.5625 8.859375 -1.5625 C 10.203125 -1.5625 11.242188 -1.847656 11.984375 -2.421875 C 12.734375 -2.992188 13.109375 -3.734375 13.109375 -4.640625 C 13.109375 -5.546875 12.835938 -6.257812 12.296875 -6.78125 C 11.753906 -7.300781 11.070312 -7.65625 10.25 -7.84375 C 9.425781 -8.039062 8.535156 -8.257812 7.578125 -8.5 C 6.617188 -8.75 5.722656 -9.007812 4.890625 -9.28125 C 4.066406 -9.550781 3.382812 -10.035156 2.84375 -10.734375 C 2.300781 -11.441406 2.03125 -12.328125 2.03125 -13.390625 Z M 2.03125 -13.390625 "/></g></g></g><g fill="#000000" fill-opacity="1"><g transform="translate(430.016229, 534.149662)"><g><path d="M 5.484375 -23.734375 C 5.484375 -23.253906 5.316406 -22.84375 4.984375 -22.5 C 4.660156 -22.164062 4.253906 -22 3.765625 -22 C 3.285156 -22 2.875 -22.164062 2.53125 -22.5 C 2.195312 -22.84375 2.03125 -23.253906 2.03125 -23.734375 C 2.03125 -24.222656 2.195312 -24.632812 2.53125 -24.96875 C 2.875 -25.3125 3.285156 -25.484375 3.765625 -25.484375 C 4.253906 -25.484375 4.660156 -25.3125 4.984375 -24.96875 C 5.316406 -24.632812 5.484375 -24.222656 5.484375 -23.734375 Z M 2.546875 0 L 2.546875 -18.5 L 4.921875 -18.5 L 4.921875 0 Z M 2.546875 0 "/></g></g></g><g fill="#000000" fill-opacity="1"><g transform="translate(437.473748, 534.149662)"><g><path d="M 10.296875 0.34375 C 7.722656 0.34375 5.585938 -0.570312 3.890625 -2.40625 C 2.203125 -4.238281 1.359375 -6.570312 1.359375 -9.40625 C 1.359375 -12.238281 2.195312 -14.519531 3.875 -16.25 C 5.5625 -17.976562 7.703125 -18.84375 10.296875 -18.84375 C 11.972656 -18.84375 13.441406 -18.4375 14.703125 -17.625 C 15.972656 -16.8125 16.910156 -15.757812 17.515625 -14.46875 L 17.515625 -18.5 L 19.890625 -18.5 L 19.890625 0.640625 C 19.890625 3.148438 19.054688 5.179688 17.390625 6.734375 C 15.734375 8.296875 13.707031 9.078125 11.3125 9.078125 C 8.925781 9.078125 6.90625 8.488281 5.25 7.3125 C 3.601562 6.144531 2.65625 4.691406 2.40625 2.953125 L 4.75 2.953125 C 5.039062 4.097656 5.785156 5.066406 6.984375 5.859375 C 8.179688 6.648438 9.648438 7.046875 11.390625 7.046875 C 13.128906 7.046875 14.582031 6.472656 15.75 5.328125 C 16.925781 4.191406 17.515625 2.628906 17.515625 0.640625 L 17.515625 -4.0625 C 16.910156 -2.78125 15.972656 -1.722656 14.703125 -0.890625 C 13.441406 -0.0664062 11.972656 0.34375 10.296875 0.34375 Z M 15.5 -3.765625 C 16.84375 -5.160156 17.515625 -6.988281 17.515625 -9.25 C 17.515625 -11.507812 16.84375 -13.332031 15.5 -14.71875 C 14.15625 -16.113281 12.535156 -16.8125 10.640625 -16.8125 C 8.742188 -16.8125 7.128906 -16.144531 5.796875 -14.8125 C 4.460938 -13.476562 3.796875 -11.675781 3.796875 -9.40625 C 3.796875 -7.132812 4.46875 -5.28125 5.8125 -3.84375 C 7.15625 -2.40625 8.769531 -1.6875 10.65625 -1.6875 C 12.539062 -1.6875 14.15625 -2.378906 15.5 -3.765625 Z M 15.5 -3.765625 "/></g></g></g><g fill="#000000" fill-opacity="1"><g transform="translate(459.914085, 534.149662)"><g><path d="M 4.921875 -18.5 L 4.921875 -15.484375 C 6.160156 -17.722656 8.203125 -18.84375 11.046875 -18.84375 C 13.097656 -18.84375 14.8125 -18.171875 16.1875 -16.828125 C 17.570312 -15.484375 18.265625 -13.546875 18.265625 -11.015625 L 18.265625 0 L 15.921875 0 L 15.921875 -10.578125 C 15.921875 -12.609375 15.429688 -14.15625 14.453125 -15.21875 C 13.472656 -16.28125 12.128906 -16.8125 10.421875 -16.8125 C 8.710938 -16.8125 7.367188 -16.28125 6.390625 -15.21875 C 5.410156 -14.15625 4.921875 -12.609375 4.921875 -10.578125 L 4.921875 0 L 2.546875 0 L 2.546875 -18.5 Z M 4.921875 -18.5 "/></g></g></g><g fill="#000000" fill-opacity="1"><g transform="translate(480.557837, 534.149662)"><g><path d="M 2.03125 -13.390625 C 2.03125 -14.921875 2.660156 -16.210938 3.921875 -17.265625 C 5.191406 -18.316406 6.804688 -18.84375 8.765625 -18.84375 C 10.734375 -18.84375 12.265625 -18.328125 13.359375 -17.296875 C 14.460938 -16.273438 15.070312 -14.859375 15.1875 -13.046875 L 12.75 -13.046875 C 12.695312 -14.179688 12.304688 -15.113281 11.578125 -15.84375 C 10.859375 -16.582031 9.851562 -16.953125 8.5625 -16.953125 C 7.28125 -16.953125 6.269531 -16.632812 5.53125 -16 C 4.800781 -15.363281 4.4375 -14.597656 4.4375 -13.703125 C 4.4375 -12.816406 4.707031 -12.113281 5.25 -11.59375 C 5.789062 -11.070312 6.472656 -10.71875 7.296875 -10.53125 C 8.128906 -10.351562 9.023438 -10.140625 9.984375 -9.890625 C 10.941406 -9.640625 11.832031 -9.375 12.65625 -9.09375 C 13.476562 -8.8125 14.160156 -8.300781 14.703125 -7.5625 C 15.242188 -6.832031 15.515625 -5.894531 15.515625 -4.75 C 15.515625 -3.257812 14.894531 -2.035156 13.65625 -1.078125 C 12.414062 -0.128906 10.785156 0.34375 8.765625 0.34375 C 6.742188 0.34375 5.144531 -0.175781 3.96875 -1.21875 C 2.789062 -2.257812 2.144531 -3.671875 2.03125 -5.453125 L 4.46875 -5.453125 C 4.519531 -4.304688 4.925781 -3.367188 5.6875 -2.640625 C 6.457031 -1.921875 7.515625 -1.5625 8.859375 -1.5625 C 10.203125 -1.5625 11.242188 -1.847656 11.984375 -2.421875 C 12.734375 -2.992188 13.109375 -3.734375 13.109375 -4.640625 C 13.109375 -5.546875 12.835938 -6.257812 12.296875 -6.78125 C 11.753906 -7.300781 11.070312 -7.65625 10.25 -7.84375 C 9.425781 -8.039062 8.535156 -8.257812 7.578125 -8.5 C 6.617188 -8.75 5.722656 -9.007812 4.890625 -9.28125 C 4.066406 -9.550781 3.382812 -10.035156 2.84375 -10.734375 C 2.300781 -11.441406 2.03125 -12.328125 2.03125 -13.390625 Z M 2.03125 -13.390625 "/></g></g></g><g fill="#000000" fill-opacity="1"><g transform="translate(498.10741, 534.149662)"><g/></g></g><g clip-path="url(#bff5a758bb)"><path fill="#000000" d="M 344.195312 509.695312 C 336.742188 509.695312 330.695312 515.738281 330.695312 523.195312 C 330.695312 530.648438 336.742188 536.695312 344.195312 536.695312 C 351.652344 536.695312 357.695312 530.648438 357.695312 523.195312 C 357.695312 515.738281 351.652344 509.695312 344.195312 509.695312 Z M 344.136719 528.953125 C 341.722656 528.953125 340.078125 527.5 340.007812 525.511719 L 342.152344 525.511719 C 342.285156 526.4375 343.101562 527.050781 344.152344 527.050781 C 345.34375 527.050781 346.167969 526.25 346.167969 525.042969 C 346.167969 523.820312 345.335938 523.007812 344.160156 523.007812 C 343.300781 523.007812 342.644531 523.382812 342.261719 524.007812 L 340.183594 524.007812 L 340.738281 517.570312 L 347.714844 517.570312 L 347.714844 519.5 L 342.539062 519.5 L 342.292969 522.351562 L 342.429688 522.351562 C 342.898438 521.675781 343.683594 521.269531 344.78125 521.269531 C 346.890625 521.269531 348.382812 522.816406 348.382812 524.992188 C 348.382812 527.34375 346.683594 528.953125 344.136719 528.953125 Z M 344.136719 528.953125 " fill-opacity="1" fill-rule="nonzero"/></g></svg>