<svg xmlns="http://www.w3.org/2000/svg" xmlns:xlink="http://www.w3.org/1999/xlink" width="200" zoomAndPan="magnify" viewBox="0 0 150 112.499997" height="150" preserveAspectRatio="xMidYMid meet" version="1.0"><defs><clipPath id="be0bb79055"><path d="M 71.117188 7.445312 L 109.507812 7.445312 L 109.507812 46 L 71.117188 46 Z M 71.117188 7.445312 " clip-rule="nonzero"/></clipPath><clipPath id="1c78a006e1"><path d="M 64 7.445312 L 101 7.445312 L 101 42 L 64 42 Z M 64 7.445312 " clip-rule="nonzero"/></clipPath><clipPath id="c55471fbce"><path d="M 40.101562 42 L 56 42 L 56 57 L 40.101562 57 Z M 40.101562 42 " clip-rule="nonzero"/></clipPath><clipPath id="8b3b4649e2"><path d="M 40.101562 42 L 54 42 L 54 56 L 40.101562 56 Z M 40.101562 42 " clip-rule="nonzero"/></clipPath><clipPath id="193a6d9ccd"><path d="M 63.613281 89.433594 L 79 89.433594 L 79 104.484375 L 63.613281 104.484375 Z M 63.613281 89.433594 " clip-rule="nonzero"/></clipPath></defs><g clip-path="url(#be0bb79055)"><path fill="#87ab05" d="M 109.511719 20.019531 C 103.609375 17.359375 95.714844 14.28125 89.527344 17.722656 C 90.761719 14.386719 91.511719 11.035156 91.402344 7.460938 C 86.746094 7.1875 78.871094 12.59375 78.964844 17.597656 C 77.695312 15.050781 74.558594 13.707031 72.488281 13.570312 C 70.492188 19.222656 72.066406 26.957031 78.230469 29.492188 C 75.195312 34.578125 77.355469 42.265625 82.160156 45.90625 C 83.816406 44.648438 85.230469 41.496094 84.785156 38.738281 C 87.0625 42.460938 97.558594 43.339844 101.292969 40.53125 C 99.421875 37.492188 96.960938 35.105469 94.09375 33.007812 C 101.152344 32.453125 106.046875 25.511719 109.511719 20.019531 " fill-opacity="1" fill-rule="evenodd"/></g><g clip-path="url(#1c78a006e1)"><path fill="#9fbb11" d="M 69.691406 40.925781 C 72.746094 28.511719 70.171875 17.714844 64.300781 9.03125 L 65.792969 7.988281 C 70.191406 14.496094 72.355469 23.148438 72.195312 31.441406 L 77.691406 29.40625 C 77.921875 29.34375 78.105469 29.277344 77.949219 28.675781 L 75.171875 18.261719 C 76.265625 21.707031 77.355469 25.152344 78.449219 28.59375 L 87.660156 14.214844 C 84.753906 19.117188 81.851562 24.023438 78.945312 28.925781 L 100.011719 22.886719 C 93.046875 25.0625 86.078125 27.234375 79.109375 29.410156 L 94.433594 36.871094 C 89.238281 34.507812 84.042969 32.148438 78.847656 29.789062 L 81.796875 40.40625 C 80.691406 37.074219 79.585938 33.738281 78.472656 30.402344 C 78.257812 29.75 78.117188 29.824219 77.828125 29.9375 L 72.175781 32.132812 C 72.066406 35.28125 71.617188 38.363281 70.828125 41.242188 C 70.191406 41.066406 70.328125 41.105469 69.691406 40.925781 " fill-opacity="1" fill-rule="evenodd"/></g><path fill="#502577" d="M 74.570312 34.707031 C 78.753906 34.707031 82.136719 38.105469 82.136719 42.308594 C 82.136719 43.730469 81.746094 45.070312 81.0625 46.207031 C 81.398438 46.164062 81.738281 46.140625 82.082031 46.140625 C 86.4375 46.140625 89.960938 49.683594 89.960938 54.058594 C 89.960938 56.929688 88.441406 59.445312 86.164062 60.832031 C 88.148438 62.269531 89.4375 64.613281 89.4375 67.253906 C 89.4375 71.628906 85.910156 75.175781 81.554688 75.175781 C 81.050781 75.175781 80.554688 75.125 80.074219 75.035156 C 81.832031 76.484375 82.953125 78.691406 82.953125 81.15625 C 82.953125 85.113281 80.066406 88.390625 76.292969 88.980469 C 76.96875 90.144531 77.351562 91.5 77.351562 92.945312 C 77.351562 97.316406 73.824219 100.863281 69.472656 100.863281 C 65.117188 100.863281 61.589844 97.316406 61.589844 92.945312 C 61.589844 88.988281 64.476562 85.710938 68.25 85.121094 C 67.84375 84.414062 67.542969 83.640625 67.367188 82.820312 C 66.96875 82.882812 66.5625 82.914062 66.144531 82.914062 C 61.789062 82.914062 58.261719 79.371094 58.261719 74.996094 C 58.261719 74.496094 58.308594 74.011719 58.398438 73.535156 C 55.730469 72.265625 53.882812 69.539062 53.882812 66.375 C 53.882812 62.734375 56.332031 59.667969 59.660156 58.746094 C 58.152344 57.300781 57.210938 55.261719 57.210938 53.003906 C 57.210938 52.230469 57.324219 51.480469 57.53125 50.773438 C 54.214844 49.839844 51.785156 46.78125 51.785156 43.152344 C 51.785156 38.777344 55.3125 35.230469 59.660156 35.230469 C 63.175781 35.230469 66.152344 37.539062 67.167969 40.730469 C 67.890625 37.289062 70.929688 34.707031 74.570312 34.707031 Z M 72.242188 56.335938 C 71.277344 58.425781 69.4375 60.015625 67.195312 60.636719 C 68.707031 62.078125 69.648438 64.117188 69.648438 66.375 C 69.648438 66.875 69.597656 67.363281 69.511719 67.835938 C 71.699219 68.878906 73.328125 70.894531 73.847656 73.332031 C 74.25 73.269531 74.660156 73.238281 75.074219 73.238281 C 75.582031 73.238281 76.074219 73.285156 76.554688 73.378906 C 74.796875 71.921875 73.671875 69.722656 73.671875 67.253906 C 73.671875 64.382812 75.195312 61.871094 77.472656 60.480469 C 76.027344 59.433594 74.949219 57.90625 74.472656 56.128906 C 73.878906 56.269531 73.257812 56.347656 72.621094 56.347656 C 72.492188 56.347656 72.371094 56.34375 72.242188 56.335938 " fill-opacity="1" fill-rule="evenodd"/><path fill="#4e0885" d="M 67.824219 32.269531 C 71.933594 32.269531 75.265625 35.613281 75.265625 39.742188 C 75.265625 43.867188 71.933594 47.214844 67.824219 47.214844 C 63.71875 47.214844 60.386719 43.867188 60.386719 39.742188 C 60.386719 35.613281 63.71875 32.269531 67.824219 32.269531 " fill-opacity="1" fill-rule="evenodd"/><path fill="#5f1996" d="M 67.191406 32.847656 C 70.679688 32.847656 73.507812 35.6875 73.507812 39.191406 C 73.507812 42.699219 70.679688 45.539062 67.191406 45.539062 C 63.703125 45.539062 60.875 42.699219 60.875 39.191406 C 60.875 35.6875 63.703125 32.847656 67.191406 32.847656 " fill-opacity="1" fill-rule="evenodd"/><path fill="#6b2c9d" d="M 66.558594 33.355469 C 69.359375 33.355469 71.628906 35.636719 71.628906 38.453125 C 71.628906 41.265625 69.359375 43.546875 66.558594 43.546875 C 63.753906 43.546875 61.484375 41.265625 61.484375 38.453125 C 61.484375 35.636719 63.753906 33.355469 66.558594 33.355469 " fill-opacity="1" fill-rule="evenodd"/><path fill="#fefefe" d="M 63.484375 35.101562 C 64.3125 34.433594 65.328125 34.316406 65.75 34.839844 C 66.167969 35.367188 65.839844 36.335938 65.011719 37.007812 C 64.183594 37.675781 63.171875 37.792969 62.75 37.269531 C 62.328125 36.742188 62.65625 35.769531 63.484375 35.101562 " fill-opacity="1" fill-rule="evenodd"/><path fill="#4e0885" d="M 89.457031 43.441406 C 93.5625 43.441406 96.894531 46.789062 96.894531 50.914062 C 96.894531 55.042969 93.5625 58.386719 89.457031 58.386719 C 85.347656 58.386719 82.015625 55.042969 82.015625 50.914062 C 82.015625 46.789062 85.347656 43.441406 89.457031 43.441406 " fill-opacity="1" fill-rule="evenodd"/><path fill="#5f1996" d="M 88.820312 44.019531 C 92.308594 44.019531 95.136719 46.859375 95.136719 50.367188 C 95.136719 53.871094 92.308594 56.710938 88.820312 56.710938 C 85.332031 56.710938 82.503906 53.871094 82.503906 50.367188 C 82.503906 46.859375 85.332031 44.019531 88.820312 44.019531 " fill-opacity="1" fill-rule="evenodd"/><path fill="#6b2c9d" d="M 88.1875 44.527344 C 90.988281 44.527344 93.257812 46.808594 93.257812 49.625 C 93.257812 52.441406 90.988281 54.722656 88.1875 54.722656 C 85.382812 54.722656 83.113281 52.441406 83.113281 49.625 C 83.113281 46.808594 85.382812 44.527344 88.1875 44.527344 " fill-opacity="1" fill-rule="evenodd"/><path fill="#fefefe" d="M 85.113281 46.277344 C 85.941406 45.605469 86.957031 45.488281 87.378906 46.015625 C 87.800781 46.539062 87.46875 47.507812 86.640625 48.179688 C 85.8125 48.847656 84.800781 48.96875 84.378906 48.441406 C 83.960938 47.914062 84.285156 46.945312 85.113281 46.277344 " fill-opacity="1" fill-rule="evenodd"/><g clip-path="url(#c55471fbce)"><path fill="#4e0885" d="M 47.597656 42.035156 C 51.707031 42.035156 55.035156 45.382812 55.035156 49.507812 C 55.035156 53.636719 51.707031 56.980469 47.597656 56.980469 C 43.492188 56.980469 40.160156 53.636719 40.160156 49.507812 C 40.160156 45.382812 43.492188 42.035156 47.597656 42.035156 " fill-opacity="1" fill-rule="evenodd"/></g><g clip-path="url(#8b3b4649e2)"><path fill="#5f1996" d="M 46.964844 42.613281 C 50.453125 42.613281 53.28125 45.453125 53.28125 48.960938 C 53.28125 52.464844 50.453125 55.304688 46.964844 55.304688 C 43.476562 55.304688 40.648438 52.464844 40.648438 48.960938 C 40.648438 45.453125 43.476562 42.613281 46.964844 42.613281 " fill-opacity="1" fill-rule="evenodd"/></g><path fill="#6b2c9d" d="M 46.328125 43.121094 C 49.132812 43.121094 51.402344 45.402344 51.402344 48.21875 C 51.402344 51.03125 49.132812 53.316406 46.328125 53.316406 C 43.527344 53.316406 41.257812 51.03125 41.257812 48.21875 C 41.257812 45.402344 43.527344 43.121094 46.328125 43.121094 " fill-opacity="1" fill-rule="evenodd"/><path fill="#fefefe" d="M 43.257812 44.867188 C 44.085938 44.195312 45.097656 44.082031 45.519531 44.609375 C 45.941406 45.132812 45.613281 46.101562 44.78125 46.773438 C 43.957031 47.441406 42.941406 47.558594 42.519531 47.03125 C 42.101562 46.507812 42.429688 45.535156 43.257812 44.867188 " fill-opacity="1" fill-rule="evenodd"/><path fill="#4e0885" d="M 85.863281 56.640625 C 89.972656 56.640625 93.300781 59.984375 93.300781 64.113281 C 93.300781 68.238281 89.972656 71.585938 85.863281 71.585938 C 81.757812 71.585938 78.425781 68.238281 78.425781 64.113281 C 78.425781 59.984375 81.757812 56.640625 85.863281 56.640625 " fill-opacity="1" fill-rule="evenodd"/><path fill="#5f1996" d="M 85.230469 57.214844 C 88.722656 57.214844 91.546875 60.058594 91.546875 63.5625 C 91.546875 67.066406 88.722656 69.910156 85.230469 69.910156 C 81.742188 69.910156 78.914062 67.066406 78.914062 63.5625 C 78.914062 60.058594 81.742188 57.214844 85.230469 57.214844 " fill-opacity="1" fill-rule="evenodd"/><path fill="#6b2c9d" d="M 84.597656 57.726562 C 87.398438 57.726562 89.671875 60.007812 89.671875 62.820312 C 89.671875 65.636719 87.398438 67.917969 84.597656 67.917969 C 81.792969 67.917969 79.523438 65.636719 79.523438 62.820312 C 79.523438 60.007812 81.792969 57.726562 84.597656 57.726562 " fill-opacity="1" fill-rule="evenodd"/><path fill="#d6d6d6" d="M 81.523438 59.46875 C 82.351562 58.800781 83.367188 58.6875 83.785156 59.210938 C 84.207031 59.738281 83.878906 60.707031 83.050781 61.375 C 82.222656 62.046875 81.210938 62.160156 80.785156 61.632812 C 80.363281 61.113281 80.699219 60.140625 81.523438 59.46875 " fill-opacity="1" fill-rule="evenodd"/><g clip-path="url(#193a6d9ccd)"><path fill="#4e0885" d="M 71.328125 89.542969 C 75.4375 89.542969 78.765625 92.886719 78.765625 97.015625 C 78.765625 101.140625 75.4375 104.484375 71.328125 104.484375 C 67.222656 104.484375 63.890625 101.140625 63.890625 97.015625 C 63.890625 92.886719 67.222656 89.542969 71.328125 89.542969 " fill-opacity="1" fill-rule="evenodd"/></g><path fill="#5f1996" d="M 70.695312 90.121094 C 74.183594 90.121094 77.011719 92.960938 77.011719 96.464844 C 77.011719 99.972656 74.183594 102.8125 70.695312 102.8125 C 67.207031 102.8125 64.378906 99.972656 64.378906 96.464844 C 64.378906 92.960938 67.207031 90.121094 70.695312 90.121094 " fill-opacity="1" fill-rule="evenodd"/><path fill="#6b2c9d" d="M 70.0625 90.628906 C 72.863281 90.628906 75.132812 92.90625 75.132812 95.722656 C 75.132812 98.539062 72.863281 100.820312 70.0625 100.820312 C 67.257812 100.820312 64.984375 98.539062 64.984375 95.722656 C 64.984375 92.90625 67.257812 90.628906 70.0625 90.628906 " fill-opacity="1" fill-rule="evenodd"/><path fill="#fefefe" d="M 66.988281 92.375 C 67.816406 91.703125 68.828125 91.585938 69.25 92.113281 C 69.671875 92.636719 69.34375 93.609375 68.515625 94.28125 C 67.6875 94.949219 66.675781 95.0625 66.253906 94.539062 C 65.828125 94.011719 66.160156 93.042969 66.988281 92.375 " fill-opacity="1" fill-rule="evenodd"/><path fill="#4e0885" d="M 70.792969 51.058594 C 74.824219 50.273438 78.726562 52.921875 79.507812 56.972656 C 80.289062 61.027344 77.648438 64.945312 73.613281 65.726562 C 69.585938 66.511719 65.683594 63.863281 64.902344 59.8125 C 64.121094 55.757812 66.757812 51.839844 70.792969 51.058594 " fill-opacity="1" fill-rule="evenodd"/><path fill="#5f1996" d="M 70.28125 51.746094 C 73.707031 51.078125 77.019531 53.328125 77.679688 56.769531 C 78.34375 60.214844 76.101562 63.542969 72.675781 64.207031 C 69.25 64.871094 65.9375 62.621094 65.277344 59.179688 C 64.617188 55.742188 66.855469 52.410156 70.28125 51.746094 " fill-opacity="1" fill-rule="evenodd"/><path fill="#6b2c9d" d="M 69.753906 52.363281 C 72.5 51.828125 75.164062 53.636719 75.695312 56.398438 C 76.226562 59.164062 74.429688 61.835938 71.675781 62.375 C 68.925781 62.90625 66.265625 61.101562 65.734375 58.335938 C 65.203125 55.570312 67 52.898438 69.753906 52.363281 " fill-opacity="1" fill-rule="evenodd"/><path fill="#fefefe" d="M 67.0625 54.664062 C 67.753906 53.847656 68.722656 53.542969 69.238281 53.976562 C 69.75 54.414062 69.609375 55.425781 68.925781 56.246094 C 68.234375 57.058594 67.265625 57.367188 66.753906 56.929688 C 66.238281 56.496094 66.378906 55.480469 67.0625 54.664062 " fill-opacity="1" fill-rule="evenodd"/><path fill="#4e0885" d="M 58.890625 60.773438 C 63.003906 60.773438 66.332031 64.121094 66.332031 68.246094 C 66.332031 72.371094 63.003906 75.71875 58.890625 75.71875 C 54.785156 75.71875 51.457031 72.371094 51.457031 68.246094 C 51.457031 64.121094 54.785156 60.773438 58.890625 60.773438 " fill-opacity="1" fill-rule="evenodd"/><path fill="#5f1996" d="M 58.261719 61.351562 C 61.75 61.351562 64.578125 64.191406 64.578125 67.699219 C 64.578125 71.203125 61.75 74.042969 58.261719 74.042969 C 54.773438 74.042969 51.945312 71.203125 51.945312 67.699219 C 51.945312 64.191406 54.773438 61.351562 58.261719 61.351562 " fill-opacity="1" fill-rule="evenodd"/><path fill="#6b2c9d" d="M 57.625 61.859375 C 60.429688 61.859375 62.699219 64.140625 62.699219 66.957031 C 62.699219 69.769531 60.429688 72.050781 57.625 72.050781 C 54.824219 72.050781 52.554688 69.769531 52.554688 66.957031 C 52.554688 64.140625 54.824219 61.859375 57.625 61.859375 " fill-opacity="1" fill-rule="evenodd"/><path fill="#fefefe" d="M 54.554688 63.609375 C 55.382812 62.9375 56.394531 62.820312 56.816406 63.347656 C 57.234375 63.871094 56.90625 64.839844 56.078125 65.511719 C 55.253906 66.179688 54.238281 66.296875 53.816406 65.773438 C 53.394531 65.246094 53.726562 64.273438 54.554688 63.609375 " fill-opacity="1" fill-rule="evenodd"/><path fill="#7630ad" d="M 55.019531 31.488281 C 59.128906 31.488281 62.457031 34.835938 62.457031 38.960938 C 62.457031 43.085938 59.128906 46.429688 55.019531 46.429688 C 50.910156 46.429688 47.585938 43.085938 47.585938 38.960938 C 47.585938 34.835938 50.910156 31.488281 55.019531 31.488281 " fill-opacity="1" fill-rule="evenodd"/><path fill="#8741be" d="M 54.386719 32.066406 C 57.878906 32.066406 60.703125 34.90625 60.703125 38.414062 C 60.703125 41.917969 57.878906 44.757812 54.386719 44.757812 C 50.898438 44.757812 48.070312 41.917969 48.070312 38.414062 C 48.070312 34.90625 50.898438 32.066406 54.386719 32.066406 " fill-opacity="1" fill-rule="evenodd"/><path fill="#9354c5" d="M 53.75 32.574219 C 56.554688 32.574219 58.828125 34.855469 58.828125 37.667969 C 58.828125 40.484375 56.554688 42.769531 53.75 42.769531 C 50.949219 42.769531 48.675781 40.484375 48.675781 37.667969 C 48.675781 34.855469 50.949219 32.574219 53.75 32.574219 " fill-opacity="1" fill-rule="evenodd"/><path fill="#fefefe" d="M 50.679688 34.320312 C 51.507812 33.648438 52.519531 33.535156 52.941406 34.058594 C 53.363281 34.585938 53.035156 35.554688 52.207031 36.226562 C 51.378906 36.894531 50.367188 37.011719 49.945312 36.484375 C 49.523438 35.957031 49.851562 34.988281 50.679688 34.320312 " fill-opacity="1" fill-rule="evenodd"/><path fill="#7630ad" d="M 50.117188 55.859375 C 54.222656 55.859375 57.554688 59.199219 57.554688 63.332031 C 57.554688 67.457031 54.222656 70.800781 50.117188 70.800781 C 46.007812 70.800781 42.683594 67.457031 42.683594 63.332031 C 42.683594 59.199219 46.007812 55.859375 50.117188 55.859375 " fill-opacity="1" fill-rule="evenodd"/><path fill="#8741be" d="M 49.484375 56.4375 C 52.972656 56.4375 55.800781 59.277344 55.800781 62.78125 C 55.800781 66.289062 52.972656 69.128906 49.484375 69.128906 C 45.996094 69.128906 43.164062 66.289062 43.164062 62.78125 C 43.164062 59.277344 45.996094 56.4375 49.484375 56.4375 " fill-opacity="1" fill-rule="evenodd"/><path fill="#9354c5" d="M 48.847656 56.945312 C 51.652344 56.945312 53.925781 59.222656 53.925781 62.039062 C 53.925781 64.855469 51.652344 67.136719 48.847656 67.136719 C 46.046875 67.136719 43.773438 64.855469 43.773438 62.039062 C 43.773438 59.222656 46.046875 56.945312 48.847656 56.945312 " fill-opacity="1" fill-rule="evenodd"/><path fill="#fefefe" d="M 45.773438 58.6875 C 46.601562 58.019531 47.617188 57.902344 48.039062 58.429688 C 48.460938 58.953125 48.132812 59.925781 47.304688 60.597656 C 46.476562 61.261719 45.464844 61.378906 45.042969 60.855469 C 44.621094 60.328125 44.949219 59.359375 45.773438 58.6875 " fill-opacity="1" fill-rule="evenodd"/><path fill="#4e0885" d="M 70.84375 76.527344 C 75.023438 76.527344 78.40625 79.929688 78.40625 84.128906 C 78.40625 88.328125 75.023438 91.730469 70.84375 91.730469 C 66.664062 91.730469 63.277344 88.328125 63.277344 84.128906 C 63.277344 79.929688 66.664062 76.527344 70.84375 76.527344 " fill-opacity="1" fill-rule="evenodd"/><path fill="#5f1996" d="M 70.199219 77.117188 C 73.746094 77.117188 76.625 80.007812 76.625 83.570312 C 76.625 87.136719 73.746094 90.027344 70.199219 90.027344 C 66.648438 90.027344 63.773438 87.136719 63.773438 83.570312 C 63.773438 80.007812 66.648438 77.117188 70.199219 77.117188 " fill-opacity="1" fill-rule="evenodd"/><path fill="#6b2c9d" d="M 69.550781 77.632812 C 72.402344 77.632812 74.714844 79.953125 74.714844 82.816406 C 74.714844 85.679688 72.402344 88.003906 69.550781 88.003906 C 66.699219 88.003906 64.390625 85.679688 64.390625 82.816406 C 64.390625 79.953125 66.699219 77.632812 69.550781 77.632812 " fill-opacity="1" fill-rule="evenodd"/><path fill="#d6d6d6" d="M 66.425781 79.410156 C 67.269531 78.726562 68.296875 78.609375 68.730469 79.144531 C 69.15625 79.679688 68.824219 80.667969 67.980469 81.347656 C 67.136719 82.027344 66.105469 82.148438 65.679688 81.613281 C 65.25 81.074219 65.585938 80.09375 66.425781 79.410156 " fill-opacity="1" fill-rule="evenodd"/><path fill="#7630ad" d="M 79.011719 82.074219 C 83.125 82.074219 86.449219 85.417969 86.449219 89.546875 C 86.449219 93.671875 83.125 97.019531 79.011719 97.019531 C 74.90625 97.019531 71.578125 93.671875 71.578125 89.546875 C 71.578125 85.417969 74.90625 82.074219 79.011719 82.074219 " fill-opacity="1" fill-rule="evenodd"/><path fill="#8741be" d="M 78.382812 82.652344 C 81.871094 82.652344 84.695312 85.492188 84.695312 88.996094 C 84.695312 92.503906 81.871094 95.34375 78.382812 95.34375 C 74.890625 95.34375 72.066406 92.503906 72.066406 88.996094 C 72.066406 85.492188 74.890625 82.652344 78.382812 82.652344 " fill-opacity="1" fill-rule="evenodd"/><path fill="#9354c5" d="M 77.746094 83.160156 C 80.546875 83.160156 82.820312 85.441406 82.820312 88.257812 C 82.820312 91.074219 80.546875 93.355469 77.746094 93.355469 C 74.945312 93.355469 72.671875 91.074219 72.671875 88.257812 C 72.671875 85.441406 74.945312 83.160156 77.746094 83.160156 " fill-opacity="1" fill-rule="evenodd"/><path fill="#fefefe" d="M 74.675781 84.90625 C 75.503906 84.238281 76.511719 84.121094 76.933594 84.644531 C 77.355469 85.171875 77.027344 86.140625 76.199219 86.8125 C 75.371094 87.480469 74.359375 87.597656 73.9375 87.070312 C 73.515625 86.546875 73.847656 85.578125 74.675781 84.90625 " fill-opacity="1" fill-rule="evenodd"/><path fill="#7630ad" d="M 60.015625 84.800781 C 64.121094 84.800781 67.449219 88.148438 67.449219 92.273438 C 67.449219 96.402344 64.121094 99.746094 60.015625 99.746094 C 55.902344 99.746094 52.574219 96.402344 52.574219 92.273438 C 52.574219 88.148438 55.902344 84.800781 60.015625 84.800781 " fill-opacity="1" fill-rule="evenodd"/><path fill="#8741be" d="M 59.378906 85.378906 C 62.867188 85.378906 65.695312 88.21875 65.695312 91.726562 C 65.695312 95.230469 62.867188 98.070312 59.378906 98.070312 C 55.886719 98.070312 53.0625 95.230469 53.0625 91.726562 C 53.0625 88.21875 55.886719 85.378906 59.378906 85.378906 " fill-opacity="1" fill-rule="evenodd"/><path fill="#9354c5" d="M 58.742188 85.886719 C 61.546875 85.886719 63.816406 88.167969 63.816406 90.984375 C 63.816406 93.796875 61.546875 96.082031 58.742188 96.082031 C 55.941406 96.082031 53.671875 93.796875 53.671875 90.984375 C 53.671875 88.167969 55.941406 85.886719 58.742188 85.886719 " fill-opacity="1" fill-rule="evenodd"/><path fill="#fefefe" d="M 55.671875 87.636719 C 56.5 86.964844 57.511719 86.847656 57.933594 87.375 C 58.355469 87.898438 58.023438 88.867188 57.195312 89.539062 C 56.371094 90.207031 55.355469 90.328125 54.933594 89.800781 C 54.515625 89.273438 54.84375 88.300781 55.671875 87.636719 " fill-opacity="1" fill-rule="evenodd"/><path fill="#4e0885" d="M 76.40625 44.320312 C 80.515625 44.320312 83.84375 47.667969 83.84375 51.792969 C 83.84375 55.921875 80.515625 59.265625 76.40625 59.265625 C 72.300781 59.265625 68.96875 55.921875 68.96875 51.792969 C 68.96875 47.667969 72.300781 44.320312 76.40625 44.320312 " fill-opacity="1" fill-rule="evenodd"/><path fill="#5f1996" d="M 75.773438 44.898438 C 79.261719 44.898438 82.089844 47.742188 82.089844 51.246094 C 82.089844 54.75 79.261719 57.59375 75.773438 57.59375 C 72.285156 57.59375 69.457031 54.75 69.457031 51.246094 C 69.457031 47.742188 72.285156 44.898438 75.773438 44.898438 " fill-opacity="1" fill-rule="evenodd"/><path fill="#6b2c9d" d="M 75.140625 45.40625 C 77.941406 45.40625 80.214844 47.691406 80.214844 50.503906 C 80.214844 53.316406 77.941406 55.601562 75.140625 55.601562 C 72.335938 55.601562 70.066406 53.316406 70.066406 50.503906 C 70.066406 47.691406 72.335938 45.40625 75.140625 45.40625 " fill-opacity="1" fill-rule="evenodd"/><path fill="#fefefe" d="M 72.066406 47.15625 C 72.894531 46.484375 73.910156 46.367188 74.328125 46.894531 C 74.75 47.421875 74.421875 48.390625 73.59375 49.058594 C 72.765625 49.730469 71.753906 49.847656 71.328125 49.320312 C 70.910156 48.792969 71.242188 47.820312 72.066406 47.15625 " fill-opacity="1" fill-rule="evenodd"/><path fill="#4e0885" d="M 64.5 43.179688 C 68.605469 43.179688 71.9375 46.523438 71.9375 50.648438 C 71.9375 54.777344 68.605469 58.121094 64.5 58.121094 C 60.390625 58.121094 57.058594 54.777344 57.058594 50.648438 C 57.058594 46.523438 60.390625 43.179688 64.5 43.179688 " fill-opacity="1" fill-rule="evenodd"/><path fill="#5f1996" d="M 63.863281 43.757812 C 67.351562 43.757812 70.183594 46.597656 70.183594 50.101562 C 70.183594 53.609375 67.351562 56.449219 63.863281 56.449219 C 60.375 56.449219 57.546875 53.609375 57.546875 50.101562 C 57.546875 46.597656 60.375 43.757812 63.863281 43.757812 " fill-opacity="1" fill-rule="evenodd"/><path fill="#6b2c9d" d="M 63.230469 44.261719 C 66.03125 44.261719 68.300781 46.542969 68.300781 49.359375 C 68.300781 52.175781 66.03125 54.460938 63.230469 54.460938 C 60.429688 54.460938 58.15625 52.175781 58.15625 49.359375 C 58.15625 46.542969 60.429688 44.261719 63.230469 44.261719 " fill-opacity="1" fill-rule="evenodd"/><path fill="#fefefe" d="M 60.15625 46.011719 C 60.984375 45.339844 62 45.222656 62.421875 45.75 C 62.84375 46.277344 62.511719 47.242188 61.683594 47.914062 C 60.855469 48.585938 59.839844 48.703125 59.421875 48.175781 C 59 47.648438 59.328125 46.679688 60.15625 46.011719 " fill-opacity="1" fill-rule="evenodd"/><path fill="#7630ad" d="M 56.160156 45.035156 C 60.265625 45.035156 63.597656 48.382812 63.597656 52.507812 C 63.597656 56.636719 60.265625 59.980469 56.160156 59.980469 C 52.050781 59.980469 48.722656 56.636719 48.722656 52.507812 C 48.722656 48.382812 52.050781 45.035156 56.160156 45.035156 " fill-opacity="1" fill-rule="evenodd"/><path fill="#8741be" d="M 55.523438 45.613281 C 59.011719 45.613281 61.84375 48.457031 61.84375 51.960938 C 61.84375 55.464844 59.011719 58.304688 55.523438 58.304688 C 52.035156 58.304688 49.207031 55.464844 49.207031 51.960938 C 49.207031 48.457031 52.035156 45.613281 55.523438 45.613281 " fill-opacity="1" fill-rule="evenodd"/><path fill="#9354c5" d="M 54.890625 46.121094 C 57.695312 46.121094 59.960938 48.402344 59.960938 51.21875 C 59.960938 54.03125 57.695312 56.316406 54.890625 56.316406 C 52.089844 56.316406 49.816406 54.03125 49.816406 51.21875 C 49.816406 48.402344 52.089844 46.121094 54.890625 46.121094 " fill-opacity="1" fill-rule="evenodd"/><path fill="#fefefe" d="M 51.816406 47.871094 C 52.644531 47.195312 53.660156 47.082031 54.082031 47.609375 C 54.503906 48.136719 54.171875 49.101562 53.34375 49.773438 C 52.515625 50.441406 51.503906 50.5625 51.085938 50.035156 C 50.664062 49.507812 50.988281 48.535156 51.816406 47.871094 " fill-opacity="1" fill-rule="evenodd"/><path fill="#7630ad" d="M 81.902344 35.355469 C 86.011719 35.355469 89.339844 38.703125 89.339844 42.832031 C 89.339844 46.957031 86.011719 50.304688 81.902344 50.304688 C 77.796875 50.304688 74.464844 46.957031 74.464844 42.832031 C 74.464844 38.703125 77.796875 35.355469 81.902344 35.355469 " fill-opacity="1" fill-rule="evenodd"/><path fill="#8741be" d="M 81.269531 35.933594 C 84.757812 35.933594 87.585938 38.777344 87.585938 42.28125 C 87.585938 45.789062 84.757812 48.628906 81.269531 48.628906 C 77.78125 48.628906 74.953125 45.789062 74.953125 42.28125 C 74.953125 38.777344 77.78125 35.933594 81.269531 35.933594 " fill-opacity="1" fill-rule="evenodd"/><path fill="#9354c5" d="M 80.636719 36.441406 C 83.4375 36.441406 85.707031 38.726562 85.707031 41.542969 C 85.707031 44.359375 83.4375 46.640625 80.636719 46.640625 C 77.832031 46.640625 75.5625 44.359375 75.5625 41.542969 C 75.5625 38.726562 77.832031 36.441406 80.636719 36.441406 " fill-opacity="1" fill-rule="evenodd"/><path fill="#fefefe" d="M 77.5625 38.191406 C 78.390625 37.523438 79.40625 37.402344 79.824219 37.929688 C 80.246094 38.457031 79.917969 39.425781 79.089844 40.09375 C 78.261719 40.765625 77.246094 40.882812 76.828125 40.355469 C 76.40625 39.828125 76.734375 38.863281 77.5625 38.191406 " fill-opacity="1" fill-rule="evenodd"/><path fill="#7630ad" d="M 83.480469 48.289062 C 87.585938 48.289062 90.917969 51.636719 90.917969 55.761719 C 90.917969 59.890625 87.585938 63.234375 83.480469 63.234375 C 79.371094 63.234375 76.042969 59.890625 76.042969 55.761719 C 76.042969 51.636719 79.371094 48.289062 83.480469 48.289062 " fill-opacity="1" fill-rule="evenodd"/><path fill="#8741be" d="M 82.84375 48.867188 C 86.332031 48.867188 89.164062 51.710938 89.164062 55.214844 C 89.164062 58.722656 86.332031 61.5625 82.84375 61.5625 C 79.355469 61.5625 76.53125 58.722656 76.53125 55.214844 C 76.53125 51.710938 79.355469 48.867188 82.84375 48.867188 " fill-opacity="1" fill-rule="evenodd"/><path fill="#9354c5" d="M 82.210938 49.375 C 85.015625 49.375 87.285156 51.65625 87.285156 54.472656 C 87.285156 57.289062 85.015625 59.570312 82.210938 59.570312 C 79.40625 59.570312 77.136719 57.289062 77.136719 54.472656 C 77.136719 51.65625 79.40625 49.375 82.210938 49.375 " fill-opacity="1" fill-rule="evenodd"/><path fill="#fefefe" d="M 79.136719 51.125 C 79.964844 50.453125 80.980469 50.335938 81.402344 50.863281 C 81.824219 51.390625 81.492188 52.355469 80.664062 53.027344 C 79.835938 53.699219 78.824219 53.816406 78.402344 53.289062 C 77.984375 52.761719 78.308594 51.792969 79.136719 51.125 " fill-opacity="1" fill-rule="evenodd"/><path fill="#4e0885" d="M 68.175781 67.375 C 72.285156 67.375 75.613281 70.714844 75.613281 74.84375 C 75.613281 78.96875 72.285156 82.316406 68.175781 82.316406 C 64.070312 82.316406 60.738281 78.96875 60.738281 74.84375 C 60.738281 70.714844 64.070312 67.375 68.175781 67.375 " fill-opacity="1" fill-rule="evenodd"/><path fill="#5f1996" d="M 67.542969 67.949219 C 71.03125 67.949219 73.859375 70.789062 73.859375 74.292969 C 73.859375 77.800781 71.03125 80.640625 67.542969 80.640625 C 64.054688 80.640625 61.226562 77.800781 61.226562 74.292969 C 61.226562 70.789062 64.054688 67.949219 67.542969 67.949219 " fill-opacity="1" fill-rule="evenodd"/><path fill="#6b2c9d" d="M 66.910156 68.457031 C 69.710938 68.457031 71.980469 70.738281 71.980469 73.554688 C 71.980469 76.371094 69.710938 78.652344 66.910156 78.652344 C 64.105469 78.652344 61.835938 76.371094 61.835938 73.554688 C 61.835938 70.738281 64.105469 68.457031 66.910156 68.457031 " fill-opacity="1" fill-rule="evenodd"/><path fill="#fefefe" d="M 63.835938 70.203125 C 64.664062 69.535156 65.675781 69.417969 66.097656 69.941406 C 66.519531 70.46875 66.191406 71.4375 65.363281 72.109375 C 64.535156 72.777344 63.519531 72.894531 63.097656 72.367188 C 62.675781 71.84375 63.007812 70.875 63.835938 70.203125 " fill-opacity="1" fill-rule="evenodd"/><path fill="#7630ad" d="M 59.835938 72.132812 C 63.945312 72.132812 67.277344 75.476562 67.277344 79.605469 C 67.277344 83.734375 63.945312 87.074219 59.835938 87.074219 C 55.730469 87.074219 52.398438 83.734375 52.398438 79.605469 C 52.398438 75.476562 55.730469 72.132812 59.835938 72.132812 " fill-opacity="1" fill-rule="evenodd"/><path fill="#8741be" d="M 59.203125 72.710938 C 62.691406 72.710938 65.519531 75.554688 65.519531 79.058594 C 65.519531 82.5625 62.691406 85.40625 59.203125 85.40625 C 55.714844 85.40625 52.886719 82.5625 52.886719 79.058594 C 52.886719 75.554688 55.714844 72.710938 59.203125 72.710938 " fill-opacity="1" fill-rule="evenodd"/><path fill="#9354c5" d="M 58.570312 73.21875 C 61.371094 73.21875 63.640625 75.5 63.640625 78.3125 C 63.640625 81.128906 61.371094 83.414062 58.570312 83.414062 C 55.765625 83.414062 53.496094 81.128906 53.496094 78.3125 C 53.496094 75.5 55.765625 73.21875 58.570312 73.21875 " fill-opacity="1" fill-rule="evenodd"/><path fill="#fefefe" d="M 55.496094 74.964844 C 56.324219 74.292969 57.339844 74.175781 57.761719 74.703125 C 58.183594 75.230469 57.851562 76.203125 57.023438 76.871094 C 56.195312 77.542969 55.179688 77.65625 54.757812 77.128906 C 54.339844 76.601562 54.667969 75.632812 55.496094 74.964844 " fill-opacity="1" fill-rule="evenodd"/><path fill="#7630ad" d="M 74.285156 63.160156 C 78.394531 63.160156 81.722656 66.503906 81.722656 70.632812 C 81.722656 74.757812 78.394531 78.105469 74.285156 78.105469 C 70.179688 78.105469 66.847656 74.757812 66.847656 70.632812 C 66.847656 66.503906 70.179688 63.160156 74.285156 63.160156 " fill-opacity="1" fill-rule="evenodd"/><path fill="#8741be" d="M 73.652344 63.734375 C 77.140625 63.734375 79.96875 66.578125 79.96875 70.082031 C 79.96875 73.585938 77.140625 76.429688 73.652344 76.429688 C 70.164062 76.429688 67.335938 73.585938 67.335938 70.082031 C 67.335938 66.578125 70.164062 63.734375 73.652344 63.734375 " fill-opacity="1" fill-rule="evenodd"/><path fill="#9354c5" d="M 73.019531 64.246094 C 75.820312 64.246094 78.089844 66.527344 78.089844 69.339844 C 78.089844 72.15625 75.820312 74.4375 73.019531 74.4375 C 70.214844 74.4375 67.941406 72.15625 67.941406 69.339844 C 67.941406 66.527344 70.214844 64.246094 73.019531 64.246094 " fill-opacity="1" fill-rule="evenodd"/><path fill="#fefefe" d="M 69.945312 65.988281 C 70.773438 65.320312 71.785156 65.207031 72.207031 65.730469 C 72.628906 66.257812 72.300781 67.226562 71.472656 67.894531 C 70.644531 68.566406 69.632812 68.679688 69.210938 68.152344 C 68.789062 67.632812 69.117188 66.660156 69.945312 65.988281 " fill-opacity="1" fill-rule="evenodd"/><path fill="#7630ad" d="M 63.6875 54.273438 C 67.796875 54.273438 71.128906 57.617188 71.128906 61.746094 C 71.128906 65.871094 67.796875 69.21875 63.6875 69.21875 C 59.582031 69.21875 56.253906 65.871094 56.253906 61.746094 C 56.253906 57.617188 59.582031 54.273438 63.6875 54.273438 " fill-opacity="1" fill-rule="evenodd"/><path fill="#8741be" d="M 63.054688 54.851562 C 66.546875 54.851562 69.371094 57.691406 69.371094 61.195312 C 69.371094 64.703125 66.546875 67.542969 63.054688 67.542969 C 59.566406 67.542969 56.738281 64.703125 56.738281 61.195312 C 56.738281 57.691406 59.566406 54.851562 63.054688 54.851562 " fill-opacity="1" fill-rule="evenodd"/><path fill="#9354c5" d="M 62.421875 55.359375 C 65.222656 55.359375 67.496094 57.640625 67.496094 60.457031 C 67.496094 63.273438 65.222656 65.554688 62.421875 65.554688 C 59.617188 65.554688 57.347656 63.273438 57.347656 60.457031 C 57.347656 57.640625 59.617188 55.359375 62.421875 55.359375 " fill-opacity="1" fill-rule="evenodd"/><path fill="#fefefe" d="M 59.347656 57.105469 C 60.179688 56.4375 61.191406 56.320312 61.609375 56.84375 C 62.03125 57.371094 61.703125 58.339844 60.875 59.007812 C 60.046875 59.679688 59.035156 59.796875 58.613281 59.269531 C 58.191406 58.746094 58.523438 57.777344 59.347656 57.105469 " fill-opacity="1" fill-rule="evenodd"/><path fill="#7630ad" d="M 85.230469 70.988281 C 89.339844 70.988281 92.667969 74.335938 92.667969 78.460938 C 92.667969 82.589844 89.339844 85.933594 85.230469 85.933594 C 81.121094 85.933594 77.792969 82.589844 77.792969 78.460938 C 77.792969 74.335938 81.121094 70.988281 85.230469 70.988281 " fill-opacity="1" fill-rule="evenodd"/><path fill="#8741be" d="M 84.597656 71.566406 C 88.089844 71.566406 90.914062 74.410156 90.914062 77.914062 C 90.914062 81.417969 88.089844 84.257812 84.597656 84.257812 C 81.109375 84.257812 78.28125 81.417969 78.28125 77.914062 C 78.28125 74.410156 81.109375 71.566406 84.597656 71.566406 " fill-opacity="1" fill-rule="evenodd"/><path fill="#9354c5" d="M 83.960938 72.074219 C 86.765625 72.074219 89.035156 74.355469 89.035156 77.167969 C 89.035156 79.984375 86.765625 82.269531 83.960938 82.269531 C 81.160156 82.269531 78.886719 79.984375 78.886719 77.167969 C 78.886719 74.355469 81.160156 72.074219 83.960938 72.074219 " fill-opacity="1" fill-rule="evenodd"/><path fill="#fefefe" d="M 80.886719 73.820312 C 81.714844 73.148438 82.730469 73.035156 83.152344 73.5625 C 83.574219 74.089844 83.246094 75.054688 82.417969 75.726562 C 81.589844 76.394531 80.578125 76.511719 80.15625 75.984375 C 79.730469 75.460938 80.058594 74.488281 80.886719 73.820312 " fill-opacity="1" fill-rule="evenodd"/></svg>