<svg xmlns="http://www.w3.org/2000/svg" xmlns:xlink="http://www.w3.org/1999/xlink" width="200" zoomAndPan="magnify" viewBox="0 0 150 112.499997" height="150" preserveAspectRatio="xMidYMid meet" version="1.0"><defs><clipPath id="68ff7f7773"><path d="M 70 50 L 86 50 L 86 100.800781 L 70 100.800781 Z M 70 50 " clip-rule="nonzero"/></clipPath><clipPath id="4db75e2cb5"><path d="M 41 11.199219 L 110 11.199219 L 110 61 L 41 61 Z M 41 11.199219 " clip-rule="nonzero"/></clipPath></defs><path fill="#8c94c8" d="M 66.152344 81.597656 C 65.613281 81.003906 64.941406 80.53125 64.296875 80.058594 C 63.652344 79.582031 63.269531 79.410156 62.753906 78.722656 C 62.855469 78.855469 62.441406 78.121094 62.464844 78.175781 C 62.421875 78.074219 62.300781 77.652344 62.246094 77.363281 C 62.257812 77.402344 62.222656 77.058594 62.222656 76.996094 C 62.21875 76.796875 62.21875 76.59375 62.238281 76.394531 C 62.25 76.355469 62.257812 76.308594 62.273438 76.246094 C 62.324219 76.039062 62.378906 75.820312 62.457031 75.621094 C 62.457031 75.648438 62.617188 75.34375 62.644531 75.300781 C 62.703125 75.199219 62.828125 75.015625 62.875 74.957031 C 63.105469 74.65625 63.402344 74.390625 63.675781 74.128906 C 64.378906 73.460938 65.140625 72.855469 65.757812 72.101562 C 67.277344 70.253906 68.082031 67.84375 66.953125 65.578125 C 66.164062 64 64.378906 63.097656 63.277344 62.152344 C 61.214844 60.378906 61.214844 57.066406 63.0625 55.265625 C 65.128906 53.253906 61.96875 50.082031 59.902344 52.09375 C 57.480469 54.453125 56.660156 58.207031 57.675781 61.421875 C 58.167969 62.980469 59.046875 64.425781 60.304688 65.472656 C 60.917969 65.980469 61.75 66.5 62.296875 66.925781 C 62.4375 67.03125 62.746094 67.308594 62.941406 67.53125 C 62.894531 67.484375 62.953125 67.578125 63 67.652344 C 62.972656 67.667969 63.027344 68.007812 63.046875 67.886719 C 62.835938 69.257812 61.101562 70.335938 60.105469 71.359375 C 58.695312 72.8125 57.847656 74.585938 57.761719 76.625 C 57.679688 78.527344 58.371094 80.445312 59.601562 81.886719 C 60.136719 82.519531 60.808594 83.011719 61.46875 83.503906 C 62.171875 84.023438 62.378906 84.113281 62.921875 84.683594 C 62.980469 84.746094 63.160156 84.953125 63.152344 85.09375 C 63.144531 85.195312 63.003906 85.746094 62.90625 86.007812 C 62.710938 86.527344 62.179688 87.417969 61.820312 87.847656 C 60.667969 89.222656 59.296875 90.050781 57.613281 90.453125 C 56.441406 90.730469 55.742188 92.070312 56.054688 93.207031 C 56.382812 94.414062 57.625 95.054688 58.800781 94.773438 C 62.554688 93.878906 65.625 91.136719 67.070312 87.566406 C 67.910156 85.464844 67.699219 83.300781 66.152344 81.597656 Z M 66.152344 81.597656 " fill-opacity="1" fill-rule="nonzero"/><path fill="#8c94c8" d="M 110.203125 71.136719 C 108.785156 68.628906 104.921875 70.882812 106.347656 73.398438 C 106.410156 73.511719 106.484375 73.632812 106.539062 73.757812 C 106.546875 73.789062 106.554688 73.828125 106.566406 73.878906 C 106.585938 73.988281 106.617188 74.097656 106.644531 74.203125 C 106.652344 74.222656 106.652344 74.234375 106.65625 74.25 C 106.65625 74.253906 106.65625 74.257812 106.65625 74.261719 C 106.707031 75.054688 106.726562 74.882812 106.5 75.648438 C 106.300781 76.320312 105.820312 76.984375 105.042969 77.332031 C 105.058594 77.304688 104.601562 77.441406 104.523438 77.457031 C 104.507812 77.453125 104.484375 77.453125 104.445312 77.453125 C 104.335938 77.449219 104.21875 77.449219 104.105469 77.453125 C 104.058594 77.457031 104.023438 77.457031 103.992188 77.457031 C 103.855469 77.433594 103.710938 77.402344 103.578125 77.363281 C 103.445312 77.328125 103.316406 77.289062 103.1875 77.246094 C 103.144531 77.226562 103.082031 77.203125 103.042969 77.183594 C 102.125 76.71875 101.617188 76.171875 101.457031 75.371094 C 101.449219 75.34375 101.421875 75.164062 101.402344 75.070312 C 101.398438 74.996094 101.390625 74.882812 101.390625 74.890625 C 101.390625 74.820312 101.429688 74.101562 101.40625 74.230469 C 101.492188 73.601562 101.699219 72.972656 101.914062 72.378906 C 102.34375 71.179688 102.917969 70.035156 103.417969 68.703125 C 104.503906 65.792969 104.378906 62.863281 102.574219 60.265625 C 101.703125 59.019531 100.296875 57.746094 99.96875 56.207031 C 99.699219 54.953125 100.835938 54.261719 101.902344 53.664062 C 104.410156 52.257812 102.160156 48.382812 99.648438 49.792969 C 97.898438 50.773438 96.289062 52.179688 95.683594 54.160156 C 95.015625 56.339844 95.867188 58.644531 97.128906 60.421875 C 97.636719 61.140625 98.210938 61.808594 98.714844 62.53125 C 98.960938 62.882812 99.203125 63.246094 99.390625 63.632812 C 99.539062 63.945312 99.371094 63.488281 99.550781 64.019531 C 99.566406 64.074219 99.683594 64.578125 99.683594 64.511719 C 99.832031 65.757812 99.277344 67.15625 98.804688 68.277344 C 97.46875 71.464844 95.878906 75.058594 97.902344 78.351562 C 99.800781 81.449219 103.914062 82.847656 107.21875 81.238281 C 110.84375 79.476562 112.152344 74.578125 110.203125 71.136719 Z M 106.53125 73.726562 C 106.507812 73.652344 106.503906 73.609375 106.53125 73.726562 Z M 103.96875 77.460938 C 103.789062 77.460938 103.871094 77.453125 103.96875 77.460938 Z M 103.96875 77.460938 " fill-opacity="1" fill-rule="nonzero"/><path fill="#8c94c8" d="M 91.382812 76.464844 C 90.882812 76.109375 90.367188 75.78125 89.867188 75.429688 C 89.851562 75.417969 89.84375 75.414062 89.832031 75.402344 C 89.828125 75.402344 89.828125 75.402344 89.828125 75.398438 C 89.726562 75.3125 89.625 75.226562 89.527344 75.132812 C 89.433594 75.046875 89.34375 74.953125 89.261719 74.859375 C 89.238281 74.820312 89.199219 74.757812 89.171875 74.695312 C 89.171875 74.6875 89.175781 74.675781 89.175781 74.664062 C 89.175781 74.484375 89.164062 74.585938 89.15625 74.65625 C 89.15625 74.632812 89.160156 74.601562 89.160156 74.554688 C 89.175781 74.386719 89.21875 74.28125 89.371094 74.039062 C 89.753906 73.417969 90.382812 72.921875 90.953125 72.449219 C 92.25 71.367188 93.527344 70.164062 94.03125 68.488281 C 94.53125 66.816406 94.132812 65.03125 93.183594 63.597656 C 92.421875 62.441406 91.085938 61.160156 90.433594 60.269531 C 90.222656 59.984375 90.035156 59.683594 89.878906 59.363281 C 89.867188 59.34375 89.863281 59.328125 89.855469 59.316406 C 89.847656 59.300781 89.84375 59.285156 89.835938 59.265625 C 89.757812 59.046875 89.699219 58.824219 89.644531 58.601562 C 89.640625 58.574219 89.613281 58.425781 89.59375 58.335938 C 89.589844 58.226562 89.566406 57.976562 89.566406 57.9375 C 89.5625 57.785156 89.5625 57.628906 89.570312 57.476562 C 89.570312 57.429688 89.628906 56.988281 89.613281 57.039062 C 89.679688 56.695312 89.769531 56.359375 89.886719 56.027344 C 89.96875 55.800781 90.011719 55.703125 90.253906 55.308594 C 90.316406 55.207031 90.382812 55.101562 90.453125 55.003906 C 90.476562 54.984375 90.621094 54.804688 90.667969 54.757812 C 90.800781 54.617188 90.933594 54.480469 91.078125 54.355469 C 91.136719 54.300781 91.171875 54.273438 91.1875 54.253906 C 91.191406 54.261719 91.222656 54.246094 91.363281 54.152344 C 92.375 53.492188 92.796875 52.167969 92.164062 51.085938 C 91.578125 50.078125 90.125 49.621094 89.109375 50.285156 C 86.472656 52.003906 84.878906 55.117188 85.121094 58.285156 C 85.238281 59.855469 85.714844 61.355469 86.648438 62.632812 C 87.132812 63.289062 87.660156 63.90625 88.203125 64.515625 C 88.695312 65.066406 89.105469 65.503906 89.394531 65.957031 C 89.472656 66.082031 89.722656 66.59375 89.695312 66.484375 C 89.738281 66.605469 89.773438 66.734375 89.800781 66.855469 C 89.769531 66.714844 89.84375 66.53125 89.792969 66.925781 C 89.792969 66.945312 89.777344 67.050781 89.773438 67.113281 C 89.738281 67.214844 89.679688 67.382812 89.761719 67.234375 C 89.542969 67.644531 89.519531 67.6875 89.195312 68.03125 C 88.035156 69.253906 86.632812 70.121094 85.671875 71.546875 C 84.601562 73.125 84.382812 75.140625 85.265625 76.851562 C 85.914062 78.113281 87.089844 78.957031 88.234375 79.726562 C 88.535156 79.929688 88.832031 80.136719 89.128906 80.335938 C 89.15625 80.355469 89.246094 80.425781 89.289062 80.453125 C 89.417969 80.5625 89.546875 80.675781 89.667969 80.792969 C 89.738281 80.863281 89.808594 80.9375 89.871094 81.007812 C 89.902344 81.050781 90.003906 81.191406 90.035156 81.265625 C 90.132812 81.496094 90.160156 81.585938 90.167969 81.863281 C 90.210938 83.207031 88.867188 84.292969 87.636719 84.78125 C 86.515625 85.226562 85.730469 86.28125 86.074219 87.539062 C 86.367188 88.609375 87.695312 89.550781 88.824219 89.105469 C 90.652344 88.375 92.253906 87.378906 93.414062 85.75 C 94.53125 84.179688 94.9375 82.039062 94.386719 80.175781 C 93.902344 78.539062 92.71875 77.421875 91.382812 76.464844 Z M 91.382812 76.464844 " fill-opacity="1" fill-rule="nonzero"/><g clip-path="url(#68ff7f7773)"><path fill="#8c94c8" d="M 82.234375 95.871094 C 80.671875 96.175781 78.78125 95.835938 77.632812 94.5 C 77.644531 94.511719 77.140625 93.710938 77.152344 93.746094 C 77.054688 93.515625 76.984375 93.261719 76.925781 93.015625 C 76.898438 92.90625 76.882812 92.835938 76.875 92.792969 C 76.765625 91.867188 76.949219 91.351562 77.570312 90.539062 C 78.121094 89.816406 78.898438 89.167969 79.542969 88.484375 C 80.46875 87.5 81.257812 86.40625 81.730469 85.132812 C 82.554688 82.90625 81.871094 80.464844 80.152344 78.878906 C 78.75 77.585938 76.957031 76.941406 75.476562 75.785156 C 75.5625 75.847656 75.265625 75.566406 75.132812 75.449219 C 75.144531 75.433594 75.152344 75.414062 75.167969 75.398438 C 75.171875 75.390625 75.449219 74.949219 75.433594 74.949219 C 75.6875 74.628906 76.007812 74.347656 76.316406 74.085938 C 76.355469 74.050781 76.386719 74.023438 76.414062 74 C 76.429688 73.992188 76.453125 73.976562 76.492188 73.945312 C 76.707031 73.78125 76.925781 73.628906 77.144531 73.476562 C 78.832031 72.28125 80.480469 71.0625 81.222656 69.042969 C 82.152344 66.5 81.03125 63.875 79.441406 61.882812 C 77.988281 60.0625 75.8125 58.789062 74.675781 56.824219 C 74.625 56.738281 74.59375 56.683594 74.566406 56.644531 C 74.566406 56.621094 74.554688 56.566406 74.527344 56.472656 C 74.503906 56.394531 74.449219 56.039062 74.445312 56.070312 C 74.4375 55.914062 74.445312 55.757812 74.445312 55.597656 C 74.445312 55.578125 74.449219 55.558594 74.449219 55.539062 C 74.476562 55.410156 74.507812 55.28125 74.546875 55.152344 C 74.554688 55.117188 74.558594 55.089844 74.5625 55.0625 C 74.667969 54.886719 75.011719 54.433594 74.730469 54.726562 C 74.777344 54.683594 74.820312 54.636719 74.867188 54.585938 C 74.867188 54.585938 74.871094 54.585938 74.875 54.582031 C 74.886719 54.574219 74.898438 54.566406 74.910156 54.5625 C 74.980469 54.546875 75.019531 54.535156 75.03125 54.53125 C 76.148438 54.355469 77.074219 53.535156 77.074219 52.316406 C 77.074219 51.183594 76.050781 49.964844 74.839844 50.074219 C 72.40625 50.292969 70.558594 52.050781 70.117188 54.476562 C 69.640625 57.113281 70.679688 59.382812 72.457031 61.296875 C 73.917969 62.871094 76.148438 64.148438 76.917969 66.230469 C 77.09375 66.699219 77.09375 67.039062 77.066406 67.371094 C 77.066406 67.375 76.972656 67.65625 76.988281 67.644531 C 76.96875 67.679688 76.957031 67.710938 76.953125 67.714844 C 76.902344 67.808594 76.84375 67.894531 76.789062 67.988281 C 76.777344 68.011719 76.765625 68.03125 76.761719 68.046875 C 76.757812 68.046875 76.757812 68.046875 76.757812 68.050781 C 76.0625 68.867188 75.703125 69.035156 74.890625 69.609375 C 72.875 71.035156 70.695312 72.824219 70.699219 75.550781 C 70.703125 78.476562 73.417969 79.820312 75.585938 81.105469 C 75.917969 81.300781 76.5625 81.703125 76.707031 81.8125 C 76.632812 81.753906 76.984375 82.050781 77.070312 82.128906 C 77.144531 82.199219 77.398438 82.519531 77.394531 82.484375 C 77.449219 82.582031 77.519531 82.707031 77.539062 82.71875 C 77.574219 82.832031 77.617188 82.984375 77.625 82.980469 C 77.667969 83.371094 77.511719 83.761719 77.269531 84.179688 C 76.710938 85.132812 75.835938 85.855469 75.078125 86.648438 C 74.085938 87.679688 73.246094 88.804688 72.753906 90.164062 C 71.78125 92.847656 72.796875 96.128906 74.828125 98.046875 C 77.144531 100.230469 80.378906 100.792969 83.421875 100.199219 C 84.605469 99.972656 85.285156 98.542969 84.980469 97.445312 C 84.640625 96.191406 83.425781 95.640625 82.234375 95.871094 Z M 75.128906 75.460938 C 75.371094 75.789062 74.992188 75.726562 75.128906 75.460938 Z M 75.128906 75.460938 " fill-opacity="1" fill-rule="nonzero"/></g><path fill="#8c94c8" d="M 51.414062 65.574219 C 51.253906 65.109375 51.109375 64.640625 51.003906 64.160156 C 51.003906 64.164062 50.925781 63.6875 50.914062 63.695312 C 50.894531 63.425781 50.898438 63.15625 50.898438 62.886719 C 50.898438 62.804688 50.894531 62.75 50.890625 62.714844 C 50.902344 62.679688 50.917969 62.628906 50.941406 62.550781 C 50.984375 62.394531 51.019531 62.242188 51.070312 62.085938 C 51.140625 61.863281 51.324219 61.53125 51.597656 61.132812 C 51.957031 60.601562 52.867188 59.699219 53.480469 59.015625 C 55.476562 56.785156 56.503906 54.273438 55.699219 51.257812 C 55.347656 49.933594 54.824219 48.273438 53.792969 47.335938 C 52.230469 45.902344 50.023438 46.367188 49.277344 48.359375 C 48.851562 49.492188 49.746094 50.816406 50.835938 51.117188 C 50.871094 51.128906 50.90625 51.132812 50.941406 51.140625 C 51.074219 51.46875 51.199219 51.796875 51.300781 52.132812 C 51.523438 52.855469 51.644531 53.539062 51.398438 54.269531 C 51.324219 54.488281 51.304688 54.515625 51.070312 54.886719 C 50.988281 55.019531 50.898438 55.148438 50.804688 55.277344 C 50.789062 55.300781 50.777344 55.320312 50.765625 55.332031 C 50.734375 55.367188 50.695312 55.414062 50.636719 55.480469 C 50.160156 56.039062 49.648438 56.558594 49.15625 57.101562 C 48.039062 58.332031 47.007812 59.707031 46.632812 61.363281 C 46.261719 63.003906 46.449219 64.703125 46.949219 66.296875 C 47.429688 67.828125 48.128906 69.21875 48.648438 70.578125 C 48.890625 71.207031 49.109375 71.847656 49.265625 72.507812 C 49.414062 73.140625 49.488281 73.679688 49.410156 74.300781 C 49.269531 75.382812 48.542969 76.394531 47.527344 76.972656 C 46.605469 77.5 45.398438 77.503906 44.480469 77.074219 C 43.855469 76.78125 43.332031 76.375 43.023438 75.933594 C 42.632812 75.367188 42.453125 74.769531 42.503906 74.308594 C 42.519531 74.164062 42.625 73.890625 42.664062 73.800781 C 42.707031 73.742188 42.828125 73.554688 42.734375 73.71875 C 42.734375 73.714844 42.796875 73.691406 42.816406 73.6875 C 42.835938 73.679688 42.886719 73.660156 42.941406 73.640625 C 42.941406 73.644531 43.007812 73.644531 43.144531 73.636719 C 43.144531 73.636719 43.148438 73.636719 43.148438 73.636719 C 44.710938 75.9375 48.464844 73.714844 46.949219 71.292969 C 45.585938 69.109375 42.699219 68.5625 40.511719 69.84375 C 38.253906 71.164062 37.570312 74.125 38.375 76.507812 C 39.988281 81.289062 46.144531 83.464844 50.3125 80.507812 C 52.355469 79.058594 53.671875 76.871094 53.867188 74.351562 C 54.035156 72.203125 53.285156 70.132812 52.46875 68.191406 C 52.054688 67.191406 51.777344 66.601562 51.414062 65.574219 Z M 51.414062 65.574219 " fill-opacity="1" fill-rule="nonzero"/><g clip-path="url(#4db75e2cb5)"><path fill="#b8ccea" d="M 75.351562 11.765625 C 48.433594 11.195312 40.40625 28.582031 41.351562 47.007812 C 42.074219 61.023438 45.667969 51.027344 49.980469 51.542969 C 53.375 51.949219 52.054688 56.792969 56.507812 57.53125 C 62.382812 58.507812 61.992188 53.1875 66.511719 53.601562 C 69.703125 53.894531 69.316406 60.09375 74.859375 60.09375 C 78.726562 60.09375 78.730469 54.835938 83.351562 54.941406 C 86.996094 55.023438 87.527344 59.574219 90.742188 59.269531 C 94.855469 58.878906 94.738281 54.683594 97.71875 54.269531 C 101.324219 53.769531 102.027344 59.203125 105.734375 57.515625 C 109.363281 55.867188 109.539062 49.421875 109.328125 46.03125 C 108.203125 27.738281 99.78125 12.277344 75.351562 11.765625 Z M 75.351562 11.765625 " fill-opacity="1" fill-rule="nonzero"/></g><path fill="#5875b9" d="M 70.257812 38.582031 C 70.257812 38.832031 70.210938 39.070312 70.117188 39.300781 C 70.023438 39.53125 69.886719 39.738281 69.710938 39.914062 C 69.535156 40.089844 69.332031 40.226562 69.101562 40.320312 C 68.871094 40.417969 68.632812 40.464844 68.386719 40.464844 C 68.136719 40.464844 67.898438 40.417969 67.667969 40.320312 C 67.4375 40.226562 67.234375 40.089844 67.058594 39.914062 C 66.882812 39.738281 66.75 39.53125 66.652344 39.300781 C 66.558594 39.070312 66.511719 38.832031 66.511719 38.582031 C 66.511719 38.332031 66.558594 38.09375 66.652344 37.863281 C 66.75 37.632812 66.882812 37.429688 67.058594 37.253906 C 67.234375 37.074219 67.4375 36.941406 67.667969 36.84375 C 67.898438 36.75 68.136719 36.699219 68.386719 36.699219 C 68.632812 36.699219 68.871094 36.75 69.101562 36.84375 C 69.332031 36.941406 69.535156 37.074219 69.710938 37.253906 C 69.886719 37.429688 70.023438 37.632812 70.117188 37.863281 C 70.210938 38.09375 70.257812 38.332031 70.257812 38.582031 Z M 70.257812 38.582031 " fill-opacity="1" fill-rule="nonzero"/><path fill="#5875b9" d="M 83.582031 39.175781 C 83.582031 39.425781 83.535156 39.667969 83.441406 39.898438 C 83.347656 40.128906 83.210938 40.332031 83.035156 40.507812 C 82.859375 40.683594 82.65625 40.820312 82.425781 40.914062 C 82.195312 41.011719 81.957031 41.058594 81.710938 41.058594 C 81.460938 41.058594 81.222656 41.011719 80.992188 40.914062 C 80.761719 40.820312 80.558594 40.683594 80.382812 40.507812 C 80.207031 40.332031 80.074219 40.128906 79.976562 39.898438 C 79.882812 39.667969 79.835938 39.425781 79.835938 39.175781 C 79.835938 38.925781 79.882812 38.6875 79.976562 38.457031 C 80.074219 38.226562 80.207031 38.023438 80.382812 37.847656 C 80.558594 37.667969 80.761719 37.535156 80.992188 37.4375 C 81.222656 37.34375 81.460938 37.296875 81.710938 37.296875 C 81.957031 37.296875 82.195312 37.34375 82.425781 37.4375 C 82.65625 37.535156 82.859375 37.667969 83.035156 37.847656 C 83.210938 38.023438 83.347656 38.226562 83.441406 38.457031 C 83.535156 38.6875 83.582031 38.925781 83.582031 39.175781 Z M 83.582031 39.175781 " fill-opacity="1" fill-rule="nonzero"/><path fill="#5875b9" d="M 78.082031 43.070312 C 77.757812 44.601562 76.351562 45.863281 74.730469 45.703125 C 73.199219 45.546875 72.097656 44.246094 71.898438 42.773438 C 71.761719 41.75 70.210938 42.1875 70.347656 43.203125 C 70.640625 45.382812 72.550781 47.175781 74.742188 47.316406 C 77.042969 47.464844 79.160156 45.71875 79.636719 43.496094 C 79.851562 42.484375 78.300781 42.054688 78.082031 43.070312 Z M 78.082031 43.070312 " fill-opacity="1" fill-rule="nonzero"/><path fill="#e7b7d5" d="M 66.699219 42.15625 C 66.488281 41.226562 65.867188 40.527344 65.078125 40.140625 C 63.96875 39.320312 62.386719 39.289062 61.203125 40.074219 C 60.234375 40.71875 59.613281 41.867188 59.859375 43.042969 C 60.082031 44.09375 60.871094 44.90625 61.875 45.25 C 61.976562 45.289062 62.078125 45.3125 62.179688 45.339844 C 63.035156 45.757812 64.097656 45.746094 64.976562 45.210938 C 65.085938 45.144531 65.1875 45.070312 65.28125 44.996094 C 66.300781 44.527344 67 43.484375 66.699219 42.15625 Z M 66.699219 42.15625 " fill-opacity="1" fill-rule="nonzero"/><path fill="#e7b7d5" d="M 90.390625 43.980469 C 90.160156 41.917969 87.863281 40.648438 85.9375 41.085938 C 85.730469 41.132812 85.53125 41.199219 85.34375 41.285156 C 84.917969 41.375 84.53125 41.609375 84.269531 41.964844 C 84.019531 42.152344 83.792969 42.382812 83.617188 42.648438 C 83.203125 43.101562 82.914062 43.679688 82.824219 44.351562 C 82.539062 46.507812 84.511719 48.074219 86.546875 47.882812 C 88.527344 47.695312 90.636719 46.1875 90.390625 43.980469 Z M 90.390625 43.980469 " fill-opacity="1" fill-rule="nonzero"/><path fill="#8c94c8" d="M 97.574219 23.78125 C 97.566406 23.351562 97.390625 22.941406 97.113281 22.613281 C 96.941406 22.285156 96.753906 21.980469 96.5625 21.714844 C 96.144531 21.128906 95.632812 20.59375 95.039062 20.1875 C 94.964844 20.128906 94.890625 20.066406 94.8125 20.011719 C 93.652344 19.171875 92.046875 19.070312 90.953125 20.078125 C 88.550781 22.285156 91.785156 25.640625 93.875 26.535156 C 94.53125 26.8125 95.222656 27.054688 95.941406 26.898438 C 96.742188 26.722656 97.390625 26.140625 97.609375 25.335938 C 97.75 24.84375 97.710938 24.308594 97.574219 23.78125 Z M 97.574219 23.78125 " fill-opacity="1" fill-rule="nonzero"/><path fill="#8c94c8" d="M 102.898438 27.574219 C 102.746094 27.265625 102.539062 26.960938 102.296875 26.707031 C 102.003906 26.105469 101.421875 25.648438 100.707031 25.683594 C 99.867188 25.726562 99.078125 26.121094 98.636719 26.863281 C 98.277344 27.46875 98.164062 28.191406 98.335938 28.875 C 98.652344 30.125 99.8125 31.078125 101.097656 31.097656 C 101.855469 31.113281 102.640625 30.691406 103.011719 30.019531 C 103.460938 29.210938 103.28125 28.359375 102.898438 27.574219 Z M 102.898438 27.574219 " fill-opacity="1" fill-rule="nonzero"/><path fill="#8c94c8" d="M 96.871094 28.667969 C 96.714844 28.410156 96.511719 28.1875 96.246094 28.039062 C 95.929688 27.855469 95.726562 27.820312 95.367188 27.792969 C 95.351562 27.789062 95.335938 27.789062 95.320312 27.792969 C 95.179688 27.8125 95.035156 27.832031 94.894531 27.851562 C 94.886719 27.851562 94.878906 27.851562 94.871094 27.855469 C 94.605469 27.929688 94.292969 28.097656 94.101562 28.304688 C 93.890625 28.535156 93.730469 28.769531 93.648438 29.078125 C 93.605469 29.238281 93.578125 29.40625 93.585938 29.578125 C 93.601562 29.902344 93.660156 30.175781 93.828125 30.457031 C 93.996094 30.746094 94.179688 30.90625 94.453125 31.085938 C 94.636719 31.207031 94.835938 31.269531 95.050781 31.277344 C 95.265625 31.328125 95.480469 31.316406 95.691406 31.25 C 95.902344 31.199219 96.085938 31.105469 96.238281 30.960938 C 96.351562 30.886719 96.445312 30.796875 96.53125 30.695312 C 96.558594 30.671875 96.589844 30.648438 96.621094 30.625 C 96.820312 30.421875 96.960938 30.1875 97.035156 29.910156 C 97.054688 29.769531 97.074219 29.625 97.09375 29.480469 C 97.089844 29.191406 97.015625 28.917969 96.871094 28.667969 Z M 96.871094 28.667969 " fill-opacity="1" fill-rule="nonzero"/><path fill="#8c94c8" d="M 68.328125 13.558594 C 66.683594 13.148438 65.082031 13.648438 63.792969 14.699219 C 63.121094 15.25 63.222656 16.410156 63.792969 16.980469 C 63.84375 17.027344 63.890625 17.070312 63.941406 17.113281 C 64.085938 17.363281 64.292969 17.585938 64.5625 17.753906 C 65.894531 18.574219 68.242188 18.621094 69.445312 17.527344 C 70.933594 16.175781 70.183594 14.023438 68.328125 13.558594 Z M 68.328125 13.558594 " fill-opacity="1" fill-rule="nonzero"/><path fill="#8c94c8" d="M 76.375 14.949219 C 76.070312 14.667969 75.667969 14.457031 75.238281 14.476562 C 75.167969 14.480469 75.105469 14.484375 75.039062 14.496094 C 74.949219 14.46875 74.859375 14.449219 74.765625 14.433594 C 74.480469 14.390625 74.199219 14.355469 73.910156 14.433594 C 73.574219 14.527344 73.289062 14.738281 73.074219 15.011719 C 72.898438 15.246094 72.796875 15.484375 72.761719 15.773438 C 72.71875 16.097656 72.742188 16.535156 72.949219 16.804688 C 73.195312 17.121094 73.363281 17.351562 73.722656 17.554688 C 74.050781 17.738281 74.375 17.8125 74.746094 17.839844 C 75.363281 17.890625 75.914062 17.617188 76.375 17.226562 C 76.671875 16.972656 76.84375 16.464844 76.84375 16.085938 C 76.84375 15.695312 76.671875 15.222656 76.375 14.949219 Z M 76.375 14.949219 " fill-opacity="1" fill-rule="nonzero"/><path fill="#8c94c8" d="M 52.730469 25.851562 C 52.363281 24.707031 51.269531 23.914062 50.0625 24.070312 C 48.839844 24.226562 48.359375 25.148438 47.585938 25.953125 C 47.433594 26.113281 47.324219 26.28125 47.25 26.453125 C 47.066406 26.671875 46.960938 26.90625 46.921875 27.140625 C 46.183594 28.25 45.632812 29.535156 45.632812 30.773438 C 45.632812 31.945312 46.570312 32.882812 47.738281 32.875 C 48.816406 32.871094 49.71875 32.113281 50.445312 31.390625 C 51.742188 30.109375 53.347656 27.777344 52.730469 25.851562 Z M 52.730469 25.851562 " fill-opacity="1" fill-rule="nonzero"/><path fill="#8c94c8" d="M 48.398438 36.464844 C 47.691406 35.546875 46.320312 35.300781 45.441406 36.15625 C 44.804688 36.777344 44.632812 37.632812 44.855469 38.457031 C 44.839844 38.660156 44.847656 38.863281 44.871094 39.0625 C 44.9375 39.589844 45.074219 39.992188 45.503906 40.328125 C 45.871094 40.613281 46.449219 40.804688 46.90625 40.617188 C 47.769531 40.265625 48.398438 39.71875 48.726562 38.820312 C 49.007812 38.042969 48.90625 37.125 48.398438 36.464844 Z M 48.398438 36.464844 " fill-opacity="1" fill-rule="nonzero"/><path fill="#8c94c8" d="M 52.871094 33.878906 C 52.859375 33.808594 52.847656 33.738281 52.832031 33.675781 C 52.730469 33.300781 52.441406 32.894531 52.09375 32.710938 C 51.71875 32.511719 51.265625 32.410156 50.855469 32.546875 C 50.445312 32.679688 50.128906 32.921875 49.894531 33.289062 C 49.671875 33.632812 49.503906 34.023438 49.386719 34.414062 C 49.242188 34.910156 49.371094 35.425781 49.675781 35.820312 C 49.992188 36.234375 50.421875 36.433594 50.9375 36.457031 C 51.128906 36.46875 51.339844 36.429688 51.527344 36.382812 C 51.707031 36.339844 51.894531 36.253906 52.054688 36.148438 C 52.277344 36.003906 52.433594 35.855469 52.59375 35.652344 C 52.78125 35.40625 52.835938 35.289062 52.957031 34.960938 C 53.070312 34.640625 53.007812 34.207031 52.871094 33.878906 Z M 52.871094 33.878906 " fill-opacity="1" fill-rule="nonzero"/></svg>