<svg xmlns="http://www.w3.org/2000/svg" xmlns:xlink="http://www.w3.org/1999/xlink" width="200" zoomAndPan="magnify" viewBox="0 0 150 112.499997" height="150" preserveAspectRatio="xMidYMid meet" version="1.0"><defs><clipPath id="e9b17714b6"><path d="M 11.53125 21.097656 L 36.917969 21.097656 L 36.917969 32 L 11.53125 32 Z M 11.53125 21.097656 " clip-rule="nonzero"/></clipPath><clipPath id="93cb95d775"><path d="M 19 28 L 34 28 L 34 36.03125 L 19 36.03125 Z M 19 28 " clip-rule="nonzero"/></clipPath><clipPath id="e23fe26afb"><path d="M 17 21.097656 L 35 21.097656 L 35 33 L 17 33 Z M 17 21.097656 " clip-rule="nonzero"/></clipPath><clipPath id="53bad9479c"><path d="M 36.917969 21.097656 L 62.304688 21.097656 L 62.304688 32 L 36.917969 32 Z M 36.917969 21.097656 " clip-rule="nonzero"/></clipPath><clipPath id="df202cd1a6"><path d="M 44 28 L 59 28 L 59 36.03125 L 44 36.03125 Z M 44 28 " clip-rule="nonzero"/></clipPath><clipPath id="57dee39b98"><path d="M 43 21.097656 L 60 21.097656 L 60 33 L 43 33 Z M 43 21.097656 " clip-rule="nonzero"/></clipPath><clipPath id="a539c254ce"><path d="M 62.304688 21.097656 L 87.695312 21.097656 L 87.695312 32 L 62.304688 32 Z M 62.304688 21.097656 " clip-rule="nonzero"/></clipPath><clipPath id="0d7f3482b4"><path d="M 70 28 L 85 28 L 85 36.03125 L 70 36.03125 Z M 70 28 " clip-rule="nonzero"/></clipPath><clipPath id="4def345027"><path d="M 68 21.097656 L 85 21.097656 L 85 33 L 68 33 Z M 68 21.097656 " clip-rule="nonzero"/></clipPath><clipPath id="6e38727c6a"><path d="M 87.695312 21.097656 L 113.082031 21.097656 L 113.082031 32 L 87.695312 32 Z M 87.695312 21.097656 " clip-rule="nonzero"/></clipPath><clipPath id="7524ae8d84"><path d="M 95 28 L 110 28 L 110 36.03125 L 95 36.03125 Z M 95 28 " clip-rule="nonzero"/></clipPath><clipPath id="9da0f06bd2"><path d="M 94 21.097656 L 111 21.097656 L 111 33 L 94 33 Z M 94 21.097656 " clip-rule="nonzero"/></clipPath><clipPath id="672cced0ba"><path d="M 113.082031 21.097656 L 138.46875 21.097656 L 138.46875 32 L 113.082031 32 Z M 113.082031 21.097656 " clip-rule="nonzero"/></clipPath><clipPath id="e38a1f9ff1"><path d="M 120 28 L 135 28 L 135 36.03125 L 120 36.03125 Z M 120 28 " clip-rule="nonzero"/></clipPath><clipPath id="fbecac1fb2"><path d="M 119 21.097656 L 136 21.097656 L 136 33 L 119 33 Z M 119 21.097656 " clip-rule="nonzero"/></clipPath><clipPath id="749bc18150"><path d="M 11.53125 49.160156 L 36.917969 49.160156 L 36.917969 61 L 11.53125 61 Z M 11.53125 49.160156 " clip-rule="nonzero"/></clipPath><clipPath id="7514117940"><path d="M 19 56 L 34 56 L 34 64.09375 L 19 64.09375 Z M 19 56 " clip-rule="nonzero"/></clipPath><clipPath id="2ebb6bdef4"><path d="M 17 49.160156 L 35 49.160156 L 35 61 L 17 61 Z M 17 49.160156 " clip-rule="nonzero"/></clipPath><clipPath id="2a8433a40b"><path d="M 36.917969 49.160156 L 62.304688 49.160156 L 62.304688 61 L 36.917969 61 Z M 36.917969 49.160156 " clip-rule="nonzero"/></clipPath><clipPath id="e64d62b20d"><path d="M 44 56 L 59 56 L 59 64.09375 L 44 64.09375 Z M 44 56 " clip-rule="nonzero"/></clipPath><clipPath id="aecffec3f8"><path d="M 43 49.160156 L 60 49.160156 L 60 61 L 43 61 Z M 43 49.160156 " clip-rule="nonzero"/></clipPath><clipPath id="cf3944cdf8"><path d="M 62.304688 49.160156 L 87.695312 49.160156 L 87.695312 61 L 62.304688 61 Z M 62.304688 49.160156 " clip-rule="nonzero"/></clipPath><clipPath id="cba6f7c6e1"><path d="M 70 56 L 85 56 L 85 64.09375 L 70 64.09375 Z M 70 56 " clip-rule="nonzero"/></clipPath><clipPath id="7167888d34"><path d="M 68 49.160156 L 85 49.160156 L 85 61 L 68 61 Z M 68 49.160156 " clip-rule="nonzero"/></clipPath><clipPath id="91375e2943"><path d="M 87.695312 49.160156 L 113.082031 49.160156 L 113.082031 61 L 87.695312 61 Z M 87.695312 49.160156 " clip-rule="nonzero"/></clipPath><clipPath id="adc74f321a"><path d="M 95 56 L 110 56 L 110 64.09375 L 95 64.09375 Z M 95 56 " clip-rule="nonzero"/></clipPath><clipPath id="0d40ebee85"><path d="M 94 49.160156 L 111 49.160156 L 111 61 L 94 61 Z M 94 49.160156 " clip-rule="nonzero"/></clipPath><clipPath id="8d456c017f"><path d="M 113.082031 49.160156 L 138.46875 49.160156 L 138.46875 61 L 113.082031 61 Z M 113.082031 49.160156 " clip-rule="nonzero"/></clipPath><clipPath id="0b72d55762"><path d="M 120 56 L 135 56 L 135 64.09375 L 120 64.09375 Z M 120 56 " clip-rule="nonzero"/></clipPath><clipPath id="45a1b764cf"><path d="M 119 49.160156 L 136 49.160156 L 136 61 L 119 61 Z M 119 49.160156 " clip-rule="nonzero"/></clipPath><clipPath id="01f7412904"><path d="M 27.480469 72.472656 L 58.84375 72.472656 L 58.84375 87 L 27.480469 87 Z M 27.480469 72.472656 " clip-rule="nonzero"/></clipPath><clipPath id="078b93a3c5"><path d="M 37 82 L 55 82 L 55 91.140625 L 37 91.140625 Z M 37 82 " clip-rule="nonzero"/></clipPath><clipPath id="47b48936e4"><path d="M 35 72.472656 L 56 72.472656 L 56 87 L 35 87 Z M 35 72.472656 " clip-rule="nonzero"/></clipPath><clipPath id="3c0327ff04"><path d="M 59.160156 72.472656 L 90.519531 72.472656 L 90.519531 87 L 59.160156 87 Z M 59.160156 72.472656 " clip-rule="nonzero"/></clipPath><clipPath id="ceddf68141"><path d="M 68 82 L 87 82 L 87 91.140625 L 68 91.140625 Z M 68 82 " clip-rule="nonzero"/></clipPath><clipPath id="71ffab0d4a"><path d="M 67 72.472656 L 87 72.472656 L 87 87 L 67 87 Z M 67 72.472656 " clip-rule="nonzero"/></clipPath><clipPath id="4bebd8db90"><path d="M 90.839844 72.472656 L 122.199219 72.472656 L 122.199219 87 L 90.839844 87 Z M 90.839844 72.472656 " clip-rule="nonzero"/></clipPath><clipPath id="772ebe4bf5"><path d="M 100 82 L 118 82 L 118 91.140625 L 100 91.140625 Z M 100 82 " clip-rule="nonzero"/></clipPath><clipPath id="2ac2cab361"><path d="M 98 72.472656 L 119 72.472656 L 119 87 L 98 87 Z M 98 72.472656 " clip-rule="nonzero"/></clipPath></defs><g clip-path="url(#e9b17714b6)"><path fill="#77b255" d="M 18.488281 24.597656 C 18.488281 31.59375 23.113281 31.476562 22.117188 31.761719 C 17.191406 33.1875 15.925781 26.347656 15.460938 26.347656 C 13.785156 26.347656 11.566406 26.046875 11.566406 24.597656 C 11.566406 23.148438 13.296875 21.097656 15.890625 21.097656 C 17.566406 21.097656 18.488281 23.148438 18.488281 24.597656 Z M 36.886719 30.792969 C 36.886719 31.578125 34.410156 30.269531 33.371094 30.792969 C 31.960938 31.507812 31.960938 30.15625 31.960938 29.371094 C 31.960938 28.585938 32.90625 28.660156 34.074219 28.660156 C 35.238281 28.660156 36.886719 30.007812 36.886719 30.792969 Z M 36.886719 30.792969 " fill-opacity="1" fill-rule="nonzero"/></g><g clip-path="url(#93cb95d775)"><path fill="#77b255" d="M 23.320312 34 C 23.320312 35.960938 22.421875 36.03125 21.3125 36.03125 C 20.203125 36.03125 19.300781 35.960938 19.300781 34 C 19.300781 33.652344 19.363281 33.265625 19.46875 32.871094 C 19.953125 31.027344 21.402344 28.917969 22.316406 28.917969 C 23.425781 28.917969 23.320312 32.035156 23.320312 34 Z M 29.351562 34 C 29.351562 35.960938 30.25 36.03125 31.359375 36.03125 C 32.46875 36.03125 33.371094 35.960938 33.371094 34 C 33.371094 33.652344 33.308594 33.265625 33.203125 32.871094 C 32.71875 31.027344 31.265625 28.917969 30.355469 28.917969 C 29.246094 28.917969 29.351562 32.035156 29.351562 34 Z M 29.351562 34 " fill-opacity="1" fill-rule="nonzero"/></g><g clip-path="url(#e23fe26afb)"><path fill="#3e721d" d="M 34.074219 29.628906 C 34.074219 32.472656 30.449219 32.472656 25.984375 32.472656 C 21.515625 32.472656 17.894531 32.472656 17.894531 29.628906 C 17.894531 24.917969 21.515625 21.097656 25.984375 21.097656 C 30.449219 21.097656 34.074219 24.917969 34.074219 29.628906 Z M 34.074219 29.628906 " fill-opacity="1" fill-rule="nonzero"/></g><path fill="#292f33" d="M 15.785156 23.230469 C 15.785156 23.425781 15.71875 23.59375 15.578125 23.734375 C 15.441406 23.871094 15.277344 23.941406 15.082031 23.941406 C 14.886719 23.941406 14.722656 23.871094 14.585938 23.734375 C 14.449219 23.59375 14.378906 23.425781 14.378906 23.230469 C 14.378906 23.035156 14.449219 22.867188 14.585938 22.726562 C 14.722656 22.589844 14.886719 22.519531 15.082031 22.519531 C 15.277344 22.519531 15.441406 22.589844 15.578125 22.726562 C 15.71875 22.867188 15.785156 23.035156 15.785156 23.230469 Z M 15.785156 23.230469 " fill-opacity="1" fill-rule="nonzero"/><path fill="#5c913b" d="M 28.210938 28.277344 C 28.210938 30.832031 27.214844 31.050781 25.984375 31.050781 C 24.753906 31.050781 23.757812 30.832031 23.757812 28.277344 C 23.757812 25.726562 24.753906 22.519531 25.984375 22.519531 C 27.214844 22.519531 28.210938 25.726562 28.210938 28.277344 Z M 32.664062 27.496094 C 33.277344 29.972656 32.113281 30.339844 30.882812 30.339844 C 29.652344 30.339844 29.101562 30.832031 29.101562 28.277344 C 29.101562 25.726562 28.316406 23.65625 29.546875 23.65625 C 30.777344 23.65625 31.960938 24.652344 32.664062 27.496094 Z M 22.867188 28.277344 C 22.867188 30.832031 22.3125 30.339844 21.082031 30.339844 C 19.855469 30.339844 18.691406 29.972656 19.300781 27.496094 C 20.003906 24.652344 21.589844 23.65625 22.820312 23.65625 C 24.050781 23.65625 22.867188 25.726562 22.867188 28.277344 Z M 22.867188 28.277344 " fill-opacity="1" fill-rule="nonzero"/><g clip-path="url(#53bad9479c)"><path fill="#77b255" d="M 43.875 24.597656 C 43.875 31.59375 48.5 31.476562 47.503906 31.761719 C 42.578125 33.1875 41.3125 26.347656 40.847656 26.347656 C 39.171875 26.347656 36.953125 26.046875 36.953125 24.597656 C 36.953125 23.148438 38.683594 21.097656 41.277344 21.097656 C 42.953125 21.097656 43.875 23.148438 43.875 24.597656 Z M 62.273438 30.792969 C 62.273438 31.578125 59.796875 30.269531 58.757812 30.792969 C 57.351562 31.507812 57.351562 30.15625 57.351562 29.371094 C 57.351562 28.585938 58.292969 28.660156 59.460938 28.660156 C 60.625 28.660156 62.273438 30.007812 62.273438 30.792969 Z M 62.273438 30.792969 " fill-opacity="1" fill-rule="nonzero"/></g><g clip-path="url(#df202cd1a6)"><path fill="#77b255" d="M 48.710938 34 C 48.710938 35.960938 47.808594 36.03125 46.699219 36.03125 C 45.589844 36.03125 44.6875 35.960938 44.6875 34 C 44.6875 33.652344 44.75 33.265625 44.855469 32.871094 C 45.339844 31.027344 46.789062 28.917969 47.703125 28.917969 C 48.8125 28.917969 48.710938 32.035156 48.710938 34 Z M 54.738281 34 C 54.738281 35.960938 55.636719 36.03125 56.746094 36.03125 C 57.855469 36.03125 58.757812 35.960938 58.757812 34 C 58.757812 33.652344 58.695312 33.265625 58.589844 32.871094 C 58.105469 31.027344 56.65625 28.917969 55.742188 28.917969 C 54.632812 28.917969 54.738281 32.035156 54.738281 34 Z M 54.738281 34 " fill-opacity="1" fill-rule="nonzero"/></g><g clip-path="url(#57dee39b98)"><path fill="#3e721d" d="M 59.460938 29.628906 C 59.460938 32.472656 55.839844 32.472656 51.371094 32.472656 C 46.902344 32.472656 43.28125 32.472656 43.28125 29.628906 C 43.28125 24.917969 46.902344 21.097656 51.371094 21.097656 C 55.839844 21.097656 59.460938 24.917969 59.460938 29.628906 Z M 59.460938 29.628906 " fill-opacity="1" fill-rule="nonzero"/></g><path fill="#292f33" d="M 41.171875 23.230469 C 41.171875 23.425781 41.105469 23.59375 40.964844 23.734375 C 40.828125 23.871094 40.664062 23.941406 40.46875 23.941406 C 40.273438 23.941406 40.109375 23.871094 39.972656 23.734375 C 39.835938 23.59375 39.765625 23.425781 39.765625 23.230469 C 39.765625 23.035156 39.835938 22.867188 39.972656 22.726562 C 40.109375 22.589844 40.273438 22.519531 40.46875 22.519531 C 40.664062 22.519531 40.828125 22.589844 40.964844 22.726562 C 41.105469 22.867188 41.171875 23.035156 41.171875 23.230469 Z M 41.171875 23.230469 " fill-opacity="1" fill-rule="nonzero"/><path fill="#5c913b" d="M 53.597656 28.277344 C 53.597656 30.832031 52.601562 31.050781 51.371094 31.050781 C 50.140625 31.050781 49.144531 30.832031 49.144531 28.277344 C 49.144531 25.726562 50.140625 22.519531 51.371094 22.519531 C 52.601562 22.519531 53.597656 25.726562 53.597656 28.277344 Z M 58.054688 27.496094 C 58.664062 29.972656 57.5 30.339844 56.269531 30.339844 C 55.042969 30.339844 54.488281 30.832031 54.488281 28.277344 C 54.488281 25.726562 53.703125 23.65625 54.933594 23.65625 C 56.164062 23.65625 57.351562 24.652344 58.054688 27.496094 Z M 48.253906 28.277344 C 48.253906 30.832031 47.699219 30.339844 46.472656 30.339844 C 45.242188 30.339844 44.078125 29.972656 44.6875 27.496094 C 45.394531 24.652344 46.976562 23.65625 48.207031 23.65625 C 49.4375 23.65625 48.253906 25.726562 48.253906 28.277344 Z M 48.253906 28.277344 " fill-opacity="1" fill-rule="nonzero"/><g clip-path="url(#a539c254ce)"><path fill="#77b255" d="M 69.261719 24.597656 C 69.261719 31.59375 73.886719 31.476562 72.890625 31.761719 C 67.964844 33.1875 66.699219 26.347656 66.234375 26.347656 C 64.5625 26.347656 62.339844 26.046875 62.339844 24.597656 C 62.339844 23.148438 64.070312 21.097656 66.667969 21.097656 C 68.339844 21.097656 69.261719 23.148438 69.261719 24.597656 Z M 87.660156 30.792969 C 87.660156 31.578125 85.1875 30.269531 84.144531 30.792969 C 82.738281 31.507812 82.738281 30.15625 82.738281 29.371094 C 82.738281 28.585938 83.679688 28.660156 84.847656 28.660156 C 86.011719 28.660156 87.660156 30.007812 87.660156 30.792969 Z M 87.660156 30.792969 " fill-opacity="1" fill-rule="nonzero"/></g><g clip-path="url(#0d7f3482b4)"><path fill="#77b255" d="M 74.097656 34 C 74.097656 35.960938 73.195312 36.03125 72.085938 36.03125 C 70.976562 36.03125 70.078125 35.960938 70.078125 34 C 70.078125 33.652344 70.136719 33.265625 70.242188 32.871094 C 70.726562 31.027344 72.179688 28.917969 73.089844 28.917969 C 74.199219 28.917969 74.097656 32.035156 74.097656 34 Z M 80.125 34 C 80.125 35.960938 81.023438 36.03125 82.132812 36.03125 C 83.242188 36.03125 84.144531 35.960938 84.144531 34 C 84.144531 33.652344 84.082031 33.265625 83.980469 32.871094 C 83.492188 31.027344 82.042969 28.917969 81.128906 28.917969 C 80.019531 28.917969 80.125 32.035156 80.125 34 Z M 80.125 34 " fill-opacity="1" fill-rule="nonzero"/></g><g clip-path="url(#4def345027)"><path fill="#3e721d" d="M 84.847656 29.628906 C 84.847656 32.472656 81.226562 32.472656 76.757812 32.472656 C 72.292969 32.472656 68.667969 32.472656 68.667969 29.628906 C 68.667969 24.917969 72.292969 21.097656 76.757812 21.097656 C 81.226562 21.097656 84.847656 24.917969 84.847656 29.628906 Z M 84.847656 29.628906 " fill-opacity="1" fill-rule="nonzero"/></g><path fill="#292f33" d="M 66.558594 23.230469 C 66.558594 23.425781 66.492188 23.59375 66.355469 23.734375 C 66.214844 23.871094 66.050781 23.941406 65.855469 23.941406 C 65.664062 23.941406 65.496094 23.871094 65.359375 23.734375 C 65.222656 23.59375 65.152344 23.425781 65.152344 23.230469 C 65.152344 23.035156 65.222656 22.867188 65.359375 22.726562 C 65.496094 22.589844 65.664062 22.519531 65.855469 22.519531 C 66.050781 22.519531 66.214844 22.589844 66.355469 22.726562 C 66.492188 22.867188 66.558594 23.035156 66.558594 23.230469 Z M 66.558594 23.230469 " fill-opacity="1" fill-rule="nonzero"/><path fill="#5c913b" d="M 78.984375 28.277344 C 78.984375 30.832031 77.988281 31.050781 76.757812 31.050781 C 75.527344 31.050781 74.53125 30.832031 74.53125 28.277344 C 74.53125 25.726562 75.527344 22.519531 76.757812 22.519531 C 77.988281 22.519531 78.984375 25.726562 78.984375 28.277344 Z M 83.441406 27.496094 C 84.054688 29.972656 82.890625 30.339844 81.660156 30.339844 C 80.429688 30.339844 79.878906 30.832031 79.878906 28.277344 C 79.878906 25.726562 79.09375 23.65625 80.320312 23.65625 C 81.550781 23.65625 82.738281 24.652344 83.441406 27.496094 Z M 73.640625 28.277344 C 73.640625 30.832031 73.089844 30.339844 71.859375 30.339844 C 70.628906 30.339844 69.464844 29.972656 70.078125 27.496094 C 70.78125 24.652344 72.363281 23.65625 73.59375 23.65625 C 74.824219 23.65625 73.640625 25.726562 73.640625 28.277344 Z M 73.640625 28.277344 " fill-opacity="1" fill-rule="nonzero"/><g clip-path="url(#6e38727c6a)"><path fill="#77b255" d="M 94.648438 24.597656 C 94.648438 31.59375 99.273438 31.476562 98.277344 31.761719 C 93.355469 33.1875 92.085938 26.347656 91.621094 26.347656 C 89.949219 26.347656 87.726562 26.046875 87.726562 24.597656 C 87.726562 23.148438 89.457031 21.097656 92.054688 21.097656 C 93.726562 21.097656 94.648438 23.148438 94.648438 24.597656 Z M 113.046875 30.792969 C 113.046875 31.578125 110.574219 30.269531 109.53125 30.792969 C 108.125 31.507812 108.125 30.15625 108.125 29.371094 C 108.125 28.585938 109.070312 28.660156 110.234375 28.660156 C 111.398438 28.660156 113.046875 30.007812 113.046875 30.792969 Z M 113.046875 30.792969 " fill-opacity="1" fill-rule="nonzero"/></g><g clip-path="url(#7524ae8d84)"><path fill="#77b255" d="M 99.484375 34 C 99.484375 35.960938 98.582031 36.03125 97.472656 36.03125 C 96.363281 36.03125 95.464844 35.960938 95.464844 34 C 95.464844 33.652344 95.523438 33.265625 95.628906 32.871094 C 96.113281 31.027344 97.566406 28.917969 98.476562 28.917969 C 99.589844 28.917969 99.484375 32.035156 99.484375 34 Z M 105.511719 34 C 105.511719 35.960938 106.410156 36.03125 107.519531 36.03125 C 108.632812 36.03125 109.53125 35.960938 109.53125 34 C 109.53125 33.652344 109.472656 33.265625 109.367188 32.871094 C 108.878906 31.027344 107.429688 28.917969 106.515625 28.917969 C 105.40625 28.917969 105.511719 32.035156 105.511719 34 Z M 105.511719 34 " fill-opacity="1" fill-rule="nonzero"/></g><g clip-path="url(#9da0f06bd2)"><path fill="#3e721d" d="M 110.234375 29.628906 C 110.234375 32.472656 106.613281 32.472656 102.144531 32.472656 C 97.679688 32.472656 94.058594 32.472656 94.058594 29.628906 C 94.058594 24.917969 97.679688 21.097656 102.144531 21.097656 C 106.613281 21.097656 110.234375 24.917969 110.234375 29.628906 Z M 110.234375 29.628906 " fill-opacity="1" fill-rule="nonzero"/></g><path fill="#292f33" d="M 91.945312 23.230469 C 91.945312 23.425781 91.878906 23.59375 91.742188 23.734375 C 91.605469 23.871094 91.4375 23.941406 91.242188 23.941406 C 91.050781 23.941406 90.882812 23.871094 90.746094 23.734375 C 90.609375 23.59375 90.539062 23.425781 90.539062 23.230469 C 90.539062 23.035156 90.609375 22.867188 90.746094 22.726562 C 90.882812 22.589844 91.050781 22.519531 91.242188 22.519531 C 91.4375 22.519531 91.605469 22.589844 91.742188 22.726562 C 91.878906 22.867188 91.945312 23.035156 91.945312 23.230469 Z M 91.945312 23.230469 " fill-opacity="1" fill-rule="nonzero"/><path fill="#5c913b" d="M 104.371094 28.277344 C 104.371094 30.832031 103.375 31.050781 102.144531 31.050781 C 100.914062 31.050781 99.917969 30.832031 99.917969 28.277344 C 99.917969 25.726562 100.914062 22.519531 102.144531 22.519531 C 103.375 22.519531 104.371094 25.726562 104.371094 28.277344 Z M 108.828125 27.496094 C 109.441406 29.972656 108.277344 30.339844 107.046875 30.339844 C 105.816406 30.339844 105.265625 30.832031 105.265625 28.277344 C 105.265625 25.726562 104.480469 23.65625 105.710938 23.65625 C 106.9375 23.65625 108.125 24.652344 108.828125 27.496094 Z M 99.027344 28.277344 C 99.027344 30.832031 98.476562 30.339844 97.246094 30.339844 C 96.015625 30.339844 94.851562 29.972656 95.464844 27.496094 C 96.167969 24.652344 97.75 23.65625 98.980469 23.65625 C 100.210938 23.65625 99.027344 25.726562 99.027344 28.277344 Z M 99.027344 28.277344 " fill-opacity="1" fill-rule="nonzero"/><g clip-path="url(#672cced0ba)"><path fill="#77b255" d="M 120.035156 24.597656 C 120.035156 31.59375 124.660156 31.476562 123.664062 31.761719 C 118.742188 33.1875 117.472656 26.347656 117.007812 26.347656 C 115.335938 26.347656 113.113281 26.046875 113.113281 24.597656 C 113.113281 23.148438 114.84375 21.097656 117.441406 21.097656 C 119.113281 21.097656 120.035156 23.148438 120.035156 24.597656 Z M 138.433594 30.792969 C 138.433594 31.578125 135.960938 30.269531 134.917969 30.792969 C 133.511719 31.507812 133.511719 30.15625 133.511719 29.371094 C 133.511719 28.585938 134.457031 28.660156 135.621094 28.660156 C 136.785156 28.660156 138.433594 30.007812 138.433594 30.792969 Z M 138.433594 30.792969 " fill-opacity="1" fill-rule="nonzero"/></g><g clip-path="url(#e38a1f9ff1)"><path fill="#77b255" d="M 124.871094 34 C 124.871094 35.960938 123.972656 36.03125 122.859375 36.03125 C 121.75 36.03125 120.851562 35.960938 120.851562 34 C 120.851562 33.652344 120.910156 33.265625 121.015625 32.871094 C 121.5 31.027344 122.953125 28.917969 123.867188 28.917969 C 124.976562 28.917969 124.871094 32.035156 124.871094 34 Z M 130.898438 34 C 130.898438 35.960938 131.796875 36.03125 132.90625 36.03125 C 134.019531 36.03125 134.917969 35.960938 134.917969 34 C 134.917969 33.652344 134.859375 33.265625 134.753906 32.871094 C 134.265625 31.027344 132.816406 28.917969 131.902344 28.917969 C 130.792969 28.917969 130.898438 32.035156 130.898438 34 Z M 130.898438 34 " fill-opacity="1" fill-rule="nonzero"/></g><g clip-path="url(#fbecac1fb2)"><path fill="#3e721d" d="M 135.621094 29.628906 C 135.621094 32.472656 132 32.472656 127.53125 32.472656 C 123.066406 32.472656 119.445312 32.472656 119.445312 29.628906 C 119.445312 24.917969 123.066406 21.097656 127.53125 21.097656 C 132 21.097656 135.621094 24.917969 135.621094 29.628906 Z M 135.621094 29.628906 " fill-opacity="1" fill-rule="nonzero"/></g><path fill="#292f33" d="M 117.335938 23.230469 C 117.335938 23.425781 117.265625 23.59375 117.128906 23.734375 C 116.992188 23.871094 116.824219 23.941406 116.628906 23.941406 C 116.4375 23.941406 116.269531 23.871094 116.132812 23.734375 C 115.996094 23.59375 115.925781 23.425781 115.925781 23.230469 C 115.925781 23.035156 115.996094 22.867188 116.132812 22.726562 C 116.269531 22.589844 116.4375 22.519531 116.628906 22.519531 C 116.824219 22.519531 116.992188 22.589844 117.128906 22.726562 C 117.265625 22.867188 117.335938 23.035156 117.335938 23.230469 Z M 117.335938 23.230469 " fill-opacity="1" fill-rule="nonzero"/><path fill="#5c913b" d="M 129.761719 28.277344 C 129.761719 30.832031 128.761719 31.050781 127.53125 31.050781 C 126.300781 31.050781 125.304688 30.832031 125.304688 28.277344 C 125.304688 25.726562 126.300781 22.519531 127.53125 22.519531 C 128.761719 22.519531 129.761719 25.726562 129.761719 28.277344 Z M 134.214844 27.496094 C 134.828125 29.972656 133.664062 30.339844 132.433594 30.339844 C 131.203125 30.339844 130.652344 30.832031 130.652344 28.277344 C 130.652344 25.726562 129.867188 23.65625 131.097656 23.65625 C 132.324219 23.65625 133.511719 24.652344 134.214844 27.496094 Z M 124.414062 28.277344 C 124.414062 30.832031 123.863281 30.339844 122.632812 30.339844 C 121.402344 30.339844 120.238281 29.972656 120.851562 27.496094 C 121.554688 24.652344 123.136719 23.65625 124.367188 23.65625 C 125.597656 23.65625 124.414062 25.726562 124.414062 28.277344 Z M 124.414062 28.277344 " fill-opacity="1" fill-rule="nonzero"/><g clip-path="url(#749bc18150)"><path fill="#77b255" d="M 18.488281 52.664062 C 18.488281 59.660156 23.113281 59.539062 22.117188 59.828125 C 17.191406 61.25 15.925781 54.410156 15.460938 54.410156 C 13.785156 54.410156 11.566406 54.109375 11.566406 52.664062 C 11.566406 51.210938 13.296875 49.160156 15.890625 49.160156 C 17.566406 49.160156 18.488281 51.210938 18.488281 52.664062 Z M 36.886719 58.859375 C 36.886719 59.644531 34.410156 58.332031 33.371094 58.859375 C 31.960938 59.570312 31.960938 58.222656 31.960938 57.4375 C 31.960938 56.652344 32.90625 56.726562 34.074219 56.726562 C 35.238281 56.726562 36.886719 58.074219 36.886719 58.859375 Z M 36.886719 58.859375 " fill-opacity="1" fill-rule="nonzero"/></g><g clip-path="url(#7514117940)"><path fill="#77b255" d="M 23.320312 62.0625 C 23.320312 64.027344 22.421875 64.09375 21.3125 64.09375 C 20.203125 64.09375 19.300781 64.027344 19.300781 62.0625 C 19.300781 61.714844 19.363281 61.332031 19.46875 60.933594 C 19.953125 59.09375 21.402344 56.984375 22.316406 56.984375 C 23.425781 56.984375 23.320312 60.101562 23.320312 62.0625 Z M 29.351562 62.0625 C 29.351562 64.027344 30.25 64.09375 31.359375 64.09375 C 32.46875 64.09375 33.371094 64.027344 33.371094 62.0625 C 33.371094 61.714844 33.308594 61.332031 33.203125 60.933594 C 32.71875 59.09375 31.265625 56.984375 30.355469 56.984375 C 29.246094 56.984375 29.351562 60.101562 29.351562 62.0625 Z M 29.351562 62.0625 " fill-opacity="1" fill-rule="nonzero"/></g><g clip-path="url(#2ebb6bdef4)"><path fill="#3e721d" d="M 34.074219 57.695312 C 34.074219 60.539062 30.449219 60.539062 25.984375 60.539062 C 21.515625 60.539062 17.894531 60.539062 17.894531 57.695312 C 17.894531 52.984375 21.515625 49.160156 25.984375 49.160156 C 30.449219 49.160156 34.074219 52.984375 34.074219 57.695312 Z M 34.074219 57.695312 " fill-opacity="1" fill-rule="nonzero"/></g><path fill="#292f33" d="M 15.785156 51.296875 C 15.785156 51.492188 15.71875 51.660156 15.578125 51.796875 C 15.441406 51.9375 15.277344 52.007812 15.082031 52.007812 C 14.886719 52.007812 14.722656 51.9375 14.585938 51.796875 C 14.449219 51.660156 14.378906 51.492188 14.378906 51.296875 C 14.378906 51.097656 14.449219 50.929688 14.585938 50.792969 C 14.722656 50.652344 14.886719 50.585938 15.082031 50.585938 C 15.277344 50.585938 15.441406 50.652344 15.578125 50.792969 C 15.71875 50.929688 15.785156 51.097656 15.785156 51.296875 Z M 15.785156 51.296875 " fill-opacity="1" fill-rule="nonzero"/><path fill="#5c913b" d="M 28.210938 56.34375 C 28.210938 58.898438 27.214844 59.117188 25.984375 59.117188 C 24.753906 59.117188 23.757812 58.898438 23.757812 56.34375 C 23.757812 53.792969 24.753906 50.585938 25.984375 50.585938 C 27.214844 50.585938 28.210938 53.792969 28.210938 56.34375 Z M 32.664062 55.5625 C 33.277344 58.039062 32.113281 58.40625 30.882812 58.40625 C 29.652344 58.40625 29.101562 58.898438 29.101562 56.34375 C 29.101562 53.792969 28.316406 51.722656 29.546875 51.722656 C 30.777344 51.722656 31.960938 52.71875 32.664062 55.5625 Z M 22.867188 56.34375 C 22.867188 58.898438 22.3125 58.40625 21.082031 58.40625 C 19.855469 58.40625 18.691406 58.039062 19.300781 55.5625 C 20.003906 52.71875 21.589844 51.722656 22.820312 51.722656 C 24.050781 51.722656 22.867188 53.792969 22.867188 56.34375 Z M 22.867188 56.34375 " fill-opacity="1" fill-rule="nonzero"/><g clip-path="url(#2a8433a40b)"><path fill="#77b255" d="M 43.875 52.664062 C 43.875 59.660156 48.5 59.539062 47.503906 59.828125 C 42.578125 61.25 41.3125 54.410156 40.847656 54.410156 C 39.171875 54.410156 36.953125 54.109375 36.953125 52.664062 C 36.953125 51.210938 38.683594 49.160156 41.277344 49.160156 C 42.953125 49.160156 43.875 51.210938 43.875 52.664062 Z M 62.273438 58.859375 C 62.273438 59.644531 59.796875 58.332031 58.757812 58.859375 C 57.351562 59.570312 57.351562 58.222656 57.351562 57.4375 C 57.351562 56.652344 58.292969 56.726562 59.460938 56.726562 C 60.625 56.726562 62.273438 58.074219 62.273438 58.859375 Z M 62.273438 58.859375 " fill-opacity="1" fill-rule="nonzero"/></g><g clip-path="url(#e64d62b20d)"><path fill="#77b255" d="M 48.710938 62.0625 C 48.710938 64.027344 47.808594 64.09375 46.699219 64.09375 C 45.589844 64.09375 44.6875 64.027344 44.6875 62.0625 C 44.6875 61.714844 44.75 61.332031 44.855469 60.933594 C 45.339844 59.09375 46.789062 56.984375 47.703125 56.984375 C 48.8125 56.984375 48.710938 60.101562 48.710938 62.0625 Z M 54.738281 62.0625 C 54.738281 64.027344 55.636719 64.09375 56.746094 64.09375 C 57.855469 64.09375 58.757812 64.027344 58.757812 62.0625 C 58.757812 61.714844 58.695312 61.332031 58.589844 60.933594 C 58.105469 59.09375 56.65625 56.984375 55.742188 56.984375 C 54.632812 56.984375 54.738281 60.101562 54.738281 62.0625 Z M 54.738281 62.0625 " fill-opacity="1" fill-rule="nonzero"/></g><g clip-path="url(#aecffec3f8)"><path fill="#3e721d" d="M 59.460938 57.695312 C 59.460938 60.539062 55.839844 60.539062 51.371094 60.539062 C 46.902344 60.539062 43.28125 60.539062 43.28125 57.695312 C 43.28125 52.984375 46.902344 49.160156 51.371094 49.160156 C 55.839844 49.160156 59.460938 52.984375 59.460938 57.695312 Z M 59.460938 57.695312 " fill-opacity="1" fill-rule="nonzero"/></g><path fill="#292f33" d="M 41.171875 51.296875 C 41.171875 51.492188 41.105469 51.660156 40.964844 51.796875 C 40.828125 51.9375 40.664062 52.007812 40.46875 52.007812 C 40.273438 52.007812 40.109375 51.9375 39.972656 51.796875 C 39.835938 51.660156 39.765625 51.492188 39.765625 51.296875 C 39.765625 51.097656 39.835938 50.929688 39.972656 50.792969 C 40.109375 50.652344 40.273438 50.585938 40.46875 50.585938 C 40.664062 50.585938 40.828125 50.652344 40.964844 50.792969 C 41.105469 50.929688 41.171875 51.097656 41.171875 51.296875 Z M 41.171875 51.296875 " fill-opacity="1" fill-rule="nonzero"/><path fill="#5c913b" d="M 53.597656 56.34375 C 53.597656 58.898438 52.601562 59.117188 51.371094 59.117188 C 50.140625 59.117188 49.144531 58.898438 49.144531 56.34375 C 49.144531 53.792969 50.140625 50.585938 51.371094 50.585938 C 52.601562 50.585938 53.597656 53.792969 53.597656 56.34375 Z M 58.054688 55.5625 C 58.664062 58.039062 57.5 58.40625 56.269531 58.40625 C 55.042969 58.40625 54.488281 58.898438 54.488281 56.34375 C 54.488281 53.792969 53.703125 51.722656 54.933594 51.722656 C 56.164062 51.722656 57.351562 52.71875 58.054688 55.5625 Z M 48.253906 56.34375 C 48.253906 58.898438 47.699219 58.40625 46.472656 58.40625 C 45.242188 58.40625 44.078125 58.039062 44.6875 55.5625 C 45.394531 52.71875 46.976562 51.722656 48.207031 51.722656 C 49.4375 51.722656 48.253906 53.792969 48.253906 56.34375 Z M 48.253906 56.34375 " fill-opacity="1" fill-rule="nonzero"/><g clip-path="url(#cf3944cdf8)"><path fill="#77b255" d="M 69.261719 52.664062 C 69.261719 59.660156 73.886719 59.539062 72.890625 59.828125 C 67.964844 61.25 66.699219 54.410156 66.234375 54.410156 C 64.5625 54.410156 62.339844 54.109375 62.339844 52.664062 C 62.339844 51.210938 64.070312 49.160156 66.667969 49.160156 C 68.339844 49.160156 69.261719 51.210938 69.261719 52.664062 Z M 87.660156 58.859375 C 87.660156 59.644531 85.1875 58.332031 84.144531 58.859375 C 82.738281 59.570312 82.738281 58.222656 82.738281 57.4375 C 82.738281 56.652344 83.679688 56.726562 84.847656 56.726562 C 86.011719 56.726562 87.660156 58.074219 87.660156 58.859375 Z M 87.660156 58.859375 " fill-opacity="1" fill-rule="nonzero"/></g><g clip-path="url(#cba6f7c6e1)"><path fill="#77b255" d="M 74.097656 62.0625 C 74.097656 64.027344 73.195312 64.09375 72.085938 64.09375 C 70.976562 64.09375 70.078125 64.027344 70.078125 62.0625 C 70.078125 61.714844 70.136719 61.332031 70.242188 60.933594 C 70.726562 59.09375 72.179688 56.984375 73.089844 56.984375 C 74.199219 56.984375 74.097656 60.101562 74.097656 62.0625 Z M 80.125 62.0625 C 80.125 64.027344 81.023438 64.09375 82.132812 64.09375 C 83.242188 64.09375 84.144531 64.027344 84.144531 62.0625 C 84.144531 61.714844 84.082031 61.332031 83.980469 60.933594 C 83.492188 59.09375 82.042969 56.984375 81.128906 56.984375 C 80.019531 56.984375 80.125 60.101562 80.125 62.0625 Z M 80.125 62.0625 " fill-opacity="1" fill-rule="nonzero"/></g><g clip-path="url(#7167888d34)"><path fill="#3e721d" d="M 84.847656 57.695312 C 84.847656 60.539062 81.226562 60.539062 76.757812 60.539062 C 72.292969 60.539062 68.667969 60.539062 68.667969 57.695312 C 68.667969 52.984375 72.292969 49.160156 76.757812 49.160156 C 81.226562 49.160156 84.847656 52.984375 84.847656 57.695312 Z M 84.847656 57.695312 " fill-opacity="1" fill-rule="nonzero"/></g><path fill="#292f33" d="M 66.558594 51.296875 C 66.558594 51.492188 66.492188 51.660156 66.355469 51.796875 C 66.214844 51.9375 66.050781 52.007812 65.855469 52.007812 C 65.664062 52.007812 65.496094 51.9375 65.359375 51.796875 C 65.222656 51.660156 65.152344 51.492188 65.152344 51.296875 C 65.152344 51.097656 65.222656 50.929688 65.359375 50.792969 C 65.496094 50.652344 65.664062 50.585938 65.855469 50.585938 C 66.050781 50.585938 66.214844 50.652344 66.355469 50.792969 C 66.492188 50.929688 66.558594 51.097656 66.558594 51.296875 Z M 66.558594 51.296875 " fill-opacity="1" fill-rule="nonzero"/><path fill="#5c913b" d="M 78.984375 56.34375 C 78.984375 58.898438 77.988281 59.117188 76.757812 59.117188 C 75.527344 59.117188 74.53125 58.898438 74.53125 56.34375 C 74.53125 53.792969 75.527344 50.585938 76.757812 50.585938 C 77.988281 50.585938 78.984375 53.792969 78.984375 56.34375 Z M 83.441406 55.5625 C 84.054688 58.039062 82.890625 58.40625 81.660156 58.40625 C 80.429688 58.40625 79.878906 58.898438 79.878906 56.34375 C 79.878906 53.792969 79.09375 51.722656 80.320312 51.722656 C 81.550781 51.722656 82.738281 52.71875 83.441406 55.5625 Z M 73.640625 56.34375 C 73.640625 58.898438 73.089844 58.40625 71.859375 58.40625 C 70.628906 58.40625 69.464844 58.039062 70.078125 55.5625 C 70.78125 52.71875 72.363281 51.722656 73.59375 51.722656 C 74.824219 51.722656 73.640625 53.792969 73.640625 56.34375 Z M 73.640625 56.34375 " fill-opacity="1" fill-rule="nonzero"/><g clip-path="url(#91375e2943)"><path fill="#77b255" d="M 94.648438 52.664062 C 94.648438 59.660156 99.273438 59.539062 98.277344 59.828125 C 93.355469 61.25 92.085938 54.410156 91.621094 54.410156 C 89.949219 54.410156 87.726562 54.109375 87.726562 52.664062 C 87.726562 51.210938 89.457031 49.160156 92.054688 49.160156 C 93.726562 49.160156 94.648438 51.210938 94.648438 52.664062 Z M 113.046875 58.859375 C 113.046875 59.644531 110.574219 58.332031 109.53125 58.859375 C 108.125 59.570312 108.125 58.222656 108.125 57.4375 C 108.125 56.652344 109.070312 56.726562 110.234375 56.726562 C 111.398438 56.726562 113.046875 58.074219 113.046875 58.859375 Z M 113.046875 58.859375 " fill-opacity="1" fill-rule="nonzero"/></g><g clip-path="url(#adc74f321a)"><path fill="#77b255" d="M 99.484375 62.0625 C 99.484375 64.027344 98.582031 64.09375 97.472656 64.09375 C 96.363281 64.09375 95.464844 64.027344 95.464844 62.0625 C 95.464844 61.714844 95.523438 61.332031 95.628906 60.933594 C 96.113281 59.09375 97.566406 56.984375 98.476562 56.984375 C 99.589844 56.984375 99.484375 60.101562 99.484375 62.0625 Z M 105.511719 62.0625 C 105.511719 64.027344 106.410156 64.09375 107.519531 64.09375 C 108.632812 64.09375 109.53125 64.027344 109.53125 62.0625 C 109.53125 61.714844 109.472656 61.332031 109.367188 60.933594 C 108.878906 59.09375 107.429688 56.984375 106.515625 56.984375 C 105.40625 56.984375 105.511719 60.101562 105.511719 62.0625 Z M 105.511719 62.0625 " fill-opacity="1" fill-rule="nonzero"/></g><g clip-path="url(#0d40ebee85)"><path fill="#3e721d" d="M 110.234375 57.695312 C 110.234375 60.539062 106.613281 60.539062 102.144531 60.539062 C 97.679688 60.539062 94.058594 60.539062 94.058594 57.695312 C 94.058594 52.984375 97.679688 49.160156 102.144531 49.160156 C 106.613281 49.160156 110.234375 52.984375 110.234375 57.695312 Z M 110.234375 57.695312 " fill-opacity="1" fill-rule="nonzero"/></g><path fill="#292f33" d="M 91.945312 51.296875 C 91.945312 51.492188 91.878906 51.660156 91.742188 51.796875 C 91.605469 51.9375 91.4375 52.007812 91.242188 52.007812 C 91.050781 52.007812 90.882812 51.9375 90.746094 51.796875 C 90.609375 51.660156 90.539062 51.492188 90.539062 51.296875 C 90.539062 51.097656 90.609375 50.929688 90.746094 50.792969 C 90.882812 50.652344 91.050781 50.585938 91.242188 50.585938 C 91.4375 50.585938 91.605469 50.652344 91.742188 50.792969 C 91.878906 50.929688 91.945312 51.097656 91.945312 51.296875 Z M 91.945312 51.296875 " fill-opacity="1" fill-rule="nonzero"/><path fill="#5c913b" d="M 104.371094 56.34375 C 104.371094 58.898438 103.375 59.117188 102.144531 59.117188 C 100.914062 59.117188 99.917969 58.898438 99.917969 56.34375 C 99.917969 53.792969 100.914062 50.585938 102.144531 50.585938 C 103.375 50.585938 104.371094 53.792969 104.371094 56.34375 Z M 108.828125 55.5625 C 109.441406 58.039062 108.277344 58.40625 107.046875 58.40625 C 105.816406 58.40625 105.265625 58.898438 105.265625 56.34375 C 105.265625 53.792969 104.480469 51.722656 105.710938 51.722656 C 106.9375 51.722656 108.125 52.71875 108.828125 55.5625 Z M 99.027344 56.34375 C 99.027344 58.898438 98.476562 58.40625 97.246094 58.40625 C 96.015625 58.40625 94.851562 58.039062 95.464844 55.5625 C 96.167969 52.71875 97.75 51.722656 98.980469 51.722656 C 100.210938 51.722656 99.027344 53.792969 99.027344 56.34375 Z M 99.027344 56.34375 " fill-opacity="1" fill-rule="nonzero"/><g clip-path="url(#8d456c017f)"><path fill="#77b255" d="M 120.035156 52.664062 C 120.035156 59.660156 124.660156 59.539062 123.664062 59.828125 C 118.742188 61.25 117.472656 54.410156 117.007812 54.410156 C 115.335938 54.410156 113.113281 54.109375 113.113281 52.664062 C 113.113281 51.210938 114.84375 49.160156 117.441406 49.160156 C 119.113281 49.160156 120.035156 51.210938 120.035156 52.664062 Z M 138.433594 58.859375 C 138.433594 59.644531 135.960938 58.332031 134.917969 58.859375 C 133.511719 59.570312 133.511719 58.222656 133.511719 57.4375 C 133.511719 56.652344 134.457031 56.726562 135.621094 56.726562 C 136.785156 56.726562 138.433594 58.074219 138.433594 58.859375 Z M 138.433594 58.859375 " fill-opacity="1" fill-rule="nonzero"/></g><g clip-path="url(#0b72d55762)"><path fill="#77b255" d="M 124.871094 62.0625 C 124.871094 64.027344 123.972656 64.09375 122.859375 64.09375 C 121.75 64.09375 120.851562 64.027344 120.851562 62.0625 C 120.851562 61.714844 120.910156 61.332031 121.015625 60.933594 C 121.5 59.09375 122.953125 56.984375 123.867188 56.984375 C 124.976562 56.984375 124.871094 60.101562 124.871094 62.0625 Z M 130.898438 62.0625 C 130.898438 64.027344 131.796875 64.09375 132.90625 64.09375 C 134.019531 64.09375 134.917969 64.027344 134.917969 62.0625 C 134.917969 61.714844 134.859375 61.332031 134.753906 60.933594 C 134.265625 59.09375 132.816406 56.984375 131.902344 56.984375 C 130.792969 56.984375 130.898438 60.101562 130.898438 62.0625 Z M 130.898438 62.0625 " fill-opacity="1" fill-rule="nonzero"/></g><g clip-path="url(#45a1b764cf)"><path fill="#3e721d" d="M 135.621094 57.695312 C 135.621094 60.539062 132 60.539062 127.53125 60.539062 C 123.066406 60.539062 119.445312 60.539062 119.445312 57.695312 C 119.445312 52.984375 123.066406 49.160156 127.53125 49.160156 C 132 49.160156 135.621094 52.984375 135.621094 57.695312 Z M 135.621094 57.695312 " fill-opacity="1" fill-rule="nonzero"/></g><path fill="#292f33" d="M 117.335938 51.296875 C 117.335938 51.492188 117.265625 51.660156 117.128906 51.796875 C 116.992188 51.9375 116.824219 52.007812 116.628906 52.007812 C 116.4375 52.007812 116.269531 51.9375 116.132812 51.796875 C 115.996094 51.660156 115.925781 51.492188 115.925781 51.296875 C 115.925781 51.097656 115.996094 50.929688 116.132812 50.792969 C 116.269531 50.652344 116.4375 50.585938 116.628906 50.585938 C 116.824219 50.585938 116.992188 50.652344 117.128906 50.792969 C 117.265625 50.929688 117.335938 51.097656 117.335938 51.296875 Z M 117.335938 51.296875 " fill-opacity="1" fill-rule="nonzero"/><path fill="#5c913b" d="M 129.761719 56.34375 C 129.761719 58.898438 128.761719 59.117188 127.53125 59.117188 C 126.300781 59.117188 125.304688 58.898438 125.304688 56.34375 C 125.304688 53.792969 126.300781 50.585938 127.53125 50.585938 C 128.761719 50.585938 129.761719 53.792969 129.761719 56.34375 Z M 134.214844 55.5625 C 134.828125 58.039062 133.664062 58.40625 132.433594 58.40625 C 131.203125 58.40625 130.652344 58.898438 130.652344 56.34375 C 130.652344 53.792969 129.867188 51.722656 131.097656 51.722656 C 132.324219 51.722656 133.511719 52.71875 134.214844 55.5625 Z M 124.414062 56.34375 C 124.414062 58.898438 123.863281 58.40625 122.632812 58.40625 C 121.402344 58.40625 120.238281 58.039062 120.851562 55.5625 C 121.554688 52.71875 123.136719 51.722656 124.367188 51.722656 C 125.597656 51.722656 124.414062 53.792969 124.414062 56.34375 Z M 124.414062 56.34375 " fill-opacity="1" fill-rule="nonzero"/><g clip-path="url(#01f7412904)"><path fill="#77b255" d="M 36.078125 76.851562 C 36.078125 85.597656 41.789062 85.449219 40.558594 85.808594 C 34.476562 87.585938 32.910156 79.035156 32.335938 79.035156 C 30.273438 79.035156 27.527344 78.660156 27.527344 76.851562 C 27.527344 75.039062 29.664062 72.472656 32.871094 72.472656 C 34.9375 72.472656 36.078125 75.039062 36.078125 76.851562 Z M 58.796875 84.597656 C 58.796875 85.578125 55.742188 83.9375 54.453125 84.597656 C 52.714844 85.488281 52.714844 83.800781 52.714844 82.820312 C 52.714844 81.839844 53.882812 81.929688 55.320312 81.929688 C 56.761719 81.929688 58.796875 83.617188 58.796875 84.597656 Z M 58.796875 84.597656 " fill-opacity="1" fill-rule="nonzero"/></g><g clip-path="url(#078b93a3c5)"><path fill="#77b255" d="M 42.046875 88.601562 C 42.046875 91.054688 40.9375 91.140625 39.566406 91.140625 C 38.195312 91.140625 37.082031 91.054688 37.082031 88.601562 C 37.082031 88.167969 37.15625 87.6875 37.285156 87.191406 C 37.886719 84.890625 39.679688 82.253906 40.804688 82.253906 C 42.175781 82.253906 42.046875 86.148438 42.046875 88.601562 Z M 49.492188 88.601562 C 49.492188 91.054688 50.601562 91.140625 51.972656 91.140625 C 53.34375 91.140625 54.453125 91.054688 54.453125 88.601562 C 54.453125 88.167969 54.378906 87.6875 54.25 87.191406 C 53.648438 84.890625 51.859375 82.253906 50.730469 82.253906 C 49.359375 82.253906 49.492188 86.148438 49.492188 88.601562 Z M 49.492188 88.601562 " fill-opacity="1" fill-rule="nonzero"/></g><g clip-path="url(#47b48936e4)"><path fill="#3e721d" d="M 55.320312 83.140625 C 55.320312 86.695312 50.851562 86.695312 45.332031 86.695312 C 39.816406 86.695312 35.347656 86.695312 35.347656 83.140625 C 35.347656 77.25 39.816406 72.472656 45.332031 72.472656 C 50.851562 72.472656 55.320312 77.25 55.320312 83.140625 Z M 55.320312 83.140625 " fill-opacity="1" fill-rule="nonzero"/></g><path fill="#292f33" d="M 32.742188 75.140625 C 32.742188 75.386719 32.65625 75.597656 32.484375 75.769531 C 32.316406 75.945312 32.113281 76.03125 31.871094 76.03125 C 31.632812 76.03125 31.425781 75.945312 31.257812 75.769531 C 31.089844 75.597656 31.003906 75.386719 31.003906 75.140625 C 31.003906 74.894531 31.089844 74.6875 31.257812 74.511719 C 31.425781 74.339844 31.632812 74.253906 31.871094 74.253906 C 32.113281 74.253906 32.316406 74.339844 32.484375 74.511719 C 32.65625 74.6875 32.742188 74.894531 32.742188 75.140625 Z M 32.742188 75.140625 " fill-opacity="1" fill-rule="nonzero"/><path fill="#5c913b" d="M 48.085938 81.453125 C 48.085938 84.644531 46.851562 84.917969 45.332031 84.917969 C 43.816406 84.917969 42.582031 84.644531 42.582031 81.453125 C 42.582031 78.261719 43.8125 74.253906 45.332031 74.253906 C 46.855469 74.253906 48.085938 78.261719 48.085938 81.453125 Z M 53.585938 80.476562 C 54.339844 83.570312 52.902344 84.03125 51.382812 84.03125 C 49.867188 84.03125 49.183594 84.644531 49.183594 81.453125 C 49.183594 78.261719 48.214844 75.675781 49.734375 75.675781 C 51.253906 75.675781 52.714844 76.917969 53.585938 80.476562 Z M 41.484375 81.453125 C 41.484375 84.644531 40.800781 84.03125 39.28125 84.03125 C 37.765625 84.03125 36.328125 83.570312 37.082031 80.476562 C 37.953125 76.917969 39.90625 75.675781 41.425781 75.675781 C 42.945312 75.675781 41.484375 78.261719 41.484375 81.453125 Z M 41.484375 81.453125 " fill-opacity="1" fill-rule="nonzero"/><g clip-path="url(#3c0327ff04)"><path fill="#77b255" d="M 67.753906 76.851562 C 67.753906 85.597656 73.464844 85.449219 72.234375 85.808594 C 66.15625 87.585938 64.589844 79.035156 64.015625 79.035156 C 61.949219 79.035156 59.207031 78.660156 59.207031 76.851562 C 59.207031 75.039062 61.34375 72.472656 64.550781 72.472656 C 66.617188 72.472656 67.753906 75.039062 67.753906 76.851562 Z M 90.472656 84.597656 C 90.472656 85.578125 87.417969 83.9375 86.132812 84.597656 C 84.394531 85.488281 84.394531 83.800781 84.394531 82.820312 C 84.394531 81.839844 85.5625 81.929688 87 81.929688 C 88.4375 81.929688 90.472656 83.617188 90.472656 84.597656 Z M 90.472656 84.597656 " fill-opacity="1" fill-rule="nonzero"/></g><g clip-path="url(#ceddf68141)"><path fill="#77b255" d="M 73.726562 88.601562 C 73.726562 91.054688 72.613281 91.140625 71.242188 91.140625 C 69.875 91.140625 68.761719 91.054688 68.761719 88.601562 C 68.761719 88.167969 68.835938 87.6875 68.964844 87.191406 C 69.5625 84.890625 71.355469 82.253906 72.484375 82.253906 C 73.855469 82.253906 73.726562 86.148438 73.726562 88.601562 Z M 81.167969 88.601562 C 81.167969 91.054688 82.277344 91.140625 83.648438 91.140625 C 85.019531 91.140625 86.132812 91.054688 86.132812 88.601562 C 86.132812 88.167969 86.058594 87.6875 85.929688 87.191406 C 85.328125 84.890625 83.535156 82.253906 82.410156 82.253906 C 81.039062 82.253906 81.167969 86.148438 81.167969 88.601562 Z M 81.167969 88.601562 " fill-opacity="1" fill-rule="nonzero"/></g><g clip-path="url(#71ffab0d4a)"><path fill="#3e721d" d="M 87 83.140625 C 87 86.695312 82.527344 86.695312 77.011719 86.695312 C 71.496094 86.695312 67.023438 86.695312 67.023438 83.140625 C 67.023438 77.25 71.496094 72.472656 77.011719 72.472656 C 82.527344 72.472656 87 77.25 87 83.140625 Z M 87 83.140625 " fill-opacity="1" fill-rule="nonzero"/></g><path fill="#292f33" d="M 64.417969 75.140625 C 64.417969 75.386719 64.335938 75.597656 64.164062 75.769531 C 63.996094 75.945312 63.789062 76.03125 63.550781 76.03125 C 63.308594 76.03125 63.105469 75.945312 62.9375 75.769531 C 62.765625 75.597656 62.683594 75.386719 62.683594 75.140625 C 62.683594 74.894531 62.765625 74.6875 62.9375 74.511719 C 63.105469 74.339844 63.308594 74.253906 63.550781 74.253906 C 63.789062 74.253906 63.996094 74.339844 64.164062 74.511719 C 64.335938 74.6875 64.417969 74.894531 64.417969 75.140625 Z M 64.417969 75.140625 " fill-opacity="1" fill-rule="nonzero"/><path fill="#5c913b" d="M 79.761719 81.453125 C 79.761719 84.644531 78.53125 84.917969 77.011719 84.917969 C 75.492188 84.917969 74.261719 84.644531 74.261719 81.453125 C 74.261719 78.261719 75.492188 74.253906 77.011719 74.253906 C 78.53125 74.253906 79.761719 78.261719 79.761719 81.453125 Z M 85.261719 80.476562 C 86.019531 83.570312 84.582031 84.03125 83.0625 84.03125 C 81.542969 84.03125 80.863281 84.644531 80.863281 81.453125 C 80.863281 78.261719 79.894531 75.675781 81.414062 75.675781 C 82.929688 75.675781 84.394531 76.917969 85.261719 80.476562 Z M 73.164062 81.453125 C 73.164062 84.644531 72.480469 84.03125 70.960938 84.03125 C 69.441406 84.03125 68.003906 83.570312 68.761719 80.476562 C 69.628906 76.917969 71.585938 75.675781 73.105469 75.675781 C 74.625 75.675781 73.164062 78.261719 73.164062 81.453125 Z M 73.164062 81.453125 " fill-opacity="1" fill-rule="nonzero"/><g clip-path="url(#4bebd8db90)"><path fill="#77b255" d="M 99.433594 76.851562 C 99.433594 85.597656 105.144531 85.449219 103.914062 85.808594 C 97.835938 87.585938 96.269531 79.035156 95.695312 79.035156 C 93.628906 79.035156 90.886719 78.660156 90.886719 76.851562 C 90.886719 75.039062 93.023438 72.472656 96.230469 72.472656 C 98.292969 72.472656 99.433594 75.039062 99.433594 76.851562 Z M 122.152344 84.597656 C 122.152344 85.578125 119.097656 83.9375 117.808594 84.597656 C 116.074219 85.488281 116.074219 83.800781 116.074219 82.820312 C 116.074219 81.839844 117.238281 81.929688 118.679688 81.929688 C 120.117188 81.929688 122.152344 83.617188 122.152344 84.597656 Z M 122.152344 84.597656 " fill-opacity="1" fill-rule="nonzero"/></g><g clip-path="url(#772ebe4bf5)"><path fill="#77b255" d="M 105.402344 88.601562 C 105.402344 91.054688 104.292969 91.140625 102.921875 91.140625 C 101.550781 91.140625 100.441406 91.054688 100.441406 88.601562 C 100.441406 88.167969 100.515625 87.6875 100.644531 87.191406 C 101.242188 84.890625 103.035156 82.253906 104.164062 82.253906 C 105.53125 82.253906 105.402344 86.148438 105.402344 88.601562 Z M 112.847656 88.601562 C 112.847656 91.054688 113.957031 91.140625 115.328125 91.140625 C 116.699219 91.140625 117.808594 91.054688 117.808594 88.601562 C 117.808594 88.167969 117.738281 87.6875 117.605469 87.191406 C 117.007812 84.890625 115.214844 82.253906 114.085938 82.253906 C 112.71875 82.253906 112.847656 86.148438 112.847656 88.601562 Z M 112.847656 88.601562 " fill-opacity="1" fill-rule="nonzero"/></g><g clip-path="url(#2ac2cab361)"><path fill="#3e721d" d="M 118.679688 83.140625 C 118.679688 86.695312 114.207031 86.695312 108.691406 86.695312 C 103.175781 86.695312 98.703125 86.695312 98.703125 83.140625 C 98.703125 77.25 103.175781 72.472656 108.691406 72.472656 C 114.207031 72.472656 118.679688 77.25 118.679688 83.140625 Z M 118.679688 83.140625 " fill-opacity="1" fill-rule="nonzero"/></g><path fill="#292f33" d="M 96.097656 75.140625 C 96.097656 75.386719 96.011719 75.597656 95.84375 75.769531 C 95.671875 75.945312 95.46875 76.03125 95.230469 76.03125 C 94.988281 76.03125 94.785156 75.945312 94.613281 75.769531 C 94.445312 75.597656 94.359375 75.386719 94.359375 75.140625 C 94.359375 74.894531 94.445312 74.6875 94.613281 74.511719 C 94.785156 74.339844 94.988281 74.253906 95.230469 74.253906 C 95.46875 74.253906 95.671875 74.339844 95.84375 74.511719 C 96.011719 74.6875 96.097656 74.894531 96.097656 75.140625 Z M 96.097656 75.140625 " fill-opacity="1" fill-rule="nonzero"/><path fill="#5c913b" d="M 111.441406 81.453125 C 111.441406 84.644531 110.210938 84.917969 108.691406 84.917969 C 107.171875 84.917969 105.941406 84.644531 105.941406 81.453125 C 105.941406 78.261719 107.171875 74.253906 108.691406 74.253906 C 110.210938 74.253906 111.441406 78.261719 111.441406 81.453125 Z M 116.941406 80.476562 C 117.699219 83.570312 116.261719 84.03125 114.742188 84.03125 C 113.222656 84.03125 112.542969 84.644531 112.542969 81.453125 C 112.542969 78.261719 111.574219 75.675781 113.089844 75.675781 C 114.609375 75.675781 116.074219 76.917969 116.941406 80.476562 Z M 104.839844 81.453125 C 104.839844 84.644531 104.160156 84.03125 102.640625 84.03125 C 101.121094 84.03125 99.683594 83.570312 100.441406 80.476562 C 101.308594 76.917969 103.261719 75.675781 104.78125 75.675781 C 106.300781 75.675781 104.839844 78.261719 104.839844 81.453125 Z M 104.839844 81.453125 " fill-opacity="1" fill-rule="nonzero"/></svg>