<svg xmlns="http://www.w3.org/2000/svg" xmlns:xlink="http://www.w3.org/1999/xlink" width="200" zoomAndPan="magnify" viewBox="0 0 150 95.999999" height="128" preserveAspectRatio="xMidYMid meet" version="1.0"><defs><clipPath id="ee5027a53e"><path d="M 95 40 L 140 40 L 140 81 L 95 81 Z M 95 40 " clip-rule="nonzero"/></clipPath><clipPath id="3e26795ccb"><path d="M 112.605469 24.875 L 155.199219 50.09375 L 132.273438 88.816406 L 89.679688 63.597656 Z M 112.605469 24.875 " clip-rule="nonzero"/></clipPath><clipPath id="64c430b214"><path d="M 112.605469 24.875 L 155.199219 50.09375 L 132.273438 88.816406 L 89.679688 63.597656 Z M 112.605469 24.875 " clip-rule="nonzero"/></clipPath><clipPath id="9a09d1995a"><path d="M 112.605469 24.875 L 155.199219 50.09375 L 132.273438 88.816406 L 89.679688 63.597656 Z M 112.605469 24.875 " clip-rule="nonzero"/></clipPath><clipPath id="f578448908"><path d="M 103 49 L 137 49 L 137 78 L 103 78 Z M 103 49 " clip-rule="nonzero"/></clipPath><clipPath id="abf0ae25de"><path d="M 112.605469 24.875 L 155.199219 50.09375 L 132.273438 88.816406 L 89.679688 63.597656 Z M 112.605469 24.875 " clip-rule="nonzero"/></clipPath><clipPath id="41003e567f"><path d="M 112.605469 24.875 L 155.199219 50.09375 L 132.273438 88.816406 L 89.679688 63.597656 Z M 112.605469 24.875 " clip-rule="nonzero"/></clipPath><clipPath id="8e7ecb19ce"><path d="M 112.605469 24.875 L 155.199219 50.09375 L 132.273438 88.816406 L 89.679688 63.597656 Z M 112.605469 24.875 " clip-rule="nonzero"/></clipPath><clipPath id="78776d832d"><path d="M 109 59 L 125 59 L 125 75 L 109 75 Z M 109 59 " clip-rule="nonzero"/></clipPath><clipPath id="3e54e61fc6"><path d="M 115.832031 54.292969 L 129.484375 67.144531 L 118.6875 78.613281 L 105.035156 65.757812 Z M 115.832031 54.292969 " clip-rule="nonzero"/></clipPath><clipPath id="e7163a5490"><path d="M 115.832031 54.292969 L 129.484375 67.144531 L 118.6875 78.613281 L 105.035156 65.757812 Z M 115.832031 54.292969 " clip-rule="nonzero"/></clipPath><clipPath id="3ae34ac2a2"><path d="M 115.832031 54.292969 L 129.484375 67.144531 L 118.6875 78.613281 L 105.035156 65.757812 Z M 115.832031 54.292969 " clip-rule="nonzero"/></clipPath><clipPath id="3283b4e13c"><path d="M 110 55 L 127 55 L 127 72 L 110 72 Z M 110 55 " clip-rule="nonzero"/></clipPath><clipPath id="0283f738f4"><path d="M 115.832031 54.292969 L 129.484375 67.144531 L 118.6875 78.613281 L 105.035156 65.757812 Z M 115.832031 54.292969 " clip-rule="nonzero"/></clipPath><clipPath id="32d7315b15"><path d="M 115.832031 54.292969 L 129.484375 67.144531 L 118.6875 78.613281 L 105.035156 65.757812 Z M 115.832031 54.292969 " clip-rule="nonzero"/></clipPath><clipPath id="84ad7390f3"><path d="M 115.832031 54.292969 L 129.484375 67.144531 L 118.6875 78.613281 L 105.035156 65.757812 Z M 115.832031 54.292969 " clip-rule="nonzero"/></clipPath><clipPath id="2f60926a29"><path d="M 17 50 L 48 50 L 48 82 L 17 82 Z M 17 50 " clip-rule="nonzero"/></clipPath><clipPath id="de18d28f6a"><path d="M 3.304688 51.410156 L 37.585938 32.8125 L 57.972656 70.386719 L 23.691406 88.988281 Z M 3.304688 51.410156 " clip-rule="nonzero"/></clipPath><clipPath id="be7c87b010"><path d="M 3.304688 51.410156 L 37.585938 32.8125 L 57.972656 70.386719 L 23.691406 88.988281 Z M 3.304688 51.410156 " clip-rule="nonzero"/></clipPath><clipPath id="9f1681d05f"><path d="M 45 57 L 51 57 L 51 63 L 45 63 Z M 45 57 " clip-rule="nonzero"/></clipPath><clipPath id="ad88763f52"><path d="M 3.304688 51.410156 L 37.585938 32.8125 L 57.972656 70.386719 L 23.691406 88.988281 Z M 3.304688 51.410156 " clip-rule="nonzero"/></clipPath><clipPath id="62afeee78b"><path d="M 3.304688 51.410156 L 37.585938 32.8125 L 57.972656 70.386719 L 23.691406 88.988281 Z M 3.304688 51.410156 " clip-rule="nonzero"/></clipPath><clipPath id="5ea9286b45"><path d="M 16 72 L 22 72 L 22 78 L 16 78 Z M 16 72 " clip-rule="nonzero"/></clipPath><clipPath id="e4780d0588"><path d="M 3.304688 51.410156 L 37.585938 32.8125 L 57.972656 70.386719 L 23.691406 88.988281 Z M 3.304688 51.410156 " clip-rule="nonzero"/></clipPath><clipPath id="6bd57a9218"><path d="M 3.304688 51.410156 L 37.585938 32.8125 L 57.972656 70.386719 L 23.691406 88.988281 Z M 3.304688 51.410156 " clip-rule="nonzero"/></clipPath><clipPath id="e9a8a7df02"><path d="M 11 47 L 23 47 L 23 74 L 11 74 Z M 11 47 " clip-rule="nonzero"/></clipPath><clipPath id="3f9aa18ec4"><path d="M 3.304688 51.410156 L 37.585938 32.8125 L 57.972656 70.386719 L 23.691406 88.988281 Z M 3.304688 51.410156 " clip-rule="nonzero"/></clipPath><clipPath id="153629fa7f"><path d="M 3.304688 51.410156 L 37.585938 32.8125 L 57.972656 70.386719 L 23.691406 88.988281 Z M 3.304688 51.410156 " clip-rule="nonzero"/></clipPath><clipPath id="72db7fa4c6"><path d="M 15 41 L 48 41 L 48 62 L 15 62 Z M 15 41 " clip-rule="nonzero"/></clipPath><clipPath id="9529817976"><path d="M 3.304688 51.410156 L 37.585938 32.8125 L 57.972656 70.386719 L 23.691406 88.988281 Z M 3.304688 51.410156 " clip-rule="nonzero"/></clipPath><clipPath id="ab30bc41f4"><path d="M 3.304688 51.410156 L 37.585938 32.8125 L 57.972656 70.386719 L 23.691406 88.988281 Z M 3.304688 51.410156 " clip-rule="nonzero"/></clipPath><clipPath id="95c29026fc"><path d="M 15 53 L 44 53 L 44 62 L 15 62 Z M 15 53 " clip-rule="nonzero"/></clipPath><clipPath id="6495ebb631"><path d="M 3.304688 51.410156 L 37.585938 32.8125 L 57.972656 70.386719 L 23.691406 88.988281 Z M 3.304688 51.410156 " clip-rule="nonzero"/></clipPath><clipPath id="386a16d12d"><path d="M 3.304688 51.410156 L 37.585938 32.8125 L 57.972656 70.386719 L 23.691406 88.988281 Z M 3.304688 51.410156 " clip-rule="nonzero"/></clipPath><clipPath id="064c5cdacb"><path d="M 27 61 L 43 61 L 43 76 L 27 76 Z M 27 61 " clip-rule="nonzero"/></clipPath><clipPath id="9c602d58fb"><path d="M 22.507812 69.832031 L 38.441406 56.15625 L 47.722656 66.96875 L 31.789062 80.644531 Z M 22.507812 69.832031 " clip-rule="nonzero"/></clipPath><clipPath id="79a711058e"><path d="M 22.507812 69.832031 L 38.441406 56.15625 L 47.722656 66.96875 L 31.789062 80.644531 Z M 22.507812 69.832031 " clip-rule="nonzero"/></clipPath><clipPath id="9efbfdd701"><path d="M 22.507812 69.832031 L 38.441406 56.15625 L 47.722656 66.96875 L 31.789062 80.644531 Z M 22.507812 69.832031 " clip-rule="nonzero"/></clipPath><clipPath id="b129d6bd30"><path d="M 25 59 L 45 59 L 45 78 L 25 78 Z M 25 59 " clip-rule="nonzero"/></clipPath><clipPath id="29bfc0e797"><path d="M 22.507812 69.832031 L 38.441406 56.15625 L 47.722656 66.96875 L 31.789062 80.644531 Z M 22.507812 69.832031 " clip-rule="nonzero"/></clipPath><clipPath id="f7e5bbc561"><path d="M 22.507812 69.832031 L 38.441406 56.15625 L 47.722656 66.96875 L 31.789062 80.644531 Z M 22.507812 69.832031 " clip-rule="nonzero"/></clipPath><clipPath id="c4c52adc2d"><path d="M 22.507812 69.832031 L 38.441406 56.15625 L 47.722656 66.96875 L 31.789062 80.644531 Z M 22.507812 69.832031 " clip-rule="nonzero"/></clipPath><clipPath id="1ce3531c85"><path d="M 21 10 L 88 10 L 88 62.851562 L 21 62.851562 Z M 21 10 " clip-rule="nonzero"/></clipPath><clipPath id="fc42133cfd"><path d="M 21 9.601562 L 89 9.601562 L 89 62.851562 L 21 62.851562 Z M 21 9.601562 " clip-rule="nonzero"/></clipPath><clipPath id="55535a2ca4"><path d="M 39.488281 25 L 49 25 L 49 33.871094 L 39.488281 33.871094 Z M 39.488281 25 " clip-rule="nonzero"/></clipPath><clipPath id="1bb8a0036b"><path d="M 50 24.871094 L 60 24.871094 L 60 33.871094 L 50 33.871094 Z M 50 24.871094 " clip-rule="nonzero"/></clipPath><clipPath id="c47eff8fb1"><path d="M 62 25 L 70.238281 25 L 70.238281 33.871094 L 62 33.871094 Z M 62 25 " clip-rule="nonzero"/></clipPath><clipPath id="9857e8c5ae"><path d="M 68 24.226562 L 119 24.226562 L 119 62.476562 L 68 62.476562 Z M 68 24.226562 " clip-rule="nonzero"/></clipPath><clipPath id="78a65897af"><path d="M 67 24.226562 L 119 24.226562 L 119 62.476562 L 67 62.476562 Z M 67 24.226562 " clip-rule="nonzero"/></clipPath><clipPath id="d13d3983bf"><path d="M 82.289062 33 L 89 33 L 89 39.589844 L 82.289062 39.589844 Z M 82.289062 33 " clip-rule="nonzero"/></clipPath><clipPath id="d06c4f1f6d"><path d="M 89 32.839844 L 96 32.839844 L 96 39 L 89 39 Z M 89 32.839844 " clip-rule="nonzero"/></clipPath><clipPath id="35bf948baa"><path d="M 97 33 L 103.289062 33 L 103.289062 39.589844 L 97 39.589844 Z M 97 33 " clip-rule="nonzero"/></clipPath></defs><g clip-path="url(#ee5027a53e)"><g clip-path="url(#3e26795ccb)"><g clip-path="url(#64c430b214)"><g clip-path="url(#9a09d1995a)"><path fill="#5a3114" d="M 139.066406 61.886719 C 140.664062 57.976562 138.285156 40.074219 122.328125 41.019531 C 122.328125 41.019531 116.035156 37.960938 111.003906 43.449219 C 110.734375 43.707031 100.160156 53.746094 95 54.652344 C 95 54.652344 98.011719 67.277344 109.015625 74.425781 C 118.066406 80.304688 124.777344 81.851562 137.886719 79.324219 C 137.886719 79.324219 136.523438 71.121094 139.066406 61.886719 " fill-opacity="1" fill-rule="nonzero"/></g></g></g></g><g clip-path="url(#f578448908)"><g clip-path="url(#abf0ae25de)"><g clip-path="url(#41003e567f)"><g clip-path="url(#8e7ecb19ce)"><path fill="#efac6e" d="M 136.269531 66.925781 L 136.253906 66.949219 C 136.101562 66.773438 135.917969 66.609375 135.679688 66.46875 C 134.320312 65.664062 131.046875 69.527344 131.046875 69.527344 L 131.683594 66.203125 L 130.25 69.484375 C 114.738281 60.726562 118.066406 51.21875 118.066406 51.21875 C 114.761719 56.519531 107.660156 55.679688 107.660156 55.679688 C 107.660156 55.679688 108.175781 53.875 109.261719 51.789062 C 109.160156 51.089844 108.777344 50.460938 108.152344 50.101562 C 108.070312 50.050781 107.984375 50.015625 107.894531 49.980469 L 107.890625 49.984375 C 106.789062 49.523438 105.4375 50.007812 104.765625 51.171875 C 104.039062 52.429688 103.152344 54.605469 104.972656 56.625 C 105.140625 56.8125 105.363281 56.859375 105.617188 56.808594 C 104.617188 60.660156 103.824219 65.257812 104.84375 67.765625 C 106.226562 71.152344 108.625 74.804688 111.308594 76.1875 C 113.816406 77.878906 118.171875 78.222656 121.800781 77.804688 C 124.492188 77.496094 128.140625 74.589844 131.039062 71.859375 C 131.117188 72.105469 131.265625 72.277344 131.511719 72.335938 C 134.15625 72.964844 135.636719 71.136719 136.390625 69.898438 C 136.988281 68.902344 136.902344 67.714844 136.269531 66.925781 " fill-opacity="1" fill-rule="nonzero"/></g></g></g></g><g clip-path="url(#78776d832d)"><g clip-path="url(#3e54e61fc6)"><g clip-path="url(#e7163a5490)"><g clip-path="url(#3ae34ac2a2)"><path fill="#ffffff" d="M 115.84375 65.730469 C 114.332031 67.339844 111.828125 67.4375 110.25 65.949219 C 108.667969 64.460938 108.617188 61.957031 110.128906 60.351562 C 111.644531 58.742188 114.144531 58.644531 115.726562 60.132812 C 117.304688 61.621094 117.359375 64.125 115.84375 65.730469 Z M 123.660156 67.605469 C 122.078125 66.117188 119.578125 66.214844 118.066406 67.820312 C 116.550781 69.429688 116.605469 71.933594 118.183594 73.417969 C 119.765625 74.90625 122.265625 74.8125 123.78125 73.203125 C 125.292969 71.59375 125.242188 69.09375 123.660156 67.605469 Z M 123.660156 67.605469 " fill-opacity="1" fill-rule="nonzero"/></g></g></g></g><g clip-path="url(#3283b4e13c)"><g clip-path="url(#0283f738f4)"><g clip-path="url(#32d7315b15)"><g clip-path="url(#84ad7390f3)"><path fill="#000000" d="M 115.140625 63.550781 C 114.140625 64.609375 112.460938 64.675781 111.421875 63.695312 C 110.378906 62.714844 110.339844 61.035156 111.339844 59.972656 C 112.339844 58.914062 114.015625 58.847656 115.058594 59.828125 C 116.101562 60.8125 116.152344 62.472656 115.140625 63.550781 Z M 123.027344 67.332031 C 121.984375 66.351562 120.308594 66.417969 119.308594 67.476562 C 118.308594 68.535156 118.347656 70.214844 119.390625 71.199219 C 120.429688 72.179688 122.109375 72.113281 123.109375 71.054688 C 124.105469 69.992188 124.070312 68.3125 123.027344 67.332031 Z M 124.753906 64.152344 C 124.785156 65.5 125.191406 66.820312 125.941406 67.945312 C 126.09375 68.152344 126.34375 68.257812 126.570312 68.117188 C 126.78125 67.996094 126.890625 67.675781 126.753906 67.484375 C 126.089844 66.503906 125.703125 65.367188 125.695312 64.164062 C 125.664062 63.554688 124.742188 63.558594 124.753906 64.152344 Z M 115.671875 56.890625 C 116.8125 57.191406 117.832031 57.828125 118.625 58.703125 C 118.792969 58.894531 119.121094 58.847656 119.285156 58.675781 C 119.460938 58.488281 119.4375 58.210938 119.269531 58.019531 C 118.375 57.015625 117.191406 56.320312 115.882812 55.957031 C 115.320312 55.816406 115.089844 56.730469 115.671875 56.890625 Z M 112.832031 71.089844 C 112.285156 71.671875 111.363281 71.707031 110.789062 71.167969 C 110.21875 70.628906 110.199219 69.707031 110.746094 69.125 C 111.292969 68.542969 112.214844 68.507812 112.789062 69.046875 C 113.359375 69.585938 113.378906 70.507812 112.832031 71.089844 Z M 112.832031 71.089844 " fill-opacity="1" fill-rule="nonzero"/></g></g></g></g><g clip-path="url(#2f60926a29)"><g clip-path="url(#de18d28f6a)"><g clip-path="url(#be7c87b010)"><path fill="#cb915a" d="M 46.28125 59.050781 C 50.375 66.601562 46.238281 76.765625 40.140625 80.074219 C 34.039062 83.382812 23.261719 81.3125 19.164062 73.761719 C 15.070312 66.214844 17.820312 56.800781 25.304688 52.738281 C 32.792969 48.675781 42.183594 51.503906 46.28125 59.050781 " fill-opacity="1" fill-rule="nonzero"/></g></g></g><g clip-path="url(#9f1681d05f)"><g clip-path="url(#ad88763f52)"><g clip-path="url(#62afeee78b)"><path fill="#cb915a" d="M 49.804688 58.671875 C 50.492188 59.9375 50.140625 61.453125 49.019531 62.0625 C 47.898438 62.667969 46.433594 62.136719 45.75 60.871094 C 45.0625 59.609375 45.414062 58.09375 46.535156 57.484375 C 47.65625 56.875 49.117188 57.40625 49.804688 58.671875 " fill-opacity="1" fill-rule="nonzero"/></g></g></g><g clip-path="url(#5ea9286b45)"><g clip-path="url(#e4780d0588)"><g clip-path="url(#6bd57a9218)"><path fill="#cb915a" d="M 16.925781 76.511719 C 17.613281 77.777344 19.078125 78.308594 20.199219 77.699219 C 21.316406 77.09375 21.667969 75.574219 20.980469 74.3125 C 20.296875 73.046875 18.832031 72.515625 17.714844 73.121094 C 16.59375 73.730469 16.238281 75.246094 16.925781 76.511719 " fill-opacity="1" fill-rule="nonzero"/></g></g></g><g clip-path="url(#e9a8a7df02)"><g clip-path="url(#3f9aa18ec4)"><g clip-path="url(#153629fa7f)"><path fill="#713f30" d="M 22.671875 59.609375 C 22.671875 59.609375 22.675781 64.773438 20.230469 71.445312 C 20.230469 71.445312 19.011719 71.988281 20.171875 73.886719 C 20.171875 73.886719 19.339844 72.820312 18.683594 72.902344 C 18.683594 72.902344 17.839844 72.890625 17.429688 73.3125 C 17.429688 73.3125 11.113281 65.804688 11.761719 58.621094 C 11.761719 58.621094 13.550781 48.859375 22.402344 47.46875 L 22.671875 59.609375 " fill-opacity="1" fill-rule="nonzero"/></g></g></g><g clip-path="url(#72db7fa4c6)"><g clip-path="url(#9529817976)"><g clip-path="url(#ab30bc41f4)"><path fill="#713f30" d="M 21.316406 60.480469 C 21.324219 60.484375 30.605469 62.773438 42.753906 58.191406 C 42.753906 58.191406 44.574219 57.738281 45.871094 59.941406 C 45.871094 59.941406 45.261719 58.566406 45.898438 58.023438 C 45.898438 58.023438 46.570312 57.296875 47.148438 57.269531 C 47.148438 57.269531 45.375 47.160156 33.828125 42.695312 C 27.078125 40.085938 15.078125 45.03125 15.234375 53.273438 C 15.269531 55.113281 15.796875 57.074219 17.21875 58.324219 C 18.285156 59.261719 19.945312 60.144531 21.316406 60.480469 " fill-opacity="1" fill-rule="nonzero"/></g></g></g><g clip-path="url(#95c29026fc)"><g clip-path="url(#6495ebb631)"><g clip-path="url(#386a16d12d)"><path fill="#512c20" d="M 43.054688 58.15625 C 40.609375 59.09375 38.085938 59.824219 35.515625 60.375 C 32.949219 60.925781 30.328125 61.269531 27.6875 61.3125 C 25.058594 61.308594 22.347656 61.023438 19.917969 59.867188 C 18.714844 59.289062 17.609375 58.476562 16.761719 57.4375 C 15.917969 56.394531 15.359375 55.15625 15.054688 53.875 C 15.777344 56.429688 17.675781 58.535156 20.066406 59.546875 C 22.441406 60.597656 25.089844 60.882812 27.679688 60.855469 C 30.285156 60.851562 32.878906 60.503906 35.445312 60.03125 C 38.007812 59.542969 40.554688 58.933594 43.054688 58.15625 " fill-opacity="1" fill-rule="nonzero"/></g></g></g><g clip-path="url(#064c5cdacb)"><g clip-path="url(#9c602d58fb)"><g clip-path="url(#79a711058e)"><g clip-path="url(#9efbfdd701)"><path fill="#ffffff" d="M 33.957031 69.570312 C 35.328125 71.167969 35.183594 73.53125 33.636719 74.863281 C 32.085938 76.191406 29.726562 75.976562 28.355469 74.378906 C 26.984375 72.78125 27.128906 70.414062 28.679688 69.085938 C 30.226562 67.757812 32.589844 67.972656 33.957031 69.570312 Z M 36.457031 62.410156 C 34.90625 63.738281 34.761719 66.105469 36.132812 67.703125 C 37.503906 69.300781 39.867188 69.515625 41.414062 68.1875 C 42.964844 66.855469 43.109375 64.492188 41.738281 62.894531 C 40.367188 61.296875 38.003906 61.082031 36.457031 62.410156 Z M 36.457031 62.410156 " fill-opacity="1" fill-rule="nonzero"/></g></g></g></g><g clip-path="url(#b129d6bd30)"><g clip-path="url(#29bfc0e797)"><g clip-path="url(#f7e5bbc561)"><g clip-path="url(#c4c52adc2d)"><path fill="#000000" d="M 31.839844 70 C 32.742188 71.054688 32.648438 72.644531 31.625 73.519531 C 30.605469 74.398438 29.019531 74.25 28.117188 73.199219 C 27.210938 72.144531 27.308594 70.558594 28.332031 69.679688 C 29.351562 68.804688 30.921875 68.929688 31.839844 70 Z M 36.140625 62.976562 C 35.121094 63.851562 35.023438 65.441406 35.925781 66.492188 C 36.832031 67.546875 38.398438 67.707031 39.4375 66.816406 C 40.457031 65.9375 40.554688 64.351562 39.652344 63.296875 C 38.746094 62.246094 37.164062 62.097656 36.140625 62.976562 Z M 43.941406 64.128906 C 43.46875 66.746094 42.320312 69.207031 40.652344 71.230469 C 38.945312 73.3125 36.679688 74.875 34.15625 75.800781 C 32.71875 76.328125 31.183594 76.640625 29.648438 76.71875 C 29.085938 76.761719 29.203125 77.632812 29.753906 77.605469 C 32.664062 77.464844 35.488281 76.519531 37.894531 74.921875 C 40.222656 73.398438 42.085938 71.238281 43.332031 68.753906 C 44.042969 67.347656 44.542969 65.828125 44.808594 64.269531 C 44.921875 63.703125 44.039062 63.574219 43.941406 64.128906 Z M 36.195312 59.269531 C 34.960938 59.535156 33.800781 60.148438 32.933594 61.039062 C 32.765625 61.210938 32.734375 61.472656 32.894531 61.660156 C 33.039062 61.832031 33.347656 61.890625 33.515625 61.71875 C 34.296875 60.929688 35.285156 60.378906 36.375 60.148438 C 36.929688 60.027344 36.75 59.148438 36.195312 59.269531 Z M 25.910156 69.128906 C 26.304688 68.085938 27 67.195312 27.898438 66.542969 C 28.09375 66.402344 28.082031 66.089844 27.933594 65.917969 C 27.773438 65.730469 27.507812 65.722656 27.3125 65.863281 C 26.285156 66.597656 25.519531 67.636719 25.070312 68.820312 C 24.867188 69.347656 25.707031 69.660156 25.910156 69.128906 Z M 25.910156 69.128906 " fill-opacity="1" fill-rule="nonzero"/></g></g></g></g><g clip-path="url(#1ce3531c85)"><path fill="#64f9c3" d="M 72.488281 10 C 72.488281 10 79.601562 10 84.34375 17.144531 C 89.085938 24.289062 89.085938 33.816406 84.34375 40.960938 C 79.601562 48.105469 72.488281 48.105469 72.488281 48.105469 C 70.261719 56.625 58.257812 57.632812 51.144531 62.398438 C 56.496094 58.640625 62.394531 54.246094 63.003906 48.105469 L 36.917969 48.105469 C 36.917969 48.105469 29.804688 48.105469 25.058594 40.960938 C 20.316406 33.816406 20.316406 24.289062 25.058594 17.144531 C 29.804688 10 36.917969 10 36.917969 10 Z M 72.488281 10 " fill-opacity="1" fill-rule="evenodd"/></g><g clip-path="url(#fc42133cfd)"><path stroke-linecap="butt" transform="matrix(-0.133851, 0, 0, 0.134436, 96.201997, 3.805822)" fill="none" stroke-linejoin="round" d="M 177.164844 46.075385 C 177.164844 46.075385 124.021616 46.075385 88.592798 99.219967 C 53.16398 152.364549 53.16398 223.233677 88.592798 276.378259 C 124.021616 329.522841 177.164844 329.522841 177.164844 329.522841 C 193.799462 392.895357 283.480481 400.391969 336.623708 435.841061 C 296.642258 407.88858 252.575112 375.199868 248.02248 329.522841 L 442.910163 329.522841 C 442.910163 329.522841 496.05339 329.522841 531.511392 276.378259 C 566.94021 223.233677 566.94021 152.364549 531.511392 99.219967 C 496.05339 46.075385 442.910163 46.075385 442.910163 46.075385 Z M 177.164844 46.075385 " stroke="#000000" stroke-width="5.883" stroke-opacity="1" stroke-miterlimit="4"/></g><g clip-path="url(#55535a2ca4)"><path fill="#f8010e" d="M 43.632812 25.6875 L 44.160156 25.6875 C 44.78125 25.730469 45.351562 25.914062 45.871094 26.246094 C 46.214844 26.433594 46.539062 26.640625 46.851562 26.867188 C 47.1875 27.136719 47.457031 27.457031 47.65625 27.832031 C 47.933594 28.351562 48.09375 28.902344 48.136719 29.484375 C 48.175781 30.019531 48.066406 30.523438 47.800781 31 C 47.667969 31.261719 47.527344 31.523438 47.398438 31.789062 C 47.25 32.089844 47.042969 32.351562 46.773438 32.566406 C 46.167969 33.082031 45.472656 33.4375 44.683594 33.628906 C 43.664062 33.882812 42.6875 33.769531 41.757812 33.292969 C 41.539062 33.179688 41.34375 33.03125 41.171875 32.855469 C 40.679688 32.355469 40.292969 31.785156 40.015625 31.148438 C 39.832031 30.761719 39.707031 30.359375 39.640625 29.9375 C 39.605469 29.671875 39.601562 29.40625 39.636719 29.140625 C 39.667969 28.917969 39.671875 28.691406 39.71875 28.46875 C 39.792969 28.085938 39.964844 27.75 40.234375 27.457031 C 40.601562 27.0625 41 26.703125 41.4375 26.378906 C 41.921875 26.035156 42.460938 25.828125 43.058594 25.753906 C 43.25 25.726562 43.441406 25.710938 43.632812 25.6875 Z M 43.632812 25.6875 " fill-opacity="1" fill-rule="nonzero"/></g><g clip-path="url(#1bb8a0036b)"><path fill="#0088f7" d="M 54.949219 33.023438 C 54.648438 33 54.355469 32.945312 54.066406 32.859375 C 53.105469 32.621094 52.351562 32.078125 51.714844 31.378906 C 51.511719 31.152344 51.355469 30.902344 51.246094 30.625 C 51.039062 30.140625 50.878906 29.640625 50.765625 29.128906 C 50.730469 28.953125 50.730469 28.773438 50.773438 28.597656 C 50.824219 28.375 50.839844 28.140625 50.910156 27.917969 C 51.03125 27.453125 51.273438 27.058594 51.636719 26.726562 C 51.921875 26.445312 52.234375 26.191406 52.570312 25.96875 C 52.9375 25.746094 53.328125 25.574219 53.746094 25.453125 C 53.9375 25.40625 54.121094 25.335938 54.292969 25.238281 C 54.917969 24.871094 55.578125 24.878906 56.246094 25.09375 C 56.8125 25.277344 57.332031 25.542969 57.8125 25.886719 C 58.171875 26.148438 58.453125 26.476562 58.652344 26.863281 C 59.003906 27.484375 59.164062 28.144531 59.136719 28.847656 C 59.113281 29.777344 58.871094 30.660156 58.414062 31.484375 C 58.203125 31.871094 57.894531 32.164062 57.484375 32.363281 C 57.039062 32.597656 56.570312 32.777344 56.074219 32.90625 C 55.703125 32.980469 55.328125 33.019531 54.949219 33.023438 Z M 54.949219 33.023438 " fill-opacity="1" fill-rule="nonzero"/></g><g clip-path="url(#c47eff8fb1)"><path fill="#ff9700" d="M 62.328125 29.835938 C 62.328125 29.730469 62.328125 29.625 62.328125 29.515625 C 62.398438 29.078125 62.515625 28.648438 62.683594 28.230469 C 62.703125 28.1875 62.71875 28.140625 62.746094 28.097656 C 62.894531 27.835938 63.023438 27.566406 63.128906 27.28125 C 63.199219 27.09375 63.316406 26.933594 63.484375 26.804688 C 63.957031 26.417969 64.484375 26.117188 65.070312 25.90625 C 65.589844 25.714844 66.125 25.65625 66.679688 25.734375 C 67.167969 25.820312 67.621094 25.996094 68.035156 26.261719 C 68.507812 26.546875 68.851562 26.9375 69.058594 27.433594 C 69.128906 27.59375 69.214844 27.746094 69.316406 27.886719 C 69.410156 28.019531 69.488281 28.164062 69.550781 28.316406 C 69.832031 28.976562 70.019531 29.664062 70.109375 30.371094 C 70.121094 30.59375 70.101562 30.8125 70.050781 31.03125 C 69.992188 31.359375 69.902344 31.683594 69.777344 31.996094 C 69.648438 32.316406 69.441406 32.585938 69.160156 32.800781 C 68.78125 33.089844 68.359375 33.292969 67.890625 33.410156 C 67.371094 33.554688 66.84375 33.652344 66.304688 33.703125 C 65.855469 33.738281 65.429688 33.664062 65.027344 33.480469 C 64.773438 33.371094 64.527344 33.253906 64.285156 33.128906 C 64.011719 32.96875 63.773438 32.773438 63.574219 32.535156 C 63.410156 32.363281 63.257812 32.175781 63.101562 31.996094 C 62.699219 31.507812 62.464844 30.957031 62.394531 30.34375 C 62.371094 30.175781 62.351562 30.003906 62.328125 29.835938 Z M 62.328125 29.835938 " fill-opacity="1" fill-rule="nonzero"/></g><g clip-path="url(#9857e8c5ae)"><path fill="#0088f7" d="M 79.695312 24.957031 C 79.695312 24.957031 74.332031 24.480469 70.753906 28.5625 C 67.175781 32.644531 67.175781 38.640625 70.753906 42.722656 C 72.542969 44.761719 76.121094 46.261719 79.695312 46.261719 L 90.429688 46.261719 L 106.527344 62.1875 L 95.796875 46.261719 L 106.527344 46.261719 C 106.527344 46.261719 111.894531 46.722656 115.472656 42.640625 C 119.046875 38.558594 119.046875 32.644531 115.472656 28.5625 C 111.894531 24.480469 106.527344 24.957031 106.527344 24.957031 Z M 79.695312 24.957031 " fill-opacity="1" fill-rule="evenodd"/></g><g clip-path="url(#78a65897af)"><path stroke-linecap="butt" transform="matrix(0.100961, 0, 0, 0.0998955, 61.809929, 20.421607)" fill="none" stroke-linejoin="round" d="M 177.150678 45.40167 C 177.150678 45.40167 124.028591 40.631061 88.588073 81.494064 C 53.147554 122.357067 53.147554 182.380712 88.588073 223.243715 C 106.308332 243.655664 141.74885 258.671351 177.150678 258.671351 L 283.472232 258.671351 L 442.915874 418.095717 L 336.63301 258.671351 L 442.915874 258.671351 C 442.915874 258.671351 496.076651 263.285547 531.517169 222.422544 C 566.918997 181.559541 566.918997 122.357067 531.517169 81.494064 C 496.076651 40.631061 442.915874 45.40167 442.915874 45.40167 Z M 177.150678 45.40167 " stroke="#000000" stroke-width="5.157" stroke-opacity="1" stroke-miterlimit="4"/></g><g clip-path="url(#d13d3983bf)"><path fill="#f8010e" d="M 85.128906 33.453125 L 85.488281 33.449219 C 85.910156 33.484375 86.300781 33.621094 86.65625 33.871094 C 86.886719 34.011719 87.109375 34.164062 87.324219 34.335938 C 87.554688 34.539062 87.734375 34.78125 87.871094 35.058594 C 88.0625 35.449219 88.167969 35.863281 88.199219 36.300781 C 88.226562 36.699219 88.148438 37.078125 87.972656 37.433594 C 87.878906 37.632812 87.785156 37.828125 87.695312 38.027344 C 87.59375 38.253906 87.453125 38.449219 87.269531 38.609375 C 86.855469 38.996094 86.382812 39.261719 85.84375 39.40625 C 85.148438 39.597656 84.480469 39.511719 83.847656 39.15625 C 83.699219 39.070312 83.566406 38.960938 83.449219 38.828125 C 83.109375 38.453125 82.847656 38.023438 82.660156 37.546875 C 82.535156 37.257812 82.449219 36.957031 82.402344 36.640625 C 82.378906 36.441406 82.378906 36.242188 82.402344 36.042969 C 82.421875 35.875 82.421875 35.703125 82.457031 35.539062 C 82.507812 35.25 82.625 34.996094 82.808594 34.777344 C 83.058594 34.484375 83.332031 34.214844 83.628906 33.96875 C 83.960938 33.714844 84.328125 33.558594 84.738281 33.5 C 84.867188 33.480469 84.996094 33.46875 85.128906 33.453125 Z M 85.128906 33.453125 " fill-opacity="1" fill-rule="nonzero"/></g><g clip-path="url(#d06c4f1f6d)"><path fill="#ff9700" d="M 92.847656 38.953125 C 92.640625 38.933594 92.441406 38.894531 92.246094 38.828125 C 91.589844 38.652344 91.074219 38.246094 90.640625 37.71875 C 90.5 37.550781 90.394531 37.359375 90.320312 37.152344 C 90.179688 36.789062 90.070312 36.414062 89.992188 36.03125 C 89.96875 35.898438 89.96875 35.765625 89.996094 35.636719 C 90.03125 35.464844 90.042969 35.292969 90.089844 35.125 C 90.175781 34.777344 90.339844 34.480469 90.585938 34.230469 C 90.78125 34.019531 90.992188 33.828125 91.226562 33.664062 C 91.472656 33.496094 91.742188 33.367188 92.023438 33.277344 C 92.15625 33.242188 92.28125 33.1875 92.398438 33.113281 C 92.824219 32.839844 93.277344 32.84375 93.730469 33.007812 C 94.117188 33.144531 94.472656 33.339844 94.796875 33.601562 C 95.042969 33.796875 95.234375 34.042969 95.375 34.332031 C 95.613281 34.796875 95.722656 35.292969 95.703125 35.820312 C 95.6875 36.519531 95.523438 37.179688 95.210938 37.796875 C 95.066406 38.089844 94.855469 38.308594 94.574219 38.457031 C 94.273438 38.632812 93.953125 38.769531 93.613281 38.863281 C 93.363281 38.921875 93.105469 38.949219 92.847656 38.953125 Z M 92.847656 38.953125 " fill-opacity="1" fill-rule="nonzero"/></g><g clip-path="url(#35bf948baa)"><path fill="#64f9c3" d="M 97.878906 36.5625 C 97.878906 36.484375 97.878906 36.402344 97.878906 36.324219 C 97.925781 35.992188 98.007812 35.671875 98.121094 35.359375 C 98.136719 35.328125 98.148438 35.292969 98.164062 35.261719 C 98.265625 35.0625 98.355469 34.859375 98.425781 34.648438 C 98.472656 34.503906 98.554688 34.386719 98.667969 34.289062 C 98.988281 33.996094 99.351562 33.773438 99.75 33.617188 C 100.105469 33.472656 100.472656 33.425781 100.847656 33.484375 C 101.179688 33.550781 101.488281 33.683594 101.773438 33.882812 C 102.097656 34.09375 102.328125 34.386719 102.472656 34.761719 C 102.519531 34.878906 102.578125 34.992188 102.648438 35.101562 C 102.710938 35.203125 102.765625 35.308594 102.808594 35.421875 C 103 35.917969 103.125 36.433594 103.1875 36.964844 C 103.195312 37.132812 103.183594 37.296875 103.148438 37.457031 C 103.109375 37.707031 103.046875 37.945312 102.960938 38.183594 C 102.875 38.421875 102.734375 38.625 102.539062 38.785156 C 102.28125 39.003906 101.992188 39.15625 101.675781 39.242188 C 101.320312 39.351562 100.960938 39.425781 100.59375 39.464844 C 100.289062 39.492188 99.996094 39.433594 99.71875 39.296875 C 99.550781 39.214844 99.378906 39.125 99.214844 39.03125 C 99.027344 38.914062 98.867188 38.765625 98.730469 38.585938 C 98.617188 38.457031 98.515625 38.316406 98.40625 38.183594 C 98.132812 37.816406 97.972656 37.40625 97.925781 36.941406 C 97.910156 36.816406 97.894531 36.691406 97.878906 36.5625 Z M 97.878906 36.5625 " fill-opacity="1" fill-rule="nonzero"/></g></svg>