<svg xmlns="http://www.w3.org/2000/svg" xmlns:xlink="http://www.w3.org/1999/xlink" width="200" zoomAndPan="magnify" viewBox="0 0 150 112.499997" height="150" preserveAspectRatio="xMidYMid meet" version="1.0"><defs><clipPath id="04e05a3df9"><path d="M 31 11.199219 L 119 11.199219 L 119 100 L 31 100 Z M 31 11.199219 " clip-rule="nonzero"/></clipPath><clipPath id="deef8ff15f"><path d="M 66 11.199219 L 95 11.199219 L 95 26 L 66 26 Z M 66 11.199219 " clip-rule="nonzero"/></clipPath></defs><g clip-path="url(#04e05a3df9)"><path fill="#2ab9e4" d="M 118.742188 55.492188 C 118.742188 56.921875 118.671875 58.347656 118.53125 59.769531 C 118.394531 61.191406 118.183594 62.605469 117.90625 64.003906 C 117.628906 65.40625 117.28125 66.792969 116.871094 68.160156 C 116.457031 69.527344 115.976562 70.871094 115.433594 72.191406 C 114.886719 73.511719 114.277344 74.800781 113.605469 76.0625 C 112.9375 77.320312 112.203125 78.546875 111.414062 79.734375 C 110.621094 80.921875 109.773438 82.070312 108.871094 83.175781 C 107.964844 84.277344 107.011719 85.335938 106.003906 86.347656 C 104.996094 87.355469 103.941406 88.316406 102.839844 89.222656 C 101.742188 90.128906 100.597656 90.980469 99.414062 91.773438 C 98.230469 92.566406 97.007812 93.300781 95.753906 93.976562 C 94.496094 94.648438 93.210938 95.257812 91.894531 95.804688 C 90.578125 96.351562 89.238281 96.832031 87.875 97.246094 C 86.511719 97.664062 85.132812 98.007812 83.734375 98.289062 C 82.339844 98.566406 80.929688 98.777344 79.515625 98.917969 C 78.097656 99.058594 76.675781 99.125 75.25 99.125 C 73.828125 99.125 72.40625 99.058594 70.988281 98.917969 C 69.570312 98.777344 68.164062 98.566406 66.765625 98.289062 C 65.371094 98.007812 63.988281 97.664062 62.625 97.246094 C 61.261719 96.832031 59.921875 96.351562 58.609375 95.804688 C 57.292969 95.257812 56.003906 94.648438 54.75 93.976562 C 53.492188 93.300781 52.273438 92.566406 51.089844 91.773438 C 49.90625 90.980469 48.761719 90.128906 47.660156 89.222656 C 46.558594 88.316406 45.503906 87.355469 44.5 86.347656 C 43.492188 85.335938 42.535156 84.277344 41.632812 83.175781 C 40.726562 82.070312 39.878906 80.921875 39.089844 79.734375 C 38.296875 78.546875 37.566406 77.320312 36.894531 76.0625 C 36.222656 74.800781 35.617188 73.511719 35.070312 72.191406 C 34.523438 70.871094 34.046875 69.527344 33.632812 68.160156 C 33.21875 66.792969 32.875 65.40625 32.59375 64.003906 C 32.316406 62.605469 32.109375 61.191406 31.96875 59.769531 C 31.828125 58.347656 31.761719 56.921875 31.761719 55.492188 C 31.761719 54.0625 31.828125 52.636719 31.96875 51.214844 C 32.109375 49.792969 32.316406 48.382812 32.59375 46.980469 C 32.875 45.578125 33.21875 44.195312 33.632812 42.828125 C 34.046875 41.460938 34.523438 40.113281 35.070312 38.792969 C 35.617188 37.472656 36.222656 36.183594 36.894531 34.925781 C 37.566406 33.664062 38.296875 32.4375 39.089844 31.25 C 39.878906 30.0625 40.726562 28.917969 41.632812 27.8125 C 42.535156 26.707031 43.492188 25.648438 44.5 24.640625 C 45.503906 23.628906 46.558594 22.667969 47.660156 21.761719 C 48.761719 20.855469 49.90625 20.007812 51.089844 19.210938 C 52.273438 18.417969 53.492188 17.683594 54.75 17.011719 C 56.003906 16.335938 57.292969 15.726562 58.609375 15.179688 C 59.921875 14.632812 61.261719 14.152344 62.625 13.738281 C 63.988281 13.324219 65.371094 12.976562 66.765625 12.695312 C 68.164062 12.417969 69.570312 12.207031 70.988281 12.070312 C 72.40625 11.929688 73.828125 11.859375 75.25 11.859375 C 76.675781 11.859375 78.097656 11.929688 79.515625 12.070312 C 80.929688 12.207031 82.339844 12.417969 83.734375 12.695312 C 85.132812 12.976562 86.511719 13.324219 87.875 13.738281 C 89.238281 14.152344 90.578125 14.632812 91.894531 15.179688 C 93.210938 15.726562 94.496094 16.335938 95.753906 17.011719 C 97.007812 17.683594 98.230469 18.417969 99.414062 19.210938 C 100.597656 20.007812 101.742188 20.855469 102.839844 21.761719 C 103.941406 22.667969 104.996094 23.628906 106.003906 24.640625 C 107.011719 25.648438 107.964844 26.707031 108.871094 27.8125 C 109.773438 28.917969 110.621094 30.0625 111.414062 31.25 C 112.203125 32.4375 112.9375 33.664062 113.605469 34.925781 C 114.277344 36.183594 114.886719 37.472656 115.433594 38.792969 C 115.976562 40.113281 116.457031 41.460938 116.871094 42.828125 C 117.28125 44.195312 117.628906 45.578125 117.90625 46.980469 C 118.183594 48.382812 118.394531 49.792969 118.53125 51.214844 C 118.671875 52.636719 118.742188 54.0625 118.742188 55.492188 Z M 118.742188 55.492188 " fill-opacity="1" fill-rule="nonzero"/></g><g clip-path="url(#deef8ff15f)"><path fill="#f873b0" d="M 66.371094 12.769531 C 66.371094 12.769531 90.402344 18.203125 92.910156 25.1875 C 94.882812 22.164062 93.824219 16.027344 93.824219 16.027344 C 93.824219 16.027344 82.898438 9.414062 66.371094 12.769531 Z M 66.371094 12.769531 " fill-opacity="1" fill-rule="nonzero"/></g><path fill="#f873b0" d="M 92.910156 25.1875 C 92.910156 25.1875 100.402344 49.140625 72.800781 99.125 C 101.453125 100.097656 113.28125 78.011719 115.121094 72.953125 C 117.535156 45.242188 97.878906 26.246094 92.910156 25.1875 Z M 92.910156 25.1875 " fill-opacity="1" fill-rule="nonzero"/><path fill="#fdc74f" d="M 35.535156 73.296875 C 35.535156 73.296875 52.324219 37.167969 92.910156 25.1875 C 98.976562 54.675781 72.800781 99.125 72.800781 99.125 C 72.800781 99.125 47.03125 99.125 35.535156 73.296875 Z M 35.535156 73.296875 " fill-opacity="1" fill-rule="nonzero"/><path fill="#fdc74f" d="M 92.910156 25.1875 C 92.910156 25.1875 101.941406 23.617188 110.121094 29.410156 C 102.757812 19.507812 93.820312 16.027344 93.820312 16.027344 C 93.820312 16.027344 94.320312 21.777344 92.910156 25.1875 Z M 92.910156 25.1875 " fill-opacity="1" fill-rule="nonzero"/><path fill="#eaeaea" d="M 100.265625 29.898438 C 100.101562 30.15625 99.890625 30.382812 99.636719 30.574219 C 99.382812 30.765625 99.085938 30.921875 98.75 31.039062 C 98.414062 31.15625 98.042969 31.238281 97.640625 31.28125 C 97.234375 31.320312 96.804688 31.324219 96.347656 31.285156 C 95.890625 31.25 95.414062 31.171875 94.921875 31.058594 C 94.429688 30.945312 93.929688 30.792969 93.421875 30.605469 C 92.914062 30.417969 92.40625 30.195312 91.902344 29.945312 C 91.394531 29.691406 90.902344 29.410156 90.417969 29.097656 C 89.9375 28.789062 89.472656 28.457031 89.03125 28.105469 C 88.589844 27.75 88.179688 27.382812 87.792969 26.996094 C 87.410156 26.613281 87.066406 26.21875 86.753906 25.820312 C 86.445312 25.417969 86.175781 25.019531 85.949219 24.617188 C 85.722656 24.21875 85.546875 23.824219 85.414062 23.4375 C 85.28125 23.054688 85.199219 22.683594 85.164062 22.328125 C 85.132812 21.972656 85.148438 21.636719 85.214844 21.324219 C 85.28125 21.011719 85.394531 20.726562 85.558594 20.46875 C 85.722656 20.214844 85.933594 19.988281 86.1875 19.796875 C 86.441406 19.605469 86.738281 19.449219 87.074219 19.332031 C 87.410156 19.210938 87.78125 19.132812 88.183594 19.089844 C 88.589844 19.050781 89.019531 19.046875 89.476562 19.085938 C 89.933594 19.121094 90.410156 19.195312 90.902344 19.3125 C 91.394531 19.425781 91.894531 19.578125 92.402344 19.765625 C 92.910156 19.953125 93.417969 20.171875 93.921875 20.425781 C 94.429688 20.679688 94.921875 20.960938 95.40625 21.273438 C 95.886719 21.582031 96.351562 21.914062 96.792969 22.265625 C 97.234375 22.621094 97.644531 22.988281 98.027344 23.375 C 98.414062 23.757812 98.757812 24.152344 99.070312 24.550781 C 99.378906 24.949219 99.648438 25.351562 99.875 25.75 C 100.097656 26.152344 100.277344 26.546875 100.410156 26.929688 C 100.542969 27.316406 100.625 27.6875 100.660156 28.042969 C 100.691406 28.398438 100.675781 28.734375 100.609375 29.046875 C 100.542969 29.359375 100.425781 29.644531 100.265625 29.898438 Z M 100.265625 29.898438 " fill-opacity="1" fill-rule="nonzero"/><path fill="#ffffff" d="M 118.027344 53.617188 C 118.027344 54.960938 117.964844 56.300781 117.832031 57.640625 C 117.699219 58.976562 117.503906 60.304688 117.242188 61.625 C 116.980469 62.941406 116.65625 64.246094 116.265625 65.53125 C 115.878906 66.816406 115.425781 68.082031 114.914062 69.324219 C 114.402344 70.566406 113.828125 71.777344 113.199219 72.964844 C 112.566406 74.148438 111.878906 75.300781 111.132812 76.417969 C 110.390625 77.535156 109.59375 78.613281 108.742188 79.652344 C 107.894531 80.691406 106.996094 81.6875 106.046875 82.636719 C 105.101562 83.589844 104.109375 84.492188 103.074219 85.34375 C 102.035156 86.195312 100.960938 86.996094 99.847656 87.742188 C 98.734375 88.488281 97.585938 89.179688 96.40625 89.8125 C 95.222656 90.445312 94.011719 91.019531 92.777344 91.535156 C 91.539062 92.050781 90.277344 92.503906 88.996094 92.890625 C 87.714844 93.28125 86.414062 93.609375 85.101562 93.871094 C 83.789062 94.132812 82.464844 94.332031 81.128906 94.460938 C 79.796875 94.59375 78.460938 94.660156 77.121094 94.660156 C 75.78125 94.660156 74.445312 94.59375 73.109375 94.460938 C 71.777344 94.332031 70.453125 94.132812 69.140625 93.871094 C 67.824219 93.609375 66.527344 93.28125 65.246094 92.890625 C 63.964844 92.503906 62.703125 92.050781 61.464844 91.535156 C 60.226562 91.019531 59.019531 90.445312 57.835938 89.8125 C 56.65625 89.179688 55.507812 88.488281 54.394531 87.742188 C 53.28125 86.996094 52.203125 86.195312 51.167969 85.34375 C 50.132812 84.492188 49.140625 83.589844 48.195312 82.636719 C 47.246094 81.6875 46.347656 80.691406 45.5 79.652344 C 44.648438 78.613281 43.851562 77.535156 43.105469 76.417969 C 42.363281 75.300781 41.675781 74.148438 41.042969 72.964844 C 40.410156 71.777344 39.839844 70.566406 39.328125 69.324219 C 38.8125 68.082031 38.363281 66.816406 37.972656 65.53125 C 37.585938 64.246094 37.261719 62.941406 37 61.625 C 36.738281 60.304688 36.539062 58.976562 36.410156 57.640625 C 36.277344 56.300781 36.210938 54.960938 36.210938 53.617188 C 36.210938 52.273438 36.277344 50.933594 36.410156 49.59375 C 36.539062 48.257812 36.738281 46.929688 37 45.609375 C 37.261719 44.292969 37.585938 42.988281 37.972656 41.703125 C 38.363281 40.417969 38.8125 39.152344 39.328125 37.910156 C 39.839844 36.667969 40.410156 35.457031 41.042969 34.269531 C 41.675781 33.085938 42.363281 31.933594 43.105469 30.816406 C 43.851562 29.699219 44.648438 28.621094 45.5 27.582031 C 46.347656 26.542969 47.246094 25.546875 48.195312 24.597656 C 49.140625 23.644531 50.132812 22.742188 51.167969 21.890625 C 52.203125 21.039062 53.28125 20.238281 54.394531 19.492188 C 55.507812 18.746094 56.65625 18.054688 57.835938 17.421875 C 59.019531 16.789062 60.226562 16.214844 61.464844 15.699219 C 62.703125 15.183594 63.964844 14.730469 65.246094 14.34375 C 66.527344 13.953125 67.824219 13.625 69.140625 13.363281 C 70.453125 13.101562 71.777344 12.902344 73.109375 12.773438 C 74.445312 12.640625 75.78125 12.574219 77.121094 12.574219 C 78.460938 12.574219 79.796875 12.640625 81.128906 12.773438 C 82.464844 12.902344 83.789062 13.101562 85.101562 13.363281 C 86.414062 13.625 87.714844 13.953125 88.996094 14.34375 C 90.277344 14.730469 91.539062 15.183594 92.777344 15.699219 C 94.011719 16.214844 95.222656 16.789062 96.40625 17.421875 C 97.585938 18.054688 98.734375 18.746094 99.847656 19.492188 C 100.960938 20.238281 102.035156 21.039062 103.074219 21.890625 C 104.109375 22.742188 105.101562 23.644531 106.046875 24.597656 C 106.996094 25.546875 107.894531 26.542969 108.742188 27.582031 C 109.59375 28.621094 110.390625 29.699219 111.132812 30.816406 C 111.878906 31.933594 112.566406 33.085938 113.199219 34.269531 C 113.828125 35.457031 114.402344 36.667969 114.914062 37.910156 C 115.425781 39.152344 115.878906 40.417969 116.265625 41.703125 C 116.65625 42.988281 116.980469 44.292969 117.242188 45.609375 C 117.503906 46.929688 117.699219 48.257812 117.832031 49.59375 C 117.964844 50.933594 118.027344 52.273438 118.027344 53.617188 Z M 118.027344 53.617188 " fill-opacity="0.149" fill-rule="nonzero"/></svg>