<svg xmlns="http://www.w3.org/2000/svg" xmlns:xlink="http://www.w3.org/1999/xlink" width="300" zoomAndPan="magnify" viewBox="0 0 224.87999 225" height="300" preserveAspectRatio="xMidYMid meet" version="1.0"><defs><clipPath id="416c319d26"><path d="M 60 23 L 164.800781 23 L 164.800781 202 L 60 202 Z M 60 23 " clip-rule="nonzero"/></clipPath><clipPath id="b2afa07cd2"><path d="M 59.855469 22.546875 L 164.800781 22.546875 L 164.800781 202.453125 L 59.855469 202.453125 Z M 59.855469 22.546875 " clip-rule="nonzero"/></clipPath><clipPath id="1f2e1fe3db"><path d="M 59.855469 30 L 152 30 L 152 202.453125 L 59.855469 202.453125 Z M 59.855469 30 " clip-rule="nonzero"/></clipPath><clipPath id="a76beafbd7"><path d="M 147 24 L 164.800781 24 L 164.800781 68 L 147 68 Z M 147 24 " clip-rule="nonzero"/></clipPath><clipPath id="e6d6ef0792"><path d="M 146 24 L 164.800781 24 L 164.800781 69 L 146 69 Z M 146 24 " clip-rule="nonzero"/></clipPath><clipPath id="dccc650675"><path d="M 63 22.546875 L 163 22.546875 L 163 34 L 63 34 Z M 63 22.546875 " clip-rule="nonzero"/></clipPath><clipPath id="7c01e02543"><path d="M 147 158 L 164.800781 158 L 164.800781 201 L 147 201 Z M 147 158 " clip-rule="nonzero"/></clipPath><clipPath id="1e5f740395"><path d="M 147 157 L 164.800781 157 L 164.800781 202 L 147 202 Z M 147 157 " clip-rule="nonzero"/></clipPath></defs><g clip-path="url(#416c319d26)"><path fill="#000000" d="M 164.179688 53.773438 L 164.179688 29.4375 C 164.179688 25.988281 161.390625 23.191406 157.949219 23.191406 L 80.398438 23.191406 C 79.113281 23.191406 77.917969 23.585938 76.921875 24.253906 L 63.226562 32.597656 C 61.566406 33.71875 60.480469 35.617188 60.480469 37.773438 L 60.480469 62.109375 C 60.480469 65.558594 63.269531 68.355469 66.710938 68.355469 L 87.054688 68.355469 C 87.085938 68.355469 87.113281 68.378906 87.113281 68.410156 L 87.113281 156.640625 L 80.398438 156.640625 C 79.253906 156.640625 78.1875 156.953125 77.269531 157.492188 L 77.265625 157.488281 L 64.035156 165.585938 C 63.644531 165.773438 63.273438 166 62.933594 166.261719 L 62.917969 166.273438 L 62.921875 166.273438 C 61.4375 167.414062 60.480469 169.203125 60.480469 171.222656 L 60.480469 195.558594 C 60.480469 199.007812 63.269531 201.800781 66.710938 201.800781 L 144.261719 201.800781 C 145.308594 201.800781 146.292969 201.539062 147.160156 201.082031 L 147.160156 201.085938 L 147.1875 201.070312 C 147.390625 200.960938 147.589844 200.839844 147.78125 200.707031 L 161.285156 192.492188 L 161.285156 192.488281 C 163.023438 191.382812 164.179688 189.4375 164.179688 187.222656 L 164.179688 162.882812 C 164.179688 159.4375 161.390625 156.640625 157.949219 156.640625 L 137.601562 156.640625 C 137.574219 156.640625 137.546875 156.613281 137.546875 156.585938 L 137.546875 68.355469 L 144.261719 68.355469 C 145.441406 68.355469 146.539062 68.019531 147.480469 67.449219 L 147.480469 67.453125 L 160.898438 59.273438 C 162.851562 58.21875 164.179688 56.152344 164.179688 53.773438 Z M 164.179688 53.773438 " fill-opacity="1" fill-rule="nonzero"/></g><g clip-path="url(#b2afa07cd2)"><path fill="#000000" d="M 144.261719 202.425781 L 66.710938 202.425781 C 62.929688 202.425781 59.855469 199.34375 59.855469 195.558594 L 59.855469 171.222656 C 59.855469 169.089844 60.820312 167.121094 62.503906 165.804688 C 62.527344 165.785156 62.550781 165.765625 62.578125 165.75 C 62.9375 165.476562 63.328125 165.234375 63.738281 165.039062 L 76.941406 156.957031 C 76.964844 156.945312 76.984375 156.933594 77.003906 156.921875 C 78.042969 156.328125 79.214844 156.015625 80.398438 156.015625 L 86.488281 156.015625 L 86.488281 68.976562 L 66.710938 68.976562 C 62.929688 68.976562 59.855469 65.898438 59.855469 62.109375 L 59.855469 37.773438 C 59.855469 35.488281 60.984375 33.359375 62.875 32.078125 C 62.886719 32.074219 62.894531 32.066406 62.902344 32.0625 L 76.585938 23.726562 C 77.71875 22.96875 79.035156 22.570312 80.398438 22.570312 L 157.949219 22.570312 C 161.726562 22.570312 164.800781 25.648438 164.800781 29.4375 L 164.800781 53.773438 C 164.800781 56.292969 163.429688 58.605469 161.21875 59.808594 L 147.804688 67.988281 C 147.777344 68.003906 147.75 68.019531 147.722656 68.03125 C 146.667969 68.652344 145.472656 68.976562 144.261719 68.976562 L 138.167969 68.976562 L 138.167969 156.015625 L 157.949219 156.015625 C 161.726562 156.015625 164.800781 159.097656 164.800781 162.882812 L 164.800781 187.222656 C 164.800781 189.558594 163.632812 191.707031 161.671875 192.980469 C 161.652344 192.996094 161.628906 193.011719 161.605469 193.027344 L 148.121094 201.230469 C 147.917969 201.367188 147.710938 201.496094 147.496094 201.613281 L 147.484375 201.617188 C 147.453125 201.636719 147.421875 201.652344 147.390625 201.664062 C 146.425781 202.164062 145.34375 202.425781 144.261719 202.425781 Z M 63.304688 166.765625 C 63.300781 166.765625 63.300781 166.765625 63.300781 166.765625 C 61.902344 167.84375 61.101562 169.464844 61.101562 171.222656 L 61.101562 195.558594 C 61.101562 198.65625 63.617188 201.175781 66.710938 201.175781 L 144.261719 201.175781 C 145.175781 201.175781 146.054688 200.960938 146.867188 200.53125 C 146.878906 200.523438 146.890625 200.519531 146.898438 200.515625 C 147.082031 200.417969 147.261719 200.308594 147.429688 200.191406 C 147.4375 200.1875 147.449219 200.179688 147.457031 200.171875 L 160.90625 191.992188 C 160.921875 191.980469 160.933594 191.972656 160.949219 191.960938 C 162.582031 190.921875 163.554688 189.148438 163.554688 187.222656 L 163.554688 162.882812 C 163.554688 159.785156 161.042969 157.265625 157.949219 157.265625 L 137.601562 157.265625 C 137.226562 157.265625 136.921875 156.960938 136.921875 156.585938 L 136.921875 68.355469 C 136.921875 68.007812 137.203125 67.730469 137.546875 67.730469 L 144.261719 67.730469 C 145.277344 67.730469 146.277344 67.449219 147.15625 66.914062 C 147.179688 66.898438 147.207031 66.886719 147.230469 66.875 L 160.550781 58.753906 C 160.566406 58.742188 160.585938 58.734375 160.601562 58.722656 C 162.425781 57.742188 163.554688 55.84375 163.554688 53.773438 L 163.554688 29.4375 C 163.554688 26.339844 161.039062 23.816406 157.949219 23.816406 L 80.398438 23.816406 C 79.277344 23.816406 78.195312 24.148438 77.273438 24.773438 C 77.261719 24.777344 77.253906 24.78125 77.246094 24.789062 L 63.5625 33.121094 C 62.019531 34.171875 61.101562 35.910156 61.101562 37.773438 L 61.101562 62.109375 C 61.101562 65.207031 63.617188 67.730469 66.710938 67.730469 L 87.054688 67.730469 C 87.429688 67.730469 87.734375 68.035156 87.734375 68.410156 L 87.734375 156.640625 C 87.734375 156.984375 87.457031 157.265625 87.113281 157.265625 L 80.398438 157.265625 C 79.414062 157.265625 78.4375 157.53125 77.582031 158.03125 C 77.570312 158.039062 77.554688 158.046875 77.542969 158.050781 L 64.359375 166.121094 C 64.34375 166.132812 64.324219 166.140625 64.304688 166.152344 C 63.953125 166.320312 63.617188 166.523438 63.3125 166.757812 C 63.308594 166.761719 63.304688 166.761719 63.304688 166.765625 Z M 63.304688 166.765625 " fill-opacity="1" fill-rule="nonzero"/></g><path fill="#ffffff" d="M 60.480469 195.558594 L 60.480469 171.222656 C 60.480469 167.773438 63.269531 164.976562 66.710938 164.976562 L 87.054688 164.976562 C 87.085938 164.976562 87.109375 164.953125 87.109375 164.921875 L 87.109375 68.410156 C 87.109375 68.378906 87.085938 68.355469 87.054688 68.355469 L 66.710938 68.355469 C 63.269531 68.355469 60.480469 65.558594 60.480469 62.109375 L 60.480469 37.773438 C 60.480469 34.324219 63.269531 31.53125 66.710938 31.53125 L 144.261719 31.53125 C 147.699219 31.53125 150.492188 34.324219 150.492188 37.773438 L 150.492188 62.109375 C 150.492188 65.558594 147.699219 68.355469 144.261719 68.355469 L 123.914062 68.355469 C 123.882812 68.355469 123.859375 68.378906 123.859375 68.410156 L 123.859375 164.921875 C 123.859375 164.953125 123.882812 164.976562 123.914062 164.976562 L 144.261719 164.976562 C 147.699219 164.976562 150.492188 167.773438 150.492188 171.222656 L 150.492188 195.558594 C 150.492188 199.007812 147.699219 201.800781 144.261719 201.800781 L 66.710938 201.800781 C 63.269531 201.800781 60.480469 199.007812 60.480469 195.558594 Z M 60.480469 195.558594 " fill-opacity="1" fill-rule="nonzero"/><g clip-path="url(#1f2e1fe3db)"><path fill="#000000" d="M 144.261719 202.425781 L 66.710938 202.425781 C 62.929688 202.425781 59.855469 199.34375 59.855469 195.558594 L 59.855469 171.222656 C 59.855469 167.433594 62.929688 164.351562 66.710938 164.351562 L 86.488281 164.351562 L 86.488281 68.976562 L 66.710938 68.976562 C 62.929688 68.976562 59.855469 65.898438 59.855469 62.109375 L 59.855469 37.773438 C 59.855469 33.988281 62.929688 30.90625 66.710938 30.90625 L 144.261719 30.90625 C 148.039062 30.90625 151.113281 33.988281 151.113281 37.773438 L 151.113281 62.109375 C 151.113281 65.898438 148.039062 68.976562 144.261719 68.976562 L 124.480469 68.976562 L 124.480469 164.351562 L 144.261719 164.351562 C 148.039062 164.351562 151.113281 167.433594 151.113281 171.222656 L 151.113281 195.558594 C 151.113281 199.34375 148.039062 202.425781 144.261719 202.425781 Z M 66.710938 165.601562 C 63.617188 165.601562 61.101562 168.121094 61.101562 171.222656 L 61.101562 195.558594 C 61.101562 198.65625 63.617188 201.175781 66.710938 201.175781 L 144.261719 201.175781 C 147.351562 201.175781 149.867188 198.65625 149.867188 195.558594 L 149.867188 171.222656 C 149.867188 168.121094 147.351562 165.601562 144.261719 165.601562 L 123.914062 165.601562 C 123.539062 165.601562 123.234375 165.296875 123.234375 164.921875 L 123.234375 68.410156 C 123.234375 68.035156 123.539062 67.730469 123.914062 67.730469 L 144.261719 67.730469 C 147.351562 67.730469 149.867188 65.207031 149.867188 62.109375 L 149.867188 37.773438 C 149.867188 34.675781 147.351562 32.15625 144.261719 32.15625 L 66.710938 32.15625 C 63.617188 32.15625 61.101562 34.675781 61.101562 37.773438 L 61.101562 62.109375 C 61.101562 65.207031 63.617188 67.730469 66.710938 67.730469 L 87.054688 67.730469 C 87.429688 67.730469 87.734375 68.035156 87.734375 68.410156 L 87.734375 164.921875 C 87.734375 165.296875 87.429688 165.601562 87.054688 165.601562 Z M 66.710938 165.601562 " fill-opacity="1" fill-rule="nonzero"/></g><path fill="#c2b092" d="M 87.054688 164.976562 C 87.085938 164.976562 87.113281 164.953125 87.113281 164.921875 L 87.113281 156.640625 L 80.398438 156.640625 C 79.253906 156.640625 78.1875 156.953125 77.269531 157.492188 L 77.265625 157.488281 L 64.035156 165.585938 C 64.847656 165.199219 65.75 164.976562 66.710938 164.976562 Z M 87.054688 164.976562 " fill-opacity="1" fill-rule="nonzero"/><path fill="#000000" d="M 64.039062 166.210938 C 63.816406 166.210938 63.601562 166.09375 63.488281 165.882812 C 63.332031 165.59375 63.429688 165.226562 63.710938 165.054688 L 76.941406 156.957031 C 76.964844 156.941406 76.984375 156.933594 77.003906 156.921875 C 78.042969 156.328125 79.214844 156.015625 80.398438 156.015625 L 87.113281 156.015625 C 87.457031 156.015625 87.734375 156.296875 87.734375 156.640625 L 87.734375 164.921875 C 87.734375 165.296875 87.429688 165.601562 87.054688 165.601562 L 66.710938 165.601562 C 65.878906 165.601562 65.070312 165.785156 64.304688 166.152344 C 64.21875 166.191406 64.125 166.210938 64.039062 166.210938 Z M 67.25 164.351562 L 86.488281 164.351562 L 86.488281 157.265625 L 80.398438 157.265625 C 79.414062 157.265625 78.4375 157.53125 77.582031 158.03125 C 77.570312 158.039062 77.554688 158.046875 77.542969 158.050781 Z M 67.25 164.351562 " fill-opacity="1" fill-rule="nonzero"/><g clip-path="url(#a76beafbd7)"><path fill="#c2b092" d="M 162.011719 24.707031 L 148.394531 33.109375 C 149.675781 34.253906 150.492188 35.917969 150.492188 37.773438 L 150.492188 62.109375 C 150.492188 64.375 149.28125 66.355469 147.480469 67.449219 L 147.480469 67.453125 L 160.898438 59.273438 C 162.851562 58.21875 164.179688 56.152344 164.179688 53.773438 L 164.179688 29.4375 C 164.179688 27.542969 163.335938 25.851562 162.011719 24.707031 Z M 162.011719 24.707031 " fill-opacity="1" fill-rule="nonzero"/></g><g clip-path="url(#e6d6ef0792)"><path fill="#000000" d="M 147.480469 68.078125 C 147.40625 68.078125 147.332031 68.066406 147.261719 68.039062 C 147.082031 67.96875 146.941406 67.820312 146.886719 67.636719 C 146.800781 67.363281 146.914062 67.0625 147.15625 66.914062 C 148.855469 65.882812 149.867188 64.089844 149.867188 62.109375 L 149.867188 37.773438 C 149.867188 36.175781 149.179688 34.644531 147.980469 33.578125 C 147.832031 33.445312 147.753906 33.253906 147.773438 33.054688 C 147.789062 32.859375 147.898438 32.683594 148.066406 32.578125 L 161.683594 24.175781 C 161.914062 24.035156 162.210938 24.058594 162.417969 24.234375 C 163.933594 25.542969 164.800781 27.441406 164.800781 29.4375 L 164.800781 53.773438 C 164.800781 56.292969 163.429688 58.605469 161.21875 59.808594 L 147.804688 67.988281 C 147.707031 68.046875 147.59375 68.078125 147.480469 68.078125 Z M 149.390625 33.230469 C 150.492188 34.480469 151.113281 36.09375 151.113281 37.773438 L 151.113281 62.109375 C 151.113281 63.074219 150.917969 64.003906 150.546875 64.855469 L 160.550781 58.753906 C 160.566406 58.742188 160.585938 58.734375 160.601562 58.722656 C 162.425781 57.738281 163.554688 55.84375 163.554688 53.773438 L 163.554688 29.4375 C 163.554688 27.953125 162.96875 26.539062 161.933594 25.488281 Z M 149.390625 33.230469 " fill-opacity="1" fill-rule="nonzero"/></g><path fill="#c2b092" d="M 157.949219 23.191406 L 80.398438 23.191406 C 79.113281 23.191406 77.917969 23.585938 76.921875 24.253906 L 63.6875 32.316406 C 64.582031 31.816406 65.613281 31.53125 66.710938 31.53125 L 144.261719 31.53125 C 145.847656 31.53125 147.292969 32.128906 148.394531 33.109375 L 162.011719 24.707031 C 160.917969 23.765625 159.503906 23.191406 157.949219 23.191406 Z M 157.949219 23.191406 " fill-opacity="1" fill-rule="nonzero"/><g clip-path="url(#dccc650675)"><path fill="#000000" d="M 148.394531 33.734375 C 148.246094 33.734375 148.097656 33.679688 147.980469 33.578125 C 146.949219 32.660156 145.628906 32.15625 144.261719 32.15625 L 66.710938 32.15625 C 65.757812 32.15625 64.820312 32.398438 63.988281 32.863281 C 63.691406 33.027344 63.316406 32.925781 63.148438 32.628906 C 62.976562 32.335938 63.070312 31.960938 63.363281 31.78125 L 76.585938 23.726562 C 77.71875 22.96875 79.035156 22.570312 80.398438 22.570312 L 157.949219 22.570312 C 159.585938 22.570312 161.171875 23.160156 162.417969 24.234375 C 162.566406 24.363281 162.648438 24.558594 162.632812 24.757812 C 162.617188 24.957031 162.507812 25.136719 162.335938 25.238281 L 148.71875 33.640625 C 148.617188 33.703125 148.507812 33.734375 148.394531 33.734375 Z M 67.199219 30.90625 L 144.261719 30.90625 C 145.777344 30.90625 147.246094 31.414062 148.445312 32.34375 L 160.898438 24.660156 C 160.015625 24.113281 158.996094 23.816406 157.949219 23.816406 L 80.398438 23.816406 C 79.277344 23.816406 78.195312 24.148438 77.273438 24.773438 C 77.261719 24.777344 77.253906 24.78125 77.246094 24.789062 Z M 67.199219 30.90625 " fill-opacity="1" fill-rule="nonzero"/></g><path fill="#c2b092" d="M 157.949219 156.640625 L 137.601562 156.640625 C 137.570312 156.640625 137.546875 156.613281 137.546875 156.585938 L 123.914062 164.976562 L 144.261719 164.976562 C 145.867188 164.976562 147.332031 165.59375 148.4375 166.597656 L 162.054688 158.195312 C 160.957031 157.230469 159.523438 156.640625 157.949219 156.640625 Z M 157.949219 156.640625 " fill-opacity="1" fill-rule="nonzero"/><path fill="#000000" d="M 148.4375 167.222656 C 148.285156 167.222656 148.136719 167.167969 148.019531 167.058594 C 146.980469 166.121094 145.648438 165.601562 144.261719 165.601562 L 123.914062 165.601562 C 123.632812 165.601562 123.390625 165.417969 123.3125 165.148438 C 123.238281 164.878906 123.351562 164.59375 123.585938 164.445312 L 137.21875 156.050781 C 137.398438 155.945312 137.617188 155.929688 137.804688 156.015625 L 157.949219 156.015625 C 159.605469 156.015625 161.210938 156.621094 162.464844 157.726562 C 162.613281 157.855469 162.691406 158.050781 162.671875 158.246094 C 162.65625 158.445312 162.546875 158.621094 162.378906 158.726562 L 148.761719 167.128906 C 148.664062 167.191406 148.550781 167.222656 148.4375 167.222656 Z M 126.117188 164.351562 L 144.261719 164.351562 C 145.800781 164.351562 147.285156 164.875 148.492188 165.828125 L 160.949219 158.140625 C 160.054688 157.570312 159.015625 157.265625 157.949219 157.265625 L 137.632812 157.265625 Z M 138.167969 156.582031 Z M 138.167969 156.582031 " fill-opacity="1" fill-rule="nonzero"/><path fill="#c2b092" d="M 137.546875 68.355469 L 123.914062 68.355469 C 123.882812 68.355469 123.859375 68.378906 123.859375 68.410156 L 123.859375 164.921875 C 123.859375 164.953125 123.882812 164.976562 123.914062 164.976562 L 137.546875 156.585938 Z M 137.546875 68.355469 " fill-opacity="1" fill-rule="nonzero"/><path fill="#000000" d="M 123.914062 165.601562 C 123.539062 165.601562 123.234375 165.296875 123.234375 164.921875 L 123.234375 68.410156 C 123.234375 68.035156 123.539062 67.730469 123.914062 67.730469 L 137.546875 67.730469 C 137.890625 67.730469 138.171875 68.007812 138.171875 68.355469 L 138.171875 156.585938 C 138.171875 156.800781 138.058594 157.003906 137.871094 157.117188 L 124.238281 165.507812 C 124.140625 165.570312 124.027344 165.601562 123.914062 165.601562 Z M 124.480469 68.976562 L 124.480469 163.894531 L 136.921875 156.234375 L 136.921875 68.976562 Z M 124.480469 68.976562 " fill-opacity="1" fill-rule="nonzero"/><g clip-path="url(#7c01e02543)"><path fill="#c2b092" d="M 162.054688 158.195312 L 148.4375 166.597656 C 149.695312 167.738281 150.492188 169.386719 150.492188 171.222656 L 150.492188 195.558594 C 150.492188 197.695312 149.417969 199.582031 147.78125 200.707031 L 161.285156 192.492188 L 161.285156 192.488281 C 163.023438 191.382812 164.179688 189.4375 164.179688 187.222656 L 164.179688 162.882812 C 164.179688 161.011719 163.355469 159.339844 162.054688 158.195312 Z M 162.054688 158.195312 " fill-opacity="1" fill-rule="nonzero"/></g><g clip-path="url(#1e5f740395)"><path fill="#000000" d="M 147.78125 201.332031 C 147.578125 201.332031 147.375 201.230469 147.257812 201.046875 C 147.074219 200.761719 147.152344 200.382812 147.429688 200.191406 C 148.957031 199.140625 149.867188 197.410156 149.867188 195.558594 L 149.867188 171.222656 C 149.867188 169.644531 149.195312 168.125 148.019531 167.058594 C 147.871094 166.929688 147.796875 166.734375 147.816406 166.539062 C 147.832031 166.34375 147.941406 166.167969 148.109375 166.066406 L 161.726562 157.664062 C 161.960938 157.519531 162.257812 157.542969 162.464844 157.726562 C 163.949219 159.03125 164.800781 160.914062 164.800781 162.882812 L 164.800781 187.222656 C 164.800781 189.558594 163.632812 191.707031 161.671875 192.980469 C 161.652344 193 161.628906 193.011719 161.605469 193.027344 L 148.105469 201.242188 C 148.003906 201.300781 147.890625 201.332031 147.78125 201.332031 Z M 149.425781 166.71875 C 150.507812 167.964844 151.113281 169.566406 151.113281 171.222656 L 151.113281 195.558594 C 151.113281 196.515625 150.914062 197.445312 150.546875 198.296875 L 160.90625 191.992188 C 160.921875 191.980469 160.933594 191.972656 160.949219 191.960938 C 162.582031 190.921875 163.554688 189.148438 163.554688 187.222656 L 163.554688 162.882812 C 163.554688 161.421875 162.984375 160.023438 161.972656 158.976562 Z M 149.425781 166.71875 " fill-opacity="1" fill-rule="nonzero"/></g></svg>