<svg xmlns="http://www.w3.org/2000/svg" xmlns:xlink="http://www.w3.org/1999/xlink" width="200" zoomAndPan="magnify" viewBox="0 0 150 149.999998" height="200" preserveAspectRatio="xMidYMid meet" version="1.0"><defs><clipPath id="56410432b6"><path d="M 14 27.785156 L 136 27.785156 L 136 68 L 14 68 Z M 14 27.785156 " clip-rule="nonzero"/></clipPath><clipPath id="dab0843a81"><path d="M 8 82 L 142 82 L 142 122.285156 L 8 122.285156 Z M 8 82 " clip-rule="nonzero"/></clipPath></defs><g clip-path="url(#56410432b6)"><path fill="#000000" d="M 16.683594 67.808594 L 133.570312 67.808594 C 134.824219 67.808594 135.660156 66.96875 135.660156 65.710938 L 135.660156 65.292969 C 135.242188 44.96875 107.640625 27.785156 75.019531 27.785156 C 42.191406 27.785156 14.382812 45.175781 14.382812 65.710938 C 14.59375 66.96875 15.429688 67.808594 16.683594 67.808594 Z M 75.019531 31.976562 C 103.875 31.976562 129.386719 46.433594 131.269531 63.617188 L 18.773438 63.617188 C 20.65625 46.644531 46.164062 31.976562 75.019531 31.976562 Z M 75.019531 31.976562 " fill-opacity="1" fill-rule="nonzero"/></g><path fill="#000000" d="M 37.382812 52.300781 C 37.382812 52.578125 37.332031 52.847656 37.226562 53.105469 C 37.117188 53.359375 36.96875 53.585938 36.769531 53.785156 C 36.574219 53.980469 36.347656 54.132812 36.09375 54.238281 C 35.835938 54.34375 35.570312 54.398438 35.292969 54.398438 C 35.015625 54.398438 34.75 54.34375 34.492188 54.238281 C 34.238281 54.132812 34.011719 53.980469 33.8125 53.785156 C 33.617188 53.585938 33.46875 53.359375 33.359375 53.105469 C 33.253906 52.847656 33.203125 52.578125 33.203125 52.300781 C 33.203125 52.023438 33.253906 51.757812 33.359375 51.5 C 33.46875 51.242188 33.617188 51.015625 33.8125 50.820312 C 34.011719 50.625 34.238281 50.472656 34.492188 50.367188 C 34.75 50.257812 35.015625 50.207031 35.292969 50.207031 C 35.570312 50.207031 35.835938 50.257812 36.09375 50.367188 C 36.347656 50.472656 36.574219 50.625 36.769531 50.820312 C 36.96875 51.015625 37.117188 51.242188 37.226562 51.5 C 37.332031 51.757812 37.382812 52.023438 37.382812 52.300781 Z M 37.382812 52.300781 " fill-opacity="1" fill-rule="nonzero"/><path fill="#000000" d="M 47.839844 46.015625 C 47.839844 46.292969 47.785156 46.5625 47.679688 46.816406 C 47.574219 47.074219 47.421875 47.300781 47.226562 47.496094 C 47.03125 47.695312 46.804688 47.84375 46.546875 47.953125 C 46.292969 48.058594 46.023438 48.109375 45.746094 48.109375 C 45.46875 48.109375 45.203125 48.058594 44.949219 47.953125 C 44.691406 47.84375 44.464844 47.695312 44.269531 47.496094 C 44.074219 47.300781 43.921875 47.074219 43.816406 46.816406 C 43.710938 46.5625 43.65625 46.292969 43.65625 46.015625 C 43.65625 45.738281 43.710938 45.46875 43.816406 45.214844 C 43.921875 44.957031 44.074219 44.730469 44.269531 44.535156 C 44.464844 44.335938 44.691406 44.1875 44.949219 44.078125 C 45.203125 43.972656 45.46875 43.921875 45.746094 43.921875 C 46.023438 43.921875 46.292969 43.972656 46.546875 44.078125 C 46.804688 44.1875 47.03125 44.335938 47.226562 44.535156 C 47.421875 44.730469 47.574219 44.957031 47.679688 45.214844 C 47.785156 45.46875 47.839844 45.738281 47.839844 46.015625 Z M 47.839844 46.015625 " fill-opacity="1" fill-rule="nonzero"/><path fill="#000000" d="M 65.613281 37.632812 C 65.402344 37.425781 64.984375 37.425781 64.777344 37.425781 C 63.519531 37.425781 62.683594 38.261719 62.683594 39.519531 C 62.683594 40.777344 63.730469 41.617188 64.777344 41.617188 C 65.613281 41.617188 66.238281 41.195312 66.65625 40.359375 C 66.867188 40.148438 66.867188 39.730469 66.867188 39.519531 C 66.65625 38.890625 66.238281 38.054688 65.613281 37.632812 Z M 65.613281 37.632812 " fill-opacity="1" fill-rule="nonzero"/><path fill="#000000" d="M 75.019531 50.207031 C 74.394531 50.207031 73.976562 50.417969 73.558594 50.835938 C 73.140625 51.253906 72.929688 51.671875 72.929688 52.300781 C 72.929688 53.140625 73.347656 53.769531 74.183594 54.1875 C 74.394531 54.398438 74.8125 54.398438 75.019531 54.398438 C 76.277344 54.398438 77.113281 53.558594 77.113281 52.300781 C 77.113281 51.042969 76.277344 50.207031 75.019531 50.207031 Z M 75.019531 50.207031 " fill-opacity="1" fill-rule="nonzero"/><path fill="#000000" d="M 85.476562 41.617188 C 85.476562 41.894531 85.421875 42.160156 85.316406 42.417969 C 85.210938 42.675781 85.058594 42.902344 84.863281 43.097656 C 84.667969 43.292969 84.441406 43.445312 84.183594 43.550781 C 83.929688 43.65625 83.664062 43.710938 83.386719 43.710938 C 83.109375 43.710938 82.839844 43.65625 82.585938 43.550781 C 82.328125 43.445312 82.101562 43.292969 81.90625 43.097656 C 81.710938 42.902344 81.558594 42.675781 81.453125 42.417969 C 81.347656 42.160156 81.292969 41.894531 81.292969 41.617188 C 81.292969 41.335938 81.347656 41.070312 81.453125 40.8125 C 81.558594 40.558594 81.710938 40.332031 81.90625 40.132812 C 82.101562 39.9375 82.328125 39.785156 82.585938 39.679688 C 82.839844 39.574219 83.109375 39.519531 83.386719 39.519531 C 83.664062 39.519531 83.929688 39.574219 84.183594 39.679688 C 84.441406 39.785156 84.667969 39.9375 84.863281 40.132812 C 85.058594 40.332031 85.210938 40.558594 85.316406 40.8125 C 85.421875 41.070312 85.476562 41.335938 85.476562 41.617188 Z M 85.476562 41.617188 " fill-opacity="1" fill-rule="nonzero"/><path fill="#000000" d="M 99.066406 54.605469 C 97.8125 53.976562 96.140625 55.027344 96.140625 56.492188 C 96.140625 57.75 97.1875 58.585938 98.230469 58.585938 C 98.859375 58.585938 99.277344 58.378906 99.695312 57.960938 C 100.113281 57.539062 100.320312 57.121094 100.320312 56.492188 C 100.113281 55.65625 99.695312 54.816406 99.066406 54.605469 Z M 99.066406 54.605469 " fill-opacity="1" fill-rule="nonzero"/><path fill="#000000" d="M 112.660156 50.207031 C 111.402344 50.207031 110.566406 51.253906 110.566406 52.300781 C 110.566406 53.347656 111.613281 54.398438 112.660156 54.398438 C 113.285156 54.398438 113.703125 54.1875 114.121094 53.769531 C 114.539062 53.347656 114.75 52.929688 114.75 52.300781 C 114.75 51.671875 114.539062 51.253906 114.121094 50.835938 C 113.703125 50.417969 113.285156 50.207031 112.660156 50.207031 Z M 112.660156 50.207031 " fill-opacity="1" fill-rule="nonzero"/><path fill="#000000" d="M 52.230469 53.558594 C 52.019531 53.769531 52.019531 54.1875 52.019531 54.398438 C 52.019531 55.65625 52.855469 56.492188 54.113281 56.492188 C 55.367188 56.492188 56.203125 55.445312 56.203125 54.398438 C 56.203125 53.769531 55.992188 53.347656 55.574219 52.929688 C 54.738281 52.09375 52.855469 52.300781 52.230469 53.558594 Z M 52.230469 53.558594 " fill-opacity="1" fill-rule="nonzero"/><path fill="#000000" d="M 103.25 42.035156 C 103.039062 41.824219 102.621094 41.824219 102.414062 41.824219 C 101.160156 41.824219 100.320312 42.664062 100.320312 43.921875 C 100.320312 45.175781 101.367188 46.015625 102.414062 46.015625 C 103.039062 46.015625 103.457031 45.804688 103.875 45.386719 C 104.292969 44.96875 104.503906 44.550781 104.503906 43.921875 C 104.292969 43.082031 103.875 42.246094 103.25 42.035156 Z M 103.25 42.035156 " fill-opacity="1" fill-rule="nonzero"/><g clip-path="url(#dab0843a81)"><path fill="#000000" d="M 16.472656 105.3125 L 16.472656 110.972656 C 16.472656 116.210938 20.65625 122.285156 26.71875 122.285156 L 123.113281 122.285156 C 129.175781 122.285156 133.359375 116.210938 133.359375 110.761719 L 133.359375 105.105469 C 137.960938 104.058594 141.722656 99.238281 141.722656 94 L 141.722656 91.695312 C 141.722656 86.246094 137.332031 82.265625 131.269531 82.265625 L 70.421875 82.265625 C 70.421875 82.265625 70.210938 82.265625 70.003906 82.265625 L 37.59375 93.160156 L 30.902344 86.664062 L 52.019531 86.664062 C 53.273438 86.664062 54.113281 85.828125 54.113281 84.570312 C 54.113281 83.3125 53.273438 82.476562 52.019531 82.476562 L 18.566406 82.476562 C 12.5 82.476562 8.109375 86.457031 8.109375 91.902344 L 8.109375 94.207031 C 8.109375 99.445312 11.875 104.058594 16.472656 105.3125 Z M 123.324219 118.09375 L 26.71875 118.09375 C 23.375 118.09375 20.65625 114.113281 20.65625 110.761719 L 20.65625 105.523438 L 129.386719 105.523438 L 129.386719 110.761719 C 129.386719 114.113281 126.667969 118.09375 123.324219 118.09375 Z M 12.292969 91.902344 C 12.292969 88.339844 15.429688 86.664062 18.566406 86.664062 L 25.046875 86.664062 L 35.710938 97.351562 C 36.128906 97.769531 36.546875 97.980469 37.175781 97.980469 C 37.382812 97.980469 37.59375 97.980469 37.800781 97.769531 L 71.257812 86.664062 L 131.476562 86.664062 C 134.613281 86.664062 137.75 88.339844 137.75 91.902344 L 137.75 94.207031 C 137.75 97.769531 134.613281 101.332031 131.476562 101.332031 L 18.566406 101.332031 C 15.429688 101.332031 12.292969 97.769531 12.292969 94.207031 Z M 12.292969 91.902344 " fill-opacity="1" fill-rule="nonzero"/></g><path fill="#000000" d="M 16.472656 75.140625 C 18.148438 75.140625 18.773438 75.558594 19.609375 75.980469 C 20.65625 76.609375 22.121094 77.238281 24.628906 77.238281 C 27.136719 77.238281 28.601562 76.609375 29.648438 75.980469 C 30.691406 75.558594 31.320312 75.140625 32.992188 75.140625 C 34.664062 75.140625 35.292969 75.558594 36.128906 75.980469 C 37.175781 76.609375 38.636719 77.238281 41.148438 77.238281 C 43.65625 77.238281 45.121094 76.609375 46.164062 75.980469 C 47.210938 75.558594 47.839844 75.140625 49.511719 75.140625 C 51.183594 75.140625 51.8125 75.558594 52.648438 75.980469 C 53.695312 76.609375 55.15625 77.238281 57.667969 77.238281 C 60.175781 77.238281 61.640625 76.609375 62.683594 75.980469 C 63.730469 75.558594 64.355469 75.140625 66.03125 75.140625 C 67.703125 75.140625 68.332031 75.558594 69.375 75.980469 C 70.421875 76.609375 71.886719 77.238281 74.394531 77.238281 C 76.902344 77.238281 78.367188 76.609375 79.414062 75.980469 C 80.457031 75.558594 81.085938 75.140625 82.757812 75.140625 C 84.429688 75.140625 85.058594 75.558594 86.101562 75.980469 C 87.148438 76.609375 88.613281 77.238281 91.121094 77.238281 C 93.632812 77.238281 95.09375 76.609375 96.140625 75.980469 C 97.1875 75.558594 97.8125 75.140625 99.484375 75.140625 C 101.160156 75.140625 101.785156 75.558594 102.832031 75.980469 C 103.875 76.609375 105.339844 77.238281 107.847656 77.238281 C 110.359375 77.238281 111.824219 76.609375 112.867188 75.980469 C 113.914062 75.558594 114.539062 75.140625 116.214844 75.140625 C 117.886719 75.140625 118.511719 75.558594 119.558594 75.980469 C 120.605469 76.609375 122.066406 77.238281 124.578125 77.238281 C 127.085938 77.238281 128.550781 76.609375 129.59375 75.980469 C 130.640625 75.558594 131.269531 75.140625 132.941406 75.140625 C 134.195312 75.140625 135.03125 74.304688 135.03125 73.046875 C 135.03125 71.789062 134.195312 70.949219 132.941406 70.949219 C 130.433594 70.949219 128.96875 71.578125 127.921875 72.207031 C 126.878906 72.625 126.25 73.046875 124.578125 73.046875 C 122.90625 73.046875 122.277344 72.625 121.230469 72.207031 C 120.1875 71.578125 118.722656 70.949219 116.003906 70.949219 C 113.496094 70.949219 112.03125 71.578125 110.984375 72.207031 C 109.941406 72.625 109.3125 73.046875 107.640625 73.046875 C 105.96875 73.046875 105.339844 72.625 104.292969 72.207031 C 103.25 71.578125 101.785156 70.949219 99.277344 70.949219 C 96.765625 70.949219 95.304688 71.578125 94.257812 72.207031 C 93.210938 72.625 92.585938 73.046875 90.914062 73.046875 C 89.238281 73.046875 88.613281 72.625 87.566406 72.207031 C 86.523438 71.578125 85.058594 70.949219 82.546875 70.949219 C 80.039062 70.949219 78.574219 71.578125 77.53125 72.207031 C 76.484375 72.625 75.859375 73.046875 74.183594 73.046875 C 72.511719 73.046875 71.886719 72.625 70.839844 72.207031 C 69.792969 71.578125 68.332031 70.949219 65.820312 70.949219 C 63.3125 70.949219 61.847656 71.578125 60.804688 72.207031 C 59.757812 72.625 59.128906 73.046875 57.457031 73.046875 C 55.785156 73.046875 55.15625 72.625 54.113281 72.207031 C 53.066406 71.578125 51.601562 70.949219 49.09375 70.949219 C 46.585938 70.949219 45.121094 71.578125 44.074219 72.207031 C 43.03125 72.625 42.402344 73.046875 40.730469 73.046875 C 39.058594 73.046875 38.429688 72.625 37.59375 72.207031 C 36.546875 71.578125 35.082031 70.949219 32.574219 70.949219 C 30.066406 70.949219 28.601562 71.578125 27.554688 72.207031 C 26.511719 72.625 25.882812 73.046875 24.210938 73.046875 C 22.539062 73.046875 21.910156 72.625 21.074219 72.207031 C 20.027344 71.578125 18.566406 70.949219 16.054688 70.949219 C 14.800781 70.949219 13.964844 71.789062 13.964844 73.046875 C 13.964844 74.304688 15.429688 75.140625 16.472656 75.140625 Z M 16.472656 75.140625 " fill-opacity="1" fill-rule="nonzero"/></svg>