<svg xmlns="http://www.w3.org/2000/svg" xmlns:xlink="http://www.w3.org/1999/xlink" width="200" zoomAndPan="magnify" viewBox="0 0 150 112.499997" height="150" preserveAspectRatio="xMidYMid meet" version="1.0"><defs><clipPath id="21e84b978f"><path d="M 34.179688 14.578125 L 115.546875 14.578125 L 115.546875 100.800781 L 34.179688 100.800781 Z M 34.179688 14.578125 " clip-rule="nonzero"/></clipPath><clipPath id="4adef1f15b"><path d="M 21.316406 13 L 128.839844 13 L 128.839844 94 L 21.316406 94 Z M 21.316406 13 " clip-rule="nonzero"/></clipPath></defs><path fill="#f8e505" d="M 75.566406 92.359375 L 75.570312 92.148438 L 75.328125 91.8125 C 75.199219 91.632812 75.027344 91.480469 74.8125 91.347656 C 74.226562 90.988281 73.445312 90.960938 72.691406 90.933594 L 72.589844 90.929688 C 71.988281 90.90625 71.527344 90.898438 71.09375 90.898438 C 70.28125 90.898438 69.574219 90.9375 68.933594 91.015625 C 67.109375 91.242188 65.652344 91.882812 64.59375 92.914062 L 63.65625 93.832031 L 63.65625 93.476562 C 63.339844 93.671875 63.039062 93.882812 62.761719 94.101562 C 62.667969 94.175781 62.570312 94.257812 62.472656 94.339844 L 62.054688 94.03125 L 62.308594 94.480469 C 60.648438 95.972656 61.054688 96.832031 61.191406 97.113281 C 61.433594 97.621094 61.855469 97.925781 62.523438 98.078125 L 62.734375 98.128906 L 62.855469 98.308594 C 63.078125 98.636719 63.511719 98.789062 64.21875 98.789062 C 64.542969 98.789062 64.878906 98.757812 65.144531 98.730469 C 66.539062 98.59375 68.019531 98.394531 69.386719 97.859375 C 69.652344 97.753906 69.90625 97.636719 70.140625 97.515625 L 70.886719 97.132812 L 70.945312 97.964844 C 70.976562 98.433594 71.015625 98.863281 71.054688 99.269531 C 71.113281 99.117188 71.085938 98.789062 71.066406 98.550781 C 71.058594 98.40625 71.046875 98.273438 71.046875 98.152344 C 71.042969 97.867188 71.046875 97.578125 71.054688 97.289062 L 71.066406 96.921875 L 71.410156 96.789062 L 71.496094 96.761719 C 71.71875 96.671875 71.953125 96.570312 72.222656 96.449219 L 72.527344 96.308594 L 72.792969 96.511719 C 72.871094 96.574219 72.949219 96.636719 73.023438 96.707031 L 73.1875 96.871094 L 73.183594 97.234375 L 73.175781 97.253906 C 73.121094 98.082031 73.082031 99.015625 73.207031 99.882812 C 73.207031 99.847656 73.207031 99.816406 73.207031 99.785156 L 73.277344 96.484375 L 73.503906 96.324219 C 73.953125 96.003906 74.429688 95.726562 74.925781 95.492188 L 75.539062 95.207031 L 75.5625 93.042969 L 75.566406 93 C 75.601562 92.789062 75.605469 92.585938 75.574219 92.40625 Z M 126.769531 77.332031 C 126.605469 74.316406 126.511719 71.808594 126.472656 69.449219 C 126.386719 64.207031 126.417969 58.917969 126.574219 53.738281 C 126.617188 52.214844 126.78125 50.597656 126.949219 48.882812 C 127.292969 45.429688 127.648438 41.863281 127.035156 38.953125 C 126.410156 36 123.914062 32.894531 121.714844 30.15625 C 121 29.265625 120.324219 28.425781 119.730469 27.613281 C 118.980469 26.59375 118.214844 25.511719 117.476562 24.464844 C 115.019531 20.992188 112.480469 17.398438 109.554688 14.5625 C 108.449219 13.488281 107.285156 12.992188 105.894531 12.992188 C 104.222656 12.992188 102.402344 13.71875 100.476562 14.492188 L 100.113281 14.636719 C 99.703125 14.800781 99.300781 14.972656 98.894531 15.148438 C 95.234375 16.726562 91.699219 18.765625 88.277344 20.742188 C 87.421875 21.234375 86.566406 21.730469 85.707031 22.214844 L 78.789062 26.140625 C 78.144531 26.507812 77.554688 27.035156 76.984375 27.539062 C 76.496094 27.976562 76.035156 28.382812 75.550781 28.691406 L 75.070312 29.472656 L 74.605469 28.691406 C 74.121094 28.382812 73.660156 27.972656 73.171875 27.539062 C 72.601562 27.035156 72.011719 26.507812 71.367188 26.140625 L 64.449219 22.214844 C 63.589844 21.730469 62.734375 21.234375 61.878906 20.742188 C 58.625 18.863281 55.265625 16.925781 51.796875 15.382812 C 51.679688 15.234375 51.523438 15.121094 51.359375 15.074219 C 51.320312 15.0625 51.28125 15.058594 51.242188 15.050781 L 51.480469 14.640625 C 51.070312 14.464844 50.660156 14.292969 50.246094 14.128906 C 46.558594 12.652344 43.28125 11.195312 40.214844 14.167969 C 36.347656 17.921875 33.164062 22.953125 29.980469 27.289062 C 27.511719 30.652344 23.441406 34.796875 22.585938 38.839844 C 21.644531 43.277344 22.894531 49.136719 23.03125 53.753906 C 23.1875 58.980469 23.21875 64.210938 23.132812 69.4375 C 23.089844 72.066406 22.976562 74.679688 22.835938 77.304688 C 22.703125 79.738281 21.851562 83.398438 23.015625 85.613281 C 24.5625 88.542969 28.449219 88.597656 30.941406 90.246094 C 31.144531 90.382812 31.347656 90.503906 31.542969 90.621094 L 31.542969 90.625 C 31.546875 90.625 31.546875 90.625 31.550781 90.625 C 32.550781 91.214844 33.488281 91.570312 34.46875 91.679688 C 34.46875 91.675781 34.46875 91.675781 34.46875 91.675781 C 34.550781 91.710938 34.632812 91.742188 34.726562 91.753906 C 34.851562 91.773438 34.964844 91.769531 35.089844 91.742188 C 35.160156 91.726562 35.230469 91.699219 35.296875 91.664062 C 47.632812 87.746094 61.402344 82.15625 74.179688 75.878906 C 74.320312 76 74.492188 76.074219 74.691406 76.0625 C 74.835938 76.054688 74.980469 76.050781 75.125 76.058594 C 75.160156 76.082031 75.195312 76.105469 75.238281 76.128906 C 86.546875 81.710938 98.207031 86.332031 110.140625 90.257812 C 111.3125 90.640625 112.484375 91.019531 113.660156 91.394531 C 113.90625 91.519531 114.214844 91.542969 114.445312 91.378906 C 114.570312 91.285156 114.714844 91.222656 114.859375 91.167969 C 114.957031 91.167969 115.058594 91.164062 115.15625 91.160156 C 115.199219 91.160156 115.238281 91.152344 115.28125 91.144531 C 115.277344 91.152344 115.277344 91.15625 115.273438 91.164062 C 115.34375 91.160156 115.410156 91.15625 115.476562 91.148438 C 116.5625 91.0625 117.621094 90.640625 118.910156 89.789062 C 119.863281 89.15625 120.996094 88.75 122.09375 88.355469 C 123.980469 87.679688 125.765625 87.039062 126.652344 85.355469 C 127.460938 83.820312 127.191406 81.410156 126.953125 79.285156 C 126.875 78.589844 126.800781 77.929688 126.769531 77.332031 Z M 90.621094 88.652344 L 90.621094 88.597656 C 90.632812 88.375 90.632812 88.144531 90.632812 87.890625 L 90.605469 87.714844 C 89.316406 86.167969 87.578125 85.238281 86.042969 84.488281 L 85.621094 84.28125 C 83.597656 83.289062 81.503906 82.265625 79.421875 81.410156 C 78.566406 81.0625 77.269531 80.53125 76.21875 80.53125 C 76.042969 80.53125 75.878906 80.546875 75.730469 80.578125 L 75.597656 80.605469 L 75.46875 80.570312 C 74.84375 80.394531 74.304688 80.304688 73.855469 80.304688 C 72.929688 80.304688 72.472656 80.644531 72.324219 81.4375 C 72.285156 81.652344 72.273438 81.898438 72.292969 82.234375 C 72.300781 82.375 72.339844 82.464844 72.394531 82.605469 C 72.441406 82.71875 72.496094 82.847656 72.535156 83.011719 C 72.648438 83.496094 72.660156 83.988281 72.671875 84.464844 C 72.679688 84.902344 72.691406 85.316406 72.777344 85.695312 C 73.082031 87.019531 73.9375 88 75.558594 88.871094 C 76.390625 89.320312 77.28125 89.714844 78.144531 90.101562 C 78.75 90.371094 79.378906 90.652344 79.992188 90.953125 C 80.292969 91.097656 80.597656 91.246094 80.898438 91.390625 C 81.5 91.679688 82.117188 91.980469 82.722656 92.289062 C 83.019531 92.441406 83.308594 92.609375 83.589844 92.773438 C 84.097656 93.066406 84.574219 93.34375 85.085938 93.527344 C 85.398438 93.636719 85.6875 93.6875 85.972656 93.6875 C 86.351562 93.6875 86.742188 93.597656 87.269531 93.378906 C 88.128906 93.023438 89.019531 92.652344 89.636719 92.042969 C 90.203125 91.484375 90.398438 90.667969 90.527344 89.867188 L 90.554688 89.707031 C 90.605469 89.40625 90.675781 89 90.628906 88.707031 Z M 61.171875 90.359375 C 61.011719 90.269531 60.863281 90.179688 60.714844 90.109375 C 60.609375 90.058594 60.484375 90.007812 60.355469 89.957031 C 60.257812 89.917969 60.15625 89.878906 60.058594 89.832031 L 59.808594 89.71875 L 59.746094 89.628906 C 59.484375 89.136719 59.566406 88.179688 59.625 87.480469 C 59.644531 87.253906 59.660156 87.042969 59.667969 86.859375 C 59.679688 86.65625 59.671875 86.460938 59.664062 86.269531 C 59.640625 85.5625 59.664062 85.257812 59.992188 85.074219 C 60.496094 84.789062 61.109375 84.546875 61.753906 84.378906 L 61.796875 84.371094 C 61.957031 84.328125 62.175781 84.269531 62.339844 84.265625 C 62.335938 84.289062 62.328125 84.304688 62.324219 84.320312 C 62.292969 84.414062 62.265625 84.5 62.25 84.585938 C 62.203125 84.855469 62.210938 85.136719 62.21875 85.386719 C 62.222656 85.492188 62.226562 85.597656 62.226562 85.695312 C 62.222656 85.898438 62.203125 86.128906 62.1875 86.367188 C 62.140625 86.921875 62.097656 87.492188 62.203125 88.019531 C 62.21875 88.09375 62.226562 88.148438 62.230469 88.191406 C 62.289062 88.617188 62.480469 88.761719 62.839844 88.886719 C 62.886719 88.902344 62.941406 88.921875 63.011719 88.949219 L 63.113281 88.988281 C 63.308594 89.0625 63.503906 89.132812 63.695312 89.214844 L 63.738281 89.230469 C 63.847656 89.277344 64.054688 89.363281 64.171875 89.4375 C 64.117188 89.503906 64.03125 89.570312 63.914062 89.644531 L 63.832031 89.695312 L 63.394531 89.929688 C 63.28125 89.992188 63.167969 90.054688 63.0625 90.125 C 62.949219 90.199219 62.835938 90.285156 62.71875 90.375 C 62.511719 90.535156 62.300781 90.699219 62.125 90.742188 L 62.023438 90.761719 L 61.871094 90.710938 C 61.660156 90.640625 61.414062 90.5 61.171875 90.359375 " fill-opacity="1" fill-rule="nonzero"/><g clip-path="url(#21e84b978f)"><path fill="#ea7e16" d="M 76.078125 96.414062 C 76.089844 95.308594 76.101562 94.199219 76.113281 93.089844 L 76.121094 92.316406 C 76.121094 92.132812 76.125 91.941406 76.125 91.757812 C 76.125 91.585938 75.945312 91.433594 75.777344 91.492188 C 74.792969 91.820312 73.902344 92.265625 73.046875 92.859375 C 73.011719 92.882812 72.984375 92.914062 72.964844 92.945312 C 72.882812 92.96875 72.816406 93.023438 72.796875 93.132812 C 72.71875 93.589844 72.679688 94.0625 72.667969 94.535156 C 72.59375 94.5 72.507812 94.488281 72.414062 94.53125 L 72.320312 94.578125 L 70.585938 95.417969 C 70.515625 95.453125 70.476562 95.519531 70.460938 95.589844 C 70.363281 95.621094 70.28125 95.703125 70.285156 95.839844 C 70.304688 96.464844 70.332031 97.09375 70.375 97.71875 C 70.378906 97.816406 70.386719 97.910156 70.394531 98.007812 C 70.433594 98.53125 70.476562 99.058594 70.53125 99.582031 C 70.550781 99.75 70.679688 99.832031 70.808594 99.839844 C 71.050781 99.949219 71.390625 99.847656 71.539062 99.53125 C 71.726562 99.152344 71.601562 98.550781 71.597656 98.152344 C 71.597656 97.867188 71.597656 97.585938 71.605469 97.304688 C 71.609375 97.257812 71.609375 97.210938 71.613281 97.164062 C 71.621094 96.941406 71.628906 96.714844 71.636719 96.492188 C 71.769531 96.550781 71.902344 96.613281 72.03125 96.679688 C 72.179688 96.757812 72.320312 96.84375 72.453125 96.945312 C 72.515625 96.996094 72.578125 97.042969 72.636719 97.101562 C 72.636719 97.101562 72.632812 97.101562 72.632812 97.101562 C 72.566406 98.078125 72.523438 99.113281 72.679688 100.082031 C 72.738281 100.429688 72.871094 100.832031 73.300781 100.800781 C 73.820312 100.765625 73.75 100.167969 73.761719 99.796875 C 73.78125 98.789062 73.800781 97.78125 73.824219 96.773438 C 74.246094 96.472656 74.691406 96.210938 75.160156 95.992188 C 75.144531 96.027344 75.132812 96.066406 75.132812 96.113281 L 75.132812 99.085938 C 75.132812 99.191406 75.183594 99.257812 75.253906 99.300781 C 75.21875 99.507812 75.429688 99.742188 75.652344 99.59375 C 76.007812 99.359375 76.117188 99.015625 76.136719 98.601562 C 76.171875 97.921875 76.125 97.234375 76.117188 96.554688 C 76.117188 96.496094 76.101562 96.453125 76.078125 96.414062 Z M 90.820312 88.011719 C 90.382812 87.738281 89.792969 88.089844 89.378906 88.238281 C 88.773438 88.457031 88.160156 88.660156 87.550781 88.871094 C 87.589844 88.058594 87.539062 87.164062 87.074219 86.464844 C 86.59375 85.742188 85.714844 85.191406 85.007812 84.710938 C 83.476562 83.667969 81.816406 82.835938 80.164062 82.003906 C 79.328125 81.585938 77.414062 80.546875 75.617188 80.039062 C 73.804688 79.527344 72.113281 79.5625 71.78125 81.339844 C 71.726562 81.640625 71.726562 81.957031 71.742188 82.265625 C 71.761719 82.644531 71.921875 82.824219 71.996094 83.140625 C 72.199219 83.988281 72.039062 84.945312 72.238281 85.816406 C 72.628906 87.507812 73.816406 88.558594 75.296875 89.355469 C 76.734375 90.132812 78.277344 90.726562 79.75 91.445312 C 80.65625 91.890625 81.570312 92.320312 82.46875 92.777344 C 83.28125 93.191406 84.039062 93.738281 84.902344 94.042969 C 85.835938 94.375 86.578125 94.261719 87.457031 93.894531 C 88.347656 93.527344 89.328125 93.125 90.023438 92.433594 C 90.691406 91.773438 90.925781 90.851562 91.070312 89.953125 C 91.128906 89.605469 91.246094 89.0625 91.175781 88.617188 C 91.132812 88.367188 91.03125 88.144531 90.820312 88.011719 Z M 100.277344 17.398438 C 99.886719 17.792969 99.238281 18.234375 98.800781 18.511719 C 95.914062 20.339844 92.925781 22.035156 89.992188 23.792969 C 88.601562 24.625 84.800781 26.015625 83.957031 27.410156 C 83.394531 28.335938 83.949219 31.152344 83.949219 32.304688 C 83.953125 35.035156 83.941406 37.765625 83.929688 40.5 C 84.578125 40.167969 85.320312 39.722656 86.042969 39.683594 C 87.117188 39.621094 87.472656 40.632812 87.589844 41.628906 C 88.660156 40.972656 90.140625 41.714844 91.273438 42.191406 C 93.753906 43.238281 96.261719 44.296875 98.65625 45.527344 C 99.441406 45.933594 99.664062 46.054688 99.765625 47.007812 C 99.792969 47.28125 99.777344 47.519531 99.730469 47.738281 C 99.84375 48.59375 99.753906 49.527344 99.75 50.382812 L 99.738281 51.648438 C 99.742188 51.652344 99.742188 51.65625 99.746094 51.660156 C 99.597656 51.835938 99.453125 52.015625 99.320312 52.207031 C 104.359375 54.125 109.308594 56.351562 114.605469 57.417969 C 115.199219 57.535156 115.308594 58.105469 115.105469 58.535156 C 115.546875 58.730469 115.601562 59.136719 115.4375 59.476562 C 115.300781 61.535156 115.648438 63.589844 114.730469 65.507812 C 115.03125 66.066406 114.597656 66.953125 113.804688 66.730469 C 103.605469 63.855469 93.597656 60.472656 83.835938 56.410156 C 84.230469 60.21875 84.25 67.550781 83.886719 71.605469 C 83.902344 71.605469 83.917969 71.613281 83.9375 71.613281 C 84.234375 71.679688 84.53125 71.75 84.828125 71.816406 C 84.875 71.820312 84.925781 71.820312 84.976562 71.824219 C 84.992188 71.828125 85.011719 71.832031 85.027344 71.832031 L 84.992188 71.429688 C 84.972656 71.222656 85.042969 71.070312 85.152344 70.964844 C 85.191406 70.828125 85.285156 70.699219 85.449219 70.609375 C 86.128906 70.234375 86.640625 69.964844 87.164062 69.816406 C 87.214844 69.199219 87.152344 68.542969 87.152344 67.929688 C 87.152344 67.242188 87.164062 66.550781 87.152344 65.863281 C 87.152344 65.871094 87.121094 65.433594 87.09375 65.488281 C 87.160156 65.363281 87.34375 65.3125 87.574219 65.300781 C 87.574219 65.296875 87.574219 65.296875 87.574219 65.292969 C 87.574219 65.300781 87.542969 64.867188 87.515625 64.917969 C 87.71875 64.53125 89.023438 64.847656 89.457031 64.886719 C 91.054688 65.03125 92.632812 65.277344 94.214844 65.519531 C 94.75 65.601562 95.089844 65.589844 95.234375 66.152344 C 95.402344 66.804688 95.378906 67.601562 95.429688 68.273438 C 95.5 69.214844 95.53125 70.160156 95.535156 71.105469 C 95.535156 71.25 95.578125 71.503906 95.554688 71.699219 C 96.332031 71.96875 97.203125 72.3125 97.625 72.847656 C 97.785156 73.007812 97.910156 73.199219 97.976562 73.429688 C 98.203125 74.214844 98.179688 75.1875 98.253906 76.007812 C 103.660156 78.195312 108.929688 80.8125 114.59375 82.152344 C 115.195312 82.292969 115.308594 82.863281 115.097656 83.285156 C 115.492188 83.472656 115.582031 83.8125 115.488281 84.121094 C 115.5 84.121094 115.511719 84.125 115.523438 84.128906 L 115.523438 43.644531 Z M 75.078125 76.027344 C 74.882812 75.878906 74.800781 75.679688 74.804688 75.476562 C 74.808594 75.347656 74.847656 75.214844 74.917969 75.097656 C 74.960938 75.019531 75.015625 74.949219 75.078125 74.890625 C 75.097656 74.871094 75.121094 74.847656 75.144531 74.832031 C 75.132812 74.636719 75.1875 74.453125 75.324219 74.292969 C 75.34375 74.273438 75.355469 74.253906 75.375 74.234375 L 75.425781 74.1875 C 75.484375 74.128906 75.550781 74.085938 75.613281 74.050781 C 75.675781 73.96875 75.753906 73.894531 75.855469 73.832031 C 76.910156 73.195312 78.128906 72.859375 79.339844 72.558594 C 79.691406 72.359375 80.042969 72.15625 80.386719 71.941406 C 81.167969 71.457031 81.792969 71.324219 82.503906 71.375 C 82.144531 67.085938 82.195312 59.472656 82.632812 55.910156 C 80.335938 54.941406 78.050781 53.933594 75.78125 52.886719 C 75.171875 52.605469 75.285156 51.933594 75.691406 51.589844 C 75.679688 51.375 75.742188 51.164062 75.917969 50.988281 L 75.96875 50.933594 C 76.027344 50.875 76.09375 50.828125 76.15625 50.792969 C 76.214844 50.710938 76.289062 50.632812 76.390625 50.566406 C 77.03125 50.152344 77.730469 49.847656 78.453125 49.59375 C 78.445312 49.582031 78.4375 49.570312 78.433594 49.554688 C 78.195312 48.890625 78.40625 47.90625 78.605469 47.15625 C 78.628906 46.242188 78.652344 45.328125 78.679688 44.410156 C 78.695312 43.855469 78.640625 43.214844 79.023438 42.765625 C 79.6875 41.992188 81.195312 41.699219 82.0625 41.328125 C 82.226562 41.257812 82.390625 41.1875 82.554688 41.117188 C 82.582031 36.828125 82.605469 32.539062 82.558594 28.25 C 80.863281 29.265625 79.167969 30.285156 77.46875 31.300781 C 77.136719 31.5 76.636719 31.917969 76.15625 32.226562 C 76.015625 32.316406 75.882812 32.394531 75.75 32.457031 C 75.609375 32.523438 75.476562 32.570312 75.355469 32.585938 C 75.34375 32.585938 75.328125 32.589844 75.316406 32.589844 C 75.257812 32.597656 75.175781 32.59375 75.078125 32.585938 C 74.992188 32.582031 74.898438 32.570312 74.796875 32.550781 C 74.796875 32.5625 74.796875 32.574219 74.800781 32.585938 C 74.882812 34.566406 75.078125 36.570312 75.078125 37.027344 L 75.078125 68.726562 C 75.078125 71.777344 74.859375 73.390625 74.832031 74.292969 C 74.8125 74.273438 74.800781 74.253906 74.78125 74.234375 L 74.730469 74.1875 C 74.667969 74.128906 74.605469 74.085938 74.542969 74.050781 C 74.480469 73.96875 74.402344 73.894531 74.300781 73.832031 C 73.246094 73.195312 72.027344 72.859375 70.816406 72.558594 C 70.464844 72.359375 70.113281 72.15625 69.769531 71.941406 C 68.515625 71.167969 67.671875 71.296875 66.21875 71.613281 C 65.921875 71.679688 65.625 71.75 65.328125 71.816406 C 65.28125 71.820312 65.230469 71.820312 65.179688 71.824219 C 62.925781 72.015625 60.640625 72.820312 58.433594 73.679688 C 57.882812 73.851562 57.335938 74.027344 56.789062 74.207031 C 56.789062 74.5 56.765625 74.808594 56.777344 75.101562 C 56.816406 75.96875 57.078125 77.429688 56.613281 78.195312 C 56.613281 78.199219 56.609375 78.203125 56.605469 78.207031 C 56.648438 79.292969 56.679688 80.378906 56.699219 81.46875 C 56.703125 81.824219 56.152344 81.820312 56.148438 81.46875 C 56.132812 80.511719 56.101562 79.554688 56.070312 78.601562 C 55.847656 78.703125 55.605469 78.785156 55.421875 78.875 C 55.070312 79.039062 54.617188 79.359375 54.199219 79.5 C 54.222656 80.363281 54.257812 81.226562 54.308594 82.089844 C 54.332031 82.441406 53.777344 82.441406 53.757812 82.089844 C 53.707031 81.242188 53.671875 80.394531 53.648438 79.542969 C 53.230469 79.449219 52.875 79.074219 52.53125 78.851562 C 52.441406 78.789062 52.34375 78.734375 52.242188 78.683594 L 52.242188 81.507812 C 52.242188 81.863281 51.691406 81.863281 51.691406 81.507812 L 51.691406 78.378906 C 51.53125 78.277344 51.386719 78.167969 51.277344 78.027344 C 50.808594 77.441406 51.515625 77.167969 51.988281 76.972656 C 52.21875 76.875 52.457031 76.789062 52.691406 76.699219 C 53.199219 76.507812 53.0625 76.628906 53.15625 76.175781 C 53.199219 75.960938 53.210938 75.730469 53.207031 75.488281 C 51.925781 75.984375 50.65625 76.515625 49.386719 77.050781 C 49.828125 77.339844 50.1875 77.726562 50.429688 78.234375 C 50.976562 79.382812 50.628906 80.367188 49.796875 81.140625 C 50.066406 81.886719 50.3125 82.640625 50.539062 83.398438 C 50.660156 83.519531 50.71875 83.691406 50.652344 83.90625 L 50.628906 83.992188 C 50.46875 84.507812 49.714844 84.523438 49.5625 83.992188 C 49.355469 83.257812 49.125 82.535156 48.875 81.816406 C 48.359375 82.121094 47.761719 82.375 47.132812 82.574219 L 47.027344 83.316406 C 46.925781 84.015625 45.863281 83.71875 45.964844 83.023438 C 45.972656 82.976562 45.976562 82.925781 45.984375 82.875 C 45.496094 82.976562 45.003906 83.046875 44.523438 83.085938 C 44.476562 84.246094 44.359375 85.484375 44.578125 86.585938 C 44.714844 87.28125 43.652344 87.574219 43.511719 86.878906 C 43.277344 85.679688 43.378906 84.367188 43.421875 83.117188 C 42.632812 83.097656 41.921875 82.972656 41.386719 82.738281 C 41.320312 83.214844 41.25 83.6875 41.183594 84.160156 C 41.082031 84.863281 40.019531 84.5625 40.121094 83.867188 C 40.207031 83.25 40.296875 82.632812 40.382812 82.015625 C 40.039062 81.660156 39.835938 81.292969 39.757812 80.925781 C 38.378906 81.394531 36.984375 81.816406 35.5625 82.152344 C 34.960938 82.292969 34.847656 82.863281 35.058594 83.285156 C 34.609375 83.5 34.554688 83.90625 34.71875 84.242188 C 34.753906 84.753906 34.707031 85.269531 34.632812 85.78125 C 34.410156 87.328125 33.933594 88.867188 34.632812 90.285156 C 34.519531 90.496094 34.445312 90.867188 34.4375 91.238281 C 34.4375 91.386719 34.445312 91.539062 34.46875 91.679688 C 34.539062 92.105469 34.734375 92.421875 35.109375 92.304688 C 48.316406 88.132812 62.460938 82.277344 74.917969 76.128906 C 74.980469 76.097656 75.03125 76.066406 75.078125 76.027344 Z M 75.078125 31.128906 C 75.183594 31.066406 75.289062 31.003906 75.394531 30.9375 C 78.390625 29.144531 81.386719 27.347656 84.382812 25.550781 C 87.152344 23.890625 89.925781 22.226562 92.695312 20.566406 C 94.320312 19.589844 97.53125 16.671875 99.421875 16.535156 C 99.546875 16.523438 99.660156 16.519531 99.765625 16.519531 L 98.675781 14.640625 C 94.082031 16.625 89.777344 19.273438 85.4375 21.734375 C 83.128906 23.046875 80.824219 24.355469 78.519531 25.664062 C 77.246094 26.386719 76.238281 27.621094 75.214844 28.253906 C 75.164062 28.285156 75.117188 28.339844 75.078125 28.40625 C 74.84375 28.800781 74.761719 29.777344 74.761719 30.9375 C 74.761719 31.0625 74.761719 31.191406 74.761719 31.320312 C 74.867188 31.257812 74.972656 31.191406 75.078125 31.128906 Z M 34.71875 59.476562 C 34.554688 59.136719 34.609375 58.730469 35.050781 58.535156 C 34.847656 58.105469 34.957031 57.535156 35.550781 57.417969 C 42.488281 56.023438 48.832031 52.628906 55.566406 50.554688 C 56.410156 50.292969 57.257812 50.046875 58.109375 49.8125 C 60.289062 49.035156 62.542969 48.316406 64.769531 48.214844 C 64.816406 48.210938 64.863281 48.210938 64.914062 48.210938 C 65.207031 48.152344 65.5 48.097656 65.792969 48.042969 C 65.949219 48.015625 66.09375 47.988281 66.238281 47.964844 C 66.707031 47.882812 67.117188 47.839844 67.507812 47.859375 C 68.089844 47.886719 68.632812 48.0625 69.292969 48.5 C 69.632812 48.730469 69.980469 48.949219 70.328125 49.15625 C 71.519531 49.507812 72.722656 49.890625 73.765625 50.566406 C 73.867188 50.632812 73.941406 50.710938 74 50.792969 C 74.0625 50.828125 74.128906 50.875 74.1875 50.933594 L 74.238281 50.988281 C 74.414062 51.164062 74.476562 51.375 74.464844 51.589844 C 74.871094 51.933594 74.984375 52.605469 74.375 52.886719 C 62.082031 58.5625 49.375 63.058594 36.351562 66.730469 C 35.558594 66.953125 35.125 66.066406 35.425781 65.507812 C 34.507812 63.589844 34.851562 61.535156 34.71875 59.476562 " fill-opacity="1" fill-rule="nonzero"/></g><path fill="#f288ca" d="M 95.429688 68.273438 C 95.378906 67.601562 95.402344 66.804688 95.234375 66.152344 C 95.089844 65.589844 94.75 65.601562 94.214844 65.519531 C 92.632812 65.277344 91.054688 65.03125 89.457031 64.886719 C 89.023438 64.847656 87.71875 64.53125 87.515625 64.917969 C 87.542969 64.867188 87.574219 65.300781 87.574219 65.292969 C 87.574219 65.296875 87.574219 65.296875 87.574219 65.300781 C 88.054688 65.277344 88.742188 65.429688 89.035156 65.457031 C 90.632812 65.601562 92.207031 65.847656 93.792969 66.089844 C 94.328125 66.171875 94.664062 66.160156 94.8125 66.722656 C 94.980469 67.375 94.957031 68.171875 95.003906 68.84375 C 95.074219 69.746094 95.105469 70.648438 95.109375 71.550781 C 95.109375 71.59375 95.109375 71.632812 95.109375 71.671875 C 95.109375 71.75 95.125 71.859375 95.132812 71.972656 C 95.269531 71.992188 95.386719 71.988281 95.449219 71.941406 C 95.515625 71.890625 95.542969 71.800781 95.554688 71.699219 C 95.578125 71.503906 95.535156 71.25 95.535156 71.105469 C 95.53125 70.160156 95.5 69.214844 95.429688 68.273438 Z M 92.820312 72.648438 C 92.699219 72.429688 92.574219 72.207031 92.453125 71.988281 C 92.3125 71.953125 92.167969 71.917969 92.027344 71.878906 C 92.027344 71.886719 92.027344 71.890625 92.03125 71.894531 C 92.199219 72.199219 92.371094 72.507812 92.539062 72.8125 C 92.640625 72.996094 92.921875 72.832031 92.820312 72.648438 Z M 88.359375 71.246094 C 88.15625 71.28125 88.242188 71.59375 88.449219 71.558594 C 88.992188 71.457031 89.539062 71.414062 90.089844 71.417969 C 90.121094 71.417969 90.148438 71.410156 90.167969 71.398438 C 89.847656 71.3125 89.527344 71.222656 89.203125 71.128906 C 88.921875 71.15625 88.640625 71.195312 88.359375 71.246094 Z M 94.90625 77.558594 C 94.886719 76.773438 94.992188 75.71875 94.730469 74.96875 C 94.566406 74.484375 93.9375 74.492188 93.464844 74.375 C 92.445312 74.128906 91.429688 73.878906 90.414062 73.625 C 90.324219 73.605469 90.195312 73.671875 90.210938 73.773438 C 90.25 74.050781 90.308594 74.316406 90.378906 74.585938 C 90.503906 75.417969 90.605469 76.25 90.664062 77.089844 C 90.703125 77.601562 90.652344 78.082031 91.136719 78.40625 C 91.769531 78.824219 92.765625 79.015625 93.496094 79.25 C 93.789062 79.34375 94.523438 79.746094 94.828125 79.449219 C 94.945312 79.332031 94.90625 79.042969 94.910156 78.910156 C 94.921875 78.460938 94.917969 78.007812 94.90625 77.558594 Z M 89.285156 73.75 C 89.089844 73.304688 88.644531 73.207031 88.210938 73.050781 C 87.527344 72.796875 86.824219 72.601562 86.113281 72.4375 C 86.097656 72.425781 86.082031 72.421875 86.0625 72.414062 C 86.023438 72.410156 85.984375 72.402344 85.941406 72.394531 C 85.746094 72.363281 85.65625 72.644531 85.84375 72.703125 C 85.886719 73.449219 85.929688 74.199219 85.972656 74.949219 C 85.992188 75.316406 85.90625 75.929688 86.125 76.269531 C 86.378906 76.667969 87.078125 76.878906 87.46875 77.089844 C 88.097656 77.429688 88.726562 77.761719 89.359375 78.089844 C 89.464844 78.144531 89.609375 78.078125 89.605469 77.949219 C 89.570312 77.144531 89.53125 76.34375 89.46875 75.539062 C 89.429688 75.011719 89.507812 74.242188 89.285156 73.75 Z M 71.636719 96.492188 C 71.628906 96.714844 71.621094 96.941406 71.613281 97.164062 C 71.609375 97.210938 71.609375 97.257812 71.605469 97.304688 C 71.636719 97.292969 71.667969 97.285156 71.699219 97.273438 C 71.949219 97.171875 72.203125 97.0625 72.453125 96.945312 C 72.320312 96.84375 72.179688 96.757812 72.03125 96.679688 C 71.902344 96.613281 71.769531 96.550781 71.636719 96.492188 Z M 76.113281 93.089844 C 76.15625 92.828125 76.160156 92.566406 76.121094 92.316406 C 76.117188 92.574219 76.113281 92.832031 76.113281 93.089844 Z M 75.101562 90.878906 C 74.359375 90.425781 73.449219 90.414062 72.609375 90.378906 C 71.363281 90.332031 70.101562 90.316406 68.867188 90.46875 C 67.113281 90.6875 65.457031 91.300781 64.207031 92.523438 C 64.203125 92.527344 64.195312 92.53125 64.191406 92.539062 C 64.007812 92.628906 63.832031 92.730469 63.65625 92.832031 C 63.226562 93.082031 62.816406 93.359375 62.417969 93.667969 C 62.320312 93.746094 62.21875 93.832031 62.113281 93.921875 C 62.058594 93.96875 62 94.019531 61.941406 94.070312 C 61.007812 94.910156 60.09375 96.09375 60.691406 97.351562 C 61.042969 98.089844 61.675781 98.453125 62.398438 98.617188 C 63.269531 98.8125 64.277344 98.722656 65.082031 98.640625 C 66.863281 98.46875 68.65625 98.222656 70.375 97.71875 C 70.332031 97.09375 70.304688 96.464844 70.285156 95.839844 C 70.28125 95.703125 70.363281 95.621094 70.460938 95.589844 C 70.476562 95.519531 70.515625 95.453125 70.585938 95.417969 L 72.320312 94.578125 L 72.414062 94.53125 C 72.507812 94.488281 72.59375 94.5 72.667969 94.535156 C 72.679688 94.0625 72.71875 93.589844 72.796875 93.132812 C 72.816406 93.023438 72.882812 92.96875 72.964844 92.945312 C 72.984375 92.914062 73.011719 92.882812 73.046875 92.859375 C 73.902344 92.265625 74.792969 91.820312 75.777344 91.492188 C 75.609375 91.261719 75.390625 91.054688 75.101562 90.878906 Z M 84.742188 51.46875 C 85.957031 52.082031 87.175781 52.675781 88.40625 53.253906 C 89.949219 53.980469 91.984375 55.460938 93.640625 54.316406 C 94.511719 53.71875 95.21875 52.824219 95.957031 52.078125 C 96.222656 51.808594 96.492188 51.539062 96.765625 51.273438 C 97.503906 50.542969 98.25 49.816406 98.945312 49.050781 C 99.339844 48.613281 99.621094 48.226562 99.730469 47.738281 C 99.777344 47.519531 99.792969 47.28125 99.765625 47.007812 C 99.664062 46.054688 99.441406 45.933594 98.65625 45.527344 C 96.261719 44.296875 93.753906 43.238281 91.273438 42.191406 C 90.140625 41.714844 88.660156 40.972656 87.589844 41.628906 C 87.367188 41.765625 87.15625 41.960938 86.976562 42.234375 C 86.972656 42.238281 86.972656 42.242188 86.972656 42.246094 C 85.929688 42.703125 84.925781 43.296875 84.078125 44.046875 C 83.785156 44.308594 83.507812 44.582031 83.253906 44.882812 C 82.890625 45.3125 82.640625 45.769531 82.496094 46.273438 C 82.425781 46.515625 82.375 46.765625 82.351562 47.03125 C 82.332031 47.265625 82.296875 47.570312 82.269531 47.898438 C 82.207031 48.695312 82.179688 49.652344 82.472656 50.160156 C 82.855469 50.816406 84.105469 51.148438 84.742188 51.46875 Z M 115.105469 58.535156 C 115.308594 58.105469 115.199219 57.535156 114.605469 57.417969 C 109.308594 56.351562 104.359375 54.125 99.320312 52.207031 C 99.21875 52.34375 99.121094 52.484375 99.03125 52.628906 C 98.058594 53.4375 97.085938 54.242188 96.117188 55.050781 C 95.398438 55.648438 94.664062 56.542969 93.726562 56.488281 C 92.648438 56.421875 91.4375 55.722656 90.421875 55.34375 C 89.328125 54.929688 88.238281 54.496094 87.152344 54.042969 C 84.78125 53.058594 82.445312 51.980469 80.148438 50.816406 C 79.566406 50.519531 78.730469 50.292969 78.453125 49.59375 C 77.730469 49.847656 77.03125 50.152344 76.390625 50.566406 C 76.289062 50.632812 76.214844 50.710938 76.15625 50.792969 C 76.09375 50.828125 76.027344 50.875 75.96875 50.933594 L 75.917969 50.988281 C 75.742188 51.164062 75.679688 51.375 75.691406 51.589844 C 75.285156 51.933594 75.171875 52.605469 75.78125 52.886719 C 78.050781 53.933594 80.335938 54.941406 82.632812 55.910156 C 83.035156 56.082031 83.433594 56.246094 83.835938 56.410156 C 93.597656 60.472656 103.605469 63.855469 113.804688 66.730469 C 114.597656 66.953125 115.03125 66.066406 114.730469 65.507812 C 115.648438 63.589844 115.300781 61.535156 115.4375 59.476562 C 115.601562 59.136719 115.546875 58.730469 115.105469 58.535156 Z M 61.710938 63.359375 C 61.1875 61.597656 59.324219 62.582031 58.863281 62.75 C 55.390625 64.027344 55.480469 64.609375 56.03125 68.125 C 56.53125 71.308594 56.433594 70.921875 59.921875 70.238281 C 63.722656 69.496094 61.808594 67.089844 61.710938 63.359375 Z M 45.675781 71.179688 C 45.523438 67.0625 45.441406 66.265625 41.34375 67.851562 C 38.386719 68.992188 39.410156 69.703125 39.71875 72.910156 C 39.839844 74.195312 39.546875 75.6875 40.792969 76.015625 C 41.28125 76.144531 43.484375 75.136719 44.035156 74.785156 C 45.773438 73.675781 45.761719 73.378906 45.675781 71.179688 Z M 37.367188 42.03125 C 37.367188 42.066406 37.363281 42.097656 37.367188 42.136719 C 37.425781 42.589844 37.488281 43.046875 37.546875 43.5 C 37.746094 45.285156 37.792969 47.078125 37.535156 48.863281 C 37.445312 49.457031 37.882812 50.066406 38.550781 49.878906 C 39.933594 49.484375 41.324219 49.121094 42.699219 48.699219 C 43.535156 48.441406 44.117188 48.257812 44.203125 47.304688 C 44.304688 46.117188 44.050781 44.796875 43.964844 43.601562 C 43.871094 42.230469 43.777344 40.863281 43.683594 39.492188 C 43.644531 38.980469 43.179688 38.527344 42.632812 38.699219 C 40.875 39.242188 39.222656 39.996094 37.664062 40.976562 C 37.25 41.238281 37.207031 41.683594 37.367188 42.03125 Z M 53.386719 42.800781 C 53.351562 43.4375 53.320312 44.070312 53.285156 44.707031 C 53.253906 45.25 53.835938 45.636719 54.332031 45.5 C 55.453125 45.199219 56.546875 44.820312 57.605469 44.335938 C 58.296875 44.019531 59.410156 43.660156 59.808594 42.96875 C 60.222656 42.253906 59.976562 40.910156 59.976562 40.125 C 59.972656 38.722656 59.972656 37.316406 59.972656 35.914062 C 59.972656 35.414062 59.605469 35.140625 59.191406 35.121094 C 59.03125 35.035156 58.832031 35.007812 58.601562 35.082031 C 57.109375 35.574219 55.625 36.089844 54.15625 36.636719 C 54.148438 36.640625 54.144531 36.644531 54.136719 36.648438 C 53.664062 36.515625 53.058594 36.769531 53.035156 37.40625 C 52.976562 39.222656 53.097656 41.019531 53.386719 42.800781 Z M 66.953125 71.011719 C 68.230469 71.011719 68.175781 57.632812 66.953125 57.632812 C 65.710938 57.632812 65.683594 71.011719 66.953125 71.011719 Z M 65.179688 71.824219 C 62.925781 72.015625 60.640625 72.820312 58.433594 73.679688 C 57.882812 73.851562 57.335938 74.027344 56.789062 74.207031 C 56.792969 73.664062 56.714844 73.164062 56.175781 72.859375 C 55.597656 72.535156 54.925781 72.28125 54.28125 72.113281 C 53.863281 72.007812 53.121094 71.792969 52.96875 72.351562 C 52.929688 72.488281 53.082031 72.816406 53.105469 72.941406 C 53.160156 73.269531 53.117188 73.640625 53.121094 73.972656 C 53.128906 74.433594 53.199219 74.980469 53.207031 75.488281 C 51.925781 75.984375 50.65625 76.515625 49.386719 77.050781 C 46.292969 75.027344 39.125 77.996094 39.757812 80.925781 C 38.378906 81.394531 36.984375 81.816406 35.5625 82.152344 C 34.960938 82.292969 34.847656 82.863281 35.058594 83.285156 C 34.609375 83.5 34.554688 83.90625 34.71875 84.242188 C 34.753906 84.753906 34.707031 85.269531 34.632812 85.78125 L 34.632812 43.644531 L 49.878906 17.398438 C 50.269531 17.792969 50.917969 18.234375 51.355469 18.511719 C 54.242188 20.339844 57.230469 22.035156 60.164062 23.792969 C 61.554688 24.625 65.355469 26.015625 66.199219 27.410156 C 66.761719 28.335938 66.207031 31.152344 66.207031 32.304688 C 66.203125 35.554688 66.21875 38.804688 66.230469 42.054688 C 66.238281 43.191406 65.613281 46.769531 66.238281 47.964844 C 66.09375 47.988281 65.949219 48.015625 65.792969 48.042969 C 65.5 48.097656 65.207031 48.152344 64.914062 48.210938 C 64.863281 48.210938 64.816406 48.210938 64.769531 48.214844 C 62.542969 48.316406 60.289062 49.035156 58.109375 49.8125 C 57.257812 50.046875 56.410156 50.292969 55.566406 50.554688 C 48.832031 52.628906 42.488281 56.023438 35.550781 57.417969 C 34.957031 57.535156 34.847656 58.105469 35.050781 58.535156 C 34.609375 58.730469 34.554688 59.136719 34.71875 59.476562 C 34.851562 61.535156 34.507812 63.589844 35.425781 65.507812 C 35.125 66.066406 35.558594 66.953125 36.351562 66.730469 C 49.375 63.058594 62.082031 58.5625 74.375 52.886719 C 74.984375 52.605469 74.871094 51.933594 74.464844 51.589844 C 74.476562 51.375 74.414062 51.164062 74.238281 50.988281 L 74.1875 50.933594 C 74.128906 50.875 74.0625 50.828125 74 50.792969 C 73.941406 50.710938 73.867188 50.632812 73.765625 50.566406 C 72.722656 49.890625 71.519531 49.507812 70.328125 49.15625 C 69.980469 48.949219 69.632812 48.730469 69.292969 48.5 C 68.632812 48.0625 68.089844 47.886719 67.507812 47.859375 C 67.769531 46.757812 67.621094 44.71875 67.621094 44.339844 C 67.59375 38.976562 67.535156 33.613281 67.597656 28.25 C 69.292969 29.265625 70.988281 30.285156 72.6875 31.300781 C 73.019531 31.5 73.519531 31.917969 74 32.226562 C 74.082031 32.324219 74.234375 32.398438 74.40625 32.457031 C 74.546875 32.523438 74.679688 32.570312 74.800781 32.585938 C 74.882812 34.566406 75.078125 36.570312 75.078125 37.027344 C 75.078125 43.15625 75.078125 49.285156 75.078125 55.414062 C 75.078125 59.851562 75.078125 64.289062 75.078125 68.726562 C 75.078125 71.777344 74.859375 73.390625 74.832031 74.292969 C 74.8125 74.273438 74.800781 74.253906 74.78125 74.234375 L 74.730469 74.1875 C 74.667969 74.128906 74.605469 74.085938 74.542969 74.050781 C 74.480469 73.96875 74.402344 73.894531 74.300781 73.832031 C 73.246094 73.195312 72.027344 72.859375 70.816406 72.558594 C 70.464844 72.359375 70.113281 72.15625 69.769531 71.941406 C 68.515625 71.167969 67.671875 71.296875 66.21875 71.613281 C 65.921875 71.679688 65.625 71.75 65.328125 71.816406 C 65.28125 71.820312 65.230469 71.820312 65.179688 71.824219 Z M 31.542969 90.625 C 31.546875 90.625 31.546875 90.625 31.550781 90.625 C 31.546875 90.625 31.546875 90.625 31.542969 90.621094 Z M 50.734375 16.535156 C 50.609375 16.523438 50.496094 16.519531 50.390625 16.519531 L 51.480469 14.640625 C 56.074219 16.625 60.378906 19.273438 64.71875 21.734375 C 67.027344 23.046875 69.332031 24.355469 71.636719 25.664062 C 72.910156 26.386719 73.917969 27.621094 74.941406 28.253906 C 74.992188 28.285156 75.035156 28.339844 75.078125 28.40625 C 74.84375 28.800781 74.761719 29.777344 74.761719 30.9375 C 71.765625 29.144531 68.769531 27.347656 65.773438 25.550781 C 63.003906 23.890625 60.230469 22.226562 57.460938 20.566406 C 55.832031 19.589844 52.625 16.671875 50.734375 16.535156 " fill-opacity="1" fill-rule="nonzero"/><path fill="#397dc9" d="M 88.792969 70.371094 C 88.976562 70.410156 89.140625 70.441406 89.257812 70.472656 C 89.28125 70.480469 89.308594 70.484375 89.328125 70.492188 C 90.847656 70.925781 92.417969 71.324219 93.984375 71.679688 C 94.046875 71.695312 94.144531 71.726562 94.261719 71.761719 C 94.316406 71.777344 94.390625 71.800781 94.46875 71.824219 C 94.46875 71.816406 94.46875 71.8125 94.46875 71.804688 C 94.464844 71.757812 94.460938 71.710938 94.460938 71.675781 C 94.460938 71.554688 94.457031 71.441406 94.457031 71.324219 C 94.449219 70.488281 94.414062 69.667969 94.355469 68.894531 C 94.34375 68.691406 94.332031 68.476562 94.324219 68.261719 C 94.304688 67.78125 94.285156 67.28125 94.183594 66.886719 C 94.171875 66.847656 94.164062 66.824219 94.15625 66.808594 C 94.097656 66.789062 93.957031 66.769531 93.855469 66.753906 L 93.558594 66.710938 C 92.058594 66.480469 90.507812 66.242188 88.972656 66.101562 C 88.875 66.09375 88.730469 66.070312 88.566406 66.046875 C 88.332031 66.007812 88.046875 65.960938 87.800781 65.949219 C 87.808594 66.382812 87.804688 66.8125 87.804688 67.246094 C 87.800781 67.472656 87.800781 67.703125 87.800781 67.929688 C 87.800781 68.144531 87.808594 68.363281 87.816406 68.585938 C 87.832031 68.949219 87.847656 69.324219 87.828125 69.699219 C 87.820312 69.824219 87.8125 69.953125 87.796875 70.078125 C 87.792969 70.082031 87.792969 70.089844 87.792969 70.097656 C 87.792969 70.109375 87.789062 70.121094 87.789062 70.132812 C 87.972656 70.195312 88.222656 70.25 88.441406 70.300781 C 88.578125 70.328125 88.703125 70.355469 88.792969 70.371094 Z M 94.910156 78.910156 C 94.921875 78.460938 94.917969 78.007812 94.90625 77.558594 C 94.886719 76.773438 94.992188 75.71875 94.730469 74.96875 C 94.566406 74.484375 93.9375 74.492188 93.464844 74.375 C 92.445312 74.128906 91.429688 73.878906 90.414062 73.625 C 90.324219 73.605469 90.195312 73.671875 90.210938 73.773438 C 90.25 74.050781 90.308594 74.316406 90.378906 74.585938 C 90.503906 75.417969 90.605469 76.25 90.664062 77.089844 C 90.703125 77.601562 90.652344 78.082031 91.136719 78.40625 C 91.769531 78.824219 92.765625 79.015625 93.496094 79.25 C 93.789062 79.34375 94.523438 79.746094 94.828125 79.449219 C 94.945312 79.332031 94.90625 79.042969 94.910156 78.910156 Z M 89.605469 77.949219 C 89.570312 77.144531 89.53125 76.34375 89.46875 75.539062 C 89.429688 75.011719 89.507812 74.242188 89.285156 73.75 C 89.089844 73.304688 88.644531 73.207031 88.210938 73.050781 C 87.527344 72.796875 86.824219 72.601562 86.113281 72.4375 C 86.097656 72.425781 86.082031 72.421875 86.0625 72.414062 C 86.023438 72.410156 85.984375 72.402344 85.941406 72.394531 C 85.746094 72.363281 85.65625 72.644531 85.84375 72.703125 C 85.886719 73.449219 85.929688 74.199219 85.972656 74.949219 C 85.992188 75.316406 85.90625 75.929688 86.125 76.269531 C 86.378906 76.667969 87.078125 76.878906 87.46875 77.089844 C 88.097656 77.429688 88.726562 77.761719 89.359375 78.089844 C 89.464844 78.144531 89.609375 78.078125 89.605469 77.949219 Z M 98.261719 76.089844 C 98.3125 76.59375 98.4375 77.148438 98.199219 77.628906 C 97.820312 78.390625 96.203125 79.828125 95.316406 79.988281 C 94.664062 80.105469 93.777344 79.726562 93.171875 79.570312 C 92.25 79.335938 91.328125 79.105469 90.40625 78.863281 C 89.179688 78.542969 85.472656 76.949219 85.429688 76.445312 L 85.027344 71.832031 L 84.992188 71.429688 C 84.972656 71.222656 85.042969 71.070312 85.152344 70.964844 C 85.191406 70.828125 85.285156 70.699219 85.449219 70.609375 C 86.128906 70.234375 86.640625 69.964844 87.164062 69.816406 C 87.15625 69.875 87.15625 69.9375 87.152344 69.996094 C 87.140625 70.058594 87.058594 70.453125 87.046875 70.429688 C 87.242188 70.804688 88.707031 70.988281 89.148438 71.117188 C 89.167969 71.121094 89.1875 71.125 89.203125 71.128906 C 88.921875 71.15625 88.640625 71.195312 88.359375 71.246094 C 88.15625 71.28125 88.242188 71.59375 88.449219 71.558594 C 88.992188 71.457031 89.539062 71.414062 90.089844 71.417969 C 90.121094 71.417969 90.148438 71.410156 90.167969 71.398438 C 90.785156 71.566406 91.40625 71.726562 92.027344 71.878906 C 92.027344 71.886719 92.027344 71.890625 92.03125 71.894531 C 92.199219 72.199219 92.371094 72.507812 92.539062 72.8125 C 92.640625 72.996094 92.921875 72.832031 92.820312 72.648438 C 92.699219 72.429688 92.574219 72.207031 92.453125 71.988281 C 92.914062 72.097656 93.375 72.207031 93.839844 72.3125 C 94.066406 72.363281 94.824219 72.667969 95.027344 72.507812 C 95.148438 72.414062 95.148438 72.183594 95.132812 71.972656 C 95.269531 71.992188 95.386719 71.988281 95.449219 71.941406 C 95.515625 71.890625 95.542969 71.800781 95.554688 71.699219 C 96.332031 71.96875 97.203125 72.3125 97.625 72.847656 C 97.785156 73.007812 97.910156 73.199219 97.976562 73.429688 C 98.203125 74.214844 98.179688 75.1875 98.253906 76.007812 C 98.257812 76.035156 98.257812 76.0625 98.261719 76.089844 Z M 65.082031 98.640625 C 64.277344 98.722656 63.269531 98.8125 62.398438 98.617188 C 62.984375 99.488281 64.285156 99.367188 65.199219 99.277344 C 66.6875 99.132812 68.1875 98.917969 69.589844 98.371094 C 69.859375 98.261719 70.128906 98.140625 70.394531 98.007812 C 70.386719 97.910156 70.378906 97.816406 70.375 97.71875 C 68.65625 98.222656 66.863281 98.46875 65.082031 98.640625 Z M 91.128906 87.480469 C 89.816406 85.851562 88.082031 84.871094 86.285156 83.992188 C 84.09375 82.917969 81.875 81.820312 79.628906 80.902344 C 78.554688 80.460938 76.863281 79.777344 75.617188 80.039062 C 77.414062 80.546875 79.328125 81.585938 80.164062 82.003906 C 81.816406 82.835938 83.476562 83.667969 85.007812 84.710938 C 85.714844 85.191406 86.59375 85.742188 87.074219 86.464844 C 87.539062 87.164062 87.589844 88.058594 87.550781 88.871094 C 88.160156 88.660156 88.773438 88.457031 89.378906 88.238281 C 89.792969 88.089844 90.382812 87.738281 90.820312 88.011719 C 91.03125 88.144531 91.132812 88.367188 91.175781 88.617188 C 91.183594 88.335938 91.183594 88.066406 91.179688 87.828125 C 91.179688 87.8125 91.175781 87.800781 91.171875 87.789062 C 91.214844 87.699219 91.214844 87.585938 91.128906 87.480469 Z M 63.65625 90.414062 L 63.65625 92.832031 C 63.832031 92.730469 64.007812 92.628906 64.191406 92.539062 C 64.195312 92.53125 64.203125 92.527344 64.207031 92.523438 L 64.207031 90.113281 C 64.367188 90.011719 64.511719 89.898438 64.621094 89.761719 C 65.089844 89.175781 64.382812 88.902344 63.910156 88.707031 C 63.675781 88.609375 63.441406 88.523438 63.207031 88.433594 C 62.699219 88.242188 62.832031 88.363281 62.742188 87.910156 C 62.609375 87.242188 62.765625 86.386719 62.777344 85.707031 C 62.78125 85.375 62.738281 85 62.792969 84.675781 C 62.816406 84.546875 62.964844 84.222656 62.929688 84.085938 C 62.777344 83.527344 62.035156 83.742188 61.617188 83.847656 C 60.972656 84.015625 60.300781 84.265625 59.71875 84.59375 C 58.890625 85.0625 59.15625 86.007812 59.117188 86.832031 C 59.078125 87.703125 58.820312 89.164062 59.28125 89.929688 C 59.285156 89.933594 59.289062 89.9375 59.289062 89.941406 C 59.25 91.027344 59.21875 92.113281 59.199219 93.203125 C 59.191406 93.554688 59.746094 93.554688 59.75 93.203125 C 59.765625 92.246094 59.792969 91.289062 59.828125 90.335938 C 60.050781 90.4375 60.292969 90.519531 60.476562 90.605469 C 60.824219 90.773438 61.28125 91.09375 61.695312 91.234375 C 61.671875 92.097656 61.636719 92.960938 61.589844 93.820312 C 61.574219 94.039062 61.777344 94.121094 61.941406 94.070312 C 62 94.019531 62.058594 93.96875 62.113281 93.921875 C 62.128906 93.890625 62.136719 93.859375 62.140625 93.820312 C 62.191406 92.972656 62.222656 92.125 62.246094 91.277344 C 62.664062 91.183594 63.023438 90.808594 63.367188 90.582031 C 63.457031 90.523438 63.554688 90.46875 63.65625 90.414062 Z M 49.386719 77.050781 C 46.292969 75.027344 39.125 77.996094 39.757812 80.925781 C 39.835938 81.292969 40.039062 81.660156 40.382812 82.015625 C 40.546875 82.179688 40.738281 82.34375 40.964844 82.503906 C 41.089844 82.59375 41.230469 82.667969 41.386719 82.738281 C 41.921875 82.972656 42.632812 83.097656 43.421875 83.117188 C 43.773438 83.128906 44.144531 83.117188 44.523438 83.085938 C 45.003906 83.046875 45.496094 82.976562 45.984375 82.875 C 46.375 82.792969 46.757812 82.695312 47.132812 82.574219 C 47.761719 82.375 48.359375 82.121094 48.875 81.816406 C 49.222656 81.613281 49.535156 81.386719 49.796875 81.140625 C 50.628906 80.367188 50.976562 79.382812 50.429688 78.234375 C 50.1875 77.726562 49.828125 77.339844 49.386719 77.050781 Z M 127.320312 77.304688 C 127.453125 79.738281 128.304688 83.398438 127.140625 85.613281 C 125.59375 88.542969 121.707031 88.597656 119.214844 90.246094 C 117.917969 91.105469 116.765625 91.597656 115.523438 91.699219 L 115.523438 43.644531 L 100.277344 17.398438 C 100.75 16.921875 100.847656 16.507812 99.765625 16.519531 L 98.675781 14.640625 C 99.085938 14.464844 99.496094 14.292969 99.910156 14.128906 C 103.597656 12.652344 106.875 11.195312 109.941406 14.167969 C 113.808594 17.921875 116.992188 22.953125 120.175781 27.289062 C 122.644531 30.652344 126.714844 34.796875 127.570312 38.839844 C 128.511719 43.277344 127.261719 49.136719 127.125 53.753906 C 126.96875 58.980469 126.9375 64.210938 127.023438 69.4375 C 127.066406 72.066406 127.179688 74.679688 127.320312 77.304688 " fill-opacity="1" fill-rule="nonzero"/><g clip-path="url(#4adef1f15b)"><path fill="#110f0d" d="M 128.574219 39.316406 C 128.453125 38.957031 128.0625 38.761719 127.703125 38.882812 L 115.835938 42.816406 L 99.269531 14.296875 C 99.082031 13.96875 98.660156 13.855469 98.332031 14.046875 C 98 14.238281 97.886719 14.660156 98.078125 14.988281 L 114.832031 43.828125 L 114.832031 66.703125 L 76.664062 52.535156 C 76.308594 52.402344 75.910156 52.582031 75.777344 52.941406 C 75.648438 53.296875 75.828125 53.691406 76.183594 53.824219 L 114.363281 67.996094 C 114.441406 68.023438 114.523438 68.039062 114.605469 68.039062 C 114.683594 68.039062 114.761719 68.023438 114.832031 67.996094 L 114.832031 93.109375 C 114.832031 93.492188 115.140625 93.796875 115.523438 93.796875 C 115.902344 93.796875 116.210938 93.492188 116.210938 93.109375 L 116.210938 44.140625 L 128.136719 40.1875 C 128.496094 40.066406 128.691406 39.679688 128.574219 39.316406 Z M 75.132812 59.835938 C 74.753906 59.835938 74.445312 60.144531 74.445312 60.523438 L 74.445312 67.351562 C 74.445312 67.730469 74.753906 68.039062 75.132812 68.039062 C 75.515625 68.039062 75.824219 67.730469 75.824219 67.351562 L 75.824219 60.523438 C 75.824219 60.144531 75.515625 59.835938 75.132812 59.835938 Z M 93.527344 62.246094 C 93.339844 62.121094 93.082031 62.171875 92.957031 62.359375 L 91.355469 64.75 L 90.097656 62.394531 C 89.992188 62.195312 89.742188 62.117188 89.539062 62.222656 C 89.339844 62.332031 89.261719 62.582031 89.367188 62.785156 L 90.949219 65.75 C 91.015625 65.878906 91.148438 65.960938 91.292969 65.96875 C 91.300781 65.96875 91.308594 65.96875 91.316406 65.96875 C 91.453125 65.96875 91.582031 65.898438 91.660156 65.785156 L 93.644531 62.816406 C 93.769531 62.628906 93.71875 62.371094 93.527344 62.246094 Z M 75.132812 46.351562 C 75.515625 46.351562 75.824219 46.042969 75.824219 45.664062 L 75.824219 38.839844 C 75.824219 38.457031 75.515625 38.148438 75.132812 38.148438 C 74.753906 38.148438 74.445312 38.457031 74.445312 38.839844 L 74.445312 45.664062 C 74.445312 46.042969 74.753906 46.351562 75.132812 46.351562 Z M 74.378906 52.941406 C 74.507812 53.296875 74.328125 53.691406 73.972656 53.824219 L 35.792969 67.996094 C 35.714844 68.023438 35.632812 68.039062 35.550781 68.039062 C 35.472656 68.039062 35.394531 68.023438 35.324219 67.996094 L 35.324219 90.285156 C 35.324219 90.664062 35.015625 90.972656 34.632812 90.972656 C 34.253906 90.972656 33.945312 90.664062 33.945312 90.285156 L 33.945312 44.140625 L 22.019531 40.1875 C 21.660156 40.066406 21.464844 39.679688 21.582031 39.316406 C 21.703125 38.957031 22.09375 38.761719 22.453125 38.882812 L 34.320312 42.816406 L 50.886719 14.296875 C 51.074219 13.96875 51.496094 13.855469 51.824219 14.046875 C 52.15625 14.238281 52.265625 14.660156 52.078125 14.988281 L 35.324219 43.828125 L 35.324219 66.703125 L 73.492188 52.535156 C 73.847656 52.402344 74.246094 52.582031 74.378906 52.941406 " fill-opacity="1" fill-rule="nonzero"/></g></svg>