<svg xmlns="http://www.w3.org/2000/svg" xmlns:xlink="http://www.w3.org/1999/xlink" width="300" zoomAndPan="magnify" viewBox="0 0 224.87999 225" height="300" preserveAspectRatio="xMidYMid meet" version="1.0"><defs><clipPath id="e4ebc7dc55"><path d="M 26.347656 23 L 198 23 L 198 202 L 26.347656 202 Z M 26.347656 23 " clip-rule="nonzero"/></clipPath><clipPath id="0bcd3cabff"><path d="M 26.347656 22.546875 L 198.757812 22.546875 L 198.757812 202.453125 L 26.347656 202.453125 Z M 26.347656 22.546875 " clip-rule="nonzero"/></clipPath><clipPath id="0444176a39"><path d="M 26.347656 31 L 185 31 L 185 202 L 26.347656 202 Z M 26.347656 31 " clip-rule="nonzero"/></clipPath><clipPath id="ceb2e6565c"><path d="M 26.347656 30 L 186 30 L 186 202.453125 L 26.347656 202.453125 Z M 26.347656 30 " clip-rule="nonzero"/></clipPath><clipPath id="b52cb41ff8"><path d="M 72 22.546875 L 194 22.546875 L 194 161 L 72 161 Z M 72 22.546875 " clip-rule="nonzero"/></clipPath><clipPath id="6374a10ebd"><path d="M 167 165 L 198.757812 165 L 198.757812 202 L 167 202 Z M 167 165 " clip-rule="nonzero"/></clipPath><clipPath id="228fb66b03"><path d="M 166 151 L 198.757812 151 L 198.757812 176 L 166 176 Z M 166 151 " clip-rule="nonzero"/></clipPath></defs><g clip-path="url(#e4ebc7dc55)"><path fill="#000000" d="M 195.351562 163.621094 L 180.078125 152.183594 C 188.574219 138.550781 193.046875 122.679688 193.046875 105.988281 C 193.046875 84.238281 185.332031 63.699219 171.324219 48.15625 C 156.84375 32.085938 137.433594 23.238281 116.675781 23.238281 C 100.761719 23.238281 85.640625 28.445312 72.925781 38.113281 C 63.949219 42.328125 55.726562 48.4375 48.675781 56.261719 C 34.667969 71.800781 26.957031 92.339844 26.957031 114.089844 C 26.957031 135.84375 34.667969 156.378906 48.675781 171.921875 C 63.15625 187.992188 82.566406 196.84375 103.324219 196.84375 C 116.75 196.84375 129.796875 193.089844 141.273438 185.960938 L 160.496094 200.359375 C 162.4375 201.8125 164.964844 201.925781 166.976562 200.867188 L 166.976562 200.871094 L 167.007812 200.851562 C 167.246094 200.722656 167.480469 200.582031 167.703125 200.421875 L 179.742188 193.035156 L 179.738281 193.035156 C 180.746094 192.636719 181.65625 191.96875 182.355469 191.042969 L 196.566406 172.117188 C 198.582031 169.4375 198.039062 165.632812 195.351562 163.621094 Z M 103.324219 67.132812 C 125.671875 67.132812 143.851562 88.199219 143.851562 114.089844 C 143.851562 117.578125 143.523438 121.003906 142.886719 124.324219 L 124.449219 110.515625 C 122.253906 108.875 119.3125 108.9375 117.210938 110.476562 L 104.640625 118.09375 L 104.640625 118.101562 C 103.859375 118.507812 103.152344 119.082031 102.589844 119.832031 L 88.375 138.757812 C 88.265625 138.90625 88.164062 139.058594 88.066406 139.214844 C 80.707031 130.710938 76.148438 118.953125 76.148438 105.988281 C 76.148438 91.066406 82.195312 77.753906 91.589844 69.148438 C 95.308594 67.84375 99.246094 67.132812 103.324219 67.132812 Z M 103.324219 67.132812 " fill-opacity="1" fill-rule="nonzero"/></g><g clip-path="url(#0bcd3cabff)"><path fill="#000000" d="M 164.140625 202.171875 C 162.71875 202.171875 161.304688 201.722656 160.132812 200.84375 L 141.238281 186.695312 C 129.769531 193.730469 116.671875 197.449219 103.324219 197.449219 C 82.390625 197.449219 62.824219 188.527344 48.222656 172.328125 C 34.117188 156.675781 26.347656 135.992188 26.347656 114.089844 C 26.347656 92.1875 34.117188 71.507812 48.222656 55.855469 C 55.273438 48.035156 63.476562 41.890625 72.609375 37.59375 C 85.503906 27.804688 100.742188 22.628906 116.675781 22.628906 C 137.609375 22.628906 157.179688 31.550781 171.777344 47.75 C 185.882812 63.402344 193.652344 84.085938 193.652344 105.988281 C 193.652344 122.523438 189.242188 138.429688 180.886719 152.03125 L 195.714844 163.136719 C 197.144531 164.207031 198.070312 165.765625 198.324219 167.53125 C 198.574219 169.296875 198.125 171.054688 197.054688 172.480469 L 182.839844 191.40625 C 182.121094 192.367188 181.148438 193.113281 180.03125 193.570312 L 168.042969 200.925781 C 167.828125 201.082031 167.59375 201.222656 167.3125 201.375 L 167.296875 201.386719 C 167.265625 201.402344 167.238281 201.417969 167.207031 201.429688 C 166.242188 201.925781 165.1875 202.171875 164.140625 202.171875 Z M 141.273438 185.355469 C 141.402344 185.355469 141.527344 185.394531 141.636719 185.476562 L 160.859375 199.875 C 162.539062 201.132812 164.828125 201.308594 166.691406 200.328125 C 166.699219 200.324219 166.707031 200.324219 166.714844 200.320312 C 166.714844 200.316406 166.71875 200.316406 166.722656 200.316406 C 166.972656 200.179688 167.171875 200.058594 167.347656 199.929688 C 167.359375 199.921875 167.375 199.914062 167.386719 199.90625 L 179.375 192.546875 C 179.417969 192.515625 179.464844 192.488281 179.515625 192.46875 C 180.453125 192.097656 181.269531 191.476562 181.871094 190.679688 L 196.082031 171.753906 C 196.957031 170.585938 197.328125 169.148438 197.121094 167.703125 C 196.914062 166.261719 196.15625 164.984375 194.988281 164.109375 L 179.714844 152.667969 C 179.460938 152.480469 179.398438 152.128906 179.5625 151.863281 C 187.984375 138.351562 192.4375 122.488281 192.4375 105.988281 C 192.4375 84.386719 184.78125 63.992188 170.875 48.5625 C 156.507812 32.621094 137.261719 23.84375 116.675781 23.84375 C 100.988281 23.84375 85.988281 28.945312 73.292969 38.597656 C 73.261719 38.625 73.222656 38.644531 73.183594 38.664062 C 64.175781 42.890625 56.082031 48.949219 49.128906 56.667969 C 35.222656 72.097656 27.5625 92.488281 27.5625 114.089844 C 27.5625 135.691406 35.222656 156.085938 49.128906 171.515625 C 63.492188 187.457031 82.738281 196.234375 103.324219 196.234375 C 116.582031 196.234375 129.589844 192.503906 140.949219 185.445312 C 141.050781 185.386719 141.160156 185.355469 141.273438 185.355469 Z M 88.066406 139.820312 C 87.890625 139.820312 87.722656 139.746094 87.609375 139.613281 C 79.828125 130.617188 75.542969 118.675781 75.542969 105.988281 C 75.542969 91.394531 81.242188 77.804688 91.179688 68.699219 C 91.238281 68.644531 91.3125 68.601562 91.390625 68.574219 C 95.261719 67.214844 99.277344 66.527344 103.324219 66.527344 C 126.007812 66.527344 144.460938 87.863281 144.460938 114.089844 C 144.460938 117.574219 144.132812 121.054688 143.480469 124.441406 C 143.441406 124.644531 143.300781 124.816406 143.105469 124.890625 C 142.910156 124.96875 142.6875 124.9375 142.519531 124.8125 L 124.082031 111.003906 C 122.144531 109.550781 119.527344 109.535156 117.570312 110.964844 C 117.554688 110.976562 117.542969 110.984375 117.527344 110.996094 L 105.019531 118.574219 C 104.992188 118.597656 104.957031 118.621094 104.921875 118.636719 C 104.1875 119.023438 103.566406 119.546875 103.074219 120.199219 L 88.863281 139.121094 C 88.773438 139.238281 88.6875 139.371094 88.585938 139.535156 C 88.484375 139.699219 88.308594 139.804688 88.117188 139.820312 C 88.101562 139.820312 88.082031 139.820312 88.066406 139.820312 Z M 91.910156 69.679688 C 82.277344 78.554688 76.757812 91.78125 76.757812 105.988281 C 76.757812 118.105469 80.75 129.519531 88.019531 138.222656 L 102.101562 119.46875 C 102.6875 118.691406 103.421875 118.0625 104.289062 117.601562 C 104.300781 117.589844 104.3125 117.582031 104.324219 117.574219 L 116.875 109.96875 C 119.261719 108.238281 122.449219 108.261719 124.8125 110.03125 L 142.464844 123.25 C 142.980469 120.246094 143.246094 117.167969 143.246094 114.089844 C 143.246094 88.535156 125.335938 67.742188 103.324219 67.742188 C 99.453125 67.742188 95.613281 68.394531 91.910156 69.679688 Z M 91.910156 69.679688 " fill-opacity="1" fill-rule="nonzero"/></g><g clip-path="url(#0444176a39)"><path fill="#ffffff" d="M 141.273438 185.960938 C 129.796875 193.089844 116.753906 196.84375 103.324219 196.84375 C 82.566406 196.84375 63.15625 187.992188 48.675781 171.921875 C 34.667969 156.378906 26.957031 135.84375 26.957031 114.089844 C 26.957031 92.339844 34.667969 71.800781 48.675781 56.261719 C 63.15625 40.191406 82.566406 31.339844 103.324219 31.339844 C 124.082031 31.339844 143.492188 40.191406 157.972656 56.261719 C 171.980469 71.800781 179.695312 92.339844 179.695312 114.089844 C 179.695312 130.785156 175.222656 146.65625 166.726562 160.285156 L 182 171.726562 C 184.683594 173.738281 185.230469 177.539062 183.214844 180.222656 L 169.003906 199.144531 C 166.988281 201.828125 163.179688 202.371094 160.496094 200.359375 Z M 103.324219 67.132812 C 80.976562 67.132812 62.796875 88.199219 62.796875 114.089844 C 62.796875 139.984375 80.976562 161.050781 103.324219 161.050781 C 104.777344 161.050781 106.222656 160.960938 107.65625 160.78125 L 89.59375 147.253906 C 86.90625 145.242188 86.363281 141.4375 88.375 138.757812 L 102.589844 119.832031 C 104.601562 117.152344 108.410156 116.609375 111.097656 118.621094 L 137.84375 138.65625 C 141.789062 131.285156 143.851562 122.890625 143.851562 114.089844 C 143.851562 88.199219 125.671875 67.132812 103.324219 67.132812 Z M 103.324219 67.132812 " fill-opacity="1" fill-rule="nonzero"/></g><g clip-path="url(#ceb2e6565c)"><path fill="#000000" d="M 164.132812 202.179688 C 162.738281 202.179688 161.332031 201.742188 160.132812 200.84375 L 141.238281 186.695312 C 129.769531 193.730469 116.671875 197.449219 103.324219 197.449219 C 82.390625 197.449219 62.824219 188.527344 48.222656 172.328125 C 34.117188 156.675781 26.347656 135.992188 26.347656 114.089844 C 26.347656 92.1875 34.117188 71.507812 48.222656 55.855469 C 62.824219 39.65625 82.390625 30.734375 103.324219 30.734375 C 124.257812 30.734375 143.828125 39.65625 158.425781 55.855469 C 172.53125 71.507812 180.300781 92.191406 180.300781 114.089844 C 180.300781 130.625 175.890625 146.53125 167.535156 160.132812 L 182.363281 171.242188 C 185.3125 173.449219 185.914062 177.640625 183.703125 180.585938 L 169.488281 199.511719 C 168.179688 201.257812 166.167969 202.175781 164.132812 202.179688 Z M 141.273438 185.355469 C 141.402344 185.355469 141.527344 185.394531 141.636719 185.476562 L 160.859375 199.875 C 163.273438 201.679688 166.707031 201.191406 168.515625 198.78125 L 182.730469 179.859375 C 184.539062 177.449219 184.046875 174.019531 181.636719 172.210938 L 166.363281 160.769531 C 166.109375 160.582031 166.042969 160.234375 166.210938 159.964844 C 174.632812 146.453125 179.085938 130.589844 179.085938 114.089844 C 179.085938 92.488281 171.429688 72.097656 157.523438 56.667969 C 143.15625 40.726562 123.910156 31.949219 103.324219 31.949219 C 82.742188 31.949219 63.492188 40.726562 49.128906 56.667969 C 35.222656 72.097656 27.5625 92.488281 27.5625 114.089844 C 27.5625 135.691406 35.222656 156.085938 49.128906 171.515625 C 63.492188 187.457031 82.738281 196.234375 103.324219 196.234375 C 116.582031 196.234375 129.589844 192.503906 140.949219 185.445312 C 141.050781 185.386719 141.160156 185.355469 141.273438 185.355469 Z M 103.324219 161.65625 C 80.640625 161.65625 62.1875 140.320312 62.1875 114.089844 C 62.1875 87.863281 80.644531 66.527344 103.324219 66.527344 C 126.007812 66.527344 144.460938 87.863281 144.460938 114.089844 C 144.460938 122.914062 142.359375 131.503906 138.382812 138.941406 C 138.296875 139.097656 138.152344 139.210938 137.976562 139.246094 C 137.804688 139.285156 137.621094 139.246094 137.480469 139.140625 L 110.730469 119.105469 C 109.5625 118.230469 108.121094 117.863281 106.675781 118.066406 C 105.230469 118.273438 103.953125 119.03125 103.074219 120.199219 L 88.863281 139.121094 C 87.984375 140.289062 87.617188 141.726562 87.824219 143.171875 C 88.03125 144.613281 88.789062 145.890625 89.957031 146.769531 L 108.019531 160.296875 C 108.21875 160.445312 108.304688 160.699219 108.242188 160.9375 C 108.179688 161.175781 107.976562 161.355469 107.730469 161.386719 C 106.277344 161.566406 104.792969 161.65625 103.324219 161.65625 Z M 103.324219 67.742188 C 81.3125 67.742188 63.40625 88.535156 63.40625 114.089844 C 63.40625 139.648438 81.3125 160.441406 103.324219 160.441406 C 104.230469 160.441406 105.140625 160.40625 106.046875 160.335938 L 89.226562 147.738281 C 87.800781 146.667969 86.875 145.109375 86.621094 143.34375 C 86.367188 141.578125 86.820312 139.820312 87.890625 138.394531 L 102.101562 119.46875 C 103.175781 118.042969 104.738281 117.117188 106.503906 116.867188 C 108.273438 116.613281 110.035156 117.066406 111.460938 118.136719 L 137.640625 137.742188 C 141.308594 130.628906 143.246094 122.464844 143.246094 114.089844 C 143.246094 88.535156 125.335938 67.742188 103.324219 67.742188 Z M 103.324219 67.742188 " fill-opacity="1" fill-rule="nonzero"/></g><path fill="#c2b092" d="M 117.210938 110.476562 L 104.640625 118.09375 L 104.640625 118.101562 C 106.652344 117.054688 109.164062 117.171875 111.097656 118.621094 L 137.847656 138.65625 C 140.226562 134.207031 141.914062 129.382812 142.886719 124.324219 L 124.449219 110.515625 C 122.253906 108.875 119.3125 108.9375 117.210938 110.476562 Z M 117.210938 110.476562 " fill-opacity="1" fill-rule="nonzero"/><path fill="#000000" d="M 137.847656 139.261719 C 137.714844 139.261719 137.585938 139.21875 137.480469 139.140625 L 110.730469 119.105469 C 109.0625 117.855469 106.78125 117.671875 104.921875 118.636719 C 104.765625 118.71875 104.585938 118.730469 104.421875 118.664062 C 104.257812 118.601562 104.128906 118.472656 104.070312 118.308594 C 103.972656 118.035156 104.078125 117.726562 104.324219 117.578125 L 116.875 109.96875 C 119.261719 108.238281 122.449219 108.261719 124.8125 110.03125 L 143.25 123.839844 C 143.433594 123.980469 143.527344 124.210938 143.480469 124.4375 C 142.496094 129.578125 140.78125 134.457031 138.382812 138.941406 C 138.296875 139.097656 138.148438 139.210938 137.976562 139.246094 C 137.933594 139.257812 137.890625 139.261719 137.847656 139.261719 Z M 107.90625 116.824219 C 109.175781 116.910156 110.414062 117.351562 111.460938 118.132812 L 137.640625 137.742188 C 139.753906 133.648438 141.289062 129.226562 142.214844 124.582031 L 124.082031 111 C 122.144531 109.546875 119.527344 109.535156 117.570312 110.964844 C 117.554688 110.976562 117.542969 110.984375 117.527344 110.996094 Z M 107.90625 116.824219 " fill-opacity="1" fill-rule="nonzero"/><path fill="#c2b092" d="M 91.589844 69.148438 C 74.949219 74.992188 62.796875 92.925781 62.796875 114.089844 C 62.796875 139.984375 80.976562 161.050781 103.324219 161.050781 C 104.777344 161.050781 106.222656 160.960938 107.65625 160.78125 L 89.59375 147.253906 C 87.054688 145.355469 86.433594 141.855469 88.066406 139.214844 C 80.710938 130.710938 76.148438 118.953125 76.148438 105.988281 C 76.148438 91.066406 82.195312 77.753906 91.589844 69.148438 Z M 91.589844 69.148438 " fill-opacity="1" fill-rule="nonzero"/><path fill="#000000" d="M 103.324219 161.65625 C 80.640625 161.65625 62.1875 140.320312 62.1875 114.089844 C 62.1875 103.707031 65.042969 93.835938 70.445312 85.542969 C 75.675781 77.507812 83.117188 71.480469 91.390625 68.574219 C 91.660156 68.480469 91.964844 68.589844 92.113281 68.835938 C 92.261719 69.082031 92.214844 69.402344 92 69.59375 C 82.3125 78.472656 76.757812 91.734375 76.757812 105.988281 C 76.757812 118.382812 80.9375 130.042969 88.527344 138.820312 C 88.699219 139.019531 88.722656 139.308594 88.585938 139.535156 C 87.089844 141.953125 87.679688 145.0625 89.957031 146.769531 L 108.019531 160.296875 C 108.21875 160.445312 108.304688 160.699219 108.242188 160.9375 C 108.179688 161.179688 107.976562 161.355469 107.730469 161.386719 C 106.277344 161.566406 104.792969 161.65625 103.324219 161.65625 Z M 89.007812 70.832031 C 73.796875 77.660156 63.40625 94.980469 63.40625 114.089844 C 63.40625 139.648438 81.3125 160.441406 103.324219 160.441406 C 104.230469 160.441406 105.140625 160.40625 106.046875 160.335938 L 89.226562 147.738281 C 86.5625 145.742188 85.789062 142.179688 87.328125 139.285156 C 79.722656 130.328125 75.542969 118.523438 75.542969 105.988281 C 75.542969 92.496094 80.414062 79.859375 89.007812 70.832031 Z M 89.007812 70.832031 " fill-opacity="1" fill-rule="nonzero"/><path fill="#c2b092" d="M 193.046875 105.988281 C 193.046875 84.238281 185.332031 63.699219 171.324219 48.15625 C 156.84375 32.085938 137.433594 23.238281 116.675781 23.238281 C 100.761719 23.238281 85.640625 28.445312 72.925781 38.113281 C 82.382812 33.675781 92.675781 31.339844 103.324219 31.339844 C 124.082031 31.339844 143.492188 40.191406 157.972656 56.261719 C 171.980469 71.800781 179.695312 92.339844 179.695312 114.089844 C 179.695312 130.785156 175.222656 146.65625 166.726562 160.285156 L 180.078125 152.183594 C 188.574219 138.550781 193.046875 122.679688 193.046875 105.988281 Z M 193.046875 105.988281 " fill-opacity="1" fill-rule="nonzero"/><g clip-path="url(#b52cb41ff8)"><path fill="#000000" d="M 166.726562 160.894531 C 166.570312 160.894531 166.414062 160.832031 166.292969 160.710938 C 166.097656 160.511719 166.0625 160.203125 166.210938 159.964844 C 174.632812 146.453125 179.085938 130.589844 179.085938 114.089844 C 179.085938 92.488281 171.429688 72.097656 157.523438 56.667969 C 143.15625 40.726562 123.910156 31.949219 103.324219 31.949219 C 92.820312 31.949219 82.679688 34.207031 73.183594 38.664062 C 72.902344 38.796875 72.566406 38.695312 72.40625 38.429688 C 72.246094 38.164062 72.308594 37.820312 72.558594 37.632812 C 85.464844 27.816406 100.71875 22.628906 116.675781 22.628906 C 137.609375 22.628906 157.179688 31.550781 171.777344 47.75 C 185.882812 63.402344 193.652344 84.085938 193.652344 105.988281 C 193.652344 122.714844 189.136719 138.800781 180.59375 152.503906 C 180.542969 152.582031 180.476562 152.652344 180.394531 152.699219 L 167.042969 160.804688 C 166.945312 160.863281 166.835938 160.894531 166.726562 160.894531 Z M 103.324219 30.734375 C 124.257812 30.734375 143.828125 39.65625 158.425781 55.855469 C 172.53125 71.507812 180.300781 92.1875 180.300781 114.089844 C 180.300781 129.960938 176.234375 145.257812 168.523438 158.488281 L 179.640625 151.738281 C 188.011719 138.253906 192.4375 122.4375 192.4375 105.988281 C 192.4375 84.386719 184.78125 63.992188 170.875 48.5625 C 156.507812 32.621094 137.261719 23.84375 116.675781 23.84375 C 102.859375 23.84375 89.570312 27.804688 77.925781 35.339844 C 86.039062 32.28125 94.558594 30.734375 103.324219 30.734375 Z M 103.324219 30.734375 " fill-opacity="1" fill-rule="nonzero"/></g><path fill="#c2b092" d="M 184.082031 174.558594 C 184.734375 176.40625 184.480469 178.535156 183.214844 180.222656 L 169.003906 199.144531 C 168.628906 199.648438 168.1875 200.074219 167.707031 200.421875 L 179.742188 193.035156 L 179.738281 193.03125 C 180.746094 192.632812 181.660156 191.96875 182.355469 191.042969 L 196.566406 172.117188 C 197.855469 170.40625 198.09375 168.238281 197.402344 166.367188 Z M 184.082031 174.558594 " fill-opacity="1" fill-rule="nonzero"/><g clip-path="url(#6374a10ebd)"><path fill="#000000" d="M 167.707031 201.027344 C 167.507812 201.027344 167.316406 200.933594 167.199219 200.757812 C 167.019531 200.488281 167.085938 200.121094 167.347656 199.929688 C 167.792969 199.609375 168.1875 199.222656 168.515625 198.78125 L 182.730469 179.859375 C 183.828125 178.394531 184.121094 176.488281 183.511719 174.761719 C 183.414062 174.492188 183.519531 174.191406 183.765625 174.042969 L 197.082031 165.851562 C 197.238281 165.757812 197.425781 165.734375 197.597656 165.796875 C 197.769531 165.855469 197.90625 165.988281 197.96875 166.160156 C 198.761719 168.300781 198.421875 170.664062 197.054688 172.480469 L 182.84375 191.40625 C 182.121094 192.367188 181.148438 193.113281 180.03125 193.570312 L 168.023438 200.9375 C 167.925781 201 167.816406 201.027344 167.707031 201.027344 Z M 184.804688 174.828125 C 185.34375 176.808594 184.945312 178.929688 183.703125 180.585938 L 170.738281 197.847656 L 179.375 192.546875 C 179.417969 192.515625 179.464844 192.488281 179.515625 192.46875 C 180.453125 192.097656 181.269531 191.476562 181.871094 190.675781 L 196.082031 171.753906 C 197.046875 170.46875 197.386719 168.847656 197.042969 167.300781 Z M 184.804688 174.828125 " fill-opacity="1" fill-rule="nonzero"/></g><path fill="#c2b092" d="M 195.351562 163.621094 L 180.078125 152.183594 L 166.726562 160.285156 L 182 171.726562 C 182.996094 172.472656 183.699219 173.464844 184.082031 174.558594 L 197.398438 166.367188 C 197.007812 165.3125 196.324219 164.347656 195.351562 163.621094 Z M 195.351562 163.621094 " fill-opacity="1" fill-rule="nonzero"/><g clip-path="url(#228fb66b03)"><path fill="#000000" d="M 184.082031 175.164062 C 184.015625 175.164062 183.945312 175.152344 183.878906 175.128906 C 183.707031 175.070312 183.570312 174.933594 183.511719 174.761719 C 183.152344 173.742188 182.503906 172.859375 181.636719 172.210938 L 166.363281 160.769531 C 166.199219 160.652344 166.109375 160.457031 166.121094 160.257812 C 166.128906 160.054688 166.238281 159.871094 166.410156 159.765625 L 179.761719 151.664062 C 179.976562 151.535156 180.246094 151.546875 180.445312 151.695312 L 195.714844 163.136719 C 196.742188 163.90625 197.523438 164.949219 197.96875 166.160156 C 198.070312 166.429688 197.964844 166.734375 197.71875 166.886719 L 184.402344 175.074219 C 184.304688 175.136719 184.195312 175.164062 184.082031 175.164062 Z M 167.808594 160.339844 L 182.363281 171.238281 C 183.222656 171.882812 183.90625 172.714844 184.371094 173.667969 L 196.636719 166.125 C 196.257812 165.328125 195.695312 164.636719 194.988281 164.105469 L 180.042969 152.914062 Z M 167.808594 160.339844 " fill-opacity="1" fill-rule="nonzero"/></g></svg>