<svg xmlns="http://www.w3.org/2000/svg" xmlns:xlink="http://www.w3.org/1999/xlink" width="200" zoomAndPan="magnify" viewBox="0 0 150 95.999999" height="128" preserveAspectRatio="xMidYMid meet" version="1.0"><defs><clipPath id="cb32a56e3c"><path d="M 23 5.699219 L 79 5.699219 L 79 57 L 23 57 Z M 23 5.699219 " clip-rule="nonzero"/></clipPath><clipPath id="089c28aef0"><path d="M 81.046875 58 L 129 58 L 129 90 L 81.046875 90 Z M 81.046875 58 " clip-rule="nonzero"/></clipPath><clipPath id="52c66a6292"><path d="M 81.046875 57.339844 L 129.796875 57.339844 L 129.796875 90.339844 L 81.046875 90.339844 Z M 81.046875 57.339844 " clip-rule="nonzero"/></clipPath><clipPath id="7a7fa68725"><path d="M 116.523438 53.691406 L 123.953125 53.691406 L 123.953125 59.070312 L 116.523438 59.070312 Z M 116.523438 53.691406 " clip-rule="nonzero"/></clipPath><clipPath id="979d6487d4"><path d="M 118 57 L 119 57 L 119 59.085938 L 118 59.085938 Z M 118 57 " clip-rule="nonzero"/></clipPath><clipPath id="8bae2bbb42"><path d="M 87.5625 53.691406 L 94.921875 53.691406 L 94.921875 59.082031 L 87.5625 59.082031 Z M 87.5625 53.691406 " clip-rule="nonzero"/></clipPath><clipPath id="4a6abae082"><path d="M 89.132812 57.160156 L 89.613281 57.160156 L 89.613281 59.082031 L 89.132812 59.082031 Z M 89.132812 57.160156 " clip-rule="nonzero"/></clipPath><clipPath id="954770844e"><path d="M 90 57 L 92 57 L 92 59.085938 L 90 59.085938 Z M 90 57 " clip-rule="nonzero"/></clipPath></defs><path fill="#0088f7" d="M 28.019531 82.84375 L 22.886719 79.003906 L 44.839844 49.429688 L 49.972656 53.269531 L 28.019531 82.84375 " fill-opacity="1" fill-rule="nonzero"/><path stroke-linecap="round" transform="matrix(-0.0347746, 0, 0, -0.0349053, 125.160551, 123.714312)" fill="none" stroke-linejoin="round" d="M 2793.447052 1170.899529 L 2941.049373 1280.907099 L 2309.751776 2128.178015 L 2162.149456 2018.170445 Z M 2793.447052 1170.899529 " stroke="#4e0d15" stroke-width="50" stroke-opacity="1" stroke-miterlimit="10"/><path fill="#0088f7" d="M 48.546875 49.804688 C 56.882812 56.039062 68.675781 54.3125 74.890625 45.941406 C 81.101562 37.574219 79.375 25.738281 71.039062 19.503906 C 62.703125 13.269531 50.910156 15 44.699219 23.367188 C 38.488281 31.734375 40.214844 43.574219 48.546875 49.804688 Z M 74.511719 14.828125 C 85.421875 22.984375 87.675781 38.476562 79.550781 49.429688 C 71.417969 60.378906 55.988281 62.644531 45.078125 54.484375 C 34.167969 46.324219 31.914062 30.835938 40.039062 19.886719 C 48.167969 8.933594 63.601562 6.667969 74.511719 14.828125 " fill-opacity="1" fill-rule="nonzero"/><path stroke-linecap="round" transform="matrix(-0.0347746, 0, 0, -0.0349053, 125.160551, 123.714312)" fill="none" stroke-linejoin="round" d="M 2203.150101 2117.434651 C 1963.436743 1938.826226 1624.310863 1988.290464 1445.592985 2228.113681 C 1266.987437 2467.824987 1316.637533 2806.91241 1556.350891 2985.520834 C 1796.064248 3164.129259 2135.190128 3114.553111 2313.795676 2874.841804 C 2492.401223 2635.130498 2442.751128 2295.931165 2203.150101 2117.434651 Z M 1456.489047 3119.477153 C 1142.749867 2885.808988 1077.93515 2441.973768 1311.582659 2128.178015 C 1545.454829 1814.494172 1989.160435 1749.586348 2302.899614 1983.366422 C 2616.638793 2217.146497 2681.453511 2660.869807 2447.806002 2974.553651 C 2214.046162 3288.349404 1770.228226 3353.145317 1456.489047 3119.477153 Z M 1456.489047 3119.477153 " stroke="#4e0d15" stroke-width="50" stroke-opacity="1" stroke-miterlimit="10"/><path fill="#ff9700" d="M 44.867188 66.34375 C 44.585938 66.71875 44.066406 66.792969 43.699219 66.519531 L 33.984375 59.257812 C 33.617188 58.980469 33.539062 58.457031 33.816406 58.085938 L 34.980469 56.515625 C 35.253906 56.144531 35.78125 56.066406 36.148438 56.34375 L 45.855469 63.605469 C 46.230469 63.882812 46.300781 64.40625 46.027344 64.777344 L 44.867188 66.34375 " fill-opacity="1" fill-rule="nonzero"/><path stroke-linecap="round" transform="matrix(-0.0347746, 0, 0, -0.0349053, 125.160551, 123.714312)" fill="none" stroke-linejoin="round" d="M 2308.965463 1643.60754 C 2317.053261 1632.864176 2331.993222 1630.737885 2342.552292 1638.571588 L 2621.918328 1846.612353 C 2632.477398 1854.557966 2634.724009 1869.553911 2626.748541 1880.185365 L 2593.274042 1925.173201 C 2585.410905 1935.804655 2570.246283 1938.042856 2559.687213 1930.097243 L 2280.545838 1722.056478 C 2269.762107 1714.110865 2267.740157 1699.11492 2275.603294 1688.483466 Z M 2308.965463 1643.60754 " stroke="#4e0d15" stroke-width="50" stroke-opacity="1" stroke-miterlimit="10"/><path fill="#ff9700" d="M 27.175781 87.957031 C 26.257812 89.195312 24.511719 89.453125 23.28125 88.53125 L 19.148438 85.441406 C 17.917969 84.519531 17.664062 82.769531 18.582031 81.53125 L 34.132812 60.585938 C 35.050781 59.34375 36.792969 59.089844 38.027344 60.011719 L 42.152344 63.101562 C 43.386719 64.023438 43.640625 65.773438 42.722656 67.011719 L 27.175781 87.957031 " fill-opacity="1" fill-rule="nonzero"/><path stroke-linecap="round" transform="matrix(-0.0347746, 0, 0, -0.0349053, 125.160551, 123.714312)" fill="none" stroke-linejoin="round" d="M 2817.710447 1024.409286 C 2844.108123 988.933803 2894.319871 981.547741 2929.703989 1007.95851 L 3048.549693 1096.479352 C 3083.933811 1122.890122 3091.235296 1173.02582 3064.83762 1208.501303 L 2617.649768 1808.562939 C 2591.252093 1844.150332 2541.152675 1851.424485 2505.656226 1825.013715 L 2387.035183 1736.492873 C 2351.538735 1710.082104 2344.23725 1659.946406 2370.634925 1624.470923 Z M 2817.710447 1024.409286 " stroke="#4e0d15" stroke-width="50" stroke-opacity="1" stroke-miterlimit="10"/><path fill="#ff9700" d="M 45.03125 66.46875 C 44.757812 66.84375 44.234375 66.921875 43.863281 66.644531 L 34.15625 59.378906 C 33.785156 59.105469 33.707031 58.582031 33.980469 58.207031 L 35.144531 56.640625 C 35.425781 56.269531 35.945312 56.195312 36.316406 56.46875 L 46.027344 63.730469 C 46.394531 64.003906 46.472656 64.53125 46.199219 64.902344 L 45.03125 66.46875 " fill-opacity="1" fill-rule="nonzero"/><path stroke-linecap="round" transform="matrix(-0.0347746, 0, 0, -0.0349053, 125.160551, 123.714312)" fill="none" stroke-linejoin="round" d="M 2304.24758 1640.026418 C 2312.110718 1629.283055 2327.163009 1627.044854 2337.83441 1634.990467 L 2616.975785 1843.143142 C 2627.647185 1850.976845 2629.893796 1865.97279 2622.030659 1876.716154 L 2588.55616 1921.59208 C 2580.468361 1932.223534 2565.528401 1934.349825 2554.857 1926.516122 L 2275.603294 1718.475357 C 2265.044224 1710.641654 2262.797614 1695.533799 2270.660751 1684.902345 Z M 2304.24758 1640.026418 " stroke="#4e0d15" stroke-width="50" stroke-opacity="1" stroke-miterlimit="10"/><path fill="#f8010e" d="M 44.433594 31.355469 C 44.433594 26.679688 48.210938 22.886719 52.871094 22.886719 C 55.738281 22.886719 58.269531 24.328125 59.792969 26.523438 C 61.316406 24.328125 63.851562 22.886719 66.71875 22.886719 C 71.378906 22.886719 75.15625 26.679688 75.15625 31.355469 C 75.15625 31.476562 75.140625 31.84375 75.132812 31.90625 C 75.09375 32.496094 75 33.070312 74.84375 33.621094 C 72.597656 43.144531 59.285156 50.511719 59.792969 50.1875 C 59.792969 50.1875 46.992188 43.144531 44.746094 33.621094 C 44.589844 33.070312 44.492188 32.496094 44.457031 31.90625 C 44.449219 31.84375 44.433594 31.476562 44.433594 31.355469 " fill-opacity="1" fill-rule="nonzero"/><path stroke-linecap="round" transform="matrix(-0.0347746, 0, 0, -0.0349053, 125.160551, 123.714312)" fill="none" stroke-linejoin="round" d="M 2321.434152 2645.985772 C 2321.434152 2779.94209 2212.810526 2888.606739 2078.8002 2888.606739 C 1996.349589 2888.606739 1923.559403 2847.311935 1879.750496 2784.418492 C 1835.941588 2847.311935 1763.039072 2888.606739 1680.58846 2888.606739 C 1546.578134 2888.606739 1437.954509 2779.94209 1437.954509 2645.985772 C 1437.954509 2642.516561 1438.403831 2631.997017 1438.628492 2630.206456 C 1439.751797 2613.30804 1442.44773 2596.857264 1446.940951 2581.077948 C 1511.531008 2308.24127 1894.353465 2097.178934 1879.750496 2106.467467 C 1879.750496 2106.467467 2247.857653 2308.24127 2312.447709 2581.077948 C 2316.940931 2596.857264 2319.749194 2613.30804 2320.760169 2630.206456 C 2320.98483 2631.997017 2321.434152 2642.516561 2321.434152 2645.985772 Z M 2321.434152 2645.985772 " stroke="#4e0d15" stroke-width="50" stroke-opacity="1" stroke-miterlimit="10"/><g clip-path="url(#cb32a56e3c)"><path stroke-linecap="round" transform="matrix(-0.0347746, 0, 0, -0.0349053, 125.160551, 123.714312)" fill="none" stroke-linejoin="miter" d="M 2224.268241 2628.975446 C 2224.268241 2733.387513 2139.571019 2818.215324 2035.103623 2818.215324 " stroke="#ffffff" stroke-width="50" stroke-opacity="1" stroke-miterlimit="10"/></g><g clip-path="url(#089c28aef0)"><path fill="#0088f7" d="M 126.625 89.527344 L 84.21875 89.527344 C 82.921875 89.527344 81.855469 88.453125 81.855469 87.152344 L 81.855469 60.527344 C 81.855469 59.226562 82.921875 58.152344 84.21875 58.152344 L 126.59375 58.152344 C 127.886719 58.152344 128.957031 59.226562 128.957031 60.527344 L 128.957031 87.121094 C 128.988281 88.453125 127.921875 89.527344 126.625 89.527344 " fill-opacity="1" fill-rule="nonzero"/></g><g clip-path="url(#52c66a6292)"><path fill="#486cbd" d="M 126.625 58.871094 C 127.53125 58.871094 128.277344 59.617188 128.277344 60.527344 L 128.277344 87.152344 C 128.277344 88.0625 127.53125 88.8125 126.625 88.8125 L 84.21875 88.8125 C 83.3125 88.8125 82.566406 88.0625 82.566406 87.152344 L 82.566406 60.527344 C 82.566406 59.617188 83.3125 58.871094 84.21875 58.871094 L 126.625 58.871094 M 126.625 57.339844 L 84.21875 57.339844 C 82.46875 57.339844 81.046875 58.773438 81.046875 60.527344 L 81.046875 87.152344 C 81.046875 88.910156 82.46875 90.339844 84.21875 90.339844 L 126.625 90.339844 C 128.375 90.339844 129.796875 88.910156 129.796875 87.152344 L 129.796875 60.527344 C 129.796875 58.773438 128.375 57.339844 126.625 57.339844 " fill-opacity="1" fill-rule="nonzero"/></g><path fill="#ff9700" d="M 107.578125 47.175781 C 107.578125 47.175781 104.441406 10.90625 116.742188 11.121094 C 129.042969 11.332031 113.1875 47.710938 113.1875 47.710938 L 107.578125 47.175781 " fill-opacity="1" fill-rule="nonzero"/><path fill="#0088f7" d="M 108.773438 47.289062 C 108.617188 44.886719 108.386719 39.957031 108.605469 34.554688 C 108.800781 29.765625 109.304688 25.707031 110.109375 22.492188 C 110.886719 19.359375 111.933594 17.082031 113.207031 15.726562 C 114.152344 14.722656 115.167969 14.265625 116.398438 14.289062 C 116.507812 14.289062 116.617188 14.296875 116.722656 14.304688 C 117.621094 14.390625 118.21875 14.761719 118.664062 15.507812 C 119.082031 16.207031 119.347656 17.214844 119.445312 18.5 C 119.546875 19.785156 119.484375 21.339844 119.257812 23.125 C 118.863281 26.21875 117.980469 30.003906 116.636719 34.382812 C 114.867188 40.136719 112.734375 45.445312 111.84375 47.582031 L 108.773438 47.289062 " fill-opacity="1" fill-rule="nonzero"/><path fill="#ff9700" d="M 103.792969 46.511719 C 103.792969 46.511719 105.640625 9.589844 93.351562 10.164062 C 81.066406 10.742188 98.203125 47.210938 98.203125 47.210938 L 103.792969 46.511719 " fill-opacity="1" fill-rule="nonzero"/><path fill="#0088f7" d="M 102.601562 46.660156 C 102.683594 44.253906 102.769531 39.320312 102.386719 33.925781 C 102.046875 29.144531 101.324219 24.363281 100.425781 21.171875 C 99.550781 18.0625 98.4375 15.820312 97.121094 14.503906 C 96.148438 13.527344 95.121094 13.101562 93.890625 13.160156 C 93.777344 13.164062 93.671875 13.171875 93.566406 13.1875 C 92.671875 13.296875 92.082031 13.6875 91.660156 14.445312 C 91.265625 15.160156 91.03125 16.171875 90.96875 17.460938 C 90.90625 18.746094 91.019531 20.300781 91.300781 22.074219 C 91.785156 25.15625 92.878906 29.65625 94.355469 33.992188 C 96.296875 39.691406 98.589844 44.933594 99.539062 47.042969 L 102.601562 46.660156 " fill-opacity="1" fill-rule="nonzero"/><path fill="#ff9700" d="M 119.386719 54.144531 C 119.347656 53.144531 119.035156 52.144531 118.789062 51.511719 C 118.71875 51.308594 118.625 51.082031 118.5 50.832031 L 118.496094 50.832031 C 118.226562 50.300781 117.816406 49.683594 117.179688 49.058594 C 115.21875 46.917969 112.710938 45.929688 110.59375 45.484375 C 105.328125 44.054688 100.921875 45.484375 100.921875 45.484375 C 97.703125 46.164062 96.082031 47.632812 95.390625 48.316406 C 94.949219 48.734375 94.277344 49.425781 93.6875 50.289062 C 93.675781 50.300781 93.667969 50.3125 93.660156 50.324219 C 93.652344 50.335938 93.644531 50.351562 93.636719 50.363281 C 93.464844 50.621094 93.296875 50.894531 93.148438 51.1875 C 92.371094 52.691406 91.914062 54.691406 92.328125 57.308594 C 96.164062 57.816406 100.996094 58.117188 106.246094 58.117188 C 111.101562 58.117188 115.597656 57.859375 119.28125 57.417969 C 119.488281 56.199219 119.503906 55.109375 119.386719 54.144531 " fill-opacity="1" fill-rule="nonzero"/><path fill="#333333" d="M 102.710938 51.566406 C 102.710938 52.65625 102.050781 53.535156 101.242188 53.535156 C 100.433594 53.53125 99.78125 52.648438 99.785156 51.5625 C 99.785156 50.472656 100.445312 49.59375 101.253906 49.59375 C 102.0625 49.597656 102.714844 50.480469 102.710938 51.566406 " fill-opacity="1" fill-rule="nonzero"/><path fill="#fdfeff" d="M 101.644531 50.152344 C 101.386719 50.148438 101.167969 50.359375 101.078125 50.65625 C 101.507812 50.691406 101.851562 51.15625 101.875 51.734375 C 102.097656 51.613281 102.253906 51.320312 102.253906 50.976562 C 102.253906 50.519531 101.980469 50.152344 101.644531 50.152344 " fill-opacity="1" fill-rule="nonzero"/><path fill="#333333" d="M 113.109375 51.59375 C 113.105469 52.683594 112.449219 53.5625 111.640625 53.558594 C 110.832031 53.558594 110.175781 52.675781 110.179688 51.585938 C 110.183594 50.5 110.839844 49.617188 111.648438 49.621094 C 112.457031 49.621094 113.113281 50.507812 113.109375 51.59375 " fill-opacity="1" fill-rule="nonzero"/><path fill="#fdfeff" d="M 112.089844 50.175781 C 111.835938 50.175781 111.617188 50.386719 111.523438 50.683594 C 111.957031 50.71875 112.300781 51.183594 112.320312 51.761719 C 112.542969 51.640625 112.699219 51.34375 112.703125 51.003906 C 112.703125 50.546875 112.429688 50.179688 112.089844 50.175781 " fill-opacity="1" fill-rule="nonzero"/><path fill="#333333" d="M 107.773438 56.75 C 107.765625 56.3125 107.398438 55.960938 106.957031 55.96875 C 106.589844 55.976562 105.984375 55.984375 105.617188 55.996094 C 105.179688 56.007812 104.832031 56.375 104.839844 56.808594 C 104.847656 57.050781 104.871094 57.375 105.789062 58.117188 C 105.941406 58.117188 106.09375 58.117188 106.246094 58.117188 C 106.449219 58.117188 106.652344 58.117188 106.855469 58.117188 C 107.765625 57.324219 107.777344 56.992188 107.773438 56.75 " fill-opacity="1" fill-rule="nonzero"/><g clip-path="url(#7a7fa68725)"><path fill="#ff9700" d="M 120.617188 53.777344 C 120.210938 53.777344 119.824219 53.929688 119.523438 54.199219 C 118.335938 55.273438 115.464844 58.085938 117.167969 58.773438 C 119.285156 59.628906 123.066406 58.324219 123.53125 57.796875 C 123.929688 57.34375 124.789062 57.105469 121.746094 54.222656 C 121.445312 53.9375 121.046875 53.777344 120.628906 53.777344 L 120.617188 53.777344 " fill-opacity="1" fill-rule="nonzero"/></g><g clip-path="url(#979d6487d4)"><path fill="#333333" d="M 118.664062 59.03125 C 118.566406 59.011719 118.632812 57.332031 118.632812 57.332031 C 118.632812 57.332031 118.757812 56.886719 118.488281 57.332031 C 118.21875 57.777344 118.328125 59.03125 118.328125 59.03125 C 118.445312 59.042969 118.566406 59.050781 118.691406 59.054688 C 118.6875 59.046875 118.679688 59.039062 118.664062 59.03125 " fill-opacity="1" fill-rule="nonzero"/></g><path fill="#333333" d="M 119.96875 57.289062 C 119.746094 57.730469 119.917969 58.878906 119.933594 58.984375 C 120.039062 58.972656 120.144531 58.957031 120.25 58.941406 C 120.164062 58.722656 120.113281 57.277344 120.113281 57.277344 C 120.113281 57.277344 120.207031 56.824219 119.96875 57.289062 " fill-opacity="1" fill-rule="nonzero"/><path fill="#333333" d="M 121.40625 56.988281 C 121.183594 57.453125 121.417969 58.683594 121.417969 58.695312 C 121.523438 58.667969 121.625 58.636719 121.722656 58.609375 C 121.632812 58.328125 121.550781 56.972656 121.550781 56.972656 C 121.550781 56.972656 121.628906 56.515625 121.40625 56.988281 " fill-opacity="1" fill-rule="nonzero"/><g clip-path="url(#8bae2bbb42)"><path fill="#ff9700" d="M 91.539062 53.804688 C 91.132812 53.804688 90.746094 53.953125 90.445312 54.222656 C 89.257812 55.300781 86.386719 58.109375 88.089844 58.800781 C 90.207031 59.65625 93.988281 58.351562 94.453125 57.824219 C 94.851562 57.371094 95.710938 57.132812 92.671875 54.25 C 92.371094 53.960938 91.96875 53.804688 91.550781 53.804688 L 91.539062 53.804688 " fill-opacity="1" fill-rule="nonzero"/></g><g clip-path="url(#4a6abae082)"><path fill="#333333" d="M 89.585938 59.058594 C 89.488281 59.035156 89.554688 57.359375 89.554688 57.359375 C 89.554688 57.359375 89.683594 56.914062 89.410156 57.359375 C 89.140625 57.804688 89.25 59.058594 89.25 59.058594 C 89.371094 59.070312 89.488281 59.078125 89.613281 59.082031 C 89.613281 59.070312 89.601562 59.0625 89.585938 59.058594 " fill-opacity="1" fill-rule="nonzero"/></g><g clip-path="url(#954770844e)"><path fill="#333333" d="M 90.890625 57.3125 C 90.667969 57.757812 90.839844 58.90625 90.855469 59.011719 C 90.960938 59 91.066406 58.984375 91.171875 58.96875 C 91.085938 58.746094 91.035156 57.304688 91.035156 57.304688 C 91.035156 57.304688 91.128906 56.847656 90.890625 57.3125 " fill-opacity="1" fill-rule="nonzero"/></g><path fill="#333333" d="M 92.328125 57.011719 C 92.105469 57.480469 92.339844 58.710938 92.339844 58.71875 C 92.445312 58.691406 92.546875 58.664062 92.644531 58.636719 C 92.554688 58.351562 92.472656 56.996094 92.472656 56.996094 C 92.472656 56.996094 92.550781 56.542969 92.328125 57.011719 " fill-opacity="1" fill-rule="nonzero"/></svg>