<svg xmlns="http://www.w3.org/2000/svg" xmlns:xlink="http://www.w3.org/1999/xlink" width="200" zoomAndPan="magnify" viewBox="0 0 150 112.499997" height="150" preserveAspectRatio="xMidYMid meet" version="1.0"><defs><clipPath id="6a29edf048"><path d="M 26.253906 11.199219 L 123.96875 11.199219 L 123.96875 100.796875 L 26.253906 100.796875 Z M 26.253906 11.199219 " clip-rule="nonzero"/></clipPath><clipPath id="ad8815c6ff"><path d="M 26.253906 11.199219 L 123.96875 11.199219 L 123.96875 100.796875 L 26.253906 100.796875 Z M 26.253906 11.199219 " clip-rule="nonzero"/></clipPath></defs><g clip-path="url(#6a29edf048)"><path fill="#737373" d="M 121.265625 34.058594 L 121.222656 33.960938 C 120.761719 32.808594 120.28125 31.617188 120.417969 30.457031 C 120.519531 29.574219 120.964844 28.765625 121.433594 27.910156 C 121.53125 27.726562 121.632812 27.546875 121.726562 27.363281 C 122.226562 26.414062 122.847656 24.992188 122.449219 23.605469 C 122.226562 22.816406 121.5625 22.121094 120.765625 21.835938 C 120.117188 21.601562 119.472656 21.667969 118.953125 22.019531 C 118.121094 22.589844 117.96875 23.574219 117.839844 24.441406 C 117.742188 25.089844 117.648438 25.707031 117.308594 26.121094 C 117.023438 26.46875 116.558594 26.671875 116.066406 26.886719 C 115.71875 27.035156 115.359375 27.191406 115.027344 27.414062 C 113.242188 28.613281 113.0625 31.121094 113.675781 33.078125 C 113.933594 33.914062 114.308594 34.710938 114.671875 35.484375 C 115.113281 36.421875 115.53125 37.3125 115.757812 38.265625 C 116.605469 41.8125 114.15625 45.871094 110.617188 46.777344 C 108.386719 47.351562 105.953125 46.828125 103.589844 46.328125 C 100.695312 45.710938 97.699219 45.070312 94.992188 46.40625 C 91 48.378906 90.117188 53.511719 89.945312 56.394531 C 89.933594 56.628906 89.921875 56.859375 89.910156 57.09375 C 89.835938 58.554688 89.761719 60.066406 89.140625 61.339844 C 88.488281 62.6875 86.871094 63.789062 85.5 63.277344 C 84.226562 62.808594 83.6875 61.222656 83.480469 60.320312 C 82.496094 56.0625 84.0625 51.566406 85.324219 48.558594 C 85.746094 47.558594 86.203125 46.546875 86.644531 45.570312 C 87.898438 42.808594 89.195312 39.953125 89.828125 36.921875 C 91.425781 29.253906 88.359375 20.84375 82.195312 15.988281 C 78.554688 13.125 73.910156 11.480469 68.769531 11.230469 C 64.011719 11.003906 58.949219 12.011719 54.515625 14.074219 C 49.539062 16.390625 44.90625 19.941406 40.488281 24.839844 C 38.894531 26.417969 37.476562 28.1875 36.214844 30.085938 C 35.980469 30.40625 35.742188 30.730469 35.503906 31.058594 C 34.570312 30.207031 33.636719 29.351562 32.703125 28.496094 C 30.960938 26.90625 29.800781 27.0625 29.140625 27.472656 C 28.304688 27.988281 28.101562 29.042969 27.992188 29.613281 C 26.707031 36.402344 26.761719 43.574219 28.148438 50.363281 C 25.792969 55.246094 25.621094 62.351562 27.699219 69.40625 C 29.980469 77.144531 33.558594 82.828125 38.953125 87.296875 C 49.109375 95.710938 61.976562 100.5 75.171875 100.78125 C 75.554688 100.789062 75.929688 100.796875 76.304688 100.796875 C 80.515625 100.796875 84.0625 100.257812 87.117188 99.152344 C 93.632812 96.800781 99.273438 91.1875 102.203125 84.136719 C 104.800781 77.878906 105.445312 70.480469 104.058594 62.75 C 103.800781 61.316406 103.648438 59.589844 104.726562 58.953125 C 105.195312 58.679688 105.824219 58.675781 106.425781 58.699219 C 107.09375 58.722656 107.785156 58.765625 108.453125 58.808594 C 111.058594 58.972656 113.75 59.144531 116.257812 58.242188 C 120.9375 56.566406 123.460938 51.570312 123.882812 47.363281 C 124.367188 42.535156 122.738281 37.714844 121.265625 34.058594 " fill-opacity="1" fill-rule="nonzero"/></g><path fill="#b4b4b4" d="M 56.355469 27.1875 C 58.226562 23.953125 58.402344 20.558594 56.75 19.605469 C 55.09375 18.652344 52.234375 20.503906 50.363281 23.738281 C 48.492188 26.972656 48.316406 30.367188 49.972656 31.320312 C 51.625 32.273438 54.484375 30.421875 56.355469 27.1875 Z M 58.183594 36.441406 C 58.277344 36.023438 57.625 36.089844 57.46875 36.324219 C 56.515625 37.742188 55.28125 40.015625 53.363281 38.359375 C 52.136719 37.300781 51.742188 35.476562 52.285156 33.972656 C 52.425781 33.574219 51.78125 33.453125 51.625 33.78125 C 50.683594 35.761719 51.199219 38.386719 53.164062 39.566406 C 55.570312 41.007812 57.6875 38.652344 58.183594 36.441406 Z M 70.871094 33.566406 C 73.074219 29.765625 73.28125 25.777344 71.335938 24.660156 C 69.390625 23.539062 66.03125 25.710938 63.832031 29.511719 C 61.632812 33.3125 61.425781 37.300781 63.371094 38.417969 C 65.3125 39.539062 68.671875 37.367188 70.871094 33.566406 Z M 74.75 53.945312 C 75.023438 54.359375 75.835938 54.050781 75.621094 53.550781 C 74.328125 50.515625 72.277344 47.777344 70.132812 45.292969 C 68.515625 43.414062 66.292969 40.507812 63.433594 41.261719 C 60.285156 42.09375 60.828125 45.914062 61.214844 48.3125 C 61.5 50.078125 61.78125 51.847656 62.085938 53.613281 C 62.371094 55.296875 62.457031 57.34375 63.1875 58.894531 C 63.277344 59.082031 63.671875 59.0625 63.699219 58.835938 C 63.867188 57.449219 63.472656 55.902344 63.269531 54.523438 C 63.058594 53.0625 62.839844 51.601562 62.613281 50.140625 C 62.382812 48.664062 62.039062 47.152344 61.964844 45.65625 C 61.890625 44.238281 62.316406 42.144531 64.089844 42.039062 C 65.480469 41.957031 66.605469 43.070312 67.488281 44 C 68.4375 45.003906 69.332031 46.058594 70.175781 47.148438 C 71.863281 49.3125 73.242188 51.660156 74.75 53.945312 Z M 98.777344 78.9375 C 98.832031 78.472656 98.082031 78.515625 97.976562 78.902344 C 96.425781 84.660156 93.0625 89.898438 87.867188 93.003906 C 82.1875 96.398438 75.125 96.757812 68.980469 94.457031 C 68.675781 94.34375 68.238281 94.800781 68.617188 94.972656 C 78.308594 99.363281 90.191406 95.6875 95.863281 86.753906 C 97.375 84.371094 98.433594 81.75 98.777344 78.9375 Z M 120.363281 34.421875 C 121.796875 37.972656 123.382812 42.648438 122.917969 47.269531 C 122.523438 51.171875 120.210938 55.796875 115.929688 57.335938 C 113.609375 58.167969 111.019531 58 108.515625 57.84375 C 107.839844 57.800781 107.144531 57.757812 106.460938 57.730469 C 105.746094 57.703125 104.929688 57.710938 104.234375 58.117188 C 102.636719 59.0625 102.789062 61.179688 103.101562 62.921875 C 104.457031 70.46875 103.835938 77.675781 101.304688 83.765625 C 98.480469 90.566406 93.050781 95.980469 86.785156 98.242188 C 83.578125 99.402344 79.785156 99.914062 75.191406 99.816406 C 62.214844 99.539062 49.566406 94.828125 39.574219 86.550781 C 34.332031 82.210938 30.855469 76.675781 28.632812 69.132812 C 26.597656 62.234375 26.769531 55.316406 29.09375 50.640625 C 29.140625 50.542969 29.15625 50.433594 29.132812 50.328125 C 27.738281 43.613281 27.675781 36.511719 28.945312 29.792969 C 29.058594 29.210938 29.214844 28.5625 29.648438 28.292969 C 29.796875 28.203125 29.960938 28.164062 30.128906 28.164062 C 30.75 28.164062 31.484375 28.699219 32.046875 29.210938 C 33.046875 30.125 34.050781 31.042969 35.050781 31.957031 C 32.941406 35.554688 31.371094 39.503906 30.285156 43.394531 C 30.1875 43.742188 30.820312 43.75 30.917969 43.445312 C 32.035156 40.085938 33.476562 36.824219 35.207031 33.734375 C 36.0625 32.210938 37.011719 30.757812 38 29.332031 C 43.296875 22.496094 48.855469 17.777344 54.925781 14.953125 C 59.21875 12.953125 64.121094 11.976562 68.722656 12.199219 C 73.664062 12.4375 78.113281 14.011719 81.59375 16.75 C 87.476562 21.382812 90.402344 29.410156 88.878906 36.722656 C 88.269531 39.652344 86.992188 42.457031 85.761719 45.167969 C 85.316406 46.15625 84.851562 47.171875 84.425781 48.183594 C 83.113281 51.316406 81.484375 56.007812 82.535156 60.539062 C 82.96875 62.421875 83.902344 63.71875 85.164062 64.1875 C 87.085938 64.902344 89.179688 63.484375 90.015625 61.761719 C 90.71875 60.308594 90.800781 58.699219 90.878906 57.140625 C 90.890625 56.910156 90.902344 56.683594 90.914062 56.453125 C 91.074219 53.777344 91.867188 49.03125 95.421875 47.277344 C 97.824219 46.085938 100.527344 46.664062 103.390625 47.273438 C 105.859375 47.800781 108.410156 48.34375 110.855469 47.714844 C 114.949219 46.664062 117.683594 42.144531 116.703125 38.042969 C 116.453125 36.992188 115.996094 36.015625 115.550781 35.074219 C 115.1875 34.296875 114.84375 33.566406 114.601562 32.789062 C 114.113281 31.226562 114.207031 29.132812 115.566406 28.21875 C 115.828125 28.042969 116.132812 27.914062 116.457031 27.773438 C 117.03125 27.523438 117.625 27.265625 118.0625 26.730469 C 118.566406 26.109375 118.691406 25.300781 118.796875 24.585938 C 118.914062 23.816406 119.015625 23.152344 119.503906 22.820312 C 119.828125 22.597656 120.191406 22.65625 120.4375 22.746094 C 120.941406 22.929688 121.375 23.378906 121.519531 23.871094 C 121.816406 24.921875 121.292969 26.109375 120.867188 26.914062 C 120.777344 27.089844 120.675781 27.265625 120.578125 27.445312 C 120.085938 28.34375 119.578125 29.277344 119.453125 30.34375 C 119.289062 31.746094 119.816406 33.054688 120.324219 34.320312 L 120.363281 34.421875 " fill-opacity="1" fill-rule="nonzero"/><g clip-path="url(#ad8815c6ff)"><path fill="#737373" d="M 50.363281 23.738281 C 48.492188 26.972656 48.316406 30.367188 49.972656 31.320312 C 51.625 32.273438 54.484375 30.421875 56.355469 27.1875 C 58.226562 23.953125 58.402344 20.558594 56.75 19.605469 C 55.09375 18.652344 52.234375 20.503906 50.363281 23.738281 Z M 53.363281 38.359375 C 52.136719 37.300781 51.742188 35.476562 52.285156 33.972656 C 52.425781 33.574219 51.78125 33.453125 51.625 33.78125 C 50.683594 35.761719 51.199219 38.386719 53.164062 39.566406 C 55.570312 41.007812 57.6875 38.652344 58.183594 36.441406 C 58.277344 36.023438 57.625 36.089844 57.46875 36.324219 C 56.515625 37.742188 55.28125 40.015625 53.363281 38.359375 Z M 63.832031 29.511719 C 61.632812 33.3125 61.425781 37.300781 63.371094 38.417969 C 65.3125 39.539062 68.671875 37.367188 70.871094 33.566406 C 73.074219 29.765625 73.28125 25.777344 71.335938 24.660156 C 69.390625 23.539062 66.03125 25.710938 63.832031 29.511719 Z M 70.132812 45.292969 C 68.515625 43.414062 66.292969 40.507812 63.433594 41.261719 C 60.285156 42.09375 60.828125 45.914062 61.214844 48.3125 C 61.5 50.078125 61.78125 51.847656 62.085938 53.613281 C 62.371094 55.296875 62.457031 57.34375 63.1875 58.894531 C 63.277344 59.082031 63.671875 59.0625 63.699219 58.835938 C 63.867188 57.449219 63.472656 55.902344 63.269531 54.523438 C 63.058594 53.0625 62.839844 51.601562 62.613281 50.140625 C 62.382812 48.664062 62.039062 47.152344 61.964844 45.65625 C 61.890625 44.238281 62.316406 42.144531 64.089844 42.039062 C 65.480469 41.957031 66.605469 43.070312 67.488281 44 C 68.4375 45.003906 69.332031 46.058594 70.175781 47.148438 C 71.863281 49.3125 73.242188 51.660156 74.75 53.945312 C 75.023438 54.359375 75.835938 54.050781 75.621094 53.550781 C 74.328125 50.515625 72.277344 47.777344 70.132812 45.292969 Z M 87.867188 93.003906 C 82.1875 96.398438 75.125 96.757812 68.980469 94.457031 C 68.675781 94.34375 68.238281 94.800781 68.617188 94.972656 C 78.308594 99.363281 90.191406 95.6875 95.863281 86.753906 C 97.375 84.371094 98.433594 81.75 98.777344 78.9375 C 98.832031 78.472656 98.082031 78.515625 97.976562 78.902344 C 96.425781 84.660156 93.0625 89.898438 87.867188 93.003906 Z M 122.917969 47.269531 C 123.382812 42.648438 121.796875 37.972656 120.363281 34.421875 L 120.324219 34.320312 C 119.816406 33.054688 119.289062 31.746094 119.453125 30.34375 C 119.578125 29.277344 120.085938 28.34375 120.578125 27.445312 C 120.675781 27.265625 120.777344 27.089844 120.867188 26.914062 C 121.292969 26.109375 121.816406 24.921875 121.519531 23.871094 C 121.375 23.378906 120.941406 22.929688 120.4375 22.746094 C 120.191406 22.65625 119.828125 22.597656 119.503906 22.820312 C 119.015625 23.152344 118.914062 23.816406 118.796875 24.585938 C 118.691406 25.300781 118.566406 26.109375 118.0625 26.730469 C 117.625 27.265625 117.03125 27.523438 116.457031 27.773438 C 116.132812 27.914062 115.828125 28.042969 115.566406 28.21875 C 114.207031 29.132812 114.113281 31.226562 114.601562 32.789062 C 114.84375 33.566406 115.1875 34.296875 115.550781 35.074219 C 115.996094 36.015625 116.453125 36.992188 116.703125 38.042969 C 117.683594 42.144531 114.949219 46.664062 110.855469 47.714844 C 108.410156 48.34375 105.859375 47.800781 103.390625 47.273438 C 100.527344 46.664062 97.824219 46.085938 95.421875 47.277344 C 91.867188 49.03125 91.074219 53.777344 90.914062 56.453125 C 90.902344 56.683594 90.890625 56.910156 90.878906 57.140625 C 90.800781 58.699219 90.71875 60.308594 90.015625 61.761719 C 89.179688 63.484375 87.085938 64.902344 85.164062 64.1875 C 83.902344 63.71875 82.96875 62.421875 82.535156 60.539062 C 81.484375 56.007812 83.113281 51.316406 84.425781 48.183594 C 84.851562 47.171875 85.316406 46.15625 85.761719 45.167969 C 86.992188 42.457031 88.269531 39.652344 88.878906 36.722656 C 90.402344 29.410156 87.476562 21.382812 81.59375 16.75 C 78.113281 14.011719 73.664062 12.4375 68.722656 12.199219 C 64.121094 11.976562 59.21875 12.953125 54.925781 14.953125 C 48.855469 17.777344 43.296875 22.496094 38 29.332031 C 37.011719 30.757812 36.0625 32.210938 35.207031 33.734375 C 33.476562 36.824219 32.035156 40.085938 30.917969 43.445312 C 30.820312 43.75 30.1875 43.742188 30.285156 43.394531 C 31.371094 39.503906 32.941406 35.554688 35.050781 31.957031 C 34.050781 31.042969 33.046875 30.125 32.046875 29.210938 C 31.484375 28.699219 30.75 28.164062 30.128906 28.164062 C 29.960938 28.164062 29.796875 28.203125 29.648438 28.292969 C 29.214844 28.5625 29.058594 29.210938 28.945312 29.792969 C 27.675781 36.511719 27.738281 43.613281 29.132812 50.328125 C 29.15625 50.433594 29.140625 50.542969 29.09375 50.640625 C 26.769531 55.316406 26.597656 62.234375 28.632812 69.132812 C 30.855469 76.675781 34.332031 82.210938 39.574219 86.550781 C 49.566406 94.828125 62.214844 99.539062 75.191406 99.816406 C 79.785156 99.914062 83.578125 99.402344 86.785156 98.242188 C 93.050781 95.980469 98.480469 90.566406 101.304688 83.765625 C 103.835938 77.675781 104.457031 70.46875 103.101562 62.921875 C 102.789062 61.179688 102.636719 59.0625 104.234375 58.117188 C 104.929688 57.710938 105.746094 57.703125 106.460938 57.730469 C 107.144531 57.757812 107.839844 57.800781 108.515625 57.84375 C 111.019531 58 113.609375 58.167969 115.929688 57.335938 C 120.210938 55.796875 122.523438 51.171875 122.917969 47.269531 Z M 121.265625 34.058594 C 122.738281 37.714844 124.367188 42.535156 123.882812 47.363281 C 123.460938 51.570312 120.9375 56.566406 116.257812 58.242188 C 113.75 59.144531 111.058594 58.972656 108.453125 58.808594 C 107.785156 58.765625 107.09375 58.722656 106.425781 58.699219 C 105.824219 58.675781 105.195312 58.679688 104.726562 58.953125 C 103.648438 59.589844 103.800781 61.316406 104.058594 62.75 C 105.445312 70.480469 104.800781 77.878906 102.203125 84.136719 C 99.273438 91.1875 93.632812 96.800781 87.117188 99.152344 C 84.0625 100.257812 80.515625 100.796875 76.304688 100.796875 C 75.929688 100.796875 75.554688 100.789062 75.171875 100.78125 C 61.976562 100.5 49.109375 95.710938 38.953125 87.296875 C 33.558594 82.828125 29.980469 77.144531 27.699219 69.40625 C 25.621094 62.351562 25.792969 55.246094 28.148438 50.363281 C 26.761719 43.574219 26.707031 36.402344 27.992188 29.613281 C 28.101562 29.042969 28.304688 27.988281 29.140625 27.472656 C 29.800781 27.0625 30.960938 26.90625 32.703125 28.496094 C 33.636719 29.351562 34.570312 30.207031 35.503906 31.058594 C 35.742188 30.730469 35.980469 30.40625 36.214844 30.085938 C 37.476562 28.1875 38.894531 26.417969 40.488281 24.839844 C 44.90625 19.941406 49.539062 16.390625 54.515625 14.074219 C 58.949219 12.011719 64.011719 11.003906 68.769531 11.230469 C 73.910156 11.480469 78.554688 13.125 82.195312 15.988281 C 88.359375 20.84375 91.425781 29.253906 89.828125 36.921875 C 89.195312 39.953125 87.898438 42.808594 86.644531 45.570312 C 86.203125 46.546875 85.746094 47.558594 85.324219 48.558594 C 84.0625 51.566406 82.496094 56.0625 83.480469 60.320312 C 83.6875 61.222656 84.226562 62.808594 85.5 63.277344 C 86.871094 63.789062 88.488281 62.6875 89.140625 61.339844 C 89.761719 60.066406 89.835938 58.554688 89.910156 57.09375 C 89.921875 56.859375 89.933594 56.628906 89.945312 56.394531 C 90.117188 53.511719 91 48.378906 94.992188 46.40625 C 97.699219 45.070312 100.695312 45.710938 103.589844 46.328125 C 105.953125 46.828125 108.386719 47.351562 110.617188 46.777344 C 114.15625 45.871094 116.605469 41.8125 115.757812 38.265625 C 115.53125 37.3125 115.113281 36.421875 114.671875 35.484375 C 114.308594 34.710938 113.933594 33.914062 113.675781 33.078125 C 113.0625 31.121094 113.242188 28.613281 115.027344 27.414062 C 115.359375 27.191406 115.71875 27.035156 116.066406 26.886719 C 116.558594 26.671875 117.023438 26.46875 117.308594 26.121094 C 117.648438 25.707031 117.742188 25.089844 117.839844 24.441406 C 117.96875 23.574219 118.121094 22.589844 118.953125 22.019531 C 119.472656 21.667969 120.117188 21.601562 120.765625 21.835938 C 121.5625 22.121094 122.226562 22.816406 122.449219 23.605469 C 122.847656 24.992188 122.226562 26.414062 121.726562 27.363281 C 121.632812 27.546875 121.53125 27.726562 121.433594 27.910156 C 120.964844 28.765625 120.519531 29.574219 120.417969 30.457031 C 120.28125 31.617188 120.761719 32.808594 121.222656 33.960938 L 121.265625 34.058594 " fill-opacity="1" fill-rule="nonzero"/></g></svg>