<svg xmlns="http://www.w3.org/2000/svg" xmlns:xlink="http://www.w3.org/1999/xlink" width="128" zoomAndPan="magnify" viewBox="0 0 96 95.999999" height="128" preserveAspectRatio="xMidYMid meet" version="1.0"><path fill="#e0b8c4" d="M 13.15625 35.863281 C 13.109375 48.152344 13.621094 57.332031 20.585938 65.261719 C 28.289062 74.070312 40.128906 85.9375 47.878906 85.9375 L 47.878906 75.414062 C 47.925781 75.414062 13.15625 35.632812 13.15625 35.863281 Z M 13.15625 35.863281 " fill-opacity="1" fill-rule="nonzero"/><path fill="#e0b8c4" d="M 82.695312 35.863281 C 82.695312 35.585938 47.925781 75.367188 47.925781 75.367188 L 47.925781 85.984375 C 55.726562 85.984375 67.425781 74.117188 75.128906 65.304688 C 82.09375 57.332031 82.742188 48.152344 82.695312 35.863281 " fill-opacity="1" fill-rule="nonzero"/><path fill="#ffd1df" d="M 80.746094 46.480469 C 83.902344 39.34375 83.300781 30.949219 78.75 24.597656 C 68.121094 9.714844 47.925781 20.007812 47.925781 20.007812 C 47.925781 20.007812 27.734375 9.714844 17.101562 24.550781 C 12.554688 30.949219 11.902344 39.34375 15.105469 46.480469 C 20.167969 57.933594 35.902344 77.128906 47.925781 77.128906 C 59.300781 77.082031 75.6875 57.933594 80.746094 46.480469 Z M 80.746094 46.480469 " fill-opacity="1" fill-rule="nonzero"/><path fill="#b3929c" d="M 34.417969 41.890625 L 37.34375 41.890625 L 37.34375 43.5625 L 32.46875 43.5625 L 32.46875 35.121094 L 34.417969 35.121094 Z M 34.417969 41.890625 " fill-opacity="1" fill-rule="nonzero"/><path fill="#b3929c" d="M 43.054688 34.984375 C 45.421875 34.984375 47.324219 36.882812 47.324219 39.34375 C 47.324219 41.800781 45.511719 43.746094 43.054688 43.746094 C 40.546875 43.746094 38.78125 41.847656 38.78125 39.34375 C 38.78125 36.882812 40.730469 34.984375 43.054688 34.984375 Z M 43.054688 41.890625 C 44.585938 41.890625 45.234375 40.640625 45.234375 39.386719 C 45.234375 38.136719 44.539062 36.882812 43.054688 36.882812 C 41.566406 36.882812 40.871094 38.136719 40.871094 39.386719 C 40.871094 40.59375 41.472656 41.890625 43.054688 41.890625 Z M 43.054688 41.890625 " fill-opacity="1" fill-rule="nonzero"/><path fill="#b3929c" d="M 47.789062 35.121094 L 49.96875 35.121094 L 52.105469 40.6875 L 54.242188 35.121094 L 56.421875 35.121094 L 52.847656 43.5625 L 51.316406 43.5625 Z M 47.789062 35.121094 " fill-opacity="1" fill-rule="nonzero"/><path fill="#b3929c" d="M 62.457031 36.839844 L 59.53125 36.839844 L 59.53125 38.507812 L 62.316406 38.507812 L 62.316406 40.175781 L 59.53125 40.175781 L 59.53125 41.890625 L 62.457031 41.890625 L 62.457031 43.5625 L 57.628906 43.5625 L 57.628906 35.121094 L 62.457031 35.121094 Z M 62.457031 36.839844 " fill-opacity="1" fill-rule="nonzero"/><path fill="#b3929c" d="M 36.460938 48.984375 L 38.226562 51.675781 L 39.988281 48.984375 L 42.308594 48.984375 L 39.199219 53.621094 L 39.199219 57.425781 L 37.25 57.425781 L 37.25 53.621094 L 34.140625 48.984375 Z M 36.460938 48.984375 " fill-opacity="1" fill-rule="nonzero"/><path fill="#b3929c" d="M 47.371094 48.800781 C 49.738281 48.800781 51.640625 50.703125 51.640625 53.160156 C 51.640625 55.617188 49.832031 57.5625 47.371094 57.5625 C 44.863281 57.5625 43.097656 55.664062 43.097656 53.160156 C 43.097656 50.746094 45.050781 48.800781 47.371094 48.800781 Z M 47.371094 55.707031 C 48.902344 55.707031 49.550781 54.457031 49.550781 53.207031 C 49.550781 51.953125 48.855469 50.703125 47.371094 50.703125 C 45.882812 50.703125 45.1875 51.953125 45.1875 53.207031 C 45.1875 54.457031 45.792969 55.707031 47.371094 55.707031 Z M 47.371094 55.707031 " fill-opacity="1" fill-rule="nonzero"/><path fill="#b3929c" d="M 59.859375 54.410156 C 59.859375 56.496094 58.695312 57.5625 56.5625 57.5625 C 54.425781 57.5625 53.265625 56.496094 53.265625 54.410156 L 53.265625 48.984375 L 55.214844 48.984375 L 55.214844 53.855469 C 55.214844 55.292969 55.632812 55.664062 56.609375 55.664062 C 57.535156 55.664062 58 55.246094 58 53.855469 L 58 48.984375 L 59.949219 48.984375 L 59.949219 54.410156 Z M 59.859375 54.410156 " fill-opacity="1" fill-rule="nonzero"/></svg>