<svg xmlns="http://www.w3.org/2000/svg" xmlns:xlink="http://www.w3.org/1999/xlink" width="200" zoomAndPan="magnify" viewBox="0 0 150 95.999999" height="128" preserveAspectRatio="xMidYMid meet" version="1.0"><defs><clipPath id="5017b7139f"><path d="M 6.644531 3.21875 L 110.894531 3.21875 L 110.894531 92.46875 L 6.644531 92.46875 Z M 6.644531 3.21875 " clip-rule="nonzero"/></clipPath><clipPath id="e70bda955b"><path d="M 21.515625 23 L 46 23 L 46 51.835938 L 21.515625 51.835938 Z M 21.515625 23 " clip-rule="nonzero"/></clipPath><clipPath id="452859cb8c"><path d="M 48 21.085938 L 72 21.085938 L 72 51.835938 L 48 51.835938 Z M 48 21.085938 " clip-rule="nonzero"/></clipPath><clipPath id="60a5ed25e0"><path d="M 72 27 L 96.515625 27 L 96.515625 51.835938 L 72 51.835938 Z M 72 27 " clip-rule="nonzero"/></clipPath><clipPath id="33a4dd5980"><path d="M 96 21.820312 L 117 21.820312 L 117 45 L 96 45 Z M 96 21.820312 " clip-rule="nonzero"/></clipPath></defs><g clip-path="url(#5017b7139f)"><path fill="#486cbd" d="M 110.890625 41.316406 C 110.890625 20.285156 87.554688 3.21875 58.769531 3.21875 C 29.980469 3.21875 6.648438 20.285156 6.648438 41.316406 C 6.648438 60.28125 25.636719 76.03125 50.476562 78.933594 C 54.382812 88.875 69.921875 92.46875 69.921875 92.46875 C 69.921875 92.46875 62.589844 86.621094 62.800781 79.3125 C 89.707031 77.808594 110.890625 61.367188 110.890625 41.316406 Z M 110.890625 41.316406 " fill-opacity="1" fill-rule="nonzero"/></g><g clip-path="url(#e70bda955b)"><path fill="#000000" d="M 33.203125 38.625 C 29.898438 39.105469 28.246094 40.296875 28.25 42.199219 C 28.25 44.023438 29.550781 45.089844 32.148438 45.402344 C 35.691406 45.003906 37.460938 44.285156 37.457031 43.257812 L 37.453125 40.757812 C 37.453125 39.570312 37.097656 38.859375 36.390625 38.621094 Z M 33.894531 26.792969 C 36.609375 26.929688 38.605469 27.371094 39.886719 28.121094 C 41.167969 28.875 42.011719 34.628906 42.417969 45.390625 C 42.421875 47.132812 41.832031 48.203125 40.652344 48.601562 C 39.769531 48.605469 38.824219 48.128906 37.816406 47.179688 L 33.921875 47.898438 L 32.152344 47.902344 C 27.195312 47.90625 24.714844 46.722656 24.710938 44.34375 C 24.703125 38.398438 27.414062 35.421875 32.84375 35.414062 L 35.972656 35.738281 C 37.191406 35.65625 37.800781 34.953125 37.800781 33.625 L 37.796875 32.199219 C 37.796875 30.949219 36.78125 30.207031 34.753906 29.972656 C 34.421875 29.933594 34.070312 29.914062 33.703125 29.914062 C 31.839844 29.917969 29.546875 30.425781 26.816406 31.441406 C 26.738281 31.449219 26.660156 31.453125 26.589844 31.453125 C 25.648438 31.453125 25.371094 30.855469 25.753906 29.660156 C 27.460938 27.753906 30.175781 26.796875 33.894531 26.792969 Z M 33.179688 23.585938 C 26.097656 24.503906 22.5625 26.652344 22.566406 30.019531 L 22.566406 31.445312 C 22.570312 33.269531 23.445312 34.21875 25.199219 34.296875 C 25.316406 34.300781 25.4375 34.300781 25.5625 34.300781 C 25.605469 34.300781 25.652344 34.300781 25.699219 34.300781 C 22.910156 36.003906 21.515625 38.757812 21.519531 42.566406 L 21.523438 45.0625 C 22.335938 49.101562 25.171875 51.121094 30.03125 51.113281 L 32.511719 51.109375 C 34.792969 51.046875 36.140625 50.828125 36.554688 50.449219 C 37.53125 51.316406 38.796875 51.746094 40.34375 51.746094 C 40.851562 51.742188 41.386719 51.695312 41.957031 51.601562 C 44.257812 51.242188 45.59375 49.40625 45.960938 46.097656 L 45.960938 45.027344 L 45.058594 34.328125 C 44.933594 27.15625 41.679688 23.574219 35.304688 23.582031 Z M 33.179688 23.585938 " fill-opacity="1" fill-rule="nonzero"/></g><g clip-path="url(#452859cb8c)"><path fill="#000000" d="M 61.296875 36.476562 C 60.714844 36.476562 60.074219 36.570312 59.367188 36.753906 C 57.734375 37.191406 56.917969 38.164062 56.921875 39.667969 C 56.925781 42.464844 57.988281 44.007812 60.117188 44.300781 C 62.082031 44.300781 63.617188 43.464844 64.714844 41.796875 L 64.714844 40.371094 C 64.710938 38.628906 64.21875 37.480469 63.234375 36.925781 C 62.691406 36.625 62.046875 36.476562 61.296875 36.476562 Z M 53.367188 23.597656 C 53.476562 23.597656 53.59375 23.605469 53.710938 23.621094 C 55.246094 23.898438 56.195312 27.34375 56.558594 33.960938 L 56.5625 35.03125 L 56.914062 35.390625 C 58.3125 34.621094 59.785156 34.234375 61.332031 34.230469 C 61.746094 34.230469 62.160156 34.257812 62.582031 34.3125 C 65.886719 34.304688 67.542969 37.039062 67.550781 42.507812 C 67.554688 44.945312 65.785156 46.492188 62.246094 47.152344 C 61.65625 47.296875 61.050781 47.367188 60.429688 47.367188 C 59.503906 47.371094 58.542969 47.210938 57.550781 46.890625 C 57.140625 48.226562 56.527344 48.894531 55.710938 48.894531 C 55.242188 48.894531 54.703125 48.675781 54.101562 48.234375 C 53.449219 48.234375 52.734375 40.984375 51.945312 26.476562 C 51.746094 24.558594 52.21875 23.597656 53.367188 23.597656 Z M 52.351562 21.128906 C 50.1875 21.128906 48.890625 22.675781 48.460938 25.769531 L 49.191406 40.75 C 49.199219 47.585938 50.503906 51.269531 53.101562 51.800781 L 54.519531 51.800781 C 56.269531 51.796875 57.214844 51.441406 57.351562 50.726562 C 58.183594 50.988281 59.0625 51.117188 59.988281 51.117188 C 61.160156 51.113281 62.40625 50.902344 63.722656 50.480469 C 68.265625 48.90625 70.742188 45.890625 71.148438 41.433594 C 70.792969 34.292969 67.199219 30.730469 60.363281 30.738281 C 60.179688 30.738281 59.992188 30.742188 59.800781 30.746094 L 59.445312 30.390625 C 58.75 24.210938 56.621094 21.121094 53.058594 21.125 Z M 52.351562 21.128906 " fill-opacity="1" fill-rule="nonzero"/></g><g clip-path="url(#60a5ed25e0)"><path fill="#000000" d="M 87.605469 30.59375 C 88.4375 30.59375 89.273438 30.636719 90.117188 30.722656 C 92.003906 30.71875 93.027344 31.34375 93.1875 32.589844 C 93.328125 33.820312 93.0625 34.582031 92.394531 34.878906 C 92.222656 34.953125 91.960938 34.992188 91.613281 34.992188 C 90.644531 34.992188 88.984375 34.710938 86.636719 34.144531 L 84.453125 34.058594 C 84.398438 34.058594 84.34375 34.054688 84.289062 34.058594 C 82.023438 34.058594 80.542969 35.6875 79.855469 38.941406 C 79.902344 42.585938 82.144531 44.484375 86.59375 44.636719 C 88.785156 43.960938 90.433594 43.621094 91.542969 43.621094 C 92.582031 43.617188 93.148438 43.914062 93.234375 44.511719 C 93.664062 46.96875 91.753906 48.199219 87.511719 48.203125 C 87.441406 48.203125 87.375 48.203125 87.304688 48.203125 C 85.988281 48.1875 83.851562 47.753906 80.898438 46.90625 C 77.949219 46.058594 76.398438 43.601562 76.257812 39.539062 C 76.625 35.042969 78.261719 32.363281 81.175781 31.507812 C 83.28125 30.902344 85.425781 30.597656 87.605469 30.59375 Z M 86.820312 27.191406 C 83.628906 27.195312 80.695312 27.882812 78.011719 29.253906 C 74.335938 31.121094 72.628906 35.304688 72.894531 41.804688 C 73.671875 47.648438 78.21875 50.890625 86.542969 51.535156 L 91.148438 51.46875 C 94.726562 51.34375 96.496094 48.945312 96.449219 44.269531 C 96.484375 41.414062 95.085938 39.988281 92.253906 39.992188 L 91.546875 39.996094 L 86.234375 41.011719 C 84.582031 40.976562 83.753906 40.28125 83.753906 38.933594 C 84.378906 37.820312 85.242188 37.265625 86.339844 37.261719 C 86.964844 37.261719 87.664062 37.441406 88.441406 37.800781 C 89.804688 38.433594 91.054688 38.75 92.191406 38.746094 C 92.828125 38.746094 93.425781 38.644531 93.992188 38.445312 C 95.546875 37.90625 96.339844 36.164062 96.375 33.210938 C 96.074219 29.882812 94.136719 27.972656 90.554688 27.480469 C 89.273438 27.289062 88.027344 27.191406 86.820312 27.191406 Z M 86.820312 27.191406 " fill-opacity="1" fill-rule="nonzero"/></g><path fill="#f8010e" d="M 61.304688 36.511719 C 62.042969 36.511719 62.683594 36.660156 63.21875 36.957031 C 64.191406 37.503906 64.679688 38.640625 64.679688 40.371094 L 64.683594 41.789062 L 64.679688 41.789062 C 63.589844 43.4375 62.066406 44.265625 60.117188 44.269531 C 58.011719 43.976562 56.960938 42.441406 56.957031 39.667969 C 56.953125 38.179688 57.761719 37.21875 59.375 36.785156 C 60.078125 36.601562 60.71875 36.511719 61.296875 36.511719 C 61.300781 36.511719 61.304688 36.511719 61.304688 36.511719 Z M 53.371094 23.5625 C 53.371094 23.5625 53.371094 23.5625 53.367188 23.5625 C 52.367188 23.5625 51.863281 24.273438 51.867188 25.695312 C 51.867188 25.9375 51.882812 26.199219 51.910156 26.480469 C 52.695312 40.929688 53.421875 48.191406 54.089844 48.265625 C 54.695312 48.707031 55.234375 48.929688 55.710938 48.929688 C 56.539062 48.925781 57.160156 48.261719 57.574219 46.933594 C 58.554688 47.246094 59.503906 47.402344 60.421875 47.402344 C 60.425781 47.402344 60.429688 47.402344 60.429688 47.402344 C 61.050781 47.402344 61.660156 47.328125 62.25 47.1875 C 65.808594 46.523438 67.585938 44.964844 67.585938 42.507812 C 67.578125 37.019531 65.910156 34.277344 62.589844 34.277344 C 62.585938 34.277344 62.585938 34.277344 62.582031 34.277344 C 62.164062 34.222656 61.753906 34.199219 61.347656 34.199219 C 61.34375 34.199219 61.339844 34.199219 61.332031 34.199219 C 59.789062 34.199219 58.320312 34.582031 56.921875 35.347656 L 56.59375 35.019531 L 56.59375 33.960938 C 56.230469 27.324219 55.269531 23.867188 53.71875 23.589844 C 53.597656 23.570312 53.480469 23.5625 53.371094 23.5625 Z M 53.371094 23.5625 " fill-opacity="1" fill-rule="nonzero"/><path fill="#ef8a5e" d="M 36.382812 38.65625 C 37.074219 38.886719 37.417969 39.589844 37.421875 40.757812 L 37.425781 43.257812 C 37.425781 44.265625 35.667969 44.96875 32.148438 45.371094 C 29.574219 45.058594 28.285156 44 28.28125 42.199219 C 28.28125 40.316406 29.921875 39.136719 33.203125 38.660156 Z M 33.894531 26.757812 C 30.164062 26.765625 27.441406 27.722656 25.726562 29.636719 L 25.71875 29.648438 C 25.402344 30.640625 25.535156 31.234375 26.117188 31.421875 C 26.25 31.464844 26.40625 31.484375 26.585938 31.484375 L 26.589844 31.484375 C 26.664062 31.484375 26.738281 31.480469 26.820312 31.472656 L 26.828125 31.472656 C 29.554688 30.460938 31.84375 29.953125 33.703125 29.949219 C 33.710938 29.949219 33.714844 29.949219 33.71875 29.949219 C 34.078125 29.949219 34.421875 29.96875 34.75 30.007812 C 36.757812 30.238281 37.761719 30.96875 37.761719 32.199219 L 37.765625 33.625 C 37.765625 34.929688 37.167969 35.625 35.972656 35.703125 L 32.847656 35.382812 L 32.84375 35.382812 C 27.390625 35.390625 24.667969 38.375 24.675781 44.34375 C 24.679688 46.738281 27.15625 47.933594 32.109375 47.933594 C 32.125 47.933594 32.136719 47.933594 32.152344 47.933594 L 33.929688 47.933594 L 37.804688 47.214844 L 37.808594 47.214844 C 38.8125 48.164062 39.761719 48.636719 40.648438 48.636719 L 40.652344 48.636719 L 40.664062 48.632812 C 41.859375 48.230469 42.457031 47.148438 42.453125 45.390625 L 42.453125 45.386719 C 42.042969 34.617188 41.195312 28.851562 39.902344 28.09375 C 38.621094 27.339844 36.617188 26.894531 33.894531 26.757812 Z M 33.894531 26.757812 " fill-opacity="1" fill-rule="nonzero"/><path fill="#f8ed68" d="M 87.640625 30.554688 C 87.628906 30.554688 87.617188 30.554688 87.605469 30.554688 C 85.421875 30.558594 83.273438 30.863281 81.164062 31.46875 C 78.234375 32.332031 76.585938 35.019531 76.21875 39.535156 L 76.214844 39.542969 C 76.359375 43.625 77.917969 46.089844 80.890625 46.945312 C 83.84375 47.792969 85.984375 48.226562 87.304688 48.246094 C 87.367188 48.246094 87.429688 48.246094 87.488281 48.246094 C 87.496094 48.246094 87.503906 48.246094 87.511719 48.246094 C 91.394531 48.238281 93.335938 47.207031 93.332031 45.152344 C 93.332031 44.945312 93.3125 44.730469 93.273438 44.503906 C 93.183594 43.886719 92.609375 43.578125 91.550781 43.578125 C 91.546875 43.578125 91.542969 43.578125 91.542969 43.578125 C 90.429688 43.582031 88.777344 43.921875 86.589844 44.597656 C 82.171875 44.445312 79.941406 42.558594 79.898438 38.941406 C 80.582031 35.714844 82.046875 34.101562 84.289062 34.097656 C 84.292969 34.097656 84.292969 34.097656 84.296875 34.097656 C 84.347656 34.097656 84.398438 34.097656 84.453125 34.097656 L 86.632812 34.183594 C 88.972656 34.75 90.632812 35.03125 91.605469 35.03125 C 91.609375 35.03125 91.613281 35.03125 91.613281 35.03125 C 91.96875 35.03125 92.234375 34.992188 92.410156 34.917969 C 93.097656 34.609375 93.367188 33.835938 93.226562 32.585938 C 93.066406 31.316406 92.03125 30.683594 90.128906 30.683594 C 90.125 30.683594 90.121094 30.683594 90.117188 30.683594 C 89.285156 30.597656 88.460938 30.554688 87.640625 30.554688 Z M 87.640625 30.554688 " fill-opacity="1" fill-rule="nonzero"/><path fill="#ef8a5e" d="M 123.367188 67.777344 C 126.585938 68.726562 129.972656 66.898438 130.925781 63.6875 L 131.070312 63.203125 C 132.027344 59.996094 130.191406 56.625 126.96875 55.671875 C 123.75 54.722656 120.363281 56.550781 119.410156 59.757812 L 119.265625 60.246094 C 118.308594 63.453125 120.144531 66.824219 123.367188 67.777344 " fill-opacity="1" fill-rule="nonzero"/><path fill="#ef8a5e" d="M 136.195312 25.679688 C 130.597656 24.023438 126.796875 24.738281 124.175781 26.757812 C 120.914062 29.273438 121.910156 34.425781 125.867188 35.597656 L 126.160156 35.683594 C 128.253906 36.300781 130.453125 35.429688 131.683594 33.632812 C 132.066406 33.078125 132.484375 32.851562 133.019531 33.011719 C 133.933594 33.28125 134.136719 33.9375 133.628906 35.640625 C 133.015625 37.707031 132.144531 38.839844 129.960938 40.378906 C 125.960938 43.101562 123.734375 45.222656 122.503906 49.359375 L 122.195312 50.394531 C 122.027344 50.964844 122.355469 51.5625 122.925781 51.734375 L 132.515625 54.566406 C 133.085938 54.734375 133.691406 54.410156 133.859375 53.835938 C 134.421875 51.953125 135.308594 50.757812 138.507812 48.261719 C 142.085938 45.613281 144.121094 44.363281 145.441406 39.921875 C 147.144531 34.207031 145.601562 28.457031 136.195312 25.679688 " fill-opacity="1" fill-rule="nonzero"/><path fill="#ef8a5e" d="M 105.617188 56.269531 C 108.246094 56.28125 110.386719 54.171875 110.398438 51.554688 L 110.402344 51.15625 C 110.414062 48.539062 108.296875 46.40625 105.667969 46.394531 C 103.042969 46.378906 100.898438 48.492188 100.886719 51.109375 L 100.882812 51.503906 C 100.871094 54.121094 102.988281 56.253906 105.617188 56.269531 " fill-opacity="1" fill-rule="nonzero"/><g clip-path="url(#33a4dd5980)"><path fill="#ef8a5e" d="M 106.023438 21.855469 C 101.453125 21.832031 98.757812 23.195312 97.230469 25.28125 C 95.332031 27.882812 97.210938 31.539062 100.4375 31.554688 L 100.675781 31.554688 C 102.386719 31.5625 103.847656 30.433594 104.375 28.8125 C 104.539062 28.3125 104.808594 28.054688 105.242188 28.054688 C 105.988281 28.058594 106.285156 28.507812 106.277344 29.898438 C 106.269531 31.585938 105.867188 32.625 104.5625 34.253906 C 102.15625 37.171875 100.949219 39.25 100.929688 42.621094 L 100.925781 43.464844 C 100.925781 43.933594 101.300781 44.3125 101.769531 44.316406 L 109.589844 44.355469 C 110.058594 44.359375 110.441406 43.984375 110.441406 43.515625 C 110.449219 41.976562 110.855469 40.886719 112.710938 38.316406 C 114.816406 35.550781 116.070312 34.167969 116.089844 30.542969 C 116.113281 25.878906 113.695312 21.898438 106.023438 21.855469 " fill-opacity="1" fill-rule="nonzero"/></g><path fill="#ef8a5e" d="M 94.585938 80.433594 C 96.621094 79.800781 97.75 77.648438 97.117188 75.621094 L 97.019531 75.316406 C 96.386719 73.292969 94.222656 72.164062 92.191406 72.796875 C 90.160156 73.429688 89.027344 75.582031 89.664062 77.605469 L 89.757812 77.914062 C 90.394531 79.9375 92.554688 81.066406 94.585938 80.433594 " fill-opacity="1" fill-rule="nonzero"/><path fill="#ef8a5e" d="M 86.414062 53.769531 C 82.882812 54.867188 81.136719 56.582031 80.472656 58.566406 C 79.648438 61.039062 82 63.398438 84.496094 62.621094 L 84.679688 62.5625 C 86 62.152344 86.851562 60.921875 86.859375 59.542969 C 86.863281 59.113281 87.003906 58.851562 87.339844 58.746094 C 87.917969 58.566406 88.257812 58.839844 88.59375 59.914062 C 89.003906 61.21875 88.949219 62.121094 88.34375 63.699219 C 87.207031 66.535156 86.785156 68.4375 87.605469 71.046875 L 87.808594 71.699219 C 87.921875 72.058594 88.308594 72.257812 88.667969 72.144531 L 94.71875 70.265625 C 95.078125 70.152344 95.28125 69.769531 95.167969 69.40625 C 94.792969 68.21875 94.835938 67.277344 95.636719 64.839844 C 96.582031 62.1875 97.207031 60.8125 96.328125 58.011719 C 95.199219 54.40625 92.347656 51.921875 86.414062 53.769531 " fill-opacity="1" fill-rule="nonzero"/></svg>