<svg xmlns="http://www.w3.org/2000/svg" xmlns:xlink="http://www.w3.org/1999/xlink" width="200" zoomAndPan="magnify" viewBox="0 0 150 112.499997" height="150" preserveAspectRatio="xMidYMid meet" version="1.0"><defs><clipPath id="3f2261aa00"><path d="M 13.277344 58 L 138.71875 58 L 138.71875 100.800781 L 13.277344 100.800781 Z M 13.277344 58 " clip-rule="nonzero"/></clipPath><clipPath id="da3afa25b4"><path d="M 123 23 L 138.71875 23 L 138.71875 36 L 123 36 Z M 123 23 " clip-rule="nonzero"/></clipPath><clipPath id="e4cb767c59"><path d="M 49 11.199219 L 76 11.199219 L 76 18 L 49 18 Z M 49 11.199219 " clip-rule="nonzero"/></clipPath></defs><path fill="#b4b4b4" d="M 46.15625 35.09375 L 62.570312 45.546875 L 92.410156 39.574219 C 92.410156 39.574219 96.886719 33.199219 96.886719 32.105469 L 96.886719 26.132812 C 96.886719 24.480469 83.617188 17.171875 81.96875 17.171875 L 46.15625 17.171875 C 44.503906 17.171875 43.171875 18.507812 43.171875 20.160156 L 43.171875 32.105469 C 43.171875 33.757812 44.503906 35.09375 46.15625 35.09375 Z M 46.15625 35.09375 " fill-opacity="1" fill-rule="nonzero"/><path fill="#b4b4b4" d="M 108.824219 38.082031 C 114.792969 38.082031 123.746094 58.988281 123.746094 58.988281 L 16.3125 58.988281 L 16.3125 50.027344 C 16.3125 50.027344 16.3125 44.0625 22.28125 44.0625 C 28.25 44.0625 102.855469 38.082031 108.824219 38.082031 Z M 108.824219 38.082031 " fill-opacity="1" fill-rule="nonzero"/><g clip-path="url(#3f2261aa00)"><path fill="#b4b4b4" d="M 108.824219 100.800781 L 43.171875 100.800781 C 35.046875 100.800781 13.328125 87.730469 13.328125 73.925781 C 13.328125 65.972656 20.300781 58.992188 28.25 58.992188 L 123.746094 58.992188 C 131.695312 58.992188 138.667969 65.972656 138.667969 73.925781 C 138.667969 87.730469 116.957031 100.800781 108.824219 100.800781 Z M 108.824219 100.800781 " fill-opacity="1" fill-rule="nonzero"/></g><path fill="#b4b4b4" d="M 96.886719 26.132812 L 129.714844 26.132812 L 129.714844 32.105469 L 96.886719 32.105469 Z M 96.886719 26.132812 " fill-opacity="1" fill-rule="nonzero"/><path fill="#b4b4b4" d="M 37.203125 23.148438 L 43.171875 23.148438 L 43.171875 29.121094 L 37.203125 29.121094 Z M 37.203125 23.148438 " fill-opacity="1" fill-rule="nonzero"/><g clip-path="url(#da3afa25b4)"><path fill="#b4b4b4" d="M 129.714844 23.148438 L 123.746094 26.132812 L 123.746094 32.113281 L 129.714844 35.09375 L 138.667969 35.09375 L 138.667969 23.148438 Z M 135.683594 32.105469 L 129.714844 32.105469 L 129.714844 26.132812 L 135.683594 26.132812 Z M 135.683594 32.105469 " fill-opacity="1" fill-rule="nonzero"/></g><g clip-path="url(#e4cb767c59)"><path fill="#b4b4b4" d="M 76 17.171875 L 76 14.1875 C 76 12.535156 74.664062 11.199219 73.015625 11.199219 L 52.125 11.199219 C 50.472656 11.199219 49.140625 12.535156 49.140625 14.1875 L 49.140625 17.171875 Z M 76 17.171875 " fill-opacity="1" fill-rule="nonzero"/></g><path fill="#d1feff" d="M 123.746094 64.964844 L 28.25 64.964844 C 23.210938 64.964844 19.296875 69.777344 19.296875 73.925781 C 19.296875 83.941406 38.261719 94.828125 43.171875 94.828125 L 108.824219 94.828125 C 113.734375 94.828125 132.699219 83.941406 132.699219 73.925781 C 132.699219 69.777344 128.789062 64.964844 123.746094 64.964844 Z M 123.746094 64.964844 " fill-opacity="1" fill-rule="nonzero"/><path fill="#008080" d="M 126.730469 75.414062 C 126.730469 75.90625 126.683594 76.390625 126.585938 76.871094 C 126.492188 77.351562 126.351562 77.820312 126.164062 78.273438 C 125.976562 78.726562 125.746094 79.15625 125.472656 79.5625 C 125.203125 79.972656 124.890625 80.347656 124.546875 80.695312 C 124.199219 81.042969 123.824219 81.351562 123.414062 81.625 C 123.007812 81.894531 122.578125 82.125 122.125 82.3125 C 121.671875 82.5 121.207031 82.644531 120.726562 82.738281 C 120.246094 82.832031 119.761719 82.882812 119.269531 82.882812 C 118.78125 82.882812 118.296875 82.832031 117.816406 82.738281 C 117.335938 82.644531 116.867188 82.5 116.414062 82.3125 C 115.960938 82.125 115.53125 81.894531 115.125 81.625 C 114.71875 81.351562 114.339844 81.042969 113.996094 80.695312 C 113.648438 80.347656 113.339844 79.972656 113.066406 79.5625 C 112.792969 79.15625 112.566406 78.726562 112.378906 78.273438 C 112.191406 77.820312 112.046875 77.351562 111.953125 76.871094 C 111.855469 76.390625 111.808594 75.90625 111.808594 75.414062 C 111.808594 74.925781 111.855469 74.4375 111.953125 73.957031 C 112.046875 73.476562 112.191406 73.011719 112.378906 72.558594 C 112.566406 72.105469 112.792969 71.675781 113.066406 71.265625 C 113.339844 70.859375 113.648438 70.480469 113.996094 70.136719 C 114.339844 69.789062 114.71875 69.480469 115.125 69.207031 C 115.53125 68.933594 115.960938 68.703125 116.414062 68.515625 C 116.867188 68.328125 117.335938 68.1875 117.816406 68.089844 C 118.296875 67.996094 118.78125 67.949219 119.269531 67.949219 C 119.761719 67.949219 120.246094 67.996094 120.726562 68.089844 C 121.207031 68.1875 121.671875 68.328125 122.125 68.515625 C 122.578125 68.703125 123.007812 68.933594 123.414062 69.207031 C 123.824219 69.480469 124.199219 69.789062 124.546875 70.136719 C 124.890625 70.480469 125.203125 70.859375 125.472656 71.265625 C 125.746094 71.675781 125.976562 72.105469 126.164062 72.558594 C 126.351562 73.011719 126.492188 73.476562 126.585938 73.957031 C 126.683594 74.4375 126.730469 74.925781 126.730469 75.414062 Z M 126.730469 75.414062 " fill-opacity="1" fill-rule="nonzero"/><path fill="#008080" d="M 40.1875 75.417969 C 40.1875 75.90625 40.140625 76.394531 40.042969 76.875 C 39.949219 77.355469 39.804688 77.824219 39.617188 78.273438 C 39.429688 78.726562 39.203125 79.160156 38.929688 79.566406 C 38.65625 79.972656 38.347656 80.351562 38 80.699219 C 37.65625 81.042969 37.277344 81.355469 36.871094 81.625 C 36.464844 81.898438 36.035156 82.128906 35.582031 82.316406 C 35.128906 82.503906 34.664062 82.644531 34.183594 82.742188 C 33.703125 82.835938 33.214844 82.882812 32.726562 82.882812 C 32.238281 82.882812 31.75 82.835938 31.269531 82.742188 C 30.789062 82.644531 30.324219 82.503906 29.871094 82.316406 C 29.417969 82.128906 28.988281 81.898438 28.582031 81.625 C 28.175781 81.355469 27.796875 81.042969 27.449219 80.699219 C 27.105469 80.351562 26.796875 79.972656 26.523438 79.566406 C 26.25 79.160156 26.019531 78.726562 25.832031 78.273438 C 25.644531 77.824219 25.503906 77.355469 25.410156 76.875 C 25.3125 76.394531 25.265625 75.90625 25.265625 75.417969 C 25.265625 74.925781 25.3125 74.441406 25.410156 73.960938 C 25.503906 73.480469 25.644531 73.011719 25.832031 72.558594 C 26.019531 72.109375 26.25 71.675781 26.523438 71.269531 C 26.796875 70.863281 27.105469 70.484375 27.449219 70.136719 C 27.796875 69.792969 28.175781 69.480469 28.582031 69.210938 C 28.988281 68.9375 29.417969 68.707031 29.871094 68.519531 C 30.324219 68.332031 30.789062 68.191406 31.269531 68.09375 C 31.75 68 32.238281 67.949219 32.726562 67.949219 C 33.214844 67.949219 33.703125 68 34.183594 68.09375 C 34.664062 68.191406 35.128906 68.332031 35.582031 68.519531 C 36.035156 68.707031 36.464844 68.9375 36.871094 69.210938 C 37.277344 69.480469 37.65625 69.792969 38 70.136719 C 38.347656 70.484375 38.65625 70.863281 38.929688 71.269531 C 39.203125 71.675781 39.429688 72.109375 39.617188 72.558594 C 39.804688 73.011719 39.949219 73.480469 40.042969 73.960938 C 40.140625 74.441406 40.1875 74.925781 40.1875 75.417969 Z M 40.1875 75.417969 " fill-opacity="1" fill-rule="nonzero"/><path fill="#008080" d="M 55.109375 85.867188 C 55.109375 86.261719 55.070312 86.648438 54.992188 87.035156 C 54.917969 87.417969 54.804688 87.792969 54.652344 88.15625 C 54.503906 88.515625 54.320312 88.859375 54.101562 89.1875 C 53.882812 89.511719 53.636719 89.816406 53.359375 90.09375 C 53.082031 90.371094 52.78125 90.617188 52.457031 90.835938 C 52.128906 91.054688 51.785156 91.238281 51.425781 91.386719 C 51.0625 91.539062 50.6875 91.652344 50.304688 91.726562 C 49.917969 91.804688 49.53125 91.84375 49.140625 91.84375 C 48.746094 91.84375 48.359375 91.804688 47.976562 91.726562 C 47.589844 91.652344 47.21875 91.539062 46.855469 91.386719 C 46.492188 91.238281 46.148438 91.054688 45.824219 90.835938 C 45.496094 90.617188 45.195312 90.371094 44.917969 90.09375 C 44.640625 89.816406 44.394531 89.511719 44.175781 89.1875 C 43.960938 88.859375 43.777344 88.515625 43.625 88.15625 C 43.476562 87.792969 43.363281 87.417969 43.285156 87.035156 C 43.210938 86.648438 43.171875 86.261719 43.171875 85.867188 C 43.171875 85.476562 43.210938 85.085938 43.285156 84.703125 C 43.363281 84.320312 43.476562 83.945312 43.625 83.582031 C 43.777344 83.21875 43.960938 82.875 44.175781 82.550781 C 44.394531 82.222656 44.640625 81.921875 44.917969 81.644531 C 45.195312 81.367188 45.496094 81.121094 45.824219 80.902344 C 46.148438 80.683594 46.492188 80.5 46.855469 80.351562 C 47.21875 80.199219 47.589844 80.085938 47.976562 80.011719 C 48.359375 79.933594 48.746094 79.894531 49.140625 79.894531 C 49.53125 79.894531 49.917969 79.933594 50.304688 80.011719 C 50.6875 80.085938 51.0625 80.199219 51.425781 80.351562 C 51.785156 80.5 52.128906 80.683594 52.457031 80.902344 C 52.78125 81.121094 53.082031 81.367188 53.359375 81.644531 C 53.636719 81.921875 53.882812 82.222656 54.101562 82.550781 C 54.320312 82.875 54.503906 83.21875 54.652344 83.582031 C 54.804688 83.945312 54.917969 84.320312 54.992188 84.703125 C 55.070312 85.085938 55.109375 85.476562 55.109375 85.867188 Z M 55.109375 85.867188 " fill-opacity="1" fill-rule="nonzero"/><path fill="#008080" d="M 73.015625 85.867188 C 73.015625 86.261719 72.976562 86.648438 72.898438 87.035156 C 72.824219 87.417969 72.710938 87.792969 72.558594 88.15625 C 72.410156 88.515625 72.226562 88.859375 72.007812 89.1875 C 71.789062 89.511719 71.542969 89.816406 71.265625 90.09375 C 70.988281 90.371094 70.6875 90.617188 70.363281 90.835938 C 70.035156 91.054688 69.691406 91.238281 69.328125 91.386719 C 68.96875 91.539062 68.59375 91.652344 68.210938 91.726562 C 67.824219 91.804688 67.4375 91.84375 67.046875 91.84375 C 66.652344 91.84375 66.265625 91.804688 65.882812 91.726562 C 65.496094 91.652344 65.125 91.539062 64.761719 91.386719 C 64.398438 91.238281 64.054688 91.054688 63.730469 90.835938 C 63.402344 90.617188 63.101562 90.371094 62.824219 90.09375 C 62.546875 89.816406 62.300781 89.511719 62.082031 89.1875 C 61.863281 88.859375 61.679688 88.515625 61.53125 88.15625 C 61.382812 87.792969 61.269531 87.417969 61.191406 87.035156 C 61.113281 86.648438 61.078125 86.261719 61.078125 85.867188 C 61.078125 85.476562 61.113281 85.085938 61.191406 84.703125 C 61.269531 84.320312 61.382812 83.945312 61.53125 83.582031 C 61.679688 83.21875 61.863281 82.875 62.082031 82.550781 C 62.300781 82.222656 62.546875 81.921875 62.824219 81.644531 C 63.101562 81.367188 63.402344 81.121094 63.730469 80.902344 C 64.054688 80.683594 64.398438 80.5 64.761719 80.351562 C 65.125 80.199219 65.496094 80.085938 65.882812 80.011719 C 66.265625 79.933594 66.652344 79.894531 67.046875 79.894531 C 67.4375 79.894531 67.824219 79.933594 68.210938 80.011719 C 68.59375 80.085938 68.96875 80.199219 69.328125 80.351562 C 69.691406 80.5 70.035156 80.683594 70.363281 80.902344 C 70.6875 81.121094 70.988281 81.367188 71.265625 81.644531 C 71.542969 81.921875 71.789062 82.222656 72.007812 82.550781 C 72.226562 82.875 72.410156 83.21875 72.558594 83.582031 C 72.710938 83.945312 72.824219 84.320312 72.898438 84.703125 C 72.976562 85.085938 73.015625 85.476562 73.015625 85.867188 Z M 73.015625 85.867188 " fill-opacity="1" fill-rule="nonzero"/><path fill="#008080" d="M 108.824219 85.867188 C 108.824219 86.261719 108.785156 86.648438 108.710938 87.035156 C 108.632812 87.417969 108.519531 87.792969 108.371094 88.15625 C 108.222656 88.515625 108.039062 88.859375 107.820312 89.1875 C 107.601562 89.511719 107.355469 89.816406 107.078125 90.09375 C 106.800781 90.371094 106.5 90.617188 106.171875 90.835938 C 105.847656 91.054688 105.503906 91.238281 105.140625 91.386719 C 104.777344 91.539062 104.40625 91.652344 104.019531 91.726562 C 103.636719 91.804688 103.25 91.84375 102.855469 91.84375 C 102.464844 91.84375 102.078125 91.804688 101.691406 91.726562 C 101.308594 91.652344 100.933594 91.539062 100.574219 91.386719 C 100.210938 91.238281 99.867188 91.054688 99.539062 90.835938 C 99.214844 90.617188 98.914062 90.371094 98.636719 90.09375 C 98.359375 89.816406 98.113281 89.511719 97.894531 89.1875 C 97.675781 88.859375 97.492188 88.515625 97.34375 88.15625 C 97.191406 87.792969 97.078125 87.417969 97.003906 87.035156 C 96.925781 86.648438 96.886719 86.261719 96.886719 85.867188 C 96.886719 85.476562 96.925781 85.085938 97.003906 84.703125 C 97.078125 84.320312 97.191406 83.945312 97.34375 83.582031 C 97.492188 83.21875 97.675781 82.875 97.894531 82.550781 C 98.113281 82.222656 98.359375 81.921875 98.636719 81.644531 C 98.914062 81.367188 99.214844 81.121094 99.539062 80.902344 C 99.867188 80.683594 100.210938 80.5 100.574219 80.351562 C 100.933594 80.199219 101.308594 80.085938 101.691406 80.011719 C 102.078125 79.933594 102.464844 79.894531 102.855469 79.894531 C 103.25 79.894531 103.636719 79.933594 104.019531 80.011719 C 104.40625 80.085938 104.777344 80.199219 105.140625 80.351562 C 105.503906 80.5 105.847656 80.683594 106.171875 80.902344 C 106.5 81.121094 106.800781 81.367188 107.078125 81.644531 C 107.355469 81.921875 107.601562 82.222656 107.820312 82.550781 C 108.039062 82.875 108.222656 83.21875 108.371094 83.582031 C 108.519531 83.945312 108.632812 84.320312 108.710938 84.703125 C 108.785156 85.085938 108.824219 85.476562 108.824219 85.867188 Z M 108.824219 85.867188 " fill-opacity="1" fill-rule="nonzero"/><path fill="#008080" d="M 90.917969 85.867188 C 90.917969 86.261719 90.882812 86.648438 90.804688 87.035156 C 90.726562 87.417969 90.617188 87.792969 90.464844 88.15625 C 90.316406 88.515625 90.132812 88.859375 89.914062 89.1875 C 89.695312 89.511719 89.449219 89.816406 89.171875 90.09375 C 88.894531 90.371094 88.59375 90.617188 88.265625 90.835938 C 87.941406 91.054688 87.597656 91.238281 87.234375 91.386719 C 86.875 91.539062 86.5 91.652344 86.117188 91.726562 C 85.730469 91.804688 85.34375 91.84375 84.949219 91.84375 C 84.558594 91.84375 84.171875 91.804688 83.785156 91.726562 C 83.402344 91.652344 83.027344 91.539062 82.667969 91.386719 C 82.304688 91.238281 81.960938 91.054688 81.636719 90.835938 C 81.308594 90.617188 81.007812 90.371094 80.730469 90.09375 C 80.453125 89.816406 80.207031 89.511719 79.988281 89.1875 C 79.769531 88.859375 79.585938 88.515625 79.4375 88.15625 C 79.285156 87.792969 79.171875 87.417969 79.097656 87.035156 C 79.019531 86.648438 78.984375 86.261719 78.984375 85.867188 C 78.984375 85.476562 79.019531 85.085938 79.097656 84.703125 C 79.171875 84.320312 79.285156 83.945312 79.4375 83.582031 C 79.585938 83.21875 79.769531 82.875 79.988281 82.550781 C 80.207031 82.222656 80.453125 81.921875 80.730469 81.644531 C 81.007812 81.367188 81.308594 81.121094 81.636719 80.902344 C 81.960938 80.683594 82.304688 80.5 82.667969 80.351562 C 83.027344 80.199219 83.402344 80.085938 83.785156 80.011719 C 84.171875 79.933594 84.558594 79.894531 84.949219 79.894531 C 85.34375 79.894531 85.730469 79.933594 86.117188 80.011719 C 86.5 80.085938 86.875 80.199219 87.234375 80.351562 C 87.597656 80.5 87.941406 80.683594 88.265625 80.902344 C 88.59375 81.121094 88.894531 81.367188 89.171875 81.644531 C 89.449219 81.921875 89.695312 82.222656 89.914062 82.550781 C 90.132812 82.875 90.316406 83.21875 90.464844 83.582031 C 90.617188 83.945312 90.726562 84.320312 90.804688 84.703125 C 90.882812 85.085938 90.917969 85.476562 90.917969 85.867188 Z M 90.917969 85.867188 " fill-opacity="1" fill-rule="nonzero"/><path fill="#008080" d="M 108.824219 38.082031 C 107.105469 38.082031 16.3125 53.015625 16.3125 53.015625 L 16.3125 58.988281 L 123.746094 58.988281 C 123.746094 58.988281 114.792969 38.082031 108.824219 38.082031 Z M 108.824219 38.082031 " fill-opacity="1" fill-rule="nonzero"/><path fill="#008080" d="M 81.96875 17.171875 L 46.15625 17.171875 C 44.503906 17.171875 43.171875 18.507812 43.171875 20.160156 L 43.171875 32.105469 C 43.171875 33.757812 44.503906 35.09375 46.15625 35.09375 L 49.554688 37.132812 L 46.160156 35.097656 L 61.078125 35.097656 L 66.945312 40.96875 C 76.394531 40.269531 85.75 39.574219 93.25 39.042969 C 95.003906 36.75 96.886719 33.199219 96.886719 32.105469 L 96.886719 26.132812 C 96.886719 24.480469 83.617188 17.171875 81.96875 17.171875 Z M 81.96875 17.171875 " fill-opacity="1" fill-rule="nonzero"/><path fill="#fff3e0" d="M 101.714844 47.796875 L 105.839844 48.398438 L 102.855469 51.3125 L 103.554688 55.421875 L 99.871094 53.480469 L 96.183594 55.417969 L 96.886719 51.308594 L 93.902344 48.394531 L 98.027344 47.796875 L 99.871094 44.054688 Z M 101.714844 47.796875 " fill-opacity="1" fill-rule="nonzero"/></svg>