<svg xmlns="http://www.w3.org/2000/svg" xmlns:xlink="http://www.w3.org/1999/xlink" width="300" zoomAndPan="magnify" viewBox="0 0 224.87999 225" height="300" preserveAspectRatio="xMidYMid meet" version="1.0"><defs><clipPath id="b54a388249"><path d="M 33.09375 23 L 192 23 L 192 202 L 33.09375 202 Z M 33.09375 23 " clip-rule="nonzero"/></clipPath><clipPath id="8d1c0aa8e3"><path d="M 33.09375 22.546875 L 192 22.546875 L 192 202.453125 L 33.09375 202.453125 Z M 33.09375 22.546875 " clip-rule="nonzero"/></clipPath><clipPath id="ca424e9db7"><path d="M 33.09375 31 L 178 31 L 178 202 L 33.09375 202 Z M 33.09375 31 " clip-rule="nonzero"/></clipPath><clipPath id="2637fde176"><path d="M 33.09375 30 L 179 30 L 179 202.453125 L 33.09375 202.453125 Z M 33.09375 30 " clip-rule="nonzero"/></clipPath><clipPath id="3e1b1747df"><path d="M 143 22.546875 L 190 22.546875 L 190 34 L 143 34 Z M 143 22.546875 " clip-rule="nonzero"/></clipPath><clipPath id="cbae01dfab"><path d="M 37 22.546875 L 84 22.546875 L 84 34 L 37 34 Z M 37 22.546875 " clip-rule="nonzero"/></clipPath></defs><g clip-path="url(#b54a388249)"><path fill="#000000" d="M 185.082031 23.171875 L 160.703125 23.171875 C 159.382812 23.171875 158.160156 23.582031 157.152344 24.28125 L 157.152344 24.277344 L 144.175781 32.171875 C 143.859375 32.328125 143.5625 32.511719 143.277344 32.71875 L 143.242188 32.742188 L 143.246094 32.742188 C 141.707031 33.878906 140.707031 35.699219 140.707031 37.757812 L 140.707031 89.910156 L 84.453125 89.910156 C 84.421875 89.910156 84.394531 89.886719 84.394531 89.855469 L 84.394531 29.417969 C 84.394531 25.96875 81.59375 23.171875 78.140625 23.171875 L 53.761719 23.171875 C 52.460938 23.171875 51.253906 23.570312 50.253906 24.25 L 37.636719 31.984375 C 37.023438 32.238281 36.460938 32.585938 35.964844 33.011719 C 34.621094 34.15625 33.765625 35.855469 33.765625 37.757812 L 33.765625 195.578125 C 33.765625 199.027344 36.566406 201.820312 40.023438 201.820312 L 64.398438 201.820312 C 65.523438 201.820312 66.574219 201.523438 67.484375 201.007812 L 81.101562 192.738281 C 81.292969 192.636719 81.480469 192.523438 81.660156 192.398438 L 81.667969 192.394531 C 83.3125 191.269531 84.394531 189.378906 84.394531 187.238281 L 84.394531 135.082031 L 140.652344 135.082031 C 140.683594 135.082031 140.707031 135.109375 140.707031 135.136719 L 140.707031 195.578125 C 140.707031 199.027344 143.507812 201.820312 146.960938 201.820312 L 171.339844 201.820312 C 172.636719 201.820312 173.839844 201.429688 174.835938 200.753906 L 188.328125 192.574219 L 188.320312 192.570312 C 190.125 191.476562 191.335938 189.5 191.335938 187.238281 L 191.335938 29.417969 C 191.335938 25.96875 188.535156 23.171875 185.082031 23.171875 Z M 185.082031 23.171875 " fill-opacity="1" fill-rule="nonzero"/></g><g clip-path="url(#8d1c0aa8e3)"><path fill="#000000" d="M 171.339844 202.445312 L 146.960938 202.445312 C 143.167969 202.445312 140.082031 199.363281 140.082031 195.578125 L 140.082031 135.707031 L 85.019531 135.707031 L 85.019531 187.238281 C 85.019531 189.496094 83.910156 191.605469 82.046875 192.890625 C 82.03125 192.902344 82.015625 192.914062 81.996094 192.925781 C 81.808594 193.054688 81.613281 193.171875 81.410156 193.28125 L 67.808594 201.539062 C 67.792969 201.550781 67.769531 201.5625 67.75 201.570312 C 66.726562 202.144531 65.570312 202.445312 64.398438 202.445312 L 40.023438 202.445312 C 36.226562 202.445312 33.140625 199.363281 33.140625 195.578125 L 33.140625 37.757812 C 33.140625 35.75 34.023438 33.84375 35.558594 32.535156 C 35.5625 32.53125 35.566406 32.527344 35.570312 32.527344 C 36.109375 32.066406 36.707031 31.699219 37.351562 31.425781 L 49.914062 23.722656 C 51.054688 22.953125 52.382812 22.546875 53.761719 22.546875 L 78.140625 22.546875 C 81.933594 22.546875 85.019531 25.628906 85.019531 29.417969 L 85.019531 89.289062 L 140.082031 89.289062 L 140.082031 37.757812 C 140.082031 35.589844 141.074219 33.601562 142.8125 32.285156 C 142.84375 32.257812 142.878906 32.230469 142.917969 32.207031 L 142.929688 32.199219 C 143.230469 31.980469 143.546875 31.789062 143.875 31.625 L 156.824219 23.746094 C 156.828125 23.742188 156.832031 23.742188 156.835938 23.738281 C 157.980469 22.960938 159.316406 22.546875 160.703125 22.546875 L 185.082031 22.546875 C 188.875 22.546875 191.960938 25.628906 191.960938 29.417969 L 191.960938 187.238281 C 191.960938 189.621094 190.753906 191.789062 188.726562 193.058594 C 188.703125 193.078125 188.675781 193.09375 188.652344 193.109375 L 175.175781 201.28125 C 174.039062 202.042969 172.714844 202.445312 171.339844 202.445312 Z M 84.394531 134.457031 L 140.652344 134.457031 C 141.027344 134.457031 141.332031 134.761719 141.332031 135.136719 L 141.332031 195.578125 C 141.332031 198.675781 143.859375 201.199219 146.960938 201.199219 L 171.339844 201.199219 C 172.46875 201.199219 173.558594 200.867188 174.488281 200.238281 C 174.496094 200.230469 174.503906 200.226562 174.511719 200.222656 L 187.925781 192.085938 C 187.949219 192.070312 187.972656 192.054688 187.996094 192.039062 C 189.695312 191.007812 190.710938 189.210938 190.710938 187.238281 L 190.710938 29.417969 C 190.710938 26.320312 188.183594 23.796875 185.082031 23.796875 L 160.703125 23.796875 C 159.554688 23.796875 158.449219 24.140625 157.507812 24.792969 C 157.484375 24.808594 157.460938 24.824219 157.4375 24.835938 L 144.503906 32.703125 C 144.488281 32.714844 144.472656 32.722656 144.457031 32.730469 C 144.175781 32.871094 143.902344 33.035156 143.648438 33.222656 C 143.644531 33.226562 143.640625 33.226562 143.636719 33.230469 C 143.628906 33.234375 143.625 33.238281 143.617188 33.246094 C 142.164062 34.320312 141.332031 35.964844 141.332031 37.757812 L 141.332031 89.910156 C 141.332031 90.257812 141.050781 90.535156 140.707031 90.535156 L 84.453125 90.535156 C 84.074219 90.535156 83.769531 90.230469 83.769531 89.855469 L 83.769531 29.417969 C 83.769531 26.320312 81.246094 23.796875 78.140625 23.796875 L 53.761719 23.796875 C 52.628906 23.796875 51.539062 24.132812 50.605469 24.765625 C 50.597656 24.769531 50.589844 24.777344 50.582031 24.78125 L 37.964844 32.515625 C 37.933594 32.535156 37.90625 32.550781 37.875 32.5625 C 37.332031 32.785156 36.824219 33.097656 36.371094 33.484375 C 36.367188 33.488281 36.363281 33.492188 36.359375 33.492188 C 35.109375 34.566406 34.394531 36.117188 34.394531 37.757812 L 34.394531 195.578125 C 34.394531 198.675781 36.917969 201.199219 40.023438 201.199219 L 64.398438 201.199219 C 65.367188 201.199219 66.328125 200.945312 67.175781 200.460938 C 67.183594 200.457031 67.191406 200.453125 67.199219 200.449219 L 80.777344 192.207031 C 80.785156 192.199219 80.792969 192.195312 80.804688 192.191406 C 80.972656 192.097656 81.140625 191.996094 81.300781 191.886719 C 81.304688 191.886719 81.308594 191.882812 81.3125 191.878906 C 82.851562 190.828125 83.769531 189.09375 83.769531 187.238281 L 83.769531 135.082031 C 83.769531 134.738281 84.050781 134.457031 84.394531 134.457031 Z M 84.394531 134.457031 " fill-opacity="1" fill-rule="nonzero"/></g><g clip-path="url(#ca424e9db7)"><path fill="#ffffff" d="M 140.707031 195.578125 L 140.707031 135.140625 C 140.707031 135.109375 140.683594 135.082031 140.652344 135.082031 L 70.710938 135.082031 C 70.679688 135.082031 70.65625 135.109375 70.65625 135.140625 L 70.65625 195.578125 C 70.65625 199.027344 67.855469 201.824219 64.398438 201.824219 L 40.023438 201.824219 C 36.566406 201.824219 33.765625 199.027344 33.765625 195.578125 L 33.765625 37.757812 C 33.765625 34.308594 36.566406 31.511719 40.023438 31.511719 L 64.398438 31.511719 C 67.855469 31.511719 70.65625 34.308594 70.65625 37.757812 L 70.65625 98.195312 C 70.65625 98.226562 70.679688 98.25 70.710938 98.25 L 140.652344 98.25 C 140.683594 98.25 140.707031 98.226562 140.707031 98.195312 L 140.707031 37.757812 C 140.707031 34.308594 143.507812 31.511719 146.960938 31.511719 L 171.339844 31.511719 C 174.792969 31.511719 177.59375 34.308594 177.59375 37.757812 L 177.59375 195.578125 C 177.59375 199.027344 174.792969 201.820312 171.339844 201.820312 L 146.960938 201.820312 C 143.507812 201.820312 140.707031 199.027344 140.707031 195.578125 Z M 140.707031 195.578125 " fill-opacity="1" fill-rule="nonzero"/></g><g clip-path="url(#2637fde176)"><path fill="#000000" d="M 171.339844 202.445312 L 146.960938 202.445312 C 143.167969 202.445312 140.082031 199.363281 140.082031 195.578125 L 140.082031 135.707031 L 71.28125 135.707031 L 71.28125 195.578125 C 71.28125 199.363281 68.195312 202.445312 64.398438 202.445312 L 40.023438 202.445312 C 36.226562 202.445312 33.140625 199.363281 33.140625 195.578125 L 33.140625 37.757812 C 33.140625 33.96875 36.226562 30.886719 40.023438 30.886719 L 64.398438 30.886719 C 68.195312 30.886719 71.28125 33.96875 71.28125 37.757812 L 71.28125 97.625 L 140.082031 97.625 L 140.082031 37.757812 C 140.082031 33.96875 143.167969 30.886719 146.960938 30.886719 L 171.339844 30.886719 C 175.132812 30.886719 178.21875 33.96875 178.21875 37.757812 L 178.21875 195.578125 C 178.21875 199.363281 175.132812 202.445312 171.339844 202.445312 Z M 70.710938 134.457031 L 140.652344 134.457031 C 141.027344 134.457031 141.332031 134.761719 141.332031 135.136719 L 141.332031 195.578125 C 141.332031 198.675781 143.859375 201.199219 146.960938 201.199219 L 171.339844 201.199219 C 174.445312 201.199219 176.96875 198.675781 176.96875 195.578125 L 176.96875 37.757812 C 176.96875 34.65625 174.445312 32.136719 171.339844 32.136719 L 146.960938 32.136719 C 143.859375 32.136719 141.332031 34.65625 141.332031 37.757812 L 141.332031 98.195312 C 141.332031 98.570312 141.027344 98.875 140.652344 98.875 L 70.710938 98.875 C 70.335938 98.875 70.027344 98.570312 70.027344 98.195312 L 70.027344 37.757812 C 70.027344 34.65625 67.503906 32.136719 64.398438 32.136719 L 40.023438 32.136719 C 36.917969 32.136719 34.394531 34.65625 34.394531 37.757812 L 34.394531 195.578125 C 34.394531 198.675781 36.917969 201.199219 40.023438 201.199219 L 64.398438 201.199219 C 67.503906 201.199219 70.027344 198.675781 70.027344 195.578125 L 70.027344 135.140625 C 70.027344 134.761719 70.335938 134.457031 70.710938 134.457031 Z M 70.710938 134.457031 " fill-opacity="1" fill-rule="nonzero"/></g><path fill="#c2b092" d="M 70.65625 135.140625 L 70.65625 195.578125 C 70.65625 197.90625 69.375 199.933594 67.484375 201.007812 L 81.101562 192.738281 C 81.292969 192.636719 81.480469 192.523438 81.660156 192.398438 L 81.667969 192.394531 C 83.3125 191.269531 84.394531 189.382812 84.394531 187.238281 L 84.394531 135.082031 L 70.710938 135.082031 C 70.679688 135.082031 70.65625 135.109375 70.65625 135.140625 Z M 70.65625 135.140625 " fill-opacity="1" fill-rule="nonzero"/><path fill="#000000" d="M 67.484375 201.632812 C 67.433594 201.632812 67.378906 201.625 67.328125 201.613281 C 67.164062 201.570312 67.027344 201.464844 66.941406 201.316406 C 66.859375 201.171875 66.835938 201 66.882812 200.839844 C 66.925781 200.683594 67.03125 200.546875 67.175781 200.464844 C 67.191406 200.453125 67.207031 200.445312 67.222656 200.433594 L 67.410156 200.320312 C 69.03125 199.292969 70.027344 197.5 70.027344 195.578125 L 70.027344 135.140625 C 70.027344 134.761719 70.335938 134.457031 70.710938 134.457031 L 84.394531 134.457031 C 84.742188 134.457031 85.019531 134.738281 85.019531 135.082031 L 85.019531 187.238281 C 85.019531 189.496094 83.910156 191.605469 82.046875 192.890625 C 82.03125 192.902344 82.015625 192.914062 81.996094 192.925781 C 81.808594 193.054688 81.613281 193.171875 81.410156 193.28125 L 68.070312 201.382812 C 68.003906 201.425781 67.933594 201.46875 67.863281 201.507812 L 67.808594 201.542969 C 67.710938 201.601562 67.597656 201.632812 67.484375 201.632812 Z M 71.28125 135.707031 L 71.28125 195.578125 C 71.28125 196.535156 71.078125 197.46875 70.703125 198.324219 L 80.777344 192.207031 C 80.785156 192.199219 80.792969 192.195312 80.804688 192.191406 C 80.972656 192.097656 81.140625 191.996094 81.300781 191.886719 C 81.304688 191.886719 81.308594 191.882812 81.3125 191.878906 C 82.851562 190.828125 83.769531 189.09375 83.769531 187.238281 L 83.769531 135.707031 Z M 71.28125 135.707031 " fill-opacity="1" fill-rule="nonzero"/><path fill="#c2b092" d="M 189.074219 24.613281 L 175.390625 33.003906 C 176.738281 34.148438 177.59375 35.851562 177.59375 37.757812 L 177.59375 195.578125 C 177.59375 197.730469 176.5 199.632812 174.835938 200.753906 L 188.328125 192.574219 L 188.320312 192.570312 C 190.125 191.476562 191.335938 189.5 191.335938 187.238281 L 191.335938 29.417969 C 191.335938 27.484375 190.457031 25.757812 189.074219 24.613281 Z M 189.074219 24.613281 " fill-opacity="1" fill-rule="nonzero"/><path fill="#000000" d="M 174.835938 201.378906 C 174.632812 201.378906 174.429688 201.277344 174.3125 201.09375 C 174.128906 200.804688 174.207031 200.425781 174.488281 200.238281 C 176.042969 199.1875 176.96875 197.445312 176.96875 195.578125 L 176.96875 37.757812 C 176.96875 36.109375 176.246094 34.550781 174.984375 33.480469 C 174.832031 33.347656 174.75 33.15625 174.765625 32.953125 C 174.78125 32.753906 174.890625 32.574219 175.0625 32.472656 L 188.746094 24.082031 C 188.976562 23.941406 189.269531 23.960938 189.476562 24.132812 C 191.054688 25.441406 191.960938 27.371094 191.960938 29.417969 L 191.960938 187.238281 C 191.960938 189.621094 190.753906 191.789062 188.726562 193.058594 C 188.703125 193.074219 188.675781 193.09375 188.652344 193.109375 L 175.160156 201.289062 C 175.0625 201.351562 174.949219 201.378906 174.835938 201.378906 Z M 176.40625 33.113281 C 177.566406 34.375 178.21875 36.027344 178.21875 37.757812 L 178.21875 195.578125 C 178.21875 196.535156 178.019531 197.46875 177.648438 198.320312 L 187.925781 192.089844 C 187.949219 192.070312 187.972656 192.054688 187.996094 192.039062 C 189.695312 191.007812 190.710938 189.210938 190.710938 187.238281 L 190.710938 29.417969 C 190.710938 27.890625 190.09375 26.445312 189.003906 25.390625 Z M 176.40625 33.113281 " fill-opacity="1" fill-rule="nonzero"/><path fill="#c2b092" d="M 185.082031 23.171875 L 160.703125 23.171875 C 159.382812 23.171875 158.160156 23.582031 157.152344 24.28125 L 157.152344 24.277344 L 144.175781 32.171875 C 145.015625 31.753906 145.960938 31.511719 146.960938 31.511719 L 171.339844 31.511719 C 172.886719 31.511719 174.300781 32.074219 175.390625 33.003906 L 189.074219 24.613281 C 187.992188 23.714844 186.601562 23.171875 185.082031 23.171875 Z M 185.082031 23.171875 " fill-opacity="1" fill-rule="nonzero"/><g clip-path="url(#3e1b1747df)"><path fill="#000000" d="M 175.390625 33.628906 C 175.246094 33.628906 175.101562 33.578125 174.984375 33.480469 C 173.96875 32.613281 172.671875 32.136719 171.339844 32.136719 L 146.960938 32.136719 C 146.089844 32.136719 145.246094 32.335938 144.457031 32.730469 C 144.15625 32.878906 143.792969 32.765625 143.628906 32.472656 C 143.46875 32.179688 143.566406 31.8125 143.851562 31.636719 L 156.824219 23.746094 C 156.828125 23.742188 156.832031 23.742188 156.835938 23.738281 C 157.980469 22.960938 159.316406 22.546875 160.703125 22.546875 L 185.082031 22.546875 C 186.683594 22.546875 188.242188 23.109375 189.476562 24.132812 C 189.628906 24.261719 189.714844 24.457031 189.699219 24.65625 C 189.683594 24.859375 189.574219 25.039062 189.402344 25.144531 L 175.71875 33.535156 C 175.617188 33.597656 175.503906 33.628906 175.390625 33.628906 Z M 147.488281 30.886719 L 171.339844 30.886719 C 172.816406 30.886719 174.253906 31.367188 175.4375 32.242188 L 187.9375 24.578125 C 187.078125 24.070312 186.089844 23.796875 185.082031 23.796875 L 160.703125 23.796875 C 159.554688 23.796875 158.449219 24.140625 157.507812 24.792969 C 157.484375 24.808594 157.460938 24.824219 157.4375 24.835938 Z M 147.488281 30.886719 " fill-opacity="1" fill-rule="nonzero"/></g><path fill="#c2b092" d="M 78.140625 23.171875 L 53.761719 23.171875 C 52.460938 23.171875 51.253906 23.570312 50.253906 24.25 L 37.636719 31.984375 C 38.371094 31.679688 39.175781 31.511719 40.023438 31.511719 L 64.398438 31.511719 C 66.101562 31.511719 67.640625 32.191406 68.765625 33.289062 L 82.449219 24.898438 C 81.328125 23.832031 79.8125 23.171875 78.140625 23.171875 Z M 78.140625 23.171875 " fill-opacity="1" fill-rule="nonzero"/><g clip-path="url(#cbae01dfab)"><path fill="#000000" d="M 68.765625 33.914062 C 68.605469 33.914062 68.449219 33.855469 68.328125 33.738281 C 67.269531 32.703125 65.875 32.136719 64.398438 32.136719 L 40.023438 32.136719 C 39.28125 32.136719 38.558594 32.28125 37.875 32.5625 C 37.574219 32.6875 37.226562 32.558594 37.078125 32.269531 C 36.929688 31.976562 37.03125 31.621094 37.308594 31.453125 L 49.914062 23.722656 C 51.054688 22.953125 52.382812 22.546875 53.761719 22.546875 L 78.140625 22.546875 C 79.910156 22.546875 81.59375 23.222656 82.882812 24.445312 C 83.023438 24.582031 83.09375 24.773438 83.074219 24.964844 C 83.050781 25.15625 82.945312 25.328125 82.777344 25.429688 L 69.09375 33.820312 C 68.992188 33.882812 68.878906 33.914062 68.765625 33.914062 Z M 40.621094 30.886719 L 64.398438 30.886719 C 66.039062 30.886719 67.597656 31.460938 68.839844 32.511719 L 81.378906 24.824219 C 80.433594 24.15625 79.308594 23.796875 78.140625 23.796875 L 53.761719 23.796875 C 52.628906 23.796875 51.539062 24.132812 50.605469 24.765625 C 50.597656 24.769531 50.589844 24.777344 50.582031 24.78125 Z M 40.621094 30.886719 " fill-opacity="1" fill-rule="nonzero"/></g><path fill="#c2b092" d="M 84.394531 89.855469 L 84.394531 29.417969 C 84.394531 27.636719 83.648438 26.035156 82.449219 24.898438 L 68.765625 33.289062 C 69.929688 34.421875 70.65625 36.003906 70.65625 37.757812 L 70.65625 98.195312 C 70.65625 98.226562 70.679688 98.25 70.710938 98.25 L 84.453125 89.910156 C 84.421875 89.910156 84.394531 89.886719 84.394531 89.855469 Z M 84.394531 89.855469 " fill-opacity="1" fill-rule="nonzero"/><path fill="#000000" d="M 70.710938 98.875 C 70.335938 98.875 70.027344 98.570312 70.027344 98.195312 L 70.027344 37.757812 C 70.027344 36.234375 69.425781 34.804688 68.328125 33.738281 C 68.191406 33.601562 68.125 33.410156 68.144531 33.21875 C 68.164062 33.027344 68.273438 32.859375 68.4375 32.757812 L 82.125 24.367188 C 82.367188 24.21875 82.675781 24.25 82.882812 24.445312 C 84.261719 25.757812 85.019531 27.523438 85.019531 29.417969 L 85.019531 89.652344 C 85.035156 89.683594 85.046875 89.710938 85.054688 89.742188 C 85.128906 90.011719 85.015625 90.300781 84.777344 90.445312 L 71.035156 98.785156 C 70.9375 98.84375 70.824219 98.875 70.710938 98.875 Z M 69.738281 33.425781 C 70.738281 34.648438 71.28125 36.160156 71.28125 37.757812 L 71.28125 97.175781 L 83.769531 89.59375 L 83.769531 29.417969 C 83.769531 28.027344 83.269531 26.722656 82.351562 25.691406 Z M 69.738281 33.425781 " fill-opacity="1" fill-rule="nonzero"/><path fill="#c2b092" d="M 84.453125 89.910156 L 70.710938 98.25 L 140.652344 98.25 C 140.683594 98.25 140.707031 98.226562 140.707031 98.195312 L 140.707031 89.910156 Z M 84.453125 89.910156 " fill-opacity="1" fill-rule="nonzero"/><path fill="#000000" d="M 140.652344 98.875 L 70.710938 98.875 C 70.429688 98.875 70.183594 98.6875 70.109375 98.417969 C 70.03125 98.148438 70.144531 97.863281 70.386719 97.71875 L 84.125 89.378906 C 84.222656 89.320312 84.335938 89.289062 84.453125 89.289062 L 140.707031 89.289062 C 141.054688 89.289062 141.332031 89.566406 141.332031 89.910156 L 141.332031 98.195312 C 141.332031 98.570312 141.027344 98.875 140.652344 98.875 Z M 72.945312 97.625 L 140.082031 97.625 L 140.082031 90.535156 L 84.625 90.535156 Z M 72.945312 97.625 " fill-opacity="1" fill-rule="nonzero"/></svg>