<svg xmlns="http://www.w3.org/2000/svg" xmlns:xlink="http://www.w3.org/1999/xlink" width="200" zoomAndPan="magnify" viewBox="0 0 150 112.499997" height="150" preserveAspectRatio="xMidYMid meet" version="1.0"><defs><clipPath id="e59be8a72e"><path d="M 51 10 L 106 10 L 106 102.648438 L 51 102.648438 Z M 51 10 " clip-rule="nonzero"/></clipPath></defs><path fill="#ad773d" d="M 50.585938 41.0625 C 48.949219 39.5625 47.519531 37.503906 45.320312 37.171875 C 43.296875 36.855469 41.261719 38.292969 40.496094 40.195312 C 39.730469 42.097656 40.074219 44.3125 40.996094 46.140625 C 41.917969 47.972656 43.371094 49.476562 44.875 50.867188 C 49.4375 55.0625 55.035156 58.566406 61.21875 58.914062 C 61.878906 58.953125 62.585938 58.941406 63.148438 58.589844 C 63.980469 58.066406 64.234375 56.972656 64.347656 55.992188 C 64.492188 54.769531 64.550781 53.535156 64.515625 52.300781 C 64.480469 51.101562 64.34375 49.855469 63.722656 48.824219 C 61.261719 44.71875 54.058594 44.238281 50.585938 41.0625 " fill-opacity="1" fill-rule="nonzero"/><path fill="#eeae72" d="M 43.191406 46.542969 C 43.835938 47.414062 45.195312 47.789062 46.027344 47.105469 C 46.429688 46.773438 46.652344 46.261719 46.730469 45.746094 C 46.804688 45.277344 46.78125 44.765625 47.03125 44.355469 C 47.339844 43.855469 47.984375 43.65625 48.328125 43.183594 C 48.816406 42.523438 48.5625 41.539062 48 40.945312 C 44.8125 37.601562 41.027344 43.617188 43.191406 46.542969 " fill-opacity="1" fill-rule="nonzero"/><path fill="#eeae72" d="M 43.585938 38.324219 C 43.617188 38.691406 43.730469 39.066406 43.964844 39.351562 C 44.203125 39.632812 44.578125 39.816406 44.945312 39.769531 C 45.3125 39.722656 45.640625 39.410156 45.660156 39.039062 C 45.664062 38.914062 45.636719 38.792969 45.601562 38.667969 C 45.523438 38.367188 45.414062 38.058594 45.210938 37.824219 C 44.6875 37.230469 43.515625 37.394531 43.585938 38.324219 " fill-opacity="1" fill-rule="nonzero"/><path fill="#eeae72" d="M 42.183594 40.851562 C 42.496094 41.140625 43.003906 41.289062 43.335938 41.027344 C 43.574219 40.839844 43.644531 40.507812 43.628906 40.207031 C 43.59375 39.488281 42.859375 38.5 42.039062 38.949219 C 41.332031 39.335938 41.730469 40.433594 42.183594 40.851562 " fill-opacity="1" fill-rule="nonzero"/><path fill="#eeae72" d="M 40.847656 42.425781 C 41.042969 42.746094 41.402344 42.964844 41.777344 42.988281 C 42.015625 43.003906 42.285156 42.921875 42.417969 42.722656 C 42.535156 42.542969 42.519531 42.308594 42.488281 42.09375 C 42.457031 41.863281 42.398438 41.621094 42.242188 41.449219 C 42.074219 41.253906 41.808594 41.167969 41.550781 41.160156 C 40.761719 41.140625 40.40625 41.707031 40.847656 42.425781 " fill-opacity="1" fill-rule="nonzero"/><path fill="#eeae72" d="M 41.019531 45.183594 C 41.15625 45.390625 41.382812 45.574219 41.628906 45.527344 C 41.785156 45.5 41.917969 45.375 41.988281 45.230469 C 42.054688 45.082031 42.078125 44.917969 42.089844 44.757812 C 42.117188 44.265625 41.832031 43.226562 41.117188 43.570312 C 40.570312 43.832031 40.765625 44.796875 41.019531 45.183594 " fill-opacity="1" fill-rule="nonzero"/><path fill="#ad773d" d="M 64.003906 17.550781 C 64.003906 20.105469 61.816406 22.175781 59.113281 22.175781 C 56.410156 22.175781 54.222656 20.105469 54.222656 17.550781 C 54.222656 14.992188 56.410156 12.921875 59.113281 12.921875 C 61.816406 12.921875 64.003906 14.992188 64.003906 17.550781 " fill-opacity="1" fill-rule="nonzero"/><path fill="#ad773d" d="M 103.484375 17.015625 C 103.484375 19.570312 101.292969 21.640625 98.59375 21.640625 C 95.894531 21.640625 93.707031 19.570312 93.707031 17.015625 C 93.707031 14.457031 95.894531 12.386719 98.59375 12.386719 C 101.292969 12.386719 103.484375 14.457031 103.484375 17.015625 " fill-opacity="1" fill-rule="nonzero"/><g clip-path="url(#e59be8a72e)"><path fill="#ad773d" d="M 57.351562 21.570312 C 55.382812 26.820312 55.628906 33.71875 56.855469 39.1875 C 57.65625 42.746094 57.316406 48.332031 56.546875 50.25 C 51.167969 63.609375 48.34375 83.253906 57.226562 95.851562 C 59.742188 99.410156 61.851562 101.371094 66.132812 102.183594 C 68.632812 102.664062 72.296875 101.296875 72.707031 99.386719 C 73.78125 94.355469 68.980469 94.234375 70.878906 91.929688 C 74.050781 90.613281 83.832031 90.390625 86.976562 91.792969 C 88.300781 92.265625 87.8125 94.28125 86.964844 95.402344 C 86.117188 96.53125 85.988281 98.488281 86.886719 99.574219 C 89.113281 102.261719 94.199219 101.660156 97.34375 100.367188 C 101.8125 98.53125 103.4375 93.113281 104.203125 88.339844 C 106.210938 75.894531 104.886719 63.453125 101.539062 51.359375 C 98.503906 40.398438 104.949219 32.335938 101.460938 21.269531 C 99.734375 15.792969 92.691406 11.148438 87.339844 10.558594 C 76.179688 9.328125 61.894531 9.449219 57.351562 21.570312 " fill-opacity="1" fill-rule="nonzero"/></g><path fill="#eeae72" d="M 96.84375 65.660156 C 96.84375 75.617188 89.253906 83.691406 79.890625 83.691406 C 70.527344 83.691406 62.9375 75.617188 62.9375 65.660156 C 62.9375 55.699219 70.527344 47.625 79.890625 47.625 C 89.253906 47.625 96.84375 55.699219 96.84375 65.660156 " fill-opacity="1" fill-rule="nonzero"/><path fill="#3c2319" d="M 67.890625 19.335938 C 67.820312 19.167969 67.652344 19.097656 67.476562 19.132812 C 67.296875 19.167969 67.113281 19.269531 66.949219 19.34375 C 66.785156 19.417969 66.734375 19.644531 66.800781 19.792969 C 66.867188 19.945312 67.058594 20.066406 67.226562 20.003906 C 67.394531 19.9375 67.601562 19.878906 67.746094 19.773438 C 67.890625 19.671875 67.964844 19.507812 67.890625 19.335938 " fill-opacity="1" fill-rule="nonzero"/><path fill="#3c2319" d="M 90.425781 18.972656 C 90.277344 18.8125 90.082031 18.6875 89.910156 18.554688 C 89.765625 18.449219 89.542969 18.523438 89.445312 18.648438 C 89.34375 18.78125 89.335938 19.007812 89.472656 19.125 C 89.636719 19.265625 89.804688 19.421875 89.992188 19.53125 C 90.148438 19.617188 90.34375 19.578125 90.449219 19.4375 C 90.5625 19.296875 90.542969 19.105469 90.425781 18.972656 " fill-opacity="1" fill-rule="nonzero"/><path fill="#eeae72" d="M 89.722656 28.761719 C 89.722656 33.21875 85.082031 36.828125 79.359375 36.828125 C 73.632812 36.828125 68.992188 33.21875 68.992188 28.761719 C 68.992188 24.304688 73.632812 20.691406 79.359375 20.691406 C 85.082031 20.691406 89.722656 24.304688 89.722656 28.761719 " fill-opacity="1" fill-rule="nonzero"/><path fill="#3c2319" d="M 73.863281 22.992188 C 73.707031 23.242188 73.589844 23.535156 73.628906 23.824219 C 73.71875 24.542969 74.597656 24.851562 75.324219 24.828125 C 76.042969 24.800781 76.816406 24.613281 77.449219 24.957031 C 78.03125 25.265625 78.507812 26.003906 79.144531 25.828125 C 79.511719 25.722656 79.71875 25.351562 80.035156 25.140625 C 80.386719 24.914062 80.835938 24.914062 81.253906 24.894531 C 81.816406 24.867188 82.394531 24.78125 82.878906 24.488281 C 85.820312 22.726562 81.144531 21.15625 79.753906 21.058594 C 77.949219 20.933594 74.917969 21.335938 73.863281 22.992188 " fill-opacity="1" fill-rule="nonzero"/><path fill="#3c2319" d="M 79.351562 30.125 C 79.144531 29.351562 78.929688 28.621094 78.894531 27.8125 C 78.859375 27.019531 78.957031 26.242188 79.144531 25.46875 C 79.226562 25.125 78.710938 24.980469 78.613281 25.324219 C 78.160156 26.886719 78.15625 28.835938 78.859375 30.335938 C 78.988281 30.617188 79.425781 30.414062 79.351562 30.125 " fill-opacity="1" fill-rule="nonzero"/><path fill="#eeae72" d="M 60.894531 15.957031 C 59.742188 14.410156 57.285156 14.664062 56.488281 16.425781 C 55.722656 18.105469 56.679688 20.042969 58.265625 20.835938 C 58.554688 20.980469 58.796875 20.574219 58.523438 20.394531 C 57.347656 19.636719 56.410156 18.351562 56.902344 16.890625 C 57.128906 16.210938 57.679688 15.6875 58.382812 15.523438 C 59.195312 15.335938 59.933594 15.6875 60.453125 16.296875 C 60.660156 16.53125 61.082031 16.214844 60.894531 15.957031 " fill-opacity="1" fill-rule="nonzero"/><path fill="#eeae72" d="M 100.914062 15.421875 C 99.410156 13.949219 96.820312 14.640625 95.804688 16.316406 C 95.628906 16.605469 96.078125 16.867188 96.253906 16.582031 C 97.078125 15.246094 99.082031 14.640625 100.382812 15.667969 C 101.121094 16.253906 101.210938 17.3125 101.035156 18.179688 C 100.949219 18.605469 100.777344 19.027344 100.480469 19.351562 C 100.148438 19.71875 99.753906 19.863281 99.296875 20.015625 C 99.039062 20.105469 99.0625 20.535156 99.363281 20.515625 C 101.621094 20.363281 102.386719 16.855469 100.914062 15.421875 " fill-opacity="1" fill-rule="nonzero"/><path fill="#3c2319" d="M 69.527344 24.089844 C 69.527344 24.75 69.226562 25.292969 68.859375 25.292969 C 68.492188 25.292969 68.195312 24.75 68.195312 24.089844 C 68.195312 23.425781 68.492188 22.890625 68.859375 22.890625 C 69.226562 22.890625 69.527344 23.425781 69.527344 24.089844 " fill-opacity="1" fill-rule="nonzero"/><path fill="#3c2319" d="M 89.890625 23.554688 C 89.890625 24.21875 89.589844 24.753906 89.222656 24.753906 C 88.855469 24.753906 88.558594 24.21875 88.558594 23.554688 C 88.558594 22.894531 88.855469 22.355469 89.222656 22.355469 C 89.589844 22.355469 89.890625 22.894531 89.890625 23.554688 " fill-opacity="1" fill-rule="nonzero"/><path fill="#e4919a" d="M 68.636719 28.179688 C 68.636719 29.140625 67.5625 29.917969 66.234375 29.917969 C 64.910156 29.917969 63.835938 29.140625 63.835938 28.179688 C 63.835938 27.222656 64.910156 26.449219 66.234375 26.449219 C 67.5625 26.449219 68.636719 27.222656 68.636719 28.179688 " fill-opacity="1" fill-rule="nonzero"/><path fill="#e4919a" d="M 94.78125 27.023438 C 94.78125 27.984375 93.707031 28.761719 92.378906 28.761719 C 91.054688 28.761719 89.980469 27.984375 89.980469 27.023438 C 89.980469 26.066406 91.054688 25.292969 92.378906 25.292969 C 93.707031 25.292969 94.78125 26.066406 94.78125 27.023438 " fill-opacity="1" fill-rule="nonzero"/><path fill="#3c2319" d="M 85.644531 31.542969 C 85.230469 31.914062 84.886719 32.347656 84.449219 32.691406 C 84.003906 33.046875 83.507812 33.347656 83 33.597656 C 82.007812 34.074219 80.910156 34.34375 79.8125 34.355469 C 78.546875 34.375 77.269531 34.109375 76.058594 33.773438 C 74.957031 33.472656 73.921875 33.023438 73.128906 32.175781 C 72.90625 31.9375 72.570312 32.289062 72.773438 32.535156 C 73.542969 33.445312 74.679688 33.9375 75.796875 34.257812 C 77.109375 34.632812 78.503906 34.925781 79.875 34.898438 C 81.050781 34.871094 82.214844 34.578125 83.273438 34.066406 C 83.792969 33.8125 84.285156 33.507812 84.742188 33.148438 C 85.207031 32.789062 85.730469 32.359375 86.039062 31.847656 C 86.191406 31.59375 85.851562 31.359375 85.644531 31.542969 " fill-opacity="1" fill-rule="nonzero"/><path fill="#a66e3b" d="M 90.789062 60.253906 C 89.800781 62.304688 88.800781 64.371094 88.1875 66.570312 C 87.269531 69.839844 87.503906 73.945312 90.234375 75.863281 C 92.695312 77.589844 96.253906 76.679688 98.375 74.53125 C 100.496094 72.382812 101.460938 69.316406 102.074219 66.324219 C 102.917969 62.207031 103.238281 57.957031 102.691406 53.792969 C 102.4375 51.863281 101.910156 49.808594 100.445312 48.570312 C 98.140625 46.628906 96.367188 48.105469 95.554688 50.28125 C 94.285156 53.699219 92.378906 56.976562 90.789062 60.253906 " fill-opacity="1" fill-rule="nonzero"/></svg>