<svg xmlns="http://www.w3.org/2000/svg" xmlns:xlink="http://www.w3.org/1999/xlink" width="200" zoomAndPan="magnify" viewBox="0 0 150 112.499997" height="150" preserveAspectRatio="xMidYMid meet" version="1.0"><defs><clipPath id="7f58320c71"><path d="M 95 11.199219 L 111 11.199219 L 111 32 L 95 32 Z M 95 11.199219 " clip-rule="nonzero"/></clipPath><clipPath id="f8c8e0554c"><path d="M 20 63 L 40 63 L 40 100.800781 L 20 100.800781 Z M 20 63 " clip-rule="nonzero"/></clipPath><clipPath id="75d001c719"><path d="M 58 63 L 78 63 L 78 100.800781 L 58 100.800781 Z M 58 63 " clip-rule="nonzero"/></clipPath><clipPath id="194587e608"><path d="M 30 94 L 39 94 L 39 100.800781 L 30 100.800781 Z M 30 94 " clip-rule="nonzero"/></clipPath><clipPath id="5a8be325c6"><path d="M 70 94 L 77 94 L 77 100.800781 L 70 100.800781 Z M 70 94 " clip-rule="nonzero"/></clipPath><clipPath id="c96e14a0a0"><path d="M 69 11.199219 L 91 11.199219 L 91 34 L 69 34 Z M 69 11.199219 " clip-rule="nonzero"/></clipPath></defs><g clip-path="url(#7f58320c71)"><path fill="#e7a65f" d="M 95.65625 29.742188 C 94.5625 27.738281 95.46875 25.242188 97.574219 24.367188 C 99.28125 23.660156 101.984375 23.566406 102.605469 20.4375 C 104.136719 12.722656 106.671875 11.910156 110.113281 11.859375 C 110.726562 11.847656 111.132812 12.488281 110.875 13.046875 C 110.308594 14.28125 109.589844 16.359375 109.796875 18.636719 C 110.125 22.277344 109.859375 25.507812 106.808594 28.6875 C 104.746094 30.835938 102.324219 31.054688 100.046875 31.679688 C 98.347656 32.148438 96.554688 31.378906 95.707031 29.832031 C 95.691406 29.804688 95.675781 29.773438 95.65625 29.742188 Z M 95.65625 29.742188 " fill-opacity="1" fill-rule="nonzero"/></g><path fill="#512c1e" d="M 92.773438 94.796875 C 91.128906 95.722656 89.238281 95.925781 87.578125 95.855469 C 85.644531 95.777344 84.019531 95.328125 83.457031 95.226562 C 82.414062 95.042969 81.859375 93.378906 81.800781 91.652344 C 81.738281 89.929688 79.15625 73.660156 79.15625 73.660156 C 79.15625 73.660156 87.332031 64.667969 90.714844 67.746094 C 90.714844 67.746094 92.363281 79.34375 92.570312 87.875 C 92.585938 88.511719 92.671875 89.144531 92.820312 89.761719 C 92.902344 90.109375 93.007812 90.457031 93.128906 90.792969 C 93.601562 92.109375 94.039062 94.082031 92.773438 94.796875 Z M 92.773438 94.796875 " fill-opacity="1" fill-rule="nonzero"/><path fill="#512c1e" d="M 59.234375 95.476562 C 59.113281 96.828125 59.359375 98.371094 55.425781 98.308594 C 54.328125 98.292969 53.320312 98.292969 52.410156 98.273438 C 50.066406 98.230469 48.378906 98.050781 47.492188 97.078125 C 46.261719 95.722656 42.820312 89.066406 42.511719 87.15625 C 42.203125 85.246094 42.511719 76.988281 42.511719 76.988281 C 42.511719 76.988281 57.328125 74.214844 57.699219 81.058594 C 57.699219 81.058594 55.546875 84.445312 55.976562 86.664062 C 56.410156 88.875 56.824219 90.511719 57.691406 92.136719 C 57.695312 92.136719 57.695312 92.144531 57.699219 92.148438 C 58.128906 92.949219 59.359375 94.117188 59.234375 95.476562 Z M 59.234375 95.476562 " fill-opacity="1" fill-rule="nonzero"/><g clip-path="url(#f8c8e0554c)"><path fill="#512c1e" d="M 36.222656 94.277344 C 38.03125 97.140625 39.46875 99.527344 35.65625 100.25 C 33.707031 100.617188 31.964844 100.789062 30.464844 100.746094 C 27.703125 100.664062 25.761719 99.867188 24.867188 98.246094 C 23.484375 95.75 19.886719 92.980469 20.164062 89.097656 C 20.429688 85.371094 21.96875 81.894531 20.867188 78.925781 C 20.648438 75.339844 20.675781 70.519531 21.15625 69.289062 C 24.238281 61.363281 36.488281 62.261719 38.085938 67.6875 C 39.683594 73.105469 41.433594 76.832031 37.871094 81.332031 C 37.871094 81.332031 32.335938 85.769531 33.996094 90.203125 C 34.515625 91.585938 35.40625 92.980469 36.222656 94.277344 Z M 36.222656 94.277344 " fill-opacity="1" fill-rule="nonzero"/></g><g clip-path="url(#75d001c719)"><path fill="#512c1e" d="M 77.445312 78.835938 C 77.441406 78.835938 77.4375 78.835938 77.433594 78.835938 L 76.449219 93.148438 C 76.421875 93.550781 76.414062 93.953125 76.433594 94.351562 C 76.457031 94.945312 76.53125 95.535156 76.660156 96.113281 C 76.933594 97.34375 77.125 99.136719 76.050781 99.632812 C 74.523438 100.335938 72.277344 100.425781 70.226562 100.304688 C 69.023438 100.234375 67.886719 100.085938 67.007812 99.949219 C 65.957031 99.789062 65.101562 99.019531 64.835938 97.988281 L 61.363281 84.496094 C 61.363281 84.496094 60.734375 82.464844 60.546875 82.496094 C 59.375 79.40625 57.476562 73.417969 58.621094 69.53125 C 60.21875 64.113281 70.796875 60.90625 74.605469 66.328125 C 77.429688 70.347656 77.601562 75.5625 77.445312 78.835938 Z M 77.445312 78.835938 " fill-opacity="1" fill-rule="nonzero"/></g><path fill="#ffeb5b" d="M 124.191406 35.304688 C 118.140625 34.234375 117.828125 30.3125 106.207031 24.492188 C 94.589844 18.667969 81.859375 24.769531 75.496094 31.144531 C 75.371094 31.273438 75.246094 31.398438 75.121094 31.523438 C 72.570312 29.839844 69.402344 28.40625 66.164062 28.597656 C 65.121094 28.660156 64.273438 29.460938 64.117188 30.492188 C 63.828125 32.425781 63.804688 35.691406 66.183594 38.203125 C 63.34375 39.371094 60.148438 39.707031 55.855469 39.1875 C 46.722656 38.078125 30.953125 35.304688 23.484375 43.070312 C 18.121094 48.640625 16.464844 56.355469 15.957031 60.265625 C 15.957031 60.265625 13.628906 73.117188 14.078125 75.695312 C 14.597656 78.714844 16.566406 78.097656 16.566406 78.097656 C 16.566406 78.097656 15.828125 81.796875 16.566406 83.550781 C 17.304688 85.308594 19.25 85.945312 20.90625 84.425781 C 20.90625 84.425781 22.226562 88.203125 27.203125 88.203125 C 29.445312 88.203125 31.628906 84.199219 31.628906 84.199219 C 31.628906 84.199219 33.714844 87.957031 37.132812 84.84375 C 37.132812 84.84375 38.382812 88.164062 43.433594 88.203125 C 46.203125 88.226562 49.304688 84.566406 49.304688 84.566406 C 49.304688 84.566406 51.511719 86.402344 55.023438 84.660156 C 55.023438 84.660156 55.585938 88.09375 60.105469 87.957031 C 64.625 87.824219 64.984375 84.105469 64.984375 84.105469 C 64.984375 84.105469 67.402344 86.753906 71.347656 85.953125 C 75.160156 85.183594 75.40625 82.628906 75.40625 82.628906 C 75.40625 82.628906 76.421875 85.214844 80.015625 84.9375 C 83.613281 84.660156 83.890625 80.6875 83.890625 80.6875 C 83.890625 80.6875 87.824219 83.015625 89.515625 78.835938 C 89.515625 78.835938 93.972656 79.699219 94.21875 76.433594 C 94.441406 73.484375 93.851562 69.132812 96.800781 65.527344 C 100.953125 61.648438 108.976562 63.308594 119.210938 62.753906 C 129.449219 62.203125 130.003906 53.605469 132.769531 46.671875 C 135.535156 39.742188 129.640625 36.269531 124.191406 35.304688 Z M 124.191406 35.304688 " fill-opacity="1" fill-rule="nonzero"/><path fill="#512c1e" d="M 16.238281 81.632812 C 16.128906 81.632812 16.035156 81.546875 16.03125 81.433594 C 15.925781 78.953125 16.695312 76.054688 17.359375 74.066406 C 18.078125 71.914062 18.832031 70.324219 18.839844 70.304688 C 18.886719 70.203125 19.011719 70.160156 19.117188 70.207031 C 19.21875 70.257812 19.261719 70.382812 19.214844 70.484375 C 19.183594 70.546875 16.246094 76.777344 16.445312 81.417969 C 16.453125 81.53125 16.363281 81.628906 16.25 81.632812 C 16.246094 81.632812 16.242188 81.632812 16.238281 81.632812 Z M 16.238281 81.632812 " fill-opacity="1" fill-rule="nonzero"/><path fill="#512c1e" d="M 21.421875 86.085938 C 21.34375 86.097656 21.261719 86.066406 21.214844 85.996094 C 21.117188 85.847656 19.960938 85.113281 19.542969 77.257812 C 19.539062 77.140625 19.632812 77.042969 19.746094 77.042969 C 19.863281 77.039062 19.957031 77.132812 19.960938 77.246094 C 20.15625 83.800781 21.539062 85.730469 21.5625 85.765625 C 21.625 85.859375 21.597656 85.988281 21.503906 86.054688 C 21.476562 86.070312 21.449219 86.082031 21.421875 86.085938 Z M 21.421875 86.085938 " fill-opacity="1" fill-rule="nonzero"/><path fill="#512c1e" d="M 32.484375 85.808594 C 32.441406 85.808594 32.398438 85.792969 32.359375 85.765625 C 32.257812 85.683594 29.828125 83.734375 29.210938 77.554688 C 29.199219 77.4375 29.28125 77.335938 29.398438 77.324219 C 29.511719 77.3125 29.613281 77.398438 29.625 77.511719 C 30.222656 83.492188 32.589844 85.414062 32.613281 85.433594 C 32.703125 85.503906 32.722656 85.636719 32.652344 85.726562 C 32.609375 85.78125 32.546875 85.808594 32.484375 85.808594 Z M 32.484375 85.808594 " fill-opacity="1" fill-rule="nonzero"/><path fill="#512c1e" d="M 37.949219 85.9375 C 37.886719 85.949219 37.820312 85.929688 37.769531 85.882812 C 37.730469 85.84375 36.738281 84.871094 34.652344 79.75 C 34.609375 79.644531 34.660156 79.523438 34.765625 79.476562 C 34.871094 79.433594 34.992188 79.484375 35.039062 79.59375 C 37.070312 84.578125 38.046875 85.570312 38.058594 85.582031 C 38.140625 85.660156 38.140625 85.792969 38.0625 85.875 C 38.03125 85.90625 37.992188 85.929688 37.949219 85.9375 Z M 37.949219 85.9375 " fill-opacity="1" fill-rule="nonzero"/><path fill="#512c1e" d="M 49.304688 85.15625 C 49.238281 85.15625 49.171875 85.121094 49.132812 85.058594 C 49.109375 85.027344 47.039062 81.773438 46.363281 77.835938 C 46.34375 77.722656 46.421875 77.613281 46.535156 77.59375 C 46.648438 77.574219 46.753906 77.652344 46.773438 77.765625 C 47.4375 81.617188 49.460938 84.800781 49.480469 84.835938 C 49.542969 84.929688 49.515625 85.058594 49.417969 85.121094 C 49.382812 85.144531 49.34375 85.15625 49.304688 85.15625 Z M 49.304688 85.15625 " fill-opacity="1" fill-rule="nonzero"/><path fill="#512c1e" d="M 55.292969 86.199219 C 55.210938 86.199219 55.132812 86.148438 55.101562 86.070312 C 55.082031 86.023438 53.230469 81.425781 52.800781 77.5 C 52.789062 77.382812 52.871094 77.28125 52.984375 77.269531 C 53.097656 77.257812 53.203125 77.339844 53.214844 77.453125 C 53.636719 81.320312 55.46875 85.867188 55.488281 85.910156 C 55.53125 86.019531 55.480469 86.140625 55.371094 86.183594 C 55.347656 86.195312 55.320312 86.199219 55.292969 86.199219 Z M 55.292969 86.199219 " fill-opacity="1" fill-rule="nonzero"/><path fill="#512c1e" d="M 66.191406 85.664062 C 66.148438 85.664062 66.109375 85.652344 66.070312 85.625 C 66.035156 85.601562 62.585938 83.140625 61.042969 78.695312 C 61.003906 78.585938 61.0625 78.464844 61.171875 78.429688 C 61.28125 78.390625 61.398438 78.449219 61.4375 78.558594 C 62.933594 82.875 66.277344 85.257812 66.308594 85.285156 C 66.402344 85.351562 66.425781 85.480469 66.359375 85.574219 C 66.320312 85.632812 66.257812 85.664062 66.191406 85.664062 Z M 66.191406 85.664062 " fill-opacity="1" fill-rule="nonzero"/><path fill="#512c1e" d="M 88.839844 80.585938 C 88.78125 80.585938 88.726562 80.5625 88.6875 80.515625 C 88.609375 80.433594 88.613281 80.300781 88.695312 80.222656 C 88.722656 80.199219 90.671875 78.273438 90.003906 72.113281 C 89.992188 72 90.074219 71.894531 90.1875 71.882812 C 90.300781 71.871094 90.402344 71.953125 90.417969 72.066406 C 91.113281 78.476562 89.066406 80.449219 88.980469 80.527344 C 88.941406 80.566406 88.890625 80.585938 88.839844 80.585938 Z M 88.839844 80.585938 " fill-opacity="1" fill-rule="nonzero"/><path fill="#512c1e" d="M 83.347656 83.335938 C 83.308594 83.335938 83.265625 83.324219 83.230469 83.296875 C 83.136719 83.230469 83.113281 83.101562 83.179688 83.007812 C 83.199219 82.976562 84.652344 80.796875 83.628906 75.757812 C 83.605469 75.644531 83.675781 75.535156 83.789062 75.511719 C 83.902344 75.488281 84.011719 75.558594 84.035156 75.671875 C 85.101562 80.921875 83.585938 83.15625 83.519531 83.246094 C 83.480469 83.304688 83.414062 83.335938 83.347656 83.335938 Z M 83.347656 83.335938 " fill-opacity="1" fill-rule="nonzero"/><path fill="#512c1e" d="M 74.691406 85.058594 C 74.628906 85.066406 74.5625 85.046875 74.511719 84.996094 C 74.433594 84.910156 74.441406 84.777344 74.523438 84.699219 C 74.539062 84.683594 75.921875 83.304688 75.460938 79.25 C 75.449219 79.136719 75.527344 79.027344 75.644531 79.019531 C 75.757812 79.007812 75.859375 79.089844 75.875 79.203125 C 76.363281 83.5 74.871094 84.945312 74.808594 85.003906 C 74.773438 85.035156 74.734375 85.054688 74.691406 85.058594 Z M 74.691406 85.058594 " fill-opacity="1" fill-rule="nonzero"/><path fill="#512c1e" d="M 77.722656 36.597656 C 77.722656 36.597656 74.453125 32.550781 67.421875 31.023438 C 67.171875 30.972656 66.953125 31.191406 67 31.441406 C 67.28125 32.949219 67.613281 37.578125 72.28125 38.714844 C 73.015625 38.894531 76.570312 39.636719 77.722656 36.597656 Z M 77.722656 36.597656 " fill-opacity="1" fill-rule="nonzero"/><g clip-path="url(#194587e608)"><path fill="#0e0606" d="M 35.65625 100.25 C 33.707031 100.617188 31.964844 100.789062 30.464844 100.746094 C 31.035156 95.628906 34.707031 94.515625 36.222656 94.277344 C 38.03125 97.140625 39.46875 99.527344 35.65625 100.25 Z M 35.65625 100.25 " fill-opacity="1" fill-rule="nonzero"/></g><path fill="#0e0606" d="M 59.234375 95.476562 C 59.113281 96.828125 59.359375 98.371094 55.425781 98.308594 C 54.328125 98.292969 53.320312 98.292969 52.410156 98.273438 C 53.265625 93.042969 56.210938 92.214844 57.691406 92.136719 C 57.695312 92.136719 57.695312 92.144531 57.699219 92.148438 C 58.128906 92.949219 59.359375 94.117188 59.234375 95.476562 Z M 59.234375 95.476562 " fill-opacity="1" fill-rule="nonzero"/><g clip-path="url(#5a8be325c6)"><path fill="#0e0606" d="M 76.050781 99.632812 C 74.523438 100.335938 72.277344 100.425781 70.226562 100.304688 C 70.132812 94.648438 74.746094 94.292969 76.433594 94.351562 C 76.457031 94.945312 76.53125 95.535156 76.660156 96.113281 C 76.933594 97.34375 77.125 99.136719 76.050781 99.632812 Z M 76.050781 99.632812 " fill-opacity="1" fill-rule="nonzero"/></g><path fill="#0e0606" d="M 92.773438 94.796875 C 91.128906 95.722656 89.238281 95.925781 87.578125 95.855469 C 87.421875 91.417969 91.015625 90.128906 92.820312 89.761719 C 92.902344 90.109375 93.007812 90.457031 93.128906 90.792969 C 93.601562 92.109375 94.039062 94.082031 92.773438 94.796875 Z M 92.773438 94.796875 " fill-opacity="1" fill-rule="nonzero"/><path fill="#ffffff" d="M 107.261719 37.527344 C 107.308594 39.085938 106.914062 40.539062 106.191406 41.707031 C 105.191406 43.335938 103.585938 44.425781 101.738281 44.480469 C 98.578125 44.578125 95.921875 41.617188 95.808594 37.875 C 95.695312 34.132812 98.167969 31.019531 101.328125 30.921875 C 103.175781 30.867188 104.839844 31.855469 105.941406 33.421875 C 106.730469 34.542969 107.214844 35.96875 107.261719 37.527344 Z M 107.261719 37.527344 " fill-opacity="1" fill-rule="nonzero"/><path fill="#0e0606" d="M 107.261719 37.527344 C 107.308594 39.085938 106.914062 40.539062 106.191406 41.707031 C 105.394531 42.597656 104.332031 43.148438 103.148438 43.183594 C 100.558594 43.265625 98.398438 40.851562 98.304688 37.800781 C 98.210938 34.75 100.222656 32.210938 102.816406 32.132812 C 103.996094 32.09375 105.089844 32.582031 105.941406 33.421875 C 106.730469 34.542969 107.214844 35.96875 107.261719 37.527344 Z M 107.261719 37.527344 " fill-opacity="1" fill-rule="nonzero"/><path fill="#512c1e" d="M 135.140625 47.753906 C 135.429688 45.90625 136.089844 40.9375 133.480469 39.039062 C 130.992188 37.226562 130.191406 38.472656 126.777344 38.367188 C 123.367188 38.265625 118.472656 35.21875 116.078125 38.851562 C 114.371094 41.433594 112.800781 48.03125 114.644531 52.402344 C 116.492188 56.777344 119.746094 57.15625 123.714844 57.363281 C 127.679688 57.570312 130.375 56.527344 132.335938 54.132812 C 134.300781 51.738281 134.820312 49.792969 135.140625 47.753906 Z M 135.140625 47.753906 " fill-opacity="1" fill-rule="nonzero"/><g clip-path="url(#c96e14a0a0)"><path fill="#e7a65f" d="M 89.9375 31.097656 C 91.011719 28.605469 89.667969 25.753906 87.078125 24.949219 C 84.984375 24.300781 81.773438 24.488281 80.695312 20.855469 C 78.039062 11.898438 74.949219 11.21875 70.875 11.535156 C 70.148438 11.589844 69.738281 12.390625 70.101562 13.023438 C 70.910156 14.425781 71.988281 16.800781 71.992188 19.515625 C 72.003906 23.863281 72.675781 27.65625 76.628906 31.078125 C 79.304688 33.390625 82.183594 33.941406 84.957031 33.875 C 87.050781 33.820312 89.058594 33.132812 89.890625 31.207031 C 89.90625 31.171875 89.921875 31.136719 89.9375 31.097656 Z M 89.9375 31.097656 " fill-opacity="1" fill-rule="nonzero"/></g><path fill="#512c1e" d="M 104.101562 56.769531 L 104.082031 56.769531 C 103.195312 56.765625 102.53125 56.5 102.113281 55.984375 C 101.429688 55.148438 101.65625 53.972656 101.664062 53.921875 C 101.6875 53.808594 101.796875 53.734375 101.910156 53.757812 C 102.023438 53.78125 102.097656 53.890625 102.074219 54.003906 C 102.070312 54.011719 101.878906 55.042969 102.4375 55.722656 C 102.773438 56.136719 103.328125 56.347656 104.082031 56.351562 L 104.101562 56.351562 C 104.808594 56.351562 105.320312 56.152344 105.628906 55.757812 C 106.203125 55.027344 105.917969 53.855469 105.914062 53.839844 C 105.886719 53.730469 105.953125 53.617188 106.066406 53.589844 C 106.175781 53.5625 106.289062 53.628906 106.316406 53.742188 C 106.332031 53.796875 106.652344 55.125 105.957031 56.015625 C 105.566406 56.515625 104.941406 56.769531 104.101562 56.769531 Z M 104.101562 56.769531 " fill-opacity="1" fill-rule="nonzero"/><path fill="#512c1e" d="M 73.304688 41.25 C 68.574219 41.25 66.128906 38.460938 66.023438 38.339844 C 65.949219 38.25 65.960938 38.121094 66.046875 38.046875 C 66.132812 37.96875 66.265625 37.980469 66.339844 38.066406 C 66.367188 38.097656 68.921875 41.003906 73.742188 40.824219 C 73.855469 40.808594 73.953125 40.910156 73.957031 41.023438 C 73.960938 41.140625 73.871094 41.238281 73.757812 41.242188 C 73.605469 41.246094 73.453125 41.25 73.304688 41.25 Z M 73.304688 41.25 " fill-opacity="1" fill-rule="nonzero"/><path fill="#512c1e" d="M 78.367188 34.152344 C 78.320312 34.152344 78.273438 34.136719 78.238281 34.105469 C 76.609375 32.757812 75.023438 31.707031 75.003906 31.695312 C 74.910156 31.632812 74.882812 31.503906 74.945312 31.40625 C 75.007812 31.3125 75.136719 31.285156 75.234375 31.347656 C 75.25 31.359375 76.855469 32.421875 78.5 33.78125 C 78.589844 33.855469 78.601562 33.988281 78.53125 34.074219 C 78.488281 34.125 78.429688 34.152344 78.367188 34.152344 Z M 78.367188 34.152344 " fill-opacity="1" fill-rule="nonzero"/></svg>