<svg xmlns="http://www.w3.org/2000/svg" xmlns:xlink="http://www.w3.org/1999/xlink" width="200" zoomAndPan="magnify" viewBox="0 0 150 149.999998" height="200" preserveAspectRatio="xMidYMid meet" version="1.0"><defs><clipPath id="7de4636cb0"><path d="M 34 15 L 140.71875 15 L 140.71875 114 L 34 114 Z M 34 15 " clip-rule="nonzero"/></clipPath><clipPath id="ecc6617157"><path d="M 12 22 L 114 22 L 114 134.25 L 12 134.25 Z M 12 22 " clip-rule="nonzero"/></clipPath></defs><g clip-path="url(#7de4636cb0)"><path fill="#000000" d="M 94.113281 113.390625 C 92.214844 113.390625 90.234375 113.289062 88.175781 113.0625 C 86.828125 112.917969 85.855469 111.714844 86.003906 110.371094 C 86.148438 109.03125 87.359375 108.0625 88.707031 108.207031 C 115.046875 111.058594 126.6875 92.5 126.804688 92.3125 C 127.121094 91.789062 127.628906 91.40625 128.21875 91.234375 C 134.980469 89.28125 135.363281 87.550781 135.367188 87.535156 C 135.40625 87.203125 134.75 86.449219 133.976562 85.875 C 127.492188 86.65625 121.308594 87.046875 115.4375 87.046875 C 93.988281 87.046875 76.679688 81.847656 63.804688 71.503906 C 44.773438 56.214844 42.734375 35.429688 42.65625 34.550781 C 42.628906 34.21875 42.667969 33.886719 42.773438 33.570312 L 46.898438 21.167969 L 39.796875 20.300781 L 39.324219 24.726562 C 39.183594 26.066406 37.972656 27.039062 36.625 26.898438 C 35.277344 26.753906 34.304688 25.550781 34.445312 24.210938 L 35.183594 17.3125 C 35.25 16.660156 35.582031 16.066406 36.097656 15.65625 C 36.609375 15.25 37.265625 15.066406 37.921875 15.148438 L 50.464844 16.683594 C 51.195312 16.773438 51.847656 17.183594 52.242188 17.800781 C 52.632812 18.417969 52.726562 19.179688 52.496094 19.875 L 47.601562 34.589844 C 48.019531 37.640625 51.042969 55.019531 66.957031 67.761719 C 82.4375 80.152344 105.082031 84.582031 134.25 80.917969 C 134.765625 80.855469 135.285156 80.953125 135.738281 81.203125 C 136.246094 81.480469 140.691406 84.039062 140.242188 88.070312 C 139.785156 92.207031 134.660156 94.378906 130.449219 95.671875 C 129.25 97.375 126.070312 101.4375 120.664062 105.246094 C 115.15625 109.125 106.324219 113.390625 94.113281 113.390625 " fill-opacity="1" fill-rule="nonzero"/></g><g clip-path="url(#ecc6617157)"><path fill="#000000" d="M 33.148438 109.601562 C 46.308594 122.679688 60.203125 129.3125 74.460938 129.3125 C 89.476562 129.3125 99.460938 121.800781 99.558594 121.722656 C 99.988281 121.394531 100.515625 121.214844 101.054688 121.214844 C 108.097656 121.214844 108.949219 119.664062 108.957031 119.644531 C 109.085938 119.335938 108.667969 118.4375 108.085938 117.667969 C 78.09375 112.789062 56.777344 101.59375 44.71875 84.394531 C 30.71875 64.429688 34.578125 43.898438 34.75 43.035156 C 34.816406 42.710938 34.945312 42.398438 35.136719 42.125 L 42.566406 31.359375 L 35.996094 28.554688 L 29.46875 44.433594 C 29.347656 44.734375 29.164062 45.003906 28.933594 45.234375 C 17.441406 56.675781 14.617188 70.921875 20.539062 87.570312 C 24.867188 99.738281 32.460938 108.800781 33.148438 109.601562 Z M 74.460938 134.195312 C 58.832031 134.195312 43.742188 127.0625 29.613281 112.992188 C 29.574219 112.953125 29.535156 112.910156 29.5 112.871094 C 29.140625 112.460938 20.734375 102.757812 15.914062 89.203125 C 9.460938 71.054688 12.640625 54.792969 25.113281 42.136719 L 32.398438 24.40625 C 32.648438 23.796875 33.128906 23.316406 33.738281 23.070312 C 34.347656 22.820312 35.03125 22.828125 35.632812 23.085938 L 47.25 28.042969 C 47.925781 28.332031 48.4375 28.90625 48.640625 29.609375 C 48.847656 30.3125 48.722656 31.070312 48.308594 31.671875 L 39.488281 44.445312 C 39.035156 47.488281 37.074219 65.019531 48.792969 81.671875 C 60.191406 97.867188 80.695312 108.402344 109.738281 112.984375 C 110.25 113.0625 110.722656 113.304688 111.089844 113.667969 C 111.496094 114.078125 115.050781 117.765625 113.488281 121.515625 C 111.878906 125.390625 106.273438 126.035156 101.851562 126.097656 C 99.148438 127.953125 88.964844 134.195312 74.460938 134.195312 " fill-opacity="1" fill-rule="nonzero"/></g></svg>