<svg xmlns="http://www.w3.org/2000/svg" xmlns:xlink="http://www.w3.org/1999/xlink" width="200" zoomAndPan="magnify" viewBox="0 0 150 112.499997" height="150" preserveAspectRatio="xMidYMid meet" version="1.0"><defs><clipPath id="723f098545"><path d="M 70 38 L 80 38 L 80 100.800781 L 70 100.800781 Z M 70 38 " clip-rule="nonzero"/></clipPath><clipPath id="190398d31e"><path d="M 43.070312 11.21875 L 107.28125 11.21875 L 107.28125 75.179688 L 43.070312 75.179688 Z M 43.070312 11.21875 " clip-rule="nonzero"/></clipPath></defs><g clip-path="url(#723f098545)"><path fill="#ef3220" d="M 79.96875 43.75 C 79.96875 44.101562 79.9375 44.445312 79.871094 44.769531 C 79.644531 45.917969 79.042969 46.851562 78.179688 47.402344 C 78.011719 47.507812 77.832031 47.601562 77.640625 47.683594 C 77.609375 49.234375 77.460938 50.699219 77.460938 51.128906 C 77.460938 56.71875 77.460938 62.308594 77.460938 67.894531 C 77.460938 77.503906 77.460938 87.113281 77.460938 96.722656 C 77.460938 97.492188 78.011719 98.617188 77.460938 99.164062 C 76.855469 99.765625 73.796875 100.789062 73.402344 99.226562 C 73.261719 98.671875 73.402344 97.890625 73.402344 97.324219 C 73.402344 95.78125 73.402344 94.234375 73.402344 92.6875 C 73.402344 82.140625 73.402344 71.59375 73.402344 61.046875 C 73.402344 56.664062 73.402344 52.277344 73.402344 47.894531 C 73.402344 47.769531 73.398438 47.644531 73.398438 47.519531 C 73.371094 47.507812 73.339844 47.5 73.3125 47.488281 C 72.449219 47.09375 71.761719 46.535156 71.332031 45.867188 C 70.675781 44.851562 70.585938 43.515625 71.078125 42.203125 C 71.199219 41.878906 71.355469 41.5625 71.542969 41.261719 C 71.960938 40.578125 72.515625 40.007812 73.144531 39.609375 C 73.84375 39.160156 74.652344 38.925781 75.484375 38.921875 C 75.84375 38.921875 76.191406 38.964844 76.527344 39.046875 C 77.628906 39.308594 78.570312 39.972656 79.175781 40.917969 C 79.691406 41.714844 79.972656 42.71875 79.96875 43.75 " fill-opacity="1" fill-rule="nonzero"/></g><path fill="#397dc9" d="M 82.371094 54.976562 C 81.316406 53.214844 80.328125 51.140625 79.589844 49.996094 C 79.285156 49.519531 78.464844 48.46875 77.632812 47.269531 C 76.695312 47.71875 75.492188 47.75 74.378906 47.460938 C 74.21875 47.417969 74.0625 47.371094 73.90625 47.316406 C 73.824219 47.683594 73.75 48.066406 73.703125 48.476562 C 73.554688 49.753906 73.378906 51.003906 73.117188 52.28125 C 72.511719 55.226562 71.832031 58.183594 71.132812 61.125 C 70.757812 62.710938 68.207031 67.886719 69.273438 69.035156 C 69.503906 69.285156 69.863281 69.347656 70.304688 69.289062 C 72.375 68.996094 76.261719 65.832031 77.324219 65.15625 C 79.261719 63.917969 83.847656 61.980469 85.128906 60.207031 C 85.179688 60.136719 85.21875 60.058594 85.246094 59.972656 C 84.195312 58.101562 83.179688 56.339844 82.371094 54.976562 Z M 71.347656 36.296875 C 70.609375 35.152344 69.621094 33.078125 68.566406 31.316406 C 67.644531 29.753906 66.453125 27.683594 65.242188 25.519531 C 66.546875 23.75 71.097656 21.824219 73.027344 20.59375 C 74.085938 19.917969 77.972656 16.753906 80.042969 16.464844 C 80.484375 16.402344 80.84375 16.464844 81.078125 16.714844 C 82.140625 17.863281 79.589844 23.039062 79.214844 24.625 C 78.519531 27.566406 77.839844 30.523438 77.230469 33.46875 C 76.96875 34.746094 76.792969 35.996094 76.648438 37.273438 C 76.558594 38.042969 76.382812 38.714844 76.199219 39.363281 C 75.964844 39.320312 75.726562 39.300781 75.488281 39.300781 C 74.902344 39.304688 74.316406 39.433594 73.765625 39.699219 C 72.792969 38.230469 71.710938 36.859375 71.347656 36.296875 " fill-opacity="1" fill-rule="nonzero"/><g clip-path="url(#190398d31e)"><path fill="#45b83a" d="M 72.074219 46.1875 C 71.96875 46.238281 71.871094 46.285156 71.785156 46.320312 C 68.980469 47.558594 60.042969 54.472656 58.039062 53.042969 C 57.960938 52.984375 57.878906 52.917969 57.800781 52.851562 C 53.378906 55.308594 48.480469 57.917969 46.742188 58.65625 C 45.90625 59.011719 43.847656 60.109375 43.3125 60.859375 C 43.007812 61.289062 42.746094 62.226562 44.121094 62.414062 C 45.835938 62.648438 47.128906 63.398438 48.941406 63.683594 C 50.269531 63.894531 51.566406 64.132812 52.894531 64.464844 C 55.960938 65.230469 59.046875 66.074219 62.113281 66.9375 C 63.746094 67.398438 69.058594 70.238281 70.304688 69.289062 C 69.863281 69.347656 69.503906 69.285156 69.273438 69.035156 C 68.207031 67.886719 70.757812 62.710938 71.132812 61.125 C 71.832031 58.183594 72.511719 55.226562 73.117188 52.28125 C 73.378906 51.003906 73.554688 49.753906 73.703125 48.476562 C 73.75 48.066406 73.824219 47.683594 73.90625 47.316406 C 73.761719 47.265625 73.613281 47.207031 73.472656 47.140625 C 72.9375 46.898438 72.457031 46.578125 72.074219 46.1875 Z M 49.164062 37.277344 C 50.316406 36.21875 55.519531 38.753906 57.117188 39.128906 C 60.074219 39.820312 63.046875 40.496094 66.011719 41.097656 C 67.292969 41.359375 68.550781 41.535156 69.835938 41.679688 C 70.464844 41.753906 71.027344 41.882812 71.566406 42.027344 C 71.652344 41.832031 71.753906 41.640625 71.867188 41.457031 C 72.246094 40.84375 72.757812 40.304688 73.351562 39.925781 C 73.484375 39.839844 73.625 39.765625 73.765625 39.699219 C 72.792969 38.230469 71.710938 36.859375 71.347656 36.296875 C 70.609375 35.152344 69.621094 33.078125 68.566406 31.316406 C 67.644531 29.753906 66.453125 27.683594 65.242188 25.519531 C 62.828125 21.214844 60.320312 16.558594 59.597656 14.875 C 59.242188 14.042969 58.136719 11.996094 57.382812 11.464844 C 56.949219 11.160156 56.007812 10.898438 55.820312 12.265625 C 55.582031 13.972656 54.828125 15.257812 54.542969 17.0625 C 54.332031 18.378906 54.09375 19.667969 53.757812 20.992188 C 52.984375 24.042969 52.136719 27.109375 51.269531 30.15625 C 50.808594 31.78125 47.953125 37.0625 48.90625 38.304688 C 48.847656 37.867188 48.910156 37.507812 49.164062 37.277344 Z M 101.777344 49.015625 C 100.625 50.074219 95.417969 47.539062 93.820312 47.164062 C 90.863281 46.46875 87.890625 45.796875 84.929688 45.191406 C 83.644531 44.929688 82.386719 44.753906 81.105469 44.609375 C 80.542969 44.546875 80.039062 44.4375 79.554688 44.3125 C 79.542969 44.441406 79.523438 44.570312 79.496094 44.695312 C 79.304688 45.671875 78.804688 46.554688 77.972656 47.082031 C 77.867188 47.152344 77.75 47.214844 77.632812 47.269531 C 78.464844 48.46875 79.285156 49.519531 79.589844 49.996094 C 80.328125 51.140625 81.316406 53.214844 82.371094 54.976562 C 83.179688 56.339844 84.195312 58.101562 85.246094 59.972656 C 87.789062 64.480469 90.570312 69.628906 91.339844 71.417969 C 91.695312 72.246094 92.804688 74.296875 93.554688 74.824219 C 93.988281 75.128906 94.933594 75.394531 95.121094 74.023438 C 95.355469 72.320312 96.109375 71.035156 96.398438 69.230469 C 96.605469 67.914062 96.847656 66.621094 97.179688 65.300781 C 97.953125 62.25 98.800781 59.183594 99.667969 56.132812 C 100.132812 54.511719 102.984375 49.226562 102.03125 47.988281 C 102.09375 48.425781 102.027344 48.785156 101.777344 49.015625 Z M 107.035156 24.890625 C 106.5 25.640625 104.441406 26.738281 103.605469 27.09375 C 101.828125 27.847656 96.761719 30.554688 92.265625 33.058594 C 89.457031 32.925781 81.722656 38.835938 79.15625 39.96875 C 78.929688 40.066406 78.613281 40.222656 78.261719 40.410156 C 77.746094 39.914062 77.113281 39.574219 76.4375 39.414062 C 76.359375 39.394531 76.277344 39.378906 76.199219 39.363281 C 76.382812 38.714844 76.558594 38.042969 76.648438 37.273438 C 76.792969 35.996094 76.96875 34.746094 77.230469 33.46875 C 77.839844 30.523438 78.519531 27.566406 79.214844 24.625 C 79.589844 23.039062 82.140625 17.863281 81.078125 16.714844 C 80.84375 16.464844 80.484375 16.402344 80.042969 16.464844 C 81.289062 15.515625 86.605469 18.351562 88.238281 18.8125 C 91.304688 19.675781 94.386719 20.519531 97.453125 21.285156 C 98.785156 21.617188 100.082031 21.859375 101.40625 22.066406 C 103.222656 22.351562 104.515625 23.101562 106.230469 23.335938 C 107.605469 23.523438 107.339844 24.460938 107.035156 24.890625 " fill-opacity="1" fill-rule="nonzero"/></g><path fill="#f8e505" d="M 102.03125 47.988281 C 101.738281 45.929688 98.558594 42.0625 97.875 41.007812 C 96.632812 39.082031 94.683594 34.519531 92.902344 33.25 C 92.734375 33.128906 92.519531 33.070312 92.265625 33.058594 C 89.457031 32.925781 81.722656 38.835938 79.15625 39.96875 C 78.929688 40.066406 78.613281 40.222656 78.261719 40.410156 C 78.484375 40.621094 78.683594 40.855469 78.855469 41.125 C 79.34375 41.878906 79.589844 42.820312 79.589844 43.746094 C 79.589844 43.9375 79.578125 44.125 79.554688 44.3125 C 80.039062 44.4375 80.542969 44.546875 81.105469 44.609375 C 82.386719 44.753906 83.644531 44.929688 84.929688 45.191406 C 87.890625 45.796875 90.863281 46.46875 93.820312 47.164062 C 95.417969 47.539062 100.625 50.074219 101.777344 49.015625 C 102.027344 48.785156 102.09375 48.425781 102.03125 47.988281 Z M 71.652344 45.664062 C 71.773438 45.847656 71.917969 46.023438 72.074219 46.1875 C 71.96875 46.238281 71.871094 46.285156 71.785156 46.320312 C 68.980469 47.558594 60.042969 54.472656 58.039062 53.042969 C 57.960938 52.984375 57.878906 52.917969 57.800781 52.851562 C 56.082031 51.367188 54.25 47.121094 53.0625 45.28125 C 52.382812 44.226562 49.199219 40.363281 48.90625 38.304688 C 48.847656 37.867188 48.910156 37.507812 49.164062 37.277344 C 50.316406 36.21875 55.519531 38.753906 57.117188 39.128906 C 60.074219 39.820312 63.046875 40.496094 66.011719 41.097656 C 67.292969 41.359375 68.550781 41.535156 69.835938 41.679688 C 70.464844 41.753906 71.027344 41.882812 71.566406 42.027344 C 71.519531 42.128906 71.472656 42.230469 71.433594 42.335938 C 71.015625 43.449219 71.019531 44.679688 71.652344 45.664062 " fill-opacity="1" fill-rule="nonzero"/><path fill="#110f0d" d="M 102.070312 48.296875 L 79.589844 43.746094 C 79.589844 44.070312 79.558594 44.386719 79.496094 44.695312 L 101.878906 49.226562 C 101.914062 49.234375 101.945312 49.234375 101.976562 49.234375 C 102.199219 49.234375 102.398438 49.082031 102.441406 48.855469 C 102.496094 48.601562 102.328125 48.351562 102.070312 48.296875 Z M 80.96875 16.761719 C 80.710938 16.707031 80.457031 16.867188 80.402344 17.125 L 75.488281 39.300781 C 75.808594 39.300781 76.128906 39.339844 76.4375 39.414062 L 81.332031 17.328125 C 81.386719 17.074219 81.226562 16.820312 80.96875 16.761719 Z M 71.867188 41.457031 L 49.445312 36.6875 C 49.1875 36.632812 48.9375 36.792969 48.882812 37.050781 C 48.828125 37.304688 48.992188 37.558594 49.246094 37.613281 L 71.433594 42.335938 C 71.550781 42.03125 71.695312 41.738281 71.867188 41.457031 Z M 73.472656 47.140625 C 73.761719 47.273438 74.066406 47.378906 74.378906 47.460938 L 69.757812 69.566406 C 69.710938 69.789062 69.515625 69.945312 69.292969 69.945312 C 69.261719 69.945312 69.230469 69.941406 69.195312 69.933594 C 68.9375 69.882812 68.773438 69.628906 68.828125 69.375 L 73.472656 47.140625 " fill-opacity="1" fill-rule="nonzero"/></svg>