<svg xmlns="http://www.w3.org/2000/svg" xmlns:xlink="http://www.w3.org/1999/xlink" width="200" zoomAndPan="magnify" viewBox="0 0 150 112.499997" height="150" preserveAspectRatio="xMidYMid meet" version="1.0"><path fill="#5c913b" d="M 27.867188 21.28125 C 25.007812 27.722656 23.410156 34.808594 23.410156 42.261719 C 23.410156 71.53125 47.8125 95.257812 77.917969 95.257812 C 101.375 95.257812 121.3125 80.820312 128.996094 60.613281 Z M 27.867188 21.28125 " fill-opacity="1" fill-rule="nonzero"/><path fill="#ffe8b6" d="M 33.5 23.472656 C 30.914062 29.230469 29.464844 35.578125 29.464844 42.261719 C 29.464844 68.277344 51.160156 89.371094 77.917969 89.371094 C 98.824219 89.371094 116.585938 76.46875 123.378906 58.425781 Z M 33.5 23.472656 " fill-opacity="1" fill-rule="nonzero"/><path fill="#dd2e44" d="M 39.128906 25.664062 C 36.824219 30.746094 35.523438 36.351562 35.523438 42.261719 C 35.523438 65.027344 54.503906 83.480469 77.917969 83.480469 C 96.273438 83.480469 111.863281 72.113281 117.753906 56.242188 Z M 39.128906 25.664062 " fill-opacity="1" fill-rule="nonzero"/><path fill="#000000" d="M 50.410156 44.617188 C 49.480469 46.007812 48.164062 46.757812 47.46875 46.296875 C 46.773438 45.832031 46.960938 44.332031 47.890625 42.9375 C 48.820312 41.542969 50.132812 40.792969 50.828125 41.257812 C 51.527344 41.71875 51.339844 43.222656 50.410156 44.617188 Z M 68.578125 47.644531 C 67.648438 49.035156 66.332031 49.789062 65.636719 49.324219 C 64.941406 48.859375 65.128906 47.359375 66.058594 45.964844 C 66.988281 44.574219 68.300781 43.820312 69 44.285156 C 69.695312 44.75 69.507812 46.25 68.578125 47.644531 Z M 83.96875 61.808594 C 84.117188 63.476562 83.566406 64.886719 82.738281 64.960938 C 81.90625 65.039062 81.109375 63.75 80.957031 62.082031 C 80.800781 60.414062 81.355469 59.003906 82.1875 58.933594 C 83.019531 58.855469 83.816406 60.136719 83.96875 61.808594 Z M 56.714844 55.753906 C 56.863281 57.421875 56.3125 58.828125 55.484375 58.90625 C 54.652344 58.980469 53.855469 57.695312 53.703125 56.027344 C 53.550781 54.355469 54.101562 52.949219 54.933594 52.875 C 55.769531 52.796875 56.5625 54.082031 56.714844 55.753906 Z M 68.527344 71.941406 C 67.519531 73.277344 66.164062 73.949219 65.496094 73.445312 C 64.828125 72.945312 65.105469 71.453125 66.117188 70.117188 C 67.128906 68.785156 68.484375 68.113281 69.148438 68.613281 C 69.816406 69.117188 69.539062 70.605469 68.527344 71.941406 Z M 92.859375 73.316406 C 93.6875 74.773438 93.765625 76.28125 93.042969 76.691406 C 92.3125 77.109375 91.054688 76.261719 90.230469 74.804688 C 89.402344 73.351562 89.324219 71.839844 90.050781 71.425781 C 90.78125 71.007812 92.035156 71.855469 92.859375 73.316406 Z M 71.613281 58.089844 C 72.53125 59.492188 72.707031 60.992188 72.007812 61.449219 C 71.308594 61.910156 70 61.148438 69.082031 59.746094 C 68.164062 58.347656 67.988281 56.847656 68.6875 56.390625 C 69.386719 55.925781 70.695312 56.6875 71.613281 58.089844 Z M 98.808594 62.859375 C 97.800781 64.191406 96.445312 64.863281 95.777344 64.363281 C 95.109375 63.859375 95.386719 62.371094 96.398438 61.035156 C 97.40625 59.695312 98.761719 59.027344 99.425781 59.53125 C 100.097656 60.03125 99.824219 61.519531 98.808594 62.859375 Z M 98.808594 62.859375 " fill-opacity="1" fill-rule="nonzero"/></svg>