<svg xmlns="http://www.w3.org/2000/svg" xmlns:xlink="http://www.w3.org/1999/xlink" width="300" zoomAndPan="magnify" viewBox="0 0 224.87999 225" height="300" preserveAspectRatio="xMidYMid meet" version="1.0"><defs><clipPath id="1ada215433"><path d="M 39.765625 22.546875 L 185.1875 22.546875 L 185.1875 202.453125 L 39.765625 202.453125 Z M 39.765625 22.546875 " clip-rule="nonzero"/></clipPath><clipPath id="a5246c43bb"><path d="M 39.765625 30 L 172 30 L 172 202.453125 L 39.765625 202.453125 Z M 39.765625 30 " clip-rule="nonzero"/></clipPath><clipPath id="059ce0db25"><path d="M 42 22.546875 L 184 22.546875 L 184 35 L 42 35 Z M 42 22.546875 " clip-rule="nonzero"/></clipPath><clipPath id="3398b1370e"><path d="M 167 24 L 185.1875 24 L 185.1875 68 L 167 68 Z M 167 24 " clip-rule="nonzero"/></clipPath></defs><path fill="#000000" d="M 178.261719 23.171875 L 60.417969 23.171875 C 59.058594 23.171875 57.800781 23.613281 56.777344 24.347656 L 43.324219 32.5 C 41.59375 33.609375 40.441406 35.546875 40.441406 37.757812 L 40.441406 62.097656 C 40.441406 65.546875 43.238281 68.34375 46.6875 68.34375 L 87.183594 68.34375 L 87.183594 195.578125 C 87.183594 199.027344 89.980469 201.820312 93.429688 201.820312 L 117.789062 201.820312 C 118.933594 201.820312 120 201.507812 120.925781 200.972656 L 120.925781 200.976562 L 134.617188 192.65625 C 136.496094 191.578125 137.765625 189.558594 137.765625 187.238281 L 137.765625 68.34375 L 164.53125 68.34375 C 165.804688 68.34375 166.984375 67.960938 167.972656 67.308594 L 181.535156 59.074219 L 181.53125 59.074219 C 183.316406 57.972656 184.507812 56.007812 184.507812 53.761719 L 184.507812 29.417969 C 184.507812 25.96875 181.710938 23.171875 178.261719 23.171875 Z M 178.261719 23.171875 " fill-opacity="1" fill-rule="nonzero"/><g clip-path="url(#1ada215433)"><path fill="#000000" d="M 117.789062 202.445312 L 93.429688 202.445312 C 89.640625 202.445312 86.558594 199.363281 86.558594 195.578125 L 86.558594 68.96875 L 46.6875 68.96875 C 42.898438 68.96875 39.816406 65.886719 39.816406 62.097656 L 39.816406 37.757812 C 39.816406 35.417969 40.992188 33.265625 42.960938 31.988281 C 42.976562 31.980469 42.988281 31.972656 43 31.964844 L 56.453125 23.8125 C 57.625 22.984375 58.992188 22.546875 60.417969 22.546875 L 178.261719 22.546875 C 182.050781 22.546875 185.132812 25.628906 185.132812 29.417969 L 185.132812 53.761719 C 185.132812 56.140625 183.925781 58.308594 181.902344 59.578125 C 181.890625 59.589844 181.875 59.597656 181.859375 59.609375 L 168.296875 67.84375 C 168.296875 67.84375 168.296875 67.84375 168.292969 67.847656 C 167.171875 68.582031 165.871094 68.96875 164.53125 68.96875 L 138.390625 68.96875 L 138.390625 187.238281 C 138.390625 189.679688 137.078125 191.949219 134.960938 193.179688 C 134.953125 193.183594 134.949219 193.1875 134.941406 193.191406 L 121.25 201.507812 C 121.230469 201.523438 121.207031 201.535156 121.183594 201.542969 C 120.148438 202.132812 118.972656 202.445312 117.789062 202.445312 Z M 43.675781 33.015625 C 43.671875 33.019531 43.667969 33.023438 43.664062 33.023438 C 42.035156 34.066406 41.066406 35.835938 41.066406 37.757812 L 41.066406 62.097656 C 41.066406 65.199219 43.585938 67.71875 46.6875 67.71875 L 87.183594 67.71875 C 87.527344 67.71875 87.808594 68 87.808594 68.34375 L 87.808594 195.578125 C 87.808594 198.675781 90.332031 201.199219 93.429688 201.199219 L 117.789062 201.199219 C 118.773438 201.199219 119.75 200.933594 120.609375 200.433594 C 120.625 200.425781 120.640625 200.417969 120.652344 200.410156 L 134.261719 192.144531 C 134.273438 192.132812 134.289062 192.125 134.304688 192.113281 C 136.054688 191.113281 137.140625 189.246094 137.140625 187.238281 L 137.140625 68.34375 C 137.140625 68 137.421875 67.71875 137.765625 67.71875 L 164.53125 67.71875 C 165.636719 67.71875 166.707031 67.398438 167.628906 66.789062 C 167.644531 66.777344 167.65625 66.769531 167.671875 66.761719 L 181.167969 58.566406 C 181.179688 58.558594 181.191406 58.550781 181.203125 58.542969 C 182.882812 57.507812 183.882812 55.71875 183.882812 53.761719 L 183.882812 29.417969 C 183.882812 26.320312 181.359375 23.796875 178.261719 23.796875 L 60.417969 23.796875 C 59.238281 23.796875 58.105469 24.164062 57.140625 24.855469 C 57.113281 24.875 57.085938 24.894531 57.054688 24.910156 Z M 43.675781 33.015625 " fill-opacity="1" fill-rule="nonzero"/></g><path fill="#ffffff" d="M 87.183594 195.578125 L 87.183594 68.34375 L 46.6875 68.34375 C 43.238281 68.34375 40.441406 65.546875 40.441406 62.097656 L 40.441406 37.757812 C 40.441406 34.308594 43.238281 31.511719 46.6875 31.511719 L 164.53125 31.511719 C 167.984375 31.511719 170.78125 34.308594 170.78125 37.757812 L 170.78125 62.097656 C 170.78125 65.546875 167.984375 68.34375 164.53125 68.34375 L 124.035156 68.34375 L 124.035156 195.578125 C 124.035156 199.027344 121.238281 201.820312 117.789062 201.820312 L 93.433594 201.820312 C 89.980469 201.820312 87.183594 199.027344 87.183594 195.578125 Z M 87.183594 195.578125 " fill-opacity="1" fill-rule="nonzero"/><g clip-path="url(#a5246c43bb)"><path fill="#000000" d="M 117.789062 202.445312 L 93.433594 202.445312 C 89.640625 202.445312 86.558594 199.363281 86.558594 195.578125 L 86.558594 68.96875 L 46.6875 68.96875 C 42.898438 68.96875 39.816406 65.886719 39.816406 62.097656 L 39.816406 37.757812 C 39.816406 33.96875 42.898438 30.886719 46.6875 30.886719 L 164.53125 30.886719 C 168.320312 30.886719 171.40625 33.96875 171.40625 37.757812 L 171.40625 62.097656 C 171.40625 65.886719 168.320312 68.96875 164.53125 68.96875 L 124.660156 68.96875 L 124.660156 195.578125 C 124.660156 199.363281 121.578125 202.445312 117.789062 202.445312 Z M 46.6875 32.136719 C 43.585938 32.136719 41.066406 34.65625 41.066406 37.757812 L 41.066406 62.097656 C 41.066406 65.199219 43.585938 67.71875 46.6875 67.71875 L 87.183594 67.71875 C 87.527344 67.71875 87.808594 68 87.808594 68.34375 L 87.808594 195.578125 C 87.808594 198.675781 90.332031 201.199219 93.433594 201.199219 L 117.789062 201.199219 C 120.890625 201.199219 123.410156 198.675781 123.410156 195.578125 L 123.410156 68.34375 C 123.410156 68 123.691406 67.71875 124.035156 67.71875 L 164.53125 67.71875 C 167.632812 67.71875 170.15625 65.199219 170.15625 62.097656 L 170.15625 37.757812 C 170.15625 34.65625 167.632812 32.136719 164.53125 32.136719 Z M 46.6875 32.136719 " fill-opacity="1" fill-rule="nonzero"/></g><path fill="#c2b092" d="M 124.035156 195.578125 C 124.035156 197.882812 122.785156 199.890625 120.925781 200.972656 L 134.617188 192.65625 C 136.496094 191.578125 137.765625 189.558594 137.765625 187.238281 L 137.765625 68.34375 L 124.035156 68.34375 Z M 124.035156 195.578125 " fill-opacity="1" fill-rule="nonzero"/><path fill="#000000" d="M 120.925781 201.597656 C 120.738281 201.597656 120.550781 201.515625 120.429688 201.355469 C 120.320312 201.210938 120.277344 201.027344 120.3125 200.851562 C 120.347656 200.675781 120.457031 200.523438 120.609375 200.433594 C 122.339844 199.425781 123.410156 197.566406 123.410156 195.578125 L 123.410156 68.34375 C 123.410156 68 123.691406 67.71875 124.035156 67.71875 L 137.765625 67.71875 C 138.109375 67.71875 138.390625 68 138.390625 68.34375 L 138.390625 187.238281 C 138.390625 189.679688 137.078125 191.949219 134.960938 193.179688 C 134.953125 193.183594 134.949219 193.1875 134.941406 193.191406 L 121.25 201.507812 C 121.148438 201.570312 121.039062 201.597656 120.925781 201.597656 Z M 124.660156 68.96875 L 124.660156 195.578125 C 124.660156 196.535156 124.457031 197.472656 124.082031 198.328125 L 134.261719 192.144531 C 134.273438 192.132812 134.289062 192.125 134.304688 192.113281 C 136.054688 191.113281 137.140625 189.246094 137.140625 187.238281 L 137.140625 68.96875 Z M 124.660156 68.96875 " fill-opacity="1" fill-rule="nonzero"/><path fill="#c2b092" d="M 178.261719 23.171875 L 60.417969 23.171875 C 59.058594 23.171875 57.800781 23.613281 56.777344 24.347656 L 43.324219 32.5 C 44.296875 31.875 45.449219 31.511719 46.6875 31.511719 L 164.53125 31.511719 C 166.371094 31.511719 168.023438 32.3125 169.164062 33.578125 L 182.90625 25.253906 C 181.761719 23.980469 180.105469 23.171875 178.261719 23.171875 Z M 178.261719 23.171875 " fill-opacity="1" fill-rule="nonzero"/><g clip-path="url(#059ce0db25)"><path fill="#000000" d="M 169.167969 34.203125 C 168.992188 34.203125 168.824219 34.132812 168.703125 33.996094 C 167.632812 32.816406 166.113281 32.136719 164.53125 32.136719 L 46.6875 32.136719 C 45.703125 32.136719 44.738281 32.398438 43.882812 32.890625 L 43.683594 33.011719 C 43.675781 33.015625 43.671875 33.019531 43.664062 33.023438 C 43.488281 33.136719 43.265625 33.15625 43.074219 33.070312 C 42.863281 32.976562 42.71875 32.773438 42.703125 32.539062 C 42.6875 32.308594 42.800781 32.085938 43 31.964844 L 43.023438 31.949219 C 43.097656 31.90625 43.171875 31.859375 43.246094 31.816406 L 56.453125 23.8125 C 57.625 22.984375 58.992188 22.546875 60.417969 22.546875 L 178.261719 22.546875 C 180.203125 22.546875 182.066406 23.382812 183.371094 24.835938 C 183.496094 24.972656 183.550781 25.160156 183.523438 25.34375 C 183.496094 25.527344 183.390625 25.691406 183.230469 25.785156 L 169.488281 34.113281 C 169.390625 34.171875 169.277344 34.203125 169.167969 34.203125 Z M 47.1875 30.886719 L 164.53125 30.886719 C 166.292969 30.886719 167.992188 31.574219 169.265625 32.789062 L 181.890625 25.136719 C 180.882812 24.277344 179.59375 23.796875 178.261719 23.796875 L 60.417969 23.796875 C 59.238281 23.796875 58.105469 24.164062 57.140625 24.855469 C 57.113281 24.875 57.085938 24.894531 57.054688 24.910156 Z M 47.1875 30.886719 " fill-opacity="1" fill-rule="nonzero"/></g><path fill="#c2b092" d="M 169.164062 33.578125 C 170.167969 34.6875 170.78125 36.148438 170.78125 37.757812 L 170.78125 62.097656 C 170.78125 64.277344 169.664062 66.191406 167.972656 67.308594 L 181.535156 59.074219 L 181.53125 59.074219 C 183.316406 57.972656 184.507812 56.007812 184.507812 53.761719 L 184.507812 29.417969 C 184.507812 27.816406 183.898438 26.359375 182.90625 25.253906 Z M 169.164062 33.578125 " fill-opacity="1" fill-rule="nonzero"/><g clip-path="url(#3398b1370e)"><path fill="#000000" d="M 167.972656 67.933594 C 167.867188 67.933594 167.761719 67.90625 167.667969 67.855469 C 167.46875 67.742188 167.347656 67.535156 167.347656 67.308594 C 167.347656 67.101562 167.453125 66.902344 167.628906 66.789062 C 169.210938 65.742188 170.15625 63.988281 170.15625 62.097656 L 170.15625 37.757812 C 170.15625 36.371094 169.640625 35.035156 168.703125 33.996094 C 168.578125 33.859375 168.519531 33.671875 168.546875 33.488281 C 168.574219 33.304688 168.683594 33.140625 168.839844 33.042969 L 182.582031 24.71875 C 182.839844 24.5625 183.171875 24.613281 183.371094 24.835938 C 184.507812 26.101562 185.132812 27.726562 185.132812 29.417969 L 185.132812 53.761719 C 185.132812 56.140625 183.925781 58.308594 181.902344 59.578125 C 181.890625 59.589844 181.875 59.597656 181.859375 59.609375 L 168.296875 67.84375 C 168.199219 67.90625 168.085938 67.933594 167.972656 67.933594 Z M 170.101562 33.742188 C 170.945312 34.910156 171.40625 36.308594 171.40625 37.757812 L 171.40625 62.097656 C 171.40625 63.058594 171.207031 63.988281 170.835938 64.84375 L 181.167969 58.566406 C 181.179688 58.558594 181.191406 58.550781 181.203125 58.542969 C 182.882812 57.507812 183.882812 55.71875 183.882812 53.761719 L 183.882812 29.417969 C 183.882812 28.207031 183.492188 27.035156 182.765625 26.066406 Z M 170.101562 33.742188 " fill-opacity="1" fill-rule="nonzero"/></g></svg>