<svg xmlns="http://www.w3.org/2000/svg" xmlns:xlink="http://www.w3.org/1999/xlink" width="200" zoomAndPan="magnify" viewBox="0 0 150 112.499997" height="150" preserveAspectRatio="xMidYMid meet" version="1.0"><defs><clipPath id="377c69ed7e"><path d="M 36.269531 36.222656 L 114 36.222656 L 114 100.800781 L 36.269531 100.800781 Z M 36.269531 36.222656 " clip-rule="nonzero"/></clipPath><clipPath id="429d36d910"><path d="M 28 40 L 121.96875 40 L 121.96875 95 L 28 95 Z M 28 40 " clip-rule="nonzero"/></clipPath></defs><g clip-path="url(#377c69ed7e)"><path fill="#ef3220" d="M 113.757812 58.308594 C 113.273438 61.941406 112 65.425781 110.039062 68.621094 C 108.070312 71.824219 105.328125 74.664062 102.070312 76.886719 C 98.410156 79.382812 94.234375 81.292969 91.074219 84.332031 C 89.574219 85.773438 88.289062 87.453125 87.3125 89.21875 C 86.503906 90.679688 85.945312 92.242188 85.128906 93.703125 C 83.566406 96.488281 80.515625 100.585938 78.714844 100.789062 C 74.769531 101.242188 70.566406 93.621094 68.609375 90.867188 C 66.324219 87.652344 63.152344 85.148438 59.636719 82.980469 C 56.015625 80.746094 52.898438 78.050781 49.164062 75.988281 C 45.402344 73.914062 42.410156 71.140625 40.3125 67.683594 C 36.523438 61.445312 33.476562 51.535156 40.886719 46.554688 C 40.941406 46.515625 41 46.484375 41.054688 46.449219 C 46.09375 41.117188 54.441406 38.316406 61.960938 37.136719 C 70.910156 35.730469 80.121094 36.492188 89.015625 38.101562 C 93.523438 38.917969 97.960938 39.980469 102.378906 41.140625 C 106.339844 42.179688 110.460938 43.714844 112.339844 47.234375 C 114.113281 50.554688 114.234375 54.75 113.757812 58.308594 " fill-opacity="1" fill-rule="nonzero"/></g><path fill="#3a7bc7" d="M 81.722656 44.546875 L 77.65625 47.832031 L 69.273438 46.113281 L 68.402344 37.878906 L 70.144531 33.320312 C 69.898438 29.78125 69.660156 26.210938 69.664062 22.664062 C 69.667969 19.632812 69.71875 15.585938 71.773438 13.421875 C 73.882812 11.199219 76.023438 12.742188 76.871094 15.597656 C 77.78125 18.667969 77.808594 22.414062 78.105469 25.632812 C 78.28125 27.484375 78.527344 30.402344 78.738281 33.382812 C 78.746094 33.5 78.753906 33.621094 78.761719 33.738281 L 80.324219 36.398438 L 81.722656 44.546875 " fill-opacity="1" fill-rule="nonzero"/><path fill="#ea7e16" d="M 68.839844 25.507812 C 71.507812 26.859375 75.414062 25.964844 78.074219 24.984375 C 79.730469 24.375 79.011719 21.699219 77.339844 22.316406 C 75.980469 22.820312 74.582031 23.234375 73.140625 23.429688 C 71.785156 23.617188 70.378906 23.488281 69.054688 23.859375 C 68.34375 24.058594 68.132812 25.148438 68.839844 25.507812 Z M 113.359375 47.328125 C 113.328125 50.503906 111.652344 53.449219 109.417969 55.394531 C 106.828125 57.652344 104.589844 59.015625 100.757812 60.398438 C 97.238281 61.671875 91.863281 62.019531 88.144531 62.402344 C 80.460938 63.1875 75.09375 64.195312 66.179688 63.976562 C 59.417969 63.8125 51.984375 62.96875 45.484375 60.710938 C 40.269531 58.898438 33.347656 53.332031 36.691406 46.5625 C 39.609375 40.648438 46.652344 37.882812 52.257812 36.394531 C 55.550781 35.523438 58.902344 34.882812 62.253906 34.324219 C 64.855469 33.890625 67.5 33.488281 70.144531 33.320312 C 70.175781 33.761719 70.207031 34.199219 70.234375 34.632812 C 70.445312 37.660156 70.234375 41.835938 71.902344 43.902344 C 73.800781 46.25 79.160156 44.019531 79.164062 42.234375 C 79.167969 40.144531 78.972656 36.722656 78.738281 33.382812 C 81.871094 33.386719 85.007812 33.566406 88.128906 33.886719 C 92.019531 34.289062 95.898438 34.882812 99.75 35.59375 C 102.980469 36.191406 106.375 36.9375 109.078125 39.078125 C 111.515625 41.011719 113.394531 43.933594 113.359375 47.328125 " fill-opacity="1" fill-rule="nonzero"/><path fill="#f8e505" d="M 50.292969 50.21875 C 54.976562 52.011719 60.300781 51.8125 65.238281 51.808594 C 69.636719 51.804688 73.898438 51.65625 78.070312 50.550781 C 78.363281 50.570312 78.660156 50.578125 78.960938 50.570312 C 80.015625 50.535156 81.078125 50.402344 82.128906 50.285156 C 83.988281 50.074219 85.832031 49.777344 87.671875 49.425781 C 91.078125 48.773438 94.496094 47.949219 97.25 45.714844 C 99.460938 43.925781 100.980469 39.921875 97.242188 38.839844 C 95.445312 38.316406 93.386719 38.25 91.527344 38.152344 C 89.714844 38.058594 87.414062 38.050781 85.769531 38.894531 C 85.003906 39.289062 85.289062 40.347656 85.992188 40.597656 C 87.269531 41.058594 88.851562 40.992188 90.207031 41.078125 C 91.707031 41.171875 93.199219 41.191406 94.695312 41.351562 C 95.101562 41.398438 96.546875 41.355469 96.707031 41.800781 C 96.871094 42.25 96.234375 42.894531 95.957031 43.183594 C 95.027344 44.140625 93.816406 44.835938 92.605469 45.378906 C 90.105469 46.5 87.394531 47.175781 84.738281 47.820312 C 83.628906 48.089844 82.515625 48.355469 81.402344 48.605469 C 81.324219 48.554688 81.230469 48.527344 81.109375 48.527344 C 76.714844 48.601562 72.300781 48.648438 67.898438 48.65625 C 63.679688 48.660156 59.292969 48.886719 55.109375 48.253906 C 53.332031 47.984375 51.226562 47.59375 49.738281 46.519531 C 47.808594 45.128906 49.902344 44.035156 51.253906 43.40625 C 55.238281 41.566406 59.429688 39.777344 63.65625 38.589844 C 64.511719 38.347656 64.136719 37.15625 63.296875 37.285156 C 60.496094 37.71875 57.746094 38.089844 55.023438 38.890625 C 52.785156 39.546875 50.308594 40.191406 48.3125 41.4375 C 46.6875 42.449219 45.34375 44.144531 45.808594 46.171875 C 46.308594 48.347656 48.375 49.484375 50.292969 50.21875 Z M 74.011719 33.15625 C 75.640625 33.355469 78.28125 33.75 79.289062 32.117188 C 79.449219 31.859375 79.425781 31.402344 79.171875 31.203125 C 77.894531 30.1875 76.027344 30.78125 74.5 30.660156 C 72.898438 30.539062 70.9375 29.636719 69.382812 30.058594 C 68.980469 30.167969 68.8125 30.628906 69.007812 30.980469 C 69.867188 32.558594 72.398438 32.960938 74.011719 33.15625 Z M 111.964844 65.988281 C 111.542969 66.875 111.066406 67.746094 110.546875 68.597656 C 109.015625 71.089844 107.015625 73.363281 104.679688 75.308594 C 104.628906 75.347656 104.570312 75.378906 104.507812 75.398438 C 98.03125 77.269531 89.539062 80.644531 78.125 80.644531 C 64.152344 80.648438 54.183594 77.179688 47.488281 75.296875 C 47.441406 75.285156 47.402344 75.265625 47.363281 75.242188 C 44.203125 73.246094 41.644531 70.710938 39.785156 67.644531 C 39.292969 66.835938 38.8125 65.964844 38.367188 65.054688 C 38.167969 64.644531 38.605469 64.21875 39.007812 64.4375 C 45.792969 68.109375 58.453125 73.078125 77.257812 73.070312 C 93.449219 73.0625 104.550781 69.050781 111.324219 65.382812 C 111.71875 65.167969 112.15625 65.585938 111.964844 65.988281 " fill-opacity="1" fill-rule="nonzero"/><g clip-path="url(#429d36d910)"><path fill="#110f0d" d="M 29.714844 62.460938 C 29.800781 62.460938 29.882812 62.445312 29.96875 62.410156 C 32.269531 61.511719 34.648438 60.808594 37.066406 60.304688 C 36.941406 59.855469 36.832031 59.402344 36.738281 58.949219 C 34.257812 59.46875 31.820312 60.191406 29.460938 61.113281 C 29.105469 61.25 28.925781 61.65625 29.066406 62.015625 C 29.175781 62.289062 29.4375 62.460938 29.714844 62.460938 Z M 32.007812 64.800781 C 33.996094 64.199219 36.019531 63.667969 38.058594 63.210938 C 37.882812 62.777344 37.71875 62.335938 37.5625 61.890625 C 35.558594 62.347656 33.566406 62.871094 31.605469 63.464844 C 29.484375 64.105469 28.074219 65.46875 28.019531 66.9375 C 27.953125 68.652344 29.554688 70.152344 32.773438 71.394531 C 32.855469 71.425781 32.941406 71.441406 33.023438 71.441406 C 33.304688 71.441406 33.566406 71.273438 33.675781 70.996094 C 33.8125 70.636719 33.632812 70.234375 33.277344 70.09375 C 30.78125 69.128906 29.371094 68 29.410156 66.992188 C 29.441406 66.152344 30.511719 65.253906 32.007812 64.800781 Z M 109.277344 64.21875 C 109.402344 64.457031 109.644531 64.59375 109.894531 64.59375 C 110.003906 64.59375 110.113281 64.566406 110.21875 64.511719 C 113.402344 62.828125 116.355469 60.738281 119.003906 58.292969 C 119.285156 58.03125 119.304688 57.589844 119.042969 57.308594 C 118.78125 57.023438 118.339844 57.007812 118.058594 57.269531 C 115.5 59.628906 112.644531 61.652344 109.566406 63.277344 C 109.226562 63.457031 109.097656 63.878906 109.277344 64.21875 Z M 121.523438 60.660156 C 121.214844 60.425781 120.777344 60.488281 120.546875 60.796875 C 118.523438 63.484375 115.535156 65.695312 111.667969 67.371094 C 108.1875 68.875 104.410156 69.78125 100.757812 70.65625 C 100.382812 70.746094 100.152344 71.121094 100.242188 71.496094 C 100.320312 71.816406 100.601562 72.03125 100.917969 72.03125 C 100.972656 72.03125 101.027344 72.023438 101.082031 72.011719 C 104.789062 71.125 108.628906 70.203125 112.21875 68.652344 C 116.3125 66.878906 119.492188 64.519531 121.660156 61.636719 C 121.890625 61.328125 121.828125 60.890625 121.523438 60.660156 Z M 68.160156 93.054688 C 64.539062 93.191406 60.882812 93.011719 57.292969 92.523438 C 59.230469 91.566406 61.285156 90.851562 63.398438 90.390625 C 63.773438 90.308594 64.011719 89.9375 63.929688 89.5625 C 63.847656 89.183594 63.476562 88.945312 63.101562 89.027344 C 60.847656 89.519531 58.65625 90.289062 56.589844 91.316406 C 55.925781 91.644531 55.597656 92.082031 55.609375 92.617188 C 55.625 93.296875 56.183594 93.78125 57.105469 93.90625 C 59.984375 94.296875 62.90625 94.492188 65.824219 94.492188 C 66.621094 94.492188 67.417969 94.480469 68.214844 94.449219 C 68.597656 94.433594 68.898438 94.113281 68.882812 93.726562 C 68.871094 93.339844 68.546875 93.046875 68.160156 93.054688 Z M 68.234375 43.703125 C 68.417969 43.789062 70.976562 44.945312 74.324219 44.945312 C 76.8125 44.945312 79.730469 44.308594 82.4375 42.125 C 82.738281 41.886719 82.785156 41.445312 82.542969 41.144531 C 82.300781 40.847656 81.863281 40.796875 81.5625 41.039062 C 75.90625 45.601562 68.917969 42.484375 68.820312 42.4375 C 68.46875 42.277344 68.058594 42.429688 67.894531 42.777344 C 67.734375 43.128906 67.886719 43.542969 68.234375 43.703125 Z M 103.105469 54.398438 C 98.191406 56.15625 90.203125 57.308594 77.207031 58.128906 C 73.335938 58.371094 69.792969 58.480469 66.5625 58.480469 C 42.847656 58.480469 35.679688 52.671875 35.347656 52.394531 C 35.054688 52.144531 35.015625 51.703125 35.265625 51.410156 C 35.511719 51.117188 35.949219 51.078125 36.242188 51.328125 C 36.351562 51.417969 45.582031 58.726562 77.117188 56.738281 C 104.28125 55.019531 106.53125 52.089844 110.261719 47.230469 C 110.941406 46.351562 111.640625 45.4375 112.542969 44.445312 C 112.800781 44.160156 113.242188 44.140625 113.527344 44.402344 C 113.8125 44.660156 113.832031 45.101562 113.574219 45.386719 C 112.710938 46.335938 112.027344 47.222656 111.367188 48.082031 C 109.457031 50.570312 107.804688 52.71875 103.105469 54.398438 " fill-opacity="1" fill-rule="nonzero"/></g></svg>