<svg xmlns="http://www.w3.org/2000/svg" xmlns:xlink="http://www.w3.org/1999/xlink" width="200" zoomAndPan="magnify" viewBox="0 0 150 112.499997" height="150" preserveAspectRatio="xMidYMid meet" version="1.0"><path fill="#000000" d="M 83.277344 15.773438 C 61.0625 11.199219 39.34375 25.5 34.769531 47.714844 C 30.195312 69.929688 44.5 91.648438 66.714844 96.222656 C 88.929688 100.796875 110.648438 86.496094 115.21875 64.277344 C 119.792969 42.0625 105.492188 20.347656 83.277344 15.773438 Z M 83.277344 15.773438 " fill-opacity="1" fill-rule="evenodd"/><path fill="#b7e5dd" d="M 82.59375 19.085938 C 62.210938 14.890625 42.28125 28.011719 38.085938 48.398438 C 33.886719 68.78125 47.011719 88.710938 67.394531 92.90625 C 87.78125 97.101562 107.707031 83.980469 111.90625 63.597656 C 116.101562 43.210938 102.980469 23.285156 82.59375 19.085938 Z M 82.59375 19.085938 " fill-opacity="1" fill-rule="evenodd"/><path fill="#000000" d="M 87.769531 40.316406 C 83.527344 38.921875 81.375 46.316406 80.855469 49.0625 C 80.632812 50.234375 80.609375 52.359375 81.078125 53.414062 C 81.8125 55.0625 84.808594 55.519531 86.171875 54.4375 C 89 52.183594 91.667969 41.597656 87.769531 40.316406 Z M 87.769531 40.316406 " fill-opacity="1" fill-rule="evenodd"/><path fill="#000000" d="M 67.1875 36.148438 C 65.640625 35.617188 64.617188 36.585938 63.75 37.792969 C 63.546875 38.070312 63.230469 38.480469 63.058594 38.753906 C 62.84375 39.105469 62.707031 39.527344 62.515625 39.910156 C 58.417969 47.9375 61.820312 51.265625 64.90625 49.257812 C 67.933594 47.289062 70.734375 37.359375 67.1875 36.148438 Z M 67.1875 36.148438 " fill-opacity="1" fill-rule="evenodd"/><path fill="#000000" d="M 100.832031 49.582031 C 100.300781 50.707031 98.871094 52.925781 98.179688 54.101562 C 88.96875 69.738281 69.09375 86.03125 56.207031 63.5 C 53.113281 58.085938 52.386719 54.308594 51.398438 48.523438 C 51.214844 47.464844 51.019531 43.8125 50.710938 43.242188 C 49.871094 41.699219 46.949219 41.5625 46.898438 44.980469 C 46.832031 49.261719 48.011719 56.644531 49.535156 60.558594 C 50.773438 63.738281 52.613281 67.238281 54.792969 69.960938 C 71.714844 90.933594 93.300781 72.945312 102.917969 55.722656 C 103.894531 53.71875 104.867188 51.96875 104.976562 49.710938 C 105.125 46.558594 102.296875 46.394531 101.429688 48.035156 C 101.230469 48.410156 101.050781 49.117188 100.832031 49.582031 Z M 100.832031 49.582031 " fill-opacity="1" fill-rule="evenodd"/></svg>