<svg xmlns="http://www.w3.org/2000/svg" xmlns:xlink="http://www.w3.org/1999/xlink" width="200" zoomAndPan="magnify" viewBox="0 0 150 112.499997" height="150" preserveAspectRatio="xMidYMid meet" version="1.0"><defs><clipPath id="6cc1285aa5"><path d="M 28.703125 66 L 70 66 L 70 104.15625 L 28.703125 104.15625 Z M 28.703125 66 " clip-rule="nonzero"/></clipPath><clipPath id="ea327643b2"><path d="M 28.703125 104 L 29 104 L 29 104.15625 L 28.703125 104.15625 Z M 28.703125 104 " clip-rule="nonzero"/></clipPath><clipPath id="a38e2c38b3"><path d="M 28.703125 75 L 70 75 L 70 104.15625 L 28.703125 104.15625 Z M 28.703125 75 " clip-rule="nonzero"/></clipPath></defs><path fill="#6b9c17" d="M 118.585938 41.816406 C 117.285156 41.71875 115.386719 42.546875 113.4375 43.378906 C 111.078125 44.378906 108.648438 45.382812 107.125 44.746094 C 103.605469 43.273438 102.925781 45.882812 102.925781 45.882812 C 95.441406 38.628906 92.648438 51.886719 87.050781 53.742188 C 84.863281 54.46875 81.132812 57.34375 77.402344 60.582031 C 71.605469 65.621094 65.800781 71.523438 65.800781 71.523438 L 65.863281 74.085938 L 65.878906 74.878906 C 65.878906 74.878906 74.242188 68.089844 77.628906 65.351562 C 78.628906 64.546875 79.59375 64.0625 80.566406 63.839844 C 82.890625 63.285156 85.265625 64.1875 88.207031 65.613281 C 92.386719 67.632812 89.761719 65.449219 89.746094 63.945312 C 89.734375 62.441406 92.058594 64.527344 97.277344 65.382812 C 102.5 66.242188 98.421875 63.917969 97.003906 62.628906 C 95.589844 61.335938 99.050781 61.457031 103.761719 61.316406 C 108.472656 61.175781 112.863281 58.929688 111.492188 56.988281 C 110.125 55.046875 111.316406 53.933594 111.316406 53.933594 C 114.898438 51.09375 121.285156 47.328125 120.144531 43.128906 C 119.90625 42.246094 119.351562 41.871094 118.585938 41.816406 " fill-opacity="1" fill-rule="nonzero"/><path fill="#8cbd1f" d="M 87.667969 61.484375 C 86.730469 61.484375 85.792969 61.425781 84.859375 61.308594 C 84.242188 61.347656 83.632812 61.371094 83.023438 61.417969 C 83.195312 61.265625 83.371094 61.105469 83.554688 60.941406 C 83.644531 60.859375 83.734375 60.785156 83.824219 60.710938 C 84.0625 60.726562 84.296875 60.753906 84.53125 60.789062 C 87.292969 60.714844 89.976562 60.402344 92.546875 59.835938 C 92.605469 59.804688 92.660156 59.769531 92.71875 59.738281 C 92.859375 59.738281 92.992188 59.726562 93.121094 59.703125 C 93.71875 59.59375 93.867188 59.363281 93.789062 59.105469 C 93.953125 58.996094 94.113281 58.882812 94.269531 58.761719 C 94.664062 58.453125 95.027344 58.113281 95.359375 57.742188 C 95.917969 57.566406 96.402344 57.238281 96.644531 56.675781 C 96.679688 56.746094 96.683594 56.832031 96.628906 56.917969 C 96.070312 57.773438 95.3125 58.671875 94.425781 59.367188 C 96.09375 58.90625 97.714844 58.332031 99.269531 57.628906 C 99.964844 57.082031 100.632812 56.496094 101.226562 55.765625 C 102.5 54.207031 103.304688 52.449219 103.828125 50.511719 C 103.84375 50.449219 103.882812 50.425781 103.929688 50.425781 C 104 50.425781 104.078125 50.492188 104.0625 50.585938 C 103.691406 52.546875 102.761719 54.761719 101.386719 56.554688 C 105.007812 54.5625 108.261719 51.820312 111.019531 48.195312 C 111.050781 48.152344 111.097656 48.132812 111.136719 48.132812 C 111.246094 48.132812 111.34375 48.242188 111.265625 48.359375 C 108.355469 52.71875 104.027344 56.417969 99.101562 58.769531 C 98.421875 59.234375 97.6875 59.59375 96.902344 59.800781 C 96.890625 59.804688 96.878906 59.804688 96.871094 59.804688 C 96.832031 59.804688 96.800781 59.789062 96.777344 59.765625 C 93.84375 60.863281 90.757812 61.484375 87.667969 61.484375 " fill-opacity="1" fill-rule="nonzero"/><path fill="#659610" d="M 108.949219 69.992188 C 106.652344 70.917969 106.203125 71.269531 103.429688 69.539062 C 100.660156 67.808594 100.234375 70.671875 98.933594 71.082031 C 97.632812 71.496094 97.570312 70.144531 95.652344 68.355469 C 93.730469 66.566406 88.285156 68.96875 87.28125 68.476562 L 87.300781 70.984375 C 87.300781 70.984375 103.085938 75.757812 106.542969 75.878906 C 110.003906 76 112.777344 72.066406 113.667969 70.855469 C 114.5625 69.644531 111.246094 69.070312 108.949219 69.992188 " fill-opacity="1" fill-rule="nonzero"/><path fill="#54890c" d="M 70.777344 70.476562 C 71.371094 69.941406 71.929688 69.367188 72.539062 68.851562 C 73.347656 68.148438 74.171875 67.6875 75.160156 67.351562 C 74.246094 68.089844 73.25 68.902344 72.257812 69.703125 C 71.765625 69.980469 71.269531 70.234375 70.777344 70.476562 " fill-opacity="1" fill-rule="nonzero"/><path fill="#54890c" d="M 78.253906 64.886719 C 78.285156 64.59375 78.308594 64.28125 78.417969 63.941406 C 78.519531 63.625 78.664062 63.183594 79.355469 62.320312 C 79.726562 62.144531 80.113281 61.988281 80.519531 61.859375 C 81.355469 61.59375 82.1875 61.484375 83.023438 61.417969 C 81.914062 62.425781 81.125 63.214844 80.566406 63.839844 C 79.796875 64.015625 79.035156 64.351562 78.253906 64.886719 M 80.40625 61.136719 C 81.023438 60.496094 81.84375 59.714844 82.933594 58.738281 C 84.566406 57.285156 86.140625 56.878906 87.5625 56.878906 C 88.355469 56.878906 89.101562 57.003906 89.78125 57.144531 C 90.664062 57.328125 91.445312 57.539062 92.089844 57.539062 C 92.230469 57.539062 92.371094 57.527344 92.5 57.503906 C 94.449219 57.136719 91.628906 55.558594 91.628906 55.558594 C 91.628906 55.558594 92.402344 55.734375 93.308594 55.734375 C 94.5625 55.734375 96.074219 55.394531 96.179688 53.777344 C 96.324219 54.125 96.496094 54.484375 96.6875 54.859375 C 96.871094 55.644531 96.832031 56.234375 96.644531 56.675781 C 96.597656 56.59375 96.503906 56.535156 96.410156 56.535156 C 96.335938 56.535156 96.265625 56.566406 96.214844 56.644531 C 95.953125 57.03125 95.667969 57.398438 95.359375 57.742188 C 94.902344 57.886719 94.398438 57.9375 93.929688 57.9375 C 93.023438 57.9375 92.25 57.757812 92.25 57.757812 C 92.25 57.757812 93.605469 58.515625 93.789062 59.105469 C 93.441406 59.332031 93.078125 59.535156 92.71875 59.738281 C 92.714844 59.738281 92.710938 59.738281 92.710938 59.738281 C 92.066406 59.738281 91.285156 59.527344 90.402344 59.34375 C 89.722656 59.203125 88.976562 59.078125 88.183594 59.078125 C 86.839844 59.078125 85.359375 59.441406 83.824219 60.710938 C 83.65625 60.703125 83.488281 60.695312 83.320312 60.695312 C 82.371094 60.695312 81.371094 60.855469 80.40625 61.136719 " fill-opacity="1" fill-rule="nonzero"/><path fill="#6ea610" d="M 79.355469 62.320312 C 79.621094 61.992188 79.960938 61.601562 80.40625 61.136719 C 81.371094 60.855469 82.371094 60.695312 83.320312 60.695312 C 83.488281 60.695312 83.65625 60.703125 83.824219 60.710938 C 83.734375 60.785156 83.644531 60.859375 83.554688 60.941406 C 83.371094 61.105469 83.195312 61.265625 83.023438 61.417969 C 82.1875 61.484375 81.355469 61.59375 80.519531 61.859375 C 80.113281 61.988281 79.726562 62.144531 79.355469 62.320312 M 92.71875 59.738281 C 93.078125 59.535156 93.441406 59.332031 93.789062 59.105469 C 93.867188 59.363281 93.71875 59.59375 93.121094 59.703125 C 92.992188 59.726562 92.859375 59.738281 92.71875 59.738281 M 95.359375 57.742188 C 95.667969 57.398438 95.953125 57.03125 96.214844 56.644531 C 96.265625 56.566406 96.335938 56.535156 96.410156 56.535156 C 96.503906 56.535156 96.597656 56.59375 96.644531 56.675781 C 96.402344 57.238281 95.917969 57.566406 95.359375 57.742188 " fill-opacity="1" fill-rule="nonzero"/><path fill="#54890c" d="M 95.625 51.730469 C 94.597656 49.363281 94.722656 47.773438 96.863281 47.773438 C 97.46875 47.773438 98.234375 47.898438 99.183594 48.171875 C 99.238281 48.191406 99.289062 48.199219 99.34375 48.21875 C 100.195312 48.453125 100.910156 48.558594 101.496094 48.558594 C 102.855469 48.558594 103.539062 48.003906 103.707031 47.242188 C 104.835938 48.820312 104.648438 50.757812 102.117188 50.757812 C 101.53125 50.757812 100.816406 50.65625 99.964844 50.417969 C 99.910156 50.398438 99.859375 50.390625 99.804688 50.371094 C 98.855469 50.097656 98.089844 49.972656 97.484375 49.972656 C 96.105469 49.972656 95.5625 50.628906 95.625 51.730469 M 103.691406 46.347656 C 103.613281 45.992188 103.457031 45.621094 103.230469 45.261719 C 103.539062 44.816406 104.128906 44.292969 105.191406 44.292969 C 105.714844 44.292969 106.351562 44.421875 107.125 44.746094 C 107.457031 44.882812 107.835938 44.945312 108.242188 44.945312 C 109.667969 44.945312 111.492188 44.203125 113.285156 43.441406 C 113.664062 43.4375 113.882812 43.433594 113.882812 43.433594 C 113.882812 43.433594 114.675781 43.191406 115.636719 42.472656 C 116.660156 42.082031 117.605469 41.808594 118.367188 41.808594 C 118.441406 41.808594 118.515625 41.8125 118.585938 41.816406 C 117.125 44.84375 114.503906 45.632812 114.503906 45.632812 C 114.503906 45.632812 105.90625 45.707031 103.691406 46.347656 " fill-opacity="1" fill-rule="nonzero"/><path fill="#73ab12" d="M 95.519531 26.058594 C 95.214844 26.160156 94.894531 26.257812 94.585938 26.355469 C 93.523438 26.160156 92.613281 26.164062 91.828125 26.34375 C 89.59375 26.847656 88.417969 28.707031 87.742188 30.941406 C 86.496094 35.015625 86.914062 40.335938 85.601562 40.894531 L 85.539062 40.921875 C 83.136719 41.644531 81.90625 38.246094 81.90625 38.246094 C 77.769531 35.574219 75.976562 42.660156 78.386719 48.605469 C 80.792969 54.546875 78.300781 56.074219 75.179688 60.5625 C 72.441406 64.5 66.015625 71.105469 64.488281 72.65625 C 64.277344 72.875 64.160156 72.988281 64.160156 72.988281 C 64.082031 73.0625 64.582031 73.996094 64.683594 74.046875 C 64.867188 74.136719 64.996094 74.160156 65.085938 74.121094 C 65.3125 74.042969 65.335938 73.664062 65.597656 73.421875 C 66.148438 72.925781 67.125 72.742188 67.792969 72.425781 C 68.566406 72.0625 69.3125 71.644531 69.992188 71.132812 C 70.902344 70.441406 71.671875 69.589844 72.539062 68.851562 C 73.390625 68.113281 74.257812 67.640625 75.320312 67.296875 C 76.117188 67.042969 77.023438 66.808594 77.65625 66.214844 C 78.441406 65.484375 78.136719 64.816406 78.417969 63.941406 C 78.613281 63.339844 78.957031 62.285156 82.933594 58.738281 C 85.472656 56.476562 87.871094 56.753906 89.78125 57.144531 C 90.863281 57.367188 91.789062 57.632812 92.5 57.503906 C 94.449219 57.136719 91.628906 55.558594 91.628906 55.558594 C 91.628906 55.558594 97.054688 56.8125 96.066406 52.660156 C 94.230469 49.066406 94.460938 46.808594 99.183594 48.171875 C 99.238281 48.191406 99.289062 48.199219 99.34375 48.21875 C 104.363281 49.617188 104.5625 46.402344 102.5625 44.433594 C 102.855469 43.527344 113.882812 43.433594 113.882812 43.433594 C 113.882812 43.433594 120.53125 41.421875 118.542969 31.613281 C 112.8125 20.875 105.265625 23.007812 95.519531 26.058594 " fill-opacity="1" fill-rule="nonzero"/><path fill="#5f9e0a" d="M 87.742188 30.941406 C 88.417969 28.707031 89.59375 26.847656 91.828125 26.34375 C 91.351562 26.6875 90.914062 27.007812 90.640625 27.277344 C 89.542969 28.382812 88.554688 29.609375 87.742188 30.941406 " fill-opacity="1" fill-rule="nonzero"/><path fill="#5f9e0a" d="M 67.109375 72.03125 C 67.0625 71.960938 67.011719 71.890625 66.964844 71.820312 C 68.335938 70.585938 69.660156 69.304688 70.972656 68.011719 C 73.832031 65.199219 77.234375 62.46875 79.117188 58.851562 C 79.753906 58.214844 80.335938 57.523438 80.878906 56.785156 C 82.300781 55.933594 83.601562 54.941406 85.140625 54.265625 C 86.957031 53.46875 88.867188 52.921875 90.796875 52.488281 C 91.027344 52.4375 91.019531 52.046875 90.773438 52.046875 C 90.769531 52.046875 90.765625 52.046875 90.757812 52.046875 C 87.871094 52.238281 84.496094 53.28125 81.996094 55.117188 C 83.9375 51.980469 85.351562 48.339844 87 45.070312 C 87.117188 45.28125 87.242188 45.488281 87.375 45.6875 C 88.839844 47.929688 91.1875 49.84375 91.386719 52.519531 C 91.503906 54.191406 90.742188 55.730469 89.78125 57.144531 C 89.101562 57.003906 88.355469 56.878906 87.5625 56.878906 C 86.140625 56.878906 84.566406 57.285156 82.933594 58.738281 C 78.957031 62.285156 78.613281 63.339844 78.417969 63.941406 C 78.136719 64.816406 78.441406 65.484375 77.65625 66.214844 C 77.023438 66.808594 76.117188 67.042969 75.320312 67.296875 C 74.257812 67.640625 73.390625 68.113281 72.539062 68.851562 C 71.929688 69.367188 71.371094 69.941406 70.777344 70.476562 C 69.46875 71.117188 68.1875 71.632812 67.109375 72.03125 M 80.164062 56.183594 C 81.03125 53.105469 80.9375 49.789062 80.890625 46.621094 C 80.855469 43.957031 81.269531 41.339844 82.191406 38.875 C 82.617188 39.695312 83.519531 41.023438 84.878906 41.023438 C 85.085938 41.023438 85.308594 40.992188 85.539062 40.921875 L 85.601562 40.894531 C 85.75 41.945312 86.03125 42.976562 86.445312 43.949219 C 85.476562 45.828125 84.625 47.773438 83.734375 49.6875 C 83.863281 48.03125 83.671875 46.332031 83.296875 44.882812 C 83.273438 44.792969 83.199219 44.75 83.125 44.75 C 83.023438 44.75 82.921875 44.828125 82.949219 44.960938 C 83.359375 46.753906 83.445312 48.554688 83.0625 50.359375 C 82.890625 51.160156 82.597656 51.902344 82.292969 52.640625 C 81.652344 53.859375 80.960938 55.042969 80.179688 56.164062 C 80.171875 56.171875 80.167969 56.175781 80.164062 56.183594 " fill-opacity="1" fill-rule="nonzero"/><path fill="#4b8b05" d="M 66.964844 71.820312 C 66.785156 71.554688 66.601562 71.28125 66.417969 71.011719 C 66.984375 70.457031 67.664062 69.757812 68.472656 68.882812 C 69.636719 68.492188 70.757812 68 71.8125 67.058594 C 73.84375 65.25 75.425781 62.652344 77.117188 60.523438 C 77.839844 60.027344 78.503906 59.464844 79.117188 58.851562 C 77.234375 62.46875 73.832031 65.199219 70.972656 68.011719 C 69.660156 69.304688 68.335938 70.585938 66.964844 71.820312 " fill-opacity="1" fill-rule="nonzero"/><path fill="#c9e082" d="M 82.191406 38.875 C 82 38.511719 81.90625 38.246094 81.90625 38.246094 C 81.90625 38.246094 82.003906 38.511719 82.191406 38.875 " fill-opacity="1" fill-rule="nonzero"/><path fill="#4b8b05" d="M 69.859375 67.34375 C 70.414062 66.714844 71.015625 66.023438 71.660156 65.253906 C 72.765625 63.945312 73.664062 62.738281 74.394531 61.636719 C 74.679688 61.261719 74.945312 60.902344 75.179688 60.5625 C 77.425781 57.328125 79.347656 55.632812 79.347656 52.714844 C 79.347656 51.585938 79.058594 50.265625 78.386719 48.605469 C 78.28125 48.34375 78.183594 48.082031 78.09375 47.816406 C 78.039062 46.058594 78.1875 44.285156 79.386719 42.429688 C 80.378906 40.890625 81.011719 39.324219 81.414062 37.96875 C 81.574219 38.046875 81.738281 38.140625 81.90625 38.246094 C 81.90625 38.246094 82 38.511719 82.191406 38.875 C 81.269531 41.339844 80.855469 43.957031 80.890625 46.621094 C 80.9375 49.789062 81.03125 53.105469 80.164062 56.183594 C 78.316406 58.820312 75.496094 61.3125 73.433594 63.875 C 72.390625 65.171875 71.1875 66.339844 69.859375 67.34375 " fill-opacity="1" fill-rule="nonzero"/><path fill="#96c718" d="M 87 45.070312 C 86.792969 44.707031 86.609375 44.332031 86.445312 43.949219 C 87.636719 41.644531 89.007812 39.433594 90.847656 37.5 C 91.523438 35.992188 92.40625 34.550781 93.105469 33.058594 C 93.867188 31.429688 94.5 29.777344 95.421875 28.226562 C 95.433594 28.207031 95.449219 28.199219 95.464844 28.199219 C 95.496094 28.199219 95.527344 28.234375 95.519531 28.273438 C 95.035156 30.578125 93.949219 33.40625 92.613281 35.820312 C 97.140625 31.890625 102.753906 29.859375 108.691406 29.859375 C 109.613281 29.859375 110.542969 29.910156 111.472656 30.003906 C 111.679688 30.027344 111.671875 30.332031 111.464844 30.332031 C 111.464844 30.332031 111.460938 30.332031 111.460938 30.332031 C 111.226562 30.328125 110.996094 30.324219 110.761719 30.324219 C 102.296875 30.324219 93.671875 34.589844 88.957031 41.648438 C 88.246094 42.710938 87.605469 43.867188 87 45.070312 " fill-opacity="1" fill-rule="nonzero"/><path fill="#7cbe0d" d="M 79.117188 58.851562 C 79.253906 58.585938 79.386719 58.3125 79.507812 58.035156 C 79.773438 57.429688 79.988281 56.8125 80.164062 56.183594 C 80.167969 56.175781 80.171875 56.171875 80.179688 56.164062 C 80.960938 55.042969 81.652344 53.859375 82.292969 52.640625 C 82.597656 51.902344 82.890625 51.160156 83.0625 50.359375 C 83.445312 48.554688 83.359375 46.753906 82.949219 44.960938 C 82.921875 44.828125 83.023438 44.75 83.125 44.75 C 83.199219 44.75 83.273438 44.792969 83.296875 44.882812 C 83.671875 46.332031 83.863281 48.03125 83.734375 49.6875 C 84.625 47.773438 85.476562 45.828125 86.445312 43.949219 C 86.609375 44.332031 86.792969 44.707031 87 45.070312 C 85.351562 48.339844 83.9375 51.980469 81.996094 55.117188 C 84.496094 53.28125 87.871094 52.238281 90.757812 52.046875 C 90.765625 52.046875 90.769531 52.046875 90.773438 52.046875 C 91.019531 52.046875 91.027344 52.4375 90.796875 52.488281 C 88.867188 52.921875 86.957031 53.46875 85.140625 54.265625 C 83.601562 54.941406 82.300781 55.933594 80.878906 56.785156 C 80.335938 57.523438 79.753906 58.214844 79.117188 58.851562 " fill-opacity="1" fill-rule="nonzero"/><path fill="#62b106" d="M 68.472656 68.882812 C 68.898438 68.421875 69.363281 67.910156 69.859375 67.34375 C 71.1875 66.339844 72.390625 65.171875 73.433594 63.875 C 75.496094 61.3125 78.316406 58.820312 80.164062 56.183594 C 79.988281 56.8125 79.773438 57.429688 79.507812 58.035156 C 79.386719 58.3125 79.253906 58.585938 79.117188 58.851562 C 78.503906 59.464844 77.839844 60.027344 77.117188 60.523438 C 75.425781 62.652344 73.84375 65.25 71.8125 67.058594 C 70.757812 68 69.636719 68.492188 68.472656 68.882812 " fill-opacity="1" fill-rule="nonzero"/><path fill="#92bc14" d="M 85.597656 19.117188 C 85.597656 19.117188 88.3125 14.328125 84.472656 10.753906 C 78.734375 7.898438 75.726562 13.585938 72.808594 17.972656 C 70.9375 16.535156 69.75 18.152344 68.992188 23.070312 C 68.230469 27.988281 71.597656 34.578125 65.390625 35.734375 C 64.511719 35.902344 63.839844 36.175781 63.355469 36.546875 C 62.984375 36.828125 62.714844 37.164062 62.53125 37.539062 C 61.320312 40.121094 64.308594 44.632812 66.246094 47.503906 C 68.835938 51.34375 68.738281 51.644531 69.566406 54.746094 C 70.703125 58.992188 68.183594 63.28125 65.609375 66.667969 C 65.09375 67.347656 64.527344 68.023438 64.257812 68.835938 C 64.03125 69.515625 64.253906 69.933594 64.386719 70.441406 C 64.421875 70.59375 64.453125 70.746094 64.464844 70.914062 C 64.507812 71.648438 64.40625 72.195312 64.160156 72.988281 C 64.160156 72.988281 66.253906 71.667969 71.660156 65.253906 C 77.070312 58.839844 77.503906 54.84375 77.683594 54.375 C 77.878906 53.871094 78.007812 53.378906 78.09375 52.886719 C 78.703125 49.375 77.042969 46.054688 79.386719 42.429688 C 82.054688 38.296875 82.117188 33.984375 82.117188 33.984375 C 82.117188 33.984375 85.816406 30.863281 87.964844 26.925781 C 88.382812 26.160156 88.742188 25.363281 89.003906 24.550781 C 90.617188 19.574219 85.597656 19.117188 85.597656 19.117188 " fill-opacity="1" fill-rule="nonzero"/><path fill="#78ad0b" d="M 66.417969 71.011719 C 65.640625 69.867188 64.875 68.757812 64.570312 68.375 C 64.550781 68.347656 64.515625 68.332031 64.46875 68.332031 C 64.769531 67.734375 65.203125 67.199219 65.609375 66.667969 C 67.746094 63.855469 69.84375 60.425781 69.847656 56.910156 C 69.847656 56.191406 69.757812 55.46875 69.566406 54.746094 C 68.738281 51.644531 68.835938 51.34375 66.246094 47.503906 C 64.617188 45.09375 62.25 41.523438 62.25 38.914062 C 62.253906 38.417969 62.339844 37.953125 62.53125 37.539062 C 62.800781 40.074219 64.0625 42.546875 66.265625 43.90625 C 67.976562 44.960938 70.125 45.316406 71.527344 46.75 C 71.78125 47.011719 72.007812 47.304688 72.210938 47.609375 C 72.449219 49.019531 72.644531 50.4375 72.804688 51.875 C 72.027344 57.226562 70.503906 62.375 67.183594 66.980469 C 67.101562 67.09375 67.21875 67.246094 67.335938 67.246094 C 67.371094 67.246094 67.40625 67.230469 67.4375 67.195312 C 71.5625 62.460938 73.183594 56.773438 74.050781 50.789062 C 74.4375 51.316406 74.898438 51.769531 75.5 52.0625 C 76.316406 52.460938 77.28125 52.492188 78.09375 52.886719 C 78.007812 53.378906 77.878906 53.871094 77.683594 54.375 C 77.503906 54.84375 77.070312 58.839844 71.660156 65.253906 C 69.332031 68.019531 67.617188 69.835938 66.417969 71.011719 M 73.015625 50.253906 C 72.988281 49.777344 72.953125 49.296875 72.910156 48.820312 C 72.984375 48.957031 73.058594 49.097656 73.128906 49.238281 C 73.09375 49.578125 73.058594 49.917969 73.015625 50.253906 " fill-opacity="1" fill-rule="nonzero"/><path fill="#92bc14" d="M 105.730469 74.785156 C 105.730469 74.785156 104.265625 73.144531 99.660156 73.984375 C 96.238281 72.710938 99.824219 69.871094 94.613281 70.019531 C 92.242188 70.445312 90.8125 69.386719 89.511719 68.328125 C 88.089844 67.175781 86.824219 66.019531 84.660156 66.796875 C 84.027344 67.042969 83.453125 67.269531 82.941406 67.472656 C 80.085938 68.59375 79.113281 69 79.113281 69 C 79.113281 69 77.636719 66.355469 73.449219 69 C 69.261719 71.640625 64.160156 72.988281 64.160156 72.988281 L 65.835938 73.746094 C 65.898438 74.125 65.972656 74.523438 66.1875 74.839844 C 66.410156 75.164062 66.824219 75.378906 67.1875 75.242188 C 67.464844 75.136719 67.628906 74.878906 67.792969 74.636719 C 70.957031 70.03125 77.46875 69.96875 82.292969 71.527344 C 87.210938 73.121094 91.550781 74.800781 95.480469 75.804688 C 99.019531 76.703125 102.230469 77.054688 105.246094 76.292969 C 111.3125 74.757812 113.472656 71.191406 113.65625 70.878906 C 113.375 71.226562 109.742188 75.761719 105.730469 74.785156 " fill-opacity="1" fill-rule="nonzero"/><path fill="#78ad0b" d="M 95.480469 75.804688 C 91.550781 74.800781 87.210938 73.121094 82.292969 71.527344 C 80.542969 70.960938 78.574219 70.609375 76.621094 70.609375 C 73.492188 70.609375 70.410156 71.515625 68.359375 73.898438 C 68.117188 73.535156 67.644531 72.828125 67.109375 72.03125 C 68.925781 71.363281 71.308594 70.351562 73.449219 69 C 74.84375 68.117188 75.941406 67.824219 76.777344 67.824219 C 78.457031 67.824219 79.113281 69 79.113281 69 C 79.113281 69 80.085938 68.59375 82.941406 67.472656 C 83.097656 67.5625 83.257812 67.667969 83.398438 67.78125 C 84.269531 68.46875 84.785156 69.515625 85.476562 70.386719 C 86.835938 72.09375 88.863281 73.121094 90.867188 73.996094 C 92.378906 74.652344 93.917969 75.257812 95.480469 75.804688 " fill-opacity="1" fill-rule="nonzero"/><path fill="#4c632f" d="M 61.761719 69.769531 L 67.035156 76.808594 L 68.53125 74.152344 C 68.53125 74.152344 65.28125 69.269531 64.570312 68.375 C 64.429688 68.191406 63.730469 68.621094 63.066406 69.050781 C 62.472656 69.433594 61.902344 69.816406 61.761719 69.769531 " fill-opacity="1" fill-rule="nonzero"/><g clip-path="url(#6cc1285aa5)"><path fill="#e0202f" d="M 67.132812 75.070312 C 66.40625 73.75 65.523438 72.585938 64.601562 71.632812 C 64.449219 71.476562 63.671875 70.445312 62.28125 69.382812 C 61.101562 68.480469 59.488281 67.558594 57.433594 67.132812 C 55.472656 66.71875 53.121094 66.757812 50.378906 67.695312 C 49.996094 67.824219 49.609375 67.972656 49.222656 68.140625 C 49.027344 68.222656 48.828125 68.304688 48.628906 68.402344 C 48.585938 68.421875 48.527344 68.449219 48.472656 68.476562 C 47.566406 68.910156 46.746094 69.40625 46.019531 69.960938 C 45.992188 69.980469 45.96875 70 45.941406 70.023438 C 45.789062 70.140625 45.632812 70.265625 45.492188 70.390625 C 45.441406 70.433594 45.390625 70.480469 45.347656 70.519531 C 45.191406 70.652344 45.046875 70.785156 44.902344 70.925781 C 44.726562 71.097656 44.566406 71.265625 44.40625 71.441406 L 44.386719 71.46875 C 44.242188 71.625 44.101562 71.789062 43.96875 71.957031 C 43.9375 71.988281 43.914062 72.019531 43.890625 72.050781 C 43.792969 72.167969 43.699219 72.289062 43.617188 72.417969 C 43.527344 72.539062 43.4375 72.671875 43.355469 72.800781 C 41.898438 74.972656 41.242188 77.59375 41.289062 80.472656 C 41.296875 81.015625 41.324219 81.566406 41.382812 82.125 C 41.398438 82.277344 41.417969 82.429688 41.4375 82.574219 C 41.484375 82.96875 41.539062 83.351562 41.605469 83.742188 C 41.621094 83.839844 41.640625 83.945312 41.660156 84.046875 C 41.898438 85.289062 42.238281 86.566406 42.683594 87.863281 C 42.96875 88.695312 42.8125 89.476562 42.398438 90.210938 C 41.261719 92.179688 38.191406 93.707031 36.730469 94.417969 C 35.230469 95.15625 33.695312 95.949219 32.8125 97.421875 C 32.175781 98.476562 32.070312 99.714844 31.515625 100.824219 C 30.867188 102.132812 29.902344 103.28125 28.707031 104.125 C 30.136719 103.113281 31.589844 102.738281 32.773438 101.289062 C 33.550781 100.339844 33.84375 99.023438 34.625 98.136719 C 35.550781 97.089844 37.359375 96.671875 38.625 96.226562 C 40.28125 95.636719 41.753906 94.398438 43.277344 93.519531 C 44.90625 92.582031 46.613281 92.054688 48.683594 93.171875 C 48.785156 93.222656 48.882812 93.277344 48.988281 93.324219 C 49.574219 93.625 50.25 93.910156 50.996094 94.132812 L 51.027344 94.144531 C 51.203125 94.199219 51.378906 94.25 51.558594 94.292969 C 51.640625 94.324219 51.730469 94.34375 51.824219 94.359375 C 51.945312 94.394531 52.070312 94.421875 52.195312 94.449219 C 52.394531 94.484375 52.589844 94.523438 52.785156 94.558594 C 54.359375 94.824219 56.191406 94.84375 58.269531 94.402344 C 58.605469 94.328125 58.949219 94.25 59.304688 94.148438 C 59.59375 94.070312 59.890625 93.984375 60.179688 93.886719 C 60.871094 93.664062 61.589844 93.390625 62.328125 93.054688 C 66.484375 90.222656 68.386719 86.925781 68.875 83.707031 L 68.878906 83.699219 C 69.234375 81.34375 68.84375 79.03125 68.027344 76.960938 C 67.765625 76.304688 67.464844 75.671875 67.132812 75.070312 " fill-opacity="1" fill-rule="nonzero"/></g><path fill="#874c48" d="M 41.382812 82.125 C 41.351562 81.84375 41.332031 81.566406 41.316406 81.292969 C 41.316406 81.292969 41.316406 81.296875 41.316406 81.296875 C 41.332031 81.570312 41.351562 81.847656 41.382812 82.125 " fill-opacity="1" fill-rule="nonzero"/><path fill="#f0626a" d="M 55.070312 94.746094 C 54.257812 94.746094 53.496094 94.675781 52.785156 94.558594 C 53.527344 94.679688 54.273438 94.734375 55.019531 94.734375 C 56.082031 94.734375 57.140625 94.621094 58.1875 94.410156 C 58.21875 94.410156 58.246094 94.40625 58.269531 94.402344 C 57.128906 94.644531 56.058594 94.746094 55.070312 94.746094 M 50.996094 94.132812 C 50.25 93.910156 49.574219 93.625 48.988281 93.324219 C 49.636719 93.644531 50.332031 93.882812 50.996094 94.132812 M 43.277344 93.519531 C 43.351562 93.480469 43.421875 93.4375 43.496094 93.398438 C 43.421875 93.4375 43.351562 93.480469 43.277344 93.519531 M 54.308594 91.417969 C 50.324219 91.417969 46.265625 89.960938 43.867188 87.398438 C 42.945312 86.414062 42.203125 85.273438 41.660156 84.046875 C 41.640625 83.945312 41.621094 83.839844 41.605469 83.742188 C 41.539062 83.351562 41.484375 82.96875 41.4375 82.574219 C 42.804688 84.625 44.917969 86.1875 47.238281 86.949219 C 47.574219 87.25 47.941406 87.515625 48.007812 87.558594 C 48.320312 87.75 48.703125 88.03125 49.058594 88.117188 C 49.109375 88.128906 49.164062 88.132812 49.222656 88.132812 C 49.347656 88.132812 49.484375 88.113281 49.621094 88.089844 C 49.757812 88.070312 49.894531 88.046875 50.019531 88.046875 C 50.140625 88.046875 50.25 88.066406 50.335938 88.125 C 50.570312 88.289062 50.515625 88.652344 50.386719 88.90625 C 50.253906 89.15625 50.0625 89.414062 50.109375 89.695312 C 50.183594 90.113281 50.675781 90.234375 51.128906 90.234375 C 51.203125 90.234375 51.28125 90.230469 51.355469 90.222656 C 52.085938 90.160156 52.820312 90.097656 53.554688 90.039062 C 53.242188 90.265625 53.417969 90.8125 53.769531 90.972656 C 53.90625 91.03125 54.046875 91.058594 54.195312 91.058594 C 54.429688 91.058594 54.675781 90.996094 54.90625 90.9375 C 55.121094 90.878906 55.351562 90.828125 55.574219 90.828125 C 55.734375 90.828125 55.894531 90.855469 56.039062 90.929688 C 55.964844 91.046875 55.886719 91.1875 55.808594 91.347656 C 55.3125 91.394531 54.808594 91.417969 54.308594 91.417969 M 42.8125 88.421875 C 42.789062 88.238281 42.75 88.050781 42.683594 87.863281 C 42.75 88.050781 42.789062 88.238281 42.8125 88.421875 M 41.382812 82.125 C 41.351562 81.847656 41.332031 81.570312 41.316406 81.296875 C 41.332031 81.570312 41.355469 81.847656 41.382812 82.125 " fill-opacity="1" fill-rule="nonzero"/><path fill="#96c718" d="M 87.605469 44.671875 C 87.496094 44.671875 87.394531 44.5625 87.476562 44.457031 C 90.839844 40.289062 96.664062 38.492188 101.910156 38.492188 C 102.273438 38.492188 102.632812 38.5 102.992188 38.515625 C 103.066406 38.519531 103.0625 38.636719 102.988281 38.636719 C 102.988281 38.636719 102.984375 38.636719 102.984375 38.636719 C 102.828125 38.632812 102.671875 38.628906 102.515625 38.628906 C 96.664062 38.628906 92.242188 41.144531 87.691406 44.644531 C 87.667969 44.664062 87.636719 44.671875 87.605469 44.671875 " fill-opacity="1" fill-rule="nonzero"/><path fill="#b4d21a" d="M 74.050781 50.789062 C 73.707031 50.316406 73.417969 49.78125 73.128906 49.238281 C 73.390625 46.730469 73.527344 44.191406 73.644531 41.65625 C 73.988281 34.183594 75.539062 26.429688 80.445312 20.578125 C 80.464844 20.550781 80.492188 20.539062 80.519531 20.539062 C 80.585938 20.539062 80.648438 20.609375 80.601562 20.679688 C 77.367188 25.570312 76.164062 31.195312 75.476562 36.988281 C 76.472656 34.386719 78.351562 32.097656 80.273438 30.175781 C 80.289062 30.15625 80.3125 30.152344 80.332031 30.152344 C 80.402344 30.152344 80.46875 30.234375 80.414062 30.296875 C 77.996094 33.125 75.929688 37.144531 75.289062 39.714844 C 75.273438 39.773438 75.21875 39.808594 75.171875 39.835938 C 74.820312 43.5 74.570312 47.199219 74.050781 50.789062 M 72.910156 48.820312 C 72.691406 48.40625 72.464844 47.996094 72.210938 47.609375 C 71.578125 43.847656 70.660156 40.164062 69.472656 36.472656 C 69.449219 36.394531 69.519531 36.339844 69.585938 36.339844 C 69.625 36.339844 69.664062 36.355469 69.683594 36.398438 C 71.445312 40.320312 72.515625 44.539062 72.910156 48.820312 " fill-opacity="1" fill-rule="nonzero"/><path fill="#9dc80e" d="M 67.335938 67.246094 C 67.21875 67.246094 67.101562 67.09375 67.183594 66.980469 C 70.503906 62.375 72.027344 57.226562 72.804688 51.875 C 72.644531 50.4375 72.449219 49.019531 72.210938 47.609375 C 72.464844 47.996094 72.691406 48.40625 72.910156 48.820312 C 72.953125 49.296875 72.988281 49.777344 73.015625 50.253906 C 73.058594 49.917969 73.09375 49.578125 73.128906 49.238281 C 73.417969 49.78125 73.707031 50.316406 74.050781 50.789062 C 73.183594 56.773438 71.5625 62.460938 67.4375 67.195312 C 67.40625 67.230469 67.371094 67.246094 67.335938 67.246094 " fill-opacity="1" fill-rule="nonzero"/><path fill="#b4d21a" d="M 63.355469 36.546875 C 63.839844 36.175781 64.511719 35.902344 65.390625 35.734375 C 68.5625 35.140625 69.234375 33.132812 69.234375 30.648438 C 69.234375 28.828125 68.871094 26.75 68.871094 24.796875 C 68.871094 24.203125 68.90625 23.628906 68.992188 23.070312 C 69.574219 19.296875 70.410156 17.46875 71.605469 17.46875 C 71.972656 17.46875 72.371094 17.636719 72.808594 17.972656 C 75.179688 14.410156 77.609375 9.984375 81.515625 9.984375 C 82.417969 9.984375 83.398438 10.21875 84.472656 10.753906 C 86.066406 12.234375 86.53125 13.921875 86.53125 15.394531 C 86.53125 17.472656 85.597656 19.117188 85.597656 19.117188 C 85.597656 19.117188 89.324219 19.457031 89.324219 22.734375 C 89.324219 23.261719 89.226562 23.863281 89.003906 24.550781 C 88.742188 25.363281 88.382812 26.160156 87.964844 26.925781 C 88.050781 26.40625 88.097656 25.890625 88.101562 25.363281 C 88.09375 23.761719 87.535156 22.074219 86.265625 21.089844 C 85.757812 20.699219 85.15625 20.425781 84.738281 19.941406 C 83.128906 18.117188 85.03125 16.078125 84.675781 14.097656 C 84.398438 12.507812 82.582031 11.792969 80.957031 11.792969 C 80.5625 11.792969 80.179688 11.835938 79.832031 11.917969 C 78.375 12.257812 77.117188 13.203125 76.148438 14.34375 C 75.570312 15.015625 72.71875 18.511719 73.335938 19.492188 C 73.082031 19.09375 72.632812 18.910156 72.164062 18.910156 C 71.710938 18.910156 71.242188 19.078125 70.910156 19.378906 C 70.230469 20.003906 70.007812 20.980469 69.933594 21.902344 C 69.769531 24.128906 70.292969 26.351562 70.40625 28.578125 C 70.523438 30.808594 70.132812 33.25 68.507812 34.789062 C 67.152344 36.078125 65.269531 36.453125 63.355469 36.546875 " fill-opacity="1" fill-rule="nonzero"/><path fill="#96c718" d="M 101.496094 48.558594 C 100.910156 48.558594 100.195312 48.453125 99.34375 48.21875 L 99.363281 48.195312 C 99.933594 47.78125 100.882812 48.082031 101.335938 47.542969 C 101.765625 47.039062 101.390625 46.265625 100.914062 45.820312 C 100.433594 45.371094 99.8125 44.976562 99.679688 44.339844 C 99.515625 43.585938 100.132812 42.855469 100.855469 42.601562 C 101.214844 42.476562 101.589844 42.4375 101.96875 42.4375 C 102.355469 42.4375 102.742188 42.476562 103.125 42.511719 C 103.816406 42.570312 104.515625 42.605469 105.214844 42.605469 C 107.886719 42.605469 110.558594 42.109375 112.816406 40.730469 C 115.671875 38.988281 117.675781 35.585938 117.023438 32.308594 C 116.398438 29.136719 113.496094 26.816406 110.394531 25.9375 C 108.894531 25.515625 107.367188 25.367188 105.828125 25.367188 C 103.828125 25.367188 101.816406 25.617188 99.839844 25.832031 C 99.058594 25.917969 97.804688 26.113281 96.558594 26.113281 C 96.210938 26.113281 95.859375 26.097656 95.519531 26.058594 C 99.753906 24.734375 103.570312 23.582031 107.003906 23.582031 C 111.476562 23.582031 115.300781 25.539062 118.542969 31.613281 C 118.800781 32.890625 118.914062 34.039062 118.914062 35.066406 C 118.910156 39.1875 117.085938 41.378906 115.636719 42.472656 C 114.675781 43.191406 113.882812 43.433594 113.882812 43.433594 C 113.882812 43.433594 113.664062 43.4375 113.285156 43.441406 C 110.988281 43.476562 102.8125 43.65625 102.5625 44.433594 C 103.308594 45.167969 103.746094 46.070312 103.746094 46.847656 C 103.746094 47.800781 103.082031 48.558594 101.496094 48.558594 " fill-opacity="1" fill-rule="nonzero"/><g clip-path="url(#ea327643b2)"><path fill="#e8949b" d="M 28.707031 104.125 C 28.710938 104.125 28.714844 104.121094 28.71875 104.117188 C 28.714844 104.121094 28.710938 104.125 28.707031 104.125 " fill-opacity="1" fill-rule="nonzero"/></g><path fill="#e8949b" d="M 36.730469 94.417969 C 38.609375 93.5 43.140625 91.242188 42.8125 88.421875 C 42.824219 88.519531 42.828125 88.617188 42.828125 88.714844 C 42.828125 89.234375 42.667969 89.734375 42.398438 90.210938 C 41.261719 92.179688 38.191406 93.707031 36.730469 94.417969 " fill-opacity="1" fill-rule="nonzero"/><g clip-path="url(#a38e2c38b3)"><path fill="#cc131d" d="M 28.71875 104.117188 C 29.910156 103.273438 30.871094 102.128906 31.515625 100.824219 C 32.070312 99.714844 32.175781 98.476562 32.8125 97.421875 C 33.695312 95.949219 35.230469 95.15625 36.730469 94.417969 C 38.191406 93.707031 41.261719 92.179688 42.398438 90.210938 C 42.667969 89.734375 42.828125 89.234375 42.828125 88.714844 C 42.828125 89.234375 42.667969 89.734375 42.398438 90.210938 C 42.613281 90.257812 42.804688 90.347656 42.941406 90.519531 C 43.164062 90.796875 43.140625 91.128906 43.058594 91.480469 C 42.464844 91.8125 41.890625 92.195312 41.339844 92.574219 C 39.558594 93.773438 33.121094 98.230469 32.132812 101.953125 C 31.089844 102.886719 29.894531 103.285156 28.71875 104.117188 M 55.667969 93.558594 C 55.59375 93.558594 55.523438 93.558594 55.453125 93.554688 C 55.117188 93.019531 55.464844 92.027344 55.808594 91.347656 C 57.925781 91.144531 59.957031 90.511719 61.632812 89.386719 C 68.925781 84.480469 67.382812 78.476562 67.132812 75.070312 C 67.464844 75.671875 67.765625 76.304688 68.027344 76.960938 C 68.636719 78.507812 69.011719 80.191406 69.007812 81.929688 C 69.007812 82.515625 68.964844 83.105469 68.878906 83.699219 L 68.875 83.707031 C 68.753906 84.5 68.546875 85.300781 68.242188 86.09375 C 66.792969 88.117188 65.074219 89.933594 63.003906 91.289062 C 60.839844 92.703125 58.230469 93.558594 55.667969 93.558594 " fill-opacity="1" fill-rule="nonzero"/></g><path fill="#da3940" d="M 55.453125 93.554688 C 54.0625 93.53125 52.6875 93.25 51.410156 92.667969 C 49.757812 91.914062 48.242188 90.667969 46.417969 90.550781 C 46.328125 90.546875 46.238281 90.542969 46.148438 90.542969 C 45.0625 90.542969 44.03125 90.941406 43.058594 91.480469 C 43.140625 91.128906 43.164062 90.796875 42.941406 90.519531 C 42.804688 90.347656 42.613281 90.257812 42.398438 90.210938 C 42.667969 89.734375 42.828125 89.234375 42.828125 88.714844 C 42.828125 88.617188 42.824219 88.519531 42.8125 88.421875 C 42.789062 88.238281 42.75 88.050781 42.683594 87.863281 C 42.238281 86.566406 41.898438 85.289062 41.660156 84.046875 C 42.203125 85.273438 42.945312 86.414062 43.867188 87.398438 C 46.265625 89.960938 50.324219 91.417969 54.308594 91.417969 C 54.808594 91.417969 55.3125 91.394531 55.808594 91.347656 C 55.464844 92.027344 55.117188 93.019531 55.453125 93.554688 " fill-opacity="1" fill-rule="nonzero"/><path fill="#942015" d="M 41.316406 81.292969 C 41.214844 79.609375 41.34375 78.007812 41.71875 76.519531 C 41.40625 77.765625 41.265625 79.089844 41.289062 80.472656 C 41.289062 80.472656 41.289062 80.476562 41.289062 80.476562 C 41.289062 80.476562 41.289062 80.476562 41.289062 80.472656 C 41.292969 80.746094 41.300781 81.019531 41.316406 81.292969 " fill-opacity="1" fill-rule="nonzero"/><path fill="#f23c40" d="M 51.140625 87.527344 C 50.316406 87.527344 49.492188 87.457031 48.679688 87.3125 C 48.195312 87.226562 47.710938 87.101562 47.238281 86.949219 C 46.785156 86.539062 46.390625 86.054688 46.867188 85.945312 C 46.816406 85.957031 46.769531 85.960938 46.722656 85.960938 C 46.199219 85.960938 45.742188 85.320312 45.976562 84.835938 C 45.921875 84.84375 45.871094 84.851562 45.816406 84.851562 C 45.21875 84.851562 44.660156 84.253906 44.746094 83.652344 C 44.796875 83.308594 45.003906 82.914062 44.78125 82.648438 C 44.683594 82.535156 44.539062 82.488281 44.386719 82.488281 C 44.300781 82.488281 44.21875 82.503906 44.140625 82.527344 C 43.917969 82.589844 43.71875 82.714844 43.492188 82.769531 C 43.464844 82.777344 43.433594 82.777344 43.398438 82.777344 C 42.664062 82.777344 41.300781 81.121094 41.289062 80.476562 C 41.289062 80.476562 41.289062 80.472656 41.289062 80.472656 C 41.265625 79.089844 41.40625 77.765625 41.71875 76.519531 C 42.058594 75.179688 42.597656 73.929688 43.355469 72.800781 C 43.4375 72.671875 43.527344 72.539062 43.617188 72.417969 C 43.699219 72.289062 43.792969 72.167969 43.890625 72.050781 C 43.914062 72.019531 43.9375 71.988281 43.96875 71.957031 C 44.101562 71.789062 44.242188 71.625 44.386719 71.46875 L 44.40625 71.441406 C 44.566406 71.265625 44.726562 71.097656 44.902344 70.925781 C 45.046875 70.785156 45.191406 70.652344 45.347656 70.519531 C 45.390625 70.480469 45.441406 70.433594 45.492188 70.390625 C 45.632812 70.265625 45.789062 70.140625 45.941406 70.023438 C 45.96875 70 45.992188 69.980469 46.019531 69.960938 C 46.746094 69.40625 47.566406 68.910156 48.472656 68.476562 C 48.527344 68.449219 48.585938 68.421875 48.628906 68.402344 C 48.828125 68.304688 49.027344 68.222656 49.222656 68.140625 C 49.609375 67.972656 49.996094 67.824219 50.378906 67.695312 C 52.066406 67.117188 53.605469 66.882812 55 66.882812 C 55.867188 66.882812 56.679688 66.972656 57.433594 67.132812 C 58.71875 67.71875 59.847656 68.652344 60.761719 69.753906 C 60.742188 69.789062 60.722656 69.828125 60.707031 69.871094 C 60.582031 70.265625 60.898438 70.570312 61.25 70.570312 C 61.289062 70.570312 61.328125 70.566406 61.371094 70.558594 C 64.0625 74.332031 65.105469 78.410156 62.03125 82.390625 C 59.453125 85.722656 55.300781 87.527344 51.140625 87.527344 M 59.597656 82.269531 C 59.351562 82.269531 59.175781 82.542969 59.285156 82.78125 C 59.304688 82.824219 59.328125 82.871094 59.347656 82.914062 C 59.382812 82.984375 59.460938 83.027344 59.539062 83.027344 C 59.570312 83.027344 59.601562 83.023438 59.628906 83.007812 C 59.671875 82.980469 59.714844 82.957031 59.757812 82.933594 C 60.019531 82.785156 60.003906 82.382812 59.707031 82.285156 C 59.671875 82.273438 59.632812 82.269531 59.597656 82.269531 M 54.214844 67.742188 C 53.898438 67.742188 53.582031 67.761719 53.265625 67.796875 C 48.527344 68.355469 42.195312 73.042969 44.363281 78.484375 C 45.3125 80.878906 47.632812 81.109375 49.820312 81.617188 C 50.367188 81.746094 50.914062 81.808594 51.449219 81.808594 C 56.214844 81.808594 60.257812 77.035156 59.835938 72.296875 C 59.75 71.339844 59.445312 70.539062 58.984375 69.886719 C 59.027344 69.828125 59.058594 69.75 59.074219 69.664062 C 59.160156 69.132812 58.558594 68.757812 58.136719 68.601562 C 57.859375 68.5 57.566406 68.445312 57.277344 68.4375 C 56.371094 67.96875 55.308594 67.742188 54.214844 67.742188 M 43.1875 78.769531 C 42.871094 78.769531 42.742188 79.273438 43.09375 79.386719 C 43.128906 79.398438 43.164062 79.40625 43.199219 79.40625 C 43.515625 79.40625 43.644531 78.898438 43.289062 78.785156 C 43.253906 78.773438 43.21875 78.769531 43.1875 78.769531 M 63.558594 77.078125 C 63.402344 77.078125 63.335938 77.332031 63.511719 77.390625 C 63.53125 77.394531 63.546875 77.398438 63.566406 77.398438 C 63.722656 77.398438 63.789062 77.144531 63.609375 77.085938 C 63.59375 77.082031 63.574219 77.078125 63.558594 77.078125 " fill-opacity="1" fill-rule="nonzero"/><path fill="#cd6257" d="M 41.316406 81.296875 C 41.316406 81.296875 41.316406 81.292969 41.316406 81.292969 C 41.300781 81.019531 41.292969 80.746094 41.289062 80.472656 C 41.289062 80.476562 41.289062 80.476562 41.289062 80.476562 C 41.292969 80.746094 41.300781 81.023438 41.316406 81.296875 " fill-opacity="1" fill-rule="nonzero"/><path fill="#f97676" d="M 47.238281 86.949219 C 44.917969 86.1875 42.804688 84.625 41.4375 82.574219 C 41.417969 82.429688 41.398438 82.277344 41.382812 82.125 C 41.355469 81.847656 41.332031 81.570312 41.316406 81.296875 C 41.300781 81.023438 41.292969 80.746094 41.289062 80.476562 C 41.300781 81.121094 42.664062 82.777344 43.398438 82.777344 C 43.433594 82.777344 43.464844 82.777344 43.492188 82.769531 C 43.71875 82.714844 43.917969 82.589844 44.140625 82.527344 C 44.21875 82.503906 44.300781 82.488281 44.386719 82.488281 C 44.539062 82.488281 44.683594 82.535156 44.78125 82.648438 C 45.003906 82.914062 44.796875 83.308594 44.746094 83.652344 C 44.660156 84.253906 45.21875 84.851562 45.816406 84.851562 C 45.871094 84.851562 45.921875 84.84375 45.976562 84.835938 C 45.742188 85.320312 46.199219 85.960938 46.722656 85.960938 C 46.769531 85.960938 46.816406 85.957031 46.867188 85.945312 C 46.390625 86.054688 46.785156 86.539062 47.238281 86.949219 " fill-opacity="1" fill-rule="nonzero"/><path fill="#fa5450" d="M 51.449219 81.808594 C 50.914062 81.808594 50.367188 81.746094 49.820312 81.617188 C 47.632812 81.109375 45.3125 80.878906 44.363281 78.484375 C 42.195312 73.042969 48.527344 68.355469 53.265625 67.796875 C 53.582031 67.761719 53.898438 67.742188 54.214844 67.742188 C 55.308594 67.742188 56.371094 67.96875 57.277344 68.4375 C 57.238281 68.433594 57.203125 68.433594 57.167969 68.433594 C 56.964844 68.433594 56.761719 68.453125 56.558594 68.492188 C 55.886719 68.617188 56.097656 69.550781 56.71875 69.550781 C 56.742188 69.550781 56.765625 69.550781 56.789062 69.546875 C 56.851562 69.539062 56.910156 69.535156 56.96875 69.535156 C 57.265625 69.535156 57.542969 69.617188 57.816406 69.746094 C 58.074219 69.867188 58.328125 70.035156 58.613281 70.035156 C 58.667969 70.035156 58.722656 70.03125 58.777344 70.015625 C 58.867188 69.996094 58.933594 69.949219 58.984375 69.886719 C 59.445312 70.539062 59.75 71.339844 59.835938 72.296875 C 60.257812 77.035156 56.214844 81.808594 51.449219 81.808594 M 51.496094 69.96875 C 49.945312 69.96875 48.335938 70.523438 47.636719 71.554688 C 46.414062 73.355469 46.523438 75.695312 48.785156 76.597656 C 48.824219 76.613281 48.863281 76.628906 48.90625 76.644531 C 49.222656 76.75 49.578125 76.800781 49.957031 76.800781 C 52.890625 76.800781 57.105469 73.746094 54.597656 71.046875 C 53.917969 70.316406 52.726562 69.96875 51.496094 69.96875 " fill-opacity="1" fill-rule="nonzero"/><path fill="#d3565e" d="M 32.371094 101.734375 C 32.507812 101.597656 32.640625 101.449219 32.773438 101.289062 C 33.550781 100.339844 33.84375 99.023438 34.625 98.136719 C 35.550781 97.089844 37.359375 96.671875 38.625 96.226562 C 39.035156 96.078125 39.4375 95.894531 39.828125 95.679688 C 39.4375 95.894531 39.035156 96.078125 38.625 96.226562 C 37.359375 96.671875 35.550781 97.089844 34.625 98.136719 C 33.84375 99.023438 33.550781 100.339844 32.773438 101.289062 C 32.644531 101.453125 32.507812 101.597656 32.371094 101.734375 M 59.304688 94.148438 C 59.59375 94.070312 59.890625 93.984375 60.179688 93.886719 C 60.871094 93.664062 61.589844 93.390625 62.328125 93.054688 C 65.210938 91.09375 67.007812 88.90625 68 86.675781 C 67.011719 88.90625 65.207031 91.09375 62.328125 93.054688 C 61.589844 93.390625 60.871094 93.664062 60.179688 93.886719 C 59.890625 93.984375 59.59375 94.070312 59.304688 94.148438 M 43.496094 93.398438 C 44.40625 92.898438 45.34375 92.542969 46.359375 92.542969 C 47.089844 92.542969 47.855469 92.726562 48.683594 93.171875 C 48.785156 93.222656 48.882812 93.277344 48.988281 93.324219 C 48.882812 93.277344 48.785156 93.222656 48.683594 93.171875 C 47.855469 92.726562 47.089844 92.542969 46.359375 92.542969 C 45.34375 92.542969 44.40625 92.898438 43.496094 93.398438 " fill-opacity="1" fill-rule="nonzero"/><path fill="#ba0b12" d="M 32.132812 101.953125 C 33.121094 98.230469 39.558594 93.773438 41.339844 92.574219 C 41.890625 92.195312 42.464844 91.8125 43.058594 91.480469 C 42.949219 91.949219 42.734375 92.449219 42.84375 92.90625 C 42.90625 93.167969 43.058594 93.371094 43.277344 93.519531 C 42.128906 94.179688 41.015625 95.042969 39.828125 95.679688 C 39.4375 95.894531 39.035156 96.078125 38.625 96.226562 C 37.359375 96.671875 35.550781 97.089844 34.625 98.136719 C 33.84375 99.023438 33.550781 100.339844 32.773438 101.289062 C 32.640625 101.449219 32.507812 101.597656 32.371094 101.734375 C 32.289062 101.8125 32.210938 101.882812 32.132812 101.953125 M 58.125 94.414062 C 57.492188 94.414062 55.746094 93.953125 55.488281 93.605469 C 55.476562 93.589844 55.464844 93.574219 55.453125 93.554688 C 55.523438 93.558594 55.59375 93.558594 55.667969 93.558594 C 58.230469 93.558594 60.839844 92.703125 63.003906 91.289062 C 65.074219 89.933594 66.792969 88.117188 68.242188 86.09375 C 68.167969 86.289062 68.089844 86.480469 68 86.675781 C 67.007812 88.90625 65.210938 91.09375 62.328125 93.054688 C 61.589844 93.390625 60.871094 93.664062 60.179688 93.886719 C 59.890625 93.984375 59.59375 94.070312 59.304688 94.148438 C 58.933594 94.25 58.558594 94.335938 58.1875 94.410156 C 58.167969 94.414062 58.148438 94.414062 58.125 94.414062 " fill-opacity="1" fill-rule="nonzero"/><path fill="#c62127" d="M 55.019531 94.734375 C 54.273438 94.734375 53.527344 94.679688 52.785156 94.558594 C 52.589844 94.523438 52.394531 94.484375 52.195312 94.449219 C 52.070312 94.421875 51.945312 94.394531 51.824219 94.359375 C 51.730469 94.34375 51.640625 94.324219 51.558594 94.292969 C 51.378906 94.25 51.203125 94.199219 51.027344 94.144531 L 50.996094 94.132812 C 50.332031 93.882812 49.636719 93.644531 48.988281 93.324219 C 48.882812 93.277344 48.785156 93.222656 48.683594 93.171875 C 47.855469 92.726562 47.089844 92.542969 46.359375 92.542969 C 45.34375 92.542969 44.40625 92.898438 43.496094 93.398438 C 43.421875 93.4375 43.351562 93.480469 43.277344 93.519531 C 43.058594 93.371094 42.90625 93.167969 42.84375 92.90625 C 42.734375 92.449219 42.949219 91.949219 43.058594 91.480469 C 44.03125 90.941406 45.0625 90.542969 46.148438 90.542969 C 46.238281 90.542969 46.328125 90.546875 46.417969 90.550781 C 48.242188 90.667969 49.757812 91.914062 51.410156 92.667969 C 52.6875 93.25 54.0625 93.53125 55.453125 93.554688 C 55.464844 93.574219 55.476562 93.589844 55.488281 93.605469 C 55.746094 93.953125 57.492188 94.414062 58.125 94.414062 C 58.148438 94.414062 58.167969 94.414062 58.1875 94.410156 C 57.140625 94.621094 56.082031 94.734375 55.019531 94.734375 " fill-opacity="1" fill-rule="nonzero"/><path fill="#eb4d57" d="M 65.601562 80.605469 C 65.53125 80.605469 65.453125 80.59375 65.371094 80.570312 C 64.585938 80.3125 64.871094 79.183594 65.578125 79.183594 C 65.648438 79.183594 65.726562 79.195312 65.808594 79.222656 C 66.597656 79.476562 66.308594 80.605469 65.601562 80.605469 " fill-opacity="1" fill-rule="nonzero"/><path fill="#eb4d57" d="M 63.515625 86.5625 C 63.511719 86.5625 63.503906 86.5625 63.496094 86.5625 C 63.382812 86.542969 63.3125 86.519531 63.222656 86.445312 C 63.019531 86.285156 63 85.964844 63.253906 85.835938 C 63.308594 85.808594 63.363281 85.796875 63.417969 85.796875 C 63.605469 85.796875 63.761719 85.964844 63.769531 86.167969 C 63.777344 86.285156 63.753906 86.355469 63.703125 86.457031 C 63.671875 86.515625 63.585938 86.5625 63.515625 86.5625 " fill-opacity="1" fill-rule="nonzero"/><path fill="#eb4d57" d="M 65.832031 84.273438 C 65.800781 84.273438 65.769531 84.269531 65.734375 84.257812 C 65.398438 84.148438 65.519531 83.664062 65.820312 83.664062 C 65.851562 83.664062 65.886719 83.671875 65.917969 83.683594 C 66.253906 83.792969 66.132812 84.273438 65.832031 84.273438 " fill-opacity="1" fill-rule="nonzero"/><path fill="#f76465" d="M 63.566406 77.398438 C 63.546875 77.398438 63.53125 77.394531 63.511719 77.390625 C 63.335938 77.332031 63.402344 77.078125 63.558594 77.078125 C 63.574219 77.078125 63.59375 77.082031 63.609375 77.085938 C 63.789062 77.144531 63.722656 77.398438 63.566406 77.398438 " fill-opacity="1" fill-rule="nonzero"/><path fill="#f76465" d="M 59.539062 83.027344 C 59.460938 83.027344 59.382812 82.984375 59.347656 82.914062 C 59.328125 82.871094 59.304688 82.824219 59.285156 82.78125 C 59.175781 82.542969 59.351562 82.269531 59.597656 82.269531 C 59.632812 82.269531 59.671875 82.273438 59.707031 82.285156 C 60.003906 82.382812 60.019531 82.785156 59.757812 82.933594 C 59.714844 82.957031 59.671875 82.980469 59.628906 83.007812 C 59.601562 83.023438 59.570312 83.027344 59.539062 83.027344 " fill-opacity="1" fill-rule="nonzero"/><path fill="#eb4d57" d="M 56.992188 89.839844 C 56.941406 89.839844 56.882812 89.832031 56.828125 89.8125 C 56.257812 89.628906 56.464844 88.8125 56.972656 88.8125 C 57.027344 88.8125 57.082031 88.820312 57.140625 88.839844 C 57.707031 89.023438 57.5 89.839844 56.992188 89.839844 " fill-opacity="1" fill-rule="nonzero"/><path fill="#eb4d57" d="M 61.769531 70.585938 C 61.753906 70.585938 61.734375 70.582031 61.71875 70.578125 C 61.644531 70.554688 61.625 70.492188 61.628906 70.433594 C 61.601562 70.457031 61.578125 70.484375 61.542969 70.496094 L 61.476562 70.527344 C 61.441406 70.539062 61.40625 70.550781 61.371094 70.558594 C 61.300781 70.460938 61.230469 70.363281 61.15625 70.265625 C 61.03125 70.089844 60.898438 69.921875 60.761719 69.753906 C 60.859375 69.585938 61.027344 69.507812 61.199219 69.507812 C 61.394531 69.507812 61.597656 69.605469 61.710938 69.792969 L 61.753906 69.855469 C 61.832031 69.984375 61.8125 70.160156 61.734375 70.300781 C 61.753906 70.296875 61.769531 70.292969 61.789062 70.292969 C 61.796875 70.292969 61.800781 70.292969 61.8125 70.296875 C 61.976562 70.347656 61.917969 70.585938 61.769531 70.585938 " fill-opacity="1" fill-rule="nonzero"/><path fill="#f76465" d="M 61.25 70.570312 C 60.898438 70.570312 60.582031 70.265625 60.707031 69.871094 C 60.722656 69.828125 60.742188 69.789062 60.761719 69.753906 C 60.898438 69.921875 61.03125 70.089844 61.15625 70.265625 C 61.230469 70.363281 61.300781 70.460938 61.371094 70.558594 C 61.328125 70.566406 61.289062 70.570312 61.25 70.570312 " fill-opacity="1" fill-rule="nonzero"/><path fill="#eb4d57" d="M 63.394531 72.835938 C 63.339844 72.835938 63.28125 72.828125 63.21875 72.808594 C 62.617188 72.613281 62.835938 71.75 63.375 71.75 C 63.429688 71.75 63.492188 71.761719 63.550781 71.78125 C 64.152344 71.976562 63.933594 72.835938 63.394531 72.835938 " fill-opacity="1" fill-rule="nonzero"/><path fill="#eb4d57" d="M 65.007812 74.0625 C 64.664062 74.0625 64.335938 73.761719 64.429688 73.300781 C 64.4375 73.265625 64.445312 73.230469 64.453125 73.195312 C 64.496094 72.976562 64.707031 72.847656 64.902344 72.785156 L 64.953125 72.769531 C 64.988281 72.757812 65.023438 72.753906 65.0625 72.753906 C 65.210938 72.753906 65.378906 72.824219 65.457031 72.933594 L 65.488281 72.976562 C 65.609375 73.140625 65.707031 73.367188 65.613281 73.570312 C 65.597656 73.601562 65.585938 73.636719 65.570312 73.667969 C 65.445312 73.941406 65.222656 74.0625 65.007812 74.0625 " fill-opacity="1" fill-rule="nonzero"/><path fill="#eb4d57" d="M 65.828125 76.167969 C 65.785156 76.167969 65.742188 76.160156 65.691406 76.144531 C 65.230469 75.996094 65.398438 75.328125 65.816406 75.328125 C 65.855469 75.328125 65.902344 75.335938 65.949219 75.351562 C 66.414062 75.503906 66.246094 76.167969 65.828125 76.167969 " fill-opacity="1" fill-rule="nonzero"/><path fill="#f76465" d="M 43.199219 79.40625 C 43.164062 79.40625 43.128906 79.398438 43.09375 79.386719 C 42.742188 79.273438 42.871094 78.769531 43.1875 78.769531 C 43.21875 78.769531 43.253906 78.773438 43.289062 78.785156 C 43.644531 78.898438 43.515625 79.40625 43.199219 79.40625 " fill-opacity="1" fill-rule="nonzero"/><path fill="#f76465" d="M 58.984375 69.886719 C 58.539062 69.265625 57.953125 68.785156 57.277344 68.4375 C 57.566406 68.445312 57.859375 68.5 58.136719 68.601562 C 58.558594 68.757812 59.160156 69.132812 59.074219 69.664062 C 59.058594 69.75 59.027344 69.828125 58.984375 69.886719 " fill-opacity="1" fill-rule="nonzero"/><path fill="#fc7772" d="M 58.613281 70.035156 C 58.328125 70.035156 58.074219 69.867188 57.816406 69.746094 C 57.542969 69.617188 57.265625 69.535156 56.96875 69.535156 C 56.910156 69.535156 56.851562 69.539062 56.789062 69.546875 C 56.765625 69.550781 56.742188 69.550781 56.71875 69.550781 C 56.097656 69.550781 55.886719 68.617188 56.558594 68.492188 C 56.761719 68.453125 56.964844 68.433594 57.167969 68.433594 C 57.203125 68.433594 57.238281 68.433594 57.277344 68.4375 C 57.953125 68.785156 58.539062 69.265625 58.984375 69.886719 C 58.933594 69.949219 58.867188 69.996094 58.777344 70.015625 C 58.722656 70.03125 58.667969 70.035156 58.613281 70.035156 " fill-opacity="1" fill-rule="nonzero"/><path fill="#eb4d57" d="M 65.089844 75.113281 C 64.949219 75.113281 64.808594 75.0625 64.699219 74.957031 L 64.632812 74.890625 C 64.394531 74.660156 64.546875 74.1875 64.878906 74.136719 C 64.90625 74.132812 64.9375 74.128906 64.96875 74.125 C 64.996094 74.121094 65.023438 74.121094 65.050781 74.121094 C 65.386719 74.121094 65.671875 74.417969 65.558594 74.773438 C 65.484375 75 65.289062 75.113281 65.089844 75.113281 " fill-opacity="1" fill-rule="nonzero"/><path fill="#fd8781" d="M 49.957031 76.800781 C 49.578125 76.800781 49.222656 76.75 48.90625 76.644531 C 48.863281 76.628906 48.824219 76.613281 48.785156 76.597656 C 46.523438 75.695312 46.414062 73.355469 47.636719 71.554688 C 48.335938 70.523438 49.945312 69.96875 51.496094 69.96875 C 52.726562 69.96875 53.917969 70.316406 54.597656 71.046875 C 57.105469 73.746094 52.890625 76.800781 49.957031 76.800781 M 49.164062 73.335938 C 48.90625 73.859375 48.882812 74.488281 49.433594 74.863281 C 49.53125 74.929688 49.640625 74.960938 49.746094 74.960938 C 49.871094 74.960938 49.992188 74.917969 50.105469 74.851562 C 50.109375 74.851562 50.109375 74.851562 50.113281 74.851562 C 50.398438 74.851562 50.601562 74.644531 50.679688 74.398438 C 50.691406 74.402344 50.699219 74.402344 50.703125 74.402344 C 50.703125 74.402344 50.691406 74.402344 50.679688 74.398438 C 50.679688 74.394531 50.679688 74.390625 50.683594 74.390625 C 50.71875 74.390625 50.753906 74.394531 50.792969 74.394531 C 51 74.394531 51.222656 74.351562 51.390625 74.246094 C 51.757812 74.007812 52.007812 73.582031 51.894531 73.15625 C 51.894531 73.15625 51.894531 73.152344 51.894531 73.152344 L 51.910156 73.113281 C 51.980469 72.984375 52.023438 72.847656 52.015625 72.707031 C 52.070312 72.378906 51.949219 72.03125 51.554688 71.886719 C 51.425781 71.515625 51.121094 71.285156 50.734375 71.21875 C 50.671875 71.210938 50.617188 71.207031 50.558594 71.207031 C 50.398438 71.207031 50.246094 71.242188 50.089844 71.296875 C 50.015625 71.324219 49.976562 71.335938 49.976562 71.335938 C 49.976562 71.335938 49.980469 71.335938 49.984375 71.335938 C 50.023438 71.320312 50.0625 71.308594 50.101562 71.292969 C 50.035156 71.316406 50 71.332031 49.984375 71.335938 C 49.941406 71.351562 49.898438 71.367188 49.855469 71.382812 C 49.808594 71.402344 49.765625 71.441406 49.722656 71.476562 C 49.703125 71.476562 49.683594 71.476562 49.664062 71.476562 C 49.558594 71.476562 49.453125 71.5 49.363281 71.535156 C 48.601562 71.84375 48.738281 72.785156 49.148438 73.316406 C 49.15625 73.324219 49.160156 73.328125 49.164062 73.335938 M 50.683594 74.375 C 50.683594 74.375 50.683594 74.375 50.6875 74.375 C 50.714844 74.363281 50.726562 74.359375 50.726562 74.359375 C 50.730469 74.359375 50.714844 74.363281 50.683594 74.375 " fill-opacity="1" fill-rule="nonzero"/><path fill="#fe9e99" d="M 49.746094 74.960938 C 49.640625 74.960938 49.53125 74.929688 49.433594 74.863281 C 48.882812 74.488281 48.90625 73.859375 49.164062 73.335938 C 49.308594 73.507812 49.515625 73.636719 49.738281 73.71875 C 49.398438 73.996094 49.355469 74.640625 49.90625 74.816406 C 49.976562 74.839844 50.042969 74.851562 50.105469 74.851562 C 49.992188 74.917969 49.871094 74.960938 49.746094 74.960938 M 50.792969 74.394531 C 50.753906 74.394531 50.71875 74.390625 50.683594 74.390625 C 50.683594 74.386719 50.683594 74.378906 50.683594 74.375 C 50.714844 74.363281 50.730469 74.359375 50.726562 74.359375 C 50.726562 74.359375 50.714844 74.363281 50.6875 74.375 C 50.730469 74.199219 50.714844 74.011719 50.613281 73.859375 C 50.621094 73.859375 50.628906 73.859375 50.632812 73.859375 C 50.671875 73.859375 50.710938 73.855469 50.746094 73.847656 C 50.773438 73.84375 50.792969 73.84375 50.8125 73.839844 L 50.75 73.851562 C 50.847656 73.839844 50.894531 73.835938 50.886719 73.835938 C 50.882812 73.835938 50.855469 73.835938 50.8125 73.839844 C 50.925781 73.824219 51.046875 73.832031 51.15625 73.824219 C 51.503906 73.792969 51.785156 73.457031 51.894531 73.15625 C 52.007812 73.582031 51.757812 74.007812 51.390625 74.246094 C 51.222656 74.351562 51 74.394531 50.792969 74.394531 " fill-opacity="1" fill-rule="nonzero"/><path fill="#fe9e99" d="M 50.703125 74.402344 C 50.699219 74.402344 50.691406 74.402344 50.679688 74.398438 C 50.691406 74.402344 50.703125 74.402344 50.703125 74.402344 " fill-opacity="1" fill-rule="nonzero"/><path fill="#feb2ac" d="M 50.75 73.851562 L 50.8125 73.839844 C 50.855469 73.835938 50.882812 73.835938 50.886719 73.835938 C 50.894531 73.835938 50.847656 73.839844 50.75 73.851562 " fill-opacity="1" fill-rule="nonzero"/><path fill="#fea09a" d="M 50.113281 74.851562 C 50.109375 74.851562 50.109375 74.851562 50.105469 74.851562 C 50.128906 74.839844 50.148438 74.824219 50.167969 74.808594 C 50.144531 74.824219 50.132812 74.832031 50.132812 74.832031 C 50.128906 74.832031 50.15625 74.8125 50.21875 74.773438 C 50.308594 74.722656 50.378906 74.652344 50.433594 74.5625 L 50.476562 74.492188 C 50.484375 74.484375 50.511719 74.464844 50.535156 74.441406 C 50.539062 74.441406 50.539062 74.441406 50.539062 74.441406 C 50.542969 74.441406 50.554688 74.4375 50.558594 74.433594 C 50.566406 74.425781 50.570312 74.421875 50.5625 74.421875 C 50.5625 74.421875 50.558594 74.425781 50.550781 74.425781 L 50.558594 74.417969 C 50.578125 74.410156 50.582031 74.410156 50.613281 74.398438 L 50.636719 74.390625 C 50.617188 74.386719 50.605469 74.386719 50.613281 74.386719 C 50.617188 74.386719 50.625 74.386719 50.640625 74.386719 L 50.648438 74.386719 L 50.636719 74.390625 L 50.648438 74.390625 L 50.660156 74.386719 L 50.648438 74.386719 C 50.664062 74.382812 50.675781 74.375 50.6875 74.375 C 50.683594 74.375 50.683594 74.375 50.683594 74.375 C 50.679688 74.378906 50.667969 74.382812 50.660156 74.386719 C 50.667969 74.386719 50.671875 74.390625 50.683594 74.390625 C 50.679688 74.390625 50.679688 74.394531 50.679688 74.398438 C 50.667969 74.394531 50.65625 74.394531 50.648438 74.390625 L 50.640625 74.394531 C 50.65625 74.398438 50.667969 74.398438 50.679688 74.398438 C 50.601562 74.644531 50.398438 74.851562 50.113281 74.851562 M 49.164062 73.335938 C 49.160156 73.328125 49.15625 73.324219 49.148438 73.316406 C 48.738281 72.785156 48.601562 71.84375 49.363281 71.535156 C 49.453125 71.5 49.558594 71.476562 49.664062 71.476562 C 49.683594 71.476562 49.703125 71.476562 49.722656 71.476562 C 49.765625 71.441406 49.808594 71.402344 49.855469 71.382812 C 49.898438 71.367188 49.941406 71.351562 49.984375 71.335938 C 49.980469 71.335938 49.976562 71.335938 49.976562 71.335938 C 49.976562 71.335938 50.015625 71.324219 50.089844 71.296875 C 50.246094 71.242188 50.398438 71.207031 50.558594 71.207031 C 50.617188 71.207031 50.671875 71.210938 50.734375 71.21875 C 51.121094 71.285156 51.425781 71.515625 51.554688 71.886719 C 51.949219 72.03125 52.070312 72.378906 52.015625 72.707031 C 52.023438 72.847656 51.980469 72.984375 51.910156 73.113281 L 51.894531 73.152344 C 51.894531 73.152344 51.894531 73.15625 51.894531 73.15625 C 51.875 73.085938 51.847656 73.015625 51.8125 72.949219 C 51.574219 72.519531 51.148438 72.328125 50.710938 72.328125 C 50.269531 72.328125 49.816406 72.515625 49.511719 72.839844 C 49.375 72.984375 49.257812 73.152344 49.164062 73.335938 " fill-opacity="1" fill-rule="nonzero"/><path fill="#feb2ac" d="M 50.648438 74.390625 L 50.636719 74.390625 L 50.648438 74.386719 L 50.660156 74.386719 L 50.648438 74.390625 " fill-opacity="1" fill-rule="nonzero"/><path fill="#feb2ac" d="M 50.105469 74.851562 C 50.042969 74.851562 49.976562 74.839844 49.90625 74.816406 C 49.355469 74.640625 49.398438 73.996094 49.738281 73.71875 C 49.515625 73.636719 49.308594 73.507812 49.164062 73.335938 C 49.257812 73.152344 49.375 72.984375 49.511719 72.839844 C 49.816406 72.515625 50.269531 72.328125 50.710938 72.328125 C 51.148438 72.328125 51.574219 72.519531 51.8125 72.949219 C 51.847656 73.015625 51.875 73.085938 51.894531 73.15625 C 51.785156 73.457031 51.503906 73.792969 51.15625 73.824219 C 51.046875 73.832031 50.925781 73.824219 50.8125 73.839844 C 50.792969 73.84375 50.773438 73.84375 50.746094 73.847656 C 50.710938 73.855469 50.671875 73.859375 50.632812 73.859375 C 50.628906 73.859375 50.621094 73.859375 50.613281 73.859375 C 50.714844 74.011719 50.730469 74.199219 50.6875 74.375 C 50.675781 74.375 50.664062 74.382812 50.648438 74.386719 L 50.640625 74.386719 C 50.625 74.386719 50.617188 74.386719 50.613281 74.386719 C 50.605469 74.386719 50.617188 74.386719 50.636719 74.390625 L 50.613281 74.398438 C 50.582031 74.410156 50.578125 74.410156 50.558594 74.417969 L 50.550781 74.425781 C 50.558594 74.425781 50.5625 74.421875 50.5625 74.421875 C 50.570312 74.421875 50.566406 74.425781 50.558594 74.433594 C 50.554688 74.4375 50.542969 74.441406 50.539062 74.441406 C 50.539062 74.441406 50.539062 74.441406 50.535156 74.441406 C 50.511719 74.464844 50.484375 74.484375 50.476562 74.492188 L 50.433594 74.5625 C 50.378906 74.652344 50.308594 74.722656 50.21875 74.773438 C 50.15625 74.8125 50.128906 74.832031 50.132812 74.832031 C 50.132812 74.832031 50.144531 74.824219 50.167969 74.808594 C 50.148438 74.824219 50.128906 74.839844 50.105469 74.851562 M 50.683594 74.390625 C 50.671875 74.390625 50.667969 74.386719 50.660156 74.386719 C 50.667969 74.382812 50.679688 74.378906 50.683594 74.375 C 50.683594 74.378906 50.683594 74.386719 50.683594 74.390625 " fill-opacity="1" fill-rule="nonzero"/><path fill="#feb2ac" d="M 50.679688 74.398438 C 50.667969 74.398438 50.65625 74.398438 50.640625 74.394531 L 50.648438 74.390625 C 50.65625 74.394531 50.667969 74.394531 50.679688 74.398438 " fill-opacity="1" fill-rule="nonzero"/><path fill="#fea09a" d="M 49.984375 71.335938 C 50 71.332031 50.035156 71.316406 50.101562 71.292969 C 50.0625 71.308594 50.023438 71.320312 49.984375 71.335938 " fill-opacity="1" fill-rule="nonzero"/></svg>