<svg xmlns="http://www.w3.org/2000/svg" xmlns:xlink="http://www.w3.org/1999/xlink" width="200" zoomAndPan="magnify" viewBox="0 0 150 112.499997" height="150" preserveAspectRatio="xMidYMid meet" version="1.0"><defs><clipPath id="cc12a11133"><path d="M 62 79 L 79 79 L 79 100.800781 L 62 100.800781 Z M 62 79 " clip-rule="nonzero"/></clipPath><clipPath id="692cf19001"><path d="M 78 80 L 99 80 L 99 100.800781 L 78 100.800781 Z M 78 80 " clip-rule="nonzero"/></clipPath><clipPath id="b3721c8939"><path d="M 74 32 L 114.3125 32 L 114.3125 59 L 74 59 Z M 74 32 " clip-rule="nonzero"/></clipPath><clipPath id="60752b1e83"><path d="M 58 25 L 114.3125 25 L 114.3125 45 L 58 45 Z M 58 25 " clip-rule="nonzero"/></clipPath><clipPath id="7d837facb4"><path d="M 35.910156 23 L 53 23 L 53 45 L 35.910156 45 Z M 35.910156 23 " clip-rule="nonzero"/></clipPath><clipPath id="cbfbbcdc97"><path d="M 35.910156 11.199219 L 93 11.199219 L 93 31 L 35.910156 31 Z M 35.910156 11.199219 " clip-rule="nonzero"/></clipPath><clipPath id="da36cd29b8"><path d="M 70 11.199219 L 79 11.199219 L 79 14 L 70 14 Z M 70 11.199219 " clip-rule="nonzero"/></clipPath></defs><g clip-path="url(#cc12a11133)"><path fill="#002ec4" d="M 62.359375 79.796875 L 62.359375 94.207031 L 78.53125 100.726562 L 78.53125 86.316406 Z M 62.359375 79.796875 " fill-opacity="1" fill-rule="nonzero"/></g><g clip-path="url(#692cf19001)"><path fill="#2da6ff" d="M 98.324219 94.449219 L 98.324219 80.515625 L 78.449219 86.402344 L 78.449219 100.8125 Z M 98.324219 94.449219 " fill-opacity="1" fill-rule="nonzero"/></g><path fill="#2da6ff" d="M 62.359375 79.96875 L 82.394531 74.082031 L 98.320312 80.515625 L 78.53125 86.574219 Z M 62.359375 79.96875 " fill-opacity="1" fill-rule="nonzero"/><path fill="#002ec4" d="M 75.4375 80.828125 L 75.4375 83.742188 C 76.984375 85.117188 82.316406 85.03125 83.609375 83.570312 L 83.609375 80.570312 Z M 75.4375 80.828125 " fill-opacity="1" fill-rule="nonzero"/><path fill="#2da6ff" d="M 75.4375 80.613281 C 75.4375 80.070312 77.265625 79.625 79.523438 79.625 C 81.777344 79.625 83.609375 80.070312 83.609375 80.613281 C 83.609375 81.15625 81.777344 81.597656 79.523438 81.597656 C 77.265625 81.597656 75.4375 81.15625 75.4375 80.613281 Z M 75.4375 80.613281 " fill-opacity="1" fill-rule="nonzero"/><path fill="#002ec4" d="M 85.628906 77.867188 L 85.628906 80.785156 C 87.179688 82.15625 92.511719 82.070312 93.800781 80.613281 L 93.800781 77.609375 Z M 85.628906 77.867188 " fill-opacity="1" fill-rule="nonzero"/><path fill="#2da6ff" d="M 85.628906 77.65625 C 85.628906 77.109375 87.460938 76.667969 89.714844 76.667969 C 91.972656 76.667969 93.800781 77.109375 93.800781 77.65625 C 93.800781 78.199219 91.972656 78.640625 89.714844 78.640625 C 87.460938 78.640625 85.628906 78.199219 85.628906 77.65625 Z M 85.628906 77.65625 " fill-opacity="1" fill-rule="nonzero"/><path fill="#002ec4" d="M 77.15625 74.308594 L 77.15625 77.222656 C 78.707031 78.597656 84.039062 78.511719 85.328125 77.054688 L 85.328125 74.050781 Z M 77.15625 74.308594 " fill-opacity="1" fill-rule="nonzero"/><path fill="#2da6ff" d="M 77.15625 74.097656 C 77.15625 73.550781 78.988281 73.109375 81.246094 73.109375 C 83.5 73.109375 85.332031 73.550781 85.332031 74.097656 C 85.332031 74.640625 83.5 75.082031 81.246094 75.082031 C 78.988281 75.082031 77.15625 74.640625 77.15625 74.097656 Z M 77.15625 74.097656 " fill-opacity="1" fill-rule="nonzero"/><path fill="#002ec4" d="M 67.136719 77.183594 L 67.136719 80.101562 C 68.683594 81.472656 74.019531 81.386719 75.308594 79.929688 L 75.308594 76.925781 Z M 67.136719 77.183594 " fill-opacity="1" fill-rule="nonzero"/><path fill="#2da6ff" d="M 67.136719 76.972656 C 67.136719 76.425781 68.964844 75.984375 71.222656 75.984375 C 73.480469 75.984375 75.308594 76.425781 75.308594 76.972656 C 75.308594 77.515625 73.480469 77.957031 71.222656 77.957031 C 68.96875 77.957031 67.136719 77.515625 67.136719 76.972656 Z M 67.136719 76.972656 " fill-opacity="1" fill-rule="nonzero"/><path fill="#fcd327" d="M 45.832031 54.96875 L 45.832031 69.378906 L 62.003906 75.898438 L 62.003906 61.484375 Z M 45.832031 54.96875 " fill-opacity="1" fill-rule="nonzero"/><path fill="#f5fa40" d="M 102.007812 63.3125 L 102.007812 49.910156 L 61.917969 61.574219 L 61.917969 75.984375 Z M 102.007812 63.3125 " fill-opacity="1" fill-rule="nonzero"/><path fill="#f5fa40" d="M 45.832031 55.140625 L 85.664062 43.042969 L 101.925781 49.90625 L 62.003906 61.746094 Z M 45.832031 55.140625 " fill-opacity="1" fill-rule="nonzero"/><path fill="#e9b018" d="M 58.90625 56 L 58.90625 58.914062 C 60.457031 60.289062 65.789062 60.203125 67.078125 58.746094 L 67.078125 55.742188 Z M 58.90625 56 " fill-opacity="1" fill-rule="nonzero"/><path fill="#f5fa40" d="M 58.90625 55.785156 C 58.90625 55.242188 60.734375 54.796875 62.992188 54.796875 C 65.25 54.796875 67.078125 55.242188 67.078125 55.785156 C 67.078125 56.328125 65.25 56.769531 62.992188 56.769531 C 60.738281 56.769531 58.90625 56.328125 58.90625 55.785156 Z M 58.90625 55.785156 " fill-opacity="1" fill-rule="nonzero"/><path fill="#e9b018" d="M 69.101562 53.039062 L 69.101562 55.957031 C 70.648438 57.328125 75.984375 57.242188 77.273438 55.785156 L 77.273438 52.78125 Z M 69.101562 53.039062 " fill-opacity="1" fill-rule="nonzero"/><path fill="#f5fa40" d="M 69.101562 52.828125 C 69.101562 52.28125 70.929688 51.839844 73.1875 51.839844 C 75.445312 51.839844 77.273438 52.28125 77.273438 52.828125 C 77.273438 53.371094 75.445312 53.8125 73.1875 53.8125 C 70.929688 53.8125 69.101562 53.371094 69.101562 52.828125 Z M 69.101562 52.828125 " fill-opacity="1" fill-rule="nonzero"/><path fill="#e9b018" d="M 79.039062 50.082031 L 79.039062 52.996094 C 80.585938 54.371094 85.917969 54.285156 87.210938 52.824219 L 87.210938 49.824219 Z M 79.039062 50.082031 " fill-opacity="1" fill-rule="nonzero"/><path fill="#f5fa40" d="M 79.039062 49.867188 C 79.039062 49.320312 80.867188 48.878906 83.125 48.878906 C 85.382812 48.878906 87.210938 49.320312 87.210938 49.867188 C 87.210938 50.410156 85.378906 50.851562 83.125 50.851562 C 80.867188 50.851562 79.039062 50.410156 79.039062 49.867188 Z M 79.039062 49.867188 " fill-opacity="1" fill-rule="nonzero"/><path fill="#e9b018" d="M 88.628906 47.207031 L 88.628906 50.125 C 90.179688 51.496094 95.511719 51.410156 96.804688 49.953125 L 96.804688 46.949219 Z M 88.628906 47.207031 " fill-opacity="1" fill-rule="nonzero"/><path fill="#f5fa40" d="M 88.628906 46.992188 C 88.628906 46.449219 90.460938 46.007812 92.714844 46.007812 C 94.972656 46.007812 96.804688 46.449219 96.804688 46.992188 C 96.804688 47.539062 94.972656 47.980469 92.714844 47.980469 C 90.460938 47.980469 88.628906 47.539062 88.628906 46.992188 Z M 88.628906 46.992188 " fill-opacity="1" fill-rule="nonzero"/><path fill="#e9b018" d="M 80.671875 43.734375 L 80.671875 46.648438 C 82.222656 48.023438 87.554688 47.9375 88.84375 46.480469 L 88.84375 43.476562 Z M 80.671875 43.734375 " fill-opacity="1" fill-rule="nonzero"/><path fill="#f5fa40" d="M 80.671875 43.519531 C 80.671875 42.976562 82.503906 42.535156 84.757812 42.535156 C 87.015625 42.535156 88.84375 42.976562 88.84375 43.519531 C 88.84375 44.066406 87.015625 44.507812 84.757812 44.507812 C 82.5 44.507812 80.671875 44.066406 80.671875 43.519531 Z M 80.671875 43.519531 " fill-opacity="1" fill-rule="nonzero"/><path fill="#e9b018" d="M 70.652344 46.609375 L 70.652344 49.523438 C 72.199219 50.898438 77.535156 50.8125 78.824219 49.351562 L 78.824219 46.351562 Z M 70.652344 46.609375 " fill-opacity="1" fill-rule="nonzero"/><path fill="#f5fa40" d="M 70.652344 46.394531 C 70.652344 45.847656 72.480469 45.40625 74.738281 45.40625 C 76.992188 45.40625 78.824219 45.847656 78.824219 46.394531 C 78.824219 46.9375 76.996094 47.378906 74.738281 47.378906 C 72.480469 47.378906 70.652344 46.9375 70.652344 46.394531 Z M 70.652344 46.394531 " fill-opacity="1" fill-rule="nonzero"/><path fill="#e9b018" d="M 60.628906 49.480469 L 60.628906 52.398438 C 62.179688 53.769531 67.511719 53.6875 68.800781 52.226562 L 68.800781 49.222656 Z M 60.628906 49.480469 " fill-opacity="1" fill-rule="nonzero"/><path fill="#f5fa40" d="M 60.628906 49.269531 C 60.628906 48.722656 62.460938 48.28125 64.714844 48.28125 C 66.972656 48.28125 68.800781 48.722656 68.800781 49.269531 C 68.800781 49.8125 66.972656 50.253906 64.714844 50.253906 C 62.457031 50.253906 60.628906 49.8125 60.628906 49.269531 Z M 60.628906 49.269531 " fill-opacity="1" fill-rule="nonzero"/><path fill="#e9b018" d="M 50.609375 52.355469 L 50.609375 55.269531 C 52.160156 56.644531 57.492188 56.558594 58.78125 55.097656 L 58.78125 52.097656 Z M 50.609375 52.355469 " fill-opacity="1" fill-rule="nonzero"/><path fill="#f5fa40" d="M 50.609375 52.140625 C 50.609375 51.597656 52.4375 51.15625 54.695312 51.15625 C 56.949219 51.15625 58.78125 51.597656 58.78125 52.140625 C 58.78125 52.6875 56.949219 53.128906 54.695312 53.128906 C 52.4375 53.128906 50.609375 52.6875 50.609375 52.140625 Z M 50.609375 52.140625 " fill-opacity="1" fill-rule="nonzero"/><path fill="#c00104" d="M 58.125 37.363281 L 58.125 51.773438 L 74.300781 58.292969 L 74.300781 43.878906 Z M 58.125 37.363281 " fill-opacity="1" fill-rule="nonzero"/><g clip-path="url(#b3721c8939)"><path fill="#ff212c" d="M 114.304688 45.699219 L 114.304688 32.296875 L 74.214844 43.964844 L 74.214844 58.375 Z M 114.304688 45.699219 " fill-opacity="1" fill-rule="nonzero"/></g><g clip-path="url(#60752b1e83)"><path fill="#ff212c" d="M 58.125 37.527344 L 97.957031 25.433594 L 114.21875 32.296875 L 74.300781 44.132812 Z M 58.125 37.527344 " fill-opacity="1" fill-rule="nonzero"/></g><path fill="#c00104" d="M 71.203125 38.386719 L 71.203125 41.304688 C 72.75 42.675781 78.082031 42.589844 79.375 41.132812 L 79.375 38.128906 Z M 71.203125 38.386719 " fill-opacity="1" fill-rule="nonzero"/><path fill="#ff212c" d="M 71.203125 38.175781 C 71.203125 37.628906 73.03125 37.1875 75.285156 37.1875 C 77.542969 37.1875 79.375 37.628906 79.375 38.175781 C 79.375 38.71875 77.542969 39.160156 75.285156 39.160156 C 73.03125 39.160156 71.203125 38.71875 71.203125 38.175781 Z M 71.203125 38.175781 " fill-opacity="1" fill-rule="nonzero"/><path fill="#c00104" d="M 81.394531 35.429688 L 81.394531 38.34375 C 82.945312 39.71875 88.277344 39.632812 89.566406 38.175781 L 89.566406 35.171875 Z M 81.394531 35.429688 " fill-opacity="1" fill-rule="nonzero"/><path fill="#ff212c" d="M 81.394531 35.214844 C 81.394531 34.671875 83.222656 34.230469 85.480469 34.230469 C 87.738281 34.230469 89.566406 34.671875 89.566406 35.214844 C 89.566406 35.761719 87.738281 36.203125 85.480469 36.203125 C 83.226562 36.203125 81.394531 35.757812 81.394531 35.214844 Z M 81.394531 35.214844 " fill-opacity="1" fill-rule="nonzero"/><path fill="#c00104" d="M 91.332031 32.46875 L 91.332031 35.386719 C 92.878906 36.757812 98.214844 36.671875 99.503906 35.214844 L 99.503906 32.210938 Z M 91.332031 32.46875 " fill-opacity="1" fill-rule="nonzero"/><path fill="#ff212c" d="M 91.332031 32.253906 C 91.332031 31.710938 93.160156 31.269531 95.417969 31.269531 C 97.675781 31.269531 99.503906 31.710938 99.503906 32.253906 C 99.503906 32.800781 97.675781 33.242188 95.417969 33.242188 C 93.160156 33.242188 91.332031 32.800781 91.332031 32.253906 Z M 91.332031 32.253906 " fill-opacity="1" fill-rule="nonzero"/><path fill="#c00104" d="M 100.925781 29.597656 L 100.925781 32.511719 C 102.472656 33.886719 107.804688 33.800781 109.097656 32.339844 L 109.097656 29.339844 Z M 100.925781 29.597656 " fill-opacity="1" fill-rule="nonzero"/><path fill="#ff212c" d="M 100.925781 29.382812 C 100.925781 28.835938 102.753906 28.394531 105.011719 28.394531 C 107.269531 28.394531 109.097656 28.835938 109.097656 29.382812 C 109.097656 29.925781 107.265625 30.367188 105.011719 30.367188 C 102.753906 30.367188 100.925781 29.925781 100.925781 29.382812 Z M 100.925781 29.382812 " fill-opacity="1" fill-rule="nonzero"/><path fill="#c00104" d="M 92.964844 26.121094 L 92.964844 29.039062 C 94.515625 30.410156 99.847656 30.324219 101.140625 28.867188 L 101.140625 25.863281 Z M 92.964844 26.121094 " fill-opacity="1" fill-rule="nonzero"/><path fill="#ff212c" d="M 92.964844 25.910156 C 92.964844 25.363281 94.796875 24.921875 97.050781 24.921875 C 99.308594 24.921875 101.140625 25.363281 101.140625 25.910156 C 101.140625 26.453125 99.308594 26.894531 97.050781 26.894531 C 94.796875 26.894531 92.964844 26.453125 92.964844 25.910156 Z M 92.964844 25.910156 " fill-opacity="1" fill-rule="nonzero"/><path fill="#c00104" d="M 82.945312 28.996094 L 82.945312 31.914062 C 84.492188 33.285156 89.828125 33.199219 91.117188 31.742188 L 91.117188 28.738281 Z M 82.945312 28.996094 " fill-opacity="1" fill-rule="nonzero"/><path fill="#ff212c" d="M 82.945312 28.78125 C 82.945312 28.238281 84.773438 27.796875 87.03125 27.796875 C 89.289062 27.796875 91.117188 28.238281 91.117188 28.78125 C 91.117188 29.328125 89.289062 29.769531 87.03125 29.769531 C 84.773438 29.769531 82.945312 29.328125 82.945312 28.78125 Z M 82.945312 28.78125 " fill-opacity="1" fill-rule="nonzero"/><path fill="#c00104" d="M 72.921875 31.871094 L 72.921875 34.789062 C 74.472656 36.160156 79.804688 36.074219 81.097656 34.617188 L 81.097656 31.613281 Z M 72.921875 31.871094 " fill-opacity="1" fill-rule="nonzero"/><path fill="#ff212c" d="M 72.921875 31.65625 C 72.921875 31.113281 74.753906 30.671875 77.011719 30.671875 C 79.265625 30.671875 81.097656 31.113281 81.097656 31.65625 C 81.097656 32.203125 79.265625 32.644531 77.011719 32.644531 C 74.753906 32.644531 72.921875 32.203125 72.921875 31.65625 Z M 72.921875 31.65625 " fill-opacity="1" fill-rule="nonzero"/><path fill="#c00104" d="M 62.902344 34.742188 L 62.902344 37.660156 C 64.453125 39.03125 69.785156 38.945312 71.078125 37.488281 L 71.078125 34.484375 Z M 62.902344 34.742188 " fill-opacity="1" fill-rule="nonzero"/><path fill="#ff212c" d="M 62.902344 34.53125 C 62.902344 33.984375 64.730469 33.546875 66.988281 33.546875 C 69.246094 33.546875 71.074219 33.984375 71.074219 34.53125 C 71.074219 35.078125 69.246094 35.515625 66.988281 35.515625 C 64.730469 35.515625 62.902344 35.078125 62.902344 34.53125 Z M 62.902344 34.53125 " fill-opacity="1" fill-rule="nonzero"/><g clip-path="url(#7d837facb4)"><path fill="#002ec4" d="M 35.917969 23.644531 L 35.917969 38.054688 L 52.09375 44.574219 L 52.09375 30.164062 Z M 35.917969 23.644531 " fill-opacity="1" fill-rule="nonzero"/></g><path fill="#2da6ff" d="M 92.097656 31.980469 L 92.097656 18.578125 L 52.007812 30.246094 L 52.007812 44.65625 Z M 92.097656 31.980469 " fill-opacity="1" fill-rule="nonzero"/><g clip-path="url(#cbfbbcdc97)"><path fill="#2da6ff" d="M 35.917969 23.816406 L 75.753906 11.722656 L 92.011719 18.585938 L 52.09375 30.421875 Z M 35.917969 23.816406 " fill-opacity="1" fill-rule="nonzero"/></g><path fill="#002ec4" d="M 49 24.671875 L 49 27.585938 C 50.546875 28.960938 55.882812 28.875 57.171875 27.417969 L 57.171875 24.414062 Z M 49 24.671875 " fill-opacity="1" fill-rule="nonzero"/><path fill="#2da6ff" d="M 49 24.457031 C 49 23.914062 50.828125 23.472656 53.085938 23.472656 C 55.34375 23.472656 57.171875 23.914062 57.171875 24.457031 C 57.171875 25 55.34375 25.445312 53.085938 25.445312 C 50.828125 25.445312 49 25.003906 49 24.457031 Z M 49 24.457031 " fill-opacity="1" fill-rule="nonzero"/><path fill="#002ec4" d="M 59.195312 21.710938 L 59.195312 24.628906 C 60.742188 26 66.074219 25.914062 67.367188 24.457031 L 67.367188 21.453125 Z M 59.195312 21.710938 " fill-opacity="1" fill-rule="nonzero"/><path fill="#2da6ff" d="M 59.195312 21.496094 C 59.195312 20.953125 61.023438 20.511719 63.28125 20.511719 C 65.535156 20.511719 67.367188 20.953125 67.367188 21.496094 C 67.367188 22.042969 65.535156 22.484375 63.28125 22.484375 C 61.023438 22.484375 59.195312 22.042969 59.195312 21.496094 Z M 59.195312 21.496094 " fill-opacity="1" fill-rule="nonzero"/><path fill="#002ec4" d="M 69.128906 18.753906 L 69.128906 21.667969 C 70.679688 23.042969 76.011719 22.957031 77.304688 21.496094 L 77.304688 18.496094 Z M 69.128906 18.753906 " fill-opacity="1" fill-rule="nonzero"/><path fill="#2da6ff" d="M 69.128906 18.539062 C 69.128906 17.992188 70.960938 17.554688 73.214844 17.554688 C 75.472656 17.554688 77.304688 17.992188 77.304688 18.539062 C 77.304688 19.085938 75.472656 19.527344 73.214844 19.527344 C 70.960938 19.527344 69.128906 19.082031 69.128906 18.539062 Z M 69.128906 18.539062 " fill-opacity="1" fill-rule="nonzero"/><path fill="#002ec4" d="M 78.722656 15.878906 L 78.722656 18.796875 C 80.269531 20.167969 85.605469 20.082031 86.894531 18.625 L 86.894531 15.621094 Z M 78.722656 15.878906 " fill-opacity="1" fill-rule="nonzero"/><path fill="#2da6ff" d="M 78.722656 15.664062 C 78.722656 15.121094 80.550781 14.679688 82.808594 14.679688 C 85.066406 14.679688 86.894531 15.121094 86.894531 15.664062 C 86.894531 16.210938 85.066406 16.652344 82.808594 16.652344 C 80.550781 16.652344 78.722656 16.210938 78.722656 15.664062 Z M 78.722656 15.664062 " fill-opacity="1" fill-rule="nonzero"/><path fill="#002ec4" d="M 70.765625 12.40625 L 70.765625 15.324219 C 72.3125 16.695312 77.648438 16.609375 78.9375 15.152344 L 78.9375 12.148438 Z M 70.765625 12.40625 " fill-opacity="1" fill-rule="nonzero"/><g clip-path="url(#da36cd29b8)"><path fill="#2da6ff" d="M 70.765625 12.191406 C 70.765625 11.648438 72.59375 11.207031 74.851562 11.207031 C 77.109375 11.207031 78.9375 11.648438 78.9375 12.191406 C 78.9375 12.734375 77.109375 13.179688 74.851562 13.179688 C 72.59375 13.179688 70.765625 12.738281 70.765625 12.191406 Z M 70.765625 12.191406 " fill-opacity="1" fill-rule="nonzero"/></g><path fill="#002ec4" d="M 60.742188 15.28125 L 60.742188 18.195312 C 62.292969 19.570312 67.625 19.484375 68.917969 18.023438 L 68.917969 15.023438 Z M 60.742188 15.28125 " fill-opacity="1" fill-rule="nonzero"/><path fill="#2da6ff" d="M 60.742188 15.066406 C 60.742188 14.523438 62.574219 14.078125 64.828125 14.078125 C 67.085938 14.078125 68.917969 14.523438 68.917969 15.066406 C 68.917969 15.609375 67.085938 16.050781 64.828125 16.050781 C 62.574219 16.050781 60.742188 15.609375 60.742188 15.066406 Z M 60.742188 15.066406 " fill-opacity="1" fill-rule="nonzero"/><path fill="#002ec4" d="M 50.71875 18.15625 L 50.71875 21.070312 C 52.265625 22.445312 57.601562 22.359375 58.890625 20.898438 L 58.890625 17.898438 Z M 50.71875 18.15625 " fill-opacity="1" fill-rule="nonzero"/><path fill="#2da6ff" d="M 50.722656 17.941406 C 50.722656 17.394531 52.550781 16.953125 54.808594 16.953125 C 57.066406 16.953125 58.894531 17.394531 58.894531 17.941406 C 58.894531 18.484375 57.066406 18.925781 54.808594 18.925781 C 52.550781 18.925781 50.722656 18.484375 50.722656 17.941406 Z M 50.722656 17.941406 " fill-opacity="1" fill-rule="nonzero"/><path fill="#002ec4" d="M 40.699219 21.027344 L 40.699219 23.945312 C 42.25 25.316406 47.582031 25.230469 48.871094 23.773438 L 48.871094 20.769531 Z M 40.699219 21.027344 " fill-opacity="1" fill-rule="nonzero"/><path fill="#2da6ff" d="M 40.699219 20.816406 C 40.699219 20.269531 42.53125 19.828125 44.785156 19.828125 C 47.042969 19.828125 48.871094 20.269531 48.871094 20.816406 C 48.871094 21.359375 47.042969 21.800781 44.785156 21.800781 C 42.527344 21.800781 40.699219 21.359375 40.699219 20.816406 Z M 40.699219 20.816406 " fill-opacity="1" fill-rule="nonzero"/></svg>