<svg xmlns="http://www.w3.org/2000/svg" xmlns:xlink="http://www.w3.org/1999/xlink" width="200" zoomAndPan="magnify" viewBox="0 0 150 112.499997" height="150" preserveAspectRatio="xMidYMid meet" version="1.0"><defs><clipPath id="7c20f29917"><path d="M 74 30 L 117.214844 30 L 117.214844 60 L 74 60 Z M 74 30 " clip-rule="nonzero"/></clipPath><clipPath id="aa3074dfa9"><path d="M 32.839844 8.921875 L 90 8.921875 L 90 47 L 32.839844 47 Z M 32.839844 8.921875 " clip-rule="nonzero"/></clipPath><clipPath id="36ed8ec520"><path d="M 32.839844 32 L 61 32 L 61 47 L 32.839844 47 Z M 32.839844 32 " clip-rule="nonzero"/></clipPath><clipPath id="009b82f27c"><path d="M 32.839844 21 L 90 21 L 90 47 L 32.839844 47 Z M 32.839844 21 " clip-rule="nonzero"/></clipPath></defs><path fill="#faecc9" d="M 59.078125 36.933594 C 59.078125 36.933594 70.191406 66.058594 66.027344 94.722656 C 65.425781 104.402344 78.527344 102.117188 78.527344 102.117188 C 78.527344 102.117188 82.691406 105.660156 78.527344 79.160156 C 74.359375 52.652344 66.953125 34.46875 66.953125 34.46875 L 59.078125 36.933594 " fill-opacity="1" fill-rule="nonzero"/><path fill="#cccbc9" d="M 63.070312 50.429688 C 62.308594 47.511719 61.4375 44.402344 60.75 41.976562 L 60.761719 41.972656 C 61.441406 44.1875 62.257812 47.054688 63.070312 50.417969 C 63.070312 50.421875 63.070312 50.425781 63.070312 50.429688 " fill-opacity="1" fill-rule="nonzero"/><path fill="#c6ba9d" d="M 63.070312 50.417969 C 62.257812 47.054688 61.441406 44.1875 60.761719 41.972656 C 63.375 41.019531 65.621094 40.132812 67.167969 39.574219 C 67.191406 39.566406 67.214844 39.558594 67.234375 39.550781 C 65.199219 41.738281 62.101562 45.929688 63.070312 50.417969 " fill-opacity="1" fill-rule="nonzero"/><path fill="#e8e8e7" d="M 79.707031 101.703125 C 80.519531 100.21875 81.042969 95.175781 78.527344 79.160156 C 77.113281 70.179688 75.332031 62.160156 73.589844 55.476562 C 73.566406 55.359375 73.539062 55.242188 73.515625 55.125 C 75.28125 61.875 77.101562 70.011719 78.535156 79.136719 C 81.066406 95.226562 80.523438 100.242188 79.707031 101.703125 " fill-opacity="1" fill-rule="nonzero"/><path fill="#e1d5b4" d="M 75.378906 102.335938 C 72.347656 102.335938 68.011719 101.671875 66.53125 98.144531 C 68.679688 99.78125 71.847656 100.109375 74.035156 100.109375 C 75.480469 100.109375 76.496094 99.964844 76.496094 99.964844 C 76.496094 99.964844 80.386719 99.449219 77.246094 77.015625 C 76.125 69.015625 74.9375 61.726562 73.589844 55.476562 C 75.332031 62.160156 77.113281 70.179688 78.527344 79.160156 C 81.042969 95.175781 80.519531 100.21875 79.707031 101.703125 C 79.464844 102.140625 79.195312 102.253906 78.976562 102.253906 C 78.722656 102.253906 78.535156 102.101562 78.535156 102.101562 C 78.535156 102.101562 77.1875 102.335938 75.378906 102.335938 " fill-opacity="1" fill-rule="nonzero"/><g clip-path="url(#7c20f29917)"><path fill="#692b29" d="M 80.375 56.96875 C 80.375 56.96875 105.222656 61.589844 115.410156 56.96875 C 119.359375 54.507812 115.410156 46.179688 115.410156 46.179688 C 115.410156 46.179688 111.683594 34.75 103.0625 31.078125 C 97.1875 28.574219 90.933594 32.960938 90.933594 32.960938 C 90.933594 32.960938 84.070312 36.441406 80.375 39.402344 C 77.164062 41.976562 69.28125 53.269531 80.375 56.96875 " fill-opacity="1" fill-rule="nonzero"/></g><g clip-path="url(#aa3074dfa9)"><path fill="#692b29" d="M 36.5625 30.132812 C 36.5625 30.132812 40.980469 25.46875 44.265625 18.785156 C 47.546875 12.105469 53.355469 6.457031 71.660156 10.023438 C 89.960938 13.589844 90.714844 16.042969 89.335938 21.617188 C 87.953125 27.191406 74.972656 36.761719 67.167969 39.574219 C 59.367188 42.390625 33.847656 53.523438 32.996094 39.574219 C 32.144531 33.207031 36.5625 30.132812 36.5625 30.132812 " fill-opacity="1" fill-rule="nonzero"/></g><path fill="#faecc9" d="M 113.558594 53.269531 C 113.558594 55.3125 105.816406 56.96875 96.273438 56.96875 C 86.726562 56.96875 78.988281 55.3125 78.988281 53.269531 C 78.988281 51.226562 86.726562 49.570312 96.273438 49.570312 C 105.816406 49.570312 113.558594 51.226562 113.558594 53.269531 " fill-opacity="1" fill-rule="nonzero"/><path fill="#e8e8e7" d="M 86.230469 57.871094 C 82.707031 57.402344 80.375 56.96875 80.375 56.96875 C 80.375 56.96875 80.371094 56.96875 80.367188 56.964844 C 80.371094 56.96875 80.375 56.96875 80.375 56.96875 C 80.375 56.96875 82.707031 57.402344 86.230469 57.871094 M 74.648438 50.265625 C 74.648438 45.878906 78.398438 40.984375 80.375 39.402344 C 84.070312 36.441406 90.933594 32.960938 90.933594 32.960938 C 90.890625 32.984375 84.058594 36.453125 80.375 39.402344 C 78.398438 40.984375 74.648438 45.878906 74.648438 50.265625 " fill-opacity="1" fill-rule="nonzero"/><path fill="#5d2725" d="M 101.800781 59.023438 C 96.195312 59.023438 90.394531 58.425781 86.246094 57.871094 C 86.242188 57.871094 86.238281 57.871094 86.230469 57.871094 C 82.707031 57.402344 80.375 56.96875 80.375 56.96875 C 80.375 56.96875 80.371094 56.96875 80.367188 56.964844 C 76.109375 55.542969 74.652344 53.003906 74.648438 50.265625 C 74.648438 45.878906 78.398438 40.984375 80.375 39.402344 C 84.058594 36.453125 90.890625 32.984375 90.933594 32.960938 C 90.867188 33.019531 76.140625 46.484375 81.1875 47.671875 C 86.25 48.859375 120.460938 47.539062 115.410156 56.96875 C 112.015625 58.507812 106.988281 59.023438 101.800781 59.023438 M 78.988281 53.269531 C 78.988281 55.3125 86.726562 56.96875 96.273438 56.96875 C 105.816406 56.96875 113.558594 55.3125 113.558594 53.269531 C 113.558594 51.226562 105.816406 49.570312 96.273438 49.570312 C 86.726562 49.570312 78.988281 51.226562 78.988281 53.269531 " fill-opacity="1" fill-rule="nonzero"/><path fill="#e1d5b4" d="M 113.558594 53.269531 C 113.558594 51.226562 105.816406 49.570312 96.273438 49.570312 C 86.726562 49.570312 78.988281 51.226562 78.988281 53.269531 C 78.988281 51.226562 86.726562 49.570312 96.273438 49.570312 C 105.816406 49.570312 113.558594 51.226562 113.558594 53.269531 " fill-opacity="1" fill-rule="nonzero"/><path fill="#522422" d="M 96.273438 56.96875 C 86.726562 56.96875 78.988281 55.3125 78.988281 53.269531 C 78.988281 55.3125 86.726562 56.96875 96.273438 56.96875 C 105.816406 56.96875 113.558594 55.3125 113.558594 53.269531 C 113.558594 55.3125 105.816406 56.96875 96.273438 56.96875 " fill-opacity="1" fill-rule="nonzero"/><path fill="#c9bda0" d="M 96.273438 56.96875 C 86.726562 56.96875 78.988281 55.3125 78.988281 53.269531 C 78.988281 51.226562 86.726562 49.570312 96.273438 49.570312 C 105.816406 49.570312 113.558594 51.226562 113.558594 53.269531 C 113.558594 55.3125 105.816406 56.96875 96.273438 56.96875 M 107.464844 52.554688 C 105.480469 52.554688 101.121094 54.46875 101.121094 54.46875 C 101.121094 54.46875 102.652344 54.675781 104.3125 54.675781 C 106.203125 54.675781 108.253906 54.410156 108.417969 53.269531 C 108.492188 52.75 108.097656 52.554688 107.464844 52.554688 M 83.445312 52.554688 C 82.808594 52.554688 82.417969 52.75 82.488281 53.269531 C 82.648438 54.410156 84.707031 54.675781 86.59375 54.675781 C 88.253906 54.675781 89.785156 54.46875 89.785156 54.46875 C 89.785156 54.46875 85.425781 52.554688 83.445312 52.554688 M 101.675781 50.785156 C 100.742188 50.785156 100.132812 53.59375 100.132812 53.59375 C 100.132812 53.59375 103.335938 52.203125 102.140625 51.015625 C 101.976562 50.851562 101.824219 50.785156 101.675781 50.785156 M 90.75 53.59375 C 90.75 53.59375 90.140625 50.785156 89.203125 50.785156 C 89.058594 50.785156 88.902344 50.851562 88.738281 51.015625 C 87.546875 52.203125 90.75 53.59375 90.75 53.59375 M 98.203125 50.417969 C 97.460938 50.417969 97.902344 53.148438 97.902344 53.148438 C 97.902344 53.148438 99.628906 51.25 98.492188 50.523438 C 98.382812 50.453125 98.285156 50.417969 98.203125 50.417969 M 91.523438 50.917969 C 91.472656 50.917969 91.425781 50.925781 91.375 50.933594 C 90.324219 51.128906 92.695312 52.648438 92.695312 52.648438 C 92.695312 52.648438 92.453125 50.917969 91.523438 50.917969 M 95.683594 50.429688 C 95.023438 50.429688 96.109375 52.617188 96.109375 52.617188 C 96.109375 52.617188 96.859375 50.84375 95.859375 50.46875 C 95.789062 50.441406 95.730469 50.429688 95.683594 50.429688 " fill-opacity="1" fill-rule="nonzero"/><path fill="#faecc9" d="M 80.375 102.351562 C 80.375 102.351562 78.988281 83.167969 83.308594 73.917969 C 87.632812 64.671875 91.644531 60.972656 91.027344 54.8125 C 95.425781 52.070312 99.359375 54.8125 99.359375 54.8125 C 99.359375 54.8125 100.285156 64.675781 93.804688 72.6875 C 87.320312 80.699219 92.261719 94.257812 92.261719 94.257812 C 92.261719 94.257812 95.644531 100.890625 88.859375 102.351562 C 82.078125 103.8125 80.375 102.351562 80.375 102.351562 " fill-opacity="1" fill-rule="nonzero"/><g clip-path="url(#36ed8ec520)"><path fill="#e8e8e7" d="M 41.863281 46.449219 C 41.53125 46.449219 41.203125 46.441406 40.882812 46.421875 C 41.203125 46.441406 41.53125 46.449219 41.863281 46.449219 C 47.609375 46.449219 55.050781 44.058594 60.75 41.976562 C 55.050781 44.058594 47.609375 46.449219 41.863281 46.449219 M 33 39.636719 C 33 39.632812 33 39.632812 33 39.628906 C 33 39.632812 33 39.632812 33 39.636719 M 33 39.617188 C 33 39.605469 32.996094 39.589844 32.996094 39.574219 C 32.996094 39.589844 33 39.605469 33 39.617188 M 32.996094 39.5625 L 32.996094 39.558594 L 32.996094 39.5625 M 32.992188 39.535156 C 32.992188 39.535156 32.992188 39.53125 32.992188 39.53125 C 32.992188 39.53125 32.992188 39.535156 32.992188 39.535156 M 32.988281 39.519531 L 32.988281 39.519531 M 32.988281 39.507812 L 32.988281 39.503906 L 32.988281 39.507812 M 32.984375 39.492188 L 32.984375 39.492188 M 32.984375 39.480469 C 32.984375 39.480469 32.984375 39.476562 32.984375 39.476562 C 32.984375 39.476562 32.984375 39.480469 32.984375 39.480469 M 32.984375 39.464844 C 32.984375 39.464844 32.980469 39.464844 32.980469 39.460938 C 32.980469 39.464844 32.984375 39.464844 32.984375 39.464844 M 32.980469 39.453125 C 32.980469 39.449219 32.980469 39.449219 32.980469 39.445312 C 32.980469 39.449219 32.980469 39.449219 32.980469 39.453125 M 32.980469 39.4375 C 32.980469 39.4375 32.980469 39.4375 32.980469 39.433594 C 32.980469 39.4375 32.980469 39.4375 32.980469 39.4375 M 32.976562 39.425781 C 32.976562 39.421875 32.976562 39.421875 32.976562 39.417969 C 32.976562 39.421875 32.976562 39.421875 32.976562 39.425781 M 32.976562 39.414062 C 32.976562 39.410156 32.976562 39.40625 32.976562 39.40625 C 32.976562 39.40625 32.976562 39.410156 32.976562 39.414062 M 32.972656 39.398438 C 32.972656 39.398438 32.972656 39.394531 32.972656 39.390625 C 32.972656 39.394531 32.972656 39.398438 32.972656 39.398438 M 32.972656 39.386719 C 32.972656 39.382812 32.972656 39.378906 32.972656 39.375 C 32.972656 39.378906 32.972656 39.382812 32.972656 39.386719 M 32.972656 39.371094 C 32.972656 39.367188 32.96875 39.363281 32.96875 39.363281 C 32.96875 39.363281 32.972656 39.367188 32.972656 39.371094 M 32.96875 39.359375 C 32.96875 39.355469 32.96875 39.351562 32.96875 39.347656 C 32.96875 39.351562 32.96875 39.355469 32.96875 39.359375 M 32.96875 39.34375 C 32.96875 39.339844 32.96875 39.339844 32.96875 39.335938 C 32.96875 39.339844 32.96875 39.339844 32.96875 39.34375 M 32.964844 39.332031 C 32.964844 39.324219 32.964844 39.316406 32.964844 39.308594 C 32.964844 39.316406 32.964844 39.324219 32.964844 39.332031 M 32.964844 39.304688 C 32.597656 36.054688 33.609375 33.691406 34.652344 32.175781 C 33.609375 33.691406 32.597656 36.058594 32.964844 39.304688 M 34.65625 32.175781 L 34.65625 32.171875 L 34.65625 32.175781 " fill-opacity="1" fill-rule="nonzero"/></g><path fill="#b6b6b5" d="M 60.75 41.976562 L 60.761719 41.972656 L 60.75 41.976562 " fill-opacity="1" fill-rule="nonzero"/><path fill="#b1a78e" d="M 60.761719 41.972656 C 63.375 41.019531 65.621094 40.132812 67.167969 39.574219 C 65.621094 40.132812 63.375 41.019531 60.761719 41.972656 " fill-opacity="1" fill-rule="nonzero"/><g clip-path="url(#009b82f27c)"><path fill="#5d2725" d="M 41.863281 46.449219 C 41.53125 46.449219 41.203125 46.441406 40.882812 46.421875 C 36.511719 46.195312 33.316406 44.378906 33 39.636719 C 33 39.632812 33 39.632812 33 39.628906 C 33 39.625 33 39.621094 33 39.617188 C 33 39.605469 32.996094 39.589844 32.996094 39.574219 C 32.996094 39.574219 32.996094 39.566406 32.996094 39.5625 L 32.996094 39.558594 C 32.996094 39.554688 32.992188 39.550781 32.992188 39.546875 C 32.992188 39.542969 32.992188 39.539062 32.992188 39.535156 C 32.992188 39.535156 32.992188 39.53125 32.992188 39.53125 C 32.992188 39.527344 32.988281 39.523438 32.988281 39.519531 C 32.988281 39.515625 32.988281 39.511719 32.988281 39.507812 L 32.988281 39.503906 C 32.988281 39.5 32.988281 39.496094 32.984375 39.492188 C 32.984375 39.488281 32.984375 39.484375 32.984375 39.480469 C 32.984375 39.480469 32.984375 39.476562 32.984375 39.476562 C 32.984375 39.472656 32.984375 39.46875 32.984375 39.464844 C 32.984375 39.464844 32.980469 39.464844 32.980469 39.460938 C 32.980469 39.460938 32.980469 39.453125 32.980469 39.453125 C 32.980469 39.449219 32.980469 39.449219 32.980469 39.445312 C 32.980469 39.445312 32.980469 39.441406 32.980469 39.4375 C 32.980469 39.4375 32.980469 39.4375 32.980469 39.433594 C 32.976562 39.429688 32.976562 39.429688 32.976562 39.425781 C 32.976562 39.421875 32.976562 39.421875 32.976562 39.417969 C 32.976562 39.417969 32.976562 39.414062 32.976562 39.414062 C 32.976562 39.410156 32.976562 39.40625 32.976562 39.40625 C 32.976562 39.402344 32.972656 39.402344 32.972656 39.398438 C 32.972656 39.398438 32.972656 39.394531 32.972656 39.390625 L 32.972656 39.386719 C 32.972656 39.382812 32.972656 39.378906 32.972656 39.375 C 32.972656 39.375 32.972656 39.371094 32.972656 39.371094 C 32.972656 39.367188 32.96875 39.363281 32.96875 39.363281 C 32.96875 39.359375 32.96875 39.359375 32.96875 39.359375 C 32.96875 39.355469 32.96875 39.351562 32.96875 39.347656 L 32.96875 39.34375 C 32.96875 39.339844 32.96875 39.339844 32.96875 39.335938 C 32.964844 39.335938 32.964844 39.332031 32.964844 39.332031 C 32.964844 39.324219 32.964844 39.316406 32.964844 39.308594 C 32.964844 39.308594 32.964844 39.304688 32.964844 39.304688 C 32.597656 36.058594 33.609375 33.691406 34.652344 32.175781 C 34.652344 32.175781 34.65625 32.175781 34.65625 32.175781 L 34.65625 32.171875 C 35.085938 31.546875 35.523438 31.066406 35.871094 30.730469 C 35.613281 31.867188 35.519531 33.183594 35.71875 34.679688 C 36.03125 39.820312 39.695312 41.554688 44.585938 41.554688 C 52.96875 41.554688 64.964844 36.460938 69.890625 34.679688 C 75.898438 32.515625 84.972656 26.34375 89.464844 21.074219 C 89.421875 21.253906 89.378906 21.433594 89.335938 21.617188 C 87.953125 27.191406 74.972656 36.761719 67.167969 39.574219 C 65.621094 40.132812 63.375 41.019531 60.761719 41.972656 L 60.75 41.976562 C 55.050781 44.058594 47.609375 46.449219 41.863281 46.449219 " fill-opacity="1" fill-rule="nonzero"/></g><path fill="#ffffff" d="M 53.75 19.535156 C 53.75 20.960938 52.914062 22.117188 51.878906 22.117188 C 50.847656 22.117188 50.011719 20.960938 50.011719 19.535156 C 50.011719 18.109375 50.847656 16.953125 51.878906 16.953125 C 52.914062 16.953125 53.75 18.109375 53.75 19.535156 " fill-opacity="1" fill-rule="nonzero"/><path fill="#ffffff" d="M 49.128906 23.34375 C 49.128906 24.296875 48.566406 25.070312 47.878906 25.070312 C 47.1875 25.070312 46.628906 24.296875 46.628906 23.34375 C 46.628906 22.390625 47.1875 21.621094 47.878906 21.621094 C 48.566406 21.621094 49.128906 22.390625 49.128906 23.34375 " fill-opacity="1" fill-rule="nonzero"/><path fill="#ffffff" d="M 51.882812 26.785156 C 51.882812 27.496094 51.464844 28.078125 50.945312 28.078125 C 50.429688 28.078125 50.011719 27.496094 50.011719 26.785156 C 50.011719 26.070312 50.429688 25.492188 50.945312 25.492188 C 51.464844 25.492188 51.882812 26.070312 51.882812 26.785156 " fill-opacity="1" fill-rule="nonzero"/><path fill="#ffffff" d="M 44.105469 27.683594 C 44.105469 28.398438 43.6875 28.976562 43.167969 28.976562 C 42.652344 28.976562 42.234375 28.398438 42.234375 27.683594 C 42.234375 26.96875 42.652344 26.390625 43.167969 26.390625 C 43.6875 26.390625 44.105469 26.96875 44.105469 27.683594 " fill-opacity="1" fill-rule="nonzero"/><path fill="#b4aa90" d="M 86.59375 54.675781 C 84.707031 54.675781 82.648438 54.410156 82.488281 53.269531 C 82.417969 52.75 82.808594 52.554688 83.445312 52.554688 C 85.425781 52.554688 89.785156 54.46875 89.785156 54.46875 C 89.785156 54.46875 88.253906 54.675781 86.59375 54.675781 " fill-opacity="1" fill-rule="nonzero"/><path fill="#b4aa90" d="M 104.3125 54.675781 C 102.652344 54.675781 101.121094 54.46875 101.121094 54.46875 C 101.121094 54.46875 105.480469 52.554688 107.464844 52.554688 C 108.097656 52.554688 108.492188 52.75 108.417969 53.269531 C 108.253906 54.410156 106.203125 54.675781 104.3125 54.675781 " fill-opacity="1" fill-rule="nonzero"/><path fill="#b4aa90" d="M 90.75 53.59375 C 90.75 53.59375 87.546875 52.203125 88.738281 51.015625 C 88.902344 50.851562 89.058594 50.785156 89.203125 50.785156 C 90.140625 50.785156 90.75 53.59375 90.75 53.59375 " fill-opacity="1" fill-rule="nonzero"/><path fill="#b4aa90" d="M 100.132812 53.59375 C 100.132812 53.59375 100.742188 50.785156 101.675781 50.785156 C 101.824219 50.785156 101.976562 50.851562 102.140625 51.015625 C 103.335938 52.203125 100.132812 53.59375 100.132812 53.59375 " fill-opacity="1" fill-rule="nonzero"/><path fill="#b4aa90" d="M 97.902344 53.148438 C 97.902344 53.148438 97.460938 50.417969 98.203125 50.417969 C 98.285156 50.417969 98.382812 50.453125 98.492188 50.523438 C 99.628906 51.25 97.902344 53.148438 97.902344 53.148438 " fill-opacity="1" fill-rule="nonzero"/><path fill="#b4aa90" d="M 96.109375 52.617188 C 96.109375 52.617188 95.023438 50.429688 95.683594 50.429688 C 95.730469 50.429688 95.789062 50.441406 95.859375 50.46875 C 96.859375 50.84375 96.109375 52.617188 96.109375 52.617188 " fill-opacity="1" fill-rule="nonzero"/><path fill="#b4aa90" d="M 92.695312 52.648438 C 92.695312 52.648438 90.324219 51.128906 91.375 50.933594 C 91.425781 50.925781 91.472656 50.917969 91.523438 50.917969 C 92.453125 50.917969 92.695312 52.648438 92.695312 52.648438 " fill-opacity="1" fill-rule="nonzero"/></svg>