<svg xmlns="http://www.w3.org/2000/svg" xmlns:xlink="http://www.w3.org/1999/xlink" width="200" zoomAndPan="magnify" viewBox="0 0 150 112.499997" height="150" preserveAspectRatio="xMidYMid meet" version="1.0"><defs><clipPath id="bfb33d4c3a"><path d="M 36.652344 51.261719 L 41.777344 51.261719 L 41.777344 55.71875 L 36.652344 55.71875 Z M 36.652344 51.261719 " clip-rule="nonzero"/></clipPath><clipPath id="47b7819f8d"><path d="M 62.101562 35.96875 L 65.292969 35.96875 L 65.292969 38.269531 L 62.101562 38.269531 Z M 62.101562 35.96875 " clip-rule="nonzero"/></clipPath><clipPath id="bf24f191e6"><path d="M 62.269531 36 L 65.292969 36 L 65.292969 38.269531 L 62.269531 38.269531 Z M 62.269531 36 " clip-rule="nonzero"/></clipPath><clipPath id="a8eca6a59e"><path d="M 73.222656 91.808594 L 78.347656 91.808594 L 78.347656 96.265625 L 73.222656 96.265625 Z M 73.222656 91.808594 " clip-rule="nonzero"/></clipPath><clipPath id="7115dddf15"><path d="M 98.675781 76.515625 L 101.863281 76.515625 L 101.863281 78.816406 L 98.675781 78.816406 Z M 98.675781 76.515625 " clip-rule="nonzero"/></clipPath><clipPath id="8bd7d51ed1"><path d="M 99 76.515625 L 101.863281 76.515625 L 101.863281 78.816406 L 99 78.816406 Z M 99 76.515625 " clip-rule="nonzero"/></clipPath><clipPath id="149e3d1499"><path d="M 108.214844 51.261719 L 113.339844 51.261719 L 113.339844 55.71875 L 108.214844 55.71875 Z M 108.214844 51.261719 " clip-rule="nonzero"/></clipPath><clipPath id="2ffc22679f"><path d="M 84.699219 35.96875 L 87.886719 35.96875 L 87.886719 38.269531 L 84.699219 38.269531 Z M 84.699219 35.96875 " clip-rule="nonzero"/></clipPath><clipPath id="11e5fa1c86"><path d="M 84.699219 36 L 87.722656 36 L 87.722656 38.269531 L 84.699219 38.269531 Z M 84.699219 36 " clip-rule="nonzero"/></clipPath></defs><path fill="#a09c4a" d="M 46.066406 18.128906 C 44.988281 19.703125 45.1875 21.675781 45.1875 21.675781 C 45.1875 21.675781 43.894531 19.335938 42.640625 21.652344 C 41.46875 23.8125 42.394531 26.136719 42.394531 26.136719 C 42.394531 26.136719 40.484375 24.199219 39.503906 26.546875 C 38.910156 27.960938 39.714844 30.707031 39.714844 30.707031 C 39.714844 30.707031 37.617188 29.65625 37.289062 32.617188 C 37.097656 34.351562 37.953125 35.808594 37.953125 35.808594 C 37.953125 35.808594 35.335938 35.277344 36.550781 39.175781 C 36.988281 40.582031 38.183594 41.910156 39.066406 42.664062 C 39.019531 42.59375 38.972656 42.515625 38.925781 42.433594 C 39.015625 42.578125 39.066406 42.664062 39.066406 42.664062 C 45.84375 45.796875 53.140625 39.878906 50.710938 35.753906 C 48.230469 31.546875 48.566406 22.035156 49.136719 18.984375 C 49.824219 15.511719 47.324219 16.289062 46.066406 18.128906 " fill-opacity="1" fill-rule="nonzero"/><path fill="#4a492b" d="M 46.066406 18.128906 C 44.988281 19.703125 45.1875 21.675781 45.1875 21.675781 C 45.1875 21.675781 43.894531 19.335938 42.640625 21.652344 C 41.46875 23.8125 42.394531 26.136719 42.394531 26.136719 C 42.394531 26.136719 40.484375 24.199219 39.503906 26.546875 C 38.910156 27.960938 39.714844 30.707031 39.714844 30.707031 C 39.714844 30.707031 37.617188 29.65625 37.289062 32.617188 C 37.097656 34.351562 37.953125 35.808594 37.953125 35.808594 C 37.953125 35.808594 35.335938 35.277344 36.550781 39.175781 C 36.988281 40.582031 38.183594 41.910156 39.066406 42.664062 C 38.511719 41.804688 37.8125 40.351562 37.738281 39.363281 C 37.628906 37.90625 39.371094 37.613281 39.371094 37.613281 C 39.371094 37.613281 38.753906 35.316406 38.945312 33.609375 C 39.089844 32.320312 40.652344 32.199219 40.652344 32.199219 C 40.652344 32.199219 40.675781 28.898438 41.140625 28.140625 C 41.65625 27.292969 43.441406 27.902344 43.441406 27.902344 C 43.441406 27.902344 43.453125 24.296875 44.222656 23.808594 C 44.992188 23.320312 45.96875 24.542969 45.96875 24.542969 C 45.96875 24.542969 46.144531 20.992188 47.230469 19.839844 C 47.878906 19.152344 48.761719 19.039062 49.136719 18.984375 C 49.824219 15.511719 47.324219 16.289062 46.066406 18.128906 " fill-opacity="1" fill-rule="nonzero"/><path fill="#909437" d="M 48.988281 29.546875 C 48.207031 28.597656 47.589844 28.949219 47.441406 29.910156 C 46.789062 28.917969 45.929688 29.453125 46.136719 30.386719 C 44.839844 29.433594 44.507812 30.832031 44.898438 31.542969 C 43.8125 30.84375 43.203125 31.765625 43.632812 32.683594 C 42.542969 32.277344 42.007812 33.71875 42.871094 34.675781 C 41.269531 34.496094 41.496094 35.949219 42.34375 36.765625 C 41.292969 36.582031 41.101562 38.183594 42.191406 39.136719 C 40.34375 39.140625 41.1875 41.207031 42.136719 41.601562 C 41.875 41.746094 41.566406 42.578125 41.777344 43.457031 C 41.960938 43.484375 42.144531 43.503906 42.332031 43.515625 C 47.9375 43.941406 52.75 39.21875 50.710938 35.753906 C 49.933594 34.4375 49.433594 32.605469 49.132812 30.613281 C 49.078125 30.261719 49.03125 29.90625 48.988281 29.546875 " fill-opacity="1" fill-rule="nonzero"/><path fill="#f9e15a" d="M 47.441406 29.910156 C 46.789062 28.917969 45.929688 29.453125 46.136719 30.386719 C 44.839844 29.433594 44.507812 30.832031 44.898438 31.542969 C 43.8125 30.84375 43.203125 31.765625 43.632812 32.683594 C 42.542969 32.277344 42.007812 33.71875 42.871094 34.675781 C 41.269531 34.496094 41.496094 35.949219 42.34375 36.765625 C 41.292969 36.582031 41.101562 38.183594 42.191406 39.136719 C 40.34375 39.140625 41.1875 41.207031 42.136719 41.601562 C 41.875 41.746094 41.566406 42.578125 41.777344 43.457031 C 41.960938 43.484375 42.144531 43.503906 42.332031 43.515625 C 42.117188 42.742188 42.089844 41.871094 42.5 41.65625 C 42.515625 41.644531 42.539062 41.632812 42.558594 41.621094 C 41.789062 41.285156 41.15625 39.917969 41.960938 39.472656 C 42.125 39.371094 42.355469 39.308594 42.664062 39.308594 C 41.855469 38.597656 41.605469 37.609375 42.183594 37.316406 C 42.355469 37.214844 42.609375 37.175781 42.957031 37.238281 C 42.332031 36.628906 42.136719 35.699219 42.757812 35.382812 C 42.945312 35.273438 43.214844 35.222656 43.582031 35.265625 C 42.996094 34.613281 43.171875 33.855469 43.691406 33.601562 C 43.902344 33.484375 44.179688 33.449219 44.488281 33.550781 C 44.164062 33.164062 44.25 32.546875 44.648438 32.363281 C 44.84375 32.253906 45.125 32.257812 45.480469 32.464844 C 45.265625 32.042969 45.308594 31.503906 45.648438 31.34375 C 45.867188 31.21875 46.21875 31.257812 46.730469 31.617188 C 46.632812 31.164062 46.785156 30.796875 47.046875 30.679688 C 47.289062 30.539062 47.640625 30.628906 47.972656 31.09375 C 48.125 30.273438 48.542969 30.035156 49.132812 30.613281 C 49.078125 30.261719 49.03125 29.90625 48.988281 29.546875 C 48.207031 28.597656 47.589844 28.949219 47.441406 29.910156 " fill-opacity="1" fill-rule="nonzero"/><g clip-path="url(#bfb33d4c3a)"><path fill="#bf845a" d="M 39.613281 54.859375 C 40.03125 54.238281 40.121094 53.742188 40.195312 53.25 C 40.230469 53.015625 40.246094 52.777344 40.421875 52.515625 C 40.640625 52.1875 41.070312 51.976562 41.582031 51.746094 C 41.957031 51.578125 41.726562 51.203125 41.355469 51.328125 C 39.246094 52.03125 39.65625 52.921875 39.5 53.597656 C 39.429688 53.902344 39.203125 54.410156 38.84375 54.535156 C 35.59375 54.496094 36.886719 55.824219 38.199219 55.710938 C 38.632812 55.675781 39.3125 55.304688 39.613281 54.859375 " fill-opacity="1" fill-rule="nonzero"/></g><path fill="#f9ca35" d="M 63.242188 37.484375 C 63.265625 37.636719 63.285156 37.792969 63.292969 37.949219 C 63.371094 39.085938 63.078125 40.425781 62.480469 41.832031 C 60.636719 46.183594 55.878906 51.191406 50.210938 52.898438 C 43.402344 54.945312 37.277344 52.121094 33.300781 49.601562 C 28.839844 48.019531 18.992188 51.875 15.621094 52.183594 C 15.410156 52.203125 15.246094 52.207031 15.121094 52.195312 C 11.527344 52.441406 18.566406 48.929688 18.476562 47.421875 C 18.398438 46.125 18.621094 45.214844 19.445312 45.335938 C 20.84375 45.539062 29.144531 47.023438 32.140625 46.695312 C 32.285156 46.679688 32.414062 46.660156 32.53125 46.636719 C 35.417969 45.359375 38.855469 43.292969 41.433594 41.945312 C 43.664062 40.78125 48.851562 38.035156 50.296875 36.777344 C 51.335938 35.871094 52.613281 35.222656 53.972656 34.851562 C 54.445312 34.722656 54.929688 34.628906 55.417969 34.566406 C 58.140625 34.21875 60.96875 34.949219 62.753906 36.886719 C 62.925781 37.078125 63.089844 37.277344 63.242188 37.484375 " fill-opacity="1" fill-rule="nonzero"/><path fill="#e2ae2b" d="M 15.121094 52.195312 C 15.246094 52.207031 15.410156 52.203125 15.621094 52.183594 C 18.992188 51.875 28.839844 48.019531 33.304688 49.601562 C 37.273438 52.121094 43.398438 54.945312 50.210938 52.898438 C 57.269531 50.777344 62.910156 43.53125 63.285156 38.808594 C 62.898438 40.171875 60.148438 48.183594 49.003906 50.835938 C 42.671875 52.34375 34.601562 50.242188 33.480469 48.808594 C 29.925781 47.175781 17.828125 50.890625 14.152344 51.640625 C 13.800781 52.019531 14.101562 52.265625 15.121094 52.195312 " fill-opacity="1" fill-rule="nonzero"/><path fill="#c6af3c" d="M 52.421875 42.3125 C 52.746094 42.734375 52.34375 43.261719 52.34375 43.261719 C 50.808594 44.472656 47.773438 46.125 41.949219 47.875 C 38.300781 48.972656 35.824219 49.09375 33.359375 48.742188 C 32.835938 48.496094 30.066406 48.257812 32.140625 46.695312 C 32.285156 46.679688 32.414062 46.660156 32.53125 46.636719 C 35.417969 45.359375 38.855469 43.292969 41.433594 41.945312 C 43.664062 40.78125 48.851562 38.035156 50.296875 36.777344 C 51.335938 35.871094 52.613281 35.222656 53.972656 34.851562 C 49.644531 38.140625 51.191406 40.6875 52.421875 42.3125 " fill-opacity="1" fill-rule="nonzero"/><path fill="#fbde66" d="M 53.605469 41.890625 C 56.960938 45.632812 62.449219 41.703125 62.429688 37.566406 C 62.425781 37.371094 62.425781 37.148438 62.398438 36.949219 C 57.152344 33.171875 49.964844 37.832031 53.605469 41.890625 " fill-opacity="1" fill-rule="nonzero"/><path fill="#c1a035" d="M 55.507812 40.921875 C 58.09375 43.804688 62.269531 40.78125 62.429688 37.566406 C 62.441406 37.324219 62.488281 37.148438 62.449219 36.902344 C 57.777344 34.480469 52.628906 37.710938 55.507812 40.921875 " fill-opacity="1" fill-rule="nonzero"/><g clip-path="url(#47b7819f8d)"><path fill="#d49c7e" d="M 65.289062 36.074219 C 65.285156 36.074219 65.285156 36.078125 65.285156 36.078125 L 63.296875 38.210938 C 63.277344 38.238281 62.429688 37.570312 62.429688 37.566406 C 62.429688 37.566406 62.15625 36.382812 62.234375 36.378906 L 65.230469 35.984375 C 65.25 35.980469 65.269531 35.988281 65.28125 36.007812 C 65.296875 36.023438 65.300781 36.050781 65.289062 36.074219 " fill-opacity="1" fill-rule="nonzero"/></g><g clip-path="url(#bf24f191e6)"><path fill="#c48768" d="M 65.289062 36.074219 C 65.285156 36.074219 65.285156 36.078125 65.285156 36.078125 L 63.296875 38.210938 C 63.246094 38.289062 62.429688 37.570312 62.429688 37.566406 C 62.429688 37.566406 64.695312 36.441406 65.28125 36.007812 C 65.296875 36.023438 65.300781 36.050781 65.289062 36.074219 " fill-opacity="1" fill-rule="nonzero"/></g><path fill="#f4f2f2" d="M 57.289062 38.667969 C 57.414062 39.859375 58.84375 40.289062 59.609375 39.363281 C 59.808594 39.125 59.902344 38.808594 59.871094 38.5 C 59.742188 37.3125 58.320312 36.882812 57.554688 37.804688 C 57.355469 38.042969 57.257812 38.359375 57.289062 38.667969 " fill-opacity="1" fill-rule="nonzero"/><path fill="#0c0202" d="M 57.511719 38.644531 C 57.621094 39.703125 58.890625 40.085938 59.574219 39.261719 C 59.75 39.050781 59.835938 38.769531 59.804688 38.496094 C 59.691406 37.4375 58.425781 37.058594 57.746094 37.875 C 57.570312 38.089844 57.484375 38.367188 57.511719 38.644531 " fill-opacity="1" fill-rule="nonzero"/><path fill="#fff8f8" d="M 57.933594 38.40625 C 57.917969 38.757812 58.339844 38.882812 58.523438 38.582031 C 58.539062 38.554688 58.550781 38.519531 58.554688 38.484375 C 58.570312 38.136719 58.144531 38.007812 57.960938 38.308594 C 57.945312 38.335938 57.933594 38.371094 57.933594 38.40625 " fill-opacity="1" fill-rule="nonzero"/><path fill="#faf5cf" d="M 47.277344 53.5 C 41.65625 54.128906 36.695312 51.753906 33.300781 49.601562 C 28.839844 48.019531 18.992188 51.875 15.621094 52.183594 C 15.410156 52.203125 15.246094 52.207031 15.121094 52.195312 C 11.527344 52.441406 18.566406 48.929688 18.476562 47.421875 C 18.398438 46.125 18.621094 45.214844 19.445312 45.335938 C 20.910156 45.546875 29.945312 47.167969 32.53125 46.636719 C 34.414062 45.804688 37.625 44.019531 39.585938 42.933594 C 40.273438 45.082031 42.246094 47.046875 42.832031 47.632812 C 44.144531 48.949219 45.804688 50.101562 47.800781 51.078125 C 49.054688 51.695312 50.125 52.050781 51.472656 52.386719 C 49.566406 53.191406 48.816406 53.207031 47.277344 53.5 " fill-opacity="1" fill-rule="nonzero"/><path fill="#f7e3be" d="M 51.640625 52.390625 C 51.171875 52.582031 50.695312 52.75 50.210938 52.898438 C 43.398438 54.945312 37.273438 52.125 33.300781 49.601562 C 28.839844 48.019531 18.992188 51.875 15.621094 52.183594 C 15.410156 52.203125 15.246094 52.207031 15.121094 52.195312 C 14.101562 52.265625 13.800781 52.019531 14.152344 51.640625 C 17.828125 50.890625 29.925781 47.175781 33.480469 48.808594 C 34.53125 50.152344 41.691406 52.082031 47.800781 51.078125 C 49.058594 51.726562 50.382812 52.179688 51.640625 52.390625 " fill-opacity="1" fill-rule="nonzero"/><path fill="#eac632" d="M 42.808594 47.597656 C 39.246094 48.808594 35.65625 49.265625 33.371094 48.785156 C 31.847656 48.300781 30.644531 47.402344 32.53125 46.636719 C 32.535156 46.636719 32.53125 46.636719 32.53125 46.636719 C 34.410156 45.800781 37.628906 44.023438 39.585938 42.933594 C 39.816406 43.96875 41.414062 46.296875 42.808594 47.597656 " fill-opacity="1" fill-rule="nonzero"/><path fill="#929635" d="M 33.492188 48.804688 C 33.492188 48.804688 30.371094 47.511719 32.53125 46.636719 C 29.949219 47.167969 20.910156 45.546875 19.445312 45.335938 C 18.621094 45.214844 18.398438 46.125 18.476562 47.421875 C 18.542969 48.546875 14.617188 50.714844 14.152344 51.640625 C 13.992188 51.953125 14.292969 52.125 15.203125 52.0625 C 15.238281 52.066406 15.671875 52.027344 15.867188 52 C 19.230469 51.570312 26.929688 47.742188 33.492188 48.804688 " fill-opacity="1" fill-rule="nonzero"/><path fill="#bdbd33" d="M 33.492188 48.804688 C 33.492188 48.804688 30.371094 47.511719 32.53125 46.636719 C 31.492188 46.851562 29.40625 46.714844 27.1875 46.464844 C 25.542969 46.277344 24.242188 47.042969 24.460938 47.753906 C 24.679688 48.464844 26.417969 49.128906 26.746094 49.066406 C 28.984375 48.640625 31.300781 48.449219 33.492188 48.804688 " fill-opacity="1" fill-rule="nonzero"/><path fill="#3a3121" d="M 18.476562 47.421875 C 18.402344 46.195312 18.542969 45.265625 19.3125 45.320312 C 18.234375 45.964844 21.664062 47.113281 21.59375 47.78125 C 21.523438 48.449219 14.574219 51.683594 14.761719 52.078125 C 14.152344 52.082031 13.972656 51.925781 14.152344 51.640625 C 14.738281 50.703125 18.542969 48.527344 18.476562 47.421875 " fill-opacity="1" fill-rule="nonzero"/><path fill="#bf845a" d="M 36.054688 54.453125 C 36.769531 53.9375 37.070312 53.191406 37.136719 52.757812 C 37.167969 52.554688 37.179688 52.339844 37.371094 52.109375 C 37.617188 51.816406 38.105469 51.625 38.691406 51.417969 C 39.125 51.265625 38.835938 50.929688 38.410156 51.054688 C 35.945312 51.769531 36.5 52.476562 36.34375 53.074219 C 36.269531 53.34375 36.042969 53.621094 35.613281 53.90625 C 32.089844 53.453125 32.617188 54.902344 34.320312 54.988281 C 34.75 55.011719 35.761719 54.660156 36.054688 54.453125 " fill-opacity="1" fill-rule="nonzero"/><path fill="#aaa459" d="M 36.769531 46.976562 C 36.777344 46.980469 36.78125 46.984375 36.789062 46.988281 C 35.25 46.921875 33.523438 46.464844 33.140625 45.832031 C 30.753906 43.789062 33.078125 42.539062 33.078125 42.539062 C 33.078125 42.539062 30.3125 42.183594 29.539062 40.648438 C 28.171875 38.523438 30.285156 37.625 30.285156 37.625 C 30.285156 37.625 27.902344 36.488281 27.300781 33.894531 C 27.179688 32.546875 29.128906 32.152344 29.128906 32.152344 C 29.128906 32.152344 27.691406 31.257812 27.308594 28.855469 C 27.152344 23.886719 30.644531 27.125 30.644531 27.125 C 30.644531 27.125 29.933594 25.585938 30.082031 24.011719 C 30.152344 20.847656 32.246094 20.78125 34.863281 24.433594 C 35.71875 25.515625 37.847656 28.777344 39.851562 31.671875 C 39.867188 31.695312 39.882812 31.722656 39.902344 31.746094 C 39.957031 31.828125 40.011719 31.90625 40.066406 31.988281 C 40.117188 32.054688 40.164062 32.125 40.210938 32.191406 C 40.273438 32.277344 40.332031 32.363281 40.390625 32.449219 C 40.449219 32.535156 40.507812 32.617188 40.566406 32.699219 C 40.222656 32.730469 40.101562 32.988281 40.457031 33.769531 C 39.394531 33.25 39.09375 34.074219 39.796875 34.777344 C 38.269531 34.652344 38.789062 35.886719 39.496094 36.277344 C 38.285156 36.277344 38.730469 37.417969 39.472656 37.589844 C 38.445312 37.847656 38.515625 38.847656 39.730469 39.488281 C 38.476562 40.21875 39.273438 41.292969 40.335938 41.457031 C 39.085938 42.070312 39.726562 42.988281 40.898438 43.363281 C 40.0625 43.941406 40.882812 45.214844 41.742188 44.984375 C 41.238281 46.109375 43.234375 46.671875 43.847656 46.898438 C 43.945312 46.933594 44.011719 46.984375 44.023438 47.003906 C 41 47.617188 38.558594 47.441406 36.769531 46.976562 " fill-opacity="1" fill-rule="nonzero"/><path fill="#5b5932" d="M 34.125 44.847656 C 33.808594 43.523438 34.855469 42.8125 34.855469 42.8125 C 34.855469 42.8125 32.375 41.546875 31.757812 40.285156 C 31.148438 39.035156 32.6875 38.523438 32.6875 38.523438 C 32.6875 38.523438 30.039062 36.363281 29.820312 35.003906 C 29.605469 33.671875 31.691406 34 31.691406 34 C 31.691406 34 29.84375 31.890625 29.933594 30.296875 C 30.019531 28.753906 32.273438 29.476562 32.273438 29.476562 C 32.273438 29.476562 31.332031 25.769531 32.621094 24.683594 C 33.378906 24.019531 34.261719 24.34375 34.859375 24.429688 C 32.246094 20.78125 30.152344 20.847656 30.082031 24.011719 C 29.933594 25.585938 30.644531 27.125 30.644531 27.125 C 30.644531 27.125 27.152344 23.886719 27.308594 28.855469 C 27.691406 31.257812 29.128906 32.148438 29.128906 32.148438 C 29.128906 32.148438 27.179688 32.550781 27.300781 33.894531 C 27.902344 36.488281 30.285156 37.625 30.285156 37.625 C 30.285156 37.625 28.171875 38.519531 29.539062 40.648438 C 30.3125 42.183594 33.078125 42.539062 33.078125 42.539062 C 33.078125 42.539062 30.753906 43.789062 33.140625 45.832031 C 33.523438 46.464844 35.25 46.921875 36.789062 46.988281 C 35.773438 46.335938 34.332031 45.730469 34.125 44.847656 " fill-opacity="1" fill-rule="nonzero"/><path fill="#f9db5a" d="M 46.691406 46.296875 C 45.898438 46.554688 44.917969 46.832031 44.039062 47.003906 C 43.480469 47.109375 40.882812 46.71875 41.363281 45.449219 C 40.496094 45.699219 38.925781 44.632812 40.230469 43.539062 C 38.925781 43.414062 38.003906 42.214844 39.28125 41.554688 C 38.195312 41.378906 37.285156 40.179688 38.570312 39.390625 C 37.363281 39.074219 37.195312 37.53125 38.246094 37.253906 C 37.484375 37.066406 37.09375 35.640625 38.328125 35.648438 C 37.609375 35.226562 37.171875 33.945312 38.722656 34.085938 C 38.003906 33.335938 38.230469 32.292969 39.3125 32.851562 C 38.832031 31.75 39.226562 31.460938 39.851562 31.671875 C 39.867188 31.695312 39.882812 31.722656 39.902344 31.746094 C 39.957031 31.828125 40.011719 31.90625 40.066406 31.988281 C 40.117188 32.054688 40.164062 32.125 40.210938 32.191406 C 40.273438 32.277344 40.332031 32.363281 40.390625 32.449219 C 40.449219 32.535156 40.507812 32.617188 40.566406 32.699219 C 41.617188 34.1875 42.582031 35.476562 43.242188 36.175781 C 45.390625 38.445312 51.757812 42.09375 51.757812 42.09375 C 54.339844 43.1875 49.199219 45.472656 46.691406 46.296875 " fill-opacity="1" fill-rule="nonzero"/><path fill="#fffaa6" d="M 44.023438 47.003906 C 43.953125 47.019531 43.863281 47.03125 43.605469 47.011719 C 42.691406 46.941406 40.914062 46.550781 41.363281 45.449219 C 40.496094 45.699219 38.925781 44.632812 40.230469 43.539062 C 38.925781 43.414062 38.003906 42.214844 39.28125 41.554688 C 38.195312 41.378906 37.285156 40.179688 38.570312 39.390625 C 37.363281 39.074219 37.195312 37.53125 38.246094 37.253906 C 37.484375 37.066406 37.09375 35.640625 38.328125 35.648438 C 37.609375 35.226562 37.171875 33.945312 38.722656 34.085938 C 38.003906 33.335938 38.230469 32.292969 39.3125 32.851562 C 38.832031 31.75 39.226562 31.460938 39.851562 31.671875 C 39.867188 31.695312 39.882812 31.722656 39.902344 31.746094 C 39.957031 31.828125 40.011719 31.90625 40.066406 31.988281 C 40.117188 32.054688 40.164062 32.125 40.210938 32.191406 C 40.273438 32.277344 40.332031 32.363281 40.390625 32.449219 C 40.449219 32.535156 40.507812 32.617188 40.566406 32.699219 C 40.222656 32.730469 40.101562 32.988281 40.457031 33.769531 C 39.394531 33.25 39.09375 34.074219 39.796875 34.777344 C 38.269531 34.652344 38.789062 35.886719 39.496094 36.277344 C 38.285156 36.277344 38.730469 37.417969 39.472656 37.589844 C 38.445312 37.847656 38.515625 38.847656 39.730469 39.488281 C 38.476562 40.21875 39.273438 41.292969 40.335938 41.457031 C 39.085938 42.070312 39.726562 42.988281 40.898438 43.363281 C 40.0625 43.941406 40.882812 45.214844 41.742188 44.984375 C 41.238281 46.109375 43.234375 46.671875 43.847656 46.898438 C 43.945312 46.933594 44.011719 46.984375 44.023438 47.003906 " fill-opacity="1" fill-rule="nonzero"/><path fill="#a09c4a" d="M 82.636719 58.675781 C 81.558594 60.25 81.757812 62.222656 81.757812 62.222656 C 81.757812 62.222656 80.464844 59.882812 79.210938 62.199219 C 78.042969 64.359375 78.964844 66.683594 78.964844 66.683594 C 78.964844 66.683594 77.054688 64.746094 76.074219 67.09375 C 75.484375 68.507812 76.285156 71.253906 76.285156 71.253906 C 76.285156 71.253906 74.1875 70.203125 73.859375 73.164062 C 73.667969 74.894531 74.523438 76.355469 74.523438 76.355469 C 74.523438 76.355469 71.90625 75.824219 73.121094 79.722656 C 73.558594 81.128906 74.753906 82.457031 75.640625 83.210938 C 75.59375 83.136719 75.542969 83.0625 75.496094 82.980469 C 75.585938 83.125 75.640625 83.210938 75.640625 83.210938 C 82.414062 86.34375 89.710938 80.425781 87.28125 76.300781 C 84.800781 72.09375 85.136719 62.582031 85.707031 59.53125 C 86.394531 56.058594 83.898438 56.835938 82.636719 58.675781 " fill-opacity="1" fill-rule="nonzero"/><path fill="#4a492b" d="M 82.636719 58.675781 C 81.558594 60.25 81.757812 62.222656 81.757812 62.222656 C 81.757812 62.222656 80.464844 59.882812 79.210938 62.199219 C 78.042969 64.359375 78.964844 66.683594 78.964844 66.683594 C 78.964844 66.683594 77.054688 64.746094 76.074219 67.09375 C 75.484375 68.507812 76.285156 71.253906 76.285156 71.253906 C 76.285156 71.253906 74.1875 70.203125 73.859375 73.164062 C 73.667969 74.894531 74.523438 76.355469 74.523438 76.355469 C 74.523438 76.355469 71.90625 75.824219 73.121094 79.722656 C 73.558594 81.128906 74.753906 82.457031 75.640625 83.210938 C 75.085938 82.351562 74.382812 80.898438 74.308594 79.910156 C 74.199219 78.453125 75.945312 78.15625 75.945312 78.15625 C 75.945312 78.15625 75.324219 75.863281 75.515625 74.15625 C 75.664062 72.867188 77.222656 72.746094 77.222656 72.746094 C 77.222656 72.746094 77.25 69.445312 77.710938 68.6875 C 78.226562 67.839844 80.015625 68.449219 80.015625 68.449219 C 80.015625 68.449219 80.023438 64.84375 80.792969 64.355469 C 81.5625 63.867188 82.539062 65.089844 82.539062 65.089844 C 82.539062 65.089844 82.714844 61.539062 83.800781 60.386719 C 84.449219 59.699219 85.332031 59.585938 85.707031 59.53125 C 86.394531 56.058594 83.898438 56.835938 82.636719 58.675781 " fill-opacity="1" fill-rule="nonzero"/><path fill="#909437" d="M 85.558594 70.09375 C 84.777344 69.144531 84.160156 69.496094 84.011719 70.457031 C 83.359375 69.464844 82.503906 70 82.707031 70.933594 C 81.410156 69.980469 81.078125 71.378906 81.46875 72.089844 C 80.386719 71.390625 79.777344 72.3125 80.203125 73.230469 C 79.113281 72.824219 78.578125 74.265625 79.445312 75.222656 C 77.839844 75.042969 78.066406 76.496094 78.914062 77.3125 C 77.863281 77.128906 77.671875 78.730469 78.761719 79.683594 C 76.914062 79.6875 77.757812 81.75 78.707031 82.148438 C 78.445312 82.292969 78.136719 83.125 78.347656 84.003906 C 78.53125 84.03125 78.71875 84.050781 78.902344 84.0625 C 84.507812 84.488281 89.320312 79.765625 87.28125 76.300781 C 86.503906 74.984375 86.007812 73.152344 85.703125 71.160156 C 85.648438 70.808594 85.601562 70.453125 85.558594 70.09375 " fill-opacity="1" fill-rule="nonzero"/><path fill="#f9e15a" d="M 84.011719 70.457031 C 83.359375 69.464844 82.503906 70 82.707031 70.933594 C 81.410156 69.980469 81.078125 71.378906 81.46875 72.089844 C 80.386719 71.390625 79.777344 72.3125 80.203125 73.230469 C 79.113281 72.824219 78.578125 74.265625 79.445312 75.222656 C 77.839844 75.042969 78.066406 76.496094 78.914062 77.3125 C 77.863281 77.128906 77.671875 78.730469 78.761719 79.683594 C 76.914062 79.6875 77.757812 81.75 78.707031 82.148438 C 78.445312 82.292969 78.136719 83.125 78.347656 84.003906 C 78.53125 84.03125 78.71875 84.050781 78.902344 84.0625 C 78.6875 83.289062 78.660156 82.417969 79.070312 82.203125 C 79.089844 82.191406 79.109375 82.179688 79.128906 82.167969 C 78.359375 81.832031 77.726562 80.464844 78.53125 80.019531 C 78.695312 79.917969 78.925781 79.855469 79.234375 79.855469 C 78.425781 79.144531 78.175781 78.15625 78.753906 77.863281 C 78.925781 77.761719 79.179688 77.722656 79.527344 77.785156 C 78.90625 77.175781 78.707031 76.246094 79.328125 75.929688 C 79.515625 75.820312 79.785156 75.769531 80.152344 75.8125 C 79.570312 75.160156 79.742188 74.402344 80.261719 74.148438 C 80.476562 74.03125 80.75 73.996094 81.058594 74.097656 C 80.734375 73.710938 80.820312 73.09375 81.21875 72.910156 C 81.417969 72.800781 81.695312 72.804688 82.050781 73.011719 C 81.835938 72.589844 81.878906 72.050781 82.222656 71.890625 C 82.4375 71.765625 82.792969 71.804688 83.300781 72.164062 C 83.203125 71.710938 83.355469 71.34375 83.617188 71.226562 C 83.859375 71.085938 84.210938 71.175781 84.542969 71.640625 C 84.695312 70.820312 85.113281 70.578125 85.703125 71.160156 C 85.648438 70.808594 85.601562 70.453125 85.558594 70.09375 C 84.777344 69.144531 84.160156 69.496094 84.011719 70.457031 " fill-opacity="1" fill-rule="nonzero"/><g clip-path="url(#a8eca6a59e)"><path fill="#bf845a" d="M 76.183594 95.40625 C 76.605469 94.785156 76.691406 94.289062 76.765625 93.796875 C 76.800781 93.5625 76.816406 93.324219 76.992188 93.0625 C 77.210938 92.734375 77.640625 92.523438 78.152344 92.292969 C 78.53125 92.125 78.296875 91.75 77.925781 91.875 C 75.816406 92.578125 76.226562 93.46875 76.070312 94.144531 C 76 94.449219 75.773438 94.957031 75.414062 95.082031 C 72.164062 95.042969 73.460938 96.371094 74.769531 96.257812 C 75.207031 96.222656 75.886719 95.851562 76.183594 95.40625 " fill-opacity="1" fill-rule="nonzero"/></g><path fill="#f9ca35" d="M 99.8125 78.03125 C 99.835938 78.183594 99.855469 78.339844 99.867188 78.496094 C 99.945312 79.632812 99.648438 80.972656 99.054688 82.378906 C 97.207031 86.730469 92.453125 91.738281 86.78125 93.445312 C 79.972656 95.492188 73.847656 92.667969 69.875 90.148438 C 65.410156 88.566406 55.5625 92.421875 52.191406 92.730469 C 51.980469 92.75 51.816406 92.753906 51.691406 92.742188 C 48.097656 92.988281 55.140625 89.476562 55.046875 87.96875 C 54.96875 86.671875 55.191406 85.761719 56.015625 85.882812 C 57.414062 86.085938 65.714844 87.570312 68.714844 87.242188 C 68.855469 87.226562 68.984375 87.207031 69.101562 87.183594 C 71.988281 85.90625 75.425781 83.839844 78.003906 82.492188 C 80.234375 81.328125 85.421875 78.582031 86.867188 77.324219 C 87.910156 76.417969 89.183594 75.769531 90.542969 75.398438 C 91.015625 75.269531 91.5 75.175781 91.988281 75.113281 C 94.710938 74.765625 97.542969 75.496094 99.324219 77.433594 C 99.496094 77.621094 99.660156 77.820312 99.8125 78.03125 " fill-opacity="1" fill-rule="nonzero"/><path fill="#e2ae2b" d="M 51.691406 92.742188 C 51.816406 92.753906 51.980469 92.75 52.191406 92.730469 C 55.5625 92.421875 65.410156 88.566406 69.875 90.148438 C 73.847656 92.667969 79.972656 95.492188 86.78125 93.445312 C 93.839844 91.324219 99.480469 84.078125 99.855469 79.355469 C 99.46875 80.71875 96.71875 88.730469 85.574219 91.382812 C 79.246094 92.890625 71.171875 90.789062 70.050781 89.355469 C 66.496094 87.722656 54.398438 91.4375 50.722656 92.1875 C 50.371094 92.566406 50.671875 92.8125 51.691406 92.742188 " fill-opacity="1" fill-rule="nonzero"/><path fill="#c6af3c" d="M 88.996094 82.859375 C 89.316406 83.28125 88.914062 83.808594 88.914062 83.808594 C 87.378906 85.019531 84.34375 86.671875 78.519531 88.421875 C 74.871094 89.515625 72.394531 89.640625 69.929688 89.289062 C 69.40625 89.042969 66.636719 88.804688 68.714844 87.242188 C 68.855469 87.226562 68.984375 87.207031 69.101562 87.183594 C 71.988281 85.90625 75.425781 83.839844 78.003906 82.492188 C 80.234375 81.328125 85.421875 78.582031 86.867188 77.324219 C 87.910156 76.417969 89.183594 75.769531 90.542969 75.398438 C 86.21875 78.6875 87.761719 81.234375 88.996094 82.859375 " fill-opacity="1" fill-rule="nonzero"/><path fill="#fbde66" d="M 90.175781 82.4375 C 93.535156 86.179688 99.019531 82.25 99 78.113281 C 99 77.914062 98.996094 77.695312 98.96875 77.496094 C 93.726562 73.71875 86.535156 78.378906 90.175781 82.4375 " fill-opacity="1" fill-rule="nonzero"/><path fill="#c1a035" d="M 92.078125 81.46875 C 94.664062 84.351562 98.839844 81.328125 99 78.113281 C 99.011719 77.867188 99.058594 77.695312 99.019531 77.449219 C 94.351562 75.027344 89.199219 78.257812 92.078125 81.46875 " fill-opacity="1" fill-rule="nonzero"/><g clip-path="url(#7115dddf15)"><path fill="#d49c7e" d="M 101.859375 76.621094 C 101.855469 76.621094 101.855469 76.621094 101.855469 76.625 L 99.867188 78.757812 C 99.847656 78.785156 99.003906 78.117188 99 78.113281 C 99 78.113281 98.730469 76.929688 98.804688 76.925781 L 101.800781 76.53125 C 101.824219 76.527344 101.839844 76.535156 101.851562 76.554688 C 101.867188 76.570312 101.871094 76.597656 101.859375 76.621094 " fill-opacity="1" fill-rule="nonzero"/></g><g clip-path="url(#8bd7d51ed1)"><path fill="#c48768" d="M 101.859375 76.621094 C 101.855469 76.621094 101.855469 76.621094 101.855469 76.625 L 99.867188 78.757812 C 99.816406 78.835938 99.003906 78.117188 99 78.113281 C 99 78.113281 101.265625 76.988281 101.851562 76.554688 C 101.867188 76.570312 101.871094 76.597656 101.859375 76.621094 " fill-opacity="1" fill-rule="nonzero"/></g><path fill="#f4f2f2" d="M 93.863281 79.214844 C 93.984375 80.40625 95.414062 80.835938 96.179688 79.910156 C 96.378906 79.671875 96.476562 79.355469 96.441406 79.046875 C 96.316406 77.859375 94.890625 77.429688 94.125 78.351562 C 93.925781 78.589844 93.828125 78.90625 93.863281 79.214844 " fill-opacity="1" fill-rule="nonzero"/><path fill="#0c0202" d="M 94.082031 79.191406 C 94.191406 80.25 95.464844 80.632812 96.144531 79.808594 C 96.320312 79.597656 96.40625 79.316406 96.375 79.042969 C 96.261719 77.984375 95 77.605469 94.316406 78.421875 C 94.140625 78.636719 94.054688 78.914062 94.082031 79.191406 " fill-opacity="1" fill-rule="nonzero"/><path fill="#fff8f8" d="M 94.503906 78.953125 C 94.488281 79.300781 94.914062 79.429688 95.09375 79.128906 C 95.113281 79.101562 95.121094 79.066406 95.125 79.03125 C 95.140625 78.683594 94.714844 78.554688 94.535156 78.855469 C 94.515625 78.882812 94.503906 78.917969 94.503906 78.953125 " fill-opacity="1" fill-rule="nonzero"/><path fill="#faf5cf" d="M 83.847656 94.046875 C 78.230469 94.675781 73.265625 92.300781 69.875 90.148438 C 65.410156 88.566406 55.5625 92.421875 52.191406 92.730469 C 51.980469 92.75 51.816406 92.753906 51.691406 92.742188 C 48.097656 92.988281 55.136719 89.476562 55.046875 87.96875 C 54.96875 86.671875 55.191406 85.761719 56.015625 85.882812 C 57.480469 86.09375 66.519531 87.714844 69.101562 87.183594 C 70.984375 86.347656 74.195312 84.566406 76.15625 83.480469 C 76.84375 85.628906 78.816406 87.59375 79.402344 88.179688 C 80.714844 89.496094 82.375 90.648438 84.371094 91.625 C 85.628906 92.242188 86.699219 92.597656 88.042969 92.933594 C 86.136719 93.734375 85.386719 93.753906 83.847656 94.046875 " fill-opacity="1" fill-rule="nonzero"/><path fill="#f7e3be" d="M 88.210938 92.9375 C 87.742188 93.128906 87.265625 93.296875 86.78125 93.445312 C 79.96875 95.492188 73.847656 92.671875 69.875 90.148438 C 65.410156 88.566406 55.5625 92.421875 52.191406 92.730469 C 51.980469 92.75 51.816406 92.753906 51.691406 92.742188 C 50.671875 92.8125 50.371094 92.566406 50.722656 92.1875 C 54.398438 91.4375 66.496094 87.722656 70.050781 89.355469 C 71.101562 90.699219 78.265625 92.628906 84.371094 91.625 C 85.632812 92.273438 86.953125 92.726562 88.210938 92.9375 " fill-opacity="1" fill-rule="nonzero"/><path fill="#eac632" d="M 79.382812 88.144531 C 75.820312 89.355469 72.230469 89.8125 69.945312 89.332031 C 68.417969 88.847656 67.214844 87.949219 69.101562 87.183594 C 69.105469 87.183594 69.101562 87.183594 69.101562 87.183594 C 70.980469 86.347656 74.199219 84.570312 76.15625 83.480469 C 76.390625 84.515625 77.984375 86.84375 79.382812 88.144531 " fill-opacity="1" fill-rule="nonzero"/><path fill="#929635" d="M 70.0625 89.351562 C 70.0625 89.351562 66.941406 88.058594 69.101562 87.183594 C 66.519531 87.714844 57.480469 86.09375 56.015625 85.882812 C 55.191406 85.761719 54.96875 86.671875 55.046875 87.96875 C 55.117188 89.09375 51.1875 91.261719 50.722656 92.1875 C 50.566406 92.5 50.863281 92.671875 51.773438 92.609375 C 51.808594 92.613281 52.242188 92.574219 52.4375 92.546875 C 55.800781 92.117188 63.5 88.289062 70.0625 89.351562 " fill-opacity="1" fill-rule="nonzero"/><path fill="#bdbd33" d="M 70.0625 89.351562 C 70.0625 89.351562 66.941406 88.058594 69.101562 87.183594 C 68.0625 87.398438 65.976562 87.261719 63.761719 87.011719 C 62.113281 86.824219 60.8125 87.589844 61.03125 88.300781 C 61.25 89.011719 62.988281 89.675781 63.316406 89.613281 C 65.558594 89.1875 67.871094 88.996094 70.0625 89.351562 " fill-opacity="1" fill-rule="nonzero"/><path fill="#3a3121" d="M 55.046875 87.96875 C 54.972656 86.738281 55.113281 85.8125 55.886719 85.867188 C 54.804688 86.511719 58.234375 87.660156 58.164062 88.328125 C 58.09375 88.996094 51.148438 92.230469 51.332031 92.625 C 50.726562 92.628906 50.542969 92.472656 50.722656 92.1875 C 51.308594 91.25 55.113281 89.074219 55.046875 87.96875 " fill-opacity="1" fill-rule="nonzero"/><path fill="#bf845a" d="M 72.625 95 C 73.339844 94.484375 73.640625 93.738281 73.707031 93.304688 C 73.742188 93.101562 73.75 92.886719 73.945312 92.65625 C 74.1875 92.363281 74.679688 92.171875 75.261719 91.964844 C 75.695312 91.8125 75.410156 91.476562 74.980469 91.601562 C 72.519531 92.316406 73.070312 93.023438 72.914062 93.621094 C 72.84375 93.890625 72.613281 94.167969 72.183594 94.453125 C 68.660156 94 69.1875 95.449219 70.890625 95.535156 C 71.324219 95.558594 72.332031 95.207031 72.625 95 " fill-opacity="1" fill-rule="nonzero"/><path fill="#aaa459" d="M 73.339844 87.523438 C 73.347656 87.527344 73.355469 87.53125 73.359375 87.535156 C 71.820312 87.46875 70.09375 87.011719 69.714844 86.378906 C 67.324219 84.335938 69.648438 83.085938 69.648438 83.085938 C 69.648438 83.085938 66.882812 82.730469 66.113281 81.195312 C 64.746094 79.066406 66.855469 78.171875 66.855469 78.171875 C 66.855469 78.171875 64.472656 77.035156 63.871094 74.441406 C 63.75 73.09375 65.699219 72.699219 65.699219 72.699219 C 65.699219 72.699219 64.265625 71.804688 63.882812 69.402344 C 63.726562 64.433594 67.214844 67.671875 67.214844 67.671875 C 67.214844 67.671875 66.503906 66.132812 66.652344 64.558594 C 66.722656 61.394531 68.816406 61.328125 71.433594 64.980469 C 72.289062 66.0625 74.421875 69.324219 76.421875 72.21875 C 76.4375 72.242188 76.457031 72.269531 76.472656 72.292969 C 76.527344 72.375 76.582031 72.453125 76.640625 72.535156 C 76.6875 72.601562 76.734375 72.671875 76.78125 72.738281 C 76.84375 72.824219 76.902344 72.910156 76.960938 72.996094 C 77.023438 73.082031 77.082031 73.164062 77.140625 73.246094 C 76.792969 73.277344 76.671875 73.535156 77.027344 74.316406 C 75.964844 73.796875 75.664062 74.621094 76.367188 75.324219 C 74.839844 75.199219 75.359375 76.433594 76.066406 76.824219 C 74.855469 76.824219 75.300781 77.964844 76.042969 78.136719 C 75.015625 78.390625 75.085938 79.394531 76.300781 80.035156 C 75.046875 80.765625 75.84375 81.839844 76.90625 82.003906 C 75.660156 82.613281 76.296875 83.535156 77.46875 83.910156 C 76.632812 84.488281 77.453125 85.761719 78.3125 85.53125 C 77.808594 86.65625 79.804688 87.214844 80.421875 87.445312 C 80.515625 87.480469 80.582031 87.53125 80.59375 87.550781 C 77.574219 88.164062 75.128906 87.988281 73.339844 87.523438 " fill-opacity="1" fill-rule="nonzero"/><path fill="#5b5932" d="M 70.695312 85.394531 C 70.378906 84.070312 71.425781 83.359375 71.425781 83.359375 C 71.425781 83.359375 68.945312 82.09375 68.328125 80.832031 C 67.71875 79.582031 69.257812 79.070312 69.257812 79.070312 C 69.257812 79.070312 66.609375 76.910156 66.390625 75.550781 C 66.175781 74.21875 68.265625 74.546875 68.265625 74.546875 C 68.265625 74.546875 66.414062 72.4375 66.503906 70.84375 C 66.589844 69.300781 68.84375 70.023438 68.84375 70.023438 C 68.84375 70.023438 67.902344 66.316406 69.191406 65.230469 C 69.949219 64.566406 70.832031 64.890625 71.433594 64.976562 C 68.816406 61.324219 66.722656 61.394531 66.652344 64.558594 C 66.503906 66.132812 67.21875 67.671875 67.21875 67.671875 C 67.21875 67.671875 63.726562 64.433594 63.882812 69.402344 C 64.265625 71.804688 65.699219 72.695312 65.699219 72.695312 C 65.699219 72.695312 63.75 73.097656 63.871094 74.441406 C 64.472656 77.035156 66.855469 78.171875 66.855469 78.171875 C 66.855469 78.171875 64.746094 79.066406 66.109375 81.195312 C 66.882812 82.730469 69.648438 83.085938 69.648438 83.085938 C 69.648438 83.085938 67.324219 84.335938 69.714844 86.378906 C 70.09375 87.011719 71.820312 87.46875 73.359375 87.535156 C 72.34375 86.882812 70.902344 86.277344 70.695312 85.394531 " fill-opacity="1" fill-rule="nonzero"/><path fill="#f9db5a" d="M 83.261719 86.84375 C 82.46875 87.101562 81.488281 87.378906 80.609375 87.550781 C 80.050781 87.65625 77.457031 87.265625 77.933594 85.996094 C 77.066406 86.246094 75.496094 85.179688 76.804688 84.085938 C 75.496094 83.960938 74.578125 82.761719 75.851562 82.101562 C 74.765625 81.925781 73.855469 80.726562 75.140625 79.9375 C 73.933594 79.621094 73.765625 78.078125 74.816406 77.800781 C 74.058594 77.613281 73.664062 76.183594 74.898438 76.195312 C 74.179688 75.773438 73.742188 74.492188 75.292969 74.632812 C 74.578125 73.882812 74.804688 72.839844 75.882812 73.398438 C 75.402344 72.296875 75.796875 72.007812 76.421875 72.21875 C 76.4375 72.242188 76.457031 72.269531 76.472656 72.292969 C 76.527344 72.375 76.582031 72.453125 76.640625 72.535156 C 76.6875 72.601562 76.734375 72.671875 76.78125 72.738281 C 76.84375 72.824219 76.902344 72.910156 76.960938 72.996094 C 77.023438 73.082031 77.082031 73.164062 77.140625 73.246094 C 78.1875 74.734375 79.152344 76.023438 79.8125 76.722656 C 81.960938 78.992188 88.332031 82.640625 88.332031 82.640625 C 90.910156 83.734375 85.773438 86.019531 83.261719 86.84375 " fill-opacity="1" fill-rule="nonzero"/><path fill="#fffaa6" d="M 80.59375 87.550781 C 80.523438 87.566406 80.433594 87.578125 80.175781 87.558594 C 79.261719 87.488281 77.484375 87.097656 77.933594 85.996094 C 77.066406 86.246094 75.496094 85.179688 76.804688 84.085938 C 75.496094 83.960938 74.578125 82.761719 75.851562 82.101562 C 74.765625 81.925781 73.855469 80.726562 75.140625 79.9375 C 73.933594 79.621094 73.765625 78.078125 74.816406 77.800781 C 74.058594 77.613281 73.664062 76.183594 74.898438 76.195312 C 74.179688 75.773438 73.742188 74.492188 75.292969 74.632812 C 74.578125 73.882812 74.804688 72.839844 75.882812 73.398438 C 75.402344 72.296875 75.796875 72.007812 76.421875 72.21875 C 76.4375 72.242188 76.457031 72.269531 76.472656 72.292969 C 76.527344 72.375 76.582031 72.453125 76.640625 72.535156 C 76.6875 72.601562 76.734375 72.671875 76.78125 72.738281 C 76.84375 72.824219 76.902344 72.910156 76.960938 72.996094 C 77.023438 73.082031 77.082031 73.164062 77.140625 73.246094 C 76.792969 73.277344 76.671875 73.535156 77.027344 74.316406 C 75.964844 73.796875 75.664062 74.621094 76.367188 75.324219 C 74.839844 75.199219 75.359375 76.433594 76.066406 76.824219 C 74.855469 76.824219 75.300781 77.964844 76.042969 78.136719 C 75.015625 78.390625 75.085938 79.394531 76.300781 80.035156 C 75.046875 80.765625 75.84375 81.839844 76.90625 82.003906 C 75.660156 82.613281 76.296875 83.535156 77.46875 83.910156 C 76.632812 84.488281 77.453125 85.761719 78.3125 85.53125 C 77.808594 86.65625 79.804688 87.214844 80.421875 87.445312 C 80.515625 87.480469 80.582031 87.53125 80.59375 87.550781 " fill-opacity="1" fill-rule="nonzero"/><path fill="#a09c4a" d="M 103.925781 18.128906 C 105.003906 19.703125 104.804688 21.675781 104.804688 21.675781 C 104.804688 21.675781 106.097656 19.335938 107.351562 21.652344 C 108.519531 23.8125 107.59375 26.136719 107.59375 26.136719 C 107.59375 26.136719 109.503906 24.199219 110.488281 26.546875 C 111.078125 27.960938 110.277344 30.707031 110.277344 30.707031 C 110.277344 30.707031 112.375 29.65625 112.703125 32.617188 C 112.894531 34.351562 112.039062 35.808594 112.039062 35.808594 C 112.039062 35.808594 114.65625 35.277344 113.441406 39.175781 C 113.003906 40.582031 111.804688 41.910156 110.921875 42.664062 C 110.96875 42.59375 111.019531 42.515625 111.066406 42.433594 C 110.976562 42.578125 110.921875 42.664062 110.921875 42.664062 C 104.148438 45.796875 96.851562 39.878906 99.28125 35.753906 C 101.761719 31.546875 101.425781 22.035156 100.855469 18.984375 C 100.167969 15.511719 102.664062 16.289062 103.925781 18.128906 " fill-opacity="1" fill-rule="nonzero"/><path fill="#4a492b" d="M 103.925781 18.128906 C 105.003906 19.703125 104.804688 21.675781 104.804688 21.675781 C 104.804688 21.675781 106.097656 19.335938 107.351562 21.652344 C 108.519531 23.8125 107.59375 26.136719 107.59375 26.136719 C 107.59375 26.136719 109.503906 24.199219 110.488281 26.546875 C 111.078125 27.960938 110.277344 30.707031 110.277344 30.707031 C 110.277344 30.707031 112.375 29.65625 112.703125 32.617188 C 112.894531 34.351562 112.039062 35.808594 112.039062 35.808594 C 112.039062 35.808594 114.65625 35.277344 113.441406 39.175781 C 113.003906 40.582031 111.804688 41.910156 110.921875 42.664062 C 111.476562 41.804688 112.179688 40.351562 112.253906 39.363281 C 112.363281 37.90625 110.617188 37.613281 110.617188 37.613281 C 110.617188 37.613281 111.238281 35.316406 111.042969 33.609375 C 110.898438 32.320312 109.339844 32.199219 109.339844 32.199219 C 109.339844 32.199219 109.3125 28.898438 108.851562 28.140625 C 108.335938 27.292969 106.546875 27.902344 106.546875 27.902344 C 106.546875 27.902344 106.539062 24.296875 105.769531 23.808594 C 105 23.320312 104.023438 24.542969 104.023438 24.542969 C 104.023438 24.542969 103.847656 20.992188 102.761719 19.839844 C 102.113281 19.152344 101.230469 19.039062 100.855469 18.984375 C 100.167969 15.511719 102.664062 16.289062 103.925781 18.128906 " fill-opacity="1" fill-rule="nonzero"/><path fill="#909437" d="M 101.003906 29.546875 C 101.785156 28.597656 102.402344 28.949219 102.550781 29.910156 C 103.203125 28.917969 104.058594 29.453125 103.855469 30.386719 C 105.152344 29.433594 105.484375 30.832031 105.09375 31.542969 C 106.175781 30.84375 106.785156 31.765625 106.359375 32.683594 C 107.449219 32.277344 107.984375 33.71875 107.117188 34.675781 C 108.722656 34.496094 108.496094 35.949219 107.648438 36.765625 C 108.699219 36.582031 108.886719 38.183594 107.800781 39.136719 C 109.644531 39.140625 108.804688 41.207031 107.855469 41.601562 C 108.117188 41.746094 108.425781 42.578125 108.214844 43.457031 C 108.03125 43.484375 107.84375 43.503906 107.660156 43.515625 C 102.054688 43.941406 97.242188 39.21875 99.28125 35.753906 C 100.054688 34.4375 100.554688 32.605469 100.859375 30.613281 C 100.914062 30.261719 100.960938 29.90625 101.003906 29.546875 " fill-opacity="1" fill-rule="nonzero"/><path fill="#f9e15a" d="M 102.550781 29.910156 C 103.203125 28.917969 104.058594 29.453125 103.855469 30.386719 C 105.152344 29.433594 105.484375 30.832031 105.09375 31.542969 C 106.175781 30.84375 106.785156 31.765625 106.359375 32.683594 C 107.449219 32.277344 107.984375 33.71875 107.117188 34.675781 C 108.722656 34.496094 108.496094 35.949219 107.648438 36.765625 C 108.699219 36.582031 108.886719 38.183594 107.800781 39.136719 C 109.644531 39.140625 108.804688 41.207031 107.855469 41.601562 C 108.117188 41.746094 108.425781 42.578125 108.214844 43.457031 C 108.03125 43.484375 107.84375 43.503906 107.660156 43.515625 C 107.875 42.742188 107.902344 41.871094 107.492188 41.65625 C 107.472656 41.644531 107.453125 41.632812 107.433594 41.621094 C 108.203125 41.285156 108.835938 39.917969 108.03125 39.472656 C 107.867188 39.371094 107.636719 39.308594 107.328125 39.308594 C 108.136719 38.597656 108.386719 37.609375 107.808594 37.316406 C 107.636719 37.214844 107.382812 37.175781 107.035156 37.238281 C 107.65625 36.628906 107.855469 35.699219 107.234375 35.382812 C 107.046875 35.273438 106.777344 35.222656 106.410156 35.265625 C 106.992188 34.613281 106.820312 33.855469 106.300781 33.601562 C 106.085938 33.484375 105.8125 33.449219 105.503906 33.550781 C 105.828125 33.164062 105.742188 32.546875 105.34375 32.363281 C 105.144531 32.253906 104.867188 32.257812 104.511719 32.464844 C 104.726562 32.042969 104.683594 31.503906 104.339844 31.34375 C 104.125 31.21875 103.769531 31.257812 103.261719 31.617188 C 103.359375 31.164062 103.207031 30.796875 102.945312 30.679688 C 102.703125 30.539062 102.351562 30.628906 102.019531 31.09375 C 101.867188 30.273438 101.449219 30.035156 100.859375 30.613281 C 100.914062 30.261719 100.960938 29.90625 101.003906 29.546875 C 101.785156 28.597656 102.402344 28.949219 102.550781 29.910156 " fill-opacity="1" fill-rule="nonzero"/><g clip-path="url(#149e3d1499)"><path fill="#bf845a" d="M 110.378906 54.859375 C 109.957031 54.238281 109.871094 53.742188 109.796875 53.25 C 109.761719 53.015625 109.742188 52.777344 109.570312 52.515625 C 109.351562 52.1875 108.921875 51.976562 108.410156 51.746094 C 108.03125 51.578125 108.265625 51.203125 108.636719 51.328125 C 110.746094 52.03125 110.335938 52.921875 110.492188 53.597656 C 110.5625 53.902344 110.789062 54.410156 111.148438 54.535156 C 114.398438 54.496094 113.101562 55.824219 111.792969 55.710938 C 111.355469 55.675781 110.675781 55.304688 110.378906 54.859375 " fill-opacity="1" fill-rule="nonzero"/></g><path fill="#f9ca35" d="M 86.75 37.484375 C 86.726562 37.636719 86.707031 37.792969 86.695312 37.949219 C 86.617188 39.085938 86.910156 40.425781 87.507812 41.832031 C 89.355469 46.183594 94.109375 51.191406 99.78125 52.898438 C 106.589844 54.945312 112.714844 52.121094 116.6875 49.601562 C 121.152344 48.019531 131 51.875 134.371094 52.183594 C 134.582031 52.203125 134.746094 52.207031 134.871094 52.195312 C 138.464844 52.441406 131.421875 48.929688 131.515625 47.421875 C 131.59375 46.125 131.371094 45.214844 130.546875 45.335938 C 129.148438 45.539062 120.847656 47.023438 117.847656 46.695312 C 117.707031 46.679688 117.574219 46.660156 117.460938 46.636719 C 114.574219 45.359375 111.136719 43.292969 108.558594 41.945312 C 106.328125 40.78125 101.140625 38.035156 99.695312 36.777344 C 98.652344 35.871094 97.375 35.222656 96.019531 34.851562 C 95.546875 34.722656 95.0625 34.628906 94.574219 34.566406 C 91.847656 34.21875 89.019531 34.949219 87.238281 36.886719 C 87.066406 37.078125 86.902344 37.277344 86.75 37.484375 " fill-opacity="1" fill-rule="nonzero"/><path fill="#e2ae2b" d="M 134.867188 52.195312 C 134.746094 52.207031 134.582031 52.203125 134.371094 52.183594 C 131 51.875 121.152344 48.019531 116.6875 49.601562 C 112.714844 52.121094 106.589844 54.945312 99.78125 52.898438 C 92.722656 50.777344 87.082031 43.53125 86.703125 38.808594 C 87.09375 40.171875 89.84375 48.183594 100.988281 50.835938 C 107.316406 52.34375 115.390625 50.242188 116.511719 48.808594 C 120.066406 47.175781 132.164062 50.890625 135.839844 51.640625 C 136.191406 52.019531 135.890625 52.265625 134.867188 52.195312 " fill-opacity="1" fill-rule="nonzero"/><path fill="#c6af3c" d="M 97.566406 42.3125 C 97.246094 42.734375 97.648438 43.261719 97.648438 43.261719 C 99.183594 44.472656 102.21875 46.125 108.042969 47.875 C 111.691406 48.972656 114.167969 49.09375 116.632812 48.742188 C 117.15625 48.496094 119.925781 48.257812 117.847656 46.695312 C 117.707031 46.679688 117.574219 46.660156 117.460938 46.636719 C 114.574219 45.359375 111.136719 43.292969 108.558594 41.945312 C 106.328125 40.78125 101.140625 38.035156 99.695312 36.777344 C 98.652344 35.871094 97.375 35.222656 96.019531 34.851562 C 100.34375 38.140625 98.800781 40.6875 97.566406 42.3125 " fill-opacity="1" fill-rule="nonzero"/><path fill="#fbde66" d="M 96.386719 41.890625 C 93.027344 45.632812 87.542969 41.703125 87.5625 37.566406 C 87.5625 37.371094 87.566406 37.148438 87.59375 36.949219 C 92.835938 33.171875 100.027344 37.832031 96.386719 41.890625 " fill-opacity="1" fill-rule="nonzero"/><path fill="#c1a035" d="M 94.484375 40.921875 C 91.898438 43.804688 87.722656 40.78125 87.5625 37.566406 C 87.550781 37.324219 87.503906 37.148438 87.539062 36.902344 C 92.210938 34.480469 97.363281 37.710938 94.484375 40.921875 " fill-opacity="1" fill-rule="nonzero"/><g clip-path="url(#2ffc22679f)"><path fill="#d49c7e" d="M 84.703125 36.074219 C 84.703125 36.074219 84.707031 36.078125 84.707031 36.078125 L 86.695312 38.210938 C 86.714844 38.238281 87.558594 37.570312 87.5625 37.566406 C 87.5625 37.566406 87.832031 36.382812 87.757812 36.378906 L 84.761719 35.984375 C 84.738281 35.980469 84.722656 35.988281 84.710938 36.007812 C 84.695312 36.023438 84.691406 36.050781 84.703125 36.074219 " fill-opacity="1" fill-rule="nonzero"/></g><g clip-path="url(#11e5fa1c86)"><path fill="#c48768" d="M 84.703125 36.074219 C 84.703125 36.074219 84.707031 36.078125 84.707031 36.078125 L 86.695312 38.210938 C 86.746094 38.289062 87.558594 37.570312 87.5625 37.566406 C 87.5625 37.566406 85.292969 36.441406 84.710938 36.007812 C 84.695312 36.023438 84.691406 36.050781 84.703125 36.074219 " fill-opacity="1" fill-rule="nonzero"/></g><path fill="#f4f2f2" d="M 92.699219 38.667969 C 92.578125 39.859375 91.148438 40.289062 90.382812 39.363281 C 90.183594 39.125 90.085938 38.808594 90.121094 38.5 C 90.246094 37.3125 91.671875 36.882812 92.4375 37.804688 C 92.636719 38.042969 92.734375 38.359375 92.699219 38.667969 " fill-opacity="1" fill-rule="nonzero"/><path fill="#0c0202" d="M 92.480469 38.644531 C 92.371094 39.703125 91.097656 40.085938 90.417969 39.261719 C 90.242188 39.050781 90.15625 38.769531 90.1875 38.496094 C 90.296875 37.4375 91.5625 37.058594 92.246094 37.875 C 92.421875 38.089844 92.507812 38.367188 92.480469 38.644531 " fill-opacity="1" fill-rule="nonzero"/><path fill="#fff8f8" d="M 92.058594 38.40625 C 92.074219 38.757812 91.648438 38.882812 91.46875 38.582031 C 91.449219 38.554688 91.441406 38.519531 91.4375 38.484375 C 91.421875 38.136719 91.847656 38.007812 92.027344 38.308594 C 92.046875 38.335938 92.058594 38.371094 92.058594 38.40625 " fill-opacity="1" fill-rule="nonzero"/><path fill="#faf5cf" d="M 102.714844 53.5 C 108.332031 54.128906 113.296875 51.753906 116.6875 49.601562 C 121.152344 48.019531 131 51.875 134.371094 52.183594 C 134.582031 52.203125 134.746094 52.207031 134.871094 52.195312 C 138.464844 52.441406 131.425781 48.929688 131.515625 47.421875 C 131.59375 46.125 131.371094 45.214844 130.546875 45.335938 C 129.082031 45.546875 120.042969 47.167969 117.460938 46.636719 C 115.578125 45.804688 112.367188 44.019531 110.40625 42.933594 C 109.71875 45.082031 107.746094 47.046875 107.160156 47.632812 C 105.847656 48.949219 104.1875 50.101562 102.191406 51.078125 C 100.933594 51.695312 99.863281 52.050781 98.519531 52.386719 C 100.425781 53.191406 101.175781 53.207031 102.714844 53.5 " fill-opacity="1" fill-rule="nonzero"/><path fill="#f7e3be" d="M 98.351562 52.390625 C 98.820312 52.582031 99.296875 52.75 99.78125 52.898438 C 106.589844 54.945312 112.714844 52.125 116.6875 49.601562 C 121.152344 48.019531 131 51.875 134.371094 52.183594 C 134.582031 52.203125 134.746094 52.207031 134.871094 52.195312 C 135.890625 52.265625 136.191406 52.019531 135.839844 51.640625 C 132.164062 50.890625 120.066406 47.175781 116.511719 48.808594 C 115.460938 50.152344 108.296875 52.082031 102.191406 51.078125 C 100.929688 51.726562 99.609375 52.179688 98.351562 52.390625 " fill-opacity="1" fill-rule="nonzero"/><path fill="#eac632" d="M 107.179688 47.597656 C 110.742188 48.808594 114.332031 49.265625 116.617188 48.785156 C 118.144531 48.300781 119.34375 47.402344 117.460938 46.636719 C 117.457031 46.636719 117.460938 46.636719 117.460938 46.636719 C 115.582031 45.800781 112.363281 44.023438 110.40625 42.933594 C 110.171875 43.96875 108.578125 46.296875 107.179688 47.597656 " fill-opacity="1" fill-rule="nonzero"/><path fill="#929635" d="M 116.5 48.804688 C 116.5 48.804688 119.621094 47.511719 117.460938 46.636719 C 120.042969 47.167969 129.082031 45.546875 130.546875 45.335938 C 131.371094 45.214844 131.59375 46.125 131.515625 47.421875 C 131.445312 48.546875 135.375 50.714844 135.839844 51.640625 C 135.996094 51.953125 135.699219 52.125 134.785156 52.0625 C 134.753906 52.066406 134.320312 52.027344 134.125 52 C 130.761719 51.570312 123.0625 47.742188 116.5 48.804688 " fill-opacity="1" fill-rule="nonzero"/><path fill="#bdbd33" d="M 116.5 48.804688 C 116.5 48.804688 119.621094 47.511719 117.460938 46.636719 C 118.5 46.851562 120.585938 46.714844 122.800781 46.464844 C 124.449219 46.277344 125.75 47.042969 125.53125 47.753906 C 125.3125 48.464844 123.574219 49.128906 123.242188 49.066406 C 121.003906 48.640625 118.691406 48.449219 116.5 48.804688 " fill-opacity="1" fill-rule="nonzero"/><path fill="#3a3121" d="M 131.515625 47.421875 C 131.589844 46.195312 131.449219 45.265625 130.675781 45.320312 C 131.757812 45.964844 128.328125 47.113281 128.398438 47.78125 C 128.46875 48.449219 135.414062 51.683594 135.230469 52.078125 C 135.835938 52.082031 136.019531 51.925781 135.839844 51.640625 C 135.253906 50.703125 131.449219 48.527344 131.515625 47.421875 " fill-opacity="1" fill-rule="nonzero"/><path fill="#bf845a" d="M 113.9375 54.453125 C 113.222656 53.9375 112.921875 53.191406 112.855469 52.757812 C 112.820312 52.554688 112.8125 52.339844 112.617188 52.109375 C 112.375 51.816406 111.882812 51.625 111.300781 51.417969 C 110.867188 51.265625 111.152344 50.929688 111.578125 51.054688 C 114.042969 51.769531 113.492188 52.476562 113.648438 53.074219 C 113.71875 53.34375 113.949219 53.621094 114.378906 53.90625 C 117.902344 53.453125 117.375 54.902344 115.671875 54.988281 C 115.238281 55.011719 114.230469 54.660156 113.9375 54.453125 " fill-opacity="1" fill-rule="nonzero"/><path fill="#aaa459" d="M 113.222656 46.976562 C 113.214844 46.980469 113.207031 46.984375 113.203125 46.988281 C 114.742188 46.921875 116.46875 46.464844 116.847656 45.832031 C 119.238281 43.789062 116.914062 42.539062 116.914062 42.539062 C 116.914062 42.539062 119.679688 42.183594 120.449219 40.648438 C 121.816406 38.523438 119.707031 37.625 119.707031 37.625 C 119.707031 37.625 122.089844 36.488281 122.691406 33.894531 C 122.8125 32.546875 120.859375 32.152344 120.859375 32.152344 C 120.859375 32.152344 122.296875 31.257812 122.679688 28.855469 C 122.835938 23.886719 119.34375 27.125 119.34375 27.125 C 119.34375 27.125 120.058594 25.585938 119.910156 24.011719 C 119.839844 20.847656 117.746094 20.78125 115.128906 24.433594 C 114.269531 25.515625 112.140625 28.777344 110.140625 31.671875 C 110.125 31.695312 110.105469 31.722656 110.089844 31.746094 C 110.035156 31.828125 109.980469 31.90625 109.921875 31.988281 C 109.875 32.054688 109.828125 32.125 109.78125 32.191406 C 109.71875 32.277344 109.660156 32.363281 109.601562 32.449219 C 109.539062 32.535156 109.480469 32.617188 109.421875 32.699219 C 109.769531 32.730469 109.886719 32.988281 109.535156 33.769531 C 110.59375 33.25 110.898438 34.074219 110.195312 34.777344 C 111.722656 34.652344 111.199219 35.886719 110.492188 36.277344 C 111.707031 36.277344 111.261719 37.417969 110.519531 37.589844 C 111.546875 37.847656 111.476562 38.847656 110.261719 39.488281 C 111.515625 40.21875 110.71875 41.292969 109.65625 41.457031 C 110.902344 42.070312 110.265625 42.988281 109.09375 43.363281 C 109.929688 43.941406 109.109375 45.214844 108.25 44.984375 C 108.75 46.109375 106.757812 46.671875 106.140625 46.898438 C 106.042969 46.933594 105.980469 46.984375 105.96875 47.003906 C 108.988281 47.617188 111.433594 47.441406 113.222656 46.976562 " fill-opacity="1" fill-rule="nonzero"/><path fill="#5b5932" d="M 115.867188 44.847656 C 116.183594 43.523438 115.136719 42.8125 115.136719 42.8125 C 115.136719 42.8125 117.617188 41.546875 118.234375 40.285156 C 118.84375 39.035156 117.304688 38.523438 117.304688 38.523438 C 117.304688 38.523438 119.953125 36.363281 120.171875 35.003906 C 120.386719 33.671875 118.296875 34 118.296875 34 C 118.296875 34 120.148438 31.890625 120.058594 30.296875 C 119.972656 28.753906 117.71875 29.476562 117.71875 29.476562 C 117.71875 29.476562 118.660156 25.769531 117.371094 24.683594 C 116.613281 24.019531 115.730469 24.34375 115.128906 24.429688 C 117.746094 20.78125 119.839844 20.847656 119.910156 24.011719 C 120.058594 25.585938 119.34375 27.125 119.34375 27.125 C 119.34375 27.125 122.835938 23.886719 122.679688 28.855469 C 122.296875 31.257812 120.863281 32.148438 120.863281 32.148438 C 120.863281 32.148438 122.808594 32.550781 122.691406 33.894531 C 122.089844 36.488281 119.707031 37.625 119.707031 37.625 C 119.707031 37.625 121.816406 38.519531 120.453125 40.648438 C 119.679688 42.183594 116.914062 42.539062 116.914062 42.539062 C 116.914062 42.539062 119.238281 43.789062 116.847656 45.832031 C 116.46875 46.464844 114.742188 46.921875 113.203125 46.988281 C 114.21875 46.335938 115.65625 45.730469 115.867188 44.847656 " fill-opacity="1" fill-rule="nonzero"/><path fill="#f9db5a" d="M 103.300781 46.296875 C 104.09375 46.554688 105.074219 46.832031 105.953125 47.003906 C 106.507812 47.109375 109.105469 46.71875 108.628906 45.449219 C 109.496094 45.699219 111.066406 44.632812 109.757812 43.539062 C 111.066406 43.414062 111.984375 42.214844 110.710938 41.554688 C 111.796875 41.378906 112.707031 40.179688 111.421875 39.390625 C 112.628906 39.074219 112.796875 37.53125 111.746094 37.253906 C 112.503906 37.066406 112.898438 35.640625 111.664062 35.648438 C 112.382812 35.226562 112.820312 33.945312 111.265625 34.085938 C 111.984375 33.335938 111.757812 32.292969 110.679688 32.851562 C 111.160156 31.75 110.765625 31.460938 110.140625 31.671875 C 110.125 31.695312 110.105469 31.722656 110.089844 31.746094 C 110.035156 31.828125 109.976562 31.90625 109.921875 31.988281 C 109.875 32.054688 109.828125 32.125 109.78125 32.191406 C 109.71875 32.277344 109.660156 32.363281 109.601562 32.449219 C 109.539062 32.535156 109.480469 32.617188 109.421875 32.699219 C 108.375 34.1875 107.410156 35.476562 106.75 36.175781 C 104.601562 38.445312 98.230469 42.09375 98.230469 42.09375 C 95.652344 43.1875 100.789062 45.472656 103.300781 46.296875 " fill-opacity="1" fill-rule="nonzero"/><path fill="#fffaa6" d="M 105.96875 47.003906 C 106.039062 47.019531 106.128906 47.03125 106.386719 47.011719 C 107.300781 46.941406 109.078125 46.550781 108.628906 45.449219 C 109.496094 45.699219 111.066406 44.632812 109.757812 43.539062 C 111.066406 43.414062 111.984375 42.214844 110.710938 41.554688 C 111.796875 41.378906 112.707031 40.179688 111.421875 39.390625 C 112.628906 39.074219 112.796875 37.53125 111.746094 37.253906 C 112.503906 37.066406 112.898438 35.640625 111.664062 35.648438 C 112.382812 35.226562 112.820312 33.945312 111.265625 34.085938 C 111.984375 33.335938 111.757812 32.292969 110.679688 32.851562 C 111.160156 31.75 110.765625 31.460938 110.140625 31.671875 C 110.125 31.695312 110.105469 31.722656 110.089844 31.746094 C 110.035156 31.828125 109.980469 31.90625 109.921875 31.988281 C 109.875 32.054688 109.828125 32.125 109.78125 32.191406 C 109.71875 32.277344 109.660156 32.363281 109.601562 32.449219 C 109.539062 32.535156 109.480469 32.617188 109.421875 32.699219 C 109.769531 32.730469 109.886719 32.988281 109.535156 33.769531 C 110.59375 33.25 110.898438 34.074219 110.195312 34.777344 C 111.722656 34.652344 111.199219 35.886719 110.492188 36.277344 C 111.707031 36.277344 111.261719 37.417969 110.519531 37.589844 C 111.546875 37.847656 111.476562 38.847656 110.261719 39.488281 C 111.515625 40.21875 110.71875 41.292969 109.65625 41.457031 C 110.902344 42.070312 110.265625 42.988281 109.09375 43.363281 C 109.929688 43.941406 109.109375 45.214844 108.25 44.984375 C 108.75 46.109375 106.757812 46.671875 106.140625 46.898438 C 106.042969 46.933594 105.980469 46.984375 105.96875 47.003906 " fill-opacity="1" fill-rule="nonzero"/></svg>