<svg xmlns="http://www.w3.org/2000/svg" xmlns:xlink="http://www.w3.org/1999/xlink" width="200" zoomAndPan="magnify" viewBox="0 0 150 112.499997" height="150" preserveAspectRatio="xMidYMid meet" version="1.0"><defs><clipPath id="1b4d6ecac4"><path d="M 39 11.199219 L 112 11.199219 L 112 99 L 39 99 Z M 39 11.199219 " clip-rule="nonzero"/></clipPath><clipPath id="7ba896cc87"><path d="M 50.070312 24.878906 L 112.367188 24.878906 L 112.367188 91.523438 L 50.070312 91.523438 Z M 50.070312 24.878906 " clip-rule="nonzero"/></clipPath></defs><g clip-path="url(#1b4d6ecac4)"><path fill="#f8e505" d="M 109.214844 89.3125 C 106.90625 92.085938 101.648438 93.933594 98.464844 95.234375 C 84.808594 100.804688 69.789062 99.609375 56.214844 94.351562 C 49.023438 91.5625 44.03125 89.179688 41.503906 82.265625 C 37.839844 72.246094 40.839844 61.121094 45.441406 51.925781 C 46.367188 50.070312 47.601562 47.851562 48.589844 46.289062 C 51.738281 41.289062 53.683594 40.617188 57.617188 45.394531 C 59.527344 47.710938 67.441406 57.914062 71.714844 55.234375 C 74.542969 53.457031 64.378906 44.957031 63.300781 42.910156 C 59.773438 36.179688 57.902344 28.710938 60.707031 25.757812 C 65.828125 20.363281 68.300781 17.082031 76.429688 14.03125 C 75.761719 13.496094 74.125 12.320312 74.675781 11.199219 C 87.289062 11.882812 95.101562 12.4375 100.53125 25.238281 C 100.53125 25.238281 102.699219 31.699219 102.253906 33.933594 C 101.808594 36.167969 97.84375 44.941406 97.84375 44.941406 C 92.9375 56.621094 109.992188 62.179688 111.429688 74.03125 C 111.527344 78.257812 112.199219 85.734375 109.214844 89.3125 " fill-opacity="1" fill-rule="nonzero"/></g><path fill="#ffffff" d="M 90.171875 24.359375 C 89.828125 24.730469 89.109375 24.625 88.574219 24.125 C 88.035156 23.625 87.878906 22.921875 88.222656 22.550781 C 88.570312 22.179688 89.285156 22.285156 89.824219 22.785156 C 90.363281 23.285156 90.519531 23.988281 90.171875 24.359375 " fill-opacity="1" fill-rule="nonzero"/><g clip-path="url(#7ba896cc87)"><path fill="#ea7e16" d="M 67.140625 89.359375 C 65.4375 88.757812 63.546875 87.84375 62.355469 86.441406 C 61.867188 85.867188 61.445312 85.265625 61.273438 84.515625 C 61.183594 84.125 61.5625 82.398438 61.445312 82.242188 C 60.898438 81.492188 57.574219 81.238281 56.53125 80.648438 C 54.886719 79.71875 53.519531 78.234375 53.171875 76.328125 C 52.828125 74.457031 53.472656 72.660156 54.863281 71.359375 C 56.691406 69.644531 56.789062 70.476562 55.5625 68.132812 C 54.714844 66.519531 53.933594 64.675781 53.796875 62.839844 C 53.742188 62.078125 54.035156 58.503906 54.996094 58.445312 C 52.078125 58.621094 50.714844 60.878906 50.796875 63.539062 C 50.875 66 53.222656 68.234375 53.300781 70.367188 C 53.355469 71.777344 53.269531 71.03125 51.886719 72.328125 C 51.160156 73.011719 50.574219 73.867188 50.289062 74.828125 C 49.453125 77.621094 51.167969 80.269531 53.554688 81.621094 C 54.726562 82.28125 56.292969 82.257812 57.386719 82.890625 C 59.089844 83.878906 57.855469 82.929688 58.1875 85.0625 C 58.535156 87.289062 60.667969 88.71875 62.539062 89.644531 C 68.390625 92.546875 75.566406 91.683594 81.453125 89.332031 C 76.730469 90.648438 71.839844 91.015625 67.140625 89.359375 Z M 112.292969 29.125 C 112.042969 30.855469 111.378906 32.667969 110.09375 33.929688 C 109.828125 34.1875 107.652344 35.476562 107.917969 35.574219 C 112.410156 37.246094 109.855469 39.246094 106.550781 40.324219 C 104.113281 41.121094 101.421875 41.5625 99.386719 43.25 C 97.511719 44.808594 97.832031 45.066406 95.125 44.4375 C 92.96875 43.941406 90.839844 43.195312 88.972656 41.984375 C 86.140625 40.148438 82.542969 35.890625 84.367188 32.207031 C 86.023438 28.859375 91.421875 32.425781 94.160156 29.613281 C 95.496094 28.238281 95.996094 25.679688 98.089844 25.050781 C 99.539062 24.617188 101.625 25.527344 103.132812 25.628906 C 106.1875 25.839844 113.175781 23.054688 112.292969 29.125 " fill-opacity="1" fill-rule="nonzero"/></g><path fill="#110f0d" d="M 85.457031 75.054688 C 85.40625 75.292969 85.195312 75.457031 84.960938 75.457031 C 84.925781 75.457031 84.894531 75.457031 84.859375 75.449219 C 84.816406 75.441406 80.578125 74.601562 72.375 74.488281 C 63.992188 74.371094 56.832031 70.730469 56.53125 70.578125 C 56.28125 70.449219 56.183594 70.144531 56.3125 69.894531 C 56.441406 69.648438 56.746094 69.550781 56.996094 69.679688 C 57.066406 69.714844 64.253906 73.363281 72.390625 73.476562 C 80.699219 73.59375 84.886719 74.421875 85.0625 74.457031 C 85.335938 74.515625 85.511719 74.78125 85.457031 75.054688 Z M 75.804688 83.070312 C 75.851562 83.34375 75.667969 83.609375 75.394531 83.65625 C 73.789062 83.945312 72.222656 84.058594 70.75 84.058594 C 65.550781 84.058594 61.550781 82.652344 61.339844 82.574219 C 61.074219 82.480469 60.9375 82.191406 61.03125 81.929688 C 61.125 81.667969 61.417969 81.527344 61.679688 81.625 C 61.746094 81.648438 68.21875 83.917969 75.214844 82.664062 C 75.488281 82.613281 75.753906 82.796875 75.804688 83.070312 Z M 93.238281 73.152344 C 94.195312 76.347656 93.703125 80.167969 91.980469 82.890625 C 91.886719 83.042969 91.71875 83.125 91.550781 83.125 C 91.460938 83.125 91.367188 83.101562 91.28125 83.046875 C 91.042969 82.898438 90.972656 82.585938 91.125 82.347656 C 92.695312 79.867188 93.140625 76.367188 92.265625 73.441406 C 91.773438 71.792969 90.636719 69.582031 88.035156 68.402344 C 84.003906 66.570312 81.363281 65.921875 77.714844 65.019531 C 76.375 64.6875 74.859375 64.316406 73.09375 63.839844 C 66.535156 62.066406 60.386719 58.339844 60.328125 58.300781 C 60.085938 58.15625 60.011719 57.84375 60.160156 57.605469 C 60.304688 57.367188 60.617188 57.292969 60.855469 57.4375 C 60.914062 57.476562 66.945312 61.128906 73.359375 62.863281 C 75.113281 63.335938 76.625 63.707031 77.957031 64.039062 C 81.660156 64.953125 84.339844 65.613281 88.457031 67.480469 C 90.789062 68.542969 92.441406 70.503906 93.238281 73.152344 Z M 109.230469 32.980469 C 109.101562 33.0625 107.523438 34.042969 105.355469 35.066406 L 107.6875 34.988281 C 107.960938 34.96875 108.203125 35.195312 108.210938 35.476562 C 108.21875 35.753906 108 35.988281 107.722656 35.996094 L 102.78125 36.167969 C 101.167969 36.78125 99.4375 37.277344 97.828125 37.425781 C 97.292969 37.472656 96.769531 37.496094 96.261719 37.496094 C 92.175781 37.496094 88.976562 36.066406 87.699219 35.390625 L 87.652344 35.363281 C 87.410156 35.253906 87.292969 34.976562 87.390625 34.726562 C 87.488281 34.464844 87.78125 34.332031 88.042969 34.433594 C 88.054688 34.4375 88.101562 34.457031 88.175781 34.496094 C 89.53125 35.210938 93.179688 36.832031 97.738281 36.417969 C 102.480469 35.984375 108.628906 32.164062 108.691406 32.125 C 108.929688 31.976562 109.242188 32.046875 109.390625 32.285156 C 109.539062 32.519531 109.46875 32.832031 109.230469 32.980469 Z M 88.625 22.921875 C 88.828125 22.703125 89.25 22.765625 89.566406 23.058594 C 89.882812 23.355469 89.976562 23.769531 89.773438 23.988281 C 89.570312 24.207031 89.148438 24.144531 88.828125 23.851562 C 88.511719 23.554688 88.421875 23.140625 88.625 22.921875 Z M 87.984375 27 C 91.613281 29.023438 92.484375 24.605469 90.097656 22.570312 C 90.09375 22.574219 89.238281 22.042969 89.09375 22 C 88.839844 21.925781 88.542969 21.882812 88.269531 21.875 C 86.285156 21.621094 85.773438 25.765625 87.984375 27 " fill-opacity="1" fill-rule="nonzero"/></svg>