<svg xmlns="http://www.w3.org/2000/svg" xmlns:xlink="http://www.w3.org/1999/xlink" width="100" zoomAndPan="magnify" viewBox="0 0 75 74.999997" height="100" preserveAspectRatio="xMidYMid meet" version="1.0"><defs><clipPath id="d928f6544c"><path d="M 14.164062 7.5 L 60.664062 7.5 L 60.664062 67.5 L 14.164062 67.5 Z M 14.164062 7.5 " clip-rule="nonzero"/></clipPath><clipPath id="dea75f25c7"><path d="M 14.164062 10 L 56 10 L 56 67.5 L 14.164062 67.5 Z M 14.164062 10 " clip-rule="nonzero"/></clipPath><clipPath id="dfd9d7eb8d"><path d="M 15 7.5 L 60.664062 7.5 L 60.664062 39 L 15 39 Z M 15 7.5 " clip-rule="nonzero"/></clipPath><clipPath id="13a129a6d3"><path d="M 15 7.5 L 60.664062 7.5 L 60.664062 40 L 15 40 Z M 15 7.5 " clip-rule="nonzero"/></clipPath><clipPath id="68a2347296"><path d="M 49 36 L 60.664062 36 L 60.664062 64 L 49 64 Z M 49 36 " clip-rule="nonzero"/></clipPath><clipPath id="d87715b2b0"><path d="M 49 35 L 60.664062 35 L 60.664062 64 L 49 64 Z M 49 35 " clip-rule="nonzero"/></clipPath></defs><g clip-path="url(#d928f6544c)"><path fill="#000000" d="M 55.96875 36.121094 C 55.960938 36.113281 55.960938 36.105469 55.96875 36.097656 C 58.339844 33.28125 59.730469 29.828125 59.976562 26.144531 C 60.644531 16.011719 52.671875 7.707031 42.550781 7.707031 L 21.027344 7.707031 C 20.695312 7.707031 20.386719 7.785156 20.113281 7.921875 L 20.109375 7.921875 C 20 7.976562 19.894531 8.042969 19.796875 8.113281 L 15.542969 10.707031 C 14.859375 11.050781 14.390625 11.753906 14.390625 12.574219 L 14.386719 65.207031 C 14.386719 66.355469 15.316406 67.289062 16.464844 67.289062 L 37.992188 67.289062 C 42.363281 67.289062 46.335938 65.738281 49.382812 63.160156 C 56.003906 60.410156 60.484375 53.769531 59.976562 46.074219 C 59.730469 42.390625 58.339844 38.933594 55.96875 36.121094 Z M 31.191406 22.773438 L 38.105469 22.773438 C 41.039062 22.773438 43.410156 25.183594 43.199219 28.121094 C 43.152344 28.777344 42.976562 29.402344 42.699219 29.964844 L 33.265625 29.964844 C 32.609375 29.964844 32.023438 29.660156 31.644531 29.179688 C 31.363281 28.824219 31.191406 28.375 31.191406 27.882812 Z M 43.199219 50.378906 C 43.152344 51.035156 42.976562 51.660156 42.699219 52.222656 L 33.265625 52.222656 C 32.6875 52.222656 32.167969 51.988281 31.792969 51.609375 C 31.417969 51.230469 31.191406 50.714844 31.191406 50.140625 L 31.191406 45.03125 L 38.105469 45.03125 C 41.039062 45.03125 43.410156 47.441406 43.199219 50.378906 Z M 43.199219 50.378906 " fill-opacity="1" fill-rule="nonzero"/><path fill="#000000" d="M 37.992188 67.5 L 16.464844 67.5 C 15.855469 67.5 15.28125 67.261719 14.847656 66.828125 C 14.417969 66.394531 14.179688 65.820312 14.179688 65.207031 L 14.183594 12.570312 C 14.183594 11.699219 14.664062 10.917969 15.441406 10.527344 L 19.683594 7.941406 C 19.789062 7.863281 19.902344 7.796875 20.019531 7.738281 C 20.335938 7.578125 20.675781 7.5 21.027344 7.5 L 42.550781 7.5 C 45.082031 7.5 47.519531 8.007812 49.792969 9.003906 C 51.992188 9.972656 53.933594 11.347656 55.566406 13.097656 C 58.867188 16.636719 60.503906 21.273438 60.183594 26.160156 C 59.941406 29.835938 58.574219 33.273438 56.226562 36.109375 C 58.574219 38.941406 59.941406 42.378906 60.183594 46.058594 C 60.429688 49.820312 59.511719 53.457031 57.527344 56.585938 C 55.601562 59.613281 52.824219 61.949219 49.492188 63.339844 C 46.3125 66.023438 42.226562 67.5 37.992188 67.5 Z M 15.65625 10.882812 C 15.652344 10.886719 15.644531 10.890625 15.636719 10.894531 C 14.996094 11.214844 14.597656 11.855469 14.597656 12.574219 L 14.59375 65.207031 C 14.59375 65.707031 14.789062 66.179688 15.140625 66.53125 C 15.496094 66.886719 15.964844 67.082031 16.464844 67.082031 L 37.992188 67.082031 C 42.140625 67.082031 46.140625 65.632812 49.25 63 C 49.269531 62.984375 49.289062 62.972656 49.3125 62.964844 C 56.046875 60.164062 60.25 53.382812 59.769531 46.085938 C 59.527344 42.445312 58.160156 39.042969 55.808594 36.253906 C 55.738281 36.167969 55.738281 36.046875 55.808594 35.960938 C 58.160156 33.171875 59.527344 29.773438 59.769531 26.128906 C 60.082031 21.363281 58.484375 16.835938 55.265625 13.382812 C 51.976562 9.859375 47.460938 7.917969 42.550781 7.917969 L 21.027344 7.917969 C 20.738281 7.917969 20.464844 7.980469 20.203125 8.109375 C 20.105469 8.160156 20.007812 8.21875 19.921875 8.28125 C 19.914062 8.285156 19.910156 8.289062 19.90625 8.292969 Z M 42.699219 52.433594 L 33.265625 52.433594 C 32.652344 52.433594 32.078125 52.191406 31.644531 51.753906 C 31.21875 51.324219 30.980469 50.75 30.980469 50.140625 L 30.984375 45.03125 C 30.984375 44.917969 31.074219 44.824219 31.191406 44.824219 L 38.105469 44.824219 C 39.605469 44.824219 41.039062 45.445312 42.046875 46.527344 C 43.027344 47.585938 43.507812 48.957031 43.40625 50.390625 C 43.359375 51.0625 43.183594 51.710938 42.886719 52.316406 C 42.851562 52.386719 42.777344 52.433594 42.699219 52.433594 Z M 31.398438 45.238281 L 31.398438 50.140625 C 31.398438 50.640625 31.589844 51.109375 31.9375 51.460938 C 32.292969 51.820312 32.761719 52.015625 33.265625 52.015625 L 42.566406 52.015625 C 42.808594 51.492188 42.953125 50.9375 42.992188 50.363281 C 43.085938 49.042969 42.644531 47.785156 41.742188 46.8125 C 40.816406 45.8125 39.488281 45.238281 38.105469 45.238281 Z M 42.699219 30.175781 L 33.265625 30.175781 C 32.570312 30.175781 31.917969 29.859375 31.480469 29.3125 C 31.15625 28.902344 30.984375 28.40625 30.984375 27.882812 L 30.984375 22.773438 C 30.984375 22.660156 31.078125 22.566406 31.191406 22.566406 L 38.105469 22.566406 C 39.605469 22.566406 41.039062 23.1875 42.046875 24.269531 C 43.027344 25.328125 43.507812 26.699219 43.40625 28.132812 C 43.359375 28.804688 43.183594 29.453125 42.886719 30.058594 C 42.851562 30.128906 42.777344 30.175781 42.699219 30.175781 Z M 31.398438 22.980469 L 31.398438 27.882812 C 31.398438 28.3125 31.539062 28.714844 31.808594 29.050781 C 32.164062 29.5 32.695312 29.757812 33.265625 29.757812 L 42.566406 29.757812 C 42.808594 29.234375 42.953125 28.679688 42.992188 28.105469 C 43.085938 26.785156 42.644531 25.523438 41.742188 24.554688 C 40.816406 23.554688 39.488281 22.980469 38.105469 22.980469 Z M 31.398438 22.980469 " fill-opacity="1" fill-rule="nonzero"/></g><g clip-path="url(#dea75f25c7)"><path fill="#ffffff" d="M 14.386719 65.207031 L 14.390625 12.574219 C 14.390625 11.421875 15.320312 10.488281 16.464844 10.488281 L 37.992188 10.488281 C 48.109375 10.488281 56.082031 18.792969 55.414062 28.925781 C 55.171875 32.609375 53.777344 36.0625 51.40625 38.878906 C 51.402344 38.886719 51.402344 38.894531 51.40625 38.902344 C 53.777344 41.714844 55.171875 45.171875 55.414062 48.855469 C 56.082031 58.984375 48.109375 67.289062 37.992188 67.289062 L 16.464844 67.289062 C 15.316406 67.289062 14.386719 66.355469 14.386719 65.207031 Z M 38.242188 55.003906 C 40.863281 55.003906 43.015625 52.960938 43.199219 50.378906 C 43.410156 47.441406 41.039062 45.03125 38.105469 45.03125 L 28.707031 45.03125 C 27.558594 45.03125 26.628906 45.964844 26.628906 47.113281 L 26.628906 52.921875 C 26.628906 54.074219 27.558594 55.003906 28.707031 55.003906 Z M 38.242188 32.746094 C 40.863281 32.746094 43.015625 30.703125 43.199219 28.121094 C 43.410156 25.183594 41.039062 22.773438 38.105469 22.773438 L 28.707031 22.773438 C 27.558594 22.773438 26.628906 23.707031 26.628906 24.855469 L 26.628906 30.664062 C 26.628906 31.816406 27.558594 32.746094 28.707031 32.746094 Z M 38.242188 32.746094 " fill-opacity="1" fill-rule="nonzero"/><path fill="#000000" d="M 37.992188 67.5 L 16.464844 67.5 C 15.855469 67.5 15.28125 67.261719 14.847656 66.828125 C 14.417969 66.394531 14.179688 65.820312 14.179688 65.207031 L 14.183594 12.574219 C 14.183594 11.308594 15.207031 10.28125 16.464844 10.28125 L 37.992188 10.28125 C 40.523438 10.28125 42.960938 10.789062 45.234375 11.785156 C 47.433594 12.753906 49.375 14.128906 51.007812 15.878906 C 54.304688 19.417969 55.945312 24.054688 55.621094 28.941406 C 55.378906 32.617188 54.011719 36.054688 51.667969 38.890625 C 54.011719 41.722656 55.378906 45.160156 55.621094 48.839844 C 55.945312 53.726562 54.304688 58.363281 51.007812 61.898438 C 49.375 63.648438 47.433594 65.027344 45.234375 65.992188 C 42.960938 66.992188 40.523438 67.5 37.992188 67.5 Z M 16.464844 10.699219 C 15.4375 10.699219 14.597656 11.539062 14.597656 12.574219 L 14.59375 65.207031 C 14.59375 65.707031 14.789062 66.179688 15.140625 66.53125 C 15.496094 66.886719 15.964844 67.082031 16.464844 67.082031 L 37.992188 67.082031 C 42.902344 67.082031 47.417969 65.140625 50.703125 61.617188 C 53.921875 58.164062 55.523438 53.636719 55.207031 48.867188 C 54.96875 45.226562 53.597656 41.824219 51.25 39.035156 C 51.175781 38.949219 51.175781 38.828125 51.25 38.742188 C 53.597656 35.953125 54.96875 32.554688 55.207031 28.910156 C 55.523438 24.144531 53.921875 19.617188 50.703125 16.164062 C 47.417969 12.640625 42.902344 10.699219 37.992188 10.699219 Z M 38.242188 55.214844 L 28.707031 55.214844 C 28.09375 55.214844 27.523438 54.976562 27.089844 54.542969 C 26.660156 54.109375 26.421875 53.535156 26.421875 52.921875 L 26.421875 47.113281 C 26.421875 45.851562 27.445312 44.824219 28.707031 44.824219 L 38.105469 44.824219 C 39.605469 44.824219 41.039062 45.445312 42.046875 46.527344 C 43.027344 47.585938 43.507812 48.957031 43.40625 50.390625 C 43.214844 53.097656 40.945312 55.214844 38.242188 55.214844 Z M 28.707031 45.238281 C 27.675781 45.238281 26.835938 46.082031 26.835938 47.113281 L 26.835938 52.921875 C 26.835938 53.421875 27.03125 53.894531 27.382812 54.25 C 27.738281 54.601562 28.207031 54.796875 28.707031 54.796875 L 38.242188 54.796875 C 40.730469 54.796875 42.816406 52.847656 42.992188 50.363281 C 43.085938 49.042969 42.644531 47.785156 41.742188 46.8125 C 40.816406 45.8125 39.488281 45.238281 38.105469 45.238281 Z M 38.242188 32.957031 L 28.707031 32.957031 C 27.449219 32.957031 26.421875 31.929688 26.421875 30.664062 L 26.421875 24.855469 C 26.421875 23.59375 27.449219 22.566406 28.707031 22.566406 L 38.105469 22.566406 C 39.605469 22.566406 41.039062 23.1875 42.046875 24.269531 C 43.027344 25.328125 43.507812 26.699219 43.40625 28.132812 C 43.214844 30.839844 40.945312 32.957031 38.242188 32.957031 Z M 28.707031 22.980469 C 27.675781 22.980469 26.839844 23.824219 26.839844 24.855469 L 26.839844 30.664062 C 26.839844 31.699219 27.675781 32.539062 28.707031 32.539062 L 38.242188 32.539062 C 40.730469 32.539062 42.816406 30.589844 42.992188 28.105469 C 43.085938 26.785156 42.644531 25.523438 41.742188 24.554688 C 40.816406 23.554688 39.488281 22.980469 38.105469 22.980469 Z M 28.707031 22.980469 " fill-opacity="1" fill-rule="nonzero"/></g><g clip-path="url(#dfd9d7eb8d)"><path fill="#c2b092" d="M 42.550781 7.707031 L 21.027344 7.707031 C 20.695312 7.707031 20.386719 7.785156 20.113281 7.921875 L 20.109375 7.921875 C 20 7.976562 19.894531 8.042969 19.796875 8.113281 L 15.542969 10.707031 C 15.820312 10.570312 16.132812 10.488281 16.464844 10.488281 L 37.992188 10.488281 C 40.835938 10.488281 43.515625 11.144531 45.875 12.316406 C 46.269531 12.511719 46.65625 12.71875 47.03125 12.941406 C 47.28125 13.089844 47.527344 13.246094 47.769531 13.40625 C 48.011719 13.566406 48.246094 13.734375 48.480469 13.90625 C 49.527344 14.679688 50.484375 15.566406 51.328125 16.550781 C 52.640625 18.078125 53.6875 19.84375 54.398438 21.769531 C 54.5 22.046875 54.59375 22.324219 54.679688 22.605469 C 54.769531 22.890625 54.847656 23.175781 54.921875 23.460938 C 55.03125 23.894531 55.125 24.332031 55.203125 24.777344 C 55.433594 26.113281 55.507812 27.5 55.414062 28.925781 C 55.371094 29.617188 55.285156 30.300781 55.160156 30.96875 C 55.117188 31.195312 55.070312 31.417969 55.019531 31.640625 C 54.769531 32.746094 54.40625 33.820312 53.945312 34.851562 C 53.757812 35.261719 53.558594 35.667969 53.339844 36.0625 C 52.792969 37.054688 52.148438 38 51.40625 38.878906 L 55.96875 36.097656 C 58.339844 33.28125 59.730469 29.828125 59.976562 26.144531 C 60.644531 16.011719 52.671875 7.707031 42.550781 7.707031 Z M 42.550781 7.707031 " fill-opacity="1" fill-rule="nonzero"/></g><g clip-path="url(#13a129a6d3)"><path fill="#000000" d="M 51.40625 39.085938 C 51.347656 39.085938 51.289062 39.0625 51.25 39.011719 C 51.183594 38.9375 51.183594 38.820312 51.25 38.742188 C 51.976562 37.878906 52.617188 36.945312 53.15625 35.964844 C 53.371094 35.574219 53.570312 35.171875 53.753906 34.765625 C 54.210938 33.75 54.570312 32.679688 54.816406 31.59375 C 54.867188 31.375 54.914062 31.152344 54.953125 30.933594 C 55.078125 30.269531 55.164062 29.589844 55.207031 28.910156 C 55.300781 27.53125 55.230469 26.152344 55 24.8125 C 54.921875 24.378906 54.832031 23.941406 54.722656 23.511719 C 54.648438 23.230469 54.570312 22.945312 54.484375 22.667969 C 54.398438 22.390625 54.304688 22.113281 54.203125 21.84375 C 53.507812 19.953125 52.488281 18.21875 51.171875 16.683594 C 50.335938 15.714844 49.390625 14.835938 48.355469 14.074219 C 48.128906 13.902344 47.890625 13.738281 47.652344 13.582031 C 47.414062 13.421875 47.171875 13.269531 46.925781 13.121094 C 46.554688 12.902344 46.167969 12.695312 45.785156 12.503906 C 43.367188 11.304688 40.742188 10.699219 37.992188 10.699219 L 16.464844 10.699219 C 16.175781 10.699219 15.898438 10.765625 15.636719 10.894531 C 15.535156 10.945312 15.414062 10.90625 15.363281 10.808594 C 15.308594 10.710938 15.339844 10.589844 15.4375 10.53125 L 19.683594 7.941406 C 19.789062 7.863281 19.902344 7.796875 20.019531 7.738281 C 20.335938 7.578125 20.675781 7.5 21.027344 7.5 L 42.550781 7.5 C 45.082031 7.5 47.519531 8.007812 49.792969 9.003906 C 51.992188 9.972656 53.933594 11.347656 55.566406 13.097656 C 58.867188 16.636719 60.503906 21.273438 60.183594 26.160156 C 59.9375 29.890625 58.535156 33.375 56.125 36.230469 C 56.109375 36.25 56.09375 36.261719 56.074219 36.273438 L 51.515625 39.054688 C 51.480469 39.078125 51.445312 39.085938 51.40625 39.085938 Z M 16.644531 10.28125 L 37.992188 10.28125 C 40.808594 10.28125 43.492188 10.902344 45.96875 12.128906 C 46.363281 12.324219 46.753906 12.539062 47.136719 12.761719 C 47.386719 12.914062 47.640625 13.070312 47.882812 13.234375 C 48.125 13.394531 48.367188 13.5625 48.601562 13.738281 C 49.660156 14.519531 50.628906 15.417969 51.484375 16.414062 C 52.832031 17.984375 53.878906 19.761719 54.59375 21.699219 C 54.695312 21.976562 54.792969 22.261719 54.878906 22.542969 C 54.96875 22.828125 55.050781 23.121094 55.125 23.410156 C 55.234375 23.847656 55.332031 24.296875 55.40625 24.742188 C 55.644531 26.113281 55.714844 27.527344 55.621094 28.941406 C 55.578125 29.632812 55.488281 30.328125 55.363281 31.007812 C 55.320312 31.234375 55.273438 31.460938 55.222656 31.683594 C 54.96875 32.800781 54.601562 33.894531 54.132812 34.9375 C 53.945312 35.351562 53.738281 35.765625 53.519531 36.164062 C 53.152344 36.832031 52.738281 37.480469 52.285156 38.097656 L 55.832031 35.9375 C 58.167969 33.152344 59.527344 29.761719 59.769531 26.128906 C 60.082031 21.363281 58.484375 16.835938 55.265625 13.382812 C 51.976562 9.859375 47.460938 7.917969 42.550781 7.917969 L 21.027344 7.917969 C 20.738281 7.917969 20.464844 7.980469 20.203125 8.109375 C 20.105469 8.160156 20.007812 8.21875 19.921875 8.28125 C 19.914062 8.285156 19.910156 8.289062 19.90625 8.292969 Z M 16.644531 10.28125 " fill-opacity="1" fill-rule="nonzero"/></g><path fill="#c2b092" d="M 31.191406 50.140625 L 31.191406 45.03125 L 28.707031 45.03125 C 27.558594 45.03125 26.628906 45.964844 26.628906 47.113281 L 26.628906 52.921875 C 26.628906 53.507812 26.871094 54.03125 27.253906 54.410156 L 31.792969 51.609375 C 31.417969 51.230469 31.191406 50.714844 31.191406 50.140625 Z M 31.191406 50.140625 " fill-opacity="1" fill-rule="nonzero"/><path fill="#000000" d="M 27.253906 54.621094 C 27.203125 54.621094 27.148438 54.597656 27.109375 54.558594 C 26.667969 54.125 26.421875 53.542969 26.421875 52.921875 L 26.421875 47.113281 C 26.421875 45.851562 27.445312 44.824219 28.707031 44.824219 L 31.191406 44.824219 C 31.246094 44.824219 31.296875 44.84375 31.335938 44.882812 C 31.375 44.921875 31.398438 44.976562 31.398438 45.03125 L 31.398438 50.140625 C 31.398438 50.640625 31.589844 51.109375 31.9375 51.460938 C 31.984375 51.507812 32.003906 51.570312 31.996094 51.632812 C 31.988281 51.695312 31.953125 51.75 31.898438 51.785156 L 27.363281 54.589844 C 27.328125 54.609375 27.292969 54.621094 27.253906 54.621094 Z M 28.707031 45.238281 C 27.675781 45.238281 26.835938 46.082031 26.835938 47.113281 L 26.835938 52.921875 C 26.835938 53.375 26.996094 53.804688 27.289062 54.144531 L 31.472656 51.558594 C 31.15625 51.15625 30.980469 50.664062 30.980469 50.140625 L 30.984375 45.238281 Z M 28.707031 45.238281 " fill-opacity="1" fill-rule="nonzero"/><path fill="#c2b092" d="M 31.792969 51.609375 L 27.253906 54.410156 C 27.628906 54.777344 28.140625 55.003906 28.707031 55.003906 L 38.242188 55.003906 C 40.195312 55.003906 41.886719 53.871094 42.699219 52.222656 L 33.265625 52.222656 C 32.6875 52.222656 32.167969 51.988281 31.792969 51.609375 Z M 31.792969 51.609375 " fill-opacity="1" fill-rule="nonzero"/><path fill="#000000" d="M 38.242188 55.214844 L 28.707031 55.214844 C 28.105469 55.214844 27.539062 54.980469 27.109375 54.558594 C 27.0625 54.515625 27.042969 54.453125 27.046875 54.386719 C 27.054688 54.324219 27.089844 54.265625 27.144531 54.234375 L 31.683594 51.429688 C 31.765625 51.378906 31.871094 51.390625 31.9375 51.460938 C 32.292969 51.820312 32.761719 52.015625 33.265625 52.015625 L 42.699219 52.015625 C 42.769531 52.015625 42.835938 52.054688 42.875 52.113281 C 42.914062 52.175781 42.917969 52.253906 42.886719 52.316406 C 42.003906 54.105469 40.222656 55.214844 38.242188 55.214844 Z M 27.605469 54.4375 C 27.925781 54.671875 28.304688 54.796875 28.707031 54.796875 L 38.242188 54.796875 C 39.953125 54.796875 41.496094 53.898438 42.351562 52.433594 L 33.265625 52.433594 C 32.707031 52.433594 32.179688 52.234375 31.765625 51.867188 Z M 27.605469 54.4375 " fill-opacity="1" fill-rule="nonzero"/><path fill="#c2b092" d="M 31.191406 27.882812 L 31.191406 22.773438 L 28.707031 22.773438 C 27.558594 22.773438 26.632812 23.707031 26.632812 24.855469 L 26.632812 30.664062 C 26.632812 31.167969 26.808594 31.628906 27.101562 31.988281 L 31.644531 29.179688 C 31.359375 28.824219 31.191406 28.375 31.191406 27.882812 Z M 31.191406 27.882812 " fill-opacity="1" fill-rule="nonzero"/><path fill="#000000" d="M 27.101562 32.195312 C 27.042969 32.195312 26.984375 32.167969 26.941406 32.121094 C 26.609375 31.710938 26.421875 31.195312 26.421875 30.664062 L 26.421875 24.855469 C 26.421875 23.59375 27.449219 22.566406 28.707031 22.566406 L 31.191406 22.566406 C 31.304688 22.566406 31.398438 22.660156 31.398438 22.773438 L 31.398438 27.882812 C 31.398438 28.3125 31.539062 28.714844 31.808594 29.050781 C 31.84375 29.097656 31.859375 29.160156 31.847656 29.21875 C 31.839844 29.277344 31.804688 29.328125 31.753906 29.359375 L 27.210938 32.164062 C 27.179688 32.1875 27.140625 32.195312 27.101562 32.195312 Z M 28.707031 22.980469 C 27.675781 22.980469 26.839844 23.824219 26.839844 24.855469 L 26.839844 30.664062 C 26.839844 31.039062 26.949219 31.402344 27.15625 31.710938 L 31.347656 29.121094 C 31.109375 28.753906 30.984375 28.328125 30.984375 27.882812 L 30.984375 22.980469 Z M 28.707031 22.980469 " fill-opacity="1" fill-rule="nonzero"/><path fill="#c2b092" d="M 28.707031 32.746094 L 38.242188 32.746094 C 40.195312 32.746094 41.886719 31.613281 42.699219 29.964844 L 33.265625 29.964844 C 32.609375 29.964844 32.023438 29.660156 31.644531 29.179688 L 27.101562 31.988281 C 27.484375 32.453125 28.0625 32.746094 28.707031 32.746094 Z M 28.707031 32.746094 " fill-opacity="1" fill-rule="nonzero"/><path fill="#000000" d="M 38.242188 32.957031 L 28.707031 32.957031 C 28.023438 32.957031 27.378906 32.652344 26.941406 32.121094 C 26.90625 32.074219 26.890625 32.011719 26.898438 31.953125 C 26.910156 31.894531 26.945312 31.84375 26.996094 31.808594 L 31.535156 29.003906 C 31.625 28.949219 31.742188 28.96875 31.808594 29.050781 C 32.164062 29.5 32.695312 29.757812 33.265625 29.757812 L 42.699219 29.757812 C 42.769531 29.757812 42.835938 29.796875 42.875 29.855469 C 42.914062 29.917969 42.917969 29.996094 42.886719 30.058594 C 42.003906 31.847656 40.222656 32.957031 38.242188 32.957031 Z M 27.429688 32.03125 C 27.773438 32.355469 28.226562 32.539062 28.707031 32.539062 L 38.242188 32.539062 C 39.953125 32.539062 41.496094 31.640625 42.351562 30.175781 L 33.265625 30.175781 C 32.632812 30.175781 32.035156 29.914062 31.601562 29.453125 Z M 27.429688 32.03125 " fill-opacity="1" fill-rule="nonzero"/><g clip-path="url(#68a2347296)"><path fill="#c2b092" d="M 55.96875 36.121094 C 55.960938 36.113281 55.960938 36.105469 55.96875 36.097656 L 51.40625 38.878906 C 51.402344 38.886719 51.402344 38.894531 51.40625 38.902344 C 53.777344 41.714844 55.171875 45.171875 55.414062 48.855469 C 55.792969 54.605469 53.386719 59.769531 49.382812 63.160156 C 56.003906 60.410156 60.484375 53.769531 59.976562 46.074219 C 59.730469 42.390625 58.339844 38.933594 55.96875 36.121094 Z M 55.96875 36.121094 " fill-opacity="1" fill-rule="nonzero"/></g><g clip-path="url(#d87715b2b0)"><path fill="#000000" d="M 49.382812 63.367188 C 49.3125 63.367188 49.246094 63.332031 49.207031 63.265625 C 49.152344 63.179688 49.171875 63.066406 49.25 63 C 53.398438 59.488281 55.570312 54.339844 55.207031 48.867188 C 54.96875 45.222656 53.597656 41.824219 51.25 39.035156 C 51.175781 38.949219 51.175781 38.828125 51.25 38.742188 C 51.261719 38.726562 51.28125 38.710938 51.300781 38.699219 L 55.859375 35.917969 C 55.945312 35.867188 56.058594 35.882812 56.125 35.960938 C 56.144531 35.984375 56.15625 36.007812 56.164062 36.03125 C 58.546875 38.878906 59.9375 42.347656 60.183594 46.058594 C 60.429688 49.820312 59.511719 53.457031 57.527344 56.585938 C 55.597656 59.621094 52.808594 61.964844 49.460938 63.351562 C 49.4375 63.363281 49.410156 63.367188 49.382812 63.367188 Z M 51.707031 38.9375 C 54.027344 41.761719 55.378906 45.179688 55.621094 48.839844 C 55.960938 53.988281 54.109375 58.863281 50.511719 62.410156 C 56.542969 59.335938 60.21875 52.9375 59.769531 46.085938 C 59.53125 42.496094 58.199219 39.140625 55.910156 36.375 Z M 56.125 36.230469 Z M 56.125 35.984375 L 56.125 35.988281 C 56.125 35.984375 56.125 35.984375 56.125 35.984375 Z M 56.125 35.984375 " fill-opacity="1" fill-rule="nonzero"/></g></svg>