<svg xmlns="http://www.w3.org/2000/svg" xmlns:xlink="http://www.w3.org/1999/xlink" width="200" zoomAndPan="magnify" viewBox="0 0 150 112.499997" height="150" preserveAspectRatio="xMidYMid meet" version="1.0"><defs><clipPath id="id1"><path d="M 23.695312 3.761719 L 122.996094 3.761719 L 122.996094 108.292969 L 23.695312 108.292969 Z M 23.695312 3.761719 " clip-rule="nonzero"/></clipPath><clipPath id="id2"><path d="M 85 11.199219 L 91 11.199219 L 91 20 L 85 20 Z M 85 11.199219 " clip-rule="nonzero"/></clipPath><clipPath id="id3"><path d="M 80 96 L 85 96 L 85 100.800781 L 80 100.800781 Z M 80 96 " clip-rule="nonzero"/></clipPath><clipPath id="id4"><path d="M 60 97 L 64 97 L 64 100.800781 L 60 100.800781 Z M 60 97 " clip-rule="nonzero"/></clipPath><clipPath id="id5"><path d="M 53 97 L 57 97 L 57 100.800781 L 53 100.800781 Z M 53 97 " clip-rule="nonzero"/></clipPath></defs><g clip-path="url(#id1)"><path fill="#486cbd" d="M 91.371094 106.511719 C 95.601562 105.34375 99.609375 103.546875 103.167969 100.9375 C 112.941406 93.777344 117.828125 81.714844 120.75 69.9375 C 122.105469 64.464844 123.144531 58.859375 122.976562 53.226562 C 122.664062 42.714844 118.078125 32.589844 111.277344 24.585938 C 103.359375 15.273438 91.808594 6.894531 79.695312 4.542969 C 67.660156 2.207031 54.929688 5.128906 45.375 12.90625 C 37.539062 19.289062 31.953125 28.140625 28.300781 37.582031 C 23.339844 50.394531 21.820312 64.984375 26.582031 77.875 C 29.945312 86.988281 36.398438 94.921875 44.625 100.058594 C 52.65625 105.070312 62.132812 107.375 71.570312 108.085938 C 78.167969 108.585938 85.023438 108.261719 91.371094 106.511719 " fill-opacity="1" fill-rule="nonzero"/></g><g clip-path="url(#id2)"><path fill="#c49e22" d="M 90.664062 11.726562 C 90.664062 11.726562 91.378906 19.734375 85.1875 19.914062 C 85.1875 19.914062 84.292969 16.351562 87.023438 13.789062 C 89.773438 11.246094 90.664062 11.726562 90.664062 11.726562 Z M 90.664062 11.726562 " fill-opacity="1" fill-rule="nonzero"/></g><path fill="#474340" d="M 77.335938 30.289062 C 77.496094 30.324219 77.65625 30.164062 77.585938 30.003906 C 77.300781 29.382812 76.535156 28.902344 76 28.492188 C 75.625 28.207031 75.230469 27.921875 74.820312 27.671875 C 74.445312 27.496094 74.214844 27.316406 74.019531 27.226562 C 73.769531 27.105469 73.554688 27.53125 73.824219 27.636719 C 74.445312 28.046875 75.070312 28.457031 75.640625 28.917969 C 75.945312 29.152344 76.230469 29.472656 76.535156 29.753906 C 76.410156 29.683594 76.265625 29.613281 76.160156 29.558594 C 75.570312 29.222656 74.945312 28.917969 74.285156 28.742188 C 74.074219 28.671875 74.074219 28.652344 73.929688 28.6875 C 73.785156 28.722656 73.804688 28.917969 73.910156 28.972656 C 74.554688 29.3125 75.230469 29.578125 75.855469 29.96875 C 76.320312 30.253906 76.875 30.894531 77.425781 30.878906 C 77.496094 30.878906 77.570312 30.789062 77.550781 30.71875 C 77.550781 30.558594 77.460938 30.414062 77.335938 30.289062 Z M 77.335938 30.289062 " fill-opacity="1" fill-rule="nonzero"/><path fill="#474340" d="M 78.140625 32.390625 C 77.945312 32.265625 77.765625 32.125 77.570312 32 C 77.65625 31.960938 77.710938 31.855469 77.675781 31.75 C 77.480469 31.214844 76.855469 30.804688 76.390625 30.519531 C 75.910156 30.21875 75.339844 29.863281 74.769531 29.828125 C 74.644531 29.808594 74.535156 29.96875 74.660156 30.058594 C 75.144531 30.378906 75.695312 30.574219 76.175781 30.929688 C 76.425781 31.109375 76.625 31.339844 76.855469 31.554688 C 76.765625 31.5 76.675781 31.445312 76.585938 31.394531 C 76.105469 31.109375 75.515625 30.679688 74.945312 30.644531 C 74.875 30.644531 74.785156 30.71875 74.855469 30.789062 C 75.214844 31.199219 75.804688 31.429688 76.25 31.730469 C 76.710938 32.035156 77.175781 32.355469 77.640625 32.691406 C 77.640625 32.726562 77.65625 32.765625 77.695312 32.800781 C 77.710938 32.816406 77.730469 32.835938 77.765625 32.851562 C 77.820312 32.90625 77.90625 32.925781 77.980469 32.886719 C 78.015625 32.871094 78.050781 32.871094 78.070312 32.851562 C 78.230469 32.78125 78.300781 32.496094 78.140625 32.390625 Z M 78.140625 32.390625 " fill-opacity="1" fill-rule="nonzero"/><path fill="#474340" d="M 77.675781 33.246094 C 76.890625 32.425781 75.910156 31.714844 74.855469 31.304688 C 74.730469 31.25 74.589844 31.429688 74.714844 31.519531 C 75.679688 32.140625 76.550781 32.816406 77.355469 33.636719 C 77.585938 33.851562 77.890625 33.476562 77.675781 33.246094 Z M 77.675781 33.246094 " fill-opacity="1" fill-rule="nonzero"/><path fill="#474340" d="M 77.871094 34.382812 C 77.640625 33.851562 76.945312 33.511719 76.460938 33.226562 C 75.964844 32.925781 75.429688 32.65625 74.875 32.460938 C 74.785156 32.40625 74.679688 32.371094 74.535156 32.335938 C 74.320312 32.300781 74.214844 32.605469 74.410156 32.691406 C 75.054688 32.996094 75.679688 33.296875 76.265625 33.6875 C 76.710938 33.992188 77.140625 34.492188 77.65625 34.632812 C 77.800781 34.667969 77.925781 34.507812 77.871094 34.382812 Z M 77.871094 34.382812 " fill-opacity="1" fill-rule="nonzero"/><path fill="#474340" d="M 76.480469 34.542969 C 76.035156 34.117188 75.515625 33.726562 74.929688 33.492188 C 74.804688 33.441406 74.679688 33.617188 74.785156 33.707031 C 75.230469 34.046875 75.679688 34.382812 76.070312 34.773438 C 76.265625 34.988281 76.445312 35.203125 76.625 35.433594 C 76.785156 35.648438 76.910156 35.914062 77.121094 36.074219 C 77.246094 36.164062 77.445312 36.09375 77.425781 35.914062 C 77.390625 35.398438 76.835938 34.898438 76.480469 34.542969 Z M 76.480469 34.542969 " fill-opacity="1" fill-rule="nonzero"/><path fill="#474340" d="M 76.800781 36.21875 C 76.445312 35.84375 76.070312 35.488281 75.660156 35.167969 C 75.429688 34.988281 75.144531 35.328125 75.375 35.503906 C 75.75 35.808594 76.105469 36.144531 76.445312 36.5 C 76.710938 36.785156 76.945312 37.265625 77.320312 37.445312 C 77.425781 37.5 77.585938 37.410156 77.570312 37.265625 C 77.496094 36.859375 77.070312 36.5 76.800781 36.21875 Z M 76.800781 36.21875 " fill-opacity="1" fill-rule="nonzero"/><path fill="#474340" d="M 78.085938 39.882812 C 77.800781 39.492188 77.90625 39.367188 77.550781 38.992188 C 77.640625 39.027344 77.265625 38.761719 77.355469 38.726562 C 77.425781 38.691406 77.480469 38.636719 77.496094 38.566406 C 77.550781 38.105469 76.925781 37.675781 76.605469 37.410156 C 76.140625 37.019531 75.605469 36.625 75.035156 36.394531 C 74.894531 36.339844 74.75 36.519531 74.894531 36.625 C 75.265625 36.910156 75.679688 37.179688 76.035156 37.5 C 76.214844 37.640625 76.375 37.800781 76.535156 37.960938 C 76.625 38.050781 76.710938 38.15625 76.800781 38.246094 C 76.855469 38.300781 76.910156 38.351562 76.945312 38.425781 C 76.960938 38.460938 76.980469 38.476562 77 38.476562 C 76.980469 38.496094 76.980469 38.511719 76.980469 38.546875 L 76.980469 38.601562 C 76.980469 38.601562 76.980469 38.621094 76.980469 38.621094 C 76.460938 38.105469 75.890625 37.660156 75.285156 37.339844 C 75.144531 37.265625 75.019531 37.464844 75.125 37.570312 C 75.554688 37.980469 76.015625 38.335938 76.425781 38.746094 C 76.710938 39.027344 76.960938 39.332031 77.210938 39.652344 C 77.410156 39.882812 77.535156 39.992188 77.605469 40.042969 C 77.746094 40.167969 77.535156 40.113281 77.675781 40.238281 C 77.945312 40.398438 78.265625 40.113281 78.085938 39.882812 Z M 78.085938 39.882812 " fill-opacity="1" fill-rule="nonzero"/><path fill="#474340" d="M 77.945312 42.394531 C 77.746094 41.929688 77.570312 41.058594 77.550781 40.917969 C 77.496094 40.347656 76.855469 39.867188 76.5 39.4375 C 76.089844 38.941406 75.625 38.441406 75.105469 38.050781 C 75 37.960938 74.804688 38.105469 74.910156 38.226562 C 75.320312 38.707031 75.765625 39.171875 76.160156 39.671875 C 76.339844 39.917969 76.835938 40.558594 77.015625 40.84375 C 76.640625 40.453125 75.890625 39.742188 75.5 39.421875 C 75.339844 39.296875 75.144531 39.527344 75.285156 39.671875 C 76.089844 40.417969 76.660156 41.253906 77.246094 42.125 C 77.65625 42.660156 77.78125 42.445312 77.835938 42.5 C 77.945312 42.605469 77.480469 42.535156 77.605469 42.625 C 77.765625 42.765625 78.03125 42.589844 77.945312 42.394531 Z M 77.945312 42.394531 " fill-opacity="1" fill-rule="nonzero"/><path fill="#474340" d="M 77.890625 43.425781 C 77.800781 42.910156 77.230469 42.464844 76.890625 42.089844 C 76.410156 41.558594 75.910156 41.039062 75.390625 40.542969 C 75.269531 40.433594 75.070312 40.613281 75.179688 40.738281 C 75.605469 41.273438 76.070312 41.789062 76.5 42.304688 C 76.835938 42.695312 77.195312 43.390625 77.695312 43.566406 C 77.78125 43.605469 77.90625 43.550781 77.890625 43.425781 Z M 77.890625 43.425781 " fill-opacity="1" fill-rule="nonzero"/><path fill="#474340" d="M 78.300781 44.652344 C 77.800781 43.640625 76.730469 42.855469 75.75 42.339844 C 75.570312 42.234375 75.445312 42.519531 75.605469 42.625 C 76.070312 42.910156 76.480469 43.246094 76.875 43.640625 C 77.195312 43.960938 77.460938 44.332031 77.746094 44.671875 C 77.730469 44.726562 77.765625 44.796875 77.820312 44.832031 C 77.871094 44.867188 77.945312 44.902344 77.996094 44.9375 C 78.15625 45.011719 78.390625 44.8125 78.300781 44.652344 Z M 78.300781 44.652344 " fill-opacity="1" fill-rule="nonzero"/><path fill="#474340" d="M 78.210938 45.917969 C 78.03125 45.4375 77.570312 45.046875 77.230469 44.652344 C 76.835938 44.207031 76.460938 43.78125 76.070312 43.355469 C 75.945312 43.230469 75.714844 43.371094 75.839844 43.515625 C 76.214844 44.011719 76.585938 44.492188 76.960938 44.972656 C 77.265625 45.367188 77.570312 45.863281 77.996094 46.113281 C 78.121094 46.203125 78.265625 46.042969 78.210938 45.917969 Z M 78.210938 45.917969 " fill-opacity="1" fill-rule="nonzero"/><path fill="#474340" d="M 78.195312 47.039062 C 77.640625 46.183594 76.855469 45.417969 76.175781 44.671875 C 76.050781 44.53125 75.839844 44.726562 75.964844 44.867188 C 76.550781 45.667969 77.160156 46.578125 77.890625 47.253906 C 78.015625 47.394531 78.316406 47.234375 78.195312 47.039062 Z M 78.195312 47.039062 " fill-opacity="1" fill-rule="nonzero"/><path fill="#474340" d="M 77.175781 47.109375 C 76.675781 46.664062 76.089844 46.273438 75.480469 45.988281 C 75.320312 45.917969 75.179688 46.132812 75.339844 46.21875 C 75.910156 46.558594 76.425781 46.914062 76.890625 47.378906 C 77.085938 47.574219 77.265625 47.769531 77.445312 47.984375 C 77.640625 48.230469 77.746094 48.464844 78.015625 48.605469 C 78.105469 48.640625 78.230469 48.605469 78.230469 48.480469 C 78.15625 47.945312 77.570312 47.464844 77.175781 47.109375 Z M 77.175781 47.109375 " fill-opacity="1" fill-rule="nonzero"/><path fill="#474340" d="M 78.496094 49.941406 C 77.996094 48.820312 77.035156 47.859375 76.050781 47.128906 C 75.890625 47.003906 75.695312 47.234375 75.855469 47.378906 C 76.835938 48.160156 77.460938 49.105469 78.140625 50.136719 C 78.265625 50.3125 78.605469 50.152344 78.496094 49.941406 Z M 78.496094 49.941406 " fill-opacity="1" fill-rule="nonzero"/><path fill="#474340" d="M 78.746094 51.828125 C 78.925781 51.898438 79.140625 51.703125 78.996094 51.523438 C 78.265625 50.617188 77.355469 49.816406 76.550781 48.996094 C 76.425781 48.871094 76.230469 49.066406 76.339844 49.191406 C 77.050781 49.992188 77.746094 50.882812 78.53125 51.632812 C 78.53125 51.648438 78.53125 51.683594 78.53125 51.703125 C 78.140625 51.203125 77.621094 50.757812 77.175781 50.402344 C 77.015625 50.277344 76.835938 50.511719 76.980469 50.632812 C 77.300781 50.917969 77.621094 51.238281 77.890625 51.578125 C 78.140625 51.898438 78.355469 52.253906 78.621094 52.558594 C 78.746094 52.699219 79.050781 52.59375 78.941406 52.378906 C 78.851562 52.164062 78.710938 51.953125 78.566406 51.757812 C 78.566406 51.757812 78.585938 51.773438 78.605469 51.773438 C 78.65625 51.773438 78.691406 51.792969 78.746094 51.828125 Z M 78.746094 51.828125 " fill-opacity="1" fill-rule="nonzero"/><path fill="#474340" d="M 78.335938 53.5 C 77.980469 53.054688 77.535156 52.679688 77.050781 52.359375 C 76.890625 52.253906 76.695312 52.46875 76.855469 52.59375 C 77.285156 52.929688 77.675781 53.304688 77.996094 53.730469 C 78.265625 54.085938 78.425781 54.640625 78.78125 54.886719 C 78.851562 54.941406 78.996094 54.925781 78.996094 54.816406 C 79.050781 54.355469 78.621094 53.855469 78.335938 53.5 Z M 78.335938 53.5 " fill-opacity="1" fill-rule="nonzero"/><path fill="#474340" d="M 79.476562 56.011719 C 78.960938 55.171875 77.925781 54.460938 77.015625 54.105469 C 76.855469 54.035156 76.765625 54.265625 76.910156 54.335938 C 77.355469 54.605469 77.800781 54.871094 78.195312 55.226562 C 78.566406 55.546875 78.851562 55.921875 79.210938 56.257812 C 79.371094 56.402344 79.585938 56.171875 79.476562 56.011719 Z M 79.476562 56.011719 " fill-opacity="1" fill-rule="nonzero"/><path fill="#474340" d="M 79.675781 57.648438 C 79.585938 57.46875 79.460938 57.328125 79.300781 57.203125 C 79.371094 57.148438 79.40625 57.042969 79.335938 56.953125 C 78.585938 56.011719 77.425781 55.296875 76.355469 54.78125 C 76.195312 54.691406 76.070312 54.960938 76.230469 55.050781 C 77.050781 55.492188 77.730469 56.027344 78.390625 56.632812 C 78.03125 56.402344 77.640625 56.207031 77.246094 56.046875 C 77.085938 55.972656 76.980469 56.207031 77.140625 56.292969 C 77.605469 56.578125 78.070312 56.847656 78.515625 57.148438 C 78.835938 57.378906 79.140625 57.738281 79.53125 57.84375 C 79.621094 57.859375 79.710938 57.738281 79.675781 57.648438 Z M 79.675781 57.648438 " fill-opacity="1" fill-rule="nonzero"/><path fill="#474340" d="M 80.441406 58.945312 C 79.441406 57.933594 78.105469 57.378906 76.710938 57.148438 C 76.535156 57.113281 76.5 57.378906 76.660156 57.417969 C 78.015625 57.683594 79.140625 58.394531 80.15625 59.285156 C 80.371094 59.5 80.636719 59.144531 80.441406 58.945312 Z M 80.441406 58.945312 " fill-opacity="1" fill-rule="nonzero"/><path fill="#c49e22" d="M 63.332031 87.550781 L 63.332031 87.570312 C 63.332031 88.15625 63.316406 88.777344 63.296875 89.4375 C 63.296875 89.652344 63.277344 89.863281 63.277344 90.058594 C 63.277344 90.078125 63.277344 90.097656 63.277344 90.097656 C 63.261719 90.542969 63.242188 90.984375 63.226562 91.378906 C 62.886719 99.121094 63.136719 97.820312 63.136719 97.820312 L 60.28125 98.035156 C 60.28125 98.035156 59.246094 85.164062 57.265625 80.109375 L 61.511719 77.742188 C 61.511719 77.742188 63.421875 79.378906 63.332031 87.550781 Z M 63.332031 87.550781 " fill-opacity="1" fill-rule="nonzero"/><path fill="#ffc533" d="M 95.820312 34.1875 C 95.625 34.207031 95.425781 34.222656 95.230469 34.242188 C 86.257812 34.882812 85.078125 31.785156 85.078125 31.785156 C 85.078125 31.785156 85.417969 38.867188 86.023438 46.257812 C 86.203125 48.535156 86.417969 50.847656 86.648438 52.984375 C 86.917969 55.421875 87.203125 57.628906 87.523438 59.320312 C 89.023438 67.3125 90.539062 68.183594 89.664062 75.855469 L 90.21875 84.152344 L 90.449219 87.691406 L 91.003906 96.203125 L 87.917969 96.203125 C 87.917969 96.203125 87.683594 76.960938 84.1875 76.960938 C 80.691406 76.960938 83.632812 96.914062 83.632812 96.914062 L 80.832031 97.285156 C 80.832031 97.285156 78.941406 78.792969 77.195312 78.542969 C 75.765625 78.347656 63.5625 80.234375 59.210938 80.910156 C 58.480469 81.035156 57.960938 81.105469 57.765625 81.144531 C 57.710938 81.160156 57.675781 81.160156 57.675781 81.160156 L 57.050781 88.050781 L 56.730469 91.378906 L 56.554688 97.929688 L 53.714844 98.050781 C 53.714844 98.050781 52.96875 88.601562 52.039062 81.871094 C 51.84375 80.394531 51.628906 79.042969 51.414062 77.957031 C 51.289062 77.351562 51.164062 76.746094 51.039062 76.140625 C 49.917969 70.675781 48.773438 65.125 52.128906 62.132812 C 52.574219 61.742188 53.109375 61.367188 53.699219 61.03125 C 55.429688 60.050781 57.730469 59.355469 60.316406 58.945312 C 62.421875 58.609375 64.707031 58.464844 67.023438 58.5 C 69.09375 58.539062 71.199219 58.734375 73.199219 59.089844 C 73.214844 59.089844 73.234375 59.089844 73.25 59.105469 C 73.75 59.195312 74.25 59.304688 74.75 59.410156 C 75.964844 59.675781 77.140625 60.015625 78.230469 60.40625 C 78.230469 60.40625 78.460938 60.476562 78.585938 59.570312 C 78.675781 58.984375 78.691406 57.96875 78.585938 56.257812 C 78.566406 55.9375 78.53125 55.582031 78.515625 55.210938 C 78.515625 55.210938 78.515625 55.210938 78.515625 55.191406 C 78.496094 55.011719 78.480469 54.816406 78.460938 54.621094 C 78.425781 54.246094 78.390625 53.804688 78.335938 53.304688 C 78.210938 51.933594 78.03125 50.101562 77.871094 48.035156 C 77.730469 46.203125 77.585938 44.171875 77.460938 42.089844 C 77.425781 41.308594 77.371094 40.523438 77.355469 39.722656 C 77.335938 39.492188 77.335938 39.242188 77.320312 39.011719 C 77.285156 37.835938 77.246094 36.660156 77.230469 35.503906 C 77.195312 32.65625 77.285156 29.953125 77.550781 27.78125 C 77.605469 27.28125 77.675781 26.800781 77.765625 26.355469 C 77.800781 26.160156 77.835938 25.964844 77.890625 25.769531 C 78.265625 24.09375 78.800781 22.957031 79.585938 22.636719 C 79.585938 22.636719 79.65625 22.511719 79.835938 22.296875 C 79.925781 22.191406 80.046875 22.046875 80.191406 21.886719 C 81.367188 20.679688 84.417969 18.488281 90.679688 18.828125 C 94.75 19.058594 97.480469 20.269531 99.246094 21.605469 C 101.207031 23.097656 101.972656 24.753906 102.097656 25.464844 C 102.367188 26.765625 104.117188 33.296875 95.820312 34.1875 Z M 95.820312 34.1875 " fill-opacity="1" fill-rule="nonzero"/><path fill="#f5f7f1" d="M 95.820312 34.1875 C 94.515625 33.191406 92.949219 31.179688 93.519531 27.460938 C 94.464844 21.425781 99.136719 21.585938 99.261719 21.605469 C 101.402344 22.796875 101.886719 23.5625 102.4375 25.378906 C 102.832031 26.640625 103.917969 33.9375 95.820312 34.1875 Z M 95.820312 34.1875 " fill-opacity="1" fill-rule="nonzero"/><path fill="#474340" d="M 86.613281 22.261719 C 86.273438 22.15625 86.1875 22.6875 86.523438 22.796875 C 87.007812 22.957031 88.253906 23.472656 87.578125 24.148438 C 87.078125 24.648438 86.347656 24.238281 85.8125 24.042969 C 85.613281 23.972656 85.382812 24.238281 85.597656 24.378906 C 86.328125 24.859375 87.59375 25.21875 88.148438 24.273438 C 88.738281 23.207031 87.417969 22.511719 86.613281 22.261719 Z M 86.613281 22.261719 " fill-opacity="1" fill-rule="nonzero"/><path fill="#474340" d="M 88.753906 19.734375 C 88.46875 19.664062 88.34375 20.089844 88.59375 20.214844 C 89.039062 20.410156 89.773438 20.820312 89.398438 21.425781 C 89.058594 21.996094 88.238281 21.65625 87.753906 21.550781 C 87.558594 21.515625 87.507812 21.765625 87.648438 21.851562 C 88.328125 22.261719 89.539062 22.441406 89.914062 21.515625 C 90.234375 20.695312 89.503906 19.929688 88.753906 19.734375 Z M 88.753906 19.734375 " fill-opacity="1" fill-rule="nonzero"/><path fill="#d16199" d="M 86.863281 27.015625 C 86.0625 26.945312 85.292969 27.585938 85.257812 28.402344 C 85.222656 29.238281 85.988281 29.933594 86.808594 29.753906 C 87.058594 29.703125 87.273438 29.578125 87.433594 29.398438 C 87.808594 29.328125 88.113281 29.078125 88.203125 28.632812 C 88.378906 27.796875 87.667969 27.085938 86.863281 27.015625 Z M 87.753906 28.402344 C 87.738281 28.296875 87.703125 28.1875 87.667969 28.082031 C 87.648438 28.046875 87.632812 28.027344 87.632812 28.011719 C 87.632812 27.976562 87.632812 27.941406 87.613281 27.90625 C 87.703125 28.046875 87.753906 28.226562 87.753906 28.402344 Z M 86.4375 28.296875 C 86.472656 28.296875 86.488281 28.296875 86.523438 28.296875 C 86.648438 28.296875 86.773438 28.332031 86.847656 28.402344 C 86.863281 28.421875 86.882812 28.457031 86.898438 28.492188 C 86.882812 28.511719 86.882812 28.511719 86.863281 28.527344 C 86.738281 28.597656 86.558594 28.546875 86.472656 28.421875 C 86.472656 28.386719 86.453125 28.347656 86.4375 28.296875 Z M 86.4375 28.296875 " fill-opacity="1" fill-rule="nonzero"/><path fill="#474340" d="M 97.140625 25.539062 C 96.960938 25.339844 96.675781 25.304688 96.460938 25.449219 C 96.410156 25.484375 96.390625 25.539062 96.390625 25.589844 C 96.390625 25.589844 96.371094 25.589844 96.371094 25.589844 C 96.105469 25.734375 96.160156 26.054688 96.335938 26.25 C 96.53125 26.445312 96.855469 26.445312 97.050781 26.265625 C 97.265625 26.070312 97.316406 25.75 97.140625 25.539062 Z M 96.78125 25.910156 C 96.765625 25.929688 96.730469 25.945312 96.710938 25.945312 C 96.695312 25.945312 96.675781 25.945312 96.675781 25.929688 C 96.65625 25.910156 96.640625 25.859375 96.621094 25.839844 C 96.605469 25.804688 96.605469 25.769531 96.585938 25.734375 C 96.640625 25.734375 96.695312 25.734375 96.746094 25.75 C 96.820312 25.820312 96.835938 25.859375 96.78125 25.910156 Z M 96.78125 25.910156 " fill-opacity="1" fill-rule="nonzero"/><path fill="#474340" d="M 98.710938 24.488281 C 98.566406 24.46875 98.40625 24.523438 98.335938 24.648438 C 98.300781 24.71875 98.316406 24.84375 98.316406 24.914062 C 98.316406 24.949219 98.316406 24.96875 98.316406 25.003906 C 98.316406 25.019531 98.316406 25.039062 98.316406 25.058594 C 98.316406 25.09375 98.316406 25.128906 98.316406 25.144531 C 98.300781 25.269531 98.40625 25.324219 98.496094 25.289062 C 98.496094 25.289062 98.496094 25.289062 98.511719 25.289062 C 98.746094 25.394531 99.046875 25.253906 99.121094 25.019531 C 99.191406 24.789062 98.976562 24.523438 98.710938 24.488281 Z M 98.710938 24.488281 " fill-opacity="1" fill-rule="nonzero"/><path fill="#474340" d="M 99.066406 29.3125 C 98.976562 29.132812 98.726562 29.1875 98.726562 29.382812 C 98.746094 29.898438 98.550781 30.484375 97.996094 30.628906 C 97.460938 30.769531 96.945312 30.398438 96.800781 29.898438 C 96.695312 29.558594 96.195312 29.753906 96.285156 30.09375 C 96.515625 30.859375 97.355469 31.375 98.140625 31.144531 C 98.871094 30.929688 99.40625 30.023438 99.066406 29.3125 Z M 99.066406 29.3125 " fill-opacity="1" fill-rule="nonzero"/><path fill="#474340" d="M 85.863281 20.519531 C 85.847656 20.5 85.847656 20.464844 85.828125 20.445312 C 85.828125 20.429688 85.828125 20.394531 85.828125 20.375 C 85.8125 20.234375 85.578125 20.199219 85.5625 20.359375 C 85.5625 20.394531 85.5625 20.410156 85.542969 20.445312 C 85.507812 20.480469 85.488281 20.535156 85.488281 20.589844 C 85.488281 20.714844 85.507812 20.839844 85.507812 20.960938 C 85.527344 21.195312 85.898438 21.160156 85.863281 20.925781 C 85.863281 20.925781 85.863281 20.925781 85.863281 20.910156 C 85.898438 20.875 85.917969 20.855469 85.917969 20.800781 C 85.9375 20.730469 85.898438 20.625 85.863281 20.519531 Z M 85.863281 20.519531 " fill-opacity="1" fill-rule="nonzero"/><path fill="#474340" d="M 84.707031 22.261719 C 84.417969 22.296875 84.117188 22.476562 84.007812 22.742188 C 83.921875 22.921875 84.132812 23.097656 84.292969 22.992188 C 84.3125 22.972656 84.347656 22.957031 84.382812 22.9375 C 84.417969 22.957031 84.472656 22.972656 84.507812 22.972656 C 84.742188 22.957031 84.917969 22.726562 84.9375 22.511719 C 84.9375 22.386719 84.847656 22.246094 84.707031 22.261719 Z M 84.707031 22.261719 " fill-opacity="1" fill-rule="nonzero"/><path fill="#474340" d="M 81.726562 21.015625 C 82.152344 20.394531 81.296875 19.71875 80.921875 19.273438 C 80.496094 18.738281 80.085938 18.222656 79.53125 17.832031 C 79.585938 17.667969 79.601562 17.492188 79.550781 17.347656 C 79.566406 16.992188 79.425781 16.671875 78.976562 16.671875 C 78.800781 16.671875 78.621094 16.707031 78.425781 16.796875 C 78.015625 16.886719 77.605469 17.1875 77.445312 17.546875 C 77.410156 17.617188 77.390625 17.6875 77.390625 17.757812 C 77.246094 18.238281 77.621094 18.703125 78.175781 18.753906 C 78.53125 18.792969 78.890625 18.648438 79.140625 18.398438 C 79.566406 18.828125 79.960938 19.273438 80.335938 19.734375 C 80.621094 20.074219 80.871094 20.519531 81.191406 20.855469 C 81.171875 21.050781 81.386719 21.230469 81.566406 21.175781 C 81.636719 21.195312 81.726562 21.160156 81.707031 21.070312 C 81.726562 21.035156 81.726562 21.035156 81.726562 21.015625 Z M 81.726562 21.015625 " fill-opacity="1" fill-rule="nonzero"/><path fill="#474340" d="M 83.277344 18.632812 C 83.046875 18.3125 82.8125 17.992188 82.582031 17.6875 C 82.476562 17.527344 82.351562 17.402344 82.207031 17.261719 C 82.117188 17.152344 82.011719 17.046875 81.902344 16.957031 C 82.082031 16.746094 82.207031 16.460938 82.277344 16.191406 C 82.367188 15.890625 82.402344 15.570312 82.261719 15.320312 C 82.027344 14.910156 81.53125 14.964844 81.136719 15.105469 C 80.726562 15.25 80.316406 15.550781 80.246094 16.015625 C 80.191406 16.40625 80.421875 16.957031 80.726562 17.207031 C 80.957031 17.402344 81.191406 17.421875 81.40625 17.332031 C 82.011719 18.167969 82.582031 19.039062 82.957031 20.019531 C 83.027344 20.214844 83.296875 20.234375 83.421875 20.109375 C 83.4375 20.109375 83.457031 20.089844 83.472656 20.074219 C 84.152344 19.644531 83.582031 19.09375 83.277344 18.632812 Z M 83.277344 18.632812 " fill-opacity="1" fill-rule="nonzero"/><path fill="#dbaa27" d="M 81.546875 23.667969 C 81.546875 23.703125 81.492188 23.738281 81.457031 23.722656 C 81.046875 23.542969 80.796875 22.972656 80.441406 22.6875 C 80.261719 22.527344 80.066406 22.386719 79.851562 22.28125 C 79.941406 22.171875 80.066406 22.03125 80.210938 21.871094 C 80.40625 22.011719 80.585938 22.15625 80.746094 22.296875 C 81.082031 22.582031 81.671875 23.171875 81.546875 23.667969 Z M 81.546875 23.667969 " fill-opacity="1" fill-rule="nonzero"/><path fill="#dbaa27" d="M 80.65625 25.414062 C 80.191406 25.859375 79.390625 25.980469 78.78125 26.105469 C 78.460938 26.179688 78.140625 26.25 77.800781 26.300781 C 77.835938 26.105469 77.871094 25.910156 77.925781 25.714844 C 78.15625 25.699219 78.390625 25.660156 78.621094 25.609375 C 79.246094 25.484375 79.925781 25.128906 80.566406 25.144531 C 80.691406 25.179688 80.761719 25.324219 80.65625 25.414062 Z M 80.65625 25.414062 " fill-opacity="1" fill-rule="nonzero"/><path fill="#dbaa27" d="M 85.078125 31.820312 C 84.6875 31.214844 84.082031 30.71875 83.597656 30.183594 C 83.152344 29.683594 82.761719 29.097656 82.242188 28.652344 C 82.117188 28.546875 81.886719 28.6875 81.976562 28.847656 C 82.277344 29.488281 82.777344 30.039062 83.222656 30.574219 C 83.671875 31.089844 84.152344 31.765625 84.722656 32.140625 C 84.953125 32.285156 85.242188 32.070312 85.078125 31.820312 Z M 85.078125 31.820312 " fill-opacity="1" fill-rule="nonzero"/><path fill="#474340" d="M 79.101562 53.785156 C 78.90625 52.839844 78.015625 51.953125 77.265625 51.398438 C 77.105469 51.273438 76.925781 51.507812 77.070312 51.632812 C 77.445312 51.953125 77.78125 52.308594 78.085938 52.71875 C 78.355469 53.089844 78.53125 53.535156 78.800781 53.890625 C 78.890625 54.015625 79.140625 53.964844 79.101562 53.785156 Z M 79.101562 53.785156 " fill-opacity="1" fill-rule="nonzero"/><path fill="#474340" d="M 52.753906 62.84375 C 52.128906 60.992188 50.863281 59.195312 48.808594 58.839844 C 47.953125 58.699219 47.0625 58.859375 46.347656 59.355469 C 45.867188 59.695312 45.152344 60.460938 45.242188 61.117188 C 45.152344 61.101562 45.046875 61.101562 44.957031 61.082031 C 43.171875 61.03125 42.886719 62.988281 43.066406 64.324219 C 43.082031 64.535156 43.386719 64.5 43.386719 64.285156 C 43.386719 63.859375 43.40625 63.324219 43.511719 62.863281 C 43.511719 62.898438 43.511719 62.917969 43.511719 62.933594 C 43.511719 62.988281 43.582031 63.023438 43.601562 62.96875 C 43.636719 62.917969 43.65625 62.84375 43.671875 62.792969 C 43.671875 62.828125 43.65625 62.84375 43.65625 62.878906 C 43.566406 63.289062 43.457031 63.769531 43.601562 64.179688 C 43.617188 64.214844 43.65625 64.214844 43.671875 64.179688 C 43.742188 64.019531 43.796875 63.839844 43.816406 63.664062 C 43.832031 63.949219 43.867188 64.234375 43.941406 64.5 C 43.992188 64.714844 44.277344 64.679688 44.367188 64.519531 C 44.386719 64.554688 44.386719 64.589844 44.402344 64.625 C 44.492188 64.910156 44.9375 64.75 44.832031 64.464844 C 44.582031 63.769531 44.582031 63.078125 44.726562 62.398438 C 44.726562 62.648438 44.761719 62.878906 44.777344 63.113281 C 44.8125 63.503906 44.832031 63.929688 45.027344 64.285156 C 45.046875 64.304688 45.082031 64.304688 45.082031 64.269531 C 45.101562 63.878906 44.992188 63.484375 44.957031 63.078125 C 44.9375 62.84375 44.957031 62.597656 44.957031 62.363281 C 45.027344 62.523438 45.082031 62.683594 45.136719 62.863281 C 45.261719 63.34375 45.3125 63.804688 45.386719 64.285156 C 45.402344 64.429688 45.597656 64.445312 45.636719 64.304688 C 45.742188 63.789062 45.707031 63.183594 45.5625 62.613281 C 45.832031 63.199219 46.007812 63.804688 46.207031 64.464844 C 46.257812 64.660156 46.527344 64.570312 46.527344 64.394531 C 46.527344 64.179688 46.507812 63.964844 46.492188 63.753906 C 46.5625 63.878906 46.632812 64.019531 46.6875 64.144531 C 46.757812 64.269531 46.9375 64.214844 46.902344 64.074219 C 46.8125 63.699219 46.6875 63.359375 46.527344 63.003906 C 46.542969 63.023438 46.5625 63.039062 46.597656 63.058594 C 46.632812 63.09375 46.707031 63.058594 46.707031 63.003906 C 46.707031 62.953125 46.707031 62.898438 46.6875 62.84375 C 46.917969 63.34375 47.027344 63.914062 47.097656 64.410156 C 47.132812 64.714844 47.613281 64.679688 47.578125 64.375 C 47.4375 63.078125 46.867188 61.527344 45.527344 61.136719 C 45.652344 60.941406 45.707031 60.710938 45.832031 60.496094 C 46.046875 60.140625 46.347656 59.855469 46.707031 59.640625 C 47.453125 59.179688 48.382812 59.144531 49.222656 59.425781 C 50.828125 59.980469 51.734375 61.492188 52.253906 63.003906 C 52.324219 63.398438 52.859375 63.199219 52.753906 62.84375 Z M 52.753906 62.84375 " fill-opacity="1" fill-rule="nonzero"/><path fill="#dbaa27" d="M 83.921875 35.183594 C 83.777344 35.023438 83.582031 34.917969 83.386719 34.917969 C 83.277344 34.882812 83.152344 34.882812 83.011719 34.953125 C 82.777344 35.042969 82.636719 35.292969 82.527344 35.558594 C 82.476562 35.613281 82.4375 35.683594 82.421875 35.753906 C 82.386719 35.84375 82.386719 35.949219 82.386719 36.039062 C 82.367188 36.09375 82.367188 36.128906 82.367188 36.164062 C 82.277344 36.699219 82.296875 37.339844 82.617188 37.800781 C 82.742188 37.980469 82.921875 38.121094 83.117188 38.191406 C 83.1875 38.28125 83.332031 38.300781 83.4375 38.246094 C 83.546875 38.246094 83.652344 38.226562 83.757812 38.175781 C 84.242188 37.945312 84.257812 37.410156 84.277344 36.945312 C 84.277344 36.414062 84.3125 35.648438 83.921875 35.183594 Z M 83.921875 35.183594 " fill-opacity="1" fill-rule="nonzero"/><path fill="#dbaa27" d="M 78.316406 28.742188 L 78.085938 28.386719 C 78.28125 28.4375 78.480469 28.546875 78.640625 28.6875 C 78.515625 28.671875 78.40625 28.6875 78.316406 28.742188 Z M 78.691406 34.632812 C 78.835938 34.4375 78.960938 34.207031 79.066406 33.957031 C 78.996094 34.222656 78.890625 34.492188 78.691406 34.632812 Z M 79.210938 30.699219 C 79.191406 30.609375 79.15625 30.519531 79.140625 30.433594 C 79.140625 30.414062 79.15625 30.378906 79.15625 30.359375 C 79.191406 30.09375 79.175781 29.863281 79.140625 29.613281 C 79.226562 29.96875 79.246094 30.34375 79.246094 30.71875 C 79.226562 30.71875 79.210938 30.71875 79.210938 30.699219 Z M 77.585938 27.746094 C 78.621094 27.425781 79.65625 28.527344 79.886719 29.558594 C 80.085938 30.449219 80.011719 31.410156 79.976562 32.320312 C 79.941406 33.121094 79.976562 34.046875 79.601562 34.757812 C 79.316406 35.308594 78.691406 35.753906 78.050781 35.523438 C 77.925781 35.488281 77.820312 35.414062 77.730469 35.34375 C 77.585938 35.398438 77.285156 35.628906 77.285156 35.46875 C 76.890625 30.09375 77.585938 27.746094 77.585938 27.746094 Z M 77.585938 27.746094 " fill-opacity="1" fill-rule="nonzero"/><path fill="#dbaa27" d="M 81.457031 41.078125 C 80.886719 39.421875 79.015625 38.066406 77.335938 38.976562 C 77.355469 39.207031 77.355469 39.457031 77.371094 39.6875 C 77.371094 39.6875 77.390625 39.6875 77.390625 39.6875 C 77.335938 41.699219 77.746094 46.167969 77.890625 48 C 78.140625 48.105469 78.40625 48.144531 78.675781 48.144531 C 79.53125 48.125 80.316406 47.609375 80.796875 46.933594 C 81.351562 46.148438 81.546875 45.152344 81.65625 44.226562 C 81.796875 43.160156 81.816406 42.089844 81.457031 41.078125 Z M 79.28125 46.21875 C 79.265625 46.183594 79.226562 46.167969 79.191406 46.148438 C 79.191406 46.148438 79.191406 46.148438 79.191406 46.132812 C 79.210938 46.132812 79.226562 46.132812 79.246094 46.148438 C 79.265625 46.167969 79.28125 46.183594 79.300781 46.203125 C 79.316406 46.21875 79.300781 46.21875 79.28125 46.21875 Z M 80.136719 40.292969 C 80.121094 40.257812 80.101562 40.222656 80.085938 40.167969 C 80.136719 40.222656 80.191406 40.292969 80.226562 40.347656 C 80.210938 40.328125 80.171875 40.3125 80.136719 40.292969 Z M 80.136719 40.292969 " fill-opacity="1" fill-rule="nonzero"/><path fill="#dbaa27" d="M 86.023438 46.273438 C 84.953125 45.988281 83.757812 46.523438 83.332031 47.625 C 83.046875 48.375 83.207031 49.140625 83.367188 49.886719 C 83.472656 50.332031 83.582031 50.792969 83.671875 51.238281 C 83.757812 51.632812 83.8125 52.078125 83.992188 52.433594 C 84.402344 53.199219 85.847656 53.464844 86.648438 53 C 86.417969 50.867188 86.222656 48.550781 86.023438 46.273438 Z M 84.882812 47.199219 C 84.828125 47.179688 84.777344 47.164062 84.722656 47.164062 C 84.6875 47.164062 84.652344 47.164062 84.617188 47.164062 C 84.742188 47.074219 84.867188 47.019531 84.992188 46.984375 C 84.953125 47.058594 84.917969 47.128906 84.882812 47.199219 Z M 84.882812 47.199219 " fill-opacity="1" fill-rule="nonzero"/><path fill="#dbaa27" d="M 82.511719 54.691406 C 82.421875 54.210938 82.332031 53.679688 81.992188 53.304688 C 81.636719 52.929688 81.171875 52.894531 80.691406 52.929688 C 79.960938 52.984375 79.210938 53.019531 78.496094 53.179688 C 78.441406 53.199219 78.40625 53.214844 78.371094 53.25 C 78.28125 53.359375 78.300781 53.554688 78.390625 53.660156 C 78.425781 54.160156 78.496094 54.640625 78.550781 55.136719 C 78.550781 55.136719 78.550781 55.136719 78.550781 55.15625 C 78.585938 55.492188 78.621094 55.851562 78.621094 56.207031 C 78.730469 57.914062 78.691406 58.929688 78.621094 59.515625 C 79.460938 59.996094 80.671875 60.121094 81.492188 59.695312 C 82.546875 59.125 82.652344 57.824219 82.6875 56.757812 C 82.6875 56.082031 82.636719 55.371094 82.511719 54.691406 Z M 79.335938 57.824219 C 79.351562 57.859375 79.371094 57.898438 79.390625 57.933594 C 79.351562 57.949219 79.335938 57.96875 79.316406 57.984375 C 79.316406 57.933594 79.316406 57.878906 79.335938 57.824219 Z M 79.351562 58.679688 C 79.300781 58.679688 79.246094 58.714844 79.210938 58.734375 C 79.226562 58.644531 79.226562 58.574219 79.246094 58.484375 C 79.28125 58.554688 79.351562 58.609375 79.425781 58.625 C 79.425781 58.644531 79.425781 58.644531 79.441406 58.664062 C 79.40625 58.664062 79.390625 58.664062 79.351562 58.679688 Z M 81.65625 54.320312 C 81.691406 54.496094 81.707031 54.675781 81.726562 54.816406 C 81.691406 54.765625 81.636719 54.710938 81.582031 54.675781 C 81.636719 54.566406 81.65625 54.445312 81.65625 54.320312 Z M 81.492188 58.609375 C 81.511719 58.539062 81.492188 58.464844 81.457031 58.394531 C 81.457031 58.378906 81.457031 58.378906 81.457031 58.359375 C 81.511719 58.359375 81.566406 58.359375 81.636719 58.359375 C 81.582031 58.449219 81.546875 58.539062 81.492188 58.609375 Z M 81.832031 57.417969 C 81.777344 57.417969 81.726562 57.417969 81.691406 57.433594 C 81.671875 57.433594 81.636719 57.453125 81.617188 57.453125 C 81.636719 57.363281 81.65625 57.257812 81.671875 57.167969 C 81.726562 57.113281 81.761719 57.042969 81.761719 56.972656 C 81.761719 56.863281 81.777344 56.757812 81.777344 56.632812 C 81.796875 56.527344 81.816406 56.4375 81.851562 56.332031 C 81.851562 56.347656 81.851562 56.382812 81.851562 56.402344 C 81.851562 56.6875 81.867188 57.042969 81.832031 57.417969 Z M 81.832031 57.417969 " fill-opacity="1" fill-rule="nonzero"/><path fill="#dbaa27" d="M 83.492188 64.519531 C 83.457031 63.914062 83.011719 63.449219 82.457031 63.273438 C 81.601562 63.003906 80.582031 63.398438 79.800781 63.734375 C 79.566406 63.839844 79.351562 63.949219 79.140625 64.054688 C 78.800781 64.199219 78.480469 64.375 78.175781 64.605469 C 77.855469 64.804688 77.550781 65.015625 77.230469 65.230469 C 76.175781 65.871094 76.890625 68.417969 78.265625 68.558594 C 78.996094 68.628906 79.816406 68.132812 80.421875 67.777344 C 81.171875 67.367188 81.851562 66.867188 82.476562 66.296875 C 82.972656 65.835938 83.527344 65.230469 83.492188 64.519531 Z M 79.621094 66.386719 C 79.601562 66.386719 79.601562 66.386719 79.621094 66.386719 C 79.566406 66.351562 79.511719 66.316406 79.460938 66.296875 C 79.53125 66.28125 79.585938 66.296875 79.621094 66.386719 Z M 78.085938 66.28125 C 78.085938 66.316406 78.070312 66.332031 78.070312 66.371094 C 78.070312 66.40625 78.070312 66.421875 78.070312 66.457031 C 77.980469 66.601562 77.890625 66.742188 77.820312 66.902344 C 77.820312 66.707031 77.835938 66.492188 77.890625 66.296875 C 77.960938 66.316406 78.015625 66.316406 78.085938 66.28125 Z M 80.621094 66.742188 C 80.636719 66.707031 80.65625 66.652344 80.671875 66.601562 C 80.746094 66.582031 80.832031 66.566406 80.90625 66.546875 C 80.832031 66.601562 80.746094 66.652344 80.671875 66.707031 C 80.65625 66.726562 80.636719 66.726562 80.621094 66.742188 Z M 80.621094 66.742188 " fill-opacity="1" fill-rule="nonzero"/><path fill="#dbaa27" d="M 90.46875 87.730469 C 90.394531 87.746094 90.324219 87.765625 90.234375 87.765625 C 90.21875 87.78125 90.199219 87.78125 90.183594 87.800781 C 88.96875 88.53125 88.46875 86.695312 88.503906 85.878906 C 88.558594 84.988281 89.324219 83.957031 90.21875 84.1875 Z M 90.46875 87.730469 " fill-opacity="1" fill-rule="nonzero"/><path fill="#dbaa27" d="M 62.921875 87.640625 C 62.511719 87.460938 61.707031 87.570312 61.335938 87.871094 C 60.816406 88.316406 60.746094 89.027344 60.871094 89.652344 C 60.996094 90.21875 61.226562 90.84375 61.746094 91.164062 C 62.046875 91.34375 62.816406 91.414062 63.207031 91.394531 L 63.242188 90.113281 L 63.242188 90.078125 L 63.316406 87.570312 L 63.316406 87.550781 C 63.207031 87.550781 63.066406 87.570312 62.921875 87.640625 Z M 63.261719 90.078125 C 63.242188 90.097656 63.226562 90.097656 63.207031 90.113281 C 63.226562 90.113281 63.242188 90.113281 63.261719 90.113281 L 63.277344 90.113281 C 63.261719 90.097656 63.261719 90.078125 63.261719 90.078125 Z M 63.261719 90.078125 " fill-opacity="1" fill-rule="nonzero"/><path fill="#dbaa27" d="M 57.050781 88.050781 L 56.730469 91.378906 C 56.320312 91.554688 55.820312 91.574219 55.609375 91.144531 C 55.484375 90.898438 55.464844 90.542969 55.375 90.273438 C 55.304688 90.042969 55.234375 89.828125 55.179688 89.597656 C 55.089844 89.152344 55.109375 88.671875 55.359375 88.28125 C 55.695312 87.746094 56.445312 87.570312 56.875 87.996094 C 56.964844 87.976562 57.015625 88.011719 57.050781 88.050781 Z M 57.050781 88.050781 " fill-opacity="1" fill-rule="nonzero"/><path fill="#dbaa27" d="M 54.929688 77.707031 C 54.539062 76.976562 53.914062 76.300781 53.109375 76.035156 C 52.433594 75.804688 51.734375 75.910156 51.074219 76.125 C 51.199219 76.730469 51.324219 77.332031 51.449219 77.9375 C 51.664062 79.023438 51.878906 80.378906 52.074219 81.855469 C 52.109375 81.871094 52.148438 81.871094 52.164062 81.871094 C 52.539062 81.945312 53.039062 81.800781 53.394531 81.695312 C 55.285156 81.230469 55.820312 79.308594 54.929688 77.707031 Z M 52.84375 80.964844 C 52.519531 81.019531 52.433594 81.105469 52.359375 80.964844 C 52.414062 80.964844 52.449219 80.964844 52.503906 80.964844 C 52.609375 81 52.734375 80.984375 52.824219 80.945312 C 52.859375 80.964844 52.894531 80.964844 52.929688 80.964844 C 52.914062 80.945312 52.878906 80.964844 52.84375 80.964844 Z M 54.144531 80.429688 C 54.144531 80.394531 54.125 80.359375 54.109375 80.324219 C 54.234375 80.199219 54.324219 80.039062 54.394531 79.878906 C 54.484375 79.753906 54.539062 79.59375 54.554688 79.433594 C 54.554688 79.808594 54.429688 80.144531 54.144531 80.429688 Z M 54.144531 80.429688 " fill-opacity="1" fill-rule="nonzero"/><path fill="#dbaa27" d="M 57.550781 70.160156 C 57.445312 69.679688 56.910156 69.304688 56.570312 69.019531 C 56.179688 68.683594 55.734375 68.328125 55.179688 68.34375 C 54.324219 68.378906 53.949219 69.039062 53.609375 69.699219 C 53.304688 69.964844 53.039062 70.339844 52.96875 70.746094 C 52.769531 71.726562 54.929688 72.4375 55.855469 72.191406 C 56.554688 71.976562 57.730469 70.960938 57.550781 70.160156 Z M 55.625 69.269531 C 55.535156 69.234375 55.445312 69.21875 55.339844 69.199219 C 55.125 69.179688 54.964844 69.304688 54.910156 69.464844 C 54.859375 69.429688 54.785156 69.414062 54.714844 69.394531 C 54.984375 69.128906 55.285156 69.074219 55.625 69.269531 Z M 56.285156 71.015625 C 56.320312 70.835938 56.285156 70.675781 56.195312 70.535156 C 56.320312 70.570312 56.480469 70.570312 56.640625 70.5 C 56.660156 70.5 56.660156 70.480469 56.679688 70.480469 C 56.640625 70.605469 56.535156 70.730469 56.390625 70.890625 C 56.355469 70.925781 56.320312 70.980469 56.285156 71.015625 Z M 56.285156 71.015625 " fill-opacity="1" fill-rule="nonzero"/><path fill="#dbaa27" d="M 61.121094 61.597656 C 60.976562 61.011719 60.78125 60.441406 60.621094 59.855469 C 60.53125 59.550781 60.441406 59.214844 60.335938 58.910156 C 57.75 59.320312 55.445312 60.03125 53.714844 60.992188 C 53.789062 61.3125 53.894531 61.617188 53.964844 61.902344 C 54.089844 62.4375 54.214844 62.988281 54.339844 63.519531 C 54.519531 64.285156 54.75 65.195312 55.570312 65.496094 C 56.410156 65.816406 57.480469 65.335938 58.265625 65.070312 C 59.085938 64.804688 60.066406 64.519531 60.710938 63.914062 C 61.351562 63.289062 61.335938 62.417969 61.121094 61.597656 Z M 56 64.820312 C 56.070312 64.730469 56.125 64.644531 56.195312 64.554688 C 56.285156 64.660156 56.390625 64.730469 56.5 64.785156 C 56.320312 64.820312 56.160156 64.839844 56 64.820312 Z M 56.355469 62.203125 C 56.339844 62.238281 56.320312 62.292969 56.320312 62.328125 C 56.070312 62.277344 55.804688 62.328125 55.589844 62.488281 C 55.589844 62.472656 55.589844 62.453125 55.570312 62.417969 C 55.734375 62.398438 55.875 62.292969 55.910156 62.132812 C 55.929688 62.027344 55.945312 61.917969 55.945312 61.8125 C 56.054688 61.832031 56.179688 61.832031 56.285156 61.8125 C 56.429688 61.792969 56.570312 61.757812 56.695312 61.6875 C 56.570312 61.867188 56.445312 62.042969 56.355469 62.203125 Z M 57.785156 63.164062 C 57.765625 63.09375 57.75 63.003906 57.730469 62.933594 C 57.785156 62.933594 57.835938 62.933594 57.890625 62.917969 C 57.855469 62.988281 57.820312 63.078125 57.785156 63.164062 Z M 58.660156 63.949219 C 58.585938 63.824219 58.460938 63.71875 58.320312 63.734375 C 58.300781 63.734375 58.285156 63.734375 58.285156 63.734375 C 58.300781 63.679688 58.335938 63.644531 58.355469 63.59375 C 58.355469 63.59375 58.371094 63.59375 58.371094 63.59375 C 58.460938 63.574219 58.550781 63.558594 58.640625 63.519531 C 58.710938 63.539062 58.730469 63.59375 58.730469 63.679688 C 58.730469 63.789062 58.710938 63.878906 58.660156 63.949219 Z M 58.996094 62.097656 C 58.960938 61.953125 58.945312 61.8125 58.925781 61.6875 C 58.925781 61.617188 58.890625 61.5625 58.855469 61.527344 C 58.855469 61.527344 58.871094 61.511719 58.871094 61.511719 C 59.03125 61.511719 59.175781 61.527344 59.300781 61.632812 C 59.390625 61.722656 59.441406 61.832031 59.496094 61.953125 C 59.441406 61.972656 59.371094 61.992188 59.316406 62.007812 C 59.210938 62.027344 59.105469 62.0625 58.996094 62.097656 Z M 59.40625 63.839844 C 59.40625 63.804688 59.425781 63.789062 59.425781 63.753906 C 59.425781 63.699219 59.425781 63.664062 59.425781 63.628906 C 59.53125 63.664062 59.640625 63.664062 59.746094 63.664062 C 59.640625 63.734375 59.53125 63.789062 59.40625 63.839844 Z M 59.90625 59.925781 L 59.835938 59.675781 C 59.835938 59.660156 59.835938 59.660156 59.855469 59.640625 C 59.871094 59.730469 59.90625 59.835938 59.941406 59.925781 C 59.90625 59.945312 59.90625 59.945312 59.90625 59.925781 Z M 60.335938 61.386719 L 60.191406 60.871094 C 60.191406 60.871094 60.191406 60.871094 60.210938 60.871094 C 60.265625 61.03125 60.316406 61.207031 60.371094 61.402344 C 60.335938 61.402344 60.335938 61.402344 60.335938 61.386719 Z M 60.335938 61.386719 " fill-opacity="1" fill-rule="nonzero"/><path fill="#dbaa27" d="M 66.597656 67.046875 C 64.921875 65.960938 63.046875 67.207031 61.707031 68.273438 C 60.476562 69.253906 60.511719 70 60.636719 70 C 61.066406 70.695312 61.621094 71.371094 62.457031 71.566406 C 63.367188 71.78125 64.152344 71.210938 64.867188 70.730469 C 65.332031 70.425781 65.792969 70.105469 66.257812 69.804688 C 66.632812 69.554688 67.078125 69.304688 67.292969 68.898438 C 67.667969 68.203125 67.203125 67.4375 66.597656 67.046875 Z M 62.386719 69.074219 C 62.332031 69.128906 62.261719 69.164062 62.207031 69.21875 C 62.15625 69.128906 62.261719 69.074219 62.386719 69.074219 Z M 64.972656 68.539062 C 64.972656 68.523438 64.992188 68.488281 64.992188 68.46875 C 65.027344 68.488281 65.0625 68.488281 65.082031 68.503906 C 65.046875 68.523438 65.027344 68.539062 64.992188 68.558594 C 64.992188 68.539062 64.992188 68.539062 64.972656 68.539062 Z M 62.671875 70.125 C 62.761719 70.035156 62.851562 69.945312 62.941406 69.839844 C 62.992188 69.894531 63.046875 69.929688 63.101562 69.964844 C 63.136719 69.984375 63.171875 70 63.207031 70.019531 C 63.191406 70.035156 63.171875 70.054688 63.171875 70.070312 C 62.976562 70.125 62.78125 70.160156 62.582031 70.195312 C 62.617188 70.179688 62.636719 70.144531 62.671875 70.125 Z M 64.277344 67.578125 C 64.242188 67.597656 64.222656 67.617188 64.1875 67.652344 C 64.046875 67.652344 63.902344 67.667969 63.761719 67.6875 C 63.9375 67.597656 64.136719 67.527344 64.3125 67.472656 C 64.3125 67.507812 64.296875 67.542969 64.277344 67.578125 Z M 63.5625 70.695312 C 63.707031 70.640625 63.867188 70.585938 64.011719 70.535156 C 63.851562 70.640625 63.671875 70.730469 63.511719 70.800781 C 63.527344 70.765625 63.546875 70.730469 63.5625 70.695312 Z M 65.652344 69.414062 C 65.757812 69.304688 65.867188 69.199219 65.953125 69.074219 C 65.992188 69.039062 66.007812 69.003906 66.007812 68.96875 C 66.222656 69.019531 66.417969 68.859375 66.453125 68.664062 C 66.5625 68.558594 66.632812 68.417969 66.652344 68.238281 C 66.652344 68.21875 66.652344 68.183594 66.652344 68.167969 C 66.792969 68.664062 66.167969 69.09375 65.652344 69.414062 Z M 65.652344 69.414062 " fill-opacity="1" fill-rule="nonzero"/><path fill="#dbaa27" d="M 74.769531 59.375 C 74.269531 59.265625 73.234375 59.054688 73.214844 59.070312 C 71.199219 58.714844 69.113281 58.519531 67.042969 58.484375 C 66.917969 59.605469 66.917969 60.761719 67.5625 61.742188 C 68.273438 62.808594 69.414062 62.96875 70.609375 62.828125 C 71.308594 62.738281 71.984375 62.613281 72.664062 62.453125 C 73.269531 62.3125 73.984375 62.1875 74.464844 61.777344 C 75.179688 61.136719 75.570312 59.730469 74.769531 59.375 Z M 74.269531 60.265625 C 74.160156 60.476562 74 60.65625 73.824219 60.832031 C 73.859375 60.957031 73.875 61.082031 73.859375 61.242188 C 74.195312 60.992188 74.285156 60.636719 74.269531 60.265625 Z M 73.109375 60.015625 C 73.039062 60.015625 72.964844 59.996094 72.894531 59.980469 C 72.878906 59.996094 72.859375 60.015625 72.839844 60.050781 C 72.949219 60.066406 73.054688 60.105469 73.164062 60.140625 C 73.164062 60.105469 73.144531 60.066406 73.109375 60.015625 Z M 69.703125 59.445312 C 69.578125 59.425781 69.488281 59.339844 69.46875 59.25 C 69.453125 59.339844 69.433594 59.425781 69.414062 59.515625 C 69.664062 59.515625 69.933594 59.515625 70.183594 59.5 C 70.023438 59.480469 69.863281 59.464844 69.703125 59.445312 Z M 69.34375 61.777344 C 69.308594 61.722656 69.273438 61.652344 69.238281 61.597656 C 69.167969 61.632812 69.078125 61.652344 68.988281 61.671875 C 69.058594 61.707031 69.128906 61.742188 69.21875 61.757812 C 69.253906 61.777344 69.308594 61.777344 69.34375 61.777344 Z M 68.578125 60.691406 C 68.578125 60.761719 68.578125 60.816406 68.558594 60.886719 C 68.648438 60.851562 68.738281 60.816406 68.828125 60.78125 C 68.828125 60.746094 68.84375 60.726562 68.84375 60.691406 C 68.773438 60.691406 68.683594 60.691406 68.578125 60.691406 Z M 67.738281 59.585938 C 67.738281 59.695312 67.738281 59.820312 67.757812 59.925781 C 67.792969 59.90625 67.828125 59.890625 67.863281 59.890625 C 67.882812 59.820312 67.933594 59.765625 68.007812 59.710938 C 68.007812 59.695312 68.007812 59.695312 68.007812 59.675781 C 68.007812 59.605469 68.007812 59.550781 68.007812 59.5 C 67.933594 59.585938 67.828125 59.605469 67.738281 59.585938 Z M 68.632812 59.5 C 68.613281 59.585938 68.59375 59.695312 68.578125 59.800781 C 68.578125 59.800781 68.578125 59.820312 68.578125 59.820312 C 68.667969 59.890625 68.703125 59.996094 68.71875 60.105469 C 68.738281 60.105469 68.738281 60.105469 68.757812 60.105469 C 68.757812 59.890625 68.703125 59.675781 68.632812 59.5 Z M 68.632812 59.5 " fill-opacity="1" fill-rule="nonzero"/><path fill="#dbaa27" d="M 87.703125 75.109375 C 87.203125 75.234375 86.757812 75.75 86.3125 76.015625 C 85.738281 76.355469 85.132812 76.585938 84.492188 76.746094 C 83.222656 77.066406 81.867188 77.050781 80.636719 76.640625 C 80.171875 76.480469 79.835938 77.191406 80.296875 77.332031 C 81.691406 77.796875 83.152344 77.851562 84.582031 77.492188 C 85.277344 77.316406 85.953125 77.03125 86.558594 76.675781 C 87.078125 76.371094 87.828125 75.945312 87.988281 75.339844 C 88.058594 75.179688 87.84375 75.074219 87.703125 75.109375 Z M 87.703125 75.109375 " fill-opacity="1" fill-rule="nonzero"/><path fill="#dbaa27" d="M 62.066406 77.546875 C 61.65625 78.367188 61.085938 79.097656 60.441406 79.753906 C 60.066406 80.144531 59.65625 80.574219 59.230469 80.945312 C 58.496094 81.070312 57.980469 81.144531 57.785156 81.179688 C 57.800781 81.160156 57.800781 81.160156 57.820312 81.144531 C 58.355469 80.539062 59.070312 80.058594 59.640625 79.46875 C 60.226562 78.898438 60.761719 78.277344 61.191406 77.566406 C 62.066406 76.105469 62.28125 74.414062 61.566406 72.867188 C 61.421875 72.546875 61.921875 72.296875 62.101562 72.582031 C 63.082031 74.078125 62.851562 76.035156 62.066406 77.546875 Z M 62.066406 77.546875 " fill-opacity="1" fill-rule="nonzero"/><path fill="#ffc533" d="M 70.378906 21.105469 C 70.378906 21.105469 76.089844 18.078125 81.082031 23.542969 C 81.082031 23.542969 79.710938 26.695312 74.894531 25.734375 C 70.074219 24.789062 70.378906 21.105469 70.378906 21.105469 Z M 70.378906 21.105469 " fill-opacity="1" fill-rule="nonzero"/><path fill="#d16199" d="M 79.621094 23.757812 C 78.941406 23.007812 77.996094 22.421875 77 22.046875 C 76.570312 21.871094 76.125 21.746094 75.660156 21.675781 C 75.355469 21.621094 75.070312 21.585938 74.769531 21.566406 C 74.714844 21.566406 74.660156 21.585938 74.644531 21.621094 C 74.644531 21.621094 74.644531 21.621094 74.625 21.621094 C 74.609375 21.621094 74.570312 21.621094 74.554688 21.640625 C 74.484375 21.65625 74.429688 21.726562 74.445312 21.816406 C 74.429688 21.960938 74.484375 22.136719 74.554688 22.261719 C 74.570312 22.296875 74.609375 22.351562 74.644531 22.40625 C 74.75 22.742188 75.105469 23.027344 75.375 23.242188 C 75.765625 23.5625 76.214844 23.828125 76.695312 24.023438 C 77.585938 24.378906 78.675781 24.523438 79.601562 24.203125 C 79.816406 24.09375 79.78125 23.828125 79.621094 23.757812 Z M 76.035156 22.957031 C 76.140625 23.046875 76.25 23.132812 76.355469 23.222656 C 76.175781 23.117188 76 23.007812 75.820312 22.867188 C 75.910156 22.902344 75.964844 22.9375 76.035156 22.957031 Z M 76.035156 22.957031 " fill-opacity="1" fill-rule="nonzero"/><path fill="#dbaa27" d="M 82.207031 87.585938 C 81.902344 87.265625 81.40625 87.230469 81.011719 87.390625 C 80.886719 87.445312 80.761719 87.53125 80.671875 87.621094 C 80.671875 87.621094 80.671875 87.621094 80.65625 87.621094 C 79.601562 87.675781 80.296875 89.527344 80.78125 89.917969 C 81.636719 90.59375 82.511719 89.703125 82.546875 88.832031 C 82.546875 88.441406 82.511719 87.90625 82.207031 87.585938 Z M 82.207031 87.585938 " fill-opacity="1" fill-rule="nonzero"/><g clip-path="url(#id3)"><path fill="#474340" d="M 84.097656 98.335938 C 84.007812 97.855469 83.882812 96.449219 83.582031 96.433594 C 83.0625 96.414062 82.402344 96.523438 81.902344 96.628906 C 81.511719 96.71875 81.03125 96.71875 80.78125 97.054688 C 80.460938 97.484375 80.65625 98.710938 80.761719 99.136719 C 80.886719 99.65625 81.316406 100.542969 81.921875 99.9375 C 82.191406 99.691406 82.152344 99.28125 82.136719 98.941406 C 82.136719 98.691406 82.136719 98.445312 82.117188 98.210938 C 82.152344 98.335938 82.207031 98.445312 82.242188 98.550781 C 82.476562 99.121094 83.242188 100.332031 83.957031 99.566406 C 84.257812 99.246094 84.167969 98.730469 84.097656 98.335938 Z M 84.097656 98.335938 " fill-opacity="1" fill-rule="nonzero"/></g><path fill="#474340" d="M 91.109375 95.882812 C 91.074219 95.738281 90.96875 95.632812 90.769531 95.648438 C 90.269531 95.703125 89.773438 95.757812 89.273438 95.792969 C 88.828125 95.828125 88.34375 95.757812 87.933594 95.933594 C 87.753906 96.023438 87.792969 97.839844 87.863281 98.390625 C 87.917969 98.816406 88.113281 99.246094 88.628906 99.171875 C 89.503906 99.03125 89.574219 98.195312 89.523438 97.410156 C 89.539062 97.410156 89.574219 97.429688 89.609375 97.429688 C 89.609375 97.429688 89.628906 97.429688 89.628906 97.429688 C 89.683594 97.625 89.734375 97.804688 89.808594 97.980469 C 89.859375 98.496094 89.96875 99.191406 90.394531 99.296875 C 90.949219 99.457031 91.109375 98.691406 91.179688 98.320312 C 91.269531 97.875 91.378906 96.433594 91.109375 95.882812 Z M 91.109375 95.882812 " fill-opacity="1" fill-rule="nonzero"/><g clip-path="url(#id4)"><path fill="#474340" d="M 63.066406 97.125 C 62.136719 97.074219 61.15625 97.144531 60.226562 97.214844 C 59.996094 97.234375 60.03125 98.015625 60.03125 98.195312 C 60.03125 98.410156 60.066406 99.582031 60.210938 99.886719 C 60.210938 99.886719 60.210938 99.902344 60.210938 99.902344 C 60.265625 100.222656 60.425781 100.527344 60.816406 100.4375 C 61.261719 100.347656 61.351562 99.761719 61.421875 99.386719 C 61.441406 99.261719 61.476562 99.136719 61.476562 99.011719 C 61.511719 99.03125 61.546875 99.050781 61.566406 99.050781 C 61.601562 99.777344 61.796875 100.457031 62.457031 100.402344 C 62.957031 100.347656 63.101562 99.867188 63.136719 99.441406 C 63.207031 98.851562 63.351562 97.144531 63.066406 97.125 Z M 63.066406 97.125 " fill-opacity="1" fill-rule="nonzero"/></g><g clip-path="url(#id5)"><path fill="#474340" d="M 56.589844 97.019531 C 55.679688 97.164062 54.519531 97.074219 53.644531 97.324219 C 53.519531 97.359375 53.464844 97.484375 53.484375 97.589844 C 53.449219 97.644531 53.429688 97.695312 53.429688 97.769531 C 53.394531 98.496094 53.414062 99.261719 53.539062 99.976562 C 53.609375 100.367188 53.824219 100.757812 54.289062 100.6875 C 54.824219 100.597656 54.949219 99.976562 55.035156 99.53125 C 55.074219 99.351562 55.109375 99.171875 55.144531 98.976562 C 55.214844 99.832031 55.464844 100.722656 56.179688 100.617188 C 56.75 100.527344 56.839844 99.921875 56.855469 99.441406 C 56.910156 98.816406 56.890625 96.964844 56.589844 97.019531 Z M 56.589844 97.019531 " fill-opacity="1" fill-rule="nonzero"/></g></svg>