<svg xmlns="http://www.w3.org/2000/svg" xmlns:xlink="http://www.w3.org/1999/xlink" width="300" zoomAndPan="magnify" viewBox="0 0 224.87999 225" height="300" preserveAspectRatio="xMidYMid meet" version="1.0"><defs><clipPath id="d5f34f75b8"><path d="M 33.09375 23 L 192 23 L 192 202 L 33.09375 202 Z M 33.09375 23 " clip-rule="nonzero"/></clipPath><clipPath id="7452989f00"><path d="M 33.09375 22.546875 L 192 22.546875 L 192 202.453125 L 33.09375 202.453125 Z M 33.09375 22.546875 " clip-rule="nonzero"/></clipPath><clipPath id="58a889d19b"><path d="M 33.09375 31 L 178 31 L 178 202 L 33.09375 202 Z M 33.09375 31 " clip-rule="nonzero"/></clipPath><clipPath id="f00ade9c76"><path d="M 33.09375 30 L 179 30 L 179 202.453125 L 33.09375 202.453125 Z M 33.09375 30 " clip-rule="nonzero"/></clipPath><clipPath id="f28794251a"><path d="M 89 22.546875 L 190 22.546875 L 190 34 L 89 34 Z M 89 22.546875 " clip-rule="nonzero"/></clipPath></defs><g clip-path="url(#d5f34f75b8)"><path fill="#000000" d="M 185.082031 23.171875 L 107.234375 23.171875 C 106.257812 23.171875 105.339844 23.402344 104.515625 23.800781 L 104.515625 23.796875 L 104.507812 23.804688 C 104.160156 23.972656 103.828125 24.171875 103.519531 24.398438 L 90.277344 32.40625 C 88.460938 33.5 87.238281 35.484375 87.238281 37.757812 L 87.238281 62.097656 C 87.238281 65.546875 90.039062 68.34375 93.492188 68.34375 L 113.972656 68.34375 L 113.972656 143.363281 C 113.972656 148.238281 112.34375 152.738281 109.609375 156.355469 C 108.574219 156.527344 107.511719 156.628906 106.429688 156.648438 C 94.3125 156.851562 84.394531 146.691406 84.394531 134.59375 L 84.394531 122.851562 C 84.394531 119.402344 81.59375 116.605469 78.140625 116.605469 L 53.761719 116.605469 C 52.464844 116.605469 51.261719 117 50.261719 117.675781 L 36.835938 125.824219 C 35 126.914062 33.765625 128.90625 33.765625 131.191406 L 33.765625 142.617188 C 33.765625 174.800781 59.503906 201.507812 91.734375 201.820312 C 105.941406 201.957031 119.011719 197.015625 129.230469 188.703125 C 150.019531 179.71875 164.601562 159.042969 164.601562 135.023438 L 164.601562 68.34375 L 171.339844 68.34375 C 172.886719 68.34375 174.300781 67.777344 175.394531 66.847656 L 175.394531 66.851562 L 188.277344 59.125 L 188.273438 59.121094 C 190.105469 58.035156 191.335938 56.042969 191.335938 53.761719 L 191.335938 29.417969 C 191.335938 25.96875 188.535156 23.171875 185.082031 23.171875 Z M 185.082031 23.171875 " fill-opacity="1" fill-rule="nonzero"/></g><g clip-path="url(#7452989f00)"><path fill="#000000" d="M 92.296875 202.445312 C 92.109375 202.445312 91.917969 202.445312 91.730469 202.445312 C 76.019531 202.292969 61.277344 195.957031 50.214844 184.605469 C 39.207031 173.304688 33.140625 158.394531 33.140625 142.617188 L 33.140625 131.191406 C 33.140625 128.792969 34.425781 126.535156 36.496094 125.296875 C 36.5 125.296875 36.503906 125.292969 36.511719 125.289062 L 49.925781 117.148438 C 51.0625 116.386719 52.386719 115.980469 53.761719 115.980469 L 78.140625 115.980469 C 81.933594 115.980469 85.019531 119.0625 85.019531 122.851562 L 85.019531 134.59375 C 85.019531 140.328125 87.390625 145.945312 91.519531 150 C 95.570312 153.976562 100.863281 156.117188 106.417969 156.023438 C 107.363281 156.007812 108.320312 155.925781 109.261719 155.78125 C 111.933594 152.15625 113.347656 147.867188 113.347656 143.363281 L 113.347656 68.96875 L 93.492188 68.96875 C 89.699219 68.96875 86.613281 65.886719 86.613281 62.097656 L 86.613281 37.757812 C 86.613281 35.34375 87.847656 33.15625 89.917969 31.894531 C 89.929688 31.886719 89.941406 31.878906 89.953125 31.871094 L 103.171875 23.878906 C 103.503906 23.636719 103.863281 23.421875 104.230469 23.242188 C 104.234375 23.242188 104.238281 23.238281 104.246094 23.238281 C 105.191406 22.78125 106.195312 22.546875 107.234375 22.546875 L 185.082031 22.546875 C 188.875 22.546875 191.960938 25.628906 191.960938 29.417969 L 191.960938 53.757812 C 191.960938 56.144531 190.6875 58.390625 188.636719 59.632812 C 188.625 59.640625 188.613281 59.652344 188.597656 59.660156 L 175.753906 67.363281 C 174.515625 68.398438 172.949219 68.96875 171.339844 68.96875 L 165.226562 68.96875 L 165.226562 135.023438 C 165.226562 158.566406 151.226562 179.839844 129.558594 189.242188 C 119.042969 197.769531 105.832031 202.445312 92.296875 202.445312 Z M 37.175781 126.347656 C 37.167969 126.351562 37.160156 126.355469 37.15625 126.363281 C 35.425781 127.386719 34.394531 129.191406 34.394531 131.191406 L 34.394531 142.617188 C 34.394531 174.609375 60.121094 200.890625 91.742188 201.195312 C 91.925781 201.195312 92.113281 201.199219 92.296875 201.199219 C 105.574219 201.199219 118.53125 196.601562 128.835938 188.21875 C 128.878906 188.183594 128.929688 188.152344 128.980469 188.128906 C 150.238281 178.941406 163.976562 158.097656 163.976562 135.023438 L 163.976562 68.34375 C 163.976562 68 164.253906 67.71875 164.601562 67.71875 L 171.339844 67.71875 C 172.671875 67.71875 173.96875 67.242188 174.988281 66.375 C 175.027344 66.339844 175.066406 66.3125 175.109375 66.292969 L 187.910156 58.613281 C 187.925781 58.605469 187.9375 58.59375 187.953125 58.585938 C 189.679688 57.558594 190.710938 55.753906 190.710938 53.757812 L 190.710938 29.417969 C 190.710938 26.320312 188.183594 23.796875 185.082031 23.796875 L 107.234375 23.796875 C 106.386719 23.796875 105.5625 23.988281 104.789062 24.359375 C 104.785156 24.363281 104.785156 24.363281 104.78125 24.363281 C 104.46875 24.515625 104.171875 24.695312 103.894531 24.902344 C 103.878906 24.914062 103.863281 24.921875 103.84375 24.933594 L 90.640625 32.917969 C 90.625 32.925781 90.613281 32.933594 90.601562 32.941406 C 88.886719 33.96875 87.863281 35.769531 87.863281 37.757812 L 87.863281 62.097656 C 87.863281 65.199219 90.386719 67.71875 93.492188 67.71875 L 113.972656 67.71875 C 114.316406 67.71875 114.597656 68 114.597656 68.34375 L 114.597656 143.363281 C 114.597656 148.222656 113.046875 152.847656 110.109375 156.734375 C 110.011719 156.859375 109.871094 156.945312 109.714844 156.972656 C 108.628906 157.152344 107.527344 157.253906 106.4375 157.269531 C 100.550781 157.371094 94.933594 155.105469 90.640625 150.890625 C 86.273438 146.601562 83.769531 140.664062 83.769531 134.59375 L 83.769531 122.851562 C 83.769531 119.753906 81.246094 117.230469 78.140625 117.230469 L 53.761719 117.230469 C 52.632812 117.230469 51.542969 117.5625 50.613281 118.195312 C 50.605469 118.199219 50.59375 118.207031 50.585938 118.210938 Z M 37.175781 126.347656 " fill-opacity="1" fill-rule="nonzero"/></g><g clip-path="url(#58a889d19b)"><path fill="#ffffff" d="M 91.734375 201.820312 C 59.503906 201.507812 33.765625 174.800781 33.765625 142.617188 L 33.765625 131.191406 C 33.765625 127.742188 36.566406 124.945312 40.023438 124.945312 L 64.398438 124.945312 C 67.855469 124.945312 70.652344 127.742188 70.652344 131.191406 L 70.652344 142.929688 C 70.652344 155.03125 80.570312 165.191406 92.6875 164.984375 C 104.457031 164.785156 113.972656 155.164062 113.972656 143.363281 L 113.972656 68.34375 L 93.492188 68.34375 C 90.039062 68.34375 87.238281 65.546875 87.238281 62.097656 L 87.238281 37.757812 C 87.238281 34.308594 90.039062 31.511719 93.492188 31.511719 L 171.339844 31.511719 C 174.792969 31.511719 177.59375 34.308594 177.59375 37.757812 L 177.59375 62.097656 C 177.59375 65.546875 174.792969 68.34375 171.339844 68.34375 L 150.859375 68.34375 L 150.859375 143.363281 C 150.859375 175.789062 124.28125 202.132812 91.734375 201.820312 Z M 91.734375 201.820312 " fill-opacity="1" fill-rule="nonzero"/></g><g clip-path="url(#f00ade9c76)"><path fill="#000000" d="M 92.316406 202.445312 C 92.121094 202.445312 91.925781 202.445312 91.730469 202.445312 C 76.019531 202.292969 61.277344 195.957031 50.214844 184.605469 C 39.207031 173.304688 33.140625 158.394531 33.140625 142.617188 L 33.140625 131.191406 C 33.140625 127.402344 36.226562 124.320312 40.023438 124.320312 L 64.398438 124.320312 C 68.191406 124.320312 71.28125 127.402344 71.28125 131.191406 L 71.28125 142.929688 C 71.28125 148.667969 73.648438 154.285156 77.777344 158.339844 C 81.828125 162.316406 87.125 164.453125 92.675781 164.363281 C 104.074219 164.167969 113.347656 154.746094 113.347656 143.363281 L 113.347656 68.96875 L 93.492188 68.96875 C 89.699219 68.96875 86.613281 65.886719 86.613281 62.097656 L 86.613281 37.757812 C 86.613281 33.96875 89.699219 30.886719 93.492188 30.886719 L 171.339844 30.886719 C 175.132812 30.886719 178.21875 33.96875 178.21875 37.757812 L 178.21875 62.097656 C 178.21875 65.886719 175.132812 68.96875 171.339844 68.96875 L 151.484375 68.96875 L 151.484375 143.363281 C 151.484375 159.226562 145.25 174.128906 133.929688 185.324219 C 122.75 196.378906 107.992188 202.445312 92.316406 202.445312 Z M 91.742188 201.195312 C 107.308594 201.347656 121.96875 195.394531 133.050781 184.4375 C 144.128906 173.480469 150.234375 158.890625 150.234375 143.363281 L 150.234375 68.34375 C 150.234375 68 150.515625 67.71875 150.859375 67.71875 L 171.339844 67.71875 C 174.441406 67.71875 176.96875 65.199219 176.96875 62.097656 L 176.96875 37.757812 C 176.96875 34.65625 174.441406 32.136719 171.339844 32.136719 L 93.492188 32.136719 C 90.386719 32.136719 87.863281 34.65625 87.863281 37.757812 L 87.863281 62.097656 C 87.863281 65.199219 90.386719 67.71875 93.492188 67.71875 L 113.972656 67.71875 C 114.316406 67.71875 114.597656 68 114.597656 68.34375 L 114.597656 143.363281 C 114.597656 149.230469 112.320312 154.769531 108.1875 158.960938 C 104.0625 163.148438 98.558594 165.511719 92.699219 165.609375 C 86.808594 165.710938 81.195312 163.445312 76.898438 159.230469 C 72.53125 154.941406 70.027344 149.003906 70.027344 142.929688 L 70.027344 131.191406 C 70.027344 128.09375 67.503906 125.570312 64.398438 125.570312 L 40.023438 125.570312 C 36.917969 125.570312 34.394531 128.09375 34.394531 131.191406 L 34.394531 142.617188 C 34.394531 174.609375 60.121094 200.890625 91.742188 201.195312 Z M 91.742188 201.195312 " fill-opacity="1" fill-rule="nonzero"/></g><path fill="#c2b092" d="M 150.859375 143.363281 C 150.859375 161.632812 142.421875 177.972656 129.230469 188.703125 C 150.019531 179.71875 164.601562 159.042969 164.601562 135.023438 L 164.601562 68.34375 L 150.859375 68.34375 Z M 150.859375 143.363281 " fill-opacity="1" fill-rule="nonzero"/><path fill="#000000" d="M 129.230469 189.328125 C 129.019531 189.328125 128.8125 189.21875 128.695312 189.027344 C 128.535156 188.761719 128.59375 188.414062 128.835938 188.21875 C 142.433594 177.15625 150.234375 160.808594 150.234375 143.363281 L 150.234375 68.34375 C 150.234375 68 150.515625 67.71875 150.859375 67.71875 L 164.601562 67.71875 C 164.945312 67.71875 165.226562 68 165.226562 68.34375 L 165.226562 135.023438 C 165.226562 158.597656 151.195312 179.890625 129.480469 189.273438 C 129.398438 189.308594 129.3125 189.328125 129.230469 189.328125 Z M 151.484375 68.96875 L 151.484375 143.363281 C 151.484375 159.667969 144.816406 175.035156 133.042969 186.183594 C 151.972656 176.214844 163.976562 156.59375 163.976562 135.023438 L 163.976562 68.96875 Z M 151.484375 68.96875 " fill-opacity="1" fill-rule="nonzero"/><path fill="#c2b092" d="M 185.082031 23.171875 L 107.234375 23.171875 C 106.257812 23.171875 105.339844 23.402344 104.515625 23.800781 L 104.515625 23.796875 L 104.507812 23.804688 C 104.160156 23.972656 103.828125 24.171875 103.519531 24.398438 L 90.277344 32.40625 C 91.21875 31.84375 92.316406 31.511719 93.492188 31.511719 L 171.339844 31.511719 C 172.90625 31.511719 174.332031 32.089844 175.429688 33.039062 L 189.097656 24.632812 C 188.011719 23.722656 186.609375 23.171875 185.082031 23.171875 Z M 185.082031 23.171875 " fill-opacity="1" fill-rule="nonzero"/><g clip-path="url(#f28794251a)"><path fill="#000000" d="M 175.429688 33.664062 C 175.28125 33.664062 175.136719 33.613281 175.019531 33.511719 C 173.996094 32.625 172.6875 32.136719 171.339844 32.136719 L 93.492188 32.136719 C 92.480469 32.136719 91.480469 32.414062 90.601562 32.941406 C 90.375 33.078125 90.082031 33.054688 89.878906 32.886719 C 89.722656 32.757812 89.640625 32.558594 89.65625 32.359375 C 89.667969 32.15625 89.78125 31.976562 89.953125 31.871094 L 103.171875 23.878906 C 103.503906 23.636719 103.859375 23.421875 104.230469 23.242188 C 104.234375 23.242188 104.238281 23.238281 104.246094 23.238281 C 105.191406 22.78125 106.195312 22.546875 107.234375 22.546875 L 185.082031 22.546875 C 186.695312 22.546875 188.261719 23.117188 189.5 24.15625 C 189.652344 24.285156 189.734375 24.480469 189.722656 24.679688 C 189.707031 24.878906 189.597656 25.058594 189.425781 25.164062 L 175.757812 33.570312 C 175.65625 33.632812 175.542969 33.664062 175.429688 33.664062 Z M 93.996094 30.886719 L 171.339844 30.886719 C 172.835938 30.886719 174.285156 31.378906 175.476562 32.273438 L 187.96875 24.59375 C 187.101562 24.078125 186.101562 23.796875 185.082031 23.796875 L 107.234375 23.796875 C 106.386719 23.796875 105.5625 23.988281 104.789062 24.359375 C 104.785156 24.363281 104.785156 24.363281 104.78125 24.363281 C 104.46875 24.515625 104.171875 24.695312 103.894531 24.902344 C 103.878906 24.914062 103.863281 24.925781 103.84375 24.933594 Z M 93.996094 30.886719 " fill-opacity="1" fill-rule="nonzero"/></g><path fill="#c2b092" d="M 189.097656 24.632812 L 175.429688 33.039062 C 176.753906 34.183594 177.59375 35.871094 177.59375 37.757812 L 177.59375 62.097656 C 177.59375 64 176.738281 65.703125 175.394531 66.847656 L 175.394531 66.851562 L 188.277344 59.125 L 188.273438 59.121094 C 190.105469 58.035156 191.335938 56.042969 191.335938 53.761719 L 191.335938 29.417969 C 191.335938 27.496094 190.464844 25.78125 189.097656 24.632812 Z M 189.097656 24.632812 " fill-opacity="1" fill-rule="nonzero"/><path fill="#000000" d="M 175.394531 67.472656 C 175.332031 67.472656 175.269531 67.464844 175.207031 67.445312 C 175.035156 67.390625 174.894531 67.265625 174.824219 67.105469 C 174.710938 66.851562 174.777344 66.554688 174.988281 66.375 C 176.246094 65.300781 176.96875 63.742188 176.96875 62.097656 L 176.96875 37.757812 C 176.96875 36.128906 176.257812 34.582031 175.019531 33.511719 C 174.867188 33.378906 174.789062 33.1875 174.804688 32.988281 C 174.820312 32.789062 174.929688 32.609375 175.101562 32.507812 L 188.769531 24.101562 C 189 23.960938 189.292969 23.984375 189.5 24.15625 C 191.0625 25.464844 191.960938 27.382812 191.960938 29.417969 L 191.960938 53.757812 C 191.960938 56.144531 190.6875 58.390625 188.636719 59.632812 C 188.625 59.640625 188.613281 59.652344 188.597656 59.660156 L 175.714844 67.386719 C 175.617188 67.445312 175.507812 67.472656 175.394531 67.472656 Z M 176.4375 33.152344 C 177.578125 34.410156 178.21875 36.046875 178.21875 37.757812 L 178.21875 62.097656 C 178.21875 63.019531 178.035156 63.917969 177.6875 64.746094 L 187.910156 58.613281 C 187.925781 58.605469 187.9375 58.59375 187.953125 58.585938 C 189.679688 57.558594 190.710938 55.753906 190.710938 53.757812 L 190.710938 29.417969 C 190.710938 27.902344 190.101562 26.464844 189.027344 25.410156 Z M 176.4375 33.152344 " fill-opacity="1" fill-rule="nonzero"/><path fill="#c2b092" d="M 78.140625 116.605469 L 53.761719 116.605469 C 52.464844 116.605469 51.261719 117 50.261719 117.675781 L 36.835938 125.824219 C 37.769531 125.269531 38.855469 124.945312 40.023438 124.945312 L 64.398438 124.945312 C 66.070312 124.945312 67.585938 125.605469 68.707031 126.671875 L 82.375 118.265625 C 81.261719 117.238281 79.777344 116.605469 78.140625 116.605469 Z M 78.140625 116.605469 " fill-opacity="1" fill-rule="nonzero"/><path fill="#000000" d="M 68.707031 127.292969 C 68.550781 127.292969 68.394531 127.234375 68.273438 127.121094 C 67.222656 126.121094 65.84375 125.570312 64.398438 125.570312 L 40.023438 125.570312 C 39.019531 125.570312 38.027344 125.84375 37.15625 126.359375 C 37 126.453125 36.816406 126.472656 36.648438 126.421875 C 36.414062 126.347656 36.242188 126.144531 36.214844 125.898438 C 36.183594 125.65625 36.300781 125.417969 36.507812 125.289062 L 49.925781 117.148438 C 51.0625 116.386719 52.386719 115.980469 53.761719 115.980469 L 78.140625 115.980469 C 79.867188 115.980469 81.523438 116.628906 82.800781 117.804688 C 82.941406 117.9375 83.015625 118.132812 82.996094 118.324219 C 82.980469 118.519531 82.871094 118.695312 82.703125 118.796875 L 69.035156 127.203125 C 68.933594 127.265625 68.820312 127.292969 68.707031 127.292969 Z M 40.515625 124.320312 L 64.398438 124.320312 C 66.003906 124.320312 67.542969 124.878906 68.773438 125.894531 L 81.289062 118.199219 C 80.363281 117.570312 79.269531 117.230469 78.140625 117.230469 L 53.761719 117.230469 C 52.632812 117.230469 51.542969 117.5625 50.613281 118.195312 C 50.605469 118.199219 50.59375 118.203125 50.585938 118.210938 Z M 40.515625 124.320312 " fill-opacity="1" fill-rule="nonzero"/><path fill="#c2b092" d="M 106.429688 156.648438 C 94.3125 156.851562 84.394531 146.691406 84.394531 134.59375 L 84.394531 122.851562 C 84.394531 121.035156 83.613281 119.40625 82.375 118.265625 L 68.707031 126.671875 C 69.902344 127.808594 70.652344 129.410156 70.652344 131.191406 L 70.652344 142.929688 C 70.652344 155.03125 80.570312 165.191406 92.6875 164.984375 C 99.597656 164.867188 105.722656 161.503906 109.609375 156.355469 C 108.574219 156.527344 107.511719 156.628906 106.429688 156.648438 Z M 106.429688 156.648438 " fill-opacity="1" fill-rule="nonzero"/><path fill="#000000" d="M 92.324219 165.613281 C 86.566406 165.613281 81.101562 163.355469 76.898438 159.230469 C 72.53125 154.941406 70.027344 149.003906 70.027344 142.929688 L 70.027344 131.191406 C 70.027344 129.640625 69.40625 128.195312 68.273438 127.121094 C 68.132812 126.988281 68.0625 126.796875 68.085938 126.605469 C 68.105469 126.414062 68.214844 126.238281 68.378906 126.136719 L 82.046875 117.734375 C 82.285156 117.585938 82.59375 117.617188 82.800781 117.804688 C 84.210938 119.105469 85.019531 120.945312 85.019531 122.851562 L 85.019531 134.59375 C 85.019531 140.328125 87.386719 145.945312 91.519531 150 C 95.570312 153.976562 100.863281 156.117188 106.417969 156.023438 C 107.445312 156.003906 108.484375 155.910156 109.507812 155.742188 C 109.761719 155.699219 110.011719 155.816406 110.144531 156.035156 C 110.277344 156.253906 110.261719 156.527344 110.109375 156.734375 C 105.9375 162.257812 99.589844 165.492188 92.695312 165.609375 C 92.574219 165.613281 92.449219 165.613281 92.324219 165.613281 Z M 69.6875 126.800781 C 70.71875 128.03125 71.28125 129.566406 71.28125 131.191406 L 71.28125 142.929688 C 71.28125 148.667969 73.648438 154.285156 77.777344 158.339844 C 81.828125 162.316406 87.125 164.453125 92.675781 164.363281 C 98.667969 164.261719 104.222656 161.660156 108.140625 157.175781 C 107.574219 157.230469 107.003906 157.261719 106.4375 157.269531 C 100.550781 157.371094 94.933594 155.105469 90.640625 150.890625 C 86.273438 146.601562 83.769531 140.664062 83.769531 134.59375 L 83.769531 122.851562 C 83.769531 121.425781 83.246094 120.09375 82.285156 119.054688 Z M 69.6875 126.800781 " fill-opacity="1" fill-rule="nonzero"/></svg>