<svg xmlns="http://www.w3.org/2000/svg" xmlns:xlink="http://www.w3.org/1999/xlink" width="200" zoomAndPan="magnify" viewBox="0 0 150 112.499997" height="150" preserveAspectRatio="xMidYMid meet" version="1.0"><defs><clipPath id="3f3021b517"><path d="M 46 14 L 104.5 14 L 104.5 100.800781 L 46 100.800781 Z M 46 14 " clip-rule="nonzero"/></clipPath></defs><path fill="#79a7c8" d="M 96.695312 40.519531 C 96.535156 40.40625 96.46875 40.253906 96.492188 40.0625 C 96.515625 39.871094 96.613281 39.738281 96.792969 39.667969 C 100.074219 38.351562 103.203125 31.175781 97.457031 29.5 C 91.078125 27.640625 90.910156 35.941406 89.414062 38.9375 C 87.921875 41.929688 82.902344 39.324219 82.902344 39.324219 L 82.769531 42.582031 C 83.769531 41.761719 86.316406 41.695312 88.128906 41.765625 C 88.386719 41.777344 88.640625 41.828125 88.882812 41.921875 C 89.128906 42.015625 89.351562 42.144531 89.554688 42.308594 C 89.753906 42.472656 89.925781 42.667969 90.066406 42.886719 C 90.203125 43.109375 90.304688 43.34375 90.367188 43.597656 C 91.320312 47.480469 94.726562 52.6875 98.921875 48.898438 C 102.683594 45.5 98.679688 41.941406 96.695312 40.519531 Z M 93.253906 32.960938 C 94.160156 31.515625 95.933594 30.996094 97.21875 31.800781 C 98.5 32.605469 98.804688 34.429688 97.898438 35.875 C 96.988281 37.316406 95.214844 37.839844 93.933594 37.042969 C 92.648438 36.25 92.351562 34.40625 93.253906 32.960938 Z M 97.410156 46.980469 C 96.339844 48.054688 94.496094 47.941406 93.289062 46.738281 C 92.082031 45.53125 91.976562 43.683594 93.058594 42.621094 C 94.140625 41.5625 95.972656 41.660156 97.179688 42.867188 C 98.386719 44.074219 98.488281 45.914062 97.417969 46.980469 Z M 97.410156 46.980469 " fill-opacity="1" fill-rule="nonzero"/><g clip-path="url(#3f3021b517)"><path fill="#a1b391" d="M 104.4375 62.625 C 103.3125 78.75 88.554688 80.382812 88.554688 80.382812 C 88.554688 80.382812 87.523438 82.875 87.554688 86.695312 C 87.589844 90.515625 84.132812 91.183594 81.972656 95 C 80.605469 97.410156 78.292969 99.398438 76.773438 100.535156 C 76.453125 100.773438 76.117188 100.808594 75.757812 100.632812 C 75.402344 100.460938 75.21875 100.175781 75.210938 99.777344 L 75.191406 98.996094 L 73.761719 99.636719 C 73.566406 99.722656 73.363281 99.742188 73.148438 99.695312 C 72.9375 99.648438 72.765625 99.542969 72.625 99.378906 C 72.484375 99.214844 72.40625 99.023438 72.390625 98.808594 C 72.378906 98.59375 72.429688 98.394531 72.546875 98.210938 L 73.460938 96.804688 L 72.519531 96.601562 C 72.332031 96.558594 72.167969 96.472656 72.035156 96.335938 C 71.898438 96.199219 71.808594 96.039062 71.769531 95.851562 C 71.730469 95.664062 71.742188 95.480469 71.8125 95.300781 C 71.878906 95.121094 71.992188 94.972656 72.144531 94.859375 L 78.445312 90.226562 L 78.777344 81.988281 C 77.484375 82.621094 74.859375 81.921875 74.859375 81.921875 C 74.859375 81.921875 72.066406 88.699219 70.539062 91.023438 C 69.5 92.605469 66.582031 94.191406 64.824219 95.039062 C 64.671875 95.109375 64.511719 95.140625 64.347656 95.132812 C 64.179688 95.121094 64.023438 95.074219 63.882812 94.984375 C 63.742188 94.894531 63.632812 94.777344 63.550781 94.632812 C 63.46875 94.484375 63.425781 94.328125 63.425781 94.164062 L 63.425781 93.484375 L 62.355469 93.542969 C 62.160156 93.554688 61.976562 93.511719 61.804688 93.410156 C 61.632812 93.308594 61.507812 93.167969 61.421875 92.992188 C 61.335938 92.8125 61.304688 92.625 61.335938 92.429688 C 61.363281 92.234375 61.441406 92.0625 61.574219 91.914062 L 62.03125 91.414062 L 60.738281 90.515625 C 60.417969 90.285156 60.28125 89.976562 60.335938 89.582031 C 60.390625 89.191406 60.605469 88.929688 60.976562 88.796875 L 67.617188 86.5 L 67.75 80.851562 C 47.175781 72.554688 58.910156 49.566406 58.910156 49.566406 C 56.613281 49.175781 55.515625 51.125 53.921875 51.160156 C 52.328125 51.191406 52.660156 49.765625 52.660156 49.765625 C 52.660156 49.765625 48.90625 49.898438 51.53125 46.109375 C 54.15625 42.320312 62.230469 45.378906 62.230469 45.378906 C 64.324219 42.921875 65.355469 37.40625 65.355469 37.40625 C 65.355469 37.40625 61.332031 38.238281 55.382812 38.136719 C 49.433594 38.039062 45.546875 33.320312 47.144531 22.257812 C 48.738281 11.195312 62.429688 14.683594 71.941406 16.542969 C 81.449219 18.402344 83.835938 25.71875 83.835938 25.71875 L 83.835938 25.734375 L 88.617188 27.644531 L 85.21875 30.695312 C 85.40625 31.9375 85.507812 33.183594 85.519531 34.441406 L 88.761719 36.144531 L 85.332031 38.894531 C 85.199219 40.394531 85.015625 41.878906 84.832031 43.34375 L 88.820312 44.320312 L 84.386719 47.371094 C 84.261719 48.695312 84.210938 50.023438 84.238281 51.355469 L 88.621094 51.628906 L 84.941406 56.019531 C 85.277344 57.136719 85.757812 58.191406 86.378906 59.179688 L 90.214844 57.210938 L 89.21875 62.445312 C 90.105469 63.246094 91.082031 63.917969 92.148438 64.460938 L 95.007812 61.390625 L 95.984375 65.441406 C 99.335938 65.503906 101.960938 63.5 103.367188 62.125 C 103.574219 61.917969 103.8125 61.878906 104.074219 62 C 104.339844 62.125 104.460938 62.332031 104.4375 62.625 Z M 104.4375 62.625 " fill-opacity="1" fill-rule="nonzero"/></g><path fill="#ddbc9b" d="M 67.746094 80.859375 C 47.175781 72.554688 58.910156 49.566406 58.910156 49.566406 C 60.246094 48.351562 61.351562 46.957031 62.226562 45.378906 C 64.320312 42.921875 65.351562 37.40625 65.351562 37.40625 L 69.007812 36.609375 C 69.007812 36.609375 69.007812 44.027344 67.011719 47.636719 C 67.011719 47.636719 61.328125 48.371094 60.898438 52.488281 C 60.46875 56.605469 63.632812 54.082031 63.632812 54.082031 C 63.632812 54.082031 63.5 55.875 64.695312 55.808594 C 64.695312 55.808594 64.222656 71.167969 71.464844 81.132812 C 70.21875 81.152344 68.976562 81.0625 67.746094 80.859375 Z M 95.988281 65.441406 L 95.007812 61.390625 L 92.164062 64.457031 C 93.363281 65.074219 94.636719 65.402344 95.984375 65.441406 Z M 86.378906 59.175781 L 90.214844 57.203125 L 89.21875 62.441406 C 88.878906 62.136719 88.535156 61.8125 88.1875 61.464844 C 87.503906 60.765625 86.898438 60.003906 86.378906 59.175781 Z M 88.621094 51.625 L 84.941406 56.011719 C 84.496094 54.492188 84.261719 52.9375 84.238281 51.351562 Z M 83.839844 25.730469 L 88.621094 27.640625 L 85.21875 30.695312 C 84.960938 28.984375 84.5 27.328125 83.839844 25.730469 Z M 85.519531 34.441406 L 88.761719 36.144531 L 85.332031 38.894531 C 85.472656 37.414062 85.535156 35.929688 85.519531 34.441406 Z M 84.832031 43.34375 L 88.820312 44.320312 L 84.386719 47.371094 C 84.5 46.050781 84.660156 44.707031 84.832031 43.34375 Z M 84.832031 43.34375 " fill-opacity="1" fill-rule="nonzero"/><path fill="#711a00" d="M 74.59375 28.09375 C 74.59375 29.175781 73.851562 30.058594 72.933594 30.058594 C 72.015625 30.058594 71.273438 29.175781 71.273438 28.09375 C 71.273438 27.007812 72.015625 26.128906 72.933594 26.128906 C 73.851562 26.128906 74.59375 27.007812 74.59375 28.09375 Z M 75.730469 24.277344 C 75.792969 24.226562 75.828125 24.160156 75.839844 24.082031 C 75.847656 24.003906 75.828125 23.929688 75.78125 23.867188 C 73.992188 21.566406 71.5 22.851562 71.484375 22.867188 C 71.410156 22.902344 71.359375 22.957031 71.332031 23.039062 C 71.304688 23.117188 71.3125 23.191406 71.351562 23.265625 C 71.390625 23.339844 71.449219 23.390625 71.53125 23.410156 C 71.609375 23.433594 71.6875 23.425781 71.757812 23.382812 C 71.84375 23.339844 73.847656 22.320312 75.328125 24.226562 C 75.386719 24.300781 75.464844 24.339844 75.558594 24.339844 C 75.621094 24.335938 75.679688 24.316406 75.730469 24.277344 Z M 48.25 33.96875 L 51.21875 31.726562 L 54.554688 33.667969 L 57.792969 31.410156 L 60.363281 34 L 62.683594 32.363281 C 62.820312 32.25 62.839844 32.117188 62.734375 31.96875 C 62.628906 31.824219 62.5 31.796875 62.34375 31.886719 L 60.429688 33.238281 L 57.863281 30.648438 L 54.523438 32.972656 L 51.175781 31.023438 L 47.988281 33.4375 C 48.070312 33.621094 48.152344 33.796875 48.25 33.96875 Z M 51.640625 20.71875 C 51.6875 21.519531 51.519531 22.269531 51.140625 22.976562 C 51.09375 23.0625 51.105469 23.144531 51.175781 23.214844 C 51.246094 23.289062 51.328125 23.304688 51.417969 23.257812 C 53.191406 22.371094 52.546875 21.1875 52.003906 20.566406 C 51.9375 20.496094 51.859375 20.480469 51.769531 20.515625 C 51.679688 20.554688 51.636719 20.621094 51.640625 20.71875 Z M 51.640625 20.71875 " fill-opacity="1" fill-rule="nonzero"/><path fill="#f5e9db" d="M 66.308594 55.144531 C 66.285156 55.144531 66.265625 55.136719 66.246094 55.121094 C 66.199219 55.082031 66.195312 55.035156 66.234375 54.984375 C 66.445312 54.722656 68.359375 52.429688 69.257812 52.507812 C 70.152344 52.585938 75.296875 54.476562 75.515625 54.558594 C 75.574219 54.578125 75.59375 54.621094 75.574219 54.683594 C 75.550781 54.742188 75.507812 54.761719 75.445312 54.742188 C 75.386719 54.722656 70.085938 52.769531 69.238281 52.703125 C 68.5625 52.644531 66.945312 54.421875 66.378906 55.109375 C 66.359375 55.132812 66.335938 55.144531 66.308594 55.144531 Z M 76.359375 51.015625 C 76.390625 50.957031 76.378906 50.914062 76.320312 50.882812 C 76.074219 50.742188 70.253906 47.527344 67.386719 47.878906 C 67.320312 47.890625 67.292969 47.925781 67.300781 47.992188 C 67.308594 48.054688 67.347656 48.082031 67.410156 48.074219 C 70.210938 47.734375 76.164062 51.019531 76.226562 51.054688 C 76.238281 51.0625 76.253906 51.066406 76.273438 51.066406 C 76.3125 51.066406 76.339844 51.046875 76.359375 51.015625 Z M 87.609375 80.40625 C 87.664062 80.371094 87.671875 80.324219 87.636719 80.273438 C 87.597656 80.21875 87.550781 80.210938 87.5 80.246094 C 84.542969 82.292969 79.839844 81.566406 79.792969 81.558594 C 79.730469 81.550781 79.691406 81.574219 79.683594 81.640625 C 79.671875 81.703125 79.699219 81.742188 79.761719 81.75 C 80.441406 81.84375 81.125 81.890625 81.808594 81.882812 C 83.488281 81.882812 85.84375 81.628906 87.609375 80.40625 Z M 99.234375 66.859375 C 99.28125 66.828125 99.292969 66.785156 99.269531 66.734375 C 99.242188 66.683594 99.203125 66.667969 99.148438 66.6875 C 93.976562 69.222656 87.144531 64.941406 87.074219 64.898438 C 87.019531 64.863281 86.976562 64.871094 86.941406 64.925781 C 86.90625 64.980469 86.914062 65.027344 86.972656 65.0625 C 87.023438 65.097656 91.148438 67.683594 95.449219 67.683594 C 96.777344 67.703125 98.039062 67.429688 99.234375 66.859375 Z M 71.09375 88.273438 L 73.289062 83.21875 C 73.316406 83.15625 73.296875 83.113281 73.238281 83.089844 C 73.179688 83.0625 73.136719 83.078125 73.109375 83.140625 L 70.914062 88.195312 C 70.886719 88.253906 70.90625 88.296875 70.964844 88.324219 C 70.976562 88.324219 70.992188 88.324219 71.003906 88.324219 C 71.046875 88.324219 71.074219 88.308594 71.09375 88.273438 Z M 93.214844 64.285156 L 94.644531 62.59375 C 94.683594 62.542969 94.679688 62.496094 94.632812 62.457031 C 94.582031 62.414062 94.535156 62.417969 94.492188 62.46875 L 93.058594 64.152344 C 93.015625 64.203125 93.019531 64.25 93.070312 64.289062 C 93.085938 64.304688 93.109375 64.3125 93.132812 64.3125 C 93.164062 64.316406 93.191406 64.308594 93.214844 64.285156 Z M 87.273438 59.523438 L 89.433594 58.226562 C 89.488281 58.195312 89.5 58.148438 89.464844 58.09375 C 89.433594 58.039062 89.386719 58.027344 89.332031 58.058594 L 87.171875 59.355469 C 87.128906 59.382812 87.113281 59.417969 87.128906 59.464844 C 87.140625 59.515625 87.171875 59.539062 87.222656 59.539062 C 87.242188 59.535156 87.257812 59.527344 87.273438 59.515625 Z M 87.320312 52.066406 C 87.320312 52 87.289062 51.96875 87.222656 51.96875 L 84.765625 51.933594 C 84.699219 51.933594 84.667969 51.964844 84.667969 52.03125 C 84.667969 52.097656 84.699219 52.128906 84.765625 52.128906 L 87.226562 52.164062 C 87.292969 52.160156 87.324219 52.125 87.320312 52.058594 Z M 87.351562 44.542969 C 87.363281 44.480469 87.339844 44.441406 87.277344 44.425781 L 85.117188 43.929688 C 85.054688 43.914062 85.015625 43.941406 85 44.003906 C 84.984375 44.066406 85.007812 44.105469 85.074219 44.121094 L 87.234375 44.617188 L 87.257812 44.617188 C 87.3125 44.621094 87.34375 44.59375 87.351562 44.535156 Z M 87.710938 36.152344 C 87.738281 36.09375 87.722656 36.050781 87.664062 36.023438 L 85.832031 35.191406 C 85.773438 35.164062 85.730469 35.179688 85.703125 35.238281 C 85.675781 35.300781 85.691406 35.34375 85.75 35.371094 L 87.578125 36.199219 C 87.59375 36.203125 87.605469 36.203125 87.621094 36.199219 C 87.660156 36.203125 87.6875 36.1875 87.710938 36.152344 Z M 87.183594 27.667969 C 87.199219 27.605469 87.179688 27.5625 87.117188 27.546875 L 84.691406 26.847656 C 84.625 26.832031 84.585938 26.855469 84.566406 26.917969 C 84.546875 26.984375 84.570312 27.027344 84.636719 27.042969 L 87.0625 27.742188 C 87.074219 27.742188 87.082031 27.742188 87.089844 27.742188 C 87.140625 27.738281 87.171875 27.714844 87.183594 27.667969 Z M 96.25 41.0625 C 96.285156 41.007812 96.273438 40.960938 96.21875 40.925781 C 95.878906 40.703125 95.695312 40.453125 95.675781 40.183594 C 95.648438 39.765625 96.03125 39.425781 96.035156 39.421875 C 96.097656 39.382812 96.101562 39.335938 96.054688 39.277344 C 96.007812 39.222656 95.957031 39.222656 95.90625 39.277344 C 95.628906 39.519531 95.488281 39.828125 95.480469 40.199219 C 95.503906 40.53125 95.714844 40.832031 96.113281 41.089844 C 96.132812 41.101562 96.148438 41.105469 96.167969 41.105469 C 96.203125 41.105469 96.230469 41.089844 96.25 41.0625 Z M 70.019531 36.707031 C 70.085938 36.707031 76.972656 36.371094 80.578125 33.230469 C 80.628906 33.1875 80.628906 33.140625 80.589844 33.089844 C 80.542969 33.042969 80.496094 33.042969 80.453125 33.089844 C 76.898438 36.1875 70.078125 36.519531 70.011719 36.519531 C 69.945312 36.519531 69.914062 36.554688 69.914062 36.617188 C 69.914062 36.683594 69.945312 36.714844 70.011719 36.714844 Z M 62.449219 76.386719 C 62.480469 76.328125 62.46875 76.285156 62.410156 76.253906 C 56.714844 73.132812 56.808594 61.769531 56.8125 61.65625 C 56.8125 61.59375 56.78125 61.558594 56.714844 61.558594 C 56.652344 61.558594 56.621094 61.589844 56.617188 61.652344 C 56.617188 61.769531 56.515625 73.246094 62.316406 76.421875 C 62.332031 76.433594 62.347656 76.4375 62.363281 76.4375 C 62.402344 76.4375 62.429688 76.417969 62.449219 76.386719 Z M 62.449219 76.386719 " fill-opacity="1" fill-rule="nonzero"/></svg>