<svg xmlns="http://www.w3.org/2000/svg" xmlns:xlink="http://www.w3.org/1999/xlink" width="200" zoomAndPan="magnify" viewBox="0 0 150 112.499997" height="150" preserveAspectRatio="xMidYMid meet" version="1.0"><defs><clipPath id="3baea488ea"><path d="M 16.347656 11.199219 L 137.015625 11.199219 L 137.015625 84.285156 L 16.347656 84.285156 Z M 16.347656 11.199219 " clip-rule="nonzero"/></clipPath><clipPath id="75ab3da30a"><path d="M 35.558594 29.472656 L 123.484375 29.472656 L 123.484375 100.800781 L 35.558594 100.800781 Z M 35.558594 29.472656 " clip-rule="nonzero"/></clipPath></defs><g clip-path="url(#3baea488ea)"><path fill="#f288ca" d="M 135.535156 34.949219 C 134.28125 30.054688 132.785156 24.746094 128.683594 21.476562 C 124.964844 18.511719 120.371094 16.5 115.890625 15.003906 C 106.648438 11.921875 96.726562 11.28125 87.054688 11.222656 C 76.617188 11.15625 65.988281 11.148438 55.648438 12.6875 C 44.957031 14.273438 35.417969 18.78125 26.011719 23.921875 C 23.933594 25.054688 21.621094 26.089844 20.15625 28.027344 C 18.648438 30.015625 18.246094 32.738281 17.625 35.097656 C 16.960938 37.613281 16.003906 40.324219 16.738281 42.933594 C 17.292969 44.914062 18.734375 46.441406 20.40625 47.5625 C 22.164062 48.738281 24.234375 49.421875 26.246094 50.011719 C 28.867188 50.78125 31.523438 51.40625 34.222656 51.820312 C 36.246094 52.128906 38.59375 52.367188 40.238281 50.859375 C 41.992188 49.257812 41.796875 46.859375 41.867188 44.691406 C 41.910156 43.335938 41.953125 42.003906 41.964844 40.671875 C 42.332031 40.316406 42.578125 39.796875 42.585938 39.105469 C 42.617188 36.964844 44.476562 35.507812 46.277344 34.710938 C 48.613281 33.679688 51.246094 33.140625 53.714844 32.519531 C 58.882812 31.222656 64.136719 30.210938 69.429688 29.585938 C 80.09375 28.324219 90.980469 28.398438 101.574219 30.25 C 104.199219 30.710938 106.8125 31.273438 109.394531 31.945312 C 110.546875 32.242188 111.773438 32.492188 112.882812 32.941406 C 114.003906 33.398438 114.160156 33.722656 114.15625 34.914062 C 114.148438 37.65625 114.03125 40.398438 114 43.140625 C 113.972656 45.691406 113.757812 48.714844 116.859375 49.449219 C 119.285156 50.023438 122.238281 49.625 124.679688 49.316406 C 127.347656 48.980469 129.976562 48.4375 132.53125 47.59375 C 134.894531 46.816406 137.125 45.769531 137.011719 42.890625 C 136.90625 40.25 136.1875 37.496094 135.535156 34.949219 Z M 91.574219 73.441406 C 90.21875 78.746094 85.226562 84.117188 78.3125 84.117188 C 76.242188 84.117188 74.175781 83.609375 72.164062 82.617188 C 66.84375 79.988281 64.488281 75.476562 65.707031 70.242188 C 67.195312 63.847656 73.507812 58.644531 79.785156 58.644531 C 81.773438 58.644531 83.6875 59.140625 85.480469 60.125 C 90.695312 62.992188 92.972656 67.96875 91.574219 73.441406 " fill-opacity="1" fill-rule="nonzero"/></g><path fill="#397dc9" d="M 24.625 50.023438 C 24.347656 51.640625 22.472656 52.351562 20.648438 52.175781 C 21.847656 51.121094 23.242188 50.339844 24.625 50.023438 Z M 25.640625 61.207031 C 24.945312 62.320312 23.851562 63.167969 22.542969 63.398438 C 23.257812 62.265625 24.316406 61.421875 25.640625 61.207031 Z M 29.085938 69.21875 C 29.296875 69.027344 31.179688 67.515625 31.554688 68.117188 C 31.632812 68.234375 29.960938 70.117188 29.6875 70.390625 C 28.949219 71.136719 28.078125 71.71875 27.148438 72.011719 C 27.59375 70.957031 28.242188 69.992188 29.085938 69.21875 Z M 37.433594 83.140625 C 33.726562 84.023438 29.609375 83.015625 27.535156 79.5625 C 26.664062 78.117188 26.335938 76.402344 26.480469 74.722656 C 28.199219 74.566406 29.828125 73.714844 31.125 72.503906 C 32.46875 71.25 34.894531 68.519531 33.449219 66.621094 C 32.015625 64.738281 29.390625 66.058594 27.984375 67.21875 C 26.460938 68.472656 25.296875 70.152344 24.601562 71.996094 C 24.269531 71.878906 23.941406 71.71875 23.613281 71.5 C 21.871094 70.3125 21.28125 68.125 21.582031 66.066406 C 21.839844 66.074219 22.097656 66.070312 22.359375 66.046875 C 25.457031 65.75 28.132812 63.386719 28.785156 60.335938 C 28.917969 59.71875 28.605469 58.863281 27.890625 58.753906 C 24.40625 58.21875 21.46875 60.199219 19.992188 63.046875 C 18.609375 62.394531 17.53125 61.0625 17.296875 59.546875 C 17.015625 57.753906 17.683594 55.824219 18.859375 54.160156 C 22.742188 55.441406 27.832031 53.070312 26.925781 48.339844 C 26.828125 47.832031 26.257812 47.441406 25.761719 47.449219 C 23.074219 47.5 20.234375 49 18.089844 51.191406 C 17.597656 50.78125 17.226562 50.253906 17.070312 49.601562 C 16.222656 46.082031 19.679688 43.285156 22.078125 41.351562 C 22.484375 41.019531 21.960938 40.375 21.527344 40.636719 C 19.1875 42.03125 16.726562 43.515625 15.617188 46.144531 C 14.71875 48.277344 14.796875 51.011719 16.507812 52.730469 C 16.5625 52.785156 16.621094 52.835938 16.675781 52.886719 C 14.824219 55.515625 13.984375 58.707031 15.175781 61.585938 C 15.910156 63.351562 17.378906 64.785156 19.128906 65.527344 C 18.921875 66.609375 18.910156 67.742188 19.128906 68.855469 C 19.644531 71.421875 21.496094 73.605469 23.980469 74.429688 C 23.71875 76.296875 23.929688 78.222656 24.71875 79.988281 C 26.9375 84.953125 33.402344 87.722656 38.414062 85.46875 C 39.769531 84.859375 38.78125 82.824219 37.433594 83.140625 " fill-opacity="1" fill-rule="nonzero"/><g clip-path="url(#75ab3da30a)"><path fill="#ef3220" d="M 72.511719 81.914062 C 57.351562 74.425781 72.617188 53.953125 85.101562 60.816406 C 99.039062 68.476562 86.546875 88.84375 72.511719 81.914062 Z M 123.164062 88.015625 C 121.003906 74.296875 117.210938 60.945312 115.359375 47.160156 C 114.785156 42.886719 116.210938 33.4375 112.378906 30.71875 C 109.996094 29.03125 103.613281 29.46875 101.085938 31.027344 C 95.914062 34.21875 101.53125 40.820312 99.316406 44.722656 C 97.59375 47.753906 86.882812 47.082031 83.703125 47.1875 C 76.863281 47.410156 70.0625 46.960938 63.367188 45.890625 C 63.160156 44.902344 62.941406 43.921875 62.714844 42.941406 C 62.398438 41.59375 62.078125 40.183594 61.6875 38.78125 C 61.484375 36.910156 61.242188 35.042969 60.890625 33.195312 C 60.722656 32.316406 60.042969 31.992188 59.359375 32.070312 C 58.394531 31.464844 55.9375 31.574219 55.207031 31.5 C 52.242188 31.203125 47.1875 30.269531 44.351562 31.980469 C 41.027344 33.980469 41.492188 38.3125 41.289062 41.539062 C 41.046875 45.40625 40.648438 49.257812 40.15625 53.113281 C 39.03125 61.921875 37.472656 70.691406 36.527344 79.515625 C 35.804688 86.222656 34.539062 96.996094 37.042969 98.332031 C 42.90625 101.464844 55.527344 100.78125 63.164062 100.660156 C 71.738281 100.523438 80.3125 100.382812 88.886719 100.246094 C 97.222656 100.113281 105.613281 100.277344 113.953125 99.839844 C 121.648438 99.433594 124.359375 95.613281 123.164062 88.015625 " fill-opacity="1" fill-rule="nonzero"/></g><path fill="#110f0d" d="M 123.0625 93.542969 L 35.808594 93.542969 C 35.445312 93.542969 35.152344 93.835938 35.152344 94.195312 C 35.152344 94.558594 35.445312 94.851562 35.808594 94.851562 L 123.0625 94.851562 C 123.421875 94.851562 123.714844 94.558594 123.714844 94.195312 C 123.714844 93.835938 123.421875 93.542969 123.0625 93.542969 Z M 47.191406 30.296875 C 47.261719 30.296875 47.335938 30.285156 47.40625 30.257812 C 47.484375 30.230469 55.351562 27.507812 67.117188 26.050781 C 77.976562 24.707031 94.453125 24.199219 111.28125 29.425781 C 111.628906 29.535156 111.992188 29.339844 112.101562 28.996094 C 112.207031 28.648438 112.015625 28.28125 111.667969 28.175781 C 94.621094 22.878906 77.945312 23.390625 66.957031 24.75 C 55.054688 26.226562 47.054688 28.992188 46.976562 29.019531 C 46.636719 29.140625 46.457031 29.515625 46.574219 29.855469 C 46.667969 30.125 46.921875 30.296875 47.191406 30.296875 Z M 114.648438 35.507812 C 114.726562 35.507812 114.808594 35.492188 114.886719 35.460938 L 120.601562 33.230469 C 120.9375 33.097656 121.105469 32.71875 120.972656 32.382812 C 120.84375 32.042969 120.464844 31.875 120.125 32.007812 L 114.410156 34.242188 C 114.074219 34.371094 113.90625 34.753906 114.039062 35.089844 C 114.140625 35.347656 114.386719 35.507812 114.648438 35.507812 Z M 36.113281 34.164062 L 41.402344 36.71875 C 41.492188 36.765625 41.589844 36.785156 41.683594 36.785156 C 41.925781 36.785156 42.160156 36.648438 42.273438 36.414062 C 42.429688 36.089844 42.292969 35.695312 41.96875 35.539062 L 36.683594 32.984375 C 36.359375 32.828125 35.964844 32.964844 35.808594 33.289062 C 35.652344 33.613281 35.789062 34.007812 36.113281 34.164062 Z M 74.546875 72.101562 C 74.605469 73.25 75.320312 74.195312 76.605469 74.832031 C 79.070312 76.050781 81.359375 74.765625 82.34375 72.867188 C 83.117188 71.382812 83.179688 69.191406 80.832031 67.902344 C 80.230469 67.570312 79.644531 67.445312 79.105469 67.445312 C 78.164062 67.445312 77.367188 67.828125 76.882812 68.132812 C 75.433594 69.042969 74.476562 70.675781 74.546875 72.101562 Z M 73.242188 72.167969 C 73.144531 70.257812 74.328125 68.191406 76.183594 67.023438 C 77.894531 65.949219 79.816406 65.847656 81.460938 66.75 C 84.433594 68.386719 84.628906 71.304688 83.507812 73.472656 C 82.59375 75.230469 80.71875 76.617188 78.527344 76.617188 C 77.726562 76.617188 76.882812 76.429688 76.027344 76.007812 C 74.3125 75.160156 73.324219 73.796875 73.242188 72.167969 Z M 78.683594 90.039062 C 94.65625 90.039062 99.59375 82.890625 99.796875 82.585938 C 99.996094 82.285156 99.917969 81.882812 99.617188 81.679688 C 99.320312 81.480469 98.914062 81.558594 98.710938 81.859375 C 98.664062 81.925781 93.890625 88.726562 78.683594 88.726562 C 63.570312 88.726562 59.882812 82.011719 59.835938 81.925781 C 59.671875 81.605469 59.28125 81.476562 58.957031 81.636719 C 58.636719 81.800781 58.507812 82.195312 58.671875 82.519531 C 58.828125 82.828125 62.660156 90.039062 78.683594 90.039062 Z M 97.371094 55.101562 C 96.003906 53.210938 93.289062 52.710938 91.273438 53.785156 C 88.066406 55.496094 88.882812 58.386719 90.339844 60.867188 C 94.378906 67.730469 101.113281 60.277344 97.371094 55.101562 Z M 58.152344 61.589844 C 54.613281 55.472656 62.132812 49.519531 66.046875 55.796875 C 69.378906 61.136719 61.617188 67.578125 58.152344 61.589844 " fill-opacity="1" fill-rule="nonzero"/><path fill="#ffffff" d="M 95.792969 54.777344 C 94.855469 54.777344 94.09375 55.535156 94.09375 56.476562 C 94.09375 57.414062 94.855469 58.175781 95.792969 58.175781 C 96.726562 58.175781 97.488281 57.414062 97.488281 56.476562 C 97.488281 55.535156 96.726562 54.777344 95.792969 54.777344 Z M 64.789062 56.476562 C 64.789062 57.414062 64.03125 58.175781 63.09375 58.175781 C 62.15625 58.175781 61.398438 57.414062 61.398438 56.476562 C 61.398438 55.535156 62.15625 54.777344 63.09375 54.777344 C 64.03125 54.777344 64.789062 55.535156 64.789062 56.476562 " fill-opacity="1" fill-rule="nonzero"/></svg>