<svg xmlns="http://www.w3.org/2000/svg" xmlns:xlink="http://www.w3.org/1999/xlink" width="200" zoomAndPan="magnify" viewBox="0 0 150 95.999999" height="128" preserveAspectRatio="xMidYMid meet" version="1.0"><defs><clipPath id="8753732364"><path d="M 107 14 L 137.949219 14 L 137.949219 66 L 107 66 Z M 107 14 " clip-rule="nonzero"/></clipPath><clipPath id="f7f9006ae3"><path d="M 59 2.445312 L 100 2.445312 L 100 57 L 59 57 Z M 59 2.445312 " clip-rule="nonzero"/></clipPath><clipPath id="64223f7eb5"><path d="M 12 30 L 58 30 L 58 93.195312 L 12 93.195312 Z M 12 30 " clip-rule="nonzero"/></clipPath><clipPath id="3d61755196"><path d="M 66.148438 72 L 78 72 L 78 88.238281 L 66.148438 88.238281 Z M 66.148438 72 " clip-rule="nonzero"/></clipPath><clipPath id="97efde13c7"><path d="M 97 58.238281 L 108.898438 58.238281 L 108.898438 75 L 97 75 Z M 97 58.238281 " clip-rule="nonzero"/></clipPath></defs><path fill="#64f9c3" d="M 54.886719 73.605469 C 55.382812 74.304688 55.917969 74.734375 55.476562 75.464844 C 55.089844 76.105469 53.675781 76.824219 53.035156 77.265625 C 50.582031 78.953125 47.988281 80.410156 45.292969 81.671875 C 43.335938 78.269531 41.230469 74.964844 38.980469 71.746094 C 38.695312 71.339844 38.21875 71.1875 37.765625 71.429688 C 34.3125 73.261719 30.730469 74.8125 27.03125 76.078125 C 26.621094 76.214844 26.425781 76.515625 26.378906 76.933594 C 25.929688 80.878906 26.015625 84.808594 26.578125 88.730469 C 22.414062 89.863281 18.199219 90.714844 13.917969 91.253906 C 16.351562 73.152344 17.925781 54.859375 16.882812 36.601562 C 20.09375 35.574219 23.300781 34.542969 26.503906 33.5 C 26.863281 33.382812 28.9375 32.445312 29.207031 32.621094 C 29.675781 32.925781 29.964844 34.339844 30.175781 34.859375 C 30.757812 36.300781 31.28125 37.761719 31.835938 39.210938 C 34.050781 44.972656 37.121094 50.277344 40.71875 55.292969 C 44.371094 60.386719 48.492188 65.101562 52.289062 70.085938 C 53.175781 71.246094 54.039062 72.414062 54.886719 73.605469 Z M 36.125 66.320312 C 36.546875 66.101562 36.644531 65.53125 36.433594 65.136719 C 33.605469 59.980469 30.707031 54.257812 26.660156 49.921875 C 26.625 49.878906 26.585938 49.851562 26.550781 49.816406 C 26.320312 49.015625 25.1875 49.347656 25.21875 50.128906 C 25.054688 50.390625 25.019531 50.722656 25.207031 51.035156 C 25.265625 51.132812 25.324219 51.222656 25.382812 51.316406 C 26.210938 56.972656 26.839844 62.640625 26.957031 68.363281 C 26.96875 68.953125 27.503906 69.316406 28.058594 69.199219 C 30.886719 68.605469 33.558594 67.644531 36.125 66.320312 Z M 36.125 66.320312 " fill-opacity="1" fill-rule="nonzero"/><path fill="#0088f7" d="M 96.605469 37.726562 C 97.859375 42.480469 96.679688 47.277344 92.714844 50.351562 C 84.832031 56.457031 73.328125 53.40625 64.203125 52.503906 C 64.089844 48.90625 63.613281 45.273438 63.34375 41.6875 C 63.046875 37.675781 62.769531 33.664062 62.507812 29.652344 C 62.257812 25.761719 62.007812 21.867188 61.792969 17.972656 C 61.597656 14.558594 61.660156 10.882812 61.09375 7.476562 C 61.296875 7.476562 61.5 7.382812 61.632812 7.152344 C 62.554688 5.582031 65.015625 5.496094 66.617188 5.167969 C 68.503906 4.777344 70.40625 4.433594 72.328125 4.296875 C 75.96875 4.035156 79.714844 4.519531 82.742188 6.691406 C 89.203125 11.324219 89.589844 20.066406 86.554688 26.796875 C 86.289062 27.382812 86.582031 28.269531 87.363281 28.207031 C 92.425781 27.804688 95.503906 33.578125 96.605469 37.726562 Z M 83.953125 45.996094 C 86.761719 45.332031 87.691406 42.503906 87.425781 39.890625 C 87.183594 37.523438 85.890625 35.152344 83.707031 34.050781 C 80.941406 32.65625 77.820312 33.699219 75.273438 35.070312 C 75.082031 35.171875 74.992188 35.324219 74.964844 35.484375 C 74.816406 35.582031 74.722656 35.738281 74.746094 35.949219 C 74.910156 37.597656 75.078125 39.25 75.289062 40.898438 C 75.421875 41.949219 75.421875 43.132812 75.820312 44.128906 C 75.816406 44.289062 75.859375 44.457031 75.972656 44.605469 C 77.519531 46.542969 81.757812 46.507812 83.953125 45.996094 Z M 74.96875 29.933594 C 79.414062 27.578125 80.984375 22.445312 79.992188 17.722656 C 79.585938 15.761719 78.707031 14.039062 76.71875 13.324219 C 75.136719 12.753906 73.050781 12.894531 71.863281 14.179688 C 71.789062 14.261719 71.746094 14.34375 71.71875 14.429688 C 71.714844 14.441406 71.710938 14.453125 71.707031 14.464844 C 71.699219 14.496094 71.695312 14.527344 71.691406 14.558594 C 71.691406 14.578125 71.6875 14.597656 71.6875 14.621094 C 71.789062 16.785156 72.550781 18.929688 72.925781 21.058594 C 73.347656 23.457031 73.628906 25.867188 73.789062 28.296875 C 73.761719 28.390625 73.753906 28.496094 73.785156 28.59375 C 73.800781 28.652344 73.820312 28.707031 73.835938 28.765625 C 73.855469 28.832031 73.882812 28.890625 73.917969 28.945312 C 73.632812 29.492188 74.265625 30.304688 74.96875 29.933594 Z M 74.96875 29.933594 " fill-opacity="1" fill-rule="nonzero"/><path fill="#ff9700" d="M 133.390625 55.730469 C 134.226562 56.90625 134.90625 58.292969 135.773438 59.476562 C 132.054688 63.304688 126.261719 64.667969 121.226562 62.867188 C 115.503906 60.820312 112.730469 55.550781 111.269531 50 C 108.535156 39.605469 108.785156 26.03125 118.804688 19.429688 C 123.40625 16.402344 130.289062 15.761719 135.050781 18.828125 C 133.96875 20.367188 133.097656 22.101562 132.21875 23.746094 C 131.554688 24.988281 130.601562 26.398438 130.335938 27.832031 C 128.007812 25.648438 124.453125 25.851562 122.0625 27.945312 C 118.980469 30.636719 118.074219 35.226562 117.988281 39.128906 C 117.894531 43.535156 119.074219 48.019531 121.410156 51.769531 C 122.265625 53.148438 123.285156 54.289062 125.066406 53.96875 C 126.789062 53.660156 128.621094 52.585938 129.984375 51.390625 C 131.175781 52.792969 132.328125 54.234375 133.390625 55.730469 Z M 133.390625 55.730469 " fill-opacity="1" fill-rule="nonzero"/><g clip-path="url(#8753732364)"><path fill="#1d1d1b" d="M 135.050781 18.828125 C 130.289062 15.761719 123.40625 16.402344 118.804688 19.429688 C 108.785156 26.03125 108.535156 39.605469 111.269531 50 C 112.730469 55.550781 115.503906 60.820312 121.226562 62.867188 C 126.261719 64.667969 132.054688 63.304688 135.773438 59.476562 C 134.90625 58.292969 134.226562 56.90625 133.390625 55.730469 C 132.328125 54.234375 131.175781 52.792969 129.984375 51.390625 C 128.621094 52.585938 126.789062 53.660156 125.066406 53.96875 C 123.285156 54.289062 122.265625 53.148438 121.410156 51.769531 C 119.074219 48.019531 117.894531 43.535156 117.988281 39.128906 C 118.074219 35.226562 118.980469 30.636719 122.0625 27.945312 C 124.453125 25.851562 128.007812 25.648438 130.335938 27.832031 C 130.601562 26.398438 131.554688 24.988281 132.21875 23.746094 C 133.097656 22.101562 133.96875 20.367188 135.050781 18.828125 Z M 129.871094 28.984375 C 127.359375 26.769531 123.644531 28.65625 122.132812 31.078125 C 120.617188 33.507812 120.179688 36.621094 120.191406 39.433594 C 120.199219 42.539062 120.875 45.699219 122.175781 48.527344 C 122.871094 50.039062 123.730469 52.339844 125.800781 51.445312 C 127.074219 50.890625 128.1875 50.082031 129.359375 49.347656 C 129.984375 48.957031 130.632812 49.410156 130.785156 49.988281 C 132.339844 51.59375 133.773438 53.296875 135.074219 55.128906 C 135.792969 56.136719 137.964844 58.371094 137.53125 59.78125 C 137.613281 60.0625 137.558594 60.382812 137.292969 60.652344 C 132.570312 65.480469 125.625 67.148438 119.355469 64.324219 C 113.355469 61.617188 110.5625 55.707031 109.082031 49.636719 C 107.453125 42.964844 106.910156 35.6875 109.15625 29.085938 C 111.007812 23.648438 114.75 18.59375 120.109375 16.199219 C 125.449219 13.808594 131.121094 14.238281 135.851562 17.671875 C 136.054688 17.820312 136.144531 18.023438 136.15625 18.222656 C 136.253906 18.3125 136.296875 18.449219 136.230469 18.625 C 135.542969 20.410156 134.574219 22.09375 133.769531 23.839844 C 133.027344 25.449219 132.433594 27.738281 131.101562 28.925781 C 130.953125 29.058594 130.761719 29.085938 130.597656 29.035156 C 130.398438 29.175781 130.113281 29.203125 129.871094 28.984375 Z M 129.871094 28.984375 " fill-opacity="1" fill-rule="nonzero"/></g><g clip-path="url(#f7f9006ae3)"><path fill="#1d1d1b" d="M 97.742188 34.875 C 99.722656 39.726562 99.792969 45.375 96.425781 49.636719 C 93.304688 53.589844 88.367188 55.464844 83.476562 55.964844 C 76.980469 56.625 70.117188 55.425781 63.679688 54.597656 C 62.855469 54.496094 62.519531 53.667969 62.699219 53.070312 C 62.175781 49.4375 62.054688 45.703125 61.785156 42.050781 C 61.488281 38.164062 61.21875 34.269531 60.964844 30.378906 C 60.707031 26.371094 60.492188 22.351562 60.289062 18.335938 C 60.097656 14.550781 59.585938 10.421875 60.019531 6.652344 C 60.058594 6.339844 60.390625 6.152344 60.648438 6.21875 C 61.554688 4.84375 63.132812 4.453125 64.691406 4.082031 C 66.796875 3.578125 68.933594 3.167969 71.082031 2.925781 C 75.371094 2.441406 79.890625 2.84375 83.5 5.398438 C 90.273438 10.1875 91.355469 19.007812 88.734375 26.328125 C 93.113281 26.742188 96.183594 31.058594 97.742188 34.875 Z M 92.714844 50.351562 C 96.679688 47.277344 97.859375 42.480469 96.605469 37.726562 C 95.503906 33.578125 92.425781 27.804688 87.363281 28.207031 C 86.582031 28.269531 86.289062 27.382812 86.554688 26.796875 C 89.589844 20.066406 89.203125 11.324219 82.742188 6.691406 C 79.714844 4.519531 75.96875 4.035156 72.328125 4.296875 C 70.40625 4.433594 68.503906 4.777344 66.617188 5.167969 C 65.015625 5.496094 62.554688 5.582031 61.632812 7.152344 C 61.5 7.382812 61.296875 7.476562 61.09375 7.476562 C 61.660156 10.882812 61.597656 14.558594 61.792969 17.972656 C 62.007812 21.867188 62.257812 25.761719 62.507812 29.652344 C 62.769531 33.664062 63.046875 37.675781 63.34375 41.6875 C 63.613281 45.273438 64.089844 48.90625 64.203125 52.503906 C 73.328125 53.40625 84.832031 56.457031 92.714844 50.351562 Z M 92.714844 50.351562 " fill-opacity="1" fill-rule="nonzero"/></g><path fill="#1d1d1b" d="M 87.425781 39.890625 C 87.691406 42.503906 86.761719 45.332031 83.953125 45.996094 C 81.757812 46.507812 77.519531 46.542969 75.972656 44.605469 C 75.859375 44.457031 75.816406 44.289062 75.820312 44.128906 C 75.421875 43.132812 75.421875 41.949219 75.289062 40.898438 C 75.078125 39.25 74.910156 37.597656 74.746094 35.949219 C 74.722656 35.738281 74.816406 35.582031 74.964844 35.484375 C 74.992188 35.324219 75.082031 35.171875 75.273438 35.070312 C 77.820312 33.699219 80.941406 32.65625 83.707031 34.050781 C 85.890625 35.152344 87.183594 37.523438 87.425781 39.890625 Z M 85.710938 42.382812 C 85.960938 41.53125 85.984375 40.625 85.859375 39.757812 C 85.605469 37.953125 84.625 36.183594 82.949219 35.34375 C 80.714844 34.222656 78.058594 35.113281 75.972656 36.132812 C 76.25 37.652344 76.53125 39.171875 76.773438 40.695312 C 76.925781 41.675781 77.222656 42.707031 77.183594 43.703125 C 77.867188 43.941406 78.507812 44.273438 79.230469 44.425781 C 80.242188 44.628906 81.375 44.675781 82.40625 44.613281 C 83.976562 44.515625 85.234375 44.019531 85.710938 42.382812 Z M 85.710938 42.382812 " fill-opacity="1" fill-rule="nonzero"/><path fill="#1d1d1b" d="M 79.992188 17.722656 C 80.984375 22.445312 79.414062 27.578125 74.96875 29.933594 C 74.265625 30.304688 73.632812 29.492188 73.917969 28.945312 C 73.882812 28.890625 73.855469 28.832031 73.835938 28.765625 C 73.820312 28.707031 73.800781 28.652344 73.785156 28.59375 C 73.753906 28.496094 73.761719 28.390625 73.789062 28.296875 C 73.628906 25.867188 73.347656 23.457031 72.925781 21.058594 C 72.550781 18.929688 71.789062 16.785156 71.6875 14.621094 C 71.6875 14.597656 71.691406 14.578125 71.691406 14.558594 C 71.695312 14.527344 71.699219 14.496094 71.707031 14.464844 C 71.710938 14.453125 71.714844 14.441406 71.71875 14.429688 C 71.746094 14.34375 71.789062 14.261719 71.863281 14.179688 C 73.050781 12.894531 75.136719 12.753906 76.71875 13.324219 C 78.707031 14.039062 79.585938 15.761719 79.992188 17.722656 Z M 75.496094 27.816406 C 77.8125 25.996094 78.925781 23.125 78.8125 20.109375 C 78.75 18.40625 78.472656 16.117188 76.953125 15.058594 C 75.636719 14.148438 74.269531 14.359375 72.941406 14.941406 C 73.882812 16.878906 74.242188 19.207031 74.636719 21.289062 C 75.050781 23.445312 75.316406 25.625 75.496094 27.816406 Z M 75.496094 27.816406 " fill-opacity="1" fill-rule="nonzero"/><g clip-path="url(#64223f7eb5)"><path fill="#1d1d1b" d="M 56.378906 72.371094 C 56.941406 73.175781 57.875 74.175781 57.777344 75.25 C 57.617188 77.101562 54.472656 78.535156 53.152344 79.40625 C 50.679688 81.023438 48.078125 82.414062 45.378906 83.613281 C 44.941406 83.8125 44.398438 83.75 44.140625 83.292969 C 42.222656 79.878906 40.152344 76.5625 37.921875 73.339844 C 34.75 74.992188 31.472656 76.402344 28.089844 77.578125 C 27.695312 81.4375 27.773438 85.296875 28.382812 89.136719 C 28.457031 89.601562 28.265625 90.070312 27.773438 90.203125 C 22.890625 91.558594 17.925781 92.523438 12.898438 93.148438 C 12.460938 93.199219 11.953125 92.699219 12.007812 92.261719 C 14.34375 73.730469 15.921875 55.179688 15.390625 36.488281 C 15.015625 36.007812 15.085938 35.144531 15.84375 34.867188 C 19.296875 33.613281 22.757812 32.371094 26.21875 31.136719 C 27.300781 30.746094 28.808594 29.824219 30.007812 30.195312 C 31.191406 30.5625 31.644531 31.964844 32.089844 32.980469 C 33.28125 35.691406 34.160156 38.53125 35.363281 41.238281 C 36.488281 43.785156 37.820312 46.238281 39.273438 48.609375 C 42.15625 53.304688 45.535156 57.636719 48.824219 62.046875 C 50.5 64.300781 52.167969 66.5625 53.832031 68.824219 C 54.695312 70 55.550781 71.175781 56.378906 72.371094 Z M 55.476562 75.464844 C 55.917969 74.734375 55.382812 74.304688 54.886719 73.605469 C 54.039062 72.414062 53.175781 71.246094 52.289062 70.085938 C 48.492188 65.101562 44.371094 60.386719 40.71875 55.292969 C 37.121094 50.277344 34.050781 44.972656 31.835938 39.210938 C 31.28125 37.761719 30.757812 36.300781 30.175781 34.859375 C 29.964844 34.339844 29.675781 32.925781 29.207031 32.621094 C 28.9375 32.445312 26.863281 33.382812 26.503906 33.5 C 23.300781 34.542969 20.09375 35.574219 16.882812 36.601562 C 17.925781 54.859375 16.351562 73.152344 13.917969 91.253906 C 18.199219 90.714844 22.414062 89.863281 26.578125 88.730469 C 26.015625 84.808594 25.929688 80.878906 26.378906 76.933594 C 26.425781 76.515625 26.621094 76.214844 27.03125 76.078125 C 30.730469 74.8125 34.3125 73.261719 37.765625 71.429688 C 38.21875 71.1875 38.695312 71.339844 38.980469 71.746094 C 41.230469 74.964844 43.335938 78.269531 45.292969 81.671875 C 47.988281 80.410156 50.582031 78.953125 53.035156 77.265625 C 53.675781 76.824219 55.089844 76.105469 55.476562 75.464844 Z M 55.476562 75.464844 " fill-opacity="1" fill-rule="nonzero"/></g><path fill="#1d1d1b" d="M 36.433594 65.136719 C 36.644531 65.53125 36.546875 66.101562 36.125 66.320312 C 33.558594 67.644531 30.886719 68.605469 28.058594 69.199219 C 27.503906 69.316406 26.96875 68.953125 26.957031 68.363281 C 26.839844 62.640625 26.210938 56.972656 25.382812 51.316406 C 25.324219 51.222656 25.265625 51.132812 25.207031 51.035156 C 25.019531 50.722656 25.054688 50.390625 25.21875 50.128906 C 25.1875 49.347656 26.320312 49.015625 26.550781 49.816406 C 26.585938 49.851562 26.625 49.878906 26.660156 49.921875 C 30.707031 54.257812 33.605469 59.980469 36.433594 65.136719 Z M 34.480469 65.203125 C 33.179688 62.875 31.773438 60.601562 30.292969 58.378906 C 29.402344 57.035156 28.429688 55.734375 27.480469 54.417969 C 28.195312 58.667969 28.542969 62.972656 28.667969 67.28125 C 30.679688 66.789062 32.613281 66.101562 34.480469 65.203125 Z M 34.480469 65.203125 " fill-opacity="1" fill-rule="nonzero"/><g clip-path="url(#3d61755196)"><path fill="#000000" d="M 72.132812 73.472656 C 72.246094 73.472656 72.363281 73.484375 72.488281 73.503906 C 73.132812 73.613281 73.382812 74.574219 73.234375 76.378906 C 73.082031 78.171875 73.144531 80.734375 73.414062 84.058594 C 74.109375 84.210938 74.671875 84.597656 75.097656 85.21875 C 75.523438 85.828125 74.972656 86.144531 73.4375 86.175781 L 69.96875 86.191406 C 69.960938 86.191406 69.953125 86.191406 69.945312 86.191406 C 69.097656 86.191406 68.691406 85.964844 68.730469 85.511719 C 68.769531 85.066406 69.449219 84.542969 70.765625 83.949219 L 70.757812 82.453125 L 70.734375 77.789062 L 70.621094 76.59375 C 70.257812 76.621094 69.9375 76.636719 69.667969 76.636719 C 68.925781 76.636719 68.519531 76.527344 68.449219 76.308594 C 68.472656 75.425781 68.847656 74.9375 69.566406 74.839844 C 70.28125 74.753906 70.789062 74.480469 71.082031 74.023438 C 71.316406 73.65625 71.667969 73.472656 72.132812 73.472656 Z M 73.320312 72.070312 L 70.519531 72.191406 C 69.882812 72.195312 69.261719 72.597656 68.65625 73.398438 C 67.011719 74.246094 66.246094 75.21875 66.355469 76.316406 C 66.363281 77.539062 67.191406 78.28125 68.839844 78.542969 L 68.589844 83.054688 C 67.347656 83.507812 66.65625 84.359375 66.511719 85.617188 C 66.699219 87.066406 68.125 87.941406 70.789062 88.238281 L 74.019531 88.222656 C 75.59375 88.050781 76.636719 87.332031 77.144531 86.0625 C 77.214844 84.890625 76.777344 84.023438 75.835938 83.457031 C 74.902344 82.902344 74.589844 80.914062 74.902344 77.488281 C 75.203125 74.078125 74.675781 72.269531 73.320312 72.070312 Z M 73.320312 72.070312 " fill-opacity="1" fill-rule="nonzero"/></g><path fill="#000000" d="M 88.027344 67.101562 C 90.191406 67.101562 91.410156 67.984375 91.683594 69.75 C 91.183594 71.96875 89.601562 74.027344 86.945312 75.917969 C 86.515625 76.257812 86.726562 76.429688 87.589844 76.429688 C 88.285156 76.429688 89.402344 76.316406 90.9375 76.097656 C 90.949219 76.097656 90.957031 76.097656 90.96875 76.097656 C 91.480469 76.097656 91.894531 76.402344 92.207031 77.011719 C 92.589844 77.621094 92.304688 78.121094 91.355469 78.507812 C 90.796875 78.726562 89.921875 78.835938 88.726562 78.835938 C 87.890625 78.835938 86.898438 78.785156 85.746094 78.675781 C 84.089844 78.429688 83.195312 77.949219 83.066406 77.234375 C 82.949219 76.519531 83.355469 75.773438 84.28125 74.992188 C 87.191406 72.714844 88.644531 71.21875 88.644531 70.503906 C 88.746094 70.160156 88.519531 69.816406 87.960938 69.464844 C 87.789062 69.359375 87.613281 69.304688 87.429688 69.304688 C 87.015625 69.304688 86.566406 69.574219 86.074219 70.105469 C 85.40625 70.828125 84.648438 71.1875 83.800781 71.1875 C 83.757812 71.1875 83.714844 71.1875 83.667969 71.183594 C 82.78125 71.144531 82.601562 70.550781 83.125 69.398438 C 84.410156 67.902344 85.742188 67.152344 87.113281 67.148438 C 87.433594 67.117188 87.738281 67.101562 88.027344 67.101562 Z M 87.222656 65.457031 C 86.34375 65.457031 85.199219 65.804688 83.785156 66.503906 C 82.234375 67.261719 81.382812 68.539062 81.226562 70.335938 C 81.503906 71.824219 82.515625 72.566406 84.261719 72.566406 C 84.265625 72.566406 84.269531 72.566406 84.273438 72.566406 C 81.816406 74.148438 80.8125 75.996094 81.261719 78.109375 C 81.296875 79.449219 83.449219 80.210938 87.71875 80.398438 L 89.429688 80.394531 C 92.425781 80 93.925781 78.996094 93.921875 77.378906 L 93.917969 77.195312 C 93.917969 76.125 93.089844 75.382812 91.441406 74.960938 L 90.746094 74.976562 C 92.082031 73.378906 92.894531 72.164062 93.175781 71.332031 C 93.460938 70.511719 93.542969 69.796875 93.425781 69.1875 C 93.261719 66.71875 91.28125 65.480469 87.488281 65.46875 C 87.402344 65.460938 87.316406 65.457031 87.222656 65.457031 Z M 87.222656 65.457031 " fill-opacity="1" fill-rule="nonzero"/><g clip-path="url(#97efde13c7)"><path fill="#000000" d="M 102.765625 59.917969 C 105.140625 59.917969 106.46875 60.96875 106.746094 63.078125 C 106.75 64.105469 106.117188 64.984375 104.851562 65.710938 C 106.375 66.601562 107.140625 68.089844 107.144531 70.183594 C 106.886719 71.710938 105.726562 72.476562 103.65625 72.476562 C 103.378906 72.476562 103.085938 72.460938 102.777344 72.433594 C 101.148438 72.34375 100.023438 72.011719 99.398438 71.433594 C 98.785156 70.851562 98.59375 70.421875 98.824219 70.144531 C 99.046875 69.871094 99.410156 69.652344 99.917969 69.488281 C 100.023438 69.453125 100.128906 69.433594 100.230469 69.433594 C 100.609375 69.433594 100.949219 69.679688 101.25 70.167969 C 101.519531 70.621094 102.097656 70.847656 102.984375 70.847656 C 103.3125 70.847656 103.6875 70.816406 104.101562 70.753906 C 104.652344 70.386719 104.953125 70.066406 105.003906 69.785156 C 105.046875 69.515625 105.0625 69.210938 105.050781 68.867188 C 105.046875 68.535156 104.953125 68.203125 104.761719 67.875 C 104.570312 67.550781 103.910156 67.234375 102.777344 66.914062 C 101.660156 66.605469 101.648438 66.164062 102.742188 65.59375 C 103.832031 65.019531 104.351562 64.34375 104.308594 63.566406 C 104.335938 62.902344 104.167969 62.425781 103.796875 62.136719 C 103.425781 61.847656 102.925781 61.699219 102.289062 61.691406 C 101.890625 61.703125 101.457031 62.023438 100.992188 62.65625 C 100.632812 63.152344 100.269531 63.402344 99.914062 63.402344 C 99.8125 63.402344 99.714844 63.382812 99.617188 63.34375 C 99.171875 63.179688 98.949219 62.847656 98.949219 62.351562 C 98.945312 60.734375 100.210938 59.921875 102.746094 59.917969 C 102.753906 59.917969 102.757812 59.917969 102.765625 59.917969 Z M 103.121094 58.234375 L 102.550781 58.238281 C 99.003906 58.578125 97.175781 59.863281 97.0625 62.089844 C 97.035156 63.84375 97.921875 64.863281 99.714844 65.148438 L 100.855469 65.144531 C 99.539062 65.9375 99.605469 66.75 101.054688 67.585938 C 100.273438 67.652344 99.542969 67.804688 98.867188 68.042969 C 98.203125 68.273438 97.730469 68.886719 97.445312 69.882812 C 97.164062 70.878906 97.441406 71.820312 98.277344 72.710938 C 99.105469 73.601562 100.984375 74.066406 103.921875 74.113281 C 107.214844 73.792969 108.859375 72.421875 108.855469 69.996094 C 108.851562 68.355469 108.308594 66.910156 107.226562 65.660156 C 107.734375 65.210938 108.113281 64.5625 108.363281 63.714844 C 108.605469 62.863281 108.402344 61.804688 107.753906 60.542969 C 107.105469 59.289062 105.5625 58.519531 103.121094 58.234375 Z M 103.121094 58.234375 " fill-opacity="1" fill-rule="nonzero"/></g><path fill="#f84693" d="M 72.132812 73.441406 C 72.128906 73.441406 72.128906 73.441406 72.128906 73.441406 C 71.652344 73.441406 71.296875 73.628906 71.054688 74.007812 C 70.765625 74.457031 70.269531 74.722656 69.5625 74.808594 C 68.824219 74.90625 68.441406 75.40625 68.414062 76.304688 L 68.417969 76.316406 C 68.492188 76.550781 68.910156 76.667969 69.667969 76.667969 C 69.671875 76.667969 69.679688 76.667969 69.683594 76.667969 C 69.945312 76.667969 70.246094 76.652344 70.589844 76.625 L 70.703125 77.789062 L 70.726562 82.453125 L 70.734375 83.929688 C 69.417969 84.527344 68.738281 85.054688 68.699219 85.507812 C 68.664062 85.921875 68.96875 86.15625 69.621094 86.210938 C 69.722656 86.21875 69.828125 86.222656 69.945312 86.222656 C 69.949219 86.222656 69.953125 86.222656 69.957031 86.222656 C 69.960938 86.222656 69.964844 86.222656 69.96875 86.222656 L 73.441406 86.207031 C 74.667969 86.183594 75.277344 85.96875 75.269531 85.566406 C 75.265625 85.457031 75.21875 85.335938 75.125 85.199219 C 74.699219 84.582031 74.140625 84.191406 73.445312 84.035156 L 73.441406 84.035156 C 73.175781 80.71875 73.117188 78.167969 73.265625 76.378906 C 73.414062 74.554688 73.160156 73.585938 72.496094 73.472656 C 72.367188 73.453125 72.246094 73.441406 72.132812 73.441406 Z M 72.132812 73.441406 " fill-opacity="1" fill-rule="nonzero"/><path fill="#0088f7" d="M 88.027344 67.0625 C 88.019531 67.0625 88.011719 67.0625 88.007812 67.0625 C 87.722656 67.0625 87.425781 67.078125 87.113281 67.109375 L 87.109375 67.109375 C 85.726562 67.113281 84.386719 67.867188 83.097656 69.371094 L 83.089844 69.382812 C 82.660156 70.324219 82.699219 70.90625 83.203125 71.128906 C 83.328125 71.183594 83.484375 71.214844 83.667969 71.222656 C 83.710938 71.226562 83.757812 71.226562 83.800781 71.226562 C 83.804688 71.226562 83.808594 71.226562 83.808594 71.226562 C 84.664062 71.222656 85.429688 70.859375 86.105469 70.132812 C 86.585938 69.609375 87.027344 69.347656 87.429688 69.34375 L 87.429688 69.347656 C 87.429688 69.34375 87.429688 69.34375 87.429688 69.34375 C 87.605469 69.34375 87.777344 69.394531 87.9375 69.496094 C 88.480469 69.835938 88.703125 70.167969 88.605469 70.492188 L 88.601562 70.503906 C 88.605469 71.207031 87.15625 72.691406 84.257812 74.960938 L 84.253906 74.964844 C 83.316406 75.753906 82.90625 76.511719 83.027344 77.242188 C 83.160156 77.976562 84.0625 78.464844 85.742188 78.714844 L 85.746094 78.714844 C 86.894531 78.824219 87.886719 78.875 88.726562 78.875 C 88.742188 78.875 88.757812 78.875 88.773438 78.875 C 89.949219 78.875 90.816406 78.761719 91.371094 78.542969 C 92.25 78.183594 92.574219 77.730469 92.339844 77.175781 C 92.316406 77.117188 92.28125 77.054688 92.242188 76.992188 C 91.925781 76.371094 91.5 76.058594 90.96875 76.058594 C 90.964844 76.058594 90.964844 76.058594 90.964844 76.058594 C 90.957031 76.058594 90.945312 76.058594 90.9375 76.058594 L 90.933594 76.058594 C 89.410156 76.277344 88.300781 76.386719 87.605469 76.390625 C 87.597656 76.390625 87.59375 76.390625 87.589844 76.390625 C 87.042969 76.390625 86.769531 76.328125 86.769531 76.203125 C 86.769531 76.140625 86.835938 76.054688 86.96875 75.953125 C 89.632812 74.050781 91.21875 71.988281 91.722656 69.757812 L 91.722656 69.746094 C 91.445312 67.957031 90.210938 67.0625 88.027344 67.0625 Z M 88.027344 67.0625 " fill-opacity="1" fill-rule="nonzero"/><path fill="#64f9c3" d="M 102.765625 59.875 C 102.757812 59.875 102.753906 59.875 102.746094 59.875 L 102.746094 59.878906 C 100.183594 59.882812 98.90625 60.707031 98.910156 62.351562 C 98.910156 62.867188 99.140625 63.210938 99.601562 63.382812 C 99.707031 63.421875 99.808594 63.441406 99.914062 63.441406 C 100.285156 63.441406 100.65625 63.1875 101.027344 62.679688 C 101.480469 62.058594 101.902344 61.742188 102.289062 61.730469 L 102.292969 61.730469 C 102.914062 61.738281 103.410156 61.882812 103.773438 62.167969 C 104.132812 62.449219 104.296875 62.914062 104.269531 63.566406 L 104.269531 63.570312 C 104.3125 64.328125 103.796875 64.992188 102.726562 65.558594 C 102.046875 65.910156 101.78125 66.222656 101.929688 66.496094 C 102.023438 66.671875 102.304688 66.824219 102.769531 66.953125 C 103.886719 67.269531 104.542969 67.582031 104.726562 67.894531 C 104.914062 68.21875 105.007812 68.542969 105.007812 68.867188 L 105.007812 68.871094 C 105.019531 69.210938 105.003906 69.511719 104.964844 69.78125 C 104.914062 70.046875 104.621094 70.359375 104.089844 70.714844 L 104.085938 70.714844 C 103.683594 70.777344 103.320312 70.808594 102.996094 70.808594 C 102.992188 70.808594 102.988281 70.808594 102.984375 70.808594 C 102.113281 70.808594 101.546875 70.585938 101.285156 70.148438 C 100.976562 69.644531 100.625 69.394531 100.230469 69.394531 C 100.125 69.394531 100.015625 69.414062 99.90625 69.449219 C 99.390625 69.621094 99.019531 69.84375 98.792969 70.117188 C 98.546875 70.417969 98.738281 70.863281 99.371094 71.460938 C 100.003906 72.046875 101.136719 72.382812 102.773438 72.472656 C 103.085938 72.5 103.378906 72.515625 103.65625 72.515625 C 103.664062 72.515625 103.671875 72.515625 103.675781 72.515625 C 105.753906 72.511719 106.921875 71.734375 107.183594 70.191406 L 107.183594 70.183594 C 107.179688 68.101562 106.425781 66.613281 104.929688 65.710938 C 106.167969 64.984375 106.789062 64.105469 106.785156 63.078125 L 106.785156 63.074219 C 106.503906 60.941406 105.164062 59.875 102.765625 59.875 Z M 102.765625 59.875 " fill-opacity="1" fill-rule="nonzero"/></svg>