<svg xmlns="http://www.w3.org/2000/svg" xmlns:xlink="http://www.w3.org/1999/xlink" width="200" zoomAndPan="magnify" viewBox="0 0 150 95.999999" height="128" preserveAspectRatio="xMidYMid meet" version="1.0"><defs><clipPath id="ba43d7f2e7"><path d="M 52 7.449219 L 88 7.449219 L 88 56 L 52 56 Z M 52 7.449219 " clip-rule="nonzero"/></clipPath><clipPath id="67a700912b"><path d="M 9.601562 32 L 51 32 L 51 88.449219 L 9.601562 88.449219 Z M 9.601562 32 " clip-rule="nonzero"/></clipPath><clipPath id="26dd961394"><path d="M 55.367188 72 L 67 72 L 67 88.238281 L 55.367188 88.238281 Z M 55.367188 72 " clip-rule="nonzero"/></clipPath><clipPath id="38858f6519"><path d="M 86 58.238281 L 98.117188 58.238281 L 98.117188 75 L 86 75 Z M 86 58.238281 " clip-rule="nonzero"/></clipPath><clipPath id="2b4cc8a65d"><path d="M 117.183594 76 L 123 76 L 123 81 L 117.183594 81 Z M 117.183594 76 " clip-rule="nonzero"/></clipPath><clipPath id="0a40d173f7"><path d="M 136.933594 67.664062 L 140.429688 67.664062 L 140.429688 74.558594 L 136.933594 74.558594 Z M 136.933594 67.664062 " clip-rule="nonzero"/></clipPath><clipPath id="714c281df2"><path d="M 132.273438 80.054688 L 137.605469 80.054688 L 137.605469 86.457031 L 132.273438 86.457031 Z M 132.273438 80.054688 " clip-rule="nonzero"/></clipPath></defs><path fill="#64f9c3" d="M 47.933594 70.960938 C 48.378906 71.585938 48.855469 71.96875 48.464844 72.621094 C 48.117188 73.195312 46.851562 73.835938 46.28125 74.230469 C 44.09375 75.734375 41.777344 77.035156 39.371094 78.164062 C 37.621094 75.125 35.742188 72.175781 33.734375 69.304688 C 33.480469 68.941406 33.054688 68.804688 32.648438 69.019531 C 29.566406 70.65625 26.367188 72.039062 23.066406 73.167969 C 22.695312 73.292969 22.523438 73.5625 22.484375 73.929688 C 22.082031 77.457031 22.15625 80.960938 22.660156 84.460938 C 18.945312 85.472656 15.175781 86.234375 11.355469 86.714844 C 13.53125 70.558594 14.933594 54.230469 14.003906 37.933594 C 16.871094 37.015625 19.734375 36.09375 22.59375 35.164062 C 22.914062 35.058594 24.769531 34.226562 25.007812 34.382812 C 25.425781 34.65625 25.683594 35.914062 25.871094 36.378906 C 26.390625 37.664062 26.859375 38.96875 27.355469 40.261719 C 29.332031 45.40625 32.074219 50.140625 35.285156 54.617188 C 38.546875 59.164062 42.226562 63.371094 45.617188 67.820312 C 46.40625 68.855469 47.179688 69.898438 47.933594 70.960938 Z M 31.183594 64.460938 C 31.5625 64.265625 31.648438 63.753906 31.460938 63.40625 C 28.933594 58.800781 26.34375 53.695312 22.734375 49.820312 C 22.703125 49.785156 22.667969 49.761719 22.632812 49.730469 C 22.429688 49.011719 21.417969 49.3125 21.445312 50.007812 C 21.300781 50.242188 21.265625 50.535156 21.433594 50.816406 C 21.488281 50.902344 21.539062 50.984375 21.59375 51.066406 C 22.332031 56.117188 22.894531 61.175781 23 66.285156 C 23.007812 66.8125 23.484375 67.136719 23.980469 67.03125 C 26.507812 66.5 28.890625 65.640625 31.183594 64.460938 Z M 31.183594 64.460938 " fill-opacity="1" fill-rule="nonzero"/><path fill="#0088f7" d="M 85.183594 38.9375 C 86.304688 43.179688 85.25 47.464844 81.710938 50.207031 C 74.671875 55.65625 64.402344 52.933594 56.253906 52.128906 C 56.152344 48.914062 55.726562 45.675781 55.488281 42.472656 C 55.222656 38.890625 54.976562 35.3125 54.742188 31.730469 C 54.519531 28.257812 54.292969 24.78125 54.101562 21.308594 C 53.925781 18.257812 53.980469 14.976562 53.480469 11.9375 C 53.660156 11.9375 53.839844 11.855469 53.960938 11.648438 C 54.78125 10.246094 56.980469 10.171875 58.410156 9.878906 C 60.09375 9.53125 61.792969 9.222656 63.511719 9.101562 C 66.761719 8.863281 70.101562 9.296875 72.808594 11.234375 C 78.574219 15.371094 78.921875 23.175781 76.210938 29.179688 C 75.972656 29.707031 76.234375 30.5 76.933594 30.441406 C 81.453125 30.082031 84.203125 35.234375 85.183594 38.9375 Z M 73.890625 46.316406 C 76.398438 45.726562 77.226562 43.203125 76.988281 40.871094 C 76.769531 38.757812 75.617188 36.640625 73.667969 35.65625 C 71.199219 34.410156 68.414062 35.34375 66.140625 36.566406 C 65.96875 36.660156 65.886719 36.792969 65.863281 36.9375 C 65.730469 37.023438 65.644531 37.164062 65.664062 37.351562 C 65.8125 38.824219 65.964844 40.296875 66.152344 41.769531 C 66.269531 42.707031 66.269531 43.761719 66.625 44.652344 C 66.621094 44.792969 66.660156 44.945312 66.761719 45.078125 C 68.144531 46.804688 71.925781 46.777344 73.890625 46.316406 Z M 65.867188 31.980469 C 69.835938 29.878906 71.238281 25.300781 70.351562 21.082031 C 69.988281 19.332031 69.203125 17.796875 67.425781 17.15625 C 66.019531 16.648438 64.152344 16.773438 63.09375 17.921875 C 63.027344 17.992188 62.988281 18.070312 62.964844 18.144531 C 62.960938 18.152344 62.957031 18.167969 62.953125 18.175781 C 62.949219 18.203125 62.945312 18.230469 62.941406 18.257812 C 62.941406 18.277344 62.933594 18.292969 62.933594 18.3125 C 63.027344 20.246094 63.707031 22.160156 64.042969 24.0625 C 64.421875 26.199219 64.671875 28.351562 64.8125 30.519531 C 64.789062 30.605469 64.78125 30.699219 64.808594 30.785156 C 64.824219 30.839844 64.839844 30.886719 64.855469 30.941406 C 64.871094 31 64.898438 31.050781 64.925781 31.101562 C 64.671875 31.589844 65.238281 32.3125 65.867188 31.980469 Z M 65.867188 31.980469 " fill-opacity="1" fill-rule="nonzero"/><path fill="#ff9700" d="M 118.027344 55.007812 C 118.773438 56.058594 119.382812 57.296875 120.15625 58.351562 C 116.835938 61.765625 111.664062 62.984375 107.167969 61.378906 C 102.058594 59.550781 99.582031 54.847656 98.277344 49.894531 C 95.835938 40.617188 96.058594 28.5 105.007812 22.609375 C 109.113281 19.90625 115.261719 19.332031 119.511719 22.070312 C 118.542969 23.441406 117.769531 24.992188 116.984375 26.460938 C 116.386719 27.566406 115.535156 28.828125 115.300781 30.105469 C 113.222656 28.15625 110.046875 28.339844 107.914062 30.207031 C 105.160156 32.609375 104.351562 36.707031 104.277344 40.191406 C 104.191406 44.125 105.246094 48.125 107.328125 51.472656 C 108.097656 52.703125 109.007812 53.71875 110.597656 53.433594 C 112.136719 53.160156 113.769531 52.199219 114.988281 51.136719 C 116.050781 52.386719 117.082031 53.671875 118.027344 55.007812 Z M 118.027344 55.007812 " fill-opacity="1" fill-rule="nonzero"/><path fill="#1d1d1b" d="M 119.511719 22.070312 C 115.261719 19.332031 109.113281 19.90625 105.007812 22.609375 C 96.058594 28.5 95.835938 40.617188 98.277344 49.894531 C 99.582031 54.847656 102.058594 59.550781 107.167969 61.378906 C 111.664062 62.984375 116.835938 61.765625 120.15625 58.351562 C 119.382812 57.296875 118.773438 56.058594 118.027344 55.007812 C 117.082031 53.671875 116.050781 52.386719 114.988281 51.136719 C 113.769531 52.199219 112.136719 53.160156 110.597656 53.433594 C 109.007812 53.71875 108.097656 52.703125 107.328125 51.472656 C 105.246094 48.125 104.191406 44.125 104.277344 40.191406 C 104.351562 36.707031 105.160156 32.609375 107.914062 30.207031 C 110.046875 28.339844 113.222656 28.15625 115.300781 30.105469 C 115.535156 28.828125 116.386719 27.566406 116.984375 26.460938 C 117.769531 24.992188 118.542969 23.441406 119.511719 22.070312 Z M 114.886719 31.136719 C 112.644531 29.160156 109.328125 30.84375 107.976562 33.003906 C 106.625 35.171875 106.230469 37.953125 106.242188 40.460938 C 106.25 43.230469 106.851562 46.054688 108.011719 48.578125 C 108.636719 49.925781 109.402344 51.980469 111.25 51.179688 C 112.386719 50.6875 113.382812 49.964844 114.429688 49.3125 C 114.988281 48.960938 115.566406 49.367188 115.699219 49.882812 C 117.089844 51.316406 118.371094 52.835938 119.53125 54.46875 C 120.175781 55.371094 122.113281 57.363281 121.726562 58.621094 C 121.796875 58.875 121.75 59.160156 121.511719 59.402344 C 117.296875 63.710938 111.09375 65.199219 105.496094 62.675781 C 100.140625 60.261719 97.648438 54.988281 96.324219 49.570312 C 94.871094 43.613281 94.382812 37.117188 96.390625 31.226562 C 98.042969 26.371094 101.382812 21.859375 106.167969 19.722656 C 110.9375 17.589844 116.003906 17.972656 120.226562 21.039062 C 120.40625 21.171875 120.484375 21.351562 120.5 21.53125 C 120.585938 21.609375 120.625 21.730469 120.566406 21.886719 C 119.949219 23.484375 119.085938 24.984375 118.367188 26.542969 C 117.703125 27.980469 117.171875 30.023438 115.984375 31.085938 C 115.851562 31.203125 115.679688 31.226562 115.535156 31.179688 C 115.355469 31.308594 115.101562 31.328125 114.886719 31.136719 Z M 114.886719 31.136719 " fill-opacity="1" fill-rule="nonzero"/><g clip-path="url(#ba43d7f2e7)"><path fill="#1d1d1b" d="M 86.199219 36.394531 C 87.96875 40.722656 88.03125 45.765625 85.023438 49.570312 C 82.238281 53.097656 77.828125 54.769531 73.460938 55.214844 C 67.660156 55.804688 61.535156 54.734375 55.785156 54 C 55.050781 53.90625 54.75 53.167969 54.914062 52.632812 C 54.445312 49.390625 54.335938 46.058594 54.09375 42.796875 C 53.832031 39.328125 53.585938 35.851562 53.363281 32.382812 C 53.132812 28.800781 52.941406 25.214844 52.757812 21.632812 C 52.589844 18.25 52.132812 14.566406 52.519531 11.203125 C 52.550781 10.921875 52.851562 10.753906 53.082031 10.8125 C 53.890625 9.589844 55.296875 9.238281 56.691406 8.90625 C 58.570312 8.457031 60.476562 8.09375 62.394531 7.875 C 66.226562 7.445312 70.261719 7.804688 73.484375 10.082031 C 79.53125 14.359375 80.5 22.230469 78.160156 28.765625 C 82.066406 29.132812 84.808594 32.988281 86.199219 36.394531 Z M 81.710938 50.207031 C 85.25 47.464844 86.304688 43.179688 85.183594 38.9375 C 84.203125 35.234375 81.453125 30.082031 76.933594 30.441406 C 76.234375 30.5 75.972656 29.707031 76.210938 29.179688 C 78.921875 23.175781 78.574219 15.371094 72.808594 11.234375 C 70.101562 9.296875 66.761719 8.863281 63.511719 9.101562 C 61.792969 9.222656 60.09375 9.53125 58.410156 9.878906 C 56.980469 10.171875 54.78125 10.246094 53.960938 11.648438 C 53.839844 11.855469 53.660156 11.9375 53.480469 11.9375 C 53.980469 14.976562 53.925781 18.257812 54.101562 21.308594 C 54.292969 24.78125 54.519531 28.257812 54.742188 31.730469 C 54.976562 35.3125 55.222656 38.890625 55.488281 42.472656 C 55.726562 45.675781 56.152344 48.914062 56.253906 52.128906 C 64.402344 52.933594 74.671875 55.65625 81.710938 50.207031 Z M 81.710938 50.207031 " fill-opacity="1" fill-rule="nonzero"/></g><path fill="#1d1d1b" d="M 76.988281 40.871094 C 77.226562 43.203125 76.398438 45.726562 73.890625 46.316406 C 71.925781 46.777344 68.144531 46.804688 66.761719 45.078125 C 66.660156 44.945312 66.621094 44.792969 66.625 44.652344 C 66.269531 43.761719 66.269531 42.707031 66.152344 41.769531 C 65.964844 40.296875 65.8125 38.824219 65.664062 37.351562 C 65.644531 37.164062 65.730469 37.023438 65.863281 36.9375 C 65.886719 36.792969 65.96875 36.660156 66.140625 36.566406 C 68.414062 35.34375 71.199219 34.410156 73.667969 35.65625 C 75.617188 36.640625 76.769531 38.757812 76.988281 40.871094 Z M 75.457031 43.09375 C 75.679688 42.335938 75.703125 41.527344 75.589844 40.75 C 75.363281 39.140625 74.488281 37.558594 72.992188 36.808594 C 70.996094 35.808594 68.625 36.605469 66.761719 37.515625 C 67.011719 38.871094 67.261719 40.230469 67.476562 41.589844 C 67.613281 42.460938 67.878906 43.382812 67.84375 44.273438 C 68.453125 44.488281 69.023438 44.78125 69.671875 44.914062 C 70.574219 45.097656 71.585938 45.140625 72.503906 45.085938 C 73.910156 44.996094 75.03125 44.554688 75.457031 43.09375 Z M 75.457031 43.09375 " fill-opacity="1" fill-rule="nonzero"/><path fill="#1d1d1b" d="M 70.351562 21.082031 C 71.238281 25.300781 69.835938 29.878906 65.867188 31.980469 C 65.238281 32.3125 64.671875 31.589844 64.925781 31.101562 C 64.898438 31.050781 64.871094 31 64.855469 30.941406 C 64.839844 30.886719 64.824219 30.839844 64.808594 30.785156 C 64.78125 30.699219 64.789062 30.605469 64.8125 30.519531 C 64.671875 28.351562 64.421875 26.199219 64.042969 24.0625 C 63.707031 22.160156 63.027344 20.246094 62.933594 18.3125 C 62.933594 18.292969 62.941406 18.277344 62.941406 18.257812 C 62.945312 18.230469 62.949219 18.203125 62.953125 18.175781 C 62.957031 18.167969 62.960938 18.152344 62.964844 18.144531 C 62.988281 18.070312 63.027344 17.992188 63.09375 17.921875 C 64.152344 16.773438 66.019531 16.648438 67.425781 17.15625 C 69.203125 17.796875 69.988281 19.332031 70.351562 21.082031 Z M 66.335938 30.09375 C 68.402344 28.46875 69.398438 25.90625 69.296875 23.214844 C 69.242188 21.695312 68.996094 19.648438 67.636719 18.707031 C 66.460938 17.890625 65.242188 18.082031 64.054688 18.601562 C 64.898438 20.332031 65.214844 22.40625 65.570312 24.265625 C 65.9375 26.191406 66.175781 28.136719 66.335938 30.09375 Z M 66.335938 30.09375 " fill-opacity="1" fill-rule="nonzero"/><g clip-path="url(#67a700912b)"><path fill="#1d1d1b" d="M 49.269531 69.859375 C 49.769531 70.578125 50.601562 71.472656 50.519531 72.429688 C 50.375 74.082031 47.566406 75.363281 46.386719 76.140625 C 44.179688 77.582031 41.859375 78.824219 39.445312 79.894531 C 39.054688 80.074219 38.570312 80.015625 38.339844 79.605469 C 36.628906 76.5625 34.777344 73.601562 32.789062 70.726562 C 29.957031 72.199219 27.027344 73.460938 24.011719 74.507812 C 23.65625 77.953125 23.726562 81.398438 24.269531 84.824219 C 24.335938 85.242188 24.167969 85.65625 23.730469 85.777344 C 19.367188 86.988281 14.933594 87.847656 10.445312 88.40625 C 10.058594 88.449219 9.601562 88.003906 9.652344 87.617188 C 11.734375 71.074219 13.144531 54.515625 12.667969 37.832031 C 12.335938 37.402344 12.398438 36.632812 13.078125 36.386719 C 16.160156 35.265625 19.25 34.15625 22.339844 33.054688 C 23.304688 32.707031 24.652344 31.882812 25.722656 32.21875 C 26.777344 32.546875 27.183594 33.796875 27.582031 34.699219 C 28.644531 37.121094 29.429688 39.65625 30.503906 42.074219 C 31.507812 44.347656 32.699219 46.535156 33.996094 48.652344 C 36.570312 52.84375 39.585938 56.710938 42.523438 60.648438 C 44.019531 62.65625 45.507812 64.675781 46.996094 66.695312 C 47.765625 67.746094 48.53125 68.792969 49.269531 69.859375 Z M 48.464844 72.621094 C 48.855469 71.96875 48.378906 71.585938 47.933594 70.960938 C 47.179688 69.898438 46.40625 68.855469 45.617188 67.820312 C 42.226562 63.371094 38.546875 59.164062 35.285156 54.617188 C 32.074219 50.140625 29.332031 45.40625 27.355469 40.261719 C 26.859375 38.96875 26.390625 37.664062 25.871094 36.378906 C 25.683594 35.914062 25.425781 34.65625 25.007812 34.382812 C 24.769531 34.226562 22.914062 35.058594 22.59375 35.164062 C 19.734375 36.09375 16.871094 37.015625 14.003906 37.933594 C 14.933594 54.230469 13.53125 70.558594 11.355469 86.714844 C 15.175781 86.234375 18.945312 85.472656 22.660156 84.460938 C 22.15625 80.960938 22.082031 77.457031 22.484375 73.929688 C 22.523438 73.5625 22.695312 73.292969 23.066406 73.167969 C 26.367188 72.039062 29.566406 70.65625 32.648438 69.019531 C 33.054688 68.804688 33.480469 68.941406 33.734375 69.304688 C 35.742188 72.175781 37.621094 75.125 39.371094 78.164062 C 41.777344 77.035156 44.09375 75.734375 46.28125 74.230469 C 46.851562 73.835938 48.117188 73.195312 48.464844 72.621094 Z M 48.464844 72.621094 " fill-opacity="1" fill-rule="nonzero"/></g><path fill="#1d1d1b" d="M 31.460938 63.40625 C 31.648438 63.753906 31.5625 64.265625 31.183594 64.460938 C 28.890625 65.640625 26.507812 66.5 23.980469 67.03125 C 23.484375 67.136719 23.007812 66.8125 23 66.285156 C 22.894531 61.175781 22.332031 56.117188 21.59375 51.066406 C 21.539062 50.984375 21.488281 50.902344 21.433594 50.816406 C 21.265625 50.535156 21.300781 50.242188 21.445312 50.007812 C 21.417969 49.3125 22.429688 49.011719 22.632812 49.730469 C 22.667969 49.761719 22.703125 49.785156 22.734375 49.820312 C 26.34375 53.695312 28.933594 58.800781 31.460938 63.40625 Z M 29.71875 63.464844 C 28.554688 61.382812 27.296875 59.355469 25.976562 57.371094 C 25.183594 56.171875 24.3125 55.011719 23.464844 53.835938 C 24.105469 57.628906 24.414062 61.472656 24.527344 65.316406 C 26.320312 64.878906 28.046875 64.265625 29.71875 63.464844 Z M 29.71875 63.464844 " fill-opacity="1" fill-rule="nonzero"/><g clip-path="url(#26dd961394)"><path fill="#000000" d="M 61.347656 73.472656 C 61.460938 73.472656 61.582031 73.484375 61.707031 73.503906 C 62.351562 73.613281 62.597656 74.574219 62.449219 76.378906 C 62.300781 78.171875 62.359375 80.734375 62.628906 84.058594 C 63.328125 84.210938 63.890625 84.597656 64.316406 85.21875 C 64.742188 85.828125 64.1875 86.144531 62.65625 86.175781 L 59.1875 86.191406 C 59.179688 86.191406 59.171875 86.191406 59.164062 86.191406 C 58.3125 86.191406 57.910156 85.964844 57.949219 85.511719 C 57.988281 85.066406 58.667969 84.542969 59.984375 83.949219 L 59.976562 82.453125 L 59.953125 77.789062 L 59.835938 76.59375 C 59.472656 76.621094 59.15625 76.636719 58.882812 76.636719 C 58.140625 76.636719 57.734375 76.527344 57.664062 76.308594 C 57.691406 75.425781 58.066406 74.9375 58.78125 74.839844 C 59.5 74.753906 60.003906 74.480469 60.300781 74.023438 C 60.535156 73.65625 60.886719 73.472656 61.347656 73.472656 Z M 62.539062 72.070312 L 59.734375 72.191406 C 59.101562 72.195312 58.480469 72.597656 57.871094 73.398438 C 56.226562 74.246094 55.460938 75.21875 55.574219 76.316406 C 55.578125 77.539062 56.40625 78.28125 58.054688 78.542969 L 57.808594 83.054688 C 56.566406 83.507812 55.871094 84.359375 55.730469 85.617188 C 55.917969 87.066406 57.34375 87.941406 60.003906 88.238281 L 63.238281 88.222656 C 64.808594 88.050781 65.851562 87.332031 66.363281 86.0625 C 66.433594 84.890625 65.996094 84.023438 65.050781 83.457031 C 64.121094 82.902344 63.808594 80.914062 64.117188 77.488281 C 64.417969 74.078125 63.894531 72.269531 62.539062 72.070312 Z M 62.539062 72.070312 " fill-opacity="1" fill-rule="nonzero"/></g><path fill="#000000" d="M 77.242188 67.101562 C 79.40625 67.101562 80.625 67.984375 80.902344 69.75 C 80.398438 71.96875 78.820312 74.027344 76.164062 75.917969 C 75.730469 76.257812 75.945312 76.429688 76.804688 76.429688 C 77.5 76.429688 78.617188 76.316406 80.15625 76.097656 C 80.164062 76.097656 80.175781 76.097656 80.183594 76.097656 C 80.699219 76.097656 81.113281 76.402344 81.425781 77.011719 C 81.808594 77.621094 81.523438 78.121094 80.574219 78.507812 C 80.015625 78.726562 79.136719 78.835938 77.945312 78.835938 C 77.105469 78.835938 76.113281 78.785156 74.964844 78.675781 C 73.304688 78.429688 72.414062 77.949219 72.285156 77.234375 C 72.167969 76.519531 72.570312 75.773438 73.5 74.992188 C 76.410156 72.714844 77.863281 71.21875 77.859375 70.503906 C 77.964844 70.160156 77.738281 69.816406 77.175781 69.464844 C 77.007812 69.359375 76.832031 69.304688 76.648438 69.304688 C 76.234375 69.304688 75.78125 69.574219 75.292969 70.105469 C 74.621094 70.828125 73.863281 71.1875 73.019531 71.1875 C 72.976562 71.1875 72.929688 71.1875 72.886719 71.183594 C 72 71.144531 71.820312 70.550781 72.34375 69.398438 C 73.628906 67.902344 74.957031 67.152344 76.332031 67.148438 C 76.652344 67.117188 76.957031 67.101562 77.242188 67.101562 Z M 76.441406 65.457031 C 75.5625 65.457031 74.414062 65.804688 73.003906 66.503906 C 71.453125 67.261719 70.597656 68.539062 70.445312 70.335938 C 70.722656 71.824219 71.734375 72.566406 73.476562 72.566406 C 73.484375 72.566406 73.488281 72.566406 73.492188 72.566406 C 71.035156 74.148438 70.03125 75.996094 70.480469 78.109375 C 70.515625 79.449219 72.667969 80.210938 76.933594 80.398438 L 78.644531 80.394531 C 81.644531 80 83.140625 78.996094 83.136719 77.378906 L 83.136719 77.195312 C 83.132812 76.125 82.308594 75.382812 80.660156 74.960938 L 79.964844 74.976562 C 81.300781 73.378906 82.109375 72.164062 82.394531 71.332031 C 82.675781 70.511719 82.761719 69.796875 82.640625 69.1875 C 82.476562 66.71875 80.5 65.480469 76.707031 65.46875 C 76.621094 65.460938 76.53125 65.457031 76.441406 65.457031 Z M 76.441406 65.457031 " fill-opacity="1" fill-rule="nonzero"/><g clip-path="url(#38858f6519)"><path fill="#000000" d="M 91.980469 59.917969 C 94.359375 59.917969 95.683594 60.96875 95.964844 63.078125 C 95.964844 64.105469 95.335938 64.984375 94.070312 65.710938 C 95.59375 66.601562 96.355469 68.089844 96.363281 70.183594 C 96.105469 71.710938 94.941406 72.476562 92.875 72.476562 C 92.597656 72.476562 92.304688 72.460938 91.992188 72.433594 C 90.367188 72.34375 89.242188 72.011719 88.617188 71.433594 C 88.003906 70.851562 87.8125 70.421875 88.042969 70.144531 C 88.265625 69.871094 88.628906 69.652344 89.136719 69.488281 C 89.242188 69.453125 89.347656 69.433594 89.449219 69.433594 C 89.828125 69.433594 90.167969 69.679688 90.46875 70.167969 C 90.738281 70.621094 91.316406 70.847656 92.203125 70.847656 C 92.53125 70.847656 92.90625 70.816406 93.320312 70.753906 C 93.867188 70.386719 94.167969 70.066406 94.222656 69.785156 C 94.261719 69.515625 94.277344 69.210938 94.265625 68.867188 C 94.265625 68.535156 94.171875 68.203125 93.980469 67.875 C 93.789062 67.550781 93.128906 67.234375 91.996094 66.914062 C 90.875 66.605469 90.863281 66.164062 91.960938 65.59375 C 93.046875 65.019531 93.570312 64.34375 93.523438 63.566406 C 93.554688 62.902344 93.386719 62.425781 93.015625 62.136719 C 92.644531 61.847656 92.140625 61.699219 91.507812 61.691406 C 91.105469 61.703125 90.675781 62.023438 90.210938 62.65625 C 89.847656 63.152344 89.488281 63.402344 89.128906 63.402344 C 89.03125 63.402344 88.933594 63.382812 88.835938 63.34375 C 88.390625 63.179688 88.167969 62.847656 88.167969 62.351562 C 88.164062 60.734375 89.429688 59.921875 91.964844 59.917969 C 91.96875 59.917969 91.976562 59.917969 91.980469 59.917969 Z M 92.339844 58.234375 L 91.769531 58.238281 C 88.222656 58.578125 86.390625 59.863281 86.28125 62.089844 C 86.253906 63.84375 87.136719 64.863281 88.933594 65.148438 L 90.074219 65.144531 C 88.757812 65.9375 88.820312 66.75 90.269531 67.585938 C 89.488281 67.652344 88.761719 67.804688 88.085938 68.042969 C 87.421875 68.273438 86.945312 68.886719 86.664062 69.882812 C 86.382812 70.878906 86.660156 71.820312 87.496094 72.710938 C 88.320312 73.601562 90.203125 74.066406 93.140625 74.113281 C 96.433594 73.792969 98.078125 72.421875 98.070312 69.996094 C 98.066406 68.355469 97.527344 66.910156 96.445312 65.660156 C 96.953125 65.210938 97.328125 64.5625 97.582031 63.714844 C 97.820312 62.863281 97.617188 61.804688 96.972656 60.542969 C 96.324219 59.289062 94.78125 58.519531 92.339844 58.234375 Z M 92.339844 58.234375 " fill-opacity="1" fill-rule="nonzero"/></g><path fill="#f84693" d="M 61.347656 73.441406 C 61.347656 73.441406 61.347656 73.441406 61.34375 73.441406 C 60.871094 73.441406 60.515625 73.628906 60.273438 74.007812 C 59.984375 74.457031 59.484375 74.722656 58.777344 74.808594 C 58.042969 74.90625 57.660156 75.40625 57.632812 76.304688 L 57.632812 76.316406 C 57.710938 76.550781 58.125 76.667969 58.882812 76.667969 C 58.890625 76.667969 58.894531 76.667969 58.902344 76.667969 C 59.164062 76.667969 59.464844 76.652344 59.808594 76.625 L 59.921875 77.789062 L 59.945312 82.453125 L 59.953125 83.929688 L 59.949219 83.929688 C 58.636719 84.527344 57.957031 85.054688 57.914062 85.507812 C 57.878906 85.921875 58.1875 86.15625 58.839844 86.210938 C 58.9375 86.21875 59.046875 86.222656 59.164062 86.222656 C 59.167969 86.222656 59.171875 86.222656 59.175781 86.222656 C 59.179688 86.222656 59.183594 86.222656 59.1875 86.222656 L 62.65625 86.207031 C 63.882812 86.183594 64.492188 85.96875 64.488281 85.566406 C 64.484375 85.457031 64.4375 85.335938 64.34375 85.199219 C 63.917969 84.582031 63.355469 84.191406 62.660156 84.035156 C 62.390625 80.71875 62.332031 78.167969 62.480469 76.378906 C 62.632812 74.554688 62.375 73.585938 61.710938 73.472656 C 61.585938 73.453125 61.464844 73.441406 61.347656 73.441406 Z M 61.347656 73.441406 " fill-opacity="1" fill-rule="nonzero"/><path fill="#0088f7" d="M 77.242188 67.0625 C 77.238281 67.0625 77.230469 67.0625 77.222656 67.0625 C 76.941406 67.0625 76.644531 67.078125 76.328125 67.109375 C 74.945312 67.113281 73.605469 67.867188 72.3125 69.371094 L 72.308594 69.382812 C 71.878906 70.324219 71.914062 70.90625 72.417969 71.128906 C 72.546875 71.183594 72.699219 71.214844 72.886719 71.222656 C 72.929688 71.226562 72.976562 71.226562 73.019531 71.226562 C 73.023438 71.226562 73.023438 71.226562 73.027344 71.226562 C 73.878906 71.222656 74.644531 70.859375 75.324219 70.132812 C 75.800781 69.609375 76.242188 69.347656 76.644531 69.34375 L 76.644531 69.347656 C 76.644531 69.34375 76.648438 69.34375 76.648438 69.34375 C 76.824219 69.34375 76.992188 69.394531 77.15625 69.496094 C 77.699219 69.835938 77.921875 70.167969 77.824219 70.492188 L 77.820312 70.503906 C 77.824219 71.207031 76.375 72.691406 73.472656 74.960938 L 73.472656 74.964844 C 72.535156 75.753906 72.125 76.511719 72.246094 77.242188 C 72.375 77.976562 73.28125 78.464844 74.960938 78.714844 C 76.113281 78.824219 77.105469 78.875 77.945312 78.875 C 77.957031 78.875 77.972656 78.875 77.988281 78.875 C 79.164062 78.875 80.03125 78.761719 80.589844 78.542969 C 81.46875 78.183594 81.789062 77.730469 81.558594 77.175781 C 81.53125 77.117188 81.5 77.054688 81.460938 76.992188 C 81.140625 76.371094 80.714844 76.058594 80.183594 76.058594 C 80.183594 76.058594 80.183594 76.058594 80.179688 76.058594 C 80.171875 76.058594 80.164062 76.058594 80.15625 76.058594 L 80.148438 76.058594 C 78.625 76.277344 77.515625 76.386719 76.820312 76.390625 C 76.816406 76.390625 76.8125 76.390625 76.804688 76.390625 C 76.261719 76.390625 75.988281 76.328125 75.988281 76.203125 C 75.988281 76.140625 76.054688 76.054688 76.1875 75.953125 C 78.851562 74.050781 80.4375 71.988281 80.941406 69.757812 L 80.941406 69.746094 C 80.660156 67.957031 79.429688 67.0625 77.242188 67.0625 Z M 77.242188 67.0625 " fill-opacity="1" fill-rule="nonzero"/><path fill="#64f9c3" d="M 91.980469 59.875 C 91.976562 59.875 91.96875 59.875 91.964844 59.875 L 91.964844 59.878906 C 89.402344 59.882812 88.121094 60.707031 88.125 62.351562 C 88.128906 62.867188 88.359375 63.210938 88.820312 63.382812 C 88.921875 63.421875 89.027344 63.441406 89.128906 63.441406 L 89.132812 63.441406 C 89.503906 63.441406 89.875 63.1875 90.242188 62.679688 C 90.699219 62.058594 91.121094 61.742188 91.507812 61.730469 C 92.132812 61.738281 92.625 61.882812 92.988281 62.167969 C 93.347656 62.449219 93.515625 62.914062 93.484375 63.566406 L 93.484375 63.570312 C 93.527344 64.328125 93.015625 64.992188 91.941406 65.558594 C 91.265625 65.910156 91 66.222656 91.144531 66.496094 C 91.242188 66.671875 91.523438 66.824219 91.984375 66.953125 C 93.105469 67.269531 93.757812 67.582031 93.945312 67.894531 C 94.132812 68.21875 94.226562 68.542969 94.226562 68.867188 L 94.226562 68.871094 C 94.238281 69.210938 94.222656 69.511719 94.183594 69.78125 C 94.132812 70.046875 93.839844 70.359375 93.304688 70.714844 C 92.898438 70.777344 92.535156 70.808594 92.214844 70.808594 C 92.210938 70.808594 92.207031 70.808594 92.203125 70.808594 C 91.332031 70.808594 90.765625 70.585938 90.5 70.148438 C 90.191406 69.644531 89.84375 69.394531 89.449219 69.394531 L 89.445312 69.394531 C 89.339844 69.394531 89.234375 69.414062 89.121094 69.449219 C 88.609375 69.621094 88.238281 69.84375 88.011719 70.117188 C 87.765625 70.417969 87.957031 70.863281 88.589844 71.460938 C 89.222656 72.046875 90.355469 72.382812 91.992188 72.472656 C 92.300781 72.5 92.597656 72.515625 92.875 72.515625 C 92.882812 72.515625 92.886719 72.515625 92.894531 72.515625 C 94.972656 72.511719 96.140625 71.734375 96.402344 70.191406 L 96.402344 70.183594 C 96.394531 68.101562 95.644531 66.613281 94.148438 65.710938 L 94.144531 65.710938 C 95.386719 64.984375 96.007812 64.105469 96.003906 63.078125 L 96.003906 63.074219 C 95.722656 60.941406 94.378906 59.875 91.980469 59.875 Z M 91.980469 59.875 " fill-opacity="1" fill-rule="nonzero"/><path fill="#9271b2" d="M 129.0625 65.785156 C 129.175781 67.28125 129.09375 68.785156 129.265625 70.277344 C 129.332031 70.84375 129.515625 71.335938 129.917969 71.765625 C 130.703125 72.597656 131.507812 71.480469 131.738281 70.746094 C 132.046875 69.757812 131.867188 68.738281 131.839844 67.730469 C 131.824219 67.074219 131.855469 66.417969 131.746094 65.761719 C 131.703125 65.496094 131.605469 65.25 131.582031 64.980469 C 131.550781 64.597656 131.527344 64.214844 131.488281 63.832031 C 131.425781 63.175781 131.386719 62.472656 131.113281 61.859375 C 130.945312 61.476562 130.554688 60.96875 130.0625 61.097656 C 130.046875 61.101562 130.035156 61.109375 130.023438 61.117188 C 129.113281 61.582031 128.84375 62.570312 128.851562 63.527344 C 128.851562 63.941406 128.90625 64.355469 128.96875 64.761719 C 129.019531 65.101562 129.035156 65.445312 129.0625 65.785156 " fill-opacity="1" fill-rule="nonzero"/><path fill="#9271b2" d="M 137.921875 76.308594 C 137.546875 75.429688 136.890625 74.746094 136.082031 74.246094 C 135.199219 73.699219 134.171875 73.398438 133.160156 73.195312 C 131.921875 72.949219 130.625 72.804688 129.363281 72.863281 C 128.6875 72.898438 127.886719 72.984375 127.347656 73.441406 C 127.226562 73.539062 127.136719 73.664062 127.078125 73.808594 C 127.066406 73.835938 127.019531 74.039062 127.042969 73.953125 C 126.90625 74.4375 126.910156 74.980469 127.019531 75.46875 C 127.109375 75.882812 127.316406 76.261719 127.601562 76.570312 C 128.011719 77.011719 128.566406 77.199219 129.125 77.375 C 130.195312 77.710938 131.273438 78.105469 132.261719 78.648438 C 132.613281 78.839844 132.949219 79.066406 133.296875 79.269531 C 134.019531 79.679688 134.765625 80.054688 135.550781 80.335938 C 136.183594 80.558594 136.996094 80.792969 137.640625 80.480469 C 137.957031 80.328125 138.128906 80.003906 138.1875 79.671875 C 138.367188 78.550781 138.375 77.367188 137.921875 76.308594 " fill-opacity="1" fill-rule="nonzero"/><g clip-path="url(#2b4cc8a65d)"><path fill="#f84693" d="M 122.65625 77.984375 C 122.035156 76.769531 120.628906 76.125 119.308594 76.109375 C 118.675781 76.105469 117.84375 76.355469 117.539062 76.976562 C 117.335938 77.378906 117.179688 77.824219 117.292969 78.273438 C 117.378906 78.628906 117.664062 78.890625 117.964844 79.074219 C 118.738281 79.550781 119.6875 79.644531 120.515625 80 C 121.007812 80.207031 121.484375 80.46875 122.03125 80.308594 C 122.375 80.207031 122.609375 79.921875 122.792969 79.628906 C 122.925781 79.417969 122.984375 79.257812 122.96875 79.003906 C 122.945312 78.648438 122.820312 78.300781 122.65625 77.984375 " fill-opacity="1" fill-rule="nonzero"/></g><path fill="#f84693" d="M 136.347656 63.59375 C 136.054688 63.019531 135.414062 63.015625 134.921875 63.335938 C 134.90625 63.34375 134.894531 63.351562 134.882812 63.363281 C 134.289062 63.984375 134.210938 65.070312 134.128906 65.875 C 134.070312 66.484375 134.039062 67.105469 134.050781 67.714844 C 134.0625 68.386719 134.152344 69.097656 134.414062 69.714844 C 134.542969 70.011719 134.785156 70.328125 135.132812 70.355469 C 135.605469 70.394531 135.984375 70.125 136.210938 69.726562 C 136.425781 69.355469 136.4375 68.96875 136.484375 68.558594 C 136.578125 67.757812 136.777344 66.972656 136.804688 66.167969 C 136.835938 65.320312 136.742188 64.355469 136.347656 63.59375 " fill-opacity="1" fill-rule="nonzero"/><path fill="#f84693" d="M 135.675781 71.90625 C 135.671875 71.859375 135.667969 71.8125 135.660156 71.761719 C 135.640625 71.617188 135.597656 71.476562 135.539062 71.34375 C 135.378906 70.960938 135.078125 70.695312 134.667969 70.617188 C 134 70.492188 133.675781 71.113281 133.722656 71.699219 C 133.695312 72.304688 133.980469 73.015625 134.671875 73.035156 C 135.332031 73.058594 135.753906 72.554688 135.675781 71.917969 C 135.675781 71.921875 135.679688 71.925781 135.675781 71.90625 " fill-opacity="1" fill-rule="nonzero"/><g clip-path="url(#0a40d173f7)"><path fill="#0088f7" d="M 139.492188 67.722656 C 138.972656 67.820312 138.484375 68.070312 138.265625 68.578125 C 138.1875 68.765625 138.160156 68.964844 138.160156 69.167969 C 138.164062 69.449219 138.277344 69.699219 138.234375 69.984375 C 138.179688 70.347656 137.988281 70.632812 137.839844 70.957031 C 137.675781 71.316406 137.511719 71.679688 137.359375 72.046875 C 137.09375 72.671875 136.671875 73.628906 137.214844 74.242188 C 137.980469 75.097656 138.730469 73.976562 139.097656 73.328125 C 139.425781 72.75 139.6875 72.109375 139.8125 71.457031 C 139.878906 71.121094 139.90625 70.796875 140.054688 70.484375 C 140.152344 70.28125 140.269531 70.097656 140.335938 69.878906 C 140.519531 69.292969 140.523438 67.546875 139.492188 67.722656 " fill-opacity="1" fill-rule="nonzero"/></g><path fill="#0088f7" d="M 131.554688 81.566406 C 131.191406 80.765625 130.765625 79.988281 130.269531 79.261719 C 129.773438 78.539062 128.585938 76.925781 127.601562 77.878906 C 127.023438 78.453125 126.234375 78.699219 125.605469 79.199219 C 124.867188 79.789062 124.414062 80.625 124.316406 81.5625 C 124.203125 82.6875 124.589844 83.902344 125.394531 84.707031 C 126.09375 85.40625 127.074219 85.773438 128.035156 85.910156 C 128.890625 86.027344 129.824219 85.984375 130.625 85.644531 C 131.621094 85.21875 132.195312 84.339844 132.066406 83.261719 C 131.996094 82.65625 131.804688 82.117188 131.554688 81.566406 " fill-opacity="1" fill-rule="nonzero"/><path fill="#64f9c3" d="M 126.210938 68.574219 C 125.988281 67.898438 125.871094 67.214844 125.820312 66.507812 C 125.773438 65.867188 125.703125 65.234375 125.382812 64.667969 C 124.910156 63.835938 123.757812 63.160156 123.011719 64.046875 C 123.003906 64.0625 122.992188 64.074219 122.980469 64.089844 C 122.492188 64.574219 122.789062 65.527344 122.949219 66.085938 C 123.238281 67.082031 123.671875 68.042969 124.113281 68.976562 C 124.539062 69.882812 124.992188 70.765625 125.390625 71.683594 C 125.519531 71.988281 125.675781 72.296875 125.769531 72.617188 C 125.855469 72.898438 125.957031 73.1875 126.125 73.433594 C 126.296875 73.6875 126.5625 73.738281 126.746094 73.46875 C 126.90625 73.234375 126.953125 72.902344 126.996094 72.636719 C 127.054688 72.242188 127.042969 71.839844 127 71.445312 C 126.886719 70.449219 126.523438 69.519531 126.210938 68.574219 " fill-opacity="1" fill-rule="nonzero"/><g clip-path="url(#714c281df2)"><path fill="#64f9c3" d="M 137.46875 82.777344 C 137.238281 82.128906 136.648438 81.660156 136.089844 81.300781 C 135.203125 80.738281 134.164062 80.335938 133.144531 80.082031 C 132.589844 79.945312 132.292969 80.355469 132.300781 80.875 C 132.304688 81.167969 132.410156 81.46875 132.484375 81.75 C 132.746094 82.734375 133.058594 83.71875 133.441406 84.667969 C 133.695312 85.300781 134.007812 86.253906 134.765625 86.425781 C 135.648438 86.628906 136.46875 85.84375 136.910156 85.179688 C 137.347656 84.523438 137.746094 83.566406 137.46875 82.777344 " fill-opacity="1" fill-rule="nonzero"/></g></svg>