<svg xmlns="http://www.w3.org/2000/svg" xmlns:xlink="http://www.w3.org/1999/xlink" width="200" zoomAndPan="magnify" viewBox="0 0 150 112.499997" height="150" preserveAspectRatio="xMidYMid meet" version="1.0"><path fill="#ff6d00" d="M 52.742188 42.972656 C 47.253906 62.578125 58.648438 82.9375 78.183594 88.445312 C 97.722656 93.949219 118.007812 82.511719 123.496094 62.914062 C 128.984375 43.316406 117.597656 22.96875 98.058594 17.464844 C 94.738281 16.527344 91.394531 16.082031 88.101562 16.082031 C 72.050781 16.082031 57.296875 26.707031 52.742188 42.972656 " fill-opacity="1" fill-rule="nonzero"/><path fill="#51432f" d="M 100.136719 26.070312 L 97.265625 24.808594 L 94.910156 26.726562 L 96.164062 23.84375 L 94.253906 21.480469 L 97.128906 22.738281 L 99.484375 20.824219 L 98.230469 23.707031 Z M 100.136719 26.070312 " fill-opacity="1" fill-rule="nonzero"/><path fill="#51432f" d="M 97.632812 27.472656 L 96.488281 24.542969 L 93.472656 24.230469 L 96.394531 23.082031 L 96.707031 20.054688 L 97.851562 22.984375 L 100.867188 23.300781 L 97.949219 24.449219 Z M 97.632812 27.472656 " fill-opacity="1" fill-rule="nonzero"/><path fill="#ff8e00" d="M 56.371094 92.011719 C 32.246094 84.632812 32.101562 57.886719 42.175781 46.773438 L 95.292969 76.875 C 86.367188 92.527344 70.9375 97.070312 56.367188 92.011719 " fill-opacity="1" fill-rule="nonzero"/><path fill="#ffd506" d="M 61.914062 73.4375 C 80.214844 83.804688 95.914062 81.796875 95.257812 73.558594 C 94.726562 65.28125 85.300781 55.898438 75.207031 50.011719 C 64.984375 44.351562 52.101562 41.050781 44.726562 44.835938 C 37.320312 48.488281 43.644531 63.019531 61.914062 73.4375 " fill-opacity="1" fill-rule="nonzero"/><path fill="#f4b700" d="M 59.074219 44.300781 C 64.40625 45.351562 69.796875 47.300781 75.046875 50.277344 C 80.292969 53.265625 84.722656 56.898438 88.355469 60.945312 C 91.910156 64.964844 94.671875 69.40625 94.613281 73.34375 C 94.558594 77.253906 91.292969 79.832031 85.265625 80.054688 C 79.320312 80.304688 70.636719 78.046875 62.0625 73.160156 C 53.476562 68.292969 47.089844 61.984375 44.261719 56.746094 C 41.359375 51.453125 41.898438 47.324219 45.230469 45.273438 C 48.578125 43.203125 53.800781 43.300781 59.074219 44.300781 M 75.203125 50.003906 C 64.714844 44.179688 52.085938 40.714844 44.515625 44.578125 C 36.894531 48.28125 43.632812 63.148438 62.378906 73.757812 C 81.136719 84.28125 96.632812 82.1875 95.894531 73.757812 C 95.269531 65.261719 85.550781 56.039062 75.203125 50.003906 " fill-opacity="1" fill-rule="nonzero"/><path fill="#ff8600" d="M 71.847656 62.765625 C 71.972656 63.210938 89.3125 68 89.738281 67.816406 C 90.335938 68.101562 91.953125 68.007812 92.574219 69.527344 C 93.195312 71.050781 93.203125 73.605469 92.820312 74.441406 C 92.449219 75.273438 91.804688 76.589844 90.261719 76.65625 C 88.234375 76.953125 71.472656 64.726562 71.410156 64.191406 C 70.808594 63.808594 70.023438 62.367188 71.847656 62.765625 " fill-opacity="1" fill-rule="nonzero"/><path fill="#ff8600" d="M 71.257812 63.90625 C 70.789062 64.039062 86.445312 75.855469 87.289062 76.109375 C 87.648438 76.535156 89.933594 77.554688 88.480469 78.214844 C 87.046875 78.898438 82.976562 79.128906 81.101562 78.875 C 79.257812 78.664062 76.222656 78.191406 74.148438 77.109375 C 71.726562 75.925781 68.800781 64.175781 68.875 63.863281 C 68.636719 63.425781 68.710938 61.761719 71.257812 63.90625 " fill-opacity="1" fill-rule="nonzero"/><path fill="#ff8600" d="M 69.042969 63.726562 C 68.769531 63.625 71.234375 74.742188 71.273438 75.066406 C 71.023438 75.289062 72.199219 76.832031 69.222656 75.726562 C 66.226562 74.636719 60.707031 71.585938 58.78125 70.210938 C 56.832031 68.871094 53.820312 66.644531 53.011719 65.285156 C 52.488281 64.207031 66.1875 62.695312 66.136719 62.1875 C 66.421875 61.992188 68.648438 61.777344 69.042969 63.726562 " fill-opacity="1" fill-rule="nonzero"/><path fill="#ff8600" d="M 66.527344 62.285156 C 66.8125 62.554688 53.6875 64.023438 52.730469 63.5 C 52.070312 63.269531 51.03125 63.847656 49.085938 61.761719 C 47.125 59.671875 44.972656 55.980469 44.609375 54.722656 C 44.199219 53.453125 43.691406 51.488281 44.589844 51.050781 C 45.492188 51.132812 64.355469 60.585938 64.917969 60.214844 C 65.503906 60.367188 68.550781 61.757812 66.527344 62.285156 " fill-opacity="1" fill-rule="nonzero"/><path fill="#ff8600" d="M 65.292969 60.480469 C 65.3125 60.929688 47.210938 51.988281 46.726562 51.042969 C 46.210938 50.570312 44.171875 49.730469 44.59375 48.472656 C 45.015625 47.214844 47.046875 45.769531 48.082031 45.449219 C 49.121094 45.132812 50.769531 44.632812 52.296875 45.125 C 53.261719 45.640625 64.78125 58.785156 65.894531 59.136719 C 66.433594 59.523438 67.394531 61.242188 65.292969 60.480469 " fill-opacity="1" fill-rule="nonzero"/><path fill="#ff8600" d="M 66.023438 59.410156 C 65.519531 59.445312 54.332031 46.808594 54.789062 46.421875 C 54.703125 46.027344 53.265625 44.683594 55.082031 44.6875 C 56.90625 44.710938 60.605469 45.371094 62.039062 45.75 C 63.496094 46.171875 65.75 46.746094 66.980469 47.652344 C 67.875 48.402344 67.859375 58.957031 68.375 59.511719 C 68.585938 59.929688 67.402344 60.339844 66.023438 59.410156 " fill-opacity="1" fill-rule="nonzero"/><path fill="#ff8600" d="M 68.203125 59.652344 C 67.9375 59.535156 68.03125 49.433594 68.5625 49.359375 C 68.824219 49.148438 68.433594 47.917969 70.394531 48.71875 C 72.339844 49.527344 75.804688 51.457031 77.074219 52.292969 C 78.332031 53.15625 80.375 54.480469 81.050781 55.554688 C 82.058594 56.871094 71.542969 61.132812 70.953125 61.089844 C 70.730469 61.324219 68.5 61.578125 68.203125 59.652344 " fill-opacity="1" fill-rule="nonzero"/><path fill="#ff8600" d="M 70.574219 61.019531 C 70.882812 61.265625 81.308594 57.464844 81.453125 57.234375 C 81.941406 57.257812 82.472656 56.375 84.082031 57.75 C 85.671875 59.128906 88.214844 61.945312 89.039062 63.058594 C 89.820312 64.171875 91.160156 65.953125 90.945312 66.839844 C 90.960938 68.222656 72.957031 63.617188 72.226562 63.011719 C 71.644531 62.925781 68.621094 61.628906 70.578125 61.019531 " fill-opacity="1" fill-rule="nonzero"/></svg>