<svg xmlns="http://www.w3.org/2000/svg" xmlns:xlink="http://www.w3.org/1999/xlink" width="128" zoomAndPan="magnify" viewBox="0 0 96 95.999999" height="128" preserveAspectRatio="xMidYMid meet" version="1.0"><defs><clipPath id="bc11196a9f"><path d="M 9.601562 22 L 86.101562 22 L 86.101562 72 L 9.601562 72 Z M 9.601562 22 " clip-rule="nonzero"/></clipPath><clipPath id="f26e574643"><path d="M 20 62 L 38 62 L 38 79.773438 L 20 79.773438 Z M 20 62 " clip-rule="nonzero"/></clipPath><clipPath id="f1ec25f842"><path d="M 58 62 L 76 62 L 76 79.773438 L 58 79.773438 Z M 58 62 " clip-rule="nonzero"/></clipPath><clipPath id="ff5580e0e1"><path d="M 9.601562 26 L 86.101562 26 L 86.101562 57 L 9.601562 57 Z M 9.601562 26 " clip-rule="nonzero"/></clipPath><clipPath id="ebeaee9649"><path d="M 30 16.023438 L 42 16.023438 L 42 23 L 30 23 Z M 30 16.023438 " clip-rule="nonzero"/></clipPath><clipPath id="34d5df6420"><path d="M 37 16.023438 L 48 16.023438 L 48 23 L 37 23 Z M 37 16.023438 " clip-rule="nonzero"/></clipPath></defs><g clip-path="url(#bc11196a9f)"><path fill="#ccd6dd" d="M 83.949219 30.898438 C 83.949219 28.773438 81.824219 22.398438 75.457031 22.398438 L 29.589844 22.398438 C 26.664062 22.398438 22.605469 26.203125 20.453125 30.898438 L 13.875 41.523438 C 10.789062 42.796875 9.625 46.476562 9.625 50.023438 L 9.625 62.773438 C 9.625 67.46875 13.429688 71.273438 18.121094 71.273438 L 77.578125 71.273438 C 82.269531 71.273438 86.074219 67.46875 86.074219 62.773438 L 86.074219 45.773438 C 86.074219 43.589844 83.949219 30.898438 83.949219 30.898438 Z M 83.949219 30.898438 " fill-opacity="1" fill-rule="nonzero"/></g><path fill="#e1e8ed" d="M 28.738281 58.523438 C 21.800781 58.523438 16.171875 64.074219 16.011719 70.976562 C 16.691406 71.148438 17.386719 71.273438 18.121094 71.273438 L 41.480469 71.273438 C 41.480469 64.234375 35.777344 58.523438 28.738281 58.523438 Z M 79.6875 70.976562 C 79.527344 64.074219 73.902344 58.523438 66.960938 58.523438 C 59.929688 58.523438 54.21875 64.234375 54.21875 71.273438 L 77.578125 71.273438 C 78.3125 71.273438 79.011719 71.148438 79.6875 70.976562 Z M 79.6875 70.976562 " fill-opacity="1" fill-rule="nonzero"/><g clip-path="url(#f26e574643)"><path fill="#292f33" d="M 37.234375 71.273438 C 37.234375 71.832031 37.179688 72.382812 37.070312 72.929688 C 36.960938 73.480469 36.800781 74.011719 36.585938 74.527344 C 36.371094 75.042969 36.109375 75.53125 35.800781 75.996094 C 35.492188 76.460938 35.140625 76.890625 34.746094 77.285156 C 34.351562 77.679688 33.921875 78.03125 33.457031 78.339844 C 32.992188 78.652344 32.503906 78.914062 31.988281 79.125 C 31.472656 79.339844 30.941406 79.5 30.394531 79.609375 C 29.847656 79.71875 29.296875 79.773438 28.738281 79.773438 C 28.179688 79.773438 27.628906 79.71875 27.082031 79.609375 C 26.535156 79.5 26.003906 79.339844 25.488281 79.125 C 24.972656 78.914062 24.484375 78.652344 24.019531 78.339844 C 23.554688 78.03125 23.125 77.679688 22.730469 77.285156 C 22.335938 76.890625 21.984375 76.460938 21.675781 75.996094 C 21.367188 75.53125 21.105469 75.042969 20.890625 74.527344 C 20.675781 74.011719 20.515625 73.480469 20.40625 72.929688 C 20.296875 72.382812 20.246094 71.832031 20.246094 71.273438 C 20.246094 70.714844 20.296875 70.164062 20.40625 69.613281 C 20.515625 69.066406 20.675781 68.535156 20.890625 68.019531 C 21.105469 67.503906 21.367188 67.015625 21.675781 66.550781 C 21.984375 66.085938 22.335938 65.65625 22.730469 65.261719 C 23.125 64.867188 23.554688 64.515625 24.019531 64.207031 C 24.484375 63.894531 24.972656 63.632812 25.488281 63.421875 C 26.003906 63.207031 26.535156 63.046875 27.082031 62.9375 C 27.628906 62.828125 28.179688 62.773438 28.738281 62.773438 C 29.296875 62.773438 29.847656 62.828125 30.394531 62.9375 C 30.941406 63.046875 31.472656 63.207031 31.988281 63.421875 C 32.503906 63.632812 32.992188 63.894531 33.457031 64.207031 C 33.921875 64.515625 34.351562 64.867188 34.746094 65.261719 C 35.140625 65.65625 35.492188 66.085938 35.800781 66.550781 C 36.109375 67.015625 36.371094 67.503906 36.585938 68.019531 C 36.800781 68.535156 36.960938 69.066406 37.070312 69.613281 C 37.179688 70.164062 37.234375 70.714844 37.234375 71.273438 Z M 37.234375 71.273438 " fill-opacity="1" fill-rule="nonzero"/></g><path fill="#99aab5" d="M 32.984375 71.273438 C 32.984375 71.550781 32.957031 71.828125 32.902344 72.101562 C 32.847656 72.375 32.769531 72.640625 32.664062 72.898438 C 32.554688 73.15625 32.425781 73.402344 32.269531 73.632812 C 32.113281 73.867188 31.9375 74.082031 31.742188 74.277344 C 31.542969 74.476562 31.328125 74.652344 31.097656 74.808594 C 30.867188 74.960938 30.621094 75.09375 30.363281 75.199219 C 30.105469 75.304688 29.839844 75.386719 29.566406 75.441406 C 29.292969 75.496094 29.015625 75.523438 28.738281 75.523438 C 28.460938 75.523438 28.183594 75.496094 27.910156 75.441406 C 27.636719 75.386719 27.371094 75.304688 27.113281 75.199219 C 26.855469 75.09375 26.609375 74.960938 26.378906 74.808594 C 26.148438 74.652344 25.933594 74.476562 25.734375 74.277344 C 25.539062 74.082031 25.363281 73.867188 25.207031 73.632812 C 25.050781 73.402344 24.921875 73.15625 24.816406 72.898438 C 24.707031 72.640625 24.628906 72.375 24.574219 72.101562 C 24.519531 71.828125 24.492188 71.550781 24.492188 71.273438 C 24.492188 70.996094 24.519531 70.71875 24.574219 70.445312 C 24.628906 70.171875 24.707031 69.90625 24.816406 69.648438 C 24.921875 69.390625 25.050781 69.144531 25.207031 68.910156 C 25.363281 68.679688 25.539062 68.464844 25.734375 68.269531 C 25.933594 68.070312 26.148438 67.894531 26.378906 67.738281 C 26.609375 67.585938 26.855469 67.453125 27.113281 67.347656 C 27.371094 67.238281 27.636719 67.160156 27.910156 67.105469 C 28.183594 67.050781 28.460938 67.023438 28.738281 67.023438 C 29.015625 67.023438 29.292969 67.050781 29.566406 67.105469 C 29.839844 67.160156 30.105469 67.238281 30.363281 67.347656 C 30.621094 67.453125 30.867188 67.585938 31.097656 67.738281 C 31.328125 67.894531 31.542969 68.070312 31.742188 68.269531 C 31.9375 68.464844 32.113281 68.679688 32.269531 68.910156 C 32.425781 69.144531 32.554688 69.390625 32.664062 69.648438 C 32.769531 69.90625 32.847656 70.171875 32.902344 70.445312 C 32.957031 70.71875 32.984375 70.996094 32.984375 71.273438 Z M 32.984375 71.273438 " fill-opacity="1" fill-rule="nonzero"/><g clip-path="url(#f1ec25f842)"><path fill="#292f33" d="M 75.457031 71.273438 C 75.457031 71.832031 75.402344 72.382812 75.292969 72.929688 C 75.183594 73.480469 75.023438 74.011719 74.808594 74.527344 C 74.59375 75.042969 74.332031 75.53125 74.023438 75.996094 C 73.714844 76.460938 73.363281 76.890625 72.96875 77.285156 C 72.574219 77.679688 72.144531 78.03125 71.679688 78.339844 C 71.21875 78.652344 70.726562 78.914062 70.210938 79.125 C 69.695312 79.339844 69.164062 79.5 68.617188 79.609375 C 68.070312 79.71875 67.519531 79.773438 66.960938 79.773438 C 66.402344 79.773438 65.851562 79.71875 65.304688 79.609375 C 64.757812 79.5 64.226562 79.339844 63.710938 79.125 C 63.195312 78.914062 62.707031 78.652344 62.242188 78.339844 C 61.777344 78.03125 61.351562 77.679688 60.957031 77.285156 C 60.5625 76.890625 60.207031 76.460938 59.898438 75.996094 C 59.589844 75.53125 59.328125 75.042969 59.113281 74.527344 C 58.902344 74.011719 58.738281 73.480469 58.628906 72.929688 C 58.523438 72.382812 58.46875 71.832031 58.46875 71.273438 C 58.46875 70.714844 58.523438 70.164062 58.628906 69.613281 C 58.738281 69.066406 58.902344 68.535156 59.113281 68.019531 C 59.328125 67.503906 59.589844 67.015625 59.898438 66.550781 C 60.207031 66.085938 60.5625 65.65625 60.957031 65.261719 C 61.351562 64.867188 61.777344 64.515625 62.242188 64.207031 C 62.707031 63.894531 63.195312 63.632812 63.710938 63.421875 C 64.226562 63.207031 64.757812 63.046875 65.304688 62.9375 C 65.851562 62.828125 66.402344 62.773438 66.960938 62.773438 C 67.519531 62.773438 68.070312 62.828125 68.617188 62.9375 C 69.164062 63.046875 69.695312 63.207031 70.210938 63.421875 C 70.726562 63.632812 71.21875 63.894531 71.679688 64.207031 C 72.144531 64.515625 72.574219 64.867188 72.96875 65.261719 C 73.363281 65.65625 73.714844 66.085938 74.023438 66.550781 C 74.332031 67.015625 74.59375 67.503906 74.808594 68.019531 C 75.023438 68.535156 75.183594 69.066406 75.292969 69.613281 C 75.402344 70.164062 75.457031 70.714844 75.457031 71.273438 Z M 75.457031 71.273438 " fill-opacity="1" fill-rule="nonzero"/></g><path fill="#99aab5" d="M 71.207031 71.273438 C 71.207031 71.550781 71.179688 71.828125 71.128906 72.101562 C 71.074219 72.375 70.992188 72.640625 70.886719 72.898438 C 70.777344 73.15625 70.648438 73.402344 70.492188 73.632812 C 70.339844 73.867188 70.160156 74.082031 69.964844 74.277344 C 69.765625 74.476562 69.554688 74.652344 69.320312 74.808594 C 69.089844 74.960938 68.84375 75.09375 68.585938 75.199219 C 68.328125 75.304688 68.0625 75.386719 67.789062 75.441406 C 67.515625 75.496094 67.242188 75.523438 66.960938 75.523438 C 66.683594 75.523438 66.40625 75.496094 66.132812 75.441406 C 65.859375 75.386719 65.59375 75.304688 65.335938 75.199219 C 65.078125 75.09375 64.832031 74.960938 64.601562 74.808594 C 64.371094 74.652344 64.15625 74.476562 63.957031 74.277344 C 63.761719 74.082031 63.585938 73.867188 63.429688 73.632812 C 63.273438 73.402344 63.144531 73.15625 63.039062 72.898438 C 62.929688 72.640625 62.851562 72.375 62.796875 72.101562 C 62.742188 71.828125 62.714844 71.550781 62.714844 71.273438 C 62.714844 70.996094 62.742188 70.71875 62.796875 70.445312 C 62.851562 70.171875 62.929688 69.90625 63.039062 69.648438 C 63.144531 69.390625 63.273438 69.144531 63.429688 68.910156 C 63.585938 68.679688 63.761719 68.464844 63.957031 68.269531 C 64.15625 68.070312 64.371094 67.894531 64.601562 67.738281 C 64.832031 67.585938 65.078125 67.453125 65.335938 67.347656 C 65.59375 67.238281 65.859375 67.160156 66.132812 67.105469 C 66.40625 67.050781 66.683594 67.023438 66.960938 67.023438 C 67.242188 67.023438 67.515625 67.050781 67.789062 67.105469 C 68.0625 67.160156 68.328125 67.238281 68.585938 67.347656 C 68.84375 67.453125 69.089844 67.585938 69.320312 67.738281 C 69.554688 67.894531 69.765625 68.070312 69.964844 68.269531 C 70.160156 68.464844 70.339844 68.679688 70.492188 68.910156 C 70.648438 69.144531 70.777344 69.390625 70.886719 69.648438 C 70.992188 69.90625 71.074219 70.171875 71.128906 70.445312 C 71.179688 70.71875 71.207031 70.996094 71.207031 71.273438 Z M 71.207031 71.273438 " fill-opacity="1" fill-rule="nonzero"/><g clip-path="url(#ff5580e0e1)"><path fill="#dd2e44" d="M 9.625 50.023438 L 86.074219 50.023438 L 86.074219 56.398438 L 9.625 56.398438 Z M 75.457031 33.023438 L 69.085938 33.023438 L 69.085938 26.648438 L 64.839844 26.648438 L 64.839844 33.023438 L 58.46875 33.023438 L 58.46875 37.273438 L 64.839844 37.273438 L 64.839844 43.648438 L 69.085938 43.648438 L 69.085938 37.273438 L 75.457031 37.273438 Z M 75.457031 33.023438 " fill-opacity="1" fill-rule="nonzero"/></g><path fill="#55acee" d="M 26.613281 26.648438 L 37.234375 26.648438 L 37.234375 41.523438 L 18.121094 41.523438 Z M 26.613281 26.648438 " fill-opacity="1" fill-rule="nonzero"/><g clip-path="url(#ebeaee9649)"><path fill="#dd2e44" d="M 41.480469 19.210938 C 41.480469 20.972656 40.054688 22.398438 38.292969 22.398438 L 34.046875 22.398438 C 32.285156 22.398438 30.863281 20.972656 30.863281 19.210938 C 30.863281 17.449219 32.285156 16.023438 34.046875 16.023438 L 38.292969 16.023438 C 40.054688 16.023438 41.480469 17.449219 41.480469 19.210938 Z M 41.480469 19.210938 " fill-opacity="1" fill-rule="nonzero"/></g><g clip-path="url(#34d5df6420)"><path fill="#55acee" d="M 47.851562 19.210938 C 47.851562 20.972656 46.425781 22.398438 44.664062 22.398438 L 40.417969 22.398438 C 38.65625 22.398438 37.234375 20.972656 37.234375 19.210938 C 37.234375 17.449219 38.65625 16.023438 40.417969 16.023438 L 44.664062 16.023438 C 46.425781 16.023438 47.851562 17.449219 47.851562 19.210938 Z M 47.851562 19.210938 " fill-opacity="1" fill-rule="nonzero"/></g></svg>