<svg xmlns="http://www.w3.org/2000/svg" xmlns:xlink="http://www.w3.org/1999/xlink" width="200" zoomAndPan="magnify" viewBox="0 0 150 149.999998" height="200" preserveAspectRatio="xMidYMid meet" version="1.0"><defs><clipPath id="c6fcf7d88a"><path d="M 23 12.453125 L 55 12.453125 L 55 44 L 23 44 Z M 23 12.453125 " clip-rule="nonzero"/></clipPath><clipPath id="217ed18bbe"><path d="M 95 12.453125 L 127 12.453125 L 127 44 L 95 44 Z M 95 12.453125 " clip-rule="nonzero"/></clipPath><clipPath id="8b6d1bd064"><path d="M 28 48 L 122 48 L 122 137.703125 L 28 137.703125 Z M 28 48 " clip-rule="nonzero"/></clipPath></defs><g clip-path="url(#c6fcf7d88a)"><path fill="#000000" d="M 38.660156 43.632812 C 30.078125 43.632812 23.09375 36.640625 23.09375 28.042969 C 23.09375 19.445312 30.078125 12.453125 38.660156 12.453125 C 47.242188 12.453125 54.222656 19.445312 54.222656 28.042969 C 54.222656 36.640625 47.242188 43.632812 38.660156 43.632812 Z M 38.660156 20.246094 C 34.367188 20.246094 30.878906 23.746094 30.878906 28.042969 C 30.878906 32.339844 34.367188 35.839844 38.660156 35.839844 C 42.949219 35.839844 46.441406 32.339844 46.441406 28.042969 C 46.441406 23.746094 42.949219 20.246094 38.660156 20.246094 Z M 38.660156 20.246094 " fill-opacity="1" fill-rule="nonzero"/></g><g clip-path="url(#217ed18bbe)"><path fill="#000000" d="M 111.289062 43.632812 C 102.710938 43.632812 95.726562 36.640625 95.726562 28.042969 C 95.726562 19.445312 102.710938 12.453125 111.289062 12.453125 C 119.871094 12.453125 126.855469 19.445312 126.855469 28.042969 C 126.855469 36.640625 119.871094 43.632812 111.289062 43.632812 Z M 111.289062 20.246094 C 107 20.246094 103.507812 23.746094 103.507812 28.042969 C 103.507812 32.339844 107 35.839844 111.289062 35.839844 C 115.582031 35.839844 119.074219 32.339844 119.074219 28.042969 C 119.074219 23.746094 115.582031 20.246094 111.289062 20.246094 Z M 111.289062 20.246094 " fill-opacity="1" fill-rule="nonzero"/></g><path fill="#000000" d="M 60.703125 57.925781 C 58.832031 57.925781 57.179688 56.570312 56.871094 54.65625 C 55.753906 47.816406 51.941406 41.554688 46.414062 37.464844 C 44.6875 36.191406 44.3125 33.75 45.589844 32.019531 C 46.867188 30.289062 49.300781 29.914062 51.03125 31.191406 C 58.183594 36.476562 63.105469 44.570312 64.546875 53.398438 C 64.894531 55.523438 63.457031 57.527344 61.335938 57.875 C 61.125 57.910156 60.910156 57.925781 60.703125 57.925781 Z M 60.703125 57.925781 " fill-opacity="1" fill-rule="nonzero"/><path fill="#000000" d="M 89.246094 57.925781 C 89.039062 57.925781 88.828125 57.910156 88.613281 57.875 C 86.492188 57.527344 85.054688 55.519531 85.402344 53.398438 C 86.84375 44.570312 91.769531 36.476562 98.917969 31.199219 C 100.644531 29.914062 103.082031 30.289062 104.359375 32.019531 C 105.636719 33.75 105.269531 36.191406 103.539062 37.46875 C 98.015625 41.554688 94.203125 47.816406 93.085938 54.664062 C 92.769531 56.570312 91.121094 57.925781 89.246094 57.925781 Z M 89.246094 57.925781 " fill-opacity="1" fill-rule="nonzero"/><path fill="#000000" d="M 74.976562 100.816406 C 68.414062 100.816406 61.855469 97.871094 55.472656 91.972656 C 53.898438 90.511719 53.796875 88.042969 55.253906 86.464844 C 56.71875 84.882812 59.183594 84.789062 60.753906 86.246094 C 70.457031 95.21875 79.492188 95.21875 89.195312 86.246094 C 90.773438 84.789062 93.230469 84.882812 94.695312 86.464844 C 96.152344 88.042969 96.054688 90.511719 94.476562 91.972656 C 88.09375 97.871094 81.539062 100.816406 74.976562 100.816406 Z M 74.976562 100.816406 " fill-opacity="1" fill-rule="nonzero"/><path fill="#000000" d="M 63.300781 106 C 61.15625 106 59.410156 104.253906 59.410156 102.101562 L 59.410156 94.304688 C 59.410156 92.152344 61.15625 90.40625 63.300781 90.40625 C 65.449219 90.40625 67.191406 92.152344 67.191406 94.304688 L 67.191406 102.101562 C 67.191406 104.253906 65.449219 106 63.300781 106 Z M 63.300781 106 " fill-opacity="1" fill-rule="nonzero"/><path fill="#000000" d="M 86.648438 106 C 84.5 106 82.757812 104.253906 82.757812 102.101562 L 82.757812 94.304688 C 82.757812 92.152344 84.5 90.40625 86.648438 90.40625 C 88.796875 90.40625 90.539062 92.152344 90.539062 94.304688 L 90.539062 102.101562 C 90.539062 104.253906 88.796875 106 86.648438 106 Z M 86.648438 106 " fill-opacity="1" fill-rule="nonzero"/><g clip-path="url(#8b6d1bd064)"><path fill="#000000" d="M 112.738281 137.183594 C 111.171875 137.183594 109.625 136.765625 108.277344 135.988281 L 93.128906 127.203125 C 93.039062 127.15625 92.164062 127.152344 92.070312 127.203125 L 79.941406 135.695312 C 77.207031 137.609375 72.746094 137.609375 70.011719 135.695312 L 57.859375 127.1875 C 57.804688 127.167969 56.910156 127.152344 56.816406 127.207031 L 41.679688 135.980469 C 40.320312 136.765625 38.773438 137.183594 37.210938 137.183594 C 32.289062 137.183594 28.285156 133.175781 28.285156 128.246094 C 28.285156 126.300781 28.902344 124.445312 30.074219 122.890625 L 34.097656 117.515625 C 37.039062 113.59375 38.660156 108.734375 38.660156 103.832031 L 38.660156 85.210938 C 38.660156 65.148438 54.949219 48.832031 74.976562 48.832031 C 95 48.832031 111.289062 65.148438 111.289062 85.210938 L 111.289062 104.75 C 111.289062 109.058594 112.710938 113.332031 115.296875 116.777344 L 119.875 122.890625 C 121.050781 124.445312 121.667969 126.300781 121.667969 128.246094 C 121.667969 133.175781 117.660156 137.183594 112.738281 137.183594 Z M 92.597656 119.320312 C 94.203125 119.320312 95.730469 119.714844 97.019531 120.457031 L 112.167969 129.242188 C 112.867188 129.640625 113.886719 129.085938 113.886719 128.253906 C 113.886719 127.941406 113.765625 127.710938 113.660156 127.578125 L 109.074219 121.464844 C 105.484375 116.679688 103.507812 110.742188 103.507812 104.757812 L 103.507812 85.210938 C 103.507812 69.449219 90.710938 56.625 74.976562 56.625 C 59.238281 56.625 46.441406 69.449219 46.441406 85.210938 L 46.441406 103.832031 C 46.441406 110.410156 44.269531 116.933594 40.320312 122.199219 L 36.289062 127.574219 C 36.183594 127.707031 36.066406 127.9375 36.066406 128.246094 C 36.066406 129.078125 37.066406 129.65625 37.789062 129.230469 L 52.925781 120.457031 C 55.695312 118.847656 59.75 119.003906 62.316406 120.800781 L 74.449219 129.296875 C 74.570312 129.359375 75.417969 129.34375 75.503906 129.292969 L 87.632812 120.800781 C 89.003906 119.84375 90.761719 119.320312 92.597656 119.320312 Z M 92.597656 119.320312 " fill-opacity="1" fill-rule="nonzero"/></g></svg>