<svg xmlns="http://www.w3.org/2000/svg" xmlns:xlink="http://www.w3.org/1999/xlink" width="200" zoomAndPan="magnify" viewBox="0 0 150 112.499997" height="150" preserveAspectRatio="xMidYMid meet" version="1.0"><defs><clipPath id="35ca61378a"><path d="M 38 16 L 123 16 L 123 100.800781 L 38 100.800781 Z M 38 16 " clip-rule="nonzero"/></clipPath><clipPath id="a5a55757cb"><path d="M 26.398438 13 L 63 13 L 63 44 L 26.398438 44 Z M 26.398438 13 " clip-rule="nonzero"/></clipPath><clipPath id="eec8dbc22d"><path d="M 37 11.199219 L 55 11.199219 L 55 29 L 37 29 Z M 37 11.199219 " clip-rule="nonzero"/></clipPath></defs><path fill="#97be48" d="M 33.535156 33.757812 C 37.210938 38.328125 37.605469 41.664062 37.289062 43.867188 C 36.835938 47.011719 34.921875 47.878906 34.402344 51.371094 C 33.882812 54.863281 35.125 58.550781 37 60.894531 C 41.671875 66.765625 52.847656 67.539062 58.914062 61.761719 C 63.410156 57.472656 64.109375 50.511719 62.371094 45.59375 C 59.304688 36.941406 47.464844 31.21875 33.535156 33.757812 Z M 33.535156 33.757812 " fill-opacity="1" fill-rule="nonzero"/><g clip-path="url(#35ca61378a)"><path fill="#6f9134" d="M 58.128906 16.992188 C 56.109375 23.457031 54.613281 28.847656 53.566406 32.769531 C 52.375 37.25 52.117188 38.195312 52.082031 39.625 C 52.042969 40.917969 52.035156 46.097656 58.242188 54.953125 C 61.675781 59.847656 65.433594 64.816406 72.410156 69.058594 C 74.730469 70.46875 80.046875 73.386719 88.332031 74.8125 C 99.601562 76.75 107.066406 74.34375 107.375 75.632812 C 107.625 76.683594 102.886719 79.132812 97.679688 80.558594 C 92.316406 82.03125 87.542969 82.113281 73.617188 80.460938 C 59.863281 78.832031 55.703125 77.671875 49.046875 79.707031 C 46.0625 80.617188 40.863281 82.285156 39.394531 86.644531 C 38.417969 89.5625 39.488281 92.324219 39.804688 93.125 C 41.785156 98.148438 47.253906 100.773438 48.035156 99.996094 C 48.941406 99.097656 42.761719 94.113281 44.277344 90.023438 C 45.40625 86.960938 50.21875 86.09375 53.625 85.515625 C 60.191406 84.40625 64.96875 85.210938 72.304688 86.34375 C 89.886719 89.042969 93.546875 89.148438 97.71875 88.695312 C 101.914062 88.238281 106.085938 87.261719 110.28125 85 C 110.863281 84.691406 113.761719 83.109375 116.941406 80.21875 C 119.238281 78.128906 120.78125 76.726562 121.714844 74.578125 C 123.417969 70.664062 122.078125 66.613281 121.542969 65.007812 C 118.027344 54.394531 99.367188 46.835938 84.988281 38.171875 C 78.074219 34.015625 68.472656 27.371094 58.128906 16.992188 Z M 58.128906 16.992188 " fill-opacity="1" fill-rule="nonzero"/></g><g clip-path="url(#a5a55757cb)"><path fill="#82ae42" d="M 59.996094 32.996094 C 60.726562 31.859375 62.175781 29.234375 62.070312 25.742188 C 61.917969 21.089844 59.070312 17.082031 55.679688 15.121094 C 52.722656 13.402344 48.75 13.898438 40.84375 14.867188 C 38.785156 15.113281 36.984375 15.597656 33.394531 16.570312 C 30.433594 17.363281 29.09375 17.875 28.082031 19.179688 C 27.066406 20.492188 26.871094 21.976562 26.789062 22.632812 C 26.53125 24.738281 27.179688 26.390625 27.480469 27.121094 C 28.707031 30.132812 31.3125 32.105469 36.535156 35.929688 C 43.796875 41.25 45.785156 42.621094 49.128906 43.359375 C 52.382812 44.078125 54.152344 43.578125 54.824219 43.359375 C 55.871094 43.011719 58.898438 41.777344 60.085938 38.527344 C 61.015625 35.976562 60.261719 33.707031 59.996094 32.996094 Z M 59.996094 32.996094 " fill-opacity="1" fill-rule="nonzero"/></g><g clip-path="url(#eec8dbc22d)"><path fill="#ffffff" d="M 54.785156 19.632812 C 54.785156 20.1875 54.730469 20.734375 54.625 21.277344 C 54.515625 21.820312 54.355469 22.347656 54.144531 22.859375 C 53.933594 23.371094 53.671875 23.855469 53.367188 24.316406 C 53.058594 24.777344 52.710938 25.203125 52.320312 25.59375 C 51.925781 25.988281 51.503906 26.335938 51.042969 26.644531 C 50.582031 26.949219 50.097656 27.210938 49.585938 27.421875 C 49.074219 27.632812 48.550781 27.792969 48.007812 27.902344 C 47.464844 28.011719 46.917969 28.066406 46.363281 28.066406 C 45.8125 28.066406 45.261719 28.011719 44.722656 27.902344 C 44.179688 27.792969 43.652344 27.632812 43.140625 27.421875 C 42.628906 27.210938 42.144531 26.949219 41.683594 26.644531 C 41.226562 26.335938 40.800781 25.988281 40.410156 25.59375 C 40.019531 25.203125 39.667969 24.777344 39.363281 24.316406 C 39.054688 23.855469 38.796875 23.371094 38.582031 22.859375 C 38.371094 22.347656 38.210938 21.820312 38.105469 21.277344 C 37.996094 20.734375 37.941406 20.1875 37.941406 19.632812 C 37.941406 19.078125 37.996094 18.53125 38.105469 17.988281 C 38.210938 17.445312 38.371094 16.917969 38.582031 16.40625 C 38.796875 15.894531 39.054688 15.40625 39.363281 14.949219 C 39.667969 14.488281 40.019531 14.0625 40.410156 13.671875 C 40.800781 13.277344 41.226562 12.929688 41.683594 12.621094 C 42.144531 12.3125 42.628906 12.054688 43.140625 11.84375 C 43.652344 11.628906 44.179688 11.46875 44.722656 11.363281 C 45.261719 11.253906 45.8125 11.199219 46.363281 11.199219 C 46.917969 11.199219 47.464844 11.253906 48.007812 11.363281 C 48.550781 11.46875 49.074219 11.628906 49.585938 11.84375 C 50.097656 12.054688 50.582031 12.3125 51.042969 12.621094 C 51.503906 12.929688 51.925781 13.277344 52.320312 13.671875 C 52.710938 14.0625 53.058594 14.488281 53.367188 14.949219 C 53.671875 15.40625 53.933594 15.894531 54.144531 16.40625 C 54.355469 16.917969 54.515625 17.445312 54.625 17.988281 C 54.730469 18.53125 54.785156 19.078125 54.785156 19.632812 Z M 54.785156 19.632812 " fill-opacity="1" fill-rule="nonzero"/></g><path fill="#000000" d="M 52.066406 19.910156 C 51.921875 22.945312 49.421875 25.347656 46.363281 25.347656 C 43.214844 25.347656 40.65625 22.792969 40.65625 19.632812 C 40.65625 16.472656 43.214844 13.90625 46.363281 13.90625 C 47.808594 13.90625 49.136719 14.449219 50.136719 15.339844 C 48.742188 15.410156 47.644531 16.5625 47.644531 17.972656 C 47.644531 19.4375 48.820312 20.613281 50.28125 20.613281 C 50.972656 20.613281 51.597656 20.347656 52.066406 19.910156 Z M 52.066406 19.910156 " fill-opacity="1" fill-rule="nonzero"/><path fill="#82ae42" d="M 88.851562 61.953125 C 88.273438 62.871094 89.5625 63.921875 90.78125 67.863281 C 91.472656 70.121094 92.257812 72.640625 91.371094 73.339844 C 90.164062 74.292969 87.460938 70.671875 84.257812 71.417969 C 81.621094 72.027344 79.574219 75.363281 80.289062 76.789062 C 80.671875 77.550781 81.675781 77.414062 87.957031 77.570312 C 92.988281 77.699219 93.855469 77.828125 94.96875 77.027344 C 96.828125 75.695312 97.246094 73.363281 97.554688 71.546875 C 97.863281 69.71875 98.570312 65.625 95.972656 63.121094 C 93.703125 60.941406 89.660156 60.675781 88.851562 61.953125 Z M 88.851562 61.953125 " fill-opacity="1" fill-rule="nonzero"/><path fill="#82ae42" d="M 64.457031 56.21875 C 64.191406 57.335938 64.472656 58.933594 65.027344 62.09375 C 65.714844 65.972656 66.128906 66.945312 65.59375 67.367188 C 64.433594 68.28125 61.835938 64.804688 58.746094 65.511719 C 56.207031 66.101562 54.234375 69.3125 54.921875 70.6875 C 55.417969 71.675781 57.074219 71.386719 62.300781 71.441406 C 70.488281 71.523438 71.527344 72.269531 72.476562 71.199219 C 75.0625 68.308594 69.40625 60.675781 72.476562 57.691406 C 73.554688 56.640625 75.113281 56.742188 75.648438 55.277344 C 76.085938 54.070312 75.535156 52.597656 74.707031 51.730469 C 72.734375 49.671875 69.148438 51.007812 68.808594 51.144531 C 66.503906 52.050781 64.9375 54.160156 64.457031 56.21875 Z M 64.457031 56.21875 " fill-opacity="1" fill-rule="nonzero"/><path fill="#82ae42" d="M 63.242188 24.148438 C 64.652344 23.886719 66.882812 23.449219 69.652344 22.835938 C 71.769531 22.371094 72.667969 22.144531 72.9375 22.527344 C 73.253906 22.980469 72.757812 24.308594 68.726562 28.359375 C 66.90625 26.964844 65.074219 25.5625 63.242188 24.148438 Z M 63.242188 24.148438 " fill-opacity="1" fill-rule="nonzero"/><path fill="#82ae42" d="M 69.78125 29.171875 C 70.949219 29.074219 72.652344 28.917969 74.714844 28.660156 C 77.285156 28.34375 78.40625 28.191406 78.640625 28.660156 C 78.894531 29.171875 77.847656 29.921875 76.417969 32.234375 C 75.890625 33.082031 75.507812 33.828125 75.234375 34.394531 C 73.417969 32.648438 71.597656 30.90625 69.78125 29.171875 Z M 69.78125 29.171875 " fill-opacity="1" fill-rule="nonzero"/><path fill="#82ae42" d="M 75.753906 35.5 C 76.871094 35.160156 78.503906 34.640625 80.46875 33.957031 C 82.910156 33.101562 83.972656 32.710938 84.304688 33.117188 C 84.664062 33.5625 83.800781 34.519531 82.886719 37.085938 C 82.554688 38.019531 82.339844 38.835938 82.195312 39.4375 C 80.046875 38.125 77.902344 36.8125 75.753906 35.5 Z M 75.753906 35.5 " fill-opacity="1" fill-rule="nonzero"/><path fill="#82ae42" d="M 90.546875 44.726562 C 91.664062 44.386719 93.296875 43.867188 95.261719 43.179688 C 97.703125 42.328125 98.765625 41.933594 99.097656 42.34375 C 99.457031 42.785156 98.59375 43.746094 97.679688 46.308594 C 97.351562 47.246094 97.132812 48.058594 96.988281 48.664062 C 94.839844 47.351562 92.695312 46.039062 90.546875 44.726562 Z M 90.546875 44.726562 " fill-opacity="1" fill-rule="nonzero"/><path fill="#82ae42" d="M 105.371094 54.402344 C 106.488281 54.0625 108.121094 53.542969 110.085938 52.855469 C 112.527344 52.003906 113.589844 51.613281 113.921875 52.019531 C 114.28125 52.464844 113.417969 53.421875 112.503906 55.984375 C 112.171875 56.921875 111.953125 57.734375 111.8125 58.339844 C 109.664062 57.035156 107.519531 55.722656 105.371094 54.402344 Z M 105.371094 54.402344 " fill-opacity="1" fill-rule="nonzero"/><path fill="#82ae42" d="M 112.875 59.28125 C 113.988281 58.941406 115.625 58.421875 117.589844 57.734375 C 120.136719 56.847656 121.183594 56.550781 121.421875 56.898438 C 121.703125 57.296875 120.683594 58.21875 119.246094 60.667969 C 118.6875 61.613281 118.289062 62.410156 118.046875 62.925781 C 116.332031 61.71875 114.605469 60.503906 112.875 59.28125 Z M 112.875 59.28125 " fill-opacity="1" fill-rule="nonzero"/><path fill="#82ae42" d="M 98.707031 49.71875 C 99.820312 49.378906 101.453125 48.859375 103.421875 48.171875 C 105.964844 47.28125 107.015625 46.988281 107.253906 47.335938 C 107.535156 47.734375 106.515625 48.65625 105.078125 51.105469 C 104.519531 52.050781 104.121094 52.847656 103.878906 53.359375 C 102.15625 52.148438 100.429688 50.933594 98.707031 49.71875 Z M 98.707031 49.71875 " fill-opacity="1" fill-rule="nonzero"/><path fill="#82ae42" d="M 83.84375 40.8125 C 84.597656 40.402344 86.164062 39.558594 88.207031 38.449219 C 90.632812 37.128906 91.527344 36.640625 91.835938 36.941406 C 92.167969 37.265625 91.550781 38.238281 90.367188 41.042969 C 89.847656 42.28125 89.457031 43.308594 89.214844 43.949219 C 87.429688 42.898438 85.636719 41.851562 83.84375 40.8125 Z M 83.84375 40.8125 " fill-opacity="1" fill-rule="nonzero"/><path fill="#82ae42" d="M 68.5625 38.335938 C 67.484375 38.78125 66.371094 39.859375 66.589844 40.464844 C 66.8125 41.082031 68.375 40.976562 68.976562 40.886719 C 69.632812 40.789062 70.585938 40.644531 70.957031 39.859375 C 71.167969 39.40625 71.183594 38.746094 70.84375 38.351562 C 70.234375 37.652344 68.847656 38.214844 68.5625 38.335938 Z M 68.5625 38.335938 " fill-opacity="1" fill-rule="nonzero"/><path fill="#82ae42" d="M 66.867188 36.898438 C 66.292969 36.679688 65.511719 37.28125 65.269531 37.984375 C 65.148438 38.328125 65.074219 38.941406 65.367188 39.175781 C 65.765625 39.492188 66.632812 38.972656 67.070312 38.449219 C 67.234375 38.246094 67.453125 37.976562 67.417969 37.621094 C 67.386719 37.296875 67.144531 37.003906 66.867188 36.898438 Z M 66.867188 36.898438 " fill-opacity="1" fill-rule="nonzero"/><path fill="#82ae42" d="M 104.160156 62.949219 C 103.738281 62.84375 103.179688 63.339844 103.007812 63.875 C 102.765625 64.628906 103.234375 65.585938 103.738281 65.625 C 104.136719 65.65625 104.519531 65.097656 104.65625 64.660156 C 104.859375 63.988281 104.648438 63.074219 104.160156 62.949219 Z M 104.160156 62.949219 " fill-opacity="1" fill-rule="nonzero"/><path fill="#82ae42" d="M 105.6875 63.65625 C 105.207031 63.890625 105.160156 64.855469 105.371094 65.511719 C 105.710938 66.550781 106.886719 67.359375 107.421875 67.082031 C 107.917969 66.816406 107.902344 65.578125 107.429688 64.75 C 107.050781 64.085938 106.207031 63.40625 105.6875 63.65625 Z M 105.6875 63.65625 " fill-opacity="1" fill-rule="nonzero"/><path fill="#82ae42" d="M 82.941406 54.839844 C 84.289062 55.691406 86.828125 54.289062 86.773438 53.472656 C 86.738281 52.9375 85.5625 52.578125 84.761719 52.53125 C 83.746094 52.480469 82.367188 52.894531 82.246094 53.664062 C 82.171875 54.117188 82.5625 54.597656 82.941406 54.839844 Z M 82.941406 54.839844 " fill-opacity="1" fill-rule="nonzero"/><path fill="#82ae42" d="M 86.359375 50.34375 C 85.742188 50.53125 85.027344 51.054688 85.101562 51.476562 C 85.191406 51.972656 86.398438 52.335938 87.316406 51.996094 C 87.898438 51.785156 88.542969 51.234375 88.445312 50.820312 C 88.332031 50.335938 87.21875 50.089844 86.359375 50.34375 Z M 86.359375 50.34375 " fill-opacity="1" fill-rule="nonzero"/><path fill="#82ae42" d="M 89.019531 51.832031 C 88.144531 52.09375 87.316406 52.929688 87.484375 53.367188 C 87.679688 53.890625 89.34375 54.070312 90.109375 53.269531 C 90.425781 52.9375 90.691406 52.335938 90.457031 51.980469 C 90.140625 51.507812 89.125 51.800781 89.019531 51.832031 Z M 89.019531 51.832031 " fill-opacity="1" fill-rule="nonzero"/><path fill="#97be48" d="M 49.542969 30.832031 C 47.351562 32.144531 46.53125 35.085938 47.546875 37.085938 C 48.96875 39.890625 53.746094 40.296875 55.871094 37.953125 C 57.058594 36.648438 57.390625 34.503906 56.5625 32.832031 C 55.371094 30.417969 51.996094 29.363281 49.542969 30.832031 Z M 49.542969 30.832031 " fill-opacity="1" fill-rule="nonzero"/></svg>