<svg xmlns="http://www.w3.org/2000/svg" xmlns:xlink="http://www.w3.org/1999/xlink" width="200" zoomAndPan="magnify" viewBox="0 0 150 112.499997" height="150" preserveAspectRatio="xMidYMid meet" version="1.0"><defs><clipPath id="80d93f7775"><path d="M 34.535156 29.664062 L 123.265625 29.664062 L 123.265625 96.910156 L 34.535156 96.910156 Z M 34.535156 29.664062 " clip-rule="nonzero"/></clipPath></defs><g clip-path="url(#80d93f7775)"><path fill="#ea7e16" d="M 89.902344 35.183594 C 81.808594 47.628906 102.558594 53.316406 104.511719 37.449219 C 104.390625 26.414062 93.894531 29.042969 89.902344 35.183594 Z M 36.5625 60.308594 C 28.464844 72.75 49.21875 78.441406 51.167969 62.574219 C 51.046875 51.535156 40.554688 54.167969 36.5625 60.308594 Z M 58.460938 84.953125 C 50.367188 97.398438 71.117188 103.085938 73.070312 87.222656 C 72.949219 76.183594 62.453125 78.816406 58.460938 84.953125 Z M 123.054688 58.597656 C 121.070312 75.296875 101.21875 69.445312 109.335938 56.347656 C 113.34375 49.890625 124.652344 47.496094 123.054688 58.597656 " fill-opacity="1" fill-rule="nonzero"/></g><path fill="#ef3220" d="M 120.125 54.621094 C 114.003906 58.921875 65.238281 86.734375 56.597656 86.878906 C 47.953125 87.023438 30.550781 85.03125 21.042969 76.015625 C 11.535156 67.003906 15.765625 63.140625 19.328125 60.371094 C 22.890625 57.605469 34.390625 59.144531 40.292969 59.269531 C 46.199219 59.390625 91.171875 36.609375 96.636719 34.410156 C 102.101562 32.207031 106.359375 21.65625 114.351562 17.433594 C 119.304688 14.820312 124.828125 17.097656 128.316406 19.210938 C 130.996094 20.835938 134.769531 25.53125 135.371094 28.597656 C 137.382812 38.804688 125.410156 50.910156 120.125 54.621094 " fill-opacity="1" fill-rule="nonzero"/><path fill="#397dc9" d="M 97.882812 67.640625 C 81.632812 76.628906 61.808594 86.792969 56.597656 86.878906 C 47.953125 87.023438 30.550781 85.03125 21.042969 76.015625 C 11.535156 67.003906 15.765625 63.140625 19.328125 60.371094 C 22.890625 57.605469 34.390625 59.144531 40.292969 59.269531 C 43.476562 59.335938 58.015625 52.746094 71.59375 46.3125 L 97.882812 67.640625 " fill-opacity="1" fill-rule="nonzero"/><path fill="#f8e505" d="M 122.605469 55.136719 C 116.484375 59.4375 64.535156 88.53125 55.894531 88.675781 C 47.25 88.820312 29.296875 86.210938 19.789062 77.199219 C 13.371094 71.113281 13.785156 66.835938 15.828125 63.851562 C 15.828125 63.851562 22.945312 75.476562 31.71875 79.644531 C 40.496094 83.816406 54.351562 83.308594 60.675781 82.871094 C 67.003906 82.433594 109.375 59.761719 117.054688 54.730469 C 124.734375 49.703125 131.972656 39.859375 132.628906 36.800781 C 133.175781 34.269531 135.511719 33.234375 134.085938 25.308594 C 135.285156 27.027344 136.214844 28.746094 136.457031 29.980469 C 138.464844 40.1875 127.890625 51.425781 122.605469 55.136719 " fill-opacity="1" fill-rule="nonzero"/><path fill="#110f0d" d="M 68.253906 87.867188 C 68.238281 87.105469 68.058594 86.175781 67.292969 85.957031 C 67.171875 85.921875 67.042969 85.90625 66.902344 85.90625 C 66.042969 85.90625 64.9375 86.558594 64.34375 87.472656 C 63.722656 88.425781 63.621094 89.292969 64.066406 89.90625 C 64.503906 90.519531 65.40625 90.792969 66.253906 90.578125 C 67.335938 90.304688 68.0625 89.316406 68.253906 87.867188 Z M 69.625 87.898438 C 69.625 87.925781 69.625 87.957031 69.621094 87.988281 C 69.371094 90.019531 68.238281 91.484375 66.597656 91.902344 C 66.285156 91.980469 65.972656 92.019531 65.664062 92.019531 C 64.578125 92.019531 63.554688 91.542969 62.953125 90.707031 C 62.167969 89.617188 62.253906 88.167969 63.191406 86.730469 C 63.253906 86.632812 63.320312 86.539062 63.390625 86.449219 C 64.699219 85.921875 66.125 85.3125 67.644531 84.636719 C 67.652344 84.636719 67.667969 84.640625 67.675781 84.644531 C 68.394531 84.851562 69.601562 85.550781 69.625 87.898438 Z M 118.726562 61.023438 C 118.714844 60.265625 118.53125 59.335938 117.769531 59.113281 C 117.648438 59.078125 117.515625 59.0625 117.378906 59.0625 C 116.519531 59.0625 115.410156 59.714844 114.816406 60.628906 C 114.195312 61.585938 114.09375 62.453125 114.539062 63.066406 C 114.980469 63.675781 115.882812 63.953125 116.730469 63.738281 C 117.8125 63.460938 118.535156 62.472656 118.726562 61.023438 Z M 120.101562 61.054688 C 120.101562 61.085938 120.097656 61.113281 120.09375 61.144531 C 119.84375 63.179688 118.714844 64.640625 117.070312 65.0625 C 116.757812 65.140625 116.445312 65.175781 116.140625 65.175781 C 115.050781 65.175781 114.03125 64.699219 113.425781 63.863281 C 112.8125 63.011719 112.734375 61.9375 113.179688 60.820312 C 115.109375 59.710938 116.832031 58.703125 118.277344 57.84375 C 119 58.09375 120.074219 58.839844 120.101562 61.054688 Z M 127.785156 40.480469 C 127.550781 41.042969 127.324219 41.582031 127.125 42.082031 C 126.757812 42.996094 125.644531 45.773438 100.523438 60.085938 C 87.582031 67.460938 74.128906 74.546875 71.234375 76.039062 C 68.984375 77.203125 62.117188 80.238281 51.941406 80.238281 C 48.820312 80.238281 45.386719 79.953125 41.679688 79.238281 C 29.03125 76.804688 20.949219 64.375 20.613281 63.847656 C 20.410156 63.527344 20.503906 63.105469 20.820312 62.902344 C 21.140625 62.699219 21.5625 62.792969 21.769531 63.109375 C 21.847656 63.234375 29.878906 75.578125 41.941406 77.898438 C 57.296875 80.851562 67.761719 76.292969 70.601562 74.828125 C 84.714844 67.542969 124.023438 46.128906 125.851562 41.574219 C 126.054688 41.066406 126.28125 40.527344 126.519531 39.953125 C 128.742188 34.613281 132.105469 26.542969 126.953125 22.695312 C 126.652344 22.46875 126.589844 22.039062 126.816406 21.738281 C 127.042969 21.433594 127.472656 21.375 127.777344 21.601562 C 133.777344 26.085938 130.171875 34.746094 127.785156 40.480469 " fill-opacity="1" fill-rule="nonzero"/></svg>