<svg xmlns="http://www.w3.org/2000/svg" xmlns:xlink="http://www.w3.org/1999/xlink" width="200" zoomAndPan="magnify" viewBox="0 0 150 149.999998" height="200" preserveAspectRatio="xMidYMid meet" version="1.0"><defs><clipPath id="581aaf771b"><path d="M 26.773438 15 L 123.523438 15 L 123.523438 135 L 26.773438 135 Z M 26.773438 15 " clip-rule="nonzero"/></clipPath></defs><path fill="#000000" d="M 61.222656 24.6875 C 61.222656 24.6875 61.226562 24.6875 61.226562 24.691406 L 61.234375 24.691406 L 61.230469 24.691406 C 61.226562 24.691406 61.226562 24.691406 61.226562 24.691406 C 61.222656 24.691406 61.222656 24.691406 61.222656 24.691406 C 61.222656 24.691406 61.222656 24.6875 61.222656 24.6875 C 61.21875 24.6875 61.21875 24.6875 61.21875 24.6875 L 61.222656 24.6875 " fill-opacity="1" fill-rule="nonzero"/><path fill="#000000" d="M 101.207031 72.765625 L 101.140625 72.835938 L 101.144531 72.835938 C 101.132812 72.863281 101.125 72.894531 101.113281 72.925781 C 101.105469 72.949219 101.09375 72.980469 101.078125 73.019531 C 101.046875 73.09375 101.015625 73.15625 100.984375 73.207031 L 101.046875 73.109375 L 101.105469 73.007812 L 101.152344 72.910156 L 101.195312 72.8125 L 101.210938 72.765625 L 101.207031 72.765625 " fill-opacity="1" fill-rule="nonzero"/><path fill="#000000" d="M 85.242188 77.777344 L 85.21875 77.792969 C 85.074219 77.910156 84.941406 77.996094 84.816406 78.054688 C 84.773438 78.078125 84.703125 78.101562 84.609375 78.125 C 84.558594 78.132812 84.507812 78.136719 84.457031 78.132812 C 84.363281 78.242188 84.285156 78.332031 84.222656 78.410156 C 84.359375 78.410156 84.496094 78.410156 84.632812 78.410156 L 85.246094 77.777344 Z M 85.242188 77.777344 " fill-opacity="1" fill-rule="nonzero"/><path fill="#000000" d="M 86.367188 76.0625 L 86.367188 76.070312 C 86.378906 76.175781 86.375 76.273438 86.351562 76.371094 C 86.339844 76.417969 86.324219 76.460938 86.304688 76.503906 L 86.273438 76.566406 C 86.25 76.605469 86.222656 76.644531 86.195312 76.679688 C 86.191406 76.6875 86.128906 76.753906 86 76.878906 C 86.003906 76.878906 85.960938 76.945312 85.871094 77.074219 C 85.839844 77.125 85.78125 77.199219 85.699219 77.304688 C 86.058594 76.933594 86.414062 76.566406 86.769531 76.199219 L 86.367188 76.0625 " fill-opacity="1" fill-rule="nonzero"/><path fill="#000000" d="M 68.585938 71.4375 L 68.582031 78.410156 L 64.570312 78.410156 L 60.976562 74.710938 C 61.488281 74.632812 62.917969 74.132812 65.265625 73.214844 C 65.589844 73.078125 65.988281 72.886719 66.460938 72.636719 C 66.773438 72.480469 67.480469 72.082031 68.585938 71.4375 M 70.929688 54.085938 L 70.910156 54.089844 C 70.058594 54.070312 69.628906 54.148438 69.609375 54.332031 C 69.347656 54.5 69.007812 55.070312 68.585938 56.046875 L 68.585938 66.34375 C 67.589844 67.199219 66.441406 67.957031 65.148438 68.617188 C 62.917969 69.773438 60.378906 70.625 57.539062 71.167969 L 51.285156 64.726562 C 49.933594 64.078125 48.847656 64.3125 48.03125 65.433594 L 53.539062 71.382812 L 55.152344 73.5 C 56.085938 74.464844 59.449219 77.445312 65.25 82.4375 L 65.613281 82.644531 L 72.578125 82.601562 C 72.65625 82.382812 72.722656 80.492188 72.773438 76.925781 L 72.753906 58.402344 C 72.738281 57.9375 72.589844 56.5 72.304688 54.09375 Z M 70.929688 54.085938 " fill-opacity="1" fill-rule="nonzero"/><path fill="#000000" d="M 61.171875 24.679688 L 61.183594 24.679688 C 61.191406 24.683594 61.203125 24.683594 61.214844 24.6875 L 61.207031 24.6875 L 61.210938 24.6875 C 61.207031 24.6875 61.207031 24.6875 61.207031 24.6875 L 61.183594 24.683594 C 61.183594 24.683594 61.183594 24.683594 61.183594 24.679688 C 61.179688 24.679688 61.175781 24.679688 61.175781 24.679688 C 61.171875 24.679688 61.171875 24.679688 61.171875 24.679688 " fill-opacity="1" fill-rule="nonzero"/><path fill="#000000" d="M 88.363281 80.648438 C 88.335938 80.683594 88.3125 80.71875 88.289062 80.753906 C 88.277344 80.773438 88.261719 80.796875 88.242188 80.828125 C 88.242188 80.835938 88.234375 80.84375 88.230469 80.855469 C 88.246094 80.832031 88.261719 80.800781 88.28125 80.769531 C 88.304688 80.734375 88.332031 80.695312 88.367188 80.648438 L 88.363281 80.648438 " fill-opacity="1" fill-rule="nonzero"/><path fill="#000000" d="M 81.589844 72.730469 L 81.644531 72.734375 C 81.761719 72.746094 81.867188 72.789062 81.960938 72.859375 L 82.039062 72.925781 C 82.144531 73.085938 82.214844 73.179688 82.242188 73.203125 L 82.472656 73.394531 L 82.628906 73.488281 C 82.75 73.476562 82.859375 73.488281 82.953125 73.53125 C 82.960938 73.527344 83.035156 73.574219 83.175781 73.667969 C 83.464844 73.863281 83.765625 74.117188 84.066406 74.429688 L 85.464844 75.085938 C 85.601562 75.195312 85.691406 75.300781 85.730469 75.398438 C 85.824219 75.414062 85.964844 75.496094 86.140625 75.636719 C 86.257812 75.765625 86.324219 75.863281 86.34375 75.941406 C 86.402344 76.15625 86.375 76.371094 86.265625 76.585938 C 86.238281 76.640625 86.148438 76.738281 86 76.878906 C 85.9375 76.996094 85.8125 77.167969 85.625 77.394531 C 85.582031 77.449219 85.484375 77.550781 85.324219 77.707031 C 84.949219 78.023438 84.660156 78.164062 84.457031 78.132812 C 84.246094 78.398438 84.109375 78.546875 84.046875 78.578125 C 83.988281 78.617188 83.882812 78.648438 83.738281 78.660156 C 83.726562 78.6875 83.632812 78.730469 83.464844 78.792969 C 83.398438 78.816406 83.296875 78.839844 83.160156 78.863281 C 82.921875 78.839844 82.558594 78.816406 82.070312 78.800781 C 81.875 78.773438 81.714844 78.742188 81.59375 78.699219 C 81.25 78.523438 81.050781 78.351562 80.996094 78.1875 C 80.957031 78.023438 80.9375 77.921875 80.9375 77.894531 L 80.929688 76.296875 C 80.753906 75.824219 80.6875 75.199219 80.730469 74.421875 C 80.804688 74.066406 80.871094 73.890625 80.929688 73.902344 C 80.859375 73.78125 80.84375 73.632812 80.878906 73.453125 L 81.074219 73.011719 C 81.15625 72.863281 81.328125 72.769531 81.589844 72.730469 M 77.015625 54.121094 L 77.027344 78.410156 C 76.972656 78.257812 76.921875 78.320312 76.878906 78.59375 L 76.777344 82.601562 L 83.582031 82.601562 L 83.582031 82.726562 C 84.070312 82.640625 84.792969 82.683594 85.753906 82.855469 L 86.363281 82.28125 C 87.03125 81.640625 87.726562 81.023438 88.445312 80.425781 C 88.789062 80.15625 88.964844 80.066406 88.972656 80.15625 L 92.953125 76.042969 L 94.832031 73.960938 C 94.949219 73.46875 95.09375 73.140625 95.257812 72.976562 C 95.402344 72.8125 95.648438 72.652344 96 72.503906 C 99.003906 69.0625 100.882812 66.984375 101.632812 66.273438 L 100.25 64.941406 L 99.890625 64.730469 C 99.082031 64.511719 98.464844 64.511719 98.039062 64.734375 L 97.398438 65.199219 L 90.105469 72.746094 C 87.769531 72.046875 86.125 71.460938 85.167969 70.988281 C 84.222656 70.535156 82.902344 69.675781 81.214844 68.410156 L 81.195312 55.71875 L 81.082031 55.429688 C 80.707031 54.882812 80.328125 54.484375 79.953125 54.230469 Z M 77.015625 54.121094 " fill-opacity="1" fill-rule="nonzero"/><path fill="#000000" d="M 111.152344 74.148438 L 111.140625 74.160156 C 111.046875 74.25 110.957031 74.34375 110.871094 74.441406 C 110.910156 74.414062 110.941406 74.382812 110.976562 74.351562 C 111.003906 74.324219 111.039062 74.289062 111.074219 74.246094 C 111.09375 74.222656 111.109375 74.203125 111.125 74.183594 L 111.15625 74.148438 L 111.152344 74.148438 " fill-opacity="1" fill-rule="nonzero"/><path fill="#000000" d="M 105.519531 35.007812 C 105.550781 35.015625 105.582031 35.023438 105.609375 35.03125 C 105.605469 35.027344 105.597656 35.023438 105.589844 35.023438 L 105.578125 35.019531 L 105.570312 35.015625 L 105.558594 35.011719 L 105.546875 35.011719 L 105.539062 35.007812 L 105.519531 35.007812 " fill-opacity="1" fill-rule="nonzero"/><path fill="#000000" d="M 111.214844 74.085938 L 111.210938 74.089844 C 111.195312 74.105469 111.179688 74.121094 111.160156 74.140625 L 111.175781 74.128906 C 111.183594 74.117188 111.191406 74.113281 111.191406 74.109375 C 111.203125 74.101562 111.210938 74.09375 111.21875 74.085938 L 111.214844 74.085938 " fill-opacity="1" fill-rule="nonzero"/><path fill="#000000" d="M 105.648438 35.027344 L 105.644531 35.027344 C 105.632812 35.027344 105.625 35.03125 105.617188 35.035156 L 105.738281 35.0625 C 105.730469 35.058594 105.722656 35.054688 105.714844 35.046875 C 105.707031 35.042969 105.703125 35.042969 105.695312 35.039062 L 105.683594 35.035156 L 105.675781 35.03125 L 105.664062 35.027344 L 105.648438 35.027344 " fill-opacity="1" fill-rule="nonzero"/><path fill="#000000" d="M 105.757812 35.058594 C 105.75 35.058594 105.746094 35.058594 105.738281 35.0625 L 105.8125 35.082031 L 105.804688 35.078125 L 105.800781 35.074219 C 105.796875 35.070312 105.792969 35.066406 105.785156 35.066406 C 105.777344 35.058594 105.765625 35.058594 105.757812 35.058594 " fill-opacity="1" fill-rule="nonzero"/><path fill="#000000" d="M 105.828125 35.070312 C 105.820312 35.070312 105.816406 35.074219 105.8125 35.082031 C 105.832031 35.085938 105.855469 35.089844 105.875 35.097656 C 105.867188 35.089844 105.859375 35.082031 105.851562 35.078125 L 105.847656 35.074219 L 105.84375 35.074219 L 105.835938 35.070312 L 105.828125 35.070312 " fill-opacity="1" fill-rule="nonzero"/><path fill="#000000" d="M 111.292969 74.023438 L 111.285156 74.027344 C 111.269531 74.039062 111.253906 74.050781 111.234375 74.066406 C 111.246094 74.0625 111.253906 74.054688 111.261719 74.050781 C 111.269531 74.042969 111.28125 74.035156 111.289062 74.027344 L 111.296875 74.023438 L 111.292969 74.023438 " fill-opacity="1" fill-rule="nonzero"/><g clip-path="url(#581aaf771b)"><path fill="#000000" d="M 88.382812 80.628906 L 88.382812 80.628906 M 88.378906 80.628906 L 88.378906 80.632812 L 88.378906 80.628906 M 74.527344 19.511719 L 75.910156 19.5625 C 77.386719 19.367188 80.023438 20.136719 83.828125 21.871094 C 88.738281 25.636719 91.296875 28.183594 91.503906 29.511719 C 96.941406 29.1875 101.515625 30.476562 105.226562 33.378906 C 105.613281 33.699219 106.132812 34.339844 106.78125 35.304688 L 105.875 35.101562 C 106.179688 35.417969 107.253906 37.359375 109.097656 40.925781 C 112.613281 43.074219 115.425781 45.746094 117.535156 48.941406 C 118.152344 49.761719 118.671875 52.445312 119.085938 56.996094 C 116.703125 63.992188 114.371094 67.875 112.09375 68.640625 C 111.957031 71.792969 111.691406 73.582031 111.300781 74.015625 C 111.699219 73.625 111.753906 74.042969 111.464844 75.265625 C 110.765625 77.097656 110.109375 78.402344 109.496094 79.183594 C 104.097656 82.734375 100.355469 83.570312 98.269531 81.683594 L 106.210938 73.460938 L 106.839844 71.644531 L 104.863281 69.625 L 102.304688 71.730469 C 92.71875 82.304688 86.476562 88.746094 83.578125 91.050781 L 83.582031 130.535156 L 65.410156 130.535156 L 65.410156 89.253906 L 50.765625 75.28125 L 42.8125 69.457031 C 42.582031 69.195312 42.546875 70.4375 42.707031 73.179688 L 53.507812 84.355469 C 47.472656 88.148438 43.027344 88.519531 40.179688 85.464844 C 38.699219 84.003906 37.652344 81.765625 37.035156 78.746094 L 37.257812 76.292969 L 38.796875 72.976562 C 38.847656 71.546875 39.191406 69.925781 39.828125 68.109375 C 39.378906 68.722656 37.015625 66.25 32.734375 60.699219 C 31.753906 59.386719 31.207031 56.769531 31.097656 52.84375 C 31.269531 50.78125 31.925781 48.765625 33.066406 46.792969 C 35 44.359375 37.371094 42.296875 40.183594 40.605469 C 39.667969 40.992188 39.488281 39.292969 39.644531 35.511719 C 40.132812 34.320312 41.128906 33.121094 42.628906 31.910156 C 45.816406 29.304688 51.003906 28.144531 58.195312 28.433594 C 59.265625 26.589844 61.777344 24.257812 65.726562 21.445312 C 67.234375 20.6875 70.167969 20.046875 74.527344 19.511719 M 75.414062 15.21875 L 74.148438 15.238281 C 72.476562 15.109375 69.683594 15.6875 65.769531 16.972656 C 61.886719 18.945312 58.679688 21.324219 56.144531 24.109375 C 50.222656 23.570312 44.035156 25.703125 37.589844 30.503906 C 36.199219 32.625 35.417969 35.398438 35.246094 38.820312 C 34.730469 38.089844 32.410156 41.019531 28.292969 47.605469 C 27.476562 50.253906 26.96875 53.066406 26.773438 56.039062 C 27.753906 61.253906 30.683594 65.992188 35.558594 70.253906 C 34.347656 71.617188 33.46875 74.0625 32.921875 77.59375 C 33.203125 81.867188 34.179688 84.941406 35.855469 86.816406 C 45.746094 93.273438 52.601562 93.460938 56.429688 87.382812 L 61.207031 92.320312 L 61.203125 132.828125 L 61.597656 133.878906 L 62.957031 134.738281 L 86.253906 134.738281 C 86.429688 134.859375 86.933594 134.277344 87.769531 132.988281 L 87.785156 92.535156 L 95.222656 84.835938 C 99.269531 88.050781 105.230469 86.933594 113.101562 81.480469 C 114.574219 79.691406 115.4375 76.285156 115.6875 71.253906 C 119.808594 66.992188 121.984375 64.039062 122.214844 62.398438 C 123.085938 59.480469 123.394531 56.03125 123.136719 52.046875 C 122.675781 50.484375 121.339844 47.679688 119.128906 43.628906 C 118.628906 42.730469 116.144531 40.726562 111.675781 37.621094 C 110.9375 33.796875 109.320312 30.988281 106.824219 29.195312 C 101.695312 26.371094 97.382812 25.117188 93.886719 25.429688 C 90.328125 21.328125 87.902344 18.933594 86.609375 18.25 C 81.925781 16.394531 78.195312 15.382812 75.414062 15.21875 Z M 75.414062 15.21875 " fill-opacity="1" fill-rule="nonzero"/></g></svg>