<svg xmlns="http://www.w3.org/2000/svg" xmlns:xlink="http://www.w3.org/1999/xlink" width="200" zoomAndPan="magnify" viewBox="0 0 150 112.499997" height="150" preserveAspectRatio="xMidYMid meet" version="1.0"><defs><clipPath id="097267ddcb"><path d="M 33.503906 11.199219 L 116.296875 11.199219 L 116.296875 100.800781 L 33.503906 100.800781 Z M 33.503906 11.199219 " clip-rule="nonzero"/></clipPath></defs><g clip-path="url(#097267ddcb)"><path fill="#ef3220" d="M 69.1875 89.871094 L 63.707031 89.871094 L 62.453125 91.308594 L 62.429688 91.308594 C 62.1875 91.308594 61.949219 91.375 61.742188 91.503906 L 52.703125 97.152344 C 52.324219 97.390625 52.09375 97.804688 52.09375 98.257812 L 52.09375 98.328125 C 52.09375 98.972656 52.5625 99.519531 53.199219 99.617188 L 60.976562 100.789062 C 61.199219 100.820312 61.421875 100.796875 61.632812 100.714844 L 68.742188 97.996094 C 69.246094 97.804688 69.578125 97.320312 69.578125 96.78125 L 69.578125 95.042969 C 69.578125 94.953125 69.566406 94.863281 69.550781 94.777344 L 69.578125 94.789062 Z M 97.46875 97.152344 L 88.429688 91.503906 C 88.226562 91.375 87.988281 91.308594 87.746094 91.308594 L 86.492188 89.871094 L 81.011719 89.871094 L 80.621094 94.789062 C 80.605469 94.871094 80.59375 94.957031 80.59375 95.042969 L 80.59375 96.78125 C 80.59375 97.320312 80.925781 97.804688 81.429688 97.996094 L 88.542969 100.714844 C 88.75 100.796875 88.976562 100.820312 89.195312 100.789062 L 96.976562 99.617188 C 97.609375 99.519531 98.082031 98.972656 98.082031 98.328125 L 98.082031 98.257812 C 98.082031 97.804688 97.851562 97.390625 97.46875 97.152344 Z M 47.472656 40.71875 C 46.875 40.386719 46.277344 40.070312 45.667969 39.761719 C 44.445312 38.957031 43.117188 38.351562 41.710938 37.945312 C 41.332031 37.789062 40.949219 37.632812 40.5625 37.484375 C 40.179688 37.335938 39.84375 37.359375 39.574219 37.492188 C 39.324219 37.457031 39.078125 37.425781 38.824219 37.40625 C 37.992188 37.328125 37.476562 38.128906 37.390625 38.839844 C 37.289062 39.714844 37.910156 40.441406 38.734375 40.644531 C 38.828125 40.667969 38.917969 40.679688 39.003906 40.683594 C 39.054688 40.71875 39.113281 40.75 39.171875 40.777344 C 40.355469 41.355469 41.503906 41.996094 42.59375 42.738281 C 42.621094 42.757812 42.722656 42.835938 42.835938 42.921875 C 42.800781 42.957031 42.765625 42.992188 42.726562 43.027344 C 42.222656 43.527344 41.71875 44.03125 41.210938 44.527344 C 40.851562 44.878906 40.492188 45.265625 40.058594 45.527344 C 39.453125 45.890625 39.449219 45.800781 39.09375 45.273438 C 38.332031 44.144531 37.742188 42.9375 37.308594 41.648438 C 37.144531 41.15625 36.804688 40.863281 36.414062 40.734375 C 36.199219 40.585938 35.929688 40.496094 35.597656 40.503906 C 34.496094 40.523438 33.617188 41.246094 33.511719 42.382812 C 33.40625 43.558594 34.179688 44.902344 34.632812 45.953125 C 35.136719 47.128906 35.6875 48.289062 36.308594 49.40625 C 36.84375 50.359375 37.613281 51.125 38.804688 50.824219 C 39.863281 50.554688 40.914062 49.710938 41.816406 49.121094 C 42.339844 48.777344 42.851562 48.417969 43.359375 48.046875 C 43.859375 47.679688 44.355469 47.300781 44.839844 46.910156 C 45.289062 46.550781 46.003906 46.023438 46.652344 45.410156 C 47.324219 44.769531 47.917969 44.042969 48.046875 43.3125 C 48.308594 42.933594 48.402344 42.449219 48.195312 41.992188 C 48.179688 41.484375 47.878906 40.949219 47.472656 40.71875 Z M 116.285156 42.382812 C 116.179688 41.246094 115.300781 40.523438 114.199219 40.503906 C 113.871094 40.496094 113.597656 40.585938 113.386719 40.734375 C 112.996094 40.863281 112.652344 41.15625 112.488281 41.648438 C 112.054688 42.9375 111.46875 44.144531 110.707031 45.273438 C 110.347656 45.800781 110.34375 45.890625 109.738281 45.527344 C 109.304688 45.265625 108.949219 44.878906 108.585938 44.527344 C 108.078125 44.03125 107.574219 43.527344 107.070312 43.027344 C 107.035156 42.992188 107 42.957031 106.960938 42.921875 C 107.078125 42.835938 107.175781 42.757812 107.203125 42.738281 C 108.292969 41.996094 109.441406 41.355469 110.625 40.777344 C 110.6875 40.75 110.742188 40.71875 110.792969 40.683594 C 110.878906 40.679688 110.96875 40.667969 111.0625 40.644531 C 111.886719 40.441406 112.507812 39.714844 112.40625 38.839844 C 112.324219 38.128906 111.804688 37.328125 110.972656 37.40625 C 110.722656 37.425781 110.472656 37.457031 110.222656 37.492188 C 109.953125 37.359375 109.621094 37.335938 109.234375 37.484375 C 108.851562 37.632812 108.46875 37.789062 108.085938 37.945312 C 106.679688 38.351562 105.351562 38.957031 104.128906 39.761719 C 103.523438 40.070312 102.921875 40.386719 102.328125 40.71875 C 101.917969 40.949219 101.617188 41.484375 101.605469 41.992188 C 101.394531 42.449219 101.488281 42.933594 101.75 43.3125 C 101.878906 44.042969 102.472656 44.769531 103.148438 45.410156 C 103.792969 46.023438 104.511719 46.550781 104.957031 46.910156 C 105.445312 47.300781 105.9375 47.679688 106.441406 48.046875 C 106.945312 48.417969 107.457031 48.777344 107.980469 49.121094 C 108.882812 49.710938 109.933594 50.554688 110.992188 50.824219 C 112.1875 51.125 112.957031 50.359375 113.488281 49.40625 C 114.113281 48.289062 114.660156 47.128906 115.164062 45.953125 C 115.621094 44.902344 116.394531 43.558594 116.285156 42.382812 Z M 87.957031 29.632812 C 87.957031 24.914062 87.957031 20.191406 87.957031 15.472656 C 87.957031 11.136719 87.046875 11.421875 83.46875 11.421875 C 78.835938 11.421875 74.199219 11.421875 69.5625 11.421875 C 66.808594 11.421875 63.203125 10.191406 62.128906 13.542969 C 60.878906 17.460938 61.960938 25.066406 62.128906 29.195312 C 62.296875 33.238281 63.1875 32.550781 66.136719 32.171875 C 67.179688 32.039062 68.242188 31.96875 69.3125 31.933594 C 69.359375 32.8125 69.5625 33.421875 70.316406 33.703125 C 70.558594 33.792969 70.867188 33.832031 71.292969 33.832031 C 71.496094 33.832031 71.707031 33.824219 71.90625 33.816406 C 72.105469 33.804688 72.296875 33.796875 72.476562 33.796875 C 73.214844 33.796875 73.972656 33.816406 74.707031 33.832031 C 75.441406 33.851562 76.203125 33.871094 76.945312 33.871094 C 77.773438 33.871094 78.492188 33.847656 79.140625 33.796875 C 80.132812 33.726562 80.613281 33.269531 80.753906 32.179688 C 81.8125 32.238281 88.074219 32.894531 87.957031 29.632812 Z M 63.164062 42.050781 C 65.21875 39.535156 64.234375 35.535156 61.089844 34.464844 C 60.539062 34.277344 59.976562 34.214844 59.429688 34.257812 C 59.324219 34.242188 59.210938 34.238281 59.089844 34.25 C 55.945312 34.5 53.660156 38.746094 55.140625 41.527344 C 56.765625 44.578125 61.089844 44.582031 63.164062 42.050781 Z M 88.707031 34.464844 C 89.257812 34.277344 89.820312 34.214844 90.371094 34.257812 C 90.476562 34.242188 90.589844 34.238281 90.707031 34.25 C 93.855469 34.5 96.136719 38.746094 94.65625 41.527344 C 93.03125 44.578125 88.707031 44.582031 86.632812 42.050781 C 84.578125 39.535156 85.5625 35.535156 88.707031 34.464844 " fill-opacity="1" fill-rule="nonzero"/></g><path fill="#9aa7b2" d="M 80.914062 75.550781 C 81.800781 76.042969 83.648438 75.914062 84.601562 75.65625 C 84.832031 75.59375 85.023438 75.511719 85.1875 75.417969 C 86.042969 75.417969 86.878906 74.9375 86.898438 73.949219 C 86.941406 71.414062 86.84375 68.902344 85.738281 66.519531 C 84.738281 64.355469 83.195312 62.4375 81.15625 60.886719 C 80.964844 60.738281 80.765625 60.640625 80.558594 60.574219 C 80.007812 60.265625 79.242188 60.242188 78.65625 60.519531 C 77.9375 60.859375 77.125 61.15625 76.472656 61.585938 C 75.835938 62.007812 75.527344 62.679688 75.765625 63.359375 C 75.886719 63.710938 76.167969 64.027344 76.527344 64.242188 C 78.367188 66.683594 79.585938 69.449219 79.867188 72.359375 C 79.96875 73.457031 79.664062 74.847656 80.914062 75.550781 Z M 66.898438 52.035156 L 71.792969 52.035156 C 72.546875 52.035156 72.746094 51.722656 72.78125 51.464844 C 72.867188 50.835938 71.910156 50.21875 71.5 50.101562 C 71.265625 50.039062 70.980469 50.007812 70.628906 50.007812 C 70.316406 50.007812 70 50.03125 69.695312 50.050781 C 69.433594 50.070312 69.183594 50.089844 68.980469 50.089844 C 68.734375 50.089844 68.347656 50.050781 67.898438 50.007812 C 67.273438 49.945312 66.566406 49.875 65.929688 49.875 C 65.234375 49.875 64.765625 49.960938 64.457031 50.140625 C 64.199219 50.289062 63.515625 50.6875 63.664062 51.234375 C 63.777344 51.652344 64.246094 52.035156 66.898438 52.035156 Z M 58.195312 39.941406 C 57.902344 39.773438 57.617188 39.722656 57.351562 39.75 C 56.777344 39.714844 56.21875 40.015625 56.066406 40.789062 C 55.710938 42.585938 54.9375 44.191406 53.988281 45.710938 C 53.761719 46.050781 53.519531 46.390625 53.277344 46.730469 C 53.035156 46.644531 52.8125 46.589844 52.644531 46.554688 C 52.324219 46.492188 52.011719 46.457031 51.710938 46.457031 C 51.160156 46.457031 50.648438 46.570312 50.191406 46.785156 C 50.113281 46.746094 50.035156 46.710938 49.953125 46.679688 C 48.816406 46.273438 47.730469 45.867188 46.652344 45.410156 C 46.003906 46.023438 45.289062 46.550781 44.839844 46.910156 C 44.355469 47.300781 43.859375 47.679688 43.359375 48.046875 C 44.070312 48.664062 44.820312 49.234375 45.609375 49.757812 C 46.410156 50.285156 47.199219 50.644531 48.035156 50.988281 C 48.082031 51.363281 48.179688 51.722656 48.332031 52.050781 C 48.613281 52.65625 49.054688 53.125 49.640625 53.449219 L 49.6875 53.472656 L 49.722656 53.511719 C 49.960938 53.746094 50.214844 53.9375 50.488281 54.078125 C 50.949219 54.320312 51.472656 54.449219 52.007812 54.449219 C 52.851562 54.449219 53.609375 54.136719 54.140625 53.578125 C 54.378906 53.328125 54.566406 53.027344 54.707031 52.683594 L 54.734375 52.621094 L 54.78125 52.570312 C 55.023438 52.3125 55.222656 52.027344 55.367188 51.722656 C 55.539062 51.359375 55.632812 50.984375 55.648438 50.59375 C 56.398438 50.015625 57.035156 49.1875 57.515625 48.542969 C 59.335938 46.117188 61.878906 42.019531 58.195312 39.941406 Z M 67.285156 75.886719 C 66.136719 75.925781 64.992188 75.96875 63.84375 76.007812 C 63.3125 76.027344 62.828125 76.230469 62.5 76.550781 C 62.496094 76.550781 62.492188 76.554688 62.492188 76.554688 C 62.480469 76.566406 62.46875 76.578125 62.460938 76.585938 C 62.214844 76.828125 62.058594 77.148438 62.058594 77.5625 L 62.058594 91.363281 C 62.175781 91.328125 62.300781 91.308594 62.429688 91.308594 L 66.722656 91.308594 C 67.164062 91.308594 67.574219 91.53125 67.8125 91.90625 L 69.292969 94.214844 C 69.300781 94.15625 69.304688 94.09375 69.304688 94.03125 L 69.304688 77.765625 C 69.304688 77.351562 69.148438 77.027344 68.898438 76.785156 C 68.609375 76.261719 67.988281 75.863281 67.285156 75.886719 Z M 79.492188 52.035156 L 86.046875 52.035156 C 86.730469 52.035156 86.917969 51.695312 86.96875 51.492188 C 87.105469 50.949219 86.535156 50.320312 86.191406 50.132812 C 86.09375 50.082031 85.976562 50.054688 85.832031 50.054688 C 85.730469 50.054688 85.628906 50.066406 85.539062 50.078125 C 85.472656 50.085938 85.40625 50.09375 85.351562 50.09375 C 84.96875 50.039062 84.535156 50.011719 84.027344 50.011719 C 83.582031 50.011719 83.125 50.03125 82.683594 50.050781 C 82.25 50.070312 81.839844 50.089844 81.441406 50.089844 L 77.269531 50.089844 C 77.15625 50.089844 76.964844 50.070312 76.765625 50.050781 C 76.484375 50.019531 76.164062 49.984375 75.875 49.984375 C 75.523438 49.984375 75.277344 50.035156 75.09375 50.140625 C 74.890625 50.257812 74.273438 50.613281 74.410156 51.132812 C 74.496094 51.449219 74.652344 52.039062 78.96875 52.039062 C 79.191406 52.039062 79.371094 52.035156 79.492188 52.035156 Z M 73.324219 61.585938 C 72.671875 61.15625 71.859375 60.859375 71.140625 60.519531 C 70.554688 60.242188 69.792969 60.265625 69.238281 60.574219 C 69.03125 60.640625 68.832031 60.738281 68.640625 60.886719 C 66.605469 62.4375 65.0625 64.355469 64.058594 66.519531 C 62.957031 68.902344 62.855469 71.414062 62.902344 73.949219 C 62.921875 74.9375 63.753906 75.417969 64.609375 75.417969 C 64.773438 75.511719 64.96875 75.59375 65.199219 75.65625 C 66.152344 75.914062 67.996094 76.042969 68.882812 75.550781 C 70.132812 74.847656 69.828125 73.457031 69.933594 72.359375 C 70.210938 69.449219 71.429688 66.683594 73.269531 64.242188 C 73.628906 64.027344 73.910156 63.710938 74.03125 63.359375 C 74.269531 62.679688 73.960938 62.007812 73.324219 61.585938 Z M 87.308594 76.554688 C 87.304688 76.554688 87.300781 76.550781 87.300781 76.550781 C 86.96875 76.230469 86.484375 76.027344 85.953125 76.007812 C 84.808594 75.96875 83.660156 75.925781 82.515625 75.886719 C 81.808594 75.863281 81.1875 76.261719 80.902344 76.785156 C 80.652344 77.027344 80.492188 77.351562 80.492188 77.765625 L 80.492188 94.03125 C 80.492188 94.277344 80.550781 94.492188 80.648438 94.675781 C 80.679688 94.554688 80.734375 94.441406 80.800781 94.339844 L 82.359375 91.90625 C 82.601562 91.53125 83.011719 91.308594 83.453125 91.308594 L 87.742188 91.308594 L 87.742188 77.5625 C 87.742188 77.148438 87.582031 76.828125 87.339844 76.585938 C 87.328125 76.578125 87.316406 76.566406 87.308594 76.554688 Z M 104.957031 46.910156 C 104.511719 46.550781 103.792969 46.023438 103.148438 45.410156 C 102.070312 45.867188 100.980469 46.273438 99.84375 46.679688 C 99.761719 46.710938 99.683594 46.746094 99.609375 46.785156 C 99.148438 46.570312 98.636719 46.457031 98.085938 46.457031 C 97.785156 46.457031 97.472656 46.492188 97.15625 46.554688 C 96.984375 46.589844 96.765625 46.644531 96.523438 46.730469 C 96.277344 46.390625 96.039062 46.050781 95.808594 45.710938 C 94.859375 44.191406 94.085938 42.585938 93.730469 40.789062 C 93.578125 40.015625 93.019531 39.714844 92.445312 39.75 C 92.179688 39.722656 91.894531 39.773438 91.601562 39.941406 C 87.917969 42.019531 90.460938 46.117188 92.28125 48.542969 C 92.761719 49.1875 93.398438 50.015625 94.148438 50.59375 C 94.164062 50.984375 94.257812 51.359375 94.429688 51.722656 C 94.578125 52.027344 94.773438 52.3125 95.015625 52.570312 L 95.0625 52.621094 L 95.089844 52.683594 C 95.230469 53.027344 95.421875 53.328125 95.65625 53.578125 C 96.1875 54.136719 96.949219 54.449219 97.789062 54.449219 C 98.324219 54.449219 98.851562 54.320312 99.3125 54.078125 C 99.582031 53.9375 99.839844 53.746094 100.074219 53.511719 L 100.109375 53.472656 L 100.15625 53.449219 C 100.742188 53.125 101.183594 52.65625 101.464844 52.050781 C 101.617188 51.722656 101.714844 51.363281 101.761719 50.988281 C 102.597656 50.644531 103.390625 50.285156 104.191406 49.757812 C 104.976562 49.234375 105.726562 48.664062 106.441406 48.046875 C 105.9375 47.679688 105.445312 47.300781 104.957031 46.910156 Z M 79.71875 28.527344 L 79.71875 26.675781 C 79.71875 26.210938 79 26.210938 79 26.675781 L 79 28.527344 C 79 28.988281 79.71875 28.988281 79.71875 28.527344 Z M 81.152344 49.773438 L 86.046875 49.773438 C 86.796875 49.773438 87 49.460938 87.035156 49.199219 C 87.121094 48.574219 86.160156 47.957031 85.75 47.839844 C 85.519531 47.777344 85.234375 47.746094 84.878906 47.746094 C 84.570312 47.746094 84.253906 47.769531 83.949219 47.789062 C 83.6875 47.808594 83.4375 47.828125 83.230469 47.828125 C 82.988281 47.828125 82.601562 47.789062 82.148438 47.746094 C 81.527344 47.683594 80.816406 47.613281 80.183594 47.613281 C 79.488281 47.613281 79.019531 47.699219 78.707031 47.878906 C 78.453125 48.027344 77.769531 48.425781 77.917969 48.972656 C 78.027344 49.390625 78.5 49.773438 81.152344 49.773438 Z M 77.679688 28.613281 L 77.679688 26.585938 C 77.679688 26.125 76.960938 26.125 76.960938 26.585938 L 76.960938 28.613281 C 76.960938 29.078125 77.679688 29.078125 77.679688 28.613281 Z M 81.691406 28.496094 L 81.691406 26.707031 C 81.691406 26.246094 80.972656 26.246094 80.972656 26.707031 L 80.972656 28.496094 C 80.972656 28.957031 81.691406 28.957031 81.691406 28.496094 Z M 82.3125 18.875 C 82.953125 18.875 83.472656 18.355469 83.472656 17.714844 C 83.472656 17.070312 82.953125 16.550781 82.3125 16.550781 C 81.671875 16.550781 81.152344 17.070312 81.152344 17.714844 C 81.152344 18.355469 81.671875 18.875 82.3125 18.875 Z M 69.078125 28.429688 L 69.078125 26.769531 C 69.078125 26.308594 68.359375 26.308594 68.359375 26.769531 L 68.359375 28.429688 C 68.359375 28.894531 69.078125 28.894531 69.078125 28.429688 Z M 70.527344 26.707031 L 70.527344 28.496094 C 70.527344 28.957031 71.242188 28.957031 71.242188 28.496094 L 71.242188 26.707031 C 71.242188 26.246094 70.527344 26.246094 70.527344 26.707031 Z M 68.332031 49.777344 C 68.550781 49.777344 68.734375 49.773438 68.855469 49.773438 L 75.410156 49.773438 C 76.089844 49.773438 76.277344 49.433594 76.328125 49.230469 C 76.464844 48.6875 75.894531 48.058594 75.550781 47.875 C 75.453125 47.820312 75.335938 47.792969 75.191406 47.792969 C 75.09375 47.792969 74.988281 47.804688 74.898438 47.816406 C 74.835938 47.824219 74.765625 47.832031 74.714844 47.832031 C 74.714844 47.832031 74.710938 47.832031 74.710938 47.832031 C 74.328125 47.777344 73.894531 47.75 73.390625 47.75 C 72.941406 47.75 72.484375 47.769531 72.042969 47.789062 C 71.609375 47.808594 71.199219 47.828125 70.804688 47.828125 L 66.628906 47.828125 C 66.515625 47.828125 66.328125 47.808594 66.128906 47.789062 C 65.847656 47.757812 65.527344 47.726562 65.234375 47.726562 C 64.886719 47.726562 64.636719 47.773438 64.457031 47.878906 C 64.253906 47.996094 63.632812 48.351562 63.773438 48.875 C 63.855469 49.1875 64.015625 49.777344 68.332031 49.777344 Z M 70.457031 18.875 C 71.097656 18.875 71.617188 18.355469 71.617188 17.714844 C 71.617188 17.070312 71.097656 16.550781 70.457031 16.550781 C 69.816406 16.550781 69.292969 17.070312 69.292969 17.714844 C 69.292969 18.355469 69.816406 18.875 70.457031 18.875 Z M 73.410156 28.527344 L 73.410156 26.675781 C 73.410156 26.210938 72.695312 26.210938 72.695312 26.675781 L 72.695312 28.527344 C 72.695312 28.988281 73.410156 28.988281 73.410156 28.527344 Z M 75.050781 28.617188 L 75.050781 26.585938 C 75.050781 26.125 75.765625 26.125 75.765625 26.585938 L 75.765625 28.617188 C 75.765625 29.078125 75.050781 29.078125 75.050781 28.617188 " fill-opacity="1" fill-rule="nonzero"/><path fill="#d9d9d9" d="M 68.9375 31.945312 C 68.964844 32.511719 69.066406 33.054688 69.382812 33.472656 C 73.144531 33.472656 76.90625 33.472656 80.664062 33.472656 C 80.929688 33.132812 81.0625 32.695312 81.125 32.203125 C 80.890625 32.1875 80.71875 32.171875 80.644531 32.171875 C 76.84375 32.171875 72.816406 31.785156 68.9375 31.945312 Z M 88.609375 15.628906 C 88.394531 15.554688 88.175781 15.5 87.957031 15.464844 C 87.957031 15.46875 87.957031 15.46875 87.957031 15.472656 C 87.957031 18.617188 87.957031 21.757812 87.957031 24.902344 C 88.996094 24.652344 89.972656 24.082031 90.683594 23.210938 C 92.738281 20.699219 91.753906 16.699219 88.609375 15.628906 Z M 61.714844 15.515625 C 58.902344 16.226562 57.007812 20.097656 58.390625 22.691406 C 59.132812 24.085938 60.441406 24.839844 61.839844 25.011719 C 61.597656 21.875 61.359375 18.273438 61.714844 15.515625 Z M 55.917969 49.304688 C 55.765625 47.539062 54.347656 46.523438 52.71875 46.1875 C 51.636719 45.96875 50.601562 46.09375 49.734375 46.601562 C 49.808594 46.625 49.878906 46.652344 49.953125 46.679688 C 51.601562 47.273438 51.757812 49.433594 50.929688 50.785156 C 50.597656 51.332031 50.078125 51.515625 49.585938 51.457031 C 49.390625 51.476562 49.175781 51.449219 48.9375 51.355469 C 48.492188 51.175781 48.0625 51.003906 47.640625 50.824219 C 47.675781 51.300781 47.792969 51.773438 47.996094 52.210938 C 48.328125 52.921875 48.84375 53.4375 49.460938 53.777344 C 49.714844 54.027344 49.996094 54.242188 50.3125 54.410156 C 51.628906 55.097656 53.367188 54.933594 54.410156 53.835938 C 54.691406 53.539062 54.902344 53.195312 55.050781 52.824219 C 55.3125 52.546875 55.535156 52.234375 55.703125 51.882812 C 56.050781 51.160156 56.097656 50.402344 55.929688 49.691406 C 55.933594 49.5625 55.929688 49.433594 55.917969 49.304688 Z M 100.859375 51.355469 C 100.625 51.449219 100.40625 51.476562 100.210938 51.457031 C 99.71875 51.515625 99.203125 51.332031 98.867188 50.785156 C 98.039062 49.433594 98.195312 47.273438 99.84375 46.679688 C 99.917969 46.652344 99.992188 46.625 100.066406 46.601562 C 99.195312 46.09375 98.164062 45.96875 97.082031 46.1875 C 95.449219 46.523438 94.035156 47.539062 93.878906 49.304688 C 93.867188 49.433594 93.867188 49.5625 93.867188 49.691406 C 93.699219 50.402344 93.746094 51.160156 94.09375 51.882812 C 94.261719 52.234375 94.484375 52.546875 94.746094 52.824219 C 94.894531 53.195312 95.105469 53.539062 95.386719 53.835938 C 96.429688 54.933594 98.167969 55.097656 99.484375 54.410156 C 99.800781 54.242188 100.085938 54.027344 100.335938 53.777344 C 100.953125 53.4375 101.472656 52.921875 101.800781 52.210938 C 102.007812 51.773438 102.121094 51.300781 102.15625 50.824219 C 101.734375 51.003906 101.304688 51.175781 100.859375 51.355469 Z M 69.667969 17.710938 C 69.667969 18.148438 70.019531 18.503906 70.457031 18.503906 C 70.890625 18.503906 71.242188 18.148438 71.242188 17.710938 C 71.242188 17.277344 70.890625 16.921875 70.457031 16.921875 C 70.019531 16.921875 69.667969 17.277344 69.667969 17.710938 Z M 64.726562 20.394531 C 64.140625 18.664062 64.367188 16.265625 66.035156 15.53125 C 66.417969 15.128906 66.90625 14.839844 67.511719 14.722656 C 69.5625 14.324219 71.953125 15.980469 72.75 17.816406 C 73.710938 20.035156 72.300781 22.375 70.109375 23.074219 C 67.695312 23.839844 65.53125 22.753906 64.726562 20.394531 Z M 81.523438 17.710938 C 81.523438 18.148438 81.878906 18.503906 82.3125 18.503906 C 82.75 18.503906 83.101562 18.148438 83.101562 17.710938 C 83.101562 17.277344 82.75 16.921875 82.3125 16.921875 C 81.878906 16.921875 81.523438 17.277344 81.523438 17.710938 Z M 76.984375 19.136719 C 76.902344 18.726562 76.867188 18.316406 76.894531 17.925781 C 77.050781 15.246094 79.414062 14.171875 81.597656 14.671875 C 82.445312 14.667969 83.28125 14.835938 84.046875 15.308594 C 86.5625 16.863281 85.980469 19.894531 84.21875 21.71875 C 83.792969 22.304688 83.238281 22.792969 82.578125 23.09375 C 81.300781 23.679688 80.085938 23.390625 79.109375 22.648438 C 77.90625 21.949219 77.046875 20.636719 76.984375 19.136719 Z M 85.15625 61.46875 C 85.183594 60.777344 84.609375 60.347656 83.875 60.171875 C 83.625 59.988281 83.261719 59.855469 82.761719 59.808594 C 80.027344 59.550781 77.449219 59.71875 74.730469 59.980469 C 72.03125 60.242188 69.347656 60.503906 66.691406 59.957031 C 64.980469 59.601562 63.914062 60.667969 64.105469 61.597656 C 64.054688 61.792969 64.066406 62.007812 64.160156 62.242188 C 65.582031 65.773438 69.136719 69.363281 75.214844 69.027344 C 80.972656 68.710938 85 65.25 85.15625 61.46875 Z M 70.773438 75.703125 C 70.578125 73.828125 68.820312 72.75 66.789062 72.394531 C 64.898438 72.066406 63.121094 72.460938 61.871094 73.6875 C 61.460938 73.84375 61.128906 74.160156 61 74.664062 C 60.96875 74.773438 60.945312 74.886719 60.929688 74.996094 C 60.339844 76.195312 60.273438 77.605469 60.917969 78.785156 C 61.332031 79.542969 61.976562 80.085938 62.742188 80.449219 C 63.054688 80.714844 63.40625 80.945312 63.800781 81.121094 C 65.4375 81.851562 67.597656 81.675781 68.898438 80.511719 C 69.246094 80.195312 69.507812 79.832031 69.695312 79.4375 C 70.019531 79.144531 70.292969 78.8125 70.503906 78.441406 C 70.9375 77.667969 70.996094 76.867188 70.785156 76.113281 C 70.789062 75.976562 70.785156 75.839844 70.773438 75.703125 Z M 88.871094 74.996094 C 89.457031 76.195312 89.523438 77.605469 88.878906 78.785156 C 88.46875 79.542969 87.824219 80.085938 87.058594 80.449219 C 86.742188 80.714844 86.390625 80.945312 85.996094 81.121094 C 84.359375 81.851562 82.199219 81.675781 80.902344 80.511719 C 80.554688 80.195312 80.289062 79.832031 80.105469 79.4375 C 79.78125 79.144531 79.503906 78.8125 79.296875 78.441406 C 78.863281 77.667969 78.804688 76.867188 79.011719 76.113281 C 79.011719 75.976562 79.011719 75.839844 79.027344 75.703125 C 79.21875 73.828125 80.980469 72.75 83.007812 72.394531 C 84.902344 72.066406 86.679688 72.460938 87.925781 73.6875 C 88.339844 73.84375 88.671875 74.160156 88.800781 74.664062 C 88.828125 74.773438 88.851562 74.886719 88.871094 74.996094 " fill-opacity="1" fill-rule="nonzero"/><path fill="#ef3220" d="M 64.640625 50.464844 C 65.46875 49.984375 68.0625 50.464844 68.980469 50.464844 C 69.667969 50.464844 70.730469 50.277344 71.398438 50.464844 C 71.929688 50.613281 73.15625 51.660156 71.792969 51.660156 C 70.265625 51.660156 68.738281 51.660156 67.210938 51.660156 C 66.738281 51.660156 62.4375 51.746094 64.640625 50.464844 Z M 64.640625 48.203125 C 65.046875 47.96875 66.171875 48.203125 66.628906 48.203125 C 68.023438 48.203125 69.414062 48.203125 70.804688 48.203125 C 72.035156 48.203125 73.4375 48.023438 74.660156 48.203125 C 74.839844 48.226562 75.210938 48.113281 75.375 48.203125 C 75.746094 48.402344 76.503906 49.398438 75.410156 49.398438 C 73.269531 49.398438 71.128906 49.398438 68.992188 49.398438 C 68.46875 49.398438 62.339844 49.53125 64.640625 48.203125 Z M 81.441406 50.464844 C 82.675781 50.464844 84.074219 50.285156 85.296875 50.464844 C 85.480469 50.488281 85.851562 50.375 86.015625 50.464844 C 86.386719 50.664062 87.140625 51.660156 86.046875 51.660156 C 83.90625 51.660156 81.769531 51.660156 79.628906 51.660156 C 79.109375 51.660156 72.976562 51.792969 75.28125 50.464844 C 75.683594 50.230469 76.8125 50.464844 77.269531 50.464844 C 78.660156 50.464844 80.050781 50.464844 81.441406 50.464844 Z M 78.894531 48.203125 C 79.71875 47.722656 82.316406 48.203125 83.230469 48.203125 C 83.921875 48.203125 84.980469 48.015625 85.652344 48.203125 C 86.183594 48.351562 87.40625 49.398438 86.046875 49.398438 C 84.519531 49.398438 82.992188 49.398438 81.464844 49.398438 C 80.992188 49.398438 76.691406 49.484375 78.894531 48.203125 Z M 90.027344 54.53125 C 90.027344 49.074219 90.027344 43.613281 90.027344 38.15625 C 90.03125 33.144531 88.976562 33.472656 84.839844 33.472656 C 79.476562 33.472656 74.109375 33.472656 68.746094 33.472656 C 65.566406 33.472656 61.390625 32.050781 60.152344 35.925781 C 58.703125 40.457031 59.953125 49.25 60.152344 54.027344 C 60.269531 56.84375 60.6875 57.675781 61.753906 57.792969 C 61.753906 58.511719 61.753906 59.230469 61.753906 59.949219 C 61.75 61.6875 62.648438 61.574219 66.164062 61.574219 C 70.726562 61.574219 75.285156 61.574219 79.84375 61.574219 C 82.550781 61.574219 86.097656 62.066406 87.152344 60.722656 C 87.847656 59.839844 87.8125 58.492188 87.621094 57.183594 C 89.015625 56.78125 90.082031 56 90.027344 54.53125 " fill-opacity="1" fill-rule="nonzero"/><path fill="#110f0d" d="M 95.667969 20.226562 C 95.667969 20.484375 95.460938 20.695312 95.203125 20.695312 L 91.734375 20.695312 C 91.765625 20.382812 91.769531 20.070312 91.746094 19.761719 L 95.203125 19.761719 C 95.460938 19.761719 95.667969 19.96875 95.667969 20.226562 Z M 54.132812 19.761719 L 58.027344 19.761719 C 57.96875 20.070312 57.933594 20.382812 57.929688 20.695312 L 54.132812 20.695312 C 53.875 20.695312 53.664062 20.484375 53.664062 20.226562 C 53.664062 19.96875 53.875 19.761719 54.132812 19.761719 Z M 88.207031 57.808594 C 88.207031 58.066406 87.996094 58.277344 87.742188 58.277344 L 61.753906 58.277344 C 61.496094 58.277344 61.285156 58.066406 61.285156 57.808594 C 61.285156 57.550781 61.496094 57.34375 61.753906 57.34375 L 87.742188 57.34375 C 87.996094 57.34375 88.207031 57.550781 88.207031 57.808594 Z M 78.738281 15.960938 C 78.792969 15.933594 78.84375 15.898438 78.886719 15.855469 C 79.222656 15.5 79.636719 15.273438 80.113281 15.179688 C 80.296875 15.144531 80.480469 15.128906 80.667969 15.128906 C 82.375 15.128906 84.199219 16.535156 84.835938 18.003906 C 85.199219 18.84375 85.191406 19.765625 84.8125 20.597656 C 84.382812 21.542969 83.515625 22.300781 82.484375 22.628906 C 80.332031 23.3125 78.402344 22.355469 77.683594 20.242188 C 77.140625 18.644531 77.386719 16.554688 78.738281 15.960938 Z M 81.140625 23.78125 C 81.664062 23.78125 82.210938 23.695312 82.765625 23.519531 C 84.0625 23.109375 85.117188 22.183594 85.660156 20.984375 C 86.148438 19.90625 86.160156 18.714844 85.691406 17.632812 C 84.84375 15.675781 82.269531 13.808594 79.9375 14.261719 C 79.296875 14.386719 78.738281 14.683594 78.277344 15.144531 C 76.492188 16.003906 76.121094 18.542969 76.800781 20.542969 C 77.5 22.589844 79.171875 23.78125 81.140625 23.78125 Z M 66.222656 15.960938 C 66.277344 15.933594 66.328125 15.898438 66.371094 15.855469 C 66.710938 15.5 67.121094 15.273438 67.597656 15.179688 C 67.78125 15.144531 67.964844 15.128906 68.152344 15.128906 C 69.859375 15.128906 71.683594 16.535156 72.320312 18.003906 C 72.683594 18.84375 72.675781 19.765625 72.296875 20.597656 C 71.867188 21.542969 71 22.300781 69.96875 22.628906 C 67.816406 23.3125 65.886719 22.355469 65.167969 20.242188 C 64.625 18.644531 64.875 16.554688 66.222656 15.960938 Z M 68.625 23.78125 C 69.152344 23.78125 69.695312 23.695312 70.25 23.519531 C 71.546875 23.109375 72.601562 22.183594 73.144531 20.984375 C 73.636719 19.90625 73.644531 18.714844 73.175781 17.632812 C 72.328125 15.675781 69.757812 13.808594 67.421875 14.261719 C 66.78125 14.386719 66.222656 14.683594 65.761719 15.144531 C 63.976562 16.003906 63.605469 18.542969 64.289062 20.542969 C 64.984375 22.589844 66.65625 23.78125 68.625 23.78125 Z M 65.109375 37.664062 L 85.582031 37.664062 L 85.582031 45.046875 L 65.109375 45.046875 Z M 64.175781 37.199219 L 64.175781 45.515625 C 64.175781 45.773438 64.386719 45.980469 64.640625 45.980469 L 86.046875 45.980469 C 86.304688 45.980469 86.511719 45.773438 86.511719 45.515625 L 86.511719 37.199219 C 86.511719 36.941406 86.304688 36.730469 86.046875 36.730469 L 64.640625 36.730469 C 64.386719 36.730469 64.175781 36.941406 64.175781 37.199219 " fill-opacity="1" fill-rule="nonzero"/></svg>