<svg xmlns="http://www.w3.org/2000/svg" xmlns:xlink="http://www.w3.org/1999/xlink" width="128" zoomAndPan="magnify" viewBox="0 0 96 95.999999" height="128" preserveAspectRatio="xMidYMid meet" version="1.0"><defs><clipPath id="073eb058ae"><path d="M 9.601562 41.085938 L 86.101562 41.085938 L 86.101562 74.386719 L 9.601562 74.386719 Z M 9.601562 41.085938 " clip-rule="nonzero"/></clipPath><clipPath id="a2ae25605a"><path d="M 9.601562 40 L 86.101562 40 L 86.101562 74 L 9.601562 74 Z M 9.601562 40 " clip-rule="nonzero"/></clipPath><clipPath id="77c2e0a5fe"><path d="M 9.601562 39 L 86.101562 39 L 86.101562 69 L 9.601562 69 Z M 9.601562 39 " clip-rule="nonzero"/></clipPath><clipPath id="d51808d683"><path d="M 9.601562 22 L 86.101562 22 L 86.101562 67 L 9.601562 67 Z M 9.601562 22 " clip-rule="nonzero"/></clipPath></defs><g clip-path="url(#073eb058ae)"><path fill="#2a2d86" d="M 86.101562 41.160156 L 86.101562 46.960938 C 86.101562 47.722656 85.546875 48.527344 84.464844 49.160156 L 42.789062 73.441406 C 40.820312 74.589844 37.835938 74.714844 36.125 73.722656 L 10.753906 58.9375 C 9.980469 58.488281 9.601562 57.882812 9.601562 57.246094 L 9.601562 51.445312 C 9.601562 51.753906 9.6875 52.058594 9.875 52.339844 C 10.070312 52.632812 10.359375 52.902344 10.753906 53.132812 L 36.125 67.914062 C 37.835938 68.910156 40.820312 68.785156 42.789062 67.636719 L 84.464844 43.355469 C 85.105469 42.976562 85.5625 42.542969 85.824219 42.09375 C 86.011719 41.785156 86.101562 41.46875 86.101562 41.160156 " fill-opacity="1" fill-rule="nonzero"/></g><g clip-path="url(#a2ae25605a)"><path fill="#486cbd" d="M 86.101562 40.183594 L 86.101562 45.988281 C 86.101562 46.746094 85.546875 47.554688 84.464844 48.183594 L 42.789062 72.464844 C 40.820312 73.613281 37.835938 73.738281 36.125 72.746094 L 10.753906 57.960938 C 9.980469 57.511719 9.601562 56.910156 9.601562 56.273438 L 9.601562 50.46875 C 9.601562 50.777344 9.6875 51.082031 9.875 51.363281 C 10.070312 51.65625 10.359375 51.929688 10.753906 52.160156 L 36.125 66.9375 C 37.835938 67.9375 40.820312 67.8125 42.789062 66.664062 L 84.464844 42.378906 C 85.105469 42.003906 85.5625 41.570312 85.824219 41.121094 C 86.011719 40.808594 86.101562 40.492188 86.101562 40.183594 " fill-opacity="1" fill-rule="nonzero"/></g><g clip-path="url(#77c2e0a5fe)"><path fill="#b4b2e0" d="M 86.101562 39.359375 L 86.101562 41.1875 C 86.101562 41.949219 85.546875 42.753906 84.464844 43.386719 L 42.789062 67.667969 C 40.820312 68.816406 37.835938 68.941406 36.125 67.949219 L 10.753906 53.164062 C 9.980469 52.714844 9.601562 52.109375 9.601562 51.472656 L 9.601562 49.644531 C 9.601562 49.953125 9.6875 50.257812 9.875 50.539062 C 10.070312 50.832031 10.359375 51.101562 10.753906 51.332031 L 36.125 66.113281 C 37.835938 67.109375 40.820312 66.984375 42.789062 65.835938 L 84.464844 41.554688 C 85.105469 41.175781 85.5625 40.742188 85.824219 40.292969 C 86.011719 39.984375 86.101562 39.667969 86.101562 39.359375 " fill-opacity="1" fill-rule="nonzero"/></g><g clip-path="url(#d51808d683)"><path fill="#deddf2" d="M 86.101562 39.359375 C 86.101562 39.667969 86.011719 39.984375 85.824219 40.292969 C 85.5625 40.742188 85.105469 41.175781 84.464844 41.554688 L 42.789062 65.835938 C 40.820312 66.984375 37.835938 67.109375 36.125 66.113281 L 10.753906 51.332031 C 10.359375 51.101562 10.070312 50.832031 9.875 50.539062 C 9.6875 50.257812 9.601562 49.953125 9.601562 49.644531 C 9.601562 48.882812 10.152344 48.078125 11.234375 47.445312 L 52.910156 23.164062 C 54.878906 22.015625 57.867188 21.890625 59.574219 22.882812 L 84.945312 37.667969 C 85.71875 38.117188 86.101562 38.726562 86.101562 39.359375 " fill-opacity="1" fill-rule="nonzero"/></g><path fill="#b4b2e0" d="M 55.109375 26.808594 C 54.242188 26.304688 54.242188 25.484375 55.109375 24.980469 C 55.972656 24.476562 57.375 24.476562 58.242188 24.980469 C 57.785156 24.714844 56.707031 24.90625 55.84375 25.410156 C 54.980469 25.914062 54.648438 26.542969 55.109375 26.808594 " fill-opacity="1" fill-rule="nonzero"/><path fill="#b4b2e0" d="M 58.242188 26.808594 C 57.375 27.3125 55.972656 27.3125 55.109375 26.808594 C 55.566406 27.074219 56.640625 26.882812 57.503906 26.378906 C 58.371094 25.875 58.699219 25.25 58.242188 24.980469 C 59.105469 25.484375 59.105469 26.304688 58.242188 26.808594 " fill-opacity="1" fill-rule="nonzero"/><path fill="#b4b2e0" d="M 60.882812 30.171875 C 60.019531 29.667969 60.019531 28.851562 60.882812 28.347656 C 61.75 27.84375 63.152344 27.84375 64.019531 28.347656 C 63.5625 28.082031 62.484375 28.273438 61.621094 28.777344 C 60.757812 29.28125 60.425781 29.90625 60.882812 30.171875 " fill-opacity="1" fill-rule="nonzero"/><path fill="#b4b2e0" d="M 64.019531 30.171875 C 63.152344 30.675781 61.75 30.679688 60.882812 30.171875 C 61.34375 30.441406 62.417969 30.246094 63.28125 29.746094 C 64.144531 29.242188 64.476562 28.613281 64.019531 28.347656 C 64.882812 28.851562 64.882812 29.667969 64.019531 30.171875 " fill-opacity="1" fill-rule="nonzero"/><path fill="#b4b2e0" d="M 66.660156 33.539062 C 65.796875 33.035156 65.796875 32.21875 66.660156 31.714844 C 67.527344 31.210938 68.929688 31.207031 69.796875 31.714844 C 69.339844 31.445312 68.261719 31.640625 67.398438 32.140625 C 66.535156 32.644531 66.203125 33.273438 66.660156 33.539062 " fill-opacity="1" fill-rule="nonzero"/><path fill="#b4b2e0" d="M 69.792969 33.539062 C 68.929688 34.042969 67.527344 34.042969 66.660156 33.539062 C 67.121094 33.808594 68.195312 33.613281 69.058594 33.109375 C 69.921875 32.605469 70.253906 31.980469 69.796875 31.714844 C 70.660156 32.21875 70.660156 33.035156 69.792969 33.539062 " fill-opacity="1" fill-rule="nonzero"/><path fill="#b4b2e0" d="M 72.4375 36.90625 C 71.570312 36.402344 71.574219 35.582031 72.4375 35.078125 C 73.300781 34.574219 74.707031 34.574219 75.574219 35.078125 C 75.113281 34.8125 74.039062 35.003906 73.175781 35.507812 C 72.308594 36.011719 71.980469 36.640625 72.4375 36.90625 " fill-opacity="1" fill-rule="nonzero"/><path fill="#b4b2e0" d="M 75.570312 36.90625 C 74.707031 37.410156 73.300781 37.410156 72.4375 36.90625 C 72.898438 37.171875 73.96875 36.980469 74.835938 36.476562 C 75.699219 35.972656 76.03125 35.347656 75.574219 35.078125 C 76.4375 35.582031 76.433594 36.402344 75.570312 36.90625 " fill-opacity="1" fill-rule="nonzero"/><path fill="#b4b2e0" d="M 78.214844 40.273438 C 77.347656 39.765625 77.351562 38.949219 78.214844 38.445312 C 79.078125 37.941406 80.484375 37.941406 81.351562 38.445312 C 80.890625 38.179688 79.816406 38.371094 78.949219 38.875 C 78.085938 39.378906 77.757812 40.003906 78.214844 40.273438 " fill-opacity="1" fill-rule="nonzero"/><path fill="#b4b2e0" d="M 81.347656 40.269531 C 80.484375 40.773438 79.078125 40.777344 78.214844 40.273438 C 78.671875 40.539062 79.746094 40.347656 80.613281 39.84375 C 81.476562 39.339844 81.808594 38.710938 81.351562 38.445312 C 82.214844 38.949219 82.210938 39.765625 81.347656 40.269531 " fill-opacity="1" fill-rule="nonzero"/><path fill="#b4b2e0" d="M 49.285156 30.199219 C 48.417969 29.695312 48.421875 28.878906 49.285156 28.375 C 50.148438 27.871094 51.554688 27.867188 52.421875 28.375 C 51.960938 28.105469 50.886719 28.300781 50.023438 28.800781 C 49.15625 29.304688 48.828125 29.933594 49.285156 30.199219 " fill-opacity="1" fill-rule="nonzero"/><path fill="#b4b2e0" d="M 52.417969 30.199219 C 51.554688 30.703125 50.148438 30.703125 49.285156 30.199219 C 49.742188 30.46875 50.816406 30.273438 51.683594 29.769531 C 52.546875 29.265625 52.878906 28.640625 52.421875 28.375 C 53.285156 28.878906 53.285156 29.695312 52.417969 30.199219 " fill-opacity="1" fill-rule="nonzero"/><path fill="#b4b2e0" d="M 55.0625 33.566406 C 54.195312 33.0625 54.199219 32.242188 55.0625 31.738281 C 55.925781 31.238281 57.332031 31.234375 58.199219 31.738281 C 57.738281 31.472656 56.664062 31.664062 55.796875 32.167969 C 54.933594 32.671875 54.605469 33.300781 55.0625 33.566406 " fill-opacity="1" fill-rule="nonzero"/><path fill="#b4b2e0" d="M 58.195312 33.566406 C 57.332031 34.070312 55.925781 34.070312 55.0625 33.566406 C 55.519531 33.832031 56.59375 33.640625 57.457031 33.136719 C 58.324219 32.632812 58.65625 32.007812 58.199219 31.738281 C 59.0625 32.242188 59.058594 33.0625 58.195312 33.566406 " fill-opacity="1" fill-rule="nonzero"/><path fill="#b4b2e0" d="M 60.839844 36.933594 C 59.972656 36.425781 59.976562 35.609375 60.839844 35.105469 C 61.703125 34.601562 63.105469 34.601562 63.972656 35.105469 C 63.515625 34.839844 62.441406 35.03125 61.574219 35.535156 C 60.710938 36.039062 60.382812 36.664062 60.839844 36.933594 " fill-opacity="1" fill-rule="nonzero"/><path fill="#b4b2e0" d="M 63.972656 36.929688 C 63.105469 37.433594 61.703125 37.4375 60.839844 36.933594 C 61.296875 37.199219 62.371094 37.007812 63.234375 36.503906 C 64.101562 36 64.433594 35.375 63.972656 35.105469 C 64.839844 35.609375 64.835938 36.425781 63.972656 36.929688 " fill-opacity="1" fill-rule="nonzero"/><path fill="#b4b2e0" d="M 66.617188 40.296875 C 65.75 39.792969 65.75 38.976562 66.617188 38.472656 C 67.480469 37.96875 68.882812 37.964844 69.75 38.472656 C 69.292969 38.207031 68.214844 38.398438 67.351562 38.902344 C 66.488281 39.40625 66.15625 40.03125 66.617188 40.296875 " fill-opacity="1" fill-rule="nonzero"/><path fill="#b4b2e0" d="M 69.75 40.296875 C 68.882812 40.800781 67.480469 40.800781 66.617188 40.296875 C 67.074219 40.566406 68.148438 40.371094 69.011719 39.867188 C 69.875 39.363281 70.207031 38.738281 69.75 38.472656 C 70.613281 38.976562 70.613281 39.792969 69.75 40.296875 " fill-opacity="1" fill-rule="nonzero"/><path fill="#b4b2e0" d="M 72.394531 43.664062 C 71.527344 43.160156 71.527344 42.339844 72.394531 41.839844 C 73.257812 41.335938 74.660156 41.332031 75.527344 41.839844 C 75.070312 41.570312 73.992188 41.761719 73.128906 42.265625 C 72.265625 42.769531 71.933594 43.398438 72.394531 43.664062 " fill-opacity="1" fill-rule="nonzero"/><path fill="#b4b2e0" d="M 75.523438 43.664062 C 74.660156 44.167969 73.257812 44.167969 72.394531 43.664062 C 72.851562 43.929688 73.925781 43.738281 74.789062 43.234375 C 75.652344 42.730469 75.984375 42.105469 75.527344 41.839844 C 76.390625 42.339844 76.390625 43.160156 75.523438 43.664062 " fill-opacity="1" fill-rule="nonzero"/><path fill="#b4b2e0" d="M 43.464844 33.59375 C 42.597656 33.089844 42.597656 32.269531 43.464844 31.765625 C 44.328125 31.261719 45.730469 31.261719 46.597656 31.765625 C 46.140625 31.5 45.0625 31.691406 44.199219 32.195312 C 43.335938 32.699219 43.003906 33.328125 43.464844 33.59375 " fill-opacity="1" fill-rule="nonzero"/><path fill="#b4b2e0" d="M 46.597656 33.589844 C 45.730469 34.097656 44.328125 34.097656 43.464844 33.59375 C 43.921875 33.859375 44.996094 33.667969 45.859375 33.164062 C 46.726562 32.660156 47.054688 32.035156 46.597656 31.765625 C 47.460938 32.269531 47.460938 33.089844 46.597656 33.589844 " fill-opacity="1" fill-rule="nonzero"/><path fill="#b4b2e0" d="M 49.242188 36.957031 C 48.375 36.453125 48.375 35.636719 49.242188 35.132812 C 50.105469 34.628906 51.507812 34.628906 52.375 35.132812 C 51.917969 34.867188 50.839844 35.058594 49.976562 35.5625 C 49.113281 36.066406 48.78125 36.691406 49.242188 36.957031 " fill-opacity="1" fill-rule="nonzero"/><path fill="#b4b2e0" d="M 52.371094 36.957031 C 51.507812 37.460938 50.105469 37.460938 49.242188 36.957031 C 49.699219 37.226562 50.773438 37.03125 51.636719 36.527344 C 52.5 36.023438 52.832031 35.398438 52.375 35.132812 C 53.238281 35.636719 53.238281 36.453125 52.371094 36.957031 " fill-opacity="1" fill-rule="nonzero"/><path fill="#b4b2e0" d="M 55.015625 40.324219 C 54.152344 39.820312 54.152344 39.003906 55.015625 38.5 C 55.882812 37.996094 57.285156 37.992188 58.152344 38.5 C 57.691406 38.230469 56.617188 38.425781 55.753906 38.925781 C 54.886719 39.429688 54.558594 40.058594 55.015625 40.324219 " fill-opacity="1" fill-rule="nonzero"/><path fill="#b4b2e0" d="M 58.148438 40.324219 C 57.285156 40.828125 55.882812 40.828125 55.015625 40.324219 C 55.476562 40.59375 56.550781 40.398438 57.414062 39.894531 C 58.277344 39.390625 58.609375 38.765625 58.152344 38.5 C 59.015625 39.003906 59.015625 39.820312 58.148438 40.324219 " fill-opacity="1" fill-rule="nonzero"/><path fill="#b4b2e0" d="M 60.792969 43.691406 C 59.925781 43.1875 59.929688 42.367188 60.792969 41.863281 C 61.660156 41.359375 63.0625 41.359375 63.929688 41.863281 C 63.46875 41.597656 62.394531 41.789062 61.53125 42.292969 C 60.664062 42.796875 60.335938 43.425781 60.792969 43.691406 " fill-opacity="1" fill-rule="nonzero"/><path fill="#b4b2e0" d="M 63.925781 43.691406 C 63.0625 44.195312 61.660156 44.195312 60.792969 43.691406 C 61.253906 43.957031 62.324219 43.765625 63.191406 43.261719 C 64.054688 42.757812 64.386719 42.132812 63.929688 41.863281 C 64.792969 42.367188 64.789062 43.1875 63.925781 43.691406 " fill-opacity="1" fill-rule="nonzero"/><path fill="#b4b2e0" d="M 66.570312 47.058594 C 65.703125 46.550781 65.707031 45.734375 66.570312 45.230469 C 67.433594 44.726562 68.839844 44.726562 69.707031 45.230469 C 69.246094 44.964844 68.171875 45.15625 67.304688 45.660156 C 66.441406 46.164062 66.113281 46.789062 66.570312 47.058594 " fill-opacity="1" fill-rule="nonzero"/><path fill="#b4b2e0" d="M 69.703125 47.054688 C 68.839844 47.558594 67.433594 47.5625 66.570312 47.058594 C 67.027344 47.324219 68.101562 47.132812 68.96875 46.628906 C 69.832031 46.125 70.164062 45.496094 69.707031 45.230469 C 70.570312 45.734375 70.566406 46.550781 69.703125 47.054688 " fill-opacity="1" fill-rule="nonzero"/><path fill="#b4b2e0" d="M 37.640625 36.984375 C 36.773438 36.480469 36.777344 35.664062 37.640625 35.160156 C 38.507812 34.65625 39.910156 34.652344 40.777344 35.160156 C 40.316406 34.894531 39.242188 35.085938 38.378906 35.589844 C 37.511719 36.089844 37.183594 36.71875 37.640625 36.984375 " fill-opacity="1" fill-rule="nonzero"/><path fill="#b4b2e0" d="M 40.773438 36.984375 C 39.910156 37.488281 38.507812 37.488281 37.640625 36.984375 C 38.101562 37.253906 39.171875 37.058594 40.039062 36.554688 C 40.902344 36.050781 41.234375 35.425781 40.777344 35.160156 C 41.640625 35.664062 41.636719 36.480469 40.773438 36.984375 " fill-opacity="1" fill-rule="nonzero"/><path fill="#b4b2e0" d="M 43.417969 40.351562 C 42.550781 39.847656 42.554688 39.027344 43.417969 38.523438 C 44.28125 38.023438 45.6875 38.019531 46.550781 38.523438 C 46.09375 38.257812 45.019531 38.449219 44.152344 38.953125 C 43.289062 39.457031 42.960938 40.085938 43.417969 40.351562 " fill-opacity="1" fill-rule="nonzero"/><path fill="#b4b2e0" d="M 46.550781 40.351562 C 45.6875 40.855469 44.28125 40.855469 43.417969 40.351562 C 43.875 40.617188 44.949219 40.425781 45.816406 39.921875 C 46.679688 39.417969 47.011719 38.792969 46.550781 38.523438 C 47.417969 39.027344 47.414062 39.847656 46.550781 40.351562 " fill-opacity="1" fill-rule="nonzero"/><path fill="#b4b2e0" d="M 49.195312 43.71875 C 48.328125 43.214844 48.332031 42.394531 49.195312 41.890625 C 50.058594 41.386719 51.464844 41.386719 52.328125 41.890625 C 51.871094 41.625 50.796875 41.816406 49.929688 42.320312 C 49.066406 42.824219 48.738281 43.449219 49.195312 43.71875 " fill-opacity="1" fill-rule="nonzero"/><path fill="#b4b2e0" d="M 52.328125 43.714844 C 51.464844 44.21875 50.058594 44.222656 49.195312 43.71875 C 49.652344 43.984375 50.726562 43.792969 51.589844 43.289062 C 52.457031 42.785156 52.789062 42.15625 52.328125 41.890625 C 53.195312 42.394531 53.191406 43.214844 52.328125 43.714844 " fill-opacity="1" fill-rule="nonzero"/><path fill="#b4b2e0" d="M 54.972656 47.082031 C 54.105469 46.578125 54.105469 45.761719 54.972656 45.257812 C 55.835938 44.753906 57.238281 44.753906 58.105469 45.257812 C 57.648438 44.992188 56.570312 45.183594 55.707031 45.6875 C 54.84375 46.1875 54.511719 46.816406 54.972656 47.082031 " fill-opacity="1" fill-rule="nonzero"/><path fill="#b4b2e0" d="M 58.105469 47.082031 C 57.238281 47.585938 55.835938 47.585938 54.972656 47.082031 C 55.429688 47.351562 56.503906 47.15625 57.367188 46.652344 C 58.234375 46.148438 58.5625 45.523438 58.105469 45.257812 C 58.96875 45.761719 58.96875 46.578125 58.105469 47.082031 " fill-opacity="1" fill-rule="nonzero"/><path fill="#b4b2e0" d="M 60.746094 50.449219 C 59.882812 49.945312 59.882812 49.125 60.746094 48.621094 C 61.613281 48.121094 63.015625 48.117188 63.882812 48.621094 C 63.425781 48.355469 62.347656 48.546875 61.484375 49.050781 C 60.621094 49.554688 60.289062 50.183594 60.746094 50.449219 " fill-opacity="1" fill-rule="nonzero"/><path fill="#b4b2e0" d="M 63.882812 50.449219 C 63.015625 50.953125 61.613281 50.953125 60.746094 50.449219 C 61.207031 50.714844 62.28125 50.523438 63.144531 50.019531 C 64.007812 49.515625 64.339844 48.890625 63.882812 48.621094 C 64.746094 49.125 64.746094 49.945312 63.882812 50.449219 " fill-opacity="1" fill-rule="nonzero"/><path fill="#b4b2e0" d="M 31.820312 40.378906 C 30.953125 39.875 30.953125 39.054688 31.820312 38.550781 C 32.683594 38.046875 34.085938 38.046875 34.953125 38.550781 C 34.496094 38.285156 33.417969 38.476562 32.554688 38.980469 C 31.691406 39.484375 31.359375 40.113281 31.820312 40.378906 " fill-opacity="1" fill-rule="nonzero"/><path fill="#b4b2e0" d="M 34.953125 40.375 C 34.085938 40.878906 32.683594 40.882812 31.820312 40.378906 C 32.277344 40.644531 33.351562 40.453125 34.214844 39.949219 C 35.082031 39.445312 35.414062 38.820312 34.953125 38.550781 C 35.816406 39.054688 35.816406 39.875 34.953125 40.375 " fill-opacity="1" fill-rule="nonzero"/><path fill="#b4b2e0" d="M 37.59375 43.742188 C 36.730469 43.238281 36.730469 42.421875 37.59375 41.917969 C 38.460938 41.414062 39.863281 41.414062 40.730469 41.917969 C 40.273438 41.652344 39.195312 41.84375 38.332031 42.347656 C 37.46875 42.851562 37.136719 43.476562 37.59375 43.742188 " fill-opacity="1" fill-rule="nonzero"/><path fill="#b4b2e0" d="M 40.726562 43.742188 C 39.863281 44.246094 38.460938 44.246094 37.59375 43.742188 C 38.054688 44.011719 39.128906 43.816406 39.992188 43.3125 C 40.855469 42.808594 41.1875 42.183594 40.730469 41.917969 C 41.59375 42.421875 41.59375 43.238281 40.726562 43.742188 " fill-opacity="1" fill-rule="nonzero"/><path fill="#b4b2e0" d="M 43.371094 47.109375 C 42.503906 46.605469 42.507812 45.789062 43.371094 45.285156 C 44.238281 44.78125 45.640625 44.777344 46.507812 45.285156 C 46.050781 45.015625 44.972656 45.207031 44.109375 45.710938 C 43.242188 46.214844 42.914062 46.84375 43.371094 47.109375 " fill-opacity="1" fill-rule="nonzero"/><path fill="#b4b2e0" d="M 46.503906 47.109375 C 45.640625 47.613281 44.238281 47.613281 43.371094 47.109375 C 43.832031 47.375 44.90625 47.183594 45.769531 46.679688 C 46.632812 46.175781 46.964844 45.550781 46.507812 45.285156 C 47.371094 45.789062 47.371094 46.605469 46.503906 47.109375 " fill-opacity="1" fill-rule="nonzero"/><path fill="#b4b2e0" d="M 49.148438 50.476562 C 48.28125 49.972656 48.285156 49.152344 49.148438 48.648438 C 50.011719 48.144531 51.417969 48.144531 52.285156 48.648438 C 51.824219 48.382812 50.75 48.574219 49.886719 49.078125 C 49.019531 49.582031 48.691406 50.210938 49.148438 50.476562 " fill-opacity="1" fill-rule="nonzero"/><path fill="#b4b2e0" d="M 52.28125 50.476562 C 51.417969 50.980469 50.011719 50.980469 49.148438 50.476562 C 49.609375 50.742188 50.679688 50.550781 51.546875 50.046875 C 52.410156 49.542969 52.742188 48.917969 52.285156 48.648438 C 53.148438 49.152344 53.148438 49.972656 52.28125 50.476562 " fill-opacity="1" fill-rule="nonzero"/><path fill="#b4b2e0" d="M 54.925781 53.84375 C 54.058594 53.335938 54.0625 52.519531 54.925781 52.015625 C 55.789062 51.511719 57.195312 51.511719 58.058594 52.015625 C 57.601562 51.75 56.527344 51.941406 55.660156 52.445312 C 54.796875 52.949219 54.46875 53.574219 54.925781 53.84375 " fill-opacity="1" fill-rule="nonzero"/><path fill="#b4b2e0" d="M 58.058594 53.839844 C 57.195312 54.34375 55.789062 54.347656 54.925781 53.84375 C 55.382812 54.109375 56.457031 53.914062 57.324219 53.410156 C 58.1875 52.910156 58.519531 52.28125 58.058594 52.015625 C 58.925781 52.519531 58.921875 53.335938 58.058594 53.839844 " fill-opacity="1" fill-rule="nonzero"/><path fill="#b4b2e0" d="M 25.996094 43.769531 C 25.128906 43.265625 25.132812 42.449219 25.996094 41.945312 C 26.859375 41.441406 28.265625 41.441406 29.132812 41.945312 C 28.671875 41.675781 27.597656 41.871094 26.734375 42.375 C 25.867188 42.875 25.539062 43.503906 25.996094 43.769531 " fill-opacity="1" fill-rule="nonzero"/><path fill="#b4b2e0" d="M 29.128906 43.769531 C 28.265625 44.273438 26.859375 44.273438 25.996094 43.769531 C 26.453125 44.039062 27.527344 43.84375 28.394531 43.339844 C 29.257812 42.835938 29.589844 42.210938 29.132812 41.945312 C 29.996094 42.449219 29.996094 43.265625 29.128906 43.769531 " fill-opacity="1" fill-rule="nonzero"/><path fill="#b4b2e0" d="M 31.773438 47.136719 C 30.90625 46.632812 30.910156 45.8125 31.773438 45.308594 C 32.636719 44.808594 34.042969 44.804688 34.90625 45.308594 C 34.449219 45.042969 33.375 45.234375 32.507812 45.738281 C 31.644531 46.242188 31.316406 46.871094 31.773438 47.136719 " fill-opacity="1" fill-rule="nonzero"/><path fill="#b4b2e0" d="M 34.90625 47.136719 C 34.042969 47.640625 32.636719 47.640625 31.773438 47.136719 C 32.230469 47.402344 33.304688 47.210938 34.167969 46.707031 C 35.035156 46.203125 35.367188 45.578125 34.90625 45.308594 C 35.773438 45.8125 35.769531 46.632812 34.90625 47.136719 " fill-opacity="1" fill-rule="nonzero"/><path fill="#b4b2e0" d="M 37.550781 50.503906 C 36.683594 49.996094 36.6875 49.179688 37.550781 48.675781 C 38.414062 48.171875 39.816406 48.171875 40.683594 48.675781 C 40.226562 48.410156 39.152344 48.601562 38.285156 49.105469 C 37.421875 49.609375 37.09375 50.234375 37.550781 50.503906 " fill-opacity="1" fill-rule="nonzero"/><path fill="#b4b2e0" d="M 40.683594 50.503906 C 39.816406 51.003906 38.414062 51.007812 37.550781 50.503906 C 38.007812 50.769531 39.082031 50.578125 39.945312 50.074219 C 40.8125 49.570312 41.144531 48.941406 40.683594 48.675781 C 41.550781 49.179688 41.546875 49.996094 40.683594 50.503906 " fill-opacity="1" fill-rule="nonzero"/><path fill="#b4b2e0" d="M 43.328125 53.867188 C 42.460938 53.363281 42.460938 52.546875 43.328125 52.042969 C 44.191406 51.539062 45.59375 51.539062 46.460938 52.042969 C 46.003906 51.773438 44.925781 51.96875 44.0625 52.472656 C 43.199219 52.976562 42.867188 53.601562 43.328125 53.867188 " fill-opacity="1" fill-rule="nonzero"/><path fill="#b4b2e0" d="M 46.460938 53.867188 C 45.59375 54.371094 44.191406 54.371094 43.328125 53.867188 C 43.785156 54.136719 44.859375 53.941406 45.722656 53.4375 C 46.585938 52.933594 46.917969 52.308594 46.460938 52.042969 C 47.324219 52.546875 47.324219 53.363281 46.460938 53.867188 " fill-opacity="1" fill-rule="nonzero"/><path fill="#b4b2e0" d="M 49.105469 57.234375 C 48.238281 56.730469 48.238281 55.910156 49.105469 55.410156 C 49.96875 54.90625 51.371094 54.902344 52.238281 55.410156 C 51.78125 55.140625 50.703125 55.332031 49.839844 55.835938 C 48.976562 56.339844 48.644531 56.96875 49.105469 57.234375 " fill-opacity="1" fill-rule="nonzero"/><path fill="#b4b2e0" d="M 52.234375 57.234375 C 51.371094 57.738281 49.96875 57.738281 49.105469 57.234375 C 49.5625 57.5 50.636719 57.308594 51.5 56.804688 C 52.363281 56.300781 52.695312 55.675781 52.238281 55.410156 C 53.101562 55.910156 53.101562 56.730469 52.234375 57.234375 " fill-opacity="1" fill-rule="nonzero"/><path fill="#b4b2e0" d="M 20.175781 47.164062 C 19.308594 46.660156 19.308594 45.839844 20.175781 45.335938 C 21.039062 44.832031 22.441406 44.832031 23.308594 45.335938 C 22.851562 45.070312 21.773438 45.261719 20.910156 45.765625 C 20.046875 46.269531 19.714844 46.894531 20.175781 47.164062 " fill-opacity="1" fill-rule="nonzero"/><path fill="#b4b2e0" d="M 23.308594 47.160156 C 22.441406 47.664062 21.039062 47.667969 20.175781 47.164062 C 20.632812 47.429688 21.707031 47.238281 22.570312 46.734375 C 23.433594 46.230469 23.765625 45.605469 23.308594 45.335938 C 24.171875 45.839844 24.171875 46.660156 23.308594 47.160156 " fill-opacity="1" fill-rule="nonzero"/><path fill="#b4b2e0" d="M 25.953125 50.53125 C 25.085938 50.023438 25.085938 49.207031 25.953125 48.703125 C 26.816406 48.199219 28.21875 48.199219 29.085938 48.703125 C 28.628906 48.4375 27.550781 48.628906 26.6875 49.132812 C 25.824219 49.636719 25.492188 50.261719 25.953125 50.53125 " fill-opacity="1" fill-rule="nonzero"/><path fill="#b4b2e0" d="M 29.082031 50.527344 C 28.21875 51.03125 26.816406 51.03125 25.953125 50.53125 C 26.410156 50.796875 27.484375 50.601562 28.347656 50.097656 C 29.210938 49.59375 29.542969 48.96875 29.085938 48.703125 C 29.949219 49.207031 29.949219 50.023438 29.082031 50.527344 " fill-opacity="1" fill-rule="nonzero"/><path fill="#b4b2e0" d="M 31.726562 53.894531 C 30.863281 53.390625 30.863281 52.570312 31.726562 52.070312 C 32.59375 51.566406 33.996094 51.5625 34.863281 52.070312 C 34.402344 51.800781 33.328125 51.992188 32.464844 52.496094 C 31.597656 53 31.269531 53.628906 31.726562 53.894531 " fill-opacity="1" fill-rule="nonzero"/><path fill="#b4b2e0" d="M 34.859375 53.894531 C 33.996094 54.398438 32.59375 54.398438 31.726562 53.894531 C 32.1875 54.164062 33.261719 53.96875 34.125 53.464844 C 34.988281 52.960938 35.320312 52.335938 34.863281 52.070312 C 35.726562 52.570312 35.726562 53.390625 34.859375 53.894531 " fill-opacity="1" fill-rule="nonzero"/><path fill="#b4b2e0" d="M 37.503906 57.261719 C 36.636719 56.757812 36.640625 55.9375 37.503906 55.433594 C 38.371094 54.929688 39.773438 54.929688 40.640625 55.433594 C 40.179688 55.167969 39.105469 55.359375 38.242188 55.863281 C 37.375 56.367188 37.046875 56.996094 37.503906 57.261719 " fill-opacity="1" fill-rule="nonzero"/><path fill="#b4b2e0" d="M 40.636719 57.261719 C 39.773438 57.765625 38.371094 57.765625 37.503906 57.261719 C 37.960938 57.527344 39.035156 57.335938 39.902344 56.832031 C 40.765625 56.328125 41.097656 55.703125 40.640625 55.433594 C 41.503906 55.9375 41.5 56.757812 40.636719 57.261719 " fill-opacity="1" fill-rule="nonzero"/><path fill="#b4b2e0" d="M 43.28125 60.628906 C 42.414062 60.121094 42.417969 59.304688 43.28125 58.800781 C 44.144531 58.296875 45.550781 58.296875 46.414062 58.800781 C 45.957031 58.535156 44.882812 58.726562 44.015625 59.230469 C 43.152344 59.734375 42.824219 60.359375 43.28125 60.628906 " fill-opacity="1" fill-rule="nonzero"/><path fill="#b4b2e0" d="M 46.414062 60.625 C 45.550781 61.128906 44.144531 61.132812 43.28125 60.628906 C 43.738281 60.894531 44.8125 60.699219 45.679688 60.195312 C 46.542969 59.695312 46.875 59.066406 46.414062 58.800781 C 47.28125 59.304688 47.277344 60.121094 46.414062 60.625 " fill-opacity="1" fill-rule="nonzero"/><path fill="#b4b2e0" d="M 14.351562 50.554688 C 13.484375 50.050781 13.488281 49.234375 14.351562 48.730469 C 15.21875 48.226562 16.621094 48.226562 17.488281 48.730469 C 17.027344 48.460938 15.953125 48.65625 15.089844 49.160156 C 14.222656 49.660156 13.894531 50.289062 14.351562 50.554688 " fill-opacity="1" fill-rule="nonzero"/><path fill="#b4b2e0" d="M 17.484375 50.554688 C 16.621094 51.058594 15.21875 51.058594 14.351562 50.554688 C 14.808594 50.824219 15.882812 50.628906 16.75 50.125 C 17.613281 49.621094 17.945312 48.996094 17.488281 48.730469 C 18.351562 49.234375 18.347656 50.050781 17.484375 50.554688 " fill-opacity="1" fill-rule="nonzero"/><path fill="#b4b2e0" d="M 20.128906 53.921875 C 19.261719 53.417969 19.265625 52.597656 20.128906 52.09375 C 20.992188 51.589844 22.398438 51.589844 23.261719 52.09375 C 22.804688 51.828125 21.730469 52.019531 20.863281 52.523438 C 20 53.027344 19.671875 53.65625 20.128906 53.921875 " fill-opacity="1" fill-rule="nonzero"/><path fill="#b4b2e0" d="M 23.261719 53.921875 C 22.398438 54.425781 20.992188 54.425781 20.128906 53.921875 C 20.585938 54.1875 21.660156 53.996094 22.527344 53.492188 C 23.390625 52.988281 23.722656 52.363281 23.261719 52.09375 C 24.128906 52.597656 24.125 53.417969 23.261719 53.921875 " fill-opacity="1" fill-rule="nonzero"/><path fill="#b4b2e0" d="M 25.90625 57.289062 C 25.039062 56.78125 25.039062 55.964844 25.90625 55.460938 C 26.769531 54.957031 28.175781 54.957031 29.039062 55.460938 C 28.582031 55.195312 27.507812 55.386719 26.640625 55.890625 C 25.777344 56.394531 25.449219 57.019531 25.90625 57.289062 " fill-opacity="1" fill-rule="nonzero"/><path fill="#b4b2e0" d="M 29.039062 57.285156 C 28.175781 57.789062 26.769531 57.792969 25.90625 57.289062 C 26.363281 57.554688 27.4375 57.363281 28.300781 56.859375 C 29.167969 56.355469 29.5 55.726562 29.039062 55.460938 C 29.90625 55.964844 29.902344 56.78125 29.039062 57.285156 " fill-opacity="1" fill-rule="nonzero"/><path fill="#b4b2e0" d="M 31.683594 60.652344 C 30.816406 60.148438 30.816406 59.332031 31.683594 58.828125 C 32.546875 58.324219 33.949219 58.324219 34.816406 58.828125 C 34.359375 58.558594 33.28125 58.753906 32.417969 59.257812 C 31.554688 59.761719 31.222656 60.386719 31.683594 60.652344 " fill-opacity="1" fill-rule="nonzero"/><path fill="#b4b2e0" d="M 34.816406 60.652344 C 33.949219 61.15625 32.546875 61.15625 31.683594 60.652344 C 32.140625 60.921875 33.214844 60.726562 34.078125 60.222656 C 34.945312 59.71875 35.273438 59.09375 34.816406 58.828125 C 35.683594 59.332031 35.679688 60.148438 34.816406 60.652344 " fill-opacity="1" fill-rule="nonzero"/><path fill="#b4b2e0" d="M 37.457031 64.019531 C 36.59375 63.515625 36.59375 62.699219 37.457031 62.195312 C 38.324219 61.691406 39.726562 61.6875 40.59375 62.195312 C 40.136719 61.925781 39.058594 62.117188 38.195312 62.621094 C 37.332031 63.125 37 63.753906 37.457031 64.019531 " fill-opacity="1" fill-rule="nonzero"/><path fill="#b4b2e0" d="M 40.59375 64.019531 C 39.726562 64.523438 38.324219 64.523438 37.457031 64.019531 C 37.917969 64.285156 38.992188 64.09375 39.855469 63.589844 C 40.71875 63.085938 41.050781 62.460938 40.59375 62.195312 C 41.457031 62.699219 41.457031 63.515625 40.59375 64.019531 " fill-opacity="1" fill-rule="nonzero"/></svg>