<svg xmlns="http://www.w3.org/2000/svg" xmlns:xlink="http://www.w3.org/1999/xlink" width="200" zoomAndPan="magnify" viewBox="0 0 150 112.499997" height="150" preserveAspectRatio="xMidYMid meet" version="1.0"><defs><clipPath id="id1"><path d="M 20 4 L 124 4 L 124 106 L 20 106 Z M 20 4 " clip-rule="nonzero"/></clipPath><clipPath id="id2"><path d="M 0.332031 39.558594 L 90.457031 -13.410156 L 140.773438 72.207031 L 50.648438 125.175781 Z M 0.332031 39.558594 " clip-rule="nonzero"/></clipPath><clipPath id="id3"><path d="M 0.332031 39.558594 L 90.457031 -13.410156 L 140.773438 72.207031 L 50.648438 125.175781 Z M 0.332031 39.558594 " clip-rule="nonzero"/></clipPath><clipPath id="id4"><path d="M 0.335938 39.554688 L 90.636719 -13.515625 L 141.039062 72.246094 L 50.738281 125.316406 Z M 0.335938 39.554688 " clip-rule="nonzero"/></clipPath><clipPath id="id5"><path d="M 0.335938 39.554688 L 90.460938 -13.414062 L 140.773438 72.195312 L 50.648438 125.164062 Z M 0.335938 39.554688 " clip-rule="nonzero"/></clipPath></defs><g clip-path="url(#id1)"><g clip-path="url(#id2)"><g clip-path="url(#id3)"><g clip-path="url(#id4)"><g clip-path="url(#id5)"><path fill="#486cbd" d="M 104.945312 14.757812 C 101.792969 11.699219 98.214844 9.15625 94.160156 7.410156 C 83.035156 2.609375 70.160156 4.511719 58.527344 7.960938 C 53.121094 9.566406 47.761719 11.507812 42.988281 14.507812 C 34.085938 20.101562 27.683594 29.1875 24.226562 39.105469 C 20.210938 50.648438 18.835938 64.851562 22.949219 76.488281 C 27.035156 88.046875 36.003906 97.542969 47.546875 101.839844 C 57.019531 105.363281 67.484375 105.691406 77.472656 104.058594 C 91.035156 101.84375 104.382812 95.757812 113.082031 85.125 C 119.234375 77.605469 122.804688 68.023438 123.066406 58.328125 C 123.320312 48.863281 120.503906 39.523438 116.335938 31.03125 C 113.421875 25.085938 109.667969 19.34375 104.945312 14.757812 " fill-opacity="1" fill-rule="nonzero"/></g></g></g></g></g><path fill="#616161" d="M 70.742188 88.730469 C 70.125 87.019531 65.820312 75.683594 54.175781 71.753906 C 48.816406 69.941406 44.03125 70.417969 41.316406 70.925781 C 41.183594 68.871094 40.546875 63.210938 36.238281 57.988281 C 32.953125 54.011719 29.101562 52.183594 27.140625 51.40625 C 28.199219 50.148438 32.175781 45.125 32.082031 37.621094 C 31.980469 29.78125 27.507812 24.722656 26.433594 23.570312 C 28.347656 23.527344 38.554688 23.488281 46.804688 31.515625 C 54.035156 38.550781 55.019531 47.171875 55.207031 49.417969 C 59.929688 52.878906 64.648438 56.335938 69.371094 59.796875 C 69.828125 69.4375 70.285156 79.082031 70.742188 88.730469 " fill-opacity="1" fill-rule="nonzero"/><path fill="#616161" d="M 70.742188 88.730469 C 71.359375 87.019531 75.664062 75.683594 87.308594 71.753906 C 92.667969 69.941406 97.453125 70.417969 100.167969 70.925781 C 100.300781 68.871094 100.9375 63.210938 105.246094 57.988281 C 108.53125 54.011719 112.382812 52.183594 114.34375 51.40625 C 113.285156 50.148438 109.304688 45.125 109.402344 37.621094 C 109.503906 29.78125 113.976562 24.722656 115.050781 23.570312 C 113.136719 23.527344 102.929688 23.488281 94.679688 31.515625 C 87.445312 38.550781 86.464844 47.171875 86.277344 49.417969 C 81.558594 52.878906 76.832031 56.335938 72.113281 59.796875 C 71.65625 69.4375 71.199219 79.082031 70.742188 88.730469 " fill-opacity="1" fill-rule="nonzero"/><path fill="#414141" d="M 90.636719 52.992188 C 91.445312 53.777344 92.25 54.640625 93.039062 55.59375 C 97.417969 60.894531 99.304688 66.652344 100.167969 70.925781 C 100.105469 67.597656 99.675781 63.097656 98.167969 58.003906 C 96.546875 52.53125 94.246094 48.292969 92.367188 45.375 C 91.789062 47.914062 91.214844 50.457031 90.636719 52.992188 " fill-opacity="1" fill-rule="nonzero"/><path fill="#414141" d="M 114.34375 51.40625 C 111.011719 49.980469 106.882812 48.519531 102.042969 47.445312 C 97.859375 46.515625 94.054688 46.074219 90.804688 45.894531 C 91.300781 44.859375 91.785156 43.75 92.246094 42.558594 C 92.480469 41.945312 92.695312 41.347656 92.898438 40.761719 C 94.386719 40.808594 99.460938 41.578125 102.234375 43.085938 C 106.8125 45.582031 113.808594 50.078125 114.34375 51.40625 " fill-opacity="1" fill-rule="nonzero"/><path fill="#414141" d="M 115.050781 23.570312 C 111.730469 25.40625 106.621094 28.785156 102.042969 34.5625 C 95.816406 42.410156 93.609375 49.304688 92.9375 53.359375 C 88.144531 57.328125 83.351562 61.296875 78.558594 65.265625 L 78.558594 60.054688 L 88.988281 49.628906 C 88.988281 49.628906 87.769531 29.042969 115.050781 23.570312 " fill-opacity="1" fill-rule="nonzero"/><path fill="#414141" d="M 51.214844 52.992188 C 50.40625 53.777344 49.601562 54.640625 48.8125 55.59375 C 44.4375 60.894531 42.152344 66.335938 41.289062 70.605469 C 41.355469 67.277344 42.179688 63.097656 43.6875 58.003906 C 45.308594 52.53125 47.605469 48.292969 49.484375 45.375 C 50.0625 47.914062 50.636719 50.457031 51.214844 52.992188 " fill-opacity="1" fill-rule="nonzero"/><path fill="#414141" d="M 27.507812 51.40625 C 30.839844 49.980469 34.972656 48.519531 39.8125 47.445312 C 43.992188 46.515625 47.796875 46.074219 51.046875 45.894531 C 50.554688 44.859375 50.070312 43.75 49.609375 42.558594 C 49.371094 41.945312 49.15625 41.347656 48.957031 40.761719 C 47.46875 40.808594 42.390625 41.578125 39.617188 43.085938 C 35.039062 45.582031 28.042969 50.078125 27.507812 51.40625 " fill-opacity="1" fill-rule="nonzero"/><path fill="#414141" d="M 26.800781 23.570312 C 30.125 25.40625 35.230469 28.785156 39.8125 34.5625 C 46.035156 42.410156 48.242188 49.304688 48.914062 53.359375 C 53.707031 57.328125 58.5 61.296875 63.292969 65.265625 L 63.292969 60.054688 L 52.863281 49.628906 C 52.863281 49.628906 54.085938 29.042969 26.800781 23.570312 " fill-opacity="1" fill-rule="nonzero"/><path fill="#222222" d="M 93.378906 39.8125 C 93.378906 39.8125 93.472656 39.824219 93.644531 39.851562 C 93.804688 39.871094 94.105469 39.917969 94.4375 39.96875 C 95.117188 40.082031 96.082031 40.261719 97.222656 40.550781 C 98.355469 40.835938 99.667969 41.238281 101.019531 41.765625 L 101.277344 41.863281 L 101.308594 41.875 L 101.347656 41.890625 L 101.363281 41.898438 L 101.425781 41.925781 L 101.546875 41.976562 C 101.707031 42.046875 101.875 42.117188 102.039062 42.1875 C 102.203125 42.257812 102.371094 42.332031 102.539062 42.402344 C 102.710938 42.484375 102.886719 42.566406 103.058594 42.648438 C 103.769531 42.972656 104.441406 43.328125 105.113281 43.703125 C 105.78125 44.078125 106.4375 44.476562 107.0625 44.890625 C 107.691406 45.304688 108.289062 45.730469 108.859375 46.160156 C 109.992188 47.019531 110.984375 47.890625 111.796875 48.671875 C 112.203125 49.066406 112.5625 49.433594 112.878906 49.761719 C 113.191406 50.097656 113.460938 50.386719 113.675781 50.632812 C 113.890625 50.875 114.058594 51.070312 114.171875 51.203125 C 114.285156 51.335938 114.34375 51.40625 114.34375 51.40625 C 114.34375 51.40625 114.273438 51.347656 114.140625 51.234375 C 114.007812 51.121094 113.816406 50.953125 113.5625 50.75 C 113.3125 50.539062 113 50.296875 112.644531 50.019531 C 112.285156 49.746094 111.875 49.445312 111.421875 49.128906 C 110.964844 48.8125 110.46875 48.480469 109.929688 48.152344 C 109.394531 47.816406 108.816406 47.488281 108.214844 47.160156 C 107.609375 46.835938 106.972656 46.523438 106.320312 46.230469 C 105.671875 45.9375 105 45.65625 104.320312 45.410156 C 103.644531 45.160156 102.953125 44.925781 102.292969 44.742188 C 102.125 44.695312 101.960938 44.648438 101.792969 44.597656 C 101.621094 44.554688 101.445312 44.511719 101.269531 44.464844 C 101.09375 44.421875 100.921875 44.378906 100.75 44.335938 L 100.621094 44.304688 L 100.558594 44.289062 L 100.542969 44.28125 C 100.515625 44.277344 100.566406 44.292969 100.558594 44.289062 L 100.550781 44.289062 L 100.519531 44.28125 L 100.273438 44.226562 C 98.964844 43.945312 97.730469 43.769531 96.675781 43.679688 C 95.617188 43.585938 94.738281 43.5625 94.121094 43.558594 C 93.808594 43.558594 93.597656 43.5625 93.410156 43.566406 C 93.238281 43.566406 93.140625 43.570312 93.140625 43.570312 C 92.101562 43.585938 91.242188 42.753906 91.226562 41.710938 C 91.207031 40.671875 92.039062 39.8125 93.082031 39.792969 C 93.179688 39.792969 93.285156 39.800781 93.378906 39.8125 " fill-opacity="1" fill-rule="nonzero"/><path fill="#222222" d="M 100.167969 70.925781 C 100.167969 70.925781 100.164062 70.816406 100.152344 70.605469 C 100.140625 70.398438 100.128906 70.089844 100.097656 69.703125 C 100.074219 69.3125 100.035156 68.84375 99.980469 68.304688 C 99.921875 67.765625 99.859375 67.160156 99.761719 66.503906 C 99.714844 66.171875 99.664062 65.828125 99.601562 65.476562 C 99.542969 65.125 99.484375 64.761719 99.402344 64.386719 C 99.261719 63.644531 99.085938 62.863281 98.882812 62.0625 C 98.683594 61.265625 98.445312 60.445312 98.1875 59.625 C 98.050781 59.214844 97.917969 58.800781 97.773438 58.390625 C 97.617188 57.984375 97.464844 57.574219 97.3125 57.167969 C 97.144531 56.765625 96.980469 56.363281 96.8125 55.964844 C 96.640625 55.566406 96.453125 55.175781 96.277344 54.789062 C 96.105469 54.398438 95.898438 54.023438 95.714844 53.652344 C 95.621094 53.46875 95.527344 53.28125 95.433594 53.097656 C 95.332031 52.921875 95.230469 52.742188 95.132812 52.5625 C 94.933594 52.210938 94.746094 51.859375 94.546875 51.53125 C 94.335938 51.171875 94.152344 50.878906 93.945312 50.558594 C 93.550781 49.9375 93.15625 49.359375 92.785156 48.835938 C 92.03125 47.792969 91.359375 46.960938 90.878906 46.394531 C 90.398438 45.824219 90.109375 45.507812 90.109375 45.507812 C 89.40625 44.738281 89.460938 43.542969 90.230469 42.84375 C 91 42.140625 92.195312 42.191406 92.898438 42.964844 C 92.953125 43.023438 93.003906 43.085938 93.046875 43.148438 L 93.078125 43.195312 C 93.078125 43.195312 93.34375 43.574219 93.785156 44.261719 C 94.226562 44.949219 94.832031 45.941406 95.484375 47.167969 C 95.8125 47.785156 96.152344 48.457031 96.484375 49.175781 C 96.648438 49.527344 96.832031 49.929688 96.984375 50.289062 C 97.152344 50.675781 97.300781 51.070312 97.464844 51.472656 C 97.542969 51.671875 97.621094 51.875 97.703125 52.078125 C 97.777344 52.285156 97.851562 52.492188 97.925781 52.703125 C 98.066406 53.121094 98.230469 53.539062 98.355469 53.972656 C 98.488281 54.40625 98.628906 54.835938 98.753906 55.277344 C 98.871094 55.714844 98.988281 56.15625 99.109375 56.597656 C 99.207031 57.039062 99.3125 57.484375 99.414062 57.929688 C 99.507812 58.371094 99.585938 58.816406 99.671875 59.253906 C 99.828125 60.136719 99.957031 61.003906 100.058594 61.847656 C 100.15625 62.691406 100.226562 63.503906 100.273438 64.28125 C 100.300781 64.664062 100.308594 65.042969 100.324219 65.40625 C 100.339844 65.769531 100.34375 66.121094 100.347656 66.457031 C 100.359375 67.128906 100.339844 67.746094 100.328125 68.292969 C 100.308594 68.835938 100.289062 69.3125 100.257812 69.703125 C 100.242188 70.09375 100.207031 70.398438 100.195312 70.605469 C 100.179688 70.816406 100.167969 70.925781 100.167969 70.925781 " fill-opacity="1" fill-rule="nonzero"/><path fill="#222222" d="M 72.113281 59.796875 C 76.832031 56.335938 81.558594 52.878906 86.277344 49.417969 C 86.464844 47.171875 87.445312 38.550781 94.679688 31.515625 C 102.929688 23.488281 113.136719 23.527344 115.050781 23.570312 C 112.160156 24.324219 102.109375 27.265625 95.390625 37.171875 C 91.277344 43.234375 90.203125 49.25 89.867188 52.511719 C 84.183594 56.855469 78.5 61.199219 72.816406 65.546875 L 72.113281 59.796875 " fill-opacity="1" fill-rule="nonzero"/><path fill="#222222" d="M 78.558594 54.777344 C 78.558594 44.476562 75.953125 41.746094 75.953125 41.746094 C 75.953125 41.746094 73.929688 44.800781 73.929688 49.5625 L 78.558594 54.777344 " fill-opacity="1" fill-rule="nonzero"/><path fill="#222222" d="M 62.921875 54.777344 C 62.921875 44.476562 65.527344 41.746094 65.527344 41.746094 C 65.527344 41.746094 67.558594 44.800781 67.558594 49.5625 L 62.921875 54.777344 " fill-opacity="1" fill-rule="nonzero"/><path fill="#222222" d="M 27.140625 51.40625 C 27.140625 51.40625 27.199219 51.335938 27.3125 51.203125 C 27.425781 51.070312 27.589844 50.875 27.808594 50.632812 C 28.023438 50.382812 28.292969 50.097656 28.605469 49.761719 C 28.921875 49.433594 29.28125 49.066406 29.6875 48.671875 C 30.5 47.890625 31.492188 47.019531 32.625 46.160156 C 33.191406 45.730469 33.792969 45.304688 34.421875 44.890625 C 35.046875 44.476562 35.699219 44.078125 36.371094 43.703125 C 37.039062 43.332031 37.71875 42.972656 38.410156 42.652344 C 38.582031 42.570312 38.753906 42.492188 38.921875 42.410156 C 39.097656 42.335938 39.269531 42.261719 39.441406 42.191406 C 39.613281 42.117188 39.785156 42.042969 39.953125 41.972656 C 40.042969 41.933594 40.113281 41.902344 40.21875 41.863281 L 40.460938 41.765625 C 40.773438 41.640625 41.144531 41.507812 41.46875 41.394531 C 41.800781 41.277344 42.125 41.167969 42.441406 41.066406 C 43.082031 40.867188 43.691406 40.691406 44.265625 40.550781 C 45.398438 40.261719 46.367188 40.082031 47.046875 39.96875 C 47.726562 39.859375 48.117188 39.8125 48.117188 39.8125 L 48.164062 39.808594 C 49.199219 39.675781 50.144531 40.414062 50.273438 41.449219 C 50.398438 42.484375 49.664062 43.429688 48.628906 43.558594 C 48.53125 43.566406 48.425781 43.574219 48.328125 43.570312 C 48.328125 43.570312 47.980469 43.558594 47.363281 43.558594 C 46.75 43.5625 45.867188 43.585938 44.808594 43.679688 C 44.28125 43.726562 43.707031 43.792969 43.105469 43.882812 C 42.804688 43.929688 42.492188 43.976562 42.175781 44.035156 C 41.851562 44.09375 41.566406 44.148438 41.210938 44.226562 L 40.957031 44.285156 C 40.890625 44.296875 40.796875 44.320312 40.71875 44.339844 C 40.550781 44.382812 40.386719 44.421875 40.21875 44.464844 C 40.050781 44.507812 39.882812 44.546875 39.710938 44.589844 C 39.542969 44.640625 39.375 44.691406 39.207031 44.738281 C 38.523438 44.929688 37.84375 45.160156 37.164062 45.410156 C 36.484375 45.65625 35.8125 45.9375 35.160156 46.230469 C 34.507812 46.523438 33.875 46.835938 33.269531 47.160156 C 32.667969 47.488281 32.089844 47.816406 31.554688 48.152344 C 31.015625 48.480469 30.515625 48.8125 30.0625 49.128906 C 29.605469 49.445312 29.199219 49.746094 28.835938 50.019531 C 28.480469 50.296875 28.171875 50.539062 27.921875 50.75 C 27.667969 50.953125 27.476562 51.121094 27.34375 51.234375 C 27.210938 51.347656 27.140625 51.40625 27.140625 51.40625 " fill-opacity="1" fill-rule="nonzero"/><path fill="#222222" d="M 41.316406 70.925781 C 41.316406 70.925781 41.304688 70.816406 41.289062 70.605469 C 41.273438 70.398438 41.242188 70.09375 41.222656 69.703125 C 41.195312 69.3125 41.175781 68.835938 41.15625 68.292969 C 41.140625 67.746094 41.125 67.128906 41.136719 66.457031 C 41.140625 66.121094 41.144531 65.769531 41.160156 65.40625 C 41.175781 65.042969 41.183594 64.664062 41.214844 64.28125 C 41.257812 63.503906 41.328125 62.691406 41.425781 61.847656 C 41.523438 61.003906 41.65625 60.136719 41.8125 59.253906 C 41.898438 58.816406 41.976562 58.371094 42.070312 57.929688 C 42.171875 57.484375 42.273438 57.039062 42.375 56.597656 C 42.492188 56.15625 42.613281 55.714844 42.730469 55.277344 C 42.851562 54.835938 42.996094 54.40625 43.128906 53.972656 C 43.253906 53.539062 43.417969 53.121094 43.5625 52.703125 C 43.632812 52.492188 43.707031 52.285156 43.78125 52.078125 C 43.863281 51.875 43.941406 51.671875 44.023438 51.472656 C 44.183594 51.070312 44.332031 50.675781 44.5 50.289062 C 44.652344 49.929688 44.835938 49.527344 44.996094 49.175781 C 45.332031 48.457031 45.671875 47.785156 45.996094 47.167969 C 46.652344 45.941406 47.261719 44.949219 47.703125 44.261719 C 48.140625 43.574219 48.40625 43.195312 48.40625 43.195312 L 48.429688 43.160156 C 49.023438 42.300781 50.203125 42.089844 51.058594 42.6875 C 51.914062 43.28125 52.125 44.457031 51.527344 45.3125 C 51.484375 45.378906 51.425781 45.449219 51.375 45.507812 C 51.375 45.507812 51.085938 45.824219 50.605469 46.394531 C 50.121094 46.960938 49.449219 47.792969 48.703125 48.835938 C 48.328125 49.359375 47.933594 49.9375 47.535156 50.558594 C 47.332031 50.878906 47.148438 51.171875 46.941406 51.53125 C 46.734375 51.859375 46.554688 52.210938 46.351562 52.5625 C 46.253906 52.742188 46.152344 52.921875 46.050781 53.097656 C 45.960938 53.28125 45.863281 53.46875 45.769531 53.652344 C 45.585938 54.023438 45.375 54.398438 45.207031 54.789062 C 45.03125 55.175781 44.839844 55.566406 44.671875 55.964844 C 44.503906 56.363281 44.335938 56.765625 44.167969 57.167969 C 44.015625 57.574219 43.863281 57.984375 43.714844 58.390625 C 43.570312 58.800781 43.4375 59.214844 43.296875 59.625 C 43.035156 60.445312 42.800781 61.265625 42.597656 62.0625 C 42.398438 62.863281 42.222656 63.644531 42.078125 64.386719 C 42 64.761719 41.945312 65.125 41.882812 65.476562 C 41.820312 65.828125 41.769531 66.171875 41.722656 66.503906 C 41.625 67.160156 41.5625 67.765625 41.503906 68.304688 C 41.449219 68.84375 41.410156 69.3125 41.386719 69.703125 C 41.355469 70.089844 41.34375 70.398438 41.332031 70.605469 C 41.320312 70.816406 41.316406 70.925781 41.316406 70.925781 " fill-opacity="1" fill-rule="nonzero"/><path fill="#222222" d="M 70.742188 57.382812 C 70.742188 57.382812 58.21875 54.582031 60.316406 65.199219 C 62.414062 75.824219 70.742188 88.730469 70.742188 88.730469 C 70.742188 88.730469 79.070312 75.824219 81.167969 65.199219 C 83.261719 54.582031 70.742188 57.382812 70.742188 57.382812 " fill-opacity="1" fill-rule="nonzero"/><path fill="#222222" d="M 70.742188 46.957031 C 66.425781 46.957031 62.921875 50.457031 62.921875 54.777344 C 62.921875 59.09375 66.425781 62.597656 70.742188 62.597656 C 75.0625 62.597656 78.558594 59.09375 78.558594 54.777344 C 78.558594 50.457031 75.0625 46.957031 70.742188 46.957031 " fill-opacity="1" fill-rule="nonzero"/><path fill="#222222" d="M 69.371094 59.796875 C 64.648438 56.335938 59.929688 52.878906 55.207031 49.417969 C 55.019531 47.171875 54.035156 38.550781 46.804688 31.515625 C 38.554688 23.488281 28.347656 23.527344 26.433594 23.570312 C 29.324219 24.324219 39.375 27.265625 46.09375 37.171875 C 50.203125 43.234375 51.285156 49.25 51.613281 52.511719 C 57.296875 56.855469 62.984375 61.199219 68.667969 65.546875 L 69.371094 59.796875 " fill-opacity="1" fill-rule="nonzero"/><path fill="#ffffff" d="M 75.953125 53.109375 C 75.953125 53.585938 75.566406 53.976562 75.085938 53.976562 C 74.605469 53.976562 74.21875 53.585938 74.21875 53.109375 C 74.21875 52.628906 74.605469 52.242188 75.085938 52.242188 C 75.566406 52.242188 75.953125 52.628906 75.953125 53.109375 " fill-opacity="1" fill-rule="nonzero"/><path fill="#ffffff" d="M 67.265625 53.109375 C 67.265625 53.585938 66.878906 53.976562 66.398438 53.976562 C 65.917969 53.976562 65.527344 53.585938 65.527344 53.109375 C 65.527344 52.628906 65.917969 52.242188 66.398438 52.242188 C 66.878906 52.242188 67.265625 52.628906 67.265625 53.109375 " fill-opacity="1" fill-rule="nonzero"/><path fill="#616161" d="M 71.828125 53.976562 L 69.65625 53.976562 C 69.417969 53.976562 69.300781 54.265625 69.472656 54.433594 L 70.558594 55.488281 C 70.660156 55.589844 70.824219 55.589844 70.925781 55.488281 L 72.011719 54.433594 C 72.183594 54.265625 72.066406 53.976562 71.828125 53.976562 " fill-opacity="1" fill-rule="nonzero"/><path fill="#000000" d="M 114.511719 20.957031 C 110.6875 20.957031 100.925781 21.804688 92.863281 29.648438 C 86.1875 36.140625 84.324219 43.960938 83.808594 47.996094 L 80.96875 50.074219 C 80.324219 42.933594 78.304688 40.433594 77.839844 39.945312 C 77.347656 39.425781 76.664062 39.136719 75.953125 39.136719 C 75.878906 39.136719 75.800781 39.140625 75.726562 39.148438 C 74.9375 39.21875 74.222656 39.644531 73.78125 40.304688 C 73.644531 40.515625 72.699219 41.992188 72.019531 44.429688 C 71.597656 44.378906 71.171875 44.351562 70.742188 44.351562 C 70.3125 44.351562 69.882812 44.378906 69.460938 44.429688 C 68.785156 41.992188 67.84375 40.515625 67.703125 40.304688 C 67.265625 39.644531 66.550781 39.21875 65.757812 39.148438 C 65.683594 39.140625 65.605469 39.136719 65.527344 39.136719 C 64.820312 39.136719 64.136719 39.425781 63.644531 39.945312 C 63.175781 40.433594 61.160156 42.933594 60.515625 50.074219 L 57.675781 47.996094 C 57.15625 43.960938 55.292969 36.140625 48.621094 29.648438 C 40.558594 21.804688 30.796875 20.957031 26.972656 20.957031 C 26.726562 20.957031 26.527344 20.960938 26.375 20.964844 C 25.347656 20.988281 24.429688 21.609375 24.03125 22.554688 C 23.632812 23.503906 23.824219 24.59375 24.527344 25.347656 C 25.988281 26.914062 29.394531 31.25 29.476562 37.652344 C 29.554688 43.816406 26.472656 48.152344 25.144531 49.730469 C 24.605469 50.371094 24.40625 51.234375 24.613281 52.050781 C 24.816406 52.863281 25.402344 53.527344 26.183594 53.835938 C 28.378906 54.699219 31.554688 56.40625 34.226562 59.648438 C 37.769531 63.941406 38.558594 68.660156 38.714844 71.09375 C 38.761719 71.839844 39.125 72.527344 39.714844 72.984375 C 40.175781 73.34375 40.738281 73.53125 41.316406 73.53125 C 41.375 73.53125 41.4375 73.53125 41.5 73.527344 C 41.5625 73.53125 41.625 73.53125 41.6875 73.53125 C 42.027344 73.53125 42.359375 73.464844 42.660156 73.34375 C 43.859375 73.164062 45.0625 73.070312 46.25 73.070312 C 48.695312 73.070312 51.082031 73.457031 53.339844 74.21875 C 57.363281 75.578125 60.863281 78.082031 63.75 81.660156 C 66.222656 86.519531 68.457031 89.996094 68.554688 90.140625 C 69.03125 90.886719 69.855469 91.335938 70.742188 91.335938 C 71.625 91.335938 72.453125 90.886719 72.933594 90.140625 C 73.027344 89.996094 75.261719 86.519531 77.730469 81.660156 C 80.621094 78.082031 84.121094 75.578125 88.140625 74.21875 C 90.398438 73.457031 92.789062 73.070312 95.238281 73.070312 C 96.710938 73.070312 98.207031 73.210938 99.6875 73.488281 C 99.847656 73.515625 100.011719 73.53125 100.167969 73.53125 C 100.742188 73.53125 101.308594 73.34375 101.769531 72.984375 C 102.359375 72.527344 102.722656 71.839844 102.769531 71.09375 C 102.925781 68.660156 103.714844 63.941406 107.257812 59.648438 C 109.929688 56.40625 113.109375 54.699219 115.300781 53.835938 C 115.945312 53.578125 116.464844 53.078125 116.738281 52.4375 C 117.015625 51.800781 117.023438 51.078125 116.761719 50.433594 C 116.5625 49.941406 116.238281 49.476562 115.722656 48.953125 C 114.257812 46.988281 111.9375 43.019531 112.007812 37.652344 C 112.089844 31.285156 115.457031 26.960938 116.933594 25.371094 C 117.382812 24.90625 117.660156 24.269531 117.660156 23.570312 C 117.660156 22.144531 116.515625 20.988281 115.097656 20.964844 C 114.945312 20.960938 114.746094 20.957031 114.511719 20.957031 Z M 115.050781 23.570312 L 115.054688 23.570312 M 115.050781 23.570312 L 115.054688 23.570312 M 115.050781 23.570312 L 115.054688 23.570312 M 114.511719 23.5625 C 114.734375 23.5625 114.914062 23.566406 115.050781 23.570312 C 113.976562 24.722656 109.503906 29.78125 109.402344 37.621094 C 109.320312 44.085938 112.261719 48.710938 113.753906 50.667969 C 114.058594 50.96875 114.269531 51.222656 114.34375 51.410156 C 112.382812 52.183594 108.53125 54.011719 105.246094 57.992188 C 100.9375 63.214844 100.300781 68.871094 100.167969 70.929688 C 98.917969 70.695312 97.222656 70.464844 95.238281 70.464844 C 92.917969 70.464844 90.195312 70.777344 87.308594 71.753906 C 81.9375 73.566406 78.132812 76.949219 75.527344 80.242188 C 73.042969 85.167969 70.742188 88.730469 70.742188 88.730469 C 70.742188 88.730469 68.445312 85.167969 65.957031 80.242188 C 63.347656 76.949219 59.542969 73.566406 54.175781 71.753906 C 51.289062 70.777344 48.570312 70.464844 46.25 70.464844 C 44.457031 70.464844 42.902344 70.652344 41.699219 70.859375 C 41.695312 70.882812 41.6875 70.90625 41.683594 70.929688 C 41.683594 70.90625 41.683594 70.882812 41.683594 70.863281 C 41.558594 70.886719 41.433594 70.90625 41.316406 70.929688 C 41.183594 68.871094 40.546875 63.214844 36.238281 57.992188 C 32.953125 54.011719 29.101562 52.183594 27.140625 51.410156 C 28.199219 50.148438 32.175781 45.125 32.082031 37.621094 C 31.980469 29.78125 27.507812 24.722656 26.433594 23.570312 C 26.570312 23.566406 26.75 23.5625 26.972656 23.5625 C 29.808594 23.5625 39.148438 24.070312 46.804688 31.515625 C 54.035156 38.550781 55.019531 47.171875 55.207031 49.417969 C 57.78125 51.304688 60.355469 53.191406 62.929688 55.078125 C 62.925781 54.976562 62.921875 54.875 62.921875 54.777344 C 62.921875 44.476562 65.527344 41.746094 65.527344 41.746094 C 65.527344 41.746094 67.03125 44.015625 67.449219 47.6875 C 68.449219 47.21875 69.566406 46.957031 70.742188 46.957031 C 71.917969 46.957031 73.035156 47.21875 74.035156 47.6875 C 74.453125 44.015625 75.953125 41.746094 75.953125 41.746094 C 75.953125 41.746094 78.558594 44.476562 78.558594 54.777344 C 78.558594 54.875 78.558594 54.976562 78.554688 55.078125 C 81.128906 53.191406 83.703125 51.304688 86.277344 49.417969 C 86.464844 47.171875 87.445312 38.550781 94.679688 31.515625 C 102.335938 24.070312 111.675781 23.5625 114.511719 23.5625 " fill-opacity="1" fill-rule="nonzero"/></svg>