<svg xmlns="http://www.w3.org/2000/svg" xmlns:xlink="http://www.w3.org/1999/xlink" width="200" zoomAndPan="magnify" viewBox="0 0 150 112.499997" height="150" preserveAspectRatio="xMidYMid meet" version="1.0"><path fill="#3e721d" d="M 115.371094 24.257812 C 121.140625 38.914062 111.902344 74.085938 90.050781 88.535156 C 68.207031 102.984375 40.875 97.199219 34.363281 72.90625 C 30.335938 57.902344 41.089844 46.902344 62.9375 32.457031 C 84.785156 18.007812 109.679688 9.808594 115.371094 24.257812 Z M 115.371094 24.257812 " fill-opacity="1" fill-rule="nonzero"/><path fill="#3e721d" d="M 80.660156 73.074219 C 64.933594 84.101562 43.800781 85.566406 36.128906 74.484375 C 28.453125 63.410156 37.136719 43.976562 52.871094 32.949219 C 68.59375 21.925781 105.796875 9.191406 113.472656 20.265625 C 121.144531 31.347656 96.386719 62.046875 80.660156 73.074219 " fill-opacity="1" fill-rule="nonzero"/><path fill="#a6d388" d="M 78.753906 74.402344 C 64.875 84.136719 46.25 81.914062 39.476562 72.136719 C 32.710938 62.359375 40.625 45.042969 54.503906 35.316406 C 68.378906 25.585938 103.351562 12.84375 110.125 22.621094 C 116.894531 32.394531 98.492188 61.851562 78.753906 74.402344 " fill-opacity="1" fill-rule="nonzero"/><path fill="#c6e5b3" d="M 74.785156 67.96875 C 63.921875 75.585938 50.824219 75.554688 45.523438 67.90625 C 40.222656 60.253906 44.730469 47.882812 55.59375 40.265625 C 66.460938 32.648438 93.773438 22.710938 99.078125 30.359375 C 104.382812 38.011719 85.65625 60.355469 74.785156 67.96875 Z M 74.785156 67.96875 " fill-opacity="1" fill-rule="nonzero"/><path fill="#662113" d="M 57.890625 40.226562 C 66.28125 34.570312 75.691406 36.601562 81.515625 42.640625 C 84.972656 46.222656 79.394531 55.695312 71.007812 61.351562 C 62.621094 67.003906 52.273438 65.628906 51.140625 63.125 C 47.667969 55.464844 49.507812 45.882812 57.890625 40.226562 Z M 57.890625 40.226562 " fill-opacity="1" fill-rule="nonzero"/><path fill="#7c3225" d="M 62.496094 41.726562 C 66.136719 39.269531 70.726562 39.738281 72.753906 42.769531 C 74.769531 45.804688 73.460938 50.257812 69.816406 52.714844 C 66.175781 55.164062 61.585938 54.699219 59.5625 51.664062 C 57.539062 48.628906 58.855469 44.179688 62.496094 41.726562 Z M 62.496094 41.726562 " fill-opacity="1" fill-rule="nonzero"/></svg>