<svg xmlns="http://www.w3.org/2000/svg" xmlns:xlink="http://www.w3.org/1999/xlink" width="300" zoomAndPan="magnify" viewBox="0 0 224.87999 225" height="300" preserveAspectRatio="xMidYMid meet" version="1.0"><defs><clipPath id="f21c18637d"><path d="M 39.765625 22.546875 L 185.1875 22.546875 L 185.1875 202.453125 L 39.765625 202.453125 Z M 39.765625 22.546875 " clip-rule="nonzero"/></clipPath><clipPath id="ad1a0bc735"><path d="M 39.765625 30 L 172 30 L 172 202.453125 L 39.765625 202.453125 Z M 39.765625 30 " clip-rule="nonzero"/></clipPath><clipPath id="dfc49e6db9"><path d="M 43 22.546875 L 90 22.546875 L 90 34 L 43 34 Z M 43 22.546875 " clip-rule="nonzero"/></clipPath><clipPath id="ff71adffc6"><path d="M 167 157 L 185.1875 157 L 185.1875 202 L 167 202 Z M 167 157 " clip-rule="nonzero"/></clipPath></defs><path fill="#000000" d="M 178.261719 156.648438 L 91.023438 156.648438 L 91.023438 29.417969 C 91.023438 25.96875 88.226562 23.171875 84.773438 23.171875 L 60.417969 23.171875 C 59.238281 23.171875 58.140625 23.503906 57.199219 24.070312 L 57.199219 24.066406 L 44.285156 31.992188 C 43.6875 32.242188 43.140625 32.582031 42.652344 32.992188 L 42.648438 32.996094 C 41.300781 34.140625 40.441406 35.847656 40.441406 37.757812 L 40.441406 195.578125 C 40.441406 199.027344 43.238281 201.820312 46.6875 201.820312 L 164.53125 201.820312 C 165.882812 201.820312 167.128906 201.390625 168.152344 200.660156 L 168.15625 200.664062 L 181.671875 192.46875 L 181.667969 192.46875 C 183.378906 191.355469 184.507812 189.429688 184.507812 187.238281 L 184.507812 162.894531 C 184.507812 159.445312 181.710938 156.648438 178.261719 156.648438 Z M 178.261719 156.648438 " fill-opacity="1" fill-rule="nonzero"/><g clip-path="url(#f21c18637d)"><path fill="#000000" d="M 164.53125 202.445312 L 46.6875 202.445312 C 42.898438 202.445312 39.816406 199.363281 39.816406 195.578125 L 39.816406 37.757812 C 39.816406 35.75 40.691406 33.851562 42.222656 32.539062 C 42.234375 32.527344 42.25 32.515625 42.265625 32.503906 C 42.792969 32.058594 43.375 31.699219 43.996094 31.4375 L 56.871094 23.535156 C 56.894531 23.519531 56.921875 23.507812 56.945312 23.496094 C 58.003906 22.875 59.203125 22.546875 60.417969 22.546875 L 84.773438 22.546875 C 88.5625 22.546875 91.648438 25.628906 91.648438 29.417969 L 91.648438 156.027344 L 178.261719 156.027344 C 182.050781 156.027344 185.132812 159.105469 185.132812 162.894531 L 185.132812 187.238281 C 185.132812 189.546875 183.984375 191.679688 182.058594 192.957031 C 182.039062 192.976562 182.015625 192.992188 181.996094 193.003906 L 168.480469 201.199219 C 168.46875 201.207031 168.457031 201.214844 168.441406 201.21875 C 167.285156 202.023438 165.9375 202.445312 164.53125 202.445312 Z M 43.066406 33.460938 C 43.0625 33.464844 43.058594 33.46875 43.054688 33.472656 C 41.789062 34.542969 41.066406 36.105469 41.066406 37.757812 L 41.066406 195.578125 C 41.066406 198.675781 43.585938 201.199219 46.6875 201.199219 L 164.53125 201.199219 C 165.703125 201.199219 166.828125 200.835938 167.789062 200.152344 C 167.824219 200.125 167.863281 200.105469 167.902344 200.089844 L 181.296875 191.964844 C 181.308594 191.957031 181.316406 191.953125 181.328125 191.945312 C 182.929688 190.902344 183.882812 189.140625 183.882812 187.238281 L 183.882812 162.894531 C 183.882812 159.796875 181.363281 157.273438 178.261719 157.273438 L 91.023438 157.273438 C 90.675781 157.273438 90.398438 156.996094 90.398438 156.648438 L 90.398438 29.417969 C 90.398438 26.320312 87.875 23.796875 84.773438 23.796875 L 60.417969 23.796875 C 59.402344 23.796875 58.398438 24.078125 57.519531 24.605469 C 57.5 24.621094 57.480469 24.628906 57.457031 24.640625 L 44.609375 32.523438 C 44.582031 32.542969 44.554688 32.554688 44.523438 32.570312 C 44 32.789062 43.511719 33.085938 43.066406 33.460938 Z M 43.066406 33.460938 " fill-opacity="1" fill-rule="nonzero"/></g><path fill="#ffffff" d="M 40.441406 195.578125 L 40.441406 37.757812 C 40.441406 34.308594 43.238281 31.511719 46.6875 31.511719 L 71.042969 31.511719 C 74.496094 31.511719 77.292969 34.308594 77.292969 37.757812 L 77.292969 164.988281 L 164.53125 164.988281 C 167.984375 164.988281 170.78125 167.785156 170.78125 171.234375 L 170.78125 195.578125 C 170.78125 199.027344 167.984375 201.820312 164.53125 201.820312 L 46.6875 201.820312 C 43.238281 201.820312 40.441406 199.027344 40.441406 195.578125 Z M 40.441406 195.578125 " fill-opacity="1" fill-rule="nonzero"/><g clip-path="url(#ad1a0bc735)"><path fill="#000000" d="M 164.53125 202.445312 L 46.6875 202.445312 C 42.898438 202.445312 39.816406 199.363281 39.816406 195.578125 L 39.816406 37.757812 C 39.816406 33.96875 42.898438 30.886719 46.6875 30.886719 L 71.042969 30.886719 C 74.835938 30.886719 77.917969 33.96875 77.917969 37.757812 L 77.917969 164.363281 L 164.53125 164.363281 C 168.320312 164.363281 171.40625 167.445312 171.40625 171.234375 L 171.40625 195.578125 C 171.40625 199.363281 168.320312 202.445312 164.53125 202.445312 Z M 46.6875 32.136719 C 43.585938 32.136719 41.066406 34.65625 41.066406 37.757812 L 41.066406 195.578125 C 41.066406 198.675781 43.585938 201.199219 46.6875 201.199219 L 164.53125 201.199219 C 167.632812 201.199219 170.15625 198.675781 170.15625 195.578125 L 170.15625 171.234375 C 170.15625 168.136719 167.632812 165.613281 164.53125 165.613281 L 77.292969 165.613281 C 76.949219 165.613281 76.667969 165.335938 76.667969 164.988281 L 76.667969 37.757812 C 76.667969 34.65625 74.144531 32.136719 71.042969 32.136719 Z M 46.6875 32.136719 " fill-opacity="1" fill-rule="nonzero"/></g><path fill="#c2b092" d="M 91.023438 29.417969 C 91.023438 27.550781 90.199219 25.878906 88.898438 24.734375 L 75.226562 33.125 C 76.492188 34.269531 77.292969 35.917969 77.292969 37.757812 L 77.292969 164.988281 L 91.023438 156.648438 Z M 91.023438 29.417969 " fill-opacity="1" fill-rule="nonzero"/><path fill="#000000" d="M 77.292969 165.613281 C 77.1875 165.613281 77.082031 165.585938 76.988281 165.535156 C 76.789062 165.421875 76.667969 165.214844 76.667969 164.988281 L 76.667969 37.757812 C 76.667969 36.175781 75.988281 34.65625 74.808594 33.589844 C 74.660156 33.457031 74.585938 33.261719 74.601562 33.066406 C 74.621094 32.871094 74.730469 32.695312 74.898438 32.59375 L 88.570312 24.203125 C 88.804688 24.058594 89.105469 24.082031 89.308594 24.265625 C 90.796875 25.570312 91.648438 27.449219 91.648438 29.417969 L 91.648438 156.648438 C 91.648438 156.867188 91.535156 157.070312 91.347656 157.183594 L 77.617188 165.523438 C 77.519531 165.582031 77.40625 165.613281 77.292969 165.613281 Z M 76.21875 33.246094 C 77.308594 34.492188 77.917969 36.097656 77.917969 37.757812 L 77.917969 163.878906 L 90.398438 156.300781 L 90.398438 29.417969 C 90.398438 27.960938 89.824219 26.5625 88.8125 25.519531 Z M 76.21875 33.246094 " fill-opacity="1" fill-rule="nonzero"/><path fill="#c2b092" d="M 84.773438 23.171875 L 60.417969 23.171875 C 59.238281 23.171875 58.140625 23.503906 57.199219 24.070312 L 57.199219 24.066406 L 44.285156 31.992188 C 45.023438 31.683594 45.835938 31.511719 46.6875 31.511719 L 71.046875 31.511719 C 72.65625 31.511719 74.117188 32.125 75.226562 33.125 L 88.898438 24.734375 C 87.796875 23.765625 86.355469 23.171875 84.773438 23.171875 Z M 84.773438 23.171875 " fill-opacity="1" fill-rule="nonzero"/><g clip-path="url(#dfc49e6db9)"><path fill="#000000" d="M 75.226562 33.75 C 75.074219 33.75 74.925781 33.695312 74.804688 33.589844 C 73.769531 32.652344 72.433594 32.136719 71.042969 32.136719 L 46.6875 32.136719 C 45.941406 32.136719 45.210938 32.28125 44.523438 32.570312 C 44.222656 32.695312 43.875 32.566406 43.726562 32.277344 C 43.578125 31.988281 43.679688 31.632812 43.957031 31.460938 L 56.871094 23.535156 C 56.894531 23.519531 56.921875 23.507812 56.945312 23.496094 C 58.003906 22.875 59.203125 22.546875 60.417969 22.546875 L 84.773438 22.546875 C 86.441406 22.546875 88.050781 23.15625 89.308594 24.265625 C 89.460938 24.394531 89.535156 24.589844 89.519531 24.789062 C 89.503906 24.984375 89.394531 25.164062 89.222656 25.265625 L 75.550781 33.65625 C 75.449219 33.71875 75.335938 33.75 75.226562 33.75 Z M 47.277344 30.886719 L 71.046875 30.886719 C 72.585938 30.886719 74.074219 31.40625 75.28125 32.355469 L 87.789062 24.679688 C 86.890625 24.105469 85.847656 23.796875 84.773438 23.796875 L 60.417969 23.796875 C 59.402344 23.796875 58.398438 24.078125 57.519531 24.605469 C 57.5 24.621094 57.480469 24.628906 57.457031 24.640625 Z M 47.277344 30.886719 " fill-opacity="1" fill-rule="nonzero"/></g><path fill="#c2b092" d="M 178.261719 156.648438 L 91.023438 156.648438 L 77.292969 164.988281 L 164.53125 164.988281 C 166.234375 164.988281 167.777344 165.671875 168.90625 166.777344 L 182.578125 158.386719 C 181.457031 157.3125 179.9375 156.648438 178.261719 156.648438 Z M 178.261719 156.648438 " fill-opacity="1" fill-rule="nonzero"/><path fill="#000000" d="M 168.90625 167.402344 C 168.746094 167.402344 168.589844 167.339844 168.46875 167.222656 C 167.410156 166.1875 166.011719 165.613281 164.53125 165.613281 L 77.292969 165.613281 C 77.011719 165.613281 76.765625 165.425781 76.691406 165.15625 C 76.617188 164.886719 76.730469 164.601562 76.96875 164.457031 L 90.699219 156.117188 C 90.796875 156.058594 90.90625 156.027344 91.023438 156.027344 L 178.261719 156.027344 C 180.035156 156.027344 181.722656 156.703125 183.011719 157.9375 C 183.148438 158.070312 183.21875 158.261719 183.199219 158.453125 C 183.179688 158.648438 183.070312 158.820312 182.90625 158.917969 L 169.234375 167.3125 C 169.132812 167.371094 169.019531 167.402344 168.90625 167.402344 Z M 79.523438 164.363281 L 164.53125 164.363281 C 166.175781 164.363281 167.738281 164.941406 168.980469 166 L 181.507812 158.3125 C 180.5625 157.636719 179.433594 157.273438 178.261719 157.273438 L 91.195312 157.273438 Z M 79.523438 164.363281 " fill-opacity="1" fill-rule="nonzero"/><path fill="#c2b092" d="M 182.578125 158.386719 L 168.90625 166.777344 C 170.0625 167.910156 170.78125 169.488281 170.78125 171.234375 L 170.78125 195.578125 C 170.78125 197.675781 169.742188 199.527344 168.152344 200.660156 L 168.15625 200.664062 L 181.671875 192.46875 L 181.667969 192.46875 C 183.378906 191.355469 184.507812 189.429688 184.507812 187.238281 L 184.507812 162.894531 C 184.507812 161.121094 183.765625 159.523438 182.578125 158.386719 Z M 182.578125 158.386719 " fill-opacity="1" fill-rule="nonzero"/><g clip-path="url(#ff71adffc6)"><path fill="#000000" d="M 168.15625 201.289062 C 167.96875 201.289062 167.785156 201.207031 167.664062 201.050781 C 167.558594 200.914062 167.511719 200.742188 167.535156 200.574219 C 167.558594 200.40625 167.652344 200.25 167.789062 200.152344 C 169.269531 199.097656 170.15625 197.386719 170.15625 195.578125 L 170.15625 171.234375 C 170.15625 169.714844 169.554688 168.289062 168.46875 167.222656 C 168.332031 167.089844 168.261719 166.898438 168.285156 166.707031 C 168.304688 166.515625 168.414062 166.347656 168.578125 166.246094 L 182.25 157.855469 C 182.492188 157.707031 182.804688 157.738281 183.011719 157.9375 C 184.378906 159.246094 185.132812 161.007812 185.132812 162.894531 L 185.132812 187.238281 C 185.132812 189.546875 183.984375 191.679688 182.058594 192.960938 C 182.039062 192.976562 182.015625 192.992188 181.996094 193.003906 L 168.480469 201.199219 C 168.378906 201.261719 168.265625 201.289062 168.15625 201.289062 Z M 169.875 166.914062 C 170.867188 168.132812 171.40625 169.640625 171.40625 171.234375 L 171.40625 195.578125 C 171.40625 196.527344 171.207031 197.457031 170.832031 198.3125 L 181.296875 191.964844 C 181.304688 191.957031 181.316406 191.953125 181.324219 191.945312 C 182.929688 190.902344 183.882812 189.140625 183.882812 187.238281 L 183.882812 162.894531 C 183.882812 161.511719 183.386719 160.210938 182.476562 159.183594 Z M 169.875 166.914062 " fill-opacity="1" fill-rule="nonzero"/></g></svg>