<svg xmlns="http://www.w3.org/2000/svg" xmlns:xlink="http://www.w3.org/1999/xlink" width="300" zoomAndPan="magnify" viewBox="0 0 224.87999 225" height="300" preserveAspectRatio="xMidYMid meet" version="1.0"><defs><clipPath id="136cf7480f"><path d="M 37.96875 22.546875 L 187 22.546875 L 187 202.453125 L 37.96875 202.453125 Z M 37.96875 22.546875 " clip-rule="nonzero"/></clipPath><clipPath id="a0dbe26b51"><path d="M 37.96875 30 L 173 30 L 173 202.453125 L 37.96875 202.453125 Z M 37.96875 30 " clip-rule="nonzero"/></clipPath><clipPath id="2bc9e4af89"><path d="M 41 22.546875 L 178 22.546875 L 178 135 L 41 135 Z M 41 22.546875 " clip-rule="nonzero"/></clipPath></defs><path fill="#000000" d="M 185.203125 184.464844 L 149.453125 126.050781 C 166.105469 116.148438 176.597656 98.039062 176.597656 78.492188 C 176.597656 47.992188 151.746094 23.179688 121.199219 23.179688 L 58.660156 23.179688 C 57.488281 23.179688 56.390625 23.507812 55.453125 24.066406 L 42.085938 31.578125 C 40.019531 32.605469 38.59375 34.726562 38.59375 37.1875 L 38.59375 195.546875 C 38.59375 199.007812 41.40625 201.816406 44.871094 201.816406 L 69.335938 201.816406 C 70.589844 201.816406 71.753906 201.445312 72.734375 200.8125 L 85.777344 193.484375 L 85.769531 193.484375 C 87.914062 192.484375 89.402344 190.324219 89.402344 187.808594 L 89.402344 141.542969 L 97.039062 141.542969 L 132.078125 198.746094 C 133.21875 200.605469 135.25 201.742188 137.433594 201.742188 L 166.054688 201.742188 C 167.308594 201.742188 168.4375 201.386719 169.382812 200.796875 L 169.386719 200.796875 L 183.042969 193.136719 L 183.039062 193.136719 C 185.882812 191.453125 187.132812 187.625 185.203125 184.464844 Z M 121.199219 96.84375 L 95.679688 96.84375 C 92.210938 96.84375 89.402344 94.039062 89.402344 90.578125 L 89.402344 67.878906 L 107.015625 67.878906 C 117.019531 67.878906 125.484375 75.695312 125.78125 85.675781 C 125.90625 89.820312 124.640625 93.667969 122.425781 96.800781 C 122.019531 96.824219 121.609375 96.84375 121.199219 96.84375 Z M 121.199219 96.84375 " fill-opacity="1" fill-rule="nonzero"/><g clip-path="url(#136cf7480f)"><path fill="#000000" d="M 69.335938 202.441406 L 44.871094 202.441406 C 41.066406 202.441406 37.96875 199.347656 37.96875 195.546875 L 37.96875 37.1875 C 37.96875 34.574219 39.417969 32.222656 41.757812 31.039062 C 41.765625 31.039062 41.773438 31.035156 41.777344 31.03125 L 55.144531 23.519531 C 55.152344 23.519531 55.15625 23.515625 55.164062 23.511719 C 56.226562 22.882812 57.4375 22.554688 58.660156 22.554688 L 121.199219 22.554688 C 152.089844 22.554688 177.222656 47.648438 177.222656 78.492188 C 177.222656 97.878906 166.929688 116.125 150.316406 126.261719 L 185.738281 184.140625 C 186.710938 185.726562 187 187.585938 186.554688 189.367188 C 186.113281 191.144531 184.96875 192.699219 183.414062 193.640625 C 183.394531 193.65625 183.371094 193.671875 183.351562 193.683594 L 169.691406 201.34375 C 169.683594 201.347656 169.671875 201.355469 169.660156 201.359375 C 168.585938 202.019531 167.339844 202.367188 166.058594 202.367188 L 137.433594 202.367188 C 135.046875 202.367188 132.789062 201.105469 131.542969 199.070312 L 96.6875 142.171875 L 90.03125 142.171875 L 90.03125 187.808594 C 90.03125 190.445312 88.496094 192.871094 86.109375 194.015625 C 86.101562 194.019531 86.09375 194.027344 86.085938 194.03125 L 73.042969 201.359375 C 73.035156 201.363281 73.027344 201.367188 73.019531 201.371094 C 71.914062 202.070312 70.640625 202.441406 69.335938 202.441406 Z M 42.4375 32.097656 C 42.414062 32.113281 42.390625 32.125 42.367188 32.140625 C 40.425781 33.101562 39.222656 35.035156 39.222656 37.1875 L 39.222656 195.546875 C 39.222656 198.65625 41.757812 201.1875 44.871094 201.1875 L 69.335938 201.1875 C 70.421875 201.1875 71.476562 200.875 72.394531 200.285156 C 72.421875 200.265625 72.453125 200.25 72.480469 200.238281 L 85.398438 192.976562 C 85.433594 192.953125 85.46875 192.933594 85.507812 192.914062 C 87.492188 191.992188 88.773438 189.984375 88.773438 187.808594 L 88.773438 141.542969 C 88.773438 141.199219 89.054688 140.917969 89.402344 140.917969 L 97.039062 140.917969 C 97.257812 140.917969 97.460938 141.03125 97.574219 141.21875 L 132.617188 198.417969 C 133.632812 200.082031 135.480469 201.113281 137.433594 201.113281 L 166.058594 201.113281 C 167.140625 201.113281 168.148438 200.828125 169.050781 200.265625 C 169.078125 200.246094 169.105469 200.234375 169.132812 200.21875 L 182.683594 192.621094 C 182.695312 192.609375 182.707031 192.601562 182.71875 192.59375 C 184.015625 191.828125 184.972656 190.542969 185.339844 189.0625 C 185.699219 187.609375 185.460938 186.09375 184.667969 184.792969 L 148.917969 126.378906 C 148.828125 126.234375 148.800781 126.0625 148.84375 125.898438 C 148.882812 125.738281 148.988281 125.597656 149.128906 125.511719 C 165.683594 115.667969 175.96875 97.652344 175.96875 78.492188 C 175.96875 48.339844 151.398438 23.808594 121.199219 23.808594 L 58.660156 23.808594 C 57.648438 23.808594 56.652344 24.082031 55.773438 24.605469 C 55.757812 24.613281 55.742188 24.625 55.726562 24.632812 Z M 121.199219 97.472656 L 95.679688 97.472656 C 91.871094 97.472656 88.773438 94.378906 88.773438 90.578125 L 88.773438 67.878906 C 88.773438 67.535156 89.054688 67.253906 89.402344 67.253906 L 107.015625 67.253906 C 112.039062 67.253906 116.816406 69.144531 120.46875 72.578125 C 124.152344 76.042969 126.261719 80.6875 126.410156 85.660156 C 126.53125 89.800781 125.332031 93.777344 122.9375 97.160156 C 122.828125 97.316406 122.65625 97.410156 122.464844 97.425781 C 121.984375 97.457031 121.582031 97.472656 121.199219 97.472656 Z M 90.03125 68.507812 L 90.03125 90.578125 C 90.03125 93.6875 92.5625 96.21875 95.679688 96.21875 L 121.199219 96.21875 C 121.472656 96.21875 121.757812 96.210938 122.082031 96.191406 C 124.207031 93.089844 125.265625 89.464844 125.152344 85.695312 C 124.871094 76.21875 116.734375 68.507812 107.015625 68.507812 Z M 90.03125 68.507812 " fill-opacity="1" fill-rule="nonzero"/></g><path fill="#ffffff" d="M 38.59375 195.546875 L 38.59375 37.1875 C 38.59375 33.726562 41.40625 30.921875 44.871094 30.921875 L 107.40625 30.921875 C 137.953125 30.921875 162.804688 55.734375 162.804688 86.234375 C 162.804688 105.78125 152.316406 123.890625 135.664062 133.792969 L 171.414062 192.207031 C 173.96875 196.382812 170.957031 201.742188 166.058594 201.742188 L 137.433594 201.742188 C 135.25 201.742188 133.21875 200.605469 132.078125 198.746094 L 97.039062 141.542969 L 75.613281 141.542969 L 75.613281 195.546875 C 75.613281 199.007812 72.800781 201.816406 69.335938 201.816406 L 44.871094 201.816406 C 41.40625 201.816406 38.59375 199.007812 38.59375 195.546875 Z M 107.40625 104.585938 C 117.730469 104.585938 126.089844 96.050781 125.78125 85.675781 C 125.484375 75.695312 117.019531 67.878906 107.015625 67.878906 L 81.886719 67.878906 C 78.421875 67.878906 75.613281 70.683594 75.613281 74.148438 L 75.613281 98.320312 C 75.613281 101.78125 78.421875 104.585938 81.886719 104.585938 Z M 107.40625 104.585938 " fill-opacity="1" fill-rule="nonzero"/><g clip-path="url(#a0dbe26b51)"><path fill="#000000" d="M 69.335938 202.441406 L 44.871094 202.441406 C 41.066406 202.441406 37.96875 199.347656 37.96875 195.546875 L 37.96875 37.1875 C 37.96875 33.386719 41.066406 30.292969 44.871094 30.292969 L 107.40625 30.292969 C 138.300781 30.292969 163.433594 55.386719 163.433594 86.234375 C 163.433594 105.621094 153.140625 123.867188 136.527344 134.003906 L 171.949219 191.882812 C 173.269531 194.039062 173.316406 196.640625 172.078125 198.847656 C 170.839844 201.050781 168.589844 202.367188 166.058594 202.367188 L 137.433594 202.367188 C 135.046875 202.367188 132.789062 201.105469 131.542969 199.070312 L 96.6875 142.171875 L 76.238281 142.171875 L 76.238281 195.546875 C 76.238281 199.347656 73.140625 202.441406 69.335938 202.441406 Z M 44.871094 31.546875 C 41.757812 31.546875 39.222656 34.078125 39.222656 37.1875 L 39.222656 195.546875 C 39.222656 198.65625 41.757812 201.1875 44.871094 201.1875 L 69.335938 201.1875 C 72.449219 201.1875 74.984375 198.65625 74.984375 195.546875 L 74.984375 141.542969 C 74.984375 141.199219 75.265625 140.917969 75.613281 140.917969 L 97.039062 140.917969 C 97.257812 140.917969 97.460938 141.03125 97.574219 141.21875 L 132.617188 198.417969 C 133.632812 200.082031 135.480469 201.113281 137.433594 201.113281 L 166.058594 201.113281 C 168.128906 201.113281 169.96875 200.039062 170.984375 198.234375 C 171.996094 196.429688 171.957031 194.300781 170.878906 192.535156 L 135.125 134.117188 C 135.039062 133.976562 135.011719 133.804688 135.054688 133.640625 C 135.09375 133.480469 135.195312 133.339844 135.339844 133.253906 C 151.894531 123.410156 162.179688 105.390625 162.179688 86.234375 C 162.179688 56.078125 137.609375 31.546875 107.40625 31.546875 Z M 107.40625 105.210938 L 81.886719 105.210938 C 78.082031 105.210938 74.984375 102.121094 74.984375 98.320312 L 74.984375 74.148438 C 74.984375 70.34375 78.082031 67.253906 81.886719 67.253906 L 107.015625 67.253906 C 112.039062 67.253906 116.816406 69.144531 120.46875 72.578125 C 124.152344 76.042969 126.261719 80.6875 126.410156 85.660156 C 126.5625 90.832031 124.65625 95.726562 121.042969 99.445312 C 117.425781 103.164062 112.585938 105.210938 107.40625 105.210938 Z M 81.886719 68.507812 C 78.773438 68.507812 76.238281 71.035156 76.238281 74.148438 L 76.238281 98.320312 C 76.238281 101.429688 78.773438 103.960938 81.886719 103.960938 L 107.410156 103.960938 C 112.242188 103.960938 116.765625 102.046875 120.140625 98.570312 C 123.519531 95.101562 125.296875 90.527344 125.152344 85.695312 C 124.871094 76.21875 116.734375 68.507812 107.015625 68.507812 Z M 81.886719 68.507812 " fill-opacity="1" fill-rule="nonzero"/></g><path fill="#c2b092" d="M 75.613281 195.546875 C 75.613281 197.757812 74.464844 199.695312 72.734375 200.8125 L 85.777344 193.484375 L 85.769531 193.484375 C 87.914062 192.484375 89.402344 190.324219 89.402344 187.808594 L 89.402344 141.542969 L 75.613281 141.542969 Z M 75.613281 195.546875 " fill-opacity="1" fill-rule="nonzero"/><path fill="#000000" d="M 72.734375 201.441406 C 72.53125 201.441406 72.332031 201.339844 72.210938 201.15625 C 72.117188 201.015625 72.085938 200.84375 72.121094 200.683594 C 72.15625 200.519531 72.253906 200.375 72.394531 200.285156 C 74.015625 199.238281 74.984375 197.46875 74.984375 195.546875 L 74.984375 141.542969 C 74.984375 141.199219 75.265625 140.917969 75.613281 140.917969 L 89.402344 140.917969 C 89.75 140.917969 90.03125 141.199219 90.03125 141.542969 L 90.03125 187.808594 C 90.03125 190.445312 88.496094 192.871094 86.109375 194.015625 C 86.101562 194.019531 86.09375 194.027344 86.085938 194.03125 L 73.042969 201.359375 C 72.945312 201.414062 72.839844 201.441406 72.734375 201.441406 Z M 76.238281 142.171875 L 76.238281 195.546875 C 76.238281 196.585938 76.007812 197.589844 75.578125 198.5 L 85.398438 192.976562 C 85.433594 192.953125 85.46875 192.933594 85.507812 192.914062 C 87.492188 191.992188 88.773438 189.984375 88.773438 187.804688 L 88.773438 142.171875 Z M 76.238281 142.171875 " fill-opacity="1" fill-rule="nonzero"/><path fill="#c2b092" d="M 89.402344 90.578125 L 89.402344 67.878906 L 81.886719 67.878906 C 78.421875 67.878906 75.613281 70.6875 75.613281 74.148438 L 75.613281 98.320312 C 75.613281 99.996094 76.277344 101.515625 77.351562 102.640625 L 91.09375 94.847656 C 90.046875 93.730469 89.402344 92.230469 89.402344 90.578125 Z M 89.402344 90.578125 " fill-opacity="1" fill-rule="nonzero"/><path fill="#000000" d="M 77.351562 103.269531 C 77.183594 103.269531 77.019531 103.199219 76.898438 103.074219 C 75.664062 101.78125 74.984375 100.09375 74.984375 98.320312 L 74.984375 74.148438 C 74.984375 70.347656 78.082031 67.253906 81.886719 67.253906 L 89.402344 67.253906 C 89.75 67.253906 90.027344 67.535156 90.027344 67.878906 L 90.027344 90.578125 C 90.027344 92.003906 90.570312 93.371094 91.550781 94.421875 C 91.683594 94.5625 91.742188 94.753906 91.714844 94.941406 C 91.683594 95.132812 91.570312 95.296875 91.402344 95.394531 L 77.660156 103.1875 C 77.5625 103.242188 77.457031 103.269531 77.351562 103.269531 Z M 81.886719 68.507812 C 78.773438 68.507812 76.238281 71.035156 76.238281 74.148438 L 76.238281 98.320312 C 76.238281 99.609375 76.679688 100.84375 77.484375 101.84375 L 90.132812 94.671875 C 89.25 93.488281 88.773438 92.0625 88.773438 90.578125 L 88.773438 68.507812 Z M 81.886719 68.507812 " fill-opacity="1" fill-rule="nonzero"/><path fill="#c2b092" d="M 121.199219 96.84375 L 95.679688 96.84375 C 93.867188 96.84375 92.238281 96.074219 91.09375 94.847656 L 77.351562 102.640625 C 78.492188 103.835938 80.101562 104.585938 81.886719 104.585938 L 107.40625 104.585938 C 113.605469 104.585938 119.09375 101.503906 122.425781 96.796875 C 122.019531 96.824219 121.609375 96.84375 121.199219 96.84375 Z M 121.199219 96.84375 " fill-opacity="1" fill-rule="nonzero"/><path fill="#000000" d="M 107.40625 105.210938 L 81.886719 105.210938 C 79.988281 105.210938 78.214844 104.453125 76.898438 103.074219 C 76.761719 102.933594 76.703125 102.742188 76.730469 102.550781 C 76.757812 102.359375 76.871094 102.191406 77.039062 102.097656 L 90.785156 94.304688 C 91.035156 94.160156 91.355469 94.207031 91.550781 94.421875 C 92.636719 95.578125 94.101562 96.21875 95.679688 96.21875 L 121.199219 96.21875 C 121.554688 96.21875 121.929688 96.203125 122.382812 96.175781 C 122.625 96.15625 122.855469 96.28125 122.972656 96.492188 C 123.089844 96.703125 123.078125 96.964844 122.9375 97.160156 C 119.367188 102.203125 113.5625 105.210938 107.40625 105.210938 Z M 78.410156 102.761719 C 79.402344 103.539062 80.609375 103.957031 81.886719 103.957031 L 107.40625 103.957031 C 112.722656 103.957031 117.757812 101.554688 121.121094 97.472656 L 95.679688 97.472656 C 93.945312 97.472656 92.261719 96.804688 90.988281 95.628906 Z M 78.410156 102.761719 " fill-opacity="1" fill-rule="nonzero"/><path fill="#c2b092" d="M 176.597656 78.492188 C 176.597656 47.992188 151.746094 23.179688 121.199219 23.179688 L 58.660156 23.179688 C 57.488281 23.179688 56.390625 23.507812 55.453125 24.066406 L 42.085938 31.578125 C 42.925781 31.160156 43.871094 30.921875 44.871094 30.921875 L 107.40625 30.921875 C 137.953125 30.921875 162.804688 55.734375 162.804688 86.234375 C 162.804688 105.78125 152.316406 123.890625 135.664062 133.792969 C 135.664062 133.792969 143.113281 130.449219 149.453125 126.050781 C 166.105469 116.148438 176.597656 98.039062 176.597656 78.492188 Z M 176.597656 78.492188 " fill-opacity="1" fill-rule="nonzero"/><g clip-path="url(#2bc9e4af89)"><path fill="#000000" d="M 135.664062 134.417969 C 135.433594 134.417969 135.21875 134.292969 135.105469 134.082031 C 134.953125 133.785156 135.054688 133.421875 135.339844 133.253906 C 151.894531 123.410156 162.179688 105.390625 162.179688 86.234375 C 162.179688 56.078125 137.609375 31.546875 107.40625 31.546875 L 44.871094 31.546875 C 44 31.546875 43.15625 31.746094 42.367188 32.140625 C 42.199219 32.222656 42.007812 32.226562 41.839844 32.152344 C 41.667969 32.082031 41.539062 31.9375 41.484375 31.761719 C 41.398438 31.480469 41.519531 31.175781 41.777344 31.03125 L 55.144531 23.519531 C 55.148438 23.519531 55.15625 23.515625 55.164062 23.511719 C 56.226562 22.882812 57.4375 22.554688 58.660156 22.554688 L 121.199219 22.554688 C 152.089844 22.554688 177.222656 47.648438 177.222656 78.492188 C 177.222656 98.082031 166.714844 116.507812 149.792969 126.578125 C 143.484375 130.949219 135.996094 134.328125 135.917969 134.363281 C 135.835938 134.402344 135.75 134.417969 135.664062 134.417969 Z M 45.648438 30.292969 L 107.40625 30.292969 C 138.300781 30.292969 163.433594 55.386719 163.433594 86.234375 C 163.433594 102.851562 155.871094 118.632812 143.246094 129.183594 C 145.140625 128.105469 147.175781 126.867188 149.09375 125.535156 C 149.105469 125.527344 149.117188 125.519531 149.132812 125.511719 C 165.683594 115.667969 175.96875 97.652344 175.96875 78.492188 C 175.96875 48.339844 151.398438 23.808594 121.199219 23.808594 L 58.660156 23.808594 C 57.648438 23.808594 56.652344 24.082031 55.773438 24.605469 C 55.757812 24.613281 55.742188 24.625 55.726562 24.632812 Z M 45.648438 30.292969 " fill-opacity="1" fill-rule="nonzero"/></g><path fill="#c2b092" d="M 185.203125 184.464844 L 149.453125 126.050781 C 143.113281 130.449219 135.664062 133.792969 135.664062 133.792969 L 171.414062 192.207031 C 173.3125 195.316406 172.132812 199.074219 169.382812 200.796875 L 169.386719 200.796875 L 183.042969 193.136719 L 183.039062 193.136719 C 185.882812 191.453125 187.132812 187.625 185.203125 184.464844 Z M 185.203125 184.464844 " fill-opacity="1" fill-rule="nonzero"/><path fill="#000000" d="M 169.386719 201.425781 C 169.230469 201.425781 169.082031 201.367188 168.960938 201.257812 C 168.816406 201.125 168.742188 200.933594 168.757812 200.738281 C 168.777344 200.542969 168.882812 200.367188 169.050781 200.265625 C 171.328125 198.835938 172.675781 195.472656 170.875 192.535156 L 135.125 134.117188 C 135.03125 133.964844 135.007812 133.777344 135.0625 133.605469 C 135.117188 133.433594 135.242188 133.292969 135.40625 133.21875 C 135.480469 133.1875 142.878906 129.847656 149.09375 125.535156 C 149.234375 125.4375 149.414062 125.402344 149.582031 125.4375 C 149.75 125.472656 149.898438 125.578125 149.988281 125.722656 L 185.738281 184.140625 C 186.710938 185.726562 187 187.582031 186.554688 189.367188 C 186.113281 191.144531 184.96875 192.699219 183.414062 193.640625 C 183.394531 193.65625 183.371094 193.671875 183.351562 193.683594 L 169.691406 201.34375 C 169.597656 201.398438 169.492188 201.425781 169.386719 201.425781 Z M 136.566406 134.066406 L 171.949219 191.882812 C 173.207031 193.9375 173.246094 196.417969 172.269531 198.460938 L 182.683594 192.617188 C 182.695312 192.609375 182.707031 192.601562 182.71875 192.59375 C 184.015625 191.828125 184.972656 190.539062 185.339844 189.0625 C 185.699219 187.609375 185.460938 186.09375 184.667969 184.792969 L 149.261719 126.941406 C 144.160156 130.398438 138.453125 133.175781 136.566406 134.066406 Z M 136.566406 134.066406 " fill-opacity="1" fill-rule="nonzero"/></svg>