<svg xmlns="http://www.w3.org/2000/svg" xmlns:xlink="http://www.w3.org/1999/xlink" width="200" zoomAndPan="magnify" viewBox="0 0 150 149.999998" height="200" preserveAspectRatio="xMidYMid meet" version="1.0"><defs><clipPath id="9f0a087dd1"><path d="M 15 18 L 136.5 18 L 136.5 131.886719 L 15 131.886719 Z M 15 18 " clip-rule="nonzero"/></clipPath></defs><g clip-path="url(#9f0a087dd1)"><path fill="#000000" d="M 101.160156 118.886719 C 101.160156 118.886719 101.160156 118.890625 101.15625 118.890625 C 101.152344 118.890625 101.148438 118.894531 101.140625 118.894531 C 101.0625 118.933594 92.734375 122.664062 75.160156 122.664062 C 57.632812 122.664062 49.363281 118.441406 49.285156 118.398438 C 49.277344 118.394531 49.265625 118.394531 49.257812 118.386719 C 49.253906 118.386719 49.246094 118.378906 49.238281 118.375 C 29.925781 108.992188 20.289062 83.972656 18.296875 69.078125 C 27.035156 75.789062 51.988281 79.355469 75.75 79.355469 C 99.511719 79.355469 124.46875 75.785156 133.207031 69.074219 C 131.097656 84.859375 120.398438 110.3125 101.160156 118.886719 Z M 100.3125 124.292969 C 99.277344 125.28125 94.082031 129.042969 75.179688 129.042969 C 56.136719 129.042969 51.003906 125.226562 50.042969 124.308594 L 50.042969 121.820312 C 53.605469 123.164062 61.761719 125.519531 75.160156 125.519531 C 88.628906 125.519531 96.792969 123.421875 100.3125 122.25 Z M 75.75 50.980469 C 84.476562 50.980469 92.523438 51.421875 99.671875 52.179688 C 99.371094 52.671875 99.070312 53.167969 98.765625 53.664062 C 96.097656 53.398438 93.375 53.183594 90.664062 53.011719 C 89.496094 52.054688 88.023438 51.46875 86.4375 51.441406 C 86.394531 51.4375 86.351562 51.4375 86.3125 51.4375 C 84.90625 51.4375 83.582031 51.882812 82.476562 52.632812 C 79.957031 52.558594 77.503906 52.519531 75.179688 52.519531 C 74.445312 52.519531 73.691406 52.523438 72.929688 52.53125 C 69.945312 50.929688 67.050781 52.234375 66.203125 52.691406 C 62.785156 52.816406 59.273438 53.011719 55.792969 53.289062 C 54.796875 52.871094 53.703125 52.671875 52.582031 52.765625 C 51.351562 52.859375 50.214844 53.269531 49.234375 53.914062 C 44.773438 54.417969 40.53125 55.066406 36.808594 55.878906 C 35.402344 55.804688 34.050781 56.230469 33.042969 56.808594 C 27.070312 58.484375 23.160156 60.710938 23.160156 63.585938 C 23.160156 71.707031 54.265625 74.652344 75.179688 74.652344 C 96.089844 74.652344 127.199219 71.707031 127.199219 63.585938 C 127.199219 59.679688 119.988281 56.972656 110.1875 55.210938 C 110.53125 54.738281 110.875 54.269531 111.21875 53.800781 C 125.199219 56.320312 133.601562 60.152344 133.601562 63.742188 C 133.601562 69.777344 109.84375 76.503906 75.75 76.503906 C 41.65625 76.503906 17.898438 69.777344 17.898438 63.742188 C 17.898438 57.703125 41.65625 50.980469 75.75 50.980469 Z M 108.105469 65.722656 C 108.25 65.765625 108.390625 65.789062 108.535156 65.789062 C 109.140625 65.789062 109.707031 65.398438 109.898438 64.789062 C 109.921875 64.710938 110 64.484375 110.136719 64.175781 C 110.554688 63.214844 111.546875 61.476562 113.390625 60.964844 C 113.804688 60.847656 114.769531 60.582031 115.78125 61.042969 C 116.980469 61.59375 117.441406 62.851562 117.574219 63.300781 C 117.59375 63.375 117.605469 63.429688 117.613281 63.449219 C 117.789062 64.21875 118.550781 64.703125 119.328125 64.523438 C 120.097656 64.347656 120.578125 63.582031 120.402344 62.8125 C 120.304688 62.386719 119.996094 61.359375 119.261719 60.351562 C 122.625 61.511719 124.339844 62.675781 124.339844 63.585938 C 124.339844 66.453125 107.453125 71.800781 75.179688 71.800781 C 42.902344 71.800781 26.019531 66.453125 26.019531 63.585938 C 26.019531 62.785156 27.34375 61.785156 29.953125 60.765625 C 29.675781 61.667969 29.621094 62.378906 29.613281 62.542969 C 29.578125 63.332031 30.1875 64 30.976562 64.039062 C 31 64.039062 31.023438 64.039062 31.046875 64.039062 C 31.804688 64.039062 32.4375 63.441406 32.472656 62.679688 C 32.476562 62.664062 32.484375 62.570312 32.496094 62.453125 C 32.570312 61.855469 32.910156 60.183594 34.445312 59.292969 C 34.761719 59.105469 36.417969 58.230469 37.890625 59.082031 C 39.277344 59.882812 39.441406 61.585938 39.449219 61.65625 C 39.449219 61.664062 39.453125 61.675781 39.453125 61.6875 C 39.539062 62.457031 40.234375 63.015625 41 62.953125 C 41.785156 62.882812 42.367188 62.191406 42.300781 61.40625 C 42.261719 61.003906 42.046875 59.367188 40.886719 57.945312 C 42.628906 57.632812 44.523438 57.335938 46.5625 57.0625 C 46.246094 57.769531 46.027344 58.535156 45.941406 59.34375 C 45.855469 60.128906 46.421875 60.832031 47.207031 60.914062 C 47.996094 61.015625 48.703125 60.433594 48.785156 59.648438 C 48.792969 59.601562 48.808594 59.554688 48.8125 59.503906 C 49.109375 57.425781 50.789062 55.761719 52.792969 55.613281 C 55.074219 55.4375 57.125 57.203125 57.449219 59.554688 C 57.457031 59.605469 57.476562 59.65625 57.480469 59.710938 C 57.558594 60.445312 58.179688 60.988281 58.90625 60.988281 C 58.953125 60.988281 59.003906 60.988281 59.054688 60.984375 C 59.839844 60.902344 60.410156 60.199219 60.328125 59.417969 C 60.191406 58.097656 59.703125 56.886719 58.984375 55.863281 C 60.421875 55.773438 61.910156 55.691406 63.445312 55.625 C 62.945312 56.617188 62.765625 57.507812 62.710938 57.90625 C 62.601562 58.683594 63.148438 59.40625 63.929688 59.515625 C 63.996094 59.527344 64.0625 59.53125 64.132812 59.53125 C 64.832031 59.53125 65.445312 59.015625 65.546875 58.300781 C 65.550781 58.25 65.570312 58.15625 65.59375 58.042969 C 65.726562 57.433594 66.15625 56.078125 67.476562 55.25 C 67.5625 55.195312 69.613281 53.972656 71.601562 55.058594 C 72.960938 55.796875 73.4375 57.136719 73.582031 57.699219 C 73.605469 57.785156 73.621094 57.859375 73.628906 57.90625 C 73.777344 58.679688 74.535156 59.1875 75.300781 59.035156 C 76.078125 58.890625 76.589844 58.140625 76.441406 57.367188 C 76.371094 57.007812 76.171875 56.234375 75.71875 55.375 C 77.207031 55.375 78.660156 55.390625 80.082031 55.417969 C 79.75 56.109375 79.523438 56.863281 79.441406 57.664062 C 79.359375 58.449219 79.929688 59.152344 80.71875 59.230469 C 80.765625 59.238281 80.816406 59.238281 80.867188 59.238281 C 81.589844 59.238281 82.210938 58.691406 82.289062 57.960938 C 82.292969 57.90625 82.3125 57.855469 82.320312 57.800781 C 82.609375 55.785156 84.339844 54.277344 86.382812 54.292969 C 88.328125 54.324219 89.972656 55.792969 90.289062 57.726562 C 90.296875 57.78125 90.316406 57.832031 90.324219 57.886719 C 90.417969 58.667969 91.144531 59.214844 91.917969 59.128906 C 92.699219 59.035156 93.261719 58.324219 93.164062 57.542969 C 93.097656 56.988281 92.957031 56.460938 92.769531 55.960938 C 94.285156 56.066406 95.746094 56.1875 97.152344 56.316406 C 96.261719 57.78125 95.375 59.246094 94.5 60.699219 C 94.339844 60.964844 94.285156 61.269531 94.3125 61.566406 C 93.589844 61.613281 92.796875 61.769531 91.984375 62.105469 C 88.082031 63.710938 87.273438 67.875 87.195312 68.347656 C 87.066406 69.125 87.589844 69.859375 88.367188 69.992188 C 88.449219 70.003906 88.527344 70.011719 88.609375 70.011719 C 89.292969 70.011719 89.898438 69.515625 90.015625 68.820312 C 90.023438 68.796875 90.042969 68.664062 90.097656 68.464844 C 90.316406 67.628906 91.046875 65.574219 93.074219 64.742188 C 94.425781 64.183594 95.703125 64.433594 96.34375 64.628906 C 98.320312 65.238281 99.296875 66.929688 99.652344 67.691406 C 99.734375 67.863281 99.792969 68.003906 99.8125 68.058594 C 100.085938 68.796875 100.90625 69.175781 101.648438 68.910156 C 102.390625 68.636719 102.773438 67.816406 102.503906 67.078125 C 102.3125 66.550781 101.386719 64.324219 99.191406 62.859375 L 103.851562 62.859375 C 104.304688 62.859375 104.734375 62.644531 105.003906 62.277344 C 106.113281 60.773438 107.226562 59.257812 108.335938 57.746094 C 109.628906 57.964844 110.847656 58.195312 111.988281 58.429688 C 108.65625 59.71875 107.398438 63.210938 107.167969 63.933594 C 106.929688 64.683594 107.351562 65.484375 108.105469 65.722656 Z M 119.265625 26.195312 C 120.546875 24.285156 122.167969 22.6875 123.710938 21.808594 C 124.929688 21.113281 126 20.917969 126.566406 21.300781 C 127.699219 22.054688 127.585938 25.777344 124.820312 29.898438 C 123.347656 32.09375 113.179688 46.371094 103.128906 60.007812 L 98.257812 60.007812 C 107.640625 44.503906 117.722656 28.503906 119.265625 26.195312 Z M 113.050781 51.28125 C 120.164062 41.484375 126.097656 33.128906 127.203125 31.484375 C 130.6875 26.285156 131.097656 20.886719 128.160156 18.929688 L 128.15625 18.929688 C 126.625 17.90625 124.539062 18.050781 122.289062 19.332031 C 120.347656 20.4375 118.429688 22.3125 116.886719 24.613281 C 115.632812 26.480469 108.820312 37.273438 101.296875 49.523438 C 93.179688 48.601562 84.386719 48.128906 75.75 48.128906 C 46.316406 48.128906 15.035156 53.597656 15.035156 63.742188 C 15.035156 77.492188 24.753906 109.015625 47.183594 120.539062 L 47.183594 124.8125 C 47.183594 125.058594 47.246094 125.300781 47.367188 125.515625 C 47.738281 126.167969 51.660156 131.898438 75.179688 131.898438 C 98.699219 131.898438 102.621094 126.167969 102.992188 125.515625 C 103.113281 125.300781 103.175781 125.058594 103.175781 124.8125 L 103.175781 121.101562 C 126.402344 110.09375 136.460938 77.941406 136.460938 63.742188 C 136.460938 58.089844 126.746094 53.890625 113.050781 51.28125 " fill-opacity="1" fill-rule="nonzero"/></g><path fill="#000000" d="M 66.308594 63.820312 C 64.523438 62.3125 62 61.917969 59.882812 62.8125 C 57.625 63.769531 56.148438 65.992188 56.117188 68.476562 C 56.109375 69.265625 56.738281 69.914062 57.53125 69.921875 C 57.535156 69.921875 57.542969 69.921875 57.546875 69.921875 C 58.332031 69.921875 58.96875 69.292969 58.976562 68.511719 C 58.976562 68.5 58.980469 68.492188 58.980469 68.480469 C 59.011719 67.140625 59.796875 65.945312 61 65.441406 C 62.371094 64.855469 63.722656 65.375 64.460938 65.996094 C 65.382812 66.777344 65.628906 67.867188 65.691406 68.402344 C 65.699219 68.441406 65.703125 68.484375 65.707031 68.519531 C 65.78125 69.300781 66.488281 69.871094 67.265625 69.804688 C 68.054688 69.730469 68.632812 69.035156 68.554688 68.25 C 68.480469 67.421875 68.105469 65.335938 66.308594 63.820312 " fill-opacity="1" fill-rule="nonzero"/><path fill="#000000" d="M 52.136719 63.613281 C 49.175781 60.984375 45.257812 62.363281 44.824219 62.53125 C 42.554688 63.394531 41.328125 65.125 40.800781 66.082031 C 40.417969 66.773438 40.667969 67.640625 41.363281 68.019531 C 42.050781 68.398438 42.921875 68.148438 43.308594 67.460938 C 43.386719 67.316406 43.488281 67.148438 43.617188 66.96875 C 44.042969 66.359375 44.753906 65.609375 45.84375 65.195312 C 45.871094 65.183594 48.507812 64.210938 50.234375 65.746094 C 51 66.425781 51.304688 67.3125 51.421875 67.933594 C 51.449219 68.058594 51.464844 68.179688 51.480469 68.28125 C 51.5625 69.007812 52.179688 69.542969 52.898438 69.542969 C 52.953125 69.542969 53.007812 69.539062 53.0625 69.535156 C 53.847656 69.445312 54.410156 68.738281 54.320312 67.957031 C 54.207031 66.957031 53.769531 65.0625 52.136719 63.613281 " fill-opacity="1" fill-rule="nonzero"/><path fill="#000000" d="M 81.550781 61.386719 C 79.746094 60.34375 77.472656 60.390625 75.3125 61.523438 C 72.59375 62.941406 71.800781 65.609375 71.625 66.394531 C 71.449219 67.160156 71.929688 67.925781 72.703125 68.097656 C 72.808594 68.125 72.914062 68.136719 73.019531 68.136719 C 73.671875 68.136719 74.261719 67.6875 74.414062 67.023438 C 74.429688 66.957031 74.464844 66.828125 74.515625 66.671875 C 74.726562 66.027344 75.289062 64.753906 76.640625 64.046875 C 77.386719 63.65625 78.828125 63.109375 80.113281 63.855469 C 81.457031 64.632812 81.65625 66.234375 81.683594 66.503906 C 81.683594 66.523438 81.6875 66.554688 81.6875 66.5625 C 81.734375 67.347656 82.398438 67.9375 83.203125 67.894531 C 83.992188 67.847656 84.59375 67.167969 84.542969 66.382812 C 84.519531 66.035156 84.25 62.953125 81.550781 61.386719 " fill-opacity="1" fill-rule="nonzero"/></svg>