<svg xmlns="http://www.w3.org/2000/svg" xmlns:xlink="http://www.w3.org/1999/xlink" width="200" zoomAndPan="magnify" viewBox="0 0 150 112.499997" height="150" preserveAspectRatio="xMidYMid meet" version="1.0"><defs><clipPath id="6b2438793c"><path d="M 46.03125 9.574219 L 104.125 9.574219 L 104.125 102.160156 L 46.03125 102.160156 Z M 46.03125 9.574219 " clip-rule="nonzero"/></clipPath></defs><g clip-path="url(#6b2438793c)"><path fill="#2ab9e4" d="M 62.761719 54.332031 C 62.773438 54.292969 62.78125 54.257812 62.789062 54.222656 C 62.796875 54.238281 62.804688 54.257812 62.8125 54.277344 C 62.796875 54.292969 62.78125 54.3125 62.761719 54.332031 Z M 70.910156 45.863281 C 70.902344 45.898438 70.886719 45.933594 70.875 45.972656 C 70.824219 45.9375 70.773438 45.90625 70.71875 45.875 C 70.699219 45.851562 70.675781 45.832031 70.65625 45.808594 C 70.742188 45.824219 70.828125 45.84375 70.910156 45.863281 Z M 102.398438 10.367188 C 99.96875 8.570312 96.617188 10.167969 94.542969 11.742188 C 92.128906 13.570312 90.296875 16.019531 88.785156 18.613281 C 87.125 21.46875 85.753906 24.503906 84.503906 27.554688 C 82.421875 32.625 80.808594 37.886719 79.683594 43.25 C 78.675781 42.90625 78.113281 43.855469 77.851562 44.683594 C 77.773438 44.683594 77.699219 44.703125 77.640625 44.75 C 77.503906 44.863281 77.539062 45.03125 77.589844 45.183594 C 77.613281 45.253906 77.636719 45.324219 77.664062 45.394531 C 77.632812 45.519531 77.601562 45.640625 77.574219 45.765625 C 77.519531 45.738281 77.460938 45.710938 77.402344 45.683594 C 76.441406 44.804688 75.128906 44.304688 73.8125 44.375 C 73.675781 44.109375 73.476562 43.886719 73.195312 43.746094 C 72.496094 43.402344 71.96875 43.746094 71.605469 44.261719 C 71.589844 44.246094 71.574219 44.226562 71.554688 44.214844 C 71.417969 44.101562 71.210938 44.078125 71.085938 44.183594 C 70.949219 44.296875 70.984375 44.464844 71.035156 44.617188 C 71.082031 44.761719 71.136719 44.910156 71.191406 45.054688 C 71.183594 45.074219 71.175781 45.097656 71.167969 45.117188 C 71.132812 45.210938 71.101562 45.304688 71.070312 45.398438 C 70.984375 45.347656 70.902344 45.300781 70.820312 45.253906 C 70.574219 45.113281 70.179688 45.027344 70.023438 45.253906 C 69.832031 45.113281 69.632812 44.988281 69.425781 44.875 C 67.8125 40.164062 66.199219 35.453125 64.589844 30.742188 C 63.539062 27.671875 62.5625 24.558594 61.382812 21.535156 C 60.394531 18.992188 59.167969 16.46875 57.21875 14.507812 C 55.363281 12.644531 52.761719 11.316406 50.0625 11.785156 C 48.765625 12.007812 47.625 12.777344 46.921875 13.882812 C 46.214844 14.996094 46.007812 16.371094 46.035156 17.667969 C 46.0625 19.097656 46.347656 20.53125 46.675781 21.917969 C 47.03125 23.433594 47.5 24.925781 48.054688 26.382812 C 49.167969 29.289062 50.613281 32.0625 52.292969 34.683594 C 55.332031 39.421875 59.082031 43.644531 62.96875 47.707031 C 62.457031 47.511719 61.914062 47.441406 61.4375 47.71875 C 60.421875 48.316406 60.960938 49.449219 61.496094 50.15625 C 61.679688 50.394531 61.867188 50.628906 62.058594 50.863281 C 62.003906 50.886719 61.949219 50.914062 61.894531 50.941406 C 60.515625 51.171875 59.234375 52 58.53125 53.222656 C 58.226562 53.75 58.617188 54.367188 59.203125 54.390625 C 59.851562 54.417969 60.488281 54.394531 61.121094 54.320312 C 61.082031 54.4375 61.078125 54.570312 61.128906 54.703125 C 61.164062 54.789062 61.296875 54.8125 61.367188 54.761719 C 61.65625 54.554688 61.941406 54.347656 62.230469 54.136719 C 62.253906 54.132812 62.273438 54.128906 62.296875 54.125 C 62.175781 54.355469 62.058594 54.589844 61.941406 54.820312 C 61.863281 54.972656 61.742188 55.136719 61.75 55.308594 C 61.75 55.378906 61.777344 55.449219 61.824219 55.507812 C 61.128906 56.464844 60.539062 57.488281 60.0625 58.558594 C 58.625 61.785156 58.171875 65.609375 59.402344 68.953125 C 60.671875 72.390625 63.691406 74.675781 67.304688 75.921875 C 68.335938 76.277344 69.40625 76.558594 70.5 76.765625 C 68.847656 79.183594 67.589844 81.847656 66.761719 84.636719 C 66.679688 84.910156 66.601562 85.1875 66.527344 85.460938 C 66.46875 85.679688 66.414062 85.894531 66.363281 86.113281 C 66.339844 86.15625 66.324219 86.199219 66.308594 86.25 C 65.894531 87.644531 65.5625 89.054688 65.3125 90.484375 C 64.941406 90.113281 64.550781 89.761719 64.144531 89.441406 C 62.867188 88.441406 61.039062 87.824219 59.542969 88.75 C 58.277344 89.535156 57.902344 91.140625 58.15625 92.527344 C 58.195312 93.515625 58.765625 94.542969 59.304688 95.339844 C 60.417969 96.988281 61.746094 98.511719 63.273438 99.792969 C 64.03125 100.425781 64.839844 101 65.6875 101.503906 C 66.292969 101.867188 66.984375 102.191406 67.707031 102.167969 C 68.539062 102.140625 69.003906 101.714844 69.246094 101.125 C 69.25 101.125 69.257812 101.128906 69.261719 101.128906 C 69.261719 101.125 69.261719 101.117188 69.261719 101.109375 C 69.539062 101.210938 69.820312 101.277344 70.109375 101.308594 C 70.109375 101.316406 70.109375 101.324219 70.109375 101.332031 C 71.445312 101.589844 72.859375 101.609375 74.195312 101.632812 C 75.777344 101.660156 77.386719 101.621094 78.964844 101.410156 C 79.894531 101.433594 80.832031 101.328125 81.753906 101.179688 C 82.210938 101.207031 82.667969 101.125 83.085938 100.9375 C 83.410156 100.867188 83.726562 100.78125 84.035156 100.671875 C 84.054688 100.699219 84.078125 100.726562 84.101562 100.753906 C 85.433594 102.226562 87.164062 100.636719 88.089844 99.558594 C 90.320312 96.953125 91.714844 93.296875 91.605469 89.851562 C 91.554688 88.234375 90.851562 86.449219 89.175781 85.90625 C 88.164062 85.578125 87.121094 85.867188 86.277344 86.453125 C 86.148438 86.089844 86.007812 85.726562 85.855469 85.367188 C 85.746094 85.105469 85.628906 84.839844 85.503906 84.582031 C 85.355469 84.265625 85.199219 83.949219 85.03125 83.640625 C 84.609375 82.597656 84.132812 81.578125 83.609375 80.582031 C 83.601562 80.570312 83.59375 80.558594 83.589844 80.546875 C 82.859375 79.035156 82.019531 77.582031 81.078125 76.195312 C 83.945312 75.207031 86.417969 73.445312 88.257812 71.164062 C 90.324219 68.601562 91.488281 65.371094 91.304688 62.167969 C 91.152344 59.546875 90.179688 57.007812 88.582031 54.847656 C 88.667969 54.308594 88.515625 53.710938 88.242188 53.230469 C 88.066406 52.914062 87.855469 52.632812 87.617188 52.375 C 87.964844 52.191406 88.296875 51.984375 88.613281 51.738281 C 89.28125 51.21875 90.140625 50.425781 89.953125 49.492188 C 89.71875 48.320312 88.457031 48.441406 87.585938 48.714844 C 87.566406 48.617188 87.496094 48.527344 87.378906 48.484375 C 87.015625 48.347656 86.804688 48.699219 86.652344 48.890625 C 86.652344 48.875 86.648438 48.859375 86.648438 48.839844 C 86.796875 47.988281 86.714844 47.09375 86.417969 46.28125 C 89.085938 42.804688 91.921875 39.445312 94.546875 35.9375 C 98.457031 30.71875 101.980469 24.984375 103.492188 18.589844 C 104.105469 16.003906 104.921875 12.238281 102.398438 10.367188 " fill-opacity="1" fill-rule="nonzero"/></g><path fill="#cceddf" d="M 76 51.859375 C 76.082031 51.84375 76.164062 51.824219 76.246094 51.804688 C 76.191406 51.695312 76.140625 51.589844 76.085938 51.484375 C 76.058594 51.609375 76.03125 51.734375 76 51.859375 " fill-opacity="1" fill-rule="nonzero"/><path fill="#cceddf" d="M 75.324219 51.917969 C 75.421875 51.722656 75.519531 51.527344 75.621094 51.332031 C 75.390625 51.5 75.160156 51.667969 74.929688 51.832031 C 75.054688 51.878906 75.1875 51.90625 75.324219 51.917969 " fill-opacity="1" fill-rule="nonzero"/><path fill="#cceddf" d="M 89.953125 49.492188 C 89.71875 48.320312 88.457031 48.441406 87.585938 48.714844 C 87.589844 48.738281 87.59375 48.765625 87.589844 48.792969 C 87.574219 48.941406 87.429688 49.046875 87.3125 49.148438 C 87.074219 49.359375 86.832031 49.574219 86.59375 49.785156 C 86.902344 49.726562 87.183594 49.601562 87.492188 49.535156 C 87.8125 49.460938 88.28125 49.53125 88.382812 49.863281 C 88.417969 49.972656 88.390625 50.136719 88.261719 50.191406 C 88.183594 50.226562 88.03125 50.1875 87.941406 50.183594 C 87.839844 50.175781 87.738281 50.167969 87.636719 50.164062 C 87.53125 50.160156 87.429688 50.160156 87.324219 50.160156 C 87.324219 50.160156 87.320312 50.160156 87.320312 50.160156 C 87.292969 50.167969 87.269531 50.164062 87.246094 50.160156 C 87.027344 50.160156 86.808594 50.167969 86.59375 50.1875 C 86.703125 50.277344 86.8125 50.367188 86.921875 50.457031 C 87.09375 50.601562 87.28125 50.742188 87.441406 50.898438 C 87.570312 51.019531 87.664062 51.167969 87.640625 51.324219 C 87.613281 51.488281 87.472656 51.621094 87.332031 51.726562 C 87.214844 51.808594 87.035156 51.847656 86.929688 51.699219 C 86.871094 51.617188 86.835938 51.523438 86.792969 51.433594 C 86.742188 51.335938 86.695312 51.234375 86.644531 51.132812 C 86.511719 50.875 86.382812 50.613281 86.25 50.351562 C 86.191406 50.648438 86.117188 50.945312 86.03125 51.238281 C 85.972656 51.4375 85.890625 51.859375 85.53125 51.785156 C 85.515625 51.78125 85.5 51.777344 85.484375 51.773438 C 85.378906 51.742188 85.296875 51.667969 85.253906 51.585938 C 85.230469 51.539062 85.214844 51.488281 85.210938 51.4375 C 85.207031 51.265625 85.328125 51.097656 85.402344 50.949219 C 85.53125 50.699219 85.65625 50.449219 85.785156 50.199219 C 85.464844 50.429688 85.148438 50.660156 84.828125 50.890625 C 84.757812 50.941406 84.625 50.917969 84.59375 50.828125 C 84.472656 50.515625 84.636719 50.214844 84.925781 50.039062 C 85.050781 49.960938 85.195312 49.910156 85.351562 49.875 C 85.183594 49.832031 85.015625 49.792969 84.84375 49.765625 C 84.65625 49.738281 84.46875 49.707031 84.332031 49.582031 C 84.234375 49.492188 84.195312 49.367188 84.246094 49.261719 C 84.382812 48.984375 84.808594 49.070312 85.070312 49.21875 C 85.300781 49.351562 85.523438 49.488281 85.746094 49.628906 C 85.636719 49.460938 85.546875 49.28125 85.472656 49.101562 C 85.402344 48.929688 85.339844 48.753906 85.285156 48.582031 C 85.234375 48.433594 85.199219 48.261719 85.335938 48.148438 C 85.460938 48.046875 85.667969 48.066406 85.804688 48.179688 C 85.917969 48.273438 85.949219 48.394531 85.96875 48.519531 C 86.109375 48.800781 86.207031 49.089844 86.257812 49.382812 L 86.644531 48.90625 C 86.644531 48.902344 86.648438 48.898438 86.652344 48.890625 C 86.652344 48.875 86.648438 48.859375 86.648438 48.839844 C 86.796875 47.988281 86.714844 47.09375 86.417969 46.28125 C 86.246094 45.800781 85.996094 45.351562 85.671875 44.949219 C 85.636719 44.90625 85.601562 44.863281 85.5625 44.820312 C 85.152344 44.347656 84.417969 44.515625 84.191406 45.078125 C 83.898438 45.808594 83.679688 46.554688 83.535156 47.316406 C 83.125 46.953125 82.539062 46.753906 81.984375 46.722656 C 81.621094 46.703125 81.265625 46.726562 80.917969 46.785156 C 80.929688 46.660156 80.9375 46.539062 80.941406 46.414062 C 80.949219 46.148438 80.949219 45.878906 80.921875 45.609375 C 80.851562 44.769531 80.648438 43.625 79.753906 43.277344 C 79.730469 43.265625 79.707031 43.257812 79.683594 43.25 C 78.675781 42.90625 78.113281 43.855469 77.851562 44.683594 C 77.941406 44.6875 78.035156 44.71875 78.109375 44.78125 C 78.222656 44.871094 78.257812 44.996094 78.273438 45.117188 C 78.414062 45.398438 78.511719 45.691406 78.5625 45.984375 L 78.949219 45.507812 C 79.039062 45.390625 79.15625 45.207031 79.316406 45.113281 C 79.417969 45.054688 79.539062 45.027344 79.683594 45.082031 C 79.832031 45.140625 79.910156 45.265625 79.894531 45.390625 C 79.878906 45.542969 79.734375 45.644531 79.621094 45.746094 C 79.453125 45.894531 79.289062 46.042969 79.121094 46.1875 C 79.046875 46.253906 78.972656 46.320312 78.898438 46.386719 C 78.964844 46.371094 79.03125 46.355469 79.09375 46.339844 C 79.328125 46.273438 79.554688 46.1875 79.796875 46.132812 C 80.117188 46.0625 80.585938 46.132812 80.6875 46.464844 C 80.722656 46.574219 80.695312 46.738281 80.570312 46.792969 C 80.488281 46.824219 80.335938 46.789062 80.246094 46.78125 C 80.144531 46.773438 80.042969 46.769531 79.941406 46.765625 C 79.839844 46.761719 79.734375 46.757812 79.628906 46.757812 C 79.628906 46.757812 79.628906 46.761719 79.625 46.761719 C 79.601562 46.765625 79.574219 46.765625 79.550781 46.757812 C 79.375 46.761719 79.199219 46.769531 79.019531 46.777344 C 78.980469 46.78125 78.941406 46.78125 78.902344 46.785156 C 78.9375 46.816406 78.972656 46.84375 79.007812 46.875 C 79.078125 46.933594 79.152344 46.996094 79.226562 47.058594 C 79.398438 47.203125 79.585938 47.34375 79.746094 47.496094 C 79.875 47.621094 79.96875 47.765625 79.945312 47.925781 C 79.917969 48.089844 79.78125 48.222656 79.636719 48.324219 C 79.519531 48.410156 79.34375 48.449219 79.234375 48.300781 C 79.175781 48.21875 79.144531 48.121094 79.097656 48.035156 C 79.050781 47.933594 79 47.835938 78.949219 47.734375 C 78.929688 47.691406 78.90625 47.648438 78.886719 47.609375 C 78.773438 47.386719 78.664062 47.167969 78.554688 46.949219 C 78.496094 47.25 78.421875 47.546875 78.335938 47.835938 C 78.273438 48.042969 78.191406 48.496094 77.789062 48.375 C 77.621094 48.324219 77.523438 48.171875 77.519531 48.039062 C 77.511719 47.863281 77.632812 47.699219 77.710938 47.550781 C 77.835938 47.296875 77.964844 47.050781 78.089844 46.800781 C 77.773438 47.03125 77.453125 47.261719 77.136719 47.488281 C 77.0625 47.542969 76.933594 47.519531 76.898438 47.429688 C 76.78125 47.117188 76.945312 46.816406 77.230469 46.640625 C 77.359375 46.5625 77.503906 46.507812 77.65625 46.476562 C 77.488281 46.429688 77.320312 46.390625 77.148438 46.367188 C 76.964844 46.335938 76.777344 46.308594 76.636719 46.183594 C 76.539062 46.089844 76.5 45.96875 76.550781 45.863281 C 76.6875 45.585938 77.113281 45.667969 77.375 45.820312 C 77.605469 45.949219 77.828125 46.089844 78.054688 46.230469 C 77.941406 46.058594 77.855469 45.882812 77.777344 45.699219 C 77.738281 45.597656 77.699219 45.496094 77.664062 45.394531 C 77.632812 45.519531 77.601562 45.640625 77.574219 45.765625 C 77.519531 45.738281 77.460938 45.710938 77.402344 45.683594 C 76.441406 44.804688 75.128906 44.304688 73.8125 44.375 C 73.675781 44.109375 73.476562 43.886719 73.195312 43.746094 C 72.496094 43.402344 71.96875 43.746094 71.605469 44.261719 C 71.679688 44.347656 71.707031 44.449219 71.71875 44.550781 C 71.859375 44.832031 71.957031 45.125 72.007812 45.417969 L 72.394531 44.941406 C 72.546875 44.753906 72.753906 44.375 73.132812 44.515625 C 73.28125 44.574219 73.355469 44.699219 73.339844 44.824219 C 73.324219 44.976562 73.179688 45.078125 73.066406 45.179688 C 72.824219 45.394531 72.585938 45.605469 72.34375 45.820312 C 72.652344 45.757812 72.933594 45.636719 73.242188 45.566406 C 73.5625 45.496094 74.03125 45.566406 74.132812 45.898438 C 74.167969 46.007812 74.140625 46.171875 74.015625 46.226562 C 73.933594 46.257812 73.78125 46.222656 73.691406 46.214844 C 73.589844 46.207031 73.488281 46.203125 73.386719 46.199219 C 73.285156 46.195312 73.179688 46.191406 73.078125 46.191406 C 73.074219 46.191406 73.074219 46.191406 73.070312 46.191406 C 73.046875 46.199219 73.019531 46.199219 72.996094 46.191406 C 72.777344 46.191406 72.5625 46.203125 72.347656 46.21875 C 72.453125 46.308594 72.5625 46.398438 72.671875 46.492188 C 72.84375 46.636719 73.03125 46.777344 73.191406 46.929688 C 73.320312 47.054688 73.414062 47.199219 73.390625 47.355469 C 73.363281 47.523438 73.226562 47.65625 73.082031 47.757812 C 72.964844 47.84375 72.789062 47.882812 72.679688 47.734375 C 72.621094 47.652344 72.589844 47.554688 72.542969 47.46875 C 72.496094 47.367188 72.445312 47.269531 72.394531 47.167969 C 72.261719 46.90625 72.132812 46.644531 72 46.382812 C 71.941406 46.683594 71.867188 46.976562 71.78125 47.269531 C 71.71875 47.476562 71.636719 47.929688 71.238281 47.808594 C 71.070312 47.753906 70.96875 47.605469 70.964844 47.472656 C 70.957031 47.296875 71.078125 47.132812 71.15625 46.980469 C 71.28125 46.734375 71.410156 46.480469 71.535156 46.234375 C 71.21875 46.460938 70.898438 46.691406 70.582031 46.921875 C 70.507812 46.972656 70.378906 46.953125 70.34375 46.863281 C 70.226562 46.550781 70.390625 46.25 70.675781 46.070312 C 70.804688 45.992188 70.949219 45.941406 71.101562 45.90625 C 71.039062 45.890625 70.976562 45.875 70.910156 45.863281 C 70.902344 45.898438 70.886719 45.933594 70.875 45.972656 C 70.824219 45.9375 70.773438 45.90625 70.71875 45.875 C 70.699219 45.851562 70.675781 45.832031 70.65625 45.808594 C 70.636719 45.808594 70.613281 45.800781 70.59375 45.800781 C 70.410156 45.769531 70.222656 45.742188 70.082031 45.613281 C 69.984375 45.523438 69.945312 45.402344 69.996094 45.296875 C 70.003906 45.28125 70.011719 45.265625 70.023438 45.253906 C 69.832031 45.113281 69.632812 44.988281 69.425781 44.875 C 68.902344 44.59375 68.328125 44.40625 67.738281 44.332031 C 67.484375 44.300781 67.226562 44.292969 66.964844 44.304688 C 66.359375 44.339844 66.046875 45 66.347656 45.503906 C 66.734375 46.160156 67.183594 46.769531 67.679688 47.332031 C 66.898438 47 65.984375 47.449219 65.433594 48.074219 C 65.433594 48.074219 65.429688 48.074219 65.429688 48.074219 C 65.199219 48.339844 65.003906 48.625 64.84375 48.921875 C 64.5625 48.664062 64.265625 48.429688 63.9375 48.21875 C 63.65625 48.039062 63.320312 47.84375 62.96875 47.707031 C 62.457031 47.511719 61.914062 47.441406 61.4375 47.71875 C 60.421875 48.316406 60.960938 49.449219 61.496094 50.15625 C 61.679688 50.394531 61.867188 50.628906 62.058594 50.863281 C 62.003906 50.886719 61.949219 50.914062 61.894531 50.941406 C 60.515625 51.171875 59.234375 52 58.53125 53.222656 C 58.226562 53.75 58.617188 54.367188 59.203125 54.390625 C 59.851562 54.417969 60.488281 54.394531 61.121094 54.320312 C 61.171875 54.15625 61.296875 54.011719 61.460938 53.910156 C 61.589844 53.832031 61.734375 53.78125 61.886719 53.746094 C 61.722656 53.703125 61.550781 53.664062 61.378906 53.636719 C 61.195312 53.609375 61.007812 53.582031 60.871094 53.453125 C 60.773438 53.363281 60.730469 53.238281 60.78125 53.136719 C 60.917969 52.859375 61.34375 52.941406 61.605469 53.089844 C 61.835938 53.222656 62.0625 53.359375 62.285156 53.5 C 62.175781 53.332031 62.085938 53.15625 62.007812 52.972656 C 61.9375 52.800781 61.878906 52.628906 61.820312 52.453125 C 61.769531 52.304688 61.738281 52.136719 61.871094 52.023438 C 61.996094 51.917969 62.203125 51.941406 62.339844 52.050781 C 62.453125 52.144531 62.488281 52.269531 62.507812 52.390625 C 62.644531 52.671875 62.742188 52.960938 62.792969 53.257812 L 63.179688 52.777344 C 63.332031 52.589844 63.542969 52.214844 63.917969 52.355469 C 64.066406 52.410156 64.140625 52.539062 64.125 52.664062 C 64.109375 52.8125 63.964844 52.917969 63.851562 53.019531 C 63.609375 53.230469 63.371094 53.445312 63.128906 53.65625 C 63.246094 53.636719 63.359375 53.601562 63.472656 53.566406 C 63.65625 53.511719 63.835938 53.449219 64.027344 53.40625 C 64.351562 53.335938 64.816406 53.40625 64.917969 53.734375 C 64.953125 53.847656 64.929688 54.007812 64.800781 54.0625 C 64.722656 54.097656 64.570312 54.0625 64.480469 54.054688 C 64.378906 54.046875 64.277344 54.042969 64.175781 54.039062 C 64.070312 54.035156 63.964844 54.03125 63.863281 54.03125 C 63.859375 54.03125 63.859375 54.03125 63.855469 54.03125 C 63.832031 54.039062 63.804688 54.039062 63.78125 54.03125 C 63.601562 54.03125 63.421875 54.039062 63.242188 54.050781 C 63.207031 54.054688 63.167969 54.054688 63.132812 54.058594 C 63.167969 54.085938 63.199219 54.113281 63.234375 54.144531 C 63.308594 54.207031 63.382812 54.265625 63.457031 54.328125 C 63.632812 54.472656 63.816406 54.613281 63.976562 54.769531 C 64.105469 54.894531 64.203125 55.039062 64.175781 55.195312 C 64.152344 55.363281 64.011719 55.492188 63.867188 55.597656 C 63.753906 55.683594 63.574219 55.722656 63.46875 55.570312 C 63.410156 55.488281 63.375 55.394531 63.332031 55.304688 C 63.308594 55.261719 63.285156 55.214844 63.261719 55.167969 C 63.335938 55.75 63.535156 56.34375 64.121094 56.582031 C 64.855469 56.882812 65.496094 56.382812 65.800781 55.746094 C 65.992188 55.339844 66.164062 54.921875 66.320312 54.5 C 66.648438 54.679688 67 54.796875 67.394531 54.792969 C 68.085938 54.785156 68.816406 54.371094 69.019531 53.683594 C 69.191406 53.109375 69.050781 52.566406 68.734375 52.097656 C 68.675781 52.171875 68.601562 52.234375 68.523438 52.292969 C 68.40625 52.375 68.226562 52.414062 68.121094 52.265625 C 68.0625 52.183594 68.03125 52.085938 67.984375 52 C 67.933594 51.902344 67.886719 51.800781 67.835938 51.703125 C 67.703125 51.441406 67.574219 51.179688 67.441406 50.917969 C 67.382812 51.214844 67.308594 51.511719 67.222656 51.804688 C 67.160156 52.011719 67.078125 52.464844 66.675781 52.339844 C 66.507812 52.289062 66.410156 52.140625 66.402344 52.003906 C 66.398438 51.832031 66.519531 51.664062 66.59375 51.515625 C 66.722656 51.265625 66.847656 51.015625 66.976562 50.765625 C 66.773438 50.914062 66.570312 51.058594 66.367188 51.207031 C 66.25 51.289062 66.136719 51.375 66.023438 51.457031 C 65.949219 51.507812 65.816406 51.484375 65.785156 51.394531 C 65.695312 51.160156 65.765625 50.933594 65.929688 50.757812 C 65.980469 50.703125 66.046875 50.648438 66.117188 50.605469 C 66.246094 50.527344 66.390625 50.476562 66.542969 50.441406 C 66.375 50.398438 66.207031 50.359375 66.035156 50.332031 C 65.847656 50.304688 65.660156 50.273438 65.523438 50.148438 C 65.425781 50.058594 65.386719 49.933594 65.4375 49.828125 C 65.574219 49.550781 66 49.636719 66.261719 49.785156 C 66.492188 49.917969 66.714844 50.054688 66.941406 50.195312 C 66.839844 50.042969 66.757812 49.882812 66.6875 49.71875 C 66.679688 49.703125 66.671875 49.683594 66.664062 49.667969 C 66.59375 49.496094 66.53125 49.324219 66.476562 49.148438 C 66.425781 49 66.390625 48.828125 66.527344 48.714844 C 66.652344 48.613281 66.859375 48.632812 66.996094 48.746094 C 67.109375 48.839844 67.144531 48.960938 67.160156 49.085938 C 67.300781 49.367188 67.398438 49.65625 67.449219 49.949219 L 67.835938 49.472656 C 67.984375 49.285156 68.195312 48.910156 68.570312 49.050781 C 68.71875 49.105469 68.796875 49.234375 68.78125 49.355469 C 68.765625 49.507812 68.621094 49.613281 68.507812 49.714844 C 68.28125 49.910156 68.058594 50.109375 67.835938 50.308594 C 67.816406 50.324219 67.800781 50.339844 67.785156 50.351562 C 67.828125 50.34375 67.871094 50.335938 67.914062 50.324219 C 68.171875 50.257812 68.417969 50.160156 68.683594 50.101562 C 68.765625 50.082031 68.859375 50.074219 68.953125 50.074219 C 69.222656 50.082031 69.5 50.183594 69.574219 50.429688 C 69.609375 50.542969 69.582031 50.703125 69.453125 50.757812 C 69.375 50.792969 69.222656 50.753906 69.132812 50.75 C 69.03125 50.742188 68.929688 50.734375 68.828125 50.730469 C 68.726562 50.726562 68.621094 50.726562 68.515625 50.726562 C 68.515625 50.726562 68.515625 50.726562 68.511719 50.726562 C 68.484375 50.734375 68.460938 50.730469 68.4375 50.726562 C 68.21875 50.726562 68 50.734375 67.785156 50.753906 C 67.894531 50.84375 68.003906 50.933594 68.113281 51.023438 C 68.285156 51.167969 68.472656 51.308594 68.632812 51.464844 C 68.71875 51.546875 68.789062 51.640625 68.820312 51.738281 C 69.253906 51.683594 69.6875 51.597656 70.117188 51.503906 C 70.144531 51.875 70.238281 52.234375 70.453125 52.558594 C 70.835938 53.132812 71.582031 53.515625 72.273438 53.316406 C 73.335938 53.007812 73.730469 51.871094 73.707031 50.78125 C 73.855469 50.808594 74.003906 50.828125 74.15625 50.839844 C 74.164062 50.910156 74.175781 50.980469 74.195312 51.054688 C 74.246094 51.238281 74.332031 51.390625 74.441406 51.515625 C 74.507812 51.378906 74.617188 51.261719 74.761719 51.171875 C 74.886719 51.09375 75.03125 51.042969 75.1875 51.007812 C 75.019531 50.964844 74.851562 50.925781 74.679688 50.898438 C 74.492188 50.871094 74.304688 50.839844 74.167969 50.714844 C 74.070312 50.625 74.03125 50.5 74.082031 50.398438 C 74.21875 50.117188 74.644531 50.203125 74.90625 50.351562 C 75.136719 50.484375 75.359375 50.621094 75.585938 50.761719 C 75.472656 50.59375 75.382812 50.414062 75.308594 50.234375 C 75.238281 50.0625 75.175781 49.890625 75.121094 49.714844 C 75.070312 49.566406 75.035156 49.394531 75.171875 49.285156 C 75.296875 49.179688 75.503906 49.203125 75.640625 49.3125 C 75.753906 49.40625 75.785156 49.527344 75.804688 49.652344 C 75.945312 49.933594 76.042969 50.222656 76.09375 50.515625 L 76.476562 50.039062 C 76.628906 49.851562 76.839844 49.476562 77.214844 49.617188 C 77.363281 49.671875 77.441406 49.800781 77.425781 49.925781 C 77.410156 50.074219 77.265625 50.179688 77.152344 50.28125 C 76.910156 50.492188 76.667969 50.707031 76.429688 50.917969 C 76.738281 50.859375 77.019531 50.734375 77.328125 50.667969 C 77.648438 50.597656 78.117188 50.664062 78.21875 50.996094 C 78.253906 51.105469 78.226562 51.269531 78.097656 51.324219 C 78.019531 51.359375 77.867188 51.324219 77.777344 51.316406 C 77.675781 51.308594 77.574219 51.300781 77.472656 51.296875 C 77.367188 51.296875 77.265625 51.292969 77.160156 51.292969 C 77.160156 51.292969 77.15625 51.292969 77.15625 51.292969 C 77.128906 51.300781 77.105469 51.296875 77.082031 51.292969 C 76.863281 51.292969 76.644531 51.300781 76.429688 51.320312 C 76.539062 51.410156 76.648438 51.5 76.757812 51.589844 C 76.777344 51.609375 76.800781 51.628906 76.824219 51.644531 C 76.980469 51.601562 77.132812 51.554688 77.289062 51.507812 C 77.347656 51.882812 77.476562 52.246094 77.726562 52.558594 C 78.167969 53.113281 78.96875 53.4375 79.660156 53.171875 C 80.019531 53.03125 80.292969 52.796875 80.492188 52.511719 C 80.457031 52.496094 80.425781 52.472656 80.414062 52.433594 C 80.292969 52.121094 80.460938 51.820312 80.746094 51.644531 C 80.785156 51.621094 80.824219 51.601562 80.867188 51.582031 C 80.957031 51.539062 81.054688 51.507812 81.152344 51.484375 C 81.160156 51.484375 81.164062 51.480469 81.171875 51.480469 C 81.160156 51.476562 81.148438 51.476562 81.140625 51.472656 C 81.058594 51.453125 80.976562 51.433594 80.894531 51.414062 C 80.820312 51.398438 80.742188 51.382812 80.664062 51.371094 C 80.476562 51.34375 80.289062 51.3125 80.152344 51.1875 C 80.054688 51.097656 80.015625 50.972656 80.066406 50.867188 C 80.203125 50.589844 80.628906 50.675781 80.890625 50.824219 C 81.121094 50.957031 81.34375 51.09375 81.566406 51.234375 C 81.457031 51.066406 81.367188 50.886719 81.292969 50.707031 C 81.222656 50.535156 81.160156 50.363281 81.101562 50.1875 C 81.054688 50.039062 81.019531 49.867188 81.15625 49.757812 C 81.28125 49.652344 81.488281 49.671875 81.625 49.785156 C 81.738281 49.875 81.769531 50 81.789062 50.125 C 81.929688 50.40625 82.027344 50.695312 82.078125 50.988281 L 82.460938 50.511719 C 82.613281 50.324219 82.824219 49.949219 83.199219 50.089844 C 83.347656 50.144531 83.425781 50.273438 83.410156 50.398438 C 83.40625 50.425781 83.398438 50.449219 83.386719 50.472656 C 83.339844 50.582031 83.230469 50.667969 83.136719 50.753906 C 82.894531 50.964844 82.652344 51.179688 82.414062 51.390625 C 82.722656 51.328125 83.003906 51.207031 83.3125 51.140625 C 83.632812 51.066406 84.101562 51.136719 84.203125 51.46875 C 84.238281 51.578125 84.210938 51.742188 84.082031 51.796875 C 84.003906 51.832031 83.851562 51.792969 83.761719 51.789062 C 83.660156 51.78125 83.558594 51.773438 83.457031 51.769531 C 83.351562 51.765625 83.25 51.765625 83.144531 51.765625 C 83.144531 51.765625 83.140625 51.765625 83.140625 51.765625 C 83.113281 51.773438 83.089844 51.769531 83.066406 51.765625 C 82.847656 51.765625 82.628906 51.773438 82.414062 51.792969 C 82.523438 51.882812 82.632812 51.972656 82.738281 52.0625 C 82.914062 52.207031 83.101562 52.347656 83.261719 52.503906 C 83.390625 52.628906 83.484375 52.773438 83.460938 52.929688 C 83.433594 53.09375 83.292969 53.226562 83.152344 53.328125 C 83.035156 53.417969 82.855469 53.453125 82.75 53.304688 C 82.691406 53.222656 82.65625 53.125 82.613281 53.039062 C 82.5625 52.941406 82.511719 52.839844 82.464844 52.742188 C 82.332031 52.480469 82.203125 52.21875 82.070312 51.957031 C 82.011719 52.253906 81.9375 52.550781 81.851562 52.84375 C 81.789062 53.050781 81.707031 53.503906 81.304688 53.378906 C 81.136719 53.328125 81.039062 53.179688 81.03125 53.042969 C 81.023438 52.871094 81.148438 52.703125 81.222656 52.554688 C 81.289062 52.421875 81.359375 52.289062 81.425781 52.15625 C 81.246094 52.359375 81.101562 52.589844 81.011719 52.859375 C 80.78125 53.53125 80.9375 54.375 81.539062 54.804688 C 82.464844 55.46875 83.640625 55.066406 84.519531 54.359375 C 84.734375 54.773438 85.015625 55.152344 85.359375 55.46875 C 86.011719 56.070312 87.027344 56.425781 87.847656 55.941406 C 88.289062 55.683594 88.511719 55.285156 88.582031 54.847656 C 88.667969 54.308594 88.515625 53.710938 88.242188 53.230469 C 88.066406 52.914062 87.855469 52.632812 87.617188 52.375 C 87.964844 52.191406 88.296875 51.984375 88.613281 51.738281 C 89.28125 51.222656 90.140625 50.425781 89.953125 49.492188 " fill-opacity="1" fill-rule="nonzero"/><path fill="#cceddf" d="M 71.222656 45.132812 C 71.210938 45.105469 71.203125 45.082031 71.191406 45.054688 C 71.183594 45.074219 71.175781 45.097656 71.167969 45.117188 C 71.132812 45.210938 71.101562 45.304688 71.070312 45.398438 C 71.214844 45.484375 71.355469 45.574219 71.5 45.664062 C 71.386719 45.492188 71.300781 45.316406 71.222656 45.132812 " fill-opacity="1" fill-rule="nonzero"/><path fill="#cceddf" d="M 62.296875 54.125 C 62.304688 54.105469 62.3125 54.089844 62.320312 54.070312 C 62.292969 54.09375 62.261719 54.117188 62.230469 54.136719 C 62.253906 54.132812 62.273438 54.128906 62.296875 54.125 " fill-opacity="1" fill-rule="nonzero"/><path fill="#cceddf" d="M 81.5625 51.835938 C 81.570312 51.839844 81.574219 51.847656 81.582031 51.851562 C 81.589844 51.835938 81.597656 51.820312 81.605469 51.804688 C 81.589844 51.816406 81.578125 51.824219 81.5625 51.835938 " fill-opacity="1" fill-rule="nonzero"/><path fill="#a0bcc2" d="M 72.097656 46.1875 C 72.066406 46.203125 72.039062 46.207031 72.007812 46.210938 C 71.917969 46.253906 71.792969 46.230469 71.710938 46.160156 C 71.644531 46.132812 71.589844 46.089844 71.570312 46.039062 C 71.554688 45.996094 71.550781 45.957031 71.558594 45.917969 C 71.542969 45.882812 71.539062 45.84375 71.554688 45.804688 C 71.609375 45.636719 71.839844 45.617188 72.011719 45.699219 C 72.039062 45.710938 72.0625 45.722656 72.089844 45.738281 C 72.277344 45.859375 72.296875 46.101562 72.097656 46.1875 Z M 74.132812 45.898438 C 74.03125 45.566406 73.5625 45.496094 73.242188 45.566406 C 72.933594 45.636719 72.652344 45.757812 72.34375 45.820312 C 72.585938 45.605469 72.824219 45.394531 73.066406 45.179688 C 73.179688 45.078125 73.324219 44.976562 73.339844 44.824219 C 73.355469 44.699219 73.28125 44.574219 73.132812 44.515625 C 72.753906 44.375 72.546875 44.753906 72.394531 44.941406 L 72.007812 45.417969 C 71.957031 45.125 71.859375 44.832031 71.71875 44.550781 C 71.707031 44.449219 71.679688 44.347656 71.605469 44.261719 C 71.589844 44.246094 71.574219 44.226562 71.554688 44.214844 C 71.417969 44.101562 71.210938 44.078125 71.085938 44.183594 C 70.949219 44.296875 70.984375 44.464844 71.035156 44.617188 C 71.082031 44.761719 71.136719 44.910156 71.191406 45.054688 C 71.203125 45.082031 71.210938 45.105469 71.222656 45.132812 C 71.300781 45.316406 71.386719 45.492188 71.5 45.664062 C 71.355469 45.574219 71.214844 45.484375 71.070312 45.398438 C 70.984375 45.347656 70.902344 45.300781 70.820312 45.253906 C 70.574219 45.113281 70.179688 45.027344 70.023438 45.253906 C 70.011719 45.265625 70.003906 45.28125 69.996094 45.296875 C 69.945312 45.402344 69.984375 45.523438 70.082031 45.613281 C 70.222656 45.742188 70.410156 45.769531 70.59375 45.800781 C 70.613281 45.800781 70.636719 45.808594 70.65625 45.808594 C 70.742188 45.824219 70.828125 45.84375 70.910156 45.863281 C 70.976562 45.875 71.039062 45.890625 71.101562 45.90625 C 70.949219 45.941406 70.804688 45.992188 70.675781 46.070312 C 70.390625 46.25 70.226562 46.550781 70.34375 46.863281 C 70.378906 46.953125 70.507812 46.972656 70.582031 46.921875 C 70.898438 46.691406 71.21875 46.460938 71.535156 46.234375 C 71.410156 46.480469 71.28125 46.734375 71.15625 46.980469 C 71.078125 47.132812 70.957031 47.296875 70.964844 47.472656 C 70.96875 47.605469 71.070312 47.753906 71.238281 47.808594 C 71.636719 47.929688 71.71875 47.476562 71.78125 47.269531 C 71.867188 46.976562 71.941406 46.683594 72 46.382812 C 72.132812 46.644531 72.261719 46.90625 72.394531 47.167969 C 72.445312 47.269531 72.496094 47.367188 72.542969 47.46875 C 72.589844 47.554688 72.621094 47.652344 72.679688 47.734375 C 72.789062 47.882812 72.964844 47.84375 73.082031 47.757812 C 73.226562 47.65625 73.363281 47.523438 73.390625 47.355469 C 73.414062 47.199219 73.320312 47.054688 73.191406 46.929688 C 73.03125 46.777344 72.84375 46.636719 72.671875 46.492188 C 72.5625 46.398438 72.453125 46.308594 72.347656 46.21875 C 72.5625 46.203125 72.777344 46.191406 72.996094 46.191406 C 73.019531 46.199219 73.046875 46.199219 73.070312 46.191406 C 73.074219 46.191406 73.074219 46.191406 73.078125 46.191406 C 73.179688 46.191406 73.285156 46.195312 73.386719 46.199219 C 73.488281 46.203125 73.589844 46.207031 73.691406 46.214844 C 73.78125 46.222656 73.933594 46.257812 74.015625 46.226562 C 74.140625 46.171875 74.167969 46.007812 74.132812 45.898438 " fill-opacity="1" fill-rule="nonzero"/><path fill="#a0bcc2" d="M 76.179688 51.289062 C 76.152344 51.300781 76.121094 51.308594 76.089844 51.308594 C 76 51.351562 75.878906 51.328125 75.796875 51.257812 C 75.730469 51.230469 75.671875 51.191406 75.652344 51.136719 C 75.636719 51.09375 75.636719 51.054688 75.644531 51.015625 C 75.628906 50.980469 75.625 50.945312 75.636719 50.902344 C 75.695312 50.738281 75.925781 50.71875 76.09375 50.800781 C 76.121094 50.808594 76.148438 50.824219 76.175781 50.839844 C 76.359375 50.960938 76.382812 51.203125 76.179688 51.289062 Z M 78.21875 50.996094 C 78.117188 50.664062 77.648438 50.597656 77.328125 50.667969 C 77.019531 50.734375 76.738281 50.859375 76.429688 50.917969 C 76.667969 50.707031 76.910156 50.492188 77.152344 50.28125 C 77.265625 50.179688 77.410156 50.074219 77.425781 49.925781 C 77.441406 49.800781 77.363281 49.671875 77.214844 49.617188 C 76.839844 49.476562 76.628906 49.851562 76.476562 50.039062 L 76.09375 50.515625 C 76.042969 50.222656 75.945312 49.933594 75.804688 49.652344 C 75.785156 49.527344 75.753906 49.40625 75.640625 49.3125 C 75.503906 49.203125 75.296875 49.179688 75.171875 49.285156 C 75.035156 49.394531 75.070312 49.566406 75.121094 49.714844 C 75.175781 49.890625 75.238281 50.0625 75.308594 50.234375 C 75.382812 50.414062 75.472656 50.59375 75.585938 50.761719 C 75.359375 50.621094 75.136719 50.484375 74.90625 50.351562 C 74.644531 50.203125 74.21875 50.117188 74.082031 50.398438 C 74.03125 50.5 74.070312 50.625 74.167969 50.714844 C 74.304688 50.839844 74.492188 50.871094 74.679688 50.898438 C 74.851562 50.925781 75.019531 50.964844 75.1875 51.007812 C 75.03125 51.042969 74.886719 51.09375 74.761719 51.171875 C 74.617188 51.261719 74.507812 51.378906 74.441406 51.515625 C 74.382812 51.652344 74.367188 51.804688 74.429688 51.964844 C 74.460938 52.050781 74.59375 52.074219 74.664062 52.023438 C 74.753906 51.960938 74.839844 51.894531 74.929688 51.832031 C 75.160156 51.667969 75.390625 51.5 75.621094 51.332031 C 75.519531 51.527344 75.421875 51.722656 75.324219 51.917969 C 75.296875 51.972656 75.265625 52.027344 75.238281 52.082031 C 75.164062 52.230469 75.042969 52.398438 75.046875 52.570312 C 75.054688 52.707031 75.152344 52.855469 75.320312 52.90625 C 75.722656 53.03125 75.804688 52.578125 75.867188 52.371094 C 75.917969 52.203125 75.960938 52.03125 76 51.859375 C 76.03125 51.734375 76.058594 51.609375 76.085938 51.484375 C 76.140625 51.589844 76.191406 51.695312 76.246094 51.804688 C 76.324219 51.957031 76.402344 52.113281 76.480469 52.269531 C 76.53125 52.367188 76.578125 52.46875 76.628906 52.566406 C 76.671875 52.65625 76.707031 52.75 76.765625 52.832031 C 76.871094 52.980469 77.050781 52.945312 77.167969 52.859375 C 77.308594 52.753906 77.449219 52.621094 77.476562 52.457031 C 77.5 52.300781 77.40625 52.15625 77.277344 52.03125 C 77.136719 51.894531 76.976562 51.773438 76.824219 51.644531 C 76.800781 51.628906 76.777344 51.609375 76.757812 51.589844 C 76.648438 51.5 76.539062 51.410156 76.429688 51.320312 C 76.644531 51.300781 76.863281 51.292969 77.082031 51.292969 C 77.105469 51.296875 77.128906 51.300781 77.15625 51.292969 C 77.15625 51.292969 77.160156 51.292969 77.160156 51.292969 C 77.265625 51.292969 77.367188 51.296875 77.472656 51.296875 C 77.574219 51.300781 77.675781 51.308594 77.777344 51.316406 C 77.867188 51.324219 78.019531 51.359375 78.097656 51.324219 C 78.226562 51.269531 78.253906 51.105469 78.21875 50.996094 " fill-opacity="1" fill-rule="nonzero"/><path fill="#a0bcc2" d="M 78.648438 46.757812 C 78.621094 46.769531 78.59375 46.773438 78.5625 46.777344 C 78.472656 46.820312 78.347656 46.796875 78.265625 46.726562 C 78.199219 46.699219 78.144531 46.65625 78.125 46.605469 C 78.109375 46.5625 78.105469 46.523438 78.113281 46.484375 C 78.097656 46.449219 78.09375 46.410156 78.109375 46.371094 C 78.164062 46.203125 78.394531 46.183594 78.566406 46.265625 C 78.59375 46.277344 78.617188 46.289062 78.644531 46.304688 C 78.828125 46.425781 78.851562 46.667969 78.648438 46.757812 Z M 80.6875 46.464844 C 80.585938 46.132812 80.117188 46.0625 79.796875 46.132812 C 79.554688 46.1875 79.328125 46.273438 79.09375 46.339844 C 79.03125 46.355469 78.964844 46.371094 78.898438 46.386719 C 78.972656 46.320312 79.046875 46.253906 79.121094 46.1875 C 79.289062 46.042969 79.453125 45.894531 79.621094 45.746094 C 79.734375 45.644531 79.878906 45.542969 79.894531 45.390625 C 79.910156 45.265625 79.832031 45.140625 79.683594 45.082031 C 79.539062 45.027344 79.417969 45.054688 79.316406 45.113281 C 79.15625 45.207031 79.039062 45.390625 78.949219 45.507812 L 78.5625 45.984375 C 78.511719 45.691406 78.414062 45.398438 78.273438 45.117188 C 78.257812 44.996094 78.222656 44.871094 78.109375 44.78125 C 78.035156 44.71875 77.941406 44.6875 77.851562 44.683594 C 77.773438 44.683594 77.699219 44.703125 77.640625 44.75 C 77.503906 44.863281 77.539062 45.03125 77.589844 45.183594 C 77.613281 45.253906 77.636719 45.324219 77.664062 45.394531 C 77.699219 45.496094 77.738281 45.597656 77.777344 45.699219 C 77.855469 45.882812 77.941406 46.058594 78.054688 46.230469 C 77.828125 46.089844 77.605469 45.949219 77.375 45.820312 C 77.113281 45.667969 76.6875 45.585938 76.550781 45.863281 C 76.5 45.96875 76.539062 46.089844 76.636719 46.183594 C 76.777344 46.308594 76.964844 46.335938 77.148438 46.367188 C 77.320312 46.390625 77.488281 46.429688 77.65625 46.476562 C 77.503906 46.507812 77.359375 46.5625 77.230469 46.640625 C 76.945312 46.816406 76.78125 47.117188 76.898438 47.429688 C 76.933594 47.519531 77.0625 47.542969 77.136719 47.488281 C 77.453125 47.261719 77.773438 47.03125 78.089844 46.800781 C 77.964844 47.050781 77.835938 47.296875 77.710938 47.550781 C 77.632812 47.699219 77.511719 47.863281 77.519531 48.039062 C 77.523438 48.171875 77.621094 48.324219 77.789062 48.375 C 78.191406 48.496094 78.273438 48.042969 78.335938 47.835938 C 78.421875 47.546875 78.496094 47.25 78.554688 46.949219 C 78.664062 47.167969 78.773438 47.386719 78.886719 47.609375 C 78.90625 47.648438 78.929688 47.691406 78.949219 47.734375 C 79 47.835938 79.050781 47.933594 79.097656 48.035156 C 79.144531 48.121094 79.175781 48.21875 79.234375 48.300781 C 79.34375 48.449219 79.519531 48.410156 79.636719 48.324219 C 79.78125 48.222656 79.917969 48.089844 79.945312 47.925781 C 79.96875 47.765625 79.875 47.621094 79.746094 47.496094 C 79.585938 47.34375 79.398438 47.203125 79.226562 47.058594 C 79.152344 46.996094 79.078125 46.933594 79.007812 46.875 C 78.972656 46.84375 78.9375 46.816406 78.902344 46.785156 C 78.941406 46.78125 78.980469 46.78125 79.019531 46.777344 C 79.199219 46.769531 79.375 46.761719 79.550781 46.757812 C 79.574219 46.765625 79.601562 46.765625 79.625 46.761719 C 79.628906 46.761719 79.628906 46.757812 79.628906 46.757812 C 79.734375 46.757812 79.839844 46.761719 79.941406 46.765625 C 80.042969 46.769531 80.144531 46.773438 80.246094 46.78125 C 80.335938 46.789062 80.488281 46.824219 80.570312 46.792969 C 80.695312 46.738281 80.722656 46.574219 80.6875 46.464844 " fill-opacity="1" fill-rule="nonzero"/><path fill="#a0bcc2" d="M 82.164062 51.761719 C 82.136719 51.773438 82.105469 51.78125 82.074219 51.78125 C 81.988281 51.824219 81.859375 51.800781 81.78125 51.730469 C 81.714844 51.703125 81.65625 51.664062 81.636719 51.609375 C 81.621094 51.566406 81.621094 51.527344 81.628906 51.488281 C 81.613281 51.453125 81.609375 51.414062 81.621094 51.375 C 81.679688 51.210938 81.910156 51.1875 82.078125 51.269531 C 82.105469 51.28125 82.132812 51.296875 82.160156 51.3125 C 82.34375 51.433594 82.367188 51.671875 82.164062 51.761719 Z M 84.203125 51.46875 C 84.101562 51.136719 83.632812 51.066406 83.3125 51.140625 C 83.003906 51.207031 82.722656 51.328125 82.414062 51.390625 C 82.652344 51.179688 82.894531 50.964844 83.136719 50.753906 C 83.230469 50.667969 83.339844 50.582031 83.386719 50.472656 C 83.398438 50.449219 83.40625 50.425781 83.410156 50.398438 C 83.425781 50.273438 83.347656 50.144531 83.199219 50.089844 C 82.824219 49.949219 82.613281 50.324219 82.460938 50.511719 L 82.078125 50.988281 C 82.027344 50.695312 81.929688 50.40625 81.789062 50.125 C 81.769531 50 81.738281 49.875 81.625 49.785156 C 81.488281 49.671875 81.28125 49.652344 81.15625 49.757812 C 81.019531 49.867188 81.054688 50.039062 81.101562 50.1875 C 81.160156 50.363281 81.222656 50.535156 81.292969 50.707031 C 81.367188 50.886719 81.457031 51.066406 81.566406 51.234375 C 81.34375 51.09375 81.121094 50.957031 80.890625 50.824219 C 80.628906 50.675781 80.203125 50.589844 80.066406 50.867188 C 80.015625 50.972656 80.054688 51.097656 80.152344 51.1875 C 80.289062 51.3125 80.476562 51.34375 80.664062 51.371094 C 80.742188 51.382812 80.820312 51.398438 80.894531 51.414062 C 80.976562 51.433594 81.058594 51.453125 81.140625 51.472656 C 81.148438 51.476562 81.160156 51.476562 81.171875 51.480469 C 81.164062 51.480469 81.160156 51.484375 81.152344 51.484375 C 81.054688 51.507812 80.957031 51.539062 80.867188 51.582031 C 80.824219 51.601562 80.785156 51.621094 80.746094 51.644531 C 80.460938 51.820312 80.292969 52.121094 80.414062 52.433594 C 80.425781 52.472656 80.457031 52.496094 80.492188 52.511719 C 80.542969 52.53125 80.609375 52.527344 80.652344 52.496094 C 80.953125 52.273438 81.257812 52.054688 81.5625 51.835938 C 81.578125 51.824219 81.589844 51.816406 81.605469 51.804688 C 81.597656 51.820312 81.589844 51.835938 81.582031 51.851562 C 81.53125 51.953125 81.476562 52.054688 81.425781 52.15625 C 81.359375 52.289062 81.289062 52.421875 81.222656 52.554688 C 81.148438 52.703125 81.023438 52.871094 81.03125 53.042969 C 81.039062 53.179688 81.136719 53.328125 81.304688 53.378906 C 81.707031 53.503906 81.789062 53.050781 81.851562 52.84375 C 81.9375 52.550781 82.011719 52.253906 82.070312 51.957031 C 82.203125 52.21875 82.332031 52.480469 82.464844 52.742188 C 82.511719 52.839844 82.5625 52.941406 82.613281 53.039062 C 82.65625 53.125 82.691406 53.222656 82.75 53.304688 C 82.855469 53.453125 83.035156 53.417969 83.152344 53.328125 C 83.292969 53.226562 83.433594 53.09375 83.460938 52.929688 C 83.484375 52.773438 83.390625 52.628906 83.261719 52.503906 C 83.101562 52.347656 82.914062 52.207031 82.738281 52.0625 C 82.632812 51.972656 82.523438 51.882812 82.414062 51.792969 C 82.628906 51.773438 82.847656 51.765625 83.066406 51.765625 C 83.089844 51.769531 83.113281 51.773438 83.140625 51.765625 C 83.140625 51.765625 83.144531 51.765625 83.144531 51.765625 C 83.25 51.765625 83.351562 51.765625 83.457031 51.769531 C 83.558594 51.773438 83.660156 51.78125 83.761719 51.789062 C 83.851562 51.792969 84.003906 51.832031 84.082031 51.796875 C 84.210938 51.742188 84.238281 51.578125 84.203125 51.46875 " fill-opacity="1" fill-rule="nonzero"/><path fill="#a0bcc2" d="M 86.34375 50.15625 C 86.316406 50.167969 86.285156 50.175781 86.253906 50.175781 C 86.167969 50.21875 86.039062 50.195312 85.960938 50.125 C 85.894531 50.097656 85.835938 50.058594 85.816406 50.003906 C 85.800781 49.960938 85.800781 49.921875 85.808594 49.882812 C 85.792969 49.847656 85.789062 49.808594 85.800781 49.769531 C 85.859375 49.605469 86.089844 49.582031 86.257812 49.667969 C 86.285156 49.675781 86.3125 49.691406 86.339844 49.707031 C 86.523438 49.828125 86.546875 50.066406 86.34375 50.15625 Z M 88.382812 49.863281 C 88.28125 49.53125 87.8125 49.460938 87.492188 49.535156 C 87.183594 49.601562 86.902344 49.726562 86.59375 49.785156 C 86.832031 49.574219 87.074219 49.359375 87.3125 49.148438 C 87.429688 49.046875 87.574219 48.941406 87.589844 48.792969 C 87.59375 48.765625 87.589844 48.738281 87.585938 48.714844 C 87.566406 48.617188 87.496094 48.527344 87.378906 48.484375 C 87.015625 48.347656 86.804688 48.699219 86.652344 48.890625 C 86.648438 48.898438 86.644531 48.902344 86.644531 48.90625 L 86.257812 49.382812 C 86.207031 49.089844 86.109375 48.800781 85.96875 48.519531 C 85.949219 48.394531 85.917969 48.273438 85.804688 48.179688 C 85.667969 48.066406 85.460938 48.046875 85.335938 48.148438 C 85.199219 48.261719 85.234375 48.433594 85.285156 48.582031 C 85.339844 48.753906 85.402344 48.929688 85.472656 49.101562 C 85.546875 49.28125 85.636719 49.460938 85.746094 49.628906 C 85.523438 49.488281 85.300781 49.351562 85.070312 49.21875 C 84.808594 49.070312 84.382812 48.984375 84.246094 49.261719 C 84.195312 49.367188 84.234375 49.492188 84.332031 49.582031 C 84.46875 49.707031 84.65625 49.738281 84.84375 49.765625 C 85.015625 49.792969 85.183594 49.832031 85.351562 49.875 C 85.195312 49.910156 85.050781 49.960938 84.925781 50.039062 C 84.636719 50.214844 84.472656 50.515625 84.59375 50.828125 C 84.625 50.917969 84.757812 50.941406 84.828125 50.890625 C 85.148438 50.660156 85.464844 50.429688 85.785156 50.199219 C 85.65625 50.449219 85.53125 50.699219 85.402344 50.949219 C 85.328125 51.097656 85.207031 51.265625 85.210938 51.4375 C 85.214844 51.488281 85.230469 51.539062 85.253906 51.585938 C 85.296875 51.667969 85.378906 51.742188 85.484375 51.773438 C 85.5 51.777344 85.515625 51.78125 85.53125 51.785156 C 85.890625 51.859375 85.972656 51.4375 86.03125 51.238281 C 86.117188 50.945312 86.191406 50.648438 86.25 50.351562 C 86.382812 50.613281 86.511719 50.875 86.644531 51.132812 C 86.695312 51.234375 86.742188 51.335938 86.792969 51.433594 C 86.835938 51.523438 86.871094 51.617188 86.929688 51.699219 C 87.035156 51.847656 87.214844 51.808594 87.332031 51.726562 C 87.472656 51.621094 87.613281 51.488281 87.640625 51.324219 C 87.664062 51.167969 87.570312 51.019531 87.441406 50.898438 C 87.28125 50.742188 87.09375 50.601562 86.921875 50.457031 C 86.8125 50.367188 86.703125 50.277344 86.59375 50.1875 C 86.808594 50.167969 87.027344 50.160156 87.246094 50.160156 C 87.269531 50.164062 87.292969 50.167969 87.320312 50.160156 C 87.320312 50.160156 87.324219 50.160156 87.324219 50.160156 C 87.429688 50.160156 87.53125 50.160156 87.636719 50.164062 C 87.738281 50.167969 87.839844 50.175781 87.941406 50.183594 C 88.03125 50.1875 88.183594 50.226562 88.261719 50.191406 C 88.390625 50.136719 88.417969 49.972656 88.382812 49.863281 " fill-opacity="1" fill-rule="nonzero"/><path fill="#a0bcc2" d="M 62.792969 54.046875 C 62.734375 54.078125 62.664062 54.078125 62.597656 54.054688 C 62.5625 54.042969 62.527344 54.023438 62.496094 54 C 62.429688 53.96875 62.375 53.929688 62.355469 53.878906 C 62.339844 53.835938 62.335938 53.792969 62.34375 53.757812 C 62.328125 53.722656 62.328125 53.683594 62.339844 53.644531 C 62.394531 53.476562 62.625 53.457031 62.796875 53.539062 C 62.824219 53.550781 62.851562 53.5625 62.875 53.578125 C 63.023438 53.675781 63.066406 53.847656 62.976562 53.957031 C 62.953125 53.984375 62.921875 54.011719 62.882812 54.027344 C 62.855469 54.039062 62.824219 54.046875 62.792969 54.046875 Z M 64.917969 53.734375 C 64.816406 53.40625 64.351562 53.335938 64.027344 53.40625 C 63.835938 53.449219 63.65625 53.511719 63.472656 53.566406 C 63.359375 53.601562 63.246094 53.636719 63.128906 53.65625 C 63.371094 53.445312 63.609375 53.230469 63.851562 53.019531 C 63.964844 52.917969 64.109375 52.8125 64.125 52.664062 C 64.140625 52.539062 64.066406 52.410156 63.917969 52.355469 C 63.542969 52.214844 63.332031 52.589844 63.179688 52.777344 L 62.792969 53.257812 C 62.742188 52.960938 62.644531 52.671875 62.507812 52.390625 C 62.488281 52.269531 62.453125 52.144531 62.339844 52.050781 C 62.203125 51.941406 61.996094 51.917969 61.871094 52.023438 C 61.738281 52.136719 61.769531 52.304688 61.820312 52.453125 C 61.878906 52.628906 61.9375 52.800781 62.007812 52.972656 C 62.085938 53.15625 62.175781 53.332031 62.285156 53.5 C 62.0625 53.359375 61.835938 53.222656 61.605469 53.089844 C 61.34375 52.941406 60.917969 52.859375 60.78125 53.136719 C 60.730469 53.238281 60.773438 53.363281 60.871094 53.453125 C 61.007812 53.582031 61.195312 53.609375 61.378906 53.636719 C 61.550781 53.664062 61.722656 53.703125 61.886719 53.746094 C 61.734375 53.78125 61.589844 53.832031 61.460938 53.910156 C 61.296875 54.011719 61.171875 54.15625 61.121094 54.320312 C 61.082031 54.4375 61.078125 54.570312 61.128906 54.703125 C 61.164062 54.789062 61.296875 54.8125 61.367188 54.761719 C 61.65625 54.554688 61.941406 54.347656 62.230469 54.136719 C 62.261719 54.117188 62.292969 54.09375 62.320312 54.070312 C 62.3125 54.089844 62.304688 54.105469 62.296875 54.125 C 62.175781 54.355469 62.058594 54.589844 61.941406 54.820312 C 61.863281 54.972656 61.742188 55.136719 61.75 55.308594 C 61.75 55.378906 61.777344 55.449219 61.824219 55.507812 C 61.871094 55.570312 61.9375 55.621094 62.023438 55.644531 C 62.421875 55.769531 62.503906 55.316406 62.566406 55.109375 C 62.644531 54.851562 62.707031 54.59375 62.761719 54.332031 C 62.773438 54.292969 62.78125 54.257812 62.789062 54.222656 C 62.796875 54.238281 62.804688 54.257812 62.8125 54.277344 C 62.9375 54.519531 63.058594 54.761719 63.179688 55.007812 C 63.207031 55.0625 63.234375 55.117188 63.261719 55.167969 C 63.285156 55.214844 63.308594 55.261719 63.332031 55.304688 C 63.375 55.394531 63.410156 55.488281 63.46875 55.570312 C 63.574219 55.722656 63.753906 55.683594 63.867188 55.597656 C 64.011719 55.492188 64.152344 55.363281 64.175781 55.195312 C 64.203125 55.039062 64.105469 54.894531 63.976562 54.769531 C 63.816406 54.613281 63.632812 54.472656 63.457031 54.328125 C 63.382812 54.265625 63.308594 54.207031 63.234375 54.144531 C 63.199219 54.113281 63.167969 54.085938 63.132812 54.058594 C 63.167969 54.054688 63.207031 54.054688 63.242188 54.050781 C 63.421875 54.039062 63.601562 54.03125 63.78125 54.03125 C 63.804688 54.039062 63.832031 54.039062 63.855469 54.03125 C 63.859375 54.03125 63.859375 54.03125 63.863281 54.03125 C 63.964844 54.03125 64.070312 54.035156 64.175781 54.039062 C 64.277344 54.042969 64.378906 54.046875 64.480469 54.054688 C 64.570312 54.0625 64.722656 54.097656 64.800781 54.0625 C 64.929688 54.007812 64.953125 53.847656 64.917969 53.734375 " fill-opacity="1" fill-rule="nonzero"/><path fill="#a0bcc2" d="M 67.535156 50.722656 C 67.507812 50.734375 67.476562 50.742188 67.445312 50.742188 C 67.359375 50.785156 67.234375 50.761719 67.152344 50.691406 C 67.085938 50.664062 67.03125 50.625 67.007812 50.570312 C 66.992188 50.53125 66.992188 50.488281 67 50.449219 C 66.984375 50.414062 66.980469 50.375 66.992188 50.335938 C 67.050781 50.167969 67.28125 50.148438 67.449219 50.234375 C 67.476562 50.242188 67.503906 50.257812 67.53125 50.273438 C 67.714844 50.394531 67.738281 50.632812 67.535156 50.722656 Z M 69.574219 50.429688 C 69.5 50.183594 69.222656 50.082031 68.953125 50.074219 C 68.859375 50.074219 68.765625 50.082031 68.683594 50.101562 C 68.417969 50.160156 68.171875 50.257812 67.914062 50.324219 C 67.871094 50.335938 67.828125 50.34375 67.785156 50.351562 C 67.800781 50.339844 67.816406 50.324219 67.835938 50.308594 C 68.058594 50.109375 68.28125 49.910156 68.507812 49.714844 C 68.621094 49.613281 68.765625 49.507812 68.78125 49.355469 C 68.796875 49.234375 68.71875 49.105469 68.570312 49.050781 C 68.195312 48.910156 67.984375 49.285156 67.835938 49.472656 L 67.449219 49.949219 C 67.398438 49.65625 67.300781 49.367188 67.160156 49.085938 C 67.144531 48.960938 67.109375 48.839844 66.996094 48.746094 C 66.859375 48.632812 66.652344 48.613281 66.527344 48.714844 C 66.390625 48.828125 66.425781 49 66.476562 49.148438 C 66.53125 49.324219 66.59375 49.496094 66.664062 49.667969 C 66.671875 49.683594 66.679688 49.703125 66.6875 49.71875 C 66.757812 49.882812 66.839844 50.042969 66.941406 50.195312 C 66.714844 50.054688 66.492188 49.917969 66.261719 49.785156 C 66 49.636719 65.574219 49.550781 65.4375 49.828125 C 65.386719 49.933594 65.425781 50.058594 65.523438 50.148438 C 65.660156 50.273438 65.847656 50.304688 66.035156 50.332031 C 66.207031 50.359375 66.375 50.398438 66.542969 50.441406 C 66.390625 50.476562 66.246094 50.527344 66.117188 50.605469 C 66.046875 50.648438 65.980469 50.703125 65.929688 50.757812 C 65.765625 50.933594 65.695312 51.160156 65.785156 51.394531 C 65.816406 51.484375 65.949219 51.507812 66.023438 51.457031 C 66.136719 51.375 66.25 51.289062 66.367188 51.207031 C 66.570312 51.058594 66.773438 50.914062 66.976562 50.765625 C 66.847656 51.015625 66.722656 51.265625 66.59375 51.515625 C 66.519531 51.664062 66.398438 51.832031 66.402344 52.003906 C 66.410156 52.140625 66.507812 52.289062 66.675781 52.339844 C 67.078125 52.464844 67.160156 52.011719 67.222656 51.804688 C 67.308594 51.511719 67.382812 51.214844 67.441406 50.917969 C 67.574219 51.179688 67.703125 51.441406 67.835938 51.703125 C 67.886719 51.800781 67.933594 51.902344 67.984375 52 C 68.03125 52.085938 68.0625 52.183594 68.121094 52.265625 C 68.226562 52.414062 68.40625 52.375 68.523438 52.292969 C 68.601562 52.234375 68.675781 52.171875 68.734375 52.097656 C 68.78125 52.035156 68.820312 51.964844 68.832031 51.890625 C 68.839844 51.839844 68.832031 51.789062 68.820312 51.738281 C 68.789062 51.640625 68.71875 51.546875 68.632812 51.464844 C 68.472656 51.308594 68.285156 51.167969 68.113281 51.023438 C 68.003906 50.933594 67.894531 50.84375 67.785156 50.753906 C 68 50.734375 68.21875 50.726562 68.4375 50.726562 C 68.460938 50.730469 68.484375 50.734375 68.511719 50.726562 C 68.515625 50.726562 68.515625 50.726562 68.515625 50.726562 C 68.621094 50.726562 68.726562 50.726562 68.828125 50.730469 C 68.929688 50.734375 69.03125 50.742188 69.132812 50.75 C 69.222656 50.753906 69.375 50.792969 69.453125 50.757812 C 69.582031 50.703125 69.609375 50.542969 69.574219 50.429688 " fill-opacity="1" fill-rule="nonzero"/><path fill="#0e0606" d="M 83.570312 60.910156 C 83.449219 60.785156 83.308594 60.691406 83.144531 60.640625 C 82.984375 60.554688 82.8125 60.519531 82.628906 60.523438 C 82.511719 60.539062 82.394531 60.554688 82.277344 60.570312 C 82.050781 60.636719 81.855469 60.75 81.691406 60.910156 C 81.621094 61 81.550781 61.089844 81.480469 61.179688 C 81.363281 61.386719 81.300781 61.609375 81.300781 61.847656 L 81.300781 61.914062 C 81.292969 62.097656 81.332031 62.265625 81.414062 62.425781 C 81.46875 62.589844 81.558594 62.730469 81.691406 62.851562 C 81.808594 62.980469 81.953125 63.070312 82.117188 63.125 C 82.277344 63.207031 82.445312 63.246094 82.628906 63.238281 C 82.75 63.222656 82.867188 63.207031 82.984375 63.191406 C 83.210938 63.128906 83.40625 63.015625 83.570312 62.851562 C 83.640625 62.761719 83.710938 62.671875 83.777344 62.582031 C 83.898438 62.375 83.960938 62.15625 83.960938 61.914062 L 83.960938 61.847656 C 83.96875 61.664062 83.929688 61.496094 83.847656 61.335938 C 83.792969 61.171875 83.699219 61.03125 83.570312 60.910156 " fill-opacity="1" fill-rule="nonzero"/><path fill="#0e0606" d="M 68.269531 61.207031 C 67.550781 61.207031 66.941406 61.816406 66.941406 62.53125 C 66.941406 63.25 67.550781 63.851562 68.269531 63.851562 C 68.988281 63.851562 69.601562 63.246094 69.601562 62.53125 C 69.601562 61.8125 68.992188 61.207031 68.269531 61.207031 " fill-opacity="1" fill-rule="nonzero"/><path fill="#0e0606" d="M 78.679688 68.660156 C 77.863281 69.042969 76.941406 68.59375 76.691406 67.820312 C 76.652344 67.832031 76.613281 67.84375 76.570312 67.851562 C 76.335938 67.910156 76.085938 67.910156 75.847656 67.863281 C 75.804688 67.851562 75.765625 67.84375 75.722656 67.832031 C 75.46875 68.597656 74.550781 69.042969 73.742188 68.660156 C 73.246094 68.425781 72.8125 69.160156 73.308594 69.394531 C 74.4375 69.925781 75.605469 69.53125 76.210938 68.675781 C 76.8125 69.53125 77.980469 69.925781 79.109375 69.394531 C 79.605469 69.160156 79.171875 68.425781 78.679688 68.660156 " fill-opacity="1" fill-rule="nonzero"/><path fill="#0000ff" d="M 81.984375 46.722656 C 82.539062 46.753906 83.125 46.953125 83.535156 47.316406 C 83.679688 46.554688 83.898438 45.808594 84.191406 45.078125 C 84.417969 44.515625 85.152344 44.347656 85.5625 44.820312 C 85.601562 44.863281 85.636719 44.90625 85.671875 44.949219 L 91.902344 34.328125 C 93.304688 31.9375 94.707031 29.550781 96.105469 27.164062 C 97.480469 24.820312 98.9375 22.503906 100.226562 20.113281 C 100.847656 18.960938 101.398438 17.628906 101.257812 16.292969 C 101.097656 14.804688 100.070312 13.683594 98.527344 13.605469 C 96.285156 13.496094 94.226562 15.410156 92.921875 17.023438 C 91.476562 18.808594 90.4375 20.828125 89.472656 22.898438 C 88.339844 25.316406 87.28125 27.769531 86.289062 30.246094 C 84.171875 35.519531 82.390625 40.921875 80.941406 46.414062 C 80.9375 46.539062 80.929688 46.660156 80.917969 46.785156 C 81.265625 46.726562 81.621094 46.703125 81.984375 46.722656 " fill-opacity="1" fill-rule="nonzero"/><path fill="#0000ff" d="M 60.316406 25.589844 C 59.367188 23.195312 58.464844 20.757812 57.234375 18.484375 C 56.636719 17.378906 55.980469 16.175781 54.941406 15.421875 C 53.78125 14.585938 52.265625 14.714844 51.214844 15.660156 C 50.207031 16.5625 49.953125 17.921875 49.921875 19.207031 C 49.890625 20.484375 50.027344 21.761719 50.257812 23.015625 C 51.15625 27.890625 53.800781 32.339844 56.46875 36.449219 C 59.136719 40.554688 62.140625 44.445312 65.433594 48.074219 C 65.984375 47.449219 66.898438 47 67.679688 47.332031 C 67.183594 46.769531 66.734375 46.160156 66.347656 45.503906 C 66.046875 45 66.359375 44.339844 66.964844 44.304688 C 67.226562 44.292969 67.484375 44.300781 67.738281 44.332031 L 63.363281 33.285156 C 62.347656 30.722656 61.332031 28.15625 60.316406 25.589844 " fill-opacity="1" fill-rule="nonzero"/><path fill="#0000ff" d="M 77.894531 64.914062 C 77.542969 64.628906 77.066406 64.554688 76.582031 64.570312 C 76.496094 64.5625 76.410156 64.558594 76.320312 64.5625 C 76.277344 64.554688 76.230469 64.554688 76.183594 64.554688 C 75.722656 64.550781 75.253906 64.601562 74.808594 64.699219 C 73.964844 64.886719 73.710938 65.632812 74.054688 66.226562 C 74.328125 66.707031 74.703125 67.207031 75.175781 67.570312 C 75.332031 67.6875 75.519531 67.777344 75.722656 67.832031 C 75.765625 67.84375 75.804688 67.851562 75.847656 67.863281 C 76.085938 67.910156 76.335938 67.910156 76.570312 67.851562 C 76.613281 67.84375 76.652344 67.832031 76.691406 67.820312 C 76.757812 67.796875 76.824219 67.769531 76.886719 67.734375 C 77.226562 67.554688 77.429688 67.277344 77.640625 67 C 77.808594 66.777344 77.996094 66.558594 78.140625 66.324219 C 78.421875 65.859375 78.359375 65.289062 77.894531 64.914062 " fill-opacity="1" fill-rule="nonzero"/><path fill="#0000ff" d="M 89.429688 90.96875 C 89.140625 90.71875 88.804688 90.558594 88.449219 90.460938 C 88.078125 90.238281 87.648438 90.117188 87.203125 90.117188 C 87.160156 90.117188 87.117188 90.117188 87.070312 90.117188 C 86.140625 90.164062 85.351562 90.710938 84.820312 91.449219 C 84.214844 92.285156 84.003906 93.3125 83.921875 94.324219 C 83.824219 95.5 83.8125 96.707031 83.941406 97.878906 C 84.027344 98.695312 84.164062 99.738281 84.96875 100.183594 C 84.988281 100.195312 85.011719 100.207031 85.035156 100.21875 C 85.949219 100.667969 86.796875 99.875 87.371094 99.234375 C 88.710938 97.722656 89.667969 95.851562 90.0625 93.871094 C 90.257812 92.863281 90.273438 91.703125 89.429688 90.96875 " fill-opacity="1" fill-rule="nonzero"/><path fill="#0000ff" d="M 87.3125 89.175781 C 88.136719 89.929688 89.449219 89.3125 89.625 88.285156 C 89.808594 87.21875 88.6875 86.265625 87.667969 86.769531 C 87.15625 87.019531 86.898438 87.550781 86.933594 88.058594 C 86.863281 88.445312 86.976562 88.871094 87.3125 89.175781 " fill-opacity="1" fill-rule="nonzero"/><path fill="#0000ff" d="M 89.597656 89.90625 C 89.839844 90.320312 90.421875 90.417969 90.753906 90.050781 C 90.851562 89.945312 90.90625 89.808594 90.914062 89.667969 C 90.988281 89.480469 90.976562 89.261719 90.851562 89.074219 C 90.773438 88.957031 90.667969 88.871094 90.546875 88.816406 C 90.398438 88.667969 90.128906 88.652344 89.96875 88.796875 C 89.910156 88.820312 89.851562 88.851562 89.800781 88.894531 C 89.496094 89.128906 89.402344 89.574219 89.597656 89.90625 " fill-opacity="1" fill-rule="nonzero"/><path fill="#0000ff" d="M 85.050781 88.605469 C 84.960938 88.953125 85.128906 89.335938 85.4375 89.523438 C 85.734375 89.699219 86.144531 89.636719 86.382812 89.394531 C 86.652344 89.121094 86.675781 88.707031 86.433594 88.410156 C 86.386719 88.355469 86.332031 88.304688 86.273438 88.265625 C 86.273438 88.265625 86.273438 88.261719 86.273438 88.257812 C 86.207031 88.019531 85.976562 87.921875 85.746094 87.960938 C 85.417969 88.019531 85.136719 88.285156 85.050781 88.605469 " fill-opacity="1" fill-rule="nonzero"/><path fill="#0000ff" d="M 68.640625 98.703125 C 68.339844 96.710938 67.515625 94.777344 66.246094 93.207031 C 65.910156 92.796875 65.515625 92.394531 65.058594 92.125 C 64.628906 91.871094 64.140625 91.734375 63.601562 91.816406 C 63.226562 91.875 62.886719 92.027344 62.578125 92.234375 C 62.128906 92.386719 61.726562 92.675781 61.429688 93.066406 C 60.867188 93.800781 60.78125 94.753906 61.003906 95.632812 C 61.257812 96.632812 61.914062 97.457031 62.640625 98.167969 C 63.480469 99 64.40625 99.785156 65.390625 100.441406 C 66.074219 100.898438 66.964844 101.46875 67.824219 101.144531 C 68.039062 101.0625 68.207031 100.945312 68.332031 100.800781 C 68.800781 100.269531 68.742188 99.386719 68.640625 98.703125 " fill-opacity="1" fill-rule="nonzero"/><path fill="#0000ff" d="M 61.664062 89.941406 C 60.960938 89.117188 59.507812 89.355469 59.238281 90.453125 C 59.101562 91.007812 59.34375 91.542969 59.757812 91.847656 C 60.007812 92.144531 60.40625 92.335938 60.859375 92.277344 C 61.96875 92.132812 62.339844 90.738281 61.664062 89.941406 " fill-opacity="1" fill-rule="nonzero"/><path fill="#0000ff" d="M 62.894531 91.007812 C 63.367188 91.089844 63.816406 90.707031 63.75 90.222656 C 63.726562 90.078125 63.660156 89.949219 63.558594 89.851562 C 63.460938 89.675781 63.285156 89.542969 63.058594 89.515625 C 62.917969 89.5 62.785156 89.527344 62.664062 89.582031 C 62.453125 89.601562 62.269531 89.792969 62.277344 90.007812 C 62.257812 90.070312 62.246094 90.132812 62.242188 90.199219 C 62.226562 90.582031 62.507812 90.941406 62.894531 91.007812 " fill-opacity="1" fill-rule="nonzero"/><path fill="#0000ff" d="M 59.707031 92.453125 C 59.632812 92.449219 59.558594 92.460938 59.492188 92.480469 C 59.488281 92.476562 59.488281 92.476562 59.484375 92.476562 C 59.257812 92.371094 59.035156 92.484375 58.917969 92.683594 C 58.75 92.972656 58.769531 93.355469 58.964844 93.628906 C 59.175781 93.921875 59.578125 94.039062 59.921875 93.921875 C 60.246094 93.8125 60.460938 93.460938 60.429688 93.121094 C 60.390625 92.742188 60.089844 92.460938 59.707031 92.453125 " fill-opacity="1" fill-rule="nonzero"/><path fill="#0000ff" d="M 76.113281 94.9375 C 76.039062 94.164062 75.867188 93.386719 75.773438 92.726562 C 75.441406 90.363281 75.113281 88 74.78125 85.636719 C 74.699219 85.039062 73.78125 85.292969 73.863281 85.886719 C 74.113281 87.660156 74.359375 89.433594 74.609375 91.203125 C 74.734375 92.105469 74.863281 93.007812 74.988281 93.910156 C 75.101562 94.707031 75.316406 95.597656 75.117188 96.398438 C 74.953125 97.074219 74.375 97.699219 73.628906 97.410156 C 72.871094 97.117188 72.574219 96.292969 72.390625 95.570312 C 71.972656 93.894531 71.71875 92.167969 71.496094 90.457031 C 71.234375 88.488281 71.046875 86.515625 70.855469 84.539062 C 70.796875 83.941406 69.847656 83.933594 69.90625 84.539062 C 70.105469 86.605469 70.304688 88.671875 70.582031 90.730469 C 70.710938 91.707031 70.859375 92.683594 71.035156 93.65625 C 71.203125 94.597656 71.339844 95.597656 71.683594 96.496094 C 71.96875 97.25 72.441406 97.925781 73.207031 98.253906 C 73.929688 98.566406 74.738281 98.441406 75.316406 97.898438 C 75.804688 97.441406 76.035156 96.863281 76.113281 96.230469 C 76.0625 95.816406 76.070312 95.375 76.113281 94.9375 " fill-opacity="1" fill-rule="nonzero"/><path fill="#0000ff" d="M 79.835938 95.570312 C 79.65625 96.292969 79.359375 97.117188 78.601562 97.410156 C 77.855469 97.699219 77.277344 97.074219 77.109375 96.398438 C 76.914062 95.597656 77.128906 94.707031 77.242188 93.910156 C 77.367188 93.007812 77.492188 92.105469 77.621094 91.203125 C 77.867188 89.433594 78.117188 87.660156 78.363281 85.886719 C 78.449219 85.292969 77.53125 85.039062 77.449219 85.636719 C 77.117188 88 76.785156 90.363281 76.457031 92.726562 C 76.363281 93.386719 76.191406 94.164062 76.113281 94.9375 C 76.15625 95.375 76.167969 95.816406 76.113281 96.230469 C 76.195312 96.863281 76.421875 97.441406 76.910156 97.898438 C 77.488281 98.441406 78.300781 98.566406 79.023438 98.253906 C 79.789062 97.925781 80.261719 97.25 80.546875 96.496094 C 80.886719 95.597656 81.023438 94.597656 81.195312 93.65625 C 81.367188 92.683594 81.515625 91.707031 81.648438 90.730469 C 81.925781 88.671875 82.125 86.605469 82.324219 84.539062 C 82.382812 83.933594 81.429688 83.941406 81.375 84.539062 C 81.183594 86.515625 80.996094 88.488281 80.734375 90.457031 C 80.507812 92.167969 80.257812 93.894531 79.835938 95.570312 " fill-opacity="1" fill-rule="nonzero"/></svg>