<svg xmlns="http://www.w3.org/2000/svg" xmlns:xlink="http://www.w3.org/1999/xlink" width="200" zoomAndPan="magnify" viewBox="0 0 150 112.499997" height="150" preserveAspectRatio="xMidYMid meet" version="1.0"><defs><clipPath id="c21b2870de"><path d="M 21.316406 11.199219 L 128.839844 11.199219 L 128.839844 98 L 21.316406 98 Z M 21.316406 11.199219 " clip-rule="nonzero"/></clipPath></defs><g clip-path="url(#c21b2870de)"><path fill="#61af56" d="M 43.773438 47.507812 C 43.773438 47.507812 24.246094 23.535156 57.78125 11.960938 C 58.8125 11.601562 59.800781 12.589844 59.441406 13.617188 L 55.203125 26.175781 C 54.980469 26.847656 54.957031 27.585938 55.113281 28.277344 L 56.28125 32.890625 Z M 56.570312 67.113281 C 56.570312 67.113281 46.484375 85.289062 62.535156 93.953125 C 75.246094 100.800781 88.382812 96.214844 93.335938 93.976562 C 94.257812 93.570312 94.347656 92.296875 93.496094 91.757812 L 71.703125 77.992188 C 71.078125 77.589844 70.761719 76.851562 70.917969 76.113281 L 71.792969 72.0625 Z M 45.765625 52.902344 L 43.390625 54.984375 C 42.742188 55.566406 41.867188 55.832031 40.992188 55.765625 L 31.914062 54.960938 C 28.4375 54.648438 25.164062 56.550781 23.683594 59.707031 L 22.945312 61.339844 C 21.914062 63.578125 21.375 65.59375 21.511719 67.765625 C 21.625 69.667969 22.765625 71.367188 24.46875 72.242188 C 26.421875 73.226562 29.355469 74.300781 32.539062 74.007812 L 35.140625 73.828125 C 39.152344 73.539062 43.054688 72.398438 46.597656 70.515625 L 54.441406 66.308594 L 54.867188 53.660156 Z M 106.339844 23.085938 L 110.914062 20.714844 C 112.214844 20.042969 113.289062 19.058594 114.097656 17.824219 C 115.128906 16.238281 114.542969 14.109375 112.863281 13.257812 L 112.414062 13.035156 C 110.128906 11.847656 107.574219 11.199219 104.996094 11.199219 C 91.835938 11.246094 85.15625 21.25 85.15625 21.25 Z M 106.921875 57.445312 L 113.019531 58.027344 C 115.664062 58.273438 118.289062 57.421875 120.285156 55.652344 L 126.023438 50.550781 C 127.792969 48.984375 128.78125 46.679688 128.691406 44.328125 L 128.53125 39.875 C 128.488281 38.417969 126.917969 37.480469 125.617188 38.148438 C 121.402344 40.277344 115.328125 41.957031 115.328125 41.957031 Z M 106.921875 57.445312 " fill-opacity="1" fill-rule="nonzero"/></g><path fill="#3e7f33" d="M 41.597656 48.289062 L 42.15625 45.445312 C 42.964844 41.351562 45.320312 37.746094 48.75 35.375 C 57.492188 29.308594 75.628906 18.765625 94.121094 20.398438 C 119.859375 22.660156 117.300781 33.179688 117.300781 33.179688 C 116.652344 34.660156 116.40625 36.292969 116.605469 37.902344 L 116.605469 37.925781 C 116.964844 40.792969 116.136719 43.679688 114.34375 45.941406 L 112.976562 47.664062 C 112.167969 48.691406 111.539062 49.855469 111.160156 51.109375 L 109.613281 56.234375 C 108.871094 58.652344 107.167969 60.644531 104.90625 61.742188 L 100.308594 63.957031 C 99.679688 64.273438 99.097656 64.628906 98.5625 65.078125 L 93.269531 69.441406 C 92.417969 70.160156 91.410156 70.652344 90.332031 70.941406 L 83.023438 72.824219 C 82.734375 72.890625 82.441406 73 82.171875 73.136719 L 78.25 74.949219 C 76.097656 75.957031 73.65625 76.15625 71.34375 75.554688 L 68.566406 74.816406 C 67.78125 74.613281 66.953125 74.613281 66.167969 74.816406 L 65.335938 75.039062 C 62.535156 75.777344 59.554688 74.972656 57.492188 72.933594 L 53.050781 68.570312 C 52.179688 67.71875 51.59375 66.621094 51.347656 65.414062 L 50.453125 60.960938 C 49.914062 58.226562 48.097656 55.898438 45.585938 54.667969 L 44.488281 54.132812 C 42.316406 53.078125 41.125 50.683594 41.597656 48.289062 Z M 41.597656 48.289062 " fill-opacity="1" fill-rule="nonzero"/><path fill="#492f2e" d="M 32.652344 61.875 C 32.652344 62.546875 32.113281 63.085938 31.441406 63.085938 C 30.769531 63.085938 30.230469 62.546875 30.230469 61.875 C 30.230469 61.207031 30.769531 60.667969 31.441406 60.667969 C 32.113281 60.667969 32.652344 61.207031 32.652344 61.875 Z M 24.917969 72.621094 C 25.144531 72.597656 30.230469 72.082031 33.730469 68.972656 C 33.90625 68.816406 33.929688 68.523438 33.773438 68.34375 C 33.617188 68.167969 33.324219 68.144531 33.144531 68.300781 C 29.894531 71.210938 24.894531 71.726562 24.851562 71.726562 C 24.605469 71.746094 24.425781 71.972656 24.449219 72.21875 C 24.46875 72.441406 24.671875 72.621094 24.894531 72.621094 C 24.875 72.621094 24.894531 72.621094 24.917969 72.621094 Z M 24.917969 72.621094 " fill-opacity="1" fill-rule="nonzero"/><path fill="#61af56" d="M 112.816406 32.621094 C 112.144531 27.941406 109.1875 24.046875 104.074219 21.070312 C 103.851562 20.9375 103.582031 21.027344 103.46875 21.226562 C 103.359375 21.429688 103.425781 21.71875 103.628906 21.832031 C 108.492188 24.675781 111.292969 28.347656 111.921875 32.753906 C 112.300781 35.351562 111.945312 38.171875 110.867188 41.171875 L 98.695312 37.859375 L 97.261719 30.339844 L 101.96875 20.871094 C 102.082031 20.644531 101.992188 20.378906 101.765625 20.265625 C 101.542969 20.152344 101.273438 20.242188 101.160156 20.46875 L 96.585938 29.710938 L 87.484375 26.332031 L 85.558594 20.667969 C 85.46875 20.445312 85.222656 20.308594 84.996094 20.378906 C 84.773438 20.46875 84.640625 20.714844 84.707031 20.9375 L 86.632812 26.601562 L 82.398438 33.316406 L 73.675781 30.113281 L 72.085938 23.890625 C 72.019531 23.644531 71.769531 23.511719 71.546875 23.578125 C 71.300781 23.644531 71.167969 23.890625 71.234375 24.117188 L 72.824219 30.339844 L 65.5625 38.507812 L 55.027344 36.628906 L 54.105469 32.015625 C 54.0625 31.769531 53.816406 31.613281 53.566406 31.660156 C 53.320312 31.703125 53.164062 31.949219 53.210938 32.195312 L 54.152344 36.941406 L 47.875 49.566406 L 46.777344 49.007812 C 45.925781 48.582031 45.296875 47.796875 45.070312 46.855469 L 43.773438 41.484375 C 43.703125 41.238281 43.480469 41.105469 43.234375 41.148438 C 42.988281 41.214844 42.851562 41.441406 42.898438 41.6875 L 44.199219 47.058594 C 44.488281 48.246094 45.273438 49.253906 46.371094 49.789062 L 51.617188 52.429688 C 52.246094 52.746094 52.738281 53.257812 53.007812 53.910156 L 57.042969 63.398438 C 57.425781 64.292969 58.007812 65.078125 58.746094 65.683594 C 59.441406 66.242188 60.40625 66.914062 61.636719 67.5625 C 61.726562 67.695312 61.863281 67.785156 62.019531 67.785156 C 62.042969 67.785156 62.042969 67.785156 62.066406 67.785156 C 64.394531 68.925781 67.601562 69.933594 71.726562 69.933594 C 72.039062 69.933594 72.375 69.933594 72.691406 69.914062 C 73.316406 69.890625 73.96875 69.84375 74.597656 69.777344 C 74.617188 69.777344 74.640625 69.777344 74.664062 69.777344 C 74.730469 69.777344 74.777344 69.753906 74.84375 69.734375 C 83.273438 68.769531 92.597656 63.957031 102.640625 55.40625 C 102.863281 55.230469 103.066406 55.027344 103.246094 54.824219 C 104.054688 53.976562 106.832031 50.886719 109.210938 46.746094 C 112.234375 41.621094 113.445312 36.851562 112.816406 32.621094 Z M 95.714844 56.640625 L 98.808594 57.445312 C 96.902344 58.921875 95.019531 60.289062 93.179688 61.496094 Z M 91.679688 62.457031 C 89.617188 63.734375 87.574219 64.832031 85.601562 65.726562 L 79.125 62.457031 L 77.9375 52.476562 L 85.175781 44.238281 L 93.652344 47.351562 L 95.019531 56.035156 Z M 78.878906 63.332031 L 84.527344 66.195312 C 81.433594 67.515625 78.453125 68.390625 75.558594 68.792969 Z M 67.648438 47.484375 L 66.210938 39.136719 L 73.453125 31.007812 L 82.242188 34.234375 L 84.59375 43.613281 L 77.375 51.804688 Z M 93.851562 46.476562 L 85.445312 43.386719 L 83.09375 33.964844 L 87.351562 27.25 L 96.453125 30.628906 L 97.886719 38.195312 Z M 52.042969 51.667969 L 48.703125 49.992188 L 54.890625 37.523438 L 65.335938 39.402344 L 66.773438 47.6875 L 59.890625 57.132812 L 55.652344 57.804688 L 53.859375 53.59375 C 53.5 52.746094 52.851562 52.074219 52.042969 51.667969 Z M 57.871094 63.085938 L 55.988281 58.652344 L 59.753906 58.050781 L 61.390625 66.441406 C 60.539062 65.949219 59.84375 65.4375 59.308594 65.011719 C 58.703125 64.519531 58.207031 63.847656 57.871094 63.085938 Z M 72.691406 69.0625 C 68.230469 69.21875 64.820312 68.1875 62.421875 67.003906 L 60.609375 57.644531 L 67.398438 48.355469 L 77.085938 52.65625 L 78.273438 62.660156 L 74.484375 68.949219 C 73.855469 68.996094 73.273438 69.039062 72.691406 69.0625 Z M 108.46875 46.363281 C 106.136719 50.417969 103.402344 53.460938 102.617188 54.289062 C 102.460938 54.46875 102.28125 54.648438 102.082031 54.804688 C 101.273438 55.496094 100.488281 56.148438 99.679688 56.773438 L 95.871094 55.765625 L 94.527344 47.105469 L 98.5625 38.753906 L 110.554688 42.023438 C 110.015625 43.433594 109.320312 44.886719 108.46875 46.363281 Z M 108.46875 46.363281 " fill-opacity="1" fill-rule="nonzero"/><path fill="#8dd880" d="M 43.078125 61.25 C 42.671875 61.40625 42.203125 61.40625 41.777344 61.363281 C 41.261719 61.292969 40.722656 61.183594 40.320312 60.847656 C 39.914062 60.511719 39.691406 59.90625 39.914062 59.4375 C 40.589844 58.027344 43.863281 58.699219 43.839844 60.265625 C 43.839844 60.691406 43.480469 61.070312 43.078125 61.25 Z M 44.398438 56.503906 C 44.242188 56.460938 43.972656 56.527344 43.75 56.796875 C 43.570312 57.019531 43.480469 57.355469 43.636719 57.601562 C 44.535156 58.898438 46.28125 56.683594 44.398438 56.503906 M 48.253906 61.496094 C 49.039062 60.398438 46.507812 58.117188 45.945312 59.636719 C 45.789062 60.085938 46.035156 60.578125 46.328125 60.960938 C 46.550781 61.273438 46.820312 61.585938 47.203125 61.71875 C 47.539062 61.875 48.007812 61.832031 48.253906 61.496094 Z M 45.925781 64.183594 C 45.339844 63.039062 42.941406 63.488281 42.359375 64.273438 C 42.246094 64.429688 42.136719 64.585938 42.15625 64.765625 C 42.179688 65.054688 42.492188 65.234375 42.761719 65.324219 C 43.480469 65.546875 44.242188 65.59375 44.960938 65.390625 C 45.25 65.324219 45.542969 65.210938 45.746094 64.988281 C 45.945312 64.765625 46.058594 64.449219 45.925781 64.183594 Z M 43.773438 36.785156 C 44.691406 36.226562 46.371094 34.1875 44.914062 33.25 C 44.265625 32.824219 42.652344 33.496094 42.179688 34.007812 C 41.597656 34.636719 41.394531 35.554688 41.621094 36.359375 C 41.6875 36.582031 41.777344 36.808594 41.957031 36.964844 C 42.449219 37.390625 43.210938 37.121094 43.773438 36.785156 Z M 48.660156 30.585938 C 48.414062 31.03125 48.457031 31.679688 48.90625 31.972656 C 49.308594 32.242188 49.871094 32.0625 50.296875 31.859375 C 50.855469 31.589844 51.394531 31.257812 51.773438 30.761719 C 52.875 29.351562 49.421875 29.242188 48.660156 30.585938 Z M 45.925781 30.382812 C 47.382812 30.09375 47.425781 27.472656 45.902344 28.101562 C 45.339844 28.324219 44.960938 29.152344 45.027344 29.710938 C 45.050781 29.847656 45.070312 29.980469 45.160156 30.09375 C 45.296875 30.339844 45.632812 30.429688 45.925781 30.382812 Z M 51.910156 26.128906 C 54.621094 23.710938 49.085938 22.214844 49.398438 25.59375 C 49.421875 25.90625 49.53125 26.21875 49.757812 26.445312 C 50.046875 26.734375 50.496094 26.800781 50.878906 26.710938 C 51.257812 26.621094 51.617188 26.398438 51.910156 26.128906 Z M 93.425781 18.183594 C 93.382812 18.542969 93.582031 18.921875 93.898438 19.125 C 94.1875 19.324219 94.570312 19.414062 94.929688 19.460938 C 95.378906 19.503906 95.804688 19.480469 96.25 19.394531 C 96.699219 19.304688 97.191406 19.101562 97.394531 18.699219 C 98.089844 17.289062 94.75 17.042969 94.03125 17.421875 C 93.742188 17.578125 93.472656 17.847656 93.425781 18.183594 Z M 102.910156 18.8125 C 102.683594 18.339844 101.207031 16.863281 100.667969 17.355469 C 100.308594 17.691406 100.890625 18.855469 101.160156 19.125 C 101.609375 19.527344 103.425781 19.886719 102.910156 18.8125 Z M 105.511719 15.453125 C 104.949219 14.78125 102.886719 14.199219 103.378906 15.765625 C 103.582031 16.414062 105.085938 16.953125 105.621094 16.4375 C 105.890625 16.167969 105.757812 15.722656 105.511719 15.453125 Z M 120.214844 46.230469 C 120.394531 45.851562 120.417969 45.425781 120.285156 45.023438 C 119.945312 43.8125 118.152344 42.941406 117.527344 44.460938 C 116.941406 45.894531 119.34375 47.953125 120.214844 46.230469 Z M 116.851562 48.355469 C 115.84375 47.796875 114.925781 49.050781 114.878906 49.925781 C 114.769531 51.917969 116.71875 50.910156 117.210938 49.789062 C 117.4375 49.296875 117.324219 48.625 116.851562 48.355469 Z M 115.328125 55.160156 C 115.554688 54.960938 115.484375 54.625 115.375 54.355469 C 115.195312 53.910156 114.925781 53.484375 114.613281 53.148438 C 114.1875 52.699219 113.402344 52.410156 113.175781 53.125 C 112.953125 53.839844 114.632812 55.789062 115.328125 55.160156 Z M 117.90625 52.074219 C 117.300781 52.632812 117.972656 53.796875 118.667969 53.257812 C 119.34375 52.722656 118.738281 51.3125 117.90625 52.074219 Z M 58.296875 79.246094 C 58.097656 79.359375 57.78125 79.804688 57.515625 80.296875 C 57.265625 80.722656 57.109375 81.214844 57.132812 81.707031 C 57.15625 82.203125 57.425781 82.695312 57.871094 82.894531 C 58.296875 83.097656 58.792969 83.007812 59.238281 82.871094 C 59.597656 82.738281 59.957031 82.582031 60.226562 82.3125 C 61.503906 81.039062 59.980469 78.550781 58.296875 79.246094 C 58.433594 79.246094 58.566406 79.246094 58.703125 79.246094 M 61.414062 85.289062 C 61.773438 86.296875 62.757812 86.8125 63.789062 87.101562 C 64.261719 87.238281 64.84375 87.238281 65.136719 86.835938 C 65.472656 86.363281 65.160156 85.714844 64.753906 85.3125 C 64.082031 84.617188 63.183594 84.148438 62.242188 83.992188 C 61.90625 83.945312 61.480469 83.945312 61.28125 84.214844 C 60.472656 85.179688 63.253906 86.8125 64.039062 86.96875 M 66.324219 82.023438 C 67.914062 80.949219 65.070312 80.613281 64.574219 80.542969 C 63.589844 80.433594 63.722656 81.6875 64.351562 82.042969 C 64.6875 82.246094 65.089844 82.269531 65.472656 82.246094 C 65.761719 82.246094 66.078125 82.179688 66.324219 82.023438 Z M 69.933594 85.023438 C 69.371094 84.597656 67.355469 84.035156 67.734375 85.355469 C 67.894531 85.894531 69.015625 86.386719 69.507812 86.433594 C 69.820312 86.453125 70.179688 86.386719 70.335938 86.140625 C 70.5625 85.761719 70.269531 85.289062 69.933594 85.023438 Z M 67.894531 91.085938 C 68.140625 90.527344 68.386719 89.453125 68.117188 88.871094 C 67.378906 87.28125 66.414062 89.09375 66.167969 89.8125 C 66.011719 90.304688 65.988281 90.863281 66.257812 91.289062 C 66.546875 91.714844 67.199219 91.894531 67.578125 91.558594 C 67.734375 91.421875 67.824219 91.265625 67.894531 91.085938 Z M 67.894531 91.085938 " fill-opacity="1" fill-rule="nonzero"/></svg>