<svg xmlns="http://www.w3.org/2000/svg" xmlns:xlink="http://www.w3.org/1999/xlink" width="100" zoomAndPan="magnify" viewBox="0 0 75 74.999997" height="100" preserveAspectRatio="xMidYMid meet" version="1.0"><defs><clipPath id="d27c6c2e1f"><path d="M 14 7.5 L 61 7.5 L 61 69 L 14 69 Z M 14 7.5 " clip-rule="nonzero"/></clipPath><clipPath id="50229f6a66"><path d="M 13.886719 7.5 L 61.136719 7.5 L 61.136719 69 L 13.886719 69 Z M 13.886719 7.5 " clip-rule="nonzero"/></clipPath><clipPath id="e0b529b3d7"><path d="M 13.886719 10 L 57 10 L 57 69 L 13.886719 69 Z M 13.886719 10 " clip-rule="nonzero"/></clipPath><clipPath id="6114ae500f"><path d="M 13.886719 10 L 57 10 L 57 69 L 13.886719 69 Z M 13.886719 10 " clip-rule="nonzero"/></clipPath><clipPath id="5854b96fc8"><path d="M 15 7.5 L 61 7.5 L 61 12 L 15 12 Z M 15 7.5 " clip-rule="nonzero"/></clipPath><clipPath id="9b5623d19d"><path d="M 55 7.5 L 61.136719 7.5 L 61.136719 23 L 55 23 Z M 55 7.5 " clip-rule="nonzero"/></clipPath><clipPath id="32d95bee9f"><path d="M 54 53 L 61.136719 53 L 61.136719 69 L 54 69 Z M 54 53 " clip-rule="nonzero"/></clipPath></defs><g clip-path="url(#d27c6c2e1f)"><path fill="#000000" d="M 54.101562 23.15625 C 54.640625 23.15625 55.132812 22.953125 55.507812 22.617188 L 59.675781 20.101562 C 59.808594 20.039062 59.9375 19.960938 60.054688 19.875 C 60.570312 19.484375 60.90625 18.867188 60.90625 18.167969 L 60.90625 9.847656 C 60.90625 8.667969 59.953125 7.714844 58.777344 7.714844 L 20.921875 7.714844 C 20.480469 7.714844 20.070312 7.847656 19.726562 8.082031 L 15.445312 10.722656 C 15.230469 10.808594 15.03125 10.933594 14.855469 11.085938 C 14.40625 11.476562 14.121094 12.054688 14.121094 12.699219 L 14.121094 66.648438 C 14.121094 67.828125 15.070312 68.785156 16.246094 68.785156 L 54.101562 68.785156 C 54.503906 68.785156 54.878906 68.671875 55.203125 68.476562 L 59.839844 65.648438 C 60.476562 65.277344 60.90625 64.589844 60.90625 63.800781 L 60.90625 55.476562 C 60.90625 54.296875 59.953125 53.34375 58.777344 53.34375 L 31.34375 53.34375 L 31.34375 45.96875 L 51.828125 45.96875 C 52.28125 45.96875 52.699219 45.828125 53.046875 45.585938 L 57.410156 42.914062 C 58.132812 42.570312 58.628906 41.835938 58.628906 40.984375 L 58.628906 32.664062 C 58.628906 31.484375 57.675781 30.527344 56.503906 30.527344 L 31.34375 30.527344 L 31.34375 23.15625 Z M 54.101562 23.15625 " fill-opacity="1" fill-rule="nonzero"/></g><g clip-path="url(#50229f6a66)"><path fill="#000000" d="M 54.101562 69 L 16.246094 69 C 14.957031 69 13.90625 67.945312 13.90625 66.648438 L 13.90625 12.699219 C 13.90625 12.019531 14.203125 11.371094 14.714844 10.925781 C 14.71875 10.925781 14.71875 10.921875 14.71875 10.921875 C 14.910156 10.757812 15.121094 10.625 15.351562 10.53125 L 19.613281 7.902344 C 20 7.640625 20.453125 7.5 20.921875 7.5 L 58.777344 7.5 C 60.066406 7.5 61.117188 8.554688 61.117188 9.847656 L 61.117188 18.167969 C 61.117188 18.914062 60.777344 19.597656 60.179688 20.046875 C 60.054688 20.140625 59.917969 20.222656 59.777344 20.289062 L 55.636719 22.792969 C 55.207031 23.164062 54.664062 23.367188 54.101562 23.367188 L 31.554688 23.367188 L 31.554688 30.316406 L 56.503906 30.316406 C 57.792969 30.316406 58.84375 31.367188 58.84375 32.664062 L 58.84375 40.984375 C 58.84375 41.875 58.328125 42.699219 57.527344 43.09375 C 57.527344 43.09375 57.523438 43.09375 57.523438 43.097656 L 53.15625 45.765625 C 53.15625 45.769531 53.152344 45.769531 53.152344 45.769531 C 52.757812 46.039062 52.300781 46.183594 51.828125 46.183594 L 31.554688 46.183594 L 31.554688 53.128906 L 58.777344 53.128906 C 60.066406 53.128906 61.117188 54.183594 61.117188 55.476562 L 61.117188 63.800781 C 61.117188 64.625 60.675781 65.394531 59.96875 65.820312 C 59.960938 65.824219 59.957031 65.828125 59.949219 65.832031 L 55.3125 68.65625 C 54.945312 68.878906 54.527344 69 54.101562 69 Z M 14.992188 11.25 C 14.574219 11.617188 14.332031 12.144531 14.332031 12.699219 L 14.332031 66.648438 C 14.332031 67.710938 15.191406 68.570312 16.246094 68.570312 L 54.101562 68.570312 C 54.449219 68.570312 54.792969 68.476562 55.089844 68.292969 L 59.707031 65.476562 C 59.714844 65.472656 59.722656 65.46875 59.734375 65.460938 C 60.324219 65.117188 60.691406 64.480469 60.691406 63.800781 L 60.691406 55.476562 C 60.691406 54.417969 59.832031 53.554688 58.777344 53.554688 L 31.34375 53.554688 C 31.226562 53.554688 31.132812 53.460938 31.132812 53.34375 L 31.132812 45.96875 C 31.132812 45.851562 31.226562 45.757812 31.34375 45.757812 L 51.828125 45.757812 C 52.222656 45.757812 52.601562 45.636719 52.921875 45.410156 C 52.933594 45.402344 52.941406 45.398438 52.949219 45.394531 L 57.277344 42.746094 C 57.289062 42.734375 57.304688 42.726562 57.320312 42.71875 C 57.988281 42.402344 58.417969 41.722656 58.417969 40.984375 L 58.417969 32.664062 C 58.417969 31.605469 57.558594 30.742188 56.503906 30.742188 L 31.34375 30.742188 C 31.226562 30.742188 31.132812 30.644531 31.132812 30.527344 L 31.132812 23.15625 C 31.132812 23.039062 31.226562 22.941406 31.34375 22.941406 L 54.101562 22.941406 C 54.566406 22.941406 55.015625 22.769531 55.367188 22.457031 C 55.378906 22.449219 55.386719 22.441406 55.398438 22.433594 L 59.566406 19.917969 C 59.574219 19.914062 59.578125 19.910156 59.585938 19.910156 C 59.707031 19.851562 59.820312 19.785156 59.925781 19.703125 C 60.414062 19.335938 60.691406 18.777344 60.691406 18.167969 L 60.691406 9.847656 C 60.691406 8.789062 59.832031 7.925781 58.777344 7.925781 L 20.921875 7.925781 C 20.535156 7.925781 20.164062 8.042969 19.847656 8.257812 C 19.84375 8.261719 19.84375 8.261719 19.839844 8.261719 L 15.558594 10.902344 C 15.546875 10.910156 15.539062 10.914062 15.527344 10.917969 C 15.335938 11 15.15625 11.109375 14.996094 11.246094 C 14.996094 11.25 14.992188 11.25 14.992188 11.25 Z M 14.992188 11.25 " fill-opacity="1" fill-rule="nonzero"/></g><path fill="#ffffff" d="M 14.121094 66.648438 L 14.121094 12.699219 C 14.121094 11.519531 15.070312 10.5625 16.246094 10.5625 L 54.101562 10.5625 C 55.277344 10.5625 56.230469 11.519531 56.230469 12.699219 L 56.230469 21.019531 C 56.230469 22.199219 55.277344 23.15625 54.101562 23.15625 L 26.667969 23.15625 L 26.667969 33.378906 L 51.828125 33.378906 C 53.003906 33.378906 53.957031 34.335938 53.957031 35.515625 L 53.957031 43.835938 C 53.957031 45.015625 53.003906 45.96875 51.828125 45.96875 L 26.667969 45.96875 L 26.667969 56.195312 L 54.101562 56.195312 C 55.277344 56.195312 56.230469 57.148438 56.230469 58.328125 L 56.230469 66.648438 C 56.230469 67.828125 55.277344 68.785156 54.101562 68.785156 L 16.246094 68.785156 C 15.070312 68.785156 14.121094 67.828125 14.121094 66.648438 Z M 14.121094 66.648438 " fill-opacity="1" fill-rule="nonzero"/><g clip-path="url(#e0b529b3d7)"><path fill="#000000" d="M 54.101562 69 L 16.246094 69 C 14.957031 69 13.90625 67.945312 13.90625 66.648438 L 13.90625 12.699219 C 13.90625 11.402344 14.957031 10.351562 16.246094 10.351562 L 54.101562 10.351562 C 55.390625 10.351562 56.441406 11.402344 56.441406 12.699219 L 56.441406 21.019531 C 56.441406 22.316406 55.390625 23.367188 54.101562 23.367188 L 26.882812 23.367188 L 26.882812 33.164062 L 51.828125 33.164062 C 53.117188 33.164062 54.167969 34.21875 54.167969 35.515625 L 54.167969 43.835938 C 54.167969 45.128906 53.117188 46.183594 51.828125 46.183594 L 26.882812 46.183594 L 26.882812 55.980469 L 54.101562 55.980469 C 55.390625 55.980469 56.441406 57.035156 56.441406 58.328125 L 56.441406 66.648438 C 56.441406 67.945312 55.390625 69 54.101562 69 Z M 16.246094 10.777344 C 15.191406 10.777344 14.332031 11.640625 14.332031 12.699219 L 14.332031 66.648438 C 14.332031 67.710938 15.191406 68.570312 16.246094 68.570312 L 54.101562 68.570312 C 55.15625 68.570312 56.015625 67.710938 56.015625 66.648438 L 56.015625 58.328125 C 56.015625 57.269531 55.15625 56.40625 54.101562 56.40625 L 26.667969 56.40625 C 26.550781 56.40625 26.457031 56.3125 26.457031 56.195312 L 26.457031 45.96875 C 26.457031 45.851562 26.550781 45.757812 26.667969 45.757812 L 51.828125 45.757812 C 52.882812 45.757812 53.742188 44.894531 53.742188 43.835938 L 53.742188 35.515625 C 53.742188 34.453125 52.882812 33.59375 51.828125 33.59375 L 26.667969 33.59375 C 26.550781 33.59375 26.457031 33.496094 26.457031 33.378906 L 26.457031 23.15625 C 26.457031 23.039062 26.550781 22.941406 26.667969 22.941406 L 54.101562 22.941406 C 55.15625 22.941406 56.015625 22.078125 56.015625 21.019531 L 56.015625 12.699219 C 56.015625 11.640625 55.15625 10.777344 54.101562 10.777344 Z M 16.246094 10.777344 " fill-opacity="1" fill-rule="nonzero"/></g><path fill="#ffffff" d="M 14.121094 66.648438 L 14.121094 12.699219 C 14.121094 11.519531 15.070312 10.5625 16.246094 10.5625 L 54.101562 10.5625 C 55.277344 10.5625 56.230469 11.519531 56.230469 12.699219 L 56.230469 21.019531 C 56.230469 22.199219 55.277344 23.15625 54.101562 23.15625 L 26.667969 23.15625 L 26.667969 33.378906 L 51.828125 33.378906 C 53.003906 33.378906 53.957031 34.335938 53.957031 35.515625 L 53.957031 43.835938 C 53.957031 45.015625 53.003906 45.96875 51.828125 45.96875 L 26.667969 45.96875 L 26.667969 56.195312 L 54.101562 56.195312 C 55.277344 56.195312 56.230469 57.148438 56.230469 58.328125 L 56.230469 66.648438 C 56.230469 67.828125 55.277344 68.785156 54.101562 68.785156 L 16.246094 68.785156 C 15.070312 68.785156 14.121094 67.828125 14.121094 66.648438 Z M 14.121094 66.648438 " fill-opacity="1" fill-rule="nonzero"/><g clip-path="url(#6114ae500f)"><path fill="#000000" d="M 54.101562 69 L 16.246094 69 C 14.957031 69 13.90625 67.945312 13.90625 66.648438 L 13.90625 12.699219 C 13.90625 11.402344 14.957031 10.351562 16.246094 10.351562 L 54.101562 10.351562 C 55.390625 10.351562 56.441406 11.402344 56.441406 12.699219 L 56.441406 21.019531 C 56.441406 22.316406 55.390625 23.367188 54.101562 23.367188 L 26.882812 23.367188 L 26.882812 33.164062 L 51.828125 33.164062 C 53.117188 33.164062 54.167969 34.21875 54.167969 35.515625 L 54.167969 43.835938 C 54.167969 45.128906 53.117188 46.183594 51.828125 46.183594 L 26.882812 46.183594 L 26.882812 55.980469 L 54.101562 55.980469 C 55.390625 55.980469 56.441406 57.035156 56.441406 58.328125 L 56.441406 66.648438 C 56.441406 67.945312 55.390625 69 54.101562 69 Z M 16.246094 10.777344 C 15.191406 10.777344 14.332031 11.640625 14.332031 12.699219 L 14.332031 66.648438 C 14.332031 67.710938 15.191406 68.570312 16.246094 68.570312 L 54.101562 68.570312 C 55.15625 68.570312 56.015625 67.710938 56.015625 66.648438 L 56.015625 58.328125 C 56.015625 57.269531 55.15625 56.40625 54.101562 56.40625 L 26.667969 56.40625 C 26.550781 56.40625 26.457031 56.3125 26.457031 56.195312 L 26.457031 45.96875 C 26.457031 45.851562 26.550781 45.757812 26.667969 45.757812 L 51.828125 45.757812 C 52.882812 45.757812 53.742188 44.894531 53.742188 43.835938 L 53.742188 35.515625 C 53.742188 34.453125 52.882812 33.59375 51.828125 33.59375 L 26.667969 33.59375 C 26.550781 33.59375 26.457031 33.496094 26.457031 33.378906 L 26.457031 23.15625 C 26.457031 23.039062 26.550781 22.941406 26.667969 22.941406 L 54.101562 22.941406 C 55.15625 22.941406 56.015625 22.078125 56.015625 21.019531 L 56.015625 12.699219 C 56.015625 11.640625 55.15625 10.777344 54.101562 10.777344 Z M 16.246094 10.777344 " fill-opacity="1" fill-rule="nonzero"/></g><path fill="#c2b092" d="M 31.34375 23.15625 L 26.667969 23.15625 L 26.667969 33.378906 L 31.34375 30.527344 Z M 31.34375 23.15625 " fill-opacity="1" fill-rule="nonzero"/><path fill="#000000" d="M 26.667969 33.59375 C 26.632812 33.59375 26.597656 33.582031 26.566406 33.566406 C 26.496094 33.527344 26.457031 33.457031 26.457031 33.378906 L 26.457031 23.15625 C 26.457031 23.039062 26.550781 22.941406 26.667969 22.941406 L 31.34375 22.941406 C 31.460938 22.941406 31.554688 23.039062 31.554688 23.15625 L 31.554688 30.527344 C 31.554688 30.601562 31.519531 30.671875 31.453125 30.710938 L 26.78125 33.5625 C 26.746094 33.582031 26.707031 33.59375 26.667969 33.59375 Z M 26.882812 23.367188 L 26.882812 33 L 31.132812 30.40625 L 31.132812 23.367188 Z M 26.882812 23.367188 " fill-opacity="1" fill-rule="nonzero"/><path fill="#c2b092" d="M 31.34375 45.96875 L 26.667969 45.96875 L 26.667969 56.195312 L 31.34375 53.34375 Z M 31.34375 45.96875 " fill-opacity="1" fill-rule="nonzero"/><path fill="#000000" d="M 26.667969 56.40625 C 26.632812 56.40625 26.597656 56.398438 26.566406 56.378906 C 26.496094 56.339844 26.457031 56.269531 26.457031 56.195312 L 26.457031 45.96875 C 26.457031 45.851562 26.550781 45.757812 26.667969 45.757812 L 31.34375 45.757812 C 31.460938 45.757812 31.554688 45.851562 31.554688 45.96875 L 31.554688 53.34375 C 31.554688 53.417969 31.519531 53.484375 31.453125 53.523438 L 26.78125 56.375 C 26.746094 56.394531 26.707031 56.40625 26.667969 56.40625 Z M 26.882812 46.183594 L 26.882812 55.8125 L 31.132812 53.222656 L 31.132812 46.183594 Z M 26.882812 46.183594 " fill-opacity="1" fill-rule="nonzero"/><g clip-path="url(#5854b96fc8)"><path fill="#c2b092" d="M 58.863281 7.71875 C 58.832031 7.714844 58.804688 7.714844 58.777344 7.714844 L 20.921875 7.714844 C 20.480469 7.714844 20.070312 7.847656 19.726562 8.082031 L 15.445312 10.722656 C 15.695312 10.621094 15.964844 10.5625 16.246094 10.5625 L 54.101562 10.5625 C 54.625 10.5625 55.101562 10.753906 55.472656 11.070312 L 60.121094 8.199219 C 59.773438 7.914062 59.339844 7.738281 58.863281 7.71875 Z M 58.863281 7.71875 " fill-opacity="1" fill-rule="nonzero"/><path fill="#000000" d="M 55.472656 11.28125 C 55.425781 11.28125 55.375 11.265625 55.335938 11.230469 C 54.992188 10.9375 54.550781 10.777344 54.101562 10.777344 L 16.246094 10.777344 C 16 10.777344 15.757812 10.824219 15.527344 10.917969 C 15.425781 10.960938 15.308594 10.917969 15.257812 10.816406 C 15.207031 10.71875 15.242188 10.597656 15.335938 10.539062 L 19.613281 7.902344 C 20 7.640625 20.453125 7.5 20.921875 7.5 L 58.777344 7.5 C 58.800781 7.5 58.820312 7.5 58.84375 7.503906 C 58.851562 7.503906 58.863281 7.503906 58.871094 7.503906 C 59.378906 7.523438 59.859375 7.707031 60.253906 8.03125 C 60.308594 8.074219 60.335938 8.144531 60.332031 8.210938 C 60.328125 8.28125 60.289062 8.34375 60.230469 8.378906 L 55.585938 11.25 C 55.550781 11.273438 55.511719 11.28125 55.472656 11.28125 Z M 16.453125 10.351562 L 54.101562 10.351562 C 54.601562 10.351562 55.085938 10.511719 55.488281 10.808594 L 59.730469 8.1875 C 59.464844 8.03125 59.167969 7.945312 58.855469 7.929688 C 58.839844 7.929688 58.828125 7.929688 58.816406 7.929688 C 58.800781 7.929688 58.789062 7.925781 58.777344 7.925781 L 20.921875 7.925781 C 20.535156 7.925781 20.164062 8.042969 19.847656 8.257812 C 19.84375 8.257812 19.84375 8.261719 19.839844 8.261719 Z M 16.453125 10.351562 " fill-opacity="1" fill-rule="nonzero"/></g><path fill="#c2b092" d="M 60.121094 8.199219 L 55.472656 11.070312 C 55.933594 11.460938 56.230469 12.046875 56.230469 12.699219 L 56.230469 21.019531 C 56.230469 21.65625 55.949219 22.226562 55.507812 22.617188 L 59.675781 20.101562 C 59.808594 20.039062 59.9375 19.960938 60.054688 19.875 C 60.570312 19.484375 60.902344 18.867188 60.902344 18.167969 L 60.902344 9.847656 C 60.90625 9.179688 60.597656 8.589844 60.121094 8.199219 Z M 60.121094 8.199219 " fill-opacity="1" fill-rule="nonzero"/><g clip-path="url(#9b5623d19d)"><path fill="#000000" d="M 55.507812 22.832031 C 55.445312 22.832031 55.378906 22.800781 55.335938 22.746094 C 55.273438 22.65625 55.285156 22.53125 55.367188 22.457031 C 55.78125 22.09375 56.015625 21.570312 56.015625 21.019531 L 56.015625 12.699219 C 56.015625 12.132812 55.769531 11.597656 55.335938 11.230469 C 55.285156 11.1875 55.257812 11.121094 55.261719 11.054688 C 55.265625 10.984375 55.304688 10.921875 55.363281 10.886719 L 60.007812 8.015625 C 60.085938 7.96875 60.183594 7.976562 60.253906 8.03125 C 60.804688 8.480469 61.117188 9.140625 61.117188 9.847656 L 61.117188 18.167969 C 61.117188 18.914062 60.777344 19.597656 60.179688 20.046875 C 60.054688 20.140625 59.917969 20.222656 59.777344 20.289062 L 55.617188 22.800781 C 55.585938 22.820312 55.546875 22.832031 55.507812 22.832031 Z M 55.820312 11.105469 C 56.21875 11.539062 56.441406 12.105469 56.441406 12.699219 L 56.441406 21.019531 C 56.441406 21.328125 56.378906 21.632812 56.265625 21.914062 L 59.566406 19.917969 C 59.574219 19.914062 59.578125 19.910156 59.585938 19.910156 C 59.707031 19.851562 59.820312 19.785156 59.925781 19.703125 C 60.414062 19.335938 60.691406 18.777344 60.691406 18.167969 L 60.691406 9.847656 C 60.691406 9.320312 60.476562 8.824219 60.097656 8.460938 Z M 55.820312 11.105469 " fill-opacity="1" fill-rule="nonzero"/></g><path fill="#c2b092" d="M 56.503906 30.527344 L 31.34375 30.527344 L 26.667969 33.378906 L 51.828125 33.378906 C 51.902344 33.378906 51.972656 33.382812 52.046875 33.390625 C 52.542969 33.441406 52.992188 33.667969 53.328125 34.003906 L 57.980469 31.128906 C 57.597656 30.757812 57.078125 30.527344 56.503906 30.527344 Z M 56.503906 30.527344 " fill-opacity="1" fill-rule="nonzero"/><path fill="#000000" d="M 53.328125 34.21875 C 53.273438 34.21875 53.21875 34.195312 53.179688 34.15625 C 52.867188 33.84375 52.457031 33.644531 52.023438 33.601562 C 51.957031 33.597656 51.894531 33.59375 51.828125 33.59375 L 26.667969 33.59375 C 26.574219 33.59375 26.488281 33.527344 26.464844 33.4375 C 26.4375 33.34375 26.476562 33.246094 26.558594 33.195312 L 31.234375 30.347656 C 31.265625 30.324219 31.304688 30.316406 31.34375 30.316406 L 56.503906 30.316406 C 57.113281 30.316406 57.6875 30.550781 58.128906 30.976562 C 58.175781 31.023438 58.199219 31.085938 58.191406 31.152344 C 58.183594 31.21875 58.148438 31.277344 58.09375 31.3125 L 53.441406 34.1875 C 53.40625 34.207031 53.367188 34.21875 53.328125 34.21875 Z M 27.429688 33.164062 L 51.828125 33.164062 C 51.90625 33.164062 51.988281 33.167969 52.066406 33.175781 C 52.539062 33.226562 52.992188 33.421875 53.355469 33.738281 L 57.617188 31.101562 C 57.292969 30.867188 56.90625 30.742188 56.503906 30.742188 L 31.402344 30.742188 Z M 27.429688 33.164062 " fill-opacity="1" fill-rule="nonzero"/><path fill="#c2b092" d="M 57.980469 31.128906 L 53.328125 34.003906 C 53.714844 34.390625 53.957031 34.921875 53.957031 35.515625 L 53.957031 43.835938 C 53.957031 44.558594 53.59375 45.199219 53.046875 45.585938 L 57.410156 42.914062 C 58.132812 42.570312 58.628906 41.835938 58.628906 40.984375 L 58.628906 32.664062 C 58.628906 32.0625 58.378906 31.519531 57.980469 31.128906 Z M 57.980469 31.128906 " fill-opacity="1" fill-rule="nonzero"/><path fill="#000000" d="M 53.046875 45.796875 C 52.984375 45.796875 52.925781 45.773438 52.886719 45.726562 C 52.84375 45.679688 52.828125 45.617188 52.832031 45.558594 C 52.839844 45.5 52.875 45.445312 52.921875 45.410156 C 53.4375 45.050781 53.742188 44.460938 53.742188 43.835938 L 53.742188 35.515625 C 53.742188 35 53.542969 34.519531 53.179688 34.15625 C 53.132812 34.109375 53.109375 34.042969 53.117188 33.980469 C 53.125 33.914062 53.160156 33.855469 53.21875 33.820312 L 57.871094 30.949219 C 57.953125 30.898438 58.058594 30.910156 58.128906 30.976562 C 58.589844 31.421875 58.84375 32.023438 58.84375 32.664062 L 58.84375 40.984375 C 58.84375 41.875 58.328125 42.699219 57.527344 43.09375 C 57.527344 43.09375 57.523438 43.09375 57.523438 43.097656 L 53.15625 45.765625 C 53.121094 45.789062 53.082031 45.796875 53.046875 45.796875 Z M 53.65625 34.050781 C 53.988281 34.464844 54.167969 34.976562 54.167969 35.515625 L 54.167969 43.835938 C 54.167969 44.160156 54.101562 44.476562 53.976562 44.765625 L 57.277344 42.746094 C 57.289062 42.734375 57.304688 42.726562 57.320312 42.71875 C 57.988281 42.402344 58.417969 41.722656 58.417969 40.984375 L 58.417969 32.664062 C 58.417969 32.195312 58.25 31.753906 57.945312 31.402344 Z M 53.65625 34.050781 " fill-opacity="1" fill-rule="nonzero"/><path fill="#c2b092" d="M 58.777344 53.34375 L 31.34375 53.34375 L 26.667969 56.195312 L 54.101562 56.195312 C 54.628906 56.195312 55.113281 56.386719 55.484375 56.707031 L 60.132812 53.835938 C 59.765625 53.527344 59.292969 53.34375 58.777344 53.34375 Z M 58.777344 53.34375 " fill-opacity="1" fill-rule="nonzero"/><path fill="#000000" d="M 55.484375 56.921875 C 55.433594 56.921875 55.386719 56.902344 55.34375 56.871094 C 55 56.570312 54.558594 56.40625 54.101562 56.40625 L 26.667969 56.40625 C 26.574219 56.40625 26.488281 56.34375 26.464844 56.25 C 26.4375 56.160156 26.476562 56.0625 26.558594 56.011719 L 31.234375 53.160156 C 31.265625 53.140625 31.304688 53.128906 31.34375 53.128906 L 58.777344 53.128906 C 59.320312 53.128906 59.851562 53.320312 60.269531 53.671875 C 60.324219 53.714844 60.351562 53.78125 60.347656 53.847656 C 60.34375 53.917969 60.304688 53.980469 60.246094 54.015625 L 55.597656 56.890625 C 55.5625 56.910156 55.523438 56.921875 55.484375 56.921875 Z M 27.429688 55.980469 L 54.101562 55.980469 C 54.605469 55.980469 55.097656 56.144531 55.5 56.445312 L 59.75 53.820312 C 59.457031 53.648438 59.121094 53.554688 58.777344 53.554688 L 31.402344 53.554688 Z M 27.429688 55.980469 " fill-opacity="1" fill-rule="nonzero"/><path fill="#c2b092" d="M 60.132812 53.835938 L 55.484375 56.707031 C 55.941406 57.097656 56.230469 57.679688 56.230469 58.328125 L 56.230469 66.648438 C 56.230469 67.425781 55.816406 68.101562 55.203125 68.476562 L 59.839844 65.648438 C 60.476562 65.277344 60.90625 64.589844 60.90625 63.800781 L 60.90625 55.476562 C 60.90625 54.816406 60.605469 54.226562 60.132812 53.835938 Z M 60.132812 53.835938 " fill-opacity="1" fill-rule="nonzero"/><g clip-path="url(#32d95bee9f)"><path fill="#000000" d="M 55.203125 68.6875 C 55.128906 68.6875 55.058594 68.652344 55.019531 68.585938 C 54.957031 68.484375 54.992188 68.351562 55.089844 68.292969 C 55.089844 68.292969 55.09375 68.292969 55.09375 68.292969 L 55.09375 68.289062 C 55.671875 67.9375 56.015625 67.324219 56.015625 66.648438 L 56.015625 58.328125 C 56.015625 57.769531 55.773438 57.234375 55.347656 56.871094 C 55.292969 56.824219 55.265625 56.757812 55.273438 56.691406 C 55.277344 56.621094 55.316406 56.5625 55.371094 56.527344 L 60.023438 53.652344 C 60.101562 53.605469 60.199219 53.613281 60.269531 53.667969 C 60.808594 54.117188 61.117188 54.777344 61.117188 55.476562 L 61.117188 63.800781 C 61.117188 64.625 60.675781 65.394531 59.96875 65.820312 C 59.960938 65.824219 59.957031 65.828125 59.949219 65.832031 L 55.316406 68.65625 C 55.316406 68.65625 55.3125 68.65625 55.3125 68.65625 C 55.277344 68.679688 55.238281 68.6875 55.203125 68.6875 Z M 55.828125 56.746094 C 56.222656 57.175781 56.441406 57.738281 56.441406 58.328125 L 56.441406 66.648438 C 56.441406 66.980469 56.375 67.296875 56.25 67.585938 L 59.707031 65.476562 C 59.714844 65.472656 59.722656 65.46875 59.734375 65.460938 C 60.324219 65.117188 60.691406 64.480469 60.691406 63.800781 L 60.691406 55.476562 C 60.691406 54.953125 60.480469 54.460938 60.109375 54.101562 Z M 55.828125 56.746094 " fill-opacity="1" fill-rule="nonzero"/></g></svg>