<svg xmlns="http://www.w3.org/2000/svg" xmlns:xlink="http://www.w3.org/1999/xlink" width="200" zoomAndPan="magnify" viewBox="0 0 150 112.499997" height="150" preserveAspectRatio="xMidYMid meet" version="1.0"><defs><clipPath id="c9a7042e9b"><path d="M 76 11.199219 L 127.617188 11.199219 L 127.617188 50 L 76 50 Z M 76 11.199219 " clip-rule="nonzero"/></clipPath><clipPath id="a19782c67d"><path d="M 22.335938 17 L 78 17 L 78 51 L 22.335938 51 Z M 22.335938 17 " clip-rule="nonzero"/></clipPath></defs><path fill="#d78f57" d="M 75.144531 33.257812 C 96.082031 31.378906 112.367188 35.5 113.25 42.359375 C 114.132812 49.21875 98.570312 56.503906 78.488281 58.808594 C 58.40625 61.109375 41.410156 57.132812 40.523438 50.273438 C 39.640625 43.414062 54.207031 35.132812 75.144531 33.257812 " fill-opacity="1" fill-rule="evenodd"/><path stroke-linecap="butt" transform="matrix(0.00593577, 0, 0, -0.00593227, 23.654858, 97.864726)" fill="none" stroke-linejoin="miter" d="M 8674.478568 10890.76103 C 12201.824589 11207.48749 14945.389059 10512.796398 15094.116709 9356.514352 C 15242.844358 8200.232307 12621.025972 6972.176491 9237.800992 6583.676259 C 5854.576012 6195.834502 2991.239718 6866.162021 2841.853981 8022.444066 C 2693.126332 9178.726111 5147.132547 10574.693045 8674.478568 10890.76103 Z M 8674.478568 10890.76103 " stroke="#100f0d" stroke-width="71.997002" stroke-opacity="1" stroke-miterlimit="2.613"/><path fill="#f6f5ef" d="M 75.285156 36.828125 C 93.597656 34.804688 108.101562 39.175781 108.90625 45.183594 C 105.699219 49.511719 95.835938 54.453125 77.523438 56.472656 C 59.207031 58.492188 48.722656 55.601562 44.128906 51.53125 C 43.746094 45.808594 56.972656 38.847656 75.285156 36.828125 " fill-opacity="1" fill-rule="evenodd"/><path stroke-linecap="butt" transform="matrix(0.00593577, 0, 0, -0.00593227, 23.654858, 97.864726)" fill="none" stroke-linejoin="miter" d="M 8698.169698 10288.914908 C 11783.281292 10630.004942 14226.758116 9893.171452 14362.324027 8880.43695 C 13822.034645 8150.846685 12160.365111 7317.875849 9075.253517 6977.44429 C 5989.483835 6637.012731 4223.178477 7124.284208 3449.268231 7810.415126 C 3384.77571 8775.080955 5613.058103 9948.483349 8698.169698 10288.914908 Z M 8698.169698 10288.914908 " stroke="#100f0d" stroke-width="71.997002" stroke-opacity="1" stroke-miterlimit="2.613"/><path stroke-linecap="butt" transform="matrix(0.00593577, 0, 0, -0.00593227, 23.654858, 97.864726)" fill="none" stroke-linejoin="miter" d="M 8650.129351 10601.032043 C 11735.240945 10941.463602 14346.52994 10396.904803 14482.753937 9384.170301 C 14618.319848 8372.094274 12227.48998 7275.074976 9142.378385 6934.643417 C 6057.266791 6594.211858 3445.977796 7138.770658 3309.753799 8151.50516 C 3173.529801 9164.239662 5565.017756 10260.600485 8650.129351 10601.032043 Z M 8650.129351 10601.032043 " stroke="#100f0d" stroke-width="71.997002" stroke-opacity="1" stroke-miterlimit="2.613"/><path fill="#d78f57" d="M 79.902344 89.398438 C 94.429688 87.070312 115.523438 84.910156 111.578125 68.605469 C 114.136719 70.109375 115.84375 71.875 116.101562 73.9375 C 116.984375 81.082031 101.417969 88.667969 81.335938 91.070312 C 61.253906 93.46875 44.257812 89.324219 43.375 82.179688 C 43.09375 79.921875 44.359375 77.515625 46.882812 75.21875 C 45.070312 91.464844 67.4375 89.457031 79.902344 89.398438 " fill-opacity="1" fill-rule="evenodd"/><path stroke-linecap="butt" transform="matrix(0.00593577, 0, 0, -0.00593227, 23.654858, 97.864726)" fill="none" stroke-linejoin="miter" d="M 9476.028466 1427.158779 C 11923.453811 1819.60986 15477.12331 2183.746518 14812.455496 4932.221037 C 15243.502445 4678.708174 15531.086439 4381.077488 15574.520178 4033.402705 C 15723.247827 2829.051987 13100.771355 1550.293598 9717.546374 1145.331492 C 6334.321394 741.027861 3470.9851 1439.669803 3322.257451 2644.020521 C 3274.875191 3024.619053 3488.095361 3430.239634 3913.219526 3817.422915 C 3607.867184 1078.82552 7376.073027 1417.281654 9476.028466 1427.158779 Z M 9476.028466 1427.158779 " stroke="#100f0d" stroke-width="71.997002" stroke-opacity="1" stroke-miterlimit="2.613"/><path fill="#d78f57" d="M 40.546875 50.605469 C 40.621094 52.277344 40.753906 54.117188 40.832031 55.789062 C 46.117188 68.527344 77.921875 64.515625 85.304688 63.390625 C 91.679688 62.289062 112.640625 57.601562 113.65625 48.984375 L 113.375 43.015625 C 109.34375 54.15625 86.90625 57.269531 76.953125 58.847656 C 62.320312 59.839844 43.640625 58.613281 40.546875 50.605469 " fill-opacity="1" fill-rule="evenodd"/><path stroke-linecap="butt" transform="matrix(0.00593577, 0, 0, -0.00593227, 23.654858, 97.864726)" fill="none" stroke-linejoin="miter" d="M 2845.802503 7966.473693 C 2858.306155 7684.646407 2880.681111 7374.504696 2893.84285 7092.67741 C 3784.234485 4945.390537 9142.378385 5621.64433 10386.16271 5811.285121 C 11460.160603 5996.975062 14991.455145 6787.145024 15162.557751 8239.740805 L 15115.175491 9245.890558 C 14436.029764 7367.919947 10655.978357 6843.115397 8979.172823 6577.091509 C 6513.97913 6409.838867 3367.007363 6616.600007 2845.802503 7966.473693 Z M 2845.802503 7966.473693 " stroke="#100f0d" stroke-width="71.997002" stroke-opacity="1" stroke-miterlimit="2.613"/><path fill="#d78f57" d="M 43.226562 81.929688 L 43.398438 88.535156 C 48.714844 101.273438 80.71875 97.261719 88.152344 96.136719 C 94.5625 95.035156 115.652344 90.347656 116.675781 81.730469 L 116.28125 74.109375 C 114.214844 85.707031 89.761719 90.414062 79.742188 91.480469 C 65.019531 92.472656 46.792969 91.242188 43.226562 81.929688 " fill-opacity="1" fill-rule="evenodd"/><path stroke-linecap="butt" transform="matrix(0.00593577, 0, 0, -0.00593227, 23.654858, 97.864726)" fill="none" stroke-linejoin="miter" d="M 3297.250147 2686.162919 L 3326.205972 1572.681747 C 4221.862303 -574.605126 9613.568637 101.648666 10865.908092 291.289457 C 11945.828767 476.979399 15498.840179 1267.149361 15671.258959 2719.745142 L 15604.792177 4004.429806 C 15256.664184 2049.417624 11137.039913 1255.955287 9449.046901 1076.19162 C 6968.717208 908.938978 3898.083527 1116.358593 3297.250147 2686.162919 Z M 3297.250147 2686.162919 " stroke="#100f0d" stroke-width="71.997002" stroke-opacity="1" stroke-miterlimit="2.613"/><path fill="#bb3c07" d="M 45.503906 61.140625 C 46.074219 67.738281 46.644531 74.960938 47.214844 81.558594 C 54.800781 92.132812 72.019531 89.09375 79.378906 89.304688 C 91.003906 88.542969 110.835938 84.425781 112.03125 74.210938 L 110.039062 54.820312 C 102.605469 59.558594 90.332031 63.382812 79.027344 64.304688 C 68.859375 64.996094 56.355469 66.601562 45.503906 61.140625 " fill-opacity="1" fill-rule="evenodd"/><path stroke-linecap="butt" transform="matrix(0.00593577, 0, 0, -0.00593227, 23.654858, 97.864726)" fill="none" stroke-linejoin="miter" d="M 3680.914835 6190.566703 C 3776.995529 5078.40248 3873.076223 3860.882263 3969.156917 2748.718041 C 5247.161762 966.2263 8148.009012 1478.519826 9387.844815 1442.962178 C 11346.311561 1571.364797 14687.418977 2265.397414 14888.793582 3987.309457 L 14553.16924 7255.979202 C 13300.829786 6457.249065 11233.120607 5812.602071 9328.61699 5657.201978 C 7615.616675 5540.651908 5509.080366 5270.018696 3680.914835 6190.566703 Z M 3680.914835 6190.566703 " stroke="#100f0d" stroke-width="71.997002" stroke-opacity="1" stroke-miterlimit="2.613"/><path fill="#f6f5ef" d="M 42.492188 58.484375 C 42.996094 59.292969 43.742188 60.121094 44.398438 60.519531 L 46.007812 81.082031 C 45.953125 81.804688 44.871094 81.695312 44.8125 81.042969 L 42.492188 58.484375 " fill-opacity="1" fill-rule="evenodd"/><path stroke-linecap="butt" transform="matrix(0.00593577, 0, 0, -0.00593227, 23.654858, 97.864726)" fill="none" stroke-linejoin="miter" d="M 3173.529801 6638.329681 C 3258.423017 6502.025363 3384.117623 6362.428669 3494.67623 6295.264223 L 3765.808051 2829.051987 C 3756.594834 2707.234118 3574.30475 2725.671417 3564.433446 2835.636737 Z M 3173.529801 6638.329681 " stroke="#100f0d" stroke-width="95.998001" stroke-opacity="1" stroke-miterlimit="2.613"/><path fill="#f6f5ef" d="M 56.082031 64.492188 L 57.648438 64.875 L 59.882812 88.972656 C 59.769531 90.035156 58.574219 89.695312 58.519531 89.042969 L 56.082031 64.492188 " fill-opacity="1" fill-rule="evenodd"/><path stroke-linecap="butt" transform="matrix(0.00593577, 0, 0, -0.00593227, 23.654858, 97.864726)" fill="none" stroke-linejoin="miter" d="M 5463.01428 5625.595179 L 5726.907145 5561.064632 L 6103.332877 1498.93255 C 6084.248355 1319.827359 5882.87375 1377.114681 5873.660533 1487.080001 Z M 5463.01428 5625.595179 " stroke="#100f0d" stroke-width="95.998001" stroke-opacity="1" stroke-miterlimit="2.613"/><path fill="#f6f5ef" d="M 77.539062 64.578125 L 79.386719 64.507812 L 81.507812 89.570312 C 81.394531 90.632812 80.199219 90.292969 80.144531 89.640625 L 77.539062 64.578125 " fill-opacity="1" fill-rule="evenodd"/><path stroke-linecap="butt" transform="matrix(0.00593577, 0, 0, -0.00593227, 23.654858, 97.864726)" fill="none" stroke-linejoin="miter" d="M 9077.885865 5611.10873 L 9389.160989 5622.96128 L 9746.5022 1398.18588 C 9727.417679 1219.080688 9526.043074 1276.368011 9516.829856 1386.333331 Z M 9077.885865 5611.10873 " stroke="#100f0d" stroke-width="95.998001" stroke-opacity="1" stroke-miterlimit="2.613"/><path fill="#f6f5ef" d="M 111.128906 53.730469 L 112.238281 52.347656 L 114.417969 73.992188 C 114.304688 75.058594 113.109375 74.71875 113.050781 74.066406 L 111.128906 53.730469 " fill-opacity="1" fill-rule="evenodd"/><path stroke-linecap="butt" transform="matrix(0.00593577, 0, 0, -0.00593227, 23.654858, 97.864726)" fill="none" stroke-linejoin="miter" d="M 14736.775498 7439.693718 L 14923.67219 7672.793857 L 15290.884705 4024.184055 C 15271.800183 3844.420389 15070.425579 3901.707711 15060.554274 4011.673031 Z M 14736.775498 7439.693718 " stroke="#100f0d" stroke-width="95.998001" stroke-opacity="1" stroke-miterlimit="2.613"/><path fill="#f6f5ef" d="M 98.5625 60.25 L 100.355469 59.664062 L 102.476562 84.839844 C 102.367188 85.90625 101.167969 85.566406 101.113281 84.914062 L 98.5625 60.25 " fill-opacity="1" fill-rule="evenodd"/><path stroke-linecap="butt" transform="matrix(0.00593577, 0, 0, -0.00593227, 23.654858, 97.864726)" fill="none" stroke-linejoin="miter" d="M 12619.709798 6340.698995 L 12921.771706 6438.811766 L 13279.112916 2195.599067 C 13260.686482 2015.835401 13058.65379 2073.122723 13049.440573 2183.088043 Z M 12619.709798 6340.698995 " stroke="#100f0d" stroke-width="95.998001" stroke-opacity="1" stroke-miterlimit="2.613"/><path fill="#000000" d="M 111.105469 42.019531 C 111.546875 42.019531 111.902344 42.289062 111.902344 42.621094 C 111.902344 42.949219 111.546875 43.21875 111.105469 43.21875 C 110.664062 43.21875 110.308594 42.949219 110.308594 42.621094 C 110.308594 42.289062 110.664062 42.019531 111.105469 42.019531 " fill-opacity="1" fill-rule="evenodd"/><path stroke-linecap="butt" transform="matrix(0.00593577, 0, 0, -0.00593227, 23.654858, 97.864726)" fill="none" stroke-linejoin="miter" d="M 14732.826976 9413.801675 C 14807.190801 9413.801675 14867.076713 9368.366902 14867.076713 9312.396529 C 14867.076713 9257.084632 14807.190801 9211.649859 14732.826976 9211.649859 C 14658.463151 9211.649859 14598.57724 9257.084632 14598.57724 9312.396529 C 14598.57724 9368.366902 14658.463151 9413.801675 14732.826976 9413.801675 Z M 14732.826976 9413.801675 " stroke="#100f0d" stroke-width="47.999001" stroke-opacity="1" stroke-miterlimit="2.613"/><path fill="#000000" d="M 98.925781 52.585938 C 99.421875 52.585938 99.824219 52.808594 99.824219 53.082031 C 99.824219 53.355469 99.421875 53.578125 98.925781 53.578125 C 98.429688 53.578125 98.027344 53.355469 98.027344 53.082031 C 98.027344 52.808594 98.429688 52.585938 98.925781 52.585938 " fill-opacity="1" fill-rule="evenodd"/><path stroke-linecap="butt" transform="matrix(0.00593577, 0, 0, -0.00593227, 23.654858, 97.864726)" fill="none" stroke-linejoin="miter" d="M 12680.911884 7632.626884 C 12764.488926 7632.626884 12832.271881 7595.093811 12832.271881 7549.000563 C 12832.271881 7502.907315 12764.488926 7465.374242 12680.911884 7465.374242 C 12597.334842 7465.374242 12529.551887 7502.907315 12529.551887 7549.000563 C 12529.551887 7595.093811 12597.334842 7632.626884 12680.911884 7632.626884 Z M 12680.911884 7632.626884 " stroke="#100f0d" stroke-width="47.999001" stroke-opacity="1" stroke-miterlimit="2.613"/><path fill="#000000" d="M 77.757812 57.285156 C 78.253906 57.285156 78.652344 57.503906 78.652344 57.777344 C 78.652344 58.054688 78.253906 58.273438 77.757812 58.273438 C 77.261719 58.273438 76.859375 58.054688 76.859375 57.777344 C 76.859375 57.503906 77.261719 57.285156 77.757812 57.285156 " fill-opacity="1" fill-rule="evenodd"/><path stroke-linecap="butt" transform="matrix(0.00593577, 0, 0, -0.00593227, 23.654858, 97.864726)" fill="none" stroke-linejoin="miter" d="M 9114.738733 6840.481497 C 9198.315775 6840.481497 9265.440644 6803.606899 9265.440644 6757.513651 C 9265.440644 6710.761928 9198.315775 6673.88733 9114.738733 6673.88733 C 9031.161692 6673.88733 8963.378736 6710.761928 8963.378736 6757.513651 C 8963.378736 6803.606899 9031.161692 6840.481497 9114.738733 6840.481497 Z M 9114.738733 6840.481497 " stroke="#100f0d" stroke-width="47.999001" stroke-opacity="1" stroke-miterlimit="2.613"/><path fill="#000000" d="M 56.1875 56.914062 C 56.683594 56.914062 57.085938 57.136719 57.085938 57.410156 C 57.085938 57.683594 56.683594 57.90625 56.1875 57.90625 C 55.691406 57.90625 55.289062 57.683594 55.289062 57.410156 C 55.289062 57.136719 55.691406 56.914062 56.1875 56.914062 " fill-opacity="1" fill-rule="evenodd"/><path stroke-linecap="butt" transform="matrix(0.00593577, 0, 0, -0.00593227, 23.654858, 97.864726)" fill="none" stroke-linejoin="miter" d="M 5480.782628 6903.036619 C 5564.35967 6903.036619 5632.142625 6865.503546 5632.142625 6819.410298 C 5632.142625 6773.31705 5564.35967 6735.783977 5480.782628 6735.783977 C 5397.205586 6735.783977 5329.42263 6773.31705 5329.42263 6819.410298 C 5329.42263 6865.503546 5397.205586 6903.036619 5480.782628 6903.036619 Z M 5480.782628 6903.036619 " stroke="#100f0d" stroke-width="47.999001" stroke-opacity="1" stroke-miterlimit="2.613"/><path fill="#000000" d="M 42.027344 48.683594 C 42.523438 48.683594 42.925781 48.90625 42.925781 49.179688 C 42.925781 49.453125 42.523438 49.675781 42.027344 49.675781 C 41.53125 49.675781 41.128906 49.453125 41.128906 49.179688 C 41.128906 48.90625 41.53125 48.683594 42.027344 48.683594 " fill-opacity="1" fill-rule="evenodd"/><path stroke-linecap="butt" transform="matrix(0.00593577, 0, 0, -0.00593227, 23.654858, 97.864726)" fill="none" stroke-linejoin="miter" d="M 3095.217455 8290.443378 C 3178.794497 8290.443378 3246.577452 8252.910305 3246.577452 8206.817057 C 3246.577452 8160.723809 3178.794497 8123.190736 3095.217455 8123.190736 C 3011.640413 8123.190736 2943.857458 8160.723809 2943.857458 8206.817057 C 2943.857458 8252.910305 3011.640413 8290.443378 3095.217455 8290.443378 Z M 3095.217455 8290.443378 " stroke="#100f0d" stroke-width="47.999001" stroke-opacity="1" stroke-miterlimit="2.613"/><path fill="#000000" d="M 75.519531 33.707031 C 75.800781 33.707031 76.03125 33.882812 76.03125 34.101562 C 76.03125 34.320312 75.800781 34.496094 75.519531 34.496094 C 75.238281 34.496094 75.007812 34.320312 75.007812 34.101562 C 75.007812 33.882812 75.238281 33.707031 75.519531 33.707031 " fill-opacity="1" fill-rule="evenodd"/><path stroke-linecap="butt" transform="matrix(0.00593577, 0, 0, -0.00593227, 23.654858, 97.864726)" fill="none" stroke-linejoin="miter" d="M 8737.654914 10815.036408 C 8785.037174 10815.036408 8823.864304 10785.405035 8823.864304 10748.530436 C 8823.864304 10711.655838 8785.037174 10682.024465 8737.654914 10682.024465 C 8690.272654 10682.024465 8651.445525 10711.655838 8651.445525 10748.530436 C 8651.445525 10785.405035 8690.272654 10815.036408 8737.654914 10815.036408 Z M 8737.654914 10815.036408 " stroke="#100f0d" stroke-width="47.999001" stroke-opacity="1" stroke-miterlimit="2.613"/><path fill="#ffe0ba" d="M 81.496094 44.230469 L 122.539062 13.417969 C 126.050781 11.203125 127.582031 15.015625 125.261719 16.980469 L 82.257812 45.980469 C 81.332031 48.292969 78.683594 48.527344 78.230469 47.765625 C 77.511719 46.570312 78.929688 43.996094 81.496094 44.230469 " fill-opacity="1" fill-rule="evenodd"/><g clip-path="url(#c9a7042e9b)"><path stroke-linecap="butt" transform="matrix(0.00593577, 0, 0, -0.00593227, 23.654858, 97.864726)" fill="none" stroke-linejoin="miter" d="M 9744.527939 9041.104842 L 16659.047462 14235.155396 C 17250.667625 14608.510703 17508.637707 13965.839134 17117.734062 13634.626224 L 9872.854893 8746.108056 C 9716.888287 8356.290875 9270.705339 8316.782377 9194.367254 8445.184996 C 9073.279256 8646.678336 9312.164817 9080.61334 9744.527939 9041.104842 Z M 9744.527939 9041.104842 " stroke="#100f0d" stroke-width="71.997002" stroke-opacity="1" stroke-miterlimit="2.613"/></g><path fill="#ffe0ba" d="M 27.226562 19.613281 L 72.042969 44.785156 C 75.542969 44.695312 75.875 47.003906 75.464844 47.859375 C 75.023438 48.773438 72.738281 48.957031 71.246094 46.949219 L 25.433594 23.027344 C 22.363281 21.289062 24.480469 17.898438 27.226562 19.613281 " fill-opacity="1" fill-rule="evenodd"/><g clip-path="url(#a19782c67d)"><path stroke-linecap="butt" transform="matrix(0.00593577, 0, 0, -0.00593227, 23.654858, 97.864726)" fill="none" stroke-linejoin="miter" d="M 601.726023 13190.814095 L 8151.957534 8947.601397 C 8741.603436 8962.746321 8797.540826 8573.587615 8728.441697 8429.381596 C 8654.077873 8275.298454 8269.09701 8244.35013 8017.707797 8582.806264 L 299.664116 12615.306973 C -217.592222 12908.328334 139.090901 13479.884607 601.726023 13190.814095 Z M 601.726023 13190.814095 " stroke="#100f0d" stroke-width="71.997002" stroke-opacity="1" stroke-miterlimit="2.613"/></g></svg>