<svg xmlns="http://www.w3.org/2000/svg" xmlns:xlink="http://www.w3.org/1999/xlink" width="200" zoomAndPan="magnify" viewBox="0 0 150 112.499997" height="150" preserveAspectRatio="xMidYMid meet" version="1.0"><defs><clipPath id="8b344714f2"><path d="M 45.453125 42 L 104.441406 42 L 104.441406 86.773438 L 45.453125 86.773438 Z M 45.453125 42 " clip-rule="nonzero"/></clipPath><clipPath id="20d6a83bc9"><path d="M 59 57 L 75 57 L 75 100.960938 L 59 100.960938 Z M 59 57 " clip-rule="nonzero"/></clipPath><clipPath id="947bcbb3d6"><path d="M 58.890625 57 L 76 57 L 76 100.960938 L 58.890625 100.960938 Z M 58.890625 57 " clip-rule="nonzero"/></clipPath><clipPath id="e65f35bb55"><path d="M 78 42 L 97.71875 42 L 97.71875 83 L 78 83 Z M 78 42 " clip-rule="nonzero"/></clipPath><clipPath id="b2affcc7d4"><path d="M 77 42 L 97.71875 42 L 97.71875 83 L 77 83 Z M 77 42 " clip-rule="nonzero"/></clipPath><clipPath id="86c862ca50"><path d="M 39 13 L 111 13 L 111 47.039062 L 39 47.039062 Z M 39 13 " clip-rule="nonzero"/></clipPath><clipPath id="cb7d761559"><path d="M 46 32 L 102 32 L 102 47.039062 L 46 47.039062 Z M 46 32 " clip-rule="nonzero"/></clipPath></defs><g clip-path="url(#8b344714f2)"><path fill="#000000" d="M 70.492188 42.128906 C 70.394531 42.308594 69.214844 45.082031 68.964844 45.707031 C 68.832031 46.039062 68.671875 46.414062 68.609375 46.539062 C 68.488281 46.78125 68.460938 47.003906 68.550781 47.003906 C 68.636719 47.003906 68.777344 46.699219 69.300781 45.394531 C 70.027344 43.570312 70.421875 42.664062 70.605469 42.390625 C 70.699219 42.25 70.773438 42.113281 70.773438 42.082031 C 70.773438 41.984375 70.546875 42.023438 70.492188 42.128906 M 85.929688 42.742188 C 85.769531 43.042969 85.515625 43.453125 85.363281 43.660156 C 84.992188 44.164062 84.761719 44.605469 84.363281 45.570312 C 84.179688 46.019531 83.992188 46.414062 83.949219 46.445312 C 83.902344 46.484375 83.894531 46.535156 83.925781 46.589844 C 84.050781 46.785156 84.234375 46.476562 84.839844 45.054688 C 85.046875 44.574219 85.3125 44.042969 85.429688 43.878906 C 85.734375 43.457031 86.445312 42.316406 86.445312 42.253906 C 86.445312 42.015625 86.191406 42.257812 85.929688 42.742188 M 79.527344 42.863281 C 79.417969 43.097656 79.152344 43.589844 78.933594 43.960938 C 78.574219 44.566406 78.316406 45.074219 78.316406 45.179688 C 78.320312 45.222656 78.394531 45.09375 79.148438 43.753906 C 79.660156 42.851562 79.851562 42.4375 79.757812 42.4375 C 79.738281 42.4375 79.636719 42.628906 79.527344 42.863281 M 61.484375 42.738281 C 61.6875 43.121094 61.054688 44.050781 60.839844 43.679688 C 60.789062 43.589844 60.78125 43.589844 60.777344 43.710938 C 60.773438 44.085938 61.542969 43.5625 61.625 43.136719 C 61.664062 42.917969 61.582031 42.613281 61.476562 42.613281 C 61.4375 42.613281 61.4375 42.652344 61.484375 42.738281 M 50.429688 42.859375 C 50.363281 42.964844 50.3125 43.070312 50.3125 43.097656 C 50.3125 43.121094 50.191406 43.449219 50.042969 43.828125 C 49.894531 44.207031 49.683594 44.765625 49.578125 45.070312 C 49.136719 46.34375 47.984375 49.167969 47.414062 50.371094 C 46.898438 51.464844 46.695312 52.082031 46.78125 52.300781 C 46.84375 52.464844 46.941406 52.363281 46.953125 52.125 C 46.972656 51.757812 47.191406 51.183594 47.585938 50.457031 C 47.972656 49.753906 48.019531 49.652344 48.6875 48.175781 C 49.335938 46.742188 50.085938 44.671875 50.402344 43.457031 C 50.453125 43.269531 50.542969 43.03125 50.605469 42.929688 C 50.746094 42.707031 50.746094 42.667969 50.632812 42.667969 C 50.582031 42.667969 50.492188 42.753906 50.429688 42.859375 M 103.757812 43.714844 C 103.605469 43.878906 103.476562 44.113281 103.371094 44.414062 C 103.160156 45.011719 102.476562 46.433594 101.925781 47.414062 C 101.683594 47.847656 101.320312 48.535156 101.121094 48.9375 C 100.917969 49.339844 100.5625 49.996094 100.332031 50.398438 C 99.378906 52.039062 99.015625 52.703125 98.539062 53.679688 C 98.261719 54.242188 97.832031 55.011719 97.582031 55.390625 C 97.222656 55.941406 97.136719 56.109375 97.167969 56.226562 C 97.296875 56.734375 97.871094 55.949219 98.96875 53.765625 C 99.292969 53.121094 99.933594 51.9375 100.390625 51.132812 C 102.042969 48.214844 102.976562 46.257812 103.429688 44.777344 C 103.617188 44.152344 103.734375 43.894531 103.910156 43.710938 C 103.996094 43.621094 104.046875 43.53125 104.023438 43.511719 C 104.003906 43.488281 103.882812 43.582031 103.757812 43.714844 M 88.769531 44.644531 C 88.296875 45.652344 87.320312 48.027344 87.320312 48.167969 C 87.320312 48.515625 87.527344 48.207031 87.847656 47.382812 C 88.480469 45.757812 88.769531 45.046875 88.96875 44.636719 C 89.171875 44.210938 89.199219 44.074219 89.082031 44.074219 C 89.054688 44.074219 88.914062 44.332031 88.769531 44.644531 M 56.167969 45.054688 C 55.703125 45.863281 55.382812 46.515625 55.539062 46.332031 C 55.621094 46.234375 55.824219 45.90625 55.992188 45.597656 C 56.15625 45.292969 56.359375 44.957031 56.433594 44.851562 C 56.542969 44.703125 56.554688 44.660156 56.484375 44.660156 C 56.4375 44.660156 56.292969 44.839844 56.167969 45.054688 M 65.179688 45.582031 C 65.144531 45.703125 64.90625 46.304688 64.652344 46.914062 C 64.207031 47.980469 64.09375 48.292969 64.144531 48.292969 C 64.238281 48.292969 65.234375 45.960938 65.316406 45.550781 C 65.367188 45.289062 65.257812 45.316406 65.179688 45.582031 M 73.171875 45.570312 C 73.171875 45.664062 72.726562 46.476562 72.671875 46.476562 C 72.660156 46.476562 72.714844 46.324219 72.796875 46.140625 C 72.980469 45.722656 72.984375 45.707031 72.894531 45.671875 C 72.855469 45.660156 72.820312 45.683594 72.820312 45.726562 C 72.820312 45.769531 72.742188 45.96875 72.644531 46.175781 C 72.460938 46.5625 72.460938 46.652344 72.648438 46.652344 C 72.859375 46.652344 73.390625 45.609375 73.230469 45.511719 C 73.199219 45.492188 73.171875 45.515625 73.171875 45.570312 M 94.5625 46.269531 C 94.226562 46.859375 93.890625 47.539062 94.019531 47.382812 C 94.230469 47.121094 94.867188 45.984375 94.851562 45.894531 C 94.839844 45.84375 94.714844 46.007812 94.5625 46.269531 M 51.746094 47.429688 C 51.445312 47.773438 51.246094 48.140625 51.246094 48.355469 C 51.246094 48.855469 52.050781 48.683594 52.277344 48.136719 C 52.371094 47.910156 52.386719 47.414062 52.296875 47.414062 C 52.265625 47.414062 52.214844 47.347656 52.183594 47.265625 C 52.105469 47.0625 52.050781 47.082031 51.746094 47.429688 M 52.183594 47.667969 C 52.183594 48.023438 52.019531 48.328125 51.761719 48.453125 C 51.289062 48.679688 51.328125 48.191406 51.824219 47.605469 C 52.113281 47.269531 52.183594 47.28125 52.183594 47.667969 M 80.875 48.726562 C 80.835938 48.949219 80.375 50.03125 79.546875 51.835938 C 79.015625 52.992188 78.304688 54.675781 78.347656 54.675781 C 78.488281 54.675781 80.992188 49.136719 81.023438 48.75 C 81.042969 48.496094 80.914062 48.472656 80.875 48.726562 M 91.425781 49.027344 C 91.394531 49.152344 91.339844 49.40625 91.300781 49.589844 C 91.191406 50.117188 90.769531 50.597656 90.582031 50.410156 C 90.511719 50.339844 90.832031 49.625 91.125 49.195312 C 91.363281 48.847656 91.3125 48.804688 91.035156 49.125 C 90.363281 49.902344 90.171875 50.796875 90.703125 50.664062 C 91.089844 50.570312 91.410156 50.078125 91.535156 49.398438 C 91.621094 48.929688 91.527344 48.613281 91.425781 49.027344 M 72.382812 49.066406 C 72.292969 49.511719 72.089844 50.117188 71.816406 50.75 C 71.660156 51.121094 71.199219 52.300781 70.800781 53.375 C 70.398438 54.445312 69.859375 55.871094 69.597656 56.535156 C 69.074219 57.875 68.65625 59.117188 68.695312 59.210938 C 68.710938 59.246094 68.722656 59.242188 68.722656 59.199219 C 68.726562 59.160156 68.816406 58.9375 68.925781 58.703125 C 69.605469 57.253906 70.113281 55.972656 71.429688 52.421875 C 72.285156 50.113281 72.519531 49.425781 72.542969 49.125 C 72.5625 48.859375 72.4375 48.808594 72.382812 49.066406 M 82.695312 53.019531 C 81.289062 55.875 80.921875 56.667969 80.363281 58.015625 C 79.472656 60.175781 78.71875 61.898438 77.324219 64.980469 C 75.480469 69.039062 75.328125 69.355469 75.070312 69.621094 C 74.828125 69.871094 74.914062 69.917969 75.222656 69.707031 C 75.863281 69.277344 76.707031 67.640625 78.171875 63.984375 C 78.710938 62.636719 80.328125 58.796875 81.078125 57.074219 C 81.242188 56.707031 81.878906 55.363281 82.496094 54.089844 C 84.160156 50.664062 84.171875 50.632812 83.929688 50.632812 C 83.898438 50.632812 83.339844 51.707031 82.695312 53.019531 M 57.59375 50.960938 C 57.574219 51.074219 57.324219 51.675781 57.039062 52.292969 C 55.714844 55.179688 55.476562 55.777344 55.625 55.871094 C 55.730469 55.9375 56.007812 55.476562 56.421875 54.546875 C 56.640625 54.054688 57.066406 53.105469 57.367188 52.441406 C 57.914062 51.230469 57.964844 51.074219 57.851562 50.863281 C 57.757812 50.6875 57.636719 50.730469 57.59375 50.960938 M 66.253906 51.828125 C 66.042969 52.148438 65.683594 53.101562 65.699219 53.285156 C 65.765625 53.972656 66.566406 53.011719 66.667969 52.125 C 66.710938 51.742188 66.4375 51.546875 66.253906 51.828125 M 96.5 51.816406 C 96.5 51.851562 96.304688 52.273438 96.0625 52.75 C 95.472656 53.921875 95.097656 54.773438 93.953125 57.585938 C 93.417969 58.898438 92.675781 60.6875 92.304688 61.554688 C 91.664062 63.058594 91.09375 64.5625 91.140625 64.609375 C 91.230469 64.703125 92.550781 61.730469 94.058594 58.042969 C 95.339844 54.90625 95.84375 53.722656 96.347656 52.671875 C 96.773438 51.785156 96.785156 51.746094 96.617188 51.746094 C 96.554688 51.746094 96.5 51.777344 96.5 51.816406 M 66.328125 52.519531 C 66.183594 53.007812 66.046875 53.269531 65.9375 53.269531 C 65.816406 53.269531 65.851562 53.128906 66.140625 52.472656 C 66.449219 51.78125 66.542969 51.800781 66.328125 52.519531 M 63.058594 52.742188 C 63.023438 52.804688 62.835938 53.285156 62.640625 53.808594 C 61.78125 56.125 60.867188 58.375 59.710938 61.027344 C 57.824219 65.363281 56.15625 69.921875 56.160156 70.746094 L 56.160156 70.984375 L 56.308594 70.660156 C 56.546875 70.15625 57.050781 68.855469 57.566406 67.433594 C 58.632812 64.464844 58.890625 63.8125 60.101562 61.035156 C 61.046875 58.867188 61.828125 56.941406 62.28125 55.671875 C 62.878906 54.003906 63.292969 52.789062 63.292969 52.710938 C 63.292969 52.585938 63.128906 52.605469 63.058594 52.742188 M 87.394531 53.75 C 87.363281 53.792969 87.203125 54.089844 87.042969 54.410156 C 86.882812 54.734375 86.296875 55.851562 85.742188 56.898438 C 83.789062 60.578125 83.136719 61.910156 83.027344 62.464844 C 82.960938 62.792969 83.082031 62.585938 83.980469 60.84375 C 84.425781 59.980469 85.066406 58.757812 85.40625 58.128906 C 87.066406 55.035156 87.644531 53.835938 87.53125 53.742188 C 87.476562 53.695312 87.4375 53.699219 87.394531 53.75 M 49.511719 55.320312 C 49.046875 55.949219 48.386719 57.320312 47.996094 58.464844 C 47.722656 59.269531 47.777344 59.292969 48.09375 58.503906 C 48.410156 57.707031 49.230469 56.042969 49.550781 55.535156 C 49.855469 55.046875 49.832031 54.890625 49.511719 55.320312 M 102.035156 55.304688 C 101.445312 56.273438 100.183594 58.820312 100.183594 59.042969 C 100.183594 59.238281 100.320312 59.011719 100.976562 57.707031 C 101.351562 56.957031 101.8125 56.066406 102.003906 55.722656 C 102.191406 55.382812 102.347656 55.085938 102.347656 55.066406 C 102.347656 54.9375 102.175781 55.070312 102.035156 55.304688 M 54.140625 57.898438 C 54.117188 57.933594 54.082031 58.253906 54.054688 58.617188 C 53.980469 59.671875 53.722656 60.113281 53.773438 59.097656 C 53.808594 58.433594 53.734375 58.472656 53.636719 59.164062 C 53.542969 59.859375 53.542969 59.855469 53.6875 59.875 C 54.046875 59.925781 54.242188 59.410156 54.222656 58.476562 C 54.207031 57.820312 54.203125 57.792969 54.140625 57.898438 M 50.640625 59.402344 C 50.507812 59.664062 50.273438 60.355469 50.023438 61.21875 C 49.582031 62.738281 48.941406 64.621094 48.363281 66.097656 C 48.15625 66.628906 47.71875 67.863281 47.390625 68.847656 C 46.71875 70.851562 46.523438 71.363281 46.261719 71.847656 C 46.125 72.097656 46.09375 72.199219 46.140625 72.25 C 46.359375 72.464844 46.789062 71.453125 47.941406 68.027344 C 48.140625 67.429688 48.515625 66.402344 48.773438 65.742188 C 49.304688 64.382812 50.003906 62.300781 50.394531 60.910156 C 50.539062 60.394531 50.710938 59.820312 50.777344 59.628906 C 50.917969 59.214844 50.917969 59.242188 50.808594 59.242188 C 50.761719 59.242188 50.6875 59.316406 50.640625 59.402344 M 104.171875 59.84375 C 103.984375 60.441406 103.414062 61.675781 102.796875 62.84375 C 100.957031 66.308594 99.105469 70.21875 98.34375 72.242188 C 97.8125 73.660156 97.234375 74.894531 96.902344 75.335938 C 96.609375 75.722656 96.667969 75.894531 96.984375 75.574219 C 97.382812 75.171875 97.820312 74.28125 98.527344 72.417969 C 99.300781 70.390625 99.425781 70.113281 101.625 65.570312 C 101.960938 64.878906 102.46875 63.875 102.753906 63.34375 C 103.507812 61.941406 104.183594 60.359375 104.359375 59.578125 C 104.433594 59.246094 104.300781 59.4375 104.171875 59.84375 M 73.054688 61.25 C 72.003906 62.996094 69.214844 68.757812 68.332031 71.011719 C 67.046875 74.285156 66.328125 76.066406 65.84375 77.191406 C 65.007812 79.144531 64.949219 79.285156 64.882812 79.488281 L 64.824219 79.675781 L 64.988281 79.589844 C 65.527344 79.3125 66.632812 76.972656 67.945312 73.324219 C 69.089844 70.152344 69.621094 68.792969 70.394531 67.058594 C 70.652344 66.484375 72.621094 62.5625 72.898438 62.070312 C 73.042969 61.820312 73.304688 61.378906 73.488281 61.089844 C 73.835938 60.535156 73.886719 60.355469 73.703125 60.355469 C 73.625 60.355469 73.445312 60.601562 73.054688 61.25 M 96.335938 62.636719 C 95.796875 63.859375 95.78125 64.5 96.289062 64.375 C 96.789062 64.25 97.667969 62.414062 97.328125 62.207031 C 97.261719 62.164062 97.242188 62.230469 97.171875 62.667969 C 97.074219 63.289062 96.378906 64.328125 96.175781 64.15625 C 96.035156 64.039062 96.113281 63.597656 96.382812 62.953125 C 96.644531 62.339844 96.707031 62.136719 96.636719 62.09375 C 96.609375 62.078125 96.476562 62.324219 96.335938 62.636719 M 68.214844 62.816406 C 67.699219 63.707031 67.667969 64.101562 68.105469 64.101562 C 68.472656 64.101562 68.957031 63.34375 68.761719 63.074219 C 68.695312 62.980469 68.683594 62.992188 68.648438 63.175781 C 68.574219 63.578125 68.203125 64.007812 68.027344 63.898438 C 67.917969 63.828125 67.96875 63.664062 68.324219 62.96875 C 68.78125 62.085938 68.699219 61.976562 68.214844 62.816406 M 54.085938 63.972656 C 53.992188 64.222656 53.722656 64.925781 53.480469 65.539062 C 52.566406 67.875 52.199219 68.894531 51.414062 71.277344 C 50.585938 73.785156 50.34375 74.578125 50.386719 74.621094 C 50.433594 74.667969 50.90625 73.367188 51.597656 71.277344 C 52.300781 69.144531 52.898438 67.480469 53.558594 65.800781 C 53.90625 64.910156 54.347656 63.671875 54.347656 63.574219 C 54.347656 63.402344 54.234375 63.570312 54.085938 63.972656 M 86.699219 64.292969 C 86.671875 64.332031 86.648438 64.445312 86.644531 64.542969 C 86.640625 64.648438 86.480469 64.992188 86.246094 65.386719 C 85.835938 66.082031 84.082031 69.554688 83.34375 71.132812 C 81.929688 74.167969 80.40625 78.800781 80.820312 78.800781 C 80.957031 78.800781 80.933594 78.863281 81.675781 76.371094 C 82.382812 73.992188 83.007812 72.390625 84.03125 70.34375 C 84.855469 68.695312 86.296875 65.992188 86.628906 65.472656 C 87.023438 64.855469 87.117188 64.601562 87.03125 64.371094 C 86.96875 64.210938 86.777344 64.164062 86.699219 64.292969 M 103.320312 64.90625 C 103.332031 64.964844 103.222656 65.222656 103.078125 65.480469 C 102.503906 66.488281 102.355469 66.914062 102.566406 66.914062 C 102.824219 66.914062 103.691406 65.367188 103.523438 65.199219 C 103.492188 65.167969 103.480469 65.066406 103.5 64.972656 C 103.527344 64.832031 103.511719 64.804688 103.414062 64.804688 C 103.328125 64.804688 103.300781 64.835938 103.320312 64.90625 M 103.230469 65.734375 C 103.164062 65.863281 103.078125 65.988281 103.042969 66.011719 C 103.003906 66.035156 103.050781 65.917969 103.140625 65.753906 C 103.339844 65.40625 103.40625 65.390625 103.230469 65.734375 M 81.253906 68.808594 C 81.25 69.203125 80.800781 70.007812 80.664062 69.871094 C 80.625 69.832031 80.640625 69.707031 80.714844 69.492188 C 80.792969 69.257812 80.800781 69.199219 80.738281 69.285156 C 80.523438 69.578125 80.492188 70.015625 80.6875 70.015625 C 80.953125 70.015625 81.582031 68.832031 81.441406 68.601562 C 81.355469 68.464844 81.257812 68.570312 81.253906 68.808594 M 62.660156 70.035156 C 62.394531 70.507812 61.835938 71.726562 61.921875 71.644531 C 62.039062 71.527344 63.117188 69.628906 63.117188 69.542969 C 63.117188 69.355469 62.914062 69.570312 62.660156 70.035156 M 94.050781 71.238281 C 94.015625 71.300781 93.933594 71.503906 93.863281 71.695312 C 93.730469 72.058594 93.285156 72.867188 92.585938 74.027344 C 92.09375 74.839844 91.449219 76.042969 91.484375 76.078125 C 91.539062 76.132812 92.933594 73.980469 93.652344 72.726562 C 93.9375 72.230469 94.28125 71.417969 94.28125 71.234375 C 94.28125 71.097656 94.125 71.101562 94.050781 71.238281 M 53.324219 72.074219 C 52.777344 72.714844 52.675781 72.988281 52.886719 73.257812 C 53.183594 73.636719 53.351562 73.464844 53.527344 72.589844 C 53.597656 72.253906 53.691406 71.9375 53.734375 71.886719 C 53.78125 71.835938 53.820312 71.761719 53.820312 71.726562 C 53.820312 71.566406 53.652344 71.683594 53.324219 72.074219 M 89.351562 72.140625 C 89.367188 72.222656 89.28125 72.507812 89.144531 72.832031 C 88.636719 74.019531 88.46875 74.820312 88.726562 74.820312 C 89.207031 74.820312 89.96875 73.410156 89.800781 72.824219 C 89.703125 72.488281 89.632812 72.570312 89.632812 73.019531 C 89.632812 73.613281 88.960938 74.839844 88.75 74.632812 C 88.703125 74.582031 89.039062 73.425781 89.289062 72.792969 C 89.492188 72.265625 89.519531 72.070312 89.390625 72.027344 C 89.351562 72.011719 89.335938 72.058594 89.351562 72.140625 M 53.375 72.578125 C 53.234375 73.265625 53.242188 73.246094 53.101562 73.226562 C 52.839844 73.191406 52.917969 72.78125 53.265625 72.367188 C 53.46875 72.128906 53.46875 72.125 53.375 72.578125 M 63.679688 73.253906 C 63.175781 73.941406 63.003906 74.46875 63.222656 74.664062 C 63.460938 74.878906 63.726562 74.691406 63.792969 74.261719 C 63.851562 73.859375 63.742188 73.820312 63.621094 74.203125 C 63.558594 74.402344 63.488281 74.527344 63.433594 74.527344 C 63.191406 74.527344 63.324219 74.121094 63.78125 73.457031 C 63.929688 73.238281 64.050781 73.035156 64.050781 73.003906 C 64.050781 72.859375 63.886719 72.972656 63.679688 73.253906 M 47.289062 74.0625 C 47.15625 74.398438 46.941406 75.03125 46.808594 75.472656 C 46.679688 75.910156 46.421875 76.636719 46.242188 77.082031 C 45.824219 78.117188 45.453125 79.167969 45.492188 79.207031 C 45.546875 79.257812 45.625 79.085938 45.816406 78.507812 C 45.917969 78.203125 46.167969 77.535156 46.371094 77.03125 C 46.574219 76.523438 46.824219 75.824219 46.925781 75.476562 C 47.023438 75.132812 47.210938 74.574219 47.339844 74.242188 C 47.464844 73.90625 47.5625 73.589844 47.550781 73.542969 C 47.542969 73.492188 47.425781 73.726562 47.289062 74.0625 M 77.355469 74.699219 C 77.03125 75.34375 76.769531 75.925781 76.84375 75.84375 C 77.175781 75.464844 77.773438 74.308594 77.679688 74.21875 C 77.644531 74.179688 77.527344 74.355469 77.355469 74.699219 M 57.867188 74.890625 C 57.828125 74.929688 57.796875 74.992188 57.796875 75.035156 C 57.796875 75.078125 57.589844 75.460938 57.335938 75.886719 C 56.230469 77.757812 55.136719 79.859375 54.359375 81.613281 C 54.308594 81.726562 54.253906 81.839844 54.238281 81.871094 C 54.222656 81.898438 54.238281 81.90625 54.273438 81.886719 C 54.367188 81.828125 54.917969 80.867188 55.457031 79.828125 C 56.894531 77.046875 57.324219 76.246094 57.78125 75.511719 C 58.109375 74.976562 58.164062 74.589844 57.867188 74.890625 M 85.785156 77.058594 C 85.679688 77.480469 85.21875 78.609375 84.261719 80.773438 C 83.6875 82.070312 82.53125 84.824219 82.210938 85.648438 C 82.148438 85.808594 82.132812 85.925781 82.167969 85.960938 C 82.238281 86.03125 82.210938 86.089844 82.75 84.746094 C 83.007812 84.101562 83.472656 83.007812 83.785156 82.316406 C 85.34375 78.84375 85.914062 77.441406 85.964844 76.972656 C 86.003906 76.570312 85.894531 76.625 85.785156 77.058594 M 101.328125 78.171875 C 101.253906 78.339844 100.859375 79.046875 100.453125 79.738281 C 99.226562 81.824219 97.945312 84.492188 98.042969 84.75 C 98.097656 84.886719 98.136719 84.832031 98.269531 84.4375 C 98.441406 83.917969 99.582031 81.644531 100.273438 80.441406 C 101.367188 78.546875 101.527344 78.25 101.566406 78.054688 C 101.625 77.753906 101.488281 77.824219 101.328125 78.171875 M 92.324219 79.460938 C 92.308594 79.53125 92.257812 79.808594 92.210938 80.070312 C 92.164062 80.332031 92.070312 80.652344 92.003906 80.785156 C 91.742188 81.300781 91.902344 81.339844 92.328125 80.863281 C 92.636719 80.515625 92.816406 80.21875 92.816406 80.0625 C 92.816406 79.917969 92.710938 79.957031 92.617188 80.136719 C 92.351562 80.65625 92.3125 80.53125 92.445312 79.578125 C 92.480469 79.316406 92.375 79.214844 92.324219 79.460938 M 69.636719 79.628906 C 69.414062 79.894531 69.253906 80.234375 69.253906 80.441406 C 69.253906 81.070312 69.785156 80.964844 70.09375 80.273438 C 70.339844 79.726562 70.1875 79.519531 69.925781 80.046875 C 69.765625 80.371094 69.621094 80.558594 69.539062 80.558594 C 69.4375 80.558594 69.496094 80.355469 69.695312 79.992188 C 69.988281 79.457031 69.957031 79.25 69.636719 79.628906 M 75.78125 80.398438 C 75.652344 80.886719 75.363281 81.53125 74.355469 83.566406 C 73.058594 86.1875 73.140625 86.003906 73.246094 86.003906 C 73.289062 86.003906 73.453125 85.734375 73.613281 85.40625 C 73.773438 85.078125 74.230469 84.175781 74.628906 83.402344 C 75.492188 81.726562 75.917969 80.773438 75.917969 80.515625 C 75.921875 80.332031 75.820312 80.246094 75.78125 80.398438 M 49.890625 81.359375 C 49.675781 81.804688 49.429688 82.339844 49.34375 82.550781 C 49.054688 83.25 48.671875 83.945312 48.542969 84.003906 C 48.46875 84.035156 48.492188 84.1875 48.570312 84.1875 C 48.789062 84.1875 50.386719 80.875 50.300781 80.613281 C 50.289062 80.578125 50.105469 80.910156 49.890625 81.359375 M 60.585938 80.984375 C 60.304688 81.414062 58.320312 85.925781 58.320312 86.136719 C 58.320312 86.371094 58.523438 86.210938 58.636719 85.886719 C 58.960938 84.949219 59.289062 84.179688 60 82.695312 C 60.433594 81.792969 60.800781 81.011719 60.820312 80.953125 C 60.863281 80.800781 60.691406 80.824219 60.585938 80.984375 M 64.40625 85.28125 C 64.070312 85.902344 64.253906 86.261719 64.675781 85.8125 C 64.925781 85.550781 65 85.382812 64.957031 85.183594 C 64.898438 84.914062 64.804688 84.90625 64.84375 85.171875 C 64.878906 85.371094 64.859375 85.425781 64.695312 85.613281 C 64.339844 86.019531 64.253906 85.808594 64.554688 85.277344 C 64.707031 85.015625 64.722656 84.949219 64.640625 84.949219 C 64.609375 84.949219 64.503906 85.101562 64.40625 85.28125 M 53.246094 85.535156 C 53.167969 85.914062 52.832031 86.355469 52.625 86.355469 C 52.507812 86.355469 52.507812 86.339844 52.710938 85.792969 C 52.847656 85.417969 52.835938 85.242188 52.675781 85.242188 C 52.613281 85.242188 52.59375 85.277344 52.617188 85.351562 C 52.636719 85.410156 52.585938 85.609375 52.5 85.789062 C 52.199219 86.453125 52.449219 86.75 52.988281 86.351562 C 53.320312 86.105469 53.621094 85.183594 53.367188 85.183594 C 53.339844 85.183594 53.285156 85.34375 53.246094 85.535156 " fill-opacity="1" fill-rule="evenodd"/></g><g clip-path="url(#20d6a83bc9)"><path fill="#edc032" d="M 59.519531 59.203125 L 71.152344 57.421875 C 71.269531 57.402344 71.371094 57.4375 71.453125 57.527344 C 71.539062 57.613281 71.566406 57.71875 71.542969 57.835938 L 68.183594 74.925781 C 68.160156 75.042969 68.191406 75.144531 68.273438 75.234375 C 68.351562 75.320312 68.453125 75.355469 68.570312 75.34375 L 74.351562 74.605469 C 74.410156 74.597656 74.46875 74.605469 74.523438 74.628906 C 74.578125 74.652344 74.625 74.6875 74.664062 74.734375 C 74.703125 74.78125 74.726562 74.832031 74.734375 74.894531 C 74.746094 74.953125 74.742188 75.011719 74.722656 75.070312 L 66.054688 100.355469 C 65.984375 100.550781 65.851562 100.625 65.652344 100.582031 C 65.453125 100.535156 65.359375 100.410156 65.378906 100.207031 L 67.101562 82.683594 C 67.113281 82.566406 67.074219 82.46875 66.992188 82.390625 C 66.90625 82.308594 66.804688 82.28125 66.691406 82.300781 L 62.527344 83.054688 C 62.429688 83.074219 62.339844 83.050781 62.257812 82.992188 C 62.179688 82.933594 62.132812 82.851562 62.121094 82.753906 L 59.226562 59.59375 C 59.214844 59.5 59.238281 59.414062 59.292969 59.339844 C 59.351562 59.265625 59.425781 59.21875 59.519531 59.203125 Z M 59.519531 59.203125 " fill-opacity="1" fill-rule="nonzero"/></g><g clip-path="url(#947bcbb3d6)"><path stroke-linecap="round" transform="matrix(0.119616, 0, 0, 0.120922, 58.901451, 42.034015)" fill="none" stroke-linejoin="round" d="M 5.167193 141.985552 L 102.41831 127.254925 C 103.398006 127.093405 104.247075 127.384141 104.932862 128.127133 C 105.651305 128.837821 105.879901 129.710029 105.683962 130.67915 L 77.599355 272.009185 C 77.403415 272.978306 77.664668 273.81821 78.350454 274.561202 C 79.003585 275.27189 79.852654 275.562626 80.83235 275.465714 L 129.164 269.360257 C 129.653848 269.295649 130.143696 269.360257 130.600887 269.554081 C 131.058078 269.747905 131.449956 270.038641 131.776522 270.426289 C 132.103087 270.813937 132.299026 271.233889 132.364339 271.750753 C 132.462309 272.235313 132.429652 272.719874 132.266369 273.204434 L 59.801551 482.308278 C 59.213734 483.923479 58.103412 484.537255 56.437929 484.181911 C 54.772447 483.794263 53.98869 482.760535 54.151973 481.080726 L 68.553498 336.164946 C 68.651468 335.195825 68.324903 334.388225 67.639116 333.742145 C 66.920672 333.063761 66.071603 332.837633 65.124564 332.999153 L 30.312713 339.233826 C 29.4963 339.395346 28.7452 339.201522 28.059413 338.716962 C 27.406283 338.232402 27.014405 337.554018 26.916435 336.746418 L 2.717954 145.215953 C 2.619984 144.440657 2.815923 143.729969 3.273114 143.116193 C 3.762962 142.502417 4.383436 142.114769 5.167193 141.985552 Z M 5.167193 141.985552 " stroke="#000000" stroke-width="5" stroke-opacity="1" stroke-miterlimit="4"/></g><g clip-path="url(#e65f35bb55)"><path fill="#edc032" d="M 86.890625 42.351562 L 97.167969 44.859375 C 97.265625 44.882812 97.332031 44.9375 97.371094 45.03125 C 97.40625 45.125 97.398438 45.214844 97.347656 45.300781 L 87.730469 60.859375 C 87.703125 60.902344 87.6875 60.949219 87.683594 61 C 87.683594 61.050781 87.691406 61.097656 87.714844 61.144531 C 87.738281 61.191406 87.769531 61.226562 87.8125 61.257812 C 87.851562 61.285156 87.898438 61.304688 87.949219 61.308594 L 94.269531 61.894531 C 94.386719 61.90625 94.46875 61.964844 94.511719 62.078125 C 94.558594 62.1875 94.542969 62.289062 94.46875 62.378906 L 78.558594 81.957031 C 78.449219 82.09375 78.320312 82.117188 78.171875 82.019531 C 78.023438 81.921875 77.988281 81.792969 78.070312 81.636719 L 85.234375 67.222656 C 85.28125 67.132812 85.28125 67.042969 85.234375 66.953125 C 85.1875 66.863281 85.113281 66.8125 85.011719 66.796875 L 79.65625 66.121094 C 79.566406 66.109375 79.496094 66.066406 79.449219 65.988281 C 79.402344 65.910156 79.390625 65.832031 79.417969 65.742188 L 86.539062 42.554688 C 86.5625 42.476562 86.605469 42.417969 86.675781 42.382812 C 86.742188 42.34375 86.816406 42.332031 86.890625 42.351562 Z M 86.890625 42.351562 " fill-opacity="1" fill-rule="nonzero"/></g><g clip-path="url(#b2affcc7d4)"><path stroke-linecap="round" transform="matrix(0.119616, 0, 0, 0.120922, 58.901451, 42.034015)" fill="none" stroke-linejoin="round" d="M 233.99143 2.626061 L 319.910735 23.365235 C 320.727148 23.559059 321.282309 24.011315 321.608874 24.786611 C 321.902783 25.561907 321.83747 26.304899 321.412935 27.015587 L 241.012582 155.682452 C 240.783986 156.037796 240.65336 156.425444 240.620704 156.845396 C 240.620704 157.265348 240.686017 157.652996 240.881956 158.040645 C 241.077895 158.428293 241.339147 158.719029 241.698369 158.977461 C 242.024934 159.203589 242.416812 159.365109 242.841347 159.397413 L 295.679597 164.243014 C 296.659292 164.339926 297.345079 164.824486 297.704301 165.761302 C 298.096179 166.665815 297.965553 167.505719 297.345079 168.248711 L 164.335072 330.1564 C 163.42069 331.28704 162.343025 331.480864 161.102077 330.673264 C 159.861129 329.865664 159.56722 328.799632 160.253007 327.507471 L 220.145065 208.305681 C 220.536944 207.562689 220.536944 206.819697 220.145065 206.076705 C 219.753187 205.333712 219.132713 204.91376 218.283644 204.784544 L 173.511554 199.195951 C 172.760455 199.099039 172.172637 198.743695 171.780759 198.097615 C 171.388881 197.451534 171.290911 196.805454 171.519507 196.062462 L 231.052343 4.30587 C 231.248282 3.65979 231.607504 3.175229 232.195321 2.884493 C 232.750482 2.561453 233.370956 2.464541 233.99143 2.626061 Z M 233.99143 2.626061 " stroke="#000000" stroke-width="5" stroke-opacity="1" stroke-miterlimit="4"/></g><g clip-path="url(#86c862ca50)"><path fill="#e3f2ff" d="M 100.558594 25.640625 C 103.167969 20.082031 94.035156 15.472656 87.332031 18.84375 C 82.433594 11.640625 66.960938 11.226562 61.171875 18.144531 C 57.5 17.285156 53.078125 18.746094 50.453125 21.640625 C 44.300781 21.621094 39.316406 25.28125 39.316406 29.792969 C 39.316406 35.59375 47.289062 39.484375 54.507812 37.371094 C 55.316406 42.800781 61.046875 47.011719 68.003906 47.011719 C 73.0625 47.011719 77.472656 44.785156 79.8125 41.484375 C 83.128906 42.953125 87.144531 42.484375 90.082031 39.929688 C 99.792969 41.679688 110.070312 38.015625 110.070312 32.738281 C 110.070312 29.511719 106.125 26.753906 100.558594 25.640625 " fill-opacity="1" fill-rule="nonzero"/></g><path fill="#ffffff" d="M 106.480469 37.691406 C 109.675781 33.695312 105.953125 29.152344 98.554688 27.601562 C 101.042969 22.054688 92.34375 17.433594 85.941406 20.808594 C 81.265625 13.597656 66.519531 13.191406 61.003906 20.109375 C 57.457031 19.234375 53.257812 20.746094 50.789062 23.601562 C 44.160156 23.601562 39.160156 28.1875 40.335938 33.214844 C 36.960938 27.871094 42.242188 21.636719 50.457031 21.636719 C 53.035156 18.789062 57.445312 17.273438 61.171875 18.148438 C 66.949219 11.234375 82.421875 11.625 87.332031 18.84375 C 94.117188 15.425781 103.140625 20.136719 100.558594 25.640625 C 110.203125 27.566406 113.117188 33.742188 106.480469 37.691406 " fill-opacity="1" fill-rule="nonzero"/><g clip-path="url(#cb7d761559)"><path fill="#b6d5f0" d="M 101.304688 39.679688 C 97.785156 40.5 93.722656 40.585938 90.082031 39.925781 C 87.210938 42.421875 83.214844 42.992188 79.8125 41.484375 C 77.46875 44.785156 73.0625 47.011719 68.003906 47.011719 C 61.046875 47.011719 55.3125 42.800781 54.507812 37.371094 C 51.898438 38.136719 49.019531 38.128906 46.484375 37.421875 C 50.085938 36.859375 53.179688 35.15625 55.164062 32.800781 C 59.179688 39.21875 69.617188 40.816406 76.269531 36.105469 C 80.980469 38.808594 87.515625 37.652344 90.433594 33.664062 C 92.800781 37.179688 97.039062 39.40625 101.304688 39.679688 " fill-opacity="1" fill-rule="nonzero"/></g><path fill="#e3f2ff" d="M 61.230469 18.082031 C 61.207031 18.101562 61.191406 18.125 61.171875 18.148438 C 61.152344 18.140625 61.128906 18.136719 61.105469 18.132812 C 61.148438 18.113281 61.191406 18.097656 61.230469 18.082031 " fill-opacity="1" fill-rule="nonzero"/><path fill="#b6d5f0" d="M 65.105469 30.738281 C 60.171875 36.246094 51.128906 36.226562 46.21875 30.738281 C 52.035156 33.414062 59.289062 33.414062 65.105469 30.738281 " fill-opacity="1" fill-rule="nonzero"/><path fill="#b6d5f0" d="M 84 33.96875 C 80.082031 39.476562 72.902344 39.457031 69.003906 33.96875 C 73.621094 36.644531 79.378906 36.648438 84 33.96875 " fill-opacity="1" fill-rule="nonzero"/><path fill="#ffffff" d="M 79.113281 21.480469 C 83.007812 18.382812 88.910156 19.484375 91.445312 23.761719 C 87.972656 21.261719 83.238281 20.386719 79.113281 21.480469 " fill-opacity="1" fill-rule="nonzero"/><path fill="#ffffff" d="M 53.074219 21.175781 C 56.96875 18.078125 62.871094 19.183594 65.40625 23.457031 C 61.9375 20.960938 57.199219 20.082031 53.074219 21.175781 " fill-opacity="1" fill-rule="nonzero"/></svg>