<svg xmlns="http://www.w3.org/2000/svg" xmlns:xlink="http://www.w3.org/1999/xlink" width="100" zoomAndPan="magnify" viewBox="0 0 75 74.999997" height="100" preserveAspectRatio="xMidYMid meet" version="1.0"><defs><clipPath id="a6c413525c"><path d="M 11.101562 6.457031 L 63.601562 6.457031 L 63.601562 68.707031 L 11.101562 68.707031 Z M 11.101562 6.457031 " clip-rule="nonzero"/></clipPath><clipPath id="e7b12539b5"><path d="M 11.101562 9 L 60 9 L 60 68.707031 L 11.101562 68.707031 Z M 11.101562 9 " clip-rule="nonzero"/></clipPath><clipPath id="878cab608f"><path d="M 22 6.457031 L 63 6.457031 L 63 18 L 22 18 Z M 22 6.457031 " clip-rule="nonzero"/></clipPath><clipPath id="4923743ff4"><path d="M 22 6.457031 L 63.601562 6.457031 L 63.601562 18 L 22 18 Z M 22 6.457031 " clip-rule="nonzero"/></clipPath><clipPath id="0cdf396f0b"><path d="M 54 14 L 63.601562 14 L 63.601562 27 L 54 27 Z M 54 14 " clip-rule="nonzero"/></clipPath><clipPath id="57af00a693"><path d="M 54 13 L 63.601562 13 L 63.601562 27 L 54 27 Z M 54 13 " clip-rule="nonzero"/></clipPath><clipPath id="3b3b7c5b3e"><path d="M 53 48 L 63.601562 48 L 63.601562 63 L 53 63 Z M 53 48 " clip-rule="nonzero"/></clipPath><clipPath id="06d2ff7698"><path d="M 53 47 L 63.601562 47 L 63.601562 63 L 53 63 Z M 53 47 " clip-rule="nonzero"/></clipPath></defs><g clip-path="url(#a6c413525c)"><path fill="#000000" d="M 62.765625 56.308594 L 58.609375 49.058594 C 58.019531 48.03125 56.714844 47.683594 55.699219 48.277344 L 52.101562 50.371094 C 49.613281 51.824219 46.765625 52.59375 43.863281 52.59375 C 34.773438 52.59375 27.378906 45.136719 27.378906 35.96875 C 27.378906 31.976562 28.785156 28.304688 31.121094 25.4375 C 33.761719 23.628906 36.941406 22.570312 40.367188 22.570312 C 43.265625 22.570312 46.113281 23.339844 48.605469 24.789062 L 52.199219 26.886719 C 52.992188 27.351562 53.960938 27.238281 54.628906 26.675781 C 54.675781 26.636719 54.722656 26.589844 54.769531 26.546875 L 58.136719 23.445312 C 58.320312 23.289062 58.480469 23.101562 58.609375 22.878906 L 62.765625 15.632812 C 63.355469 14.605469 63.007812 13.292969 61.988281 12.699219 L 58.394531 10.601562 C 53.996094 8.035156 48.972656 6.679688 43.863281 6.679688 C 35.480469 6.679688 27.917969 10.28125 22.609375 16.027344 C 15.742188 21.386719 11.3125 29.777344 11.3125 39.191406 C 11.3125 55.34375 24.347656 68.484375 40.367188 68.484375 C 45.472656 68.484375 50.496094 67.128906 54.894531 64.5625 L 58.492188 62.464844 C 58.601562 62.402344 58.699219 62.328125 58.792969 62.25 L 58.800781 62.242188 C 58.835938 62.210938 58.871094 62.179688 58.90625 62.144531 L 62.296875 59.023438 C 62.335938 58.988281 62.375 58.953125 62.410156 58.917969 L 62.441406 58.890625 C 63.097656 58.21875 63.257812 57.164062 62.765625 56.308594 Z M 62.765625 56.308594 " fill-opacity="1" fill-rule="nonzero"/><path fill="#000000" d="M 40.367188 68.699219 C 24.226562 68.699219 11.101562 55.460938 11.101562 39.191406 C 11.101562 34.554688 12.140625 30.117188 14.195312 25.992188 C 16.152344 22.070312 19.011719 18.566406 22.464844 15.867188 C 25.175781 12.933594 28.382812 10.625 31.996094 9 C 35.742188 7.316406 39.738281 6.464844 43.863281 6.464844 C 49.007812 6.464844 54.070312 7.832031 58.503906 10.414062 L 62.097656 12.511719 C 63.214844 13.164062 63.597656 14.613281 62.953125 15.742188 L 58.792969 22.988281 C 58.660156 23.222656 58.488281 23.429688 58.277344 23.605469 L 54.917969 26.703125 C 54.867188 26.75 54.816406 26.796875 54.765625 26.839844 C 54.011719 27.472656 52.9375 27.566406 52.089844 27.074219 L 48.496094 24.976562 C 46.039062 23.542969 43.226562 22.785156 40.367188 22.785156 C 37.109375 22.785156 33.960938 23.757812 31.269531 25.597656 C 28.898438 28.515625 27.589844 32.199219 27.589844 35.96875 C 27.589844 45.015625 34.890625 52.378906 43.863281 52.378906 C 46.726562 52.378906 49.539062 51.621094 51.996094 50.1875 L 55.589844 48.089844 C 56.710938 47.4375 58.144531 47.824219 58.792969 48.953125 L 62.953125 56.199219 C 63.472656 57.109375 63.332031 58.265625 62.609375 59.023438 C 62.601562 59.03125 62.59375 59.042969 62.585938 59.050781 L 62.554688 59.078125 C 62.515625 59.117188 62.476562 59.152344 62.4375 59.183594 L 59.050781 62.304688 C 59.015625 62.339844 58.976562 62.375 58.941406 62.40625 L 58.9375 62.40625 C 58.933594 62.414062 58.925781 62.417969 58.917969 62.421875 C 58.8125 62.511719 58.707031 62.585938 58.597656 62.652344 L 55.003906 64.746094 C 50.570312 67.332031 45.507812 68.699219 40.367188 68.699219 Z M 43.863281 6.894531 C 35.902344 6.894531 28.210938 10.277344 22.765625 16.171875 C 22.757812 16.179688 22.75 16.1875 22.738281 16.195312 C 15.613281 21.761719 11.527344 30.144531 11.527344 39.191406 C 11.527344 55.226562 24.464844 68.269531 40.367188 68.269531 C 45.433594 68.269531 50.421875 66.921875 54.789062 64.375 L 58.382812 62.28125 C 58.476562 62.226562 58.566406 62.160156 58.65625 62.082031 C 58.660156 62.082031 58.660156 62.082031 58.664062 62.078125 C 58.691406 62.054688 58.722656 62.023438 58.757812 61.992188 L 62.152344 58.863281 C 62.15625 58.863281 62.15625 58.859375 62.160156 58.859375 C 62.191406 58.832031 62.226562 58.800781 62.261719 58.765625 L 62.277344 58.75 C 62.28125 58.746094 62.285156 58.742188 62.289062 58.738281 C 62.890625 58.121094 63.011719 57.164062 62.582031 56.414062 L 58.425781 49.167969 C 57.894531 48.246094 56.71875 47.929688 55.804688 48.460938 L 52.210938 50.558594 C 49.6875 52.03125 46.800781 52.808594 43.863281 52.808594 C 34.65625 52.808594 27.164062 45.253906 27.164062 35.96875 C 27.164062 32.089844 28.511719 28.300781 30.957031 25.300781 C 30.972656 25.285156 30.984375 25.269531 31.003906 25.257812 C 33.773438 23.359375 37.011719 22.355469 40.367188 22.355469 C 43.300781 22.355469 46.1875 23.132812 48.710938 24.605469 L 52.304688 26.699219 C 52.996094 27.105469 53.875 27.027344 54.492188 26.511719 C 54.492188 26.511719 54.492188 26.507812 54.496094 26.507812 C 54.535156 26.472656 54.578125 26.433594 54.617188 26.394531 C 54.621094 26.390625 54.625 26.390625 54.625 26.386719 L 57.992188 23.285156 C 57.996094 23.285156 57.996094 23.285156 58 23.28125 C 58.171875 23.136719 58.316406 22.964844 58.425781 22.773438 L 62.582031 15.527344 C 63.113281 14.601562 62.796875 13.417969 61.882812 12.882812 L 58.289062 10.789062 C 53.921875 8.238281 48.933594 6.894531 43.863281 6.894531 Z M 43.863281 6.894531 " fill-opacity="1" fill-rule="nonzero"/></g><g clip-path="url(#e7b12539b5)"><path fill="#ffffff" d="M 40.367188 68.484375 C 24.347656 68.484375 11.3125 55.34375 11.3125 39.191406 C 11.3125 23.042969 24.347656 9.902344 40.367188 9.902344 C 45.472656 9.902344 50.496094 11.257812 54.894531 13.824219 L 58.492188 15.921875 C 59.507812 16.515625 59.855469 17.828125 59.269531 18.855469 L 55.109375 26.101562 C 54.519531 27.128906 53.21875 27.480469 52.199219 26.886719 L 48.605469 24.789062 C 46.113281 23.339844 43.265625 22.570312 40.367188 22.570312 C 31.273438 22.570312 23.878906 30.027344 23.878906 39.191406 C 23.878906 48.359375 31.273438 55.816406 40.367188 55.816406 C 43.265625 55.816406 46.113281 55.046875 48.605469 53.59375 L 52.199219 51.5 C 53.21875 50.90625 54.519531 51.253906 55.109375 52.28125 L 59.269531 59.53125 C 59.855469 60.558594 59.507812 61.871094 58.492188 62.464844 L 54.894531 64.5625 C 50.496094 67.128906 45.472656 68.484375 40.367188 68.484375 Z M 40.367188 68.484375 " fill-opacity="1" fill-rule="nonzero"/><path fill="#000000" d="M 40.367188 68.699219 C 24.226562 68.699219 11.101562 55.460938 11.101562 39.191406 C 11.101562 22.921875 24.226562 9.6875 40.367188 9.6875 C 45.507812 9.6875 50.570312 11.050781 55.003906 13.636719 L 58.597656 15.734375 C 59.140625 16.050781 59.527344 16.558594 59.6875 17.171875 C 59.847656 17.78125 59.765625 18.417969 59.453125 18.964844 L 55.292969 26.210938 C 54.648438 27.339844 53.210938 27.726562 52.089844 27.074219 L 48.496094 24.976562 C 46.039062 23.542969 43.226562 22.785156 40.367188 22.785156 C 31.390625 22.785156 24.09375 30.144531 24.09375 39.191406 C 24.09375 48.238281 31.390625 55.601562 40.367188 55.601562 C 43.226562 55.601562 46.039062 54.84375 48.496094 53.410156 L 52.089844 51.3125 C 52.632812 50.996094 53.265625 50.914062 53.871094 51.074219 C 54.476562 51.238281 54.980469 51.628906 55.292969 52.175781 L 59.453125 59.421875 C 60.097656 60.550781 59.714844 62 58.597656 62.652344 L 55.003906 64.746094 C 50.570312 67.332031 45.507812 68.699219 40.367188 68.699219 Z M 40.367188 10.117188 C 24.464844 10.117188 11.527344 23.160156 11.527344 39.191406 C 11.527344 55.226562 24.464844 68.269531 40.367188 68.269531 C 45.433594 68.269531 50.421875 66.921875 54.789062 64.375 L 58.382812 62.28125 C 59.300781 61.746094 59.613281 60.5625 59.082031 59.636719 L 54.925781 52.390625 C 54.667969 51.941406 54.253906 51.625 53.761719 51.488281 C 53.265625 51.355469 52.75 51.425781 52.304688 51.683594 L 48.710938 53.78125 C 46.1875 55.253906 43.300781 56.03125 40.367188 56.03125 C 31.15625 56.03125 23.667969 48.476562 23.667969 39.191406 C 23.667969 29.910156 31.15625 22.355469 40.367188 22.355469 C 43.300781 22.355469 46.1875 23.132812 48.710938 24.605469 L 52.304688 26.699219 C 53.21875 27.234375 54.394531 26.917969 54.925781 25.996094 L 59.082031 18.746094 C 59.339844 18.300781 59.410156 17.78125 59.277344 17.28125 C 59.144531 16.78125 58.828125 16.363281 58.382812 16.105469 L 54.789062 14.007812 C 50.421875 11.460938 45.433594 10.117188 40.367188 10.117188 Z M 40.367188 10.117188 " fill-opacity="1" fill-rule="nonzero"/></g><g clip-path="url(#878cab608f)"><path fill="#c2b092" d="M 61.988281 12.699219 L 58.394531 10.601562 C 53.996094 8.035156 48.972656 6.679688 43.863281 6.679688 C 35.480469 6.679688 27.917969 10.28125 22.609375 16.027344 C 27.523438 12.1875 33.683594 9.902344 40.367188 9.902344 C 45.472656 9.902344 50.496094 11.257812 54.894531 13.824219 L 58.492188 15.921875 C 58.960938 16.195312 59.285156 16.621094 59.445312 17.105469 L 62.988281 14.027344 C 62.851562 13.488281 62.507812 13 61.988281 12.699219 Z M 61.988281 12.699219 " fill-opacity="1" fill-rule="nonzero"/></g><g clip-path="url(#4923743ff4)"><path fill="#000000" d="M 59.445312 17.320312 C 59.425781 17.320312 59.40625 17.316406 59.386719 17.3125 C 59.320312 17.292969 59.265625 17.238281 59.242188 17.171875 C 59.09375 16.722656 58.789062 16.34375 58.382812 16.105469 L 54.789062 14.007812 C 50.421875 11.460938 45.433594 10.117188 40.367188 10.117188 C 33.925781 10.117188 27.832031 12.21875 22.738281 16.195312 C 22.652344 16.265625 22.527344 16.253906 22.453125 16.171875 C 22.375 16.089844 22.378906 15.960938 22.453125 15.878906 C 25.167969 12.941406 28.378906 10.625 31.996094 9 C 35.742188 7.316406 39.738281 6.464844 43.863281 6.464844 C 49.007812 6.464844 54.070312 7.832031 58.503906 10.414062 L 62.097656 12.511719 C 62.648438 12.832031 63.035156 13.351562 63.191406 13.972656 C 63.214844 14.054688 63.1875 14.136719 63.125 14.191406 L 59.582031 17.265625 C 59.542969 17.300781 59.496094 17.320312 59.445312 17.320312 Z M 40.367188 9.6875 C 45.507812 9.6875 50.570312 11.050781 55.003906 13.636719 L 58.597656 15.734375 C 59.003906 15.972656 59.324219 16.324219 59.53125 16.746094 L 62.742188 13.953125 C 62.597656 13.5 62.296875 13.125 61.882812 12.882812 L 58.289062 10.789062 C 53.921875 8.238281 48.933594 6.894531 43.863281 6.894531 C 36.777344 6.894531 29.910156 9.570312 24.644531 14.316406 C 26.558594 13.082031 28.605469 12.078125 30.753906 11.320312 C 33.839844 10.238281 37.074219 9.6875 40.367188 9.6875 Z M 40.367188 9.6875 " fill-opacity="1" fill-rule="nonzero"/></g><g clip-path="url(#0cdf396f0b)"><path fill="#c2b092" d="M 59.445312 17.105469 C 59.628906 17.667969 59.585938 18.300781 59.269531 18.855469 L 55.109375 26.101562 C 55.015625 26.269531 54.898438 26.417969 54.769531 26.546875 L 58.136719 23.445312 C 58.320312 23.289062 58.480469 23.101562 58.609375 22.878906 L 62.765625 15.632812 C 63.058594 15.128906 63.121094 14.550781 62.988281 14.027344 Z M 59.445312 17.105469 " fill-opacity="1" fill-rule="nonzero"/></g><g clip-path="url(#57af00a693)"><path fill="#000000" d="M 54.769531 26.761719 C 54.714844 26.761719 54.65625 26.738281 54.613281 26.695312 C 54.535156 26.609375 54.535156 26.476562 54.617188 26.394531 C 54.742188 26.269531 54.84375 26.136719 54.925781 25.996094 L 59.082031 18.746094 C 59.355469 18.273438 59.414062 17.699219 59.242188 17.171875 C 59.214844 17.089844 59.238281 17 59.304688 16.941406 L 62.847656 13.863281 C 62.902344 13.816406 62.980469 13.800781 63.050781 13.820312 C 63.121094 13.84375 63.175781 13.902344 63.191406 13.972656 C 63.34375 14.578125 63.261719 15.203125 62.953125 15.742188 L 58.792969 22.988281 C 58.660156 23.222656 58.488281 23.429688 58.277344 23.605469 L 54.914062 26.703125 C 54.871094 26.742188 54.820312 26.761719 54.769531 26.761719 Z M 59.6875 17.175781 C 59.84375 17.78125 59.761719 18.421875 59.453125 18.964844 L 55.828125 25.28125 L 57.992188 23.285156 C 57.996094 23.285156 57.996094 23.285156 58 23.28125 C 58.171875 23.136719 58.316406 22.964844 58.425781 22.773438 L 62.582031 15.527344 C 62.773438 15.191406 62.859375 14.816406 62.835938 14.441406 Z M 59.6875 17.175781 " fill-opacity="1" fill-rule="nonzero"/></g><path fill="#c2b092" d="M 55.699219 48.277344 L 52.105469 50.371094 C 49.613281 51.824219 46.765625 52.59375 43.863281 52.59375 C 34.773438 52.59375 27.378906 45.136719 27.378906 35.96875 C 27.378906 31.976562 28.785156 28.304688 31.121094 25.4375 C 26.753906 28.429688 23.878906 33.476562 23.878906 39.191406 C 23.878906 48.359375 31.273438 55.816406 40.367188 55.816406 C 43.265625 55.816406 46.113281 55.046875 48.605469 53.59375 L 52.199219 51.5 C 52.714844 51.199219 53.300781 51.140625 53.832031 51.289062 L 57.328125 48.066406 C 56.796875 47.917969 56.210938 47.976562 55.699219 48.277344 Z M 55.699219 48.277344 " fill-opacity="1" fill-rule="nonzero"/><path fill="#000000" d="M 40.367188 56.03125 C 31.15625 56.03125 23.667969 48.476562 23.667969 39.191406 C 23.667969 33.613281 26.410156 28.40625 31.003906 25.257812 C 31.089844 25.199219 31.207031 25.210938 31.28125 25.292969 C 31.351562 25.371094 31.355469 25.488281 31.289062 25.574219 C 28.902344 28.496094 27.589844 32.191406 27.589844 35.96875 C 27.589844 45.015625 34.890625 52.378906 43.863281 52.378906 C 46.726562 52.378906 49.539062 51.621094 51.996094 50.1875 L 55.589844 48.089844 C 56.136719 47.769531 56.773438 47.6875 57.382812 47.855469 C 57.460938 47.878906 57.515625 47.9375 57.535156 48.015625 C 57.554688 48.089844 57.527344 48.171875 57.472656 48.222656 L 53.976562 51.445312 C 53.921875 51.496094 53.847656 51.515625 53.777344 51.496094 C 53.277344 51.355469 52.753906 51.421875 52.304688 51.683594 L 48.710938 53.78125 C 46.1875 55.253906 43.300781 56.03125 40.367188 56.03125 Z M 30.066406 26.5 C 26.300781 29.605469 24.09375 34.25 24.09375 39.191406 C 24.09375 48.238281 31.390625 55.601562 40.367188 55.601562 C 43.226562 55.601562 46.039062 54.84375 48.496094 53.410156 L 52.089844 51.3125 C 52.605469 51.011719 53.199219 50.921875 53.773438 51.050781 L 56.859375 48.203125 C 56.496094 48.183594 56.128906 48.273438 55.804688 48.460938 L 52.210938 50.558594 C 49.6875 52.03125 46.800781 52.808594 43.863281 52.808594 C 34.65625 52.808594 27.164062 45.253906 27.164062 35.96875 C 27.164062 32.589844 28.1875 29.28125 30.066406 26.5 Z M 30.066406 26.5 " fill-opacity="1" fill-rule="nonzero"/><g clip-path="url(#3b3b7c5b3e)"><path fill="#c2b092" d="M 62.765625 56.308594 L 58.609375 49.058594 C 58.316406 48.550781 57.847656 48.207031 57.328125 48.066406 L 53.832031 51.289062 C 54.351562 51.433594 54.816406 51.773438 55.109375 52.28125 L 59.269531 59.53125 C 59.765625 60.402344 59.589844 61.476562 58.90625 62.144531 L 62.296875 59.023438 C 62.335938 58.988281 62.375 58.953125 62.410156 58.917969 L 62.441406 58.890625 C 63.097656 58.21875 63.257812 57.164062 62.765625 56.308594 Z M 62.765625 56.308594 " fill-opacity="1" fill-rule="nonzero"/></g><g clip-path="url(#06d2ff7698)"><path fill="#000000" d="M 58.90625 62.359375 C 58.847656 62.359375 58.792969 62.339844 58.75 62.292969 C 58.671875 62.207031 58.675781 62.074219 58.757812 61.992188 C 59.390625 61.375 59.523438 60.40625 59.082031 59.636719 L 54.925781 52.390625 C 54.671875 51.949219 54.265625 51.632812 53.777344 51.496094 C 53.703125 51.472656 53.644531 51.414062 53.625 51.339844 C 53.609375 51.261719 53.632812 51.183594 53.6875 51.128906 L 57.183594 47.90625 C 57.238281 47.855469 57.3125 47.839844 57.382812 47.855469 C 57.984375 48.023438 58.484375 48.410156 58.792969 48.953125 L 62.953125 56.199219 C 63.472656 57.109375 63.332031 58.265625 62.609375 59.023438 C 62.601562 59.03125 62.59375 59.042969 62.585938 59.050781 L 62.554688 59.078125 C 62.515625 59.117188 62.476562 59.152344 62.4375 59.183594 L 59.050781 62.304688 C 59.007812 62.34375 58.957031 62.359375 58.90625 62.359375 Z M 54.234375 51.207031 C 54.679688 51.410156 55.046875 51.742188 55.292969 52.175781 L 59.453125 59.421875 C 59.753906 59.949219 59.835938 60.550781 59.710938 61.113281 L 62.152344 58.863281 C 62.15625 58.863281 62.15625 58.859375 62.160156 58.859375 C 62.191406 58.832031 62.226562 58.800781 62.261719 58.765625 L 62.277344 58.75 C 62.28125 58.746094 62.285156 58.742188 62.289062 58.738281 C 62.890625 58.121094 63.011719 57.164062 62.582031 56.414062 L 58.425781 49.167969 C 58.191406 48.757812 57.824219 48.457031 57.382812 48.304688 Z M 54.234375 51.207031 " fill-opacity="1" fill-rule="nonzero"/></g></svg>