<svg xmlns="http://www.w3.org/2000/svg" xmlns:xlink="http://www.w3.org/1999/xlink" width="200" zoomAndPan="magnify" viewBox="0 0 150 112.499997" height="150" preserveAspectRatio="xMidYMid meet" version="1.0"><defs><clipPath id="2a8e716a08"><path d="M 31.082031 9.90625 L 119.191406 9.90625 L 119.191406 101.746094 L 31.082031 101.746094 Z M 31.082031 9.90625 " clip-rule="nonzero"/></clipPath><clipPath id="c0c0645dad"><path d="M 35 22 L 119.191406 22 L 119.191406 93 L 35 93 Z M 35 22 " clip-rule="nonzero"/></clipPath><clipPath id="a3b25f22e7"><path d="M 31.082031 9.90625 L 119.191406 9.90625 L 119.191406 101.746094 L 31.082031 101.746094 Z M 31.082031 9.90625 " clip-rule="nonzero"/></clipPath><clipPath id="1b5af1b91d"><path d="M 32 10 L 119.191406 10 L 119.191406 101.746094 L 32 101.746094 Z M 32 10 " clip-rule="nonzero"/></clipPath><clipPath id="002e4cdf54"><path d="M 52 51 L 119.191406 51 L 119.191406 97 L 52 97 Z M 52 51 " clip-rule="nonzero"/></clipPath></defs><g clip-path="url(#2a8e716a08)"><path fill="#2a3b50" d="M 119.167969 49.335938 C 119.171875 49.328125 119.171875 49.316406 119.171875 49.308594 C 119.171875 49.242188 108.636719 49.378906 96.390625 49.558594 L 95.785156 48.3125 C 105.621094 42.667969 113.742188 28.378906 113.742188 28.378906 C 113.261719 27.902344 112.601562 27.410156 112.601562 27.410156 C 106.898438 27.410156 103.277344 25.398438 100.964844 22.777344 C 98.621094 19.878906 97.574219 16.476562 97.113281 14.171875 C 96.90625 13.042969 96.8125 12.101562 96.75 11.5 C 96.234375 11.054688 95.609375 10.535156 95.609375 10.535156 L 86.984375 9.90625 L 61.835938 40.457031 L 55.179688 40.871094 C 54.863281 40.890625 54.582031 41.085938 54.457031 41.371094 L 50.480469 50.359375 L 40.914062 50.597656 C 40.285156 50.628906 39.699219 50.824219 39.203125 51.144531 C 38.472656 51.621094 37.933594 52.367188 37.730469 53.234375 C 37.675781 53.480469 37.644531 53.738281 37.644531 54.003906 L 37.644531 56.019531 C 37.644531 57.769531 36.371094 59.265625 34.628906 59.550781 L 34.570312 59.5625 C 33.933594 59.667969 33.355469 59.910156 32.855469 60.257812 C 32.453125 60.539062 32.105469 60.890625 31.828125 61.292969 C 31.457031 61.824219 31.214844 62.441406 31.128906 63.105469 C 31.097656 63.320312 31.085938 63.542969 31.09375 63.769531 L 31.140625 65.277344 L 31.191406 66.871094 L 32.535156 67.113281 L 32.546875 67.113281 L 32.5625 67.117188 L 39.984375 68.445312 L 39.984375 88.296875 L 41.71875 88.890625 L 43.289062 88.296875 L 43.289062 78.257812 C 43.289062 75.503906 43.757812 72.769531 44.667969 70.167969 L 44.960938 69.339844 L 59.515625 71.953125 L 59.515625 89.371094 L 56.707031 90.121094 L 56.707031 93.929688 L 55.554688 94.140625 C 55.535156 94.140625 55.511719 94.148438 55.492188 94.152344 C 55.234375 94.234375 55.09375 94.507812 55.175781 94.761719 C 55.257812 95.015625 55.53125 95.15625 55.789062 95.074219 L 57.695312 94.46875 L 58.515625 94.734375 L 57.160156 94.980469 C 57.140625 94.984375 57.117188 94.988281 57.097656 94.996094 C 56.84375 95.074219 56.703125 95.347656 56.785156 95.601562 C 56.867188 95.855469 57.140625 95.996094 57.394531 95.917969 L 59.804688 95.148438 L 60.761719 95.457031 L 58.765625 95.820312 C 58.746094 95.824219 58.722656 95.828125 58.707031 95.835938 C 58.449219 95.917969 58.308594 96.1875 58.390625 96.445312 C 58.472656 96.699219 58.746094 96.839844 59.003906 96.757812 L 61.917969 95.832031 L 64.632812 96.703125 L 69.726562 95.171875 L 69.726562 90.847656 L 66.917969 90.101562 L 66.917969 88.761719 L 71.535156 73.6875 L 77.875 73.160156 L 77.875 100.992188 L 80.074219 101.746094 L 82.070312 100.992188 L 82.070312 88.246094 C 82.070312 84.746094 82.664062 81.273438 83.824219 77.972656 L 85.742188 72.507812 L 85.785156 72.503906 L 100.75 71.257812 C 101.320312 71.210938 101.757812 70.738281 101.757812 70.167969 L 101.757812 67.964844 L 102.363281 67.90625 L 113.355469 66.875 C 113.464844 67.203125 115.671875 73.863281 115.671875 76.703125 L 115.671875 87.316406 L 117.199219 87.894531 L 117.199219 87.945312 L 117.335938 87.945312 L 119.167969 87.316406 L 119.167969 66.332031 L 119.097656 66.335938 L 113.347656 66.863281 L 119.167969 66.332031 L 119.167969 51.910156 C 119.171875 51.902344 119.171875 51.890625 119.171875 51.882812 C 119.171875 51.882812 119.167969 51.878906 119.167969 51.878906 Z M 62.550781 72.496094 L 63.878906 72.734375 L 63.878906 89.296875 L 62.550781 88.945312 Z M 66.917969 86.273438 L 66.917969 73.277344 L 68.285156 73.523438 L 68.539062 73.570312 L 69.929688 73.820312 L 70.753906 73.75 Z M 66.917969 86.273438 " fill-opacity="1" fill-rule="nonzero"/></g><path fill="#e3c2af" d="M 35.101562 61.949219 L 69.050781 66.835938 C 68.894531 67.054688 68.761719 67.289062 68.648438 67.53125 L 68.65625 67.480469 L 33.292969 62.210938 Z M 68.207031 69.011719 C 68.273438 68.503906 68.417969 68.019531 68.628906 67.570312 L 33.132812 62.28125 L 33.132812 63.648438 Z M 68.207031 69.011719 " fill-opacity="1" fill-rule="nonzero"/><g clip-path="url(#c0c0645dad)"><path fill="#181d29" d="M 66.917969 90.980469 L 66.917969 90.101562 L 69.726562 90.847656 C 69.726562 90.847656 65.160156 92.230469 64.632812 92.230469 L 56.707031 90.121094 L 59.515625 89.371094 L 59.515625 89.960938 L 61.035156 90.480469 L 61.105469 90.503906 L 61.109375 90.503906 L 62.550781 89.960938 L 62.550781 88.945312 L 63.878906 89.296875 L 63.878906 90.980469 L 65.398438 91.5 L 65.472656 91.523438 Z M 49.859375 51.769531 L 50.394531 50.558594 L 42.273438 50.941406 C 41.617188 50.972656 41.015625 51.191406 40.511719 51.535156 L 49.816406 52.316406 C 49.769531 52.144531 49.777344 51.953125 49.859375 51.769531 Z M 35.101562 61.949219 L 69.050781 66.835938 C 69.382812 66.359375 69.800781 65.9375 70.28125 65.601562 L 39.0625 61.375 Z M 83.140625 22.253906 C 83.070312 22.117188 82.90625 22.046875 82.757812 22.105469 C 82.605469 22.167969 82.527344 22.339844 82.589844 22.492188 C 82.589844 22.492188 89.46875 39.789062 93.335938 49.511719 C 93.347656 49.542969 93.363281 49.574219 93.375 49.605469 C 93.28125 49.605469 93.1875 49.605469 93.09375 49.609375 C 86.492188 49.707031 79.628906 49.816406 73.8125 49.910156 L 72.730469 52.433594 L 94.316406 51.976562 C 94.5625 52.59375 94.785156 53.15625 94.984375 53.648438 C 95.003906 53.699219 95.023438 53.746094 95.042969 53.796875 L 98.371094 53.640625 L 98.335938 53.566406 L 97.53125 51.910156 L 97.921875 51.902344 C 97.925781 51.699219 98.113281 51.507812 98.554688 51.339844 C 99.066406 51.144531 100.773438 50.941406 103.03125 50.742188 C 109.128906 50.152344 119.160156 49.480469 119.167969 49.335938 C 119.167969 49.328125 119.167969 49.316406 119.167969 49.308594 C 119.167969 49.242188 108.636719 49.378906 96.390625 49.558594 L 95.785156 48.3125 Z M 83.140625 22.253906 " fill-opacity="1" fill-rule="nonzero"/></g><g clip-path="url(#a3b25f22e7)"><path fill="#4b5868" d="M 100.964844 22.777344 C 103.277344 25.398438 106.898438 27.410156 112.601562 27.410156 C 112.601562 27.410156 113.261719 27.898438 113.742188 28.375 C 107.429688 28.378906 103.460938 25.863281 100.964844 22.777344 Z M 96.75 11.5 C 96.75 11.5 96.789062 12.570312 97.113281 14.171875 C 96.90625 13.042969 96.8125 12.101562 96.75 11.5 Z M 56.707031 90.121094 L 56.707031 93.929688 L 59.675781 93.390625 C 59.941406 93.347656 60.035156 93.722656 59.78125 93.804688 L 57.691406 94.46875 L 58.511719 94.734375 L 61.285156 94.234375 C 61.546875 94.1875 61.640625 94.5625 61.386719 94.648438 L 59.804688 95.148438 L 60.761719 95.457031 L 62.890625 95.074219 C 63.152344 95.03125 63.246094 95.402344 62.992188 95.488281 L 61.917969 95.828125 L 64.632812 96.703125 L 64.632812 92.230469 Z M 63.878906 90.980469 L 65.398438 91.5 L 65.398438 73.007812 L 64.171875 72.785156 L 63.878906 72.734375 Z M 61.035156 90.480469 L 61.035156 72.222656 L 59.515625 71.949219 L 59.515625 89.960938 Z M 62.550781 89.960938 L 62.550781 72.496094 L 62.550781 89.960938 L 61.109375 90.507812 Z M 101.183594 53.496094 L 98.335938 53.566406 L 98.371094 53.640625 L 101.757812 53.480469 C 101.679688 53.476562 101.597656 53.46875 101.515625 53.460938 C 101.402344 53.472656 101.292969 53.484375 101.183594 53.496094 Z M 32.546875 67.113281 L 32.5625 67.117188 L 32.5625 67.113281 Z M 39.984375 68.445312 L 39.984375 88.296875 L 41.714844 88.890625 L 41.714844 68.757812 Z M 119.167969 66.332031 Z M 85.785156 70.867188 L 101.757812 69.539062 L 101.757812 70.167969 C 101.757812 70.738281 101.320312 71.210938 100.75 71.257812 L 85.785156 72.503906 L 85.742188 72.507812 L 85.753906 72.472656 L 80.074219 72.941406 L 80.074219 101.746094 L 77.875 100.992188 L 77.875 73.160156 L 71.535156 73.6875 L 70.753906 73.75 L 69.929688 73.820312 L 68.539062 73.570312 L 68.539062 73.523438 L 68.539062 73.570312 L 68.285156 73.523438 L 68.226562 71.613281 L 68.167969 71.617188 L 33.132812 65.601562 L 33.132812 63.648438 L 68.207031 69.011719 C 68.273438 68.503906 68.417969 68.019531 68.628906 67.570312 L 33.132812 62.28125 L 33.132812 62.234375 L 33.292969 62.210938 L 68.65625 67.480469 L 68.648438 67.53125 C 68.761719 67.289062 68.894531 67.054688 69.050781 66.835938 C 69.382812 66.359375 69.800781 65.9375 70.28125 65.601562 L 39.0625 61.375 L 39.0625 53.625 C 39.011719 53.855469 38.984375 54.097656 38.984375 54.34375 L 38.984375 56.359375 C 38.984375 58.109375 37.710938 59.605469 35.972656 59.890625 L 35.910156 59.902344 C 33.855469 60.242188 32.371094 62.039062 32.4375 64.105469 L 32.535156 67.109375 L 31.191406 66.871094 L 31.140625 65.277344 L 31.09375 63.765625 C 31.085938 63.542969 31.097656 63.320312 31.128906 63.105469 C 31.214844 62.441406 31.457031 61.820312 31.828125 61.289062 C 32.105469 60.890625 32.453125 60.539062 32.855469 60.257812 C 33.355469 59.910156 33.933594 59.667969 34.570312 59.5625 L 34.628906 59.550781 C 36.371094 59.261719 37.644531 57.769531 37.644531 56.015625 L 37.644531 54.003906 C 37.644531 53.738281 37.675781 53.480469 37.730469 53.234375 C 37.933594 52.363281 38.472656 51.621094 39.203125 51.144531 C 39.699219 50.824219 40.285156 50.625 40.914062 50.597656 L 50.480469 50.359375 L 54.457031 41.371094 C 54.582031 41.085938 54.863281 40.890625 55.179688 40.871094 L 61.835938 40.457031 L 86.984375 9.90625 L 95.609375 10.535156 C 95.609375 10.535156 96.234375 11.054688 96.75 11.5 L 88.125 10.871094 L 63.875 40.328125 L 64.363281 40.300781 C 64.84375 40.269531 65.324219 40.296875 65.796875 40.378906 L 76.011719 42.140625 C 76.550781 42.230469 76.859375 42.796875 76.644531 43.296875 L 73.8125 49.910156 L 72.730469 52.433594 L 71.988281 54.164062 C 71.988281 54.171875 71.984375 54.175781 71.980469 54.179688 C 71.835938 54.503906 71.5 54.703125 71.140625 54.671875 L 50.5625 52.941406 C 50.183594 52.910156 49.902344 52.644531 49.816406 52.316406 C 49.769531 52.144531 49.777344 51.953125 49.859375 51.769531 L 50.394531 50.558594 L 42.289062 50.9375 C 42.28125 50.9375 42.277344 50.941406 42.273438 50.941406 C 41.617188 50.972656 41.015625 51.1875 40.511719 51.535156 C 39.796875 52.019531 39.28125 52.761719 39.09375 53.625 L 76.125 57.183594 C 76.367188 56.140625 77.011719 55.246094 77.886719 54.679688 L 77.890625 54.679688 C 78.484375 54.292969 79.183594 54.054688 79.9375 54.019531 L 94.984375 53.648438 C 95.003906 53.699219 95.023438 53.746094 95.042969 53.796875 L 81.585938 54.429688 C 79.390625 54.53125 77.664062 56.328125 77.664062 58.511719 L 77.664062 60.925781 C 77.664062 63.023438 76.136719 64.816406 74.050781 65.160156 L 73.980469 65.171875 C 71.515625 65.582031 69.734375 67.734375 69.816406 70.214844 L 69.878906 72.1875 L 76.761719 71.617188 Z M 59.789062 59.457031 L 52.121094 58.613281 L 52.128906 59.765625 L 59.789062 60.609375 Z M 76.164062 57.1875 L 76.125 57.183594 Z M 102.363281 66.457031 L 102.363281 53.492188 L 101.746094 53.492188 L 101.746094 67.964844 L 101.757812 67.964844 L 102.363281 67.90625 L 113.355469 66.875 C 113.351562 66.871094 113.351562 66.867188 113.351562 66.867188 C 113.351562 66.867188 113.351562 66.871094 113.355469 66.875 C 113.464844 67.203125 115.671875 73.863281 115.671875 76.703125 L 115.671875 87.316406 L 117.199219 87.894531 L 117.199219 66.515625 L 119.097656 66.335938 L 113.347656 66.863281 L 119.167969 66.332031 L 119.167969 65.0625 L 103.195312 66.386719 Z M 103.03125 50.742188 C 100.773438 50.941406 99.066406 51.144531 98.554688 51.339844 C 98.996094 51.171875 100.734375 50.964844 103.03125 50.742188 Z M 103.03125 50.742188 " fill-opacity="1" fill-rule="nonzero"/></g><g clip-path="url(#1b5af1b91d)"><path fill="#2a3b50" d="M 88.125 10.871094 L 96.75 11.5 C 96.75 11.5 96.789062 12.570312 97.113281 14.171875 C 97.574219 16.476562 98.621094 19.878906 100.964844 22.777344 C 103.460938 25.863281 107.429688 28.378906 113.742188 28.378906 C 113.742188 28.378906 105.621094 42.667969 95.785156 48.3125 L 83.140625 22.253906 C 83.070312 22.117188 82.90625 22.046875 82.757812 22.105469 C 82.605469 22.167969 82.527344 22.339844 82.589844 22.492188 C 82.589844 22.492188 89.46875 39.789062 93.335938 49.511719 C 93.257812 49.542969 93.175781 49.578125 93.09375 49.609375 C 86.492188 49.707031 79.628906 49.816406 73.8125 49.910156 L 76.644531 43.296875 C 76.859375 42.796875 76.546875 42.230469 76.011719 42.140625 L 65.796875 40.378906 C 65.324219 40.296875 64.839844 40.269531 64.363281 40.300781 L 63.875 40.328125 Z M 64.632812 92.230469 L 64.632812 96.703125 L 69.726562 95.171875 L 69.726562 90.847656 C 69.726562 90.847656 65.160156 92.230469 64.632812 92.230469 Z M 71.140625 54.675781 L 50.5625 52.941406 C 50.183594 52.910156 49.902344 52.644531 49.816406 52.316406 L 40.511719 51.535156 C 39.796875 52.019531 39.28125 52.761719 39.09375 53.625 L 76.125 57.183594 C 76.367188 56.140625 77.011719 55.246094 77.890625 54.679688 L 71.980469 54.179688 C 71.835938 54.503906 71.5 54.703125 71.140625 54.675781 Z M 119.167969 49.335938 C 119.160156 49.480469 109.132812 50.152344 103.03125 50.742188 C 100.734375 50.964844 98.996094 51.171875 98.554688 51.339844 C 98.113281 51.507812 97.925781 51.699219 97.921875 51.902344 C 97.917969 52.566406 99.957031 53.304688 101.515625 53.460938 C 101.597656 53.46875 101.679688 53.476562 101.757812 53.480469 L 98.371094 53.640625 L 95.042969 53.796875 L 81.585938 54.429688 C 79.390625 54.53125 77.664062 56.328125 77.664062 58.511719 L 77.664062 60.925781 C 77.664062 63.023438 76.136719 64.816406 74.050781 65.160156 L 73.980469 65.171875 C 71.515625 65.582031 69.734375 67.734375 69.8125 70.214844 L 69.878906 72.1875 L 76.761719 71.617188 L 85.785156 70.867188 L 101.757812 69.539062 L 101.757812 67.964844 L 101.746094 67.964844 L 101.746094 53.492188 L 102.363281 53.492188 L 102.363281 66.457031 L 103.195312 66.386719 L 119.167969 65.0625 Z M 80.074219 72.945312 L 80.074219 101.746094 L 82.070312 100.992188 L 82.070312 88.246094 C 82.070312 84.746094 82.664062 81.273438 83.824219 77.972656 L 85.742188 72.507812 L 85.753906 72.472656 Z M 117.199219 66.515625 L 117.199219 87.945312 L 117.335938 87.945312 L 119.167969 87.316406 L 119.167969 66.332031 L 119.097656 66.335938 Z M 66.917969 73.277344 L 68.285156 73.523438 L 68.226562 71.613281 L 68.167969 71.617188 L 33.132812 65.601562 L 33.132812 62.234375 L 33.292969 62.210938 L 35.101562 61.949219 L 39.0625 61.375 L 39.0625 53.625 C 39.011719 53.855469 38.984375 54.097656 38.984375 54.34375 L 38.984375 56.359375 C 38.984375 58.109375 37.710938 59.605469 35.972656 59.890625 L 35.910156 59.902344 C 33.855469 60.242188 32.371094 62.039062 32.4375 64.105469 L 32.535156 67.109375 L 32.535156 67.113281 L 32.5625 67.113281 L 39.984375 68.445312 L 41.714844 68.757812 L 41.714844 88.890625 L 43.289062 88.296875 L 43.289062 78.257812 C 43.289062 75.5 43.753906 72.765625 44.667969 70.164062 L 44.957031 69.339844 L 59.515625 71.949219 L 61.035156 72.222656 L 61.035156 90.480469 L 61.109375 90.503906 L 62.550781 89.960938 L 62.550781 72.496094 L 63.878906 72.734375 L 64.171875 72.785156 L 65.398438 73.007812 L 65.398438 91.5 L 65.472656 91.523438 L 66.917969 90.980469 Z M 66.917969 73.277344 " fill-opacity="1" fill-rule="nonzero"/></g><g clip-path="url(#002e4cdf54)"><path fill="#de9934" d="M 70.753906 73.75 L 71.535156 73.6875 L 66.917969 88.761719 L 66.917969 86.273438 Z M 119.167969 51.910156 C 119.171875 51.902344 119.171875 51.894531 119.171875 51.882812 C 119.171875 51.882812 119.167969 51.878906 119.167969 51.878906 Z M 72.730469 52.433594 L 71.988281 54.164062 C 71.988281 54.171875 71.984375 54.175781 71.980469 54.179688 L 77.886719 54.679688 L 77.890625 54.679688 C 78.484375 54.292969 79.183594 54.054688 79.9375 54.019531 L 94.984375 53.648438 C 94.789062 53.15625 94.5625 52.59375 94.320312 51.976562 Z M 98.335938 53.566406 L 101.183594 53.496094 C 101.292969 53.484375 101.402344 53.472656 101.515625 53.460938 C 99.957031 53.304688 97.917969 52.566406 97.921875 51.902344 L 97.53125 51.910156 Z M 62.890625 95.074219 L 60.761719 95.457031 L 58.765625 95.820312 C 58.746094 95.824219 58.722656 95.828125 58.703125 95.835938 C 58.449219 95.914062 58.308594 96.1875 58.390625 96.441406 C 58.472656 96.695312 58.746094 96.835938 59 96.757812 L 61.917969 95.828125 L 62.992188 95.488281 C 63.246094 95.402344 63.152344 95.03125 62.890625 95.074219 Z M 61.285156 94.234375 L 58.511719 94.734375 L 57.160156 94.980469 C 57.140625 94.984375 57.117188 94.988281 57.097656 94.996094 C 56.84375 95.074219 56.703125 95.347656 56.78125 95.601562 C 56.863281 95.855469 57.140625 95.996094 57.394531 95.914062 L 59.804688 95.148438 L 61.386719 94.648438 C 61.640625 94.5625 61.546875 94.1875 61.285156 94.234375 Z M 59.675781 93.390625 L 56.707031 93.929688 L 55.554688 94.136719 C 55.535156 94.140625 55.511719 94.148438 55.492188 94.152344 C 55.234375 94.234375 55.09375 94.507812 55.175781 94.761719 C 55.257812 95.015625 55.53125 95.15625 55.789062 95.074219 L 57.695312 94.46875 L 59.78125 93.804688 C 60.035156 93.722656 59.941406 93.347656 59.675781 93.390625 Z M 52.128906 59.765625 L 59.789062 60.609375 L 59.789062 59.457031 L 52.121094 58.613281 Z M 52.128906 59.765625 " fill-opacity="1" fill-rule="nonzero"/></g></svg>