<svg xmlns="http://www.w3.org/2000/svg" xmlns:xlink="http://www.w3.org/1999/xlink" width="200" zoomAndPan="magnify" viewBox="0 0 150 112.499997" height="150" preserveAspectRatio="xMidYMid meet" version="1.0"><defs><clipPath id="4dcf7e2e99"><path d="M 28.273438 63 L 62 63 L 62 86 L 28.273438 86 Z M 28.273438 63 " clip-rule="nonzero"/></clipPath><clipPath id="1d5268c7a2"><path d="M 82 64 L 121.609375 64 L 121.609375 93 L 82 93 Z M 82 64 " clip-rule="nonzero"/></clipPath><clipPath id="33ef1ccd37"><path d="M 30 12.375 L 121.609375 12.375 L 121.609375 100 L 30 100 Z M 30 12.375 " clip-rule="nonzero"/></clipPath></defs><path fill="#486cbd" d="M 34.921875 44.554688 C 35.007812 44.980469 34.917969 45.421875 34.855469 45.851562 C 34.585938 47.691406 34.96875 49.835938 36.527344 50.851562 C 36.753906 51 37.007812 51.125 37.164062 51.347656 C 37.304688 51.550781 37.34375 51.808594 37.390625 52.054688 C 37.613281 53.261719 38.128906 54.4375 38.976562 55.328125 C 39.828125 56.214844 41.03125 56.796875 42.261719 56.773438 C 42.605469 57.742188 43.503906 58.449219 44.496094 58.730469 C 45.488281 59.011719 46.554688 58.910156 47.542969 58.625 C 47.878906 58.527344 48.21875 58.40625 48.570312 58.410156 C 48.828125 58.410156 49.082031 58.476562 49.332031 58.53125 C 50.820312 58.84375 52.261719 58.707031 53.660156 58.113281 C 56.097656 58.875 58.855469 58.558594 61.054688 57.261719 C 61.136719 56.621094 60.796875 55.984375 60.304688 55.5625 C 59.816406 55.140625 59.195312 54.90625 58.570312 54.738281 C 57.378906 54.40625 56.144531 54.273438 54.925781 54.058594 C 50.519531 53.285156 46.183594 51.378906 43.21875 48.035156 C 40.25 44.691406 38.875 39.785156 40.410156 35.589844 C 41.019531 33.925781 42.101562 32.382812 43.640625 31.5 C 45.179688 30.617188 47.210938 30.496094 48.714844 31.441406 C 50.386719 32.492188 51.316406 34.648438 50.179688 36.074219 C 48.6875 37.945312 51.644531 38 53.449219 36.449219 C 53.734375 36.203125 53.484375 35.691406 53.578125 35.324219 C 53.691406 34.898438 53.976562 34.535156 54.09375 34.109375 C 54.28125 33.421875 53.996094 32.699219 53.65625 32.070312 C 53.230469 31.28125 52.71875 30.542969 52.210938 29.804688 C 51.851562 29.28125 51.480469 28.75 50.96875 28.371094 C 50.585938 28.085938 50.140625 27.902344 49.703125 27.71875 L 48.515625 27.226562 C 46.972656 26.585938 45.132812 25.960938 43.71875 26.855469 C 43.484375 27.003906 43.277344 27.1875 43.027344 27.304688 C 42.675781 27.46875 42.277344 27.488281 41.894531 27.566406 C 40.730469 27.800781 39.75 28.570312 38.878906 29.375 C 38.339844 29.875 37.8125 30.40625 37.5 31.070312 C 37.34375 31.402344 37.242188 31.765625 37.066406 32.089844 C 36.898438 32.394531 36.667969 32.65625 36.449219 32.925781 C 35.605469 33.96875 34.894531 35.210938 34.886719 36.550781 C 34.882812 37.179688 35.035156 37.808594 35 38.4375 C 34.96875 39.035156 34.769531 39.609375 34.613281 40.1875 C 34.308594 41.304688 34.152344 42.527344 34.566406 43.605469 C 34.6875 43.917969 34.855469 44.222656 34.921875 44.554688 Z M 34.921875 44.554688 " fill-opacity="1" fill-rule="nonzero"/><g clip-path="url(#4dcf7e2e99)"><path fill="#486cbd" d="M 61.75 64.8125 C 61.703125 64.5 60.0625 64.015625 59.765625 63.867188 C 57.429688 62.714844 54.511719 63.203125 52.320312 64.617188 C 50.128906 66.03125 48.574219 68.25 47.394531 70.570312 C 46.433594 72.464844 45.667969 74.492188 44.328125 76.144531 C 43.308594 77.40625 42.050781 78.359375 40.5625 79.007812 C 38.628906 79.84375 36.296875 80.015625 34.46875 78.964844 C 32.644531 77.910156 31.621094 75.429688 32.601562 73.570312 C 33.058594 72.703125 33.910156 71.941406 33.84375 70.964844 C 33.757812 69.761719 32.203125 69.117188 31.054688 69.519531 C 29.625 70.019531 28.785156 71.78125 29.296875 73.203125 C 28.566406 73.617188 28.277344 74.5625 28.398438 75.394531 C 28.515625 76.222656 28.964844 76.964844 29.40625 77.675781 C 28.851562 78.0625 28.761719 78.882812 28.988281 79.519531 C 29.214844 80.160156 29.679688 80.679688 30.066406 81.234375 C 30.542969 81.917969 30.921875 82.671875 31.507812 83.265625 C 32.089844 83.855469 32.964844 84.261719 33.757812 84 C 34.039062 83.90625 34.328125 83.734375 34.605469 83.832031 C 34.792969 83.894531 34.921875 84.066406 35.046875 84.214844 C 36.273438 85.679688 38.558594 86.125 40.246094 85.230469 C 40.457031 85.117188 40.664062 84.988281 40.898438 84.957031 C 41.109375 84.929688 41.320312 84.988281 41.53125 85.03125 C 43.65625 85.453125 45.96875 83.863281 46.324219 81.730469 C 47.460938 82.238281 48.878906 81.601562 49.519531 80.535156 C 50.160156 79.472656 50.140625 78.121094 49.796875 76.929688 C 50.792969 76.480469 51.4375 75.460938 51.703125 74.40625 C 51.972656 73.347656 51.921875 72.238281 51.867188 71.152344 C 54.09375 70.585938 55.957031 68.765625 56.570312 66.554688 C 57.71875 66.449219 58.847656 66.230469 59.953125 65.886719 C 60.28125 65.789062 61.824219 65.300781 61.75 64.8125 Z M 61.75 64.8125 " fill-opacity="1" fill-rule="nonzero"/></g><path fill="#486cbd" d="M 87.507812 82.675781 C 86.394531 81.335938 84.996094 80.277344 83.671875 79.144531 C 80.871094 76.746094 78.296875 73.828125 77.398438 70.257812 C 77.128906 69.179688 77.011719 68.050781 76.582031 67.027344 C 76.207031 66.136719 75.195312 64.640625 74.070312 65.210938 C 73.933594 65.28125 73.816406 65.371094 73.710938 65.484375 C 74.007812 64.84375 74.167969 64.167969 74.199219 63.464844 C 74.304688 61.164062 70.992188 63.738281 70.371094 64.488281 C 68.972656 66.179688 68.039062 68.097656 67.578125 70.242188 C 67.265625 71.703125 67.195312 73.203125 66.855469 74.65625 C 66.230469 77.351562 64.664062 79.796875 62.578125 81.625 C 61.667969 82.417969 60.65625 83.109375 59.796875 83.957031 C 57.148438 86.574219 56.175781 90.746094 57.398438 94.257812 C 57.785156 95.375 58.417969 96.464844 59.4375 97.066406 C 59.660156 97.195312 59.894531 97.300781 60.140625 97.375 C 60.386719 97.453125 60.636719 97.5 60.894531 97.519531 C 61.152344 97.539062 61.40625 97.53125 61.664062 97.492188 C 61.917969 97.453125 62.164062 97.386719 62.402344 97.289062 C 62.644531 97.195312 62.867188 97.074219 63.078125 96.925781 C 63.292969 96.78125 63.484375 96.609375 63.65625 96.421875 C 63.828125 96.230469 63.976562 96.019531 64.101562 95.796875 C 64.226562 95.570312 64.324219 95.335938 64.398438 95.089844 C 64.585938 94.433594 64.546875 93.667969 64.097656 93.15625 C 63.652344 92.640625 62.734375 92.539062 62.3125 93.074219 C 62.238281 92.570312 61.738281 92.21875 61.238281 92.140625 C 60.734375 92.066406 60.226562 92.207031 59.738281 92.34375 C 60.941406 91.832031 61.632812 90.351562 61.25 89.101562 C 62.105469 88.722656 62.871094 88.203125 63.542969 87.546875 C 64.210938 86.890625 64.746094 86.136719 65.140625 85.285156 C 65.21875 85.117188 65.296875 84.933594 65.441406 84.816406 C 65.566406 84.71875 65.726562 84.671875 65.878906 84.621094 C 67.246094 84.171875 68.332031 82.953125 68.613281 81.542969 C 68.925781 81.445312 69.21875 81.308594 69.496094 81.140625 C 69.777344 80.96875 70.027344 80.765625 70.253906 80.53125 C 70.480469 80.296875 70.675781 80.039062 70.839844 79.757812 C 71 79.472656 71.125 79.175781 71.214844 78.863281 C 71.300781 78.550781 71.351562 78.230469 71.359375 77.90625 C 71.367188 77.578125 71.335938 77.257812 71.261719 76.941406 C 71.191406 76.625 71.082031 76.320312 70.933594 76.03125 C 70.785156 75.738281 70.605469 75.472656 70.390625 75.226562 C 70.964844 74.296875 71.195312 73.292969 71.082031 72.207031 C 71.054688 71.933594 71.003906 71.65625 71.050781 71.386719 C 71.09375 71.144531 71.214844 70.921875 71.308594 70.695312 C 71.546875 70.117188 71.621094 69.519531 71.535156 68.902344 C 71.503906 68.683594 71.449219 68.453125 71.515625 68.238281 C 71.589844 67.992188 71.800781 67.816406 72 67.652344 C 72.523438 67.238281 72.964844 66.75 73.328125 66.191406 C 73.09375 66.933594 73.144531 67.878906 73.210938 68.472656 L 73.621094 72.117188 C 73.683594 72.667969 73.757812 73.246094 74.097656 73.679688 C 74.449219 74.132812 75.074219 74.410156 75.195312 74.96875 C 75.25 75.214844 75.191406 75.46875 75.207031 75.71875 C 75.261719 76.519531 76.039062 77.054688 76.738281 77.457031 C 77.03125 77.628906 77.335938 77.804688 77.558594 78.066406 C 77.828125 78.386719 77.957031 78.796875 78.128906 79.179688 C 78.410156 79.777344 78.800781 80.289062 79.304688 80.71875 C 79.808594 81.148438 80.378906 81.453125 81.015625 81.632812 C 81.335938 81.722656 81.6875 81.789062 81.90625 82.039062 C 82.09375 82.257812 82.128906 82.558594 82.1875 82.839844 C 82.328125 83.457031 82.597656 84.011719 83.003906 84.496094 C 83.410156 84.984375 83.902344 85.355469 84.484375 85.605469 C 83.871094 87.164062 85.640625 88.769531 85.421875 90.429688 C 85.355469 90.914062 85.214844 91.582031 85.675781 91.746094 C 84.617188 92.339844 83.980469 93.613281 84.136719 94.816406 C 83.519531 94.171875 82.765625 93.878906 81.875 93.929688 C 81.683594 93.945312 81.464844 93.996094 81.378906 94.164062 C 81.320312 94.28125 81.34375 94.417969 81.378906 94.539062 C 81.601562 95.316406 82.390625 95.808594 83.175781 96.015625 C 85.367188 96.589844 87.789062 95.371094 88.992188 93.453125 C 90.191406 91.53125 90.304688 89.078125 89.703125 86.894531 C 89.277344 85.332031 88.542969 83.925781 87.507812 82.675781 Z M 87.507812 82.675781 " fill-opacity="1" fill-rule="nonzero"/><path fill="#486cbd" d="M 88.433594 61.441406 C 89.277344 62.203125 90.234375 62.773438 91.304688 63.152344 C 92.375 63.53125 93.476562 63.691406 94.613281 63.632812 C 95.539062 64.617188 97.171875 64.828125 98.320312 64.125 C 98.496094 64.015625 98.667969 63.886719 98.871094 63.84375 C 99.210938 63.773438 99.542969 63.964844 99.851562 64.121094 C 101.164062 64.785156 102.832031 64.929688 104.082031 64.144531 C 104.273438 64.023438 104.464844 63.878906 104.691406 63.863281 C 104.917969 63.847656 105.125 63.964844 105.328125 64.0625 C 106.726562 64.714844 108.519531 64.394531 109.601562 63.296875 C 109.859375 63.039062 110.085938 62.734375 110.414062 62.578125 C 110.714844 62.441406 111.054688 62.441406 111.382812 62.394531 C 112.558594 62.234375 113.625 61.417969 114.085938 60.324219 C 114.164062 60.148438 114.226562 59.957031 114.367188 59.820312 C 114.53125 59.660156 114.773438 59.609375 114.996094 59.550781 C 115.785156 59.347656 116.539062 58.953125 117.054688 58.328125 C 117.570312 57.703125 117.8125 56.828125 117.566406 56.054688 C 118.566406 55.191406 119.164062 54.105469 119.351562 52.796875 C 119.390625 52.527344 119.410156 52.25 119.511719 52 C 119.625 51.710938 119.839844 51.476562 120.015625 51.222656 C 120.777344 50.140625 120.894531 48.640625 120.3125 47.453125 C 120.132812 47.085938 119.890625 46.746094 119.75 46.363281 C 119.5 45.6875 119.574219 44.941406 119.457031 44.230469 C 119.265625 43.019531 118.546875 41.96875 117.847656 40.964844 C 117.40625 40.332031 116.953125 39.6875 116.316406 39.253906 C 115.925781 38.992188 115.484375 38.8125 115.113281 38.527344 C 114.878906 38.347656 114.675781 38.125 114.449219 37.9375 C 113.65625 37.277344 112.539062 37.054688 111.535156 37.28125 C 111.285156 37.335938 111.03125 37.421875 110.78125 37.371094 C 110.582031 37.332031 110.40625 37.214844 110.226562 37.128906 C 109.910156 36.980469 109.578125 36.917969 109.230469 36.941406 C 108.882812 36.960938 108.5625 37.0625 108.265625 37.25 C 107.804688 37.542969 107.457031 38.023438 106.9375 38.1875 C 106.636719 38.28125 106.3125 38.257812 106.003906 38.320312 C 105.699219 38.386719 105.433594 38.527344 105.207031 38.746094 C 104.980469 38.960938 104.828125 39.21875 104.746094 39.519531 C 104.65625 39.867188 104.6875 40.234375 104.644531 40.589844 C 104.539062 41.492188 103.992188 42.394531 104.28125 43.253906 C 104.492188 43.886719 105.183594 44.324219 105.847656 44.242188 C 105.648438 44.867188 106.164062 45.527344 106.777344 45.765625 C 107.390625 46.007812 108.070312 45.957031 108.726562 45.996094 C 109.609375 46.046875 111.863281 46.347656 111.742188 44.84375 C 111.636719 43.53125 109.820312 43.671875 108.953125 43.605469 C 108.003906 43.53125 107.078125 43.023438 106.601562 42.203125 C 106.128906 41.382812 106.179688 40.257812 106.804688 39.546875 C 107.453125 38.808594 108.535156 38.625 109.515625 38.652344 C 111.550781 38.71875 113.355469 39.398438 114.925781 40.691406 C 115.523438 41.183594 116.0625 41.773438 116.367188 42.484375 C 116.917969 43.789062 116.601562 45.277344 116.273438 46.652344 C 115.851562 48.425781 115.429688 50.203125 115.007812 51.976562 C 114.824219 52.734375 114.640625 53.507812 114.222656 54.171875 C 113.695312 55.011719 112.839844 55.59375 111.972656 56.082031 C 110.316406 57.011719 108.535156 57.679688 106.734375 58.261719 C 105.140625 58.78125 103.511719 59.234375 101.84375 59.417969 C 99.539062 59.675781 97.210938 59.410156 94.894531 59.277344 C 92.945312 59.167969 90.992188 59.15625 89.039062 59.234375 C 88.625 59.253906 88.15625 59.300781 87.890625 59.617188 C 87.441406 60.160156 87.914062 60.96875 88.433594 61.441406 Z M 88.433594 61.441406 " fill-opacity="1" fill-rule="nonzero"/><g clip-path="url(#1d5268c7a2)"><path fill="#486cbd" d="M 120.917969 86.96875 C 120.601562 86.613281 120.042969 86.632812 119.574219 86.71875 C 118.050781 86.992188 116.597656 87.648438 115.050781 87.765625 C 113.675781 87.871094 112.300781 87.539062 110.980469 87.132812 C 109.726562 86.75 108.472656 86.289062 107.40625 85.527344 C 105.445312 84.125 104.320312 81.875 103.074219 79.816406 C 101.394531 77.039062 99.40625 74.496094 97.117188 72.195312 C 94.824219 69.894531 92.292969 67.894531 89.519531 66.199219 C 88.445312 65.542969 87.316406 64.929688 86.085938 64.667969 C 85.191406 64.480469 83.265625 64.339844 82.652344 65.226562 C 82.082031 66.054688 82.488281 67.734375 82.957031 68.496094 C 83.253906 68.972656 83.636719 69.355469 84.109375 69.652344 C 84.585938 69.949219 85.097656 70.128906 85.65625 70.191406 C 85.636719 70.941406 86.25 71.5625 86.90625 71.929688 C 87.5625 72.296875 88.308594 72.519531 88.898438 72.984375 C 89.378906 73.367188 89.726562 73.890625 90.171875 74.308594 C 90.585938 74.691406 91.0625 74.976562 91.59375 75.160156 C 92.128906 75.34375 92.679688 75.410156 93.242188 75.359375 C 93.957031 76.773438 95.40625 77.789062 96.980469 77.984375 C 96.816406 79.746094 98.011719 81.535156 99.703125 82.0625 C 99.515625 84.136719 101.066406 86.226562 103.109375 86.648438 C 103.207031 87.921875 104.265625 89.054688 105.53125 89.238281 C 105.8125 89.28125 106.109375 89.28125 106.359375 89.417969 C 106.609375 89.554688 106.78125 89.816406 106.960938 90.042969 C 107.867188 91.167969 109.519531 91.621094 110.871094 91.117188 C 111.167969 91.84375 111.921875 92.308594 112.695312 92.464844 C 113.46875 92.621094 114.265625 92.519531 115.046875 92.417969 L 116.773438 92.191406 C 117.792969 92.0625 118.867188 91.90625 119.679688 91.28125 C 120.660156 90.535156 121.066406 89.242188 121.148438 88.011719 C 121.171875 87.648438 121.160156 87.246094 120.917969 86.96875 Z M 120.917969 86.96875 " fill-opacity="1" fill-rule="nonzero"/></g><g clip-path="url(#33ef1ccd37)"><path fill="#b8ccea" d="M 121.546875 86.613281 C 121.46875 85.515625 120.519531 84.476562 119.417969 84.511719 C 118.480469 84.539062 117.730469 85.25 116.921875 85.71875 C 115.078125 86.792969 112.667969 86.628906 110.8125 85.578125 C 108.960938 84.53125 107.636719 82.699219 106.898438 80.703125 C 106.550781 79.753906 106.289062 78.722656 105.90625 77.78125 C 105.550781 76.535156 105.109375 75.320312 104.445312 74.207031 C 103.039062 71.847656 100.796875 70.183594 98.558594 68.671875 C 96.585938 67.335938 94.574219 66.082031 92.765625 64.519531 C 91.675781 63.578125 90.617188 62.511719 89.46875 61.59375 C 90.65625 61.789062 91.828125 62.113281 93 62.398438 C 97.035156 63.378906 101.238281 63.925781 105.34375 63.316406 C 109.453125 62.710938 113.476562 60.855469 116.140625 57.675781 C 119.0625 54.183594 120.085938 49.199219 118.777344 44.839844 C 118.011719 42.300781 116.417969 39.914062 114.0625 38.679688 C 111.707031 37.445312 108.5625 37.585938 106.617188 39.394531 C 105.808594 40.148438 105.261719 41.347656 105.464844 42.371094 C 105.441406 43.402344 105.84375 44.425781 106.875 45.003906 C 107.660156 45.441406 108.65625 45.539062 109.617188 45.578125 C 110.320312 45.609375 111.066406 45.609375 111.675781 45.332031 C 112.289062 45.054688 112.683594 44.402344 112.34375 43.914062 C 111.894531 43.273438 110.707031 43.382812 109.847656 43.117188 C 108.78125 42.785156 108.316406 41.796875 108.496094 40.890625 C 109.046875 40.640625 109.617188 40.550781 110.214844 40.621094 C 112.195312 40.855469 113.824219 42.5 114.410156 44.398438 C 114.992188 46.300781 114.644531 48.390625 113.832031 50.207031 C 112.039062 54.214844 107.898438 57.074219 103.503906 57.328125 C 100.175781 57.523438 96.945312 56.351562 93.734375 55.457031 C 92.863281 55.210938 91.949219 54.980469 91.011719 54.804688 C 91.414062 54.34375 91.8125 53.878906 92.203125 53.40625 C 95.460938 49.496094 98.53125 45.09375 100.214844 39.710938 C 100.789062 37.882812 101.191406 35.941406 101.246094 33.960938 C 101.304688 31.824219 100.957031 29.691406 100.410156 27.679688 C 99.144531 23.035156 96.792969 18.910156 93.722656 16.117188 C 92.578125 15.074219 91.324219 14.207031 89.972656 13.773438 C 88.828125 13.402344 85.125 12.375 82.25 12.449219 C 77.53125 12.566406 75.996094 12.953125 71.621094 15.3125 C 67.25 17.675781 64.941406 20.25 62.035156 25.1875 C 61.1875 26.628906 59.476562 31.417969 59.117188 33.183594 C 58.699219 35.25 58.878906 40.230469 59.117188 42.34375 C 59.5 45.71875 59.867188 47.835938 60.503906 50.460938 C 58.417969 50.324219 56.25 50.632812 54.175781 50.75 C 51.617188 50.894531 48.878906 50.691406 46.808594 49.183594 C 45.105469 47.945312 44.082031 45.988281 43.359375 44.011719 C 42.445312 41.507812 41.921875 38.757812 42.59375 36.179688 C 43.019531 34.542969 44.023438 33.007812 45.378906 32.023438 C 45.882812 31.992188 46.382812 32.019531 46.882812 32.105469 C 47.808594 32.269531 48.832031 32.820312 48.910156 33.757812 C 48.929688 34.035156 48.863281 34.320312 48.796875 34.597656 C 48.671875 35.121094 48.566406 35.664062 48.664062 36.191406 C 48.761719 36.722656 49.105469 37.238281 49.621094 37.394531 C 49.976562 37.5 50.363281 37.425781 50.703125 37.28125 C 52.25 36.628906 52.875 34.644531 52.484375 33.015625 C 52.128906 31.539062 51.414062 30.394531 50.445312 29.601562 C 49.644531 28.859375 48.550781 28.449219 47.460938 28.277344 C 44.167969 27.761719 40.632812 29.40625 38.917969 32.257812 C 37.820312 34.078125 37.453125 36.238281 37.234375 38.351562 C 36.855469 42.023438 36.875 45.835938 38.191406 49.289062 C 39.507812 52.742188 42.308594 55.796875 45.917969 56.625 C 47.699219 57.03125 49.550781 56.890625 51.378906 56.851562 C 54.101562 56.796875 56.808594 56.980469 59.5 57.402344 C 57.363281 57.582031 55.261719 58.136719 53.84375 58.71875 C 49.789062 60.390625 46.464844 63.75 44.851562 67.816406 C 44.058594 69.816406 43.664062 71.953125 42.820312 73.929688 C 42.007812 75.84375 40.640625 77.675781 38.691406 78.378906 C 37.839844 78.335938 37.007812 78.152344 36.269531 77.730469 C 34.867188 76.9375 33.992188 75.042969 34.792969 73.644531 C 35.03125 73.226562 35.390625 72.882812 35.558594 72.433594 C 35.867188 71.601562 35.347656 70.601562 34.539062 70.234375 C 33.726562 69.867188 32.734375 70.066406 32.011719 70.585938 C 31.292969 71.109375 30.816406 71.910156 30.519531 72.746094 C 29.6875 75.097656 30.238281 77.882812 31.902344 79.742188 C 31.996094 79.851562 32.101562 79.953125 32.214844 80.058594 C 32.773438 80.800781 33.4375 81.433594 34.207031 81.957031 C 36.453125 83.472656 39.351562 83.980469 41.976562 83.320312 C 44.605469 82.660156 46.917969 80.839844 48.175781 78.449219 C 48.953125 76.964844 49.332031 75.308594 49.898438 73.734375 C 50.769531 71.300781 52.128906 69.003906 54.0625 67.285156 C 55.996094 65.5625 58.535156 64.460938 61.125 64.5 C 61.261719 64.5 61.398438 64.507812 61.542969 64.519531 C 59.9375 67.992188 60.675781 73.359375 60.542969 76.683594 C 60.523438 77.199219 60.5 77.722656 60.425781 78.234375 C 59.753906 79.5 58.679688 80.503906 57.710938 81.5625 C 56.492188 82.894531 55.417969 84.335938 54.496094 85.890625 C 54.1875 86.398438 53.917969 86.925781 53.683594 87.472656 C 53.175781 88.496094 52.832031 89.574219 52.652344 90.707031 C 52.183594 93.804688 53.386719 97.269531 56.082031 98.875 C 58.777344 100.484375 62.867188 99.5625 64.113281 96.6875 C 64.523438 95.746094 64.519531 94.453125 63.65625 93.890625 C 62.636719 93.222656 61.230469 94.039062 60.0625 93.675781 C 58.84375 93.292969 58.363281 91.710938 58.746094 90.492188 C 59.125 89.277344 60.105469 88.355469 61.042969 87.492188 L 67.414062 81.628906 C 68.09375 81.003906 68.78125 80.367188 69.21875 79.554688 C 69.96875 78.15625 69.851562 76.480469 69.757812 74.898438 C 69.644531 72.882812 69.640625 70.738281 70.171875 68.8125 C 70.617188 67.964844 71.148438 67.175781 71.765625 66.449219 C 72.300781 65.820312 73.117188 65.265625 73.917969 64.691406 C 73.902344 64.75 73.886719 64.808594 73.871094 64.871094 C 73.503906 66.289062 73.402344 67.726562 73.566406 69.183594 C 73.730469 70.644531 74.148438 72.023438 74.820312 73.328125 C 75.367188 74.378906 76.058594 75.332031 76.835938 76.226562 C 77.433594 76.996094 78.070312 77.660156 78.699219 78.171875 C 81.3125 80.6875 84.234375 82.984375 85.703125 86.257812 C 86.5 88.035156 86.800781 89.890625 86.613281 91.828125 C 86.574219 92.230469 86.503906 92.625 86.410156 93.019531 C 86.167969 93.417969 85.886719 93.789062 85.566406 94.128906 C 84.808594 94.925781 83.375 95.472656 82.714844 94.59375 C 82.40625 94.183594 82.425781 93.613281 82.226562 93.136719 C 81.65625 91.761719 79.402344 91.84375 78.566406 93.078125 C 77.734375 94.316406 78.105469 96.050781 78.988281 97.253906 C 79.441406 97.863281 79.996094 98.367188 80.644531 98.765625 C 81.691406 99.648438 83.160156 100.066406 84.546875 99.941406 C 86.46875 99.769531 88.222656 98.710938 89.613281 97.375 C 91.929688 95.148438 93.441406 91.859375 92.808594 88.714844 C 91.777344 83.574219 85.878906 80.949219 83.476562 76.285156 C 81.878906 73.179688 82.003906 69.503906 82.386719 66.023438 C 82.710938 66.5 83.058594 66.960938 83.429688 67.398438 C 85.261719 69.570312 87.390625 71.40625 89.8125 72.902344 C 92.84375 74.769531 96.339844 76.101562 98.652344 78.808594 C 100.261719 80.691406 101.152344 83.082031 102.613281 85.082031 C 105.320312 88.777344 109.886719 90.863281 114.464844 91.160156 C 115.988281 91.261719 117.582031 91.160156 118.933594 90.449219 C 119.554688 90.117188 120.074219 89.664062 120.484375 89.089844 C 121.160156 88.441406 121.613281 87.542969 121.546875 86.613281 Z M 121.546875 86.613281 " fill-opacity="1" fill-rule="nonzero"/></g><path fill="#172951" d="M 70.667969 47.484375 C 70.667969 47.78125 70.628906 48.070312 70.558594 48.34375 C 70.484375 48.617188 70.378906 48.863281 70.246094 49.070312 C 70.109375 49.28125 69.957031 49.445312 69.78125 49.558594 C 69.601562 49.671875 69.421875 49.730469 69.230469 49.730469 C 69.039062 49.730469 68.855469 49.671875 68.679688 49.558594 C 68.503906 49.445312 68.347656 49.28125 68.214844 49.070312 C 68.078125 48.863281 67.976562 48.617188 67.902344 48.34375 C 67.828125 48.070312 67.792969 47.78125 67.792969 47.484375 C 67.792969 47.1875 67.828125 46.902344 67.902344 46.625 C 67.976562 46.351562 68.078125 46.109375 68.214844 45.898438 C 68.347656 45.6875 68.503906 45.523438 68.679688 45.410156 C 68.855469 45.296875 69.039062 45.238281 69.230469 45.238281 C 69.421875 45.238281 69.601562 45.296875 69.78125 45.410156 C 69.957031 45.523438 70.109375 45.6875 70.246094 45.898438 C 70.378906 46.109375 70.484375 46.351562 70.558594 46.625 C 70.628906 46.902344 70.667969 47.1875 70.667969 47.484375 Z M 70.667969 47.484375 " fill-opacity="1" fill-rule="nonzero"/><path fill="#172951" d="M 84.640625 48.230469 C 84.816406 48.300781 84.964844 48.421875 85.085938 48.59375 C 85.203125 48.765625 85.285156 48.976562 85.328125 49.222656 C 85.375 49.46875 85.378906 49.730469 85.339844 50.015625 C 85.304688 50.296875 85.226562 50.574219 85.113281 50.851562 C 85 51.125 84.859375 51.375 84.6875 51.601562 C 84.515625 51.828125 84.324219 52.015625 84.121094 52.160156 C 83.914062 52.300781 83.710938 52.394531 83.503906 52.433594 C 83.296875 52.46875 83.105469 52.453125 82.929688 52.382812 C 82.753906 52.308594 82.605469 52.1875 82.488281 52.015625 C 82.367188 51.84375 82.285156 51.632812 82.242188 51.386719 C 82.195312 51.140625 82.195312 50.878906 82.230469 50.597656 C 82.269531 50.316406 82.34375 50.035156 82.457031 49.761719 C 82.570312 49.484375 82.714844 49.234375 82.886719 49.007812 C 83.058594 48.78125 83.246094 48.59375 83.449219 48.453125 C 83.65625 48.308594 83.863281 48.21875 84.066406 48.179688 C 84.273438 48.140625 84.464844 48.15625 84.640625 48.230469 Z M 84.640625 48.230469 " fill-opacity="1" fill-rule="nonzero"/><path fill="#172951" d="M 73.246094 50.207031 C 73.644531 50.796875 74.152344 51.261719 74.773438 51.605469 C 75.464844 51.980469 76.203125 52.152344 76.988281 52.125 C 77.773438 52.097656 78.5 51.871094 79.164062 51.453125 C 79.285156 51.371094 79.351562 51.199219 79.265625 51.070312 C 79.183594 50.945312 79.011719 50.882812 78.878906 50.96875 C 78.792969 51.023438 78.699219 51.078125 78.609375 51.125 C 78.535156 51.164062 78.464844 51.199219 78.390625 51.234375 L 78.332031 51.261719 C 78.308594 51.269531 78.226562 51.300781 78.324219 51.261719 C 78.277344 51.28125 78.226562 51.304688 78.175781 51.320312 C 77.957031 51.402344 77.730469 51.46875 77.5 51.511719 C 77.441406 51.523438 77.382812 51.53125 77.324219 51.542969 C 77.304688 51.542969 77.261719 51.546875 77.339844 51.542969 C 77.320312 51.542969 77.304688 51.546875 77.285156 51.546875 L 77.179688 51.558594 C 77.035156 51.570312 76.890625 51.578125 76.75 51.574219 C 76.675781 51.574219 76.601562 51.570312 76.53125 51.566406 C 76.488281 51.5625 76.449219 51.558594 76.410156 51.554688 L 76.359375 51.546875 C 76.28125 51.539062 76.398438 51.554688 76.339844 51.546875 C 76.191406 51.527344 76.042969 51.496094 75.894531 51.457031 C 75.761719 51.421875 75.632812 51.382812 75.503906 51.332031 L 75.421875 51.300781 C 75.40625 51.292969 75.351562 51.269531 75.425781 51.300781 C 75.410156 51.292969 75.394531 51.289062 75.378906 51.28125 C 75.320312 51.253906 75.257812 51.226562 75.199219 51.199219 C 74.996094 51.09375 74.800781 50.976562 74.617188 50.839844 C 74.59375 50.824219 74.570312 50.804688 74.546875 50.789062 C 74.625 50.847656 74.558594 50.796875 74.539062 50.78125 C 74.5 50.75 74.457031 50.714844 74.417969 50.679688 C 74.34375 50.617188 74.277344 50.554688 74.207031 50.488281 C 74.085938 50.367188 73.972656 50.242188 73.867188 50.109375 C 73.851562 50.089844 73.804688 50.027344 73.875 50.117188 L 73.847656 50.085938 C 73.832031 50.0625 73.816406 50.039062 73.800781 50.019531 C 73.777344 49.988281 73.757812 49.957031 73.734375 49.925781 C 73.652344 49.804688 73.484375 49.738281 73.351562 49.824219 C 73.226562 49.902344 73.164062 50.078125 73.25 50.207031 Z M 73.246094 50.207031 " fill-opacity="1" fill-rule="nonzero"/><path fill="#01fb38" d="M 56.914062 51.226562 C 56.796875 51.289062 56.667969 51.417969 56.730469 51.535156 C 56.75 51.566406 56.777344 51.59375 56.808594 51.617188 C 57.023438 51.765625 57.277344 51.839844 57.53125 51.894531 C 57.78125 51.960938 58.035156 51.992188 58.296875 51.988281 C 58.488281 51.976562 58.679688 51.949219 58.867188 51.902344 C 59.464844 51.769531 59.832031 51.125 59.035156 51.050781 C 58.332031 50.984375 57.5625 50.886719 56.914062 51.226562 Z M 56.914062 51.226562 " fill-opacity="1" fill-rule="nonzero"/><path fill="#01fb38" d="M 55.28125 52.433594 C 55.214844 52.453125 55.140625 52.480469 55.105469 52.542969 C 55.050781 52.632812 55.105469 52.757812 55.199219 52.8125 C 55.289062 52.867188 55.398438 52.875 55.503906 52.875 C 55.738281 52.882812 56.691406 53.082031 56.460938 52.679688 C 56.246094 52.304688 55.621094 52.347656 55.28125 52.433594 Z M 55.28125 52.433594 " fill-opacity="1" fill-rule="nonzero"/><path fill="#01fb38" d="M 110.644531 55.160156 C 110.59375 55.246094 110.5625 55.355469 110.597656 55.453125 C 110.625 55.515625 110.671875 55.566406 110.734375 55.597656 C 110.933594 55.707031 111.1875 55.617188 111.367188 55.476562 C 111.546875 55.339844 111.683594 55.152344 111.871094 55.023438 C 112 54.941406 112.148438 54.878906 112.234375 54.753906 C 112.328125 54.617188 112.425781 54.253906 112.257812 54.128906 C 112.105469 54.019531 111.882812 54.191406 111.757812 54.273438 C 111.390625 54.515625 110.867188 54.761719 110.644531 55.160156 Z M 110.644531 55.160156 " fill-opacity="1" fill-rule="nonzero"/><path fill="#01fb38" d="M 112.800781 53.238281 C 112.789062 53.519531 112.789062 53.804688 112.808594 54.085938 C 112.808594 54.128906 112.8125 54.175781 112.824219 54.21875 C 112.871094 54.371094 113.058594 54.449219 113.214844 54.417969 C 113.371094 54.382812 113.496094 54.25 113.5625 54.101562 C 113.625 53.957031 113.644531 53.792969 113.660156 53.632812 C 113.667969 53.472656 113.695312 53.3125 113.742188 53.160156 C 113.867188 52.832031 114.359375 52.113281 113.675781 52.089844 C 113.058594 52.070312 112.832031 52.742188 112.800781 53.238281 Z M 112.800781 53.238281 " fill-opacity="1" fill-rule="nonzero"/><path fill="#01fb38" d="M 100.113281 71.425781 C 100.292969 71.582031 100.445312 71.761719 100.574219 71.964844 C 100.660156 72.097656 100.738281 72.242188 100.867188 72.335938 C 101.03125 72.457031 101.203125 72.472656 101.386719 72.382812 C 101.570312 72.292969 101.664062 72.144531 101.667969 71.941406 C 101.675781 71.640625 101.421875 71.402344 101.1875 71.207031 C 100.910156 70.976562 100.492188 70.464844 100.082031 70.578125 C 99.578125 70.71875 99.859375 71.203125 100.113281 71.425781 Z M 100.113281 71.425781 " fill-opacity="1" fill-rule="nonzero"/><path fill="#01fb38" d="M 97.984375 69.347656 C 97.941406 69.488281 98.039062 69.628906 98.140625 69.730469 C 98.433594 70.027344 98.78125 70.234375 99.183594 70.351562 C 99.261719 70.378906 99.339844 70.386719 99.417969 70.382812 C 99.503906 70.375 99.570312 70.335938 99.609375 70.261719 C 99.628906 70.222656 99.636719 70.179688 99.636719 70.136719 C 99.667969 69.726562 99.355469 69.5 99.007812 69.34375 C 98.765625 69.238281 98.101562 68.980469 97.984375 69.347656 Z M 97.984375 69.347656 " fill-opacity="1" fill-rule="nonzero"/><path fill="#01fb38" d="M 98 26.015625 C 97.90625 24.875 96.179688 18.175781 93.921875 20.054688 C 93.558594 20.355469 93.578125 20.9375 93.8125 21.347656 C 94.042969 21.757812 94.433594 22.050781 94.773438 22.375 C 95.585938 23.15625 96.109375 24.101562 96.335938 25.207031 C 96.429688 25.660156 96.476562 26.15625 96.769531 26.511719 C 97.066406 26.871094 97.742188 26.949219 97.945312 26.53125 C 98.023438 26.375 98.015625 26.191406 98 26.015625 Z M 98 26.015625 " fill-opacity="1" fill-rule="nonzero"/><path fill="#01fb38" d="M 100.300781 30.066406 C 100.242188 29.058594 99.230469 27.964844 98.402344 29.140625 C 97.867188 29.90625 97.925781 30.921875 98.003906 31.851562 C 98.152344 33.574219 98.300781 35.296875 98.449219 37.019531 C 98.777344 37.15625 99.167969 36.992188 99.394531 36.71875 C 99.621094 36.449219 99.71875 36.09375 99.796875 35.75 C 100.242188 33.878906 100.40625 31.984375 100.300781 30.066406 Z M 100.300781 30.066406 " fill-opacity="1" fill-rule="nonzero"/><path fill="#01fb38" d="M 94.695312 27.402344 C 94.089844 27.660156 94.347656 28.660156 94.472656 29.128906 C 94.605469 29.636719 94.75 30.144531 94.902344 30.648438 C 94.957031 30.832031 95.058594 31.058594 95.253906 31.078125 C 95.335938 31.082031 95.410156 31.0625 95.484375 31.019531 C 95.917969 30.804688 96.191406 30.335938 96.261719 29.855469 C 96.332031 29.375 96.21875 28.886719 96.035156 28.433594 C 95.851562 27.984375 95.316406 27.140625 94.695312 27.402344 Z M 94.695312 27.402344 " fill-opacity="1" fill-rule="nonzero"/><path fill="#01fb38" d="M 64.386719 25.714844 C 64.828125 25.160156 64.769531 24.09375 63.847656 24.308594 C 63.203125 24.460938 62.5625 25.65625 62.25 26.171875 C 61.796875 26.925781 61.464844 27.777344 61.449219 28.660156 C 61.445312 28.796875 61.453125 28.945312 61.53125 29.058594 C 61.640625 29.210938 61.859375 29.253906 62.042969 29.199219 C 62.222656 29.140625 62.367188 29.007812 62.484375 28.863281 C 63.066406 28.152344 63.167969 27.144531 63.734375 26.425781 C 63.933594 26.171875 64.1875 25.964844 64.386719 25.714844 Z M 64.386719 25.714844 " fill-opacity="1" fill-rule="nonzero"/><path fill="#01fb38" d="M 65.785156 21.457031 C 65.570312 21.667969 65.363281 21.902344 65.257812 22.1875 C 65.164062 22.445312 65.164062 22.726562 65.164062 23.003906 C 65.164062 23.308594 65.164062 23.617188 65.164062 23.925781 C 65.164062 24.203125 65.164062 24.484375 65.257812 24.746094 C 65.351562 25.011719 65.554688 25.25 65.824219 25.308594 C 66.128906 25.375 66.441406 25.199219 66.628906 24.957031 C 66.816406 24.710938 66.90625 24.40625 66.992188 24.109375 L 67.480469 22.40625 C 67.585938 22.039062 68.0625 21.078125 67.949219 20.722656 C 67.609375 19.707031 66.179688 21.070312 65.785156 21.457031 Z M 65.785156 21.457031 " fill-opacity="1" fill-rule="nonzero"/><path fill="#01fb38" d="M 65.15625 26.523438 C 64.625 26.359375 63.476562 28.488281 63.695312 28.707031 C 63.949219 28.960938 64.394531 28.914062 64.679688 28.703125 C 65.109375 28.386719 66.109375 26.816406 65.15625 26.523438 Z M 65.15625 26.523438 " fill-opacity="1" fill-rule="nonzero"/></svg>