<svg xmlns="http://www.w3.org/2000/svg" xmlns:xlink="http://www.w3.org/1999/xlink" width="200" zoomAndPan="magnify" viewBox="0 0 150 112.499997" height="150" preserveAspectRatio="xMidYMid meet" version="1.0"><defs><clipPath id="b90bff830b"><path d="M 50.644531 11.199219 L 99.179688 11.199219 L 99.179688 100.800781 L 50.644531 100.800781 Z M 50.644531 11.199219 " clip-rule="nonzero"/></clipPath><clipPath id="97f126fd50"><path d="M 51 11.199219 L 99 11.199219 L 99 100.800781 L 51 100.800781 Z M 51 11.199219 " clip-rule="nonzero"/></clipPath><clipPath id="840e52a20d"><path d="M 61 11.199219 L 99 11.199219 L 99 100.800781 L 61 100.800781 Z M 61 11.199219 " clip-rule="nonzero"/></clipPath><clipPath id="f088c8e415"><path d="M 50.644531 11.199219 L 99.179688 11.199219 L 99.179688 100.800781 L 50.644531 100.800781 Z M 50.644531 11.199219 " clip-rule="nonzero"/></clipPath></defs><g clip-path="url(#b90bff830b)"><path fill="#000000" d="M 87.316406 64.628906 C 86.925781 64.6875 86.585938 64.722656 86.257812 64.789062 C 85.289062 64.972656 84.417969 65.386719 83.617188 65.957031 C 83.5 66.039062 83.375 66.117188 83.261719 66.207031 C 82.339844 66.972656 81.296875 67.089844 80.207031 66.707031 C 79.585938 66.492188 78.996094 66.183594 78.410156 65.882812 C 77.804688 65.574219 77.226562 65.21875 76.628906 64.898438 C 74.578125 63.796875 72.496094 63.910156 70.414062 64.78125 C 69.53125 65.152344 68.734375 65.679688 67.976562 66.269531 C 67.363281 66.742188 66.738281 67.203125 66.105469 67.652344 C 65.828125 67.847656 65.527344 68.011719 65.226562 68.167969 C 64.066406 68.765625 62.882812 68.8125 61.679688 68.28125 C 60.992188 67.976562 60.359375 67.59375 59.773438 67.132812 C 59.226562 66.703125 58.699219 66.246094 58.148438 65.820312 C 56.898438 64.851562 55.546875 64.074219 53.980469 63.734375 C 53.296875 63.585938 52.605469 63.554688 51.910156 63.636719 C 51.699219 63.660156 51.492188 63.679688 51.289062 63.699219 C 51.179688 63.308594 51.199219 33.941406 51.300781 33.453125 C 51.703125 33.355469 86.3125 33.335938 87.363281 33.441406 C 87.363281 43.816406 87.328125 54.203125 87.316406 64.628906 Z M 54.359375 51.847656 C 54.386719 51.832031 54.417969 51.816406 54.445312 51.804688 C 54.570312 51.984375 54.695312 52.164062 54.820312 52.34375 C 55.84375 53.84375 56.863281 55.339844 57.890625 56.835938 C 57.988281 56.984375 58.089844 57.1875 58.292969 57.113281 C 58.414062 57.070312 58.488281 56.886719 58.574219 56.761719 C 58.609375 56.710938 58.617188 56.640625 58.640625 56.578125 C 59.164062 55.0625 59.6875 53.546875 60.210938 52.03125 C 60.261719 51.886719 60.320312 51.742188 60.375 51.601562 C 60.519531 52.050781 60.570312 52.496094 60.617188 52.9375 C 60.804688 54.664062 60.988281 56.386719 61.171875 58.109375 C 61.183594 58.222656 61.183594 58.351562 61.238281 58.4375 C 61.292969 58.515625 61.421875 58.59375 61.507812 58.585938 C 61.582031 58.578125 61.675781 58.453125 61.695312 58.363281 C 61.722656 58.242188 61.699219 58.105469 61.683594 57.976562 C 61.40625 55.480469 61.125 52.984375 60.84375 50.488281 C 60.835938 50.390625 60.839844 50.285156 60.796875 50.203125 C 60.757812 50.128906 60.667969 50.046875 60.59375 50.039062 C 60.515625 50.035156 60.40625 50.097656 60.359375 50.164062 C 60.296875 50.25 60.277344 50.371094 60.238281 50.476562 C 59.613281 52.269531 58.992188 54.058594 58.367188 55.847656 C 58.308594 56.007812 58.242188 56.164062 58.160156 56.378906 C 58.023438 56.199219 57.921875 56.074219 57.832031 55.945312 C 56.714844 54.335938 55.601562 52.722656 54.484375 51.113281 C 54.402344 50.992188 54.324219 50.863281 54.214844 50.769531 C 54.058594 50.632812 53.84375 50.71875 53.832031 50.929688 C 53.820312 51.089844 53.847656 51.253906 53.871094 51.414062 C 54.152344 53.4375 54.433594 55.460938 54.71875 57.480469 C 54.785156 57.964844 54.851562 58.445312 54.925781 58.925781 C 54.949219 59.082031 55.046875 59.226562 55.214844 59.164062 C 55.296875 59.132812 55.332031 58.964844 55.371094 58.855469 C 55.386719 58.816406 55.363281 58.761719 55.355469 58.714844 C 55.15625 57.335938 54.953125 55.953125 54.753906 54.574219 C 54.621094 53.664062 54.492188 52.757812 54.359375 51.847656 Z M 80.246094 54.746094 C 80.363281 54.589844 80.449219 54.457031 80.546875 54.332031 C 81.433594 53.21875 82.324219 52.109375 83.210938 50.996094 C 83.300781 50.882812 83.402344 50.769531 83.460938 50.640625 C 83.488281 50.574219 83.457031 50.433594 83.40625 50.390625 C 83.347656 50.347656 83.207031 50.347656 83.144531 50.386719 C 83.042969 50.457031 82.964844 50.570312 82.882812 50.671875 C 82.003906 51.769531 81.128906 52.871094 80.246094 53.96875 C 80.152344 54.089844 80.046875 54.203125 79.894531 54.378906 C 79.855469 54.214844 79.828125 54.125 79.816406 54.039062 C 79.664062 52.964844 79.511719 51.890625 79.355469 50.816406 C 79.300781 50.445312 79.207031 50.308594 79.046875 50.371094 C 78.792969 50.472656 78.882812 50.683594 78.910156 50.871094 C 79.222656 53.082031 79.53125 55.292969 79.839844 57.507812 C 79.871094 57.730469 79.902344 57.957031 79.9375 58.179688 C 79.953125 58.292969 79.957031 58.414062 80.007812 58.507812 C 80.054688 58.59375 80.160156 58.640625 80.242188 58.703125 C 80.300781 58.625 80.417969 58.535156 80.414062 58.460938 C 80.378906 58.023438 80.316406 57.59375 80.257812 57.160156 C 80.171875 56.519531 80.082031 55.882812 79.984375 55.175781 C 80.203125 55.265625 80.347656 55.324219 80.492188 55.390625 C 81.515625 55.867188 82.539062 56.34375 83.5625 56.820312 C 84.0625 57.050781 84.558594 57.285156 85.058594 57.511719 C 85.191406 57.570312 85.351562 57.621094 85.4375 57.445312 C 85.523438 57.277344 85.402344 57.175781 85.265625 57.105469 C 85.164062 57.054688 85.0625 57.007812 84.957031 56.957031 C 83.554688 56.304688 82.148438 55.652344 80.746094 55 C 80.589844 54.925781 80.4375 54.84375 80.246094 54.746094 Z M 72.21875 58.425781 C 72.257812 58.226562 72.28125 58.097656 72.308594 57.972656 C 72.800781 55.84375 73.296875 53.714844 73.789062 51.585938 C 73.816406 51.472656 73.867188 51.359375 73.855469 51.253906 C 73.84375 51.144531 73.792969 50.988281 73.710938 50.945312 C 73.574219 50.871094 73.476562 50.992188 73.429688 51.128906 C 73.398438 51.234375 73.371094 51.347656 73.34375 51.457031 C 72.816406 53.746094 72.289062 56.03125 71.761719 58.320312 C 71.667969 58.722656 71.691406 58.773438 72.066406 58.875 C 73.015625 59.128906 73.96875 59.375 74.921875 59.625 C 75 59.644531 75.089844 59.679688 75.15625 59.65625 C 75.234375 59.632812 75.320312 59.5625 75.355469 59.488281 C 75.375 59.4375 75.324219 59.320312 75.273438 59.285156 C 75.183594 59.222656 75.070312 59.195312 74.960938 59.164062 C 74.371094 59.003906 73.777344 58.851562 73.183594 58.691406 C 72.875 58.609375 72.570312 58.523438 72.21875 58.425781 Z M 68.171875 45.578125 C 68.140625 45.03125 68.125 44.578125 68.085938 44.128906 C 68.046875 43.65625 67.925781 43.199219 67.671875 42.800781 C 67.445312 42.445312 67.128906 42.175781 66.683594 42.207031 C 66.207031 42.242188 65.898438 42.539062 65.714844 42.972656 C 65.566406 43.328125 65.535156 43.699219 65.589844 44.066406 C 65.789062 45.367188 66.445312 46.386719 67.511719 47.136719 C 67.875 47.394531 68.058594 47.296875 68.097656 46.835938 C 68.136719 46.386719 68.152344 45.933594 68.171875 45.578125 Z M 65.53125 57.167969 C 65.574219 57.226562 65.644531 57.320312 65.710938 57.414062 C 65.800781 57.339844 65.90625 57.277344 65.980469 57.1875 C 66.027344 57.128906 66.03125 57.035156 66.050781 56.957031 C 66.617188 54.664062 67.179688 52.371094 67.746094 50.078125 C 67.773438 49.96875 67.808594 49.851562 67.792969 49.746094 C 67.78125 49.671875 67.699219 49.5625 67.632812 49.546875 C 67.566406 49.535156 67.449219 49.597656 67.40625 49.664062 C 67.34375 49.753906 67.328125 49.875 67.300781 49.984375 C 66.738281 52.261719 66.171875 54.535156 65.609375 56.8125 C 65.585938 56.90625 65.570312 57.003906 65.53125 57.167969 Z M 71.417969 45.300781 C 71.417969 44.8125 71.054688 44.496094 70.558594 44.566406 C 70.144531 44.621094 69.855469 44.871094 69.601562 45.171875 C 69.144531 45.714844 68.917969 46.375 68.671875 47.023438 C 68.636719 47.125 68.664062 47.28125 68.722656 47.375 C 68.8125 47.511719 68.960938 47.507812 69.113281 47.441406 C 69.804688 47.125 70.464844 46.753906 71 46.199219 C 71.238281 45.953125 71.417969 45.664062 71.417969 45.300781 Z M 51.335938 32.914062 C 51.4375 32.714844 51.5 32.570312 51.574219 32.429688 C 53.785156 28.246094 56 24.070312 58.191406 19.882812 C 58.386719 19.511719 58.601562 19.390625 59.011719 19.394531 C 66.945312 19.445312 74.878906 19.476562 82.808594 19.515625 C 85.832031 19.53125 88.851562 19.550781 91.875 19.566406 C 92.015625 19.570312 92.160156 19.570312 92.269531 19.570312 C 92.316406 19.609375 92.332031 19.617188 92.335938 19.632812 C 92.34375 19.644531 92.34375 19.664062 92.34375 19.679688 C 92.347656 19.695312 92.347656 19.710938 92.339844 19.726562 C 92.195312 20.121094 92.054688 20.519531 91.90625 20.910156 C 90.386719 24.90625 88.863281 28.902344 87.335938 32.914062 C 75.351562 32.914062 63.382812 32.914062 51.335938 32.914062 Z M 76.515625 25.535156 C 76.511719 23.953125 75.597656 22.699219 74.097656 22.207031 C 73.609375 22.046875 73.125 21.863281 72.632812 21.710938 C 72.386719 21.632812 72.132812 21.570312 71.878906 21.539062 C 69.683594 21.285156 67.785156 22.9375 67.394531 24.921875 C 67.105469 26.394531 67.632812 27.855469 68.824219 28.574219 C 69.753906 29.128906 70.800781 29.503906 71.859375 29.664062 C 74.28125 30.03125 76.519531 27.996094 76.515625 25.535156 Z M 60.039062 21.015625 C 59.992188 20.949219 59.957031 20.847656 59.902344 20.832031 C 59.824219 20.808594 59.703125 20.824219 59.648438 20.875 C 59.558594 20.957031 59.5 21.082031 59.441406 21.195312 C 57.714844 24.367188 55.992188 27.539062 54.273438 30.710938 C 54.226562 30.796875 54.152344 30.878906 54.144531 30.96875 C 54.136719 31.082031 54.183594 31.203125 54.203125 31.320312 C 54.3125 31.277344 54.441406 31.257812 54.523438 31.1875 C 54.605469 31.117188 54.640625 30.996094 54.695312 30.898438 C 55.257812 29.859375 55.820312 28.820312 56.386719 27.78125 C 57.535156 25.660156 58.6875 23.542969 59.835938 21.421875 C 59.90625 21.296875 59.964844 21.164062 60.039062 21.015625 Z M 87.824219 33.738281 C 87.816406 36.671875 87.8125 39.605469 87.808594 42.539062 C 87.796875 49.753906 87.785156 56.96875 87.777344 64.179688 C 87.773438 64.3125 87.761719 64.445312 87.785156 64.570312 C 87.800781 64.652344 87.855469 64.773438 87.921875 64.800781 C 88.515625 65.046875 89.082031 65.378906 89.742188 65.421875 C 90.9375 65.503906 92.027344 65.191406 92.960938 64.453125 C 93.859375 63.742188 94.707031 62.964844 95.570312 62.207031 C 96.257812 61.609375 96.972656 61.058594 97.867188 60.808594 C 98.117188 60.738281 98.367188 60.6875 98.660156 60.617188 C 98.679688 50.765625 98.699219 40.925781 98.707031 31.015625 C 95.042969 31.765625 91.460938 32.5 87.824219 33.246094 C 87.824219 33.449219 87.824219 33.59375 87.824219 33.738281 Z M 51.191406 100.1875 C 51.191406 88.15625 51.191406 76.210938 51.191406 64.203125 C 51.554688 64.152344 51.882812 64.09375 52.214844 64.070312 C 53.335938 63.984375 54.394531 64.226562 55.414062 64.6875 C 56.4375 65.152344 57.367188 65.761719 58.234375 66.472656 C 58.820312 66.953125 59.410156 67.433594 60.023438 67.882812 C 60.695312 68.371094 61.4375 68.722656 62.238281 68.953125 C 63.058594 69.195312 63.875 69.1875 64.664062 68.886719 C 65.21875 68.671875 65.765625 68.414062 66.261719 68.089844 C 67.003906 67.605469 67.699219 67.046875 68.414062 66.515625 C 69.433594 65.757812 70.511719 65.121094 71.757812 64.800781 C 73.371094 64.386719 74.925781 64.488281 76.40625 65.300781 C 77.042969 65.652344 77.679688 66.003906 78.308594 66.367188 C 79.054688 66.800781 79.828125 67.132812 80.683594 67.300781 C 81.648438 67.488281 82.503906 67.296875 83.304688 66.742188 C 83.742188 66.4375 84.179688 66.132812 84.640625 65.867188 C 85.4375 65.40625 86.304688 65.179688 87.195312 65.125 C 87.234375 65.164062 87.246094 65.175781 87.257812 65.1875 C 87.269531 65.199219 87.285156 65.210938 87.289062 65.222656 C 87.300781 65.320312 87.3125 65.414062 87.3125 65.511719 C 87.296875 77.039062 87.28125 88.570312 87.261719 100.097656 C 87.261719 100.125 87.234375 100.152344 87.214844 100.1875 C 75.21875 100.1875 63.222656 100.1875 51.191406 100.1875 Z M 67.050781 18.972656 C 68.113281 19.0625 71.613281 19.03125 71.949219 18.929688 C 71.949219 16.570312 71.949219 14.210938 71.949219 11.832031 C 70.292969 11.832031 68.667969 11.832031 67.015625 11.832031 C 66.898438 12.5 66.9375 18.648438 67.050781 18.972656 Z M 77.8125 19 C 78.636719 19.097656 82.222656 19.074219 82.582031 18.96875 C 82.582031 16.601562 82.582031 14.230469 82.582031 11.828125 C 80.984375 11.828125 79.410156 11.828125 77.8125 11.828125 C 77.8125 14.257812 77.8125 16.632812 77.8125 19 Z M 92.523438 18.875 C 92.574219 17.484375 92.640625 16.089844 92.667969 14.699219 C 92.679688 14.054688 92.675781 13.402344 92.441406 12.78125 C 92.191406 12.109375 91.828125 11.808594 91.109375 11.792969 C 90.269531 11.777344 89.433594 11.792969 88.59375 11.796875 C 88.535156 11.796875 88.476562 11.828125 88.425781 11.839844 C 88.324219 12.613281 88.363281 18.738281 88.472656 19.082031 C 89.800781 19.082031 91.136719 19.082031 92.488281 19.082031 C 92.5 18.996094 92.519531 18.9375 92.523438 18.875 Z M 87.890625 32.761719 C 91.355469 32.050781 94.707031 31.363281 98.0625 30.675781 C 98.066406 30.644531 98.070312 30.609375 98.074219 30.578125 C 95.375 29.535156 92.675781 28.488281 89.917969 27.421875 C 89.238281 29.21875 88.582031 30.945312 87.890625 32.761719 Z M 60.070312 11.816406 C 59.242188 11.839844 58.792969 12.191406 58.582031 13 C 58.53125 13.1875 58.503906 13.382812 58.488281 13.574219 C 58.324219 15.238281 58.425781 16.90625 58.496094 18.570312 C 58.5 18.679688 58.535156 18.789062 58.558594 18.921875 C 59.375 18.921875 60.171875 18.921875 60.996094 18.921875 C 60.996094 16.554688 60.996094 14.214844 60.996094 11.8125 C 60.648438 11.8125 60.359375 11.804688 60.070312 11.816406 Z M 71.003906 28.660156 C 72.898438 28.484375 74.464844 26.710938 74.363281 24.800781 C 74.28125 23.226562 73.207031 22.003906 71.445312 21.964844 C 69.492188 21.921875 67.789062 23.683594 67.777344 25.667969 C 67.734375 27.601562 69.339844 28.8125 71.003906 28.660156 Z M 98.628906 61.125 C 98.628906 73.246094 98.628906 85.304688 98.628906 97.421875 C 95.011719 98.308594 91.414062 99.1875 87.773438 100.078125 C 87.773438 88.449219 87.773438 76.867188 87.773438 65.234375 C 87.945312 65.292969 88.070312 65.324219 88.179688 65.378906 C 89.964844 66.292969 91.632812 65.949219 93.191406 64.855469 C 93.917969 64.34375 94.558594 63.71875 95.238281 63.144531 C 95.746094 62.714844 96.230469 62.261719 96.757812 61.859375 C 97.289062 61.449219 97.902344 61.210938 98.628906 61.125 Z M 66.488281 18.953125 C 66.488281 16.574219 66.488281 14.21875 66.488281 11.8125 C 64.808594 11.824219 63.160156 11.792969 61.507812 11.835938 C 61.507812 14.222656 61.507812 16.550781 61.507812 18.953125 C 63.191406 18.953125 64.828125 18.953125 66.488281 18.953125 Z M 87.941406 19.054688 C 87.941406 16.632812 87.941406 14.230469 87.941406 11.824219 C 86.277344 11.824219 84.6875 11.824219 83.074219 11.824219 C 83.074219 14.234375 83.074219 16.609375 83.074219 19.054688 C 84.714844 19.054688 86.304688 19.054688 87.941406 19.054688 Z M 77.230469 11.839844 C 76.320312 11.746094 72.800781 11.789062 72.480469 11.894531 C 72.480469 14.253906 72.480469 16.613281 72.480469 19 C 74.09375 19 75.667969 19 77.273438 19 C 77.371094 18.066406 77.332031 12.179688 77.230469 11.839844 Z M 90.082031 26.996094 C 92.878906 28.074219 95.605469 29.128906 98.335938 30.183594 C 98.355469 30.15625 98.375 30.128906 98.394531 30.101562 C 96.539062 26.738281 94.679688 23.375 92.773438 19.921875 C 91.855469 22.339844 90.972656 24.65625 90.082031 26.996094 Z M 67.5625 43.761719 C 67.523438 43.574219 67.457031 43.386719 67.375 43.214844 C 67.238281 42.929688 67.058594 42.667969 66.699219 42.667969 C 66.417969 42.667969 66.152344 42.980469 66.066406 43.375 C 66.054688 43.421875 66.046875 43.46875 66.046875 43.519531 C 65.996094 44.835938 66.605469 45.824219 67.609375 46.621094 C 67.699219 45.648438 67.75 44.703125 67.5625 43.761719 Z M 70.75 45.78125 C 70.992188 45.488281 71.027344 45.234375 70.871094 45.085938 C 70.71875 44.941406 70.464844 44.976562 70.179688 45.226562 C 69.699219 45.636719 69.445312 46.1875 69.277344 46.792969 C 69.839844 46.542969 70.363281 46.253906 70.75 45.78125 Z M 74.210938 28.585938 C 74.304688 28.609375 74.441406 28.578125 74.519531 28.519531 C 75.054688 28.121094 75.472656 27.625 75.746094 26.964844 C 75.328125 26.800781 74.945312 26.644531 74.609375 26.511719 C 74.152344 27.121094 73.722656 27.691406 73.265625 28.300781 C 73.574219 28.398438 73.890625 28.507812 74.210938 28.585938 Z M 76.039062 25.234375 C 76.03125 25.140625 75.957031 25.007812 75.875 24.972656 C 75.546875 24.824219 75.203125 24.710938 74.84375 24.574219 C 74.796875 25.109375 74.753906 25.585938 74.710938 26.09375 C 75.085938 26.238281 75.46875 26.386719 75.886719 26.546875 C 76.066406 26.066406 76.070312 25.648438 76.039062 25.234375 Z M 75.84375 24.371094 C 75.523438 23.585938 74.980469 23.035156 74.140625 22.71875 C 74.335938 23.148438 74.492188 23.519531 74.671875 23.875 C 74.726562 23.980469 74.824219 24.089844 74.929688 24.136719 C 75.203125 24.257812 75.492188 24.351562 75.773438 24.457031 C 75.796875 24.425781 75.820312 24.398438 75.84375 24.371094 Z M 72.875 28.621094 C 72.792969 28.59375 72.6875 28.605469 72.605469 28.636719 C 72.234375 28.78125 71.871094 28.941406 71.4375 29.121094 C 72.242188 29.34375 72.964844 29.292969 73.679688 28.898438 C 73.410156 28.804688 73.148438 28.703125 72.875 28.621094 Z M 50.773438 66.664062 C 50.773438 59.882812 50.769531 53.105469 50.773438 46.328125 C 50.773438 42.292969 50.78125 38.253906 50.785156 34.214844 C 50.785156 34.121094 50.800781 34.019531 50.785156 33.925781 C 50.65625 33.246094 50.90625 32.675781 51.21875 32.089844 C 53.445312 27.917969 55.644531 23.730469 57.863281 19.554688 C 58.027344 19.246094 58.117188 18.949219 58.089844 18.585938 C 57.964844 16.953125 57.894531 15.320312 58.015625 13.679688 C 58.050781 13.191406 58.132812 12.71875 58.375 12.28125 C 58.644531 11.796875 59.035156 11.480469 59.589844 11.417969 C 60.035156 11.367188 60.488281 11.339844 60.941406 11.339844 C 66.371094 11.332031 71.796875 11.339844 77.226562 11.335938 C 81.71875 11.332031 86.210938 11.320312 90.699219 11.320312 C 91.035156 11.320312 91.375 11.367188 91.707031 11.421875 C 92.1875 11.503906 92.511719 11.804688 92.722656 12.242188 C 92.953125 12.714844 93.09375 13.21875 93.089844 13.738281 C 93.082031 15.085938 93.085938 16.433594 93 17.773438 C 92.933594 18.792969 93.125 19.679688 93.640625 20.582031 C 95.398438 23.644531 97.066406 26.757812 98.785156 29.839844 C 99.054688 30.324219 99.1875 30.792969 99.179688 31.355469 C 99.144531 33.769531 99.148438 36.1875 99.144531 38.605469 C 99.136719 41.667969 99.132812 44.734375 99.128906 47.796875 C 99.117188 57.429688 99.109375 67.0625 99.097656 76.691406 C 99.09375 83.4375 99.089844 90.183594 99.082031 96.929688 C 99.082031 97.992188 99.09375 97.792969 98.242188 98 C 94.839844 98.824219 91.433594 99.648438 88.035156 100.496094 C 87.542969 100.617188 87.058594 100.675781 86.558594 100.675781 C 75.390625 100.660156 64.226562 100.648438 53.0625 100.636719 C 52.480469 100.636719 51.898438 100.648438 51.320312 100.636719 C 50.722656 100.621094 50.703125 100.59375 50.707031 99.984375 C 50.710938 94.894531 50.722656 89.800781 50.726562 84.710938 C 50.730469 78.695312 50.726562 72.679688 50.726562 66.664062 C 50.742188 66.664062 50.757812 66.664062 50.773438 66.664062 Z M 51.191406 100.1875 C 63.222656 100.1875 75.21875 100.1875 87.214844 100.1875 C 87.234375 100.152344 87.261719 100.125 87.261719 100.097656 C 87.28125 88.570312 87.296875 77.039062 87.3125 65.511719 C 87.3125 65.414062 87.300781 65.320312 87.289062 65.222656 C 87.285156 65.210938 87.269531 65.199219 87.257812 65.1875 C 87.246094 65.175781 87.234375 65.164062 87.195312 65.125 C 86.304688 65.179688 85.4375 65.40625 84.640625 65.867188 C 84.179688 66.132812 83.742188 66.4375 83.304688 66.742188 C 82.503906 67.296875 81.648438 67.488281 80.683594 67.300781 C 79.828125 67.132812 79.054688 66.800781 78.308594 66.367188 C 77.679688 66.003906 77.042969 65.652344 76.40625 65.300781 C 74.925781 64.488281 73.371094 64.386719 71.757812 64.800781 C 70.511719 65.121094 69.433594 65.757812 68.414062 66.515625 C 67.699219 67.046875 67.003906 67.605469 66.261719 68.089844 C 65.765625 68.414062 65.21875 68.671875 64.664062 68.886719 C 63.875 69.1875 63.058594 69.195312 62.238281 68.953125 C 61.4375 68.722656 60.695312 68.371094 60.023438 67.882812 C 59.410156 67.433594 58.820312 66.953125 58.234375 66.472656 C 57.367188 65.761719 56.4375 65.152344 55.414062 64.6875 C 54.394531 64.226562 53.335938 63.984375 52.214844 64.070312 C 51.882812 64.09375 51.554688 64.152344 51.191406 64.203125 C 51.191406 76.210938 51.191406 88.15625 51.191406 100.1875 Z M 87.316406 64.628906 C 87.328125 54.203125 87.363281 43.816406 87.363281 33.441406 C 86.3125 33.335938 51.703125 33.355469 51.300781 33.453125 C 51.199219 33.941406 51.179688 63.308594 51.289062 63.699219 C 51.492188 63.679688 51.699219 63.660156 51.910156 63.636719 C 52.605469 63.554688 53.296875 63.585938 53.980469 63.734375 C 55.546875 64.074219 56.898438 64.851562 58.148438 65.820312 C 58.699219 66.246094 59.226562 66.703125 59.773438 67.132812 C 60.359375 67.59375 60.992188 67.976562 61.679688 68.28125 C 62.882812 68.8125 64.066406 68.765625 65.226562 68.167969 C 65.527344 68.011719 65.828125 67.847656 66.105469 67.652344 C 66.738281 67.203125 67.363281 66.742188 67.976562 66.269531 C 68.734375 65.679688 69.53125 65.152344 70.414062 64.78125 C 72.496094 63.910156 74.578125 63.796875 76.628906 64.898438 C 77.226562 65.21875 77.804688 65.574219 78.410156 65.882812 C 78.996094 66.183594 79.585938 66.492188 80.207031 66.707031 C 81.296875 67.089844 82.339844 66.972656 83.261719 66.207031 C 83.375 66.117188 83.5 66.039062 83.617188 65.957031 C 84.417969 65.386719 85.289062 64.972656 86.257812 64.789062 C 86.585938 64.722656 86.925781 64.6875 87.316406 64.628906 Z M 51.335938 32.914062 C 63.382812 32.914062 75.351562 32.914062 87.335938 32.914062 C 88.863281 28.902344 90.386719 24.90625 91.90625 20.910156 C 92.054688 20.519531 92.195312 20.121094 92.339844 19.726562 C 92.347656 19.710938 92.347656 19.695312 92.34375 19.679688 C 92.34375 19.664062 92.34375 19.644531 92.335938 19.632812 C 92.332031 19.617188 92.316406 19.609375 92.269531 19.570312 C 92.160156 19.570312 92.015625 19.570312 91.875 19.566406 C 88.851562 19.550781 85.832031 19.53125 82.808594 19.515625 C 74.878906 19.476562 66.945312 19.445312 59.011719 19.394531 C 58.601562 19.390625 58.386719 19.511719 58.191406 19.882812 C 56 24.070312 53.785156 28.246094 51.574219 32.429688 C 51.5 32.570312 51.4375 32.714844 51.335938 32.914062 Z M 98.628906 61.125 C 97.902344 61.210938 97.289062 61.449219 96.757812 61.859375 C 96.230469 62.261719 95.746094 62.714844 95.238281 63.144531 C 94.558594 63.71875 93.917969 64.34375 93.191406 64.855469 C 91.632812 65.949219 89.964844 66.292969 88.179688 65.378906 C 88.070312 65.324219 87.945312 65.292969 87.773438 65.234375 C 87.773438 76.867188 87.773438 88.449219 87.773438 100.078125 C 91.414062 99.1875 95.011719 98.308594 98.628906 97.421875 C 98.628906 85.304688 98.628906 73.246094 98.628906 61.125 Z M 87.824219 33.246094 C 87.824219 33.449219 87.824219 33.59375 87.824219 33.738281 C 87.816406 36.671875 87.8125 39.605469 87.808594 42.539062 C 87.796875 49.753906 87.785156 56.96875 87.777344 64.179688 C 87.773438 64.3125 87.761719 64.445312 87.785156 64.570312 C 87.800781 64.652344 87.855469 64.773438 87.921875 64.800781 C 88.515625 65.046875 89.082031 65.378906 89.742188 65.421875 C 90.9375 65.503906 92.027344 65.191406 92.960938 64.453125 C 93.859375 63.742188 94.707031 62.964844 95.570312 62.207031 C 96.257812 61.609375 96.972656 61.058594 97.867188 60.808594 C 98.117188 60.738281 98.367188 60.6875 98.660156 60.617188 C 98.679688 50.765625 98.699219 40.925781 98.707031 31.015625 C 95.042969 31.765625 91.460938 32.5 87.824219 33.246094 Z M 67.015625 11.832031 C 66.898438 12.5 66.9375 18.648438 67.050781 18.972656 C 68.113281 19.0625 71.613281 19.03125 71.949219 18.929688 C 71.949219 16.570312 71.949219 14.210938 71.949219 11.832031 C 70.292969 11.832031 68.667969 11.832031 67.015625 11.832031 Z M 61.507812 18.953125 C 63.191406 18.953125 64.828125 18.953125 66.488281 18.953125 C 66.488281 16.574219 66.488281 14.21875 66.488281 11.8125 C 64.808594 11.824219 63.160156 11.792969 61.507812 11.835938 C 61.507812 14.222656 61.507812 16.550781 61.507812 18.953125 Z M 83.074219 19.054688 C 84.714844 19.054688 86.304688 19.054688 87.941406 19.054688 C 87.941406 16.632812 87.941406 14.230469 87.941406 11.824219 C 86.277344 11.824219 84.6875 11.824219 83.074219 11.824219 C 83.074219 14.234375 83.074219 16.609375 83.074219 19.054688 Z M 77.273438 19 C 77.371094 18.066406 77.332031 12.179688 77.230469 11.839844 C 76.320312 11.746094 72.800781 11.789062 72.480469 11.894531 C 72.480469 14.253906 72.480469 16.613281 72.480469 19 C 74.09375 19 75.667969 19 77.273438 19 Z M 77.8125 11.828125 C 77.8125 14.257812 77.8125 16.632812 77.8125 19 C 78.636719 19.097656 82.222656 19.074219 82.582031 18.96875 C 82.582031 16.601562 82.582031 14.230469 82.582031 11.828125 C 80.984375 11.828125 79.410156 11.828125 77.8125 11.828125 Z M 92.773438 19.921875 C 91.855469 22.339844 90.972656 24.65625 90.082031 26.996094 C 92.878906 28.074219 95.605469 29.128906 98.335938 30.183594 C 98.355469 30.15625 98.375 30.128906 98.394531 30.101562 C 96.539062 26.738281 94.679688 23.375 92.773438 19.921875 Z M 92.488281 19.082031 C 92.5 18.996094 92.519531 18.9375 92.523438 18.875 C 92.574219 17.484375 92.640625 16.089844 92.667969 14.699219 C 92.679688 14.054688 92.675781 13.402344 92.441406 12.78125 C 92.191406 12.109375 91.828125 11.808594 91.109375 11.792969 C 90.269531 11.777344 89.433594 11.792969 88.59375 11.796875 C 88.535156 11.796875 88.476562 11.828125 88.425781 11.839844 C 88.324219 12.613281 88.363281 18.738281 88.472656 19.082031 C 89.800781 19.082031 91.136719 19.082031 92.488281 19.082031 Z M 89.917969 27.421875 C 89.238281 29.21875 88.582031 30.945312 87.890625 32.761719 C 91.355469 32.050781 94.707031 31.363281 98.0625 30.675781 C 98.066406 30.644531 98.070312 30.609375 98.074219 30.578125 C 95.375 29.535156 92.675781 28.488281 89.917969 27.421875 Z M 60.996094 11.8125 C 60.648438 11.8125 60.359375 11.804688 60.070312 11.816406 C 59.242188 11.839844 58.792969 12.191406 58.582031 13 C 58.53125 13.1875 58.503906 13.382812 58.488281 13.574219 C 58.324219 15.238281 58.425781 16.90625 58.496094 18.570312 C 58.5 18.679688 58.535156 18.789062 58.558594 18.921875 C 59.375 18.921875 60.171875 18.921875 60.996094 18.921875 C 60.996094 16.554688 60.996094 14.214844 60.996094 11.8125 Z M 54.445312 51.804688 C 54.570312 51.984375 54.695312 52.164062 54.820312 52.34375 C 55.84375 53.84375 56.863281 55.339844 57.890625 56.835938 C 57.988281 56.984375 58.089844 57.1875 58.292969 57.113281 C 58.414062 57.070312 58.488281 56.886719 58.574219 56.761719 C 58.609375 56.710938 58.617188 56.640625 58.640625 56.578125 C 59.164062 55.0625 59.6875 53.546875 60.210938 52.03125 C 60.261719 51.886719 60.320312 51.742188 60.375 51.601562 C 60.519531 52.050781 60.570312 52.496094 60.617188 52.9375 C 60.804688 54.664062 60.988281 56.386719 61.171875 58.109375 C 61.183594 58.222656 61.183594 58.351562 61.238281 58.4375 C 61.292969 58.515625 61.421875 58.59375 61.507812 58.585938 C 61.582031 58.578125 61.675781 58.453125 61.695312 58.363281 C 61.722656 58.242188 61.699219 58.105469 61.683594 57.976562 C 61.40625 55.480469 61.125 52.984375 60.84375 50.488281 C 60.835938 50.390625 60.839844 50.285156 60.796875 50.203125 C 60.757812 50.128906 60.667969 50.046875 60.59375 50.039062 C 60.515625 50.035156 60.40625 50.097656 60.359375 50.164062 C 60.296875 50.25 60.277344 50.371094 60.238281 50.476562 C 59.613281 52.269531 58.992188 54.058594 58.367188 55.847656 C 58.308594 56.007812 58.242188 56.164062 58.160156 56.378906 C 58.023438 56.199219 57.921875 56.074219 57.832031 55.945312 C 56.714844 54.335938 55.601562 52.722656 54.484375 51.113281 C 54.402344 50.992188 54.324219 50.863281 54.214844 50.769531 C 54.058594 50.632812 53.84375 50.71875 53.832031 50.929688 C 53.820312 51.089844 53.847656 51.253906 53.871094 51.414062 C 54.152344 53.4375 54.433594 55.460938 54.71875 57.480469 C 54.785156 57.964844 54.851562 58.445312 54.925781 58.925781 C 54.949219 59.082031 55.046875 59.226562 55.214844 59.164062 C 55.296875 59.132812 55.332031 58.964844 55.371094 58.855469 C 55.386719 58.816406 55.363281 58.761719 55.355469 58.714844 C 55.15625 57.335938 54.953125 55.953125 54.753906 54.574219 C 54.621094 53.664062 54.492188 52.757812 54.359375 51.847656 C 54.386719 51.832031 54.417969 51.816406 54.445312 51.804688 Z M 80.546875 54.332031 C 81.433594 53.21875 82.324219 52.109375 83.210938 50.996094 C 83.300781 50.882812 83.402344 50.769531 83.460938 50.640625 C 83.488281 50.574219 83.457031 50.433594 83.40625 50.390625 C 83.347656 50.347656 83.207031 50.347656 83.144531 50.386719 C 83.042969 50.457031 82.964844 50.570312 82.882812 50.671875 C 82.003906 51.769531 81.128906 52.871094 80.246094 53.96875 C 80.152344 54.089844 80.046875 54.203125 79.894531 54.378906 C 79.855469 54.214844 79.828125 54.125 79.816406 54.039062 C 79.664062 52.964844 79.511719 51.890625 79.355469 50.816406 C 79.300781 50.445312 79.207031 50.308594 79.046875 50.371094 C 78.792969 50.472656 78.882812 50.683594 78.910156 50.871094 C 79.222656 53.082031 79.53125 55.292969 79.839844 57.507812 C 79.871094 57.730469 79.902344 57.957031 79.9375 58.179688 C 79.953125 58.292969 79.957031 58.414062 80.007812 58.507812 C 80.054688 58.59375 80.160156 58.640625 80.242188 58.703125 C 80.300781 58.625 80.417969 58.535156 80.414062 58.460938 C 80.378906 58.023438 80.316406 57.59375 80.257812 57.160156 C 80.171875 56.519531 80.082031 55.882812 79.984375 55.175781 C 80.203125 55.265625 80.347656 55.324219 80.492188 55.390625 C 81.515625 55.867188 82.539062 56.34375 83.5625 56.820312 C 84.0625 57.050781 84.558594 57.285156 85.058594 57.511719 C 85.191406 57.570312 85.351562 57.621094 85.4375 57.445312 C 85.523438 57.277344 85.402344 57.175781 85.265625 57.105469 C 85.164062 57.054688 85.0625 57.007812 84.957031 56.957031 C 83.554688 56.304688 82.148438 55.652344 80.746094 55 C 80.589844 54.925781 80.4375 54.84375 80.246094 54.746094 C 80.363281 54.589844 80.449219 54.457031 80.546875 54.332031 Z M 72.308594 57.972656 C 72.800781 55.84375 73.296875 53.714844 73.789062 51.585938 C 73.816406 51.472656 73.867188 51.359375 73.855469 51.253906 C 73.84375 51.144531 73.792969 50.988281 73.710938 50.945312 C 73.574219 50.871094 73.476562 50.992188 73.429688 51.128906 C 73.398438 51.234375 73.371094 51.347656 73.34375 51.457031 C 72.816406 53.746094 72.289062 56.03125 71.761719 58.320312 C 71.667969 58.722656 71.691406 58.773438 72.066406 58.875 C 73.015625 59.128906 73.96875 59.375 74.921875 59.625 C 75 59.644531 75.089844 59.679688 75.15625 59.65625 C 75.234375 59.632812 75.320312 59.5625 75.355469 59.488281 C 75.375 59.4375 75.324219 59.320312 75.273438 59.285156 C 75.183594 59.222656 75.070312 59.195312 74.960938 59.164062 C 74.371094 59.003906 73.777344 58.851562 73.183594 58.691406 C 72.875 58.609375 72.570312 58.523438 72.21875 58.425781 C 72.257812 58.226562 72.28125 58.097656 72.308594 57.972656 Z M 68.171875 45.578125 C 68.152344 45.933594 68.136719 46.386719 68.097656 46.835938 C 68.058594 47.296875 67.875 47.394531 67.511719 47.136719 C 66.445312 46.386719 65.789062 45.367188 65.589844 44.066406 C 65.535156 43.699219 65.566406 43.328125 65.714844 42.972656 C 65.898438 42.539062 66.207031 42.242188 66.683594 42.207031 C 67.128906 42.175781 67.445312 42.445312 67.671875 42.800781 C 67.925781 43.199219 68.046875 43.65625 68.085938 44.128906 C 68.125 44.578125 68.140625 45.03125 68.171875 45.578125 Z M 67.609375 46.621094 C 67.699219 45.648438 67.75 44.703125 67.5625 43.761719 C 67.523438 43.574219 67.457031 43.386719 67.375 43.214844 C 67.238281 42.929688 67.058594 42.667969 66.699219 42.667969 C 66.417969 42.667969 66.152344 42.980469 66.066406 43.375 C 66.054688 43.421875 66.046875 43.46875 66.046875 43.519531 C 65.996094 44.835938 66.605469 45.824219 67.609375 46.621094 Z M 65.710938 57.414062 C 65.800781 57.339844 65.90625 57.277344 65.980469 57.1875 C 66.027344 57.128906 66.03125 57.035156 66.050781 56.957031 C 66.617188 54.664062 67.179688 52.371094 67.746094 50.078125 C 67.773438 49.96875 67.808594 49.851562 67.792969 49.746094 C 67.78125 49.671875 67.699219 49.5625 67.632812 49.546875 C 67.566406 49.535156 67.449219 49.597656 67.40625 49.664062 C 67.34375 49.753906 67.328125 49.875 67.300781 49.984375 C 66.738281 52.261719 66.171875 54.535156 65.609375 56.8125 C 65.585938 56.90625 65.570312 57.003906 65.53125 57.167969 C 65.574219 57.226562 65.644531 57.320312 65.710938 57.414062 Z M 71.417969 45.300781 C 71.417969 45.664062 71.238281 45.953125 71 46.199219 C 70.464844 46.753906 69.804688 47.125 69.113281 47.441406 C 68.960938 47.507812 68.8125 47.511719 68.722656 47.375 C 68.664062 47.28125 68.636719 47.125 68.671875 47.023438 C 68.917969 46.375 69.144531 45.714844 69.601562 45.171875 C 69.855469 44.871094 70.144531 44.621094 70.558594 44.566406 C 71.054688 44.496094 71.417969 44.8125 71.417969 45.300781 Z M 69.277344 46.792969 C 69.839844 46.542969 70.363281 46.253906 70.75 45.78125 C 70.992188 45.488281 71.027344 45.234375 70.871094 45.085938 C 70.71875 44.941406 70.464844 44.976562 70.179688 45.226562 C 69.699219 45.636719 69.445312 46.1875 69.277344 46.792969 Z M 76.515625 25.535156 C 76.519531 27.996094 74.28125 30.03125 71.859375 29.664062 C 70.800781 29.503906 69.753906 29.128906 68.824219 28.574219 C 67.632812 27.855469 67.105469 26.394531 67.394531 24.921875 C 67.785156 22.9375 69.683594 21.285156 71.878906 21.539062 C 72.132812 21.570312 72.386719 21.632812 72.632812 21.710938 C 73.125 21.863281 73.609375 22.046875 74.097656 22.207031 C 75.597656 22.699219 76.511719 23.953125 76.515625 25.535156 Z M 67.777344 25.667969 C 67.734375 27.601562 69.339844 28.8125 71.003906 28.660156 C 72.898438 28.484375 74.464844 26.710938 74.363281 24.800781 C 74.28125 23.226562 73.207031 22.003906 71.445312 21.964844 C 69.492188 21.921875 67.789062 23.683594 67.777344 25.667969 Z M 73.265625 28.300781 C 73.574219 28.398438 73.890625 28.507812 74.210938 28.585938 C 74.304688 28.609375 74.441406 28.578125 74.519531 28.519531 C 75.054688 28.121094 75.472656 27.625 75.746094 26.964844 C 75.328125 26.800781 74.945312 26.644531 74.609375 26.511719 C 74.152344 27.121094 73.722656 27.691406 73.265625 28.300781 Z M 75.886719 26.546875 C 76.066406 26.066406 76.070312 25.648438 76.039062 25.234375 C 76.03125 25.140625 75.957031 25.007812 75.875 24.972656 C 75.546875 24.824219 75.203125 24.710938 74.84375 24.574219 C 74.796875 25.109375 74.753906 25.585938 74.710938 26.09375 C 75.085938 26.238281 75.46875 26.386719 75.886719 26.546875 Z M 75.773438 24.457031 C 75.796875 24.425781 75.820312 24.398438 75.84375 24.371094 C 75.523438 23.585938 74.980469 23.035156 74.140625 22.71875 C 74.335938 23.148438 74.492188 23.519531 74.671875 23.875 C 74.726562 23.980469 74.824219 24.089844 74.929688 24.136719 C 75.203125 24.257812 75.492188 24.351562 75.773438 24.457031 Z M 73.679688 28.898438 C 73.410156 28.804688 73.148438 28.703125 72.875 28.621094 C 72.792969 28.59375 72.6875 28.605469 72.605469 28.636719 C 72.234375 28.78125 71.871094 28.941406 71.4375 29.121094 C 72.242188 29.34375 72.964844 29.292969 73.679688 28.898438 Z M 59.902344 20.832031 C 59.824219 20.808594 59.703125 20.824219 59.648438 20.875 C 59.558594 20.957031 59.5 21.082031 59.441406 21.195312 C 57.714844 24.367188 55.992188 27.539062 54.273438 30.710938 C 54.226562 30.796875 54.152344 30.878906 54.144531 30.96875 C 54.136719 31.082031 54.183594 31.203125 54.203125 31.320312 C 54.3125 31.277344 54.441406 31.257812 54.523438 31.1875 C 54.605469 31.117188 54.640625 30.996094 54.695312 30.898438 C 55.257812 29.859375 55.820312 28.820312 56.386719 27.78125 C 57.535156 25.660156 58.6875 23.542969 59.835938 21.421875 C 59.90625 21.296875 59.964844 21.164062 60.039062 21.015625 C 59.992188 20.949219 59.957031 20.847656 59.902344 20.832031 Z M 59.902344 20.832031 " fill-opacity="1" fill-rule="nonzero"/></g><path fill="#869ba6" d="M 87.316406 64.628906 C 86.925781 64.6875 86.585938 64.722656 86.257812 64.789062 C 85.289062 64.972656 84.417969 65.386719 83.617188 65.957031 C 83.5 66.039062 83.375 66.117188 83.261719 66.207031 C 82.339844 66.972656 81.296875 67.089844 80.207031 66.707031 C 79.585938 66.492188 78.996094 66.183594 78.410156 65.882812 C 77.804688 65.574219 77.226562 65.21875 76.628906 64.898438 C 74.578125 63.796875 72.496094 63.910156 70.414062 64.78125 C 69.53125 65.152344 68.734375 65.679688 67.976562 66.269531 C 67.363281 66.742188 66.738281 67.203125 66.105469 67.652344 C 65.828125 67.847656 65.527344 68.011719 65.226562 68.167969 C 64.066406 68.765625 62.882812 68.8125 61.679688 68.28125 C 60.992188 67.976562 60.359375 67.59375 59.773438 67.132812 C 59.226562 66.703125 58.699219 66.246094 58.148438 65.820312 C 56.898438 64.851562 55.546875 64.074219 53.980469 63.734375 C 53.296875 63.585938 52.605469 63.554688 51.910156 63.636719 C 51.699219 63.660156 51.492188 63.679688 51.289062 63.699219 C 51.179688 63.308594 51.199219 33.941406 51.300781 33.453125 C 51.703125 33.355469 86.3125 33.335938 87.363281 33.441406 C 87.363281 43.816406 87.328125 54.203125 87.316406 64.628906 Z M 54.359375 51.847656 C 54.386719 51.832031 54.417969 51.816406 54.445312 51.804688 C 54.570312 51.984375 54.695312 52.164062 54.820312 52.34375 C 55.84375 53.84375 56.863281 55.339844 57.890625 56.835938 C 57.988281 56.984375 58.089844 57.1875 58.292969 57.113281 C 58.414062 57.070312 58.488281 56.886719 58.574219 56.761719 C 58.609375 56.710938 58.617188 56.640625 58.640625 56.578125 C 59.164062 55.0625 59.6875 53.546875 60.210938 52.03125 C 60.261719 51.886719 60.320312 51.742188 60.375 51.601562 C 60.519531 52.050781 60.570312 52.496094 60.617188 52.9375 C 60.804688 54.664062 60.988281 56.386719 61.171875 58.109375 C 61.183594 58.222656 61.183594 58.351562 61.238281 58.4375 C 61.292969 58.515625 61.421875 58.59375 61.507812 58.585938 C 61.582031 58.578125 61.675781 58.453125 61.695312 58.363281 C 61.722656 58.242188 61.699219 58.105469 61.683594 57.976562 C 61.40625 55.480469 61.125 52.984375 60.84375 50.488281 C 60.835938 50.390625 60.839844 50.285156 60.796875 50.203125 C 60.757812 50.128906 60.667969 50.046875 60.59375 50.039062 C 60.515625 50.035156 60.40625 50.097656 60.359375 50.164062 C 60.296875 50.25 60.277344 50.371094 60.238281 50.476562 C 59.613281 52.269531 58.992188 54.058594 58.367188 55.847656 C 58.308594 56.007812 58.242188 56.164062 58.160156 56.378906 C 58.023438 56.199219 57.921875 56.074219 57.832031 55.945312 C 56.714844 54.335938 55.601562 52.722656 54.484375 51.113281 C 54.402344 50.992188 54.324219 50.863281 54.214844 50.769531 C 54.058594 50.632812 53.84375 50.71875 53.832031 50.929688 C 53.820312 51.089844 53.847656 51.253906 53.871094 51.414062 C 54.152344 53.4375 54.433594 55.460938 54.71875 57.480469 C 54.785156 57.964844 54.851562 58.445312 54.925781 58.925781 C 54.949219 59.082031 55.046875 59.226562 55.214844 59.164062 C 55.296875 59.132812 55.332031 58.964844 55.371094 58.855469 C 55.386719 58.816406 55.363281 58.761719 55.355469 58.714844 C 55.15625 57.335938 54.953125 55.953125 54.753906 54.574219 C 54.621094 53.664062 54.492188 52.757812 54.359375 51.847656 Z M 80.246094 54.746094 C 80.363281 54.589844 80.449219 54.457031 80.546875 54.332031 C 81.433594 53.21875 82.324219 52.109375 83.210938 50.996094 C 83.300781 50.882812 83.402344 50.769531 83.460938 50.640625 C 83.488281 50.574219 83.457031 50.433594 83.40625 50.390625 C 83.347656 50.347656 83.207031 50.347656 83.144531 50.386719 C 83.042969 50.457031 82.964844 50.570312 82.882812 50.671875 C 82.003906 51.769531 81.128906 52.871094 80.246094 53.96875 C 80.152344 54.089844 80.046875 54.203125 79.894531 54.378906 C 79.855469 54.214844 79.828125 54.125 79.816406 54.039062 C 79.664062 52.964844 79.511719 51.890625 79.355469 50.816406 C 79.300781 50.445312 79.207031 50.308594 79.046875 50.371094 C 78.792969 50.472656 78.882812 50.683594 78.910156 50.871094 C 79.222656 53.082031 79.53125 55.292969 79.839844 57.507812 C 79.871094 57.730469 79.902344 57.957031 79.9375 58.179688 C 79.953125 58.292969 79.957031 58.414062 80.007812 58.507812 C 80.054688 58.59375 80.160156 58.640625 80.242188 58.703125 C 80.300781 58.625 80.417969 58.535156 80.414062 58.460938 C 80.378906 58.023438 80.316406 57.59375 80.257812 57.160156 C 80.171875 56.519531 80.082031 55.882812 79.984375 55.175781 C 80.203125 55.265625 80.347656 55.324219 80.492188 55.390625 C 81.515625 55.867188 82.539062 56.34375 83.5625 56.820312 C 84.0625 57.050781 84.558594 57.285156 85.058594 57.511719 C 85.191406 57.570312 85.351562 57.621094 85.4375 57.445312 C 85.523438 57.277344 85.402344 57.175781 85.265625 57.105469 C 85.164062 57.054688 85.0625 57.007812 84.957031 56.957031 C 83.554688 56.304688 82.148438 55.652344 80.746094 55 C 80.589844 54.925781 80.4375 54.84375 80.246094 54.746094 Z M 72.21875 58.425781 C 72.257812 58.226562 72.28125 58.097656 72.308594 57.972656 C 72.800781 55.84375 73.296875 53.714844 73.789062 51.585938 C 73.816406 51.472656 73.867188 51.359375 73.855469 51.253906 C 73.84375 51.144531 73.792969 50.988281 73.710938 50.945312 C 73.574219 50.871094 73.476562 50.992188 73.429688 51.128906 C 73.398438 51.234375 73.371094 51.347656 73.34375 51.457031 C 72.816406 53.746094 72.289062 56.03125 71.761719 58.320312 C 71.667969 58.722656 71.691406 58.773438 72.066406 58.875 C 73.015625 59.128906 73.96875 59.375 74.921875 59.625 C 75 59.644531 75.089844 59.679688 75.15625 59.65625 C 75.234375 59.632812 75.320312 59.5625 75.355469 59.488281 C 75.375 59.4375 75.324219 59.320312 75.273438 59.285156 C 75.183594 59.222656 75.070312 59.195312 74.960938 59.164062 C 74.371094 59.003906 73.777344 58.851562 73.183594 58.691406 C 72.875 58.609375 72.570312 58.523438 72.21875 58.425781 Z M 68.171875 45.578125 C 68.140625 45.03125 68.125 44.578125 68.085938 44.128906 C 68.046875 43.65625 67.925781 43.199219 67.671875 42.800781 C 67.445312 42.445312 67.128906 42.175781 66.683594 42.207031 C 66.207031 42.242188 65.898438 42.539062 65.714844 42.972656 C 65.566406 43.328125 65.535156 43.699219 65.589844 44.066406 C 65.789062 45.367188 66.445312 46.386719 67.511719 47.136719 C 67.875 47.394531 68.058594 47.296875 68.097656 46.835938 C 68.136719 46.386719 68.152344 45.933594 68.171875 45.578125 Z M 65.53125 57.167969 C 65.574219 57.226562 65.644531 57.320312 65.710938 57.414062 C 65.800781 57.339844 65.90625 57.277344 65.980469 57.1875 C 66.027344 57.128906 66.03125 57.035156 66.050781 56.957031 C 66.617188 54.664062 67.179688 52.371094 67.746094 50.078125 C 67.773438 49.96875 67.808594 49.851562 67.792969 49.746094 C 67.78125 49.671875 67.699219 49.5625 67.632812 49.546875 C 67.566406 49.535156 67.449219 49.597656 67.40625 49.664062 C 67.34375 49.753906 67.328125 49.875 67.300781 49.984375 C 66.738281 52.261719 66.171875 54.535156 65.609375 56.8125 C 65.585938 56.90625 65.570312 57.003906 65.53125 57.167969 Z M 71.417969 45.300781 C 71.417969 44.8125 71.054688 44.496094 70.558594 44.566406 C 70.144531 44.621094 69.855469 44.871094 69.601562 45.171875 C 69.144531 45.714844 68.917969 46.375 68.671875 47.023438 C 68.636719 47.125 68.664062 47.28125 68.722656 47.375 C 68.8125 47.511719 68.960938 47.507812 69.113281 47.441406 C 69.804688 47.125 70.464844 46.753906 71 46.199219 C 71.238281 45.953125 71.417969 45.664062 71.417969 45.300781 Z M 51.335938 32.914062 C 51.4375 32.714844 51.5 32.570312 51.574219 32.429688 C 53.785156 28.246094 56 24.070312 58.191406 19.882812 C 58.386719 19.511719 58.601562 19.390625 59.011719 19.394531 C 66.945312 19.445312 74.878906 19.476562 82.808594 19.515625 C 85.832031 19.53125 88.851562 19.550781 91.875 19.566406 C 92.015625 19.570312 92.160156 19.570312 92.269531 19.570312 C 92.316406 19.609375 92.332031 19.617188 92.335938 19.632812 C 92.34375 19.644531 92.34375 19.664062 92.34375 19.679688 C 92.347656 19.695312 92.347656 19.710938 92.339844 19.726562 C 92.195312 20.121094 92.054688 20.519531 91.90625 20.910156 C 90.386719 24.90625 88.863281 28.902344 87.335938 32.914062 C 75.351562 32.914062 63.382812 32.914062 51.335938 32.914062 Z M 76.515625 25.535156 C 76.511719 23.953125 75.597656 22.699219 74.097656 22.207031 C 73.609375 22.046875 73.125 21.863281 72.632812 21.710938 C 72.386719 21.632812 72.132812 21.570312 71.878906 21.539062 C 69.683594 21.285156 67.785156 22.9375 67.394531 24.921875 C 67.105469 26.394531 67.632812 27.855469 68.824219 28.574219 C 69.753906 29.128906 70.800781 29.503906 71.859375 29.664062 C 74.28125 30.03125 76.519531 27.996094 76.515625 25.535156 Z M 60.039062 21.015625 C 59.992188 20.949219 59.957031 20.847656 59.902344 20.832031 C 59.824219 20.808594 59.703125 20.824219 59.648438 20.875 C 59.558594 20.957031 59.5 21.082031 59.441406 21.195312 C 57.714844 24.367188 55.992188 27.539062 54.273438 30.710938 C 54.226562 30.796875 54.152344 30.878906 54.144531 30.96875 C 54.136719 31.082031 54.183594 31.203125 54.203125 31.320312 C 54.3125 31.277344 54.441406 31.257812 54.523438 31.1875 C 54.605469 31.117188 54.640625 30.996094 54.695312 30.898438 C 55.257812 29.859375 55.820312 28.820312 56.386719 27.78125 C 57.535156 25.660156 58.6875 23.542969 59.835938 21.421875 C 59.90625 21.296875 59.964844 21.164062 60.039062 21.015625 Z M 87.824219 33.738281 C 87.816406 36.671875 87.8125 39.605469 87.808594 42.539062 C 87.796875 49.753906 87.785156 56.96875 87.777344 64.179688 C 87.773438 64.3125 87.761719 64.445312 87.785156 64.570312 C 87.800781 64.652344 87.855469 64.773438 87.921875 64.800781 C 88.515625 65.046875 89.082031 65.378906 89.742188 65.421875 C 90.9375 65.503906 92.027344 65.191406 92.960938 64.453125 C 93.859375 63.742188 94.707031 62.964844 95.570312 62.207031 C 96.257812 61.609375 96.972656 61.058594 97.867188 60.808594 C 98.117188 60.738281 98.367188 60.6875 98.660156 60.617188 C 98.679688 50.765625 98.699219 40.925781 98.707031 31.015625 C 95.042969 31.765625 91.460938 32.5 87.824219 33.246094 C 87.824219 33.449219 87.824219 33.59375 87.824219 33.738281 Z M 87.824219 33.738281 " fill-opacity="1" fill-rule="nonzero"/><g clip-path="url(#97f126fd50)"><path fill="#800000" d="M 51.191406 100.1875 C 51.191406 88.15625 51.191406 76.210938 51.191406 64.203125 C 51.554688 64.152344 51.882812 64.09375 52.214844 64.070312 C 53.335938 63.984375 54.394531 64.226562 55.414062 64.6875 C 56.4375 65.152344 57.367188 65.761719 58.234375 66.472656 C 58.820312 66.953125 59.410156 67.433594 60.023438 67.882812 C 60.695312 68.371094 61.4375 68.722656 62.238281 68.953125 C 63.058594 69.195312 63.875 69.1875 64.664062 68.886719 C 65.21875 68.671875 65.765625 68.414062 66.261719 68.089844 C 67.003906 67.605469 67.699219 67.046875 68.414062 66.515625 C 69.433594 65.757812 70.511719 65.121094 71.757812 64.800781 C 73.371094 64.386719 74.925781 64.488281 76.40625 65.300781 C 77.042969 65.652344 77.679688 66.003906 78.308594 66.367188 C 79.054688 66.800781 79.828125 67.132812 80.683594 67.300781 C 81.648438 67.488281 82.503906 67.296875 83.304688 66.742188 C 83.742188 66.4375 84.179688 66.132812 84.640625 65.867188 C 85.4375 65.40625 86.304688 65.179688 87.195312 65.125 C 87.234375 65.164062 87.246094 65.175781 87.257812 65.1875 C 87.269531 65.199219 87.285156 65.210938 87.289062 65.222656 C 87.300781 65.320312 87.3125 65.414062 87.3125 65.511719 C 87.296875 77.039062 87.28125 88.570312 87.261719 100.097656 C 87.261719 100.125 87.234375 100.152344 87.214844 100.1875 C 75.21875 100.1875 63.222656 100.1875 51.191406 100.1875 Z M 67.050781 18.972656 C 68.113281 19.0625 71.613281 19.03125 71.949219 18.929688 C 71.949219 16.570312 71.949219 14.210938 71.949219 11.832031 C 70.292969 11.832031 68.667969 11.832031 67.015625 11.832031 C 66.898438 12.5 66.9375 18.648438 67.050781 18.972656 Z M 77.8125 19 C 78.636719 19.097656 82.222656 19.074219 82.582031 18.96875 C 82.582031 16.601562 82.582031 14.230469 82.582031 11.828125 C 80.984375 11.828125 79.410156 11.828125 77.8125 11.828125 C 77.8125 14.257812 77.8125 16.632812 77.8125 19 Z M 92.523438 18.875 C 92.574219 17.484375 92.640625 16.089844 92.667969 14.699219 C 92.679688 14.054688 92.675781 13.402344 92.441406 12.78125 C 92.191406 12.109375 91.828125 11.808594 91.109375 11.792969 C 90.269531 11.777344 89.433594 11.792969 88.59375 11.796875 C 88.535156 11.796875 88.476562 11.828125 88.425781 11.839844 C 88.324219 12.613281 88.363281 18.738281 88.472656 19.082031 C 89.800781 19.082031 91.136719 19.082031 92.488281 19.082031 C 92.5 18.996094 92.519531 18.9375 92.523438 18.875 Z M 87.890625 32.761719 C 91.355469 32.050781 94.707031 31.363281 98.0625 30.675781 C 98.066406 30.644531 98.070312 30.609375 98.074219 30.578125 C 95.375 29.535156 92.675781 28.488281 89.917969 27.421875 C 89.238281 29.21875 88.582031 30.945312 87.890625 32.761719 Z M 60.070312 11.816406 C 59.242188 11.839844 58.792969 12.191406 58.582031 13 C 58.53125 13.1875 58.503906 13.382812 58.488281 13.574219 C 58.324219 15.238281 58.425781 16.90625 58.496094 18.570312 C 58.5 18.679688 58.535156 18.789062 58.558594 18.921875 C 59.375 18.921875 60.171875 18.921875 60.996094 18.921875 C 60.996094 16.554688 60.996094 14.214844 60.996094 11.8125 C 60.648438 11.8125 60.359375 11.804688 60.070312 11.816406 Z M 71.003906 28.660156 C 72.898438 28.484375 74.464844 26.710938 74.363281 24.800781 C 74.28125 23.226562 73.207031 22.003906 71.445312 21.964844 C 69.492188 21.921875 67.789062 23.683594 67.777344 25.667969 C 67.734375 27.601562 69.339844 28.8125 71.003906 28.660156 Z M 71.003906 28.660156 " fill-opacity="1" fill-rule="nonzero"/></g><g clip-path="url(#840e52a20d)"><path fill="#800000" d="M 98.628906 61.125 C 98.628906 73.246094 98.628906 85.304688 98.628906 97.421875 C 95.011719 98.308594 91.414062 99.1875 87.773438 100.078125 C 87.773438 88.449219 87.773438 76.867188 87.773438 65.234375 C 87.945312 65.292969 88.070312 65.324219 88.179688 65.378906 C 89.964844 66.292969 91.632812 65.949219 93.191406 64.855469 C 93.917969 64.34375 94.558594 63.71875 95.238281 63.144531 C 95.746094 62.714844 96.230469 62.261719 96.757812 61.859375 C 97.289062 61.449219 97.902344 61.210938 98.628906 61.125 Z M 66.488281 18.953125 C 66.488281 16.574219 66.488281 14.21875 66.488281 11.8125 C 64.808594 11.824219 63.160156 11.792969 61.507812 11.835938 C 61.507812 14.222656 61.507812 16.550781 61.507812 18.953125 C 63.191406 18.953125 64.828125 18.953125 66.488281 18.953125 Z M 87.941406 19.054688 C 87.941406 16.632812 87.941406 14.230469 87.941406 11.824219 C 86.277344 11.824219 84.6875 11.824219 83.074219 11.824219 C 83.074219 14.234375 83.074219 16.609375 83.074219 19.054688 C 84.714844 19.054688 86.304688 19.054688 87.941406 19.054688 Z M 77.230469 11.839844 C 76.320312 11.746094 72.800781 11.789062 72.480469 11.894531 C 72.480469 14.253906 72.480469 16.613281 72.480469 19 C 74.09375 19 75.667969 19 77.273438 19 C 77.371094 18.066406 77.332031 12.179688 77.230469 11.839844 Z M 90.082031 26.996094 C 92.878906 28.074219 95.605469 29.128906 98.335938 30.183594 C 98.355469 30.15625 98.375 30.128906 98.394531 30.101562 C 96.539062 26.738281 94.679688 23.375 92.773438 19.921875 C 91.855469 22.339844 90.972656 24.65625 90.082031 26.996094 Z M 67.5625 43.761719 C 67.523438 43.574219 67.457031 43.386719 67.375 43.214844 C 67.238281 42.929688 67.058594 42.667969 66.699219 42.667969 C 66.417969 42.667969 66.152344 42.980469 66.066406 43.375 C 66.054688 43.421875 66.046875 43.46875 66.046875 43.519531 C 65.996094 44.835938 66.605469 45.824219 67.609375 46.621094 C 67.699219 45.648438 67.75 44.703125 67.5625 43.761719 Z M 70.75 45.78125 C 70.992188 45.488281 71.027344 45.234375 70.871094 45.085938 C 70.71875 44.941406 70.464844 44.976562 70.179688 45.226562 C 69.699219 45.636719 69.445312 46.1875 69.277344 46.792969 C 69.839844 46.542969 70.363281 46.253906 70.75 45.78125 Z M 74.210938 28.585938 C 74.304688 28.609375 74.441406 28.578125 74.519531 28.519531 C 75.054688 28.121094 75.472656 27.625 75.746094 26.964844 C 75.328125 26.800781 74.945312 26.644531 74.609375 26.511719 C 74.152344 27.121094 73.722656 27.691406 73.265625 28.300781 C 73.574219 28.398438 73.890625 28.507812 74.210938 28.585938 Z M 76.039062 25.234375 C 76.03125 25.140625 75.957031 25.007812 75.875 24.972656 C 75.546875 24.824219 75.203125 24.710938 74.84375 24.574219 C 74.796875 25.109375 74.753906 25.585938 74.710938 26.09375 C 75.085938 26.238281 75.46875 26.386719 75.886719 26.546875 C 76.066406 26.066406 76.070312 25.648438 76.039062 25.234375 Z M 75.84375 24.371094 C 75.523438 23.585938 74.980469 23.035156 74.140625 22.71875 C 74.335938 23.148438 74.492188 23.519531 74.671875 23.875 C 74.726562 23.980469 74.824219 24.089844 74.929688 24.136719 C 75.203125 24.257812 75.492188 24.351562 75.773438 24.457031 C 75.796875 24.425781 75.820312 24.398438 75.84375 24.371094 Z M 72.875 28.621094 C 72.792969 28.59375 72.6875 28.605469 72.605469 28.636719 C 72.234375 28.78125 71.871094 28.941406 71.4375 29.121094 C 72.242188 29.34375 72.964844 29.292969 73.679688 28.898438 C 73.410156 28.804688 73.148438 28.703125 72.875 28.621094 Z M 72.875 28.621094 " fill-opacity="1" fill-rule="nonzero"/></g><g clip-path="url(#f088c8e415)"><path fill="#000000" d="M 50.773438 66.664062 C 50.773438 59.882812 50.769531 53.105469 50.773438 46.328125 C 50.773438 42.292969 50.78125 38.253906 50.785156 34.214844 C 50.785156 34.121094 50.800781 34.019531 50.785156 33.925781 C 50.65625 33.246094 50.90625 32.675781 51.21875 32.089844 C 53.445312 27.917969 55.644531 23.730469 57.863281 19.554688 C 58.027344 19.246094 58.117188 18.949219 58.089844 18.585938 C 57.964844 16.953125 57.894531 15.320312 58.015625 13.679688 C 58.050781 13.191406 58.132812 12.71875 58.375 12.28125 C 58.644531 11.796875 59.035156 11.480469 59.589844 11.417969 C 60.035156 11.367188 60.488281 11.339844 60.941406 11.339844 C 66.371094 11.332031 71.796875 11.339844 77.226562 11.335938 C 81.71875 11.332031 86.210938 11.320312 90.699219 11.320312 C 91.035156 11.320312 91.375 11.367188 91.707031 11.421875 C 92.1875 11.503906 92.511719 11.804688 92.722656 12.242188 C 92.953125 12.714844 93.09375 13.21875 93.089844 13.738281 C 93.082031 15.085938 93.085938 16.433594 93 17.773438 C 92.933594 18.792969 93.125 19.679688 93.640625 20.582031 C 95.398438 23.644531 97.066406 26.757812 98.785156 29.839844 C 99.054688 30.324219 99.1875 30.792969 99.179688 31.355469 C 99.144531 33.769531 99.148438 36.1875 99.144531 38.605469 C 99.136719 41.667969 99.132812 44.734375 99.128906 47.796875 C 99.117188 57.429688 99.109375 67.0625 99.097656 76.691406 C 99.09375 83.4375 99.089844 90.183594 99.082031 96.929688 C 99.082031 97.992188 99.09375 97.792969 98.242188 98 C 94.839844 98.824219 91.433594 99.648438 88.035156 100.496094 C 87.542969 100.617188 87.058594 100.675781 86.558594 100.675781 C 75.390625 100.660156 64.226562 100.648438 53.0625 100.636719 C 52.480469 100.636719 51.898438 100.648438 51.320312 100.636719 C 50.722656 100.621094 50.703125 100.59375 50.707031 99.984375 C 50.710938 94.894531 50.722656 89.800781 50.726562 84.710938 C 50.730469 78.695312 50.726562 72.679688 50.726562 66.664062 C 50.742188 66.664062 50.757812 66.664062 50.773438 66.664062 Z M 51.191406 100.1875 C 63.222656 100.1875 75.21875 100.1875 87.214844 100.1875 C 87.234375 100.152344 87.261719 100.125 87.261719 100.097656 C 87.28125 88.570312 87.296875 77.039062 87.3125 65.511719 C 87.3125 65.414062 87.300781 65.320312 87.289062 65.222656 C 87.285156 65.210938 87.269531 65.199219 87.257812 65.1875 C 87.246094 65.175781 87.234375 65.164062 87.195312 65.125 C 86.304688 65.179688 85.4375 65.40625 84.640625 65.867188 C 84.179688 66.132812 83.742188 66.4375 83.304688 66.742188 C 82.503906 67.296875 81.648438 67.488281 80.683594 67.300781 C 79.828125 67.132812 79.054688 66.800781 78.308594 66.367188 C 77.679688 66.003906 77.042969 65.652344 76.40625 65.300781 C 74.925781 64.488281 73.371094 64.386719 71.757812 64.800781 C 70.511719 65.121094 69.433594 65.757812 68.414062 66.515625 C 67.699219 67.046875 67.003906 67.605469 66.261719 68.089844 C 65.765625 68.414062 65.21875 68.671875 64.664062 68.886719 C 63.875 69.1875 63.058594 69.195312 62.238281 68.953125 C 61.4375 68.722656 60.695312 68.371094 60.023438 67.882812 C 59.410156 67.433594 58.820312 66.953125 58.234375 66.472656 C 57.367188 65.761719 56.4375 65.152344 55.414062 64.6875 C 54.394531 64.226562 53.335938 63.984375 52.214844 64.070312 C 51.882812 64.09375 51.554688 64.152344 51.191406 64.203125 C 51.191406 76.210938 51.191406 88.15625 51.191406 100.1875 Z M 87.316406 64.628906 C 87.328125 54.203125 87.363281 43.816406 87.363281 33.441406 C 86.3125 33.335938 51.703125 33.355469 51.300781 33.453125 C 51.199219 33.941406 51.179688 63.308594 51.289062 63.699219 C 51.492188 63.679688 51.699219 63.660156 51.910156 63.636719 C 52.605469 63.554688 53.296875 63.585938 53.980469 63.734375 C 55.546875 64.074219 56.898438 64.851562 58.148438 65.820312 C 58.699219 66.246094 59.226562 66.703125 59.773438 67.132812 C 60.359375 67.59375 60.992188 67.976562 61.679688 68.28125 C 62.882812 68.8125 64.066406 68.765625 65.226562 68.167969 C 65.527344 68.011719 65.828125 67.847656 66.105469 67.652344 C 66.738281 67.203125 67.363281 66.742188 67.976562 66.269531 C 68.734375 65.679688 69.53125 65.152344 70.414062 64.78125 C 72.496094 63.910156 74.578125 63.796875 76.628906 64.898438 C 77.226562 65.21875 77.804688 65.574219 78.410156 65.882812 C 78.996094 66.183594 79.585938 66.492188 80.207031 66.707031 C 81.296875 67.089844 82.339844 66.972656 83.261719 66.207031 C 83.375 66.117188 83.5 66.039062 83.617188 65.957031 C 84.417969 65.386719 85.289062 64.972656 86.257812 64.789062 C 86.585938 64.722656 86.925781 64.6875 87.316406 64.628906 Z M 51.335938 32.914062 C 63.382812 32.914062 75.351562 32.914062 87.335938 32.914062 C 88.863281 28.902344 90.386719 24.90625 91.90625 20.910156 C 92.054688 20.519531 92.195312 20.121094 92.339844 19.726562 C 92.347656 19.710938 92.347656 19.695312 92.34375 19.679688 C 92.34375 19.664062 92.34375 19.644531 92.335938 19.632812 C 92.332031 19.617188 92.316406 19.609375 92.269531 19.570312 C 92.160156 19.570312 92.015625 19.570312 91.875 19.566406 C 88.851562 19.550781 85.832031 19.53125 82.808594 19.515625 C 74.878906 19.476562 66.945312 19.445312 59.011719 19.394531 C 58.601562 19.390625 58.386719 19.511719 58.191406 19.882812 C 56 24.070312 53.785156 28.246094 51.574219 32.429688 C 51.5 32.570312 51.4375 32.714844 51.335938 32.914062 Z M 98.628906 61.125 C 97.902344 61.210938 97.289062 61.449219 96.757812 61.859375 C 96.230469 62.261719 95.746094 62.714844 95.238281 63.144531 C 94.558594 63.71875 93.917969 64.34375 93.191406 64.855469 C 91.632812 65.949219 89.964844 66.292969 88.179688 65.378906 C 88.070312 65.324219 87.945312 65.292969 87.773438 65.234375 C 87.773438 76.867188 87.773438 88.449219 87.773438 100.078125 C 91.414062 99.1875 95.011719 98.308594 98.628906 97.421875 C 98.628906 85.304688 98.628906 73.246094 98.628906 61.125 Z M 87.824219 33.246094 C 87.824219 33.449219 87.824219 33.59375 87.824219 33.738281 C 87.816406 36.671875 87.8125 39.605469 87.808594 42.539062 C 87.796875 49.753906 87.785156 56.96875 87.777344 64.179688 C 87.773438 64.3125 87.761719 64.445312 87.785156 64.570312 C 87.800781 64.652344 87.855469 64.773438 87.921875 64.800781 C 88.515625 65.046875 89.082031 65.378906 89.742188 65.421875 C 90.9375 65.503906 92.027344 65.191406 92.960938 64.453125 C 93.859375 63.742188 94.707031 62.964844 95.570312 62.207031 C 96.257812 61.609375 96.972656 61.058594 97.867188 60.808594 C 98.117188 60.738281 98.367188 60.6875 98.660156 60.617188 C 98.679688 50.765625 98.699219 40.925781 98.707031 31.015625 C 95.042969 31.765625 91.460938 32.5 87.824219 33.246094 Z M 67.015625 11.832031 C 66.898438 12.5 66.9375 18.648438 67.050781 18.972656 C 68.113281 19.0625 71.613281 19.03125 71.949219 18.929688 C 71.949219 16.570312 71.949219 14.210938 71.949219 11.832031 C 70.292969 11.832031 68.667969 11.832031 67.015625 11.832031 Z M 61.507812 18.953125 C 63.191406 18.953125 64.828125 18.953125 66.488281 18.953125 C 66.488281 16.574219 66.488281 14.21875 66.488281 11.8125 C 64.808594 11.824219 63.160156 11.792969 61.507812 11.835938 C 61.507812 14.222656 61.507812 16.550781 61.507812 18.953125 Z M 83.074219 19.054688 C 84.714844 19.054688 86.304688 19.054688 87.941406 19.054688 C 87.941406 16.632812 87.941406 14.230469 87.941406 11.824219 C 86.277344 11.824219 84.6875 11.824219 83.074219 11.824219 C 83.074219 14.234375 83.074219 16.609375 83.074219 19.054688 Z M 77.273438 19 C 77.371094 18.066406 77.332031 12.179688 77.230469 11.839844 C 76.320312 11.746094 72.800781 11.789062 72.480469 11.894531 C 72.480469 14.253906 72.480469 16.613281 72.480469 19 C 74.09375 19 75.667969 19 77.273438 19 Z M 77.8125 11.828125 C 77.8125 14.257812 77.8125 16.632812 77.8125 19 C 78.636719 19.097656 82.222656 19.074219 82.582031 18.96875 C 82.582031 16.601562 82.582031 14.230469 82.582031 11.828125 C 80.984375 11.828125 79.410156 11.828125 77.8125 11.828125 Z M 92.773438 19.921875 C 91.855469 22.339844 90.972656 24.65625 90.082031 26.996094 C 92.878906 28.074219 95.605469 29.128906 98.335938 30.183594 C 98.355469 30.15625 98.375 30.128906 98.394531 30.101562 C 96.539062 26.738281 94.679688 23.375 92.773438 19.921875 Z M 92.488281 19.082031 C 92.5 18.996094 92.519531 18.9375 92.523438 18.875 C 92.574219 17.484375 92.640625 16.089844 92.667969 14.699219 C 92.679688 14.054688 92.675781 13.402344 92.441406 12.78125 C 92.191406 12.109375 91.828125 11.808594 91.109375 11.792969 C 90.269531 11.777344 89.433594 11.792969 88.59375 11.796875 C 88.535156 11.796875 88.476562 11.828125 88.425781 11.839844 C 88.324219 12.613281 88.363281 18.738281 88.472656 19.082031 C 89.800781 19.082031 91.136719 19.082031 92.488281 19.082031 Z M 89.917969 27.421875 C 89.238281 29.21875 88.582031 30.945312 87.890625 32.761719 C 91.355469 32.050781 94.707031 31.363281 98.0625 30.675781 C 98.066406 30.644531 98.070312 30.609375 98.074219 30.578125 C 95.375 29.535156 92.675781 28.488281 89.917969 27.421875 Z M 60.996094 11.8125 C 60.648438 11.8125 60.359375 11.804688 60.070312 11.816406 C 59.242188 11.839844 58.792969 12.191406 58.582031 13 C 58.53125 13.1875 58.503906 13.382812 58.488281 13.574219 C 58.324219 15.238281 58.425781 16.90625 58.496094 18.570312 C 58.5 18.679688 58.535156 18.789062 58.558594 18.921875 C 59.375 18.921875 60.171875 18.921875 60.996094 18.921875 C 60.996094 16.554688 60.996094 14.214844 60.996094 11.8125 Z M 54.445312 51.804688 C 54.570312 51.984375 54.695312 52.164062 54.820312 52.34375 C 55.84375 53.84375 56.863281 55.339844 57.890625 56.835938 C 57.988281 56.984375 58.089844 57.1875 58.292969 57.113281 C 58.414062 57.070312 58.488281 56.886719 58.574219 56.761719 C 58.609375 56.710938 58.617188 56.640625 58.640625 56.578125 C 59.164062 55.0625 59.6875 53.546875 60.210938 52.03125 C 60.261719 51.886719 60.320312 51.742188 60.375 51.601562 C 60.519531 52.050781 60.570312 52.496094 60.617188 52.9375 C 60.804688 54.664062 60.988281 56.386719 61.171875 58.109375 C 61.183594 58.222656 61.183594 58.351562 61.238281 58.4375 C 61.292969 58.515625 61.421875 58.59375 61.507812 58.585938 C 61.582031 58.578125 61.675781 58.453125 61.695312 58.363281 C 61.722656 58.242188 61.699219 58.105469 61.683594 57.976562 C 61.40625 55.480469 61.125 52.984375 60.84375 50.488281 C 60.835938 50.390625 60.839844 50.285156 60.796875 50.203125 C 60.757812 50.128906 60.667969 50.046875 60.59375 50.039062 C 60.515625 50.035156 60.40625 50.097656 60.359375 50.164062 C 60.296875 50.25 60.277344 50.371094 60.238281 50.476562 C 59.613281 52.269531 58.992188 54.058594 58.367188 55.847656 C 58.308594 56.007812 58.242188 56.164062 58.160156 56.378906 C 58.023438 56.199219 57.921875 56.074219 57.832031 55.945312 C 56.714844 54.335938 55.601562 52.722656 54.484375 51.113281 C 54.402344 50.992188 54.324219 50.863281 54.214844 50.769531 C 54.058594 50.632812 53.84375 50.71875 53.832031 50.929688 C 53.820312 51.089844 53.847656 51.253906 53.871094 51.414062 C 54.152344 53.4375 54.433594 55.460938 54.71875 57.480469 C 54.785156 57.964844 54.851562 58.445312 54.925781 58.925781 C 54.949219 59.082031 55.046875 59.226562 55.214844 59.164062 C 55.296875 59.132812 55.332031 58.964844 55.371094 58.855469 C 55.386719 58.816406 55.363281 58.761719 55.355469 58.714844 C 55.15625 57.335938 54.953125 55.953125 54.753906 54.574219 C 54.621094 53.664062 54.492188 52.757812 54.359375 51.847656 C 54.386719 51.832031 54.417969 51.816406 54.445312 51.804688 Z M 80.546875 54.332031 C 81.433594 53.21875 82.324219 52.109375 83.210938 50.996094 C 83.300781 50.882812 83.402344 50.769531 83.460938 50.640625 C 83.488281 50.574219 83.457031 50.433594 83.40625 50.390625 C 83.347656 50.347656 83.207031 50.347656 83.144531 50.386719 C 83.042969 50.457031 82.964844 50.570312 82.882812 50.671875 C 82.003906 51.769531 81.128906 52.871094 80.246094 53.96875 C 80.152344 54.089844 80.046875 54.203125 79.894531 54.378906 C 79.855469 54.214844 79.828125 54.125 79.816406 54.039062 C 79.664062 52.964844 79.511719 51.890625 79.355469 50.816406 C 79.300781 50.445312 79.207031 50.308594 79.046875 50.371094 C 78.792969 50.472656 78.882812 50.683594 78.910156 50.871094 C 79.222656 53.082031 79.53125 55.292969 79.839844 57.507812 C 79.871094 57.730469 79.902344 57.957031 79.9375 58.179688 C 79.953125 58.292969 79.957031 58.414062 80.007812 58.507812 C 80.054688 58.59375 80.160156 58.640625 80.242188 58.703125 C 80.300781 58.625 80.417969 58.535156 80.414062 58.460938 C 80.378906 58.023438 80.316406 57.59375 80.257812 57.160156 C 80.171875 56.519531 80.082031 55.882812 79.984375 55.175781 C 80.203125 55.265625 80.347656 55.324219 80.492188 55.390625 C 81.515625 55.867188 82.539062 56.34375 83.5625 56.820312 C 84.0625 57.050781 84.558594 57.285156 85.058594 57.511719 C 85.191406 57.570312 85.351562 57.621094 85.4375 57.445312 C 85.523438 57.277344 85.402344 57.175781 85.265625 57.105469 C 85.164062 57.054688 85.0625 57.007812 84.957031 56.957031 C 83.554688 56.304688 82.148438 55.652344 80.746094 55 C 80.589844 54.925781 80.4375 54.84375 80.246094 54.746094 C 80.363281 54.589844 80.449219 54.457031 80.546875 54.332031 Z M 72.308594 57.972656 C 72.800781 55.84375 73.296875 53.714844 73.789062 51.585938 C 73.816406 51.472656 73.867188 51.359375 73.855469 51.253906 C 73.84375 51.144531 73.792969 50.988281 73.710938 50.945312 C 73.574219 50.871094 73.476562 50.992188 73.429688 51.128906 C 73.398438 51.234375 73.371094 51.347656 73.34375 51.457031 C 72.816406 53.746094 72.289062 56.03125 71.761719 58.320312 C 71.667969 58.722656 71.691406 58.773438 72.066406 58.875 C 73.015625 59.128906 73.96875 59.375 74.921875 59.625 C 75 59.644531 75.089844 59.679688 75.15625 59.65625 C 75.234375 59.632812 75.320312 59.5625 75.355469 59.488281 C 75.375 59.4375 75.324219 59.320312 75.273438 59.285156 C 75.183594 59.222656 75.070312 59.195312 74.960938 59.164062 C 74.371094 59.003906 73.777344 58.851562 73.183594 58.691406 C 72.875 58.609375 72.570312 58.523438 72.21875 58.425781 C 72.257812 58.226562 72.28125 58.097656 72.308594 57.972656 Z M 68.171875 45.578125 C 68.152344 45.933594 68.136719 46.386719 68.097656 46.835938 C 68.058594 47.296875 67.875 47.394531 67.511719 47.136719 C 66.445312 46.386719 65.789062 45.367188 65.589844 44.066406 C 65.535156 43.699219 65.566406 43.328125 65.714844 42.972656 C 65.898438 42.539062 66.207031 42.242188 66.683594 42.207031 C 67.128906 42.175781 67.445312 42.445312 67.671875 42.800781 C 67.925781 43.199219 68.046875 43.65625 68.085938 44.128906 C 68.125 44.578125 68.140625 45.03125 68.171875 45.578125 Z M 67.609375 46.621094 C 67.699219 45.648438 67.75 44.703125 67.5625 43.761719 C 67.523438 43.574219 67.457031 43.386719 67.375 43.214844 C 67.238281 42.929688 67.058594 42.667969 66.699219 42.667969 C 66.417969 42.667969 66.152344 42.980469 66.066406 43.375 C 66.054688 43.421875 66.046875 43.46875 66.046875 43.519531 C 65.996094 44.835938 66.605469 45.824219 67.609375 46.621094 Z M 65.710938 57.414062 C 65.800781 57.339844 65.90625 57.277344 65.980469 57.1875 C 66.027344 57.128906 66.03125 57.035156 66.050781 56.957031 C 66.617188 54.664062 67.179688 52.371094 67.746094 50.078125 C 67.773438 49.96875 67.808594 49.851562 67.792969 49.746094 C 67.78125 49.671875 67.699219 49.5625 67.632812 49.546875 C 67.566406 49.535156 67.449219 49.597656 67.40625 49.664062 C 67.34375 49.753906 67.328125 49.875 67.300781 49.984375 C 66.738281 52.261719 66.171875 54.535156 65.609375 56.8125 C 65.585938 56.90625 65.570312 57.003906 65.53125 57.167969 C 65.574219 57.226562 65.644531 57.320312 65.710938 57.414062 Z M 71.417969 45.300781 C 71.417969 45.664062 71.238281 45.953125 71 46.199219 C 70.464844 46.753906 69.804688 47.125 69.113281 47.441406 C 68.960938 47.507812 68.8125 47.511719 68.722656 47.375 C 68.664062 47.28125 68.636719 47.125 68.671875 47.023438 C 68.917969 46.375 69.144531 45.714844 69.601562 45.171875 C 69.855469 44.871094 70.144531 44.621094 70.558594 44.566406 C 71.054688 44.496094 71.417969 44.8125 71.417969 45.300781 Z M 69.277344 46.792969 C 69.839844 46.542969 70.363281 46.253906 70.75 45.78125 C 70.992188 45.488281 71.027344 45.234375 70.871094 45.085938 C 70.71875 44.941406 70.464844 44.976562 70.179688 45.226562 C 69.699219 45.636719 69.445312 46.1875 69.277344 46.792969 Z M 76.515625 25.535156 C 76.519531 27.996094 74.28125 30.03125 71.859375 29.664062 C 70.800781 29.503906 69.753906 29.128906 68.824219 28.574219 C 67.632812 27.855469 67.105469 26.394531 67.394531 24.921875 C 67.785156 22.9375 69.683594 21.285156 71.878906 21.539062 C 72.132812 21.570312 72.386719 21.632812 72.632812 21.710938 C 73.125 21.863281 73.609375 22.046875 74.097656 22.207031 C 75.597656 22.699219 76.511719 23.953125 76.515625 25.535156 Z M 67.777344 25.667969 C 67.734375 27.601562 69.339844 28.8125 71.003906 28.660156 C 72.898438 28.484375 74.464844 26.710938 74.363281 24.800781 C 74.28125 23.226562 73.207031 22.003906 71.445312 21.964844 C 69.492188 21.921875 67.789062 23.683594 67.777344 25.667969 Z M 73.265625 28.300781 C 73.574219 28.398438 73.890625 28.507812 74.210938 28.585938 C 74.304688 28.609375 74.441406 28.578125 74.519531 28.519531 C 75.054688 28.121094 75.472656 27.625 75.746094 26.964844 C 75.328125 26.800781 74.945312 26.644531 74.609375 26.511719 C 74.152344 27.121094 73.722656 27.691406 73.265625 28.300781 Z M 75.886719 26.546875 C 76.066406 26.066406 76.070312 25.648438 76.039062 25.234375 C 76.03125 25.140625 75.957031 25.007812 75.875 24.972656 C 75.546875 24.824219 75.203125 24.710938 74.84375 24.574219 C 74.796875 25.109375 74.753906 25.585938 74.710938 26.09375 C 75.085938 26.238281 75.46875 26.386719 75.886719 26.546875 Z M 75.773438 24.457031 C 75.796875 24.425781 75.820312 24.398438 75.84375 24.371094 C 75.523438 23.585938 74.980469 23.035156 74.140625 22.71875 C 74.335938 23.148438 74.492188 23.519531 74.671875 23.875 C 74.726562 23.980469 74.824219 24.089844 74.929688 24.136719 C 75.203125 24.257812 75.492188 24.351562 75.773438 24.457031 Z M 73.679688 28.898438 C 73.410156 28.804688 73.148438 28.703125 72.875 28.621094 C 72.792969 28.59375 72.6875 28.605469 72.605469 28.636719 C 72.234375 28.78125 71.871094 28.941406 71.4375 29.121094 C 72.242188 29.34375 72.964844 29.292969 73.679688 28.898438 Z M 59.902344 20.832031 C 59.824219 20.808594 59.703125 20.824219 59.648438 20.875 C 59.558594 20.957031 59.5 21.082031 59.441406 21.195312 C 57.714844 24.367188 55.992188 27.539062 54.273438 30.710938 C 54.226562 30.796875 54.152344 30.878906 54.144531 30.96875 C 54.136719 31.082031 54.183594 31.203125 54.203125 31.320312 C 54.3125 31.277344 54.441406 31.257812 54.523438 31.1875 C 54.605469 31.117188 54.640625 30.996094 54.695312 30.898438 C 55.257812 29.859375 55.820312 28.820312 56.386719 27.78125 C 57.535156 25.660156 58.6875 23.542969 59.835938 21.421875 C 59.90625 21.296875 59.964844 21.164062 60.039062 21.015625 C 59.992188 20.949219 59.957031 20.847656 59.902344 20.832031 Z M 59.902344 20.832031 " fill-opacity="1" fill-rule="nonzero"/></g></svg>