<svg xmlns="http://www.w3.org/2000/svg" xmlns:xlink="http://www.w3.org/1999/xlink" width="200" zoomAndPan="magnify" viewBox="0 0 150 112.499997" height="150" preserveAspectRatio="xMidYMid meet" version="1.0"><defs><clipPath id="de48ddb906"><path d="M 39.214844 11.199219 L 110.898438 11.199219 L 110.898438 72 L 39.214844 72 Z M 39.214844 11.199219 " clip-rule="nonzero"/></clipPath></defs><path fill="#e57d15" d="M 85.320312 87.960938 C 85.4375 89.320312 85.550781 90.660156 85.664062 92.019531 C 85.664062 92.34375 85.742188 92.6875 85.914062 92.976562 C 85.992188 93.089844 86.070312 93.183594 86.183594 93.28125 C 86.296875 93.375 86.414062 93.472656 86.546875 93.566406 C 87.296875 94.105469 88.101562 94.523438 88.964844 94.851562 C 91.703125 95.863281 94.695312 96.035156 97.53125 95.367188 C 98.277344 95.195312 99.027344 94.925781 99.714844 94.601562 C 100.3125 94.332031 100.886719 93.988281 101.402344 93.605469 C 101.632812 93.433594 101.863281 93.242188 102.074219 93.050781 C 102.746094 92.4375 103.300781 91.710938 103.683594 90.890625 C 104.203125 89.757812 104.375 88.515625 104.183594 87.289062 C 104.164062 87.136719 104.125 86.964844 104.085938 86.8125 C 103.894531 86.085938 103.320312 84.839844 102.476562 83.675781 C 101.941406 82.925781 101.308594 82.277344 100.558594 81.742188 C 99.488281 80.996094 98.242188 80.667969 96.917969 81.261719 C 95.921875 81.722656 95.785156 82.792969 96.191406 83.617188 C 96.398438 84 96.648438 84.34375 96.9375 84.648438 C 97.28125 85.050781 97.683594 85.433594 97.992188 85.835938 C 98.144531 86.027344 98.277344 86.238281 98.394531 86.46875 C 98.625 86.90625 98.757812 87.367188 98.816406 87.863281 C 98.875 88.363281 98.816406 88.878906 98.644531 89.359375 C 98.453125 89.894531 98.144531 90.371094 97.703125 90.753906 C 97.398438 91.023438 97.050781 91.234375 96.667969 91.40625 C 96.496094 91.480469 96.304688 91.539062 96.132812 91.597656 C 95.347656 91.828125 94.523438 91.921875 93.714844 91.882812 C 93.371094 91.863281 93.046875 91.84375 92.71875 91.808594 C 92.183594 91.75 91.664062 91.636719 91.148438 91.519531 C 90.265625 91.308594 89.421875 91.003906 88.617188 90.601562 C 87.351562 89.988281 86.222656 89.089844 85.320312 87.960938 Z M 85.320312 87.960938 " fill-opacity="1" fill-rule="nonzero"/><path fill="#e57d15" d="M 86.375 64.574219 C 87.121094 65.089844 87.792969 67.445312 88.15625 68.210938 C 89.421875 70.890625 90.613281 73.589844 91.472656 76.421875 C 91.953125 77.933594 92.316406 79.558594 91.933594 81.089844 C 91.664062 82.144531 90.285156 83.578125 89.136719 83.710938 C 87.21875 83.941406 87.332031 81.703125 87.21875 80.25 C 86.835938 74.851562 84.496094 69.820312 82.195312 64.917969 C 82.386719 65.300781 85.761719 64.230469 86.277344 64.5 C 86.296875 64.515625 86.335938 64.554688 86.375 64.574219 Z M 86.375 64.574219 " fill-opacity="1" fill-rule="nonzero"/><path fill="#e57d15" d="M 63.546875 62.929688 L 58.984375 72.230469 C 58.292969 73.644531 57.582031 75.101562 57.371094 76.652344 C 57.160156 78.199219 57.527344 79.941406 58.695312 80.996094 C 59.269531 81.511719 60.113281 81.855469 60.824219 81.53125 C 61.648438 81.148438 61.859375 80.113281 62.011719 79.234375 C 62.472656 76.535156 63.144531 73.875 64.042969 71.273438 C 64.828125 68.996094 67.015625 66.011719 67.226562 63.75 C 66.039062 63.386719 64.773438 63.195312 63.546875 62.929688 Z M 63.546875 62.929688 " fill-opacity="1" fill-rule="nonzero"/><path fill="#ee8e22" d="M 58.984375 97.703125 C 59.019531 98.085938 59.136719 98.449219 59.328125 98.753906 C 59.367188 98.8125 59.40625 98.851562 59.425781 98.886719 C 59.882812 99.425781 60.667969 99.578125 61.398438 99.652344 C 65.328125 100.113281 69.277344 100 73.167969 99.289062 C 73.1875 99.195312 73.207031 99.078125 73.226562 98.984375 C 73.589844 96.496094 73.320312 93.96875 72.421875 91.617188 L 75.21875 91.730469 C 74.855469 93.605469 74.796875 95.539062 75.066406 97.453125 C 75.140625 97.96875 75.238281 98.523438 75.621094 98.886719 C 75.640625 98.90625 75.679688 98.945312 75.699219 98.964844 C 76.140625 99.347656 76.789062 99.425781 77.402344 99.460938 C 79.550781 99.597656 87.8125 100.78125 89.191406 98.140625 C 89.289062 97.949219 89.367188 97.722656 89.382812 97.511719 C 89.519531 96.210938 89.441406 94.871094 89.421875 93.566406 C 89.382812 91.289062 89.308594 88.996094 89.117188 86.71875 C 88.734375 82.488281 87.945312 78.296875 86.777344 74.199219 C 86.144531 72 85.453125 67.714844 83.59375 66.164062 C 83.441406 66.046875 83.289062 65.933594 83.136719 65.835938 C 81.621094 64.976562 79.472656 65.246094 77.882812 65.167969 C 76.042969 65.074219 74.070312 64.917969 72.324219 64.707031 C 70.003906 64.421875 67.648438 63.175781 65.960938 65.148438 C 63.582031 67.941406 62.757812 71.980469 61.800781 75.425781 C 60.574219 79.847656 59.941406 84.402344 59.328125 88.957031 C 58.90625 91.863281 58.523438 94.8125 58.984375 97.703125 Z M 58.984375 97.703125 " fill-opacity="1" fill-rule="nonzero"/><path fill="#f7bb37" d="M 80.585938 65.703125 C 80.644531 65.953125 80.703125 66.257812 80.796875 66.660156 C 81.085938 67.695312 81.542969 68.652344 81.890625 69.664062 C 83.019531 72.59375 83.882812 75.617188 84.496094 78.699219 C 84.898438 80.707031 85.167969 82.773438 84.898438 84.804688 C 84.628906 86.832031 83.730469 88.839844 82.121094 90.105469 C 80.03125 91.75 77.15625 91.902344 74.472656 91.980469 C 71.289062 92.074219 67.6875 92 65.5 89.703125 C 63.238281 87.308594 63.449219 83.558594 63.96875 80.304688 C 64.65625 76 65.652344 71.730469 66.917969 67.542969 C 67.246094 66.488281 67.648438 65.359375 68.566406 64.765625 C 69.390625 64.230469 70.425781 64.25 71.40625 64.289062 C 73.839844 64.363281 76.984375 63.941406 79.339844 64.554688 C 80.355469 64.824219 80.453125 65.035156 80.585938 65.703125 Z M 80.585938 65.703125 " fill-opacity="1" fill-rule="nonzero"/><path fill="#f7bb37" d="M 75.699219 98.984375 C 76.140625 99.367188 76.789062 99.441406 77.402344 99.480469 C 79.550781 99.617188 87.8125 100.800781 89.191406 98.160156 C 88.886719 97.164062 88.253906 96.515625 86.335938 96.746094 C 85.820312 96.917969 85.261719 96.765625 84.917969 96.34375 C 83.5 95.269531 81.542969 95.269531 80.125 96.34375 C 80.03125 96.4375 79.914062 96.515625 79.78125 96.554688 C 79.570312 96.628906 79.320312 96.535156 79.109375 96.476562 C 77.980469 96.191406 76.773438 96.898438 76.15625 97.914062 C 75.949219 98.257812 75.792969 98.601562 75.699219 98.984375 Z M 75.699219 98.984375 " fill-opacity="1" fill-rule="nonzero"/><path fill="#f7bb37" d="M 59.425781 98.90625 C 59.882812 99.441406 60.667969 99.597656 61.398438 99.671875 C 65.328125 100.132812 69.277344 100.015625 73.167969 99.308594 C 73.1875 99.214844 73.207031 99.097656 73.226562 99.003906 C 72.785156 98.371094 72.285156 97.777344 71.769531 97.203125 C 71.019531 96.382812 69.601562 96.226562 68.511719 96.457031 C 68.242188 96.535156 67.972656 96.574219 67.703125 96.574219 C 67.492188 96.554688 67.300781 96.476562 67.109375 96.382812 C 66.382812 96.054688 65.671875 95.691406 64.886719 95.671875 C 64.101562 95.652344 63.238281 96.152344 63.144531 96.9375 C 62.605469 96.515625 61.820312 96.535156 61.207031 96.839844 C 60.59375 97.148438 60.132812 97.683594 59.789062 98.257812 C 59.636719 98.46875 59.519531 98.679688 59.425781 98.90625 Z M 59.425781 98.90625 " fill-opacity="1" fill-rule="nonzero"/><path fill="#f7bb37" d="M 99.179688 84.6875 C 98.910156 84.707031 98.644531 84.785156 98.394531 84.917969 C 98.125 85.070312 97.800781 85.128906 97.511719 85.070312 C 97.339844 85.03125 97.167969 85.03125 96.996094 85.050781 C 96.59375 85.089844 96.171875 85.203125 95.804688 85.03125 C 95.191406 84.746094 95.136719 83.882812 94.695312 83.367188 C 94.386719 83.003906 93.890625 82.792969 93.699219 82.351562 C 93.621094 82.125 93.601562 81.875 93.621094 81.625 C 93.660156 80.917969 93.734375 80.230469 93.832031 79.519531 C 93.910156 78.890625 94.023438 78.21875 94.425781 77.722656 C 94.539062 77.589844 94.65625 77.433594 94.769531 77.28125 C 94.867188 77.089844 94.945312 76.878906 95 76.6875 C 95.402344 75.730469 96.609375 75.445312 97.644531 75.40625 C 97.78125 75.386719 97.933594 75.40625 98.050781 75.484375 C 98.164062 75.578125 98.222656 75.730469 98.316406 75.847656 C 98.625 76.210938 99.238281 75.960938 99.699219 76.09375 C 100.367188 76.285156 100.714844 77.242188 101.402344 77.1875 C 101.613281 77.167969 101.84375 77.035156 102.035156 77.222656 C 102.113281 77.300781 102.152344 77.398438 102.152344 77.511719 C 102.171875 77.933594 102.054688 78.410156 102.246094 78.792969 C 102.324219 78.929688 102.4375 79.042969 102.59375 79.101562 C 102.976562 79.253906 103.167969 79.691406 103.011719 80.074219 C 103.011719 80.074219 103.011719 80.09375 102.996094 80.09375 L 102.976562 80.152344 C 102.839844 80.476562 102.820312 80.859375 102.898438 81.207031 C 102.957031 81.550781 102.765625 81.875 102.4375 81.988281 C 102.304688 82.027344 102.1875 82.105469 102.09375 82.179688 C 101.785156 82.46875 101.632812 82.871094 101.363281 83.214844 C 101.039062 83.597656 100.65625 83.902344 100.214844 84.152344 L 99.371094 84.6875 Z M 99.179688 84.6875 " fill-opacity="1" fill-rule="nonzero"/><g clip-path="url(#de48ddb906)"><path fill="#ee8e22" d="M 84.34375 17.382812 C 80.605469 14.089844 75.949219 12.042969 71 11.46875 C 69.257812 11.257812 66.957031 11.199219 67.1875 13.707031 C 67.300781 14.816406 68.125 15.699219 69.21875 15.90625 C 65.289062 15.066406 61.246094 14.953125 57.277344 15.5625 C 55.378906 15.851562 53.214844 16.117188 53.730469 18.683594 C 54.019531 20.15625 55.628906 21.34375 57.601562 21.265625 C 58.484375 21.226562 52.523438 21.898438 47.828125 24.40625 C 45.832031 25.4375 44.089844 26.875 42.652344 28.617188 C 41.175781 29.6875 40.636719 31.46875 41.175781 32.671875 C 41.867188 34.203125 44.433594 35.027344 46.523438 33.589844 C 45.46875 34.757812 41.445312 39.238281 39.871094 44.078125 C 39.410156 45.6875 39.21875 47.371094 39.316406 49.054688 C 39.375 49.742188 39.738281 51.65625 40.429688 52 C 41.117188 52.347656 43.207031 50.851562 43.1875 49.972656 C 43.320312 56.59375 46.523438 62.796875 51.851562 66.738281 C 52.636719 67.503906 53.691406 67.808594 54.441406 67.484375 C 55.476562 67.003906 56.03125 65.207031 54.996094 63.617188 C 56.144531 65.167969 57.507812 66.527344 59.058594 67.675781 C 65.136719 72.132812 76.578125 72.6875 83.402344 69.703125 C 85.4375 68.804688 87.277344 67.484375 88.753906 65.820312 C 87.21875 67.3125 86.488281 68.707031 86.910156 69.320312 C 87.007812 69.453125 87.257812 69.703125 88.023438 69.683594 C 89.097656 69.550781 90.152344 69.300781 91.167969 68.9375 C 95.269531 67.503906 97.644531 64.707031 99.46875 62.488281 C 101.882812 59.542969 103.703125 56.171875 104.816406 52.539062 L 105.179688 53.820312 C 105.8125 54.316406 106.636719 54.777344 107.382812 54.566406 C 109.703125 53.933594 109.972656 47.601562 109.589844 43.886719 C 109.242188 40.59375 108.246094 37.398438 106.636719 34.492188 C 106.714844 34.585938 107.59375 35.714844 108.667969 35.601562 C 109.800781 35.464844 110.890625 33.898438 110.507812 31.925781 C 110.066406 30.835938 109.511719 29.78125 108.839844 28.808594 C 105.773438 24.347656 101.191406 22.625 99.066406 21.992188 C 100.234375 22.703125 101.730469 22.339844 102.4375 21.171875 C 103.089844 20.097656 102.820312 18.703125 101.824219 17.9375 C 101 17.496094 100.136719 17.132812 99.257812 16.828125 C 93.199219 14.742188 87.429688 16.253906 84.34375 17.382812 Z M 84.34375 17.382812 " fill-opacity="1" fill-rule="nonzero"/></g><path fill="#f7bb37" d="M 53.367188 43.636719 C 53.441406 51.332031 58.886719 56.460938 59.460938 56.996094 C 64.753906 61.855469 71.230469 61.894531 75.792969 61.933594 C 80.394531 61.972656 85.742188 62.011719 90.304688 58.335938 C 95.84375 53.875 97.570312 46.144531 96.398438 40.097656 C 94.503906 30.335938 84.554688 21.839844 73.320312 22.757812 C 61.972656 23.714844 53.269531 33.800781 53.367188 43.636719 Z M 53.367188 43.636719 " fill-opacity="1" fill-rule="nonzero"/><path fill="#f7bb37" d="M 97.207031 27.359375 C 97.316406 27.652344 97.390625 27.949219 97.433594 28.261719 C 97.476562 28.570312 97.484375 28.878906 97.460938 29.195312 C 97.4375 29.507812 97.378906 29.820312 97.289062 30.128906 C 97.199219 30.4375 97.078125 30.738281 96.925781 31.027344 C 96.769531 31.316406 96.589844 31.59375 96.382812 31.855469 C 96.171875 32.113281 95.9375 32.355469 95.679688 32.578125 C 95.421875 32.800781 95.144531 32.996094 94.851562 33.171875 C 94.554688 33.34375 94.242188 33.492188 93.921875 33.609375 C 93.597656 33.730469 93.265625 33.820312 92.925781 33.878906 C 92.589844 33.941406 92.25 33.96875 91.910156 33.96875 C 91.570312 33.964844 91.234375 33.933594 90.90625 33.871094 C 90.578125 33.808594 90.261719 33.71875 89.957031 33.597656 C 89.652344 33.472656 89.363281 33.324219 89.09375 33.148438 C 88.824219 32.972656 88.578125 32.773438 88.355469 32.550781 C 88.132812 32.328125 87.9375 32.085938 87.769531 31.824219 C 87.597656 31.558594 87.460938 31.285156 87.351562 30.992188 C 87.246094 30.699219 87.171875 30.402344 87.128906 30.09375 C 87.085938 29.785156 87.078125 29.472656 87.101562 29.15625 C 87.125 28.84375 87.183594 28.53125 87.273438 28.222656 C 87.363281 27.914062 87.484375 27.613281 87.636719 27.324219 C 87.789062 27.035156 87.96875 26.757812 88.179688 26.5 C 88.390625 26.238281 88.621094 25.996094 88.878906 25.773438 C 89.136719 25.550781 89.414062 25.355469 89.710938 25.179688 C 90.007812 25.007812 90.316406 24.859375 90.640625 24.742188 C 90.964844 24.621094 91.296875 24.53125 91.632812 24.472656 C 91.972656 24.414062 92.3125 24.382812 92.652344 24.382812 C 92.992188 24.386719 93.324219 24.417969 93.652344 24.480469 C 93.984375 24.542969 94.300781 24.632812 94.605469 24.757812 C 94.910156 24.878906 95.195312 25.027344 95.464844 25.203125 C 95.734375 25.378906 95.980469 25.578125 96.203125 25.800781 C 96.429688 26.023438 96.625 26.265625 96.792969 26.53125 C 96.960938 26.792969 97.101562 27.070312 97.207031 27.359375 Z M 97.207031 27.359375 " fill-opacity="1" fill-rule="nonzero"/><path fill="#f7bb37" d="M 62.929688 23.070312 C 63.253906 23.1875 63.5625 23.335938 63.859375 23.507812 C 64.15625 23.683594 64.429688 23.878906 64.6875 24.101562 C 64.945312 24.324219 65.179688 24.566406 65.390625 24.824219 C 65.597656 25.085938 65.78125 25.363281 65.933594 25.652344 C 66.085938 25.941406 66.207031 26.242188 66.296875 26.550781 C 66.386719 26.859375 66.445312 27.171875 66.46875 27.484375 C 66.492188 27.800781 66.484375 28.113281 66.441406 28.421875 C 66.398438 28.730469 66.324219 29.027344 66.214844 29.320312 C 66.109375 29.613281 65.96875 29.886719 65.800781 30.152344 C 65.632812 30.414062 65.4375 30.65625 65.214844 30.878906 C 64.988281 31.101562 64.742188 31.300781 64.472656 31.476562 C 64.203125 31.652344 63.917969 31.800781 63.613281 31.921875 C 63.308594 32.046875 62.992188 32.136719 62.664062 32.199219 C 62.332031 32.261719 62 32.292969 61.660156 32.296875 C 61.320312 32.296875 60.980469 32.265625 60.640625 32.207031 C 60.304688 32.148438 59.972656 32.058594 59.648438 31.9375 C 59.324219 31.820312 59.015625 31.671875 58.71875 31.5 C 58.421875 31.324219 58.144531 31.128906 57.886719 30.90625 C 57.628906 30.683594 57.398438 30.441406 57.1875 30.183594 C 56.976562 29.921875 56.796875 29.644531 56.644531 29.355469 C 56.492188 29.066406 56.371094 28.765625 56.28125 28.457031 C 56.191406 28.148438 56.132812 27.835938 56.109375 27.523438 C 56.085938 27.207031 56.09375 26.894531 56.136719 26.585938 C 56.179688 26.277344 56.253906 25.980469 56.363281 25.6875 C 56.46875 25.394531 56.605469 25.121094 56.777344 24.855469 C 56.945312 24.59375 57.140625 24.351562 57.363281 24.128906 C 57.585938 23.90625 57.832031 23.707031 58.101562 23.53125 C 58.371094 23.355469 58.660156 23.207031 58.964844 23.082031 C 59.269531 22.960938 59.585938 22.871094 59.914062 22.808594 C 60.242188 22.746094 60.578125 22.714844 60.917969 22.710938 C 61.257812 22.710938 61.597656 22.738281 61.9375 22.800781 C 62.273438 22.859375 62.605469 22.949219 62.929688 23.070312 Z M 62.929688 23.070312 " fill-opacity="1" fill-rule="nonzero"/><path fill="#000000" d="M 69.179688 45.648438 C 69.199219 44.402344 71.671875 43.886719 74.757812 43.925781 L 74.949219 43.925781 C 78.015625 44 80.472656 44.632812 80.453125 45.878906 C 80.433594 47.121094 77.941406 48.539062 74.855469 48.519531 L 74.664062 48.519531 C 71.578125 48.402344 69.140625 46.890625 69.179688 45.648438 Z M 69.179688 45.648438 " fill-opacity="1" fill-rule="nonzero"/><path fill="#000000" d="M 74.664062 52.710938 C 74.492188 52.710938 74.355469 52.554688 74.355469 52.382812 L 74.433594 48.519531 C 74.433594 48.347656 74.585938 48.210938 74.757812 48.210938 C 74.929688 48.210938 75.066406 48.367188 75.066406 48.539062 L 74.988281 52.402344 C 74.96875 52.574219 74.835938 52.710938 74.664062 52.710938 Z M 74.664062 52.710938 " fill-opacity="1" fill-rule="nonzero"/><path fill="#000000" d="M 70.808594 55.390625 L 70.714844 55.390625 C 68.835938 55.351562 67.1875 54.125 66.613281 52.328125 C 66.554688 52.171875 66.632812 51.980469 66.804688 51.925781 C 66.957031 51.867188 67.148438 51.945312 67.207031 52.117188 C 67.207031 52.117188 67.207031 52.136719 67.207031 52.136719 C 67.703125 53.667969 69.125 54.71875 70.734375 54.757812 L 70.808594 54.757812 C 72.402344 54.757812 73.820312 53.761719 74.355469 52.289062 C 74.414062 52.136719 74.585938 52.039062 74.757812 52.097656 C 74.929688 52.15625 75.007812 52.328125 74.949219 52.5 C 74.316406 54.242188 72.667969 55.390625 70.808594 55.390625 Z M 70.808594 55.390625 " fill-opacity="1" fill-rule="nonzero"/><path fill="#000000" d="M 78.554688 55.542969 L 78.457031 55.542969 C 76.578125 55.503906 74.929688 54.277344 74.355469 52.480469 C 74.300781 52.308594 74.394531 52.136719 74.566406 52.078125 C 74.738281 52.019531 74.914062 52.117188 74.96875 52.289062 C 75.46875 53.820312 76.867188 54.890625 78.496094 54.910156 L 78.574219 54.910156 C 80.164062 54.910156 81.582031 53.914062 82.121094 52.441406 C 82.195312 52.289062 82.367188 52.210938 82.542969 52.289062 C 82.675781 52.347656 82.753906 52.519531 82.714844 52.652344 C 82.0625 54.394531 80.414062 55.542969 78.554688 55.542969 Z M 78.554688 55.542969 " fill-opacity="1" fill-rule="nonzero"/><path fill="#000000" d="M 61.476562 45.628906 C 58.003906 44.441406 54.34375 43.484375 50.644531 43.734375 C 49.609375 43.808594 48.59375 43.984375 47.597656 44.25 C 47.445312 44.289062 47.289062 44.191406 47.269531 44.039062 C 47.25 43.90625 47.328125 43.773438 47.445312 43.714844 C 51.085938 42.699219 54.9375 43.160156 58.542969 44.136719 C 59.578125 44.421875 60.613281 44.75 61.628906 45.09375 C 61.953125 45.207031 61.800781 45.742188 61.476562 45.628906 Z M 61.476562 45.628906 " fill-opacity="1" fill-rule="nonzero"/><path fill="#000000" d="M 61.226562 47.808594 C 57.582031 47.390625 53.789062 47.234375 50.222656 48.269531 C 49.226562 48.554688 48.285156 48.9375 47.367188 49.417969 C 47.058594 49.589844 46.773438 49.113281 47.078125 48.9375 C 50.433594 47.160156 54.285156 46.796875 58.023438 46.988281 C 59.097656 47.042969 60.152344 47.140625 61.226562 47.253906 C 61.570312 47.292969 61.570312 47.847656 61.226562 47.808594 Z M 61.226562 47.808594 " fill-opacity="1" fill-rule="nonzero"/><path fill="#000000" d="M 87.871094 45.628906 C 91.339844 44.441406 95 43.484375 98.699219 43.734375 C 99.734375 43.808594 100.75 43.984375 101.75 44.25 C 101.902344 44.289062 102.054688 44.191406 102.074219 44.039062 C 102.09375 43.90625 102.015625 43.773438 101.902344 43.714844 C 98.257812 42.699219 94.40625 43.160156 90.804688 44.136719 C 89.769531 44.421875 88.734375 44.75 87.734375 45.09375 C 87.390625 45.207031 87.523438 45.742188 87.871094 45.628906 Z M 87.871094 45.628906 " fill-opacity="1" fill-rule="nonzero"/><path fill="#000000" d="M 88.121094 47.808594 C 91.761719 47.390625 95.558594 47.234375 99.121094 48.269531 C 100.117188 48.554688 101.058594 48.9375 101.976562 49.417969 C 102.285156 49.589844 102.574219 49.113281 102.265625 48.9375 C 98.910156 47.160156 95.058594 46.796875 91.320312 46.988281 C 90.246094 47.042969 89.191406 47.140625 88.121094 47.253906 C 87.753906 47.292969 87.753906 47.847656 88.121094 47.808594 Z M 88.121094 47.808594 " fill-opacity="1" fill-rule="nonzero"/><path fill="#000000" d="M 80.011719 51.390625 C 80.011719 51.496094 79.972656 51.585938 79.898438 51.660156 C 79.824219 51.734375 79.734375 51.773438 79.628906 51.773438 C 79.523438 51.773438 79.429688 51.734375 79.355469 51.660156 C 79.28125 51.585938 79.246094 51.496094 79.246094 51.390625 C 79.246094 51.285156 79.28125 51.191406 79.355469 51.117188 C 79.429688 51.042969 79.523438 51.007812 79.628906 51.007812 C 79.734375 51.007812 79.824219 51.042969 79.898438 51.117188 C 79.972656 51.191406 80.011719 51.285156 80.011719 51.390625 Z M 80.011719 51.390625 " fill-opacity="1" fill-rule="nonzero"/><path fill="#000000" d="M 78.824219 52.078125 C 78.824219 52.183594 78.785156 52.273438 78.710938 52.347656 C 78.636719 52.421875 78.546875 52.460938 78.4375 52.460938 C 78.332031 52.460938 78.242188 52.421875 78.167969 52.347656 C 78.09375 52.273438 78.054688 52.183594 78.054688 52.078125 C 78.054688 51.972656 78.09375 51.882812 78.167969 51.808594 C 78.242188 51.734375 78.332031 51.695312 78.4375 51.695312 C 78.546875 51.695312 78.636719 51.734375 78.710938 51.808594 C 78.785156 51.882812 78.824219 51.972656 78.824219 52.078125 Z M 78.824219 52.078125 " fill-opacity="1" fill-rule="nonzero"/><path fill="#000000" d="M 78.707031 50.796875 C 78.707031 50.902344 78.671875 50.992188 78.59375 51.066406 C 78.519531 51.140625 78.429688 51.179688 78.324219 51.179688 C 78.21875 51.179688 78.128906 51.140625 78.054688 51.066406 C 77.976562 50.992188 77.941406 50.902344 77.941406 50.796875 C 77.941406 50.691406 77.976562 50.601562 78.054688 50.523438 C 78.128906 50.449219 78.21875 50.414062 78.324219 50.414062 C 78.429688 50.414062 78.519531 50.449219 78.59375 50.523438 C 78.671875 50.601562 78.707031 50.691406 78.707031 50.796875 Z M 78.707031 50.796875 " fill-opacity="1" fill-rule="nonzero"/><path fill="#000000" d="M 70.582031 51.390625 C 70.582031 51.496094 70.542969 51.585938 70.46875 51.660156 C 70.394531 51.734375 70.300781 51.773438 70.195312 51.773438 C 70.089844 51.773438 70 51.734375 69.925781 51.660156 C 69.851562 51.585938 69.8125 51.496094 69.8125 51.390625 C 69.8125 51.285156 69.851562 51.191406 69.925781 51.117188 C 70 51.042969 70.089844 51.007812 70.195312 51.007812 C 70.300781 51.007812 70.394531 51.042969 70.46875 51.117188 C 70.542969 51.191406 70.582031 51.285156 70.582031 51.390625 Z M 70.582031 51.390625 " fill-opacity="1" fill-rule="nonzero"/><path fill="#000000" d="M 71.789062 52.078125 C 71.789062 52.183594 71.75 52.273438 71.675781 52.347656 C 71.601562 52.421875 71.511719 52.460938 71.40625 52.460938 C 71.296875 52.460938 71.207031 52.421875 71.132812 52.347656 C 71.058594 52.273438 71.019531 52.183594 71.019531 52.078125 C 71.019531 51.972656 71.058594 51.882812 71.132812 51.808594 C 71.207031 51.734375 71.296875 51.695312 71.40625 51.695312 C 71.511719 51.695312 71.601562 51.734375 71.675781 51.808594 C 71.75 51.882812 71.789062 51.972656 71.789062 52.078125 Z M 71.789062 52.078125 " fill-opacity="1" fill-rule="nonzero"/><path fill="#000000" d="M 71.902344 50.796875 C 71.902344 50.902344 71.867188 50.992188 71.789062 51.066406 C 71.714844 51.140625 71.625 51.179688 71.519531 51.179688 C 71.414062 51.179688 71.324219 51.140625 71.25 51.066406 C 71.171875 50.992188 71.136719 50.902344 71.136719 50.796875 C 71.136719 50.691406 71.171875 50.601562 71.25 50.523438 C 71.324219 50.449219 71.414062 50.414062 71.519531 50.414062 C 71.625 50.414062 71.714844 50.449219 71.789062 50.523438 C 71.867188 50.601562 71.902344 50.691406 71.902344 50.796875 Z M 71.902344 50.796875 " fill-opacity="1" fill-rule="nonzero"/><path fill="#000000" d="M 65.75 35.714844 C 66.613281 35.714844 67.320312 36.40625 67.320312 37.265625 L 67.320312 39.445312 C 67.320312 40.308594 66.632812 40.996094 65.769531 40.996094 C 64.90625 40.996094 64.214844 40.308594 64.214844 39.445312 L 64.214844 37.265625 C 64.195312 36.40625 64.886719 35.714844 65.75 35.714844 Z M 65.75 35.714844 " fill-opacity="1" fill-rule="nonzero"/><path fill="#000000" d="M 85.300781 37.035156 C 86.164062 37.035156 86.875 37.726562 86.875 38.585938 L 86.875 40.769531 C 86.875 41.628906 86.183594 42.316406 85.320312 42.316406 C 84.457031 42.316406 83.769531 41.628906 83.769531 40.769531 L 83.769531 38.585938 C 83.730469 37.742188 84.4375 37.035156 85.300781 37.035156 Z M 85.300781 37.035156 " fill-opacity="1" fill-rule="nonzero"/></svg>