<svg xmlns="http://www.w3.org/2000/svg" xmlns:xlink="http://www.w3.org/1999/xlink" width="200" zoomAndPan="magnify" viewBox="0 0 150 112.499997" height="150" preserveAspectRatio="xMidYMid meet" version="1.0"><defs><clipPath id="89f00ade20"><path d="M 31.238281 11.199219 L 121.089844 11.199219 L 121.089844 100.800781 L 31.238281 100.800781 Z M 31.238281 11.199219 " clip-rule="nonzero"/></clipPath><clipPath id="6d8aa9cfe5"><path d="M 27.523438 11.199219 L 122 11.199219 L 122 100.800781 L 27.523438 100.800781 Z M 27.523438 11.199219 " clip-rule="nonzero"/></clipPath><clipPath id="8e69c6cca2"><path d="M 28 28 L 122.351562 28 L 122.351562 98 L 28 98 Z M 28 28 " clip-rule="nonzero"/></clipPath></defs><g clip-path="url(#89f00ade20)"><path fill="#f8e505" d="M 115.023438 51.484375 L 114.992188 51.105469 C 114.847656 49.28125 114.695312 47.390625 114.863281 45.542969 C 114.875 45.382812 114.824219 45.226562 114.71875 45.109375 C 114.601562 44.984375 114.433594 44.910156 114.257812 44.910156 C 113.960938 44.910156 113.726562 45.105469 113.679688 45.390625 C 113.367188 47.304688 113.515625 49.175781 113.660156 50.984375 C 113.738281 51.972656 113.804688 52.867188 113.808594 53.777344 C 113.8125 54.214844 113.769531 54.65625 113.722656 55.117188 C 113.667969 55.65625 113.613281 56.207031 113.636719 56.765625 C 113.652344 57.085938 113.929688 57.347656 114.257812 57.347656 C 114.484375 57.347656 114.683594 57.214844 114.773438 57.007812 C 115.398438 55.566406 115.234375 53.773438 115.085938 52.191406 C 115.066406 51.949219 115.042969 51.710938 115.023438 51.484375 Z M 71.324219 94.503906 C 72.550781 94.039062 73.746094 93.503906 74.902344 92.902344 C 80.117188 90.195312 84.726562 86.253906 88.195312 81.503906 C 89.851562 79.234375 91.882812 76.457031 91.828125 73.519531 C 91.769531 70.125 88.890625 69.003906 85.910156 69.425781 C 80.25 70.230469 75.410156 74.359375 72.390625 79.035156 C 69.480469 83.546875 67.949219 89.871094 71.324219 94.503906 Z M 115.316406 39.0625 C 115.257812 39.070312 115.199219 39.074219 115.140625 39.074219 C 114.644531 39.074219 114.1875 38.800781 113.976562 38.378906 C 113.730469 37.886719 113.769531 37.34375 114.089844 36.929688 C 114.164062 36.835938 114.246094 36.757812 114.335938 36.6875 C 114.238281 36.507812 114.1875 36.28125 114.203125 36.015625 C 114.425781 32.597656 114.253906 29.171875 113.582031 25.8125 C 112.96875 22.71875 112.074219 19.449219 110.503906 16.691406 C 109.777344 15.414062 108.773438 14.136719 107.246094 13.855469 C 105.621094 13.554688 104 14.386719 102.710938 15.304688 C 98.25 18.488281 96.351562 24.203125 95.722656 29.429688 C 94.902344 36.285156 95.808594 43.296875 97.820312 49.871094 C 99.859375 56.53125 102.789062 62.941406 103.777344 69.886719 C 104.664062 76.128906 103.8125 82.375 100.289062 87.699219 C 97.050781 92.59375 92.132812 96.644531 86.789062 99.039062 C 81.5625 101.386719 74.886719 101.859375 70.503906 97.527344 C 65.601562 99.085938 60.34375 99.507812 55.320312 98.210938 C 49.707031 96.757812 44.519531 93.164062 41.902344 87.890625 C 39.304688 82.652344 39.289062 76.601562 42.257812 71.515625 C 45.335938 66.242188 50.269531 61.8125 55.117188 58.203125 C 57.675781 56.296875 60.390625 54.597656 63.226562 53.132812 C 66.328125 51.53125 69.566406 50.191406 72.578125 48.417969 C 77.953125 45.25 82.488281 40.097656 81.296875 33.414062 C 80.777344 30.488281 79.171875 27.84375 76.847656 26 C 74.304688 23.984375 71.164062 23.296875 67.980469 23.210938 C 61.589844 23.042969 54.636719 23.945312 49.230469 27.578125 C 47.835938 28.515625 46.535156 26.261719 47.917969 25.332031 C 50.304688 23.726562 52.976562 22.613281 55.757812 21.902344 C 58.726562 21.140625 61.804688 20.804688 64.859375 20.660156 C 67.882812 20.515625 71.027344 20.558594 73.929688 21.527344 C 79.082031 23.25 83.054688 27.796875 83.882812 33.199219 C 84.773438 38.988281 82.191406 44.320312 77.761719 47.96875 C 72.921875 51.949219 66.855469 53.882812 61.519531 57.054688 C 56.207031 60.210938 51.40625 64.21875 47.371094 68.902344 C 45.40625 71.183594 43.617188 73.734375 42.898438 76.703125 C 42.210938 79.527344 42.535156 82.535156 43.558594 85.234375 C 45.667969 90.800781 50.804688 94.46875 56.460938 95.8125 C 60.539062 96.78125 64.765625 96.484375 68.769531 95.351562 C 66.316406 91.390625 66.320312 86.21875 68.011719 81.894531 C 70.113281 76.511719 74.335938 71.617188 79.453125 68.90625 C 83.628906 66.6875 91.03125 64.878906 93.675781 70.257812 C 96.339844 75.667969 91.566406 81.742188 88.207031 85.636719 C 84.183594 90.296875 79.074219 94.074219 73.398438 96.464844 C 73.363281 96.480469 73.324219 96.492188 73.289062 96.507812 C 77.761719 99.828125 84.207031 97.804688 88.632812 95.121094 C 93.445312 92.203125 97.8125 88.03125 100.007812 82.757812 C 105.378906 69.855469 95.914062 56.457031 93.695312 43.945312 C 91.902344 33.859375 92.023438 19.875 101.230469 13.179688 C 103.417969 11.589844 106.300781 10.554688 108.925781 11.660156 C 111.285156 12.652344 112.667969 14.957031 113.636719 17.214844 C 116.171875 23.121094 117.214844 29.613281 116.800781 36.015625 C 116.773438 36.480469 116.550781 36.8125 116.25 37.019531 C 116.328125 37.148438 116.386719 37.292969 116.417969 37.445312 C 116.460938 37.636719 116.457031 37.851562 116.40625 38.070312 C 116.394531 38.132812 116.371094 38.195312 116.34375 38.257812 C 116.179688 38.691406 115.789062 39 115.316406 39.0625 Z M 112.394531 36.160156 C 112.300781 36.136719 112.199219 36.125 112.097656 36.125 C 111.632812 36.125 111.214844 36.363281 111.003906 36.757812 C 110.820312 37.101562 110.800781 37.507812 110.957031 37.867188 C 111.101562 38.210938 111.394531 38.464844 111.753906 38.5625 C 111.855469 38.589844 111.964844 38.605469 112.074219 38.605469 C 112.746094 38.605469 113.320312 38.039062 113.320312 37.355469 C 113.320312 36.804688 112.914062 36.277344 112.394531 36.160156 Z M 120.496094 52.503906 C 120.414062 52.121094 120.335938 51.738281 120.261719 51.355469 L 120.191406 50.992188 C 119.867188 49.300781 119.53125 47.550781 119.164062 45.835938 C 119.101562 45.539062 118.863281 45.339844 118.570312 45.339844 C 118.375 45.339844 118.1875 45.429688 118.058594 45.578125 C 117.929688 45.722656 117.875 45.914062 117.90625 46.109375 C 118.15625 47.835938 118.445312 49.585938 118.722656 51.277344 L 118.757812 51.484375 C 118.824219 51.886719 118.882812 52.292969 118.941406 52.703125 C 119.144531 54.09375 119.355469 55.53125 119.847656 56.871094 C 119.941406 57.128906 120.179688 57.292969 120.457031 57.292969 C 120.625 57.292969 120.78125 57.230469 120.898438 57.113281 C 121.011719 56.996094 121.078125 56.839844 121.078125 56.667969 C 121.074219 55.257812 120.78125 53.855469 120.496094 52.503906 Z M 118.324219 54.265625 C 118.25 53.308594 118.160156 52.371094 118.054688 51.476562 C 117.839844 49.65625 117.574219 47.714844 117.085938 45.828125 C 117.011719 45.542969 116.761719 45.351562 116.460938 45.351562 C 116.277344 45.351562 116.105469 45.421875 115.980469 45.550781 C 115.863281 45.671875 115.800781 45.835938 115.808594 46.007812 C 115.867188 47.636719 116.039062 49.273438 116.207031 50.855469 C 116.238281 51.160156 116.269531 51.460938 116.300781 51.761719 C 116.394531 52.6875 116.492188 53.613281 116.589844 54.539062 C 116.613281 54.769531 116.628906 55.003906 116.644531 55.253906 C 116.691406 55.9375 116.738281 56.644531 116.984375 57.304688 C 117.09375 57.597656 117.382812 57.796875 117.703125 57.796875 C 118.035156 57.796875 118.308594 57.574219 118.378906 57.246094 C 118.542969 56.46875 118.460938 55.667969 118.382812 54.890625 C 118.359375 54.679688 118.339844 54.472656 118.324219 54.265625 Z M 40.703125 39.816406 C 40.59375 39.59375 40.355469 39.449219 40.109375 39.449219 C 39.9375 39.449219 39.777344 39.515625 39.660156 39.644531 C 38.253906 41.171875 37.105469 42.835938 35.808594 44.859375 C 35.6875 45.054688 35.675781 45.285156 35.78125 45.476562 C 35.890625 45.679688 36.113281 45.808594 36.347656 45.808594 C 36.558594 45.808594 36.75 45.707031 36.867188 45.53125 C 37.679688 44.335938 38.574219 43.160156 39.445312 42.027344 C 39.847656 41.5 40.25 40.972656 40.648438 40.441406 C 40.785156 40.257812 40.804688 40.023438 40.703125 39.816406 Z M 46.953125 31.574219 L 47.015625 31.617188 L 47.300781 31.738281 L 47.320312 31.742188 C 47.433594 31.777344 47.546875 31.796875 47.664062 31.796875 C 47.742188 31.796875 47.816406 31.789062 47.894531 31.773438 C 48.207031 31.726562 48.480469 31.589844 48.671875 31.382812 C 48.820312 31.21875 48.933594 31.023438 49.003906 30.8125 C 49.113281 30.472656 49.050781 30.003906 48.855469 29.71875 L 48.832031 29.6875 C 48.609375 29.359375 48.324219 29.152344 48.015625 29.078125 C 47.902344 29.054688 47.785156 29.039062 47.675781 29.039062 C 47.441406 29.039062 47.210938 29.097656 46.992188 29.214844 C 46.792969 29.320312 46.585938 29.523438 46.476562 29.730469 C 46.296875 30.078125 46.25 30.464844 46.355469 30.785156 C 46.457031 31.109375 46.652344 31.367188 46.953125 31.574219 Z M 43.820312 29.164062 C 43.820312 29.738281 44.226562 30.347656 44.976562 30.347656 C 45.722656 30.347656 46.128906 29.738281 46.128906 29.164062 C 46.128906 28.59375 45.722656 27.984375 44.976562 27.984375 C 44.226562 27.984375 43.820312 28.59375 43.820312 29.164062 Z M 118.90625 38.007812 C 119.640625 38.007812 120.035156 37.410156 120.035156 36.851562 C 120.035156 36.289062 119.640625 35.691406 118.90625 35.691406 C 118.171875 35.691406 117.773438 36.289062 117.773438 36.851562 C 117.773438 37.410156 118.171875 38.007812 118.90625 38.007812 Z M 44.328125 27.636719 C 44.625 27.636719 44.917969 27.507812 45.128906 27.285156 C 45.335938 27.070312 45.441406 26.796875 45.429688 26.515625 C 45.402344 25.910156 44.917969 25.433594 44.328125 25.433594 C 44.03125 25.433594 43.738281 25.5625 43.527344 25.785156 C 43.320312 26 43.214844 26.273438 43.226562 26.554688 C 43.253906 27.160156 43.738281 27.636719 44.328125 27.636719 Z M 40.671875 36.984375 C 40.8125 36.796875 40.832031 36.554688 40.726562 36.335938 C 40.609375 36.101562 40.375 35.953125 40.125 35.953125 C 39.996094 35.953125 39.871094 35.992188 39.765625 36.070312 C 37.332031 37.878906 35.121094 40.453125 32.804688 44.164062 C 32.671875 44.378906 32.664062 44.648438 32.792969 44.875 C 32.925781 45.117188 33.183594 45.277344 33.449219 45.277344 C 33.652344 45.277344 33.835938 45.183594 33.96875 45.019531 C 34.898438 43.863281 35.890625 42.714844 36.851562 41.605469 C 38.140625 40.117188 39.46875 38.582031 40.671875 36.984375 Z M 32.152344 41.976562 C 32.0625 42.035156 31.957031 42.066406 31.851562 42.066406 C 31.664062 42.066406 31.488281 41.96875 31.386719 41.804688 C 31.28125 41.632812 31.269531 41.425781 31.355469 41.246094 C 31.871094 40.1875 32.863281 39.261719 33.738281 38.441406 C 33.960938 38.234375 34.175781 38.035156 34.378906 37.835938 C 35.433594 36.796875 36.527344 35.726562 37.78125 34.890625 C 37.878906 34.824219 37.992188 34.792969 38.101562 34.792969 C 38.332031 34.792969 38.539062 34.933594 38.632812 35.152344 C 38.726562 35.371094 38.6875 35.625 38.523438 35.792969 C 37.90625 36.453125 37.230469 37.070312 36.574219 37.667969 C 36.121094 38.082031 35.652344 38.507812 35.210938 38.941406 C 34.894531 39.253906 34.585938 39.601562 34.257812 39.972656 C 33.613281 40.703125 32.945312 41.457031 32.152344 41.976562 " fill-opacity="1" fill-rule="nonzero"/></g><g clip-path="url(#6d8aa9cfe5)"><path fill="#ea7e16" d="M 120.671875 56.667969 C 120.667969 54.910156 120.195312 53.15625 119.863281 51.429688 C 119.511719 49.59375 119.160156 47.753906 118.769531 45.921875 C 118.703125 45.609375 118.261719 45.75 118.304688 46.050781 C 118.566406 47.84375 118.859375 49.628906 119.15625 51.421875 C 119.445312 53.183594 119.609375 55.042969 120.226562 56.730469 C 120.308594 56.960938 120.671875 56.941406 120.671875 56.667969 Z M 117.921875 54.296875 C 117.851562 53.371094 117.761719 52.445312 117.652344 51.523438 C 117.433594 49.644531 117.171875 47.765625 116.695312 45.929688 C 116.628906 45.664062 116.203125 45.714844 116.210938 45.996094 C 116.28125 47.910156 116.507812 49.816406 116.703125 51.722656 C 116.796875 52.648438 116.890625 53.570312 116.992188 54.496094 C 117.085938 55.371094 117.054688 56.335938 117.363281 57.160156 C 117.464844 57.433594 117.910156 57.5 117.980469 57.160156 C 118.179688 56.242188 117.992188 55.230469 117.921875 54.296875 Z M 114.621094 51.515625 C 114.460938 49.515625 114.277344 47.515625 114.460938 45.503906 C 114.480469 45.289062 114.113281 45.238281 114.078125 45.453125 C 113.78125 47.289062 113.917969 49.105469 114.0625 50.953125 C 114.136719 51.890625 114.207031 52.832031 114.214844 53.773438 C 114.222656 54.769531 114 55.761719 114.042969 56.746094 C 114.050781 56.921875 114.320312 57.035156 114.402344 56.84375 C 115.082031 55.28125 114.753906 53.167969 114.621094 51.515625 Z M 121.566406 59.328125 C 120.859375 62.644531 117.042969 64.222656 114.207031 62.308594 C 112.652344 61.261719 112.257812 59.476562 112.007812 57.734375 C 111.710938 55.667969 112.359375 53.65625 112.289062 51.574219 C 112.171875 48.019531 111.421875 44.054688 112.773438 40.730469 C 113.027344 40.882812 113.300781 41.007812 113.585938 41.105469 C 114.285156 41.359375 115.03125 41.433594 115.742188 41.328125 C 116.765625 41.242188 117.785156 40.90625 118.601562 40.378906 C 119.980469 42.015625 119.972656 44.613281 120.261719 46.609375 C 120.617188 49.039062 120.96875 51.472656 121.324219 53.902344 C 121.582031 55.691406 121.953125 57.53125 121.566406 59.328125 Z M 40.007812 36.394531 C 37.207031 38.476562 34.980469 41.441406 33.148438 44.375 C 32.960938 44.679688 33.421875 45.058594 33.652344 44.765625 C 35.828125 42.050781 38.261719 39.519531 40.351562 36.738281 C 40.5 36.542969 40.203125 36.25 40.007812 36.394531 Z M 39.960938 39.917969 C 38.496094 41.507812 37.3125 43.257812 36.148438 45.078125 C 35.996094 45.320312 36.375 45.539062 36.535156 45.304688 C 37.722656 43.550781 39.058594 41.894531 40.324219 40.199219 C 40.480469 39.988281 40.136719 39.726562 39.960938 39.917969 Z M 34.929688 38.652344 C 36.007812 37.589844 37.191406 36.617188 38.230469 35.515625 C 38.371094 35.371094 38.1875 35.105469 38.007812 35.226562 C 36.785156 36.042969 35.707031 37.097656 34.660156 38.125 C 33.679688 39.089844 32.328125 40.175781 31.71875 41.425781 C 31.652344 41.554688 31.789062 41.730469 31.929688 41.636719 C 33.0625 40.898438 33.960938 39.601562 34.929688 38.652344 Z M 43.34375 38.804688 C 41.859375 40.761719 40.375 42.71875 38.886719 44.675781 C 37.796875 46.113281 36.742188 47.667969 35.195312 48.652344 C 32.335938 50.472656 28.535156 48.851562 27.910156 45.484375 C 27.566406 43.640625 28.5625 42.105469 29.632812 40.707031 C 30.894531 39.050781 32.238281 37.460938 33.671875 35.949219 C 36.125 33.375 38.878906 30.589844 42.277344 29.320312 C 42.34375 29.617188 42.449219 29.902344 42.585938 30.179688 C 42.890625 30.859375 43.359375 31.445312 43.933594 31.875 C 44.714844 32.546875 45.667969 33.042969 46.613281 33.257812 C 46.414062 35.386719 44.5625 37.199219 43.34375 38.804688 Z M 70.195312 92.484375 L 67.996094 93.53125 L 67.871094 93.589844 C 68.027344 93.964844 68.199219 94.328125 68.390625 94.6875 L 68.414062 94.675781 L 69.898438 93.96875 L 70.726562 93.578125 C 70.53125 93.230469 70.359375 92.878906 70.210938 92.519531 C 70.207031 92.507812 70.199219 92.496094 70.195312 92.484375 Z M 74.585938 72.367188 L 76.488281 74.167969 C 76.785156 73.894531 77.09375 73.628906 77.410156 73.371094 L 75.503906 71.566406 C 75.191406 71.828125 74.882812 72.09375 74.585938 72.367188 Z M 67.539062 95.808594 L 68.386719 98.121094 C 68.644531 98.058594 68.90625 97.992188 69.164062 97.921875 L 67.578125 95.871094 C 67.5625 95.851562 67.550781 95.828125 67.539062 95.808594 Z M 75.003906 100.21875 C 75.394531 100.339844 75.789062 100.441406 76.1875 100.527344 L 76.472656 97.96875 C 76.070312 97.875 75.675781 97.753906 75.292969 97.605469 Z M 74.902344 92.902344 C 74.804688 92.953125 74.707031 93 74.613281 93.050781 L 76.3125 95.089844 C 76.675781 94.898438 77.039062 94.703125 77.398438 94.5 L 75.707031 92.46875 C 75.441406 92.617188 75.171875 92.761719 74.902344 92.902344 Z M 72.207031 96.90625 L 71.832031 97.042969 L 71.964844 97.25 L 73.445312 99.605469 C 73.457031 99.609375 73.46875 99.613281 73.476562 99.621094 L 74.488281 98.984375 L 73 96.617188 Z M 64.0625 52.710938 L 65.527344 54.90625 C 65.894531 54.726562 66.261719 54.546875 66.628906 54.367188 L 65.160156 52.171875 C 64.792969 52.347656 64.429688 52.527344 64.0625 52.710938 Z M 68.523438 80.683594 L 71.097656 81.367188 C 71.273438 80.992188 71.460938 80.621094 71.660156 80.261719 L 69.066406 79.570312 C 68.875 79.9375 68.695312 80.308594 68.523438 80.683594 Z M 69.410156 88.667969 L 66.851562 89.050781 C 66.875 89.457031 66.917969 89.859375 66.972656 90.257812 L 69.507812 89.878906 C 69.453125 89.480469 69.421875 89.074219 69.410156 88.667969 Z M 64.1875 96.25 L 64.816406 98.777344 C 65.21875 98.730469 65.621094 98.671875 66.019531 98.605469 L 65.398438 96.089844 C 64.996094 96.152344 64.59375 96.207031 64.1875 96.25 Z M 55.453125 95.546875 L 55.40625 98.230469 C 55.808594 98.332031 56.210938 98.421875 56.613281 98.5 L 56.660156 95.855469 C 56.59375 95.839844 56.527344 95.828125 56.460938 95.8125 C 56.121094 95.730469 55.785156 95.644531 55.453125 95.546875 Z M 51.636719 60.945312 L 53.460938 62.839844 C 53.765625 62.574219 54.078125 62.316406 54.390625 62.058594 L 52.574219 60.171875 C 52.261719 60.429688 51.949219 60.683594 51.636719 60.945312 Z M 50.652344 96.445312 C 51.019531 96.632812 51.394531 96.808594 51.773438 96.976562 L 52.359375 94.378906 C 51.984375 94.199219 51.613281 94.007812 51.246094 93.808594 Z M 55.789062 57.710938 L 57.402344 59.746094 C 57.730469 59.511719 58.0625 59.277344 58.398438 59.050781 L 56.78125 57.007812 C 56.449219 57.238281 56.117188 57.472656 55.789062 57.710938 Z M 65.519531 23.203125 L 65.234375 20.644531 C 65.109375 20.648438 64.984375 20.65625 64.859375 20.660156 C 64.582031 20.675781 64.300781 20.691406 64.023438 20.707031 L 64.304688 23.242188 C 64.710938 23.222656 65.117188 23.210938 65.519531 23.203125 Z M 59.984375 96.339844 L 60.324219 98.949219 C 60.734375 98.96875 61.144531 98.976562 61.550781 98.976562 L 61.214844 96.390625 C 60.804688 96.386719 60.394531 96.367188 59.984375 96.339844 Z M 57.390625 21.53125 L 58.210938 23.976562 C 58.613281 23.894531 59.011719 23.816406 59.417969 23.75 L 58.59375 21.304688 C 58.191406 21.375 57.789062 21.449219 57.390625 21.53125 Z M 60 54.933594 L 61.496094 57.066406 C 61.503906 57.0625 61.511719 57.058594 61.519531 57.054688 C 61.859375 56.851562 62.207031 56.652344 62.550781 56.460938 L 61.050781 54.316406 C 60.699219 54.519531 60.347656 54.722656 60 54.933594 Z M 98.949219 84.925781 L 101.539062 85.558594 C 101.726562 85.191406 101.902344 84.816406 102.070312 84.441406 L 99.53125 83.816406 C 99.347656 84.191406 99.152344 84.5625 98.949219 84.925781 Z M 100.324219 81.9375 L 102.949219 82.113281 C 103.074219 81.71875 103.191406 81.320312 103.292969 80.921875 L 100.722656 80.75 C 100.605469 81.148438 100.472656 81.542969 100.324219 81.9375 Z M 74.816406 46.9375 L 76.742188 48.761719 C 77.070312 48.519531 77.390625 48.269531 77.710938 48.007812 L 75.78125 46.183594 C 75.46875 46.441406 75.144531 46.695312 74.816406 46.9375 Z M 48.566406 63.707031 C 48.269531 63.992188 47.980469 64.277344 47.695312 64.570312 L 49.824219 66.238281 C 50.109375 65.945312 50.398438 65.660156 50.6875 65.375 Z M 93.75 91.335938 L 95.988281 92.820312 C 96.285156 92.535156 96.578125 92.242188 96.863281 91.945312 L 94.652344 90.480469 C 94.359375 90.769531 94.054688 91.054688 93.75 91.335938 Z M 101.296875 78.332031 L 103.820312 78.300781 C 103.878906 77.894531 103.929688 77.492188 103.96875 77.082031 L 101.472656 77.117188 C 101.425781 77.523438 101.367188 77.929688 101.296875 78.332031 Z M 112.03125 14.269531 L 110.027344 15.929688 C 110.199219 16.179688 110.355469 16.433594 110.503906 16.691406 C 110.558594 16.785156 110.609375 16.882812 110.664062 16.980469 L 112.691406 15.300781 C 112.484375 14.945312 112.265625 14.601562 112.03125 14.269531 Z M 101.625 73.707031 C 101.636719 74.121094 101.636719 74.53125 101.625 74.945312 L 104.101562 74.464844 C 104.101562 74.054688 104.097656 73.644531 104.078125 73.234375 Z M 108.058594 11.375 L 107.761719 13.996094 C 108.1875 14.148438 108.566406 14.378906 108.90625 14.660156 L 109.230469 11.800781 C 109.128906 11.753906 109.03125 11.703125 108.925781 11.660156 C 108.640625 11.539062 108.351562 11.445312 108.058594 11.375 Z M 103.023438 12.101562 L 104.316406 14.347656 C 104.691406 14.171875 105.082031 14.027344 105.476562 13.929688 L 104.152344 11.632812 C 103.769531 11.761719 103.390625 11.921875 103.023438 12.101562 Z M 96.753906 88.164062 L 99.203125 89.21875 C 99.457031 88.890625 99.699219 88.554688 99.933594 88.214844 L 97.511719 87.171875 C 97.269531 87.507812 97.015625 87.839844 96.753906 88.164062 Z M 90.203125 94.109375 L 92.066406 96.035156 C 92.398438 95.800781 92.730469 95.558594 93.054688 95.3125 L 91.207031 93.402344 C 90.875 93.644531 90.542969 93.882812 90.203125 94.109375 Z M 80.207031 89.566406 C 79.878906 89.808594 79.546875 90.050781 79.210938 90.285156 L 81.082031 92.144531 C 81.414062 91.90625 81.746094 91.664062 82.070312 91.414062 Z M 81.1875 44.285156 L 78.976562 42.84375 C 78.734375 43.171875 78.484375 43.488281 78.21875 43.800781 L 80.457031 45.257812 C 80.714844 44.941406 80.957031 44.613281 81.1875 44.285156 Z M 76.042969 25.421875 C 76.316406 25.601562 76.585938 25.792969 76.847656 26 C 76.921875 26.058594 76.988281 26.117188 77.0625 26.179688 L 77.96875 23.621094 C 77.632812 23.375 77.285156 23.144531 76.929688 22.925781 Z M 81.3125 70.851562 L 79.777344 68.738281 C 79.667969 68.792969 79.558594 68.847656 79.453125 68.90625 C 79.199219 69.039062 78.953125 69.179688 78.707031 69.320312 L 80.230469 71.421875 C 80.585938 71.21875 80.945312 71.027344 81.3125 70.851562 Z M 81.410156 97.992188 L 81.957031 100.539062 C 82.355469 100.46875 82.75 100.386719 83.144531 100.292969 L 82.59375 97.726562 C 82.199219 97.828125 81.804688 97.917969 81.410156 97.992188 Z M 87.15625 82.851562 L 89.355469 84.273438 C 89.609375 83.964844 89.863281 83.648438 90.117188 83.324219 L 87.902344 81.890625 C 87.660156 82.214844 87.410156 82.535156 87.15625 82.851562 Z M 86.222656 96.40625 L 87.5 98.707031 C 87.863281 98.53125 88.226562 98.351562 88.585938 98.164062 L 87.3125 95.867188 C 86.957031 96.054688 86.59375 96.234375 86.222656 96.40625 Z M 85.476562 69.496094 L 84.429688 67.074219 C 84.03125 67.160156 83.632812 67.261719 83.242188 67.375 L 84.269531 69.757812 C 84.664062 69.65625 85.070312 69.566406 85.476562 69.496094 Z M 84.429688 85.898438 C 84.144531 86.1875 83.851562 86.46875 83.554688 86.75 L 85.570312 88.414062 C 85.863281 88.132812 86.152344 87.84375 86.4375 87.554688 Z M 70.269531 52.597656 L 68.75 50.441406 C 68.382812 50.625 68.015625 50.800781 67.644531 50.980469 L 69.167969 53.140625 C 69.535156 52.960938 69.902344 52.78125 70.269531 52.597656 Z M 98.535156 20.09375 L 96.085938 19.085938 C 95.890625 19.441406 95.703125 19.800781 95.527344 20.167969 L 97.976562 21.175781 C 98.152344 20.808594 98.339844 20.449219 98.535156 20.09375 Z M 96.8125 24.191406 L 94.144531 23.792969 C 94.03125 24.183594 93.921875 24.578125 93.824219 24.972656 L 96.476562 25.367188 C 96.578125 24.972656 96.691406 24.582031 96.8125 24.191406 Z M 101.183594 16.585938 L 99.234375 14.878906 C 98.945312 15.164062 98.671875 15.460938 98.402344 15.765625 L 100.355469 17.472656 C 100.617188 17.164062 100.894531 16.867188 101.183594 16.585938 Z M 100.042969 56.457031 C 99.910156 56.074219 99.773438 55.695312 99.640625 55.3125 L 97.375 56.320312 C 97.511719 56.699219 97.648438 57.082031 97.78125 57.464844 Z M 89.816406 67.050781 C 89.433594 66.941406 89.035156 66.859375 88.628906 66.804688 L 88.296875 69.445312 C 88.710938 69.519531 89.109375 69.632812 89.476562 69.792969 Z M 92.292969 80.191406 C 92.503906 79.839844 92.703125 79.488281 92.890625 79.125 L 90.449219 78.132812 C 90.25 78.492188 90.035156 78.84375 89.816406 79.1875 Z M 98.28125 51.324219 C 98.15625 50.9375 98.03125 50.546875 97.910156 50.15625 L 95.628906 51.269531 C 95.753906 51.65625 95.882812 52.042969 96.015625 52.429688 Z M 46.550781 93.738281 C 46.863281 94 47.183594 94.257812 47.511719 94.5 L 48.808594 92.207031 C 48.484375 91.953125 48.167969 91.691406 47.859375 91.417969 Z M 95.722656 29.429688 C 95.75 29.203125 95.78125 28.976562 95.8125 28.75 L 93.117188 28.773438 C 93.066406 29.175781 93.023438 29.582031 92.984375 29.988281 L 95.667969 29.964844 C 95.6875 29.789062 95.703125 29.609375 95.722656 29.429688 Z M 91.292969 71.375 L 93.492188 69.914062 C 93.285156 69.546875 93.054688 69.210938 92.800781 68.914062 L 90.515625 70.4375 C 90.820312 70.699219 91.082031 71.011719 91.292969 71.375 Z M 112.773438 22.363281 L 115.195312 21.53125 C 115.078125 21.140625 114.957031 20.757812 114.832031 20.371094 L 112.425781 21.199219 C 112.546875 21.585938 112.664062 21.972656 112.773438 22.363281 Z M 91.503906 75.730469 L 94.183594 75.792969 C 94.277344 75.390625 94.347656 74.988281 94.394531 74.585938 L 91.769531 74.523438 C 91.714844 74.929688 91.625 75.332031 91.503906 75.730469 Z M 99.625 62.960938 L 101.949219 62.109375 C 101.828125 61.722656 101.707031 61.335938 101.582031 60.949219 L 99.257812 61.800781 C 99.382812 62.1875 99.503906 62.574219 99.625 62.960938 Z M 114.078125 29.09375 L 116.601562 28.417969 C 116.554688 28.011719 116.503906 27.609375 116.445312 27.203125 L 113.929688 27.875 C 113.988281 28.28125 114.035156 28.6875 114.078125 29.09375 Z M 114.214844 35.832031 L 116.835938 35.375 C 116.855469 34.960938 116.871094 34.546875 116.878906 34.136719 L 114.273438 34.589844 C 114.257812 35.003906 114.238281 35.417969 114.214844 35.832031 Z M 96.921875 46.582031 C 96.824219 46.179688 96.730469 45.777344 96.640625 45.375 L 94.242188 46.515625 C 94.339844 46.914062 94.445312 47.3125 94.554688 47.710938 Z M 103.683594 69.292969 C 103.617188 68.890625 103.546875 68.488281 103.472656 68.085938 L 101.09375 68.828125 C 101.167969 69.230469 101.238281 69.632812 101.296875 70.035156 Z M 96.050781 42.28125 C 95.984375 41.871094 95.921875 41.460938 95.867188 41.050781 L 93.386719 42.027344 C 93.445312 42.441406 93.507812 42.851562 93.578125 43.257812 Z M 92.9375 37.9375 C 92.964844 38.347656 93 38.753906 93.039062 39.15625 L 95.59375 38.574219 C 95.558594 38.164062 95.53125 37.757812 95.507812 37.347656 Z M 95.421875 34.675781 C 95.421875 34.269531 95.425781 33.859375 95.4375 33.453125 L 92.792969 33.699219 C 92.789062 34.105469 92.792969 34.511719 92.800781 34.917969 Z M 114.289062 33.988281 L 116.886719 33.433594 C 116.890625 33.019531 116.882812 32.605469 116.875 32.195312 L 114.292969 32.746094 C 114.296875 33.160156 114.292969 33.574219 114.289062 33.988281 Z M 49.078125 27.667969 L 47.621094 25.597656 C 46.792969 26.582031 47.863281 28.289062 49.078125 27.667969 Z M 50.359375 26.875 L 48.996094 24.65625 C 48.648438 24.859375 48.304688 25.074219 47.96875 25.296875 L 49.328125 27.511719 C 49.667969 27.289062 50.011719 27.078125 50.359375 26.875 Z M 43.800781 74.164062 C 43.976562 73.789062 44.164062 73.417969 44.371094 73.054688 L 41.769531 72.414062 C 41.582031 72.78125 41.410156 73.15625 41.253906 73.535156 Z M 42.640625 78.132812 L 40.078125 78.175781 C 40.039062 78.582031 40.011719 78.984375 40 79.390625 L 42.542969 79.347656 C 42.558594 78.941406 42.589844 78.535156 42.640625 78.132812 Z M 44.894531 67.703125 C 44.640625 68.023438 44.386719 68.347656 44.144531 68.675781 L 46.53125 69.914062 C 46.792969 69.589844 47.058594 69.269531 47.324219 68.957031 Z M 43.558594 85.234375 C 43.425781 84.882812 43.304688 84.519531 43.195312 84.15625 L 40.738281 84.945312 C 40.855469 85.332031 40.984375 85.714844 41.125 86.09375 L 43.585938 85.304688 C 43.578125 85.28125 43.570312 85.257812 43.558594 85.234375 Z M 43.222656 90.109375 C 43.453125 90.441406 43.695312 90.769531 43.949219 91.082031 L 45.96875 89.433594 C 45.71875 89.117188 45.476562 88.792969 45.246094 88.457031 Z M 81.464844 36.292969 L 84.042969 36.066406 C 84.058594 35.664062 84.0625 35.257812 84.042969 34.847656 L 81.476562 35.074219 C 81.492188 35.484375 81.488281 35.890625 81.464844 36.292969 Z M 72.277344 21.078125 C 71.882812 20.992188 71.484375 20.921875 71.085938 20.859375 L 70.703125 23.453125 C 71.101562 23.515625 71.5 23.59375 71.894531 23.6875 Z M 73.257812 51.011719 L 71.492188 49.035156 C 71.125 49.234375 70.757812 49.429688 70.386719 49.621094 L 72.167969 51.613281 C 72.535156 51.417969 72.898438 51.21875 73.257812 51.011719 Z M 81.429688 27.144531 C 81.195312 26.808594 80.941406 26.484375 80.679688 26.167969 L 78.941406 28.121094 C 79.195312 28.453125 79.433594 28.792969 79.652344 29.144531 Z M 80.964844 32.035156 L 83.378906 31.0625 C 83.253906 30.675781 83.117188 30.296875 82.960938 29.921875 L 80.554688 30.890625 C 80.710938 31.265625 80.847656 31.644531 80.964844 32.035156 Z M 54.023438 25.160156 L 52.859375 22.8125 C 52.480469 22.953125 52.101562 23.105469 51.730469 23.265625 L 52.890625 25.605469 C 53.265625 25.449219 53.640625 25.300781 54.023438 25.160156 Z M 80.382812 40.472656 L 82.925781 41.125 C 83.082031 40.746094 83.222656 40.367188 83.347656 39.980469 L 80.84375 39.335938 C 80.707031 39.722656 80.554688 40.101562 80.382812 40.472656 Z M 70.007812 84.242188 L 67.257812 84.34375 C 67.164062 84.746094 67.085938 85.15625 67.023438 85.566406 L 69.707031 85.464844 C 69.792969 85.054688 69.890625 84.644531 70.007812 84.242188 Z M 71.859375 75.285156 L 74.128906 76.660156 C 73.871094 76.972656 73.617188 77.292969 73.375 77.621094 L 71.121094 76.253906 C 71.359375 75.925781 71.605469 75.601562 71.859375 75.285156 " fill-opacity="1" fill-rule="nonzero"/></g><path fill="#397dc9" d="M 118.90625 37.605469 C 117.933594 37.605469 117.9375 36.097656 118.90625 36.097656 C 119.875 36.097656 119.875 37.605469 118.90625 37.605469 Z M 111.859375 38.171875 C 111.328125 38.027344 111.109375 37.417969 111.359375 36.945312 C 111.363281 36.941406 111.367188 36.941406 111.367188 36.933594 C 111.542969 36.601562 111.953125 36.472656 112.304688 36.554688 C 112.660156 36.632812 112.914062 37.003906 112.914062 37.355469 L 112.914062 37.367188 C 112.914062 37.910156 112.378906 38.316406 111.859375 38.171875 Z M 114.410156 37.179688 C 114.53125 37.023438 114.691406 36.902344 114.886719 36.847656 C 114.96875 36.839844 115.046875 36.828125 115.128906 36.816406 C 115.210938 36.828125 115.292969 36.839844 115.375 36.847656 C 115.394531 36.859375 115.410156 36.867188 115.433594 36.871094 C 115.742188 36.964844 115.964844 37.21875 116.019531 37.53125 C 116.054688 37.675781 116.046875 37.832031 116.015625 37.980469 C 116.003906 38.023438 115.988281 38.066406 115.972656 38.105469 C 115.863281 38.402344 115.585938 38.617188 115.261719 38.660156 C 114.902344 38.710938 114.507812 38.535156 114.339844 38.199219 C 114.167969 37.859375 114.175781 37.480469 114.410156 37.179688 Z M 116.292969 33.382812 C 114.742188 33.300781 112.945312 33.957031 111.746094 34.933594 C 110.410156 36.027344 110.425781 37.777344 111.273438 39.183594 C 111.511719 39.578125 111.796875 39.921875 112.117188 40.210938 C 112.3125 40.414062 112.535156 40.585938 112.773438 40.730469 C 113.027344 40.882812 113.300781 41.007812 113.585938 41.105469 C 114.285156 41.359375 115.03125 41.433594 115.742188 41.328125 C 116.765625 41.242188 117.785156 40.90625 118.601562 40.378906 C 118.914062 40.179688 119.199219 39.953125 119.441406 39.695312 C 121.882812 37.113281 119.363281 33.546875 116.292969 33.382812 Z M 48.617188 30.6875 C 48.566406 30.84375 48.484375 30.988281 48.371094 31.109375 C 48.230469 31.265625 48.023438 31.347656 47.824219 31.375 C 47.695312 31.402344 47.566406 31.398438 47.441406 31.355469 C 47.363281 31.324219 47.289062 31.292969 47.210938 31.261719 C 47.203125 31.253906 47.191406 31.246094 47.179688 31.238281 C 46.964844 31.089844 46.820312 30.910156 46.738281 30.660156 C 46.660156 30.421875 46.722656 30.136719 46.835938 29.917969 L 46.839844 29.910156 C 46.90625 29.785156 47.050781 29.640625 47.179688 29.570312 C 47.417969 29.445312 47.664062 29.414062 47.925781 29.472656 C 48.171875 29.53125 48.363281 29.71875 48.5 29.917969 C 48.507812 29.929688 48.515625 29.9375 48.523438 29.949219 C 48.652344 30.136719 48.6875 30.472656 48.617188 30.6875 Z M 44.230469 29.113281 C 44.25 28.742188 44.496094 28.386719 44.976562 28.386719 C 45.976562 28.386719 45.972656 29.941406 44.976562 29.941406 C 44.945312 29.941406 44.921875 29.9375 44.894531 29.933594 C 44.429688 29.890625 44.207031 29.496094 44.230469 29.113281 Z M 44.328125 25.839844 C 44.71875 25.839844 45.007812 26.15625 45.027344 26.535156 C 45.042969 26.914062 44.691406 27.234375 44.328125 27.234375 C 43.9375 27.234375 43.648438 26.914062 43.632812 26.535156 C 43.617188 26.160156 43.964844 25.839844 44.328125 25.839844 Z M 45.6875 24.542969 C 43.976562 24.351562 42.738281 25.59375 42.332031 27.183594 C 42.214844 27.628906 42.171875 28.074219 42.191406 28.503906 C 42.183594 28.78125 42.214844 29.054688 42.277344 29.320312 C 42.34375 29.617188 42.449219 29.902344 42.585938 30.179688 C 42.890625 30.859375 43.359375 31.445312 43.933594 31.875 C 44.714844 32.546875 45.667969 33.042969 46.613281 33.257812 C 46.976562 33.339844 47.339844 33.382812 47.6875 33.375 C 51.242188 33.308594 52.019531 29.007812 49.984375 26.703125 C 48.953125 25.539062 47.226562 24.710938 45.6875 24.542969 " fill-opacity="1" fill-rule="nonzero"/><g clip-path="url(#8e69c6cca2)"><path fill="#110f0d" d="M 122.019531 56.664062 C 121.796875 56.5 121.480469 56.542969 121.3125 56.765625 C 121.210938 56.902344 118.730469 60.09375 112.394531 58.757812 C 112.121094 58.699219 111.851562 58.875 111.796875 59.148438 C 111.738281 59.421875 111.914062 59.691406 112.183594 59.746094 C 113.347656 59.992188 114.394531 60.09375 115.335938 60.09375 C 120.054688 60.09375 122.027344 57.5 122.125 57.367188 C 122.289062 57.144531 122.242188 56.832031 122.019531 56.664062 Z M 112.484375 41.144531 C 112.503906 41.15625 113.597656 41.847656 115.171875 41.847656 C 116.207031 41.847656 117.445312 41.546875 118.722656 40.5625 C 118.941406 40.394531 118.984375 40.078125 118.8125 39.855469 C 118.640625 39.632812 118.324219 39.59375 118.105469 39.761719 C 115.46875 41.796875 113.132812 40.359375 113.03125 40.296875 C 112.796875 40.144531 112.484375 40.214844 112.332031 40.449219 C 112.183594 40.683594 112.25 40.996094 112.484375 41.144531 Z M 36.089844 47.453125 C 30.589844 47.71875 29.382812 41.984375 29.332031 41.730469 C 29.277344 41.457031 29.011719 41.277344 28.738281 41.332031 C 28.464844 41.386719 28.289062 41.652344 28.339844 41.925781 C 28.355469 41.992188 29.695312 48.472656 35.722656 48.472656 C 35.859375 48.472656 36 48.46875 36.140625 48.460938 C 36.417969 48.449219 36.632812 48.210938 36.621094 47.933594 C 36.605469 47.652344 36.371094 47.433594 36.089844 47.453125 Z M 46.730469 32.878906 C 43.652344 32.300781 42.707031 29.332031 42.667969 29.207031 C 42.585938 28.941406 42.308594 28.789062 42.039062 28.871094 C 41.773438 28.953125 41.621094 29.234375 41.703125 29.5 C 41.746094 29.652344 42.851562 33.179688 46.542969 33.871094 C 46.574219 33.878906 46.605469 33.882812 46.636719 33.882812 C 46.875 33.882812 47.089844 33.710938 47.132812 33.46875 C 47.183594 33.195312 47.003906 32.929688 46.730469 32.878906 Z M 68.507812 95.421875 C 68.171875 95.511719 67.832031 95.601562 67.492188 95.679688 C 67.492188 95.679688 67.488281 95.679688 67.488281 95.679688 C 67.5 95.722656 67.515625 95.765625 67.539062 95.808594 C 67.550781 95.828125 67.5625 95.851562 67.578125 95.871094 L 69.164062 97.921875 C 69.296875 97.882812 69.429688 97.851562 69.5625 97.8125 C 69.78125 97.75 69.992188 97.683594 70.207031 97.617188 L 68.851562 95.867188 Z M 74.652344 95.691406 C 74.707031 95.738281 74.746094 95.792969 74.773438 95.851562 C 74.453125 96 74.128906 96.144531 73.808594 96.285156 L 73.097656 95.640625 L 72.195312 94.816406 L 71.714844 94.378906 C 71.710938 94.371094 71.703125 94.363281 71.695312 94.355469 C 72.042969 94.222656 72.386719 94.082031 72.726562 93.933594 L 72.785156 93.984375 L 73.6875 94.808594 L 74.652344 95.691406 " fill-opacity="1" fill-rule="nonzero"/></g></svg>