<svg xmlns="http://www.w3.org/2000/svg" xmlns:xlink="http://www.w3.org/1999/xlink" width="300" zoomAndPan="magnify" viewBox="0 0 224.87999 225" height="300" preserveAspectRatio="xMidYMid meet" version="1.0"><defs><clipPath id="b43e65c33c"><path d="M 42 22.546875 L 180 22.546875 L 180 202.453125 L 42 202.453125 Z M 42 22.546875 " clip-rule="nonzero"/></clipPath><clipPath id="cab8725fc5"><path d="M 42 30 L 172 30 L 172 202.453125 L 42 202.453125 Z M 42 30 " clip-rule="nonzero"/></clipPath><clipPath id="fc1be793f8"><path d="M 64 22.546875 L 178 22.546875 L 178 80 L 64 80 Z M 64 22.546875 " clip-rule="nonzero"/></clipPath></defs><path fill="#000000" d="M 175.144531 121.976562 C 165.359375 102.429688 142.53125 95.832031 133.171875 93.902344 C 128.417969 92.921875 123.742188 92.21875 119.21875 91.539062 C 109.070312 90.007812 99.480469 88.5625 92.273438 84.367188 C 88.484375 82.160156 88.445312 79.730469 88.429688 78.929688 C 88.410156 77.589844 89.167969 75.632812 90.671875 73.4375 C 95.632812 70.179688 101.429688 68.34375 106.90625 68.34375 C 117.78125 68.34375 127.824219 74.695312 132.496094 84.527344 L 134.113281 87.933594 C 135.578125 91.019531 139.253906 92.355469 142.359375 90.929688 L 164.464844 80.761719 C 165.285156 80.382812 165.984375 79.847656 166.542969 79.210938 L 166.542969 79.214844 L 174.453125 71.644531 L 174.449219 71.640625 C 176.679688 69.878906 177.492188 66.75 176.21875 64.066406 L 174.464844 60.378906 C 169.257812 49.410156 161.101562 40.128906 150.882812 33.539062 C 140.371094 26.757812 128.179688 23.171875 115.628906 23.171875 C 101.167969 23.171875 86.675781 28.238281 74.8125 37.433594 C 71.082031 40.324219 67.757812 43.449219 64.867188 46.746094 C 50.644531 58.242188 42.660156 73.15625 42.902344 87.878906 C 43.15625 103.132812 51.222656 114 65.039062 122.042969 C 78.324219 129.777344 92.503906 131.914062 105.03125 133.800781 C 109.253906 134.441406 113.246094 135.039062 117.023438 135.820312 C 126.328125 137.738281 132.359375 142.019531 133.507812 144.308594 C 133.972656 145.242188 133.097656 147.316406 132.699219 148.164062 C 131.867188 149.9375 130.667969 151.746094 129.1875 153.488281 C 124.988281 155.472656 120.25 156.652344 115.628906 156.652344 C 104.753906 156.652344 94.707031 150.296875 90.039062 140.46875 L 88.183594 136.558594 C 86.714844 133.46875 83.042969 132.136719 79.9375 133.5625 L 57.828125 143.730469 C 57.078125 144.074219 56.433594 144.550781 55.902344 145.117188 L 47.609375 153.042969 C 47.484375 153.152344 47.371094 153.265625 47.253906 153.382812 L 47.242188 153.394531 C 45.480469 155.210938 44.925781 158 46.078125 160.425781 L 48.066406 164.617188 C 53.277344 175.582031 61.433594 184.863281 71.648438 191.457031 C 82.164062 198.238281 94.355469 201.824219 106.90625 201.824219 C 126.601562 201.824219 145.867188 192.753906 157.953125 178.679688 C 165.144531 173.003906 171 165.953125 174.742188 157.984375 C 182.113281 142.285156 179.027344 129.738281 175.144531 121.976562 Z M 175.144531 121.976562 " fill-opacity="1" fill-rule="nonzero"/><g clip-path="url(#b43e65c33c)"><path fill="#000000" d="M 106.90625 202.445312 C 94.234375 202.445312 81.925781 198.828125 71.3125 191.980469 C 60.996094 185.328125 52.761719 175.957031 47.503906 164.882812 L 45.511719 160.691406 C 44.289062 158.117188 44.804688 155.011719 46.792969 152.960938 C 46.796875 152.957031 46.8125 152.941406 46.816406 152.9375 C 46.949219 152.800781 47.070312 152.6875 47.1875 152.582031 L 55.46875 144.664062 C 55.472656 144.660156 55.476562 144.65625 55.480469 144.65625 C 56.082031 144.023438 56.785156 143.523438 57.566406 143.164062 L 79.675781 132.996094 C 83.074219 131.433594 87.140625 132.910156 88.746094 136.289062 L 90.601562 140.199219 C 95.167969 149.8125 104.992188 156.027344 115.628906 156.027344 C 119.988281 156.027344 124.539062 154.972656 128.800781 152.980469 C 130.226562 151.285156 131.347656 149.574219 132.136719 147.898438 C 132.960938 146.140625 133.136719 144.96875 132.949219 144.589844 C 132.003906 142.703125 126.328125 138.375 116.898438 136.429688 C 113.148438 135.65625 109.175781 135.058594 104.972656 134.425781 L 104.9375 134.417969 C 92.359375 132.523438 78.109375 130.375 64.722656 122.582031 C 49.863281 113.929688 42.519531 102.582031 42.277344 87.890625 C 42.03125 73.050781 50.109375 57.890625 64.433594 46.292969 C 67.359375 42.960938 70.722656 39.8125 74.429688 36.9375 C 86.402344 27.660156 101.03125 22.546875 115.628906 22.546875 C 128.300781 22.546875 140.609375 26.167969 151.222656 33.015625 C 161.539062 39.667969 169.769531 49.039062 175.03125 60.109375 L 176.78125 63.800781 C 178.152344 66.683594 177.375 70.078125 174.898438 72.082031 C 174.894531 72.085938 174.890625 72.089844 174.886719 72.09375 L 166.976562 79.664062 C 166.34375 80.375 165.585938 80.933594 164.726562 81.328125 L 142.617188 91.496094 C 139.222656 93.058594 135.15625 91.578125 133.550781 88.203125 L 131.929688 84.796875 C 127.363281 75.179688 117.542969 68.96875 106.90625 68.96875 C 101.597656 68.96875 95.996094 70.714844 91.121094 73.890625 C 89.785156 75.859375 89.035156 77.6875 89.054688 78.921875 C 89.066406 79.632812 89.105469 81.796875 92.589844 83.828125 C 99.691406 87.960938 109.222656 89.398438 119.3125 90.921875 C 123.851562 91.605469 128.53125 92.308594 133.296875 93.289062 C 142.746094 95.238281 165.796875 101.90625 175.703125 121.699219 C 179.648438 129.582031 182.78125 142.324219 175.304688 158.25 C 171.640625 166.058594 165.789062 173.277344 158.386719 179.132812 C 152.347656 186.148438 144.449219 192.015625 135.542969 196.097656 C 126.472656 200.25 116.570312 202.445312 106.90625 202.445312 Z M 47.683594 153.839844 C 46.058594 155.515625 45.640625 158.054688 46.640625 160.15625 L 48.632812 164.347656 C 53.792969 175.210938 61.867188 184.402344 71.988281 190.929688 C 82.402344 197.648438 94.476562 201.199219 106.90625 201.199219 C 125.957031 201.199219 145.335938 192.414062 157.480469 178.273438 C 157.507812 178.242188 157.535156 178.214844 157.566406 178.1875 C 164.839844 172.445312 170.585938 165.367188 174.175781 157.71875 C 181.441406 142.246094 178.410156 129.894531 174.585938 122.257812 C 164.925781 102.953125 142.316406 96.425781 133.046875 94.515625 C 128.3125 93.539062 123.652344 92.835938 119.144531 92.15625 C 108.914062 90.617188 99.269531 89.164062 91.960938 84.90625 C 87.867188 82.523438 87.824219 79.828125 87.808594 78.941406 C 87.78125 77.410156 88.617188 75.328125 90.160156 73.082031 C 90.207031 73.015625 90.261719 72.960938 90.332031 72.914062 C 95.433594 69.566406 101.320312 67.71875 106.90625 67.71875 C 118.023438 67.71875 128.285156 74.210938 133.058594 84.261719 L 134.675781 87.667969 C 135.992188 90.429688 139.320312 91.636719 142.097656 90.359375 L 164.207031 80.195312 C 164.921875 79.863281 165.550781 79.394531 166.074219 78.800781 C 166.097656 78.773438 166.125 78.75 166.148438 78.726562 L 173.964844 71.246094 C 173.996094 71.210938 174.027344 71.179688 174.0625 71.152344 C 176.128906 69.515625 176.785156 66.714844 175.65625 64.335938 L 173.902344 60.644531 C 168.742188 49.785156 160.667969 40.59375 150.546875 34.0625 C 140.132812 27.347656 128.058594 23.796875 115.628906 23.796875 C 101.308594 23.796875 86.949219 28.816406 75.195312 37.925781 C 71.535156 40.761719 68.21875 43.867188 65.335938 47.15625 C 65.3125 47.183594 65.289062 47.207031 65.261719 47.230469 C 51.207031 58.589844 43.285156 73.402344 43.527344 87.871094 C 43.761719 102.085938 50.902344 113.089844 65.351562 121.503906 C 78.53125 129.175781 92.65625 131.304688 105.121094 133.183594 L 105.160156 133.191406 C 109.378906 133.828125 113.367188 134.429688 117.148438 135.207031 C 126.761719 137.1875 132.828125 141.558594 134.066406 144.03125 C 134.605469 145.109375 133.929688 147.019531 133.265625 148.429688 C 132.414062 150.242188 131.203125 152.078125 129.664062 153.890625 C 129.605469 153.960938 129.535156 154.015625 129.453125 154.050781 C 124.996094 156.160156 120.214844 157.273438 115.628906 157.273438 C 104.511719 157.273438 94.246094 150.78125 89.472656 140.734375 L 87.617188 136.828125 C 86.304688 134.0625 82.976562 132.851562 80.195312 134.132812 L 58.089844 144.296875 C 57.4375 144.597656 56.855469 145.015625 56.355469 145.546875 C 56.335938 145.566406 56.320312 145.582031 56.300781 145.597656 L 48.042969 153.496094 C 48.035156 153.5 48.027344 153.507812 48.019531 153.511719 C 47.925781 153.597656 47.824219 153.695312 47.703125 153.820312 C 47.699219 153.820312 47.6875 153.832031 47.683594 153.839844 Z M 47.683594 153.839844 " fill-opacity="1" fill-rule="nonzero"/></g><path fill="#ffffff" d="M 106.90625 201.820312 C 94.355469 201.820312 82.164062 198.238281 71.648438 191.457031 C 61.429688 184.863281 53.277344 175.582031 48.066406 164.617188 L 46.078125 160.425781 C 44.582031 157.28125 45.945312 153.523438 49.109375 152.070312 L 71.214844 141.902344 C 74.320312 140.476562 77.996094 141.808594 79.460938 144.898438 L 81.316406 148.804688 C 85.988281 158.636719 96.03125 164.988281 106.90625 164.988281 C 117.597656 164.988281 128.929688 156.199219 132.699219 148.164062 C 133.097656 147.316406 133.972656 145.242188 133.507812 144.308594 C 132.359375 142.019531 126.328125 137.738281 117.023438 135.820312 C 113.246094 135.039062 109.253906 134.441406 105.03125 133.800781 C 92.503906 131.914062 78.324219 129.777344 65.039062 122.042969 C 51.222656 114 43.15625 103.132812 42.902344 87.878906 C 42.652344 72.738281 51.105469 57.390625 66.09375 45.773438 C 77.953125 36.578125 92.449219 31.511719 106.90625 31.511719 C 119.457031 31.511719 131.652344 35.097656 142.164062 41.878906 C 152.382812 48.46875 160.535156 57.75 165.746094 68.71875 L 167.496094 72.40625 C 168.992188 75.550781 167.628906 79.308594 164.464844 80.761719 L 142.359375 90.929688 C 139.253906 92.355469 135.582031 91.019531 134.113281 87.933594 L 132.496094 84.527344 C 127.824219 74.695312 117.78125 68.34375 106.90625 68.34375 C 100.660156 68.34375 94.003906 70.730469 88.644531 74.886719 C 82.71875 79.476562 79.667969 84.59375 79.710938 87.269531 C 79.722656 88.070312 79.765625 90.5 83.554688 92.707031 C 90.761719 96.902344 100.347656 98.347656 110.5 99.878906 C 115.023438 100.558594 119.695312 101.261719 124.453125 102.242188 C 133.8125 104.171875 156.640625 110.769531 166.425781 130.316406 C 170.308594 138.078125 173.390625 150.625 166.019531 166.324219 C 156.207031 187.222656 131.898438 201.820312 106.90625 201.820312 Z M 106.90625 201.820312 " fill-opacity="1" fill-rule="nonzero"/><g clip-path="url(#cab8725fc5)"><path fill="#000000" d="M 106.90625 202.445312 C 94.234375 202.445312 81.925781 198.828125 71.3125 191.980469 C 60.996094 185.328125 52.761719 175.957031 47.503906 164.882812 L 45.511719 160.691406 C 44.71875 159.019531 44.628906 157.140625 45.261719 155.402344 C 45.890625 153.660156 47.164062 152.277344 48.847656 151.503906 L 70.957031 141.335938 C 74.351562 139.773438 78.421875 141.25 80.023438 144.628906 L 81.882812 148.539062 C 86.449219 158.152344 96.273438 164.367188 106.90625 164.367188 C 117.375 164.367188 128.402344 155.851562 132.136719 147.898438 C 132.960938 146.140625 133.136719 144.96875 132.949219 144.589844 C 132.003906 142.703125 126.328125 138.375 116.898438 136.429688 C 113.148438 135.660156 109.175781 135.058594 104.972656 134.425781 L 104.9375 134.417969 C 92.359375 132.523438 78.109375 130.375 64.722656 122.582031 C 49.863281 113.929688 42.519531 102.582031 42.277344 87.890625 C 42.023438 72.550781 50.566406 57.019531 65.710938 45.277344 C 77.679688 35.996094 92.3125 30.886719 106.90625 30.886719 C 119.578125 30.886719 131.886719 34.507812 142.503906 41.355469 C 152.816406 48.007812 161.050781 57.378906 166.308594 68.449219 L 168.0625 72.136719 C 168.855469 73.8125 168.945312 75.691406 168.3125 77.429688 C 167.683594 79.171875 166.410156 80.554688 164.726562 81.328125 L 142.617188 91.496094 C 139.222656 93.058594 135.152344 91.578125 133.550781 88.203125 L 131.929688 84.796875 C 127.363281 75.179688 117.542969 68.96875 106.90625 68.96875 C 100.796875 68.96875 94.28125 71.304688 89.023438 75.378906 C 83.324219 79.796875 80.292969 84.796875 80.335938 87.261719 C 80.347656 87.972656 80.382812 90.136719 83.867188 92.167969 C 90.972656 96.300781 100.503906 97.738281 110.59375 99.257812 C 115.132812 99.945312 119.8125 100.648438 124.578125 101.628906 C 134.027344 103.578125 157.074219 110.242188 166.984375 130.035156 C 170.929688 137.921875 174.0625 150.664062 166.585938 166.589844 C 156.671875 187.699219 132.132812 202.445312 106.90625 202.445312 Z M 73.804688 141.960938 C 73.019531 141.960938 72.230469 142.125 71.476562 142.46875 L 49.367188 152.636719 C 47.992188 153.269531 46.949219 154.402344 46.433594 155.828125 C 45.917969 157.25 45.992188 158.789062 46.640625 160.15625 L 48.632812 164.347656 C 53.792969 175.210938 61.867188 184.402344 71.988281 190.929688 C 82.402344 197.648438 94.476562 201.199219 106.90625 201.199219 C 131.664062 201.199219 155.742188 186.746094 165.457031 166.058594 C 172.71875 150.585938 169.6875 138.234375 165.867188 130.597656 C 156.203125 111.292969 133.597656 104.765625 124.324219 102.855469 C 119.59375 101.878906 114.929688 101.175781 110.421875 100.496094 C 100.195312 98.957031 90.550781 97.5 83.242188 93.246094 C 79.148438 90.863281 79.101562 88.167969 79.085938 87.28125 C 79.042969 84.535156 81.894531 79.328125 88.261719 74.390625 C 93.730469 70.152344 100.527344 67.71875 106.90625 67.71875 C 118.023438 67.71875 128.289062 74.210938 133.058594 84.261719 L 134.675781 87.667969 C 135.992188 90.429688 139.320312 91.640625 142.097656 90.359375 L 164.207031 80.195312 C 165.582031 79.5625 166.625 78.429688 167.140625 77.003906 C 167.65625 75.582031 167.585938 74.042969 166.933594 72.675781 L 165.183594 68.984375 C 160.023438 58.125 151.945312 48.933594 141.824219 42.402344 C 131.414062 35.6875 119.339844 32.136719 106.90625 32.136719 C 92.585938 32.136719 78.226562 37.152344 66.476562 46.265625 C 51.644531 57.765625 43.277344 72.929688 43.527344 87.871094 C 43.761719 102.085938 50.902344 113.089844 65.351562 121.503906 C 78.53125 129.175781 92.65625 131.304688 105.121094 133.183594 L 105.160156 133.191406 C 109.378906 133.828125 113.367188 134.429688 117.148438 135.207031 C 126.765625 137.1875 132.828125 141.558594 134.066406 144.03125 C 134.605469 145.109375 133.929688 147.019531 133.265625 148.429688 C 129.367188 156.730469 117.847656 165.613281 106.90625 165.613281 C 95.792969 165.613281 85.527344 159.121094 80.753906 149.074219 L 78.898438 145.164062 C 77.941406 143.148438 75.910156 141.960938 73.804688 141.960938 Z M 73.804688 141.960938 " fill-opacity="1" fill-rule="nonzero"/></g><path fill="#c2b092" d="M 106.90625 31.511719 C 119.457031 31.511719 131.652344 35.097656 142.164062 41.878906 C 152.382812 48.46875 160.535156 57.75 165.746094 68.71875 L 167.5 72.40625 C 168.605469 74.734375 168.140625 77.394531 166.542969 79.210938 L 166.542969 79.214844 L 174.453125 71.644531 L 174.449219 71.640625 C 176.679688 69.878906 177.492188 66.75 176.21875 64.066406 L 174.464844 60.378906 C 169.257812 49.410156 161.101562 40.128906 150.886719 33.539062 C 140.371094 26.757812 128.179688 23.171875 115.628906 23.171875 C 101.167969 23.171875 86.675781 28.238281 74.8125 37.433594 C 71.082031 40.324219 67.757812 43.449219 64.867188 46.746094 C 65.273438 46.417969 65.679688 46.09375 66.09375 45.773438 C 77.953125 36.578125 92.449219 31.511719 106.90625 31.511719 Z M 106.90625 31.511719 " fill-opacity="1" fill-rule="nonzero"/><g clip-path="url(#fc1be793f8)"><path fill="#000000" d="M 166.542969 79.839844 C 166.40625 79.839844 166.265625 79.792969 166.152344 79.699219 C 166.019531 79.589844 165.9375 79.433594 165.921875 79.265625 C 165.90625 79.097656 165.960938 78.929688 166.074219 78.800781 C 167.5625 77.109375 167.898438 74.703125 166.933594 72.675781 L 165.183594 68.984375 C 160.023438 58.125 151.945312 48.933594 141.824219 42.402344 C 131.414062 35.6875 119.339844 32.136719 106.90625 32.136719 C 92.585938 32.136719 78.226562 37.152344 66.476562 46.265625 C 66.113281 46.546875 65.730469 46.851562 65.261719 47.230469 C 65.007812 47.433594 64.644531 47.410156 64.417969 47.175781 C 64.195312 46.941406 64.183594 46.578125 64.398438 46.332031 C 67.332031 42.984375 70.707031 39.824219 74.429688 36.9375 C 86.402344 27.660156 101.03125 22.546875 115.628906 22.546875 C 128.300781 22.546875 140.609375 26.167969 151.222656 33.015625 C 161.539062 39.667969 169.769531 49.039062 175.03125 60.109375 L 176.78125 63.800781 C 178.152344 66.683594 177.378906 70.074219 174.902344 72.082031 C 174.894531 72.085938 174.890625 72.089844 174.886719 72.09375 L 166.976562 79.664062 C 166.855469 79.78125 166.699219 79.839844 166.542969 79.839844 Z M 106.90625 30.886719 C 119.578125 30.886719 131.886719 34.507812 142.503906 41.355469 C 152.816406 48.007812 161.050781 57.378906 166.308594 68.449219 L 168.0625 72.136719 C 168.703125 73.488281 168.875 74.972656 168.601562 76.378906 L 173.96875 71.246094 C 173.996094 71.210938 174.027344 71.179688 174.0625 71.152344 C 176.128906 69.515625 176.785156 66.714844 175.65625 64.335938 L 173.902344 60.648438 C 168.742188 49.785156 160.667969 40.59375 150.546875 34.0625 C 140.132812 27.347656 128.058594 23.796875 115.628906 23.796875 C 101.308594 23.796875 86.949219 28.816406 75.195312 37.925781 C 73.570312 39.1875 72.011719 40.5 70.53125 41.859375 C 81.5 34.75 94.21875 30.886719 106.90625 30.886719 Z M 106.90625 30.886719 " fill-opacity="1" fill-rule="nonzero"/></g><path fill="#c2b092" d="M 175.144531 121.976562 C 165.359375 102.429688 142.53125 95.832031 133.171875 93.902344 C 128.417969 92.921875 123.742188 92.21875 119.21875 91.539062 C 109.070312 90.007812 99.480469 88.5625 92.273438 84.367188 C 88.484375 82.160156 88.445312 79.730469 88.429688 78.929688 C 88.410156 77.589844 89.167969 75.632812 90.671875 73.4375 C 89.980469 73.894531 89.300781 74.375 88.640625 74.886719 C 82.71875 79.476562 79.667969 84.59375 79.710938 87.269531 C 79.722656 88.070312 79.765625 90.5 83.554688 92.707031 C 90.761719 96.902344 100.347656 98.347656 110.5 99.878906 C 115.023438 100.558594 119.695312 101.261719 124.449219 102.242188 C 133.8125 104.171875 156.640625 110.769531 166.425781 130.316406 C 170.308594 138.078125 173.390625 150.625 166.019531 166.324219 C 163.941406 170.753906 161.203125 174.894531 157.953125 178.679688 C 165.144531 173 171 165.953125 174.742188 157.984375 C 182.113281 142.285156 179.027344 129.738281 175.144531 121.976562 Z M 175.144531 121.976562 " fill-opacity="1" fill-rule="nonzero"/><path fill="#000000" d="M 157.953125 179.304688 C 157.789062 179.304688 157.625 179.238281 157.503906 179.109375 C 157.28125 178.878906 157.269531 178.515625 157.480469 178.273438 C 160.761719 174.453125 163.441406 170.34375 165.457031 166.058594 C 172.71875 150.585938 169.6875 138.234375 165.867188 130.597656 C 156.203125 111.292969 133.597656 104.765625 124.324219 102.855469 C 119.59375 101.878906 114.929688 101.175781 110.421875 100.496094 C 100.195312 98.957031 90.550781 97.5 83.242188 93.246094 C 79.148438 90.863281 79.101562 88.167969 79.085938 87.28125 C 79.042969 84.535156 81.894531 79.328125 88.261719 74.390625 C 88.917969 73.882812 89.617188 73.382812 90.332031 72.914062 C 90.582031 72.75 90.910156 72.785156 91.121094 73 C 91.328125 73.214844 91.359375 73.542969 91.1875 73.789062 C 89.8125 75.796875 89.035156 77.664062 89.054688 78.921875 C 89.066406 79.632812 89.105469 81.796875 92.589844 83.828125 C 99.691406 87.960938 109.222656 89.398438 119.3125 90.921875 C 123.855469 91.605469 128.53125 92.308594 133.296875 93.289062 C 142.746094 95.238281 165.796875 101.90625 175.703125 121.695312 C 179.648438 129.582031 182.785156 142.324219 175.304688 158.25 C 171.632812 166.074219 165.765625 173.308594 158.339844 179.167969 C 158.226562 179.257812 158.089844 179.304688 157.953125 179.304688 Z M 88.664062 75.664062 C 83.199219 80.011719 80.296875 84.851562 80.335938 87.261719 C 80.347656 87.972656 80.382812 90.136719 83.871094 92.167969 C 90.972656 96.300781 100.503906 97.738281 110.59375 99.261719 C 115.132812 99.945312 119.8125 100.648438 124.578125 101.628906 C 134.027344 103.578125 157.074219 110.246094 166.984375 130.035156 C 170.929688 137.921875 174.0625 150.664062 166.585938 166.589844 C 165.382812 169.152344 163.945312 171.65625 162.289062 174.070312 C 167.34375 169.195312 171.402344 163.628906 174.175781 157.71875 C 181.441406 142.246094 178.410156 129.894531 174.585938 122.257812 C 164.925781 102.953125 142.316406 96.425781 133.046875 94.515625 C 128.3125 93.539062 123.652344 92.835938 119.144531 92.160156 C 108.917969 90.617188 99.269531 89.164062 91.960938 84.90625 C 87.867188 82.523438 87.824219 79.828125 87.808594 78.941406 C 87.792969 78.019531 88.089844 76.898438 88.664062 75.664062 Z M 88.664062 75.664062 " fill-opacity="1" fill-rule="nonzero"/><path fill="#c2b092" d="M 79.9375 133.5625 L 57.828125 143.730469 C 57.078125 144.074219 56.433594 144.550781 55.902344 145.117188 L 47.609375 153.042969 C 48.050781 152.660156 48.550781 152.328125 49.109375 152.070312 L 71.214844 141.902344 C 72.847656 141.152344 74.628906 141.171875 76.171875 141.796875 L 84.894531 133.460938 C 83.351562 132.832031 81.566406 132.8125 79.9375 133.5625 Z M 79.9375 133.5625 " fill-opacity="1" fill-rule="nonzero"/><path fill="#000000" d="M 47.609375 153.667969 C 47.441406 153.667969 47.273438 153.597656 47.148438 153.464844 C 46.921875 153.214844 46.933594 152.824219 47.179688 152.589844 L 55.46875 144.664062 C 55.472656 144.660156 55.476562 144.65625 55.480469 144.65625 C 56.082031 144.023438 56.785156 143.523438 57.566406 143.164062 L 79.675781 132.996094 C 81.410156 132.199219 83.347656 132.15625 85.128906 132.878906 C 85.324219 132.960938 85.464844 133.132812 85.507812 133.34375 C 85.546875 133.550781 85.476562 133.765625 85.324219 133.910156 L 76.601562 142.25 C 76.425781 142.417969 76.164062 142.46875 75.9375 142.378906 C 74.480469 141.785156 72.894531 141.816406 71.476562 142.46875 L 49.367188 152.636719 C 48.886719 152.859375 48.433594 153.152344 48.019531 153.511719 C 47.902344 153.617188 47.757812 153.667969 47.609375 153.667969 Z M 56.300781 145.597656 L 51.308594 150.371094 L 70.957031 141.335938 C 72.566406 140.59375 74.351562 140.507812 76.023438 141.078125 L 83.695312 133.742188 C 82.519531 133.488281 81.308594 133.621094 80.195312 134.132812 L 58.089844 144.296875 C 57.4375 144.597656 56.855469 145.015625 56.355469 145.546875 C 56.335938 145.566406 56.320312 145.582031 56.300781 145.597656 Z M 56.300781 145.597656 " fill-opacity="1" fill-rule="nonzero"/><path fill="#c2b092" d="M 115.628906 156.652344 C 104.753906 156.652344 94.707031 150.296875 90.039062 140.46875 L 88.183594 136.558594 C 87.484375 135.089844 86.289062 134.027344 84.894531 133.460938 L 76.171875 141.796875 C 77.566406 142.367188 78.765625 143.429688 79.460938 144.898438 L 81.316406 148.808594 C 85.988281 158.636719 96.03125 164.988281 106.90625 164.988281 C 115.238281 164.988281 123.960938 159.648438 129.1875 153.488281 C 124.988281 155.472656 120.25 156.652344 115.628906 156.652344 Z M 115.628906 156.652344 " fill-opacity="1" fill-rule="nonzero"/><path fill="#000000" d="M 106.90625 165.613281 C 95.792969 165.613281 85.527344 159.121094 80.753906 149.074219 L 78.898438 145.164062 C 78.296875 143.898438 77.246094 142.910156 75.9375 142.375 C 75.742188 142.296875 75.597656 142.125 75.558594 141.914062 C 75.519531 141.707031 75.585938 141.492188 75.742188 141.347656 L 84.460938 133.007812 C 84.640625 132.839844 84.898438 132.789062 85.128906 132.882812 C 86.726562 133.53125 88.011719 134.742188 88.746094 136.289062 L 90.601562 140.199219 C 95.167969 149.8125 104.992188 156.027344 115.628906 156.027344 C 120.03125 156.027344 124.628906 154.953125 128.921875 152.921875 C 129.1875 152.796875 129.503906 152.875 129.683594 153.109375 C 129.863281 153.339844 129.855469 153.667969 129.664062 153.890625 C 126.933594 157.109375 123.328125 160.023438 119.511719 162.097656 C 115.277344 164.398438 110.917969 165.613281 106.90625 165.613281 Z M 77.25 141.628906 C 78.457031 142.324219 79.425781 143.363281 80.023438 144.628906 L 81.882812 148.539062 C 86.449219 158.152344 96.273438 164.367188 106.90625 164.367188 C 114.289062 164.367188 121.78125 160.039062 126.730469 155.203125 C 123.082031 156.5625 119.292969 157.273438 115.628906 157.273438 C 104.511719 157.273438 94.246094 150.78125 89.476562 140.734375 L 87.617188 136.828125 C 87.074219 135.679688 86.160156 134.757812 85.019531 134.199219 Z M 77.25 141.628906 " fill-opacity="1" fill-rule="nonzero"/></svg>