<svg xmlns="http://www.w3.org/2000/svg" xmlns:xlink="http://www.w3.org/1999/xlink" width="300" zoomAndPan="magnify" viewBox="0 0 224.87999 225" height="300" preserveAspectRatio="xMidYMid meet" version="1.0"><defs><clipPath id="d2385ceef8"><path d="M 26.648438 22.546875 L 198.308594 22.546875 L 198.308594 202.453125 L 26.648438 202.453125 Z M 26.648438 22.546875 " clip-rule="nonzero"/></clipPath><clipPath id="0316d78d74"><path d="M 26.648438 30 L 185 30 L 185 202.453125 L 26.648438 202.453125 Z M 26.648438 30 " clip-rule="nonzero"/></clipPath><clipPath id="267723bdc8"><path d="M 29 22.546875 L 70 22.546875 L 70 34 L 29 34 Z M 29 22.546875 " clip-rule="nonzero"/></clipPath><clipPath id="db2fb15fd4"><path d="M 155 22.546875 L 196 22.546875 L 196 34 L 155 34 Z M 155 22.546875 " clip-rule="nonzero"/></clipPath><clipPath id="8af9e9cbcc"><path d="M 180 23 L 198.308594 23 L 198.308594 201 L 180 201 Z M 180 23 " clip-rule="nonzero"/></clipPath></defs><path fill="#000000" d="M 191.449219 23.269531 L 173.394531 23.269531 C 172.277344 23.269531 171.21875 23.578125 170.289062 24.113281 L 170.289062 24.101562 L 170.101562 24.214844 C 170.074219 24.234375 170.042969 24.25 170.011719 24.269531 L 156.503906 32.449219 L 156.503906 32.457031 C 155.449219 33.085938 154.578125 34.015625 154.039062 35.175781 L 114.40625 120.453125 L 70.878906 26.828125 C 69.855469 24.625 67.640625 23.214844 65.210938 23.222656 L 47.191406 23.265625 C 45.96875 23.269531 44.835938 23.628906 43.875 24.238281 L 43.871094 24.234375 L 30.539062 32.316406 C 30.367188 32.40625 30.203125 32.507812 30.042969 32.617188 L 30.015625 32.632812 C 28.359375 33.753906 27.273438 35.648438 27.273438 37.796875 L 27.273438 195.292969 C 27.273438 198.734375 30.0625 201.527344 33.507812 201.527344 L 57.808594 201.527344 C 59.1875 201.527344 60.460938 201.074219 61.492188 200.316406 L 74.417969 192.507812 C 74.632812 192.394531 74.839844 192.269531 75.039062 192.132812 L 75.054688 192.121094 C 76.679688 190.996094 77.746094 189.121094 77.746094 186.996094 L 77.746094 164.539062 L 94.042969 198.25 C 95.085938 200.40625 97.265625 201.773438 99.65625 201.773438 L 111.601562 201.773438 C 112.703125 201.773438 113.753906 201.46875 114.675781 200.945312 L 114.679688 200.953125 L 114.828125 200.863281 C 114.875 200.835938 114.917969 200.8125 114.960938 200.78125 L 128.34375 192.675781 L 128.332031 192.671875 C 129.429688 192.058594 130.34375 191.128906 130.914062 189.953125 L 147.210938 156.242188 L 147.210938 195.292969 C 147.210938 198.734375 150.003906 201.527344 153.445312 201.527344 L 177.75 201.527344 C 179.1875 201.527344 180.507812 201.035156 181.5625 200.21875 L 181.566406 200.21875 L 194.816406 192.242188 L 194.8125 192.238281 C 196.539062 191.132812 197.683594 189.199219 197.683594 186.996094 L 197.683594 29.503906 C 197.683594 26.058594 194.894531 23.269531 191.449219 23.269531 Z M 191.449219 23.269531 " fill-opacity="1" fill-rule="nonzero"/><g clip-path="url(#d2385ceef8)"><path fill="#000000" d="M 99.65625 202.394531 C 97.042969 202.394531 94.621094 200.875 93.480469 198.523438 L 78.367188 167.261719 L 78.367188 186.996094 C 78.367188 189.222656 77.28125 191.316406 75.453125 192.601562 C 75.429688 192.621094 75.40625 192.636719 75.378906 192.65625 L 75.375 192.65625 C 75.167969 192.796875 74.953125 192.929688 74.726562 193.046875 L 61.835938 200.835938 C 60.65625 201.695312 59.261719 202.148438 57.808594 202.148438 L 33.507812 202.148438 C 29.726562 202.148438 26.648438 199.074219 26.648438 195.292969 L 26.648438 37.796875 C 26.648438 35.519531 27.777344 33.394531 29.667969 32.117188 C 29.675781 32.109375 29.6875 32.101562 29.695312 32.097656 L 29.707031 32.089844 C 29.878906 31.976562 30.054688 31.871094 30.226562 31.773438 L 43.550781 23.699219 C 43.570312 23.6875 43.589844 23.675781 43.609375 23.667969 C 44.691406 23 45.925781 22.648438 47.1875 22.644531 L 65.207031 22.597656 C 65.214844 22.597656 65.21875 22.597656 65.226562 22.597656 C 67.882812 22.597656 70.324219 24.152344 71.445312 26.566406 L 114.40625 118.976562 L 153.472656 34.910156 C 154.039062 33.695312 154.949219 32.679688 156.109375 31.96875 C 156.128906 31.949219 156.152344 31.933594 156.179688 31.917969 L 169.6875 23.738281 C 169.695312 23.730469 169.71875 23.714844 169.742188 23.703125 L 169.964844 23.570312 C 170.003906 23.546875 170.042969 23.527344 170.082031 23.511719 C 171.109375 22.945312 172.25 22.648438 173.394531 22.648438 L 191.449219 22.648438 C 195.230469 22.648438 198.308594 25.722656 198.308594 29.503906 L 198.308594 186.996094 C 198.308594 189.316406 197.148438 191.453125 195.203125 192.726562 C 195.183594 192.746094 195.160156 192.761719 195.136719 192.773438 L 181.902344 200.742188 C 180.695312 201.664062 179.261719 202.148438 177.75 202.148438 L 153.445312 202.148438 C 149.664062 202.148438 146.585938 199.074219 146.585938 195.292969 L 146.585938 158.964844 L 131.472656 190.226562 C 130.882812 191.445312 129.941406 192.457031 128.746094 193.152344 C 128.722656 193.171875 128.695312 193.191406 128.667969 193.210938 L 115.285156 201.316406 C 115.265625 201.328125 115.230469 201.351562 115.195312 201.371094 L 115.003906 201.488281 C 114.964844 201.511719 114.925781 201.527344 114.886719 201.542969 C 113.867188 202.101562 112.734375 202.394531 111.601562 202.394531 Z M 77.746094 163.917969 C 77.980469 163.917969 78.199219 164.050781 78.304688 164.269531 L 94.605469 197.980469 C 95.535156 199.90625 97.519531 201.148438 99.65625 201.148438 L 111.601562 201.148438 C 112.554688 201.148438 113.511719 200.890625 114.367188 200.402344 C 114.394531 200.390625 114.421875 200.375 114.449219 200.363281 L 114.558594 200.300781 C 114.582031 200.285156 114.605469 200.273438 114.625 200.257812 L 127.917969 192.207031 C 127.949219 192.175781 127.988281 192.148438 128.027344 192.125 C 129.050781 191.554688 129.855469 190.710938 130.351562 189.683594 L 146.648438 155.972656 C 146.777344 155.710938 147.066406 155.570312 147.351562 155.636719 C 147.632812 155.699219 147.835938 155.953125 147.835938 156.242188 L 147.835938 195.292969 C 147.835938 198.386719 150.351562 200.902344 153.445312 200.902344 L 177.75 200.902344 C 179 200.902344 180.1875 200.496094 181.183594 199.722656 C 181.214844 199.699219 181.246094 199.679688 181.28125 199.660156 L 194.4375 191.738281 C 194.449219 191.730469 194.460938 191.722656 194.476562 191.714844 C 196.09375 190.675781 197.0625 188.910156 197.0625 186.996094 L 197.0625 29.503906 C 197.0625 26.410156 194.542969 23.894531 191.449219 23.894531 L 173.394531 23.894531 C 172.429688 23.894531 171.464844 24.15625 170.601562 24.652344 C 170.570312 24.667969 170.542969 24.683594 170.511719 24.695312 L 170.347656 24.792969 L 156.898438 32.9375 C 156.875 32.957031 156.851562 32.976562 156.824219 32.992188 C 155.84375 33.578125 155.078125 34.421875 154.605469 35.4375 L 114.96875 120.71875 C 114.867188 120.9375 114.648438 121.078125 114.40625 121.078125 C 114.164062 121.078125 113.941406 120.9375 113.839844 120.71875 L 70.3125 27.089844 C 69.398438 25.117188 67.402344 23.84375 65.226562 23.84375 C 65.21875 23.84375 65.214844 23.84375 65.210938 23.84375 L 47.191406 23.890625 C 46.136719 23.894531 45.105469 24.195312 44.207031 24.765625 C 44.183594 24.78125 44.15625 24.796875 44.128906 24.808594 L 30.863281 32.847656 C 30.855469 32.851562 30.84375 32.859375 30.835938 32.863281 C 30.6875 32.945312 30.535156 33.035156 30.390625 33.132812 C 30.378906 33.140625 30.371094 33.144531 30.363281 33.152344 L 30.351562 33.15625 C 28.8125 34.203125 27.894531 35.9375 27.894531 37.796875 L 27.894531 195.292969 C 27.894531 198.386719 30.414062 200.902344 33.507812 200.902344 L 57.808594 200.902344 C 59.007812 200.902344 60.152344 200.527344 61.121094 199.8125 C 61.136719 199.804688 61.152344 199.792969 61.167969 199.78125 L 74.097656 191.972656 C 74.105469 191.96875 74.117188 191.960938 74.128906 191.957031 C 74.316406 191.855469 74.5 191.746094 74.675781 191.625 C 74.683594 191.621094 74.691406 191.613281 74.699219 191.609375 C 76.214844 190.558594 77.121094 188.835938 77.121094 186.996094 L 77.121094 164.539062 C 77.121094 164.25 77.324219 163.996094 77.605469 163.933594 C 77.652344 163.921875 77.699219 163.917969 77.746094 163.917969 Z M 77.746094 163.917969 " fill-opacity="1" fill-rule="nonzero"/></g><path fill="#ffffff" d="M 64.046875 136.207031 L 64.046875 195.292969 C 64.046875 198.734375 61.253906 201.527344 57.808594 201.527344 L 33.507812 201.527344 C 30.0625 201.527344 27.273438 198.734375 27.273438 195.292969 L 27.273438 37.796875 C 27.273438 34.359375 30.054688 31.574219 33.492188 31.566406 L 51.511719 31.519531 C 53.941406 31.511719 56.15625 32.921875 57.179688 35.125 L 105.628906 139.339844 L 154.039062 35.175781 C 155.0625 32.976562 157.269531 31.566406 159.695312 31.566406 L 177.75 31.566406 C 181.195312 31.566406 183.984375 34.359375 183.984375 37.800781 L 183.984375 195.292969 C 183.984375 198.738281 181.195312 201.527344 177.75 201.527344 L 153.445312 201.527344 C 150.003906 201.527344 147.210938 198.738281 147.210938 195.292969 L 147.210938 136.207031 L 117.214844 198.25 C 116.171875 200.402344 113.992188 201.773438 111.601562 201.773438 L 99.65625 201.773438 C 97.265625 201.773438 95.085938 200.40625 94.042969 198.25 Z M 64.046875 136.207031 " fill-opacity="1" fill-rule="nonzero"/><g clip-path="url(#0316d78d74)"><path fill="#000000" d="M 99.65625 202.394531 C 97.042969 202.394531 94.621094 200.875 93.480469 198.523438 L 64.667969 138.925781 L 64.667969 195.292969 C 64.667969 199.074219 61.59375 202.148438 57.808594 202.148438 L 33.507812 202.148438 C 29.726562 202.148438 26.648438 199.074219 26.648438 195.292969 L 26.648438 37.796875 C 26.648438 34.027344 29.71875 30.949219 33.488281 30.941406 L 51.507812 30.894531 C 51.515625 30.894531 51.519531 30.894531 51.527344 30.894531 C 54.183594 30.894531 56.625 32.453125 57.746094 34.863281 L 105.628906 137.859375 L 153.472656 34.910156 C 154.59375 32.5 157.035156 30.945312 159.695312 30.945312 L 177.75 30.945312 C 181.53125 30.945312 184.609375 34.019531 184.609375 37.800781 L 184.609375 195.292969 C 184.609375 199.074219 181.53125 202.148438 177.75 202.148438 L 153.445312 202.148438 C 149.664062 202.148438 146.585938 199.074219 146.585938 195.292969 L 146.585938 138.929688 L 117.777344 198.523438 C 116.636719 200.875 114.214844 202.394531 111.601562 202.394531 Z M 64.046875 135.582031 C 64.28125 135.582031 64.5 135.714844 64.605469 135.933594 L 94.605469 197.980469 C 95.535156 199.90625 97.519531 201.148438 99.660156 201.148438 L 111.601562 201.148438 C 113.738281 201.148438 115.722656 199.90625 116.652344 197.980469 L 146.648438 135.933594 C 146.777344 135.671875 147.066406 135.535156 147.351562 135.597656 C 147.632812 135.664062 147.835938 135.914062 147.835938 136.207031 L 147.835938 195.292969 C 147.835938 198.386719 150.351562 200.902344 153.445312 200.902344 L 177.75 200.902344 C 180.84375 200.902344 183.363281 198.386719 183.363281 195.292969 L 183.363281 37.800781 C 183.363281 34.707031 180.84375 32.191406 177.75 32.191406 L 159.695312 32.191406 C 157.519531 32.191406 155.523438 33.464844 154.605469 35.4375 L 106.195312 139.601562 C 106.089844 139.824219 105.871094 139.964844 105.628906 139.964844 C 105.386719 139.964844 105.164062 139.824219 105.0625 139.601562 L 56.613281 35.386719 C 55.699219 33.414062 53.703125 32.144531 51.527344 32.144531 C 51.519531 32.144531 51.515625 32.144531 51.511719 32.144531 L 33.492188 32.1875 C 30.40625 32.195312 27.894531 34.710938 27.894531 37.796875 L 27.894531 195.292969 C 27.894531 198.386719 30.414062 200.902344 33.507812 200.902344 L 57.808594 200.902344 C 60.90625 200.902344 63.421875 198.386719 63.421875 195.292969 L 63.421875 136.207031 C 63.421875 135.914062 63.625 135.664062 63.90625 135.597656 C 63.953125 135.585938 64 135.582031 64.046875 135.582031 Z M 64.046875 135.582031 " fill-opacity="1" fill-rule="nonzero"/></g><path fill="#c2b092" d="M 64.046875 195.292969 C 64.046875 197.359375 63.039062 199.183594 61.492188 200.316406 L 74.417969 192.507812 C 74.632812 192.394531 74.839844 192.269531 75.039062 192.132812 L 75.054688 192.121094 C 76.679688 190.996094 77.746094 189.121094 77.746094 186.996094 L 77.746094 164.539062 L 64.046875 136.207031 Z M 64.046875 195.292969 " fill-opacity="1" fill-rule="nonzero"/><path fill="#000000" d="M 61.492188 200.941406 C 61.289062 200.941406 61.09375 200.839844 60.972656 200.664062 C 60.789062 200.386719 60.855469 200.011719 61.121094 199.8125 C 62.585938 198.742188 63.421875 197.09375 63.421875 195.292969 L 63.421875 136.207031 C 63.421875 135.914062 63.625 135.664062 63.90625 135.597656 C 64.191406 135.53125 64.480469 135.671875 64.605469 135.933594 L 78.304688 164.269531 C 78.347656 164.355469 78.367188 164.445312 78.367188 164.539062 L 78.367188 186.996094 C 78.367188 189.226562 77.28125 191.316406 75.453125 192.601562 C 75.429688 192.621094 75.40625 192.640625 75.378906 192.65625 L 75.375 192.65625 C 75.171875 192.796875 74.953125 192.929688 74.726562 193.050781 L 61.8125 200.851562 C 61.714844 200.910156 61.601562 200.941406 61.492188 200.941406 Z M 64.667969 138.925781 L 64.667969 195.292969 C 64.667969 196.238281 64.46875 197.164062 64.101562 198.011719 L 74.097656 191.972656 C 74.105469 191.964844 74.117188 191.960938 74.128906 191.957031 C 74.316406 191.855469 74.5 191.746094 74.675781 191.625 C 74.683594 191.621094 74.691406 191.613281 74.699219 191.609375 C 76.214844 190.558594 77.121094 188.835938 77.121094 186.996094 L 77.121094 164.683594 Z M 64.667969 138.925781 " fill-opacity="1" fill-rule="nonzero"/><path fill="#c2b092" d="M 117.214844 198.25 C 116.703125 199.308594 115.914062 200.171875 114.960938 200.785156 L 128.34375 192.675781 L 128.332031 192.671875 C 129.429688 192.058594 130.34375 191.128906 130.914062 189.953125 L 147.210938 156.242188 L 147.210938 136.207031 Z M 117.214844 198.25 " fill-opacity="1" fill-rule="nonzero"/><path fill="#000000" d="M 114.964844 201.40625 C 114.753906 201.40625 114.550781 201.300781 114.433594 201.113281 C 114.253906 200.824219 114.339844 200.441406 114.625 200.257812 C 115.503906 199.695312 116.203125 198.910156 116.652344 197.980469 L 146.648438 135.933594 C 146.777344 135.671875 147.066406 135.535156 147.351562 135.597656 C 147.632812 135.664062 147.835938 135.914062 147.835938 136.207031 L 147.835938 156.242188 C 147.835938 156.335938 147.8125 156.429688 147.773438 156.515625 L 131.472656 190.226562 C 130.882812 191.445312 129.941406 192.457031 128.746094 193.152344 C 128.722656 193.171875 128.695312 193.191406 128.667969 193.210938 L 115.285156 201.316406 C 115.183594 201.378906 115.074219 201.40625 114.964844 201.40625 Z M 117.214844 198.25 L 117.617188 198.445312 Z M 146.585938 138.929688 L 117.894531 198.28125 L 127.917969 192.207031 C 127.949219 192.175781 127.988281 192.148438 128.027344 192.128906 C 129.050781 191.554688 129.855469 190.710938 130.351562 189.683594 L 146.585938 156.101562 Z M 146.585938 138.929688 " fill-opacity="1" fill-rule="nonzero"/><path fill="#c2b092" d="M 65.210938 23.222656 L 47.191406 23.265625 C 45.96875 23.269531 44.835938 23.628906 43.875 24.238281 L 43.871094 24.234375 L 30.539062 32.316406 C 31.417969 31.839844 32.421875 31.566406 33.492188 31.5625 L 51.511719 31.519531 C 52.808594 31.515625 54.039062 31.925781 55.066406 32.636719 L 68.761719 24.335938 C 67.734375 23.628906 66.507812 23.21875 65.210938 23.222656 Z M 65.210938 23.222656 " fill-opacity="1" fill-rule="nonzero"/><g clip-path="url(#267723bdc8)"><path fill="#000000" d="M 55.066406 33.257812 C 54.941406 33.257812 54.816406 33.222656 54.710938 33.148438 C 53.757812 32.492188 52.65625 32.140625 51.527344 32.140625 C 51.519531 32.140625 51.515625 32.140625 51.511719 32.140625 L 33.492188 32.1875 C 32.566406 32.191406 31.648438 32.421875 30.835938 32.863281 C 30.539062 33.023438 30.167969 32.917969 30 32.625 C 29.828125 32.332031 29.925781 31.957031 30.214844 31.78125 L 43.550781 23.699219 C 43.570312 23.6875 43.589844 23.675781 43.609375 23.667969 C 44.691406 23 45.925781 22.648438 47.1875 22.644531 L 65.207031 22.597656 C 65.214844 22.597656 65.21875 22.597656 65.226562 22.597656 C 66.609375 22.597656 67.953125 23.023438 69.113281 23.824219 C 69.289062 23.941406 69.390625 24.144531 69.382812 24.355469 C 69.378906 24.566406 69.265625 24.757812 69.085938 24.867188 L 55.390625 33.167969 C 55.289062 33.230469 55.179688 33.257812 55.066406 33.257812 Z M 51.523438 30.894531 C 52.777344 30.894531 53.996094 31.242188 55.078125 31.902344 L 67.53125 24.351562 C 66.808594 24.019531 66.023438 23.84375 65.226562 23.84375 C 65.21875 23.84375 65.214844 23.84375 65.210938 23.84375 L 47.191406 23.890625 C 46.136719 23.894531 45.105469 24.195312 44.207031 24.765625 C 44.183594 24.78125 44.15625 24.796875 44.128906 24.808594 L 34.011719 30.941406 L 51.507812 30.894531 C 51.515625 30.894531 51.519531 30.894531 51.523438 30.894531 Z M 51.523438 30.894531 " fill-opacity="1" fill-rule="nonzero"/></g><path fill="#c2b092" d="M 70.878906 26.828125 C 70.402344 25.800781 69.660156 24.953125 68.761719 24.335938 L 55.066406 32.636719 C 55.960938 33.253906 56.703125 34.097656 57.179688 35.125 L 105.628906 139.339844 L 114.40625 120.453125 Z M 70.878906 26.828125 " fill-opacity="1" fill-rule="nonzero"/><path fill="#000000" d="M 105.628906 139.964844 C 105.386719 139.964844 105.164062 139.824219 105.0625 139.601562 L 56.613281 35.386719 C 56.203125 34.496094 55.542969 33.722656 54.710938 33.148438 C 54.539062 33.027344 54.4375 32.828125 54.441406 32.617188 C 54.449219 32.40625 54.5625 32.214844 54.742188 32.105469 L 68.4375 23.800781 C 68.648438 23.675781 68.914062 23.683594 69.113281 23.824219 C 70.132812 24.523438 70.9375 25.472656 71.445312 26.566406 L 114.972656 120.191406 C 115.046875 120.359375 115.046875 120.550781 114.972656 120.71875 L 106.195312 139.601562 C 106.089844 139.824219 105.871094 139.964844 105.628906 139.964844 Z M 56.152344 32.707031 C 56.824219 33.316406 57.367188 34.050781 57.746094 34.863281 L 105.628906 137.859375 L 113.71875 120.453125 L 70.3125 27.089844 C 69.953125 26.316406 69.410156 25.628906 68.726562 25.085938 Z M 56.152344 32.707031 " fill-opacity="1" fill-rule="nonzero"/><path fill="#c2b092" d="M 191.449219 23.269531 L 173.394531 23.269531 C 172.277344 23.269531 171.21875 23.578125 170.289062 24.113281 L 170.289062 24.101562 L 170.101562 24.214844 C 170.074219 24.234375 170.042969 24.25 170.011719 24.269531 L 156.503906 32.449219 L 156.503906 32.457031 C 157.453125 31.890625 158.546875 31.566406 159.695312 31.566406 L 177.75 31.566406 C 179.203125 31.566406 180.539062 32.070312 181.597656 32.902344 L 195.292969 24.601562 C 194.234375 23.769531 192.902344 23.269531 191.449219 23.269531 Z M 191.449219 23.269531 " fill-opacity="1" fill-rule="nonzero"/><g clip-path="url(#db2fb15fd4)"><path fill="#000000" d="M 181.597656 33.527344 C 181.460938 33.527344 181.328125 33.480469 181.214844 33.394531 C 180.214844 32.605469 179.015625 32.191406 177.75 32.191406 L 159.695312 32.191406 C 158.695312 32.191406 157.703125 32.46875 156.824219 32.992188 C 156.65625 33.089844 156.457031 33.105469 156.273438 33.035156 C 156.09375 32.964844 155.957031 32.8125 155.90625 32.628906 C 155.828125 32.355469 155.941406 32.0625 156.179688 31.917969 L 169.6875 23.738281 C 169.695312 23.730469 169.71875 23.714844 169.742188 23.703125 L 169.964844 23.570312 C 170.003906 23.546875 170.042969 23.527344 170.082031 23.515625 C 171.109375 22.945312 172.25 22.648438 173.394531 22.648438 L 191.449219 22.648438 C 192.996094 22.648438 194.457031 23.152344 195.679688 24.113281 C 195.839844 24.238281 195.929688 24.4375 195.917969 24.640625 C 195.902344 24.84375 195.792969 25.03125 195.617188 25.136719 L 181.921875 33.4375 C 181.824219 33.496094 181.710938 33.527344 181.597656 33.527344 Z M 160.191406 30.945312 L 177.75 30.945312 C 179.152344 30.945312 180.484375 31.359375 181.632812 32.152344 L 194.132812 24.578125 C 193.3125 24.128906 192.398438 23.894531 191.449219 23.894531 L 173.394531 23.894531 C 172.429688 23.894531 171.464844 24.15625 170.601562 24.652344 C 170.570312 24.667969 170.542969 24.683594 170.511719 24.695312 L 170.347656 24.792969 Z M 160.191406 30.945312 " fill-opacity="1" fill-rule="nonzero"/></g><path fill="#c2b092" d="M 195.292969 24.601562 L 181.597656 32.902344 C 183.050781 34.042969 183.984375 35.8125 183.984375 37.800781 L 183.984375 195.292969 C 183.984375 197.296875 183.035156 199.078125 181.5625 200.21875 L 181.566406 200.21875 L 194.816406 192.242188 L 194.8125 192.238281 C 196.539062 191.132812 197.683594 189.199219 197.683594 186.996094 L 197.683594 29.503906 C 197.683594 27.511719 196.746094 25.742188 195.292969 24.601562 Z M 195.292969 24.601562 " fill-opacity="1" fill-rule="nonzero"/><g clip-path="url(#8af9e9cbcc)"><path fill="#000000" d="M 181.566406 200.839844 C 181.40625 200.839844 181.246094 200.78125 181.125 200.660156 C 180.996094 200.53125 180.929688 200.355469 180.941406 200.179688 C 180.953125 200 181.039062 199.835938 181.183594 199.722656 C 182.566406 198.652344 183.363281 197.035156 183.363281 195.292969 L 183.363281 37.800781 C 183.363281 36.074219 182.578125 34.464844 181.214844 33.394531 C 181.054688 33.265625 180.964844 33.070312 180.976562 32.867188 C 180.988281 32.660156 181.101562 32.476562 181.277344 32.371094 L 194.972656 24.070312 C 195.191406 23.933594 195.476562 23.953125 195.679688 24.113281 C 197.351562 25.421875 198.308594 27.386719 198.308594 29.503906 L 198.308594 186.996094 C 198.308594 189.316406 197.148438 191.453125 195.203125 192.726562 C 195.183594 192.746094 195.160156 192.761719 195.136719 192.773438 L 181.886719 200.753906 C 181.789062 200.8125 181.675781 200.839844 181.566406 200.839844 Z M 182.640625 33 C 183.902344 34.277344 184.609375 35.984375 184.609375 37.800781 L 184.609375 195.292969 C 184.609375 196.238281 184.417969 197.152344 184.058594 197.988281 L 194.4375 191.738281 C 194.449219 191.730469 194.460938 191.722656 194.476562 191.714844 C 196.09375 190.675781 197.0625 188.910156 197.0625 186.996094 L 197.0625 29.503906 C 197.0625 27.914062 196.398438 26.429688 195.234375 25.367188 Z M 182.640625 33 " fill-opacity="1" fill-rule="nonzero"/></g></svg>