<svg xmlns="http://www.w3.org/2000/svg" xmlns:xlink="http://www.w3.org/1999/xlink" width="200" zoomAndPan="magnify" viewBox="0 0 150 95.999999" height="128" preserveAspectRatio="xMidYMid meet" version="1.0"><defs><clipPath id="5e59b40ea4"><path d="M 60.636719 8.117188 L 140.136719 8.117188 L 140.136719 87.617188 L 60.636719 87.617188 Z M 60.636719 8.117188 " clip-rule="nonzero"/></clipPath><clipPath id="d8579b775f"><path d="M 15 47 L 48 47 L 48 62 L 15 62 Z M 15 47 " clip-rule="nonzero"/></clipPath><clipPath id="681dae92e1"><path d="M 90.828125 42.210938 L 41.125 83.320312 L 5.273438 39.972656 L 54.976562 -1.132812 Z M 90.828125 42.210938 " clip-rule="nonzero"/></clipPath><clipPath id="dcd47e292d"><path d="M 90.828125 42.210938 L 41.125 83.320312 L 5.273438 39.972656 L 54.976562 -1.132812 Z M 90.828125 42.210938 " clip-rule="nonzero"/></clipPath><clipPath id="6892a56992"><path d="M 15 22 L 47 22 L 47 37 L 15 37 Z M 15 22 " clip-rule="nonzero"/></clipPath><clipPath id="b7881885b5"><path d="M 90.828125 42.210938 L 41.125 83.320312 L 5.273438 39.972656 L 54.976562 -1.132812 Z M 90.828125 42.210938 " clip-rule="nonzero"/></clipPath><clipPath id="645e871074"><path d="M 90.828125 42.210938 L 41.125 83.320312 L 5.273438 39.972656 L 54.976562 -1.132812 Z M 90.828125 42.210938 " clip-rule="nonzero"/></clipPath><clipPath id="3b5b2d54aa"><path d="M 22 36 L 32 36 L 32 48 L 22 48 Z M 22 36 " clip-rule="nonzero"/></clipPath><clipPath id="06859c9bed"><path d="M 90.828125 42.210938 L 41.125 83.320312 L 5.273438 39.972656 L 54.976562 -1.132812 Z M 90.828125 42.210938 " clip-rule="nonzero"/></clipPath><clipPath id="ee86789662"><path d="M 90.828125 42.210938 L 41.125 83.320312 L 5.273438 39.972656 L 54.976562 -1.132812 Z M 90.828125 42.210938 " clip-rule="nonzero"/></clipPath><clipPath id="4220582fa6"><path d="M 24 33 L 35 33 L 35 51 L 24 51 Z M 24 33 " clip-rule="nonzero"/></clipPath><clipPath id="ed94c9244c"><path d="M 90.828125 42.210938 L 41.125 83.320312 L 5.273438 39.972656 L 54.976562 -1.132812 Z M 90.828125 42.210938 " clip-rule="nonzero"/></clipPath><clipPath id="0e36b5ecc4"><path d="M 90.828125 42.210938 L 41.125 83.320312 L 5.273438 39.972656 L 54.976562 -1.132812 Z M 90.828125 42.210938 " clip-rule="nonzero"/></clipPath><clipPath id="2d95ec29ff"><path d="M 28 29 L 74 29 L 74 55 L 28 55 Z M 28 29 " clip-rule="nonzero"/></clipPath><clipPath id="89f156d961"><path d="M 90.828125 42.210938 L 41.125 83.320312 L 5.273438 39.972656 L 54.976562 -1.132812 Z M 90.828125 42.210938 " clip-rule="nonzero"/></clipPath><clipPath id="3b4a6ed4b8"><path d="M 90.828125 42.210938 L 41.125 83.320312 L 5.273438 39.972656 L 54.976562 -1.132812 Z M 90.828125 42.210938 " clip-rule="nonzero"/></clipPath><clipPath id="3e94428afd"><path d="M 53 34 L 69 34 L 69 50 L 53 50 Z M 53 34 " clip-rule="nonzero"/></clipPath><clipPath id="da2b4490f5"><path d="M 90.828125 42.210938 L 41.125 83.320312 L 5.273438 39.972656 L 54.976562 -1.132812 Z M 90.828125 42.210938 " clip-rule="nonzero"/></clipPath><clipPath id="918ae6d427"><path d="M 90.828125 42.210938 L 41.125 83.320312 L 5.273438 39.972656 L 54.976562 -1.132812 Z M 90.828125 42.210938 " clip-rule="nonzero"/></clipPath><clipPath id="21d74b3d2d"><path d="M 55 37 L 66 37 L 66 48 L 55 48 Z M 55 37 " clip-rule="nonzero"/></clipPath><clipPath id="dd5eb633d3"><path d="M 90.828125 42.210938 L 41.125 83.320312 L 5.273438 39.972656 L 54.976562 -1.132812 Z M 90.828125 42.210938 " clip-rule="nonzero"/></clipPath><clipPath id="79bc9d00dc"><path d="M 90.828125 42.210938 L 41.125 83.320312 L 5.273438 39.972656 L 54.976562 -1.132812 Z M 90.828125 42.210938 " clip-rule="nonzero"/></clipPath><clipPath id="919fccac19"><path d="M 10 36 L 48 36 L 48 43 L 10 43 Z M 10 36 " clip-rule="nonzero"/></clipPath><clipPath id="2919579170"><path d="M 90.828125 42.210938 L 41.125 83.320312 L 5.273438 39.972656 L 54.976562 -1.132812 Z M 90.828125 42.210938 " clip-rule="nonzero"/></clipPath><clipPath id="b139805bb2"><path d="M 90.828125 42.210938 L 41.125 83.320312 L 5.273438 39.972656 L 54.976562 -1.132812 Z M 90.828125 42.210938 " clip-rule="nonzero"/></clipPath><clipPath id="38d9b55506"><path d="M 10 42 L 48 42 L 48 48 L 10 48 Z M 10 42 " clip-rule="nonzero"/></clipPath><clipPath id="d60210327f"><path d="M 90.828125 42.210938 L 41.125 83.320312 L 5.273438 39.972656 L 54.976562 -1.132812 Z M 90.828125 42.210938 " clip-rule="nonzero"/></clipPath><clipPath id="09e176c12e"><path d="M 90.828125 42.210938 L 41.125 83.320312 L 5.273438 39.972656 L 54.976562 -1.132812 Z M 90.828125 42.210938 " clip-rule="nonzero"/></clipPath><clipPath id="e9dd48f31e"><path d="M 73 32 L 89 32 L 89 42 L 73 42 Z M 73 32 " clip-rule="nonzero"/></clipPath><clipPath id="b8dc624f4a"><path d="M 90.828125 42.210938 L 41.125 83.320312 L 5.273438 39.972656 L 54.976562 -1.132812 Z M 90.828125 42.210938 " clip-rule="nonzero"/></clipPath><clipPath id="b654283092"><path d="M 90.828125 42.210938 L 41.125 83.320312 L 5.273438 39.972656 L 54.976562 -1.132812 Z M 90.828125 42.210938 " clip-rule="nonzero"/></clipPath><clipPath id="89cd1b4cad"><path d="M 73 41 L 89 41 L 89 52 L 73 52 Z M 73 41 " clip-rule="nonzero"/></clipPath><clipPath id="bf7c8b8145"><path d="M 90.828125 42.210938 L 41.125 83.320312 L 5.273438 39.972656 L 54.976562 -1.132812 Z M 90.828125 42.210938 " clip-rule="nonzero"/></clipPath><clipPath id="6115b616d9"><path d="M 90.828125 42.210938 L 41.125 83.320312 L 5.273438 39.972656 L 54.976562 -1.132812 Z M 90.828125 42.210938 " clip-rule="nonzero"/></clipPath></defs><g clip-path="url(#5e59b40ea4)"><path fill="#486cbd" d="M 140.136719 47.867188 C 140.136719 69.820312 122.339844 87.617188 100.386719 87.617188 C 78.429688 87.617188 60.636719 69.820312 60.636719 47.867188 C 60.636719 25.914062 78.429688 8.117188 100.386719 8.117188 C 122.339844 8.117188 140.136719 25.914062 140.136719 47.867188 " fill-opacity="1" fill-rule="nonzero"/></g><path fill="#ff9700" d="M 111.234375 30.140625 C 111.140625 29.679688 111.03125 29.214844 110.917969 28.769531 C 110.757812 28.167969 111.699219 27.914062 111.855469 28.5 C 111.96875 28.960938 112.09375 29.421875 112.175781 29.867188 C 112.285156 30.488281 111.363281 30.742188 111.234375 30.140625 Z M 110.140625 26.480469 C 109.234375 24.335938 107.863281 22.300781 105.878906 20.980469 C 105.195312 20.519531 104.398438 20.074219 103.589844 19.914062 C 102.96875 19.804688 103.238281 18.867188 103.859375 18.976562 C 104.828125 19.167969 105.78125 19.707031 106.578125 20.265625 C 108.675781 21.742188 110.105469 23.875 111.078125 26.195312 C 111.316406 26.785156 110.378906 27.039062 110.140625 26.480469 Z M 100.425781 17.65625 C 93.601562 17.65625 88.054688 23.207031 88.054688 30.027344 C 88.054688 32.347656 88.800781 34.765625 90.660156 37.152344 C 92.523438 39.535156 93.601562 41 93.601562 42.78125 C 93.601562 44.542969 94 45.464844 95.242188 45.464844 C 95.859375 45.464844 97.132812 45.464844 98.246094 45.464844 L 98.246094 35.609375 L 96.800781 35.609375 C 95.636719 35.609375 94.699219 34.671875 94.699219 33.507812 C 94.699219 32.347656 95.636719 31.410156 96.800781 31.410156 C 97.960938 31.410156 98.898438 32.347656 98.898438 33.507812 L 98.898438 34.957031 L 101.933594 34.957031 L 101.933594 33.507812 C 101.933594 32.347656 102.871094 31.410156 104.035156 31.410156 C 105.195312 31.410156 106.132812 32.347656 106.132812 33.507812 C 106.132812 34.671875 105.195312 35.609375 104.035156 35.609375 L 102.585938 35.609375 L 102.585938 45.449219 C 103.714844 45.449219 104.988281 45.449219 105.589844 45.449219 C 106.847656 45.449219 107.230469 44.542969 107.230469 42.761719 C 107.230469 41 108.3125 39.519531 110.171875 37.136719 C 112.03125 34.75 112.777344 32.332031 112.777344 30.011719 C 112.792969 23.207031 107.261719 17.65625 100.425781 17.65625 Z M 96.816406 32.078125 C 96.003906 32.078125 95.367188 32.730469 95.367188 33.527344 C 95.367188 34.335938 96.019531 34.972656 96.816406 34.972656 L 98.261719 34.972656 L 98.261719 33.527344 C 98.261719 32.730469 97.609375 32.078125 96.816406 32.078125 Z M 101.949219 35.625 L 98.914062 35.625 L 98.914062 45.464844 C 99.773438 45.464844 100.441406 45.464844 100.441406 45.464844 C 100.441406 45.464844 101.09375 45.464844 101.964844 45.464844 L 101.964844 35.625 Z M 105.511719 33.527344 C 105.511719 32.714844 104.859375 32.078125 104.066406 32.078125 C 103.269531 32.078125 102.617188 32.730469 102.617188 33.527344 L 102.617188 34.972656 L 104.066406 34.972656 C 104.84375 34.972656 105.511719 34.335938 105.511719 33.527344 " fill-opacity="1" fill-rule="nonzero"/><path fill="#2d3b44" d="M 105.609375 45.480469 L 105.609375 49.886719 C 105.609375 52.78125 103.238281 55.132812 100.359375 55.132812 C 97.46875 55.132812 95.113281 52.765625 95.113281 49.886719 L 95.113281 45.480469 L 105.609375 45.480469 " fill-opacity="1" fill-rule="nonzero"/><path fill="#354b58" d="M 106.863281 50.15625 C 106.863281 49.777344 106.546875 49.488281 106.164062 49.535156 L 94.539062 50.808594 C 94.160156 50.855469 93.839844 51.207031 93.839844 51.585938 C 93.839844 51.96875 94.160156 52.257812 94.539062 52.207031 L 106.164062 50.9375 C 106.5625 50.886719 106.863281 50.539062 106.863281 50.15625 Z M 106.164062 47.851562 L 94.539062 49.125 C 94.160156 49.171875 93.839844 48.882812 93.839844 48.503906 C 93.839844 48.121094 94.160156 47.773438 94.539062 47.722656 L 106.164062 46.453125 C 106.546875 46.40625 106.863281 46.691406 106.863281 47.074219 C 106.863281 47.46875 106.5625 47.820312 106.164062 47.851562 " fill-opacity="1" fill-rule="nonzero"/><path fill="#ffffff" d="M 118.390625 20.457031 C 116.800781 21.363281 115.210938 22.253906 113.636719 23.160156 C 113.144531 23.429688 112.730469 22.683594 113.207031 22.425781 C 114.796875 21.519531 116.386719 20.628906 117.960938 19.722656 C 118.453125 19.4375 118.882812 20.203125 118.390625 20.457031 Z M 116.117188 29.234375 C 117.929688 29.105469 119.757812 28.976562 121.585938 28.851562 C 122.128906 28.820312 122.207031 29.679688 121.636719 29.710938 C 119.820312 29.835938 117.992188 29.964844 116.164062 30.089844 C 115.625 30.121094 115.5625 29.28125 116.117188 29.234375 Z M 108.5 19.121094 C 109.34375 17.5 110.203125 15.875 111.03125 14.253906 C 111.285156 13.761719 112.046875 14.175781 111.777344 14.652344 C 110.933594 16.273438 110.074219 17.894531 109.25 19.519531 C 108.996094 20.011719 108.246094 19.597656 108.5 19.121094 Z M 102.652344 45.449219 C 103.632812 45.46875 104.34375 45.480469 104.34375 45.480469 C 104.34375 45.480469 104.351562 45.472656 104.363281 45.449219 C 103.828125 45.449219 103.222656 45.449219 102.652344 45.449219 Z M 98.261719 34.972656 L 96.816406 34.972656 C 96.019531 34.972656 95.367188 34.335938 95.367188 33.527344 C 95.367188 32.730469 96.003906 32.078125 96.816406 32.078125 C 97.609375 32.078125 98.261719 32.730469 98.261719 33.527344 Z M 102.617188 33.527344 C 102.617188 32.730469 103.269531 32.078125 104.066406 32.078125 C 104.859375 32.078125 105.511719 32.714844 105.511719 33.527344 C 105.511719 34.335938 104.84375 34.972656 104.066406 34.972656 L 102.617188 34.972656 Z M 98.914062 35.625 L 101.964844 35.625 L 101.964844 45.441406 C 102.179688 45.441406 102.390625 45.445312 102.585938 45.449219 L 102.585938 35.609375 L 104.035156 35.609375 C 105.195312 35.609375 106.132812 34.671875 106.132812 33.507812 C 106.132812 32.347656 105.195312 31.410156 104.035156 31.410156 C 102.871094 31.410156 101.933594 32.347656 101.933594 33.507812 L 101.933594 34.957031 L 98.898438 34.957031 L 98.898438 33.507812 C 98.898438 32.347656 97.960938 31.410156 96.800781 31.410156 C 95.636719 31.410156 94.699219 32.347656 94.699219 33.507812 C 94.699219 34.671875 95.636719 35.609375 96.800781 35.609375 L 98.246094 35.609375 L 98.246094 45.414062 C 98.453125 45.414062 98.679688 45.410156 98.914062 45.410156 Z M 110.917969 28.769531 C 111.03125 29.214844 111.140625 29.679688 111.234375 30.140625 C 111.363281 30.742188 112.285156 30.488281 112.175781 29.867188 C 112.09375 29.421875 111.96875 28.960938 111.855469 28.5 C 111.699219 27.914062 110.757812 28.167969 110.917969 28.769531 Z M 103.589844 19.914062 C 104.398438 20.074219 105.195312 20.519531 105.878906 20.980469 C 107.863281 22.300781 109.234375 24.335938 110.140625 26.480469 C 110.378906 27.039062 111.316406 26.785156 111.078125 26.195312 C 110.105469 23.875 108.675781 21.742188 106.578125 20.265625 C 105.78125 19.707031 104.828125 19.167969 103.859375 18.976562 C 103.238281 18.867188 102.96875 19.804688 103.589844 19.914062 Z M 96.785156 45.464844 C 96.796875 45.484375 96.804688 45.488281 96.816406 45.480469 C 96.820312 45.476562 96.839844 45.472656 96.863281 45.464844 C 96.835938 45.464844 96.808594 45.464844 96.785156 45.464844 Z M 83.582031 54.703125 L 83.597656 55.070312 C 83.597656 55.125 83.683594 56.5625 84.003906 57.855469 L 84.035156 57.984375 C 84.328125 59.152344 84.484375 59.785156 83.398438 61.597656 C 83.117188 62.0625 82.835938 62.484375 82.597656 62.867188 C 81.726562 64.230469 81.132812 65.132812 81.445312 65.976562 C 81.683594 66.621094 82.472656 66.875 83.105469 67.085938 C 83.359375 67.171875 83.78125 67.3125 83.851562 67.410156 C 83.894531 67.609375 83.878906 68.070312 83.863281 68.496094 C 83.835938 69.4375 83.824219 70.027344 84.074219 70.335938 C 84.285156 70.621094 84.667969 70.941406 84.921875 71.152344 C 84.820312 71.363281 84.75 71.6875 84.792969 72.152344 C 84.835938 72.589844 85.046875 72.953125 85.242188 73.320312 C 85.453125 73.714844 85.664062 74.082031 85.664062 74.515625 L 85.664062 77.007812 C 85.664062 78.160156 87.4375 78.527344 88.03125 78.640625 C 89.027344 78.835938 90.871094 78.652344 92.335938 78.511719 C 93.066406 78.429688 93.980469 78.34375 94.164062 78.386719 C 94.996094 78.613281 97.089844 79.636719 98.820312 84.097656 L 98.921875 84.351562 L 99.214844 84.351562 C 99.355469 84.339844 102.691406 83.902344 106.109375 82.480469 C 110.726562 80.554688 113.21875 77.726562 113.316406 74.304688 L 113.316406 74.25 C 113.316406 74.222656 112.9375 70.703125 113.539062 68.957031 C 113.78125 68.269531 114.667969 66.960938 115.59375 65.566406 C 117.128906 63.261719 118.875 60.65625 119.085938 59.023438 C 119.410156 56.464844 119.410156 55.113281 119.410156 55.054688 L 119.410156 54.703125 Z M 99.277344 16.703125 C 99.277344 14.875 99.277344 13.0625 99.277344 11.21875 C 99.277344 10.675781 100.136719 10.675781 100.136719 11.21875 C 100.136719 13.046875 100.136719 14.875 100.136719 16.703125 C 100.121094 17.261719 99.277344 17.261719 99.277344 16.703125 Z M 78.546875 29.503906 C 80.359375 29.628906 82.1875 29.757812 84.015625 29.882812 C 84.554688 29.933594 84.507812 30.792969 83.96875 30.742188 C 82.15625 30.617188 80.328125 30.488281 78.5 30.359375 C 77.941406 30.3125 77.988281 29.472656 78.546875 29.503906 Z M 90.710938 19.039062 C 89.867188 17.417969 89.007812 15.8125 88.179688 14.175781 C 87.925781 13.683594 88.675781 13.285156 88.929688 13.777344 C 89.769531 15.414062 90.628906 17.019531 91.457031 18.644531 C 91.710938 19.121094 90.949219 19.519531 90.710938 19.039062 Z M 81.742188 21.09375 C 81.265625 20.820312 81.695312 20.074219 82.171875 20.359375 C 83.761719 21.265625 85.351562 22.15625 86.925781 23.0625 C 87.386719 23.316406 86.972656 24.082031 86.496094 23.796875 C 84.90625 22.886719 83.316406 22 81.742188 21.09375 " fill-opacity="1" fill-rule="nonzero"/><g clip-path="url(#d8579b775f)"><g clip-path="url(#681dae92e1)"><g clip-path="url(#dcd47e292d)"><path fill="#990000" d="M 43.339844 49.132812 C 43.339844 49.132812 43.953125 53.773438 47.339844 58.46875 C 47.339844 58.46875 37.859375 68.136719 15.535156 52.347656 C 15.535156 52.347656 32.792969 57.625 31.363281 47.359375 Z M 43.339844 49.132812 " fill-opacity="1" fill-rule="nonzero"/></g></g></g><g clip-path="url(#6892a56992)"><g clip-path="url(#b7881885b5)"><g clip-path="url(#645e871074)"><path fill="#f8010e" d="M 42.980469 34.753906 C 42.980469 34.753906 43.507812 30.105469 46.8125 25.375 C 46.8125 25.375 37.160156 15.804688 15.117188 31.820312 C 15.117188 31.820312 32.28125 26.367188 31.035156 36.648438 Z M 42.980469 34.753906 " fill-opacity="1" fill-rule="nonzero"/></g></g></g><g clip-path="url(#3b5b2d54aa)"><g clip-path="url(#06859c9bed)"><g clip-path="url(#ee86789662)"><path fill="#45b0e5" d="M 24.816406 48 C 23.585938 48.007812 22.582031 47.015625 22.570312 45.785156 L 22.507812 38.652344 C 22.496094 37.425781 23.484375 36.425781 24.710938 36.417969 L 29.042969 36.394531 C 30.273438 36.390625 31.277344 37.382812 31.285156 38.609375 L 31.351562 45.742188 C 31.363281 46.96875 30.375 47.972656 29.144531 47.976562 Z M 24.816406 48 " fill-opacity="1" fill-rule="nonzero"/></g></g></g><g clip-path="url(#4220582fa6)"><g clip-path="url(#ed94c9244c)"><g clip-path="url(#0e36b5ecc4)"><path fill="#64f9c3" d="M 26.09375 50.742188 C 25.480469 50.746094 24.976562 50.25 24.972656 49.632812 L 24.839844 34.777344 C 24.835938 34.167969 25.328125 33.667969 25.945312 33.664062 L 33.660156 33.625 C 34.277344 33.621094 34.777344 34.117188 34.78125 34.730469 L 34.914062 49.582031 C 34.917969 50.199219 34.425781 50.699219 33.8125 50.703125 Z M 26.09375 50.742188 " fill-opacity="1" fill-rule="nonzero"/></g></g></g><g clip-path="url(#2d95ec29ff)"><g clip-path="url(#89f156d961)"><g clip-path="url(#3b4a6ed4b8)"><path fill="#45b0e5" d="M 73.039062 32.441406 C 66.601562 30.636719 61.035156 29.558594 51.964844 29.605469 C 43.023438 29.652344 34.828125 30.769531 28.457031 32.589844 L 28.625 51.789062 C 35.03125 53.546875 43.242188 54.582031 52.1875 54.535156 C 61.257812 54.492188 66.800781 53.355469 73.210938 51.488281 C 73.261719 51.472656 73.320312 51.457031 73.371094 51.441406 L 73.203125 32.484375 C 73.148438 32.472656 73.09375 32.453125 73.039062 32.441406 Z M 73.039062 32.441406 " fill-opacity="1" fill-rule="nonzero"/></g></g></g><g clip-path="url(#3e94428afd)"><g clip-path="url(#da2b4490f5)"><g clip-path="url(#918ae6d427)"><path fill="#f8010e" d="M 60.753906 49.566406 C 56.589844 49.585938 53.191406 46.230469 53.152344 42.066406 C 53.117188 37.902344 56.460938 34.511719 60.621094 34.488281 C 64.78125 34.464844 68.183594 37.824219 68.21875 41.988281 C 68.257812 46.152344 64.914062 49.546875 60.753906 49.566406 Z M 60.753906 49.566406 " fill-opacity="1" fill-rule="nonzero"/></g></g></g><g clip-path="url(#21d74b3d2d)"><g clip-path="url(#dd5eb633d3)"><g clip-path="url(#79bc9d00dc)"><path fill="#64f9c3" d="M 55.683594 42.050781 C 55.664062 39.292969 57.886719 37.035156 60.640625 37.023438 C 63.398438 37.007812 65.664062 39.242188 65.6875 42 C 65.710938 44.761719 63.488281 47.015625 60.730469 47.03125 C 57.972656 47.046875 55.710938 44.8125 55.683594 42.050781 Z M 55.683594 42.050781 " fill-opacity="1" fill-rule="nonzero"/></g></g></g><g clip-path="url(#919fccac19)"><g clip-path="url(#2919579170)"><g clip-path="url(#b139805bb2)"><path fill="#f8010e" d="M 47.167969 42.097656 C 47.167969 42.097656 41.65625 39.734375 42.214844 36.328125 L 10.289062 42.28125 Z M 47.167969 42.097656 " fill-opacity="1" fill-rule="nonzero"/></g></g></g><g clip-path="url(#38d9b55506)"><g clip-path="url(#d60210327f)"><g clip-path="url(#09e176c12e)"><path fill="#990000" d="M 47.167969 42.097656 C 47.167969 42.097656 41.699219 44.511719 42.316406 47.910156 L 10.289062 42.28125 Z M 47.167969 42.097656 " fill-opacity="1" fill-rule="nonzero"/></g></g></g><g clip-path="url(#e9dd48f31e)"><g clip-path="url(#b8dc624f4a)"><g clip-path="url(#b654283092)"><path fill="#f8010e" d="M 73.203125 32.484375 L 73.289062 41.964844 L 88.964844 41.882812 C 88.949219 39.964844 81.175781 34.757812 73.203125 32.484375 Z M 73.203125 32.484375 " fill-opacity="1" fill-rule="nonzero"/></g></g></g><g clip-path="url(#89cd1b4cad)"><g clip-path="url(#bf7c8b8145)"><g clip-path="url(#6115b616d9)"><path fill="#990000" d="M 88.964844 41.882812 L 73.289062 41.964844 L 73.371094 51.441406 C 81.300781 49.085938 88.984375 43.734375 88.964844 41.882812 Z M 88.964844 41.882812 " fill-opacity="1" fill-rule="nonzero"/></g></g></g></svg>