<svg xmlns="http://www.w3.org/2000/svg" xmlns:xlink="http://www.w3.org/1999/xlink" width="200" zoomAndPan="magnify" viewBox="0 0 150 112.499997" height="150" preserveAspectRatio="xMidYMid meet" version="1.0"><defs><clipPath id="8092aa3546"><path d="M 14 44 L 138.679688 44 L 138.679688 79 L 14 79 Z M 14 44 " clip-rule="nonzero"/></clipPath><clipPath id="8cb7b8dd19"><path d="M 120 47 L 138.679688 47 L 138.679688 49 L 120 49 Z M 120 47 " clip-rule="nonzero"/></clipPath><clipPath id="399689bbd2"><path d="M 23 11.199219 L 132 11.199219 L 132 100.800781 L 23 100.800781 Z M 23 11.199219 " clip-rule="nonzero"/></clipPath></defs><g clip-path="url(#8092aa3546)"><path fill="#4f402f" d="M 138.609375 46.085938 C 135.347656 46.1875 99.996094 46.980469 94.53125 44.644531 C 92.378906 43.722656 78.960938 53.925781 60.816406 60.066406 C 52.382812 62.921875 42.476562 60.300781 34.183594 63.019531 C 14.972656 69.3125 14.15625 78.960938 14.15625 78.960938 C 14.15625 78.960938 17.8125 69.691406 34.714844 65.515625 C 46.941406 62.492188 59.148438 65.308594 61.382812 64.824219 C 66.707031 63.675781 86.007812 50.066406 95.089844 50.152344 C 104.171875 50.242188 138.042969 49.332031 138.042969 49.332031 L 138.609375 46.085938 " fill-opacity="1" fill-rule="nonzero"/></g><path fill="#271f17" d="M 84.671875 51.777344 C 85.386719 51.359375 86.105469 50.945312 86.828125 50.539062 L 89 49.332031 L 91.179688 48.144531 L 93.375 46.980469 C 93.425781 46.953125 93.480469 46.9375 93.539062 46.9375 L 93.566406 46.9375 C 94.457031 46.933594 95.347656 46.953125 96.238281 46.96875 C 97.128906 46.976562 98.019531 47.003906 98.90625 47.03125 C 99.800781 47.054688 100.691406 47.074219 101.578125 47.117188 C 102.46875 47.15625 103.359375 47.1875 104.246094 47.234375 L 106.914062 47.382812 C 107.804688 47.445312 108.695312 47.5 109.582031 47.570312 C 110.46875 47.644531 111.359375 47.710938 112.246094 47.800781 C 113.136719 47.882812 114.023438 47.980469 114.910156 48.09375 C 114.015625 48.140625 113.125 48.175781 112.230469 48.195312 C 111.339844 48.21875 110.449219 48.226562 109.558594 48.234375 C 108.667969 48.242188 107.777344 48.234375 106.882812 48.234375 L 104.214844 48.195312 C 103.324219 48.179688 102.433594 48.148438 101.542969 48.125 C 100.652344 48.105469 99.765625 48.0625 98.871094 48.027344 C 97.984375 47.988281 97.09375 47.953125 96.203125 47.898438 C 95.316406 47.847656 94.425781 47.804688 93.539062 47.738281 L 93.730469 47.695312 L 91.480469 48.75 L 89.222656 49.785156 L 86.953125 50.796875 C 86.195312 51.128906 85.433594 51.457031 84.671875 51.777344 " fill-opacity="1" fill-rule="nonzero"/><g clip-path="url(#8cb7b8dd19)"><path fill="#271f17" d="M 120.957031 48.472656 L 138.335938 47.640625 " fill-opacity="1" fill-rule="nonzero"/><path fill="#271f17" d="M 120.957031 48.472656 C 120.957031 48.472656 121.226562 48.414062 121.703125 48.335938 C 122.175781 48.253906 122.847656 48.148438 123.660156 48.050781 C 124.066406 48 124.503906 47.941406 124.972656 47.898438 C 125.4375 47.851562 125.929688 47.796875 126.4375 47.761719 C 126.945312 47.722656 127.46875 47.667969 128.003906 47.640625 C 128.539062 47.609375 129.082031 47.578125 129.625 47.546875 C 130.167969 47.523438 130.710938 47.503906 131.246094 47.484375 C 131.78125 47.460938 132.308594 47.464844 132.816406 47.453125 C 133.835938 47.441406 134.789062 47.449219 135.609375 47.476562 C 136.425781 47.496094 137.109375 47.539062 137.585938 47.570312 C 138.0625 47.609375 138.335938 47.640625 138.335938 47.640625 C 138.335938 47.640625 138.066406 47.695312 137.597656 47.777344 C 137.125 47.855469 136.449219 47.960938 135.636719 48.0625 C 134.824219 48.164062 133.875 48.265625 132.863281 48.351562 C 132.351562 48.386719 131.828125 48.445312 131.292969 48.46875 C 130.757812 48.5 130.214844 48.53125 129.671875 48.5625 C 129.128906 48.585938 128.585938 48.605469 128.050781 48.625 C 127.515625 48.648438 126.988281 48.644531 126.480469 48.65625 C 125.96875 48.667969 125.476562 48.660156 125.007812 48.65625 C 124.539062 48.65625 124.097656 48.644531 123.6875 48.632812 C 122.871094 48.613281 122.191406 48.570312 121.710938 48.535156 C 121.230469 48.503906 120.957031 48.472656 120.957031 48.472656 " fill-opacity="1" fill-rule="nonzero"/></g><path fill="#271f17" d="M 134.597656 27.5 C 130.789062 28.777344 89.464844 42.257812 82.089844 41.421875 C 79.1875 41.09375 67.46875 57.953125 48.546875 71.675781 C 39.757812 78.050781 27.039062 78.460938 18.355469 84.625 C 15.5 86.652344 13.109375 88.628906 11.105469 90.53125 L 13.070312 92.242188 C 15.035156 90.625 17.316406 88.996094 19.984375 87.394531 C 33.175781 79.472656 48.6875 78.484375 51.121094 77.117188 C 56.929688 73.867188 74.222656 50.875 84.957031 47.757812 C 95.691406 44.640625 135.222656 31.546875 135.222656 31.546875 L 134.597656 27.5 " fill-opacity="1" fill-rule="nonzero"/><path fill="#4f402f" d="M 73.332031 53.382812 C 74.015625 52.640625 74.707031 51.90625 75.402344 51.175781 L 77.5 48.992188 L 79.609375 46.828125 L 81.738281 44.675781 C 81.785156 44.632812 81.835938 44.601562 81.894531 44.585938 L 81.914062 44.578125 C 82.96875 44.265625 84.027344 43.976562 85.082031 43.679688 C 86.136719 43.378906 87.195312 43.09375 88.257812 42.8125 C 89.316406 42.527344 90.371094 42.238281 91.4375 41.972656 C 92.5 41.703125 93.5625 41.421875 94.625 41.160156 L 97.820312 40.375 C 98.890625 40.128906 99.957031 39.875 101.027344 39.632812 C 102.097656 39.394531 103.167969 39.152344 104.246094 38.929688 C 105.316406 38.699219 106.394531 38.484375 107.476562 38.285156 C 106.4375 38.636719 105.390625 38.984375 104.34375 39.308594 C 103.296875 39.644531 102.246094 39.957031 101.195312 40.277344 C 100.144531 40.59375 99.089844 40.890625 98.035156 41.203125 L 94.867188 42.089844 C 93.8125 42.382812 92.75 42.660156 91.691406 42.945312 C 90.632812 43.234375 89.570312 43.503906 88.507812 43.777344 C 87.445312 44.050781 86.382812 44.324219 85.316406 44.582031 C 84.25 44.839844 83.1875 45.109375 82.117188 45.351562 L 82.292969 45.253906 L 80.078125 47.3125 L 77.847656 49.355469 L 75.601562 51.378906 C 74.851562 52.054688 74.09375 52.71875 73.332031 53.382812 " fill-opacity="1" fill-rule="nonzero"/><path fill="#271f17" d="M 114.753906 36.589844 L 134.894531 29.433594 " fill-opacity="1" fill-rule="nonzero"/><path fill="#4f402f" d="M 114.753906 36.589844 C 114.753906 36.589844 115.957031 35.980469 117.804688 35.195312 C 118.265625 35 118.765625 34.785156 119.300781 34.570312 C 119.832031 34.355469 120.394531 34.125 120.980469 33.902344 C 121.5625 33.679688 122.164062 33.4375 122.785156 33.214844 C 123.402344 32.988281 124.03125 32.761719 124.65625 32.53125 C 125.285156 32.3125 125.917969 32.09375 126.539062 31.882812 C 127.160156 31.660156 127.78125 31.472656 128.375 31.277344 C 129.566406 30.890625 130.6875 30.550781 131.652344 30.277344 C 133.582031 29.71875 134.894531 29.433594 134.894531 29.433594 C 134.894531 29.433594 133.695312 30.042969 131.847656 30.828125 C 130.925781 31.226562 129.839844 31.667969 128.671875 32.121094 C 128.085938 32.34375 127.488281 32.589844 126.867188 32.808594 C 126.25 33.035156 125.621094 33.265625 124.996094 33.492188 C 124.363281 33.710938 123.734375 33.929688 123.113281 34.144531 C 122.492188 34.363281 121.871094 34.550781 121.277344 34.746094 C 120.683594 34.945312 120.101562 35.117188 119.554688 35.289062 C 119.003906 35.457031 118.484375 35.609375 118 35.746094 C 116.070312 36.300781 114.753906 36.589844 114.753906 36.589844 " fill-opacity="1" fill-rule="nonzero"/><g clip-path="url(#399689bbd2)"><path fill="#4f402f" d="M 130.050781 11.214844 C 126.613281 13.289062 89.1875 35.425781 81.804688 36.214844 C 78.898438 36.523438 71.101562 55.53125 55.601562 73.035156 C 48.394531 81.167969 36.070312 84.332031 28.925781 92.234375 C 26.574219 94.835938 24.664062 97.285156 23.121094 99.574219 L 25.410156 100.820312 C 26.980469 98.816406 28.851562 96.730469 31.113281 94.585938 C 42.277344 83.988281 57.207031 79.652344 59.289062 77.789062 C 64.257812 73.351562 76.167969 47.152344 85.972656 41.777344 C 95.777344 36.402344 131.542969 15.035156 131.542969 15.035156 L 130.050781 11.214844 " fill-opacity="1" fill-rule="nonzero"/></g><path fill="#271f17" d="M 75.839844 49.792969 C 76.347656 48.921875 76.863281 48.050781 77.386719 47.1875 L 78.957031 44.601562 L 80.554688 42.03125 L 82.164062 39.46875 C 82.199219 39.414062 82.246094 39.375 82.296875 39.34375 L 82.316406 39.335938 C 83.277344 38.800781 84.246094 38.289062 85.214844 37.769531 C 86.179688 37.246094 87.148438 36.738281 88.125 36.234375 C 89.097656 35.726562 90.066406 35.214844 91.046875 34.722656 C 92.027344 34.226562 93 33.722656 93.984375 33.234375 L 96.9375 31.777344 C 97.925781 31.304688 98.914062 30.824219 99.90625 30.355469 C 100.898438 29.886719 101.890625 29.417969 102.894531 28.96875 C 103.890625 28.511719 104.898438 28.070312 105.910156 27.636719 C 104.96875 28.210938 104.027344 28.773438 103.074219 29.320312 C 102.125 29.871094 101.164062 30.40625 100.207031 30.945312 C 99.25 31.484375 98.285156 32.003906 97.324219 32.535156 L 94.425781 34.089844 C 93.453125 34.605469 92.480469 35.109375 91.507812 35.617188 C 90.539062 36.128906 89.554688 36.621094 88.578125 37.121094 C 87.601562 37.617188 86.621094 38.117188 85.636719 38.597656 C 84.652344 39.082031 83.671875 39.574219 82.679688 40.046875 L 82.832031 39.910156 L 81.113281 42.402344 L 79.378906 44.882812 L 77.621094 47.34375 C 77.035156 48.164062 76.4375 48.980469 75.839844 49.792969 " fill-opacity="1" fill-rule="nonzero"/><path fill="#271f17" d="M 112.648438 24.398438 L 130.765625 13.042969 " fill-opacity="1" fill-rule="nonzero"/><path fill="#271f17" d="M 112.648438 24.398438 C 112.648438 24.398438 113.691406 23.546875 115.324219 22.378906 C 115.734375 22.085938 116.175781 21.765625 116.648438 21.445312 C 117.125 21.117188 117.617188 20.769531 118.144531 20.425781 C 118.667969 20.082031 119.203125 19.714844 119.757812 19.363281 C 120.3125 19.007812 120.875 18.648438 121.4375 18.289062 C 122.007812 17.9375 122.574219 17.589844 123.136719 17.242188 C 123.695312 16.894531 124.257812 16.578125 124.792969 16.253906 C 125.875 15.621094 126.894531 15.042969 127.78125 14.570312 C 129.542969 13.605469 130.765625 13.042969 130.765625 13.042969 C 130.765625 13.042969 129.722656 13.898438 128.089844 15.066406 C 127.273438 15.652344 126.3125 16.320312 125.269531 17.015625 C 124.746094 17.359375 124.214844 17.730469 123.65625 18.078125 C 123.101562 18.433594 122.539062 18.792969 121.976562 19.152344 C 121.40625 19.503906 120.835938 19.855469 120.277344 20.195312 C 119.71875 20.542969 119.15625 20.863281 118.617188 21.1875 C 118.082031 21.507812 117.550781 21.804688 117.050781 22.085938 C 116.554688 22.375 116.074219 22.632812 115.632812 22.871094 C 113.871094 23.835938 112.648438 24.398438 112.648438 24.398438 " fill-opacity="1" fill-rule="nonzero"/><path fill="#f3f1d6" d="M 72.597656 53.621094 C 75.449219 54.261719 77.785156 57.800781 78.496094 65.691406 C 79.347656 81.65625 71.109375 86.984375 69.640625 86.921875 C 70.082031 83.957031 67.160156 77.609375 64.816406 77.765625 C 61.65625 75.6875 52.515625 49.121094 72.597656 53.621094 " fill-opacity="1" fill-rule="nonzero"/><path fill="#deddc4" d="M 60.027344 64.78125 C 60.027344 64.78125 62.546875 58.40625 65.167969 57.722656 C 64.539062 59.597656 64.394531 62.164062 64.53125 64.835938 C 64.53125 64.835938 65.535156 60.191406 66.707031 58.066406 C 68.007812 59.082031 69.210938 62.160156 70.011719 68.863281 C 69.996094 62.332031 70.121094 59.253906 71.089844 58.113281 C 72.226562 60.132812 73.121094 65.996094 73.121094 65.996094 C 74.957031 62.800781 73.214844 58.964844 72.664062 57.53125 C 75.132812 57.546875 78.425781 65.007812 78.425781 65.007812 C 77.644531 57.691406 75.367188 54.242188 72.597656 53.621094 C 71.222656 53.316406 69.988281 53.144531 68.875 53.097656 C 68.757812 53.085938 68.644531 53.082031 68.53125 53.085938 C 61.472656 52.925781 59.667969 59.453125 60.027344 64.78125 " fill-opacity="1" fill-rule="nonzero"/><path fill="#d5d4bf" d="M 70.679688 84.855469 C 70.679688 84.855469 70.703125 84.753906 70.742188 84.574219 C 70.785156 84.40625 70.835938 84.15625 70.914062 83.878906 C 70.953125 83.738281 70.980469 83.578125 71.023438 83.421875 C 71.0625 83.261719 71.121094 83.101562 71.15625 82.925781 C 71.195312 82.753906 71.242188 82.578125 71.292969 82.402344 C 71.351562 82.226562 71.382812 82.039062 71.425781 81.859375 C 71.476562 81.679688 71.519531 81.496094 71.578125 81.320312 C 71.617188 81.140625 71.660156 80.964844 71.699219 80.789062 C 71.738281 80.621094 71.789062 80.453125 71.835938 80.292969 C 71.894531 80.136719 71.914062 79.984375 71.953125 79.84375 C 72.023438 79.558594 72.097656 79.320312 72.160156 79.148438 C 72.222656 78.976562 72.269531 78.875 72.269531 78.875 C 72.269531 78.875 72.3125 78.972656 72.363281 79.144531 C 72.417969 79.316406 72.480469 79.566406 72.539062 79.875 C 72.566406 80.027344 72.605469 80.195312 72.601562 80.367188 C 72.601562 80.546875 72.601562 80.730469 72.589844 80.925781 C 72.578125 81.117188 72.578125 81.316406 72.542969 81.515625 C 72.507812 81.714844 72.457031 81.914062 72.410156 82.117188 C 72.355469 82.316406 72.316406 82.515625 72.230469 82.703125 C 72.15625 82.890625 72.078125 83.074219 71.996094 83.25 C 71.921875 83.425781 71.8125 83.582031 71.722656 83.734375 C 71.625 83.882812 71.539062 84.023438 71.4375 84.144531 C 71.335938 84.265625 71.238281 84.367188 71.152344 84.460938 C 71.074219 84.554688 70.976562 84.625 70.910156 84.6875 C 70.773438 84.808594 70.679688 84.855469 70.679688 84.855469 " fill-opacity="1" fill-rule="nonzero"/><path fill="#d5d4bf" d="M 72.464844 77.367188 C 72.464844 77.367188 72.578125 75.953125 72.679688 73.851562 C 72.722656 72.796875 72.765625 71.574219 72.765625 70.265625 C 72.777344 69.613281 72.75 68.9375 72.738281 68.253906 C 72.71875 67.566406 72.683594 66.875 72.621094 66.183594 C 72.570312 65.492188 72.511719 64.800781 72.410156 64.125 C 72.316406 63.453125 72.214844 62.792969 72.082031 62.15625 C 71.945312 61.523438 71.796875 60.917969 71.632812 60.347656 C 71.550781 60.0625 71.449219 59.792969 71.367188 59.527344 C 71.277344 59.261719 71.179688 59.011719 71.089844 58.769531 C 70.886719 58.292969 70.699219 57.855469 70.496094 57.480469 C 70.3125 57.101562 70.105469 56.792969 69.953125 56.527344 C 69.792969 56.265625 69.648438 56.074219 69.554688 55.933594 C 69.460938 55.796875 69.410156 55.722656 69.410156 55.722656 C 69.410156 55.722656 69.476562 55.785156 69.597656 55.898438 C 69.714844 56.015625 69.90625 56.167969 70.113281 56.402344 C 70.316406 56.640625 70.582031 56.914062 70.828125 57.277344 C 71.09375 57.625 71.351562 58.046875 71.617188 58.515625 C 71.738281 58.757812 71.875 59.007812 72 59.269531 C 72.117188 59.535156 72.238281 59.8125 72.351562 60.101562 C 72.457031 60.390625 72.574219 60.6875 72.675781 60.996094 C 72.769531 61.304688 72.871094 61.621094 72.953125 61.949219 C 73.117188 62.605469 73.285156 63.28125 73.382812 63.980469 C 73.496094 64.679688 73.574219 65.390625 73.636719 66.105469 C 73.6875 66.816406 73.710938 67.53125 73.71875 68.234375 C 73.726562 68.9375 73.699219 69.628906 73.660156 70.292969 C 73.632812 70.960938 73.558594 71.601562 73.496094 72.207031 C 73.429688 72.816406 73.34375 73.386719 73.257812 73.910156 C 72.914062 76.015625 72.464844 77.367188 72.464844 77.367188 " fill-opacity="1" fill-rule="nonzero"/><path fill="#f3f1d6" d="M 65.570312 49.050781 C 65.472656 46.121094 62.433594 43.167969 54.828125 41.011719 C 39.335938 37.222656 32.589844 44.351562 32.382812 45.8125 C 35.367188 45.925781 41.050781 49.976562 40.464844 52.253906 C 41.917969 55.753906 66.273438 69.667969 65.570312 49.050781 " fill-opacity="1" fill-rule="nonzero"/><path fill="#deddc4" d="M 52.308594 59.375 C 52.308594 59.375 59.023438 58.074219 60.183594 55.613281 C 58.222656 55.886719 55.683594 55.554688 53.089844 54.925781 C 53.089844 54.925781 57.828125 54.796875 60.128906 54.035156 C 59.371094 52.5625 56.574219 50.808594 50.152344 48.785156 C 56.550781 50.003906 59.59375 50.449219 60.894531 49.707031 C 59.125 48.214844 53.539062 46.25 53.539062 46.25 C 57.011719 45.03125 60.449219 47.457031 61.753906 48.261719 C 62.195312 45.828125 55.488281 41.207031 55.488281 41.207031 C 62.515625 43.328125 65.476562 46.210938 65.570312 49.050781 C 65.617188 50.460938 65.558594 51.710938 65.398438 52.816406 C 65.386719 52.929688 65.367188 53.046875 65.347656 53.15625 C 64.195312 60.140625 57.46875 60.714844 52.308594 59.375 " fill-opacity="1" fill-rule="nonzero"/><path fill="#d5d4bf" d="M 34.597656 45.167969 C 34.597656 45.167969 34.664062 45.085938 34.808594 44.972656 C 34.878906 44.917969 34.964844 44.835938 35.074219 44.773438 C 35.179688 44.707031 35.300781 44.632812 35.4375 44.554688 C 35.574219 44.476562 35.726562 44.417969 35.890625 44.351562 C 36.054688 44.289062 36.230469 44.210938 36.417969 44.167969 C 36.601562 44.121094 36.796875 44.078125 36.996094 44.039062 C 37.195312 43.988281 37.398438 43.988281 37.605469 43.96875 C 37.808594 43.960938 38.015625 43.949219 38.214844 43.949219 C 38.417969 43.953125 38.613281 43.988281 38.804688 44.011719 C 38.996094 44.039062 39.179688 44.074219 39.351562 44.105469 C 39.523438 44.132812 39.679688 44.207031 39.824219 44.257812 C 40.117188 44.371094 40.347656 44.480469 40.507812 44.566406 C 40.667969 44.648438 40.753906 44.707031 40.753906 44.707031 C 40.753906 44.707031 40.648438 44.738281 40.46875 44.765625 C 40.289062 44.792969 40.039062 44.824219 39.75 44.84375 C 39.601562 44.855469 39.449219 44.84375 39.28125 44.871094 C 39.117188 44.890625 38.945312 44.90625 38.769531 44.917969 C 38.59375 44.925781 38.414062 44.929688 38.230469 44.9375 C 38.046875 44.960938 37.859375 44.972656 37.675781 44.988281 C 37.488281 44.996094 37.300781 44.992188 37.117188 45.019531 C 36.933594 45.035156 36.753906 45.050781 36.578125 45.058594 C 36.398438 45.058594 36.230469 45.085938 36.066406 45.09375 C 35.902344 45.109375 35.742188 45.105469 35.601562 45.121094 C 35.3125 45.144531 35.058594 45.148438 34.886719 45.15625 C 34.703125 45.164062 34.597656 45.167969 34.597656 45.167969 " fill-opacity="1" fill-rule="nonzero"/><path fill="#d5d4bf" d="M 42.269531 44.796875 C 42.269531 44.796875 43.675781 44.601562 45.800781 44.65625 C 46.335938 44.664062 46.910156 44.6875 47.515625 44.734375 C 48.125 44.78125 48.765625 44.832031 49.425781 44.925781 C 50.085938 45.011719 50.765625 45.109375 51.453125 45.246094 C 52.140625 45.382812 52.835938 45.539062 53.527344 45.722656 C 54.214844 45.914062 54.898438 46.121094 55.5625 46.367188 C 56.226562 46.59375 56.863281 46.878906 57.472656 47.164062 C 57.777344 47.304688 58.070312 47.460938 58.355469 47.613281 C 58.640625 47.769531 58.910156 47.941406 59.175781 48.097656 C 59.4375 48.261719 59.6875 48.433594 59.925781 48.597656 C 60.160156 48.769531 60.378906 48.949219 60.589844 49.113281 C 61.003906 49.460938 61.371094 49.792969 61.664062 50.121094 C 61.972656 50.425781 62.191406 50.742188 62.386719 50.984375 C 62.578125 51.230469 62.695312 51.449219 62.785156 51.589844 C 62.875 51.726562 62.921875 51.800781 62.921875 51.800781 C 62.921875 51.800781 62.859375 51.738281 62.742188 51.621094 C 62.625 51.507812 62.460938 51.328125 62.238281 51.121094 C 62.003906 50.917969 61.738281 50.660156 61.398438 50.40625 C 61.070312 50.140625 60.675781 49.875 60.246094 49.585938 C 60.027344 49.453125 59.796875 49.308594 59.554688 49.171875 C 59.308594 49.039062 59.0625 48.894531 58.800781 48.757812 C 58.269531 48.492188 57.703125 48.234375 57.109375 47.984375 C 56.511719 47.738281 55.882812 47.515625 55.238281 47.296875 C 54.597656 47.074219 53.933594 46.882812 53.261719 46.707031 C 52.597656 46.519531 51.921875 46.355469 51.253906 46.210938 C 50.585938 46.074219 49.929688 45.921875 49.285156 45.808594 C 48.003906 45.570312 46.796875 45.382812 45.757812 45.234375 C 43.675781 44.945312 42.269531 44.796875 42.269531 44.796875 " fill-opacity="1" fill-rule="nonzero"/><path fill="#d9d8c2" d="M 59.320312 50.265625 C 56.105469 49.910156 53.371094 48.078125 52.007812 39.355469 C 49.898438 21.636719 58.648438 14.664062 60.285156 14.550781 C 60.011719 17.914062 63.71875 24.632812 66.304688 24.164062 C 69.964844 26.089844 81.9375 52.78125 59.320312 50.265625 " fill-opacity="1" fill-rule="nonzero"/><path fill="#cacbb6" d="M 72.574219 38.0625 C 72.574219 38.0625 70.242188 45.496094 67.378906 46.589844 C 67.941406 44.414062 67.914062 41.53125 67.566406 38.566406 C 67.566406 38.566406 66.792969 43.875 65.648438 46.394531 C 64.128906 45.421875 62.566406 42.136719 61.191406 34.757812 C 61.683594 42.042969 61.164062 45.625 60.171875 47.019531 C 58.765625 44.910156 57.144531 39.609375 57.144531 39.609375 C 57.707031 43.707031 58.359375 46.203125 59.074219 47.738281 C 56.335938 48.03125 52.132812 40.113281 52.132812 40.113281 C 53.535156 48.183594 56.203125 49.921875 59.320312 50.265625 C 60.867188 50.4375 62.25 50.472656 63.484375 50.386719 C 63.617188 50.382812 63.746094 50.375 63.871094 50.359375 C 71.71875 49.648438 73.359375 43.96875 72.574219 38.0625 " fill-opacity="1" fill-rule="nonzero"/><path fill="#d5d4bf" d="M 59.28125 16.984375 C 59.28125 16.984375 59.257812 17.097656 59.222656 17.300781 C 59.183594 17.492188 59.136719 17.773438 59.070312 18.09375 C 59.027344 18.253906 59.007812 18.433594 58.96875 18.617188 C 58.9375 18.800781 58.878906 18.984375 58.851562 19.1875 C 58.816406 19.382812 58.777344 19.589844 58.730469 19.792969 C 58.679688 19.996094 58.652344 20.207031 58.617188 20.417969 C 58.578125 20.628906 58.542969 20.835938 58.496094 21.042969 C 58.453125 21.246094 58.4375 21.453125 58.398438 21.652344 C 58.367188 21.851562 58.328125 22.042969 58.289062 22.226562 C 58.238281 22.410156 58.230469 22.585938 58.203125 22.746094 C 58.152344 23.074219 58.09375 23.351562 58.042969 23.546875 C 57.996094 23.742188 57.957031 23.859375 57.957031 23.859375 C 57.957031 23.859375 57.90625 23.753906 57.84375 23.5625 C 57.777344 23.371094 57.691406 23.09375 57.613281 22.753906 C 57.578125 22.585938 57.527344 22.398438 57.523438 22.203125 C 57.511719 22.003906 57.503906 21.792969 57.5 21.578125 C 57.5 21.363281 57.488281 21.136719 57.515625 20.910156 C 57.542969 20.683594 57.582031 20.457031 57.617188 20.226562 C 57.664062 20 57.695312 19.773438 57.777344 19.558594 C 57.84375 19.339844 57.914062 19.128906 57.992188 18.925781 C 58.054688 18.71875 58.164062 18.535156 58.25 18.355469 C 58.34375 18.183594 58.425781 18.011719 58.527344 17.871094 C 58.625 17.722656 58.71875 17.597656 58.804688 17.484375 C 58.882812 17.371094 58.980469 17.28125 59.046875 17.203125 C 59.183594 17.054688 59.28125 16.984375 59.28125 16.984375 " fill-opacity="1" fill-rule="nonzero"/><path fill="#d5d4bf" d="M 57.847656 25.570312 C 57.847656 25.570312 58.074219 26.976562 58.371094 29.070312 C 58.527344 30.117188 58.703125 31.335938 58.898438 32.644531 C 58.988281 33.296875 59.109375 33.96875 59.210938 34.652344 C 59.316406 35.335938 59.4375 36.027344 59.5625 36.714844 C 59.683594 37.40625 59.8125 38.09375 59.953125 38.769531 C 60.105469 39.441406 60.230469 40.105469 60.390625 40.742188 C 60.472656 41.058594 60.550781 41.371094 60.632812 41.671875 C 60.710938 41.976562 60.792969 42.273438 60.882812 42.558594 C 60.960938 42.847656 61.058594 43.121094 61.148438 43.386719 C 61.230469 43.65625 61.328125 43.910156 61.417969 44.152344 C 61.503906 44.402344 61.613281 44.625 61.703125 44.84375 C 61.789062 45.066406 61.894531 45.265625 61.988281 45.453125 C 62.078125 45.644531 62.183594 45.8125 62.277344 45.96875 C 62.367188 46.128906 62.453125 46.277344 62.550781 46.394531 C 62.636719 46.519531 62.71875 46.628906 62.789062 46.726562 C 62.867188 46.8125 62.9375 46.890625 62.992188 46.949219 C 63.101562 47.074219 63.164062 47.140625 63.164062 47.140625 C 63.164062 47.140625 63.089844 47.085938 62.957031 46.992188 C 62.886719 46.941406 62.800781 46.882812 62.703125 46.8125 C 62.613281 46.730469 62.511719 46.636719 62.394531 46.527344 C 62.277344 46.421875 62.160156 46.289062 62.039062 46.144531 C 61.910156 46 61.78125 45.839844 61.660156 45.65625 C 61.398438 45.300781 61.132812 44.878906 60.886719 44.394531 C 60.632812 43.917969 60.382812 43.386719 60.164062 42.808594 C 59.933594 42.238281 59.71875 41.621094 59.527344 40.976562 C 59.335938 40.335938 59.148438 39.667969 58.992188 38.980469 C 58.839844 38.296875 58.695312 37.597656 58.5625 36.898438 C 58.445312 36.195312 58.335938 35.488281 58.238281 34.796875 C 58.140625 34.101562 58.074219 33.417969 58.011719 32.753906 C 57.9375 32.089844 57.902344 31.449219 57.863281 30.839844 C 57.824219 30.230469 57.804688 29.652344 57.789062 29.121094 C 57.761719 28.054688 57.777344 27.167969 57.796875 26.546875 C 57.820312 25.925781 57.847656 25.570312 57.847656 25.570312 " fill-opacity="1" fill-rule="nonzero"/><path fill="#f3f1d6" d="M 67.703125 45.011719 C 66.203125 42.140625 66.191406 38.84375 72.644531 32.835938 C 86.125 21.183594 96.785156 24.5625 97.792969 25.859375 C 94.855469 27.511719 91.367188 34.347656 93.203125 36.238281 C 93.652344 40.359375 78.261719 65.21875 67.703125 45.011719 " fill-opacity="1" fill-rule="nonzero"/><path fill="#deddc4" d="M 85.203125 49.214844 C 85.203125 49.214844 77.753906 51.429688 75.25 49.660156 C 77.363281 48.910156 79.730469 47.277344 81.992188 45.332031 C 81.992188 45.332031 77.164062 47.65625 74.441406 48.109375 C 74.398438 46.304688 76.246094 43.167969 81.582031 37.902344 C 75.828125 42.382812 72.574219 43.953125 70.867188 43.90625 C 71.824219 41.558594 75.304688 37.25 75.304688 37.25 C 72.230469 40.007812 70.527344 41.941406 69.65625 43.394531 C 67.886719 41.28125 72.089844 33.363281 72.089844 33.363281 C 66.195312 39.039062 66.25 42.226562 67.703125 45.011719 C 68.425781 46.394531 69.167969 47.5625 69.929688 48.546875 C 70.007812 48.652344 70.085938 48.753906 70.167969 48.847656 C 75.140625 54.976562 80.757812 53.167969 85.203125 49.214844 " fill-opacity="1" fill-rule="nonzero"/><path fill="#d5d4bf" d="M 95.21875 26.382812 C 95.21875 26.382812 95.109375 26.429688 94.921875 26.511719 C 94.742188 26.589844 94.484375 26.707031 94.179688 26.828125 C 94.027344 26.886719 93.867188 26.96875 93.691406 27.039062 C 93.523438 27.113281 93.339844 27.167969 93.15625 27.257812 C 92.972656 27.339844 92.78125 27.421875 92.585938 27.496094 C 92.390625 27.566406 92.199219 27.664062 92.007812 27.75 C 91.8125 27.835938 91.617188 27.921875 91.421875 27.996094 C 91.226562 28.078125 91.046875 28.179688 90.863281 28.257812 C 90.679688 28.34375 90.5 28.417969 90.328125 28.488281 C 90.148438 28.550781 89.996094 28.640625 89.847656 28.707031 C 89.550781 28.847656 89.289062 28.953125 89.097656 29.019531 C 88.90625 29.09375 88.789062 29.125 88.789062 29.125 C 88.789062 29.125 88.847656 29.023438 88.972656 28.863281 C 89.09375 28.699219 89.277344 28.476562 89.511719 28.222656 C 89.632812 28.097656 89.757812 27.949219 89.921875 27.839844 C 90.074219 27.71875 90.242188 27.59375 90.421875 27.46875 C 90.601562 27.351562 90.78125 27.210938 90.984375 27.109375 C 91.1875 27.007812 91.394531 26.910156 91.605469 26.816406 C 91.816406 26.722656 92.027344 26.625 92.246094 26.570312 C 92.464844 26.503906 92.679688 26.445312 92.890625 26.394531 C 93.097656 26.335938 93.3125 26.324219 93.507812 26.292969 C 93.703125 26.277344 93.886719 26.25 94.0625 26.253906 C 94.238281 26.253906 94.398438 26.261719 94.539062 26.269531 C 94.675781 26.269531 94.804688 26.300781 94.902344 26.3125 C 95.105469 26.34375 95.21875 26.382812 95.21875 26.382812 " fill-opacity="1" fill-rule="nonzero"/><path fill="#d5d4bf" d="M 87.316406 29.992188 C 87.316406 29.992188 86.277344 30.960938 84.710938 32.378906 C 83.929688 33.09375 83.019531 33.925781 82.046875 34.816406 C 81.558594 35.257812 81.070312 35.730469 80.5625 36.199219 C 80.054688 36.667969 79.550781 37.152344 79.050781 37.644531 C 78.546875 38.128906 78.046875 38.621094 77.570312 39.117188 C 77.097656 39.617188 76.617188 40.09375 76.183594 40.582031 C 75.964844 40.824219 75.753906 41.066406 75.546875 41.304688 C 75.335938 41.539062 75.136719 41.773438 74.953125 42.003906 C 74.757812 42.234375 74.585938 42.464844 74.414062 42.6875 C 74.238281 42.90625 74.082031 43.128906 73.933594 43.34375 C 73.777344 43.550781 73.648438 43.765625 73.519531 43.964844 C 73.386719 44.160156 73.28125 44.359375 73.179688 44.542969 C 73.066406 44.726562 72.988281 44.90625 72.910156 45.070312 C 72.828125 45.234375 72.753906 45.386719 72.710938 45.535156 C 72.65625 45.675781 72.609375 45.804688 72.570312 45.917969 C 72.542969 46.03125 72.515625 46.132812 72.5 46.210938 C 72.457031 46.375 72.4375 46.460938 72.4375 46.460938 C 72.4375 46.460938 72.4375 46.371094 72.441406 46.207031 C 72.445312 46.121094 72.449219 46.015625 72.449219 45.894531 C 72.464844 45.773438 72.488281 45.636719 72.515625 45.480469 C 72.535156 45.320312 72.582031 45.152344 72.632812 44.96875 C 72.679688 44.785156 72.738281 44.585938 72.824219 44.382812 C 72.96875 43.964844 73.175781 43.511719 73.433594 43.035156 C 73.6875 42.558594 73.988281 42.054688 74.34375 41.550781 C 74.6875 41.035156 75.078125 40.515625 75.503906 39.996094 C 75.929688 39.476562 76.375 38.949219 76.859375 38.4375 C 77.339844 37.925781 77.835938 37.414062 78.34375 36.914062 C 78.859375 36.421875 79.378906 35.9375 79.898438 35.472656 C 80.417969 35 80.949219 34.5625 81.460938 34.136719 C 81.96875 33.710938 82.480469 33.320312 82.964844 32.949219 C 83.445312 32.574219 83.910156 32.234375 84.34375 31.925781 C 85.210938 31.308594 85.953125 30.824219 86.480469 30.492188 C 87.003906 30.164062 87.316406 29.992188 87.316406 29.992188 " fill-opacity="1" fill-rule="nonzero"/><path fill="#d9d8c2" d="M 69.089844 52.5625 C 70.089844 49.3125 74.390625 46.785156 83.578125 46.320312 C 102.105469 46.054688 107.511719 55.761719 107.304688 57.445312 C 103.917969 56.804688 96.316406 59.882812 96.285156 62.582031 C 93.589844 66.125 62.054688 75.453125 69.089844 52.5625 " fill-opacity="1" fill-rule="nonzero"/><path fill="#cacbb6" d="M 80.835938 67.515625 C 80.835938 67.515625 73.699219 64.332031 73.148438 61.289062 C 75.261719 62.097656 78.210938 62.375 81.3125 62.335938 C 81.3125 62.335938 76.035156 60.972656 73.6875 59.53125 C 74.980469 58.082031 78.648438 56.832031 86.464844 56.214844 C 78.917969 55.9375 75.371094 55.660156 74.140625 54.496094 C 76.578125 53.28125 83.4375 52.511719 83.4375 52.511719 C 79.910156 50.257812 75.320312 52.089844 73.609375 52.660156 C 73.855469 49.824219 82.777344 46.367188 82.777344 46.367188 C 74.25 46.941406 70.058594 49.40625 69.089844 52.5625 C 68.609375 54.128906 68.300781 55.542969 68.144531 56.816406 C 68.121094 56.953125 68.105469 57.082031 68.097656 57.210938 C 67.273438 65.324219 74.644531 67.6875 80.835938 67.515625 " fill-opacity="1" fill-rule="nonzero"/><path fill="#d5d4bf" d="M 105.015625 56.15625 C 105.015625 56.15625 104.578125 56.015625 103.929688 55.800781 C 103.613281 55.699219 103.25 55.582031 102.859375 55.453125 C 102.667969 55.386719 102.464844 55.328125 102.261719 55.261719 C 102.0625 55.195312 101.851562 55.140625 101.648438 55.074219 C 101.445312 55.007812 101.234375 54.960938 101.03125 54.894531 C 100.824219 54.835938 100.625 54.78125 100.429688 54.71875 C 100.230469 54.664062 100.039062 54.613281 99.859375 54.5625 C 99.679688 54.503906 99.503906 54.464844 99.339844 54.417969 C 99.179688 54.371094 99.03125 54.3125 98.898438 54.28125 C 98.765625 54.246094 98.648438 54.207031 98.550781 54.175781 C 98.359375 54.113281 98.246094 54.066406 98.246094 54.066406 C 98.246094 54.066406 98.355469 54.023438 98.558594 53.972656 C 98.757812 53.921875 99.046875 53.855469 99.394531 53.828125 C 99.570312 53.816406 99.761719 53.792969 99.960938 53.800781 C 100.160156 53.808594 100.375 53.808594 100.59375 53.832031 C 100.808594 53.859375 101.035156 53.882812 101.261719 53.929688 C 101.488281 53.980469 101.714844 54.03125 101.9375 54.097656 C 102.164062 54.175781 102.386719 54.238281 102.597656 54.335938 C 102.8125 54.421875 103.019531 54.515625 103.210938 54.621094 C 103.601562 54.828125 103.941406 55.0625 104.214844 55.289062 C 104.488281 55.511719 104.6875 55.730469 104.820312 55.890625 C 104.953125 56.050781 105.015625 56.15625 105.015625 56.15625 " fill-opacity="1" fill-rule="nonzero"/><path fill="#d5d4bf" d="M 96.519531 53.773438 C 96.519531 53.773438 94.890625 53.550781 92.453125 53.324219 C 91.234375 53.210938 89.816406 53.105469 88.296875 53.039062 C 87.535156 52.996094 86.75 52.996094 85.953125 52.976562 C 85.15625 52.972656 84.347656 52.980469 83.542969 53.019531 C 83.140625 53.039062 82.734375 53.050781 82.335938 53.082031 C 81.933594 53.105469 81.535156 53.140625 81.140625 53.183594 C 80.351562 53.265625 79.578125 53.359375 78.832031 53.484375 C 78.464844 53.546875 78.101562 53.632812 77.746094 53.695312 C 77.390625 53.777344 77.042969 53.855469 76.707031 53.933594 C 76.375 54.027344 76.054688 54.121094 75.742188 54.207031 C 75.433594 54.3125 75.132812 54.410156 74.847656 54.503906 C 74.285156 54.722656 73.765625 54.921875 73.324219 55.140625 C 72.867188 55.335938 72.503906 55.5625 72.183594 55.726562 C 71.875 55.90625 71.644531 56.0625 71.480469 56.164062 C 71.316406 56.265625 71.226562 56.320312 71.226562 56.320312 C 71.226562 56.320312 71.304688 56.25 71.445312 56.121094 C 71.589844 55.992188 71.785156 55.785156 72.070312 55.558594 C 72.363281 55.347656 72.695312 55.054688 73.132812 54.800781 C 73.558594 54.515625 74.058594 54.242188 74.621094 53.964844 C 74.90625 53.835938 75.203125 53.703125 75.511719 53.566406 C 75.828125 53.449219 76.15625 53.328125 76.492188 53.203125 C 76.835938 53.097656 77.183594 52.988281 77.546875 52.878906 C 77.90625 52.78125 78.28125 52.6875 78.660156 52.605469 C 79.425781 52.445312 80.21875 52.289062 81.035156 52.203125 C 81.441406 52.152344 81.847656 52.109375 82.261719 52.082031 C 82.671875 52.042969 83.085938 52.023438 83.5 52.003906 C 84.332031 51.972656 85.15625 51.976562 85.972656 51.992188 C 86.785156 52.015625 87.585938 52.074219 88.355469 52.144531 C 89.128906 52.203125 89.867188 52.308594 90.570312 52.40625 C 91.273438 52.507812 91.929688 52.625 92.539062 52.746094 C 94.964844 53.21875 96.519531 53.773438 96.519531 53.773438 " fill-opacity="1" fill-rule="nonzero"/><path fill="#b8bd7b" d="M 59.671875 44.511719 C 56.988281 43.902344 55.976562 42.730469 56.207031 41.691406 C 56.445312 40.65625 57.835938 40.144531 60.519531 40.753906 C 65.683594 40.96875 68.960938 47.410156 68.726562 48.449219 C 66.761719 51.054688 62.355469 45.117188 59.671875 44.511719 " fill-opacity="1" fill-rule="nonzero"/><path fill="#dcde8b" d="M 64.320312 57.515625 C 64.828125 56.3125 63.996094 55.433594 62.6875 54.6875 C 63.375 54.613281 63.867188 54.472656 64.039062 54.3125 C 64.863281 52.367188 62.191406 51.277344 59.664062 50.207031 C 60.660156 50.285156 61.652344 50.203125 62.566406 50.039062 C 63.929688 50.925781 65.164062 51.328125 65.976562 50.226562 C 66.023438 50.015625 65.929688 49.582031 65.707031 49.027344 C 66.242188 48.753906 66.601562 48.492188 66.703125 48.300781 C 66.804688 46.917969 65.605469 46.378906 64 46.125 C 62.558594 44.269531 60.40625 42.480469 57.757812 42.363281 C 55.074219 41.738281 53.679688 42.257812 53.449219 43.316406 C 53.371094 43.648438 53.425781 43.996094 53.617188 44.339844 C 53.261719 44.464844 53.007812 44.691406 52.847656 44.984375 C 52.65625 45.347656 52.640625 45.765625 52.824219 46.214844 C 52.492188 46.238281 52.207031 46.359375 51.984375 46.566406 C 51.359375 47.148438 51.394531 48.21875 52.375 49.679688 C 52.335938 49.710938 52.300781 49.738281 52.265625 49.769531 C 51.480469 50.496094 51.730469 51.992188 53.585938 54.074219 C 56.328125 58.5625 63.539062 58.242188 64.320312 57.515625 " fill-opacity="1" fill-rule="nonzero"/><path fill="#f3f1d6" d="M 62.5625 43.511719 C 62.5625 43.511719 59.648438 41.628906 58.410156 42.851562 C 57.171875 44.074219 57.5625 44.507812 56.273438 45.148438 C 54.984375 45.789062 53.480469 47.3125 53.707031 49.234375 C 53.933594 51.15625 55.363281 56.136719 60.351562 56.371094 C 65.339844 56.601562 67.730469 56.921875 68.832031 55.269531 C 69.929688 53.621094 68.140625 49.167969 67.953125 49.027344 C 67.765625 48.886719 62.5625 43.511719 62.5625 43.511719 " fill-opacity="1" fill-rule="nonzero"/><path fill="#e8ea41" d="M 59.832031 51.519531 C 58.289062 51.65625 56.929688 50.511719 56.792969 48.964844 C 56.660156 47.417969 57.800781 46.054688 59.34375 45.917969 C 60.886719 45.785156 66.242188 47.746094 66.378906 49.292969 C 66.511719 50.839844 61.375 51.382812 59.832031 51.519531 " fill-opacity="1" fill-rule="nonzero"/><path fill="#b8bd7b" d="M 60.070312 57.9375 C 57.582031 56.769531 55.925781 55.042969 56.375 54.078125 C 56.824219 53.113281 59.210938 53.28125 61.699219 54.449219 C 64.828125 57.417969 69.289062 54.878906 68.839844 55.84375 C 66.367188 57.96875 62.5625 59.109375 60.070312 57.9375 " fill-opacity="1" fill-rule="nonzero"/><path fill="#dcde8b" d="M 63.710938 47.15625 C 61.222656 45.988281 60.480469 44.625 60.929688 43.660156 C 61.378906 42.699219 62.851562 42.496094 65.339844 43.667969 C 70.339844 44.984375 72.167969 51.980469 71.71875 52.941406 C 69.246094 55.070312 66.203125 48.324219 63.710938 47.15625 " fill-opacity="1" fill-rule="nonzero"/><path fill="#dcde8b" d="M 63.09375 53.453125 C 60.601562 52.285156 58.945312 50.558594 59.394531 49.59375 C 59.847656 48.628906 62.230469 48.796875 64.722656 49.964844 C 67.210938 51.132812 70.921875 53.828125 70.472656 54.789062 C 68 56.917969 65.582031 54.625 63.09375 53.453125 " fill-opacity="1" fill-rule="nonzero"/><path fill="#b8bd7b" d="M 63.980469 50.230469 C 61.488281 49.0625 59.835938 47.335938 60.285156 46.371094 C 60.734375 45.40625 63.117188 45.574219 65.609375 46.742188 C 68.101562 47.910156 72.382812 52.925781 71.933594 53.886719 C 69.464844 56.015625 66.472656 51.402344 63.980469 50.230469 " fill-opacity="1" fill-rule="nonzero"/></svg>