<svg xmlns="http://www.w3.org/2000/svg" xmlns:xlink="http://www.w3.org/1999/xlink" width="200" zoomAndPan="magnify" viewBox="0 0 150 112.499997" height="150" preserveAspectRatio="xMidYMid meet" version="1.0"><defs><clipPath id="5040878663"><path d="M 30.199219 11.199219 L 119.800781 11.199219 L 119.800781 100.800781 L 30.199219 100.800781 Z M 30.199219 11.199219 " clip-rule="nonzero"/></clipPath><clipPath id="09c1f18f04"><path d="M 27.023438 11.199219 L 123.34375 11.199219 L 123.34375 100.800781 L 27.023438 100.800781 Z M 27.023438 11.199219 " clip-rule="nonzero"/></clipPath><clipPath id="6fa8c2fe13"><path d="M 101 39.144531 L 103 39.144531 L 103 74 L 101 74 Z M 101 39.144531 " clip-rule="nonzero"/></clipPath><clipPath id="566e4f0d7e"><path d="M 92.105469 75 L 101 75 L 101 86 L 92.105469 86 Z M 92.105469 75 " clip-rule="nonzero"/></clipPath><clipPath id="960ef08d90"><path d="M 92.105469 76 L 101 76 L 101 85 L 92.105469 85 Z M 92.105469 76 " clip-rule="nonzero"/></clipPath><clipPath id="7cd6620153"><path d="M 103 74 L 112.265625 74 L 112.265625 86.1875 L 103 86.1875 Z M 103 74 " clip-rule="nonzero"/></clipPath></defs><g clip-path="url(#5040878663)"><path fill="#000000" d="M 75 11.199219 C 50.257812 11.199219 30.199219 31.257812 30.199219 56 C 30.199219 80.742188 50.257812 100.800781 75 100.800781 C 99.742188 100.800781 119.800781 80.742188 119.800781 56 C 119.800781 31.257812 99.742188 11.199219 75 11.199219 " fill-opacity="1" fill-rule="nonzero"/></g><g clip-path="url(#09c1f18f04)"><path fill="#f4f6fc" d="M 92.574219 91.816406 C 92.421875 93.839844 95.542969 97.789062 96.867188 99.503906 C 97.53125 100.367188 96.542969 100.800781 96.054688 100.136719 C 93.320312 96.4375 91.753906 93.421875 85.367188 89.089844 C 76.925781 83.363281 69.1875 79.277344 50.878906 78.542969 C 44.183594 78.273438 45.335938 80.269531 41.578125 83.0625 C 41.019531 83.476562 40.3125 82.910156 41.039062 82.203125 C 44.410156 78.902344 45.285156 78.308594 45.363281 76.910156 C 45.6875 70.949219 39.09375 54.003906 33.777344 53.316406 C 31.484375 53.019531 28.207031 53.566406 27.484375 53.480469 C 27.367188 53.46875 27.269531 53.425781 27.183594 53.34375 C 27.101562 53.261719 27.054688 53.164062 27.042969 53.050781 C 27.03125 52.933594 27.058594 52.828125 27.125 52.734375 C 27.1875 52.636719 27.277344 52.574219 27.390625 52.539062 C 27.59375 52.472656 31.375 52.261719 32.417969 52.179688 C 32.808594 52.148438 33.722656 51.773438 34.429688 50.960938 C 34.589844 50.777344 34.660156 50.402344 34.984375 49.597656 C 38.507812 40.910156 39.539062 21.152344 36.859375 18.769531 C 32.121094 14.5625 31.390625 13.835938 31.953125 13.359375 C 32.613281 12.789062 32.898438 14.101562 35.210938 15.867188 C 39.050781 18.792969 41.050781 19.054688 47.46875 19.496094 C 56.285156 20.101562 58.484375 20.0625 62.851562 19.859375 C 73.746094 19.351562 83.460938 17.957031 86.375 17.375 C 89.539062 16.742188 89.875 13.011719 90.640625 11.550781 C 90.691406 11.433594 90.773438 11.351562 90.886719 11.300781 C 91 11.25 91.117188 11.242188 91.234375 11.28125 C 91.355469 11.320312 91.445312 11.394531 91.507812 11.503906 C 91.570312 11.613281 91.585938 11.730469 91.558594 11.851562 C 91.519531 12.078125 90.136719 15.699219 90.128906 15.707031 C 88.691406 19.234375 96.433594 30.886719 111.652344 32.773438 C 113.253906 32.972656 119.375 30.113281 120.101562 30.15625 C 120.3125 30.171875 120.449219 30.28125 120.515625 30.484375 C 120.582031 30.6875 120.53125 30.855469 120.371094 30.992188 C 118.90625 32.179688 114.335938 31.789062 111.828125 37.308594 C 106.933594 48.066406 113.5625 63.519531 119.476562 66.796875 C 122.613281 68.539062 122.703125 68.273438 123.066406 68.613281 C 123.347656 68.875 123.210938 69.460938 122.789062 69.519531 C 121.941406 69.640625 119.976562 67.558594 113.707031 66.527344 C 110.492188 66.003906 94.105469 71.695312 92.574219 91.816406 Z M 82.066406 69.863281 C 81.933594 70.191406 79.484375 62.035156 77.667969 60.074219 C 75.609375 57.84375 67.84375 58.699219 65.558594 60.792969 L 61.136719 64.863281 C 60.074219 65.839844 65.835938 62.210938 77.664062 67.089844 C 80.707031 68.34375 81.8125 69.953125 82.066406 69.863281 Z M 47.453125 26.542969 C 47.453125 26.53125 54.785156 33.113281 55.457031 33.410156 C 56.3125 33.796875 57.121094 34.175781 57.898438 34.160156 C 58.679688 34.140625 64.757812 34.386719 70.367188 32.882812 C 79.011719 30.558594 85.628906 24.835938 85.75 23.402344 C 78.472656 25.691406 70.109375 27.199219 62.824219 27.804688 C 53.59375 28.570312 50.859375 27.390625 47.445312 26.542969 Z M 47.257812 77.679688 C 47.769531 77.65625 49.851562 77.324219 56.417969 78 C 68.675781 79.257812 74.007812 81.363281 79.8125 84.488281 C 87.914062 88.851562 90.964844 92.210938 90.507812 91.066406 C 87.644531 83.851562 87.777344 83.871094 86.847656 82.898438 C 86.835938 82.886719 81.132812 78.660156 77.0625 76.277344 C 64.421875 68.878906 53.308594 72.089844 51.910156 73.367188 C 51.839844 73.425781 47.574219 77.328125 47.25 77.679688 Z M 39.03125 20.597656 C 39.1875 22.34375 39.394531 28.992188 39.144531 33.476562 C 38.898438 38.125 36.816406 47.578125 35.949219 49.667969 C 35.835938 49.941406 35.164062 51.757812 35.175781 51.976562 C 35.761719 52 40.136719 51.839844 40.125 51.839844 C 41.273438 51.804688 43.015625 50.804688 44.175781 49.714844 C 44.867188 49.058594 46.28125 45.949219 46.664062 45.035156 C 49.703125 37.6875 48.597656 33.976562 47.890625 30.761719 C 47.726562 30.015625 47.089844 27.527344 46.507812 27.03125 C 44.453125 25.269531 39.433594 20.898438 39.03125 20.597656 Z M 39.042969 19.28125 C 38.972656 19.40625 39 19.320312 39.105469 19.414062 C 45.410156 24.855469 47.625 29.253906 70.441406 25.945312 C 73.722656 25.46875 82.519531 23.722656 85.558594 22.449219 C 86.9375 21.871094 87.152344 20.6875 88.222656 18.054688 C 88.242188 17.996094 88.253906 17.9375 88.265625 17.875 C 74.824219 20.867188 49.1875 22.199219 39.042969 19.28125 Z M 111.59375 34.660156 C 111.164062 34.835938 102.902344 38.601562 102.914062 38.59375 C 102.472656 38.792969 96.445312 48.1875 100.980469 56.617188 C 102.015625 58.546875 103.597656 60.222656 103.886719 60.5625 C 104.550781 61.34375 104.628906 61.222656 114.726562 64.832031 C 115.613281 65.152344 114.203125 64.53125 112.691406 61.113281 C 111.226562 57.796875 109.519531 54.824219 109.144531 47.441406 C 108.796875 40.433594 111.546875 34.929688 111.59375 34.660156 Z M 91.296875 90.515625 C 91.445312 90.097656 91.332031 89.992188 91.800781 88.632812 C 92.367188 86.980469 92.367188 86.359375 92.914062 84.289062 C 94.800781 77.035156 101.355469 69.074219 110.195312 66.101562 C 112.15625 65.441406 113.402344 65.675781 113.632812 65.433594 C 113.472656 65.375 105.253906 62.410156 104.792969 62.257812 C 104.15625 62.046875 104.421875 62.105469 102 62.683594 C 92.714844 64.894531 86.042969 77.375 88.722656 84.082031 C 91.558594 91.183594 91.078125 90.03125 91.296875 90.515625 Z M 86.683594 81.632812 C 86.730469 81.585938 86.746094 81.632812 86.621094 81.316406 C 83.09375 72.449219 83.308594 72.746094 82.542969 71.769531 C 78.984375 67.253906 67.757812 63.664062 59.707031 66.394531 C 59.273438 66.542969 59.496094 66.363281 54.148438 71.300781 C 54.023438 71.414062 53.878906 71.5625 54.042969 71.527344 C 69.882812 67.613281 81.308594 78.109375 86.683594 81.632812 Z M 102.667969 61.558594 C 102.6875 61.429688 103.425781 61.804688 92.863281 57.964844 C 91.925781 57.625 90.320312 58.464844 89.535156 59.058594 C 85.398438 62.179688 83.308594 68.503906 83.539062 69.84375 C 83.792969 71.320312 83.933594 72.03125 84.507812 73.488281 C 87.355469 80.691406 87.113281 80.074219 87.199219 80.113281 C 87.96875 71.359375 94.269531 64.058594 100.8125 62.042969 C 101.226562 61.917969 101.691406 61.804688 102.667969 61.558594 Z M 89.164062 18.257812 C 88.867188 18.898438 88.386719 20.164062 87.796875 21.539062 C 87.484375 22.265625 87.300781 23.503906 87.539062 24.101562 C 88.035156 25.339844 89.132812 28.867188 91.773438 32.15625 C 94.550781 35.621094 99.242188 39.261719 103.292969 37.414062 C 111.90625 33.476562 110.722656 34.050781 111.113281 33.832031 C 109.945312 32.945312 94.882812 32.125 89.164062 18.257812 Z M 42.886719 63.410156 C 46.703125 73.019531 46.21875 76.785156 46.3125 77.226562 C 51.6875 72.644531 51.6875 72.195312 51.597656 71.5 C 51.496094 70.671875 51.226562 64.875 48.761719 60.199219 C 46.691406 56.269531 43.164062 52.640625 41.789062 52.722656 C 30.769531 53.394531 37.800781 50.601562 42.886719 63.410156 Z M 44.035156 51.691406 C 44.476562 51.71875 45.695312 51.636719 47.664062 51.59375 C 48.210938 51.582031 49.136719 51.453125 49.605469 51.152344 C 53.542969 48.625 56.339844 43.96875 56.753906 40.042969 C 57.261719 35.253906 57.554688 36.578125 48.539062 28.789062 C 47.332031 27.746094 50.792969 32.65625 49.175781 39.953125 C 47.492188 47.546875 44.132812 51.511719 44.035156 51.691406 Z M 101.210938 39.441406 C 101.15625 39.375 101.621094 39.175781 97.046875 41.261719 C 95.347656 42.039062 93.761719 42.6875 92.273438 44.277344 C 89.445312 47.292969 89.613281 52.761719 91.375 56.171875 C 91.613281 56.632812 91.84375 56.609375 94.199219 57.457031 C 103.324219 60.734375 102.558594 60.527344 102.328125 60.222656 C 97.910156 54.339844 96.550781 49.113281 101.210938 39.445312 Z M 99.945312 38.925781 C 99.738281 38.660156 97.863281 38.738281 94.722656 36.347656 C 88.914062 31.921875 87.285156 25.761719 86.636719 24.421875 C 86.503906 24.65625 84.019531 30.789062 83.175781 32.816406 C 82.71875 33.898438 85.511719 42.035156 91.398438 42.128906 C 93.277344 42.15625 92.214844 42.492188 99.945312 38.925781 Z M 57.472656 35.078125 C 57.363281 35.242188 60.824219 38.222656 63.265625 38.917969 C 66.070312 39.71875 69.042969 40.035156 71.84375 39.320312 C 74.828125 38.558594 78.546875 37.003906 80.773438 34.65625 C 82.21875 33.128906 84.695312 26.78125 84.898438 26.101562 C 76.132812 33.269531 69.339844 35.078125 57.472656 35.078125 Z M 43.921875 52.675781 C 54.015625 61.703125 51.769531 72.226562 52.761719 71.316406 C 57.304688 67.136719 58.445312 66.691406 58.164062 63.132812 C 57.707031 57.441406 52.117188 52.828125 49.265625 52.597656 C 47.453125 52.449219 43.921875 52.671875 43.914062 52.675781 Z M 57.882812 36.875 C 57.71875 38.175781 58.09375 40.320312 56.707031 43.832031 C 55.269531 47.480469 53.40625 49.269531 50.820312 51.464844 C 50.832031 51.464844 58.148438 51.433594 58.824219 50.988281 C 62.011719 48.894531 63.90625 42.058594 61.183594 39.710938 C 60.160156 38.832031 57.988281 36.964844 57.875 36.875 Z M 82.625 68.71875 C 82.753906 68.695312 84.179688 60.570312 90.875 57.261719 C 90.234375 57.007812 84.6875 55.035156 83.488281 54.589844 C 83.015625 54.417969 78.667969 56.585938 79.351562 60.421875 C 79.402344 60.722656 82.445312 68.335938 82.625 68.71875 Z M 62.875 39.953125 C 69.527344 45.699219 69.171875 45.53125 69.820312 45.625 C 73.964844 46.238281 77.890625 43.242188 78.164062 42.570312 C 81.15625 35.238281 80.742188 36.320312 80.882812 35.875 C 80.476562 36.171875 79.972656 36.785156 78.164062 37.796875 C 67.992188 43.523438 61.242188 38.542969 62.875 39.953125 Z M 51.664062 52.449219 C 59.84375 57.644531 58.933594 62.988281 59.121094 64.757812 C 65.0625 60.125 63.367188 52.074219 58.527344 52.191406 C 58.511719 52.191406 51.519531 52.359375 51.664062 52.449219 Z M 82.324219 34.914062 C 82.019531 35.59375 79.214844 42.484375 78.679688 43.761719 C 78.597656 43.921875 78.589844 44.082031 78.660156 44.246094 C 78.738281 44.449219 78.828125 44.644531 78.929688 44.835938 C 79.542969 45.855469 80.710938 46.625 81.351562 46.84375 C 82.289062 47.164062 82.203125 46.996094 86.675781 44.964844 C 90.511719 43.21875 90.230469 43.367188 90.292969 43.261719 C 85.660156 42.027344 83.898438 38.964844 82.324219 34.914062 Z M 91.0625 44.054688 C 90.992188 43.988281 82.269531 47.890625 82.195312 48.136719 C 81.472656 50.632812 82.960938 53.417969 84.132812 53.839844 C 90.84375 56.242188 89.878906 55.917969 90.242188 56.007812 C 89.003906 52.691406 88.9375 49.78125 89.527344 47.515625 C 90.015625 45.617188 90.519531 44.949219 91.0625 44.054688 Z M 63.324219 41.582031 C 63.144531 41.90625 64.074219 44.105469 62.195312 48.308594 C 61.300781 50.3125 60.398438 50.863281 60.234375 51.136719 C 60.332031 51.195312 60.054688 51.167969 65.207031 51.015625 C 66.800781 50.964844 69.3125 46.734375 68.5625 46.089844 C 66.902344 44.660156 63.425781 41.660156 63.324219 41.582031 Z M 68.136719 58.472656 C 70.097656 58.007812 71.8125 57.671875 73.964844 57.871094 C 76.355469 58.085938 77.09375 58.574219 77.589844 58.683594 C 77.480469 58.292969 75.101562 52.351562 74.96875 52.148438 C 74.460938 52.535156 68.347656 58.1875 68.136719 58.472656 Z M 62.519531 62.25 C 62.585938 62.339844 65.496094 59.640625 65.792969 59.074219 C 67.246094 56.269531 67.378906 51.761719 64.230469 51.976562 C 59.707031 52.28125 62.023438 51.4375 63.113281 54.148438 C 64.292969 57.085938 63.992188 59.582031 62.519531 62.25 Z M 67.386719 57.835938 C 67.824219 57.457031 73.777344 51.960938 73.789062 51.949219 C 74.140625 51.625 74.050781 51.65625 73.734375 51.667969 C 66.339844 51.902344 67.144531 51.886719 66.910156 51.929688 C 67.679688 53.847656 68.035156 54.863281 67.386719 57.835938 Z M 82.011719 54.117188 C 81.953125 54.042969 76.03125 51.890625 75.96875 51.945312 C 76.019531 52.203125 78.324219 57.984375 78.464844 58.203125 C 79.136719 56.394531 80.375 55.082031 82.011719 54.117188 Z M 70.671875 46.644531 C 70.9375 46.945312 74.710938 50.1875 74.90625 50.300781 C 75.105469 50.25 77.296875 44.664062 77.316406 44.589844 C 75.234375 45.90625 73.164062 46.726562 70.671875 46.644531 Z M 67.253906 50.941406 C 74.511719 50.703125 73.5 50.746094 73.847656 50.703125 C 73.734375 50.539062 74.304688 51.050781 69.59375 46.980469 C 69.128906 48.574219 68.371094 49.722656 67.25 50.941406 Z M 75.976562 50.894531 C 76.292969 51.027344 75.457031 50.726562 81.742188 52.980469 C 82.160156 53.128906 81.96875 53.058594 81.628906 52.171875 C 80.808594 50.0625 81.144531 48.964844 81.113281 48.542969 C 80.777344 48.644531 76.164062 50.753906 75.972656 50.894531 Z M 80.800781 47.632812 C 78.214844 46.359375 78.207031 44.941406 78.011719 45.410156 C 76.105469 50.050781 76.332031 49.457031 76.320312 49.675781 C 77.808594 48.996094 79.273438 48.335938 80.796875 47.632812 Z M 80.800781 47.632812 " fill-opacity="1" fill-rule="nonzero"/></g><path fill="#a359a0" d="M 67.054688 70.582031 C 66.664062 69.613281 67.179688 67.804688 66.859375 66.996094 C 66.65625 66.476562 65.820312 66.195312 65.25 66.0625 C 65.613281 65.847656 65.929688 65.621094 66.203125 65.375 C 66.667969 65.527344 67.355469 65.800781 67.710938 66.1875 C 68.183594 66.699219 67.816406 68.964844 67.960938 69.402344 C 68.101562 69.84375 69.316406 69.253906 69.457031 70.324219 C 69.597656 71.398438 67.445312 71.546875 67.054688 70.582031 " fill-opacity="1" fill-rule="nonzero"/><path fill="#486cbd" d="M 67.828125 70.351562 C 67.617188 70.175781 67.5625 69.875 67.527344 69.605469 C 67.445312 68.925781 67.414062 68.242188 67.433594 67.558594 C 67.445312 67.230469 67.460938 66.878906 67.300781 66.589844 C 67.039062 66.128906 66.402344 65.9375 65.941406 65.738281 C 65.90625 65.722656 65.863281 65.707031 65.816406 65.6875 C 65.640625 65.816406 65.453125 65.941406 65.25 66.0625 C 65.820312 66.195312 66.65625 66.476562 66.859375 66.996094 C 67.179688 67.804688 66.664062 69.613281 67.054688 70.582031 C 67.445312 71.546875 69.597656 71.398438 69.457031 70.324219 C 69.453125 70.300781 69.449219 70.28125 69.445312 70.257812 C 69.257812 70.308594 69.066406 70.355469 68.878906 70.40625 C 68.527344 70.5 68.109375 70.582031 67.828125 70.351562 " fill-opacity="1" fill-rule="nonzero"/><path fill="#a359a0" d="M 70.730469 68.078125 C 69.9375 67.667969 69.679688 65.082031 69.097656 64.53125 C 68.679688 64.132812 67.609375 64.25 67.050781 64.34375 C 67.234375 64.023438 67.367188 63.679688 67.453125 63.3125 C 68.039062 63.335938 69.035156 63.410156 69.546875 63.640625 C 70.304688 63.980469 70.871094 66.742188 71.238281 67.023438 C 71.601562 67.304688 72.515625 66.476562 72.714844 67.410156 C 72.839844 68.007812 71.519531 68.488281 70.730469 68.078125 " fill-opacity="1" fill-rule="nonzero"/><path fill="#486cbd" d="M 72.390625 67.328125 C 72.136719 67.5625 71.785156 67.710938 71.441406 67.65625 C 70.945312 67.574219 70.605469 67.113281 70.417969 66.652344 C 70.230469 66.191406 70.136719 65.699219 69.976562 65.234375 C 69.8125 64.765625 69.5625 64.300781 69.148438 64.027344 C 68.765625 63.773438 68.28125 63.710938 67.828125 63.753906 C 67.644531 63.773438 67.464844 63.808594 67.285156 63.851562 C 67.21875 64.019531 67.140625 64.183594 67.050781 64.34375 C 67.609375 64.25 68.679688 64.132812 69.097656 64.53125 C 69.679688 65.082031 69.9375 67.667969 70.730469 68.078125 C 71.519531 68.488281 72.839844 68.007812 72.714844 67.410156 C 72.683594 67.273438 72.640625 67.175781 72.585938 67.105469 C 72.527344 67.183594 72.460938 67.257812 72.390625 67.328125 " fill-opacity="1" fill-rule="nonzero"/><path fill="#a359a0" d="M 73.550781 61.214844 C 72.59375 61.261719 70.882812 59.257812 70.257812 59.421875 C 69.714844 59.5625 68.027344 61.296875 67.570312 61.769531 C 67.546875 61.308594 67.472656 60.8125 67.359375 60.285156 C 67.964844 59.636719 69.609375 57.988281 70.351562 58.203125 C 71.273438 58.472656 72.21875 59.773438 72.949219 59.632812 C 73.683594 59.492188 73.800781 58.613281 74.53125 58.90625 C 75.265625 59.199219 74.507812 61.167969 73.550781 61.214844 " fill-opacity="1" fill-rule="nonzero"/><path fill="#486cbd" d="M 73.550781 61.214844 C 74.507812 61.167969 75.265625 59.199219 74.53125 58.90625 C 74.335938 58.828125 74.183594 58.835938 74.050781 58.886719 C 74.152344 59.226562 74.191406 59.582031 74.15625 59.929688 C 74.128906 60.195312 74.039062 60.484375 73.804688 60.605469 C 73.515625 60.753906 73.175781 60.582031 72.902344 60.410156 C 72.285156 60.035156 71.671875 59.65625 71.058594 59.28125 C 70.847656 59.152344 70.625 59.019531 70.375 59.007812 C 70.09375 59 69.832031 59.152344 69.59375 59.304688 C 69.289062 59.503906 68.988281 59.714844 68.699219 59.9375 C 68.277344 60.257812 67.871094 60.601562 67.484375 60.96875 C 67.527344 61.246094 67.554688 61.511719 67.570312 61.769531 C 68.027344 61.296875 69.714844 59.5625 70.257812 59.421875 C 70.882812 59.257812 72.59375 61.261719 73.550781 61.214844 " fill-opacity="1" fill-rule="nonzero"/><path fill="#a359a0" d="M 72.820312 57.429688 C 71.664062 57.546875 70.042969 55.6875 69.359375 55.664062 C 68.839844 55.644531 67.386719 57.621094 66.71875 58.578125 C 66.539062 58.273438 66.335938 57.996094 66.109375 57.746094 C 66.785156 56.746094 68.445312 54.371094 69.132812 54.152344 C 70.007812 53.871094 72.015625 55.582031 72.441406 55.699219 C 72.867188 55.816406 73.5625 54.890625 74.167969 55.324219 C 74.769531 55.757812 73.976562 57.3125 72.820312 57.429688 " fill-opacity="1" fill-rule="nonzero"/><path fill="#486cbd" d="M 74.167969 55.324219 C 74.046875 55.238281 73.925781 55.207031 73.804688 55.207031 C 73.804688 55.316406 73.792969 55.429688 73.761719 55.535156 C 73.632812 55.964844 73.246094 56.300781 72.804688 56.375 C 72.398438 56.4375 71.980469 56.289062 71.621094 56.085938 C 71.261719 55.882812 70.9375 55.625 70.570312 55.4375 C 70.164062 55.230469 69.691406 55.117188 69.253906 55.230469 C 68.710938 55.375 68.320312 55.835938 67.96875 56.273438 C 67.464844 56.902344 66.957031 57.53125 66.449219 58.164062 C 66.542969 58.296875 66.632812 58.433594 66.71875 58.578125 C 67.386719 57.621094 68.839844 55.644531 69.359375 55.664062 C 70.042969 55.6875 71.664062 57.546875 72.820312 57.429688 C 73.976562 57.3125 74.769531 55.757812 74.167969 55.324219 " fill-opacity="1" fill-rule="nonzero"/><path fill="#a359a0" d="M 55.640625 57.691406 C 55.316406 57.957031 55.023438 58.246094 54.757812 58.5625 C 54.183594 58.015625 51.878906 55.855469 51.226562 55.746094 C 50.484375 55.617188 49.65625 56.496094 49.042969 56.871094 C 48.429688 57.242188 46.894531 56.773438 47.257812 55.863281 C 47.625 54.949219 48.523438 55.558594 49.25 55.503906 C 49.976562 55.453125 50.117188 54.800781 51.144531 54.589844 C 52 54.414062 54.738281 56.859375 55.640625 57.691406 " fill-opacity="1" fill-rule="nonzero"/><path fill="#486cbd" d="M 55.1875 57.28125 C 55.097656 57.324219 55.007812 57.363281 54.914062 57.386719 C 54.507812 57.484375 54.085938 57.28125 53.773438 57.007812 C 53.464844 56.730469 53.222656 56.386719 52.914062 56.109375 C 52.121094 55.390625 50.871094 55.230469 49.917969 55.71875 C 49.628906 55.867188 49.363281 56.070312 49.050781 56.15625 C 48.738281 56.246094 48.34375 56.179688 48.1875 55.894531 C 48.109375 55.753906 48.121094 55.582031 48.191406 55.4375 C 48.203125 55.414062 48.214844 55.390625 48.230469 55.371094 C 47.824219 55.316406 47.460938 55.359375 47.257812 55.863281 C 46.894531 56.773438 48.429688 57.242188 49.042969 56.871094 C 49.65625 56.496094 50.484375 55.617188 51.226562 55.746094 C 51.878906 55.855469 54.183594 58.015625 54.757812 58.5625 C 55.023438 58.246094 55.316406 57.957031 55.640625 57.691406 C 55.519531 57.582031 55.363281 57.441406 55.1875 57.28125 " fill-opacity="1" fill-rule="nonzero"/><path fill="#a359a0" d="M 54.085938 59.566406 C 53.933594 59.84375 53.808594 60.136719 53.707031 60.445312 C 53.136719 60.113281 52.210938 59.621094 51.566406 59.574219 C 50.582031 59.503906 50.035156 61.027344 49.585938 62.070312 C 49.136719 63.113281 47.105469 62.679688 47.257812 61.707031 C 47.414062 60.734375 48.253906 61.085938 48.617188 60.957031 C 48.984375 60.828125 49.339844 59.09375 50.554688 58.683594 C 51.515625 58.359375 53.355469 59.199219 54.085938 59.566406 " fill-opacity="1" fill-rule="nonzero"/><path fill="#486cbd" d="M 54.085938 59.566406 C 53.902344 59.472656 53.652344 59.355469 53.363281 59.230469 C 53.253906 59.355469 53.136719 59.464844 52.984375 59.511719 C 52.667969 59.605469 52.355469 59.394531 52.046875 59.28125 C 51.363281 59.019531 50.515625 59.273438 50.085938 59.863281 C 49.75 60.320312 49.660156 60.933594 49.273438 61.347656 C 48.980469 61.664062 48.53125 61.824219 48.101562 61.773438 C 47.890625 61.746094 47.6875 61.667969 47.511719 61.550781 C 47.453125 61.507812 47.394531 61.464844 47.339844 61.414062 C 47.304688 61.496094 47.277344 61.59375 47.257812 61.707031 C 47.105469 62.679688 49.136719 63.113281 49.585938 62.070312 C 50.035156 61.027344 50.582031 59.503906 51.566406 59.574219 C 52.210938 59.621094 53.136719 60.113281 53.707031 60.445312 C 53.808594 60.136719 53.933594 59.84375 54.085938 59.566406 " fill-opacity="1" fill-rule="nonzero"/><path fill="#a359a0" d="M 52.066406 66.398438 C 51.484375 66.960938 51.808594 68.429688 51.675781 69.484375 C 51.546875 70.539062 50.105469 70.949219 49.765625 70.164062 C 49.421875 69.378906 50.308594 69.132812 50.53125 68.628906 C 50.757812 68.125 50.488281 67.394531 50.769531 66.253906 C 51.097656 64.910156 52.84375 64.417969 53.582031 64.269531 C 53.664062 64.632812 53.769531 64.96875 53.898438 65.28125 C 53.507812 65.46875 52.527344 65.953125 52.066406 66.398438 " fill-opacity="1" fill-rule="nonzero"/><path fill="#486cbd" d="M 53.898438 65.28125 C 53.769531 64.96875 53.664062 64.632812 53.582031 64.269531 C 53.371094 64.3125 53.082031 64.382812 52.765625 64.488281 C 52.777344 64.585938 52.78125 64.679688 52.761719 64.78125 C 52.71875 65 52.628906 65.207031 52.488281 65.382812 C 52.324219 65.585938 52.105469 65.742188 51.921875 65.929688 C 51.574219 66.277344 51.347656 66.738281 51.285156 67.222656 C 51.230469 67.652344 51.300781 68.089844 51.269531 68.523438 C 51.238281 68.957031 51.074219 69.421875 50.691406 69.632812 C 50.429688 69.777344 50.117188 69.777344 49.820312 69.773438 C 49.777344 69.773438 49.734375 69.773438 49.6875 69.773438 C 49.679688 69.886719 49.699219 70.015625 49.761719 70.164062 C 50.105469 70.949219 51.546875 70.539062 51.675781 69.484375 C 51.808594 68.429688 51.484375 66.960938 52.066406 66.398438 C 52.527344 65.953125 53.507812 65.46875 53.898438 65.28125 " fill-opacity="1" fill-rule="nonzero"/><path fill="#a359a0" d="M 55.421875 68.558594 C 55.054688 69.132812 55.824219 70.644531 55.804688 71.652344 C 55.789062 72.660156 54.417969 73.222656 54.003906 72.566406 C 53.589844 71.910156 54.359375 71.21875 54.535156 70.925781 C 54.710938 70.632812 54.359375 69.484375 54.382812 68.59375 C 54.398438 67.988281 55.054688 67.464844 55.46875 67.195312 C 55.742188 67.367188 56.046875 67.507812 56.375 67.621094 C 56.078125 67.847656 55.648438 68.207031 55.421875 68.558594 " fill-opacity="1" fill-rule="nonzero"/><path fill="#486cbd" d="M 56.375 67.621094 C 56.046875 67.507812 55.742188 67.367188 55.46875 67.195312 C 55.328125 67.289062 55.15625 67.410156 54.992188 67.554688 C 55.007812 67.558594 55.023438 67.5625 55.035156 67.566406 C 55.148438 67.597656 55.261719 67.652344 55.3125 67.757812 C 55.398438 67.9375 55.246094 68.132812 55.144531 68.300781 C 54.902344 68.691406 54.890625 69.179688 54.964844 69.628906 C 55.039062 70.082031 55.191406 70.515625 55.253906 70.96875 C 55.292969 71.269531 55.289062 71.59375 55.136719 71.859375 C 54.921875 72.21875 54.46875 72.386719 54.046875 72.371094 C 54 72.367188 53.957031 72.363281 53.910156 72.359375 C 53.929688 72.429688 53.960938 72.496094 54.003906 72.566406 C 54.417969 73.222656 55.789062 72.660156 55.804688 71.652344 C 55.824219 70.644531 55.054688 69.132812 55.421875 68.558594 C 55.648438 68.207031 56.078125 67.847656 56.375 67.621094 " fill-opacity="1" fill-rule="nonzero"/><path fill="#a359a0" d="M 67.453125 63.3125 C 67.367188 63.679688 67.234375 64.023438 67.050781 64.34375 C 66.835938 64.71875 66.554688 65.058594 66.203125 65.375 C 65.929688 65.621094 65.613281 65.847656 65.25 66.0625 C 64.3125 66.613281 63.074219 67.070312 61.492188 67.46875 C 59.328125 68.015625 57.640625 68.046875 56.375 67.621094 C 56.046875 67.507812 55.742188 67.367188 55.46875 67.195312 C 54.761719 66.75 54.246094 66.105469 53.898438 65.28125 C 53.769531 64.96875 53.664062 64.632812 53.582031 64.269531 C 53.503906 63.929688 53.449219 63.566406 53.414062 63.183594 C 53.320312 62.175781 53.429688 61.261719 53.707031 60.445312 C 53.808594 60.136719 53.933594 59.84375 54.085938 59.566406 C 54.273438 59.207031 54.5 58.871094 54.757812 58.5625 C 55.023438 58.246094 55.316406 57.957031 55.640625 57.691406 C 56.597656 56.910156 57.796875 56.367188 59.117188 56.085938 C 61.550781 55.5625 64.433594 55.894531 66.109375 57.746094 C 66.335938 57.996094 66.539062 58.273438 66.71875 58.578125 C 66.992188 59.046875 67.203125 59.585938 67.339844 60.195312 C 67.347656 60.226562 67.351562 60.253906 67.359375 60.285156 C 67.472656 60.8125 67.546875 61.308594 67.570312 61.769531 C 67.601562 62.328125 67.566406 62.839844 67.453125 63.3125 " fill-opacity="1" fill-rule="nonzero"/><path fill="#486cbd" d="M 67.570312 61.769531 C 67.546875 61.308594 67.472656 60.8125 67.359375 60.285156 C 67.351562 60.253906 67.347656 60.226562 67.339844 60.195312 C 67.203125 59.585938 66.992188 59.046875 66.71875 58.578125 C 66.539062 58.273438 66.335938 57.996094 66.109375 57.746094 C 64.914062 56.425781 63.105469 55.878906 61.285156 55.863281 C 62.386719 56.140625 63.390625 56.664062 64.148438 57.5 C 64.375 57.75 64.578125 58.027344 64.757812 58.335938 C 65.03125 58.804688 65.242188 59.339844 65.378906 59.953125 C 65.386719 59.980469 65.390625 60.011719 65.398438 60.039062 C 65.511719 60.570312 65.585938 61.0625 65.609375 61.523438 C 65.640625 62.085938 65.605469 62.597656 65.496094 63.066406 C 65.40625 63.4375 65.273438 63.78125 65.089844 64.101562 C 64.875 64.476562 64.597656 64.816406 64.242188 65.132812 C 63.96875 65.378906 63.652344 65.605469 63.289062 65.820312 C 62.355469 66.371094 61.113281 66.828125 59.53125 67.226562 C 58.402344 67.511719 57.40625 67.65625 56.527344 67.667969 C 57.773438 68.042969 59.414062 67.996094 61.492188 67.46875 C 63.074219 67.070312 64.3125 66.613281 65.25 66.0625 C 65.613281 65.847656 65.929688 65.621094 66.203125 65.375 C 66.554688 65.058594 66.835938 64.71875 67.050781 64.34375 C 67.234375 64.023438 67.367188 63.679688 67.453125 63.3125 C 67.566406 62.839844 67.601562 62.328125 67.570312 61.769531 " fill-opacity="1" fill-rule="nonzero"/><path fill="#ffffff" d="M 66.242188 61.332031 C 66.242188 63.042969 64.839844 64.433594 63.113281 64.433594 C 61.386719 64.433594 59.984375 63.042969 59.984375 61.332031 C 59.984375 59.617188 61.386719 58.230469 63.113281 58.230469 C 64.839844 58.230469 66.242188 59.617188 66.242188 61.332031 " fill-opacity="1" fill-rule="nonzero"/><path fill="#e9e8e7" d="M 63.78125 58.300781 C 64.675781 58.847656 65.269531 59.824219 65.269531 60.941406 C 65.269531 62.65625 63.867188 64.042969 62.140625 64.042969 C 61.910156 64.042969 61.6875 64.019531 61.472656 63.972656 C 61.949219 64.265625 62.511719 64.433594 63.113281 64.433594 C 64.839844 64.433594 66.242188 63.042969 66.242188 61.332031 C 66.242188 59.847656 65.1875 58.605469 63.78125 58.300781 " fill-opacity="1" fill-rule="nonzero"/><path fill="#ffffff" d="M 54.945312 62.21875 C 54.945312 63.613281 56.085938 64.746094 57.492188 64.746094 C 58.902344 64.746094 60.042969 63.613281 60.042969 62.21875 C 60.042969 60.820312 58.902344 59.6875 57.492188 59.6875 C 56.085938 59.6875 54.945312 60.820312 54.945312 62.21875 " fill-opacity="1" fill-rule="nonzero"/><path fill="#e9e8e7" d="M 58.121094 59.765625 C 58.640625 60.226562 58.964844 60.898438 58.964844 61.644531 C 58.964844 63.042969 57.824219 64.171875 56.414062 64.171875 C 56.199219 64.171875 55.988281 64.148438 55.785156 64.097656 C 56.238281 64.5 56.835938 64.746094 57.492188 64.746094 C 58.902344 64.746094 60.042969 63.613281 60.042969 62.21875 C 60.042969 61.035156 59.226562 60.042969 58.121094 59.765625 " fill-opacity="1" fill-rule="nonzero"/><path fill="#a359a0" d="M 63.769531 61.800781 C 63.769531 62.523438 63.179688 63.109375 62.449219 63.109375 C 61.722656 63.109375 61.128906 62.523438 61.128906 61.800781 C 61.128906 61.082031 61.722656 60.496094 62.449219 60.496094 C 63.179688 60.496094 63.769531 61.082031 63.769531 61.800781 " fill-opacity="1" fill-rule="nonzero"/><path fill="#a359a0" d="M 56.960938 62.601562 C 56.960938 63.191406 57.441406 63.667969 58.035156 63.667969 C 58.628906 63.667969 59.109375 63.191406 59.109375 62.601562 C 59.109375 62.011719 58.628906 61.535156 58.035156 61.535156 C 57.441406 61.535156 56.960938 62.011719 56.960938 62.601562 " fill-opacity="1" fill-rule="nonzero"/><path fill="#486cbd" d="M 62.878906 60.566406 C 63.113281 60.800781 63.257812 61.125 63.257812 61.484375 C 63.257812 62.207031 62.667969 62.792969 61.941406 62.792969 C 61.789062 62.792969 61.644531 62.765625 61.511719 62.71875 C 61.75 62.960938 62.082031 63.109375 62.449219 63.109375 C 63.179688 63.109375 63.769531 62.523438 63.769531 61.800781 C 63.769531 61.230469 63.398438 60.742188 62.878906 60.566406 " fill-opacity="1" fill-rule="nonzero"/><path fill="#486cbd" d="M 58.332031 61.578125 C 58.5 61.765625 58.601562 62.011719 58.601562 62.28125 C 58.601562 62.871094 58.121094 63.347656 57.527344 63.347656 C 57.421875 63.347656 57.324219 63.335938 57.230469 63.308594 C 57.425781 63.527344 57.714844 63.667969 58.035156 63.667969 C 58.628906 63.667969 59.109375 63.191406 59.109375 62.601562 C 59.109375 62.113281 58.78125 61.703125 58.332031 61.578125 " fill-opacity="1" fill-rule="nonzero"/><path fill="#100f0d" d="M 62.449219 60.617188 C 61.792969 60.617188 61.253906 61.148438 61.253906 61.800781 C 61.253906 62.457031 61.792969 62.988281 62.449219 62.988281 C 63.109375 62.988281 63.644531 62.457031 63.644531 61.800781 C 63.644531 61.148438 63.109375 60.617188 62.449219 60.617188 Z M 62.449219 63.234375 C 61.652344 63.234375 61.003906 62.59375 61.003906 61.800781 C 61.003906 61.011719 61.652344 60.371094 62.449219 60.371094 C 63.246094 60.371094 63.894531 61.011719 63.894531 61.800781 C 63.894531 62.59375 63.246094 63.234375 62.449219 63.234375 " fill-opacity="1" fill-rule="nonzero"/><path fill="#ffffff" d="M 62.636719 61.644531 C 62.636719 61.914062 62.414062 62.136719 62.140625 62.136719 C 61.867188 62.136719 61.644531 61.914062 61.644531 61.644531 C 61.644531 61.371094 61.867188 61.152344 62.140625 61.152344 C 62.414062 61.152344 62.636719 61.371094 62.636719 61.644531 " fill-opacity="1" fill-rule="nonzero"/><path fill="#ffffff" d="M 57.882812 62.472656 C 57.882812 62.695312 58.0625 62.875 58.285156 62.875 C 58.507812 62.875 58.691406 62.695312 58.691406 62.472656 C 58.691406 62.25 58.507812 62.070312 58.285156 62.070312 C 58.0625 62.070312 57.882812 62.25 57.882812 62.472656 " fill-opacity="1" fill-rule="nonzero"/><path fill="#ffffff" d="M 62.636719 61.644531 C 62.636719 61.914062 62.414062 62.136719 62.140625 62.136719 C 61.867188 62.136719 61.644531 61.914062 61.644531 61.644531 C 61.644531 61.371094 61.867188 61.152344 62.140625 61.152344 C 62.414062 61.152344 62.636719 61.371094 62.636719 61.644531 " fill-opacity="1" fill-rule="nonzero"/><path fill="#ffffff" d="M 57.882812 62.472656 C 57.882812 62.695312 58.0625 62.875 58.285156 62.875 C 58.507812 62.875 58.691406 62.695312 58.691406 62.472656 C 58.691406 62.25 58.507812 62.070312 58.285156 62.070312 C 58.0625 62.070312 57.882812 62.25 57.882812 62.472656 " fill-opacity="1" fill-rule="nonzero"/><path fill="#e9e8e7" d="M 62.28125 61.171875 C 62.328125 61.25 62.359375 61.339844 62.359375 61.433594 C 62.359375 61.707031 62.136719 61.925781 61.863281 61.925781 C 61.8125 61.925781 61.765625 61.917969 61.722656 61.90625 C 61.808594 62.042969 61.964844 62.136719 62.140625 62.136719 C 62.414062 62.136719 62.636719 61.914062 62.636719 61.644531 C 62.636719 61.421875 62.488281 61.234375 62.28125 61.171875 " fill-opacity="1" fill-rule="nonzero"/><path fill="#e9e8e7" d="M 58.367188 62.078125 C 58.394531 62.132812 58.410156 62.195312 58.410156 62.261719 C 58.410156 62.484375 58.230469 62.664062 58.007812 62.664062 C 57.980469 62.664062 57.953125 62.660156 57.925781 62.65625 C 57.992188 62.785156 58.128906 62.875 58.285156 62.875 C 58.507812 62.875 58.691406 62.695312 58.691406 62.472656 C 58.691406 62.277344 58.550781 62.117188 58.367188 62.078125 " fill-opacity="1" fill-rule="nonzero"/><path fill="#100f0d" d="M 62.140625 61.277344 C 61.9375 61.277344 61.769531 61.441406 61.769531 61.644531 C 61.769531 61.847656 61.9375 62.011719 62.140625 62.011719 C 62.347656 62.011719 62.511719 61.847656 62.511719 61.644531 C 62.511719 61.441406 62.347656 61.277344 62.140625 61.277344 Z M 62.140625 62.261719 C 61.800781 62.261719 61.519531 61.984375 61.519531 61.644531 C 61.519531 61.304688 61.800781 61.027344 62.140625 61.027344 C 62.484375 61.027344 62.761719 61.304688 62.761719 61.644531 C 62.761719 61.984375 62.484375 62.261719 62.140625 62.261719 " fill-opacity="1" fill-rule="nonzero"/><path fill="#100f0d" d="M 63.113281 58.355469 C 61.457031 58.355469 60.109375 59.691406 60.109375 61.332031 C 60.109375 62.972656 61.457031 64.308594 63.113281 64.308594 C 64.769531 64.308594 66.117188 62.972656 66.117188 61.332031 C 66.117188 59.691406 64.769531 58.355469 63.113281 58.355469 Z M 63.113281 64.558594 C 61.320312 64.558594 59.859375 63.109375 59.859375 61.332031 C 59.859375 59.554688 61.320312 58.105469 63.113281 58.105469 C 64.90625 58.105469 66.367188 59.554688 66.367188 61.332031 C 66.367188 63.109375 64.90625 64.558594 63.113281 64.558594 " fill-opacity="1" fill-rule="nonzero"/><path fill="#100f0d" d="M 58.035156 61.660156 C 57.511719 61.660156 57.085938 62.082031 57.085938 62.601562 C 57.085938 63.121094 57.511719 63.542969 58.035156 63.542969 C 58.558594 63.542969 58.984375 63.121094 58.984375 62.601562 C 58.984375 62.082031 58.558594 61.660156 58.035156 61.660156 Z M 58.035156 63.792969 C 57.371094 63.792969 56.835938 63.257812 56.835938 62.601562 C 56.835938 61.945312 57.371094 61.410156 58.035156 61.410156 C 58.695312 61.410156 59.234375 61.945312 59.234375 62.601562 C 59.234375 63.257812 58.695312 63.792969 58.035156 63.792969 " fill-opacity="1" fill-rule="nonzero"/><path fill="#100f0d" d="M 58.285156 62.195312 C 58.132812 62.195312 58.007812 62.320312 58.007812 62.472656 C 58.007812 62.625 58.132812 62.75 58.285156 62.75 C 58.441406 62.75 58.566406 62.625 58.566406 62.472656 C 58.566406 62.320312 58.441406 62.195312 58.285156 62.195312 Z M 58.285156 62.996094 C 57.992188 62.996094 57.757812 62.761719 57.757812 62.472656 C 57.757812 62.183594 57.992188 61.945312 58.285156 61.945312 C 58.578125 61.945312 58.816406 62.183594 58.816406 62.472656 C 58.816406 62.761719 58.578125 62.996094 58.285156 62.996094 " fill-opacity="1" fill-rule="nonzero"/><path fill="#100f0d" d="M 57.492188 59.8125 C 56.15625 59.8125 55.066406 60.890625 55.066406 62.21875 C 55.066406 63.542969 56.15625 64.621094 57.492188 64.621094 C 58.832031 64.621094 59.917969 63.542969 59.917969 62.21875 C 59.917969 60.890625 58.832031 59.8125 57.492188 59.8125 Z M 57.492188 64.871094 C 56.019531 64.871094 54.820312 63.679688 54.820312 62.21875 C 54.820312 60.753906 56.019531 59.5625 57.492188 59.5625 C 58.96875 59.5625 60.167969 60.753906 60.167969 62.21875 C 60.167969 63.679688 58.96875 64.871094 57.492188 64.871094 " fill-opacity="1" fill-rule="nonzero"/><path fill="#100f0d" d="M 67.453125 63.3125 Z M 61.199219 55.988281 C 60.480469 55.988281 59.78125 56.070312 59.144531 56.207031 C 57.824219 56.488281 56.640625 57.035156 55.71875 57.789062 C 55.398438 58.046875 55.109375 58.335938 54.855469 58.640625 C 54.601562 58.945312 54.378906 59.277344 54.195312 59.625 C 54.046875 59.898438 53.921875 60.1875 53.824219 60.484375 C 53.546875 61.308594 53.449219 62.214844 53.539062 63.171875 C 53.574219 63.550781 53.628906 63.910156 53.703125 64.242188 C 53.78125 64.597656 53.886719 64.929688 54.015625 65.234375 C 54.355469 66.042969 54.867188 66.667969 55.535156 67.089844 C 55.800781 67.257812 56.097656 67.398438 56.417969 67.503906 C 57.679688 67.929688 59.378906 67.878906 61.460938 67.351562 C 63.0625 66.945312 64.277344 66.488281 65.183594 65.957031 C 65.539062 65.746094 65.855469 65.519531 66.121094 65.285156 C 66.464844 64.976562 66.734375 64.648438 66.941406 64.28125 C 67.117188 63.976562 67.25 63.640625 67.332031 63.28125 C 67.441406 62.828125 67.476562 62.335938 67.445312 61.773438 C 67.421875 61.324219 67.351562 60.847656 67.234375 60.308594 C 67.230469 60.28125 67.222656 60.25 67.21875 60.222656 C 67.089844 59.644531 66.882812 59.109375 66.609375 58.640625 C 66.441406 58.347656 66.242188 58.074219 66.015625 57.828125 C 64.785156 56.472656 62.945312 55.988281 61.199219 55.988281 Z M 58.363281 68.035156 C 57.601562 68.035156 56.925781 67.9375 56.335938 67.738281 C 56 67.625 55.683594 67.476562 55.402344 67.296875 C 54.6875 66.847656 54.144531 66.1875 53.785156 65.328125 C 53.652344 65.011719 53.542969 64.664062 53.460938 64.296875 C 53.382812 63.957031 53.324219 63.585938 53.289062 63.195312 C 53.199219 62.203125 53.296875 61.265625 53.585938 60.40625 C 53.691406 60.097656 53.820312 59.796875 53.972656 59.507812 C 54.164062 59.144531 54.398438 58.800781 54.664062 58.480469 C 54.925781 58.164062 55.226562 57.867188 55.558594 57.597656 C 56.511719 56.820312 57.734375 56.253906 59.09375 55.964844 C 61.34375 55.480469 64.394531 55.671875 66.203125 57.664062 C 66.4375 57.921875 66.648438 58.210938 66.828125 58.515625 C 67.113281 59.007812 67.328125 59.566406 67.460938 60.167969 C 67.46875 60.199219 67.472656 60.230469 67.480469 60.257812 C 67.597656 60.808594 67.667969 61.300781 67.695312 61.761719 C 67.726562 62.34375 67.6875 62.859375 67.578125 63.339844 C 67.484375 63.722656 67.34375 64.078125 67.160156 64.40625 C 66.9375 64.792969 66.652344 65.140625 66.285156 65.46875 C 66.007812 65.714844 65.679688 65.949219 65.3125 66.167969 C 64.386719 66.714844 63.144531 67.179688 61.523438 67.589844 C 60.351562 67.886719 59.292969 68.035156 58.363281 68.035156 " fill-opacity="1" fill-rule="nonzero"/><path fill="#100f0d" d="M 51.074219 55.609375 C 51.132812 55.609375 51.191406 55.613281 51.25 55.621094 C 51.886719 55.734375 53.839844 57.519531 54.75 58.378906 C 54.960938 58.136719 55.195312 57.902344 55.449219 57.6875 C 53.328125 55.742188 51.695312 54.605469 51.171875 54.710938 C 50.667969 54.816406 50.398438 55.023438 50.136719 55.222656 C 49.886719 55.417969 49.648438 55.601562 49.257812 55.628906 C 49.019531 55.644531 48.769531 55.597656 48.527344 55.550781 C 47.949219 55.4375 47.582031 55.394531 47.375 55.90625 C 47.273438 56.160156 47.335938 56.382812 47.558594 56.570312 C 47.929688 56.878906 48.632812 56.972656 48.976562 56.761719 C 49.136719 56.667969 49.3125 56.535156 49.496094 56.394531 C 49.984375 56.023438 50.53125 55.609375 51.074219 55.609375 Z M 54.757812 58.683594 C 54.726562 58.683594 54.695312 58.671875 54.671875 58.648438 C 53.375 57.417969 51.691406 55.949219 51.207031 55.867188 C 50.714844 55.78125 50.148438 56.210938 49.648438 56.589844 C 49.457031 56.734375 49.277344 56.871094 49.109375 56.972656 C 48.671875 57.242188 47.855469 57.136719 47.398438 56.757812 C 47.09375 56.503906 47.003906 56.167969 47.144531 55.816406 C 47.4375 55.085938 48.042969 55.203125 48.578125 55.308594 C 48.800781 55.351562 49.035156 55.394531 49.242188 55.382812 C 49.554688 55.359375 49.742188 55.210938 49.984375 55.027344 C 50.253906 54.820312 50.5625 54.585938 51.121094 54.46875 C 51.53125 54.386719 52.292969 54.777344 53.449219 55.667969 C 54.355469 56.359375 55.261719 57.175781 55.722656 57.601562 C 55.75 57.625 55.765625 57.660156 55.761719 57.695312 C 55.761719 57.730469 55.746094 57.765625 55.71875 57.789062 C 55.398438 58.046875 55.109375 58.335938 54.855469 58.640625 C 54.832031 58.664062 54.800781 58.683594 54.765625 58.683594 C 54.765625 58.683594 54.761719 58.683594 54.757812 58.683594 " fill-opacity="1" fill-rule="nonzero"/><path fill="#100f0d" d="M 51.0625 58.734375 C 50.890625 58.734375 50.730469 58.757812 50.59375 58.800781 C 49.855469 59.050781 49.449219 59.835938 49.152344 60.40625 C 48.960938 60.769531 48.835938 61.011719 48.660156 61.074219 C 48.542969 61.117188 48.398438 61.117188 48.246094 61.117188 C 47.851562 61.117188 47.480469 61.117188 47.382812 61.726562 C 47.320312 62.125 47.714844 62.386719 48.070312 62.488281 C 48.601562 62.640625 49.253906 62.527344 49.472656 62.019531 C 49.511719 61.933594 49.550781 61.839844 49.589844 61.742188 C 50.035156 60.691406 50.585938 59.382812 51.574219 59.453125 C 52.179688 59.496094 53.007812 59.902344 53.636719 60.261719 C 53.71875 60.042969 53.808594 59.828125 53.914062 59.621094 C 53.34375 59.339844 51.996094 58.734375 51.0625 58.734375 Z M 48.511719 62.796875 C 48.339844 62.796875 48.164062 62.773438 48 62.726562 C 47.402344 62.554688 47.0625 62.148438 47.136719 61.6875 C 47.265625 60.871094 47.855469 60.867188 48.246094 60.867188 C 48.375 60.867188 48.5 60.867188 48.578125 60.839844 C 48.660156 60.8125 48.800781 60.535156 48.929688 60.292969 C 49.246094 59.683594 49.679688 58.847656 50.515625 58.566406 C 51.519531 58.230469 53.382812 59.074219 54.140625 59.457031 C 54.171875 59.46875 54.191406 59.496094 54.203125 59.527344 C 54.214844 59.558594 54.210938 59.59375 54.195312 59.625 C 54.046875 59.898438 53.921875 60.1875 53.824219 60.484375 C 53.8125 60.519531 53.785156 60.550781 53.75 60.5625 C 53.714844 60.574219 53.671875 60.570312 53.640625 60.554688 C 53.132812 60.253906 52.1875 59.742188 51.558594 59.699219 C 50.746094 59.640625 50.234375 60.859375 49.820312 61.839844 C 49.78125 61.933594 49.742188 62.027344 49.703125 62.117188 C 49.496094 62.59375 49.011719 62.796875 48.511719 62.796875 " fill-opacity="1" fill-rule="nonzero"/><path fill="#100f0d" d="M 52.066406 66.398438 Z M 53.488281 64.417969 C 52.722656 64.585938 51.183594 65.074219 50.890625 66.28125 C 50.746094 66.871094 50.75 67.355469 50.753906 67.746094 C 50.757812 68.121094 50.761719 68.417969 50.644531 68.679688 C 50.558594 68.875 50.390625 69.027344 50.230469 69.179688 C 49.9375 69.445312 49.6875 69.679688 49.878906 70.113281 C 49.988281 70.363281 50.25 70.488281 50.578125 70.4375 C 51.011719 70.378906 51.484375 70.023438 51.554688 69.46875 C 51.59375 69.125 51.589844 68.726562 51.582031 68.34375 C 51.566406 67.507812 51.550781 66.722656 51.980469 66.308594 C 52.414062 65.890625 53.289062 65.4375 53.742188 65.222656 C 53.640625 64.96875 53.554688 64.699219 53.488281 64.417969 Z M 50.445312 70.695312 C 50.078125 70.695312 49.785156 70.519531 49.648438 70.214844 C 49.386719 69.617188 49.761719 69.273438 50.058594 68.996094 C 50.210938 68.859375 50.351562 68.730469 50.417969 68.578125 C 50.511719 68.367188 50.507812 68.09375 50.503906 67.75 C 50.5 67.34375 50.496094 66.84375 50.644531 66.222656 C 50.992188 64.8125 52.796875 64.300781 53.554688 64.148438 C 53.625 64.136719 53.6875 64.175781 53.703125 64.242188 C 53.78125 64.597656 53.886719 64.929688 54.015625 65.234375 C 54.039062 65.296875 54.015625 65.363281 53.953125 65.394531 C 53.5625 65.578125 52.601562 66.058594 52.152344 66.488281 C 51.804688 66.824219 51.816406 67.59375 51.832031 68.339844 C 51.839844 68.730469 51.84375 69.140625 51.800781 69.5 C 51.71875 70.179688 51.140625 70.609375 50.613281 70.683594 C 50.554688 70.691406 50.5 70.695312 50.445312 70.695312 " fill-opacity="1" fill-rule="nonzero"/><path fill="#100f0d" d="M 55.472656 67.339844 C 55.089844 67.601562 54.519531 68.074219 54.507812 68.597656 C 54.496094 68.992188 54.5625 69.449219 54.621094 69.851562 C 54.710938 70.453125 54.757812 70.800781 54.644531 70.988281 C 54.605469 71.050781 54.546875 71.128906 54.476562 71.214844 C 54.21875 71.542969 53.824219 72.042969 54.109375 72.5 C 54.238281 72.703125 54.503906 72.773438 54.816406 72.6875 C 55.238281 72.570312 55.671875 72.179688 55.679688 71.648438 C 55.6875 71.238281 55.558594 70.730469 55.429688 70.242188 C 55.25 69.535156 55.074219 68.867188 55.316406 68.492188 C 55.507812 68.191406 55.835938 67.890625 56.125 67.660156 C 55.894531 67.570312 55.675781 67.464844 55.472656 67.339844 Z M 54.566406 72.972656 C 54.28125 72.972656 54.039062 72.851562 53.898438 72.632812 C 53.519531 72.027344 53.996094 71.421875 54.28125 71.0625 C 54.34375 70.980469 54.398438 70.914062 54.429688 70.863281 C 54.503906 70.742188 54.433594 70.285156 54.375 69.886719 C 54.316406 69.472656 54.246094 69.007812 54.257812 68.589844 C 54.273438 67.957031 54.886719 67.425781 55.398438 67.089844 C 55.441406 67.0625 55.496094 67.0625 55.535156 67.089844 C 55.800781 67.257812 56.097656 67.398438 56.417969 67.503906 C 56.460938 67.519531 56.492188 67.554688 56.5 67.601562 C 56.507812 67.644531 56.488281 67.691406 56.453125 67.71875 C 56.023438 68.042969 55.691406 68.367188 55.527344 68.625 C 55.34375 68.910156 55.511719 69.554688 55.671875 70.179688 C 55.804688 70.6875 55.9375 71.210938 55.929688 71.652344 C 55.917969 72.304688 55.394531 72.785156 54.882812 72.925781 C 54.773438 72.957031 54.667969 72.972656 54.566406 72.972656 " fill-opacity="1" fill-rule="nonzero"/><path fill="#100f0d" d="M 67.171875 70.535156 C 67.371094 71.027344 68.128906 71.199219 68.710938 71.046875 C 68.917969 70.996094 69.394531 70.816406 69.332031 70.339844 C 69.257812 69.785156 68.878906 69.757812 68.476562 69.730469 C 68.203125 69.710938 67.921875 69.691406 67.839844 69.441406 C 67.78125 69.261719 67.796875 68.871094 67.816406 68.375 C 67.847656 67.609375 67.886719 66.5625 67.621094 66.269531 C 67.371094 66 66.878906 65.734375 66.230469 65.515625 C 66.03125 65.6875 65.808594 65.855469 65.5625 66.015625 C 66.152344 66.183594 66.789062 66.472656 66.976562 66.949219 C 67.140625 67.359375 67.101562 67.980469 67.0625 68.636719 C 67.019531 69.332031 66.976562 70.054688 67.171875 70.535156 Z M 68.28125 71.347656 C 67.714844 71.347656 67.136719 71.117188 66.941406 70.625 C 66.726562 70.09375 66.769531 69.34375 66.8125 68.621094 C 66.851562 67.992188 66.886719 67.398438 66.746094 67.039062 C 66.554688 66.558594 65.707031 66.296875 65.21875 66.183594 C 65.171875 66.171875 65.132812 66.132812 65.125 66.082031 C 65.117188 66.03125 65.140625 65.980469 65.183594 65.957031 C 65.539062 65.746094 65.855469 65.519531 66.121094 65.285156 C 66.152344 65.253906 66.199219 65.246094 66.242188 65.257812 C 66.753906 65.425781 67.4375 65.707031 67.804688 66.105469 C 68.140625 66.46875 68.101562 67.484375 68.066406 68.382812 C 68.050781 68.816406 68.035156 69.226562 68.078125 69.363281 C 68.105469 69.449219 68.253906 69.464844 68.492188 69.484375 C 68.886719 69.511719 69.480469 69.554688 69.582031 70.308594 C 69.640625 70.769531 69.332031 71.144531 68.773438 71.289062 C 68.617188 71.328125 68.449219 71.347656 68.28125 71.347656 " fill-opacity="1" fill-rule="nonzero"/><path fill="#100f0d" d="M 70.785156 67.96875 C 71.28125 68.226562 72.015625 68.097656 72.386719 67.820312 C 72.5 67.734375 72.625 67.597656 72.589844 67.4375 C 72.558594 67.277344 72.5 67.171875 72.417969 67.121094 C 72.28125 67.035156 72.0625 67.089844 71.851562 67.140625 C 71.605469 67.203125 71.347656 67.265625 71.160156 67.121094 C 70.996094 66.996094 70.84375 66.589844 70.59375 65.882812 C 70.304688 65.058594 69.90625 63.9375 69.496094 63.753906 C 69.027344 63.542969 68.117188 63.464844 67.550781 63.4375 C 67.484375 63.699219 67.390625 63.949219 67.277344 64.183594 C 67.898438 64.097656 68.785156 64.0625 69.1875 64.441406 C 69.464844 64.707031 69.660156 65.355469 69.871094 66.046875 C 70.113281 66.851562 70.390625 67.765625 70.785156 67.96875 Z M 71.414062 68.355469 C 71.15625 68.355469 70.898438 68.304688 70.671875 68.1875 C 70.179688 67.933594 69.902344 67.011719 69.628906 66.117188 C 69.441406 65.488281 69.242188 64.839844 69.011719 64.621094 C 68.738281 64.359375 68.03125 64.300781 67.070312 64.464844 C 67.023438 64.472656 66.976562 64.453125 66.949219 64.414062 C 66.921875 64.375 66.917969 64.324219 66.941406 64.28125 C 67.117188 63.976562 67.25 63.640625 67.332031 63.28125 C 67.347656 63.226562 67.398438 63.183594 67.460938 63.1875 C 68.152344 63.214844 69.085938 63.296875 69.597656 63.527344 C 70.105469 63.753906 70.492188 64.839844 70.832031 65.800781 C 71.003906 66.285156 71.199219 66.839844 71.3125 66.925781 C 71.40625 66.996094 71.601562 66.949219 71.792969 66.902344 C 72.042969 66.839844 72.324219 66.769531 72.550781 66.910156 C 72.691406 67 72.785156 67.152344 72.835938 67.386719 C 72.882812 67.613281 72.777344 67.835938 72.535156 68.015625 C 72.269531 68.21875 71.84375 68.355469 71.414062 68.355469 " fill-opacity="1" fill-rule="nonzero"/><path fill="#100f0d" d="M 67.492188 60.320312 C 67.582031 60.738281 67.640625 61.121094 67.675781 61.480469 C 68.394531 60.742188 69.722656 59.433594 70.226562 59.304688 C 70.582031 59.210938 71.132812 59.625 71.765625 60.109375 C 72.386719 60.578125 73.089844 61.113281 73.546875 61.089844 L 73.550781 61.214844 L 73.546875 61.089844 C 74.0625 61.066406 74.570312 60.332031 74.679688 59.691406 C 74.710938 59.523438 74.746094 59.125 74.484375 59.023438 C 74.144531 58.886719 73.984375 59.042969 73.738281 59.28125 C 73.546875 59.472656 73.324219 59.6875 72.972656 59.753906 C 72.507812 59.84375 72.015625 59.457031 71.492188 59.050781 C 71.101562 58.75 70.699219 58.4375 70.316406 58.324219 C 69.863281 58.191406 68.785156 58.957031 67.492188 60.320312 Z M 67.570312 61.890625 C 67.554688 61.890625 67.542969 61.890625 67.527344 61.882812 C 67.480469 61.867188 67.449219 61.824219 67.445312 61.773438 C 67.421875 61.324219 67.351562 60.847656 67.234375 60.308594 C 67.226562 60.269531 67.238281 60.226562 67.265625 60.199219 C 68.101562 59.3125 69.613281 57.859375 70.386719 58.085938 C 70.816406 58.210938 71.238281 58.539062 71.644531 58.855469 C 72.121094 59.226562 72.574219 59.578125 72.925781 59.511719 C 73.203125 59.457031 73.386719 59.28125 73.5625 59.105469 C 73.808594 58.867188 74.085938 58.59375 74.578125 58.792969 C 74.882812 58.914062 75.007812 59.257812 74.925781 59.734375 C 74.816406 60.382812 74.28125 61.304688 73.558594 61.339844 C 73.011719 61.367188 72.300781 60.828125 71.617188 60.304688 C 71.105469 59.917969 70.527344 59.480469 70.289062 59.542969 C 69.890625 59.648438 68.667969 60.804688 67.660156 61.855469 C 67.636719 61.878906 67.605469 61.890625 67.570312 61.890625 " fill-opacity="1" fill-rule="nonzero"/><path fill="#100f0d" d="M 72.820312 57.429688 Z M 66.265625 57.734375 C 66.433594 57.925781 66.589844 58.132812 66.726562 58.351562 C 67.070312 57.863281 67.542969 57.222656 68 56.675781 C 68.863281 55.644531 69.191406 55.535156 69.363281 55.539062 C 69.683594 55.550781 70.136719 55.882812 70.664062 56.265625 C 71.335938 56.757812 72.175781 57.371094 72.808594 57.308594 C 73.492188 57.238281 74.058594 56.613281 74.210938 56.046875 C 74.246094 55.910156 74.308594 55.578125 74.09375 55.421875 C 73.800781 55.210938 73.460938 55.40625 73.128906 55.59375 C 72.875 55.742188 72.628906 55.878906 72.410156 55.816406 C 72.265625 55.777344 72.027344 55.621094 71.621094 55.351562 C 70.910156 54.878906 69.722656 54.09375 69.171875 54.269531 C 68.726562 54.414062 67.644531 55.707031 66.265625 57.734375 Z M 66.71875 58.703125 C 66.714844 58.703125 66.714844 58.703125 66.714844 58.703125 C 66.671875 58.699219 66.632812 58.675781 66.609375 58.640625 C 66.441406 58.347656 66.242188 58.074219 66.015625 57.828125 C 65.976562 57.785156 65.972656 57.722656 66.003906 57.675781 C 66.859375 56.410156 68.398438 54.257812 69.097656 54.035156 C 69.761719 53.820312 70.917969 54.585938 71.757812 55.144531 C 72.070312 55.351562 72.363281 55.546875 72.476562 55.578125 C 72.597656 55.613281 72.804688 55.492188 73.003906 55.378906 C 73.367188 55.171875 73.816406 54.917969 74.238281 55.222656 C 74.480469 55.394531 74.558594 55.71875 74.453125 56.113281 C 74.277344 56.757812 73.621094 57.472656 72.832031 57.554688 C 72.105469 57.628906 71.261719 57.007812 70.515625 56.464844 C 70.042969 56.121094 69.597656 55.792969 69.355469 55.785156 C 69.355469 55.785156 69.351562 55.785156 69.351562 55.785156 C 69.109375 55.785156 68.304688 56.535156 66.820312 58.648438 C 66.796875 58.683594 66.757812 58.703125 66.71875 58.703125 " fill-opacity="1" fill-rule="nonzero"/><path fill="#100f0d" d="M 60.117188 66.515625 C 58.84375 66.515625 58.511719 65.773438 58.496094 65.738281 C 58.472656 65.675781 58.5 65.601562 58.5625 65.574219 C 58.628906 65.550781 58.699219 65.578125 58.726562 65.640625 C 58.742188 65.675781 59.121094 66.480469 60.734375 66.210938 C 62.480469 65.921875 62.726562 65.035156 62.726562 65.027344 C 62.746094 64.960938 62.8125 64.921875 62.878906 64.9375 C 62.945312 64.953125 62.984375 65.019531 62.96875 65.085938 C 62.960938 65.128906 62.699219 66.132812 60.773438 66.457031 C 60.53125 66.496094 60.3125 66.515625 60.117188 66.515625 " fill-opacity="1" fill-rule="nonzero"/><g clip-path="url(#6fa8c2fe13)"><path fill="#f4f6fc" d="M 102.277344 73.882812 C 102.375 71.597656 102.453125 69.316406 102.515625 67.03125 C 102.578125 64.652344 102.621094 62.273438 102.648438 59.894531 C 102.675781 57.515625 102.679688 55.136719 102.667969 52.757812 C 102.65625 50.503906 102.617188 48.253906 102.5625 46.003906 C 102.507812 44.007812 102.433594 42.007812 102.316406 40.015625 C 102.304688 39.785156 102.289062 39.558594 102.277344 39.328125 C 102.273438 39.253906 101.96875 39.308594 101.972656 39.410156 C 102.09375 41.375 102.175781 43.339844 102.234375 45.308594 C 102.300781 47.523438 102.34375 49.742188 102.359375 51.960938 C 102.378906 54.328125 102.375 56.699219 102.355469 59.070312 C 102.332031 61.464844 102.292969 63.859375 102.234375 66.257812 C 102.175781 68.546875 102.101562 70.839844 102.007812 73.132812 C 101.996094 73.40625 101.984375 73.683594 101.972656 73.960938 C 101.96875 74.03125 102.273438 73.984375 102.277344 73.882812 Z M 102.277344 73.882812 " fill-opacity="1" fill-rule="nonzero"/></g><path fill="#f4f6fc" d="M 106.285156 74.21875 C 106.292969 73.371094 106.03125 72.609375 105.5 71.9375 C 104.976562 71.3125 104.320312 70.886719 103.53125 70.664062 C 101.9375 70.191406 100.058594 70.578125 98.925781 71.816406 C 97.757812 73.097656 97.710938 74.996094 98.554688 76.457031 C 98.957031 77.152344 99.515625 77.695312 100.226562 78.082031 C 99.648438 78.6875 99.671875 79.589844 100.132812 80.285156 C 100.644531 81.054688 101.601562 81.519531 102.527344 81.328125 C 103.546875 81.117188 104.371094 80.199219 104.386719 79.164062 C 104.386719 78.753906 104.253906 78.390625 103.976562 78.082031 C 104.679688 77.679688 105.234375 77.136719 105.648438 76.449219 C 106.058594 75.761719 106.273438 75.019531 106.285156 74.21875 Z M 106.285156 74.21875 " fill-opacity="1" fill-rule="nonzero"/><g clip-path="url(#566e4f0d7e)"><path fill="#f4f6fc" d="M 92.753906 78.234375 C 93.417969 77.066406 94.378906 76.015625 95.632812 75.457031 C 95.679688 75.4375 95.726562 75.417969 95.773438 75.398438 C 95.835938 75.375 95.792969 75.390625 95.84375 75.371094 C 95.917969 75.34375 95.996094 75.316406 96.074219 75.289062 C 96.089844 75.285156 96.105469 75.28125 96.121094 75.273438 C 96.183594 75.253906 96.105469 75.285156 96.101562 75.28125 C 96.097656 75.277344 96.191406 75.269531 96.113281 75.273438 C 96.226562 75.273438 96.335938 75.289062 96.445312 75.324219 C 97.089844 75.496094 97.664062 75.960938 98.164062 76.378906 C 98.910156 77.015625 99.59375 77.707031 100.21875 78.457031 L 100.351562 78.34375 C 99.613281 78.664062 98.90625 79.03125 98.21875 79.445312 C 97.742188 79.730469 97.332031 80.082031 96.984375 80.507812 C 96.726562 80.84375 96.5 81.261719 96.5 81.691406 C 96.496094 82.265625 96.679688 82.851562 96.871094 83.386719 C 97.152344 84.207031 97.535156 84.980469 98.019531 85.707031 C 98.113281 85.84375 98.664062 85.605469 98.625 85.546875 C 98.207031 84.917969 97.863281 84.253906 97.59375 83.550781 C 97.359375 82.988281 97.203125 82.402344 97.121094 81.796875 C 97.078125 81.371094 97.179688 80.980469 97.421875 80.628906 C 97.699219 80.207031 98.050781 79.859375 98.476562 79.585938 C 99.183594 79.132812 99.921875 78.738281 100.695312 78.410156 C 100.707031 78.402344 100.859375 78.335938 100.828125 78.296875 C 100.226562 77.582031 99.578125 76.914062 98.875 76.300781 C 98.320312 75.820312 97.6875 75.308594 96.964844 75.105469 C 96.460938 74.960938 95.976562 75.117188 95.507812 75.304688 C 94.96875 75.519531 94.472656 75.804688 94.015625 76.15625 C 93.246094 76.761719 92.628906 77.492188 92.15625 78.34375 C 92.105469 78.433594 92.371094 78.398438 92.398438 78.390625 C 92.5 78.375 92.699219 78.335938 92.753906 78.234375 Z M 92.753906 78.234375 " fill-opacity="1" fill-rule="nonzero"/></g><g clip-path="url(#960ef08d90)"><path fill="#f4f6fc" d="M 93.460938 80.511719 C 93.984375 79.429688 94.617188 78.230469 95.605469 77.492188 C 95.746094 77.382812 95.898438 77.296875 96.066406 77.234375 C 96.101562 77.21875 96.136719 77.210938 96.171875 77.210938 C 96.257812 77.207031 96.34375 77.207031 96.425781 77.214844 C 96.96875 77.269531 97.492188 77.386719 98.007812 77.566406 C 98.773438 77.808594 99.519531 78.113281 100.234375 78.476562 L 100.71875 78.261719 C 99.84375 78.296875 98.96875 78.339844 98.097656 78.433594 C 97.558594 78.476562 97.023438 78.566406 96.5 78.703125 C 96.117188 78.78125 95.800781 78.964844 95.546875 79.257812 C 95.144531 79.796875 94.84375 80.390625 94.652344 81.035156 C 94.316406 82 94.195312 82.992188 94.289062 84.011719 C 94.300781 84.113281 94.910156 84 94.894531 83.851562 C 94.746094 82.277344 95.085938 80.8125 95.921875 79.460938 C 96.023438 79.285156 96.148438 79.128906 96.296875 78.984375 C 96.3125 78.972656 96.328125 78.957031 96.34375 78.949219 C 96.390625 78.914062 96.308594 78.964844 96.339844 78.949219 C 96.355469 78.941406 96.367188 78.9375 96.382812 78.929688 C 96.410156 78.917969 96.464844 78.898438 96.40625 78.917969 C 96.445312 78.902344 96.488281 78.890625 96.53125 78.875 C 96.460938 78.898438 96.542969 78.871094 96.570312 78.863281 C 96.617188 78.851562 96.660156 78.839844 96.703125 78.832031 C 96.773438 78.8125 96.722656 78.824219 96.785156 78.8125 C 96.84375 78.800781 96.902344 78.789062 96.964844 78.777344 C 97.203125 78.734375 97.445312 78.703125 97.6875 78.675781 C 98.5625 78.574219 99.445312 78.53125 100.324219 78.496094 C 100.453125 78.492188 100.578125 78.464844 100.695312 78.410156 C 100.71875 78.398438 100.882812 78.316406 100.808594 78.277344 C 100.113281 77.929688 99.394531 77.632812 98.65625 77.390625 C 98.070312 77.179688 97.464844 77.046875 96.84375 76.984375 C 95.75 76.90625 94.871094 77.578125 94.222656 78.378906 C 93.683594 79.078125 93.230469 79.824219 92.863281 80.621094 C 92.820312 80.714844 93.074219 80.675781 93.105469 80.667969 C 93.199219 80.652344 93.414062 80.613281 93.460938 80.511719 Z M 93.460938 80.511719 " fill-opacity="1" fill-rule="nonzero"/></g><g clip-path="url(#7cd6620153)"><path fill="#f4f6fc" d="M 112.238281 78.054688 C 111.828125 76.675781 110.90625 75.53125 109.523438 75.023438 C 109.347656 74.953125 109.167969 74.898438 108.980469 74.863281 C 108.664062 74.839844 108.351562 74.875 108.050781 74.980469 C 107.25 75.21875 106.523438 75.683594 105.859375 76.171875 C 105.011719 76.785156 104.25 77.484375 103.570312 78.277344 C 103.554688 78.296875 103.558594 78.3125 103.582031 78.320312 C 104.828125 78.894531 106.140625 79.691406 106.886719 80.863281 C 107.101562 81.199219 107.296875 81.597656 107.242188 82.003906 C 107.160156 82.59375 106.875 83.171875 106.617188 83.703125 C 106.230469 84.5 105.785156 85.265625 105.285156 86.003906 C 105.230469 86.089844 105.503906 86.054688 105.527344 86.050781 C 105.664062 86.039062 105.785156 85.988281 105.882812 85.894531 C 106.375 85.164062 106.816406 84.40625 107.203125 83.617188 C 107.480469 83.050781 107.796875 82.417969 107.855469 81.78125 C 107.898438 81.332031 107.621094 80.871094 107.367188 80.515625 C 106.953125 79.964844 106.457031 79.496094 105.882812 79.105469 C 105.515625 78.84375 105.132812 78.609375 104.730469 78.402344 C 104.625 78.347656 104.523438 78.296875 104.417969 78.246094 C 104.375 78.222656 104.328125 78.207031 104.285156 78.183594 C 104.199219 78.132812 104.195312 78.164062 104.234375 78.085938 C 104.347656 77.925781 104.480469 77.78125 104.632812 77.65625 C 105.191406 77.078125 105.796875 76.554688 106.449219 76.082031 C 106.957031 75.714844 107.546875 75.324219 108.132812 75.136719 C 108.292969 75.078125 108.457031 75.070312 108.621094 75.117188 C 108.757812 75.15625 108.890625 75.199219 109.023438 75.25 C 110.355469 75.765625 111.234375 76.878906 111.632812 78.214844 C 111.667969 78.335938 112.273438 78.171875 112.238281 78.054688 Z M 112.238281 78.054688 " fill-opacity="1" fill-rule="nonzero"/></g><path fill="#f4f6fc" d="M 111.53125 80.332031 C 111.285156 79.53125 110.953125 78.765625 110.535156 78.039062 C 110.242188 77.550781 109.882812 77.050781 109.394531 76.730469 C 108.984375 76.460938 108.550781 76.4375 108.074219 76.515625 C 107.410156 76.648438 106.765625 76.84375 106.140625 77.101562 C 105.308594 77.421875 104.492188 77.789062 103.695312 78.191406 C 103.601562 78.238281 103.488281 78.332031 103.671875 78.339844 C 104.5 78.371094 105.328125 78.414062 106.152344 78.5 C 106.640625 78.539062 107.117188 78.617188 107.589844 78.734375 C 107.902344 78.808594 108.144531 78.972656 108.324219 79.234375 C 108.695312 79.777344 108.976562 80.359375 109.164062 80.988281 C 109.476562 81.921875 109.585938 82.875 109.492188 83.855469 C 109.488281 83.917969 110.082031 83.867188 110.101562 83.695312 C 110.1875 82.789062 110.097656 81.902344 109.832031 81.03125 C 109.652344 80.367188 109.371094 79.746094 108.992188 79.164062 C 108.890625 78.992188 108.757812 78.84375 108.601562 78.714844 C 108.480469 78.640625 108.351562 78.582031 108.210938 78.546875 C 107.769531 78.421875 107.320312 78.339844 106.863281 78.296875 C 105.9375 78.191406 105 78.144531 104.066406 78.105469 L 104.042969 78.253906 C 104.6875 77.929688 105.34375 77.625 106.015625 77.351562 C 106.578125 77.109375 107.15625 76.910156 107.753906 76.761719 C 108.128906 76.648438 108.480469 76.703125 108.808594 76.921875 C 109.265625 77.214844 109.605469 77.671875 109.886719 78.128906 C 110.324219 78.875 110.671875 79.664062 110.925781 80.492188 C 110.964844 80.617188 111.570312 80.445312 111.53125 80.332031 Z M 111.53125 80.332031 " fill-opacity="1" fill-rule="nonzero"/></svg>