<svg xmlns="http://www.w3.org/2000/svg" xmlns:xlink="http://www.w3.org/1999/xlink" width="200" zoomAndPan="magnify" viewBox="0 0 150 112.499997" height="150" preserveAspectRatio="xMidYMid meet" version="1.0"><defs><clipPath id="5441073e73"><path d="M 46 35 L 104 35 L 104 100.800781 L 46 100.800781 Z M 46 35 " clip-rule="nonzero"/></clipPath><clipPath id="88b21379d9"><path d="M 46 35 L 105 35 L 105 100.800781 L 46 100.800781 Z M 46 35 " clip-rule="nonzero"/></clipPath><clipPath id="bfe89fe3ed"><path d="M 74 35 L 76 35 L 76 100.800781 L 74 100.800781 Z M 74 35 " clip-rule="nonzero"/></clipPath><clipPath id="5fec4d15b2"><path d="M 95 11.199219 L 100 11.199219 L 100 17 L 95 17 Z M 95 11.199219 " clip-rule="nonzero"/></clipPath><clipPath id="e5c93c6b4e"><path d="M 94 11.199219 L 100 11.199219 L 100 17 L 94 17 Z M 94 11.199219 " clip-rule="nonzero"/></clipPath><clipPath id="fc7ee25e9d"><path d="M 50 11.199219 L 56 11.199219 L 56 17 L 50 17 Z M 50 11.199219 " clip-rule="nonzero"/></clipPath></defs><path stroke-linecap="round" transform="matrix(0.207536, 0, 0, 0.207105, -105.692422, -205.934691)" fill="none" stroke-linejoin="round" d="M 967.534952 1207.27278 L 978.959952 1192.032933 L 1036.93195 1214.043949 L 1043.293812 1207.27278 " stroke="#000000" stroke-width="4.56" stroke-opacity="1" stroke-miterlimit="1.5"/><path stroke-linecap="round" transform="matrix(0.207137, 0.0128239, -0.0128505, 0.206708, -84.145416, -207.414943)" fill="none" stroke-linejoin="round" d="M 967.539386 1207.280815 L 978.964879 1192.039848 L 1036.942809 1214.049035 L 1043.293395 1207.28661 " stroke="#000000" stroke-width="4.56" stroke-opacity="1" stroke-miterlimit="1.5"/><path stroke-linecap="round" transform="matrix(0.150999, 0.142079, -0.142374, 0.150686, 128.715205, -243.348589)" fill="none" stroke-linejoin="round" d="M 967.537013 1207.289678 L 978.952039 1192.041975 L 1036.932673 1214.053887 L 1043.29593 1207.276406 " stroke="#000000" stroke-width="4.56" stroke-opacity="1" stroke-miterlimit="1.5"/><path stroke-linecap="round" transform="matrix(-0.207536, 0, 0, 0.207105, 256.70867, -205.833451)" fill="none" stroke-linejoin="round" d="M 967.537951 1207.274335 L 978.962951 1192.034488 L 1036.934949 1214.045504 L 1043.296811 1207.274335 " stroke="#000000" stroke-width="4.56" stroke-opacity="1" stroke-miterlimit="1.5"/><path stroke-linecap="round" transform="matrix(-0.207137, 0.0128239, 0.0128505, 0.206708, 234.236915, -206.866949)" fill="none" stroke-linejoin="round" d="M 967.52823 1207.27609 L 978.953723 1192.035123 L 1036.931653 1214.044309 L 1043.282239 1207.281885 " stroke="#000000" stroke-width="4.56" stroke-opacity="1" stroke-miterlimit="1.5"/><path stroke-linecap="round" transform="matrix(-0.150999, 0.142079, 0.142374, 0.150686, 22.093838, -242.581607)" fill="none" stroke-linejoin="round" d="M 967.534094 1207.283427 L 978.962059 1192.049447 L 1036.929754 1214.047636 L 1043.293011 1207.270155 " stroke="#000000" stroke-width="4.56" stroke-opacity="1" stroke-miterlimit="1.5"/><g clip-path="url(#5441073e73)"><path fill="#d52a3f" d="M 103.773438 67.984375 C 103.773438 69.050781 103.726562 70.113281 103.632812 71.175781 C 103.542969 72.238281 103.40625 73.292969 103.222656 74.339844 C 103.042969 75.386719 102.8125 76.417969 102.542969 77.441406 C 102.269531 78.460938 101.957031 79.464844 101.597656 80.449219 C 101.242188 81.4375 100.84375 82.398438 100.402344 83.339844 C 99.960938 84.28125 99.480469 85.195312 98.960938 86.082031 C 98.441406 86.96875 97.886719 87.824219 97.292969 88.648438 C 96.699219 89.476562 96.070312 90.265625 95.410156 91.019531 C 94.75 91.773438 94.058594 92.488281 93.335938 93.167969 C 92.613281 93.84375 91.863281 94.476562 91.085938 95.070312 C 90.308594 95.664062 89.507812 96.210938 88.683594 96.714844 C 87.859375 97.21875 87.015625 97.671875 86.148438 98.082031 C 85.285156 98.488281 84.40625 98.847656 83.511719 99.15625 C 82.617188 99.46875 81.710938 99.726562 80.792969 99.933594 C 79.878906 100.144531 78.953125 100.300781 78.023438 100.402344 C 77.09375 100.507812 76.160156 100.5625 75.226562 100.5625 C 74.289062 100.5625 73.359375 100.507812 72.425781 100.402344 C 71.496094 100.300781 70.574219 100.144531 69.65625 99.933594 C 68.738281 99.726562 67.832031 99.46875 66.9375 99.15625 C 66.042969 98.847656 65.164062 98.488281 64.300781 98.082031 C 63.4375 97.671875 62.59375 97.21875 61.769531 96.714844 C 60.945312 96.210938 60.144531 95.664062 59.367188 95.070312 C 58.589844 94.476562 57.839844 93.84375 57.117188 93.167969 C 56.394531 92.488281 55.703125 91.773438 55.039062 91.019531 C 54.378906 90.265625 53.753906 89.476562 53.160156 88.648438 C 52.566406 87.824219 52.007812 86.96875 51.492188 86.082031 C 50.972656 85.195312 50.492188 84.28125 50.050781 83.339844 C 49.609375 82.398438 49.210938 81.4375 48.851562 80.449219 C 48.496094 79.464844 48.179688 78.460938 47.910156 77.441406 C 47.636719 76.417969 47.410156 75.386719 47.226562 74.339844 C 47.046875 73.292969 46.910156 72.238281 46.816406 71.175781 C 46.726562 70.113281 46.679688 69.050781 46.679688 67.984375 C 46.679688 66.917969 46.726562 65.851562 46.816406 64.789062 C 46.910156 63.726562 47.046875 62.675781 47.226562 61.628906 C 47.410156 60.582031 47.636719 59.546875 47.910156 58.527344 C 48.179688 57.503906 48.496094 56.503906 48.851562 55.515625 C 49.210938 54.53125 49.609375 53.566406 50.050781 52.625 C 50.492188 51.683594 50.972656 50.769531 51.492188 49.882812 C 52.007812 48.996094 52.566406 48.140625 53.160156 47.316406 C 53.753906 46.492188 54.378906 45.703125 55.039062 44.949219 C 55.703125 44.191406 56.394531 43.476562 57.117188 42.800781 C 57.839844 42.125 58.589844 41.488281 59.367188 40.894531 C 60.144531 40.304688 60.945312 39.753906 61.769531 39.253906 C 62.59375 38.75 63.4375 38.292969 64.300781 37.886719 C 65.164062 37.476562 66.042969 37.117188 66.9375 36.808594 C 67.832031 36.5 68.738281 36.238281 69.65625 36.03125 C 70.574219 35.824219 71.496094 35.667969 72.425781 35.5625 C 73.359375 35.457031 74.289062 35.40625 75.226562 35.40625 C 76.160156 35.40625 77.09375 35.457031 78.023438 35.5625 C 78.953125 35.667969 79.878906 35.824219 80.792969 36.03125 C 81.710938 36.238281 82.617188 36.5 83.511719 36.808594 C 84.40625 37.117188 85.285156 37.476562 86.148438 37.886719 C 87.015625 38.292969 87.859375 38.75 88.683594 39.253906 C 89.507812 39.753906 90.308594 40.304688 91.085938 40.894531 C 91.863281 41.488281 92.613281 42.125 93.335938 42.800781 C 94.058594 43.476562 94.75 44.191406 95.410156 44.949219 C 96.070312 45.703125 96.699219 46.492188 97.292969 47.316406 C 97.886719 48.140625 98.441406 48.996094 98.960938 49.882812 C 99.480469 50.769531 99.960938 51.683594 100.402344 52.625 C 100.84375 53.566406 101.242188 54.53125 101.597656 55.515625 C 101.957031 56.503906 102.269531 57.503906 102.542969 58.527344 C 102.8125 59.546875 103.042969 60.582031 103.222656 61.628906 C 103.40625 62.675781 103.542969 63.726562 103.632812 64.789062 C 103.726562 65.851562 103.773438 66.917969 103.773438 67.984375 Z M 103.773438 67.984375 " fill-opacity="1" fill-rule="nonzero"/></g><g clip-path="url(#88b21379d9)"><path stroke-linecap="round" transform="matrix(0.207536, 0, 0, 0.190451, -108.620259, -188.543039)" fill="none" stroke-linejoin="round" d="M 1023.408781 1346.945436 C 1023.408781 1352.544803 1023.182916 1358.123659 1022.731186 1363.702515 C 1022.298279 1369.281371 1021.639506 1374.819206 1020.754868 1380.31602 C 1019.889053 1385.812834 1018.77855 1391.227606 1017.479827 1396.601357 C 1016.162281 1401.954598 1014.656515 1407.225796 1012.924884 1412.394442 C 1011.212075 1417.583599 1009.292223 1422.629182 1007.165328 1427.572213 C 1005.038434 1432.515243 1002.723318 1437.3147 1000.219982 1441.970584 C 997.716646 1446.626468 995.043911 1451.118267 992.182955 1455.445983 C 989.321999 1459.794209 986.291645 1463.93733 983.110714 1467.895856 C 979.929783 1471.854383 976.598275 1475.607804 973.116191 1479.176632 C 969.634107 1482.724948 966.020268 1486.047649 962.274674 1489.165245 C 958.529081 1492.282841 954.670555 1495.154311 950.699097 1497.800166 C 946.727639 1500.44602 942.66207 1502.825238 938.483569 1504.978841 C 934.32389 1507.111933 930.088922 1508.998899 925.778667 1510.619229 C 921.468411 1512.260069 917.101689 1513.613762 912.678501 1514.700818 C 908.274135 1515.808385 903.813303 1516.628805 899.333648 1517.162078 C 894.853994 1517.715862 890.355517 1518.003009 885.857041 1518.003009 C 881.339743 1518.003009 876.860088 1517.715862 872.361612 1517.162078 C 867.881957 1516.628805 863.439947 1515.808385 859.016759 1514.700818 C 854.593571 1513.613762 850.226849 1512.260069 845.916593 1510.619229 C 841.606338 1508.998899 837.37137 1507.111933 833.211691 1504.978841 C 829.052012 1502.825238 824.986443 1500.44602 821.014985 1497.800166 C 817.043527 1495.154311 813.185001 1492.282841 809.439408 1489.165245 C 805.693814 1486.047649 802.079976 1482.724948 798.597891 1479.176632 C 795.115807 1475.607804 791.784299 1471.854383 788.584546 1467.895856 C 785.403615 1463.93733 782.392083 1459.794209 779.531127 1455.445983 C 776.670171 1451.118267 773.978614 1446.626468 771.4941 1441.970584 C 768.990764 1437.3147 766.675648 1432.515243 764.548754 1427.572213 C 762.421859 1422.629182 760.502007 1417.583599 758.770376 1412.394442 C 757.057567 1407.225796 755.532979 1401.954598 754.234255 1396.601357 C 752.91671 1391.227606 751.825029 1385.812834 750.940392 1380.31602 C 750.074576 1374.819206 749.415804 1369.281371 748.964074 1363.702515 C 748.531166 1358.123659 748.305301 1352.544803 748.305301 1346.945436 C 748.305301 1341.346069 748.531166 1335.746703 748.964074 1330.167847 C 749.415804 1324.588991 750.074576 1319.071666 750.940392 1313.574852 C 751.825029 1308.078038 752.91671 1302.642755 754.234255 1297.289515 C 755.532979 1291.915764 757.057567 1286.665076 758.770376 1281.475919 C 760.502007 1276.307273 762.421859 1271.241179 764.548754 1266.298149 C 766.675648 1261.355118 768.990764 1256.555661 771.4941 1251.899777 C 773.978614 1247.243894 776.670171 1242.752094 779.531127 1238.424379 C 782.392083 1234.096663 785.403615 1229.953542 788.584546 1225.995016 C 791.784299 1222.015978 795.115807 1218.262557 798.597891 1214.71424 C 802.079976 1211.165924 805.693814 1207.822712 809.439408 1204.705116 C 813.185001 1201.608031 817.043527 1198.71605 821.014985 1196.090706 C 824.986443 1193.444852 829.052012 1191.045123 833.211691 1188.912031 C 837.37137 1186.758428 841.606338 1184.871462 845.916593 1183.251133 C 850.226849 1181.630803 854.593571 1180.2566 859.016759 1179.169543 C 863.439947 1178.082487 867.881957 1177.262067 872.361612 1176.708283 C 876.860088 1176.1545 881.339743 1175.887863 885.857041 1175.887863 C 890.355517 1175.887863 894.853994 1176.1545 899.333648 1176.708283 C 903.813303 1177.262067 908.274135 1178.082487 912.678501 1179.169543 C 917.101689 1180.2566 921.468411 1181.630803 925.778667 1183.251133 C 930.088922 1184.871462 934.32389 1186.758428 938.483569 1188.912031 C 942.66207 1191.045123 946.727639 1193.444852 950.699097 1196.090706 C 954.670555 1198.71605 958.529081 1201.608031 962.274674 1204.705116 C 966.020268 1207.822712 969.634107 1211.165924 973.116191 1214.71424 C 976.598275 1218.262557 979.929783 1222.015978 983.110714 1225.995016 C 986.291645 1229.953542 989.321999 1234.096663 992.182955 1238.424379 C 995.043911 1242.752094 997.716646 1247.243894 1000.219982 1251.899777 C 1002.723318 1256.555661 1005.038434 1261.355118 1007.165328 1266.298149 C 1009.292223 1271.241179 1011.212075 1276.307273 1012.924884 1281.475919 C 1014.656515 1286.665076 1016.162281 1291.915764 1017.479827 1297.289515 C 1018.77855 1302.642755 1019.889053 1308.078038 1020.754868 1313.574852 C 1021.639506 1319.071666 1022.298279 1324.588991 1022.731186 1330.167847 C 1023.182916 1335.746703 1023.408781 1341.346069 1023.408781 1346.945436 Z M 1023.408781 1346.945436 " stroke="#000000" stroke-width="2.46" stroke-opacity="1" stroke-miterlimit="1.5"/></g><g clip-path="url(#bfe89fe3ed)"><path stroke-linecap="round" transform="matrix(0.207536, 0, 0, 0.190451, -108.620259, -188.543039)" fill="none" stroke-linejoin="round" d="M 885.857041 1175.887863 L 885.857041 1518.003009 " stroke="#000000" stroke-width="2.46" stroke-opacity="1" stroke-miterlimit="1.5"/></g><path stroke-linecap="round" transform="matrix(0.207536, 0, 0, 0.207105, -106.570809, -197.302603)" fill-opacity="1" fill="#000000" fill-rule="nonzero" stroke-linejoin="round" d="M 847.052331 1292.26483 C 847.052331 1293.792586 846.901754 1295.320343 846.600601 1296.810378 C 846.31827 1298.319274 845.86654 1299.771586 845.283055 1301.186176 C 844.699571 1302.581904 843.984332 1303.93991 843.137339 1305.20361 C 842.290345 1306.467311 841.311597 1307.655566 840.238739 1308.730654 C 839.16588 1309.805742 837.980089 1310.767663 836.71901 1311.616417 C 835.439109 1312.465171 834.102742 1313.181897 832.691086 1313.766594 C 831.27943 1314.370152 829.811308 1314.80396 828.324364 1315.105739 C 826.818598 1315.407518 825.312831 1315.539546 823.788243 1315.539546 C 822.244833 1315.539546 820.739067 1315.407518 819.233301 1315.105739 C 817.746356 1314.80396 816.278234 1314.370152 814.866579 1313.766594 C 813.454923 1313.181897 812.118555 1312.465171 810.838654 1311.616417 C 809.577575 1310.767663 808.391784 1309.805742 807.318926 1308.730654 C 806.246067 1307.655566 805.267319 1306.467311 804.420326 1305.20361 C 803.573332 1303.93991 802.858093 1302.581904 802.274609 1301.186176 C 801.691125 1299.771586 801.239395 1298.319274 800.957064 1296.810378 C 800.65591 1295.320343 800.505334 1293.792586 800.505334 1292.26483 C 800.505334 1290.737073 800.65591 1289.228177 800.957064 1287.719281 C 801.239395 1286.229247 801.691125 1284.776934 802.274609 1283.362345 C 802.858093 1281.947755 803.573332 1280.60861 804.420326 1279.34491 C 805.267319 1278.062348 806.246067 1276.892954 807.318926 1275.817866 C 808.391784 1274.723917 809.577575 1273.761996 810.838654 1272.913242 C 812.118555 1272.064488 813.454923 1271.347762 814.866579 1270.763065 C 816.278234 1270.178368 817.746356 1269.744561 819.233301 1269.442781 C 820.739067 1269.141002 822.244833 1268.990113 823.788243 1268.990113 C 825.312831 1268.990113 826.818598 1269.141002 828.324364 1269.442781 C 829.811308 1269.744561 831.27943 1270.178368 832.691086 1270.763065 C 834.102742 1271.347762 835.439109 1272.064488 836.71901 1272.913242 C 837.980089 1273.761996 839.16588 1274.723917 840.238739 1275.817866 C 841.311597 1276.892954 842.290345 1278.062348 843.137339 1279.34491 C 843.984332 1280.60861 844.699571 1281.947755 845.283055 1283.362345 C 845.86654 1284.776934 846.31827 1286.229247 846.600601 1287.719281 C 846.901754 1289.228177 847.052331 1290.737073 847.052331 1292.26483 Z M 847.052331 1292.26483 " stroke="#000000" stroke-width="2.36" stroke-opacity="1" stroke-miterlimit="1.5"/><path stroke-linecap="round" transform="matrix(0.11623, 0.127533, -0.0911045, 0.0826858, 80.082054, -124.047415)" fill-opacity="1" fill="#000000" fill-rule="nonzero" stroke-linejoin="round" d="M 847.056796 1292.260835 C 847.067749 1295.361921 846.464928 1298.323112 845.281862 1301.18718 C 844.11401 1304.027783 842.422123 1306.542839 840.238177 1308.730269 C 838.054231 1310.9177 835.531919 1312.587694 832.688005 1313.761639 C 829.828876 1314.95905 826.868891 1315.556147 823.776071 1315.555009 C 820.683252 1315.553872 817.730183 1314.959249 814.884886 1313.773219 C 812.007613 1312.589269 809.513795 1310.908367 807.3075 1308.736752 C 805.133183 1306.563057 803.459666 1304.042115 802.271735 1301.197393 C 801.099018 1298.329204 800.515564 1295.35526 800.504612 1292.254174 C 800.510423 1289.174474 801.081265 1286.215363 802.264331 1283.351295 C 803.464161 1280.508612 805.124071 1277.995636 807.308017 1275.808205 C 809.491962 1273.620775 812.014274 1271.950781 814.873403 1270.75337 C 817.717317 1269.579425 820.694066 1269.003715 823.770122 1268.983466 C 826.862942 1268.984603 829.832774 1269.600613 832.693285 1270.763176 C 835.538581 1271.949206 838.064376 1273.628028 840.238693 1275.801723 C 842.429773 1277.996805 844.103291 1280.517747 845.291222 1283.362469 C 846.463939 1286.230657 847.062607 1289.181135 847.056796 1292.260835 Z M 847.056796 1292.260835 " stroke="#000000" stroke-width="3.27" stroke-opacity="1" stroke-miterlimit="1.5"/><path stroke-linecap="round" transform="matrix(-0.11623, 0.127533, 0.0911045, 0.0826858, 70.515476, -124.047415)" fill-opacity="1" fill="#000000" fill-rule="nonzero" stroke-linejoin="round" d="M 847.056304 1292.261593 C 847.067257 1295.362679 846.464437 1298.32387 845.281371 1301.187939 C 844.113519 1304.028541 842.421631 1306.543597 840.237685 1308.731028 C 838.053739 1310.918458 835.531428 1312.588453 832.687513 1313.762397 C 829.828385 1314.959808 826.868399 1315.556905 823.77558 1315.555768 C 820.68276 1315.55463 817.729691 1314.960007 814.884395 1313.773977 C 812.007121 1312.590027 809.513303 1310.909125 807.322223 1308.714044 C 805.132692 1306.563815 803.459175 1304.042873 802.286457 1301.174685 C 801.098526 1298.329963 800.515073 1295.356018 800.50412 1292.254932 C 800.509931 1289.175233 801.080773 1286.216122 802.26384 1283.352053 C 803.463669 1280.509371 805.123579 1277.996394 807.307525 1275.808964 C 809.491471 1273.621533 812.013783 1271.951539 814.872911 1270.754128 C 817.716826 1269.580184 820.693574 1269.004473 823.769631 1268.984224 C 826.86245 1268.985361 829.847497 1269.577905 832.692793 1270.763934 C 835.538089 1271.949964 838.063885 1273.628786 840.238202 1275.802481 C 842.429282 1277.997563 844.102799 1280.518505 845.29073 1283.363227 C 846.463448 1286.231416 847.062115 1289.181893 847.056304 1292.261593 Z M 847.056304 1292.261593 " stroke="#000000" stroke-width="3.27" stroke-opacity="1" stroke-miterlimit="1.5"/><path stroke-linecap="round" transform="matrix(0.152507, 0, 0, 0.152191, -70.864798, -139.303616)" fill-opacity="1" fill="#000000" fill-rule="nonzero" stroke-linejoin="round" d="M 847.050505 1292.264947 C 847.050505 1295.344963 846.461393 1298.322312 845.283169 1301.171326 C 844.104945 1304.020341 842.41445 1306.535687 840.237297 1308.717365 C 838.060144 1310.92471 835.550015 1312.593052 832.681296 1313.773725 C 829.83819 1314.954397 826.867017 1315.544734 823.767776 1315.544734 C 820.694148 1315.544734 817.722974 1314.954397 814.879869 1313.773725 C 812.01115 1312.593052 809.50102 1310.92471 807.323867 1308.717365 C 805.146714 1306.535687 803.456219 1304.020341 802.277995 1301.171326 C 801.099771 1298.322312 800.510659 1295.344963 800.510659 1292.264947 C 800.510659 1289.184931 801.099771 1286.207583 802.277995 1283.358568 C 803.456219 1280.509553 805.146714 1277.994207 807.323867 1275.812529 C 809.50102 1273.630851 812.01115 1271.936843 814.879869 1270.75617 C 817.722974 1269.575497 820.694148 1268.985161 823.767776 1268.985161 C 826.867017 1268.985161 829.83819 1269.575497 832.681296 1270.75617 C 835.550015 1271.936843 838.060144 1273.630851 840.237297 1275.812529 C 842.41445 1277.994207 844.104945 1280.509553 845.283169 1283.358568 C 846.461393 1286.207583 847.050505 1289.184931 847.050505 1292.264947 Z M 847.050505 1292.264947 " stroke="#000000" stroke-width="3.21" stroke-opacity="1" stroke-miterlimit="1.5"/><path stroke-linecap="round" transform="matrix(0.152507, 0, 0, 0.152191, -30.167922, -139.303616)" fill-opacity="1" fill="#000000" fill-rule="nonzero" stroke-linejoin="round" d="M 847.065869 1292.264947 C 847.065869 1295.344963 846.476757 1298.322312 845.27292 1301.171326 C 844.094696 1304.020341 842.429814 1306.535687 840.227048 1308.717365 C 838.049895 1310.92471 835.539766 1312.593052 832.69666 1313.773725 C 829.827941 1314.954397 826.856767 1315.544734 823.78314 1315.544734 C 820.683898 1315.544734 817.712725 1314.954397 814.869619 1313.773725 C 812.026514 1312.593052 809.490771 1310.92471 807.313618 1308.717365 C 805.136465 1306.535687 803.44597 1304.020341 802.267746 1301.171326 C 801.089522 1298.322312 800.50041 1295.344963 800.50041 1292.264947 C 800.50041 1289.184931 801.089522 1286.207583 802.267746 1283.358568 C 803.44597 1280.509553 805.136465 1277.994207 807.313618 1275.812529 C 809.490771 1273.630851 812.026514 1271.936843 814.869619 1270.75617 C 817.712725 1269.575497 820.683898 1268.985161 823.78314 1268.985161 C 826.856767 1268.985161 829.827941 1269.575497 832.69666 1270.75617 C 835.539766 1271.936843 838.049895 1273.630851 840.227048 1275.812529 C 842.429814 1277.994207 844.094696 1280.509553 845.27292 1283.358568 C 846.476757 1286.207583 847.065869 1289.184931 847.065869 1292.264947 Z M 847.065869 1292.264947 " stroke="#000000" stroke-width="3.21" stroke-opacity="1" stroke-miterlimit="1.5"/><path stroke-linecap="round" transform="matrix(0.207536, 0, 0, 0.207105, -84.172788, -197.302603)" fill-opacity="1" fill="#000000" fill-rule="nonzero" stroke-linejoin="round" d="M 847.05434 1292.26483 C 847.05434 1293.792586 846.903764 1295.320343 846.60261 1296.810378 C 846.320279 1298.319274 845.868549 1299.771586 845.285065 1301.186176 C 844.701581 1302.581904 843.986342 1303.93991 843.139348 1305.20361 C 842.292355 1306.467311 841.313607 1307.655566 840.240748 1308.730654 C 839.149068 1309.805742 837.982099 1310.767663 836.702198 1311.616417 C 835.441119 1312.465171 834.104751 1313.181897 832.693095 1313.766594 C 831.28144 1314.370152 829.813317 1314.80396 828.326373 1315.105739 C 826.820607 1315.407518 825.314841 1315.539546 823.771431 1315.539546 C 822.246842 1315.539546 820.741076 1315.407518 819.23531 1315.105739 C 817.729544 1314.80396 816.280244 1314.370152 814.868588 1313.766594 C 813.456932 1313.181897 812.120565 1312.465171 810.840664 1311.616417 C 809.579585 1310.767663 808.393794 1309.805742 807.320935 1308.730654 C 806.229255 1307.655566 805.269329 1306.467311 804.422335 1305.20361 C 803.575342 1303.93991 802.860103 1302.581904 802.276619 1301.186176 C 801.693134 1299.771586 801.241404 1298.319274 800.940251 1296.810378 C 800.65792 1295.320343 800.507343 1293.792586 800.507343 1292.26483 C 800.507343 1290.737073 800.65792 1289.228177 800.940251 1287.719281 C 801.241404 1286.229247 801.693134 1284.776934 802.276619 1283.362345 C 802.860103 1281.947755 803.575342 1280.60861 804.422335 1279.34491 C 805.269329 1278.062348 806.229255 1276.892954 807.320935 1275.817866 C 808.393794 1274.723917 809.579585 1273.761996 810.840664 1272.913242 C 812.120565 1272.064488 813.456932 1271.347762 814.868588 1270.763065 C 816.280244 1270.178368 817.729544 1269.744561 819.23531 1269.442781 C 820.741076 1269.141002 822.246842 1268.990113 823.771431 1268.990113 C 825.314841 1268.990113 826.820607 1269.141002 828.326373 1269.442781 C 829.813317 1269.744561 831.28144 1270.178368 832.693095 1270.763065 C 834.104751 1271.347762 835.441119 1272.064488 836.702198 1272.913242 C 837.982099 1273.761996 839.149068 1274.723917 840.240748 1275.817866 C 841.313607 1276.892954 842.292355 1278.062348 843.139348 1279.34491 C 843.986342 1280.60861 844.701581 1281.947755 845.285065 1283.362345 C 845.868549 1284.776934 846.320279 1286.229247 846.60261 1287.719281 C 846.903764 1289.228177 847.05434 1290.737073 847.05434 1292.26483 Z M 847.05434 1292.26483 " stroke="#000000" stroke-width="2.36" stroke-opacity="1" stroke-miterlimit="1.5"/><path stroke-linecap="round" transform="matrix(0.165085, 0, 0, 0.164743, -60.767967, -162.563777)" fill-opacity="1" fill="#000000" fill-rule="nonzero" stroke-linejoin="round" d="M 847.068716 1292.270452 C 847.068716 1295.352913 846.477164 1298.316818 845.294061 1301.185879 C 844.110958 1304.031228 842.430951 1306.544619 840.23038 1308.726054 C 838.05347 1310.907488 835.545291 1312.590986 832.682181 1313.776548 C 829.842734 1314.96211 826.861314 1315.554891 823.785246 1315.554891 C 820.685515 1315.554891 817.727758 1314.96211 814.864648 1313.776548 C 812.0252 1312.590986 809.49336 1310.907488 807.31645 1308.726054 C 805.13954 1306.544619 803.459534 1304.031228 802.27643 1301.185879 C 801.093327 1298.316818 800.501776 1295.352913 800.501776 1292.270452 C 800.501776 1289.18799 801.093327 1286.224085 802.27643 1283.355025 C 803.459534 1280.509675 805.13954 1277.996284 807.31645 1275.814849 C 809.49336 1273.633415 812.0252 1271.949917 814.864648 1270.764355 C 817.727758 1269.578793 820.685515 1268.986012 823.785246 1268.986012 C 826.861314 1268.986012 829.842734 1269.578793 832.682181 1270.764355 C 835.545291 1271.949917 838.05347 1273.633415 840.23038 1275.814849 C 842.430951 1277.996284 844.110958 1280.509675 845.294061 1283.355025 C 846.477164 1286.224085 847.068716 1289.18799 847.068716 1292.270452 Z M 847.068716 1292.270452 " stroke="#000000" stroke-width="2.97" stroke-opacity="1" stroke-miterlimit="1.5"/><path stroke-linecap="round" transform="matrix(0.231744, 0, 0, 0.237496, -130.871868, -243.622177)" fill-opacity="1" fill="#000000" fill-rule="evenodd" stroke-linejoin="round" d="M 891.139361 1123.689794 C 931.441741 1123.689794 966.350243 1157.242947 964.142124 1198.460694 C 962.827367 1223.395292 816.788128 1223.263711 818.136597 1198.460694 C 820.361572 1157.242947 850.853837 1123.689794 891.139361 1123.689794 Z M 891.139361 1123.689794 " stroke="#000000" stroke-width="2.09" stroke-opacity="1" stroke-miterlimit="1.5"/><path stroke-linecap="round" transform="matrix(0.255846, 0, 0, 0.255315, -150.996097, -264.185228)" fill="none" stroke-linejoin="round" d="M 915.377103 1132.18594 C 915.377103 1132.18594 922.53779 1096.384587 963.440736 1089.346714 " stroke="#000000" stroke-width="1.92" stroke-opacity="1" stroke-miterlimit="1.5"/><g clip-path="url(#5fec4d15b2)"><path fill="#000000" d="M 99.738281 13.792969 C 99.738281 14.097656 99.679688 14.390625 99.5625 14.667969 C 99.445312 14.949219 99.28125 15.199219 99.066406 15.410156 C 98.851562 15.625 98.605469 15.792969 98.324219 15.90625 C 98.042969 16.023438 97.75 16.082031 97.445312 16.082031 C 97.140625 16.082031 96.851562 16.023438 96.570312 15.90625 C 96.289062 15.792969 96.039062 15.625 95.824219 15.410156 C 95.609375 15.199219 95.445312 14.949219 95.328125 14.667969 C 95.210938 14.390625 95.152344 14.097656 95.152344 13.792969 C 95.152344 13.492188 95.210938 13.199219 95.328125 12.917969 C 95.445312 12.640625 95.609375 12.390625 95.824219 12.175781 C 96.039062 11.960938 96.289062 11.796875 96.570312 11.679688 C 96.851562 11.566406 97.140625 11.507812 97.445312 11.507812 C 97.75 11.507812 98.042969 11.566406 98.324219 11.679688 C 98.605469 11.796875 98.851562 11.960938 99.066406 12.175781 C 99.28125 12.390625 99.445312 12.640625 99.5625 12.917969 C 99.679688 13.199219 99.738281 13.492188 99.738281 13.792969 Z M 99.738281 13.792969 " fill-opacity="1" fill-rule="nonzero"/></g><g clip-path="url(#e5c93c6b4e)"><path stroke-linecap="round" transform="matrix(0.185671, 0, 0, 0.185286, -83.598458, -186.933022)" fill="none" stroke-linejoin="round" d="M 987.42832 1083.331545 C 987.42832 1084.975964 987.112742 1086.557136 986.481585 1088.053979 C 985.850428 1089.571904 984.966808 1090.92117 983.809687 1092.059614 C 982.652566 1093.21914 981.327136 1094.125678 979.81236 1094.737065 C 978.297583 1095.369534 976.71969 1095.685768 975.078682 1095.685768 C 973.437674 1095.685768 971.880821 1095.369534 970.366044 1094.737065 C 968.851267 1094.125678 967.504799 1093.21914 966.347678 1092.059614 C 965.190557 1090.92117 964.306937 1089.571904 963.67578 1088.053979 C 963.044623 1086.557136 962.729045 1084.975964 962.729045 1083.331545 C 962.729045 1081.708209 963.044623 1080.127037 963.67578 1078.609112 C 964.306937 1077.112269 965.190557 1075.763003 966.347678 1074.603477 C 967.504799 1073.443951 968.851267 1072.558494 970.366044 1071.926026 C 971.880821 1071.314639 973.437674 1070.998405 975.078682 1070.998405 C 976.71969 1070.998405 978.297583 1071.314639 979.81236 1071.926026 C 981.327136 1072.558494 982.652566 1073.443951 983.809687 1074.603477 C 984.966808 1075.763003 985.850428 1077.112269 986.481585 1078.609112 C 987.112742 1080.127037 987.42832 1081.708209 987.42832 1083.331545 Z M 987.42832 1083.331545 " stroke="#000000" stroke-width="2.64" stroke-opacity="1" stroke-miterlimit="1.5"/></g><path stroke-linecap="round" transform="matrix(-0.255846, 0, 0, 0.255315, 301.717659, -264.185228)" fill="none" stroke-linejoin="round" d="M 915.372829 1132.18594 C 915.372829 1132.18594 922.533516 1096.384587 963.436462 1089.346714 " stroke="#000000" stroke-width="1.92" stroke-opacity="1" stroke-miterlimit="1.5"/><g clip-path="url(#fc7ee25e9d)"><path stroke-linecap="round" transform="matrix(-0.185586, 0, 0, 0.185201, 233.965396, -186.895994)" fill-opacity="1" fill="#000000" fill-rule="nonzero" stroke-linejoin="round" d="M 987.435663 1083.330747 C 987.435663 1084.975916 987.11994 1086.55781 986.488495 1088.055335 C 985.85705 1089.573953 984.973027 1090.902744 983.815378 1092.062799 C 982.657729 1093.222854 981.310646 1094.108715 979.816226 1094.741472 C 978.300758 1095.374229 976.722145 1095.690608 975.080388 1095.690608 C 973.438631 1095.690608 971.881067 1095.374229 970.365599 1094.741472 C 968.850131 1094.108715 967.503048 1093.222854 966.345399 1092.062799 C 965.18775 1090.902744 964.303727 1089.573953 963.672282 1088.055335 C 963.061885 1086.55781 962.746162 1084.975916 962.746162 1083.330747 C 962.746162 1081.70667 963.061885 1080.124776 963.672282 1078.606158 C 964.303727 1077.108632 965.18775 1075.75875 966.345399 1074.619787 C 967.503048 1073.459731 968.850131 1072.552779 970.365599 1071.941114 C 971.881067 1071.308356 973.438631 1070.991978 975.080388 1070.991978 C 976.722145 1070.991978 978.300758 1071.308356 979.816226 1071.941114 C 981.310646 1072.552779 982.657729 1073.459731 983.815378 1074.619787 C 984.973027 1075.75875 985.85705 1077.108632 986.488495 1078.606158 C 987.11994 1080.124776 987.435663 1081.70667 987.435663 1083.330747 Z M 987.435663 1083.330747 " stroke="#000000" stroke-width="2.64" stroke-opacity="1" stroke-miterlimit="1.5"/></g><path stroke-linecap="round" transform="matrix(0.807152, 0, 0, 0.805478, -623.622325, -898.08531)" fill-opacity="1" fill="#ffffff" fill-rule="nonzero" stroke-linejoin="round" d="M 861.547718 1154.511254 C 861.547718 1155.132004 861.426729 1155.728506 861.189592 1156.300759 C 860.952454 1156.877863 860.613685 1157.382222 860.173286 1157.823536 C 859.732887 1158.26485 859.229574 1158.599473 858.653668 1158.837104 C 858.077762 1159.074735 857.482497 1159.195975 856.863035 1159.195975 C 856.238733 1159.195975 855.643468 1159.074735 855.067562 1158.837104 C 854.491656 1158.599473 853.988343 1158.26485 853.547944 1157.823536 C 853.107545 1157.382222 852.768776 1156.877863 852.531638 1156.300759 C 852.2945 1155.728506 852.173512 1155.132004 852.173512 1154.511254 C 852.173512 1153.890505 852.2945 1153.289153 852.531638 1152.7169 C 852.768776 1152.144646 853.107545 1151.635437 853.547944 1151.194123 C 853.988343 1150.757658 854.491656 1150.418186 855.067562 1150.180555 C 855.643468 1149.942924 856.238733 1149.821684 856.863035 1149.821684 C 857.482497 1149.821684 858.077762 1149.942924 858.653668 1150.180555 C 859.229574 1150.418186 859.732887 1150.757658 860.173286 1151.194123 C 860.613685 1151.635437 860.952454 1152.144646 861.189592 1152.7169 C 861.426729 1153.289153 861.547718 1153.890505 861.547718 1154.511254 Z M 861.547718 1154.511254 " stroke="#000000" stroke-width="0.61" stroke-opacity="1" stroke-miterlimit="1.5"/><path fill="#000000" d="M 70.773438 31.273438 C 70.773438 31.589844 70.714844 31.898438 70.59375 32.191406 C 70.46875 32.484375 70.296875 32.746094 70.070312 32.96875 C 69.84375 33.195312 69.585938 33.367188 69.289062 33.488281 C 68.996094 33.613281 68.691406 33.671875 68.371094 33.671875 C 68.050781 33.671875 67.746094 33.613281 67.449219 33.488281 C 67.15625 33.367188 66.894531 33.195312 66.671875 32.96875 C 66.445312 32.746094 66.273438 32.484375 66.148438 32.191406 C 66.027344 31.898438 65.964844 31.589844 65.964844 31.273438 C 65.964844 30.953125 66.027344 30.648438 66.148438 30.355469 C 66.273438 30.0625 66.445312 29.800781 66.671875 29.578125 C 66.894531 29.351562 67.15625 29.179688 67.449219 29.058594 C 67.746094 28.933594 68.050781 28.875 68.371094 28.875 C 68.691406 28.875 68.996094 28.933594 69.289062 29.058594 C 69.585938 29.179688 69.84375 29.351562 70.070312 29.578125 C 70.296875 29.800781 70.46875 30.0625 70.59375 30.355469 C 70.714844 30.648438 70.773438 30.953125 70.773438 31.273438 Z M 70.773438 31.273438 " fill-opacity="1" fill-rule="nonzero"/><path fill="#ffffff" d="M 68.03125 30.433594 C 68.03125 30.59375 67.976562 30.726562 67.867188 30.839844 C 67.753906 30.949219 67.617188 31.007812 67.460938 31.007812 C 67.300781 31.007812 67.167969 30.949219 67.054688 30.839844 C 66.945312 30.726562 66.886719 30.59375 66.886719 30.433594 C 66.886719 30.277344 66.945312 30.140625 67.054688 30.03125 C 67.167969 29.917969 67.300781 29.863281 67.460938 29.863281 C 67.617188 29.863281 67.753906 29.917969 67.867188 30.03125 C 67.976562 30.140625 68.03125 30.277344 68.03125 30.433594 Z M 68.03125 30.433594 " fill-opacity="1" fill-rule="nonzero"/><path stroke-linecap="round" transform="matrix(0.807152, 0, 0, 0.805478, -608.571212, -898.517453)" fill-opacity="1" fill="#ffffff" fill-rule="nonzero" stroke-linejoin="round" d="M 861.547307 1154.509454 C 861.547307 1155.130203 861.426318 1155.726705 861.18918 1156.303808 C 860.952043 1156.876062 860.613274 1157.385271 860.172875 1157.821735 C 859.737316 1158.26305 859.229163 1158.602522 858.653257 1158.840153 C 858.08219 1159.077784 857.482086 1159.194174 856.862624 1159.194174 C 856.238322 1159.194174 855.643057 1159.077784 855.067151 1158.840153 C 854.491245 1158.602522 853.987932 1158.26305 853.547533 1157.821735 C 853.107134 1157.385271 852.768365 1156.876062 852.531227 1156.303808 C 852.294089 1155.726705 852.173101 1155.130203 852.173101 1154.509454 C 852.173101 1153.888704 852.294089 1153.292202 852.531227 1152.715099 C 852.768365 1152.142845 853.107134 1151.633637 853.547533 1151.197172 C 853.987932 1150.755858 854.491245 1150.416385 855.067151 1150.178754 C 855.643057 1149.941124 856.238322 1149.824733 856.862624 1149.824733 C 857.482086 1149.824733 858.08219 1149.941124 858.653257 1150.178754 C 859.229163 1150.416385 859.737316 1150.755858 860.172875 1151.197172 C 860.613274 1151.633637 860.952043 1152.142845 861.18918 1152.715099 C 861.426318 1153.292202 861.547307 1153.888704 861.547307 1154.509454 Z M 861.547307 1154.509454 " stroke="#000000" stroke-width="0.61" stroke-opacity="1" stroke-miterlimit="1.5"/><path fill="#000000" d="M 85.824219 30.839844 C 85.824219 31.160156 85.765625 31.464844 85.644531 31.757812 C 85.519531 32.054688 85.347656 32.3125 85.121094 32.539062 C 84.898438 32.761719 84.636719 32.9375 84.34375 33.058594 C 84.046875 33.179688 83.742188 33.238281 83.421875 33.238281 C 83.101562 33.238281 82.796875 33.179688 82.5 33.058594 C 82.207031 32.9375 81.949219 32.761719 81.722656 32.539062 C 81.496094 32.3125 81.324219 32.054688 81.199219 31.757812 C 81.078125 31.464844 81.019531 31.160156 81.019531 30.839844 C 81.019531 30.523438 81.078125 30.214844 81.199219 29.921875 C 81.324219 29.628906 81.496094 29.371094 81.722656 29.144531 C 81.949219 28.917969 82.207031 28.746094 82.503906 28.625 C 82.796875 28.503906 83.101562 28.441406 83.421875 28.441406 C 83.742188 28.441406 84.046875 28.503906 84.34375 28.625 C 84.636719 28.746094 84.898438 28.917969 85.121094 29.144531 C 85.347656 29.371094 85.519531 29.628906 85.644531 29.921875 C 85.765625 30.214844 85.824219 30.523438 85.824219 30.839844 Z M 85.824219 30.839844 " fill-opacity="1" fill-rule="nonzero"/><path fill="#ffffff" d="M 83.085938 30.003906 C 83.085938 30.160156 83.027344 30.292969 82.917969 30.40625 C 82.804688 30.519531 82.667969 30.574219 82.511719 30.574219 C 82.355469 30.574219 82.21875 30.519531 82.105469 30.40625 C 81.996094 30.292969 81.9375 30.160156 81.9375 30.003906 C 81.9375 29.84375 81.996094 29.710938 82.105469 29.597656 C 82.21875 29.488281 82.355469 29.429688 82.511719 29.429688 C 82.667969 29.429688 82.804688 29.488281 82.917969 29.597656 C 83.027344 29.710938 83.085938 29.84375 83.085938 30.003906 Z M 83.085938 30.003906 " fill-opacity="1" fill-rule="nonzero"/></svg>