<svg xmlns="http://www.w3.org/2000/svg" xmlns:xlink="http://www.w3.org/1999/xlink" width="200" zoomAndPan="magnify" viewBox="0 0 150 112.499997" height="150" preserveAspectRatio="xMidYMid meet" version="1.0"><defs><clipPath id="9d172d1c3a"><path d="M 58 11.199219 L 91 11.199219 L 91 45 L 58 45 Z M 58 11.199219 " clip-rule="nonzero"/></clipPath><clipPath id="3cbc235eb6"><path d="M 24.304688 33 L 125.855469 33 L 125.855469 91 L 24.304688 91 Z M 24.304688 33 " clip-rule="nonzero"/></clipPath><clipPath id="557220d647"><path d="M 73 33 L 125.855469 33 L 125.855469 91 L 73 91 Z M 73 33 " clip-rule="nonzero"/></clipPath><clipPath id="0e00ab2bca"><path d="M 37 81 L 58 81 L 58 100.800781 L 37 100.800781 Z M 37 81 " clip-rule="nonzero"/></clipPath><clipPath id="128876c91c"><path d="M 35 81 L 56 81 L 56 100.800781 L 35 100.800781 Z M 35 81 " clip-rule="nonzero"/></clipPath><clipPath id="5d3a239695"><path d="M 92 81 L 112 81 L 112 100.800781 L 92 100.800781 Z M 92 81 " clip-rule="nonzero"/></clipPath><clipPath id="3dc3410e0e"><path d="M 90 81 L 111 81 L 111 100.800781 L 90 100.800781 Z M 90 81 " clip-rule="nonzero"/></clipPath></defs><g clip-path="url(#9d172d1c3a)"><path fill="#f4b006" d="M 82.496094 11.1875 C 78.242188 11.1875 74.765625 14.289062 74.578125 18.769531 L 74.539062 18.769531 C 74.351562 14.289062 70.875 11.1875 66.621094 11.1875 C 62.246094 11.1875 58.6875 14.734375 58.6875 19.101562 C 58.6875 23.472656 62.300781 27.023438 66.675781 27.023438 C 69.558594 27.023438 71.867188 25.472656 73.523438 23.167969 L 73.523438 44.941406 L 75.648438 44.941406 L 75.648438 22.96875 C 76.828125 25.382812 79.5625 27.019531 82.527344 27.019531 C 86.902344 27.019531 90.449219 23.472656 90.449219 19.101562 C 90.449219 14.734375 86.871094 11.1875 82.496094 11.1875 Z M 66.621094 25.578125 C 63.042969 25.578125 60.128906 22.667969 60.128906 19.09375 C 60.128906 15.519531 63.042969 12.613281 66.621094 12.613281 C 70.203125 12.613281 73.117188 15.519531 73.117188 19.09375 C 73.117188 22.667969 70.203125 25.578125 66.621094 25.578125 Z M 82.496094 25.578125 C 78.914062 25.578125 76 22.667969 76 19.09375 C 76 15.519531 78.914062 12.613281 82.496094 12.613281 C 86.074219 12.613281 88.988281 15.519531 88.988281 19.09375 C 88.988281 22.667969 86.074219 25.578125 82.496094 25.578125 Z M 82.496094 25.578125 " fill-opacity="1" fill-rule="nonzero"/></g><g clip-path="url(#3cbc235eb6)"><path fill="#e44a3e" d="M 107.945312 61.296875 C 108.5625 55.566406 108.675781 33.859375 74.859375 33.859375 C 40.996094 33.859375 40.925781 55.621094 41.488281 61.316406 C 31.878906 62.214844 24.355469 70.285156 24.355469 80.113281 L 24.355469 88.449219 C 24.355469 89.234375 24.410156 90.007812 24.503906 90.765625 L 125.214844 90.765625 C 125.308594 90.007812 125.359375 89.234375 125.359375 88.449219 L 125.359375 80.113281 C 125.359375 70.1875 117.6875 62.058594 107.945312 61.296875 Z M 107.945312 61.296875 " fill-opacity="1" fill-rule="nonzero"/></g><g clip-path="url(#557220d647)"><path fill="#ce3632" d="M 108.402344 61.296875 C 109.023438 55.566406 109.136719 33.859375 75.316406 33.859375 C 74.671875 33.859375 74.042969 33.871094 73.421875 33.886719 C 105.339844 34.683594 105.222656 55.675781 104.613281 61.296875 C 114.359375 62.058594 122.03125 70.1875 122.03125 80.113281 L 122.03125 88.449219 C 122.03125 89.234375 121.976562 90.007812 121.882812 90.765625 L 125.675781 90.765625 C 125.765625 90.007812 125.820312 89.234375 125.820312 88.449219 L 125.820312 80.113281 C 125.820312 70.1875 118.148438 62.058594 108.402344 61.296875 Z M 108.402344 61.296875 " fill-opacity="1" fill-rule="nonzero"/></g><path fill="#f2c033" d="M 73.050781 39.417969 C 45.417969 40.394531 49.535156 61.210938 49.535156 61.210938 L 73.050781 61.210938 Z M 73.050781 39.417969 " fill-opacity="1" fill-rule="nonzero"/><path fill="#f4b006" d="M 72.695312 40.933594 L 72.695312 39.417969 C 45.367188 40.394531 49.535156 61.234375 49.535156 61.234375 L 50.804688 61.234375 C 50.457031 56.601562 51.160156 42.308594 72.695312 40.933594 Z M 72.695312 40.933594 " fill-opacity="1" fill-rule="nonzero"/><path fill="#f2c033" d="M 76.355469 39.402344 L 76.355469 61.210938 L 99.652344 61.210938 C 99.652344 61.210938 103.75 40.179688 76.355469 39.402344 Z M 76.355469 39.402344 " fill-opacity="1" fill-rule="nonzero"/><path fill="#f4b006" d="M 78.464844 59.070312 L 78.464844 39.511719 C 77.765625 39.460938 77.046875 39.421875 76.300781 39.402344 L 76.300781 61.234375 L 99.652344 61.234375 C 99.652344 61.234375 99.824219 60.402344 99.886719 59.070312 Z M 78.464844 59.070312 " fill-opacity="1" fill-rule="nonzero"/><g clip-path="url(#0e00ab2bca)"><path fill="#1c1a16" d="M 57.046875 90.90625 C 57.046875 96.363281 52.617188 100.785156 47.148438 100.785156 C 41.6875 100.785156 37.257812 96.363281 37.257812 90.90625 C 37.257812 85.449219 41.6875 81.027344 47.148438 81.027344 C 52.617188 81.027344 57.046875 85.449219 57.046875 90.90625 Z M 57.046875 90.90625 " fill-opacity="1" fill-rule="nonzero"/></g><g clip-path="url(#128876c91c)"><path fill="#282520" d="M 55.6875 90.90625 C 55.6875 96.363281 51.257812 100.785156 45.792969 100.785156 C 40.328125 100.785156 35.898438 96.363281 35.898438 90.90625 C 35.898438 85.449219 40.328125 81.027344 45.792969 81.027344 C 51.257812 81.027344 55.6875 85.449219 55.6875 90.90625 Z M 55.6875 90.90625 " fill-opacity="1" fill-rule="nonzero"/></g><path fill="#3f3c38" d="M 51.953125 90.6875 C 51.953125 94.0625 49.210938 96.796875 45.832031 96.796875 C 42.453125 96.796875 39.710938 94.0625 39.710938 90.6875 C 39.710938 87.3125 42.453125 84.578125 45.832031 84.578125 C 49.210938 84.578125 51.953125 87.3125 51.953125 90.6875 Z M 51.953125 90.6875 " fill-opacity="1" fill-rule="nonzero"/><path fill="#2b2925" d="M 41.34375 90.6875 C 41.34375 87.589844 43.65625 85.035156 46.648438 84.636719 C 46.378906 84.601562 46.109375 84.578125 45.832031 84.578125 C 42.453125 84.578125 39.710938 87.3125 39.710938 90.6875 C 39.710938 94.0625 42.453125 96.796875 45.832031 96.796875 C 46.109375 96.796875 46.378906 96.773438 46.648438 96.738281 C 43.65625 96.339844 41.34375 93.785156 41.34375 90.6875 Z M 41.34375 90.6875 " fill-opacity="0.4" fill-rule="nonzero"/><g clip-path="url(#5d3a239695)"><path fill="#1c1a16" d="M 111.875 90.90625 C 111.875 96.363281 107.445312 100.785156 101.980469 100.785156 C 96.515625 100.785156 92.085938 96.363281 92.085938 90.90625 C 92.085938 85.449219 96.515625 81.027344 101.980469 81.027344 C 107.445312 81.027344 111.875 85.449219 111.875 90.90625 Z M 111.875 90.90625 " fill-opacity="1" fill-rule="nonzero"/></g><g clip-path="url(#3dc3410e0e)"><path fill="#282520" d="M 110.519531 90.90625 C 110.519531 96.363281 106.089844 100.785156 100.625 100.785156 C 95.160156 100.785156 90.730469 96.363281 90.730469 90.90625 C 90.730469 85.449219 95.160156 81.027344 100.625 81.027344 C 106.089844 81.027344 110.519531 85.449219 110.519531 90.90625 Z M 110.519531 90.90625 " fill-opacity="1" fill-rule="nonzero"/></g><path fill="#3f3c38" d="M 106.785156 90.6875 C 106.785156 94.0625 104.042969 96.796875 100.664062 96.796875 C 97.285156 96.796875 94.542969 94.0625 94.542969 90.6875 C 94.542969 87.3125 97.28125 84.578125 100.664062 84.578125 C 104.042969 84.578125 106.785156 87.3125 106.785156 90.6875 Z M 106.785156 90.6875 " fill-opacity="1" fill-rule="nonzero"/><path fill="#2b2925" d="M 96.175781 90.6875 C 96.175781 87.589844 98.488281 85.035156 101.480469 84.636719 C 101.210938 84.601562 100.941406 84.578125 100.664062 84.578125 C 97.285156 84.578125 94.542969 87.3125 94.542969 90.6875 C 94.542969 94.0625 97.28125 96.796875 100.664062 96.796875 C 100.941406 96.796875 101.210938 96.773438 101.480469 96.738281 C 98.488281 96.339844 96.175781 93.785156 96.175781 90.6875 Z M 96.175781 90.6875 " fill-opacity="0.4" fill-rule="nonzero"/></svg>