<svg xmlns="http://www.w3.org/2000/svg" xmlns:xlink="http://www.w3.org/1999/xlink" width="200" zoomAndPan="magnify" viewBox="0 0 150 112.499997" height="150" preserveAspectRatio="xMidYMid meet" version="1.0"><defs><clipPath id="c9991be4ec"><path d="M 30.199219 32 L 34 32 L 34 38 L 30.199219 38 Z M 30.199219 32 " clip-rule="nonzero"/></clipPath><clipPath id="6a3b783aed"><path d="M 39 12.257812 L 76 12.257812 L 76 42 L 39 42 Z M 39 12.257812 " clip-rule="nonzero"/></clipPath><clipPath id="264baefd9e"><path d="M 42 79 L 118 79 L 118 99.621094 L 42 99.621094 Z M 42 79 " clip-rule="nonzero"/></clipPath><clipPath id="01ad6ecc36"><path d="M 97 41 L 119.800781 41 L 119.800781 76 L 97 76 Z M 97 41 " clip-rule="nonzero"/></clipPath></defs><path fill="#d0987f" d="M 52.335938 17.742188 C 50.511719 18.808594 49.042969 20.703125 47.402344 22 C 45.445312 23.546875 43.386719 24.960938 41.238281 26.226562 C 38.980469 27.558594 36.601562 28.746094 34.65625 30.5 C 32.710938 32.257812 31.210938 34.730469 31.359375 37.347656 C 31.421875 38.511719 31.804688 39.632812 32.226562 40.71875 C 32.664062 41.847656 33.15625 42.972656 33.894531 43.929688 C 35.457031 45.949219 38.066406 47.035156 40.625 46.992188 C 43.035156 46.949219 45.363281 45.972656 47.230469 44.476562 C 48.503906 43.457031 51.515625 41.730469 52.875 43.640625 C 54.519531 45.945312 56.03125 48.34375 57.394531 50.824219 C 58.402344 52.664062 59.339844 54.582031 59.707031 56.648438 C 59.925781 57.894531 59.933594 59.167969 60.082031 60.421875 C 60.59375 64.835938 62.878906 69.019531 66.320312 71.839844 C 69.347656 74.320312 73.171875 75.722656 77.054688 76.222656 C 80.941406 76.726562 84.894531 76.363281 88.738281 75.605469 C 92.722656 74.820312 103.894531 72.179688 103.132812 56.234375 C 103.058594 54.609375 102.859375 52.964844 102.242188 51.464844 C 100.730469 47.789062 97.238281 43.832031 93.277344 43.4375 C 91.570312 43.269531 88.117188 43.039062 86.398438 43.023438 C 81.804688 42.976562 74.523438 42.84375 70.296875 41.039062 C 69.390625 40.878906 65.96875 36.339844 62.859375 31.5 C 61.683594 29.671875 60.671875 27.699219 59.222656 26.0625 C 58.65625 25.421875 57.28125 24.734375 56.917969 24.039062 C 56.476562 23.1875 56.863281 21.5 56.515625 20.480469 C 56.113281 19.289062 55.339844 18.199219 54.261719 17.554688 C 53.992188 17.394531 53.6875 17.257812 53.375 17.292969 C 53.195312 17.3125 53.027344 17.386719 52.863281 17.464844 C 52.683594 17.546875 52.507812 17.640625 52.335938 17.742188 Z M 52.335938 17.742188 " fill-opacity="1" fill-rule="nonzero"/><path fill="#cf8a71" d="M 43.789062 36.992188 C 42.914062 34.820312 41.910156 32.65625 40.519531 30.757812 C 39.785156 29.75 38.890625 28.929688 38.007812 28.097656 C 36.824219 28.8125 35.679688 29.578125 34.65625 30.5 C 32.710938 32.257812 31.210938 34.730469 31.359375 37.347656 C 31.421875 38.511719 31.804688 39.632812 32.226562 40.71875 C 32.664062 41.847656 33.15625 42.972656 33.894531 43.929688 C 35.457031 45.949219 38.066406 47.035156 40.625 46.992188 C 42.582031 46.957031 44.488281 46.304688 46.136719 45.261719 C 45.75 42.421875 44.847656 39.625 43.789062 36.992188 Z M 43.789062 36.992188 " fill-opacity="1" fill-rule="nonzero"/><path fill="#dba58d" d="M 56.101562 86.421875 C 55.660156 87.644531 55.25 89.125 56.050781 90.152344 C 56.464844 90.683594 59.523438 92.121094 60.371094 92.082031 C 61.695312 92.023438 62.84375 91.070312 63.496094 89.917969 C 64.152344 88.769531 66.148438 82.601562 67.222656 81.535156 C 70.460938 78.316406 70.746094 76.597656 72.195312 74.851562 C 73.640625 73.101562 74.964844 71.074219 75.035156 68.804688 C 75.191406 63.746094 69.894531 60.484375 65.78125 64.375 C 64.296875 65.777344 63.316406 67.792969 62.640625 69.664062 C 61.394531 73.125 60.648438 73.488281 59.207031 78.359375 C 58.035156 82.316406 57.507812 82.542969 56.101562 86.421875 Z M 56.101562 86.421875 " fill-opacity="1" fill-rule="nonzero"/><path fill="#dba58d" d="M 105.386719 86.421875 C 105.828125 87.644531 106.238281 89.125 105.441406 90.152344 C 105.023438 90.683594 101.96875 92.121094 101.117188 92.082031 C 99.796875 92.023438 98.648438 91.070312 97.992188 89.917969 C 97.335938 88.769531 95.339844 82.601562 94.265625 81.535156 C 91.027344 78.316406 90.742188 76.597656 89.296875 74.851562 C 87.847656 73.101562 86.527344 71.074219 86.453125 68.804688 C 86.296875 63.746094 91.59375 60.484375 95.707031 64.375 C 97.191406 65.777344 98.171875 67.792969 98.847656 69.664062 C 100.09375 73.125 100.839844 73.488281 102.28125 78.359375 C 103.453125 82.316406 103.980469 82.542969 105.386719 86.421875 Z M 105.386719 86.421875 " fill-opacity="1" fill-rule="nonzero"/><path fill="#e3b7b2" d="M 55.066406 23.214844 C 54.230469 23.363281 53.34375 23.234375 52.585938 22.847656 C 52.207031 22.65625 51.832031 22.359375 51.753906 21.941406 C 51.699219 21.617188 51.828125 21.296875 51.964844 21 C 52.121094 20.667969 52.289062 20.335938 52.472656 20.015625 C 52.628906 19.738281 52.804688 19.453125 53.085938 19.300781 C 53.476562 19.089844 53.988281 19.203125 54.339844 19.480469 C 54.691406 19.757812 54.910156 20.167969 55.078125 20.582031 C 55.246094 21 55.375 21.441406 55.457031 21.886719 C 55.546875 22.378906 55.570312 23.046875 55.152344 23.324219 Z M 55.066406 23.214844 " fill-opacity="1" fill-rule="nonzero"/><path fill="#f4abc5" d="M 71.59375 41.570312 C 70.628906 44.5 70.074219 47.558594 69.953125 50.636719 C 69.863281 52.863281 70.035156 55.214844 71.246094 57.082031 C 72.214844 58.578125 73.738281 59.605469 75.261719 60.527344 C 76.800781 61.464844 78.398438 62.339844 80.128906 62.847656 C 84.027344 63.988281 88.238281 63.152344 92.074219 61.824219 C 93.757812 61.238281 95.574219 60.402344 96.242188 58.753906 C 96.507812 58.089844 96.558594 57.363281 96.601562 56.648438 C 96.875 52.292969 97.085938 47.660156 94.941406 43.859375 C 94.765625 43.546875 94.566406 43.234375 94.273438 43.03125 C 94.039062 42.871094 93.765625 42.789062 93.492188 42.714844 C 92.550781 42.457031 91.582031 42.28125 90.601562 42.230469 C 89.535156 42.179688 88.460938 42.285156 87.390625 42.234375 C 85.40625 42.140625 83.476562 41.515625 81.496094 41.386719 C 79.253906 41.242188 77.042969 41.121094 74.796875 41.121094 Z M 71.59375 41.570312 " fill-opacity="1" fill-rule="nonzero"/><path fill="#fce8e9" d="M 72.527344 42.578125 C 71.578125 45.757812 71.472656 49.195312 72.261719 52.421875 C 72.644531 53.984375 73.3125 55.425781 74.394531 56.628906 C 75.371094 57.71875 76.609375 58.570312 77.859375 59.320312 C 79.308594 60.191406 80.789062 60.871094 82.492188 61.023438 C 83.324219 61.097656 84.160156 61.054688 84.992188 61.007812 C 85.867188 60.957031 86.738281 60.898438 87.601562 60.777344 C 89.0625 60.578125 90.527344 60.144531 91.71875 59.246094 C 92.976562 58.296875 93.753906 56.964844 94.042969 55.417969 C 94.367188 53.675781 94.296875 51.855469 94.25 50.089844 C 94.199219 48.148438 94.0625 46.210938 93.851562 44.285156 C 93.796875 43.785156 93.464844 43.359375 92.921875 43.359375 C 92.464844 43.359375 91.941406 43.785156 91.996094 44.285156 C 92.339844 47.378906 92.546875 50.542969 92.390625 53.65625 C 92.355469 54.359375 92.300781 54.882812 92.113281 55.554688 C 92.027344 55.859375 91.941406 56.105469 91.828125 56.332031 C 91.765625 56.457031 91.695312 56.582031 91.621094 56.703125 C 91.574219 56.78125 91.523438 56.855469 91.472656 56.925781 C 91.457031 56.949219 91.335938 57.105469 91.402344 57.023438 C 90.980469 57.542969 90.585938 57.835938 90.015625 58.148438 C 89.460938 58.453125 88.941406 58.628906 88.273438 58.785156 C 86.824219 59.125 85.285156 59.179688 83.804688 59.210938 C 83.074219 59.226562 82.34375 59.203125 81.632812 59.027344 C 80.949219 58.863281 80.328125 58.585938 79.710938 58.25 C 78.539062 57.621094 77.375 56.898438 76.425781 56.039062 C 75.429688 55.140625 74.730469 54.136719 74.304688 52.847656 C 73.28125 49.707031 73.375 46.210938 74.3125 43.070312 C 74.457031 42.589844 74.140625 42.0625 73.667969 41.929688 C 73.175781 41.796875 72.671875 42.097656 72.527344 42.578125 Z M 72.527344 42.578125 " fill-opacity="1" fill-rule="nonzero"/><path fill="#fce8e9" d="M 76.175781 42.1875 C 76.148438 42.1875 76.117188 42.1875 76.085938 42.1875 C 75.960938 42.183594 75.839844 42.210938 75.730469 42.269531 C 75.617188 42.304688 75.515625 42.367188 75.433594 42.460938 C 75.34375 42.542969 75.277344 42.640625 75.242188 42.757812 C 75.183594 42.867188 75.15625 42.984375 75.160156 43.113281 C 75.171875 43.195312 75.183594 43.277344 75.195312 43.359375 C 75.238281 43.515625 75.316406 43.652344 75.433594 43.765625 C 75.496094 43.816406 75.558594 43.863281 75.621094 43.910156 C 75.765625 43.996094 75.921875 44.039062 76.085938 44.039062 C 76.117188 44.039062 76.148438 44.039062 76.175781 44.039062 C 76.304688 44.042969 76.421875 44.015625 76.535156 43.957031 C 76.648438 43.921875 76.746094 43.855469 76.832031 43.765625 C 76.921875 43.683594 76.984375 43.585938 77.023438 43.46875 C 77.082031 43.359375 77.109375 43.238281 77.101562 43.113281 C 77.09375 43.03125 77.082031 42.949219 77.070312 42.867188 C 77.027344 42.710938 76.945312 42.574219 76.832031 42.460938 C 76.769531 42.410156 76.707031 42.363281 76.644531 42.316406 C 76.5 42.230469 76.34375 42.1875 76.175781 42.1875 Z M 76.175781 42.1875 " fill-opacity="1" fill-rule="nonzero"/><path fill="#fce8e9" d="M 76.476562 48.402344 C 76.476562 48.371094 76.476562 48.34375 76.476562 48.3125 C 76.480469 48.183594 76.453125 48.066406 76.394531 47.957031 C 76.359375 47.839844 76.292969 47.742188 76.203125 47.660156 C 76.121094 47.570312 76.019531 47.503906 75.90625 47.46875 C 75.796875 47.410156 75.675781 47.382812 75.550781 47.386719 C 75.46875 47.398438 75.386719 47.410156 75.304688 47.421875 C 75.144531 47.464844 75.011719 47.542969 74.894531 47.660156 C 74.847656 47.71875 74.796875 47.78125 74.75 47.84375 C 74.664062 47.988281 74.625 48.144531 74.625 48.3125 C 74.625 48.34375 74.625 48.371094 74.625 48.402344 C 74.617188 48.53125 74.644531 48.648438 74.703125 48.757812 C 74.742188 48.871094 74.804688 48.972656 74.894531 49.054688 C 74.976562 49.144531 75.078125 49.210938 75.191406 49.246094 C 75.304688 49.304688 75.421875 49.332031 75.550781 49.328125 C 75.632812 49.316406 75.714844 49.304688 75.796875 49.292969 C 75.953125 49.25 76.089844 49.171875 76.203125 49.054688 C 76.253906 48.992188 76.300781 48.929688 76.347656 48.867188 C 76.433594 48.726562 76.476562 48.570312 76.476562 48.402344 Z M 76.476562 48.402344 " fill-opacity="1" fill-rule="nonzero"/><path fill="#fce8e9" d="M 77.640625 52.617188 C 77.640625 52.585938 77.640625 52.554688 77.640625 52.527344 C 77.648438 52.398438 77.621094 52.28125 77.5625 52.171875 C 77.523438 52.054688 77.460938 51.957031 77.371094 51.871094 C 77.285156 51.78125 77.1875 51.71875 77.074219 51.679688 C 76.960938 51.625 76.84375 51.597656 76.714844 51.601562 C 76.632812 51.613281 76.550781 51.625 76.46875 51.632812 C 76.3125 51.679688 76.175781 51.757812 76.0625 51.871094 C 76.011719 51.933594 75.964844 51.996094 75.917969 52.058594 C 75.832031 52.203125 75.789062 52.359375 75.789062 52.527344 C 75.789062 52.554688 75.789062 52.585938 75.789062 52.617188 C 75.785156 52.742188 75.8125 52.863281 75.871094 52.972656 C 75.90625 53.085938 75.972656 53.1875 76.0625 53.269531 C 76.144531 53.359375 76.246094 53.421875 76.359375 53.460938 C 76.46875 53.519531 76.589844 53.546875 76.714844 53.539062 C 76.796875 53.53125 76.878906 53.519531 76.960938 53.507812 C 77.121094 53.464844 77.253906 53.382812 77.371094 53.269531 C 77.417969 53.207031 77.46875 53.144531 77.515625 53.082031 C 77.597656 52.9375 77.640625 52.78125 77.640625 52.617188 Z M 77.640625 52.617188 " fill-opacity="1" fill-rule="nonzero"/><path fill="#fce8e9" d="M 80.128906 56.589844 C 80.1875 56.589844 80.246094 56.589844 80.308594 56.589844 C 80.433594 56.59375 80.554688 56.566406 80.664062 56.507812 C 80.777344 56.472656 80.878906 56.40625 80.960938 56.316406 C 81.050781 56.234375 81.117188 56.136719 81.152344 56.019531 C 81.210938 55.910156 81.238281 55.792969 81.234375 55.664062 C 81.222656 55.582031 81.210938 55.5 81.199219 55.417969 C 81.15625 55.261719 81.078125 55.125 80.960938 55.011719 C 80.898438 54.960938 80.835938 54.914062 80.773438 54.867188 C 80.628906 54.78125 80.472656 54.738281 80.308594 54.738281 C 80.246094 54.738281 80.1875 54.738281 80.128906 54.738281 C 80 54.734375 79.882812 54.761719 79.769531 54.820312 C 79.65625 54.855469 79.558594 54.921875 79.472656 55.011719 C 79.382812 55.09375 79.320312 55.191406 79.28125 55.308594 C 79.222656 55.417969 79.195312 55.535156 79.203125 55.664062 C 79.210938 55.746094 79.222656 55.828125 79.234375 55.910156 C 79.277344 56.066406 79.359375 56.203125 79.472656 56.316406 C 79.535156 56.367188 79.597656 56.414062 79.660156 56.460938 C 79.804688 56.546875 79.960938 56.589844 80.128906 56.589844 Z M 80.128906 56.589844 " fill-opacity="1" fill-rule="nonzero"/><path fill="#fce8e9" d="M 84.4375 57.125 C 84.9375 57.125 85.363281 56.703125 85.363281 56.203125 C 85.363281 55.699219 84.9375 55.277344 84.4375 55.277344 C 83.9375 55.277344 83.511719 55.703125 83.511719 56.203125 C 83.511719 56.703125 83.933594 57.125 84.4375 57.125 Z M 84.4375 57.125 " fill-opacity="1" fill-rule="nonzero"/><path fill="#fce8e9" d="M 89.492188 55.304688 C 89.492188 55.277344 89.492188 55.246094 89.492188 55.214844 C 89.496094 55.089844 89.46875 54.96875 89.410156 54.859375 C 89.375 54.746094 89.3125 54.644531 89.21875 54.5625 C 89.136719 54.472656 89.039062 54.40625 88.921875 54.371094 C 88.8125 54.3125 88.691406 54.285156 88.566406 54.289062 C 88.484375 54.300781 88.402344 54.3125 88.320312 54.324219 C 88.164062 54.367188 88.027344 54.445312 87.910156 54.5625 C 87.863281 54.625 87.8125 54.6875 87.765625 54.75 C 87.683594 54.894531 87.640625 55.046875 87.640625 55.214844 C 87.640625 55.246094 87.640625 55.273438 87.640625 55.304688 C 87.636719 55.433594 87.660156 55.550781 87.71875 55.660156 C 87.757812 55.777344 87.820312 55.875 87.910156 55.960938 C 87.996094 56.050781 88.09375 56.113281 88.210938 56.148438 C 88.320312 56.207031 88.4375 56.234375 88.566406 56.230469 C 88.648438 56.21875 88.730469 56.207031 88.8125 56.195312 C 88.96875 56.152344 89.105469 56.074219 89.21875 55.960938 C 89.269531 55.898438 89.316406 55.835938 89.367188 55.773438 C 89.449219 55.628906 89.492188 55.472656 89.492188 55.304688 Z M 89.492188 55.304688 " fill-opacity="1" fill-rule="nonzero"/><path fill="#fce8e9" d="M 89.910156 52.375 C 90.414062 52.375 90.839844 51.949219 90.839844 51.449219 C 90.839844 50.949219 90.414062 50.527344 89.910156 50.527344 C 89.410156 50.527344 88.984375 50.949219 88.984375 51.449219 C 88.984375 51.953125 89.410156 52.375 89.910156 52.375 Z M 89.910156 52.375 " fill-opacity="1" fill-rule="nonzero"/><path fill="#fce8e9" d="M 90.839844 47.238281 C 90.839844 47.207031 90.839844 47.175781 90.839844 47.148438 C 90.84375 47.019531 90.816406 46.902344 90.757812 46.789062 C 90.722656 46.675781 90.65625 46.578125 90.566406 46.492188 C 90.484375 46.402344 90.382812 46.339844 90.269531 46.300781 C 90.160156 46.246094 90.039062 46.21875 89.910156 46.222656 C 89.828125 46.234375 89.746094 46.246094 89.664062 46.253906 C 89.507812 46.300781 89.371094 46.378906 89.257812 46.492188 C 89.207031 46.554688 89.160156 46.617188 89.113281 46.679688 C 89.027344 46.824219 88.988281 46.980469 88.984375 47.148438 C 88.984375 47.175781 88.984375 47.207031 88.984375 47.238281 C 88.980469 47.363281 89.007812 47.484375 89.066406 47.59375 C 89.101562 47.707031 89.167969 47.808594 89.257812 47.890625 C 89.339844 47.980469 89.441406 48.042969 89.554688 48.082031 C 89.667969 48.140625 89.785156 48.167969 89.914062 48.160156 C 89.996094 48.152344 90.078125 48.140625 90.160156 48.128906 C 90.316406 48.085938 90.453125 48.003906 90.566406 47.890625 C 90.617188 47.828125 90.664062 47.765625 90.710938 47.703125 C 90.796875 47.558594 90.835938 47.402344 90.839844 47.238281 Z M 90.839844 47.238281 " fill-opacity="1" fill-rule="nonzero"/><path fill="#fce8e9" d="M 90.269531 44.484375 C 90.773438 44.484375 91.199219 44.0625 91.199219 43.5625 C 91.199219 43.058594 90.773438 42.636719 90.269531 42.636719 C 89.769531 42.636719 89.34375 43.0625 89.34375 43.5625 C 89.34375 44.0625 89.769531 44.484375 90.269531 44.484375 Z M 90.269531 44.484375 " fill-opacity="1" fill-rule="nonzero"/><g clip-path="url(#c9991be4ec)"><path fill="#cf8a71" d="M 33.234375 32.460938 C 32.921875 32.65625 32.585938 32.816406 32.238281 32.929688 C 31.679688 33.109375 31.046875 33.195312 30.640625 33.617188 C 30.292969 33.984375 30.195312 34.53125 30.269531 35.03125 C 30.34375 35.53125 30.574219 35.992188 30.808594 36.4375 C 30.929688 36.671875 31.074219 36.921875 31.320312 37.023438 C 31.570312 37.125 31.851562 37.042969 32.105469 36.960938 C 32.425781 36.855469 32.757812 36.742188 32.984375 36.496094 C 33.171875 36.292969 33.269531 36.023438 33.34375 35.757812 C 33.5625 34.976562 33.648438 34.152344 33.570312 33.34375 Z M 33.234375 32.460938 " fill-opacity="1" fill-rule="nonzero"/></g><path fill="#74402d" d="M 33 34.042969 C 33.207031 34.191406 33.328125 34.429688 33.4375 34.65625 C 33.507812 34.792969 33.578125 34.9375 33.597656 35.089844 C 33.621094 35.234375 33.59375 35.382812 33.546875 35.519531 C 33.417969 35.910156 33.109375 36.226562 32.734375 36.398438 C 32.542969 36.484375 32.328125 36.53125 32.128906 36.476562 C 31.839844 36.394531 31.65625 36.117188 31.511719 35.855469 C 31.414062 35.683594 31.324219 35.496094 31.335938 35.300781 C 31.351562 35.066406 31.527344 34.886719 31.65625 34.691406 C 32.101562 34.015625 32.789062 33.898438 33 34.042969 Z M 33 34.042969 " fill-opacity="1" fill-rule="nonzero"/><path fill="#f3af9d" d="M 50.019531 35.472656 C 49.136719 35.09375 48.074219 35.164062 47.246094 35.652344 C 46.417969 36.140625 45.84375 37.035156 45.746094 37.988281 C 45.703125 38.410156 45.761719 38.875 46.046875 39.1875 C 46.199219 39.355469 46.398438 39.464844 46.605469 39.558594 C 47.710938 40.042969 49.089844 39.957031 50.046875 39.214844 C 51.003906 38.472656 51.546875 37.378906 50.824219 36.28125 Z M 50.019531 35.472656 " fill-opacity="1" fill-rule="nonzero"/><path fill="#502a1a" d="M 46.074219 32.121094 C 45.703125 32.121094 45.34375 32.054688 45 31.925781 C 43.671875 31.425781 43.074219 30.160156 43.007812 30.015625 C 42.96875 29.921875 43.011719 29.8125 43.105469 29.769531 C 43.199219 29.730469 43.308594 29.769531 43.351562 29.863281 C 43.558594 30.328125 44.167969 31.214844 45.132812 31.578125 C 45.875 31.855469 46.707031 31.789062 47.605469 31.375 C 48.195312 31.105469 48.671875 30.570312 48.914062 29.910156 C 48.949219 29.816406 49.058594 29.765625 49.15625 29.800781 C 49.25 29.835938 49.300781 29.945312 49.265625 30.039062 C 48.988281 30.792969 48.441406 31.402344 47.761719 31.714844 C 47.175781 31.984375 46.613281 32.121094 46.074219 32.121094 Z M 46.074219 32.121094 " fill-opacity="1" fill-rule="nonzero"/><path fill="#502a1a" d="M 35.460938 45.59375 C 35.363281 45.59375 35.285156 45.523438 35.273438 45.425781 C 35.265625 45.320312 35.34375 45.230469 35.445312 45.222656 C 35.710938 45.199219 35.976562 45.117188 36.222656 45.03125 C 36.957031 44.777344 37.535156 44.523438 38.039062 44.230469 C 38.699219 43.847656 39.300781 43.351562 39.882812 42.871094 C 40.054688 42.730469 40.226562 42.59375 40.398438 42.453125 C 40.738281 42.179688 41.085938 41.898438 41.417969 41.609375 C 42.710938 40.488281 43.175781 39.78125 43.515625 39.261719 C 43.816406 38.804688 44.03125 38.476562 44.605469 38.144531 C 44.695312 38.09375 44.808594 38.121094 44.859375 38.210938 C 44.910156 38.300781 44.882812 38.414062 44.792969 38.46875 C 44.296875 38.753906 44.109375 39.039062 43.828125 39.46875 C 43.476562 40 42.992188 40.734375 41.664062 41.890625 C 41.324219 42.183594 40.972656 42.46875 40.632812 42.742188 C 40.460938 42.882812 40.289062 43.019531 40.121094 43.160156 C 39.527344 43.648438 38.914062 44.15625 38.230469 44.550781 C 37.703125 44.859375 37.101562 45.125 36.34375 45.382812 C 36.074219 45.476562 35.785156 45.566406 35.476562 45.59375 C 35.472656 45.59375 35.464844 45.59375 35.460938 45.59375 Z M 35.460938 45.59375 " fill-opacity="1" fill-rule="nonzero"/><g clip-path="url(#6a3b783aed)"><path fill="#cc7156" d="M 74.855469 38.980469 C 74.527344 39.671875 73.871094 39.980469 73.34375 40.480469 C 72.894531 40.910156 72.601562 41.320312 71.984375 41.566406 C 71.535156 41.742188 71.019531 41.796875 70.5625 41.644531 C 70.160156 41.507812 69.828125 41.230469 69.511719 40.949219 C 67.726562 39.355469 66.191406 37.484375 64.972656 35.425781 C 64.054688 33.875 63 32.472656 61.980469 30.988281 C 61.417969 30.164062 60.847656 29.347656 60.269531 28.539062 C 59.804688 27.886719 59.339844 27.238281 58.851562 26.601562 C 58.625 26.300781 58.390625 25.910156 58.082031 25.679688 C 56.871094 24.769531 56.523438 24.679688 56.546875 23.886719 C 56.578125 22.734375 56.484375 20.761719 56.011719 19.707031 C 55.542969 18.652344 54.53125 17.292969 53.375 17.292969 C 53.375 17.292969 52.824219 17.398438 51.53125 18.347656 C 50.238281 19.296875 49.445312 21.414062 48.695312 22.945312 C 48.226562 23.894531 46.09375 25.007812 45.578125 25.277344 C 43.90625 26.148438 42.078125 27.046875 40.222656 26.71875 C 40.386719 24.835938 39.671875 22.90625 40.140625 21.074219 C 40.328125 20.328125 40.703125 19.644531 41.113281 18.992188 C 42.328125 17.050781 43.695312 14.855469 45.863281 14.101562 C 49.574219 12.8125 48.160156 15.710938 49.089844 15.664062 C 50.019531 15.613281 52.882812 12.328125 54.742188 12.871094 C 56.101562 13.269531 57.191406 14.269531 58.167969 15.292969 C 58.792969 15.945312 59.839844 17.117188 58.476562 17.738281 C 57.113281 18.355469 62.554688 20.253906 64.394531 21.550781 C 65.230469 22.140625 66.09375 22.757812 66.59375 23.652344 C 67.089844 24.542969 67.402344 25.660156 65.550781 26.625 C 64.3125 27.273438 69.101562 28.34375 70.117188 29.671875 C 70.925781 30.730469 71.789062 31.605469 71.453125 32.894531 C 71.332031 33.363281 69.933594 33.921875 70.777344 34.957031 C 70.925781 35.140625 72.332031 34.382812 74.308594 36.414062 C 74.957031 37.078125 75.253906 38.140625 74.855469 38.980469 Z M 74.855469 38.980469 " fill-opacity="1" fill-rule="nonzero"/></g><g clip-path="url(#264baefd9e)"><path fill="#74402d" d="M 46.667969 80.90625 C 48.15625 83.421875 50.589844 85.265625 53.226562 86.53125 C 55.863281 87.792969 58.714844 88.527344 61.546875 89.253906 C 64.617188 90.042969 67.710938 90.835938 70.875 91.03125 C 73.980469 91.226562 77.203125 91.476562 80.308594 91.273438 C 84.582031 90.996094 88.757812 90.429688 93.015625 89.980469 C 97.273438 89.53125 101.558594 88.539062 105.21875 86.316406 C 107.832031 84.730469 110.039062 82.574219 112.394531 80.621094 C 113.050781 80.074219 113.914062 79.507812 114.703125 79.839844 C 115.097656 80.003906 115.371094 80.355469 115.621094 80.699219 C 116.15625 81.449219 116.65625 82.226562 117.109375 83.027344 C 117.265625 83.304688 117.421875 83.605469 117.382812 83.921875 C 117.347656 84.25 117.109375 84.519531 116.882812 84.757812 C 111.296875 90.703125 104.285156 95.496094 96.378906 97.523438 C 92.441406 98.535156 88.367188 98.847656 84.3125 99.15625 C 81.734375 99.351562 79.148438 99.546875 76.5625 99.425781 C 73.039062 99.265625 69.574219 98.515625 66.125 97.769531 C 64.296875 97.371094 62.464844 96.976562 60.683594 96.40625 C 58.652344 95.757812 56.699219 94.886719 54.792969 93.925781 C 50.640625 91.835938 45.648438 89.460938 43.316406 85.445312 C 42.539062 84.113281 42.699219 82.320312 44.113281 81.03125 C 45.523438 79.742188 46.667969 80.90625 46.667969 80.90625 Z M 46.667969 80.90625 " fill-opacity="1" fill-rule="nonzero"/></g><g clip-path="url(#01ad6ecc36)"><path fill="#cc7156" d="M 117.683594 68.492188 C 116.679688 67.195312 114.765625 63.476562 116.21875 64.023438 C 117.667969 64.570312 117.496094 61.992188 117.117188 60.777344 C 116.007812 57.1875 112.207031 52.851562 111.476562 51.121094 C 110.746094 49.390625 113.289062 52.25 113.449219 49.628906 C 113.511719 48.65625 112.933594 47.773438 112.355469 46.992188 C 110.773438 44.84375 108.195312 42.148438 105.535156 41.953125 C 102.523438 41.734375 100.628906 42.484375 97.589844 45.285156 C 97.589844 45.285156 100.085938 50.320312 101.085938 49.214844 C 102.179688 48.007812 104.167969 49.792969 104.167969 49.792969 C 105.574219 51.289062 103.664062 53.835938 104.246094 55.800781 C 104.578125 56.90625 105.617188 57.625 106.304688 58.550781 C 108.390625 61.355469 106.949219 65.300781 107.230469 68.785156 C 107.324219 69.953125 107.691406 71.199219 108.640625 71.886719 C 109.589844 72.574219 111.199219 73.457031 111.585938 71.222656 C 111.972656 68.988281 114.222656 74.539062 116.179688 74.984375 C 117.582031 75.300781 119.148438 74.304688 119.453125 72.902344 C 119.796875 71.300781 118.6875 69.789062 117.683594 68.492188 Z M 117.683594 68.492188 " fill-opacity="1" fill-rule="nonzero"/></g></svg>