<svg xmlns="http://www.w3.org/2000/svg" xmlns:xlink="http://www.w3.org/1999/xlink" width="128" zoomAndPan="magnify" viewBox="0 0 96 95.999999" height="128" preserveAspectRatio="xMidYMid meet" version="1.0"><defs><clipPath id="b512f967da"><path d="M 20.59375 9.601562 L 75.34375 9.601562 L 75.34375 29 L 20.59375 29 Z M 20.59375 9.601562 " clip-rule="nonzero"/></clipPath><clipPath id="ed22452250"><path d="M 45 61 L 51 61 L 51 86.101562 L 45 86.101562 Z M 45 61 " clip-rule="nonzero"/></clipPath></defs><path fill="#ffd13e" d="M 69.867188 23.28125 L 65.890625 60.28125 C 65.816406 60.972656 65.230469 61.5 64.53125 61.5 L 31.402344 61.5 C 30.703125 61.5 30.117188 60.972656 30.042969 60.28125 L 26.066406 23.28125 L 47.96875 12.359375 Z M 69.867188 23.28125 " fill-opacity="1" fill-rule="nonzero"/><path fill="#8c531b" d="M 52.074219 54.675781 L 43.859375 54.675781 C 43.105469 54.675781 42.492188 54.0625 42.492188 53.308594 C 42.492188 52.554688 43.105469 51.945312 43.859375 51.945312 L 52.074219 51.945312 C 52.828125 51.945312 53.441406 52.554688 53.441406 53.308594 C 53.441406 54.0625 52.828125 54.675781 52.074219 54.675781 Z M 52.074219 54.675781 " fill-opacity="1" fill-rule="nonzero"/><g clip-path="url(#b512f967da)"><path fill="#f44040" d="M 75.34375 23.28125 L 72.890625 28.167969 L 47.96875 15.730469 L 23.042969 28.167969 L 20.59375 23.28125 L 47.96875 9.628906 Z M 75.34375 23.28125 " fill-opacity="1" fill-rule="nonzero"/></g><g clip-path="url(#ed22452250)"><path fill="#6b3c12" d="M 45.230469 61.5 L 50.703125 61.5 L 50.703125 86.070312 L 45.230469 86.070312 Z M 45.230469 61.5 " fill-opacity="1" fill-rule="nonzero"/></g><path fill="#8c531b" d="M 41.125 61.5 L 54.8125 61.5 L 54.8125 65.59375 C 54.8125 66.347656 54.199219 66.960938 53.441406 66.960938 L 42.492188 66.960938 C 41.738281 66.960938 41.125 66.347656 41.125 65.59375 Z M 41.125 61.5 " fill-opacity="1" fill-rule="nonzero"/><path fill="#6b3c12" d="M 56.179688 36.929688 C 56.179688 37.46875 56.125 38 56.023438 38.527344 C 55.917969 39.054688 55.761719 39.566406 55.554688 40.0625 C 55.347656 40.5625 55.09375 41.03125 54.796875 41.480469 C 54.496094 41.925781 54.15625 42.339844 53.773438 42.722656 C 53.394531 43.101562 52.976562 43.441406 52.53125 43.738281 C 52.082031 44.039062 51.609375 44.289062 51.109375 44.496094 C 50.613281 44.703125 50.097656 44.859375 49.570312 44.960938 C 49.039062 45.066406 48.507812 45.121094 47.96875 45.121094 C 47.429688 45.121094 46.894531 45.066406 46.363281 44.960938 C 45.835938 44.859375 45.324219 44.703125 44.824219 44.496094 C 44.324219 44.289062 43.851562 44.039062 43.40625 43.738281 C 42.957031 43.441406 42.542969 43.101562 42.160156 42.722656 C 41.777344 42.339844 41.4375 41.925781 41.136719 41.480469 C 40.839844 41.03125 40.585938 40.5625 40.378906 40.0625 C 40.171875 39.566406 40.015625 39.054688 39.914062 38.527344 C 39.808594 38 39.753906 37.46875 39.753906 36.929688 C 39.753906 36.390625 39.808594 35.859375 39.914062 35.332031 C 40.015625 34.804688 40.171875 34.292969 40.378906 33.796875 C 40.585938 33.300781 40.839844 32.828125 41.136719 32.378906 C 41.4375 31.933594 41.777344 31.519531 42.160156 31.140625 C 42.542969 30.757812 42.957031 30.417969 43.40625 30.121094 C 43.851562 29.820312 44.324219 29.570312 44.824219 29.363281 C 45.324219 29.15625 45.835938 29.003906 46.363281 28.898438 C 46.894531 28.792969 47.429688 28.738281 47.96875 28.738281 C 48.507812 28.738281 49.039062 28.792969 49.570312 28.898438 C 50.097656 29.003906 50.613281 29.15625 51.109375 29.363281 C 51.609375 29.570312 52.082031 29.820312 52.53125 30.121094 C 52.976562 30.417969 53.394531 30.757812 53.773438 31.140625 C 54.15625 31.519531 54.496094 31.933594 54.796875 32.378906 C 55.09375 32.828125 55.347656 33.300781 55.554688 33.796875 C 55.761719 34.292969 55.917969 34.804688 56.023438 35.332031 C 56.125 35.859375 56.179688 36.390625 56.179688 36.929688 Z M 56.179688 36.929688 " fill-opacity="1" fill-rule="nonzero"/></svg>