<svg xmlns="http://www.w3.org/2000/svg" xmlns:xlink="http://www.w3.org/1999/xlink" width="128" zoomAndPan="magnify" viewBox="0 0 96 95.999999" height="128" preserveAspectRatio="xMidYMid meet" version="1.0"><defs><clipPath id="c53e616db2"><path d="M 9.601562 12.042969 L 65 12.042969 L 65 59 L 9.601562 59 Z M 9.601562 12.042969 " clip-rule="nonzero"/></clipPath><clipPath id="267483c5eb"><path d="M 9.601562 56 L 86.101562 56 L 86.101562 84.042969 L 9.601562 84.042969 Z M 9.601562 56 " clip-rule="nonzero"/></clipPath></defs><g clip-path="url(#c53e616db2)"><path fill="#000000" d="M 43.871094 36.90625 C 47.898438 34.460938 51.777344 34.769531 54.324219 35.457031 C 57.203125 36.234375 60.199219 35.929688 62.753906 34.597656 C 63.6875 34.109375 64.378906 33.589844 64.875 33.136719 C 63.417969 33.949219 60.996094 35 58.199219 35 C 58.003906 35 57.8125 34.996094 57.621094 34.984375 C 56.425781 34.921875 55.230469 34.585938 54.058594 33.984375 C 53.273438 33.582031 51.714844 32.988281 50.074219 33.527344 C 49.5625 33.851562 48.882812 34.089844 48 34.089844 C 47.890625 34.089844 47.777344 34.085938 47.664062 34.078125 C 46.003906 33.96875 45.125 32.707031 45.007812 31.578125 C 44.90625 30.570312 45.367188 29.230469 47.011719 28.773438 C 47.539062 28.628906 48.074219 28.667969 48.523438 28.882812 C 49.113281 29.171875 49.410156 29.6875 49.359375 30.339844 C 49.292969 31.140625 48.914062 31.507812 48.601562 31.671875 C 48.148438 31.914062 47.542969 31.886719 47.027344 31.59375 C 46.910156 31.523438 46.867188 31.371094 46.933594 31.25 C 47 31.128906 47.152344 31.085938 47.273438 31.15625 C 47.636719 31.359375 48.066406 31.390625 48.367188 31.230469 C 48.652344 31.074219 48.820312 30.753906 48.859375 30.300781 C 48.894531 29.851562 48.710938 29.535156 48.304688 29.335938 C 47.964844 29.171875 47.554688 29.144531 47.144531 29.257812 C 45.800781 29.632812 45.421875 30.710938 45.503906 31.527344 C 45.601562 32.453125 46.324219 33.488281 47.695312 33.578125 C 48.628906 33.636719 49.316406 33.417969 49.820312 33.101562 C 49.835938 33.089844 49.851562 33.078125 49.871094 33.070312 C 50.800781 32.460938 51.074219 31.523438 51.089844 31.460938 C 51.089844 31.460938 51.089844 31.457031 51.089844 31.453125 C 51.277344 30.859375 51.375 30.242188 51.375 29.617188 C 51.375 26.316406 48.703125 23.628906 45.417969 23.628906 C 44.933594 23.628906 44.453125 23.6875 43.984375 23.804688 C 43.914062 23.824219 43.84375 23.8125 43.785156 23.773438 C 43.726562 23.734375 43.6875 23.675781 43.675781 23.605469 C 43.273438 21.359375 41.328125 19.726562 39.050781 19.726562 C 37.824219 19.726562 36.664062 20.199219 35.78125 21.0625 C 35.707031 21.132812 35.597656 21.152344 35.503906 21.109375 C 35.410156 21.066406 35.351562 20.972656 35.359375 20.867188 C 35.363281 20.808594 35.363281 20.746094 35.363281 20.6875 C 35.363281 18.582031 33.660156 16.867188 31.566406 16.867188 C 31.171875 16.867188 30.785156 16.929688 30.414062 17.046875 C 30.332031 17.074219 30.242188 17.054688 30.175781 17 C 30.109375 16.945312 30.078125 16.863281 30.085938 16.777344 C 30.109375 16.59375 30.121094 16.410156 30.121094 16.238281 C 30.128906 13.925781 28.257812 12.042969 25.953125 12.042969 C 24.078125 12.042969 22.488281 13.292969 21.964844 15.007812 C 22.457031 14.285156 23.292969 13.578125 24.71875 13.480469 C 27.699219 13.277344 28.660156 15.789062 28.667969 15.8125 C 28.71875 15.945312 28.652344 16.089844 28.523438 16.136719 C 28.394531 16.183594 28.25 16.117188 28.203125 15.988281 C 28.167969 15.898438 27.351562 13.804688 24.75 13.984375 C 22.15625 14.15625 21.8125 16.597656 21.796875 16.699219 C 21.796875 16.703125 21.796875 16.703125 21.796875 16.703125 C 21.792969 16.730469 21.785156 16.757812 21.773438 16.78125 C 21.769531 16.785156 21.765625 16.792969 21.761719 16.796875 C 21.75 16.816406 21.738281 16.832031 21.722656 16.84375 C 21.714844 16.851562 21.710938 16.855469 21.703125 16.859375 C 21.703125 16.863281 21.699219 16.867188 21.695312 16.867188 C 21.4375 17.0625 21.203125 17.289062 21.003906 17.542969 C 20.9375 17.625 20.828125 17.65625 20.726562 17.625 C 20.230469 17.453125 19.714844 17.367188 19.1875 17.367188 C 16.5625 17.367188 14.425781 19.515625 14.425781 22.15625 C 14.425781 23.570312 15.046875 24.902344 16.121094 25.816406 C 16.292969 25.929688 18.085938 27.046875 20.199219 25.710938 C 19.6875 25.871094 19.179688 25.957031 18.6875 25.957031 C 18.007812 25.957031 17.363281 25.800781 16.804688 25.480469 C 15.75 24.878906 15.179688 23.800781 15.25 22.523438 C 15.414062 19.507812 17.695312 19.128906 17.71875 19.125 C 17.855469 19.105469 17.980469 19.199219 18.003906 19.335938 C 18.023438 19.472656 17.929688 19.601562 17.792969 19.621094 C 17.714844 19.632812 15.890625 19.957031 15.75 22.550781 C 15.691406 23.628906 16.167969 24.539062 17.054688 25.042969 C 18.300781 25.753906 20.046875 25.53125 21.613281 24.46875 C 21.632812 24.457031 21.648438 24.449219 21.667969 24.441406 C 21.671875 24.441406 21.675781 24.4375 21.679688 24.4375 C 21.695312 24.433594 21.710938 24.429688 21.722656 24.425781 C 21.726562 24.425781 21.734375 24.425781 21.738281 24.425781 C 21.757812 24.421875 21.773438 24.425781 21.789062 24.425781 C 21.792969 24.425781 21.792969 24.425781 21.796875 24.425781 C 21.929688 24.449219 25.023438 24.933594 25.902344 22.328125 C 26.445312 20.710938 25.25 19.929688 24.867188 19.726562 C 23.992188 19.261719 22.699219 19.242188 22.039062 20.121094 C 21.59375 20.71875 21.511719 21.226562 21.8125 21.550781 C 22.160156 21.929688 22.921875 21.992188 23.40625 21.683594 C 23.523438 21.609375 23.679688 21.644531 23.753906 21.761719 C 23.824219 21.878906 23.792969 22.035156 23.675781 22.109375 C 22.976562 22.550781 21.957031 22.449219 21.441406 21.890625 C 21.21875 21.644531 20.789062 20.953125 21.640625 19.820312 C 22.464844 18.714844 24.039062 18.71875 25.101562 19.285156 C 26.066406 19.796875 26.90625 20.90625 26.371094 22.488281 C 25.476562 25.160156 22.535156 25.015625 21.855469 24.941406 C 20.519531 26.4375 19.171875 26.851562 18.089844 26.851562 C 17.015625 26.851562 16.207031 26.441406 15.933594 26.28125 C 13.734375 26.796875 11.011719 27.9375 9.625 30.476562 C 12.199219 28.539062 15.703125 28.171875 20.285156 29.351562 C 25.082031 30.589844 26.78125 27.273438 26.851562 27.132812 C 26.910156 27.007812 27.0625 26.960938 27.183594 27.019531 C 27.308594 27.082031 27.359375 27.230469 27.296875 27.355469 C 27.28125 27.394531 25.363281 31.179688 20.160156 29.839844 C 19.277344 29.609375 18.441406 29.441406 17.648438 29.328125 C 18.132812 29.507812 18.605469 29.710938 19.085938 29.921875 C 20.457031 30.519531 21.867188 31.140625 23.871094 31.140625 C 25.230469 31.140625 26.554688 30.65625 27.597656 29.78125 C 27.652344 29.734375 27.71875 29.714844 27.789062 29.722656 C 27.855469 29.734375 27.917969 29.769531 27.960938 29.824219 C 28.992188 31.230469 30.644531 32.066406 32.378906 32.066406 C 32.847656 32.066406 33.316406 32.007812 33.765625 31.890625 C 33.785156 31.886719 33.808594 31.882812 33.832031 31.882812 C 33.886719 31.882812 33.941406 31.898438 33.984375 31.9375 C 34.046875 31.984375 34.082031 32.0625 34.078125 32.140625 L 34.078125 32.191406 C 34.074219 32.234375 34.074219 32.277344 34.074219 32.320312 C 34.074219 35.625 36.746094 38.308594 40.03125 38.308594 C 41.003906 38.308594 41.929688 38.082031 42.792969 37.628906 C 43.167969 37.429688 43.519531 37.195312 43.839844 36.929688 C 43.851562 36.917969 43.863281 36.910156 43.871094 36.90625 Z M 46.773438 24.828125 C 47.179688 24.949219 47.574219 25.117188 47.949219 25.335938 C 48.316406 25.554688 48.667969 25.824219 48.945312 26.164062 C 49.226562 26.496094 49.421875 26.910156 49.464844 27.335938 C 49.285156 26.949219 49.046875 26.621094 48.753906 26.339844 C 48.609375 26.203125 48.453125 26.070312 48.289062 25.957031 C 48.128906 25.835938 47.957031 25.726562 47.78125 25.625 C 47.433594 25.414062 47.0625 25.242188 46.683594 25.074219 C 46.308594 24.910156 45.921875 24.757812 45.523438 24.609375 C 45.945312 24.621094 46.367188 24.707031 46.773438 24.828125 Z M 45.933594 25.382812 C 46.207031 25.4375 46.476562 25.515625 46.734375 25.625 C 46.992188 25.734375 47.242188 25.871094 47.472656 26.039062 C 47.699219 26.210938 47.902344 26.414062 48.046875 26.660156 C 47.804688 26.511719 47.574219 26.382812 47.335938 26.261719 C 47.09375 26.144531 46.851562 26.039062 46.605469 25.933594 C 46.113281 25.726562 45.609375 25.546875 45.097656 25.320312 C 45.378906 25.296875 45.660156 25.328125 45.933594 25.382812 Z M 45.664062 26 C 45.847656 26.023438 46.03125 26.070312 46.207031 26.128906 C 46.382812 26.191406 46.558594 26.269531 46.71875 26.375 C 46.875 26.480469 47.042969 26.609375 47.113281 26.800781 C 46.941406 26.710938 46.777344 26.667969 46.605469 26.609375 C 46.4375 26.558594 46.269531 26.503906 46.101562 26.445312 C 45.929688 26.386719 45.761719 26.324219 45.59375 26.25 C 45.429688 26.175781 45.261719 26.097656 45.097656 25.988281 C 45.292969 25.960938 45.480469 25.976562 45.664062 26 Z M 18.855469 18.246094 C 18.9375 18.21875 19.015625 18.191406 19.097656 18.175781 C 19.265625 18.144531 19.433594 18.136719 19.605469 18.160156 C 19.773438 18.179688 19.941406 18.226562 20.09375 18.304688 C 20.246094 18.386719 20.394531 18.492188 20.480469 18.648438 C 20.3125 18.605469 20.160156 18.578125 20.011719 18.554688 C 19.859375 18.527344 19.710938 18.511719 19.5625 18.488281 L 19.109375 18.4375 C 18.953125 18.417969 18.796875 18.402344 18.625 18.359375 C 18.699219 18.3125 18.777344 18.277344 18.855469 18.246094 Z M 20.367188 19.3125 C 20.242188 19.261719 20.15625 19.21875 20.058594 19.191406 C 19.96875 19.160156 19.882812 19.136719 19.789062 19.113281 C 19.605469 19.0625 19.414062 19.027344 19.175781 18.9375 C 19.269531 18.847656 19.386719 18.804688 19.503906 18.777344 C 19.625 18.753906 19.75 18.757812 19.871094 18.789062 C 19.992188 18.816406 20.113281 18.882812 20.203125 18.972656 C 20.296875 19.058594 20.359375 19.183594 20.367188 19.3125 Z M 19.320312 22.652344 C 19.460938 22.644531 19.597656 22.632812 19.742188 22.609375 C 19.886719 22.59375 20.027344 22.554688 20.195312 22.539062 C 20.003906 22.8125 19.671875 22.96875 19.34375 22.988281 C 19.175781 23 19.007812 22.976562 18.851562 22.925781 C 18.699219 22.871094 18.550781 22.792969 18.4375 22.667969 C 18.765625 22.664062 19.042969 22.675781 19.320312 22.652344 Z M 18.195312 23.375 C 18.441406 23.425781 18.691406 23.425781 18.941406 23.40625 C 19.191406 23.390625 19.441406 23.335938 19.699219 23.285156 C 19.824219 23.25 19.953125 23.222656 20.082031 23.191406 C 20.210938 23.15625 20.34375 23.121094 20.480469 23.09375 C 20.375 23.1875 20.261719 23.261719 20.148438 23.34375 C 20.03125 23.410156 19.90625 23.472656 19.78125 23.535156 C 19.523438 23.636719 19.253906 23.722656 18.96875 23.738281 C 18.6875 23.761719 18.390625 23.730469 18.125 23.625 C 17.859375 23.519531 17.609375 23.34375 17.476562 23.09375 C 17.707031 23.246094 17.949219 23.324219 18.195312 23.375 Z M 19.992188 24.183594 C 19.640625 24.355469 19.246094 24.460938 18.847656 24.492188 C 18.648438 24.507812 18.445312 24.488281 18.246094 24.472656 C 18.050781 24.421875 17.847656 24.394531 17.667969 24.304688 C 17.292969 24.167969 16.976562 23.914062 16.707031 23.636719 C 17.0625 23.804688 17.390625 23.976562 17.75 24.058594 C 17.925781 24.113281 18.109375 24.128906 18.285156 24.15625 C 18.375 24.15625 18.464844 24.164062 18.554688 24.167969 C 18.644531 24.179688 18.734375 24.160156 18.824219 24.160156 C 19.183594 24.140625 19.542969 24.058594 19.894531 23.945312 C 20.246094 23.824219 20.59375 23.675781 20.933594 23.496094 C 20.675781 23.785156 20.347656 24.011719 19.992188 24.183594 Z M 24.492188 19.886719 C 24.722656 19.957031 24.945312 20.089844 25.117188 20.28125 C 25.285156 20.472656 25.402344 20.714844 25.425781 20.964844 C 25.449219 21.085938 25.429688 21.210938 25.425781 21.328125 C 25.40625 21.445312 25.371094 21.5625 25.332031 21.671875 C 25.296875 21.554688 25.289062 21.441406 25.261719 21.332031 L 25.21875 21.175781 C 25.210938 21.121094 25.191406 21.074219 25.171875 21.023438 C 25.105469 20.824219 24.996094 20.652344 24.867188 20.507812 C 24.734375 20.359375 24.574219 20.234375 24.390625 20.128906 C 24.203125 20.023438 24.003906 19.933594 23.785156 19.847656 C 24.015625 19.792969 24.257812 19.816406 24.492188 19.886719 Z M 23.0625 20.214844 C 23.203125 20.148438 23.355469 20.128906 23.507812 20.128906 C 23.660156 20.128906 23.8125 20.15625 23.957031 20.214844 C 24.101562 20.273438 24.246094 20.355469 24.351562 20.484375 C 24.457031 20.609375 24.523438 20.769531 24.507812 20.929688 C 24.390625 20.820312 24.289062 20.746094 24.179688 20.683594 C 24.070312 20.621094 23.953125 20.574219 23.835938 20.523438 C 23.597656 20.425781 23.339844 20.355469 23.0625 20.214844 Z M 24.109375 15.542969 C 23.988281 15.617188 23.871094 15.691406 23.757812 15.773438 C 23.648438 15.855469 23.535156 15.933594 23.425781 16.027344 C 23.308594 16.117188 23.199219 16.21875 23.058594 16.3125 C 23.078125 16.144531 23.140625 15.992188 23.226562 15.855469 C 23.3125 15.714844 23.433594 15.597656 23.566406 15.5 C 23.703125 15.402344 23.859375 15.335938 24.019531 15.300781 C 24.179688 15.265625 24.351562 15.261719 24.507812 15.324219 C 24.359375 15.398438 24.234375 15.46875 24.109375 15.542969 Z M 25.28125 15.109375 C 25 15.042969 24.71875 15.023438 24.445312 15.054688 C 24.171875 15.089844 23.898438 15.15625 23.644531 15.292969 L 23.546875 15.339844 C 23.515625 15.355469 23.484375 15.378906 23.453125 15.398438 L 23.261719 15.511719 C 23.136719 15.589844 23.023438 15.6875 22.886719 15.769531 C 22.96875 15.636719 23.054688 15.503906 23.15625 15.386719 C 23.269531 15.277344 23.371094 15.152344 23.507812 15.066406 C 23.761719 14.871094 24.082031 14.757812 24.40625 14.722656 C 24.730469 14.683594 25.0625 14.738281 25.355469 14.859375 C 25.652344 14.980469 25.921875 15.15625 26.121094 15.398438 C 25.84375 15.269531 25.5625 15.175781 25.28125 15.109375 Z M 15.828125 27.804688 C 15.472656 27.84375 15.121094 27.886719 14.769531 27.945312 C 14.59375 27.972656 14.417969 28 14.242188 28.035156 C 14.066406 28.058594 13.894531 28.101562 13.71875 28.132812 C 13.539062 28.164062 13.367188 28.207031 13.1875 28.238281 C 13.007812 28.273438 12.832031 28.3125 12.648438 28.339844 C 12.808594 28.246094 12.96875 28.160156 13.136719 28.082031 C 13.304688 28.015625 13.472656 27.9375 13.648438 27.882812 C 13.996094 27.757812 14.355469 27.679688 14.714844 27.613281 C 15.082031 27.5625 15.449219 27.53125 15.816406 27.546875 C 16.183594 27.5625 16.554688 27.605469 16.90625 27.734375 C 16.539062 27.742188 16.183594 27.773438 15.828125 27.804688 Z M 17.1875 27.269531 C 16.953125 27.246094 16.726562 27.238281 16.496094 27.230469 C 16.035156 27.210938 15.582031 27.230469 15.089844 27.242188 C 15.296875 27.101562 15.53125 27.019531 15.769531 26.964844 C 16.011719 26.910156 16.257812 26.882812 16.507812 26.894531 C 16.753906 26.902344 17 26.9375 17.234375 27.011719 C 17.472656 27.078125 17.695312 27.191406 17.898438 27.335938 C 17.648438 27.320312 17.417969 27.285156 17.1875 27.269531 Z M 20.859375 28.730469 C 20.445312 28.730469 19.984375 28.679688 19.484375 28.554688 C 19.351562 28.523438 19.269531 28.386719 19.300781 28.253906 C 19.335938 28.117188 19.46875 28.035156 19.605469 28.066406 C 22.507812 28.785156 23.75 26.929688 23.800781 26.851562 C 23.875 26.734375 24.03125 26.703125 24.144531 26.777344 C 24.261719 26.851562 24.292969 27.007812 24.222656 27.125 C 24.210938 27.140625 23.160156 28.730469 20.859375 28.730469 Z M 25.546875 27.746094 C 25.425781 27.914062 25.285156 28.0625 25.128906 28.1875 C 24.972656 28.316406 24.792969 28.425781 24.605469 28.503906 C 24.417969 28.585938 24.214844 28.636719 24.011719 28.640625 C 24.167969 28.503906 24.324219 28.398438 24.472656 28.277344 C 24.625 28.164062 24.773438 28.046875 24.914062 27.929688 C 25.210938 27.695312 25.484375 27.445312 25.8125 27.199219 C 25.761719 27.398438 25.664062 27.582031 25.546875 27.746094 Z M 25.632812 26.695312 C 25.550781 26.84375 25.457031 26.984375 25.347656 27.109375 C 25.238281 27.238281 25.117188 27.355469 24.976562 27.457031 C 24.835938 27.550781 24.683594 27.640625 24.507812 27.671875 C 24.605469 27.523438 24.699219 27.394531 24.796875 27.265625 C 24.894531 27.140625 24.992188 27.011719 25.097656 26.890625 C 25.304688 26.652344 25.523438 26.414062 25.8125 26.21875 C 25.777344 26.390625 25.710938 26.546875 25.632812 26.695312 Z M 31.8125 17.832031 C 32.265625 17.871094 32.722656 18.03125 33.105469 18.300781 C 33.492188 18.574219 33.789062 18.960938 33.972656 19.382812 C 34.160156 19.800781 34.257812 20.25 34.261719 20.699219 C 34.117188 20.277344 33.957031 19.871094 33.742188 19.5 C 33.691406 19.40625 33.625 19.324219 33.570312 19.234375 C 33.503906 19.152344 33.445312 19.066406 33.375 18.992188 C 33.238281 18.832031 33.085938 18.691406 32.914062 18.574219 C 32.582031 18.332031 32.1875 18.175781 31.773438 18.089844 C 31.359375 18.003906 30.921875 17.976562 30.480469 18.007812 C 30.894531 17.84375 31.355469 17.789062 31.8125 17.832031 Z M 30.8125 18.394531 C 31.027344 18.398438 31.242188 18.429688 31.449219 18.496094 C 31.65625 18.566406 31.855469 18.675781 32.023438 18.820312 C 32.1875 18.96875 32.316406 19.164062 32.371094 19.375 C 32.199219 19.238281 32.042969 19.125 31.875 19.035156 C 31.703125 18.945312 31.527344 18.875 31.347656 18.816406 C 30.976562 18.695312 30.59375 18.617188 30.179688 18.503906 C 30.382812 18.421875 30.597656 18.398438 30.8125 18.394531 Z M 32.023438 19.84375 C 31.914062 19.792969 31.839844 19.742188 31.765625 19.695312 C 31.6875 19.652344 31.621094 19.601562 31.550781 19.550781 C 31.484375 19.5 31.414062 19.449219 31.347656 19.382812 C 31.277344 19.320312 31.210938 19.253906 31.140625 19.160156 C 31.253906 19.121094 31.359375 19.128906 31.460938 19.148438 C 31.5625 19.171875 31.660156 19.21875 31.746094 19.28125 C 31.832031 19.339844 31.902344 19.425781 31.957031 19.519531 C 32.011719 19.617188 32.042969 19.730469 32.023438 19.84375 Z M 39.148438 29.132812 C 37.230469 30.785156 35.296875 31.246094 33.730469 31.246094 C 31.765625 31.246094 30.382812 30.511719 30.359375 30.5 C 30.234375 30.433594 30.191406 30.28125 30.257812 30.160156 C 30.324219 30.039062 30.476562 29.992188 30.597656 30.058594 C 30.765625 30.152344 34.757812 32.253906 38.824219 28.75 C 38.925781 28.660156 39.085938 28.671875 39.175781 28.777344 C 39.265625 28.882812 39.253906 29.042969 39.148438 29.132812 Z M 33.398438 28.925781 C 33.800781 28.902344 34.203125 28.867188 34.601562 28.804688 C 35 28.75 35.390625 28.667969 35.78125 28.570312 C 36.179688 28.476562 36.558594 28.34375 36.960938 28.226562 C 36.621094 28.46875 36.253906 28.675781 35.863281 28.820312 C 35.667969 28.902344 35.464844 28.949219 35.265625 29.011719 C 35.164062 29.039062 35.058594 29.058594 34.957031 29.078125 C 34.855469 29.101562 34.753906 29.121094 34.648438 29.136719 C 34.441406 29.164062 34.230469 29.183594 34.023438 29.195312 C 33.8125 29.195312 33.605469 29.203125 33.398438 29.183594 C 32.980469 29.15625 32.566406 29.089844 32.175781 28.941406 C 32.589844 28.949219 32.992188 28.945312 33.398438 28.925781 Z M 33.328125 28.339844 C 33.46875 28.296875 33.601562 28.277344 33.730469 28.257812 C 33.863281 28.242188 33.988281 28.230469 34.113281 28.226562 C 34.242188 28.21875 34.363281 28.21875 34.492188 28.21875 C 34.621094 28.21875 34.75 28.214844 34.902344 28.230469 C 34.804688 28.34375 34.679688 28.421875 34.546875 28.476562 C 34.414062 28.527344 34.273438 28.554688 34.132812 28.5625 C 33.992188 28.570312 33.851562 28.554688 33.714844 28.523438 C 33.582031 28.484375 33.445312 28.433594 33.328125 28.339844 Z M 32.605469 29.546875 C 33.089844 29.5625 33.574219 29.566406 34.058594 29.535156 C 34.300781 29.519531 34.542969 29.507812 34.785156 29.480469 L 35.144531 29.445312 C 35.265625 29.429688 35.386719 29.410156 35.507812 29.394531 C 35.75 29.371094 35.988281 29.324219 36.230469 29.289062 C 36.472656 29.25 36.710938 29.195312 36.960938 29.164062 C 36.734375 29.265625 36.503906 29.363281 36.269531 29.445312 C 36.03125 29.519531 35.796875 29.601562 35.554688 29.652344 C 35.070312 29.777344 34.574219 29.832031 34.074219 29.867188 C 33.578125 29.890625 33.074219 29.875 32.582031 29.808594 C 32.089844 29.738281 31.597656 29.628906 31.144531 29.421875 C 31.632812 29.496094 32.117188 29.53125 32.605469 29.546875 Z M 40.550781 25.597656 C 40.445312 25.683594 40.285156 25.671875 40.199219 25.566406 C 40.121094 25.472656 38.273438 23.375 34.5625 25.621094 C 34.476562 25.671875 34.375 25.667969 34.292969 25.609375 C 34.210938 25.554688 34.171875 25.457031 34.1875 25.359375 C 34.191406 25.34375 34.460938 23.792969 33.570312 22.660156 C 32.976562 21.910156 32.003906 21.492188 30.675781 21.421875 C 28.402344 21.304688 27.195312 22.742188 27.003906 24.214844 C 26.855469 25.382812 27.363281 26.691406 28.828125 26.996094 C 30.457031 27.335938 31.457031 26.632812 31.722656 25.785156 C 31.925781 25.121094 31.699219 24.261719 30.71875 23.839844 C 30.054688 23.554688 29.484375 23.546875 29.15625 23.824219 C 28.964844 23.984375 28.882812 24.226562 28.941406 24.472656 C 29.011719 24.785156 29.285156 25.019531 29.6875 25.117188 C 29.820312 25.152344 29.902344 25.289062 29.871094 25.421875 C 29.835938 25.554688 29.703125 25.640625 29.566406 25.605469 C 28.984375 25.464844 28.566406 25.082031 28.453125 24.589844 C 28.355469 24.160156 28.5 23.71875 28.835938 23.4375 C 29.316406 23.035156 30.074219 23.011719 30.914062 23.378906 C 31.996094 23.84375 32.523438 24.894531 32.199219 25.933594 C 31.921875 26.820312 31.039062 27.585938 29.632812 27.589844 C 29.351562 27.589844 29.050781 27.558594 28.726562 27.492188 C 26.957031 27.125 26.335938 25.503906 26.507812 24.152344 C 26.71875 22.503906 28.121094 20.785156 30.703125 20.921875 C 32.183594 21 33.277344 21.480469 33.964844 22.355469 C 34.667969 23.25 34.75 24.328125 34.726562 24.949219 C 38.546875 22.886719 40.558594 25.21875 40.582031 25.246094 C 40.671875 25.347656 40.65625 25.507812 40.550781 25.597656 Z M 40.441406 23.121094 L 40.089844 22.863281 C 39.855469 22.6875 39.617188 22.515625 39.398438 22.261719 C 39.566406 22.265625 39.71875 22.308594 39.867188 22.363281 C 40.015625 22.421875 40.15625 22.5 40.285156 22.59375 C 40.414062 22.6875 40.535156 22.800781 40.628906 22.9375 C 40.722656 23.070312 40.804688 23.238281 40.789062 23.410156 C 40.671875 23.289062 40.558594 23.207031 40.441406 23.121094 Z M 40.851562 22.53125 C 40.679688 22.371094 40.492188 22.226562 40.292969 22.097656 C 40.09375 21.972656 39.882812 21.855469 39.664062 21.746094 C 39.445312 21.640625 39.222656 21.535156 38.988281 21.429688 C 39.246094 21.402344 39.503906 21.4375 39.753906 21.503906 C 40.003906 21.570312 40.25 21.675781 40.472656 21.816406 C 40.695312 21.960938 40.894531 22.148438 41.050781 22.363281 C 41.207031 22.582031 41.300781 22.839844 41.328125 23.097656 C 41.167969 22.882812 41.023438 22.695312 40.851562 22.53125 Z M 41.519531 22.03125 C 41.253906 21.789062 40.964844 21.578125 40.636719 21.429688 C 40.320312 21.273438 39.972656 21.167969 39.617188 21.085938 C 39.261719 21.007812 38.898438 20.957031 38.515625 20.929688 C 38.882812 20.816406 39.273438 20.796875 39.65625 20.828125 C 40.042969 20.859375 40.425781 20.964844 40.78125 21.128906 C 40.867188 21.175781 40.957031 21.214844 41.042969 21.269531 C 41.125 21.324219 41.207031 21.378906 41.285156 21.4375 C 41.363281 21.496094 41.433594 21.570312 41.507812 21.636719 C 41.546875 21.667969 41.582031 21.699219 41.617188 21.734375 L 41.707031 21.851562 C 41.96875 22.148438 42.125 22.519531 42.21875 22.882812 C 41.992188 22.574219 41.792969 22.269531 41.519531 22.03125 Z M 43.511719 35.027344 C 43.664062 34.875 43.847656 34.761719 44.039062 34.679688 C 44.234375 34.601562 44.433594 34.542969 44.632812 34.519531 C 44.835938 34.492188 45.042969 34.484375 45.246094 34.527344 C 44.878906 34.714844 44.515625 34.839844 44.171875 34.988281 C 43.996094 35.058594 43.832031 35.140625 43.675781 35.234375 C 43.519531 35.328125 43.375 35.433594 43.253906 35.605469 C 43.238281 35.390625 43.359375 35.179688 43.511719 35.027344 Z M 43.714844 35.707031 C 43.988281 35.5 44.285156 35.324219 44.597656 35.183594 C 44.910156 35.046875 45.234375 34.941406 45.5625 34.863281 C 45.894531 34.789062 46.230469 34.742188 46.570312 34.75 L 45.640625 35.113281 C 45.332031 35.234375 45.03125 35.359375 44.734375 35.492188 C 44.4375 35.625 44.144531 35.769531 43.859375 35.925781 C 43.574219 36.089844 43.304688 36.269531 43.027344 36.46875 C 43.203125 36.171875 43.445312 35.917969 43.714844 35.707031 Z M 14.125 58.878906 C 14.96875 58.878906 15.773438 58.566406 16.398438 57.996094 C 16.523438 57.890625 19.335938 55.617188 22.980469 56.578125 C 23.0625 56.601562 29.703125 58.550781 32.605469 55.132812 C 31.0625 55.742188 27.714844 56.726562 25.269531 55.03125 C 25.207031 54.984375 25.167969 54.914062 25.164062 54.835938 C 25.160156 54.757812 25.191406 54.683594 25.25 54.632812 C 26.078125 53.9375 26.550781 52.914062 26.550781 51.832031 C 26.550781 49.816406 24.921875 48.175781 22.917969 48.175781 C 22.214844 48.175781 21.535156 48.378906 20.945312 48.761719 C 20.882812 48.800781 20.804688 48.8125 20.734375 48.789062 C 20.664062 48.765625 20.605469 48.714844 20.578125 48.644531 C 19.921875 46.976562 18.347656 45.898438 16.566406 45.898438 C 14.183594 45.898438 12.25 47.84375 12.25 50.234375 C 12.25 50.328125 12.253906 50.417969 12.257812 50.507812 C 12.464844 49.371094 13.085938 48 14.824219 47.402344 C 18.078125 46.285156 19.804688 48.933594 19.820312 48.960938 C 19.898438 49.078125 19.863281 49.234375 19.746094 49.304688 C 19.628906 49.378906 19.476562 49.347656 19.402344 49.230469 C 19.339844 49.132812 17.859375 46.886719 14.988281 47.878906 C 12.65625 48.679688 12.605469 51.03125 12.667969 51.886719 C 14.285156 51.3125 15.46875 51.792969 16.191406 52.320312 C 17.132812 53.011719 17.382812 54.289062 16.761719 55.226562 C 16.339844 55.863281 15.640625 56.1875 14.679688 56.1875 C 14.542969 56.1875 14.429688 56.074219 14.429688 55.933594 C 14.429688 55.796875 14.542969 55.683594 14.679688 55.683594 C 15.460938 55.683594 16.019531 55.4375 16.34375 54.949219 C 16.816406 54.234375 16.621094 53.257812 15.894531 52.726562 C 15.234375 52.242188 14.117188 51.808594 12.5625 52.46875 C 11.441406 53.054688 10.746094 54.207031 10.746094 55.480469 C 10.746094 57.355469 12.261719 58.878906 14.125 58.878906 Z M 24.867188 49.753906 C 25 49.710938 25.140625 49.78125 25.183594 49.910156 C 25.1875 49.921875 25.277344 50.1875 25.339844 50.582031 C 25.363281 50.71875 25.269531 50.847656 25.136719 50.871094 C 25.121094 50.871094 25.105469 50.875 25.09375 50.875 C 24.972656 50.875 24.867188 50.785156 24.847656 50.664062 C 24.789062 50.308594 24.710938 50.070312 24.710938 50.070312 C 24.664062 49.941406 24.738281 49.796875 24.867188 49.753906 Z M 24.847656 52.125 C 24.875 51.988281 25.003906 51.902344 25.140625 51.925781 C 25.277344 51.953125 25.367188 52.085938 25.339844 52.222656 C 25.140625 53.207031 24.453125 54.417969 22.289062 54.605469 C 22.28125 54.605469 22.273438 54.605469 22.269531 54.605469 C 22.140625 54.605469 22.03125 54.503906 22.019531 54.375 C 22.007812 54.234375 22.109375 54.113281 22.25 54.101562 C 23.734375 53.976562 24.609375 53.3125 24.847656 52.125 Z M 21.308594 51.289062 C 21.355469 51.171875 21.390625 51.054688 21.421875 50.933594 C 21.480469 50.6875 21.507812 50.425781 21.574219 50.121094 C 21.675781 50.246094 21.726562 50.394531 21.753906 50.542969 C 21.78125 50.695312 21.78125 50.855469 21.746094 51.011719 C 21.707031 51.167969 21.632812 51.320312 21.523438 51.441406 C 21.410156 51.5625 21.257812 51.640625 21.101562 51.65625 C 21.1875 51.515625 21.257812 51.410156 21.308594 51.289062 Z M 21.253906 52.457031 C 21.351562 52.382812 21.457031 52.324219 21.539062 52.238281 C 21.628906 52.164062 21.703125 52.078125 21.777344 51.992188 C 21.839844 51.898438 21.910156 51.808594 21.957031 51.707031 C 22.0625 51.503906 22.136719 51.285156 22.179688 51.050781 C 22.226562 50.8125 22.253906 50.570312 22.269531 50.308594 C 22.386719 50.542969 22.4375 50.808594 22.441406 51.074219 C 22.441406 51.339844 22.382812 51.617188 22.253906 51.863281 C 22.191406 51.988281 22.105469 52.097656 22.015625 52.203125 C 21.910156 52.292969 21.8125 52.394531 21.691406 52.453125 C 21.578125 52.53125 21.445312 52.566406 21.320312 52.609375 C 21.195312 52.644531 21.0625 52.652344 20.933594 52.660156 C 21.042969 52.578125 21.15625 52.527344 21.253906 52.457031 Z M 21.050781 53.417969 C 21.210938 53.332031 21.363281 53.234375 21.519531 53.148438 C 21.667969 53.050781 21.820312 52.957031 21.960938 52.851562 C 22.097656 52.738281 22.242188 52.640625 22.355469 52.511719 C 22.605469 52.273438 22.808594 51.992188 22.933594 51.671875 C 23.054688 51.351562 23.109375 50.996094 23.058594 50.625 C 23.242188 50.953125 23.273438 51.367188 23.179688 51.75 C 23.164062 51.847656 23.121094 51.9375 23.089844 52.03125 C 23.054688 52.125 23 52.207031 22.957031 52.292969 C 22.910156 52.382812 22.839844 52.453125 22.785156 52.535156 C 22.726562 52.617188 22.65625 52.679688 22.589844 52.75 C 22.453125 52.890625 22.292969 52.996094 22.140625 53.113281 C 22.0625 53.164062 21.976562 53.207031 21.890625 53.253906 C 21.808594 53.296875 21.726562 53.347656 21.636719 53.378906 C 21.464844 53.445312 21.289062 53.515625 21.109375 53.570312 C 20.925781 53.609375 20.746094 53.652344 20.5625 53.679688 C 20.726562 53.585938 20.886719 53.5 21.050781 53.417969 Z M 19.660156 55.039062 C 19.832031 55.023438 20.011719 55.027344 20.179688 55.058594 C 20.351562 55.089844 20.515625 55.140625 20.671875 55.214844 C 20.828125 55.289062 20.980469 55.378906 21.105469 55.507812 C 20.75 55.5 20.4375 55.441406 20.125 55.390625 L 19.652344 55.304688 C 19.496094 55.277344 19.335938 55.253906 19.160156 55.210938 C 19.3125 55.113281 19.484375 55.0625 19.660156 55.039062 Z M 15.734375 49.910156 C 15.644531 49.941406 15.558594 49.964844 15.46875 49.984375 C 15.382812 50 15.292969 50.011719 15.199219 50.015625 C 15.105469 50.015625 15.007812 50.019531 14.890625 49.992188 C 15.011719 49.789062 15.207031 49.695312 15.40625 49.652344 C 15.507812 49.632812 15.609375 49.632812 15.714844 49.648438 C 15.816406 49.667969 15.917969 49.699219 16.007812 49.777344 C 15.910156 49.839844 15.824219 49.878906 15.734375 49.910156 Z M 16.519531 49.292969 C 16.367188 49.285156 16.222656 49.285156 16.078125 49.289062 C 15.929688 49.292969 15.78125 49.296875 15.628906 49.308594 C 15.476562 49.316406 15.320312 49.332031 15.148438 49.324219 C 15.269531 49.199219 15.417969 49.113281 15.574219 49.054688 C 15.730469 48.992188 15.898438 48.960938 16.066406 48.953125 C 16.238281 48.953125 16.410156 48.976562 16.570312 49.035156 C 16.730469 49.097656 16.882812 49.183594 16.992188 49.324219 C 16.820312 49.304688 16.667969 49.296875 16.519531 49.292969 Z M 16.777344 48.730469 C 16.5 48.675781 16.222656 48.664062 15.941406 48.679688 L 15.734375 48.695312 L 15.523438 48.726562 C 15.378906 48.738281 15.246094 48.789062 15.101562 48.808594 C 14.960938 48.84375 14.820312 48.882812 14.675781 48.917969 C 14.535156 48.960938 14.394531 49.003906 14.242188 49.035156 C 14.359375 48.9375 14.484375 48.851562 14.613281 48.765625 C 14.746094 48.695312 14.878906 48.617188 15.023438 48.558594 C 15.308594 48.449219 15.609375 48.355469 15.925781 48.34375 C 16.238281 48.324219 16.558594 48.363281 16.851562 48.480469 C 17.144531 48.59375 17.417969 48.777344 17.589844 49.035156 C 17.324219 48.882812 17.054688 48.789062 16.777344 48.730469 Z M 13.332031 52.886719 C 13.578125 52.800781 13.847656 52.769531 14.109375 52.78125 C 14.375 52.789062 14.636719 52.855469 14.878906 52.957031 C 15.117188 53.058594 15.34375 53.199219 15.515625 53.398438 C 15.03125 53.242188 14.570312 53.132812 14.09375 53.117188 C 13.859375 53.109375 13.625 53.109375 13.386719 53.144531 C 13.144531 53.167969 12.910156 53.222656 12.652344 53.265625 C 12.847656 53.097656 13.078125 52.960938 13.332031 52.886719 Z M 12.457031 53.90625 C 12.582031 53.777344 12.742188 53.679688 12.914062 53.613281 C 13.082031 53.546875 13.265625 53.515625 13.445312 53.523438 C 13.628906 53.535156 13.808594 53.578125 13.957031 53.683594 C 13.605469 53.746094 13.316406 53.816406 13.03125 53.925781 C 12.890625 53.984375 12.75 54.042969 12.613281 54.117188 C 12.46875 54.1875 12.335938 54.277344 12.171875 54.355469 C 12.230469 54.183594 12.328125 54.03125 12.457031 53.90625 Z M 11.90625 55.097656 C 11.9375 54.960938 12.011719 54.839844 12.09375 54.738281 C 12.175781 54.632812 12.277344 54.546875 12.390625 54.480469 C 12.503906 54.417969 12.625 54.363281 12.765625 54.355469 C 12.640625 54.601562 12.492188 54.773438 12.351562 54.949219 C 12.28125 55.039062 12.210938 55.121094 12.144531 55.207031 C 12.078125 55.296875 12.015625 55.386719 11.945312 55.511719 C 11.871094 55.382812 11.871094 55.230469 11.90625 55.097656 Z M 50.867188 32.84375 C 51.21875 32.433594 51.414062 32.027344 51.503906 31.792969 C 52.914062 31.875 54.339844 32.191406 55.746094 32.734375 C 57.652344 33.472656 59.570312 33.753906 61.449219 33.570312 C 62.203125 33.496094 62.949219 33.363281 63.683594 33.175781 C 62.152344 33.894531 60 34.609375 57.648438 34.484375 C 56.527344 34.425781 55.394531 34.109375 54.289062 33.539062 C 53.582031 33.175781 52.304688 32.675781 50.867188 32.84375 Z M 50.867188 32.84375 " fill-opacity="1" fill-rule="nonzero"/></g><path fill="#ffffff" d="M 38.480469 56.839844 C 34.570312 52.65625 32.175781 47.023438 32.175781 40.832031 C 32.175781 28.808594 41.199219 18.90625 52.808594 17.589844 C 47.523438 21.121094 44.039062 27.160156 44.039062 34.015625 C 44.039062 44.898438 52.816406 53.722656 63.644531 53.722656 C 69.140625 53.722656 74.109375 51.445312 77.671875 47.78125 C 74.773438 57.15625 66.167969 64.003906 55.941406 64.21875 C 55.355469 63.957031 54.710938 63.8125 54.035156 63.8125 C 53.863281 63.8125 53.695312 63.820312 53.523438 63.839844 C 53.09375 61.335938 50.914062 59.480469 48.363281 59.480469 C 47.816406 59.480469 47.277344 59.5625 46.761719 59.730469 C 45.996094 57.496094 43.867188 55.957031 41.5 55.957031 C 40.394531 55.957031 39.355469 56.273438 38.480469 56.839844 Z M 38.480469 56.839844 " fill-opacity="1" fill-rule="nonzero"/><path fill="#000000" d="M 69.519531 59.773438 C 65.683594 62.65625 61.167969 64.261719 56.402344 64.453125 C 56.039062 64.242188 55.648438 64.074219 55.234375 63.964844 C 55.304688 63.964844 55.375 63.96875 55.441406 63.96875 C 65.242188 63.96875 73.820312 57.867188 77.105469 48.683594 C 73.429688 52.101562 68.6875 53.972656 63.640625 53.972656 C 52.695312 53.972656 43.785156 45.023438 43.785156 34.015625 C 43.785156 27.660156 46.773438 21.742188 51.824219 17.976562 C 40.695312 19.734375 32.421875 29.386719 32.421875 40.832031 C 32.421875 46.96875 34.8125 52.558594 38.707031 56.703125 C 38.5625 56.789062 38.417969 56.878906 38.28125 56.976562 C 34.339844 52.75 31.921875 47.066406 31.921875 40.828125 C 31.921875 28.785156 40.890625 18.6875 52.78125 17.339844 C 52.894531 17.324219 53.003906 17.394531 53.042969 17.503906 C 53.082031 17.613281 53.042969 17.734375 52.945312 17.796875 C 47.523438 21.417969 44.285156 27.480469 44.285156 34.015625 C 44.285156 44.742188 52.96875 53.46875 63.640625 53.46875 C 68.894531 53.46875 73.816406 51.386719 77.488281 47.605469 C 77.570312 47.519531 77.699219 47.503906 77.796875 47.566406 C 77.894531 47.625 77.941406 47.742188 77.90625 47.855469 C 76.449219 52.566406 73.472656 56.800781 69.519531 59.773438 Z M 65.660156 41.730469 C 66.195312 41.730469 66.195312 40.890625 65.660156 40.890625 C 65.125 40.890625 65.121094 41.730469 65.660156 41.730469 Z M 21.414062 78.695312 C 20.878906 78.695312 20.878906 79.53125 21.414062 79.53125 C 21.953125 79.53125 21.953125 78.695312 21.414062 78.695312 Z M 18.9375 36.40625 C 18.925781 36.351562 18.902344 36.304688 18.863281 36.261719 C 18.835938 36.21875 18.796875 36.179688 18.746094 36.15625 C 18.699219 36.125 18.648438 36.109375 18.59375 36.105469 C 18.539062 36.09375 18.480469 36.09375 18.425781 36.113281 C 18.390625 36.125 18.359375 36.140625 18.324219 36.152344 C 18.261719 36.191406 18.214844 36.242188 18.175781 36.304688 C 18.164062 36.339844 18.148438 36.371094 18.132812 36.40625 C 18.113281 36.480469 18.113281 36.554688 18.132812 36.628906 C 18.164062 36.714844 18.1875 36.800781 18.21875 36.886719 C 18.230469 36.941406 18.253906 36.988281 18.292969 37.027344 C 18.324219 37.074219 18.359375 37.109375 18.410156 37.136719 C 18.457031 37.164062 18.507812 37.183594 18.5625 37.1875 C 18.617188 37.199219 18.675781 37.195312 18.730469 37.179688 C 18.765625 37.164062 18.796875 37.152344 18.832031 37.136719 C 18.894531 37.101562 18.941406 37.050781 18.980469 36.988281 C 18.992188 36.953125 19.007812 36.917969 19.023438 36.886719 C 19.042969 36.8125 19.042969 36.738281 19.023438 36.664062 C 18.992188 36.578125 18.96875 36.492188 18.9375 36.40625 Z M 57.605469 19.070312 L 60.339844 19.070312 L 61.113281 19.847656 L 61.113281 22.597656 C 61.113281 22.734375 61.226562 22.847656 61.363281 22.847656 C 61.5 22.847656 61.613281 22.734375 61.613281 22.597656 L 61.613281 19.847656 L 62.386719 19.070312 L 65.121094 19.070312 C 65.257812 19.070312 65.371094 18.957031 65.371094 18.820312 C 65.371094 18.679688 65.257812 18.570312 65.121094 18.570312 L 62.386719 18.570312 L 61.613281 17.789062 L 61.613281 15.042969 C 61.613281 14.902344 61.5 14.789062 61.363281 14.789062 C 61.226562 14.789062 61.113281 14.902344 61.113281 15.042969 L 61.113281 17.789062 L 60.339844 18.566406 L 57.605469 18.566406 C 57.46875 18.566406 57.355469 18.679688 57.355469 18.816406 C 57.355469 18.957031 57.46875 19.070312 57.605469 19.070312 Z M 80.332031 20.574219 C 80.296875 20.535156 80.25 20.503906 80.199219 20.488281 C 80.148438 20.460938 80.097656 20.449219 80.039062 20.453125 C 80.003906 20.457031 79.96875 20.460938 79.929688 20.464844 C 79.859375 20.488281 79.796875 20.523438 79.746094 20.574219 C 79.726562 20.601562 79.703125 20.628906 79.683594 20.660156 C 79.644531 20.722656 79.625 20.792969 79.625 20.871094 C 79.625 20.914062 79.625 20.957031 79.625 21 C 79.625 21.054688 79.636719 21.109375 79.660156 21.160156 C 79.679688 21.210938 79.707031 21.257812 79.75 21.292969 C 79.785156 21.332031 79.832031 21.363281 79.882812 21.378906 C 79.933594 21.40625 79.984375 21.417969 80.042969 21.417969 C 80.078125 21.414062 80.113281 21.40625 80.152344 21.402344 C 80.222656 21.382812 80.285156 21.347656 80.335938 21.296875 C 80.355469 21.265625 80.378906 21.238281 80.398438 21.210938 C 80.4375 21.144531 80.457031 21.074219 80.457031 21 C 80.457031 20.957031 80.457031 20.914062 80.457031 20.871094 C 80.457031 20.8125 80.445312 20.757812 80.421875 20.710938 C 80.402344 20.660156 80.375 20.613281 80.332031 20.574219 Z M 77.742188 63.214844 C 77.207031 63.214844 77.207031 64.050781 77.742188 64.050781 C 78.277344 64.050781 78.277344 63.214844 77.742188 63.214844 Z M 27.964844 42.085938 L 25.832031 42.085938 L 25.367188 41.617188 L 25.367188 39.472656 C 25.367188 39.335938 25.257812 39.222656 25.117188 39.222656 C 24.980469 39.222656 24.867188 39.335938 24.867188 39.472656 L 24.867188 41.617188 L 24.402344 42.085938 L 22.269531 42.085938 C 22.132812 42.085938 22.023438 42.195312 22.023438 42.335938 C 22.023438 42.476562 22.132812 42.585938 22.269531 42.585938 L 24.402344 42.585938 L 24.867188 43.054688 L 24.867188 45.199219 C 24.867188 45.335938 24.980469 45.449219 25.117188 45.449219 C 25.257812 45.449219 25.367188 45.335938 25.367188 45.199219 L 25.367188 43.054688 L 25.832031 42.585938 L 27.964844 42.585938 C 28.105469 42.585938 28.214844 42.476562 28.214844 42.335938 C 28.214844 42.195312 28.101562 42.085938 27.964844 42.085938 Z M 85.121094 73.300781 C 85.101562 73.230469 85.066406 73.167969 85.015625 73.117188 C 84.984375 73.09375 84.957031 73.070312 84.929688 73.050781 C 84.863281 73.011719 84.792969 72.992188 84.71875 72.992188 C 84.699219 72.992188 84.679688 72.992188 84.664062 72.992188 C 84.605469 72.992188 84.550781 73.003906 84.503906 73.03125 C 84.449219 73.046875 84.40625 73.074219 84.367188 73.117188 C 84.328125 73.15625 84.300781 73.199219 84.28125 73.25 C 84.253906 73.300781 84.246094 73.355469 84.246094 73.410156 C 84.25 73.449219 84.253906 73.484375 84.261719 73.523438 C 84.28125 73.59375 84.316406 73.65625 84.367188 73.707031 C 84.394531 73.726562 84.425781 73.75 84.453125 73.773438 C 84.515625 73.8125 84.585938 73.828125 84.664062 73.828125 C 84.679688 73.828125 84.699219 73.828125 84.71875 73.828125 C 84.777344 73.832031 84.832031 73.820312 84.878906 73.792969 C 84.929688 73.773438 84.976562 73.746094 85.011719 73.703125 C 85.050781 73.667969 85.082031 73.621094 85.097656 73.570312 C 85.125 73.519531 85.136719 73.46875 85.136719 73.410156 C 85.128906 73.375 85.125 73.335938 85.121094 73.300781 Z M 76.550781 71.292969 L 74.867188 71.292969 L 74.632812 71.054688 L 74.632812 69.363281 C 74.632812 69.222656 74.519531 69.109375 74.382812 69.109375 C 74.242188 69.109375 74.132812 69.222656 74.132812 69.363281 L 74.132812 71.054688 L 73.898438 71.292969 L 72.210938 71.292969 C 72.074219 71.292969 71.960938 71.402344 71.960938 71.542969 C 71.960938 71.683594 72.074219 71.792969 72.210938 71.792969 L 73.898438 71.792969 L 74.132812 72.03125 L 74.132812 73.722656 C 74.132812 73.863281 74.242188 73.976562 74.382812 73.976562 C 74.519531 73.976562 74.632812 73.863281 74.632812 73.722656 L 74.632812 72.03125 L 74.867188 71.792969 L 76.550781 71.792969 C 76.6875 71.792969 76.800781 71.683594 76.800781 71.542969 C 76.800781 71.402344 76.6875 71.292969 76.550781 71.292969 Z M 76.550781 71.292969 " fill-opacity="1" fill-rule="nonzero"/><g clip-path="url(#267483c5eb)"><path fill="#000000" d="M 50.28125 62.488281 C 51.222656 63.179688 51.820312 64.289062 51.925781 65.535156 C 51.988281 66.3125 51.859375 67.0625 51.558594 67.710938 C 52.753906 67.152344 54.875 66.730469 57.382812 68.722656 C 57.734375 68.863281 58.015625 69.027344 58.21875 69.15625 C 58.246094 68.960938 58.261719 68.761719 58.261719 68.5625 C 58.261719 66.21875 56.363281 64.3125 54.03125 64.3125 C 53.808594 64.3125 53.578125 64.328125 53.351562 64.367188 C 53.285156 64.375 53.21875 64.359375 53.160156 64.320312 C 53.105469 64.277344 53.070312 64.21875 53.0625 64.148438 C 52.769531 61.773438 50.746094 59.976562 48.359375 59.976562 C 47.847656 59.976562 47.347656 60.058594 46.867188 60.222656 C 46.882812 60.496094 46.886719 61.023438 46.773438 61.601562 C 47.445312 61.484375 48.832031 61.425781 50.28125 62.488281 Z M 54.945312 65.433594 C 55.324219 65.527344 55.691406 65.695312 56.015625 65.917969 C 56.183594 66.027344 56.328125 66.167969 56.472656 66.300781 C 56.597656 66.457031 56.738281 66.597656 56.832031 66.773438 C 57.050781 67.105469 57.171875 67.488281 57.238281 67.863281 C 57.039062 67.53125 56.863281 67.207031 56.621094 66.929688 C 56.507812 66.78125 56.375 66.660156 56.25 66.53125 C 56.109375 66.414062 55.980469 66.289062 55.824219 66.195312 C 55.53125 65.984375 55.207031 65.820312 54.863281 65.683594 C 54.523438 65.546875 54.164062 65.441406 53.789062 65.363281 C 54.171875 65.300781 54.566406 65.339844 54.945312 65.433594 Z M 53.546875 65.925781 C 53.8125 65.933594 54.082031 65.976562 54.335938 66.0625 C 54.589844 66.144531 54.828125 66.285156 55.039062 66.457031 C 55.25 66.625 55.410156 66.855469 55.511719 67.097656 C 55.296875 66.9375 55.105469 66.785156 54.886719 66.671875 C 54.671875 66.558594 54.457031 66.453125 54.226562 66.382812 C 53.996094 66.304688 53.761719 66.242188 53.515625 66.1875 C 53.273438 66.136719 53.027344 66.089844 52.765625 66.046875 C 53.019531 65.953125 53.285156 65.925781 53.546875 65.925781 Z M 56.34375 75.640625 C 56.273438 75.703125 56.203125 75.757812 56.128906 75.8125 C 55.859375 76.003906 55.398438 76.238281 54.785156 76.238281 C 54.414062 76.238281 53.988281 76.152344 53.507812 75.917969 C 52.261719 75.304688 51.5 74.207031 51.421875 72.902344 C 51.332031 71.449219 52.121094 69.996094 53.480469 69.109375 C 54.382812 68.519531 55.25 68.359375 56.003906 68.402344 C 53.007812 66.769531 50.878906 68.714844 50.855469 68.738281 C 50.757812 68.832031 50.601562 68.828125 50.503906 68.734375 C 50.410156 68.636719 50.410156 68.480469 50.503906 68.378906 C 51.167969 67.695312 51.515625 66.648438 51.425781 65.574219 C 51.332031 64.476562 50.808594 63.5 49.984375 62.894531 C 48.472656 61.785156 47.023438 62.046875 46.628906 62.144531 C 46.351562 62.980469 45.769531 63.816406 44.578125 64.128906 C 44.289062 64.207031 44.015625 64.242188 43.757812 64.242188 C 42.667969 64.242188 41.84375 63.628906 41.460938 62.910156 C 40.976562 62 41.140625 60.984375 41.882812 60.320312 C 42.453125 59.8125 43.019531 59.585938 43.5625 59.644531 C 44.265625 59.722656 44.660156 60.253906 44.675781 60.273438 C 44.757812 60.386719 44.734375 60.542969 44.621094 60.625 C 44.507812 60.707031 44.351562 60.683594 44.269531 60.570312 C 44.269531 60.566406 43.984375 60.191406 43.503906 60.144531 C 43.101562 60.101562 42.671875 60.289062 42.214844 60.695312 C 41.648438 61.199219 41.527344 61.972656 41.898438 62.671875 C 42.253906 63.339844 43.132812 63.992188 44.449219 63.644531 C 45.472656 63.375 45.960938 62.644531 46.1875 61.917969 C 46.191406 61.882812 46.203125 61.847656 46.21875 61.816406 C 46.445312 61.023438 46.371094 60.25 46.351562 60.101562 C 45.71875 57.953125 43.722656 56.453125 41.492188 56.453125 C 39.390625 56.453125 37.535156 57.730469 36.769531 59.699219 C 36.742188 59.773438 36.683594 59.824219 36.609375 59.847656 C 36.539062 59.871094 36.460938 59.859375 36.394531 59.816406 C 35.867188 59.449219 35.246094 59.257812 34.601562 59.257812 C 33.347656 59.257812 32.207031 60 31.695312 61.152344 C 31.53125 61.597656 31.21875 62.84375 31.664062 63.441406 C 32.058594 63.96875 32.832031 64.277344 33.5 64.171875 C 33.921875 64.109375 34.488281 63.847656 34.789062 62.988281 C 35.019531 62.332031 34.871094 61.835938 34.386719 61.664062 C 33.921875 61.5 33.289062 61.699219 33.089844 62.257812 C 33.042969 62.390625 32.902344 62.457031 32.769531 62.410156 C 32.640625 62.363281 32.570312 62.222656 32.617188 62.089844 C 32.917969 61.246094 33.859375 60.941406 34.550781 61.1875 C 35.125 61.390625 35.652344 62.03125 35.261719 63.15625 C 34.960938 64.007812 34.363281 64.546875 33.574219 64.667969 C 33.460938 64.6875 33.347656 64.695312 33.230469 64.695312 C 32.476562 64.695312 31.703125 64.332031 31.261719 63.742188 C 30.65625 62.9375 31.042969 61.527344 31.183594 61.097656 C 30.214844 59.695312 28.640625 58.859375 26.941406 58.859375 C 24.371094 58.859375 22.167969 60.789062 21.824219 63.347656 C 21.820312 63.390625 21.773438 64.117188 22.230469 64.617188 C 22.542969 64.957031 23.03125 65.125 23.675781 65.117188 C 24.738281 65.101562 25.742188 64.613281 26.175781 63.898438 C 26.347656 63.613281 26.5 63.160156 26.234375 62.628906 C 26.074219 62.308594 25.875 62.125 25.640625 62.082031 C 25.246094 62.007812 24.789062 62.339844 24.644531 62.472656 C 24.542969 62.566406 24.386719 62.5625 24.289062 62.460938 C 24.199219 62.359375 24.203125 62.199219 24.300781 62.105469 C 24.332031 62.078125 25.003906 61.453125 25.730469 61.585938 C 26.128906 61.65625 26.445312 61.933594 26.683594 62.40625 C 26.96875 62.980469 26.9375 63.601562 26.601562 64.160156 C 26.082031 65.015625 24.910156 65.601562 23.683594 65.617188 C 23.664062 65.617188 23.644531 65.617188 23.628906 65.617188 C 22.855469 65.617188 22.261719 65.394531 21.859375 64.953125 C 21.476562 64.539062 21.363281 64.027344 21.332031 63.679688 C 18.167969 64.878906 13.8125 65.628906 9.851562 63.238281 C 10.996094 64.714844 13.832031 67.300781 19.605469 67.058594 C 19.609375 67.058594 19.617188 67.058594 19.621094 67.058594 C 19.628906 67.058594 19.632812 67.058594 19.640625 67.058594 C 19.640625 67.058594 19.644531 67.0625 19.652344 67.0625 C 19.660156 67.0625 19.667969 67.0625 19.675781 67.066406 C 19.683594 67.066406 19.695312 67.070312 19.699219 67.074219 C 19.707031 67.074219 19.71875 67.078125 19.726562 67.082031 C 19.734375 67.085938 19.742188 67.089844 19.75 67.097656 C 19.753906 67.101562 19.761719 67.105469 19.769531 67.109375 C 19.777344 67.117188 19.785156 67.125 19.796875 67.136719 C 19.796875 67.136719 19.800781 67.140625 19.804688 67.144531 C 19.804688 67.144531 19.804688 67.144531 19.808594 67.144531 C 19.820312 67.160156 19.828125 67.171875 19.835938 67.1875 C 19.839844 67.191406 19.839844 67.195312 19.84375 67.199219 C 19.847656 67.210938 19.855469 67.222656 19.855469 67.238281 C 19.859375 67.242188 19.859375 67.25 19.859375 67.253906 C 19.863281 67.265625 19.867188 67.277344 19.867188 67.289062 C 19.867188 67.296875 19.867188 67.304688 19.867188 67.3125 C 19.867188 67.316406 19.867188 67.324219 19.867188 67.328125 C 19.777344 68.28125 20.460938 69.332031 21.558594 69.945312 C 22.753906 70.609375 24.054688 70.558594 25.046875 69.804688 C 27.054688 68.277344 29.894531 69.5 30.015625 69.554688 C 30.125 69.601562 30.183594 69.722656 30.15625 69.839844 C 30.132812 69.957031 30.027344 70.039062 29.90625 70.035156 C 26.605469 69.894531 26.433594 72.601562 26.429688 72.714844 L 26.425781 72.753906 C 26.425781 72.769531 26.425781 72.789062 26.425781 72.804688 C 26.425781 75.433594 28.554688 77.570312 31.167969 77.570312 C 31.890625 77.570312 32.582031 77.410156 33.230469 77.09375 C 33.394531 76.941406 34.359375 75.980469 34.285156 74.949219 C 34.246094 74.382812 33.890625 73.875 33.234375 73.441406 C 31.949219 72.589844 30.992188 72.832031 30.53125 73.34375 C 30.074219 73.847656 30.042969 74.59375 30.457031 75.113281 C 30.542969 75.222656 30.523438 75.378906 30.417969 75.46875 C 30.308594 75.554688 30.152344 75.535156 30.066406 75.425781 C 29.496094 74.710938 29.535156 73.691406 30.160156 73.003906 C 30.761719 72.339844 31.960938 71.996094 33.507812 73.023438 C 34.304688 73.546875 34.734375 74.183594 34.785156 74.914062 C 34.863281 76.050781 33.992188 77.039062 33.660156 77.375 C 34.382812 79.398438 36.277344 80.75 38.429688 80.75 C 39.007812 80.75 39.566406 80.652344 40.101562 80.464844 C 38.199219 79.859375 37.566406 78.324219 37.628906 77.089844 C 37.710938 75.511719 38.941406 73.847656 41.136719 73.722656 C 42.84375 73.625 43.449219 74.242188 43.660156 74.617188 C 43.921875 75.089844 43.863281 75.683594 43.5 76.207031 C 43.078125 76.816406 42.113281 77.453125 40.773438 77.242188 C 40.636719 77.21875 40.542969 77.09375 40.566406 76.957031 C 40.585938 76.820312 40.714844 76.726562 40.851562 76.746094 C 41.960938 76.921875 42.753906 76.410156 43.089844 75.921875 C 43.339844 75.558594 43.390625 75.164062 43.222656 74.863281 C 42.964844 74.394531 42.214844 74.164062 41.167969 74.222656 C 39.175781 74.339844 38.195312 75.804688 38.128906 77.113281 C 38.070312 78.292969 38.765625 79.792969 40.933594 80.144531 C 43.046875 80.488281 45.117188 79.675781 46.335938 78.019531 C 47.535156 76.390625 47.648438 74.292969 46.65625 72.257812 C 44.464844 67.777344 39.597656 70.105469 39.390625 70.207031 C 39.355469 70.226562 39.320312 70.234375 39.285156 70.234375 C 39.28125 70.234375 39.28125 70.234375 39.28125 70.234375 C 39.277344 70.234375 39.277344 70.234375 39.277344 70.234375 C 39.257812 70.234375 39.242188 70.230469 39.222656 70.226562 C 39.21875 70.226562 39.214844 70.226562 39.210938 70.222656 C 39.207031 70.222656 39.203125 70.222656 39.199219 70.21875 C 39.195312 70.21875 39.191406 70.214844 39.183594 70.210938 C 39.175781 70.207031 39.164062 70.203125 39.15625 70.199219 C 39.140625 70.191406 39.128906 70.179688 39.117188 70.167969 C 39.117188 70.167969 39.117188 70.167969 39.113281 70.167969 C 39.089844 70.144531 39.070312 70.117188 39.058594 70.089844 C 39.050781 70.078125 38.472656 68.90625 37.277344 68.804688 C 36.109375 68.710938 35.667969 69.546875 35.648438 69.582031 C 35.585938 69.703125 35.433594 69.753906 35.3125 69.691406 C 35.191406 69.628906 35.140625 69.476562 35.203125 69.355469 C 35.226562 69.308594 35.804688 68.179688 37.316406 68.304688 C 38.355469 68.390625 38.996094 69.089844 39.296875 69.523438 C 39.785156 68.910156 41.0625 67.65625 43.40625 67.605469 C 46.445312 67.542969 47.789062 69.472656 47.847656 69.554688 C 47.925781 69.667969 47.894531 69.824219 47.78125 69.902344 C 47.667969 69.980469 47.511719 69.949219 47.433594 69.835938 C 47.386719 69.761719 46.175781 68.042969 43.417969 68.105469 C 41.738281 68.144531 40.667969 68.847656 40.078125 69.410156 C 41.746094 68.890625 45.296875 68.320312 47.109375 72.035156 C 48.1875 74.242188 48.054688 76.53125 46.742188 78.3125 C 45.613281 79.847656 43.816406 80.71875 41.890625 80.71875 C 41.878906 80.71875 41.863281 80.71875 41.851562 80.71875 C 42.539062 81.144531 43.214844 81.476562 43.871094 81.714844 C 44 81.761719 44.070312 81.90625 44.019531 82.035156 C 43.984375 82.136719 43.886719 82.203125 43.785156 82.203125 C 43.757812 82.203125 43.730469 82.195312 43.699219 82.1875 C 43.007812 81.9375 42.296875 81.582031 41.574219 81.136719 C 42.695312 82.929688 44.664062 84.042969 46.816406 84.042969 C 49.1875 84.042969 51.378906 82.652344 52.40625 80.503906 C 52.457031 80.398438 52.570312 80.34375 52.683594 80.367188 C 53.855469 80.617188 55.035156 80.191406 55.785156 79.300781 C 55.785156 79.296875 55.785156 79.296875 55.789062 79.296875 C 56.980469 77.910156 56.59375 76.3125 56.34375 75.640625 Z M 16.792969 66.042969 C 16.527344 66.066406 16.261719 66.066406 15.996094 66.050781 C 15.730469 66.035156 15.464844 65.996094 15.203125 65.9375 C 14.941406 65.882812 14.683594 65.804688 14.441406 65.6875 C 14.710938 65.667969 14.976562 65.675781 15.238281 65.679688 C 15.5 65.6875 15.757812 65.699219 16.019531 65.714844 C 16.277344 65.730469 16.539062 65.753906 16.800781 65.78125 C 17.0625 65.8125 17.324219 65.847656 17.585938 65.90625 C 17.324219 65.988281 17.058594 66.023438 16.792969 66.042969 Z M 17.121094 65.484375 C 16.667969 65.472656 16.214844 65.433594 15.765625 65.371094 C 15.542969 65.339844 15.320312 65.296875 15.097656 65.253906 C 14.878906 65.203125 14.65625 65.152344 14.441406 65.085938 C 14.667969 65.078125 14.894531 65.085938 15.117188 65.089844 C 15.34375 65.09375 15.566406 65.101562 15.789062 65.113281 C 16.234375 65.121094 16.679688 65.144531 17.125 65.148438 C 17.570312 65.160156 18.015625 65.164062 18.460938 65.15625 C 18.90625 65.148438 19.351562 65.136719 19.800781 65.085938 C 19.382812 65.269531 18.929688 65.359375 18.480469 65.417969 C 18.027344 65.476562 17.574219 65.488281 17.121094 65.484375 Z M 19.894531 65.890625 C 19.703125 65.925781 19.503906 65.941406 19.308594 65.929688 C 19.117188 65.917969 18.917969 65.886719 18.734375 65.800781 C 19.117188 65.699219 19.46875 65.632812 19.828125 65.558594 L 20.367188 65.457031 C 20.550781 65.425781 20.730469 65.386719 20.933594 65.371094 C 20.648438 65.652344 20.273438 65.808594 19.894531 65.890625 Z M 26.71875 60.605469 C 26.492188 60.582031 26.253906 60.574219 26.015625 60.570312 C 25.777344 60.566406 25.539062 60.566406 25.285156 60.554688 C 25.507812 60.429688 25.75 60.355469 25.996094 60.308594 C 26.242188 60.261719 26.496094 60.246094 26.753906 60.273438 C 27.003906 60.300781 27.261719 60.359375 27.492188 60.496094 C 27.722656 60.625 27.917969 60.824219 28.007812 61.0625 C 27.804688 60.90625 27.601562 60.804688 27.386719 60.734375 C 27.175781 60.660156 26.945312 60.632812 26.71875 60.605469 Z M 27.929688 66.101562 C 28.132812 66.101562 28.335938 66.125 28.527344 66.183594 C 28.722656 66.238281 28.910156 66.316406 29.074219 66.449219 C 28.667969 66.449219 28.300781 66.429688 27.929688 66.433594 C 27.742188 66.433594 27.558594 66.433594 27.371094 66.441406 C 27.179688 66.441406 26.992188 66.457031 26.785156 66.449219 C 27.113281 66.203125 27.527344 66.101562 27.929688 66.101562 Z M 25.84375 67.109375 C 26.113281 66.976562 26.402344 66.878906 26.695312 66.816406 C 26.992188 66.75 27.292969 66.722656 27.589844 66.730469 C 27.890625 66.738281 28.191406 66.777344 28.476562 66.882812 C 27.882812 66.945312 27.320312 67.019531 26.761719 67.144531 C 26.484375 67.203125 26.207031 67.269531 25.933594 67.351562 C 25.65625 67.425781 25.386719 67.523438 25.09375 67.605469 C 25.316406 67.40625 25.570312 67.234375 25.84375 67.109375 Z M 27.53125 67.757812 C 27.203125 67.804688 26.878906 67.875 26.566406 67.988281 C 26.40625 68.039062 26.257812 68.109375 26.105469 68.167969 L 25.667969 68.410156 C 25.066406 68.757812 24.398438 69.042969 23.679688 69.085938 C 23.324219 69.105469 22.953125 69.054688 22.628906 68.902344 C 22.304688 68.75 22.039062 68.5 21.851562 68.207031 C 22.097656 68.453125 22.375 68.652344 22.691406 68.75 C 23 68.851562 23.332031 68.867188 23.65625 68.828125 C 23.980469 68.78125 24.300781 68.691406 24.609375 68.570312 C 24.917969 68.449219 25.210938 68.296875 25.5 68.121094 L 25.96875 67.875 C 26.136719 67.8125 26.296875 67.734375 26.46875 67.691406 C 26.808594 67.585938 27.15625 67.523438 27.507812 67.503906 C 28.207031 67.460938 28.917969 67.574219 29.542969 67.867188 C 28.875 67.703125 28.191406 67.675781 27.53125 67.757812 Z M 29.753906 61.550781 L 29.679688 61.433594 C 29.652344 61.390625 29.617188 61.359375 29.589844 61.320312 L 29.410156 61.105469 L 29.210938 60.914062 C 29.148438 60.847656 29.074219 60.792969 29 60.738281 C 28.925781 60.683594 28.859375 60.621094 28.777344 60.582031 L 28.542969 60.441406 L 28.296875 60.328125 C 27.960938 60.179688 27.601562 60.082031 27.234375 60.011719 C 26.867188 59.949219 26.488281 59.90625 26.097656 59.886719 C 26.472656 59.769531 26.871094 59.734375 27.261719 59.753906 C 27.660156 59.777344 28.054688 59.863281 28.425781 60.019531 C 28.800781 60.175781 29.136719 60.425781 29.398438 60.730469 C 29.460938 60.8125 29.527344 60.886719 29.585938 60.96875 L 29.726562 61.234375 C 29.75 61.277344 29.777344 61.320312 29.792969 61.367188 L 29.839844 61.507812 C 29.871094 61.601562 29.898438 61.699219 29.921875 61.792969 C 29.859375 61.714844 29.804688 61.632812 29.753906 61.550781 Z M 28.410156 72.902344 C 28.351562 73.0625 28.300781 73.226562 28.269531 73.410156 C 28.25 73.496094 28.242188 73.589844 28.222656 73.683594 C 28.210938 73.78125 28.203125 73.878906 28.179688 73.980469 C 28.132812 73.890625 28.09375 73.796875 28.058594 73.699219 C 28.039062 73.597656 28.011719 73.5 28.007812 73.394531 C 27.992188 73.1875 28.027344 72.96875 28.105469 72.769531 C 28.191406 72.570312 28.328125 72.390625 28.496094 72.265625 C 28.667969 72.140625 28.867188 72.054688 29.074219 72.054688 C 28.761719 72.316406 28.546875 72.585938 28.410156 72.902344 Z M 29.019531 71.523438 C 28.738281 71.640625 28.476562 71.792969 28.269531 71.992188 C 28.058594 72.1875 27.898438 72.433594 27.800781 72.71875 C 27.703125 73 27.660156 73.3125 27.625 73.640625 C 27.519531 73.328125 27.488281 72.988281 27.546875 72.652344 C 27.578125 72.484375 27.636719 72.316406 27.71875 72.160156 C 27.804688 72.007812 27.914062 71.867188 28.042969 71.746094 C 28.296875 71.503906 28.617188 71.355469 28.941406 71.273438 C 29.265625 71.195312 29.601562 71.175781 29.921875 71.242188 C 29.601562 71.316406 29.300781 71.40625 29.019531 71.523438 Z M 29.894531 70.734375 C 29.585938 70.753906 29.28125 70.804688 28.992188 70.882812 C 28.84375 70.917969 28.703125 70.976562 28.558594 71.023438 C 28.421875 71.089844 28.28125 71.144531 28.148438 71.222656 C 27.875 71.363281 27.636719 71.5625 27.371094 71.753906 C 27.527344 71.472656 27.738281 71.203125 28.007812 71.003906 C 28.136719 70.890625 28.289062 70.820312 28.433594 70.734375 C 28.585938 70.667969 28.742188 70.597656 28.90625 70.558594 C 29.230469 70.472656 29.566406 70.445312 29.898438 70.472656 C 30.226562 70.5 30.550781 70.578125 30.84375 70.730469 C 30.515625 70.714844 30.203125 70.714844 29.894531 70.734375 Z M 41.113281 71.246094 C 41.386719 71.101562 41.683594 71.023438 41.988281 70.988281 C 42.292969 70.949219 42.605469 70.953125 42.914062 71.011719 C 43.222656 71.070312 43.519531 71.191406 43.78125 71.367188 C 44.042969 71.539062 44.25 71.789062 44.390625 72.058594 C 44.140625 71.878906 43.910156 71.707031 43.652344 71.59375 C 43.394531 71.480469 43.125 71.394531 42.847656 71.34375 C 42.292969 71.234375 41.71875 71.230469 41.113281 71.246094 Z M 43.535156 72.363281 C 43.378906 72.277344 43.21875 72.203125 43.058594 72.132812 C 42.734375 71.988281 42.402344 71.882812 42.027344 71.757812 C 42.214844 71.679688 42.417969 71.667969 42.613281 71.679688 C 42.8125 71.695312 43.007812 71.742188 43.191406 71.824219 C 43.554688 71.984375 43.878906 72.265625 44.035156 72.636719 C 43.851562 72.546875 43.699219 72.445312 43.535156 72.363281 Z M 43.191406 77.417969 C 43.246094 77.355469 43.300781 77.292969 43.351562 77.238281 C 43.453125 77.117188 43.558594 77.007812 43.648438 76.886719 C 43.742188 76.769531 43.828125 76.648438 43.902344 76.519531 C 43.980469 76.386719 44.046875 76.25 44.105469 76.082031 C 44.1875 76.246094 44.183594 76.4375 44.144531 76.613281 C 44.105469 76.789062 44.019531 76.953125 43.910156 77.09375 C 43.800781 77.238281 43.664062 77.347656 43.519531 77.441406 C 43.441406 77.488281 43.363281 77.519531 43.285156 77.554688 C 43.203125 77.578125 43.117188 77.605469 43.03125 77.617188 C 43.082031 77.539062 43.136719 77.476562 43.191406 77.417969 Z M 46.035156 75.691406 C 46.046875 76.171875 45.933594 76.660156 45.738281 77.105469 C 45.683594 77.21875 45.632812 77.328125 45.570312 77.433594 C 45.503906 77.539062 45.441406 77.644531 45.371094 77.746094 C 45.296875 77.84375 45.214844 77.9375 45.136719 78.035156 C 45.054688 78.125 44.960938 78.207031 44.875 78.296875 C 44.789062 78.386719 44.679688 78.449219 44.582031 78.523438 C 44.484375 78.597656 44.382812 78.675781 44.273438 78.726562 L 43.945312 78.898438 C 43.832031 78.941406 43.714844 78.980469 43.601562 79.023438 L 43.429688 79.082031 C 43.371094 79.097656 43.3125 79.109375 43.25 79.121094 L 42.894531 79.191406 C 42.65625 79.21875 42.414062 79.222656 42.175781 79.222656 C 42.40625 79.148438 42.636719 79.097656 42.859375 79.027344 L 43.1875 78.910156 L 43.347656 78.851562 L 43.507812 78.777344 C 43.609375 78.726562 43.710938 78.679688 43.816406 78.632812 L 44.109375 78.453125 C 44.210938 78.398438 44.300781 78.328125 44.390625 78.257812 C 44.476562 78.1875 44.574219 78.125 44.652344 78.042969 C 44.996094 77.746094 45.273438 77.382812 45.503906 76.984375 C 45.734375 76.589844 45.910156 76.152344 46.035156 75.691406 Z M 44.816406 76.429688 C 45.03125 75.890625 45.148438 75.308594 45.28125 74.707031 C 45.355469 75.011719 45.359375 75.324219 45.332031 75.632812 C 45.304688 75.945312 45.246094 76.253906 45.128906 76.550781 C 45.011719 76.84375 44.847656 77.128906 44.617188 77.355469 C 44.382812 77.582031 44.089844 77.738281 43.785156 77.785156 C 44.039062 77.605469 44.25 77.410156 44.417969 77.183594 C 44.585938 76.953125 44.707031 76.695312 44.816406 76.429688 Z M 40.75 70.53125 C 41.152344 70.355469 41.589844 70.25 42.035156 70.226562 C 42.148438 70.230469 42.257812 70.222656 42.371094 70.230469 L 42.703125 70.269531 C 42.816406 70.289062 42.921875 70.324219 43.03125 70.351562 C 43.082031 70.367188 43.136719 70.378906 43.191406 70.398438 L 43.339844 70.46875 C 43.757812 70.628906 44.101562 70.925781 44.390625 71.242188 C 44.007812 71.03125 43.652344 70.816406 43.25 70.710938 C 42.859375 70.59375 42.453125 70.53125 42.050781 70.558594 C 41.644531 70.574219 41.238281 70.652344 40.839844 70.769531 C 40.445312 70.894531 40.054688 71.046875 39.667969 71.238281 C 39.972656 70.9375 40.351562 70.707031 40.75 70.53125 Z M 36.410156 76.324219 C 36.46875 76.089844 36.566406 75.867188 36.730469 75.691406 C 36.652344 76.152344 36.644531 76.578125 36.695312 77.003906 C 36.726562 77.214844 36.757812 77.429688 36.8125 77.640625 C 36.824219 77.695312 36.839844 77.746094 36.855469 77.800781 L 36.898438 77.964844 C 36.925781 78.074219 36.964844 78.179688 36.984375 78.300781 C 36.902344 78.21875 36.824219 78.132812 36.75 78.035156 C 36.6875 77.9375 36.613281 77.839844 36.566406 77.730469 C 36.460938 77.519531 36.394531 77.285156 36.363281 77.042969 C 36.335938 76.804688 36.351562 76.558594 36.410156 76.324219 Z M 35.851562 75.597656 C 35.917969 75.371094 36.019531 75.152344 36.179688 74.972656 C 36.109375 75.433594 36.085938 75.859375 36.089844 76.289062 C 36.097656 76.503906 36.101562 76.722656 36.121094 76.941406 C 36.128906 77.050781 36.144531 77.160156 36.152344 77.273438 C 36.160156 77.382812 36.175781 77.496094 36.175781 77.617188 C 36.039062 77.429688 35.933594 77.214844 35.867188 76.992188 C 35.792969 76.769531 35.761719 76.53125 35.757812 76.296875 C 35.753906 76.058594 35.785156 75.820312 35.851562 75.597656 Z M 35.316406 75.242188 C 35.34375 75.101562 35.394531 74.96875 35.464844 74.84375 C 35.535156 74.71875 35.625 74.601562 35.753906 74.515625 C 35.746094 74.667969 35.730469 74.800781 35.710938 74.929688 C 35.691406 75.058594 35.667969 75.1875 35.644531 75.3125 C 35.617188 75.4375 35.589844 75.558594 35.554688 75.6875 C 35.519531 75.8125 35.488281 75.941406 35.425781 76.082031 C 35.273438 75.820312 35.261719 75.519531 35.316406 75.242188 Z M 42.292969 58.183594 C 42.035156 58.234375 41.785156 58.285156 41.539062 58.347656 C 41.292969 58.410156 41.046875 58.480469 40.808594 58.566406 C 40.570312 58.65625 40.339844 58.765625 40.09375 58.886719 C 40.246094 58.660156 40.460938 58.472656 40.695312 58.332031 C 40.933594 58.191406 41.191406 58.089844 41.460938 58.023438 C 41.726562 57.957031 42 57.925781 42.269531 57.925781 C 42.539062 57.925781 42.8125 57.949219 43.070312 58.03125 C 42.804688 58.085938 42.546875 58.132812 42.292969 58.183594 Z M 38.96875 58.367188 C 39.28125 58.042969 39.679688 57.8125 40.09375 57.648438 C 40.199219 57.613281 40.300781 57.570312 40.410156 57.542969 L 40.734375 57.464844 C 40.839844 57.4375 40.953125 57.425781 41.058594 57.414062 C 41.167969 57.398438 41.277344 57.390625 41.386719 57.378906 C 41.609375 57.375 41.828125 57.375 42.042969 57.382812 C 42.257812 57.410156 42.476562 57.433594 42.6875 57.472656 C 42.472656 57.507812 42.257812 57.527344 42.046875 57.546875 C 41.835938 57.578125 41.625 57.613281 41.417969 57.636719 C 41.003906 57.726562 40.59375 57.804688 40.210938 57.964844 C 39.828125 58.109375 39.460938 58.300781 39.140625 58.5625 C 38.824219 58.824219 38.539062 59.136719 38.347656 59.527344 C 38.410156 59.089844 38.65625 58.6875 38.96875 58.367188 Z M 39.003906 67.40625 C 38.886719 67.546875 38.789062 67.699219 38.6875 67.863281 C 38.71875 67.675781 38.78125 67.492188 38.867188 67.316406 C 38.957031 67.144531 39.066406 66.980469 39.199219 66.835938 C 39.460938 66.542969 39.785156 66.320312 40.128906 66.144531 C 40.472656 65.972656 40.839844 65.847656 41.210938 65.773438 C 41.582031 65.695312 41.964844 65.652344 42.339844 65.683594 C 41.980469 65.792969 41.625 65.902344 41.28125 66.023438 C 40.9375 66.148438 40.597656 66.277344 40.277344 66.441406 C 39.957031 66.601562 39.652344 66.792969 39.378906 67.023438 C 39.246094 67.140625 39.117188 67.265625 39.003906 67.40625 Z M 42 66.582031 C 41.65625 66.652344 41.316406 66.742188 40.996094 66.875 C 40.671875 66.996094 40.371094 67.171875 40.085938 67.371094 C 39.792969 67.566406 39.546875 67.824219 39.28125 68.082031 C 39.433594 67.746094 39.636719 67.417969 39.921875 67.171875 L 40.023438 67.070312 C 40.058594 67.039062 40.097656 67.015625 40.136719 66.984375 C 40.210938 66.929688 40.285156 66.871094 40.367188 66.820312 C 40.53125 66.726562 40.695312 66.632812 40.875 66.566406 C 41.226562 66.429688 41.597656 66.34375 41.96875 66.324219 C 42.339844 66.308594 42.714844 66.335938 43.070312 66.453125 C 42.703125 66.472656 42.351562 66.515625 42 66.582031 Z M 50.222656 64.527344 C 50.425781 64.828125 50.570312 65.175781 50.617188 65.542969 C 50.636719 65.632812 50.632812 65.726562 50.640625 65.820312 C 50.644531 65.910156 50.648438 66.003906 50.632812 66.09375 L 50.601562 66.363281 C 50.582031 66.453125 50.558594 66.539062 50.53125 66.628906 L 50.496094 66.757812 L 50.445312 66.882812 L 50.335938 67.125 C 50.25 67.28125 50.148438 67.429688 50.046875 67.570312 C 50.085938 67.394531 50.140625 67.234375 50.183594 67.066406 L 50.234375 66.816406 C 50.246094 66.777344 50.253906 66.734375 50.265625 66.695312 L 50.28125 66.570312 C 50.289062 66.488281 50.300781 66.40625 50.3125 66.324219 L 50.316406 66.078125 C 50.324219 65.996094 50.316406 65.917969 50.308594 65.835938 C 50.300781 65.753906 50.304688 65.671875 50.285156 65.59375 C 50.246094 65.273438 50.144531 64.960938 50 64.660156 C 49.855469 64.359375 49.671875 64.078125 49.449219 63.808594 C 49.761719 63.972656 50.023438 64.230469 50.222656 64.527344 Z M 47.410156 63.546875 C 47.761719 63.511719 48.125 63.578125 48.457031 63.722656 C 48.789062 63.867188 49.101562 64.089844 49.328125 64.386719 C 49.390625 64.457031 49.429688 64.539062 49.484375 64.617188 L 49.554688 64.738281 C 49.578125 64.777344 49.59375 64.820312 49.613281 64.863281 C 49.648438 64.949219 49.6875 65.03125 49.714844 65.117188 C 49.738281 65.207031 49.761719 65.296875 49.78125 65.382812 C 49.804688 65.46875 49.816406 65.558594 49.820312 65.652344 L 49.839844 65.917969 C 49.832031 66.097656 49.816406 66.277344 49.789062 66.449219 C 49.742188 66.277344 49.714844 66.105469 49.675781 65.9375 L 49.605469 65.691406 C 49.59375 65.652344 49.585938 65.609375 49.574219 65.570312 C 49.5625 65.53125 49.542969 65.492188 49.53125 65.453125 C 49.496094 65.375 49.46875 65.300781 49.441406 65.21875 C 49.40625 65.144531 49.367188 65.074219 49.328125 65 L 49.273438 64.890625 L 49.207031 64.792969 C 49.15625 64.726562 49.125 64.652344 49.066406 64.59375 C 48.871094 64.335938 48.621094 64.125 48.339844 63.953125 C 48.058594 63.78125 47.746094 63.648438 47.410156 63.546875 Z M 49.082031 77.464844 C 49.25 77 49.339844 76.503906 49.453125 75.984375 C 49.53125 76.242188 49.554688 76.511719 49.542969 76.78125 C 49.53125 77.046875 49.488281 77.320312 49.394531 77.578125 C 49.300781 77.835938 49.15625 78.082031 48.96875 78.289062 C 48.769531 78.488281 48.523438 78.628906 48.261719 78.683594 C 48.464844 78.503906 48.628906 78.324219 48.765625 78.125 C 48.894531 77.914062 48.996094 77.695312 49.082031 77.464844 Z M 48.261719 64.996094 C 48.457031 65.070312 48.628906 65.199219 48.777344 65.347656 C 48.921875 65.496094 49.046875 65.671875 49.136719 65.863281 C 49.230469 66.054688 49.285156 66.265625 49.296875 66.476562 C 49.316406 66.6875 49.277344 66.902344 49.195312 67.097656 C 49.136719 66.890625 49.105469 66.703125 49.042969 66.523438 C 48.984375 66.347656 48.917969 66.171875 48.835938 66.007812 C 48.679688 65.667969 48.476562 65.351562 48.261719 64.996094 Z M 47.671875 77.972656 C 47.75 77.867188 47.820312 77.761719 47.898438 77.652344 C 48.046875 77.4375 48.191406 77.214844 48.410156 76.996094 C 48.429688 77.152344 48.402344 77.300781 48.363281 77.441406 C 48.320312 77.585938 48.257812 77.722656 48.167969 77.84375 C 48.082031 77.96875 47.976562 78.082031 47.851562 78.167969 C 47.71875 78.253906 47.566406 78.3125 47.410156 78.300781 C 47.511719 78.179688 47.59375 78.078125 47.671875 77.972656 Z M 47.382812 80.171875 L 47.636719 80.050781 C 47.71875 80.007812 47.804688 79.972656 47.882812 79.921875 C 47.964844 79.875 48.042969 79.828125 48.125 79.785156 C 48.203125 79.742188 48.273438 79.683594 48.351562 79.632812 C 48.507812 79.539062 48.644531 79.417969 48.785156 79.300781 C 49.054688 79.0625 49.292969 78.78125 49.492188 78.476562 C 49.691406 78.164062 49.855469 77.828125 49.964844 77.457031 C 49.992188 77.847656 49.890625 78.242188 49.71875 78.601562 C 49.550781 78.960938 49.300781 79.28125 49.007812 79.550781 C 48.699219 79.804688 48.363281 80.023438 47.992188 80.160156 C 47.8125 80.238281 47.617188 80.273438 47.433594 80.328125 C 47.238281 80.363281 47.046875 80.386719 46.855469 80.398438 C 47.03125 80.3125 47.210938 80.25 47.382812 80.171875 Z M 51.882812 79.347656 C 51.867188 79.382812 49.992188 82.679688 46.257812 82.679688 C 46.183594 82.679688 46.105469 82.675781 46.027344 82.671875 C 45.886719 82.667969 45.78125 82.550781 45.785156 82.414062 C 45.789062 82.273438 45.910156 82.160156 46.042969 82.171875 C 49.621094 82.296875 51.429688 79.136719 51.449219 79.105469 C 51.515625 78.984375 51.667969 78.941406 51.789062 79.007812 C 51.910156 79.074219 51.949219 79.226562 51.882812 79.347656 Z M 52.769531 78.929688 C 52.855469 78.867188 52.941406 78.828125 53.019531 78.78125 C 53.097656 78.730469 53.179688 78.6875 53.253906 78.640625 C 53.410156 78.546875 53.542969 78.441406 53.671875 78.328125 C 53.921875 78.097656 54.113281 77.820312 54.273438 77.457031 C 54.332031 77.652344 54.308594 77.867188 54.238281 78.058594 C 54.171875 78.253906 54.050781 78.433594 53.898438 78.578125 C 53.738281 78.714844 53.558594 78.820312 53.363281 78.878906 C 53.269531 78.910156 53.164062 78.921875 53.070312 78.9375 C 52.96875 78.945312 52.867188 78.941406 52.769531 78.929688 Z M 55.34375 77.800781 C 55.273438 78.121094 55.117188 78.425781 54.902344 78.675781 C 54.691406 78.925781 54.417969 79.113281 54.136719 79.265625 C 53.996094 79.335938 53.84375 79.386719 53.699219 79.441406 C 53.542969 79.480469 53.390625 79.515625 53.238281 79.539062 C 53.367188 79.445312 53.5 79.371094 53.628906 79.292969 C 53.753906 79.203125 53.882812 79.125 54.003906 79.039062 C 54.113281 78.941406 54.246094 78.867188 54.34375 78.761719 C 54.398438 78.710938 54.453125 78.667969 54.503906 78.613281 L 54.648438 78.453125 C 54.832031 78.234375 54.988281 77.996094 55.09375 77.722656 C 55.199219 77.453125 55.265625 77.160156 55.277344 76.847656 C 55.402344 77.140625 55.414062 77.480469 55.34375 77.800781 Z M 71.101562 81.046875 C 74.167969 83.769531 77.726562 81.148438 77.875 81.035156 C 80.597656 79.015625 82.667969 80.035156 83.433594 80.566406 C 83.832031 80.84375 84.269531 80.988281 84.703125 80.984375 C 85.335938 80.976562 85.773438 80.761719 86.066406 80.511719 C 85.816406 80.566406 85.558594 80.570312 85.300781 80.527344 C 84.722656 80.429688 84.222656 80.09375 83.925781 79.601562 C 83.449219 78.808594 82.460938 78.214844 81.347656 78.042969 C 80.0625 77.847656 78.800781 78.230469 77.792969 79.128906 C 77.738281 79.179688 77.683594 79.226562 77.628906 79.273438 C 76.519531 80.347656 75.34375 80.714844 74.261719 80.714844 C 73.378906 80.714844 72.554688 80.472656 71.878906 80.167969 C 70.828125 79.699219 69.917969 78.886719 69.246094 77.820312 C 67.558594 75.128906 64.8125 74.851562 62.808594 75.09375 C 62.089844 75.179688 61.355469 75.421875 60.628906 75.8125 C 59.09375 76.644531 57.703125 76.207031 56.917969 75.800781 C 57.117188 76.492188 57.261719 77.582031 56.769531 78.679688 C 57.921875 78.1875 59.671875 77.972656 61.796875 78.089844 C 61.867188 78.09375 61.933594 78.128906 61.976562 78.183594 C 62.019531 78.238281 62.039062 78.308594 62.03125 78.378906 C 62.007812 78.523438 61.996094 78.660156 61.996094 78.792969 C 61.996094 80.527344 63.628906 81.9375 65.632812 81.9375 C 67.09375 81.9375 68.40625 81.1875 68.976562 80.023438 C 69.007812 79.910156 69.144531 79.269531 68.773438 78.734375 C 68.421875 78.226562 67.726562 77.9375 66.703125 77.867188 C 65.707031 77.804688 65.082031 78.089844 65.039062 78.632812 C 65.003906 79.050781 65.355469 79.578125 65.855469 79.628906 C 65.992188 79.644531 66.09375 79.765625 66.082031 79.90625 C 66.066406 80.042969 65.945312 80.140625 65.804688 80.128906 C 65.070312 80.050781 64.480469 79.335938 64.539062 78.589844 C 64.597656 77.933594 65.199219 77.265625 66.734375 77.367188 C 67.921875 77.445312 68.746094 77.808594 69.1875 78.453125 C 69.582031 79.027344 69.546875 79.660156 69.496094 79.980469 C 70.132812 80.3125 70.675781 80.667969 71.101562 81.046875 Z M 78.632812 79.722656 C 78.792969 79.609375 78.945312 79.480469 79.121094 79.394531 C 79.457031 79.1875 79.835938 79.066406 80.222656 78.972656 C 80.609375 78.890625 81.011719 78.875 81.398438 78.921875 C 81.789062 78.96875 82.175781 79.078125 82.507812 79.28125 C 82.128906 79.210938 81.753906 79.183594 81.386719 79.183594 C 81.199219 79.1875 81.015625 79.195312 80.832031 79.214844 C 80.742188 79.230469 80.652344 79.238281 80.558594 79.25 L 80.289062 79.300781 C 80.199219 79.3125 80.113281 79.34375 80.023438 79.363281 C 79.933594 79.386719 79.84375 79.410156 79.757812 79.441406 L 79.492188 79.523438 C 79.410156 79.558594 79.320312 79.59375 79.234375 79.628906 C 79.148438 79.660156 79.0625 79.699219 78.980469 79.738281 L 78.722656 79.859375 C 78.550781 79.9375 78.390625 80.039062 78.210938 80.121094 C 78.34375 79.980469 78.480469 79.84375 78.632812 79.722656 Z M 74.847656 81.519531 C 75.078125 81.484375 75.304688 81.421875 75.527344 81.359375 C 75.976562 81.230469 76.402344 81.046875 76.847656 80.824219 C 76.714844 81.039062 76.519531 81.214844 76.3125 81.355469 C 76.097656 81.496094 75.867188 81.609375 75.621094 81.679688 C 75.375 81.753906 75.121094 81.792969 74.867188 81.78125 C 74.613281 81.78125 74.359375 81.730469 74.125 81.636719 C 74.375 81.589844 74.613281 81.566406 74.847656 81.519531 Z M 62.292969 77.261719 C 61.996094 77.253906 61.695312 77.265625 61.398438 77.277344 L 60.496094 77.316406 C 60.191406 77.332031 59.886719 77.339844 59.578125 77.332031 C 59.863281 77.203125 60.160156 77.121094 60.464844 77.058594 C 60.765625 76.996094 61.074219 76.957031 61.382812 76.945312 C 61.691406 76.929688 62.007812 76.945312 62.316406 77 C 62.621094 77.054688 62.9375 77.148438 63.191406 77.332031 C 62.882812 77.277344 62.589844 77.265625 62.292969 77.261719 Z M 63.46875 76.730469 C 63.238281 76.691406 63.011719 76.667969 62.785156 76.644531 C 62.554688 76.621094 62.328125 76.597656 62.097656 76.585938 L 61.386719 76.546875 C 61.601562 76.425781 61.84375 76.359375 62.085938 76.324219 C 62.328125 76.289062 62.574219 76.28125 62.820312 76.308594 C 63.066406 76.332031 63.304688 76.386719 63.535156 76.476562 C 63.769531 76.5625 63.984375 76.6875 64.171875 76.847656 C 63.925781 76.816406 63.699219 76.761719 63.46875 76.730469 Z M 65.296875 76.566406 C 65.140625 76.53125 64.984375 76.496094 64.832031 76.453125 C 64.675781 76.40625 64.523438 76.359375 64.371094 76.300781 C 64.21875 76.242188 64.066406 76.175781 63.914062 76.082031 C 64.089844 76.039062 64.257812 76.035156 64.425781 76.042969 C 64.59375 76.054688 64.757812 76.082031 64.921875 76.128906 C 65.082031 76.175781 65.242188 76.238281 65.390625 76.320312 C 65.539062 76.40625 65.679688 76.507812 65.789062 76.648438 C 65.609375 76.628906 65.453125 76.597656 65.296875 76.566406 Z M 25.953125 72.53125 C 25.445312 72.71875 24.910156 72.816406 24.367188 72.816406 C 22.125 72.816406 20.257812 71.191406 19.863281 69.050781 C 20.207031 69.574219 20.707031 70.046875 21.320312 70.390625 C 22.691406 71.15625 24.199219 71.089844 25.351562 70.210938 C 26.34375 69.457031 27.613281 69.484375 28.542969 69.652344 C 26.457031 70.144531 26.035156 71.964844 25.953125 72.53125 Z M 54.503906 72.464844 C 54.949219 72.207031 55.515625 72.222656 56.1875 72.507812 C 56.738281 72.746094 57.074219 73.195312 57.132812 73.777344 C 57.179688 74.234375 57.042969 74.726562 56.769531 75.140625 C 57.273438 75.484375 58.722656 76.277344 60.390625 75.375 C 61.171875 74.949219 61.964844 74.691406 62.746094 74.597656 C 64.503906 74.386719 67.742188 74.488281 69.667969 77.550781 C 70.285156 78.535156 71.117188 79.285156 72.078125 79.710938 C 72.828125 80.042969 73.765625 80.300781 74.761719 80.179688 C 74.617188 80.167969 74.472656 80.144531 74.328125 80.117188 C 73.125 79.886719 72.101562 79.136719 71.515625 78.0625 C 68.773438 73.011719 63.710938 72.332031 61.664062 72.273438 C 61.566406 72.269531 61.484375 72.214844 61.441406 72.128906 C 60.867188 70.875 59.714844 70.023438 58.363281 69.839844 C 58.355469 69.839844 58.355469 69.839844 58.347656 69.835938 C 58.335938 69.835938 58.324219 69.832031 58.316406 69.828125 C 58.308594 69.828125 58.304688 69.824219 58.296875 69.820312 C 58.289062 69.816406 58.277344 69.8125 58.269531 69.804688 C 58.261719 69.804688 58.257812 69.796875 58.25 69.792969 C 58.242188 69.789062 58.238281 69.785156 58.230469 69.78125 C 58.195312 69.746094 57.804688 69.414062 57.183594 69.167969 C 57.164062 69.164062 57.140625 69.15625 57.121094 69.144531 C 56.289062 68.824219 55.074219 68.667969 53.757812 69.53125 C 52.546875 70.320312 51.84375 71.601562 51.925781 72.871094 C 51.992188 73.988281 52.652344 74.933594 53.730469 75.464844 C 54.5 75.839844 55.25 75.816406 55.847656 75.398438 C 56.371094 75.03125 56.695312 74.386719 56.636719 73.828125 C 56.609375 73.550781 56.472656 73.175781 55.992188 72.972656 C 55.476562 72.75 55.058594 72.726562 54.753906 72.898438 C 54.300781 73.15625 54.210938 73.792969 54.210938 73.800781 C 54.191406 73.9375 54.066406 74.035156 53.929688 74.015625 C 53.792969 73.996094 53.695312 73.871094 53.714844 73.734375 C 53.71875 73.699219 53.832031 72.847656 54.503906 72.464844 Z M 59.152344 72.75 C 59.003906 72.628906 58.855469 72.511719 58.699219 72.402344 C 58.382812 72.1875 58.050781 71.992188 57.703125 71.753906 C 57.917969 71.742188 58.125 71.785156 58.324219 71.847656 C 58.523438 71.914062 58.710938 72.007812 58.890625 72.128906 C 59.0625 72.25 59.21875 72.402344 59.347656 72.578125 C 59.46875 72.753906 59.558594 72.957031 59.578125 73.171875 C 59.425781 73.011719 59.296875 72.875 59.152344 72.75 Z M 58.242188 70.894531 C 58.574219 70.980469 58.890625 71.117188 59.183594 71.300781 C 59.332031 71.390625 59.464844 71.503906 59.597656 71.613281 C 59.660156 71.671875 59.71875 71.738281 59.777344 71.800781 C 59.808594 71.832031 59.839844 71.859375 59.867188 71.894531 L 59.945312 71.996094 C 60.160156 72.265625 60.296875 72.589844 60.386719 72.910156 C 60.171875 72.648438 59.984375 72.386719 59.75 72.171875 C 59.640625 72.054688 59.515625 71.957031 59.394531 71.855469 C 59.265625 71.765625 59.140625 71.664062 59.007812 71.585938 C 58.742188 71.414062 58.460938 71.269531 58.164062 71.144531 C 57.867188 71.019531 57.5625 70.910156 57.242188 70.8125 C 57.574219 70.773438 57.914062 70.8125 58.242188 70.894531 Z M 53.867188 70.898438 C 53.921875 70.792969 53.957031 70.675781 54.035156 70.582031 C 54.164062 70.375 54.371094 70.210938 54.597656 70.109375 C 54.824219 70.003906 55.078125 69.976562 55.316406 70.003906 C 55.554688 70.035156 55.785156 70.113281 55.972656 70.257812 C 55.738281 70.242188 55.523438 70.242188 55.316406 70.261719 C 55.105469 70.285156 54.910156 70.335938 54.730469 70.414062 C 54.554688 70.5 54.378906 70.601562 54.230469 70.75 L 54.171875 70.800781 L 54.117188 70.859375 L 54.007812 70.980469 C 53.933594 71.0625 53.875 71.15625 53.789062 71.242188 C 53.808594 71.128906 53.832031 71.011719 53.867188 70.898438 Z M 53.867188 70.898438 " fill-opacity="1" fill-rule="nonzero"/></g></svg>