<svg xmlns="http://www.w3.org/2000/svg" xmlns:xlink="http://www.w3.org/1999/xlink" width="128" zoomAndPan="magnify" viewBox="0 0 96 95.999999" height="128" preserveAspectRatio="xMidYMid meet" version="1.0"><defs><clipPath id="id1"><path d="M 14.738281 13.125 L 81.488281 13.125 L 81.488281 82.875 L 14.738281 82.875 Z M 14.738281 13.125 " clip-rule="nonzero"/></clipPath><clipPath id="id2"><path d="M 14.738281 16 L 76 16 L 76 82.875 L 14.738281 82.875 Z M 14.738281 16 " clip-rule="nonzero"/></clipPath><clipPath id="id3"><path d="M 14.738281 16 L 77 16 L 77 82.875 L 14.738281 82.875 Z M 14.738281 16 " clip-rule="nonzero"/></clipPath><clipPath id="id4"><path d="M 28 57 L 35 57 L 35 82.875 L 28 82.875 Z M 28 57 " clip-rule="nonzero"/></clipPath><clipPath id="id5"><path d="M 28 56 L 35 56 L 35 82.875 L 28 82.875 Z M 28 56 " clip-rule="nonzero"/></clipPath><clipPath id="id6"><path d="M 49 57 L 62 57 L 62 82.875 L 49 82.875 Z M 49 57 " clip-rule="nonzero"/></clipPath><clipPath id="id7"><path d="M 48 56 L 62 56 L 62 82.875 L 48 82.875 Z M 48 56 " clip-rule="nonzero"/></clipPath><clipPath id="id8"><path d="M 16 13.125 L 32 13.125 L 32 18 L 16 18 Z M 16 13.125 " clip-rule="nonzero"/></clipPath><clipPath id="id9"><path d="M 25 13.125 L 49 13.125 L 49 59 L 25 59 Z M 25 13.125 " clip-rule="nonzero"/></clipPath><clipPath id="id10"><path d="M 25 13.125 L 50 13.125 L 50 59 L 25 59 Z M 25 13.125 " clip-rule="nonzero"/></clipPath><clipPath id="id11"><path d="M 65 13.125 L 81 13.125 L 81 18 L 65 18 Z M 65 13.125 " clip-rule="nonzero"/></clipPath><clipPath id="id12"><path d="M 64 13.125 L 81 13.125 L 81 18 L 64 18 Z M 64 13.125 " clip-rule="nonzero"/></clipPath><clipPath id="id13"><path d="M 74 13.125 L 81.488281 13.125 L 81.488281 82.875 L 74 82.875 Z M 74 13.125 " clip-rule="nonzero"/></clipPath></defs><g clip-path="url(#id1)"><path fill="#000000" d="M 78.820312 13.40625 L 71.800781 13.40625 C 71.367188 13.40625 70.953125 13.527344 70.59375 13.734375 L 70.589844 13.730469 L 70.519531 13.773438 C 70.507812 13.78125 70.496094 13.785156 70.484375 13.792969 L 65.230469 16.964844 L 65.230469 16.96875 C 64.820312 17.210938 64.484375 17.570312 64.273438 18.019531 L 48.859375 51.082031 L 31.9375 14.785156 C 31.539062 13.929688 30.675781 13.386719 29.730469 13.386719 L 22.726562 13.40625 C 22.25 13.40625 21.808594 13.546875 21.433594 13.78125 L 16.25 16.914062 C 16.183594 16.949219 16.117188 16.988281 16.054688 17.03125 L 16.046875 17.035156 C 15.402344 17.46875 14.980469 18.203125 14.980469 19.039062 L 14.980469 80.097656 C 14.980469 81.429688 16.066406 82.511719 17.402344 82.511719 L 26.855469 82.511719 C 27.390625 82.511719 27.882812 82.335938 28.285156 82.042969 L 33.3125 79.015625 C 33.394531 78.972656 33.476562 78.921875 33.554688 78.871094 L 33.558594 78.867188 C 34.191406 78.429688 34.605469 77.703125 34.605469 76.878906 L 34.605469 68.171875 L 40.945312 81.242188 C 41.347656 82.078125 42.195312 82.605469 43.125 82.605469 L 47.769531 82.605469 C 48.199219 82.605469 48.609375 82.488281 48.964844 82.285156 L 48.96875 82.289062 L 49.027344 82.253906 C 49.042969 82.246094 49.0625 82.234375 49.078125 82.222656 L 54.28125 79.082031 L 54.277344 79.078125 C 54.703125 78.839844 55.058594 78.480469 55.28125 78.023438 L 61.617188 64.957031 L 61.617188 80.09375 C 61.617188 81.429688 62.703125 82.511719 64.042969 82.511719 L 73.492188 82.511719 C 74.050781 82.511719 74.566406 82.320312 74.976562 82.003906 L 80.128906 78.910156 C 80.800781 78.480469 81.246094 77.734375 81.246094 76.878906 L 81.246094 15.824219 C 81.246094 14.488281 80.160156 13.40625 78.820312 13.40625 Z M 78.820312 13.40625 " fill-opacity="1" fill-rule="nonzero"/><path fill="#000000" d="M 43.125 82.847656 C 42.109375 82.847656 41.167969 82.257812 40.726562 81.347656 L 34.847656 69.226562 L 34.847656 76.878906 C 34.847656 77.742188 34.425781 78.554688 33.714844 79.050781 C 33.707031 79.058594 33.695312 79.066406 33.6875 79.074219 L 33.683594 79.074219 C 33.605469 79.128906 33.519531 79.179688 33.433594 79.226562 L 28.421875 82.242188 C 27.960938 82.578125 27.417969 82.753906 26.855469 82.753906 L 17.402344 82.753906 C 15.933594 82.753906 14.738281 81.5625 14.738281 80.09375 L 14.738281 19.039062 C 14.738281 18.15625 15.175781 17.332031 15.910156 16.835938 C 15.914062 16.832031 15.917969 16.832031 15.921875 16.828125 L 15.925781 16.824219 C 15.992188 16.78125 16.0625 16.742188 16.128906 16.703125 L 21.308594 13.574219 C 21.316406 13.570312 21.324219 13.5625 21.332031 13.5625 C 21.753906 13.300781 22.234375 13.164062 22.722656 13.164062 L 29.730469 13.144531 C 29.734375 13.144531 29.734375 13.144531 29.738281 13.144531 C 30.769531 13.144531 31.71875 13.75 32.15625 14.683594 L 48.859375 50.507812 L 64.054688 17.917969 C 64.273438 17.449219 64.625 17.054688 65.078125 16.777344 C 65.085938 16.769531 65.09375 16.765625 65.105469 16.757812 L 70.359375 13.585938 C 70.363281 13.585938 70.371094 13.578125 70.378906 13.574219 L 70.464844 13.523438 C 70.480469 13.511719 70.496094 13.507812 70.511719 13.5 C 70.910156 13.28125 71.355469 13.164062 71.800781 13.164062 L 78.820312 13.164062 C 80.289062 13.164062 81.488281 14.355469 81.488281 15.824219 L 81.488281 76.878906 C 81.488281 77.777344 81.035156 78.605469 80.28125 79.101562 C 80.273438 79.105469 80.261719 79.113281 80.253906 79.121094 L 75.109375 82.207031 C 74.640625 82.566406 74.082031 82.753906 73.492188 82.753906 L 64.042969 82.753906 C 62.570312 82.753906 61.375 81.5625 61.375 80.097656 L 61.375 66.011719 L 55.5 78.128906 C 55.269531 78.605469 54.902344 78.996094 54.4375 79.265625 C 54.429688 79.273438 54.417969 79.28125 54.40625 79.289062 L 49.203125 82.429688 C 49.195312 82.433594 49.183594 82.445312 49.167969 82.453125 L 49.09375 82.496094 C 49.078125 82.503906 49.0625 82.511719 49.046875 82.519531 C 48.652344 82.734375 48.210938 82.847656 47.769531 82.847656 Z M 34.605469 67.929688 C 34.695312 67.929688 34.78125 67.984375 34.824219 68.066406 L 41.160156 81.136719 C 41.523438 81.882812 42.296875 82.367188 43.125 82.367188 L 47.769531 82.367188 C 48.140625 82.367188 48.511719 82.265625 48.847656 82.078125 C 48.855469 82.070312 48.867188 82.066406 48.878906 82.0625 L 48.921875 82.035156 C 48.929688 82.03125 48.9375 82.027344 48.945312 82.019531 L 54.117188 78.898438 C 54.128906 78.886719 54.144531 78.875 54.160156 78.867188 C 54.554688 78.644531 54.867188 78.320312 55.0625 77.921875 L 61.398438 64.851562 C 61.449219 64.75 61.5625 64.695312 61.671875 64.722656 C 61.78125 64.746094 61.859375 64.84375 61.859375 64.957031 L 61.859375 80.09375 C 61.859375 81.292969 62.839844 82.269531 64.042969 82.269531 L 73.492188 82.269531 C 73.980469 82.269531 74.441406 82.113281 74.828125 81.8125 C 74.839844 81.804688 74.851562 81.796875 74.867188 81.789062 L 79.984375 78.71875 C 79.988281 78.714844 79.992188 78.710938 79.996094 78.707031 C 80.625 78.304688 81.003906 77.621094 81.003906 76.878906 L 81.003906 15.824219 C 81.003906 14.625 80.023438 13.648438 78.820312 13.648438 L 71.800781 13.648438 C 71.425781 13.648438 71.046875 13.75 70.714844 13.941406 C 70.703125 13.949219 70.691406 13.953125 70.679688 13.957031 L 70.613281 13.996094 L 65.386719 17.15625 C 65.375 17.164062 65.367188 17.167969 65.355469 17.175781 C 64.976562 17.402344 64.675781 17.730469 64.492188 18.125 L 49.082031 51.183594 C 49.042969 51.269531 48.957031 51.324219 48.859375 51.324219 C 48.765625 51.324219 48.679688 51.269531 48.640625 51.183594 L 31.714844 14.886719 C 31.359375 14.121094 30.582031 13.628906 29.738281 13.628906 C 29.734375 13.628906 29.734375 13.628906 29.730469 13.628906 L 22.726562 13.648438 C 22.316406 13.648438 21.914062 13.765625 21.566406 13.984375 C 21.554688 13.992188 21.542969 13.996094 21.535156 14.003906 L 16.375 17.121094 C 16.371094 17.121094 16.367188 17.125 16.363281 17.125 C 16.308594 17.15625 16.25 17.191406 16.191406 17.230469 C 16.1875 17.234375 16.183594 17.234375 16.179688 17.238281 L 16.175781 17.238281 C 15.578125 17.644531 15.222656 18.316406 15.222656 19.039062 L 15.222656 80.09375 C 15.222656 81.292969 16.199219 82.269531 17.402344 82.269531 L 26.855469 82.269531 C 27.320312 82.269531 27.765625 82.125 28.140625 81.847656 C 28.148438 81.84375 28.152344 81.839844 28.160156 81.835938 L 33.1875 78.808594 C 33.191406 78.804688 33.195312 78.804688 33.199219 78.800781 C 33.273438 78.761719 33.34375 78.71875 33.410156 78.675781 C 33.414062 78.671875 33.417969 78.667969 33.421875 78.667969 C 34.011719 78.261719 34.363281 77.589844 34.363281 76.878906 L 34.363281 68.171875 C 34.363281 68.058594 34.441406 67.960938 34.550781 67.9375 C 34.570312 67.933594 34.589844 67.929688 34.605469 67.929688 Z M 34.605469 67.929688 " fill-opacity="1" fill-rule="nonzero"/></g><g clip-path="url(#id2)"><path fill="#ffffff" d="M 29.277344 57.1875 L 29.277344 80.09375 C 29.277344 81.429688 28.191406 82.511719 26.855469 82.511719 L 17.402344 82.511719 C 16.066406 82.511719 14.980469 81.429688 14.980469 80.09375 L 14.980469 19.039062 C 14.980469 17.707031 16.0625 16.625 17.398438 16.621094 L 24.402344 16.605469 C 25.351562 16.601562 26.210938 17.148438 26.609375 18.003906 L 45.449219 58.402344 L 64.273438 18.023438 C 64.671875 17.167969 65.527344 16.625 66.472656 16.625 L 73.492188 16.625 C 74.832031 16.625 75.917969 17.703125 75.917969 19.039062 L 75.917969 80.097656 C 75.917969 81.429688 74.832031 82.511719 73.492188 82.511719 L 64.042969 82.511719 C 62.703125 82.511719 61.617188 81.429688 61.617188 80.097656 L 61.617188 57.1875 L 49.953125 81.242188 C 49.546875 82.078125 48.699219 82.605469 47.769531 82.605469 L 43.125 82.605469 C 42.195312 82.605469 41.347656 82.078125 40.945312 81.242188 Z M 29.277344 57.1875 " fill-opacity="1" fill-rule="nonzero"/></g><g clip-path="url(#id3)"><path fill="#000000" d="M 43.125 82.847656 C 42.109375 82.847656 41.167969 82.257812 40.726562 81.347656 L 29.519531 58.242188 L 29.519531 80.09375 C 29.519531 81.5625 28.324219 82.753906 26.855469 82.753906 L 17.402344 82.753906 C 15.933594 82.753906 14.738281 81.5625 14.738281 80.09375 L 14.738281 19.039062 C 14.738281 17.578125 15.929688 16.382812 17.398438 16.378906 L 24.402344 16.363281 C 24.40625 16.363281 24.40625 16.363281 24.410156 16.363281 C 25.445312 16.363281 26.394531 16.964844 26.828125 17.902344 L 45.449219 57.832031 L 64.054688 17.917969 C 64.488281 16.984375 65.4375 16.382812 66.472656 16.382812 L 73.492188 16.382812 C 74.964844 16.382812 76.160156 17.574219 76.160156 19.039062 L 76.160156 80.097656 C 76.160156 81.5625 74.964844 82.753906 73.492188 82.753906 L 64.042969 82.753906 C 62.570312 82.753906 61.375 81.5625 61.375 80.097656 L 61.375 58.242188 L 50.171875 81.347656 C 49.730469 82.257812 48.785156 82.847656 47.769531 82.847656 Z M 29.277344 56.945312 C 29.371094 56.945312 29.457031 57 29.496094 57.082031 L 41.160156 81.136719 C 41.523438 81.882812 42.296875 82.367188 43.125 82.367188 L 47.769531 82.367188 C 48.601562 82.367188 49.375 81.882812 49.734375 81.136719 L 61.398438 57.082031 C 61.449219 56.980469 61.5625 56.929688 61.671875 56.953125 C 61.78125 56.976562 61.859375 57.074219 61.859375 57.1875 L 61.859375 80.09375 C 61.859375 81.292969 62.839844 82.269531 64.042969 82.269531 L 73.492188 82.269531 C 74.695312 82.269531 75.675781 81.292969 75.675781 80.09375 L 75.675781 19.039062 C 75.675781 17.839844 74.695312 16.863281 73.492188 16.863281 L 66.472656 16.863281 C 65.625 16.863281 64.851562 17.359375 64.492188 18.125 L 45.667969 58.503906 C 45.628906 58.589844 45.542969 58.644531 45.449219 58.644531 C 45.355469 58.644531 45.269531 58.589844 45.226562 58.503906 L 26.390625 18.105469 C 26.03125 17.339844 25.257812 16.847656 24.410156 16.847656 C 24.410156 16.847656 24.40625 16.847656 24.40625 16.847656 L 17.398438 16.863281 C 16.199219 16.867188 15.222656 17.84375 15.222656 19.039062 L 15.222656 80.097656 C 15.222656 81.292969 16.199219 82.269531 17.402344 82.269531 L 26.855469 82.269531 C 28.058594 82.269531 29.035156 81.292969 29.035156 80.097656 L 29.035156 57.1875 C 29.035156 57.074219 29.113281 56.976562 29.226562 56.953125 C 29.242188 56.949219 29.261719 56.945312 29.277344 56.945312 Z M 29.277344 56.945312 " fill-opacity="1" fill-rule="nonzero"/></g><g clip-path="url(#id4)"><path fill="#486cbd" d="M 29.277344 80.09375 C 29.277344 80.894531 28.886719 81.601562 28.285156 82.042969 L 33.3125 79.015625 C 33.394531 78.972656 33.476562 78.921875 33.554688 78.871094 L 33.558594 78.867188 C 34.191406 78.429688 34.605469 77.703125 34.605469 76.878906 L 34.605469 68.171875 L 29.277344 57.1875 Z M 29.277344 80.09375 " fill-opacity="1" fill-rule="nonzero"/></g><g clip-path="url(#id5)"><path fill="#000000" d="M 28.285156 82.285156 C 28.207031 82.285156 28.128906 82.246094 28.085938 82.175781 C 28.011719 82.070312 28.039062 81.925781 28.140625 81.847656 C 28.710938 81.433594 29.035156 80.792969 29.035156 80.097656 L 29.035156 57.1875 C 29.035156 57.074219 29.113281 56.976562 29.226562 56.953125 C 29.335938 56.929688 29.449219 56.980469 29.496094 57.082031 L 34.824219 68.066406 C 34.839844 68.101562 34.847656 68.136719 34.847656 68.171875 L 34.847656 76.878906 C 34.847656 77.742188 34.425781 78.554688 33.714844 79.050781 C 33.707031 79.058594 33.695312 79.066406 33.6875 79.074219 L 33.683594 79.074219 C 33.605469 79.128906 33.519531 79.179688 33.433594 79.226562 L 28.410156 82.25 C 28.371094 82.273438 28.328125 82.285156 28.285156 82.285156 Z M 29.519531 58.242188 L 29.519531 80.09375 C 29.519531 80.460938 29.445312 80.820312 29.300781 81.148438 L 33.1875 78.808594 C 33.191406 78.804688 33.195312 78.804688 33.199219 78.800781 C 33.273438 78.761719 33.34375 78.71875 33.410156 78.675781 C 33.414062 78.671875 33.417969 78.667969 33.421875 78.667969 C 34.011719 78.261719 34.363281 77.589844 34.363281 76.878906 L 34.363281 68.226562 Z M 29.519531 58.242188 " fill-opacity="1" fill-rule="nonzero"/></g><g clip-path="url(#id6)"><path fill="#486cbd" d="M 49.953125 81.242188 C 49.753906 81.652344 49.449219 81.988281 49.078125 82.222656 L 54.28125 79.082031 L 54.277344 79.078125 C 54.703125 78.839844 55.058594 78.480469 55.28125 78.023438 L 61.617188 64.957031 L 61.617188 57.1875 Z M 49.953125 81.242188 " fill-opacity="1" fill-rule="nonzero"/></g><g clip-path="url(#id7)"><path fill="#000000" d="M 49.078125 82.464844 C 48.996094 82.464844 48.917969 82.425781 48.871094 82.351562 C 48.800781 82.238281 48.835938 82.089844 48.945312 82.019531 C 49.289062 81.800781 49.558594 81.496094 49.734375 81.136719 L 61.398438 57.082031 C 61.449219 56.980469 61.5625 56.929688 61.671875 56.953125 C 61.78125 56.976562 61.859375 57.074219 61.859375 57.1875 L 61.859375 64.957031 C 61.859375 64.992188 61.851562 65.027344 61.835938 65.0625 L 55.5 78.128906 C 55.269531 78.605469 54.902344 78.996094 54.4375 79.265625 C 54.429688 79.273438 54.417969 79.28125 54.40625 79.289062 L 49.203125 82.429688 C 49.164062 82.453125 49.121094 82.464844 49.078125 82.464844 Z M 49.953125 81.242188 L 50.109375 81.316406 Z M 61.375 58.242188 L 50.21875 81.253906 L 54.117188 78.898438 C 54.128906 78.886719 54.144531 78.875 54.160156 78.867188 C 54.554688 78.644531 54.867188 78.320312 55.0625 77.921875 L 61.375 64.902344 Z M 61.375 58.242188 " fill-opacity="1" fill-rule="nonzero"/></g><g clip-path="url(#id8)"><path fill="#486cbd" d="M 29.730469 13.386719 L 22.726562 13.40625 C 22.25 13.40625 21.808594 13.546875 21.433594 13.78125 L 16.25 16.914062 C 16.589844 16.730469 16.980469 16.625 17.398438 16.621094 L 24.40625 16.605469 C 24.910156 16.601562 25.386719 16.761719 25.789062 17.039062 L 31.113281 13.820312 C 30.714844 13.546875 30.234375 13.386719 29.730469 13.386719 Z M 29.730469 13.386719 " fill-opacity="1" fill-rule="nonzero"/><path fill="#000000" d="M 25.789062 17.277344 C 25.738281 17.277344 25.691406 17.265625 25.648438 17.234375 C 25.277344 16.980469 24.851562 16.847656 24.410156 16.847656 C 24.410156 16.847656 24.40625 16.847656 24.40625 16.847656 L 17.398438 16.863281 C 17.039062 16.863281 16.679688 16.953125 16.367188 17.125 C 16.25 17.1875 16.105469 17.148438 16.039062 17.035156 C 15.972656 16.917969 16.011719 16.773438 16.125 16.707031 L 21.308594 13.574219 C 21.316406 13.570312 21.324219 13.5625 21.332031 13.5625 C 21.753906 13.300781 22.234375 13.164062 22.722656 13.164062 L 29.730469 13.144531 C 29.734375 13.144531 29.734375 13.144531 29.738281 13.144531 C 30.277344 13.144531 30.796875 13.308594 31.25 13.621094 C 31.316406 13.667969 31.355469 13.746094 31.355469 13.828125 C 31.351562 13.910156 31.308594 13.984375 31.238281 14.027344 L 25.914062 17.246094 C 25.875 17.269531 25.832031 17.277344 25.789062 17.277344 Z M 24.410156 16.363281 C 24.898438 16.363281 25.371094 16.496094 25.792969 16.753906 L 30.636719 13.824219 C 30.351562 13.695312 30.046875 13.628906 29.738281 13.628906 C 29.734375 13.628906 29.734375 13.628906 29.730469 13.628906 L 22.726562 13.648438 C 22.316406 13.648438 21.914062 13.765625 21.566406 13.984375 C 21.554688 13.992188 21.542969 13.996094 21.535156 14.003906 L 17.597656 16.378906 L 24.402344 16.363281 C 24.40625 16.363281 24.40625 16.363281 24.410156 16.363281 Z M 24.410156 16.363281 " fill-opacity="1" fill-rule="nonzero"/></g><g clip-path="url(#id9)"><path fill="#486cbd" d="M 31.9375 14.785156 C 31.75 14.386719 31.460938 14.058594 31.113281 13.820312 L 25.789062 17.039062 C 26.136719 17.277344 26.421875 17.605469 26.609375 18.003906 L 45.449219 58.402344 L 48.859375 51.082031 Z M 31.9375 14.785156 " fill-opacity="1" fill-rule="nonzero"/></g><g clip-path="url(#id10)"><path fill="#000000" d="M 45.449219 58.644531 C 45.355469 58.644531 45.269531 58.589844 45.226562 58.503906 L 26.390625 18.105469 C 26.226562 17.757812 25.972656 17.460938 25.648438 17.238281 C 25.582031 17.191406 25.542969 17.113281 25.542969 17.03125 C 25.546875 16.949219 25.589844 16.875 25.660156 16.832031 L 30.988281 13.613281 C 31.070312 13.5625 31.171875 13.566406 31.25 13.621094 C 31.644531 13.890625 31.957031 14.261719 32.15625 14.683594 L 49.082031 50.980469 C 49.109375 51.046875 49.109375 51.121094 49.082031 51.183594 L 45.667969 58.503906 C 45.628906 58.589844 45.542969 58.644531 45.449219 58.644531 Z M 26.210938 17.066406 C 26.472656 17.300781 26.683594 17.585938 26.828125 17.902344 L 45.449219 57.832031 L 48.59375 51.082031 L 31.714844 14.886719 C 31.578125 14.585938 31.363281 14.320312 31.097656 14.109375 Z M 26.210938 17.066406 " fill-opacity="1" fill-rule="nonzero"/></g><g clip-path="url(#id11)"><path fill="#486cbd" d="M 78.820312 13.40625 L 71.800781 13.40625 C 71.367188 13.40625 70.953125 13.527344 70.59375 13.734375 L 70.589844 13.730469 L 70.519531 13.773438 C 70.507812 13.78125 70.496094 13.785156 70.484375 13.792969 L 65.230469 16.964844 L 65.230469 16.96875 C 65.601562 16.75 66.027344 16.625 66.472656 16.625 L 73.492188 16.625 C 74.058594 16.625 74.578125 16.816406 74.988281 17.140625 L 80.316406 13.921875 C 79.902344 13.601562 79.386719 13.40625 78.820312 13.40625 Z M 78.820312 13.40625 " fill-opacity="1" fill-rule="nonzero"/></g><g clip-path="url(#id12)"><path fill="#000000" d="M 74.988281 17.382812 C 74.9375 17.382812 74.882812 17.367188 74.839844 17.332031 C 74.453125 17.027344 73.984375 16.863281 73.492188 16.863281 L 66.472656 16.863281 C 66.082031 16.863281 65.699219 16.972656 65.355469 17.175781 C 65.292969 17.214844 65.210938 17.21875 65.140625 17.191406 C 65.074219 17.164062 65.019531 17.105469 65 17.035156 C 64.96875 16.929688 65.011719 16.816406 65.105469 16.757812 L 70.359375 13.585938 C 70.363281 13.585938 70.371094 13.578125 70.378906 13.574219 L 70.464844 13.523438 C 70.480469 13.515625 70.496094 13.507812 70.511719 13.5 C 70.910156 13.28125 71.355469 13.164062 71.800781 13.164062 L 78.820312 13.164062 C 79.421875 13.164062 79.988281 13.363281 80.464844 13.734375 C 80.527344 13.78125 80.5625 13.859375 80.558594 13.9375 C 80.550781 14.015625 80.507812 14.089844 80.441406 14.128906 L 75.117188 17.347656 C 75.078125 17.371094 75.035156 17.382812 74.988281 17.382812 Z M 66.664062 16.382812 L 73.492188 16.382812 C 74.039062 16.382812 74.558594 16.542969 75.003906 16.851562 L 79.863281 13.914062 C 79.542969 13.738281 79.191406 13.648438 78.820312 13.648438 L 71.800781 13.648438 C 71.425781 13.648438 71.046875 13.75 70.714844 13.941406 C 70.703125 13.949219 70.691406 13.953125 70.679688 13.957031 L 70.613281 13.996094 Z M 66.664062 16.382812 " fill-opacity="1" fill-rule="nonzero"/></g><g clip-path="url(#id13)"><path fill="#486cbd" d="M 80.316406 13.921875 L 74.988281 17.140625 C 75.554688 17.582031 75.917969 18.269531 75.917969 19.039062 L 75.917969 80.09375 C 75.917969 80.871094 75.546875 81.5625 74.976562 82.003906 L 80.128906 78.910156 C 80.800781 78.480469 81.246094 77.734375 81.246094 76.878906 L 81.246094 15.824219 C 81.246094 15.050781 80.878906 14.367188 80.316406 13.921875 Z M 80.316406 13.921875 " fill-opacity="1" fill-rule="nonzero"/><path fill="#000000" d="M 74.976562 82.246094 C 74.914062 82.246094 74.851562 82.222656 74.804688 82.175781 C 74.757812 82.125 74.730469 82.058594 74.734375 81.988281 C 74.738281 81.921875 74.773438 81.855469 74.828125 81.8125 C 75.367188 81.398438 75.675781 80.769531 75.675781 80.09375 L 75.675781 19.039062 C 75.675781 18.371094 75.371094 17.746094 74.839844 17.332031 C 74.777344 17.28125 74.742188 17.207031 74.746094 17.125 C 74.753906 17.046875 74.796875 16.976562 74.863281 16.933594 L 80.191406 13.714844 C 80.277344 13.664062 80.386719 13.671875 80.464844 13.734375 C 81.113281 14.242188 81.488281 15.003906 81.488281 15.824219 L 81.488281 76.878906 C 81.488281 77.777344 81.035156 78.605469 80.28125 79.101562 C 80.273438 79.105469 80.261719 79.113281 80.253906 79.117188 L 75.101562 82.210938 C 75.0625 82.234375 75.019531 82.246094 74.976562 82.246094 Z M 75.394531 17.179688 C 75.886719 17.671875 76.160156 18.335938 76.160156 19.039062 L 76.160156 80.09375 C 76.160156 80.460938 76.085938 80.816406 75.945312 81.140625 L 79.984375 78.71875 C 79.988281 78.714844 79.992188 78.710938 79.996094 78.707031 C 80.625 78.304688 81.003906 77.621094 81.003906 76.878906 L 81.003906 15.824219 C 81.003906 15.207031 80.746094 14.632812 80.292969 14.21875 Z M 75.394531 17.179688 " fill-opacity="1" fill-rule="nonzero"/></g></svg>