<svg xmlns="http://www.w3.org/2000/svg" xmlns:xlink="http://www.w3.org/1999/xlink" width="200" zoomAndPan="magnify" viewBox="0 0 150 112.499997" height="150" preserveAspectRatio="xMidYMid meet" version="1.0"><defs><clipPath id="d2900d2782"><path d="M 11.53125 27.9375 L 43.640625 27.9375 L 43.640625 51 L 11.53125 51 Z M 11.53125 27.9375 " clip-rule="nonzero"/></clipPath><clipPath id="48a6277b6b"><path d="M 11.53125 27.9375 L 26 27.9375 L 26 44 L 11.53125 44 Z M 11.53125 27.9375 " clip-rule="nonzero"/></clipPath><clipPath id="e9f1c9b409"><path d="M 26 40 L 43.640625 40 L 43.640625 51 L 26 51 Z M 26 40 " clip-rule="nonzero"/></clipPath><clipPath id="b42ac658ec"><path d="M 43.265625 28.109375 L 75.375 28.109375 L 75.375 51 L 43.265625 51 Z M 43.265625 28.109375 " clip-rule="nonzero"/></clipPath><clipPath id="5649367d5b"><path d="M 43.265625 28.109375 L 58 28.109375 L 58 44 L 43.265625 44 Z M 43.265625 28.109375 " clip-rule="nonzero"/></clipPath><clipPath id="68cf5dfbda"><path d="M 75 27.9375 L 107.105469 27.9375 L 107.105469 51 L 75 51 Z M 75 27.9375 " clip-rule="nonzero"/></clipPath><clipPath id="955089e226"><path d="M 75 27.9375 L 90 27.9375 L 90 44 L 75 44 Z M 75 27.9375 " clip-rule="nonzero"/></clipPath><clipPath id="855dc77cd6"><path d="M 113.230469 65.140625 L 138.617188 65.140625 L 138.617188 83.808594 L 113.230469 83.808594 Z M 113.230469 65.140625 " clip-rule="nonzero"/></clipPath><clipPath id="083f91a104"><path d="M 113.230469 65.140625 L 125 65.140625 L 125 78 L 113.230469 78 Z M 113.230469 65.140625 " clip-rule="nonzero"/></clipPath><clipPath id="9b74f7859e"><path d="M 125 75 L 138.617188 75 L 138.617188 83.808594 L 125 83.808594 Z M 125 75 " clip-rule="nonzero"/></clipPath><clipPath id="fc224fdb0e"><path d="M 106.734375 27.9375 L 138.839844 27.9375 L 138.839844 51 L 106.734375 51 Z M 106.734375 27.9375 " clip-rule="nonzero"/></clipPath><clipPath id="6f925e2dbf"><path d="M 106.734375 27.9375 L 121 27.9375 L 121 44 L 106.734375 44 Z M 106.734375 27.9375 " clip-rule="nonzero"/></clipPath><clipPath id="844e57a830"><path d="M 121 40 L 138.839844 40 L 138.839844 51 L 121 51 Z M 121 40 " clip-rule="nonzero"/></clipPath><clipPath id="19347f24e8"><path d="M 11.53125 65.003906 L 36.917969 65.003906 L 36.917969 83.671875 L 11.53125 83.671875 Z M 11.53125 65.003906 " clip-rule="nonzero"/></clipPath><clipPath id="1b040effe9"><path d="M 11.53125 65.003906 L 23 65.003906 L 23 78 L 11.53125 78 Z M 11.53125 65.003906 " clip-rule="nonzero"/></clipPath><clipPath id="b7b40d6b71"><path d="M 23 75 L 36.917969 75 L 36.917969 83.671875 L 23 83.671875 Z M 23 75 " clip-rule="nonzero"/></clipPath><clipPath id="0c7952c41c"><path d="M 37 65.140625 L 62.34375 65.140625 L 62.34375 83.808594 L 37 83.808594 Z M 37 65.140625 " clip-rule="nonzero"/></clipPath><clipPath id="381e6de641"><path d="M 37 65.140625 L 49 65.140625 L 49 78 L 37 78 Z M 37 65.140625 " clip-rule="nonzero"/></clipPath><clipPath id="f9bcb2ea8a"><path d="M 48 75 L 62 75 L 62 83.808594 L 48 83.808594 Z M 48 75 " clip-rule="nonzero"/></clipPath><clipPath id="0f0b6c0698"><path d="M 62.382812 65.003906 L 87.769531 65.003906 L 87.769531 83.671875 L 62.382812 83.671875 Z M 62.382812 65.003906 " clip-rule="nonzero"/></clipPath><clipPath id="d13c035ac8"><path d="M 62.382812 65.003906 L 74 65.003906 L 74 78 L 62.382812 78 Z M 62.382812 65.003906 " clip-rule="nonzero"/></clipPath><clipPath id="23d8304fda"><path d="M 74 75 L 87.769531 75 L 87.769531 83.671875 L 74 83.671875 Z M 74 75 " clip-rule="nonzero"/></clipPath><clipPath id="943e0e80bc"><path d="M 87.804688 65.003906 L 113.191406 65.003906 L 113.191406 83.671875 L 87.804688 83.671875 Z M 87.804688 65.003906 " clip-rule="nonzero"/></clipPath><clipPath id="70b79bbf41"><path d="M 87.804688 65.003906 L 100 65.003906 L 100 78 L 87.804688 78 Z M 87.804688 65.003906 " clip-rule="nonzero"/></clipPath><clipPath id="1cf592cc54"><path d="M 99 75 L 113 75 L 113 83.671875 L 99 83.671875 Z M 99 75 " clip-rule="nonzero"/></clipPath></defs><g clip-path="url(#d2900d2782)"><path fill="#91aaff" d="M 43.574219 40.960938 C 43.574219 41.074219 43.566406 41.195312 43.558594 41.308594 C 43.546875 41.542969 43.527344 41.769531 43.5 42 C 43.414062 42.6875 43.25 43.355469 43.015625 43.988281 C 42.335938 45.847656 41.066406 47.464844 39.363281 48.566406 C 39.050781 48.765625 38.71875 48.949219 38.382812 49.121094 C 37.429688 49.617188 36.40625 50.011719 35.316406 50.296875 C 32.339844 51.078125 29.332031 50.90625 26.632812 49.964844 L 26.632812 49.957031 C 23.175781 48.753906 20.222656 46.308594 18.441406 43.007812 C 18.441406 43 18.433594 42.992188 18.433594 42.988281 C 18.382812 42.886719 18.328125 42.785156 18.28125 42.6875 C 18.273438 42.667969 18.261719 42.644531 18.253906 42.625 C 18.207031 42.539062 18.167969 42.453125 18.125 42.359375 C 18.113281 42.324219 18.09375 42.292969 18.078125 42.257812 C 18.046875 42.183594 18.011719 42.105469 17.972656 42.023438 C 17.953125 41.976562 17.929688 41.929688 17.910156 41.882812 C 17.882812 41.816406 17.855469 41.757812 17.832031 41.691406 C 17.804688 41.628906 17.78125 41.578125 17.757812 41.515625 L 17.742188 41.515625 C 17.515625 40.957031 17.324219 40.375 17.164062 39.773438 C 16.800781 38.402344 16.648438 37.035156 16.671875 35.683594 C 14.453125 35.4375 12.527344 33.871094 11.925781 31.605469 C 11.589844 30.363281 11.710938 29.101562 12.195312 28.003906 C 12.222656 27.9375 12.324219 27.945312 12.34375 28.011719 C 12.957031 30.316406 14.871094 31.445312 17.117188 31.660156 C 17.59375 31.707031 18.085938 31.695312 18.578125 31.613281 C 18.746094 31.585938 18.917969 31.554688 19.085938 31.507812 C 20.605469 31.105469 21.871094 30.570312 22.582031 29.320312 C 22.644531 29.214844 22.804688 29.242188 22.824219 29.363281 C 23.25 32.128906 21.515625 34.820312 18.738281 35.550781 C 18.617188 35.582031 18.488281 35.609375 18.367188 35.636719 C 18.414062 36.058594 18.496094 36.484375 18.609375 36.90625 C 19.039062 38.503906 19.859375 39.898438 20.949219 40.996094 C 20.957031 40.996094 20.957031 40.996094 20.964844 40.996094 C 20.964844 40.996094 20.964844 40.996094 20.96875 41.003906 C 23.039062 40.28125 24.714844 38.882812 25.796875 37.140625 C 25.796875 37.132812 25.804688 37.125 25.804688 37.121094 C 25.882812 36.925781 25.980469 36.738281 26.074219 36.550781 C 26.167969 36.363281 26.273438 36.183594 26.390625 36.003906 C 26.390625 36.003906 26.390625 36.003906 26.390625 35.996094 C 26.953125 35.082031 27.679688 34.265625 28.535156 33.59375 C 28.707031 33.457031 28.882812 33.324219 29.066406 33.203125 C 29.1875 33.125 29.308594 33.042969 29.433594 32.964844 C 29.621094 32.851562 29.816406 32.738281 30.011719 32.636719 C 30.148438 32.570312 30.28125 32.503906 30.417969 32.441406 C 30.894531 32.222656 31.398438 32.046875 31.921875 31.90625 C 32.695312 31.707031 33.476562 31.605469 34.234375 31.601562 C 34.429688 31.601562 34.632812 31.605469 34.828125 31.613281 C 35.390625 31.648438 35.941406 31.726562 36.480469 31.859375 C 37.226562 32.042969 37.945312 32.316406 38.625 32.667969 C 38.707031 32.710938 38.785156 32.757812 38.867188 32.804688 C 39.417969 33.109375 39.9375 33.476562 40.40625 33.894531 C 40.59375 34.058594 40.785156 34.226562 40.957031 34.40625 C 41.140625 34.59375 41.316406 34.789062 41.484375 34.996094 C 41.542969 35.070312 41.597656 35.136719 41.652344 35.210938 C 41.726562 35.300781 41.792969 35.394531 41.867188 35.496094 C 41.933594 35.589844 41.992188 35.675781 42.054688 35.777344 C 42.242188 36.0625 42.425781 36.363281 42.578125 36.679688 C 42.625 36.773438 42.671875 36.867188 42.71875 36.964844 C 42.808594 37.160156 42.894531 37.355469 42.96875 37.554688 C 43.082031 37.855469 43.183594 38.164062 43.269531 38.484375 C 43.425781 39.078125 43.527344 39.671875 43.558594 40.265625 C 43.574219 40.496094 43.582031 40.730469 43.574219 40.960938 Z M 43.574219 40.960938 " fill-opacity="1" fill-rule="nonzero"/></g><g clip-path="url(#48a6277b6b)"><path fill="#7391ff" d="M 25.402344 43.523438 C 23.714844 43.113281 22.160156 42.238281 20.949219 41.003906 C 23.027344 40.28125 24.707031 38.878906 25.789062 37.121094 C 24.96875 38.964844 24.75 41.097656 25.304688 43.195312 C 25.332031 43.308594 25.367188 43.414062 25.402344 43.523438 Z M 20.941406 41.003906 C 19.855469 39.898438 19.035156 38.503906 18.601562 36.90625 C 18.488281 36.484375 18.410156 36.058594 18.363281 35.636719 C 18.480469 35.609375 18.609375 35.582031 18.730469 35.550781 C 21.515625 34.820312 23.242188 32.128906 22.820312 29.363281 C 22.796875 29.242188 22.636719 29.214844 22.578125 29.320312 C 21.863281 30.578125 20.601562 31.105469 19.082031 31.507812 C 18.914062 31.554688 18.738281 31.585938 18.570312 31.613281 C 18.078125 31.695312 17.589844 31.707031 17.109375 31.660156 C 14.871094 31.445312 12.957031 30.316406 12.34375 28.011719 C 12.324219 27.9375 12.222656 27.9375 12.195312 28.003906 C 11.71875 29.101562 11.589844 30.363281 11.925781 31.605469 C 12.527344 33.871094 14.453125 35.4375 16.660156 35.695312 C 16.632812 37.046875 16.789062 38.417969 17.152344 39.785156 C 17.3125 40.386719 17.5 40.96875 17.730469 41.53125 C 18.554688 41.542969 19.402344 41.445312 20.238281 41.222656 C 20.480469 41.15625 20.714844 41.082031 20.941406 41.003906 Z M 20.941406 41.003906 " fill-opacity="1" fill-rule="nonzero"/></g><g clip-path="url(#e9f1c9b409)"><path fill="#b7c8ff" d="M 43.015625 43.996094 C 42.335938 45.855469 41.066406 47.472656 39.363281 48.574219 C 39.050781 48.773438 38.71875 48.953125 38.382812 49.128906 C 37.429688 49.621094 36.40625 50.015625 35.316406 50.304688 C 32.339844 51.085938 29.332031 50.914062 26.632812 49.96875 C 26.632812 48.875 26.824219 47.8125 27.1875 46.808594 C 27.621094 45.640625 28.285156 44.5625 29.140625 43.65625 C 30.289062 42.425781 31.792969 41.496094 33.550781 41.042969 C 33.816406 40.96875 34.09375 40.914062 34.363281 40.867188 C 37.675781 40.300781 40.945312 41.5625 43.015625 43.996094 Z M 43.015625 43.996094 " fill-opacity="1" fill-rule="nonzero"/></g><path fill="#55697d" d="M 41.101562 39.359375 C 41.101562 39.660156 40.859375 39.898438 40.554688 39.898438 C 40.253906 39.898438 40.011719 39.660156 40.011719 39.359375 C 40.011719 39.058594 40.253906 38.816406 40.554688 38.816406 C 40.859375 38.816406 41.101562 39.058594 41.101562 39.359375 Z M 30.195312 38.945312 C 29.890625 38.945312 29.648438 39.183594 29.648438 39.484375 C 29.648438 39.785156 29.890625 40.027344 30.195312 40.027344 C 30.496094 40.027344 30.738281 39.785156 30.738281 39.484375 C 30.738281 39.183594 30.496094 38.945312 30.195312 38.945312 Z M 34.933594 39.484375 C 34.933594 39.980469 35.335938 40.386719 35.84375 40.386719 C 36.347656 40.386719 36.75 39.988281 36.75 39.484375 Z M 34.933594 39.484375 " fill-opacity="1" fill-rule="nonzero"/><path fill="#b7c8ff" d="M 25.402344 43.515625 C 25.367188 43.40625 25.332031 43.308594 25.304688 43.195312 C 25.097656 42.40625 24.996094 41.609375 24.996094 40.828125 C 24.996094 41.605469 25.097656 42.398438 25.304688 43.1875 C 25.339844 43.300781 25.367188 43.40625 25.402344 43.515625 Z M 28.007812 45.132812 C 28.3125 44.636719 28.667969 44.175781 29.058594 43.742188 C 28.667969 44.167969 28.3125 44.636719 28.007812 45.132812 Z M 28.007812 45.132812 " fill-opacity="1" fill-rule="nonzero"/><g clip-path="url(#b42ac658ec)"><path fill="#91aaff" d="M 75.308594 41.132812 C 75.308594 41.246094 75.300781 41.367188 75.292969 41.480469 C 75.28125 41.710938 75.261719 41.941406 75.234375 42.167969 C 75.144531 42.855469 74.984375 43.523438 74.75 44.160156 C 74.070312 46.015625 72.800781 47.632812 71.097656 48.734375 C 70.78125 48.9375 70.453125 49.117188 70.117188 49.289062 C 69.164062 49.785156 68.140625 50.179688 67.050781 50.464844 C 64.074219 51.25 61.066406 51.074219 58.363281 50.132812 L 58.363281 50.125 C 54.910156 48.921875 51.957031 46.476562 50.175781 43.175781 C 50.175781 43.167969 50.167969 43.164062 50.167969 43.15625 C 50.117188 43.054688 50.0625 42.957031 50.015625 42.855469 C 50.007812 42.835938 49.996094 42.816406 49.988281 42.796875 C 49.941406 42.707031 49.898438 42.621094 49.859375 42.527344 C 49.847656 42.496094 49.828125 42.460938 49.8125 42.429688 C 49.777344 42.355469 49.746094 42.273438 49.707031 42.195312 C 49.683594 42.148438 49.664062 42.101562 49.644531 42.054688 C 49.617188 41.988281 49.589844 41.925781 49.5625 41.859375 C 49.539062 41.800781 49.515625 41.746094 49.488281 41.6875 L 49.476562 41.6875 C 49.25 41.125 49.058594 40.542969 48.898438 39.941406 C 48.535156 38.570312 48.378906 37.203125 48.40625 35.851562 C 46.1875 35.605469 44.257812 34.042969 43.660156 31.777344 C 43.324219 30.535156 43.445312 29.269531 43.929688 28.175781 C 43.957031 28.109375 44.058594 28.113281 44.078125 28.179688 C 44.691406 30.488281 46.605469 31.617188 48.851562 31.828125 C 49.328125 31.875 49.820312 31.863281 50.308594 31.78125 C 50.480469 31.757812 50.652344 31.722656 50.820312 31.675781 C 52.339844 31.273438 53.605469 30.742188 54.316406 29.492188 C 54.378906 29.382812 54.539062 29.410156 54.558594 29.53125 C 54.984375 32.296875 53.25 34.992188 50.472656 35.71875 C 50.351562 35.753906 50.222656 35.777344 50.101562 35.804688 C 50.148438 36.226562 50.230469 36.65625 50.34375 37.074219 C 50.773438 38.671875 51.59375 40.070312 52.683594 41.164062 C 52.691406 41.164062 52.691406 41.164062 52.695312 41.164062 C 52.695312 41.164062 52.695312 41.164062 52.703125 41.171875 C 54.773438 40.449219 56.449219 39.054688 57.53125 37.308594 C 57.53125 37.300781 57.539062 37.296875 57.539062 37.289062 C 57.617188 37.09375 57.710938 36.910156 57.808594 36.722656 C 57.902344 36.535156 58.007812 36.355469 58.121094 36.171875 C 58.121094 36.171875 58.121094 36.171875 58.121094 36.167969 C 58.6875 35.25 59.414062 34.4375 60.269531 33.761719 C 60.441406 33.628906 60.617188 33.492188 60.796875 33.375 C 60.917969 33.292969 61.039062 33.214844 61.167969 33.132812 C 61.355469 33.019531 61.550781 32.90625 61.746094 32.804688 C 61.882812 32.738281 62.015625 32.671875 62.148438 32.613281 C 62.628906 32.390625 63.132812 32.21875 63.65625 32.078125 C 64.429688 31.875 65.210938 31.777344 65.96875 31.769531 C 66.164062 31.769531 66.367188 31.777344 66.5625 31.78125 C 67.125 31.816406 67.675781 31.898438 68.214844 32.03125 C 68.960938 32.210938 69.679688 32.484375 70.359375 32.839844 C 70.441406 32.878906 70.519531 32.925781 70.601562 32.972656 C 71.152344 33.28125 71.671875 33.648438 72.140625 34.0625 C 72.328125 34.230469 72.515625 34.394531 72.691406 34.578125 C 72.875 34.761719 73.046875 34.957031 73.214844 35.164062 C 73.277344 35.238281 73.332031 35.304688 73.386719 35.378906 C 73.457031 35.472656 73.527344 35.566406 73.601562 35.664062 C 73.667969 35.757812 73.726562 35.847656 73.789062 35.945312 C 73.976562 36.234375 74.15625 36.535156 74.3125 36.847656 C 74.359375 36.941406 74.40625 37.035156 74.453125 37.136719 C 74.542969 37.328125 74.628906 37.523438 74.703125 37.722656 C 74.816406 38.023438 74.917969 38.332031 75.003906 38.652344 C 75.160156 39.246094 75.261719 39.84375 75.292969 40.4375 C 75.308594 40.664062 75.316406 40.898438 75.308594 41.132812 Z M 75.308594 41.132812 " fill-opacity="1" fill-rule="nonzero"/></g><g clip-path="url(#5649367d5b)"><path fill="#7391ff" d="M 57.132812 43.691406 C 55.445312 43.28125 53.894531 42.40625 52.683594 41.171875 C 54.761719 40.449219 56.441406 39.046875 57.523438 37.289062 C 56.703125 39.132812 56.484375 41.265625 57.039062 43.363281 C 57.066406 43.476562 57.101562 43.582031 57.132812 43.691406 Z M 52.675781 41.171875 C 51.585938 40.070312 50.769531 38.671875 50.335938 37.074219 C 50.222656 36.65625 50.140625 36.226562 50.09375 35.804688 C 50.214844 35.777344 50.34375 35.753906 50.464844 35.71875 C 53.25 34.992188 54.976562 32.296875 54.554688 29.53125 C 54.53125 29.410156 54.371094 29.382812 54.3125 29.492188 C 53.597656 30.746094 52.335938 31.273438 50.816406 31.675781 C 50.648438 31.722656 50.472656 31.757812 50.304688 31.78125 C 49.8125 31.863281 49.320312 31.875 48.84375 31.828125 C 46.605469 31.617188 44.691406 30.488281 44.078125 28.179688 C 44.058594 28.109375 43.957031 28.109375 43.929688 28.175781 C 43.453125 29.269531 43.324219 30.535156 43.660156 31.777344 C 44.257812 34.042969 46.1875 35.605469 48.394531 35.867188 C 48.367188 37.214844 48.523438 38.585938 48.886719 39.957031 C 49.046875 40.558594 49.234375 41.136719 49.464844 41.699219 C 50.289062 41.710938 51.136719 41.613281 51.972656 41.390625 C 52.214844 41.324219 52.449219 41.25 52.675781 41.171875 Z M 52.675781 41.171875 " fill-opacity="1" fill-rule="nonzero"/></g><path fill="#b7c8ff" d="M 74.75 44.164062 C 74.070312 46.023438 72.800781 47.640625 71.097656 48.742188 C 70.78125 48.941406 70.453125 49.125 70.117188 49.296875 C 69.164062 49.792969 68.140625 50.1875 67.050781 50.472656 C 64.074219 51.253906 61.066406 51.082031 58.363281 50.140625 C 58.363281 49.042969 58.558594 47.980469 58.921875 46.976562 C 59.351562 45.808594 60.019531 44.734375 60.871094 43.824219 C 62.023438 42.59375 63.527344 41.667969 65.285156 41.210938 C 65.550781 41.136719 65.828125 41.085938 66.097656 41.039062 C 69.410156 40.46875 72.679688 41.734375 74.75 44.164062 Z M 74.75 44.164062 " fill-opacity="1" fill-rule="nonzero"/><path fill="#55697d" d="M 72.832031 39.527344 C 72.832031 39.828125 72.589844 40.070312 72.289062 40.070312 C 71.988281 40.070312 71.746094 39.828125 71.746094 39.527344 C 71.746094 39.226562 71.988281 38.988281 72.289062 38.988281 C 72.589844 38.988281 72.832031 39.226562 72.832031 39.527344 Z M 61.929688 39.113281 C 61.625 39.113281 61.382812 39.355469 61.382812 39.65625 C 61.382812 39.957031 61.625 40.195312 61.929688 40.195312 C 62.230469 40.195312 62.472656 39.957031 62.472656 39.65625 C 62.472656 39.355469 62.230469 39.113281 61.929688 39.113281 Z M 66.667969 39.65625 C 66.667969 40.148438 67.070312 40.558594 67.574219 40.558594 C 68.082031 40.558594 68.484375 40.15625 68.484375 39.65625 Z M 66.667969 39.65625 " fill-opacity="1" fill-rule="nonzero"/><path fill="#b7c8ff" d="M 57.132812 43.683594 C 57.101562 43.578125 57.066406 43.476562 57.039062 43.363281 C 56.832031 42.574219 56.730469 41.78125 56.730469 40.996094 C 56.730469 41.773438 56.832031 42.566406 57.039062 43.355469 C 57.074219 43.46875 57.101562 43.578125 57.132812 43.683594 Z M 59.742188 45.300781 C 60.046875 44.808594 60.402344 44.34375 60.792969 43.910156 C 60.402344 44.339844 60.046875 44.808594 59.742188 45.300781 Z M 59.742188 45.300781 " fill-opacity="1" fill-rule="nonzero"/><g clip-path="url(#68cf5dfbda)"><path fill="#91aaff" d="M 107.042969 40.960938 C 107.042969 41.074219 107.035156 41.195312 107.027344 41.308594 C 107.015625 41.542969 106.996094 41.769531 106.96875 42 C 106.878906 42.6875 106.71875 43.355469 106.484375 43.988281 C 105.804688 45.847656 104.535156 47.464844 102.832031 48.566406 C 102.515625 48.765625 102.1875 48.949219 101.851562 49.121094 C 100.898438 49.617188 99.875 50.011719 98.785156 50.296875 C 95.808594 51.078125 92.800781 50.90625 90.097656 49.964844 L 90.097656 49.957031 C 86.644531 48.753906 83.691406 46.308594 81.910156 43.007812 C 81.910156 43 81.902344 42.992188 81.902344 42.988281 C 81.847656 42.886719 81.796875 42.785156 81.75 42.6875 C 81.742188 42.667969 81.726562 42.644531 81.722656 42.625 C 81.675781 42.539062 81.632812 42.453125 81.59375 42.359375 C 81.582031 42.324219 81.558594 42.292969 81.546875 42.257812 C 81.511719 42.183594 81.480469 42.105469 81.4375 42.023438 C 81.417969 41.976562 81.398438 41.929688 81.378906 41.882812 C 81.351562 41.816406 81.324219 41.757812 81.296875 41.691406 C 81.269531 41.628906 81.25 41.578125 81.222656 41.515625 L 81.210938 41.515625 C 80.980469 40.957031 80.792969 40.375 80.632812 39.773438 C 80.269531 38.402344 80.113281 37.035156 80.140625 35.683594 C 77.921875 35.4375 75.992188 33.871094 75.394531 31.605469 C 75.058594 30.363281 75.179688 29.101562 75.664062 28.003906 C 75.691406 27.9375 75.792969 27.945312 75.8125 28.011719 C 76.421875 30.316406 78.339844 31.445312 80.585938 31.660156 C 81.0625 31.707031 81.554688 31.695312 82.042969 31.613281 C 82.210938 31.585938 82.386719 31.554688 82.554688 31.507812 C 84.074219 31.105469 85.339844 30.570312 86.050781 29.320312 C 86.113281 29.214844 86.273438 29.242188 86.292969 29.363281 C 86.71875 32.128906 84.984375 34.820312 82.207031 35.550781 C 82.085938 35.582031 81.957031 35.609375 81.835938 35.636719 C 81.882812 36.058594 81.964844 36.484375 82.078125 36.90625 C 82.507812 38.503906 83.328125 39.898438 84.417969 40.996094 C 84.425781 40.996094 84.425781 40.996094 84.429688 40.996094 C 84.429688 40.996094 84.429688 40.996094 84.4375 41.003906 C 86.507812 40.28125 88.183594 38.882812 89.265625 37.140625 C 89.265625 37.132812 89.273438 37.125 89.273438 37.121094 C 89.351562 36.925781 89.445312 36.738281 89.539062 36.550781 C 89.636719 36.363281 89.742188 36.183594 89.855469 36.003906 C 89.855469 36.003906 89.855469 36.003906 89.855469 35.996094 C 90.421875 35.082031 91.148438 34.265625 92 33.59375 C 92.175781 33.457031 92.351562 33.324219 92.53125 33.203125 C 92.652344 33.125 92.773438 33.042969 92.902344 32.964844 C 93.089844 32.851562 93.285156 32.738281 93.480469 32.636719 C 93.613281 32.570312 93.75 32.503906 93.882812 32.441406 C 94.363281 32.222656 94.867188 32.046875 95.390625 31.90625 C 96.164062 31.707031 96.941406 31.605469 97.703125 31.601562 C 97.898438 31.601562 98.101562 31.605469 98.292969 31.613281 C 98.859375 31.648438 99.410156 31.726562 99.949219 31.859375 C 100.695312 32.042969 101.414062 32.316406 102.09375 32.667969 C 102.175781 32.710938 102.253906 32.757812 102.335938 32.804688 C 102.886719 33.109375 103.40625 33.476562 103.875 33.894531 C 104.0625 34.058594 104.25 34.226562 104.425781 34.40625 C 104.609375 34.59375 104.78125 34.789062 104.949219 34.996094 C 105.011719 35.070312 105.066406 35.136719 105.117188 35.210938 C 105.191406 35.300781 105.261719 35.394531 105.332031 35.496094 C 105.402344 35.589844 105.460938 35.675781 105.523438 35.777344 C 105.710938 36.0625 105.890625 36.363281 106.046875 36.679688 C 106.09375 36.773438 106.140625 36.867188 106.1875 36.964844 C 106.273438 37.160156 106.363281 37.355469 106.4375 37.554688 C 106.550781 37.855469 106.652344 38.164062 106.738281 38.484375 C 106.894531 39.078125 106.996094 39.671875 107.027344 40.265625 C 107.042969 40.496094 107.046875 40.730469 107.042969 40.960938 Z M 107.042969 40.960938 " fill-opacity="1" fill-rule="nonzero"/></g><g clip-path="url(#955089e226)"><path fill="#7391ff" d="M 88.867188 43.523438 C 87.179688 43.113281 85.628906 42.238281 84.417969 41.003906 C 86.496094 40.28125 88.175781 38.878906 89.257812 37.121094 C 88.4375 38.964844 88.214844 41.097656 88.773438 43.195312 C 88.800781 43.308594 88.835938 43.414062 88.867188 43.523438 Z M 84.410156 41.003906 C 83.320312 39.898438 82.5 38.503906 82.070312 36.90625 C 81.957031 36.484375 81.875 36.058594 81.828125 35.636719 C 81.949219 35.609375 82.078125 35.582031 82.199219 35.550781 C 84.984375 34.820312 86.710938 32.128906 86.285156 29.363281 C 86.265625 29.242188 86.105469 29.214844 86.042969 29.320312 C 85.332031 30.578125 84.066406 31.105469 82.546875 31.507812 C 82.378906 31.554688 82.207031 31.585938 82.039062 31.613281 C 81.546875 31.695312 81.054688 31.707031 80.578125 31.660156 C 78.339844 31.445312 76.421875 30.316406 75.8125 28.011719 C 75.792969 27.9375 75.691406 27.9375 75.664062 28.003906 C 75.1875 29.101562 75.058594 30.363281 75.394531 31.605469 C 75.992188 33.871094 77.921875 35.4375 80.128906 35.695312 C 80.101562 37.046875 80.257812 38.417969 80.617188 39.785156 C 80.78125 40.386719 80.96875 40.96875 81.195312 41.53125 C 82.023438 41.542969 82.871094 41.445312 83.703125 41.222656 C 83.945312 41.15625 84.183594 41.082031 84.410156 41.003906 Z M 84.410156 41.003906 " fill-opacity="1" fill-rule="nonzero"/></g><path fill="#b7c8ff" d="M 106.484375 43.996094 C 105.804688 45.855469 104.535156 47.472656 102.832031 48.574219 C 102.515625 48.773438 102.1875 48.953125 101.851562 49.128906 C 100.898438 49.621094 99.875 50.015625 98.785156 50.304688 C 95.808594 51.085938 92.800781 50.914062 90.097656 49.96875 C 90.097656 48.875 90.292969 47.8125 90.65625 46.808594 C 91.085938 45.640625 91.753906 44.5625 92.605469 43.65625 C 93.757812 42.425781 95.261719 41.496094 97.015625 41.042969 C 97.285156 40.96875 97.5625 40.914062 97.832031 40.867188 C 101.144531 40.300781 104.414062 41.5625 106.484375 43.996094 Z M 106.484375 43.996094 " fill-opacity="1" fill-rule="nonzero"/><path fill="#55697d" d="M 104.566406 39.359375 C 104.566406 39.660156 104.324219 39.898438 104.023438 39.898438 C 103.71875 39.898438 103.476562 39.660156 103.476562 39.359375 C 103.476562 39.058594 103.71875 38.816406 104.023438 38.816406 C 104.324219 38.816406 104.566406 39.058594 104.566406 39.359375 Z M 93.664062 38.945312 C 93.359375 38.945312 93.117188 39.183594 93.117188 39.484375 C 93.117188 39.785156 93.359375 40.027344 93.664062 40.027344 C 93.964844 40.027344 94.207031 39.785156 94.207031 39.484375 C 94.207031 39.183594 93.964844 38.945312 93.664062 38.945312 Z M 98.402344 39.484375 C 98.402344 39.980469 98.804688 40.386719 99.308594 40.386719 C 99.8125 40.386719 100.21875 39.988281 100.21875 39.484375 Z M 98.402344 39.484375 " fill-opacity="1" fill-rule="nonzero"/><path fill="#b7c8ff" d="M 88.867188 43.515625 C 88.835938 43.40625 88.800781 43.308594 88.773438 43.195312 C 88.566406 42.40625 88.464844 41.609375 88.464844 40.828125 C 88.464844 41.605469 88.566406 42.398438 88.773438 43.1875 C 88.808594 43.300781 88.835938 43.40625 88.867188 43.515625 Z M 91.476562 45.132812 C 91.78125 44.636719 92.136719 44.175781 92.527344 43.742188 C 92.136719 44.167969 91.78125 44.636719 91.476562 45.132812 Z M 91.476562 45.132812 " fill-opacity="1" fill-rule="nonzero"/><g clip-path="url(#855dc77cd6)"><path fill="#91aaff" d="M 138.566406 75.644531 C 138.566406 75.734375 138.558594 75.832031 138.554688 75.921875 C 138.542969 76.113281 138.527344 76.296875 138.507812 76.476562 C 138.4375 77.035156 138.308594 77.570312 138.125 78.085938 C 137.585938 79.582031 136.582031 80.886719 135.238281 81.777344 C 134.988281 81.9375 134.726562 82.082031 134.460938 82.222656 C 133.707031 82.621094 132.898438 82.9375 132.039062 83.171875 C 129.683594 83.800781 127.304688 83.660156 125.167969 82.902344 L 125.167969 82.894531 C 122.4375 81.925781 120.101562 79.953125 118.695312 77.292969 C 118.695312 77.285156 118.6875 77.28125 118.6875 77.277344 C 118.644531 77.195312 118.601562 77.113281 118.566406 77.035156 C 118.5625 77.015625 118.550781 77 118.542969 76.984375 C 118.507812 76.914062 118.476562 76.84375 118.445312 76.769531 C 118.433594 76.742188 118.417969 76.714844 118.40625 76.6875 C 118.378906 76.628906 118.351562 76.5625 118.320312 76.5 C 118.304688 76.460938 118.289062 76.425781 118.273438 76.386719 C 118.253906 76.332031 118.230469 76.285156 118.210938 76.230469 C 118.1875 76.183594 118.171875 76.140625 118.152344 76.089844 L 118.140625 76.089844 C 117.960938 75.636719 117.8125 75.167969 117.683594 74.683594 C 117.398438 73.578125 117.273438 72.472656 117.296875 71.386719 C 115.542969 71.1875 114.015625 69.925781 113.542969 68.097656 C 113.277344 67.097656 113.371094 66.078125 113.753906 65.195312 C 113.777344 65.140625 113.855469 65.144531 113.871094 65.199219 C 114.355469 67.058594 115.871094 67.96875 117.644531 68.140625 C 118.023438 68.179688 118.410156 68.167969 118.800781 68.105469 C 118.933594 68.082031 119.070312 68.054688 119.203125 68.019531 C 120.40625 67.695312 121.40625 67.261719 121.96875 66.253906 C 122.015625 66.167969 122.144531 66.191406 122.160156 66.289062 C 122.496094 68.519531 121.125 70.691406 118.925781 71.277344 C 118.832031 71.304688 118.730469 71.328125 118.636719 71.347656 C 118.671875 71.6875 118.734375 72.03125 118.828125 72.371094 C 119.167969 73.660156 119.816406 74.785156 120.675781 75.667969 C 120.683594 75.667969 120.683594 75.667969 120.6875 75.667969 C 120.6875 75.667969 120.6875 75.667969 120.691406 75.675781 C 122.328125 75.09375 123.652344 73.96875 124.507812 72.558594 C 124.507812 72.554688 124.515625 72.550781 124.515625 72.542969 C 124.578125 72.386719 124.652344 72.238281 124.726562 72.085938 C 124.800781 71.933594 124.886719 71.789062 124.976562 71.644531 C 124.976562 71.644531 124.976562 71.644531 124.976562 71.640625 C 125.425781 70.902344 126 70.242188 126.671875 69.699219 C 126.8125 69.589844 126.949219 69.484375 127.09375 69.386719 C 127.1875 69.320312 127.285156 69.257812 127.386719 69.191406 C 127.535156 69.101562 127.6875 69.007812 127.84375 68.929688 C 127.949219 68.875 128.054688 68.820312 128.160156 68.773438 C 128.539062 68.59375 128.9375 68.453125 129.351562 68.339844 C 129.964844 68.179688 130.582031 68.097656 131.179688 68.09375 C 131.335938 68.09375 131.496094 68.097656 131.648438 68.105469 C 132.097656 68.128906 132.53125 68.195312 132.957031 68.304688 C 133.546875 68.449219 134.117188 68.667969 134.652344 68.957031 C 134.714844 68.988281 134.78125 69.023438 134.84375 69.0625 C 135.28125 69.3125 135.691406 69.605469 136.0625 69.941406 C 136.210938 70.078125 136.359375 70.210938 136.496094 70.355469 C 136.640625 70.507812 136.78125 70.664062 136.914062 70.832031 C 136.960938 70.890625 137.003906 70.945312 137.046875 71.003906 C 137.105469 71.078125 137.15625 71.152344 137.214844 71.234375 C 137.269531 71.308594 137.316406 71.378906 137.363281 71.460938 C 137.511719 71.691406 137.65625 71.933594 137.777344 72.1875 C 137.816406 72.265625 137.851562 72.339844 137.890625 72.421875 C 137.960938 72.578125 138.027344 72.734375 138.085938 72.894531 C 138.175781 73.136719 138.257812 73.386719 138.328125 73.644531 C 138.449219 74.125 138.527344 74.601562 138.554688 75.082031 C 138.566406 75.265625 138.570312 75.453125 138.566406 75.644531 Z M 138.566406 75.644531 " fill-opacity="1" fill-rule="nonzero"/></g><g clip-path="url(#083f91a104)"><path fill="#7391ff" d="M 124.195312 77.707031 C 122.863281 77.378906 121.632812 76.671875 120.675781 75.675781 C 122.320312 75.09375 123.648438 73.960938 124.503906 72.542969 C 123.855469 74.03125 123.679688 75.75 124.121094 77.441406 C 124.144531 77.535156 124.167969 77.621094 124.195312 77.707031 Z M 120.671875 75.675781 C 119.808594 74.785156 119.160156 73.660156 118.820312 72.371094 C 118.730469 72.03125 118.667969 71.6875 118.628906 71.347656 C 118.726562 71.328125 118.828125 71.304688 118.921875 71.277344 C 121.125 70.691406 122.488281 68.519531 122.15625 66.289062 C 122.136719 66.191406 122.011719 66.167969 121.964844 66.253906 C 121.398438 67.269531 120.398438 67.695312 119.199219 68.019531 C 119.066406 68.054688 118.925781 68.082031 118.792969 68.105469 C 118.40625 68.167969 118.019531 68.179688 117.640625 68.140625 C 115.871094 67.96875 114.355469 67.058594 113.871094 65.199219 C 113.855469 65.140625 113.777344 65.140625 113.753906 65.195312 C 113.378906 66.078125 113.277344 67.097656 113.542969 68.097656 C 114.015625 69.925781 115.542969 71.1875 117.285156 71.398438 C 117.261719 72.484375 117.386719 73.589844 117.671875 74.695312 C 117.800781 75.179688 117.949219 75.648438 118.128906 76.101562 C 118.785156 76.113281 119.453125 76.03125 120.113281 75.851562 C 120.304688 75.800781 120.492188 75.738281 120.671875 75.675781 Z M 120.671875 75.675781 " fill-opacity="1" fill-rule="nonzero"/></g><g clip-path="url(#9b74f7859e)"><path fill="#b7c8ff" d="M 138.125 78.089844 C 137.585938 79.585938 136.582031 80.890625 135.238281 81.78125 C 134.988281 81.941406 134.726562 82.089844 134.460938 82.226562 C 133.707031 82.625 132.898438 82.945312 132.039062 83.175781 C 129.683594 83.808594 127.304688 83.667969 125.167969 82.90625 C 125.167969 82.023438 125.324219 81.167969 125.609375 80.359375 C 125.949219 79.414062 126.476562 78.546875 127.152344 77.816406 C 128.0625 76.824219 129.25 76.074219 130.640625 75.707031 C 130.851562 75.648438 131.070312 75.605469 131.28125 75.566406 C 133.902344 75.109375 136.488281 76.128906 138.125 78.089844 Z M 138.125 78.089844 " fill-opacity="1" fill-rule="nonzero"/></g><path fill="#55697d" d="M 136.609375 74.347656 C 136.609375 74.59375 136.417969 74.785156 136.179688 74.785156 C 135.941406 74.785156 135.75 74.59375 135.75 74.347656 C 135.75 74.105469 135.941406 73.914062 136.179688 73.914062 C 136.417969 73.914062 136.609375 74.105469 136.609375 74.347656 Z M 127.988281 74.015625 C 127.746094 74.015625 127.554688 74.210938 127.554688 74.453125 C 127.554688 74.695312 127.746094 74.886719 127.988281 74.886719 C 128.226562 74.886719 128.417969 74.695312 128.417969 74.453125 C 128.417969 74.210938 128.226562 74.015625 127.988281 74.015625 Z M 131.734375 74.453125 C 131.734375 74.851562 132.054688 75.179688 132.453125 75.179688 C 132.851562 75.179688 133.167969 74.855469 133.167969 74.453125 Z M 131.734375 74.453125 " fill-opacity="1" fill-rule="nonzero"/><path fill="#b7c8ff" d="M 124.195312 77.703125 C 124.167969 77.617188 124.144531 77.535156 124.121094 77.441406 C 123.957031 76.808594 123.878906 76.164062 123.878906 75.535156 C 123.878906 76.160156 123.957031 76.800781 124.121094 77.4375 C 124.148438 77.527344 124.167969 77.617188 124.195312 77.703125 Z M 126.257812 79.003906 C 126.496094 78.605469 126.78125 78.234375 127.089844 77.882812 C 126.78125 78.230469 126.496094 78.605469 126.257812 79.003906 Z M 126.257812 79.003906 " fill-opacity="1" fill-rule="nonzero"/><g clip-path="url(#fc224fdb0e)"><path fill="#91aaff" d="M 138.777344 40.960938 C 138.777344 41.074219 138.769531 41.195312 138.761719 41.308594 C 138.75 41.542969 138.730469 41.769531 138.703125 42 C 138.613281 42.6875 138.453125 43.355469 138.21875 43.988281 C 137.539062 45.847656 136.269531 47.464844 134.566406 48.566406 C 134.25 48.765625 133.921875 48.949219 133.585938 49.121094 C 132.628906 49.617188 131.609375 50.011719 130.519531 50.296875 C 127.539062 51.078125 124.535156 50.90625 121.832031 49.964844 L 121.832031 49.957031 C 118.378906 48.753906 115.425781 46.308594 113.644531 43.007812 C 113.644531 43 113.636719 42.992188 113.636719 42.988281 C 113.582031 42.886719 113.53125 42.785156 113.484375 42.6875 C 113.476562 42.667969 113.460938 42.644531 113.457031 42.625 C 113.410156 42.539062 113.367188 42.453125 113.328125 42.359375 C 113.3125 42.324219 113.292969 42.292969 113.28125 42.257812 C 113.246094 42.183594 113.214844 42.105469 113.171875 42.023438 C 113.152344 41.976562 113.132812 41.929688 113.113281 41.882812 C 113.085938 41.816406 113.058594 41.757812 113.03125 41.691406 C 113.003906 41.628906 112.984375 41.578125 112.957031 41.515625 L 112.945312 41.515625 C 112.714844 40.957031 112.527344 40.375 112.367188 39.773438 C 112.003906 38.402344 111.847656 37.035156 111.875 35.683594 C 109.65625 35.4375 107.726562 33.871094 107.128906 31.605469 C 106.792969 30.363281 106.914062 29.101562 107.398438 28.003906 C 107.425781 27.9375 107.527344 27.945312 107.546875 28.011719 C 108.15625 30.316406 110.074219 31.445312 112.320312 31.660156 C 112.796875 31.707031 113.289062 31.695312 113.777344 31.613281 C 113.945312 31.585938 114.121094 31.554688 114.289062 31.507812 C 115.808594 31.105469 117.074219 30.570312 117.785156 29.320312 C 117.847656 29.214844 118.007812 29.242188 118.027344 29.363281 C 118.449219 32.128906 116.714844 34.820312 113.941406 35.550781 C 113.820312 35.582031 113.691406 35.609375 113.570312 35.636719 C 113.617188 36.058594 113.699219 36.484375 113.8125 36.90625 C 114.242188 38.503906 115.0625 39.898438 116.152344 40.996094 C 116.160156 40.996094 116.160156 40.996094 116.164062 40.996094 C 116.164062 40.996094 116.164062 40.996094 116.171875 41.003906 C 118.242188 40.28125 119.917969 38.882812 121 37.140625 C 121 37.132812 121.007812 37.125 121.007812 37.121094 C 121.085938 36.925781 121.179688 36.738281 121.273438 36.550781 C 121.367188 36.363281 121.476562 36.183594 121.589844 36.003906 C 121.589844 36.003906 121.589844 36.003906 121.589844 35.996094 C 122.15625 35.082031 122.882812 34.265625 123.734375 33.59375 C 123.910156 33.457031 124.085938 33.324219 124.265625 33.203125 C 124.386719 33.125 124.507812 33.042969 124.636719 32.964844 C 124.824219 32.851562 125.019531 32.738281 125.214844 32.636719 C 125.347656 32.570312 125.484375 32.503906 125.617188 32.441406 C 126.09375 32.222656 126.601562 32.046875 127.125 31.90625 C 127.898438 31.707031 128.675781 31.605469 129.4375 31.601562 C 129.632812 31.601562 129.832031 31.605469 130.027344 31.613281 C 130.59375 31.648438 131.144531 31.726562 131.683594 31.859375 C 132.429688 32.042969 133.148438 32.316406 133.828125 32.667969 C 133.90625 32.710938 133.988281 32.757812 134.070312 32.804688 C 134.621094 33.109375 135.136719 33.476562 135.609375 33.894531 C 135.796875 34.058594 135.984375 34.226562 136.160156 34.40625 C 136.34375 34.59375 136.515625 34.789062 136.683594 34.996094 C 136.746094 35.070312 136.800781 35.136719 136.851562 35.210938 C 136.925781 35.300781 136.992188 35.394531 137.066406 35.496094 C 137.136719 35.589844 137.195312 35.675781 137.257812 35.777344 C 137.445312 36.0625 137.625 36.363281 137.78125 36.679688 C 137.828125 36.773438 137.875 36.867188 137.921875 36.964844 C 138.007812 37.160156 138.097656 37.355469 138.171875 37.554688 C 138.285156 37.855469 138.386719 38.164062 138.472656 38.484375 C 138.628906 39.078125 138.730469 39.671875 138.761719 40.265625 C 138.777344 40.496094 138.78125 40.730469 138.777344 40.960938 Z M 138.777344 40.960938 " fill-opacity="1" fill-rule="nonzero"/></g><g clip-path="url(#6f925e2dbf)"><path fill="#7391ff" d="M 120.601562 43.523438 C 118.914062 43.113281 117.363281 42.238281 116.152344 41.003906 C 118.230469 40.28125 119.910156 38.878906 120.992188 37.121094 C 120.171875 38.964844 119.949219 41.097656 120.507812 43.195312 C 120.535156 43.308594 120.570312 43.414062 120.601562 43.523438 Z M 116.144531 41.003906 C 115.054688 39.898438 114.234375 38.503906 113.804688 36.90625 C 113.691406 36.484375 113.609375 36.058594 113.5625 35.636719 C 113.683594 35.609375 113.8125 35.582031 113.933594 35.550781 C 116.714844 34.820312 118.445312 32.128906 118.019531 29.363281 C 118 29.242188 117.839844 29.214844 117.777344 29.320312 C 117.066406 30.578125 115.800781 31.105469 114.28125 31.507812 C 114.113281 31.554688 113.941406 31.585938 113.773438 31.613281 C 113.28125 31.695312 112.789062 31.707031 112.3125 31.660156 C 110.074219 31.445312 108.15625 30.316406 107.546875 28.011719 C 107.527344 27.9375 107.425781 27.9375 107.398438 28.003906 C 106.921875 29.101562 106.792969 30.363281 107.128906 31.605469 C 107.726562 33.871094 109.65625 35.4375 111.863281 35.695312 C 111.835938 37.046875 111.988281 38.417969 112.351562 39.785156 C 112.515625 40.386719 112.703125 40.96875 112.929688 41.53125 C 113.757812 41.542969 114.605469 41.445312 115.4375 41.222656 C 115.679688 41.15625 115.917969 41.082031 116.144531 41.003906 Z M 116.144531 41.003906 " fill-opacity="1" fill-rule="nonzero"/></g><g clip-path="url(#844e57a830)"><path fill="#b7c8ff" d="M 138.21875 43.996094 C 137.539062 45.855469 136.269531 47.472656 134.566406 48.574219 C 134.25 48.773438 133.921875 48.953125 133.585938 49.128906 C 132.628906 49.621094 131.609375 50.015625 130.519531 50.304688 C 127.539062 51.085938 124.535156 50.914062 121.832031 49.96875 C 121.832031 48.875 122.027344 47.8125 122.390625 46.808594 C 122.820312 45.640625 123.488281 44.5625 124.339844 43.65625 C 125.492188 42.425781 126.996094 41.496094 128.75 41.042969 C 129.019531 40.96875 129.296875 40.914062 129.566406 40.867188 C 132.878906 40.300781 136.148438 41.5625 138.21875 43.996094 Z M 138.21875 43.996094 " fill-opacity="1" fill-rule="nonzero"/></g><path fill="#55697d" d="M 136.300781 39.359375 C 136.300781 39.660156 136.058594 39.898438 135.757812 39.898438 C 135.453125 39.898438 135.210938 39.660156 135.210938 39.359375 C 135.210938 39.058594 135.453125 38.816406 135.757812 38.816406 C 136.058594 38.816406 136.300781 39.058594 136.300781 39.359375 Z M 125.394531 38.945312 C 125.09375 38.945312 124.851562 39.183594 124.851562 39.484375 C 124.851562 39.785156 125.09375 40.027344 125.394531 40.027344 C 125.699219 40.027344 125.941406 39.785156 125.941406 39.484375 C 125.941406 39.183594 125.699219 38.945312 125.394531 38.945312 Z M 130.136719 39.484375 C 130.136719 39.980469 130.539062 40.386719 131.042969 40.386719 C 131.546875 40.386719 131.953125 39.988281 131.953125 39.484375 Z M 130.136719 39.484375 " fill-opacity="1" fill-rule="nonzero"/><path fill="#b7c8ff" d="M 120.601562 43.515625 C 120.570312 43.40625 120.535156 43.308594 120.507812 43.195312 C 120.300781 42.40625 120.199219 41.609375 120.199219 40.828125 C 120.199219 41.605469 120.300781 42.398438 120.507812 43.1875 C 120.542969 43.300781 120.570312 43.40625 120.601562 43.515625 Z M 123.210938 45.132812 C 123.515625 44.636719 123.871094 44.175781 124.261719 43.742188 C 123.871094 44.167969 123.515625 44.636719 123.210938 45.132812 Z M 123.210938 45.132812 " fill-opacity="1" fill-rule="nonzero"/><g clip-path="url(#19347f24e8)"><path fill="#91aaff" d="M 36.863281 75.507812 C 36.863281 75.597656 36.859375 75.695312 36.851562 75.789062 C 36.839844 75.976562 36.824219 76.160156 36.804688 76.34375 C 36.734375 76.898438 36.609375 77.4375 36.421875 77.949219 C 35.886719 79.445312 34.878906 80.75 33.535156 81.640625 C 33.285156 81.800781 33.027344 81.945312 32.761719 82.085938 C 32.003906 82.484375 31.199219 82.804688 30.335938 83.035156 C 27.984375 83.667969 25.605469 83.527344 23.472656 82.765625 L 23.472656 82.761719 C 20.738281 81.789062 18.40625 79.820312 17 77.15625 C 17 77.152344 16.992188 77.144531 16.992188 77.140625 C 16.949219 77.058594 16.90625 76.980469 16.871094 76.898438 C 16.867188 76.882812 16.855469 76.867188 16.847656 76.847656 C 16.8125 76.777344 16.78125 76.710938 16.75 76.632812 C 16.738281 76.605469 16.722656 76.578125 16.710938 76.554688 C 16.683594 76.492188 16.660156 76.429688 16.625 76.363281 C 16.609375 76.328125 16.59375 76.289062 16.578125 76.25 C 16.558594 76.195312 16.535156 76.148438 16.515625 76.09375 C 16.492188 76.046875 16.476562 76.003906 16.457031 75.953125 L 16.445312 75.953125 C 16.265625 75.503906 16.117188 75.035156 15.988281 74.546875 C 15.703125 73.445312 15.578125 72.339844 15.601562 71.25 C 13.847656 71.050781 12.320312 69.789062 11.847656 67.964844 C 11.582031 66.960938 11.679688 65.941406 12.0625 65.058594 C 12.082031 65.003906 12.164062 65.011719 12.179688 65.0625 C 12.660156 66.921875 14.175781 67.832031 15.953125 68.007812 C 16.328125 68.042969 16.714844 68.03125 17.105469 67.96875 C 17.238281 67.945312 17.375 67.917969 17.507812 67.882812 C 18.710938 67.558594 19.707031 67.128906 20.273438 66.121094 C 20.320312 66.035156 20.449219 66.054688 20.464844 66.152344 C 20.796875 68.382812 19.425781 70.554688 17.230469 71.140625 C 17.136719 71.167969 17.035156 71.191406 16.941406 71.210938 C 16.976562 71.550781 17.039062 71.898438 17.132812 72.238281 C 17.472656 73.523438 18.121094 74.652344 18.980469 75.535156 C 18.984375 75.535156 18.984375 75.535156 18.992188 75.535156 C 18.992188 75.535156 18.992188 75.535156 18.996094 75.539062 C 20.632812 74.957031 21.957031 73.832031 22.8125 72.425781 C 22.8125 72.417969 22.816406 72.414062 22.816406 72.410156 C 22.882812 72.253906 22.957031 72.101562 23.03125 71.949219 C 23.105469 71.800781 23.1875 71.65625 23.28125 71.507812 C 23.28125 71.507812 23.28125 71.507812 23.28125 71.503906 C 23.726562 70.765625 24.300781 70.109375 24.976562 69.5625 C 25.113281 69.457031 25.25 69.347656 25.394531 69.25 C 25.492188 69.1875 25.585938 69.121094 25.6875 69.058594 C 25.835938 68.964844 25.988281 68.875 26.144531 68.792969 C 26.25 68.738281 26.355469 68.683594 26.464844 68.636719 C 26.839844 68.457031 27.238281 68.320312 27.652344 68.207031 C 28.265625 68.042969 28.882812 67.964844 29.480469 67.957031 C 29.636719 67.957031 29.796875 67.964844 29.949219 67.96875 C 30.394531 67.996094 30.832031 68.058594 31.257812 68.167969 C 31.847656 68.3125 32.414062 68.535156 32.953125 68.820312 C 33.015625 68.851562 33.078125 68.890625 33.144531 68.925781 C 33.578125 69.175781 33.988281 69.472656 34.359375 69.804688 C 34.507812 69.941406 34.65625 70.074219 34.796875 70.222656 C 34.9375 70.371094 35.078125 70.527344 35.210938 70.695312 C 35.257812 70.753906 35.300781 70.808594 35.34375 70.867188 C 35.402344 70.941406 35.453125 71.019531 35.511719 71.097656 C 35.566406 71.175781 35.613281 71.246094 35.660156 71.324219 C 35.8125 71.558594 35.953125 71.800781 36.078125 72.054688 C 36.113281 72.128906 36.152344 72.203125 36.1875 72.285156 C 36.257812 72.441406 36.324219 72.597656 36.382812 72.757812 C 36.476562 73 36.554688 73.25 36.625 73.507812 C 36.746094 73.988281 36.824219 74.46875 36.851562 74.945312 C 36.863281 75.128906 36.867188 75.320312 36.863281 75.507812 Z M 36.863281 75.507812 " fill-opacity="1" fill-rule="nonzero"/></g><g clip-path="url(#1b040effe9)"><path fill="#7391ff" d="M 22.5 77.570312 C 21.164062 77.242188 19.9375 76.535156 18.980469 75.539062 C 20.621094 74.957031 21.953125 73.824219 22.808594 72.410156 C 22.160156 73.894531 21.984375 75.613281 22.425781 77.308594 C 22.445312 77.398438 22.472656 77.484375 22.5 77.570312 Z M 18.976562 75.539062 C 18.113281 74.652344 17.464844 73.523438 17.125 72.238281 C 17.035156 71.898438 16.972656 71.550781 16.933594 71.210938 C 17.03125 71.191406 17.132812 71.167969 17.226562 71.140625 C 19.425781 70.554688 20.792969 68.382812 20.457031 66.152344 C 20.441406 66.054688 20.3125 66.035156 20.265625 66.121094 C 19.703125 67.132812 18.703125 67.558594 17.503906 67.882812 C 17.371094 67.917969 17.230469 67.945312 17.097656 67.96875 C 16.710938 68.03125 16.324219 68.042969 15.945312 68.007812 C 14.175781 67.832031 12.660156 66.921875 12.179688 65.0625 C 12.164062 65.003906 12.082031 65.003906 12.0625 65.058594 C 11.683594 65.941406 11.582031 66.960938 11.847656 67.964844 C 12.320312 69.789062 13.847656 71.050781 15.589844 71.261719 C 15.570312 72.347656 15.691406 73.453125 15.976562 74.558594 C 16.105469 75.042969 16.253906 75.511719 16.433594 75.964844 C 17.089844 75.976562 17.757812 75.894531 18.417969 75.71875 C 18.609375 75.664062 18.792969 75.605469 18.976562 75.539062 Z M 18.976562 75.539062 " fill-opacity="1" fill-rule="nonzero"/></g><g clip-path="url(#b7b40d6b71)"><path fill="#b7c8ff" d="M 36.421875 77.953125 C 35.886719 79.453125 34.878906 80.757812 33.535156 81.644531 C 33.285156 81.808594 33.027344 81.953125 32.761719 82.09375 C 32.003906 82.492188 31.199219 82.808594 30.335938 83.042969 C 27.984375 83.671875 25.605469 83.53125 23.472656 82.773438 C 23.472656 81.886719 23.625 81.03125 23.914062 80.222656 C 24.253906 79.28125 24.777344 78.410156 25.453125 77.679688 C 26.363281 76.6875 27.550781 75.9375 28.9375 75.570312 C 29.152344 75.511719 29.371094 75.46875 29.582031 75.433594 C 32.203125 74.972656 34.785156 75.992188 36.421875 77.953125 Z M 36.421875 77.953125 " fill-opacity="1" fill-rule="nonzero"/></g><path fill="#55697d" d="M 34.90625 74.214844 C 34.90625 74.457031 34.714844 74.652344 34.476562 74.652344 C 34.238281 74.652344 34.046875 74.457031 34.046875 74.214844 C 34.046875 73.972656 34.238281 73.777344 34.476562 73.777344 C 34.714844 73.777344 34.90625 73.972656 34.90625 74.214844 Z M 26.289062 73.878906 C 26.046875 73.878906 25.855469 74.074219 25.855469 74.316406 C 25.855469 74.558594 26.046875 74.753906 26.289062 74.753906 C 26.527344 74.753906 26.71875 74.558594 26.71875 74.316406 C 26.71875 74.074219 26.527344 73.878906 26.289062 73.878906 Z M 30.035156 74.316406 C 30.035156 74.714844 30.351562 75.042969 30.75 75.042969 C 31.148438 75.042969 31.46875 74.71875 31.46875 74.316406 Z M 30.035156 74.316406 " fill-opacity="1" fill-rule="nonzero"/><path fill="#b7c8ff" d="M 22.5 77.566406 C 22.472656 77.480469 22.445312 77.398438 22.425781 77.308594 C 22.257812 76.671875 22.179688 76.03125 22.179688 75.398438 C 22.179688 76.023438 22.257812 76.667969 22.425781 77.300781 C 22.449219 77.394531 22.472656 77.480469 22.5 77.566406 Z M 24.558594 78.871094 C 24.800781 78.472656 25.082031 78.097656 25.390625 77.75 C 25.082031 78.09375 24.800781 78.472656 24.558594 78.871094 Z M 24.558594 78.871094 " fill-opacity="1" fill-rule="nonzero"/><g clip-path="url(#0c7952c41c)"><path fill="#91aaff" d="M 62.289062 75.644531 C 62.289062 75.734375 62.28125 75.832031 62.277344 75.921875 C 62.265625 76.113281 62.25 76.296875 62.230469 76.476562 C 62.160156 77.035156 62.03125 77.570312 61.847656 78.085938 C 61.308594 79.582031 60.304688 80.886719 58.960938 81.777344 C 58.710938 81.9375 58.449219 82.082031 58.183594 82.222656 C 57.429688 82.621094 56.621094 82.9375 55.761719 83.171875 C 53.40625 83.800781 51.03125 83.660156 48.894531 82.902344 L 48.894531 82.894531 C 46.164062 81.925781 43.832031 79.953125 42.421875 77.292969 C 42.421875 77.285156 42.417969 77.28125 42.417969 77.277344 C 42.375 77.195312 42.332031 77.113281 42.296875 77.035156 C 42.289062 77.015625 42.28125 77 42.273438 76.984375 C 42.238281 76.914062 42.203125 76.84375 42.171875 76.769531 C 42.164062 76.742188 42.148438 76.714844 42.136719 76.6875 C 42.109375 76.628906 42.082031 76.5625 42.050781 76.5 C 42.035156 76.460938 42.019531 76.425781 42.003906 76.386719 C 41.980469 76.332031 41.960938 76.285156 41.9375 76.230469 C 41.917969 76.183594 41.902344 76.140625 41.878906 76.089844 L 41.871094 76.089844 C 41.691406 75.636719 41.539062 75.167969 41.414062 74.683594 C 41.125 73.578125 41.003906 72.472656 41.023438 71.386719 C 39.273438 71.1875 37.746094 69.925781 37.273438 68.097656 C 37.007812 67.097656 37.101562 66.078125 37.484375 65.195312 C 37.507812 65.140625 37.585938 65.144531 37.601562 65.199219 C 38.085938 67.058594 39.601562 67.96875 41.375 68.140625 C 41.753906 68.179688 42.140625 68.167969 42.527344 68.105469 C 42.660156 68.082031 42.800781 68.054688 42.933594 68.019531 C 44.132812 67.695312 45.132812 67.261719 45.695312 66.253906 C 45.746094 66.167969 45.871094 66.191406 45.886719 66.289062 C 46.222656 68.519531 44.851562 70.691406 42.65625 71.277344 C 42.5625 71.304688 42.460938 71.328125 42.363281 71.347656 C 42.402344 71.6875 42.464844 72.03125 42.554688 72.371094 C 42.894531 73.660156 43.542969 74.785156 44.40625 75.667969 C 44.410156 75.667969 44.410156 75.667969 44.414062 75.667969 C 44.414062 75.667969 44.414062 75.667969 44.421875 75.675781 C 46.058594 75.09375 47.382812 73.96875 48.238281 72.558594 C 48.238281 72.554688 48.242188 72.550781 48.242188 72.542969 C 48.304688 72.386719 48.378906 72.238281 48.453125 72.085938 C 48.527344 71.933594 48.613281 71.789062 48.703125 71.644531 C 48.703125 71.644531 48.703125 71.644531 48.703125 71.640625 C 49.152344 70.902344 49.722656 70.242188 50.398438 69.699219 C 50.539062 69.589844 50.675781 69.484375 50.820312 69.386719 C 50.914062 69.320312 51.011719 69.257812 51.113281 69.191406 C 51.261719 69.101562 51.414062 69.007812 51.570312 68.929688 C 51.675781 68.875 51.78125 68.820312 51.886719 68.773438 C 52.265625 68.59375 52.664062 68.453125 53.078125 68.339844 C 53.6875 68.179688 54.304688 68.097656 54.90625 68.09375 C 55.058594 68.09375 55.21875 68.097656 55.375 68.105469 C 55.820312 68.128906 56.253906 68.195312 56.679688 68.304688 C 57.269531 68.449219 57.839844 68.667969 58.375 68.957031 C 58.441406 68.988281 58.503906 69.023438 58.566406 69.0625 C 59.003906 69.3125 59.414062 69.605469 59.785156 69.941406 C 59.933594 70.078125 60.082031 70.210938 60.21875 70.355469 C 60.363281 70.507812 60.5 70.664062 60.632812 70.832031 C 60.683594 70.890625 60.726562 70.945312 60.765625 71.003906 C 60.824219 71.078125 60.878906 71.152344 60.9375 71.234375 C 60.992188 71.308594 61.039062 71.378906 61.085938 71.460938 C 61.234375 71.691406 61.378906 71.933594 61.5 72.1875 C 61.539062 72.265625 61.574219 72.339844 61.613281 72.421875 C 61.679688 72.578125 61.75 72.734375 61.808594 72.894531 C 61.898438 73.136719 61.980469 73.386719 62.046875 73.644531 C 62.171875 74.125 62.25 74.601562 62.277344 75.082031 C 62.289062 75.265625 62.292969 75.453125 62.289062 75.644531 Z M 62.289062 75.644531 " fill-opacity="1" fill-rule="nonzero"/></g><g clip-path="url(#381e6de641)"><path fill="#7391ff" d="M 47.921875 77.707031 C 46.589844 77.378906 45.363281 76.671875 44.40625 75.675781 C 46.046875 75.09375 47.375 73.960938 48.230469 72.542969 C 47.582031 74.03125 47.40625 75.75 47.847656 77.441406 C 47.871094 77.535156 47.898438 77.621094 47.921875 77.707031 Z M 44.398438 75.675781 C 43.539062 74.785156 42.890625 73.660156 42.550781 72.371094 C 42.460938 72.03125 42.394531 71.6875 42.359375 71.347656 C 42.453125 71.328125 42.554688 71.304688 42.652344 71.277344 C 44.851562 70.691406 46.21875 68.519531 45.882812 66.289062 C 45.867188 66.191406 45.738281 66.167969 45.691406 66.253906 C 45.128906 67.269531 44.128906 67.695312 42.929688 68.019531 C 42.792969 68.054688 42.65625 68.082031 42.523438 68.105469 C 42.136719 68.167969 41.746094 68.179688 41.371094 68.140625 C 39.601562 67.96875 38.085938 67.058594 37.601562 65.199219 C 37.585938 65.140625 37.507812 65.140625 37.484375 65.195312 C 37.109375 66.078125 37.007812 67.097656 37.273438 68.097656 C 37.746094 69.925781 39.273438 71.1875 41.015625 71.398438 C 40.992188 72.484375 41.117188 73.589844 41.402344 74.695312 C 41.53125 75.179688 41.679688 75.648438 41.859375 76.101562 C 42.511719 76.113281 43.183594 76.03125 43.839844 75.851562 C 44.03125 75.800781 44.21875 75.738281 44.398438 75.675781 Z M 44.398438 75.675781 " fill-opacity="1" fill-rule="nonzero"/></g><g clip-path="url(#f9bcb2ea8a)"><path fill="#b7c8ff" d="M 61.847656 78.089844 C 61.308594 79.585938 60.304688 80.890625 58.960938 81.78125 C 58.710938 81.941406 58.449219 82.089844 58.183594 82.226562 C 57.429688 82.625 56.621094 82.945312 55.761719 83.175781 C 53.40625 83.808594 51.03125 83.667969 48.894531 82.90625 C 48.894531 82.023438 49.050781 81.167969 49.335938 80.359375 C 49.675781 79.414062 50.203125 78.546875 50.878906 77.816406 C 51.785156 76.824219 52.976562 76.074219 54.363281 75.707031 C 54.578125 75.648438 54.792969 75.605469 55.007812 75.566406 C 57.625 75.109375 60.210938 76.128906 61.847656 78.089844 Z M 61.847656 78.089844 " fill-opacity="1" fill-rule="nonzero"/></g><path fill="#55697d" d="M 60.332031 74.347656 C 60.332031 74.59375 60.140625 74.785156 59.902344 74.785156 C 59.660156 74.785156 59.472656 74.59375 59.472656 74.347656 C 59.472656 74.105469 59.660156 73.914062 59.902344 73.914062 C 60.140625 73.914062 60.332031 74.105469 60.332031 74.347656 Z M 51.710938 74.015625 C 51.472656 74.015625 51.28125 74.210938 51.28125 74.453125 C 51.28125 74.695312 51.472656 74.886719 51.710938 74.886719 C 51.953125 74.886719 52.140625 74.695312 52.140625 74.453125 C 52.140625 74.210938 51.953125 74.015625 51.710938 74.015625 Z M 55.457031 74.453125 C 55.457031 74.851562 55.777344 75.179688 56.175781 75.179688 C 56.574219 75.179688 56.894531 74.855469 56.894531 74.453125 Z M 55.457031 74.453125 " fill-opacity="1" fill-rule="nonzero"/><path fill="#b7c8ff" d="M 47.921875 77.703125 C 47.898438 77.617188 47.871094 77.535156 47.847656 77.441406 C 47.683594 76.808594 47.605469 76.164062 47.605469 75.535156 C 47.605469 76.160156 47.683594 76.800781 47.847656 77.4375 C 47.875 77.527344 47.898438 77.617188 47.921875 77.703125 Z M 49.984375 79.003906 C 50.222656 78.605469 50.503906 78.234375 50.8125 77.882812 C 50.503906 78.230469 50.222656 78.605469 49.984375 79.003906 Z M 49.984375 79.003906 " fill-opacity="1" fill-rule="nonzero"/><g clip-path="url(#0f0b6c0698)"><path fill="#91aaff" d="M 87.710938 75.507812 C 87.710938 75.597656 87.707031 75.695312 87.703125 75.789062 C 87.691406 75.976562 87.675781 76.160156 87.652344 76.34375 C 87.585938 76.898438 87.457031 77.4375 87.269531 77.949219 C 86.734375 79.445312 85.730469 80.75 84.386719 81.640625 C 84.136719 81.800781 83.875 81.945312 83.609375 82.085938 C 82.855469 82.484375 82.046875 82.804688 81.1875 83.035156 C 78.832031 83.667969 76.457031 83.527344 74.320312 82.765625 L 74.320312 82.761719 C 71.589844 81.789062 69.253906 79.820312 67.847656 77.15625 C 67.847656 77.152344 67.84375 77.144531 67.84375 77.140625 C 67.800781 77.058594 67.757812 76.980469 67.71875 76.898438 C 67.714844 76.882812 67.703125 76.867188 67.699219 76.847656 C 67.660156 76.777344 67.628906 76.710938 67.597656 76.632812 C 67.585938 76.605469 67.570312 76.578125 67.558594 76.554688 C 67.535156 76.492188 67.507812 76.429688 67.476562 76.363281 C 67.460938 76.328125 67.445312 76.289062 67.425781 76.25 C 67.40625 76.195312 67.386719 76.148438 67.363281 76.09375 C 67.34375 76.046875 67.328125 76.003906 67.304688 75.953125 L 67.292969 75.953125 C 67.113281 75.503906 66.964844 75.035156 66.835938 74.546875 C 66.550781 73.445312 66.429688 72.339844 66.449219 71.25 C 64.695312 71.050781 63.171875 69.789062 62.699219 67.964844 C 62.433594 66.960938 62.527344 65.941406 62.910156 65.058594 C 62.933594 65.003906 63.011719 65.011719 63.027344 65.0625 C 63.511719 66.921875 65.027344 67.832031 66.800781 68.007812 C 67.179688 68.042969 67.566406 68.03125 67.953125 67.96875 C 68.085938 67.945312 68.226562 67.917969 68.359375 67.882812 C 69.558594 67.558594 70.558594 67.128906 71.121094 66.121094 C 71.167969 66.035156 71.296875 66.054688 71.3125 66.152344 C 71.648438 68.382812 70.277344 70.554688 68.082031 71.140625 C 67.984375 71.167969 67.882812 71.191406 67.789062 71.210938 C 67.824219 71.550781 67.890625 71.898438 67.980469 72.238281 C 68.320312 73.523438 68.96875 74.652344 69.828125 75.535156 C 69.835938 75.535156 69.835938 75.535156 69.839844 75.535156 C 69.839844 75.535156 69.839844 75.535156 69.84375 75.539062 C 71.480469 74.957031 72.804688 73.832031 73.660156 72.425781 C 73.660156 72.417969 73.667969 72.414062 73.667969 72.410156 C 73.730469 72.253906 73.804688 72.101562 73.878906 71.949219 C 73.953125 71.800781 74.039062 71.65625 74.128906 71.507812 C 74.128906 71.507812 74.128906 71.507812 74.128906 71.503906 C 74.574219 70.765625 75.148438 70.109375 75.824219 69.5625 C 75.960938 69.457031 76.101562 69.347656 76.242188 69.25 C 76.339844 69.1875 76.433594 69.121094 76.535156 69.058594 C 76.683594 68.964844 76.839844 68.875 76.992188 68.792969 C 77.097656 68.738281 77.207031 68.683594 77.3125 68.636719 C 77.6875 68.457031 78.085938 68.320312 78.503906 68.207031 C 79.113281 68.042969 79.730469 67.964844 80.332031 67.957031 C 80.484375 67.957031 80.644531 67.964844 80.796875 67.96875 C 81.246094 67.996094 81.679688 68.058594 82.105469 68.167969 C 82.695312 68.3125 83.265625 68.535156 83.800781 68.820312 C 83.863281 68.851562 83.929688 68.890625 83.992188 68.925781 C 84.425781 69.175781 84.835938 69.472656 85.207031 69.804688 C 85.359375 69.941406 85.507812 70.074219 85.644531 70.222656 C 85.789062 70.371094 85.925781 70.527344 86.058594 70.695312 C 86.105469 70.753906 86.148438 70.808594 86.191406 70.867188 C 86.25 70.941406 86.304688 71.019531 86.363281 71.097656 C 86.414062 71.175781 86.464844 71.246094 86.511719 71.324219 C 86.660156 71.558594 86.804688 71.800781 86.925781 72.054688 C 86.960938 72.128906 87 72.203125 87.035156 72.285156 C 87.105469 72.441406 87.175781 72.597656 87.234375 72.757812 C 87.324219 73 87.402344 73.25 87.472656 73.507812 C 87.59375 73.988281 87.675781 74.46875 87.703125 74.945312 C 87.710938 75.128906 87.71875 75.320312 87.710938 75.507812 Z M 87.710938 75.507812 " fill-opacity="1" fill-rule="nonzero"/></g><g clip-path="url(#d13c035ac8)"><path fill="#7391ff" d="M 73.347656 77.570312 C 72.015625 77.242188 70.785156 76.535156 69.828125 75.539062 C 71.472656 74.957031 72.800781 73.824219 73.65625 72.410156 C 73.007812 73.894531 72.832031 75.613281 73.273438 77.308594 C 73.292969 77.398438 73.320312 77.484375 73.347656 77.570312 Z M 69.824219 75.539062 C 68.964844 74.652344 68.316406 73.523438 67.976562 72.238281 C 67.882812 71.898438 67.820312 71.550781 67.785156 71.210938 C 67.878906 71.191406 67.980469 71.167969 68.074219 71.140625 C 70.277344 70.554688 71.640625 68.382812 71.308594 66.152344 C 71.289062 66.054688 71.164062 66.035156 71.117188 66.121094 C 70.550781 67.132812 69.554688 67.558594 68.351562 67.882812 C 68.21875 67.917969 68.082031 67.945312 67.949219 67.96875 C 67.558594 68.03125 67.171875 68.042969 66.796875 68.007812 C 65.027344 67.832031 63.511719 66.921875 63.027344 65.0625 C 63.011719 65.003906 62.933594 65.003906 62.910156 65.058594 C 62.535156 65.941406 62.433594 66.960938 62.699219 67.964844 C 63.171875 69.789062 64.695312 71.050781 66.4375 71.261719 C 66.417969 72.347656 66.539062 73.453125 66.828125 74.558594 C 66.953125 75.042969 67.101562 75.511719 67.285156 75.964844 C 67.9375 75.976562 68.605469 75.894531 69.265625 75.71875 C 69.457031 75.664062 69.644531 75.605469 69.824219 75.539062 Z M 69.824219 75.539062 " fill-opacity="1" fill-rule="nonzero"/></g><g clip-path="url(#23d8304fda)"><path fill="#b7c8ff" d="M 87.269531 77.953125 C 86.734375 79.453125 85.730469 80.757812 84.386719 81.644531 C 84.136719 81.808594 83.875 81.953125 83.609375 82.09375 C 82.855469 82.492188 82.046875 82.808594 81.1875 83.042969 C 78.832031 83.671875 76.457031 83.53125 74.320312 82.773438 C 74.320312 81.886719 74.472656 81.03125 74.761719 80.222656 C 75.101562 79.28125 75.628906 78.410156 76.300781 77.679688 C 77.210938 76.6875 78.402344 75.9375 79.789062 75.570312 C 80 75.511719 80.21875 75.46875 80.429688 75.433594 C 83.050781 74.972656 85.632812 75.992188 87.269531 77.953125 Z M 87.269531 77.953125 " fill-opacity="1" fill-rule="nonzero"/></g><path fill="#55697d" d="M 85.757812 74.214844 C 85.757812 74.457031 85.566406 74.652344 85.324219 74.652344 C 85.085938 74.652344 84.894531 74.457031 84.894531 74.214844 C 84.894531 73.972656 85.085938 73.777344 85.324219 73.777344 C 85.566406 73.777344 85.757812 73.972656 85.757812 74.214844 Z M 77.136719 73.878906 C 76.898438 73.878906 76.707031 74.074219 76.707031 74.316406 C 76.707031 74.558594 76.898438 74.753906 77.136719 74.753906 C 77.375 74.753906 77.566406 74.558594 77.566406 74.316406 C 77.566406 74.074219 77.375 73.878906 77.136719 73.878906 Z M 80.882812 74.316406 C 80.882812 74.714844 81.203125 75.042969 81.601562 75.042969 C 82 75.042969 82.316406 74.71875 82.316406 74.316406 Z M 80.882812 74.316406 " fill-opacity="1" fill-rule="nonzero"/><path fill="#b7c8ff" d="M 73.347656 77.566406 C 73.320312 77.480469 73.292969 77.398438 73.273438 77.308594 C 73.109375 76.671875 73.027344 76.03125 73.027344 75.398438 C 73.027344 76.023438 73.109375 76.667969 73.273438 77.300781 C 73.300781 77.394531 73.320312 77.480469 73.347656 77.566406 Z M 75.410156 78.871094 C 75.648438 78.472656 75.929688 78.097656 76.238281 77.75 C 75.929688 78.09375 75.648438 78.472656 75.410156 78.871094 Z M 75.410156 78.871094 " fill-opacity="1" fill-rule="nonzero"/><g clip-path="url(#943e0e80bc)"><path fill="#91aaff" d="M 113.136719 75.507812 C 113.136719 75.597656 113.132812 75.695312 113.125 75.789062 C 113.113281 75.976562 113.097656 76.160156 113.078125 76.34375 C 113.007812 76.898438 112.882812 77.4375 112.695312 77.949219 C 112.160156 79.445312 111.152344 80.75 109.808594 81.640625 C 109.558594 81.800781 109.300781 81.945312 109.035156 82.085938 C 108.277344 82.484375 107.472656 82.804688 106.609375 83.035156 C 104.257812 83.667969 101.882812 83.527344 99.746094 82.765625 L 99.746094 82.761719 C 97.011719 81.789062 94.679688 79.820312 93.273438 77.15625 C 93.273438 77.152344 93.265625 77.144531 93.265625 77.140625 C 93.222656 77.058594 93.179688 76.980469 93.144531 76.898438 C 93.140625 76.882812 93.128906 76.867188 93.125 76.847656 C 93.085938 76.777344 93.054688 76.710938 93.023438 76.632812 C 93.011719 76.605469 92.996094 76.578125 92.984375 76.554688 C 92.957031 76.492188 92.933594 76.429688 92.898438 76.363281 C 92.882812 76.328125 92.867188 76.289062 92.851562 76.25 C 92.832031 76.195312 92.808594 76.148438 92.789062 76.09375 C 92.765625 76.046875 92.75 76.003906 92.730469 75.953125 L 92.71875 75.953125 C 92.539062 75.503906 92.390625 75.035156 92.261719 74.546875 C 91.976562 73.445312 91.851562 72.339844 91.875 71.25 C 90.121094 71.050781 88.59375 69.789062 88.121094 67.964844 C 87.855469 66.960938 87.953125 65.941406 88.335938 65.058594 C 88.355469 65.003906 88.4375 65.011719 88.453125 65.0625 C 88.9375 66.921875 90.449219 67.832031 92.226562 68.007812 C 92.601562 68.042969 92.992188 68.03125 93.378906 67.96875 C 93.511719 67.945312 93.648438 67.917969 93.78125 67.882812 C 94.984375 67.558594 95.980469 67.128906 96.546875 66.121094 C 96.59375 66.035156 96.722656 66.054688 96.738281 66.152344 C 97.070312 68.382812 95.699219 70.554688 93.503906 71.140625 C 93.410156 71.167969 93.308594 71.191406 93.214844 71.210938 C 93.25 71.550781 93.3125 71.898438 93.40625 72.238281 C 93.746094 73.523438 94.394531 74.652344 95.253906 75.535156 C 95.257812 75.535156 95.257812 75.535156 95.265625 75.535156 C 95.265625 75.535156 95.265625 75.535156 95.269531 75.539062 C 96.90625 74.957031 98.230469 73.832031 99.085938 72.425781 C 99.085938 72.417969 99.089844 72.414062 99.089844 72.410156 C 99.15625 72.253906 99.230469 72.101562 99.304688 71.949219 C 99.378906 71.800781 99.464844 71.65625 99.554688 71.507812 C 99.554688 71.507812 99.554688 71.507812 99.554688 71.503906 C 100 70.765625 100.574219 70.109375 101.25 69.5625 C 101.386719 69.457031 101.523438 69.347656 101.667969 69.25 C 101.765625 69.1875 101.859375 69.121094 101.960938 69.058594 C 102.109375 68.964844 102.261719 68.875 102.417969 68.792969 C 102.523438 68.738281 102.628906 68.683594 102.738281 68.636719 C 103.113281 68.457031 103.511719 68.320312 103.925781 68.207031 C 104.539062 68.042969 105.15625 67.964844 105.753906 67.957031 C 105.910156 67.957031 106.070312 67.964844 106.222656 67.96875 C 106.667969 67.996094 107.105469 68.058594 107.53125 68.167969 C 108.121094 68.3125 108.6875 68.535156 109.226562 68.820312 C 109.289062 68.851562 109.351562 68.890625 109.417969 68.925781 C 109.851562 69.175781 110.261719 69.472656 110.632812 69.804688 C 110.78125 69.941406 110.929688 70.074219 111.070312 70.222656 C 111.210938 70.371094 111.351562 70.527344 111.484375 70.695312 C 111.53125 70.753906 111.574219 70.808594 111.617188 70.867188 C 111.675781 70.941406 111.726562 71.019531 111.785156 71.097656 C 111.839844 71.175781 111.886719 71.246094 111.933594 71.324219 C 112.085938 71.558594 112.226562 71.800781 112.351562 72.054688 C 112.386719 72.128906 112.425781 72.203125 112.460938 72.285156 C 112.53125 72.441406 112.597656 72.597656 112.65625 72.757812 C 112.75 73 112.828125 73.25 112.898438 73.507812 C 113.019531 73.988281 113.097656 74.46875 113.125 74.945312 C 113.136719 75.128906 113.140625 75.320312 113.136719 75.507812 Z M 113.136719 75.507812 " fill-opacity="1" fill-rule="nonzero"/></g><g clip-path="url(#70b79bbf41)"><path fill="#7391ff" d="M 98.773438 77.570312 C 97.4375 77.242188 96.210938 76.535156 95.253906 75.539062 C 96.894531 74.957031 98.226562 73.824219 99.082031 72.410156 C 98.433594 73.894531 98.257812 75.613281 98.699219 77.308594 C 98.71875 77.398438 98.746094 77.484375 98.773438 77.570312 Z M 95.25 75.539062 C 94.386719 74.652344 93.738281 73.523438 93.398438 72.238281 C 93.308594 71.898438 93.246094 71.550781 93.207031 71.210938 C 93.304688 71.191406 93.40625 71.167969 93.5 71.140625 C 95.699219 70.554688 97.066406 68.382812 96.730469 66.152344 C 96.714844 66.054688 96.589844 66.035156 96.539062 66.121094 C 95.976562 67.132812 94.976562 67.558594 93.777344 67.882812 C 93.644531 67.917969 93.503906 67.945312 93.371094 67.96875 C 92.984375 68.03125 92.597656 68.042969 92.21875 68.007812 C 90.449219 67.832031 88.9375 66.921875 88.453125 65.0625 C 88.4375 65.003906 88.355469 65.003906 88.335938 65.058594 C 87.957031 65.941406 87.855469 66.960938 88.121094 67.964844 C 88.59375 69.789062 90.121094 71.050781 91.863281 71.261719 C 91.84375 72.347656 91.964844 73.453125 92.25 74.558594 C 92.378906 75.042969 92.527344 75.511719 92.707031 75.964844 C 93.363281 75.976562 94.03125 75.894531 94.691406 75.71875 C 94.882812 75.664062 95.066406 75.605469 95.25 75.539062 Z M 95.25 75.539062 " fill-opacity="1" fill-rule="nonzero"/></g><g clip-path="url(#1cf592cc54)"><path fill="#b7c8ff" d="M 112.695312 77.953125 C 112.160156 79.453125 111.152344 80.757812 109.808594 81.644531 C 109.558594 81.808594 109.300781 81.953125 109.035156 82.09375 C 108.277344 82.492188 107.472656 82.808594 106.609375 83.042969 C 104.257812 83.671875 101.882812 83.53125 99.746094 82.773438 C 99.746094 81.886719 99.898438 81.03125 100.1875 80.222656 C 100.527344 79.28125 101.050781 78.410156 101.726562 77.679688 C 102.636719 76.6875 103.824219 75.9375 105.210938 75.570312 C 105.425781 75.511719 105.644531 75.46875 105.855469 75.433594 C 108.476562 74.972656 111.058594 75.992188 112.695312 77.953125 Z M 112.695312 77.953125 " fill-opacity="1" fill-rule="nonzero"/></g><path fill="#55697d" d="M 111.179688 74.214844 C 111.179688 74.457031 110.988281 74.652344 110.75 74.652344 C 110.511719 74.652344 110.320312 74.457031 110.320312 74.214844 C 110.320312 73.972656 110.511719 73.777344 110.75 73.777344 C 110.988281 73.777344 111.179688 73.972656 111.179688 74.214844 Z M 102.5625 73.878906 C 102.320312 73.878906 102.128906 74.074219 102.128906 74.316406 C 102.128906 74.558594 102.320312 74.753906 102.5625 74.753906 C 102.800781 74.753906 102.992188 74.558594 102.992188 74.316406 C 102.992188 74.074219 102.800781 73.878906 102.5625 73.878906 Z M 106.308594 74.316406 C 106.308594 74.714844 106.625 75.042969 107.023438 75.042969 C 107.421875 75.042969 107.742188 74.71875 107.742188 74.316406 Z M 106.308594 74.316406 " fill-opacity="1" fill-rule="nonzero"/><path fill="#b7c8ff" d="M 98.773438 77.566406 C 98.746094 77.480469 98.71875 77.398438 98.699219 77.308594 C 98.53125 76.671875 98.453125 76.03125 98.453125 75.398438 C 98.453125 76.023438 98.53125 76.667969 98.699219 77.300781 C 98.722656 77.394531 98.746094 77.480469 98.773438 77.566406 Z M 100.835938 78.871094 C 101.074219 78.472656 101.355469 78.097656 101.664062 77.75 C 101.355469 78.09375 101.074219 78.472656 100.835938 78.871094 Z M 100.835938 78.871094 " fill-opacity="1" fill-rule="nonzero"/></svg>