<svg xmlns="http://www.w3.org/2000/svg" xmlns:xlink="http://www.w3.org/1999/xlink" width="200" zoomAndPan="magnify" viewBox="0 0 150 112.499997" height="150" preserveAspectRatio="xMidYMid meet" version="1.0"><defs><clipPath id="6cea9f3aec"><path d="M 80.496094 63.820312 L 114.84375 63.820312 L 114.84375 100.140625 L 80.496094 100.140625 Z M 80.496094 63.820312 " clip-rule="nonzero"/></clipPath><clipPath id="262f22a4db"><path d="M 66 83 L 83 83 L 83 100.800781 L 66 100.800781 Z M 66 83 " clip-rule="nonzero"/></clipPath><clipPath id="c0205341c3"><path d="M 34.960938 24 L 51 24 L 51 34 L 34.960938 34 Z M 34.960938 24 " clip-rule="nonzero"/></clipPath></defs><g clip-path="url(#6cea9f3aec)"><path fill="#322a27" d="M 110.277344 87.988281 C 111.542969 88.96875 112.835938 89.910156 114.027344 90.972656 C 114.359375 91.269531 114.699219 91.601562 114.808594 92.035156 C 115.003906 92.804688 114.347656 93.589844 113.582031 93.8125 C 112.820312 94.035156 112 93.839844 111.238281 93.617188 C 108.90625 92.929688 106.664062 91.941406 104.582031 90.691406 C 105.808594 92.164062 107.039062 93.636719 108.265625 95.109375 C 108.871094 95.835938 109.515625 96.773438 109.164062 97.652344 C 108.726562 98.753906 107.167969 98.761719 106.035156 98.414062 C 103.957031 97.785156 102.042969 96.625 100.519531 95.078125 C 101.339844 96.011719 102.027344 97.066406 102.550781 98.195312 C 102.699219 98.511719 102.835938 98.855469 102.773438 99.199219 C 102.675781 99.742188 102.09375 100.089844 101.542969 100.097656 C 100.996094 100.105469 100.476562 99.851562 99.996094 99.585938 C 96.382812 97.554688 93.648438 94.285156 91 91.089844 C 87.554688 86.9375 84.113281 82.785156 80.671875 78.632812 C 83.328125 77.238281 85.429688 74.921875 86.917969 72.316406 C 88.410156 69.707031 89.328125 66.808594 90.011719 63.882812 C 90 63.933594 92.074219 66.289062 92.261719 66.765625 C 92.675781 67.820312 92.820312 68.707031 93.445312 69.710938 C 94.898438 72.027344 96.578125 74.230469 98.3125 76.339844 C 101.855469 80.648438 105.875 84.566406 110.277344 87.988281 " fill-opacity="1" fill-rule="nonzero"/></g><path fill="#524845" d="M 90.253906 87.5 C 90.085938 87.160156 89.9375 86.71875 90.183594 86.425781 C 90.417969 86.144531 90.859375 86.199219 91.207031 86.3125 C 92.625 86.78125 93.777344 87.824219 94.796875 88.917969 C 96.242188 90.464844 97.519531 92.171875 98.601562 93.996094 C 99.492188 95.492188 99.828125 96.757812 97.65625 95.785156 C 94.484375 94.367188 91.734375 90.507812 90.253906 87.5 " fill-opacity="1" fill-rule="nonzero"/><path fill="#524845" d="M 100.765625 92.554688 C 98.742188 90.515625 96.777344 88.304688 95.753906 85.617188 C 95.71875 85.519531 95.683594 85.414062 95.703125 85.3125 C 95.757812 85.074219 96.070312 85.015625 96.3125 85.039062 C 97.375 85.144531 98.285156 85.808594 99.113281 86.484375 C 101.621094 88.542969 104.492188 91.148438 106.097656 94.015625 C 107.027344 95.683594 106.160156 96.410156 104.511719 95.585938 C 103.085938 94.871094 101.878906 93.671875 100.765625 92.554688 " fill-opacity="1" fill-rule="nonzero"/><path fill="#524845" d="M 99.84375 82.671875 C 99.730469 82.4375 99.640625 82.109375 99.855469 81.960938 C 99.945312 81.894531 100.070312 81.890625 100.183594 81.898438 C 101.167969 81.953125 102.027344 82.542969 102.832031 83.117188 C 104.667969 84.429688 106.484375 85.769531 108.300781 87.113281 C 109.203125 87.777344 111.96875 89.242188 110.886719 90.503906 C 109.875 91.679688 107.511719 90.195312 106.550781 89.664062 C 103.6875 88.074219 101.289062 85.621094 99.84375 82.671875 " fill-opacity="1" fill-rule="nonzero"/><g clip-path="url(#262f22a4db)"><path fill="#f8a30d" d="M 79.109375 90.863281 C 74.273438 89.734375 68.84375 91.914062 66.125 96.078125 C 69.632812 94.914062 73.144531 93.75 76.652344 92.585938 C 75.082031 93.5 73.484375 94.4375 72.25 95.769531 C 71.015625 97.105469 70.164062 98.917969 70.40625 100.722656 C 71.960938 100.167969 73.078125 98.828125 74.1875 97.605469 C 76.167969 95.417969 78.535156 93.34375 81.4375 92.832031 C 81.789062 92.769531 82.191406 92.703125 82.386719 92.40625 C 82.535156 92.175781 82.511719 91.878906 82.484375 91.601562 C 82.210938 88.898438 81.933594 86.191406 81.660156 83.488281 C 80.1875 83.976562 78.394531 83.175781 78.53125 85.261719 C 78.566406 85.753906 79.410156 90.933594 79.109375 90.863281 " fill-opacity="1" fill-rule="nonzero"/></g><path fill="#f8a30d" d="M 84.859375 91.257812 C 85.980469 91.84375 86.863281 92.867188 87.277344 94.0625 C 87.339844 94.242188 87.390625 94.445312 87.304688 94.613281 C 87.160156 94.894531 86.753906 94.878906 86.453125 94.785156 C 85.519531 94.492188 84.820312 93.824219 84.027344 93.285156 C 83.277344 92.777344 81.71875 92.613281 81.164062 92.109375 C 79.484375 90.570312 83.960938 90.792969 84.859375 91.257812 " fill-opacity="1" fill-rule="nonzero"/><path fill="#fcd57d" d="M 79.203125 85.015625 C 79.234375 84.707031 79.28125 84.394531 79.421875 84.117188 C 79.492188 83.972656 79.613281 83.828125 79.773438 83.808594 C 79.855469 83.800781 79.9375 83.828125 80.011719 83.863281 C 80.316406 84.015625 80.476562 84.355469 80.597656 84.671875 C 80.945312 85.570312 82.082031 90.394531 80.441406 90.542969 C 78.648438 90.707031 79.101562 85.953125 79.203125 85.015625 " fill-opacity="1" fill-rule="nonzero"/><path fill="#d0841a" d="M 76.996094 92.503906 C 77.472656 92.265625 77.976562 92 78.234375 91.53125 C 76.105469 91.355469 74.089844 92.195312 72.152344 92.964844 C 71.160156 93.359375 70.164062 93.761719 69.128906 94.03125 C 68.660156 94.15625 67.976562 94.453125 67.652344 94.210938 C 67.082031 94.777344 66.566406 95.402344 66.125 96.078125 C 69.632812 94.914062 73.144531 93.75 76.652344 92.585938 C 76.292969 92.796875 75.933594 93.003906 75.578125 93.21875 C 76.050781 92.980469 76.523438 92.742188 76.996094 92.503906 " fill-opacity="1" fill-rule="nonzero"/><path fill="#f8a30d" d="M 68.496094 86.269531 C 63.660156 85.140625 58.230469 87.320312 55.511719 91.484375 C 59.019531 90.320312 62.527344 89.15625 66.039062 87.992188 C 64.464844 88.90625 62.875 89.839844 61.636719 91.175781 C 60.398438 92.511719 59.550781 94.324219 59.789062 96.128906 C 61.347656 95.574219 62.464844 94.234375 63.574219 93.007812 C 65.554688 90.824219 67.921875 88.75 70.824219 88.238281 C 71.175781 88.175781 71.578125 88.109375 71.773438 87.808594 C 71.921875 87.578125 71.898438 87.28125 71.871094 87.007812 C 71.597656 84.304688 71.320312 81.597656 71.046875 78.890625 C 69.570312 79.382812 67.78125 78.582031 67.917969 80.664062 C 67.953125 81.160156 68.796875 86.335938 68.496094 86.269531 " fill-opacity="1" fill-rule="nonzero"/><path fill="#f8a30d" d="M 74.246094 86.664062 C 75.367188 87.246094 76.25 88.273438 76.664062 89.464844 C 76.726562 89.644531 76.777344 89.847656 76.691406 90.015625 C 76.546875 90.296875 76.140625 90.285156 75.839844 90.191406 C 74.90625 89.894531 74.207031 89.226562 73.414062 88.6875 C 72.664062 88.179688 71.105469 88.015625 70.550781 87.511719 C 68.871094 85.976562 73.347656 86.195312 74.246094 86.664062 " fill-opacity="1" fill-rule="nonzero"/><path fill="#fcd57d" d="M 68.589844 80.421875 C 68.621094 80.113281 68.667969 79.800781 68.808594 79.523438 C 68.878906 79.375 69 79.230469 69.160156 79.214844 C 69.242188 79.207031 69.324219 79.230469 69.398438 79.269531 C 69.703125 79.421875 69.863281 79.757812 69.984375 80.074219 C 70.332031 80.972656 71.46875 85.800781 69.828125 85.949219 C 68.035156 86.109375 68.488281 81.359375 68.589844 80.421875 " fill-opacity="1" fill-rule="nonzero"/><path fill="#d0841a" d="M 66.382812 87.910156 C 66.859375 87.667969 67.363281 87.402344 67.621094 86.933594 C 65.492188 86.761719 63.476562 87.597656 61.539062 88.371094 C 60.546875 88.765625 59.550781 89.164062 58.515625 89.4375 C 58.046875 89.558594 57.363281 89.859375 57.039062 89.617188 C 56.46875 90.183594 55.953125 90.804688 55.511719 91.484375 C 59.019531 90.320312 62.527344 89.15625 66.039062 87.992188 C 65.679688 88.199219 65.320312 88.410156 64.964844 88.625 C 65.4375 88.386719 65.910156 88.148438 66.382812 87.910156 " fill-opacity="1" fill-rule="nonzero"/><path fill="#524845" d="M 59.273438 61.347656 C 59.261719 56.25 63.902344 42.320312 66.882812 38.113281 C 68.324219 36.082031 70.816406 34.789062 73.046875 34.484375 C 75.316406 34.175781 77.527344 34.800781 79.199219 36.421875 C 79.894531 37.097656 80.488281 37.921875 81.015625 38.8125 C 83.523438 43.023438 84.527344 48.769531 83.765625 54.53125 C 83 60.289062 80.480469 66 76.863281 70.152344 C 76.578125 70.480469 76.269531 70.808594 75.914062 70.921875 C 75.351562 71.097656 74.835938 70.652344 74.613281 70.042969 C 74.390625 69.433594 74.394531 68.699219 74.402344 67.984375 C 74.265625 71.082031 73.632812 74.242188 72.5625 77.226562 C 72.253906 78.082031 71.84375 79.011719 71.167969 79.390625 C 70.257812 79.902344 69.34375 79.125 68.976562 78.105469 C 68.609375 77.085938 68.601562 75.855469 68.359375 74.757812 C 68.386719 76.773438 68.0625 78.863281 67.414062 80.84375 C 66.941406 82.28125 66.167969 83.800781 65.023438 84.296875 C 63.957031 84.757812 62.878906 84.144531 62.261719 83.148438 C 61.644531 82.15625 61.390625 80.839844 61.148438 79.558594 C 60.6875 77.117188 60.226562 74.675781 59.765625 72.230469 C 59.117188 68.792969 59.234375 65.019531 59.273438 61.347656 " fill-opacity="1" fill-rule="nonzero"/><path fill="#322a27" d="M 69.34375 78.804688 C 69.359375 78.777344 69.375 78.746094 69.390625 78.714844 C 71.664062 74.507812 73.105469 69.675781 73.511719 64.910156 C 73.933594 66.121094 75.402344 66.105469 76.378906 65.234375 C 77.355469 64.363281 77.9375 62.945312 78.429688 61.589844 C 80.410156 56.144531 81.730469 49.726562 79.648438 45.183594 C 77.566406 40.640625 71.433594 38.042969 67.003906 39.578125 C 66.546875 39.738281 66.09375 39.980469 65.648438 40.214844 C 66.078125 39.378906 66.496094 38.664062 66.882812 38.113281 C 68.324219 36.082031 70.816406 34.789062 73.046875 34.484375 C 75.316406 34.175781 77.527344 34.800781 79.199219 36.421875 C 79.894531 37.097656 80.488281 37.921875 81.015625 38.8125 C 83.523438 43.023438 84.527344 48.769531 83.765625 54.53125 C 83 60.289062 80.480469 66 76.863281 70.152344 C 76.578125 70.480469 76.269531 70.808594 75.914062 70.921875 C 75.351562 71.097656 74.835938 70.652344 74.613281 70.042969 C 74.390625 69.433594 74.394531 68.699219 74.402344 67.984375 C 74.265625 71.082031 73.632812 74.242188 72.5625 77.226562 C 72.253906 78.082031 71.84375 79.011719 71.167969 79.390625 C 70.484375 79.773438 69.796875 79.433594 69.34375 78.804688 " fill-opacity="1" fill-rule="nonzero"/><path fill="#706763" d="M 61.851562 75.929688 C 61.972656 76.164062 62.132812 76.40625 62.367188 76.398438 C 62.601562 76.390625 62.8125 76.144531 62.980469 75.902344 C 63.976562 74.476562 64.519531 72.578125 64.429688 70.847656 C 65.265625 71.71875 66.375 72.621094 67.484375 71.90625 C 67.789062 71.707031 68.050781 71.402344 68.300781 71.09375 C 70.507812 68.324219 71.816406 64.605469 72.417969 60.945312 C 73.015625 57.285156 72.964844 53.640625 72.859375 50.050781 C 72.792969 47.808594 72.683594 45.484375 71.804688 43.699219 C 70.921875 41.917969 69.023438 40.871094 67.328125 41.945312 C 66.273438 42.609375 65.515625 43.917969 64.875 45.199219 C 62.449219 50.074219 60.9375 55.539062 60.445312 60.9375 C 60.023438 65.59375 59.921875 72.269531 61.851562 75.929688 " fill-opacity="1" fill-rule="nonzero"/><path fill="#322a27" d="M 64.492188 79.574219 C 63.046875 77.808594 62.410156 75.492188 62.289062 73.210938 C 62.160156 70.804688 62.609375 68.292969 64.007812 66.335938 C 65.410156 64.382812 67.890625 63.105469 70.246094 63.570312 C 72.339844 63.980469 73.988281 65.632812 75.089844 67.460938 C 76.691406 70.113281 77.394531 73.398438 76.542969 76.378906 C 74.992188 81.820312 68.398438 84.34375 64.492188 79.574219 " fill-opacity="1" fill-rule="nonzero"/><path fill="#524845" d="M 65.046875 75.765625 C 63.820312 73.476562 63.609375 70.664062 64.480469 68.214844 C 64.972656 66.835938 65.828125 65.539062 67.078125 64.777344 C 68.328125 64.015625 70.007812 63.875 71.246094 64.648438 C 72.226562 65.261719 72.828125 66.34375 73.160156 67.449219 C 73.796875 69.585938 73.554688 71.96875 72.496094 73.929688 C 70.953125 76.796875 67.152344 79.691406 65.046875 75.765625 " fill-opacity="1" fill-rule="nonzero"/><path fill="#524845" d="M 72.835938 29.007812 C 78.320312 28.035156 84.378906 29.820312 88.179688 34.453125 C 89.894531 36.539062 91.003906 39.058594 91.929688 41.597656 C 93.0625 44.710938 93.957031 47.925781 94.296875 51.21875 C 94.875 56.839844 93.820312 62.484375 92.933594 68.066406 C 92.566406 70.378906 92.21875 72.726562 91.289062 74.871094 C 90.191406 77.398438 88.285156 79.566406 85.921875 80.976562 C 81.042969 83.886719 74.574219 83.296875 69.722656 80.339844 C 64.871094 77.382812 61.519531 72.382812 59.574219 67.035156 C 57.925781 62.492188 56.546875 56.605469 58.375 51.929688 C 60.210938 47.238281 59.78125 42.121094 61.8125 37.464844 C 63.90625 32.675781 68.160156 29.839844 72.835938 29.007812 " fill-opacity="1" fill-rule="nonzero"/><path fill="#cfcecd" d="M 76.9375 53.625 C 77.945312 53.449219 79.03125 53.792969 79.757812 54.515625 C 79.125 50.550781 77.734375 46.707031 75.691406 43.253906 C 76.332031 43.601562 76.972656 43.945312 77.613281 44.289062 C 77.058594 40.496094 74.460938 37.0625 70.96875 35.5 C 71.726562 35.359375 72.503906 35.324219 73.273438 35.390625 C 71.433594 34.050781 69.460938 32.890625 67.390625 31.945312 C 66.652344 32.980469 65.980469 34.0625 65.375 35.183594 C 65.214844 34.042969 63.726562 33.519531 62.65625 33.933594 C 61.589844 34.347656 60.886719 35.363281 60.289062 36.34375 C 57.851562 40.355469 56.0625 44.785156 55.175781 49.402344 C 54.347656 53.699219 53.574219 57.875 55.824219 61.925781 C 56.734375 60.925781 57.449219 59.746094 57.917969 58.472656 C 57.5625 61.707031 58.765625 65.078125 61.09375 67.347656 C 61.640625 65.480469 62.113281 63.597656 62.511719 61.695312 C 63.296875 64.390625 64.273438 67.34375 66.695312 68.757812 C 67.242188 67.074219 67.789062 65.390625 68.339844 63.707031 C 69.203125 65.132812 69.617188 66.828125 69.511719 68.492188 C 71.996094 65.648438 73.96875 62.355469 75.300781 58.820312 C 75.546875 59.621094 75.792969 60.417969 76.039062 61.21875 C 76.171875 61.65625 76.453125 62.195312 76.90625 62.121094 C 77.238281 62.070312 77.414062 61.699219 77.519531 61.378906 C 78.289062 58.984375 78.253906 56.339844 77.421875 53.96875 " fill-opacity="1" fill-rule="nonzero"/><path fill="#e7e6e4" d="M 59.949219 38.753906 C 57.820312 43.9375 56.328125 49.382812 55.515625 54.929688 C 55.335938 56.160156 55.222656 57.539062 55.972656 58.53125 C 56.695312 57.472656 57.421875 56.417969 58.144531 55.359375 C 58.417969 57.40625 58.980469 59.414062 59.8125 61.304688 C 60.703125 60.152344 61.417969 58.863281 61.917969 57.496094 C 62.242188 58.378906 62.574219 59.277344 63.152344 60.015625 C 63.734375 60.753906 64.609375 61.320312 65.550781 61.285156 C 66.523438 61.25 67.382812 60.570312 67.898438 59.738281 C 68.410156 58.910156 68.640625 57.9375 68.863281 56.984375 C 69.882812 57.511719 71.0625 58.003906 72.140625 57.605469 C 73.617188 57.058594 74.050781 55.1875 74.125 53.609375 C 74.324219 49.144531 73.367188 44.628906 71.375 40.632812 C 70.136719 38.15625 68.253906 35.804688 65.527344 34.941406 C 62.757812 34.0625 60.914062 36.402344 59.949219 38.753906 " fill-opacity="1" fill-rule="nonzero"/><path fill="#f47b8f" d="M 50.871094 40.050781 C 51.113281 43.445312 52.078125 46.949219 54.457031 49.367188 C 56.101562 51.039062 58.285156 52.0625 60.484375 52.867188 C 62.179688 53.492188 63.933594 54.011719 65.734375 54.140625 C 67.015625 54.234375 68.402344 54.089844 69.402344 53.277344 C 71.152344 51.847656 70.949219 49.144531 70.46875 46.933594 C 70.296875 46.132812 70.066406 45.273438 69.410156 44.785156 C 68.578125 44.164062 67.425781 44.390625 66.390625 44.441406 C 64.285156 44.542969 62.15625 43.753906 60.625 42.300781 C 59.097656 40.847656 58.191406 38.757812 58.179688 36.648438 C 58.171875 35.109375 58.613281 33.609375 58.929688 32.101562 C 59.246094 30.59375 59.429688 28.992188 58.925781 27.539062 C 57.421875 23.199219 52.839844 25.164062 51.789062 28.640625 C 51.402344 29.925781 51.527344 31.371094 51.335938 32.691406 C 50.980469 35.160156 50.695312 37.550781 50.871094 40.050781 " fill-opacity="1" fill-rule="nonzero"/><path fill="#ce6b7c" d="M 58.929688 32.101562 C 59.246094 30.59375 59.429688 28.992188 58.925781 27.539062 C 58.476562 26.242188 57.75 25.511719 56.929688 25.214844 C 56.625 25.296875 56.324219 25.402344 56.039062 25.523438 C 54.464844 26.1875 52.894531 27.550781 51.652344 29.214844 C 51.433594 30.34375 51.5 31.566406 51.335938 32.691406 C 51.007812 34.992188 50.738281 37.222656 50.847656 39.542969 C 51.640625 39.898438 52.726562 39.769531 54.132812 39.132812 C 55.605469 38.464844 56.972656 37.566406 58.1875 36.492188 C 58.207031 35.007812 58.625 33.554688 58.929688 32.101562 " fill-opacity="1" fill-rule="nonzero"/><path fill="#d86a83" d="M 45.757812 30.027344 C 44.25 28.035156 43.671875 25.421875 43.902344 22.929688 C 44.332031 18.199219 48.085938 13.695312 52.808594 13.339844 C 55.886719 13.113281 58.984375 14.648438 60.855469 17.109375 C 62.722656 19.570312 63.390625 22.855469 62.867188 25.902344 C 62.640625 27.226562 62.1875 28.535156 61.386719 29.617188 C 57.996094 34.1875 49.238281 34.613281 45.757812 30.027344 " fill-opacity="1" fill-rule="nonzero"/><path fill="#f47b8f" d="M 60.628906 24.625 C 59.378906 28.386719 55.203125 30.855469 51.28125 30.339844 C 50.183594 30.195312 49.105469 29.84375 48.183594 29.226562 C 43.503906 26.101562 44.71875 17.824219 49.15625 15.09375 C 55.371094 11.269531 62.851562 17.914062 60.628906 24.625 " fill-opacity="1" fill-rule="nonzero"/><path fill="#f5abb9" d="M 47.125 17.386719 C 48.890625 14.605469 52.46875 13.113281 55.679688 13.816406 C 61.296875 15.054688 56.871094 20.160156 53.828125 21.574219 C 52.339844 22.265625 50.117188 22.695312 48.5 22.554688 C 45.640625 22.304688 45.90625 19.3125 47.125 17.386719 " fill-opacity="1" fill-rule="nonzero"/><path fill="#d86a83" d="M 70.46875 46.933594 C 70.296875 46.132812 70.066406 45.273438 69.410156 44.785156 C 68.578125 44.164062 67.425781 44.390625 66.390625 44.441406 C 65.625 44.476562 64.855469 44.394531 64.109375 44.207031 C 64.269531 44.550781 64.675781 44.894531 65 45.15625 C 66.1875 46.121094 66.421875 47.984375 65.710938 49.34375 C 65.003906 50.699219 63.515625 51.542969 61.996094 51.722656 C 60.476562 51.898438 58.933594 51.476562 57.566406 50.796875 C 56.265625 50.152344 55.085938 49.261719 54.09375 48.203125 C 53.535156 47.605469 52.800781 45.984375 51.996094 45.429688 C 52.558594 46.894531 53.355469 48.246094 54.457031 49.367188 C 56.101562 51.039062 58.285156 52.0625 60.484375 52.867188 C 62.179688 53.492188 63.933594 54.011719 65.734375 54.140625 C 67.015625 54.234375 68.402344 54.089844 69.402344 53.277344 C 71.152344 51.847656 70.949219 49.144531 70.46875 46.933594 " fill-opacity="1" fill-rule="nonzero"/><path fill="#ffffff" d="M 57.328125 23.292969 C 57.328125 25.335938 56.148438 26.992188 54.695312 26.992188 C 53.242188 26.992188 52.0625 25.335938 52.0625 23.292969 C 52.0625 21.25 53.242188 19.59375 54.695312 19.59375 C 56.148438 19.59375 57.328125 21.25 57.328125 23.292969 " fill-opacity="1" fill-rule="nonzero"/><path fill="#1e1c1b" d="M 55.703125 23.15625 C 55.703125 24.71875 54.917969 25.980469 53.949219 25.980469 C 52.980469 25.980469 52.195312 24.71875 52.195312 23.15625 C 52.195312 21.597656 52.980469 20.335938 53.949219 20.335938 C 54.917969 20.335938 55.703125 21.597656 55.703125 23.15625 " fill-opacity="1" fill-rule="nonzero"/><path fill="#ffffff" d="M 55.421875 21.066406 C 55.488281 21.222656 55.144531 21.523438 54.65625 21.738281 C 54.167969 21.953125 53.71875 22 53.652344 21.84375 C 53.585938 21.6875 53.929688 21.386719 54.417969 21.171875 C 54.90625 20.957031 55.355469 20.910156 55.421875 21.066406 " fill-opacity="1" fill-rule="nonzero"/><path fill="#d0841a" d="M 44.109375 34.859375 C 45.585938 35 47.078125 34.503906 48.308594 33.675781 C 49.027344 33.191406 49.683594 32.578125 50.089844 31.8125 C 50.496094 31.042969 50.632812 30.109375 50.324219 29.296875 C 49.84375 28.023438 48.4375 27.347656 47.101562 27.113281 C 44.117188 26.585938 40.925781 27.800781 38.910156 30.042969 C 37.667969 31.425781 37.46875 32.199219 39.140625 33.011719 C 40.679688 33.757812 42.382812 34.699219 44.109375 34.859375 " fill-opacity="1" fill-rule="nonzero"/><path fill="#9a601d" d="M 50.476562 29.984375 C 50.457031 29.75 50.410156 29.515625 50.324219 29.296875 C 49.84375 28.023438 48.4375 27.347656 47.101562 27.113281 C 44.171875 26.59375 41.046875 27.757812 39.027344 29.921875 C 38.96875 29.988281 38.910156 30.050781 38.855469 30.117188 C 38.570312 30.472656 38.144531 31.148438 37.9375 31.792969 C 37.96875 32.238281 38.335938 32.621094 39.140625 33.011719 C 39.316406 33.097656 39.492188 33.183594 39.671875 33.273438 C 40 33.207031 40.324219 33.121094 40.628906 33.082031 C 41.617188 32.957031 42.617188 33.011719 43.609375 32.910156 C 44.910156 32.777344 46.171875 32.382812 47.390625 31.90625 C 48.515625 31.464844 49.6875 30.859375 50.476562 29.984375 " fill-opacity="1" fill-rule="nonzero"/><g clip-path="url(#c0205341c3)"><path fill="#d0841a" d="M 43.433594 25.144531 C 41.941406 25.574219 40.796875 26.75 39.726562 27.878906 C 38.136719 29.558594 36.546875 31.234375 34.960938 32.910156 C 35.277344 33.15625 35.710938 33.152344 36.113281 33.132812 C 39.964844 32.933594 43.785156 32.183594 47.429688 30.914062 C 49.574219 30.167969 51.425781 29.058594 49.339844 27.011719 C 47.839844 25.539062 45.527344 24.539062 43.433594 25.144531 " fill-opacity="1" fill-rule="nonzero"/></g><path fill="#f8a30d" d="M 37.40625 31.125 C 37.292969 31.273438 37.171875 31.453125 37.21875 31.632812 C 37.289062 31.890625 37.632812 31.9375 37.898438 31.925781 C 41.074219 31.796875 44.214844 30.949219 47.023438 29.460938 C 47.566406 29.175781 48.140625 28.808594 48.304688 28.214844 C 48.433594 27.734375 48.253906 27.21875 47.964844 26.808594 C 47.03125 25.472656 45.109375 25.148438 43.550781 25.617188 C 40.703125 26.476562 39.132812 28.910156 37.40625 31.125 " fill-opacity="1" fill-rule="nonzero"/><path fill="#fcd57d" d="M 40.117188 27.773438 C 39.96875 27.984375 39.824219 28.230469 39.863281 28.484375 C 39.90625 28.777344 40.179688 28.996094 40.472656 29.058594 C 40.761719 29.121094 41.058594 29.058594 41.347656 28.992188 C 42.671875 28.6875 43.976562 28.222656 45.097656 27.453125 C 45.484375 27.1875 45.859375 26.875 46.0625 26.453125 C 46.957031 24.59375 44.375 25.089844 43.453125 25.375 C 42.125 25.789062 40.921875 26.632812 40.117188 27.773438 " fill-opacity="1" fill-rule="nonzero"/><path fill="#524845" d="M 99.859375 58.886719 C 99.871094 53.785156 95.230469 39.855469 92.25 35.652344 C 90.808594 33.621094 88.316406 32.328125 86.085938 32.023438 C 83.816406 31.710938 81.605469 32.335938 79.933594 33.960938 C 79.238281 34.636719 78.644531 35.460938 78.117188 36.347656 C 75.609375 40.558594 74.605469 46.308594 75.367188 52.066406 C 76.132812 57.828125 78.652344 63.539062 82.269531 67.6875 C 82.554688 68.015625 82.863281 68.347656 83.21875 68.460938 C 83.78125 68.636719 84.296875 68.1875 84.519531 67.582031 C 84.742188 66.972656 84.738281 66.234375 84.730469 65.519531 C 84.867188 68.617188 85.496094 71.78125 86.570312 74.761719 C 86.878906 75.621094 87.289062 76.546875 87.964844 76.929688 C 88.875 77.4375 89.789062 76.664062 90.15625 75.640625 C 90.519531 74.621094 90.527344 73.394531 90.773438 72.296875 C 90.746094 74.308594 91.070312 76.402344 91.71875 78.378906 C 92.191406 79.816406 92.960938 81.339844 94.109375 81.832031 C 95.175781 82.296875 96.25 81.683594 96.871094 80.6875 C 97.488281 79.691406 97.742188 78.378906 97.984375 77.09375 C 98.445312 74.652344 98.90625 72.210938 99.367188 69.769531 C 100.015625 66.332031 99.898438 62.558594 99.859375 58.886719 " fill-opacity="1" fill-rule="nonzero"/><path fill="#322a27" d="M 89.789062 76.34375 C 89.773438 76.3125 89.757812 76.28125 89.742188 76.253906 C 87.46875 72.042969 86.027344 67.214844 85.621094 62.449219 C 85.199219 63.65625 83.730469 63.644531 82.753906 62.773438 C 81.777344 61.902344 81.195312 60.484375 80.703125 59.128906 C 78.71875 53.679688 77.402344 47.265625 79.484375 42.722656 C 81.566406 38.175781 87.699219 35.578125 92.128906 37.117188 C 92.585938 37.273438 93.039062 37.515625 93.488281 37.753906 C 93.054688 36.917969 92.636719 36.199219 92.25 35.652344 C 90.808594 33.621094 88.316406 32.328125 86.085938 32.023438 C 83.816406 31.710938 81.605469 32.335938 79.933594 33.960938 C 79.238281 34.636719 78.644531 35.460938 78.117188 36.347656 C 75.609375 40.558594 74.605469 46.308594 75.367188 52.066406 C 76.132812 57.828125 78.652344 63.539062 82.269531 67.6875 C 82.554688 68.015625 82.863281 68.347656 83.21875 68.460938 C 83.78125 68.636719 84.296875 68.1875 84.519531 67.582031 C 84.742188 66.972656 84.738281 66.234375 84.730469 65.519531 C 84.867188 68.617188 85.496094 71.78125 86.570312 74.761719 C 86.878906 75.621094 87.289062 76.546875 87.964844 76.929688 C 88.648438 77.3125 89.335938 76.96875 89.789062 76.34375 " fill-opacity="1" fill-rule="nonzero"/><path fill="#706763" d="M 97.28125 73.464844 C 97.160156 73.699219 97 73.941406 96.765625 73.933594 C 96.53125 73.929688 96.320312 73.679688 96.152344 73.441406 C 95.15625 72.011719 94.613281 70.117188 94.703125 68.386719 C 93.867188 69.257812 92.757812 70.160156 91.648438 69.441406 C 91.34375 69.246094 91.078125 68.941406 90.832031 68.628906 C 88.625 65.863281 87.316406 62.140625 86.714844 58.480469 C 86.117188 54.824219 86.167969 51.179688 86.273438 47.585938 C 86.339844 45.347656 86.449219 43.019531 87.332031 41.238281 C 88.210938 39.453125 90.105469 38.410156 91.804688 39.480469 C 92.859375 40.144531 93.617188 41.453125 94.257812 42.738281 C 96.683594 47.609375 98.195312 53.078125 98.6875 58.472656 C 99.109375 63.128906 99.210938 69.804688 97.28125 73.464844 " fill-opacity="1" fill-rule="nonzero"/><path fill="#322a27" d="M 74.558594 83.367188 C 73.113281 81.601562 72.472656 79.285156 72.351562 77.003906 C 72.226562 74.601562 72.671875 72.085938 74.074219 70.132812 C 75.476562 68.175781 77.953125 66.902344 80.3125 67.363281 C 82.402344 67.777344 84.054688 69.425781 85.15625 71.253906 C 86.753906 73.90625 87.457031 77.191406 86.609375 80.171875 C 85.054688 85.617188 78.460938 88.140625 74.558594 83.367188 " fill-opacity="1" fill-rule="nonzero"/><path fill="#524845" d="M 75.113281 79.558594 C 73.886719 77.269531 73.675781 74.457031 74.542969 72.011719 C 75.035156 70.628906 75.894531 69.332031 77.144531 68.570312 C 78.394531 67.808594 80.070312 67.667969 81.3125 68.445312 C 82.292969 69.054688 82.890625 70.136719 83.222656 71.246094 C 83.863281 73.378906 83.617188 75.765625 82.5625 77.726562 C 81.019531 80.589844 77.214844 83.488281 75.113281 79.558594 " fill-opacity="1" fill-rule="nonzero"/></svg>