<svg xmlns="http://www.w3.org/2000/svg" xmlns:xlink="http://www.w3.org/1999/xlink" width="200" zoomAndPan="magnify" viewBox="0 0 150 112.499997" height="150" preserveAspectRatio="xMidYMid meet" version="1.0"><path fill="#8b5e3c" d="M 45.121094 85.730469 C 27.484375 68.097656 29.074219 37.917969 48.667969 18.324219 L 112.53125 82.183594 C 92.933594 101.78125 62.753906 103.367188 45.121094 85.730469 Z M 45.121094 85.730469 " fill-opacity="1" fill-rule="nonzero"/><path fill="#603913" d="M 48.667969 18.324219 C 38.871094 28.121094 45.226562 50.359375 62.859375 67.996094 C 80.496094 85.628906 102.734375 91.980469 112.527344 82.183594 C 122.324219 72.390625 115.976562 50.152344 98.335938 32.515625 C 80.707031 14.878906 58.464844 8.53125 48.667969 18.324219 Z M 48.667969 18.324219 " fill-opacity="1" fill-rule="nonzero"/><path fill="#f5f8fa" d="M 110.5625 70.804688 C 111.136719 71.378906 111.964844 71.648438 112.785156 71.496094 C 113.757812 71.320312 114.53125 70.589844 114.769531 69.628906 C 114.9375 68.953125 118.71875 52.894531 107.210938 41.386719 C 104.398438 38.578125 100.226562 31.917969 99.042969 29.988281 C 98.039062 28.945312 97.203125 29.308594 95.285156 27.390625 C 94.40625 26.511719 91.757812 21.75 84.148438 28.96875 C 83.269531 29.800781 83.167969 31.171875 83.855469 32.167969 L 110.269531 70.457031 C 110.359375 70.582031 110.457031 70.699219 110.5625 70.804688 Z M 110.5625 70.804688 " fill-opacity="1" fill-rule="nonzero"/><path fill="#603913" d="M 92.199219 29.023438 C 93.972656 30.796875 95.855469 32.578125 95.855469 32.578125 C 95.855469 32.578125 101.886719 39.613281 105.4375 43.160156 C 116.078125 53.804688 112.335938 69.03125 112.335938 69.03125 L 83.105469 29.703125 C 83.105469 29.703125 90.109375 27.089844 92.199219 29.023438 Z M 95.386719 25.625 C 90.789062 22.019531 83.402344 24.835938 81.589844 26.621094 C 79.875 28.332031 80.417969 31.597656 81.792969 33.589844 L 108.203125 71.878906 C 108.378906 72.132812 108.570312 72.363281 108.785156 72.578125 C 109.9375 73.730469 111.597656 74.265625 113.238281 73.964844 C 115.179688 73.609375 116.734375 72.144531 117.203125 70.226562 C 117.386719 69.492188 121.480469 52.109375 108.984375 39.609375 C 106.746094 37.371094 104.121094 35.25 101.683594 32.300781 C 100.859375 31.242188 98.710938 28.6875 96.480469 26.460938 Z M 95.386719 25.625 " fill-opacity="1" fill-rule="nonzero"/><path fill="#f5f8fa" d="M 52.214844 21.871094 C 44.378906 29.707031 50.730469 48.769531 66.410156 64.445312 C 82.078125 80.117188 101.144531 86.472656 108.980469 78.636719 C 116.816406 70.796875 110.464844 51.734375 94.789062 36.058594 C 79.113281 20.386719 60.054688 14.035156 52.214844 21.871094 Z M 52.214844 21.871094 " fill-opacity="1" fill-rule="nonzero"/><path fill="#99aab5" d="M 57.425781 27.304688 C 51.613281 33.121094 57.21875 48.160156 69.957031 60.898438 C 82.695312 73.636719 97.730469 79.242188 103.550781 73.425781 C 109.363281 67.613281 103.757812 52.570312 91.019531 39.832031 C 78.285156 27.09375 63.246094 21.488281 57.425781 27.304688 Z M 57.425781 27.304688 " fill-opacity="1" fill-rule="nonzero"/><path fill="#99aab5" d="M 81.980469 34.984375 L 84.933594 34.144531 C 86.34375 33.363281 88.328125 33.308594 89.6875 34.566406 L 92.726562 37.757812 C 94.164062 39.488281 97.542969 43.121094 100.242188 45.820312 C 109.789062 55.371094 106.058594 67.699219 105.890625 68.222656 C 105.75 68.679688 105.359375 69.011719 104.886719 69.085938 C 104.488281 69.144531 104.089844 69.011719 103.808594 68.730469 C 103.757812 68.679688 103.710938 68.621094 103.664062 68.558594 L 81.597656 36.777344 C 81.398438 36.492188 81.324219 36.140625 81.398438 35.800781 C 81.472656 35.460938 81.683594 35.167969 81.980469 34.984375 Z M 81.980469 34.984375 " fill-opacity="1" fill-rule="nonzero"/><path fill="#f5f8fa" d="M 90.914062 75.417969 C 90.914062 75.417969 82.863281 70.1875 81.457031 65.957031 C 79.878906 61.230469 69.761719 60.308594 68.183594 55.578125 C 66.613281 50.847656 63.980469 43.625 62.53125 40.730469 C 61.085938 37.839844 59.375 40.730469 57.800781 36 C 56.226562 31.265625 53.070312 28.113281 53.070312 28.113281 C 53.070312 28.113281 53.070312 50.191406 57.800781 54.921875 C 62.53125 59.652344 81.457031 78.574219 83.035156 76.996094 C 84.609375 75.417969 90.914062 75.417969 90.914062 75.417969 Z M 90.914062 75.417969 " fill-opacity="1" fill-rule="nonzero"/><path fill="#603913" d="M 88.601562 79.617188 C 88.601562 79.617188 79.246094 73.253906 77.773438 68.847656 C 76.132812 63.917969 64.503906 62.277344 62.863281 57.347656 C 61.21875 52.421875 58.859375 43.585938 58.0625 42.566406 C 55.765625 39.605469 54.78125 42.566406 53.136719 37.640625 C 51.492188 32.710938 48.210938 29.425781 48.210938 29.425781 C 48.210938 29.425781 48.210938 52.421875 53.136719 57.347656 C 58.0625 62.277344 77.773438 81.988281 79.417969 80.34375 C 81.0625 78.703125 88.601562 79.617188 88.601562 79.617188 Z M 88.601562 79.617188 " fill-opacity="1" fill-rule="nonzero"/><path fill="#8b5e3c" d="M 85.921875 83.957031 C 85.921875 83.957031 76.863281 78.074219 75.277344 73.316406 C 73.503906 67.996094 59.3125 64.445312 57.539062 59.125 C 55.765625 53.800781 55.765625 46.707031 53.988281 44.933594 C 52.214844 43.15625 50.441406 44.933594 48.667969 39.609375 C 46.894531 34.289062 43.347656 30.742188 43.347656 30.742188 C 43.347656 30.742188 43.347656 55.578125 48.667969 60.898438 C 53.988281 66.21875 75.277344 87.503906 77.050781 85.730469 C 78.828125 83.957031 85.921875 83.957031 85.921875 83.957031 Z M 85.921875 83.957031 " fill-opacity="1" fill-rule="nonzero"/><path fill="#a97c50" d="M 58.429688 92.46875 C 58.660156 91.753906 60.527344 92.316406 61.222656 92.472656 C 78.617188 96.300781 90.472656 89 90.605469 88.9375 C 91.285156 88.597656 92.058594 88.851562 92.324219 89.5 C 92.589844 90.148438 92.257812 90.949219 91.582031 91.285156 C 91.015625 91.566406 79.519531 97.683594 61.164062 93.640625 C 60.933594 93.589844 59.355469 93.3125 59.203125 93.164062 C 58.894531 92.855469 58.273438 92.953125 58.429688 92.46875 Z M 37.449219 67.464844 C 37.738281 67.75 37.71875 67.996094 38.175781 67.878906 C 38.898438 67.695312 38.925781 66.582031 38.816406 65.875 C 37.582031 57.867188 39.71875 49.558594 43.433594 39.90625 C 43.703125 39.199219 43.367188 38.464844 42.695312 38.269531 C 42.015625 38.070312 41.242188 38.480469 40.972656 39.183594 C 37.070312 49.304688 35.8125 58.339844 37.121094 66.8125 C 37.160156 67.074219 37.28125 67.292969 37.449219 67.464844 Z M 63.429688 90.488281 C 63.605469 90.667969 63.847656 90.785156 64.128906 90.820312 C 73.585938 91.886719 81.421875 87.96875 81.75 87.800781 C 82.425781 87.457031 82.753906 86.65625 82.480469 86.007812 C 82.210938 85.359375 81.433594 85.113281 80.753906 85.460938 C 80.683594 85.5 73.875 90.085938 65.25 89.105469 C 64.535156 89.027344 63.175781 89.066406 63.019531 89.796875 C 62.929688 90.238281 63.152344 90.210938 63.429688 90.488281 Z M 63.429688 90.488281 " fill-opacity="1" fill-rule="nonzero"/></svg>