<svg xmlns="http://www.w3.org/2000/svg" xmlns:xlink="http://www.w3.org/1999/xlink" width="300" zoomAndPan="magnify" viewBox="0 0 224.87999 225" height="300" preserveAspectRatio="xMidYMid meet" version="1.0"><defs><clipPath id="89f6556bb7"><path d="M 26.460938 22.546875 L 198.121094 22.546875 L 198.121094 202.453125 L 26.460938 202.453125 Z M 26.460938 22.546875 " clip-rule="nonzero"/></clipPath><clipPath id="0f708cdbea"><path d="M 26.460938 30 L 185 30 L 185 202.453125 L 26.460938 202.453125 Z M 26.460938 30 " clip-rule="nonzero"/></clipPath><clipPath id="b4fc176a3e"><path d="M 73 22.546875 L 198.121094 22.546875 L 198.121094 188 L 73 188 Z M 73 22.546875 " clip-rule="nonzero"/></clipPath></defs><path fill="#000000" d="M 175.207031 48.816406 C 160.347656 32.28125 140.4375 23.171875 119.140625 23.171875 C 102.8125 23.171875 87.300781 28.53125 74.253906 38.484375 C 65.046875 42.820312 56.613281 49.105469 49.375 57.15625 C 35.007812 73.148438 27.09375 94.285156 27.09375 116.667969 C 27.09375 139.050781 35.007812 160.183594 49.375 176.179688 C 64.234375 192.714844 84.144531 201.820312 105.441406 201.820312 C 121.769531 201.820312 137.28125 196.464844 150.328125 186.511719 C 159.535156 182.175781 167.972656 175.890625 175.207031 167.839844 C 189.574219 151.847656 197.488281 130.710938 197.488281 108.328125 C 197.488281 85.945312 189.574219 64.808594 175.207031 48.816406 Z M 119.140625 156.652344 C 96.214844 156.652344 77.5625 134.972656 77.5625 108.328125 C 77.5625 92.972656 83.765625 79.273438 93.402344 70.417969 C 97.21875 69.074219 101.257812 68.34375 105.441406 68.34375 C 128.367188 68.34375 147.019531 90.023438 147.019531 116.667969 C 147.019531 132.023438 140.816406 145.71875 131.179688 154.578125 C 127.367188 155.921875 123.324219 156.652344 119.140625 156.652344 Z M 119.140625 156.652344 " fill-opacity="1" fill-rule="nonzero"/><g clip-path="url(#89f6556bb7)"><path fill="#000000" d="M 105.441406 202.445312 C 83.964844 202.445312 63.890625 193.265625 48.914062 176.597656 C 34.441406 160.488281 26.472656 139.203125 26.472656 116.667969 C 26.472656 94.128906 34.441406 72.847656 48.914062 56.738281 C 56.144531 48.691406 64.558594 42.367188 73.929688 37.945312 C 87.160156 27.871094 102.792969 22.546875 119.140625 22.546875 C 140.613281 22.546875 160.691406 31.730469 175.667969 48.398438 C 190.140625 64.507812 198.109375 85.789062 198.109375 108.328125 C 198.109375 130.867188 190.140625 152.148438 175.667969 168.257812 C 168.4375 176.304688 160.023438 182.628906 150.652344 187.046875 C 137.421875 197.121094 121.789062 202.445312 105.441406 202.445312 Z M 119.140625 23.796875 C 103.042969 23.796875 87.652344 29.046875 74.632812 38.980469 C 74.597656 39.007812 74.558594 39.03125 74.519531 39.046875 C 65.277344 43.398438 56.972656 49.632812 49.839844 57.574219 C 35.574219 73.453125 27.71875 94.4375 27.71875 116.667969 C 27.71875 138.894531 35.574219 159.882812 49.839844 175.761719 C 64.578125 192.164062 84.324219 201.199219 105.441406 201.199219 C 121.539062 201.199219 136.929688 195.945312 149.949219 186.015625 C 149.984375 185.988281 150.023438 185.964844 150.0625 185.945312 C 159.304688 181.59375 167.609375 175.363281 174.742188 167.421875 C 189.007812 151.542969 196.863281 130.558594 196.863281 108.328125 C 196.863281 86.097656 189.007812 65.113281 174.742188 49.234375 C 160.003906 32.832031 140.257812 23.796875 119.140625 23.796875 Z M 119.140625 157.273438 C 95.871094 157.273438 76.9375 135.316406 76.9375 108.328125 C 76.9375 93.3125 82.785156 79.328125 92.980469 69.957031 C 93.042969 69.898438 93.117188 69.855469 93.195312 69.828125 C 97.167969 68.429688 101.289062 67.71875 105.441406 67.71875 C 128.710938 67.71875 147.644531 89.679688 147.644531 116.667969 C 147.644531 131.683594 141.796875 145.667969 131.601562 155.039062 C 131.539062 155.09375 131.464844 155.140625 131.386719 155.167969 C 127.414062 156.566406 123.292969 157.273438 119.140625 157.273438 Z M 93.730469 70.964844 C 83.851562 80.097656 78.183594 93.707031 78.183594 108.328125 C 78.183594 134.628906 96.558594 156.027344 119.140625 156.027344 C 123.109375 156.027344 127.050781 155.355469 130.851562 154.03125 C 140.730469 144.898438 146.398438 131.285156 146.398438 116.667969 C 146.398438 90.367188 128.023438 68.96875 105.441406 68.96875 C 101.472656 68.96875 97.53125 69.640625 93.730469 70.964844 Z M 93.730469 70.964844 " fill-opacity="1" fill-rule="nonzero"/></g><path fill="#ffffff" d="M 105.441406 201.820312 C 84.144531 201.820312 64.234375 192.714844 49.375 176.179688 C 35.007812 160.183594 27.09375 139.050781 27.09375 116.667969 C 27.09375 94.285156 35.007812 73.148438 49.375 57.15625 C 64.234375 40.621094 84.144531 31.511719 105.441406 31.511719 C 126.738281 31.511719 146.648438 40.621094 161.507812 57.15625 C 175.875 73.148438 183.789062 94.28125 183.789062 116.667969 C 183.789062 139.050781 175.875 160.1875 161.507812 176.179688 C 146.648438 192.714844 126.738281 201.820312 105.441406 201.820312 Z M 105.441406 68.34375 C 82.515625 68.34375 63.863281 90.023438 63.863281 116.667969 C 63.863281 143.3125 82.515625 164.988281 105.441406 164.988281 C 128.367188 164.988281 147.019531 143.3125 147.019531 116.667969 C 147.019531 90.023438 128.367188 68.34375 105.441406 68.34375 Z M 105.441406 68.34375 " fill-opacity="1" fill-rule="nonzero"/><g clip-path="url(#0f708cdbea)"><path fill="#000000" d="M 105.441406 202.445312 C 83.964844 202.445312 63.890625 193.265625 48.914062 176.597656 C 34.441406 160.488281 26.472656 139.203125 26.472656 116.667969 C 26.472656 94.128906 34.441406 72.847656 48.914062 56.738281 C 63.890625 40.066406 83.964844 30.886719 105.441406 30.886719 C 126.917969 30.886719 146.992188 40.066406 161.972656 56.738281 C 176.441406 72.84375 184.414062 94.128906 184.414062 116.667969 C 184.414062 139.207031 176.441406 160.488281 161.972656 176.597656 C 146.992188 193.265625 126.917969 202.445312 105.441406 202.445312 Z M 105.441406 32.136719 C 84.324219 32.136719 64.578125 41.171875 49.839844 57.574219 C 35.574219 73.453125 27.71875 94.4375 27.71875 116.667969 C 27.71875 138.894531 35.574219 159.882812 49.839844 175.761719 C 64.578125 192.164062 84.324219 201.199219 105.441406 201.199219 C 126.558594 201.199219 146.304688 192.164062 161.042969 175.761719 C 175.308594 159.882812 183.167969 138.894531 183.167969 116.667969 C 183.167969 94.4375 175.308594 73.449219 161.042969 57.574219 C 146.304688 41.171875 126.558594 32.136719 105.441406 32.136719 Z M 105.441406 165.613281 C 82.171875 165.613281 63.242188 143.65625 63.242188 116.667969 C 63.242188 89.675781 82.171875 67.71875 105.441406 67.71875 C 128.710938 67.71875 147.644531 89.675781 147.644531 116.667969 C 147.644531 143.65625 128.710938 165.613281 105.441406 165.613281 Z M 105.441406 68.96875 C 82.859375 68.96875 64.488281 90.367188 64.488281 116.667969 C 64.488281 142.96875 82.859375 164.367188 105.441406 164.367188 C 128.023438 164.367188 146.398438 142.96875 146.398438 116.667969 C 146.398438 90.367188 128.023438 68.96875 105.441406 68.96875 Z M 105.441406 68.96875 " fill-opacity="1" fill-rule="nonzero"/></g><path fill="#c2b092" d="M 77.5625 108.328125 C 77.5625 92.972656 83.765625 79.273438 93.402344 70.417969 C 76.332031 76.433594 63.863281 94.886719 63.863281 116.667969 C 63.863281 143.3125 82.515625 164.988281 105.441406 164.988281 C 115.15625 164.988281 124.09375 161.089844 131.179688 154.578125 C 127.367188 155.921875 123.324219 156.652344 119.140625 156.652344 C 96.214844 156.652344 77.5625 134.972656 77.5625 108.328125 Z M 77.5625 108.328125 " fill-opacity="1" fill-rule="nonzero"/><path fill="#000000" d="M 105.441406 165.613281 C 82.171875 165.613281 63.242188 143.65625 63.242188 116.667969 C 63.242188 105.980469 66.167969 95.824219 71.710938 87.289062 C 77.078125 79.019531 84.710938 72.820312 93.195312 69.828125 C 93.476562 69.730469 93.785156 69.84375 93.9375 70.097656 C 94.089844 70.351562 94.042969 70.675781 93.824219 70.878906 C 83.886719 80.011719 78.183594 93.660156 78.183594 108.328125 C 78.183594 134.628906 96.558594 156.027344 119.140625 156.027344 C 123.152344 156.027344 127.132812 155.339844 130.972656 153.988281 C 131.25 153.890625 131.558594 154.003906 131.710938 154.257812 C 131.863281 154.511719 131.816406 154.835938 131.597656 155.039062 C 124.070312 161.957031 115.023438 165.613281 105.441406 165.613281 Z M 90.753906 72.152344 C 75.148438 79.175781 64.488281 97 64.488281 116.667969 C 64.488281 142.96875 82.859375 164.367188 105.441406 164.367188 C 113.769531 164.367188 121.683594 161.503906 128.496094 156.054688 C 125.429688 156.867188 122.292969 157.273438 119.140625 157.273438 C 95.871094 157.273438 76.9375 135.316406 76.9375 108.328125 C 76.9375 94.441406 81.9375 81.4375 90.753906 72.152344 Z M 90.753906 72.152344 " fill-opacity="1" fill-rule="nonzero"/><path fill="#c2b092" d="M 175.207031 48.816406 C 160.347656 32.28125 140.4375 23.171875 119.140625 23.171875 C 102.8125 23.171875 87.300781 28.53125 74.253906 38.484375 C 83.957031 33.914062 94.515625 31.511719 105.441406 31.511719 C 126.738281 31.511719 146.648438 40.621094 161.507812 57.15625 C 175.875 73.148438 183.789062 94.28125 183.789062 116.667969 C 183.789062 139.050781 175.875 160.1875 161.507812 176.179688 C 158.042969 180.035156 154.296875 183.484375 150.328125 186.511719 C 159.535156 182.175781 167.972656 175.890625 175.207031 167.839844 C 189.574219 151.847656 197.488281 130.710938 197.488281 108.328125 C 197.488281 85.945312 189.574219 64.808594 175.207031 48.816406 Z M 175.207031 48.816406 " fill-opacity="1" fill-rule="nonzero"/><g clip-path="url(#b4fc176a3e)"><path fill="#000000" d="M 150.328125 187.136719 C 150.117188 187.136719 149.910156 187.027344 149.796875 186.835938 C 149.628906 186.5625 149.695312 186.207031 149.949219 186.015625 C 153.917969 182.988281 157.648438 179.539062 161.042969 175.761719 C 175.308594 159.882812 183.167969 138.894531 183.167969 116.667969 C 183.167969 94.4375 175.308594 73.449219 161.042969 57.574219 C 146.304688 41.171875 126.558594 32.136719 105.441406 32.136719 C 94.664062 32.136719 84.261719 34.460938 74.519531 39.046875 C 74.230469 39.183594 73.886719 39.078125 73.722656 38.808594 C 73.554688 38.535156 73.621094 38.179688 73.875 37.984375 C 87.117188 27.886719 102.769531 22.546875 119.140625 22.546875 C 140.613281 22.546875 160.691406 31.730469 175.667969 48.398438 C 190.140625 64.507812 198.109375 85.789062 198.109375 108.328125 C 198.109375 130.867188 190.140625 152.148438 175.667969 168.257812 C 168.421875 176.320312 159.984375 182.652344 150.59375 187.078125 C 150.507812 187.117188 150.417969 187.136719 150.328125 187.136719 Z M 105.441406 30.886719 C 126.917969 30.886719 146.992188 40.066406 161.972656 56.738281 C 176.441406 72.84375 184.414062 94.128906 184.414062 116.667969 C 184.414062 139.207031 176.441406 160.488281 161.972656 176.597656 C 159.871094 178.933594 157.644531 181.144531 155.3125 183.214844 C 162.46875 179.121094 168.988281 173.828125 174.742188 167.421875 C 189.007812 151.542969 196.863281 130.558594 196.863281 108.328125 C 196.863281 86.097656 189.007812 65.113281 174.742188 49.234375 C 160.003906 32.832031 140.257812 23.796875 119.140625 23.796875 C 104.964844 23.796875 91.332031 27.871094 79.386719 35.628906 C 87.707031 32.480469 96.445312 30.886719 105.441406 30.886719 Z M 105.441406 30.886719 " fill-opacity="1" fill-rule="nonzero"/></g></svg>