<svg xmlns="http://www.w3.org/2000/svg" xmlns:xlink="http://www.w3.org/1999/xlink" width="128" zoomAndPan="magnify" viewBox="0 0 96 95.999999" height="128" preserveAspectRatio="xMidYMid meet" version="1.0"><defs><clipPath id="183a5f3958"><path d="M 19 9.601562 L 76 9.601562 L 76 86.101562 L 19 86.101562 Z M 19 9.601562 " clip-rule="nonzero"/></clipPath></defs><g clip-path="url(#183a5f3958)"><path fill="#8f603f" d="M 75.292969 55.882812 C 77.316406 44.746094 73.71875 34.164062 68.953125 27.914062 C 69.003906 27.773438 69.042969 27.632812 69.070312 27.488281 C 69.230469 27.566406 69.402344 27.613281 69.582031 27.621094 C 69.757812 27.632812 69.933594 27.605469 70.101562 27.546875 C 70.269531 27.484375 70.417969 27.390625 70.550781 27.269531 C 70.679688 27.148438 70.78125 27.003906 70.851562 26.839844 C 70.976562 26.566406 70.984375 26.285156 70.875 26.003906 C 70.78125 25.765625 70.628906 25.578125 70.414062 25.4375 C 70.082031 25.222656 69.726562 25.171875 69.347656 25.285156 C 69.25 25.320312 69.160156 25.363281 69.074219 25.414062 C 68.8125 24.050781 68.1875 22.878906 67.191406 21.902344 C 65.703125 20.472656 63.792969 20 62.492188 20.066406 C 62.019531 20.078125 61.566406 20.160156 61.121094 20.3125 C 61.160156 20.1875 61.1875 20.0625 61.207031 19.933594 C 61.304688 19.132812 61.164062 18.375 60.785156 17.660156 C 60.523438 17.164062 60.179688 16.734375 59.753906 16.375 C 59.257812 15.960938 58.699219 15.660156 58.078125 15.476562 C 57.386719 15.269531 56.683594 15.226562 55.96875 15.351562 C 55.246094 15.480469 54.585938 15.765625 53.945312 16.027344 C 53.414062 16.265625 52.855469 16.4375 52.28125 16.539062 C 51.761719 16.425781 51.234375 16.324219 50.699219 16.234375 C 50.34375 15.964844 50.136719 15.570312 50.148438 15.253906 C 50.164062 14.933594 50.398438 14.640625 50.589844 14.605469 C 50.691406 14.582031 50.785156 14.597656 50.875 14.648438 C 50.941406 14.683594 50.984375 14.734375 51.011719 14.800781 C 51.023438 14.875 51.007812 14.941406 50.96875 15.003906 C 50.941406 15.058594 50.898438 15.097656 50.847656 15.125 L 50.832031 15.125 C 50.832031 15.125 50.832031 15.125 50.832031 15.144531 C 50.816406 15.148438 50.804688 15.148438 50.792969 15.144531 C 50.757812 15.121094 50.726562 15.09375 50.699219 15.066406 C 50.683594 15.0625 50.667969 15.054688 50.652344 15.046875 C 50.652344 15.046875 50.640625 15.027344 50.644531 15.015625 C 50.65625 14.984375 50.660156 14.949219 50.664062 14.917969 C 50.664062 14.886719 50.644531 14.855469 50.585938 14.839844 C 50.523438 14.828125 50.394531 14.890625 50.355469 15.011719 C 50.308594 15.148438 50.320312 15.277344 50.378906 15.402344 C 50.417969 15.488281 50.476562 15.5625 50.550781 15.617188 C 50.648438 15.6875 50.761719 15.722656 50.882812 15.726562 C 51.140625 15.722656 51.363281 15.625 51.542969 15.441406 C 51.726562 15.253906 51.816406 15.03125 51.8125 14.773438 C 51.804688 14.433594 51.667969 14.164062 51.390625 13.957031 C 51.109375 13.738281 50.789062 13.652344 50.433594 13.707031 C 50.347656 13.71875 50.265625 13.742188 50.183594 13.769531 C 50.371094 13.632812 50.527344 13.464844 50.660156 13.273438 C 50.714844 13.191406 50.757812 13.101562 50.796875 13.007812 C 50.835938 12.902344 50.859375 12.792969 50.871094 12.679688 C 50.894531 12.4375 50.847656 12.207031 50.726562 11.988281 C 50.582031 11.734375 50.367188 11.578125 50.078125 11.511719 C 49.867188 11.464844 49.65625 11.472656 49.445312 11.53125 C 49.191406 11.597656 48.960938 11.714844 48.753906 11.882812 C 48.761719 11.804688 48.773438 11.730469 48.78125 11.648438 C 48.816406 11.308594 48.816406 10.96875 48.769531 10.628906 C 48.726562 10.355469 48.605469 10.125 48.402344 9.929688 C 48.15625 9.710938 47.871094 9.621094 47.542969 9.660156 C 47.273438 9.6875 47.035156 9.792969 46.824219 9.964844 C 46.722656 10.046875 46.636719 10.144531 46.5625 10.253906 C 46.5 10.351562 46.449219 10.453125 46.410156 10.558594 C 46.285156 10.910156 46.234375 11.273438 46.265625 11.644531 C 46.273438 11.8125 46.285156 11.96875 46.304688 12.125 C 46.179688 12.03125 46.050781 11.945312 45.917969 11.867188 C 45.648438 11.722656 45.367188 11.625 45.066406 11.582031 C 44.953125 11.566406 44.839844 11.566406 44.730469 11.582031 C 44.550781 11.605469 44.398438 11.679688 44.265625 11.796875 C 44.058594 12.003906 43.960938 12.253906 43.976562 12.542969 C 43.996094 12.945312 44.152344 13.289062 44.4375 13.578125 C 44.507812 13.648438 44.578125 13.714844 44.65625 13.777344 C 44.578125 13.75 44.5 13.730469 44.417969 13.714844 C 44.070312 13.667969 43.753906 13.75 43.476562 13.96875 C 43.203125 14.167969 43.0625 14.4375 43.050781 14.773438 C 43.082031 15.386719 43.546875 15.738281 43.984375 15.726562 C 44.105469 15.722656 44.214844 15.6875 44.3125 15.617188 C 44.390625 15.5625 44.445312 15.488281 44.484375 15.402344 C 44.546875 15.277344 44.554688 15.148438 44.511719 15.011719 C 44.472656 14.890625 44.339844 14.820312 44.28125 14.839844 C 44.21875 14.863281 44.203125 14.886719 44.199219 14.917969 C 44.203125 14.949219 44.210938 14.984375 44.21875 15.015625 C 44.222656 15.023438 44.222656 15.035156 44.21875 15.046875 C 44.207031 15.054688 44.191406 15.0625 44.175781 15.066406 C 44.144531 15.09375 44.113281 15.121094 44.082031 15.144531 C 44.066406 15.148438 44.054688 15.148438 44.042969 15.144531 C 44.042969 15.128906 44.042969 15.121094 44.042969 15.125 L 44.023438 15.125 C 43.972656 15.097656 43.933594 15.054688 43.902344 15.003906 C 43.863281 14.941406 43.847656 14.875 43.863281 14.800781 C 43.886719 14.734375 43.933594 14.683594 43.996094 14.648438 C 44.085938 14.597656 44.183594 14.582031 44.28125 14.605469 C 44.476562 14.640625 44.726562 14.921875 44.722656 15.253906 C 44.707031 15.578125 44.582031 15.847656 44.34375 16.070312 C 43.609375 16.164062 42.878906 16.296875 42.15625 16.460938 C 41.726562 16.347656 41.308594 16.203125 40.898438 16.027344 C 40.265625 15.765625 39.601562 15.480469 38.878906 15.351562 C 38.164062 15.226562 37.464844 15.265625 36.769531 15.472656 C 36.152344 15.65625 35.59375 15.957031 35.101562 16.375 C 34.671875 16.738281 34.332031 17.171875 34.074219 17.671875 C 33.695312 18.386719 33.554688 19.144531 33.652344 19.949219 C 33.664062 20.019531 33.675781 20.082031 33.6875 20.140625 L 33.515625 20.253906 C 33.140625 20.148438 32.757812 20.089844 32.367188 20.078125 C 31.066406 20.019531 29.15625 20.492188 27.667969 21.914062 C 26.671875 22.890625 26.046875 24.0625 25.785156 25.429688 C 25.699219 25.375 25.609375 25.332031 25.511719 25.296875 C 25.132812 25.183594 24.777344 25.234375 24.445312 25.449219 C 24.230469 25.585938 24.078125 25.769531 23.984375 26.003906 C 23.875 26.285156 23.882812 26.566406 24.007812 26.839844 C 24.078125 27.003906 24.179688 27.148438 24.308594 27.269531 C 24.441406 27.390625 24.589844 27.484375 24.757812 27.546875 C 24.925781 27.605469 25.101562 27.632812 25.277344 27.621094 C 25.457031 27.613281 25.628906 27.566406 25.789062 27.488281 C 25.816406 27.621094 25.847656 27.75 25.890625 27.875 C 21.550781 34.199219 19.59375 41.089844 19.214844 48.203125 C 18.816406 55.621094 20.675781 64.289062 25.402344 71.101562 C 25.574219 71.335938 25.746094 71.558594 25.917969 71.789062 C 25.863281 71.941406 25.820312 72.097656 25.789062 72.257812 C 25.628906 72.175781 25.457031 72.132812 25.28125 72.121094 C 25.101562 72.113281 24.925781 72.136719 24.757812 72.199219 C 24.589844 72.257812 24.441406 72.351562 24.308594 72.472656 C 24.179688 72.597656 24.078125 72.738281 24.007812 72.902344 C 23.882812 73.179688 23.875 73.460938 23.984375 73.742188 C 24.074219 73.980469 24.230469 74.167969 24.445312 74.304688 C 24.777344 74.523438 25.132812 74.574219 25.511719 74.460938 C 25.605469 74.425781 25.699219 74.382812 25.785156 74.328125 C 26.042969 75.695312 26.671875 76.867188 27.667969 77.84375 C 29.152344 79.273438 31.066406 79.746094 32.367188 79.679688 C 32.835938 79.667969 33.292969 79.585938 33.734375 79.433594 C 33.695312 79.558594 33.667969 79.683594 33.648438 79.8125 C 33.554688 80.613281 33.695312 81.375 34.074219 82.089844 C 34.328125 82.585938 34.671875 83.019531 35.097656 83.382812 C 35.621094 83.824219 36.214844 84.132812 36.875 84.308594 C 37.535156 84.488281 38.207031 84.519531 38.878906 84.402344 C 39.605469 84.273438 40.265625 83.988281 40.902344 83.726562 C 41.476562 83.464844 42.074219 83.285156 42.695312 83.191406 C 43.261719 83.132812 43.773438 83.222656 44.125 83.488281 C 44.480469 83.757812 44.714844 84.171875 44.703125 84.496094 C 44.6875 84.820312 44.457031 85.105469 44.261719 85.144531 C 44.160156 85.167969 44.066406 85.152344 43.976562 85.097656 C 43.914062 85.066406 43.867188 85.015625 43.839844 84.945312 C 43.828125 84.875 43.84375 84.804688 43.882812 84.742188 C 43.914062 84.691406 43.953125 84.652344 44.003906 84.625 L 44.019531 84.625 C 44.019531 84.625 44.019531 84.625 44.019531 84.605469 C 44.035156 84.601562 44.046875 84.601562 44.0625 84.605469 C 44.09375 84.628906 44.125 84.652344 44.15625 84.683594 C 44.171875 84.6875 44.1875 84.695312 44.199219 84.707031 C 44.203125 84.714844 44.203125 84.722656 44.199219 84.734375 C 44.191406 84.765625 44.183594 84.796875 44.179688 84.832031 C 44.179688 84.863281 44.199219 84.894531 44.261719 84.910156 C 44.320312 84.921875 44.453125 84.859375 44.492188 84.734375 C 44.535156 84.601562 44.527344 84.472656 44.464844 84.34375 C 44.425781 84.257812 44.367188 84.1875 44.292969 84.132812 C 44.195312 84.0625 44.085938 84.027344 43.964844 84.023438 C 43.527344 84.007812 43.0625 84.367188 43.03125 84.976562 C 43.039062 85.316406 43.179688 85.589844 43.453125 85.792969 C 43.734375 86.007812 44.046875 86.089844 44.398438 86.042969 C 45.117188 85.933594 45.636719 85.277344 45.683594 84.546875 C 46.046875 84.457031 46.269531 84.230469 46.347656 83.863281 C 46.382812 83.699219 46.382812 83.539062 46.347656 83.378906 C 47.050781 83.402344 47.757812 83.390625 48.46875 83.351562 C 48.429688 83.523438 48.429688 83.691406 48.46875 83.863281 C 48.542969 84.230469 48.765625 84.457031 49.132812 84.546875 C 49.175781 85.28125 49.695312 85.933594 50.414062 86.042969 C 50.765625 86.089844 51.082031 86.007812 51.359375 85.792969 C 51.632812 85.585938 51.773438 85.316406 51.78125 84.976562 C 51.75 84.363281 51.285156 84.007812 50.847656 84.023438 C 50.726562 84.027344 50.617188 84.0625 50.519531 84.132812 C 50.445312 84.1875 50.386719 84.257812 50.347656 84.34375 C 50.285156 84.472656 50.277344 84.601562 50.320312 84.734375 C 50.359375 84.859375 50.496094 84.929688 50.550781 84.910156 C 50.609375 84.886719 50.632812 84.863281 50.632812 84.832031 C 50.628906 84.796875 50.621094 84.765625 50.613281 84.734375 C 50.613281 84.722656 50.625 84.699219 50.621094 84.707031 C 50.636719 84.695312 50.648438 84.6875 50.664062 84.683594 C 50.695312 84.652344 50.726562 84.628906 50.757812 84.605469 C 50.773438 84.601562 50.785156 84.601562 50.796875 84.605469 C 50.796875 84.617188 50.796875 84.628906 50.796875 84.625 L 50.816406 84.625 C 50.867188 84.652344 50.910156 84.691406 50.9375 84.742188 C 50.976562 84.804688 50.992188 84.875 50.980469 84.945312 C 50.953125 85.015625 50.910156 85.066406 50.84375 85.097656 C 50.765625 85.144531 50.679688 85.160156 50.589844 85.148438 C 50.398438 85.113281 50.144531 84.832031 50.148438 84.5 C 50.152344 84.167969 50.355469 83.761719 50.726562 83.496094 C 51.09375 83.226562 51.589844 83.136719 52.15625 83.195312 C 52.78125 83.289062 53.375 83.46875 53.949219 83.730469 C 54.582031 83.992188 55.246094 84.277344 55.972656 84.40625 C 56.648438 84.523438 57.316406 84.492188 57.976562 84.316406 C 58.636719 84.136719 59.230469 83.828125 59.753906 83.386719 C 60.179688 83.023438 60.523438 82.589844 60.777344 82.09375 C 61.15625 81.378906 61.296875 80.617188 61.203125 79.816406 C 61.183594 79.6875 61.152344 79.5625 61.113281 79.4375 C 61.558594 79.589844 62.015625 79.671875 62.484375 79.683594 C 63.785156 79.742188 65.699219 79.269531 67.183594 77.847656 C 68.179688 76.871094 68.808594 75.699219 69.066406 74.335938 C 69.152344 74.386719 69.246094 74.429688 69.34375 74.464844 C 69.722656 74.578125 70.078125 74.527344 70.40625 74.3125 C 70.625 74.171875 70.777344 73.984375 70.871094 73.746094 C 70.976562 73.464844 70.96875 73.183594 70.84375 72.90625 C 70.773438 72.746094 70.671875 72.601562 70.542969 72.480469 C 70.414062 72.355469 70.265625 72.265625 70.09375 72.203125 C 69.925781 72.140625 69.753906 72.117188 69.574219 72.125 C 69.394531 72.136719 69.226562 72.183594 69.066406 72.261719 C 69.027344 72.074219 68.972656 71.886719 68.902344 71.707031 C 68.96875 71.625 69.03125 71.542969 69.097656 71.453125 C 72.496094 66.925781 74.132812 62.164062 75.292969 55.882812 Z M 50.820312 15.199219 Z M 44.035156 15.199219 C 44.035156 15.222656 44.035156 15.214844 44.035156 15.199219 Z M 44.035156 84.574219 C 44.035156 84.554688 44.039062 84.542969 44.035156 84.566406 Z M 50.820312 84.574219 Z M 62.46875 20.996094 C 63.589844 21.066406 65.207031 21.480469 66.453125 22.675781 C 67.695312 23.875 68.144531 25.472656 68.25 26.585938 C 68.269531 26.765625 68.28125 26.925781 68.289062 27.085938 C 67.75 26.414062 67.199219 25.765625 66.625 25.140625 C 66.625 25.085938 66.625 25.03125 66.609375 24.96875 C 66.492188 24.296875 66.199219 23.710938 65.730469 23.214844 C 65.242188 22.691406 64.640625 22.382812 63.929688 22.296875 C 63.84375 22.289062 63.757812 22.289062 63.671875 22.296875 C 63.132812 21.839844 62.574219 21.402344 62.007812 20.988281 C 62.152344 20.96875 62.304688 20.976562 62.46875 20.988281 Z M 54.351562 16.984375 C 54.996094 16.71875 55.589844 16.472656 56.160156 16.375 C 56.710938 16.277344 57.253906 16.304688 57.789062 16.457031 C 58.664062 16.699219 59.355469 17.191406 59.863281 17.933594 C 59.679688 17.84375 59.480469 17.816406 59.277344 17.851562 C 58.976562 17.910156 58.765625 18.082031 58.648438 18.363281 C 58.582031 18.515625 58.554688 18.675781 58.570312 18.839844 C 57.167969 18.113281 55.710938 17.519531 54.199219 17.058594 Z M 49.316406 12.769531 C 49.425781 12.660156 49.558594 12.582031 49.710938 12.542969 C 49.746094 12.527344 49.785156 12.523438 49.828125 12.527344 C 49.828125 12.546875 49.828125 12.566406 49.828125 12.585938 C 49.824219 12.601562 49.820312 12.621094 49.816406 12.636719 C 49.804688 12.664062 49.792969 12.6875 49.777344 12.710938 C 49.667969 12.855469 49.539062 12.976562 49.386719 13.078125 C 49.148438 13.257812 48.925781 13.402344 48.707031 13.539062 C 48.882812 13.261719 49.085938 13.003906 49.316406 12.769531 Z M 47.378906 10.9375 C 47.390625 10.898438 47.410156 10.863281 47.433594 10.828125 C 47.453125 10.804688 47.472656 10.78125 47.492188 10.761719 C 47.542969 10.722656 47.597656 10.699219 47.65625 10.691406 C 47.707031 10.691406 47.695312 10.691406 47.695312 10.691406 C 47.726562 10.730469 47.742188 10.773438 47.746094 10.820312 C 47.769531 11.070312 47.769531 11.324219 47.746094 11.574219 C 47.71875 12.113281 47.65625 12.59375 47.59375 13 C 47.546875 13.320312 47.507812 13.59375 47.492188 13.816406 C 47.472656 13.597656 47.433594 13.332031 47.394531 13.015625 C 47.328125 12.546875 47.292969 12.078125 47.28125 11.601562 C 47.273438 11.378906 47.304688 11.15625 47.378906 10.941406 Z M 47.53125 14.257812 L 47.503906 14.222656 C 47.503906 14.207031 47.503906 14.191406 47.515625 14.171875 C 47.515625 14.203125 47.519531 14.234375 47.523438 14.265625 Z M 47.558594 14.507812 C 47.625 14.75 48.109375 14.785156 48.828125 14.53125 C 49.101562 14.429688 49.359375 14.304688 49.613281 14.15625 C 49.335938 14.449219 49.1875 14.796875 49.164062 15.199219 C 48.796875 15.285156 48.574219 15.511719 48.5 15.878906 C 48.5 15.910156 48.5 15.929688 48.488281 15.957031 C 47.78125 15.90625 47.074219 15.890625 46.363281 15.917969 C 46.363281 15.917969 46.363281 15.902344 46.363281 15.894531 C 46.289062 15.527344 46.066406 15.300781 45.699219 15.210938 C 45.675781 14.789062 45.511719 14.425781 45.210938 14.125 C 45.574219 14.304688 45.953125 14.449219 46.34375 14.558594 C 47.003906 14.734375 47.449219 14.726562 47.554688 14.511719 Z M 45.425781 12.773438 C 45.730469 12.9375 46.003906 13.140625 46.25 13.382812 C 46.328125 13.460938 46.402344 13.527344 46.46875 13.59375 C 46.210938 13.472656 45.910156 13.332031 45.640625 13.183594 C 45.386719 13.0625 45.195312 12.878906 45.054688 12.636719 C 45.183594 12.667969 45.308594 12.710938 45.425781 12.773438 Z M 37.0625 16.457031 C 37.601562 16.308594 38.144531 16.28125 38.695312 16.375 C 39.277344 16.503906 39.84375 16.691406 40.386719 16.941406 C 38.96875 17.382812 37.601562 17.945312 36.285156 18.621094 C 36.273438 18.527344 36.25 18.4375 36.214844 18.347656 C 36.09375 18.070312 35.882812 17.90625 35.585938 17.847656 C 35.378906 17.8125 35.183594 17.839844 34.996094 17.933594 C 35.503906 17.191406 36.195312 16.699219 37.0625 16.457031 Z M 26.605469 26.574219 C 26.707031 25.460938 27.171875 23.863281 28.40625 22.664062 C 29.640625 21.460938 31.269531 21.054688 32.390625 20.980469 L 32.476562 20.980469 C 31.910156 21.398438 31.359375 21.835938 30.828125 22.289062 C 30.160156 22.40625 29.597656 22.710938 29.136719 23.207031 C 28.707031 23.65625 28.421875 24.179688 28.28125 24.78125 C 27.691406 25.433594 27.144531 26.121094 26.632812 26.835938 C 26.613281 26.859375 26.59375 26.886719 26.574219 26.914062 C 26.582031 26.800781 26.597656 26.691406 26.597656 26.574219 Z M 32.390625 78.773438 C 31.269531 78.703125 29.648438 78.289062 28.40625 77.089844 C 27.160156 75.890625 26.714844 74.292969 26.605469 73.183594 C 26.585938 72.984375 26.574219 72.800781 26.566406 72.628906 C 27.105469 73.300781 27.65625 73.945312 28.226562 74.554688 C 28.226562 74.636719 28.234375 74.71875 28.25 74.800781 C 28.367188 75.472656 28.660156 76.054688 29.128906 76.554688 C 29.617188 77.078125 30.214844 77.386719 30.929688 77.480469 C 31.058594 77.488281 31.1875 77.484375 31.3125 77.464844 C 31.886719 77.933594 32.46875 78.378906 33.058594 78.792969 C 32.851562 78.796875 32.628906 78.789062 32.382812 78.773438 Z M 40.507812 82.769531 C 39.863281 83.035156 39.269531 83.28125 38.699219 83.378906 C 38.148438 83.476562 37.605469 83.449219 37.070312 83.296875 C 36.195312 83.054688 35.503906 82.5625 34.996094 81.820312 C 35.179688 81.910156 35.375 81.9375 35.582031 81.902344 C 35.878906 81.847656 36.089844 81.679688 36.210938 81.402344 C 36.300781 81.195312 36.316406 80.980469 36.265625 80.761719 C 36.265625 80.746094 36.253906 80.730469 36.25 80.714844 C 37.769531 81.496094 39.355469 82.113281 41.003906 82.566406 C 40.832031 82.636719 40.664062 82.703125 40.503906 82.769531 Z M 45.359375 83.34375 L 45.351562 83.328125 L 45.363281 83.328125 Z M 49.488281 83.34375 C 49.484375 83.320312 49.476562 83.300781 49.46875 83.28125 L 49.527344 83.28125 C 49.511719 83.296875 49.511719 83.3125 49.492188 83.34375 Z M 57.792969 83.300781 C 57.257812 83.453125 56.710938 83.480469 56.164062 83.382812 C 55.59375 83.28125 55 83.035156 54.355469 82.773438 C 54.117188 82.675781 53.871094 82.582031 53.617188 82.492188 C 55.394531 81.988281 57.09375 81.304688 58.726562 80.445312 C 58.714844 80.464844 58.703125 80.480469 58.695312 80.5 C 58.648438 80.585938 58.617188 80.675781 58.597656 80.773438 C 58.546875 80.992188 58.5625 81.203125 58.652344 81.410156 C 58.773438 81.6875 58.980469 81.855469 59.28125 81.914062 C 59.484375 81.949219 59.679688 81.917969 59.867188 81.828125 C 59.355469 82.570312 58.664062 83.0625 57.789062 83.300781 Z M 68.25 73.1875 C 68.148438 74.300781 67.6875 75.894531 66.449219 77.097656 C 65.214844 78.296875 63.589844 78.703125 62.46875 78.777344 C 62.0625 78.808594 61.714844 78.804688 61.421875 78.804688 C 62.078125 78.359375 62.710938 77.902344 63.332031 77.417969 C 63.523438 77.492188 63.722656 77.515625 63.925781 77.492188 C 64.640625 77.402344 65.242188 77.09375 65.726562 76.566406 C 66.195312 76.066406 66.488281 75.484375 66.609375 74.8125 C 66.632812 74.683594 66.636719 74.550781 66.632812 74.417969 C 67.195312 73.824219 67.75 73.1875 68.296875 72.507812 C 68.289062 72.710938 68.273438 72.9375 68.25 73.1875 Z M 66.875 67.992188 C 60.914062 76.460938 50.097656 81.550781 39.941406 77.734375 C 29.230469 73.707031 23.230469 62.488281 22.753906 51.546875 C 22.246094 40.109375 27.5 27.386719 38.367188 22.292969 C 48.777344 17.414062 59.652344 22.1875 66.28125 30.726562 C 74.082031 41.167969 74.425781 57.277344 66.878906 67.984375 Z M 66.875 67.992188 " fill-opacity="1" fill-rule="nonzero"/></g><path fill="#8f603f" d="M 65.265625 31.3125 C 61.769531 26.808594 57.222656 23.25 51.558594 21.960938 C 45.207031 20.5 38.824219 22.378906 33.875 26.519531 C 25.375 33.632812 22.386719 46.269531 24.570312 56.792969 C 26.640625 66.78125 34.167969 76.484375 44.910156 77.761719 C 55.320312 79.003906 65.136719 71.398438 68.746094 62.023438 C 72.625 51.957031 71.839844 40.101562 65.265625 31.3125 Z M 64.570312 66.878906 C 62.328125 69.90625 59.949219 71.84375 57.109375 73.574219 C 47.59375 79.023438 36.898438 76.171875 30.042969 66.605469 C 26.308594 61.222656 24.835938 54.378906 25.152344 48.515625 C 25.46875 42.578125 27.167969 36.84375 31.015625 31.621094 C 34.726562 26.425781 41.890625 22.277344 48.796875 23.089844 C 55.535156 23.789062 60.539062 27.335938 64.402344 32.414062 C 68.191406 37.339844 71.0625 45.730469 69.460938 54.574219 C 68.542969 59.535156 67.25 63.292969 64.570312 66.878906 Z M 64.570312 66.878906 " fill-opacity="1" fill-rule="nonzero"/><path fill="#b0cdd9" d="M 64.402344 32.421875 C 60.539062 27.34375 55.535156 23.796875 48.796875 23.097656 C 41.890625 22.289062 34.726562 26.429688 31.015625 31.632812 C 27.171875 36.851562 25.46875 42.585938 25.152344 48.523438 C 24.835938 54.386719 26.308594 61.230469 30.042969 66.613281 C 36.898438 76.179688 47.59375 79.035156 57.109375 73.582031 C 59.949219 71.855469 62.328125 69.914062 64.570312 66.890625 C 67.25 63.308594 68.542969 59.542969 69.460938 54.582031 C 71.0625 45.734375 68.191406 37.339844 64.402344 32.421875 Z M 64.402344 32.421875 " fill-opacity="1" fill-rule="nonzero"/><path fill="#6b3c12" d="M 66.273438 30.726562 C 59.644531 22.183594 48.773438 17.414062 38.359375 22.292969 C 27.492188 27.386719 22.242188 40.109375 22.753906 51.546875 C 23.238281 62.488281 29.234375 73.707031 39.949219 77.730469 C 50.101562 81.550781 60.921875 76.453125 66.882812 67.984375 C 74.425781 57.277344 74.082031 41.167969 66.273438 30.726562 Z M 44.910156 77.761719 C 34.167969 76.484375 26.640625 66.78125 24.570312 56.792969 C 22.386719 46.269531 25.375 33.632812 33.875 26.519531 C 38.824219 22.378906 45.207031 20.5 51.558594 21.960938 C 57.222656 23.257812 61.769531 26.808594 65.265625 31.3125 C 71.839844 40.101562 72.625 51.957031 68.746094 62.03125 C 65.136719 71.394531 55.320312 79.003906 44.910156 77.761719 Z M 44.910156 77.761719 " fill-opacity="1" fill-rule="nonzero"/></svg>