<svg xmlns="http://www.w3.org/2000/svg" xmlns:xlink="http://www.w3.org/1999/xlink" width="300" zoomAndPan="magnify" viewBox="0 0 224.87999 225" height="300" preserveAspectRatio="xMidYMid meet" version="1.0"><defs><clipPath id="a02d003be3"><path d="M 33.09375 23 L 192 23 L 192 202 L 33.09375 202 Z M 33.09375 23 " clip-rule="nonzero"/></clipPath><clipPath id="cc3f872fca"><path d="M 33.09375 22.546875 L 192 22.546875 L 192 202.453125 L 33.09375 202.453125 Z M 33.09375 22.546875 " clip-rule="nonzero"/></clipPath><clipPath id="5f73e02ca3"><path d="M 33.09375 31 L 178 31 L 178 202 L 33.09375 202 Z M 33.09375 31 " clip-rule="nonzero"/></clipPath><clipPath id="53d05bb95d"><path d="M 33.09375 30 L 179 30 L 179 202.453125 L 33.09375 202.453125 Z M 33.09375 30 " clip-rule="nonzero"/></clipPath><clipPath id="eefadd4472"><path d="M 36 22.546875 L 75 22.546875 L 75 33 L 36 33 Z M 36 22.546875 " clip-rule="nonzero"/></clipPath><clipPath id="a00a427b8f"><path d="M 143 22.546875 L 190 22.546875 L 190 34 L 143 34 Z M 143 22.546875 " clip-rule="nonzero"/></clipPath></defs><g clip-path="url(#a02d003be3)"><path fill="#000000" d="M 185.082031 23.171875 L 160.703125 23.171875 C 159.570312 23.171875 158.507812 23.480469 157.589844 24.003906 L 157.269531 24.199219 C 157.25 24.214844 157.222656 24.226562 157.203125 24.242188 L 144.550781 31.996094 C 143.957031 32.242188 143.410156 32.582031 142.929688 32.988281 L 142.925781 32.992188 C 141.570312 34.136719 140.707031 35.84375 140.707031 37.757812 L 140.707031 105.414062 L 76.695312 25.515625 C 75.507812 24.035156 73.710938 23.171875 71.808594 23.171875 L 53.761719 23.171875 C 52.464844 23.171875 51.257812 23.570312 50.257812 24.246094 L 37.367188 32.109375 C 36.953125 32.304688 36.5625 32.539062 36.207031 32.816406 L 36.199219 32.820312 C 34.722656 33.960938 33.765625 35.746094 33.765625 37.757812 L 33.765625 195.578125 C 33.765625 199.027344 36.566406 201.824219 40.023438 201.824219 L 64.398438 201.824219 C 65.652344 201.824219 66.816406 201.453125 67.792969 200.820312 L 67.792969 200.824219 L 81.207031 192.683594 L 81.203125 192.679688 C 83.105469 191.609375 84.394531 189.574219 84.394531 187.238281 L 84.394531 119.582031 L 148.351562 199.410156 C 149.539062 200.890625 151.335938 201.753906 153.238281 201.753906 L 171.339844 201.75 C 172.675781 201.75 173.910156 201.328125 174.925781 200.617188 L 174.929688 200.617188 L 188.4375 192.433594 L 188.433594 192.429688 C 190.175781 191.324219 191.335938 189.382812 191.335938 187.164062 L 191.335938 29.417969 C 191.335938 25.96875 188.535156 23.171875 185.082031 23.171875 Z M 185.082031 23.171875 " fill-opacity="1" fill-rule="nonzero"/></g><g clip-path="url(#cc3f872fca)"><path fill="#000000" d="M 64.398438 202.445312 L 40.023438 202.445312 C 36.226562 202.445312 33.140625 199.367188 33.140625 195.578125 L 33.140625 37.757812 C 33.140625 35.628906 34.109375 33.660156 35.796875 32.34375 C 35.808594 32.332031 35.824219 32.320312 35.84375 32.308594 C 36.222656 32.019531 36.632812 31.765625 37.066406 31.558594 L 49.921875 23.71875 C 51.058594 22.953125 52.386719 22.546875 53.761719 22.546875 L 71.808594 22.546875 C 73.910156 22.546875 75.871094 23.488281 77.183594 25.125 L 140.082031 103.632812 L 140.082031 37.757812 C 140.082031 35.746094 140.964844 33.84375 142.5 32.53125 C 142.515625 32.519531 142.527344 32.507812 142.542969 32.496094 C 143.066406 32.058594 143.644531 31.703125 144.265625 31.4375 L 156.867188 23.714844 C 156.886719 23.703125 156.902344 23.691406 156.921875 23.679688 C 156.929688 23.675781 156.9375 23.671875 156.941406 23.667969 L 157.265625 23.472656 C 157.28125 23.460938 157.300781 23.449219 157.320312 23.441406 C 158.355469 22.855469 159.523438 22.546875 160.703125 22.546875 L 185.082031 22.546875 C 188.875 22.546875 191.960938 25.628906 191.960938 29.417969 L 191.960938 187.164062 C 191.960938 189.5 190.789062 191.648438 188.824219 192.921875 C 188.804688 192.9375 188.785156 192.953125 188.761719 192.96875 L 175.253906 201.152344 C 175.25 201.152344 175.246094 201.15625 175.238281 201.160156 C 174.085938 201.953125 172.738281 202.375 171.339844 202.375 L 153.238281 202.375 C 151.136719 202.375 149.175781 201.4375 147.863281 199.796875 L 85.023438 121.363281 L 85.023438 187.238281 C 85.023438 189.691406 83.703125 191.964844 81.574219 193.1875 C 81.558594 193.199219 81.546875 193.207031 81.53125 193.214844 L 68.121094 201.355469 C 68.105469 201.367188 68.089844 201.375 68.070312 201.382812 C 66.96875 202.078125 65.703125 202.445312 64.398438 202.445312 Z M 36.582031 33.316406 C 35.191406 34.390625 34.394531 36.011719 34.394531 37.757812 L 34.394531 195.578125 C 34.394531 198.675781 36.917969 201.199219 40.023438 201.199219 L 64.398438 201.199219 C 65.484375 201.199219 66.539062 200.886719 67.453125 200.292969 C 67.476562 200.277344 67.503906 200.265625 67.53125 200.253906 L 80.824219 192.183594 C 80.847656 192.167969 80.871094 192.152344 80.894531 192.136719 C 82.667969 191.140625 83.769531 189.261719 83.769531 187.238281 L 83.769531 119.582031 C 83.769531 119.316406 83.9375 119.078125 84.1875 118.992188 C 84.441406 118.902344 84.71875 118.984375 84.882812 119.191406 L 148.839844 199.019531 C 149.914062 200.359375 151.515625 201.128906 153.238281 201.128906 L 171.339844 201.125 C 172.5 201.125 173.617188 200.773438 174.566406 200.105469 C 174.59375 200.085938 174.625 200.070312 174.652344 200.054688 L 188.058594 191.929688 C 188.070312 191.921875 188.085938 191.914062 188.097656 191.90625 C 189.734375 190.863281 190.710938 189.09375 190.710938 187.164062 L 190.710938 29.417969 C 190.710938 26.320312 188.183594 23.796875 185.082031 23.796875 L 160.703125 23.796875 C 159.726562 23.796875 158.757812 24.058594 157.902344 24.546875 C 157.894531 24.550781 157.886719 24.554688 157.878906 24.558594 L 157.605469 24.730469 C 157.585938 24.738281 157.570312 24.75 157.554688 24.757812 C 157.546875 24.765625 157.539062 24.769531 157.53125 24.773438 L 144.878906 32.527344 C 144.851562 32.542969 144.820312 32.558594 144.792969 32.570312 C 144.265625 32.789062 143.777344 33.089844 143.332031 33.464844 C 143.332031 33.464844 143.332031 33.46875 143.328125 33.46875 C 142.0625 34.539062 141.332031 36.105469 141.332031 37.757812 L 141.332031 105.414062 C 141.332031 105.679688 141.164062 105.917969 140.914062 106.003906 C 140.664062 106.09375 140.386719 106.011719 140.21875 105.804688 L 76.207031 25.90625 C 75.132812 24.566406 73.53125 23.796875 71.808594 23.796875 L 53.761719 23.796875 C 52.632812 23.796875 51.542969 24.132812 50.609375 24.761719 C 50.601562 24.765625 50.59375 24.773438 50.585938 24.777344 L 37.691406 32.644531 C 37.671875 32.65625 37.652344 32.664062 37.632812 32.675781 C 37.261719 32.847656 36.910156 33.0625 36.589844 33.3125 C 36.585938 33.3125 36.585938 33.3125 36.582031 33.316406 Z M 36.582031 33.316406 " fill-opacity="1" fill-rule="nonzero"/></g><g clip-path="url(#5f73e02ca3)"><path fill="#ffffff" d="M 33.765625 195.578125 L 33.765625 37.757812 C 33.765625 34.308594 36.566406 31.511719 40.023438 31.511719 L 58.070312 31.511719 C 59.96875 31.511719 61.765625 32.375 62.953125 33.855469 L 140.707031 130.90625 L 140.707031 37.757812 C 140.707031 34.308594 143.507812 31.511719 146.960938 31.511719 L 171.339844 31.511719 C 174.792969 31.511719 177.59375 34.308594 177.59375 37.757812 L 177.59375 195.503906 C 177.59375 198.953125 174.792969 201.75 171.339844 201.75 L 153.238281 201.753906 C 151.335938 201.753906 149.539062 200.890625 148.351562 199.410156 L 70.65625 102.429688 L 70.65625 195.578125 C 70.65625 199.027344 67.855469 201.824219 64.398438 201.824219 L 40.023438 201.824219 C 36.566406 201.824219 33.765625 199.027344 33.765625 195.578125 Z M 33.765625 195.578125 " fill-opacity="1" fill-rule="nonzero"/></g><g clip-path="url(#53d05bb95d)"><path fill="#000000" d="M 64.398438 202.445312 L 40.023438 202.445312 C 36.226562 202.445312 33.140625 199.367188 33.140625 195.578125 L 33.140625 37.757812 C 33.140625 33.96875 36.226562 30.886719 40.023438 30.886719 L 58.070312 30.886719 C 60.171875 30.886719 62.128906 31.828125 63.441406 33.464844 L 140.082031 129.125 L 140.082031 37.757812 C 140.082031 33.96875 143.167969 30.886719 146.960938 30.886719 L 171.339844 30.886719 C 175.132812 30.886719 178.21875 33.96875 178.21875 37.757812 L 178.21875 195.503906 C 178.21875 199.292969 175.132812 202.375 171.339844 202.375 L 153.238281 202.375 C 151.136719 202.375 149.175781 201.4375 147.863281 199.796875 L 71.28125 104.210938 L 71.28125 195.578125 C 71.28125 199.367188 68.195312 202.445312 64.398438 202.445312 Z M 58.070312 32.136719 L 40.023438 32.136719 C 36.917969 32.136719 34.394531 34.65625 34.394531 37.757812 L 34.394531 195.578125 C 34.394531 198.675781 36.917969 201.199219 40.023438 201.199219 L 64.398438 201.199219 C 67.503906 201.199219 70.027344 198.675781 70.027344 195.578125 L 70.027344 102.429688 C 70.027344 102.164062 70.195312 101.929688 70.449219 101.839844 C 70.699219 101.753906 70.976562 101.832031 71.144531 102.039062 L 148.839844 199.019531 C 149.914062 200.359375 151.515625 201.128906 153.238281 201.128906 L 171.339844 201.125 C 174.445312 201.125 176.96875 198.605469 176.96875 195.503906 L 176.96875 37.757812 C 176.96875 34.65625 174.445312 32.136719 171.339844 32.136719 L 146.960938 32.136719 C 143.859375 32.136719 141.332031 34.65625 141.332031 37.757812 L 141.332031 130.90625 C 141.332031 131.171875 141.164062 131.40625 140.914062 131.496094 C 140.664062 131.582031 140.386719 131.503906 140.21875 131.296875 L 62.464844 34.246094 C 61.390625 32.90625 59.789062 32.136719 58.070312 32.136719 Z M 58.070312 32.136719 " fill-opacity="1" fill-rule="nonzero"/></g><path fill="#c2b092" d="M 71.808594 23.171875 L 53.761719 23.171875 C 52.464844 23.171875 51.257812 23.570312 50.257812 24.246094 L 37.367188 32.109375 C 38.171875 31.730469 39.070312 31.511719 40.023438 31.511719 L 58.070312 31.511719 C 58.980469 31.511719 59.867188 31.714844 60.675781 32.085938 L 74.375 23.730469 C 73.578125 23.371094 72.707031 23.171875 71.808594 23.171875 Z M 71.808594 23.171875 " fill-opacity="1" fill-rule="nonzero"/><g clip-path="url(#eefadd4472)"><path fill="#000000" d="M 37.367188 32.734375 C 37.140625 32.734375 36.925781 32.613281 36.816406 32.40625 C 36.65625 32.113281 36.753906 31.75 37.039062 31.578125 L 49.921875 23.71875 C 51.058594 22.953125 52.386719 22.546875 53.761719 22.546875 L 71.808594 22.546875 C 72.78125 22.546875 73.730469 22.753906 74.632812 23.160156 C 74.84375 23.253906 74.984375 23.457031 75 23.691406 C 75.015625 23.921875 74.898438 24.140625 74.699219 24.261719 L 61 32.617188 C 60.824219 32.726562 60.605469 32.738281 60.414062 32.652344 C 59.667969 32.308594 58.875 32.136719 58.070312 32.136719 L 40.023438 32.136719 C 39.195312 32.136719 38.390625 32.316406 37.632812 32.675781 C 37.546875 32.714844 37.453125 32.734375 37.367188 32.734375 Z M 58.070312 30.886719 C 58.945312 30.886719 59.804688 31.054688 60.625 31.382812 L 72.890625 23.902344 C 72.535156 23.832031 72.171875 23.796875 71.808594 23.796875 L 53.761719 23.796875 C 52.632812 23.796875 51.542969 24.132812 50.609375 24.761719 C 50.601562 24.765625 50.59375 24.773438 50.585938 24.777344 L 40.570312 30.886719 Z M 58.070312 30.886719 " fill-opacity="1" fill-rule="nonzero"/></g><path fill="#c2b092" d="M 76.695312 25.515625 C 76.066406 24.734375 75.269531 24.128906 74.375 23.730469 L 60.675781 32.085938 C 61.550781 32.488281 62.335938 33.085938 62.953125 33.855469 L 140.707031 130.90625 L 140.707031 105.414062 Z M 76.695312 25.515625 " fill-opacity="1" fill-rule="nonzero"/><path fill="#000000" d="M 140.707031 131.53125 C 140.519531 131.53125 140.339844 131.445312 140.21875 131.296875 L 62.464844 34.246094 C 61.921875 33.570312 61.214844 33.019531 60.414062 32.652344 C 60.203125 32.558594 60.066406 32.351562 60.050781 32.121094 C 60.039062 31.890625 60.152344 31.671875 60.347656 31.550781 L 74.050781 23.195312 C 74.226562 23.089844 74.441406 23.074219 74.632812 23.160156 C 75.628906 23.609375 76.511719 24.289062 77.183594 25.125 L 141.195312 105.023438 C 141.285156 105.136719 141.332031 105.273438 141.332031 105.414062 L 141.332031 130.90625 C 141.332031 131.171875 141.164062 131.40625 140.914062 131.496094 C 140.847656 131.519531 140.777344 131.53125 140.707031 131.53125 Z M 61.910156 32.0625 C 62.492188 32.453125 63.007812 32.925781 63.441406 33.464844 L 140.082031 129.125 L 140.082031 105.632812 L 76.207031 25.90625 C 75.722656 25.304688 75.109375 24.800781 74.410156 24.441406 Z M 61.910156 32.0625 " fill-opacity="1" fill-rule="nonzero"/><path fill="#c2b092" d="M 70.65625 195.578125 C 70.65625 197.777344 69.511719 199.707031 67.792969 200.820312 L 67.792969 200.824219 L 81.207031 192.683594 L 81.203125 192.679688 C 83.105469 191.609375 84.394531 189.574219 84.394531 187.238281 L 84.394531 119.582031 L 70.65625 102.429688 Z M 70.65625 195.578125 " fill-opacity="1" fill-rule="nonzero"/><path fill="#000000" d="M 67.792969 201.449219 C 67.726562 201.449219 67.660156 201.4375 67.59375 201.414062 C 67.417969 201.355469 67.277344 201.21875 67.210938 201.046875 C 67.105469 200.769531 67.207031 200.457031 67.453125 200.296875 C 69.066406 199.25 70.027344 197.488281 70.027344 195.578125 L 70.027344 102.429688 C 70.027344 102.164062 70.195312 101.929688 70.449219 101.839844 C 70.699219 101.753906 70.976562 101.832031 71.144531 102.039062 L 84.882812 119.191406 C 84.972656 119.300781 85.019531 119.4375 85.019531 119.582031 L 85.019531 187.238281 C 85.019531 189.6875 83.703125 191.960938 81.574219 193.1875 C 81.558594 193.199219 81.546875 193.207031 81.53125 193.214844 L 68.121094 201.355469 C 68.019531 201.417969 67.90625 201.449219 67.792969 201.449219 Z M 71.28125 104.210938 L 71.28125 195.578125 C 71.28125 196.539062 71.082031 197.472656 70.707031 198.324219 L 80.824219 192.183594 C 80.847656 192.167969 80.871094 192.152344 80.894531 192.136719 C 82.667969 191.140625 83.769531 189.261719 83.769531 187.238281 L 83.769531 119.800781 Z M 71.28125 104.210938 " fill-opacity="1" fill-rule="nonzero"/><path fill="#c2b092" d="M 188.929688 24.503906 L 175.222656 32.867188 C 176.664062 34.011719 177.59375 35.773438 177.59375 37.757812 L 177.59375 195.503906 C 177.59375 197.621094 176.539062 199.484375 174.925781 200.617188 L 174.929688 200.617188 L 188.4375 192.433594 L 188.433594 192.429688 C 190.175781 191.324219 191.335938 189.382812 191.335938 187.164062 L 191.335938 29.417969 C 191.335938 27.421875 190.394531 25.648438 188.929688 24.503906 Z M 188.929688 24.503906 " fill-opacity="1" fill-rule="nonzero"/><path fill="#000000" d="M 174.929688 201.242188 C 174.769531 201.242188 174.609375 201.179688 174.488281 201.058594 C 174.355469 200.929688 174.289062 200.746094 174.304688 200.5625 C 174.320312 200.378906 174.417969 200.210938 174.566406 200.105469 C 176.070312 199.050781 176.96875 197.332031 176.96875 195.503906 L 176.96875 37.757812 C 176.96875 36.035156 176.191406 34.429688 174.832031 33.355469 C 174.671875 33.230469 174.585938 33.03125 174.597656 32.828125 C 174.609375 32.625 174.722656 32.441406 174.894531 32.332031 L 188.605469 23.96875 C 188.828125 23.835938 189.113281 23.851562 189.316406 24.011719 C 190.996094 25.324219 191.960938 27.296875 191.960938 29.417969 L 191.960938 187.164062 C 191.960938 189.5 190.789062 191.648438 188.824219 192.921875 C 188.804688 192.9375 188.785156 192.953125 188.761719 192.96875 L 175.253906 201.152344 C 175.152344 201.210938 175.042969 201.242188 174.929688 201.242188 Z M 176.261719 32.964844 C 177.515625 34.242188 178.21875 35.945312 178.21875 37.757812 L 178.21875 195.503906 C 178.21875 196.457031 178.019531 197.386719 177.648438 198.238281 L 188.058594 191.929688 C 188.070312 191.921875 188.085938 191.914062 188.097656 191.90625 C 189.734375 190.863281 190.710938 189.09375 190.710938 187.164062 L 190.710938 29.417969 C 190.710938 27.824219 190.046875 26.335938 188.871094 25.269531 Z M 176.261719 32.964844 " fill-opacity="1" fill-rule="nonzero"/><path fill="#c2b092" d="M 185.082031 23.171875 L 160.703125 23.171875 C 159.570312 23.171875 158.507812 23.480469 157.589844 24.003906 L 157.269531 24.199219 C 157.25 24.214844 157.222656 24.226562 157.203125 24.242188 L 144.550781 31.996094 C 145.292969 31.683594 146.105469 31.511719 146.960938 31.511719 L 171.339844 31.511719 C 172.808594 31.511719 174.152344 32.019531 175.222656 32.867188 L 188.929688 24.503906 C 187.867188 23.671875 186.535156 23.171875 185.082031 23.171875 Z M 185.082031 23.171875 " fill-opacity="1" fill-rule="nonzero"/><g clip-path="url(#a00a427b8f)"><path fill="#000000" d="M 175.222656 33.492188 C 175.082031 33.492188 174.945312 33.445312 174.832031 33.355469 C 173.828125 32.558594 172.617188 32.136719 171.339844 32.136719 L 146.960938 32.136719 C 146.210938 32.136719 145.480469 32.28125 144.792969 32.570312 C 144.488281 32.695312 144.140625 32.570312 143.992188 32.277344 C 143.84375 31.988281 143.945312 31.632812 144.222656 31.460938 L 156.867188 23.714844 C 156.886719 23.703125 156.902344 23.691406 156.921875 23.679688 C 156.929688 23.675781 156.9375 23.671875 156.941406 23.667969 L 157.265625 23.472656 C 157.28125 23.460938 157.300781 23.449219 157.320312 23.441406 C 158.355469 22.855469 159.523438 22.546875 160.703125 22.546875 L 185.082031 22.546875 C 186.628906 22.546875 188.09375 23.054688 189.316406 24.011719 C 189.476562 24.136719 189.566406 24.335938 189.554688 24.539062 C 189.542969 24.742188 189.433594 24.929688 189.257812 25.035156 L 175.546875 33.398438 C 175.445312 33.460938 175.332031 33.492188 175.222656 33.492188 Z M 147.550781 30.886719 L 171.339844 30.886719 C 172.757812 30.886719 174.101562 31.308594 175.253906 32.113281 L 187.765625 24.480469 C 186.945312 24.03125 186.03125 23.796875 185.082031 23.796875 L 160.703125 23.796875 C 159.726562 23.796875 158.757812 24.058594 157.902344 24.546875 C 157.894531 24.550781 157.886719 24.554688 157.878906 24.558594 L 157.605469 24.730469 C 157.585938 24.738281 157.570312 24.75 157.554688 24.757812 C 157.546875 24.765625 157.539062 24.769531 157.53125 24.773438 Z M 147.550781 30.886719 " fill-opacity="1" fill-rule="nonzero"/></g></svg>