<svg xmlns="http://www.w3.org/2000/svg" xmlns:xlink="http://www.w3.org/1999/xlink" width="200" zoomAndPan="magnify" viewBox="0 0 150 112.499997" height="150" preserveAspectRatio="xMidYMid meet" version="1.0"><defs><clipPath id="213afc0cce"><path d="M 20 3 L 124 3 L 124 104 L 20 104 Z M 20 3 " clip-rule="nonzero"/></clipPath><clipPath id="cc9660003d"><path d="M 0.332031 38.160156 L 90.457031 -14.804688 L 140.773438 70.8125 L 50.648438 123.777344 Z M 0.332031 38.160156 " clip-rule="nonzero"/></clipPath><clipPath id="09746ee470"><path d="M 0.332031 38.160156 L 90.457031 -14.804688 L 140.773438 70.8125 L 50.648438 123.777344 Z M 0.332031 38.160156 " clip-rule="nonzero"/></clipPath><clipPath id="d3e52eada6"><path d="M 0.335938 38.160156 L 90.636719 -14.910156 L 141.039062 70.847656 L 50.738281 123.917969 Z M 0.335938 38.160156 " clip-rule="nonzero"/></clipPath><clipPath id="6a0010fd45"><path d="M 0.335938 38.160156 L 90.460938 -14.808594 L 140.773438 70.800781 L 50.648438 123.769531 Z M 0.335938 38.160156 " clip-rule="nonzero"/></clipPath></defs><g clip-path="url(#213afc0cce)"><g clip-path="url(#cc9660003d)"><g clip-path="url(#09746ee470)"><g clip-path="url(#d3e52eada6)"><g clip-path="url(#6a0010fd45)"><path fill="#486cbd" d="M 104.945312 13.359375 C 101.792969 10.304688 98.214844 7.761719 94.160156 6.011719 C 83.035156 1.214844 70.160156 3.113281 58.527344 6.566406 C 53.121094 8.167969 47.761719 10.109375 42.988281 13.109375 C 34.085938 18.707031 27.683594 27.792969 24.226562 37.710938 C 20.210938 49.253906 18.835938 63.457031 22.949219 75.09375 C 27.035156 86.648438 36.003906 96.144531 47.546875 100.441406 C 57.019531 103.96875 67.484375 104.292969 77.472656 102.660156 C 91.035156 100.449219 104.382812 94.363281 113.082031 83.730469 C 119.234375 76.210938 122.804688 66.625 123.066406 56.933594 C 123.320312 47.46875 120.503906 38.128906 116.335938 29.632812 C 113.421875 23.691406 109.667969 17.949219 104.945312 13.359375 " fill-opacity="1" fill-rule="nonzero"/></g></g></g></g></g></svg>