<svg xmlns="http://www.w3.org/2000/svg" xmlns:xlink="http://www.w3.org/1999/xlink" width="128" zoomAndPan="magnify" viewBox="0 0 96 95.999999" height="128" preserveAspectRatio="xMidYMid meet" version="1.0"><defs><clipPath id="535aba89a3"><path d="M 9.601562 30 L 86.101562 30 L 86.101562 77.898438 L 9.601562 77.898438 Z M 9.601562 30 " clip-rule="nonzero"/></clipPath><clipPath id="0cd9dffa32"><path d="M 28 53 L 55 53 L 55 77.898438 L 28 77.898438 Z M 28 53 " clip-rule="nonzero"/></clipPath><clipPath id="8827aa0b9c"><path d="M 39 17.898438 L 64 17.898438 L 64 77.898438 L 39 77.898438 Z M 39 17.898438 " clip-rule="nonzero"/></clipPath><clipPath id="36d2b1663c"><path d="M 33 43 L 69 43 L 69 77.898438 L 33 77.898438 Z M 33 43 " clip-rule="nonzero"/></clipPath></defs><g clip-path="url(#535aba89a3)"><path fill="#226f54" d="M 86.773438 112.300781 C 86.773438 112.300781 56.894531 113.984375 48.226562 107.152344 C 38.066406 114.042969 9.679688 112.300781 9.679688 112.300781 C 9.679688 112.300781 22.039062 95.328125 23.28125 92.109375 L 23.207031 92.109375 C 22.242188 92.894531 18.898438 95.351562 14.996094 95.351562 L 17.480469 92.109375 L 17.449219 92.109375 C 17.449219 92.109375 29.808594 75.136719 31.050781 71.917969 L 30.984375 71.917969 C 30.152344 72.609375 26.714844 75.234375 22.6875 75.234375 L 25.226562 71.917969 L 25.222656 71.917969 C 25.222656 71.917969 37.582031 54.949219 38.824219 51.730469 C 38.824219 51.730469 34.96875 55.207031 30.328125 55.207031 L 32.996094 51.730469 L 48.183594 30.882812 L 48.183594 30.765625 L 48.226562 30.824219 L 48.265625 30.765625 L 48.265625 30.882812 L 63.453125 51.730469 L 66.121094 55.207031 C 61.484375 55.207031 57.628906 51.730469 57.628906 51.730469 C 58.867188 54.949219 71.226562 71.917969 71.226562 71.917969 L 71.222656 71.917969 L 73.765625 75.234375 C 69.730469 75.234375 66.292969 72.609375 65.464844 71.917969 L 65.398438 71.917969 C 66.640625 75.136719 79 92.109375 79 92.109375 L 78.96875 92.109375 L 81.453125 95.351562 C 77.554688 95.351562 74.207031 92.894531 73.242188 92.109375 L 73.171875 92.109375 C 74.414062 95.328125 86.773438 112.300781 86.773438 112.300781 Z M 86.773438 112.300781 " fill-opacity="1" fill-rule="nonzero"/></g><g clip-path="url(#0cd9dffa32)"><path fill="#da2c38" d="M 51.007812 80.445312 C 51.007812 81.65625 50.035156 82.632812 48.832031 82.632812 C 47.625 82.632812 46.652344 81.65625 46.652344 80.445312 C 46.652344 79.238281 47.625 78.261719 48.832031 78.261719 C 50.03125 78.261719 51.007812 79.242188 51.007812 80.445312 Z M 52.367188 53.992188 C 51.160156 53.992188 50.1875 54.96875 50.1875 56.175781 C 50.1875 57.382812 51.160156 58.363281 52.367188 58.363281 C 53.570312 58.363281 54.542969 57.382812 54.542969 56.175781 C 54.542969 54.96875 53.570312 53.992188 52.367188 53.992188 Z M 30.347656 98.621094 C 29.144531 98.621094 28.171875 99.597656 28.171875 100.804688 C 28.171875 102.011719 29.144531 102.992188 30.347656 102.992188 C 31.550781 102.992188 32.527344 102.011719 32.527344 100.804688 C 32.527344 99.597656 31.550781 98.621094 30.347656 98.621094 Z M 30.347656 98.621094 " fill-opacity="1" fill-rule="nonzero"/></g><g clip-path="url(#8827aa0b9c)"><path fill="#f9c932" d="M 54.671875 22.214844 L 51.171875 25.769531 L 52.703125 30.230469 L 48.214844 28.121094 L 43.722656 30.230469 L 45.253906 25.769531 L 41.753906 22.214844 L 46.375 22.214844 L 48.214844 17.898438 L 50.050781 22.214844 Z M 56.183594 25.953125 C 55.636719 25.953125 55.195312 26.398438 55.195312 26.945312 C 55.195312 27.492188 55.636719 27.9375 56.183594 27.9375 C 56.730469 27.9375 57.171875 27.492188 57.171875 26.945312 C 57.171875 26.398438 56.730469 25.953125 56.183594 25.953125 Z M 52.96875 19.882812 C 53.515625 19.882812 53.957031 19.4375 53.957031 18.890625 C 53.957031 18.34375 53.515625 17.898438 52.96875 17.898438 C 52.421875 17.898438 51.980469 18.34375 51.980469 18.890625 C 51.980469 19.4375 52.425781 19.882812 52.96875 19.882812 Z M 43.460938 19.882812 C 44.007812 19.882812 44.449219 19.4375 44.449219 18.890625 C 44.449219 18.34375 44.003906 17.898438 43.460938 17.898438 C 42.917969 17.898438 42.472656 18.34375 42.472656 18.890625 C 42.472656 19.4375 42.914062 19.882812 43.460938 19.882812 Z M 41.234375 26.945312 C 41.234375 26.398438 40.789062 25.953125 40.242188 25.953125 C 39.699219 25.953125 39.253906 26.398438 39.253906 26.945312 C 39.253906 27.492188 39.699219 27.9375 40.242188 27.9375 C 40.789062 27.9375 41.234375 27.492188 41.234375 26.945312 Z M 45.8125 92.832031 C 44.609375 92.832031 43.636719 93.8125 43.636719 95.019531 C 43.636719 96.226562 44.609375 97.207031 45.8125 97.207031 C 47.015625 97.207031 47.992188 96.226562 47.992188 95.019531 C 47.992188 93.8125 47.015625 92.832031 45.8125 92.832031 Z M 44.601562 66.101562 C 44.601562 64.894531 43.625 63.914062 42.421875 63.914062 C 41.21875 63.914062 40.242188 64.894531 40.242188 66.101562 C 40.242188 67.308594 41.21875 68.285156 42.421875 68.285156 C 43.625 68.285156 44.601562 67.304688 44.601562 66.101562 Z M 60.878906 86.261719 C 59.675781 86.261719 58.699219 87.238281 58.699219 88.445312 C 58.699219 89.652344 59.675781 90.632812 60.878906 90.632812 C 62.082031 90.632812 63.054688 89.652344 63.054688 88.445312 C 63.054688 87.238281 62.082031 86.261719 60.878906 86.261719 Z M 60.878906 86.261719 " fill-opacity="1" fill-rule="nonzero"/></g><g clip-path="url(#36d2b1663c)"><path fill="#ffffff" d="M 56.929688 71.816406 C 56.683594 71.835938 56.4375 71.847656 56.191406 71.859375 C 56.359375 72.039062 56.523438 72.222656 56.683594 72.410156 C 56.960938 72.738281 57.226562 73.078125 57.460938 73.449219 C 57.089844 73.21875 56.75 72.949219 56.421875 72.671875 C 56.238281 72.511719 56.050781 72.347656 55.871094 72.179688 C 55.863281 72.425781 55.851562 72.671875 55.832031 72.917969 C 55.796875 73.347656 55.746094 73.777344 55.648438 74.207031 C 55.546875 73.777344 55.5 73.347656 55.464844 72.917969 C 55.445312 72.671875 55.429688 72.425781 55.421875 72.179688 C 55.242188 72.347656 55.0625 72.511719 54.871094 72.671875 C 54.546875 72.949219 54.207031 73.21875 53.835938 73.449219 C 54.066406 73.078125 54.335938 72.738281 54.613281 72.410156 C 54.773438 72.222656 54.9375 72.039062 55.105469 71.859375 C 54.859375 71.847656 54.613281 71.835938 54.367188 71.816406 C 53.9375 71.78125 53.511719 71.734375 53.085938 71.632812 C 53.511719 71.53125 53.9375 71.484375 54.367188 71.449219 C 54.613281 71.429688 54.859375 71.414062 55.105469 71.40625 C 54.9375 71.226562 54.773438 71.042969 54.613281 70.855469 C 54.335938 70.527344 54.066406 70.1875 53.835938 69.816406 C 54.207031 70.046875 54.546875 70.316406 54.871094 70.59375 C 55.058594 70.753906 55.242188 70.917969 55.421875 71.085938 C 55.433594 70.839844 55.445312 70.59375 55.464844 70.347656 C 55.5 69.917969 55.546875 69.488281 55.648438 69.058594 C 55.746094 69.488281 55.796875 69.917969 55.832031 70.347656 C 55.851562 70.59375 55.867188 70.839844 55.875 71.085938 C 56.054688 70.917969 56.238281 70.753906 56.425781 70.59375 C 56.753906 70.316406 57.089844 70.046875 57.460938 69.816406 C 57.230469 70.1875 56.960938 70.527344 56.6875 70.855469 C 56.523438 71.042969 56.363281 71.226562 56.195312 71.40625 C 56.441406 71.417969 56.6875 71.429688 56.933594 71.449219 C 57.359375 71.484375 57.785156 71.535156 58.214844 71.636719 C 57.785156 71.730469 57.359375 71.78125 56.929688 71.816406 Z M 49.71875 46.234375 C 49.289062 46.136719 48.863281 46.085938 48.433594 46.050781 C 48.191406 46.03125 47.945312 46.019531 47.699219 46.007812 C 47.867188 45.828125 48.03125 45.644531 48.191406 45.457031 C 48.464844 45.128906 48.734375 44.789062 48.964844 44.414062 C 48.59375 44.648438 48.253906 44.917969 47.929688 45.195312 C 47.742188 45.355469 47.558594 45.519531 47.378906 45.6875 C 47.367188 45.441406 47.355469 45.195312 47.335938 44.949219 C 47.300781 44.519531 47.25 44.089844 47.152344 43.660156 C 47.054688 44.089844 47.003906 44.519531 46.96875 44.949219 C 46.949219 45.195312 46.933594 45.441406 46.925781 45.6875 C 46.746094 45.519531 46.566406 45.351562 46.375 45.195312 C 46.050781 44.917969 45.710938 44.648438 45.339844 44.414062 C 45.570312 44.789062 45.839844 45.128906 46.117188 45.457031 C 46.277344 45.644531 46.441406 45.828125 46.609375 46.007812 C 46.363281 46.019531 46.117188 46.03125 45.871094 46.046875 C 45.441406 46.085938 45.015625 46.132812 44.589844 46.234375 C 45.015625 46.332031 45.441406 46.382812 45.871094 46.417969 C 46.117188 46.4375 46.363281 46.453125 46.609375 46.460938 C 46.441406 46.640625 46.277344 46.820312 46.117188 47.011719 C 45.839844 47.339844 45.570312 47.679688 45.339844 48.050781 C 45.710938 47.820312 46.050781 47.550781 46.375 47.273438 C 46.5625 47.113281 46.746094 46.949219 46.925781 46.78125 C 46.9375 47.027344 46.949219 47.273438 46.96875 47.519531 C 47.003906 47.949219 47.050781 48.375 47.152344 48.804688 C 47.25 48.375 47.300781 47.949219 47.335938 47.519531 C 47.355469 47.273438 47.367188 47.027344 47.375 46.78125 C 47.554688 46.949219 47.738281 47.113281 47.925781 47.273438 C 48.253906 47.550781 48.589844 47.820312 48.960938 48.050781 C 48.730469 47.679688 48.464844 47.339844 48.1875 47.011719 C 48.027344 46.824219 47.863281 46.640625 47.695312 46.460938 C 47.941406 46.449219 48.1875 46.4375 48.433594 46.417969 C 48.863281 46.386719 49.292969 46.335938 49.71875 46.234375 Z M 66.164062 101.03125 C 66.410156 101.023438 66.65625 101.011719 66.902344 100.992188 C 67.328125 100.953125 67.753906 100.90625 68.183594 100.804688 C 67.753906 100.707031 67.328125 100.65625 66.902344 100.621094 C 66.65625 100.601562 66.410156 100.585938 66.164062 100.578125 C 66.332031 100.398438 66.496094 100.210938 66.65625 100.023438 C 66.933594 99.695312 67.199219 99.359375 67.429688 98.984375 C 67.058594 99.21875 66.722656 99.484375 66.394531 99.761719 C 66.207031 99.925781 66.023438 100.089844 65.84375 100.257812 C 65.835938 100.011719 65.824219 99.761719 65.800781 99.515625 C 65.765625 99.085938 65.714844 98.660156 65.617188 98.230469 C 65.519531 98.660156 65.46875 99.085938 65.433594 99.515625 C 65.414062 99.761719 65.398438 100.011719 65.394531 100.257812 C 65.214844 100.089844 65.03125 99.921875 64.839844 99.761719 C 64.515625 99.484375 64.175781 99.21875 63.804688 98.984375 C 64.039062 99.359375 64.304688 99.695312 64.582031 100.023438 C 64.742188 100.210938 64.90625 100.398438 65.074219 100.578125 C 64.828125 100.585938 64.582031 100.597656 64.335938 100.617188 C 63.90625 100.652344 63.480469 100.703125 63.054688 100.804688 C 63.480469 100.902344 63.90625 100.953125 64.335938 100.988281 C 64.582031 101.007812 64.828125 101.019531 65.074219 101.027344 C 64.90625 101.207031 64.742188 101.390625 64.582031 101.582031 C 64.304688 101.910156 64.039062 102.25 63.804688 102.621094 C 64.175781 102.386719 64.515625 102.121094 64.839844 101.84375 C 65.027344 101.679688 65.214844 101.515625 65.394531 101.347656 C 65.402344 101.59375 65.414062 101.84375 65.433594 102.089844 C 65.46875 102.519531 65.519531 102.945312 65.617188 103.375 C 65.714844 102.945312 65.765625 102.519531 65.800781 102.089844 C 65.820312 101.84375 65.835938 101.59375 65.84375 101.347656 C 66.023438 101.515625 66.203125 101.683594 66.394531 101.84375 C 66.71875 102.121094 67.058594 102.386719 67.429688 102.621094 C 67.195312 102.25 66.929688 101.910156 66.652344 101.582031 C 66.496094 101.394531 66.332031 101.214844 66.164062 101.03125 Z M 38.503906 83.6875 C 38.074219 83.589844 37.648438 83.539062 37.222656 83.503906 C 36.976562 83.484375 36.730469 83.46875 36.484375 83.460938 C 36.652344 83.28125 36.816406 83.09375 36.976562 82.90625 C 37.253906 82.578125 37.519531 82.242188 37.75 81.867188 C 37.378906 82.101562 37.042969 82.367188 36.714844 82.644531 C 36.527344 82.808594 36.34375 82.972656 36.164062 83.140625 C 36.15625 82.894531 36.144531 82.644531 36.121094 82.398438 C 36.085938 81.96875 36.039062 81.542969 35.9375 81.113281 C 35.839844 81.542969 35.789062 81.96875 35.753906 82.398438 C 35.734375 82.644531 35.71875 82.894531 35.714844 83.140625 C 35.535156 82.972656 35.351562 82.804688 35.164062 82.644531 C 34.835938 82.367188 34.496094 82.101562 34.125 81.867188 C 34.359375 82.242188 34.625 82.578125 34.902344 82.90625 C 35.0625 83.09375 35.226562 83.28125 35.394531 83.460938 C 35.148438 83.46875 34.902344 83.480469 34.65625 83.5 C 34.226562 83.535156 33.800781 83.585938 33.375 83.6875 C 33.800781 83.785156 34.226562 83.835938 34.65625 83.871094 C 34.902344 83.890625 35.148438 83.902344 35.394531 83.910156 C 35.226562 84.089844 35.0625 84.273438 34.902344 84.464844 C 34.625 84.792969 34.359375 85.132812 34.125 85.503906 C 34.496094 85.269531 34.835938 85.003906 35.164062 84.726562 C 35.347656 84.5625 35.535156 84.398438 35.714844 84.230469 C 35.722656 84.476562 35.734375 84.726562 35.753906 84.972656 C 35.789062 85.402344 35.839844 85.828125 35.9375 86.257812 C 36.039062 85.828125 36.085938 85.402344 36.121094 84.972656 C 36.140625 84.726562 36.15625 84.476562 36.164062 84.230469 C 36.34375 84.398438 36.523438 84.566406 36.714844 84.726562 C 37.039062 85.003906 37.378906 85.269531 37.75 85.503906 C 37.519531 85.132812 37.25 84.792969 36.972656 84.464844 C 36.8125 84.277344 36.648438 84.089844 36.480469 83.910156 C 36.726562 83.902344 36.972656 83.890625 37.21875 83.867188 C 37.648438 83.835938 38.074219 83.785156 38.503906 83.6875 Z M 38.503906 83.6875 " fill-opacity="1" fill-rule="nonzero"/></g></svg>