<svg xmlns="http://www.w3.org/2000/svg" xmlns:xlink="http://www.w3.org/1999/xlink" width="100" zoomAndPan="magnify" viewBox="0 0 75 74.999997" height="100" preserveAspectRatio="xMidYMid meet" version="1.0"><defs><clipPath id="2fd1205b1d"><path d="M 14.375 7.5 L 60.875 7.5 L 60.875 67.5 L 14.375 67.5 Z M 14.375 7.5 " clip-rule="nonzero"/></clipPath><clipPath id="428ed989b2"><path d="M 14.375 10 L 57 10 L 57 67.5 L 14.375 67.5 Z M 14.375 10 " clip-rule="nonzero"/></clipPath><clipPath id="1fade26fc8"><path d="M 25 44 L 32 44 L 32 67.5 L 25 67.5 Z M 25 44 " clip-rule="nonzero"/></clipPath><clipPath id="6ff44d9402"><path d="M 15 7.5 L 60 7.5 L 60 12 L 15 12 Z M 15 7.5 " clip-rule="nonzero"/></clipPath><clipPath id="277bf93086"><path d="M 15 7.5 L 60.875 7.5 L 60.875 12 L 15 12 Z M 15 7.5 " clip-rule="nonzero"/></clipPath><clipPath id="af29c4e353"><path d="M 55 8 L 60.875 8 L 60.875 23 L 55 23 Z M 55 8 " clip-rule="nonzero"/></clipPath></defs><g clip-path="url(#2fd1205b1d)"><path fill="#000000" d="M 58.554688 7.707031 L 21.296875 7.707031 C 20.925781 7.707031 20.578125 7.804688 20.273438 7.972656 L 20.246094 7.992188 C 20.203125 8.015625 20.160156 8.039062 20.121094 8.066406 L 15.886719 10.652344 C 15.6875 10.734375 15.503906 10.84375 15.34375 10.980469 C 14.890625 11.363281 14.601562 11.933594 14.601562 12.574219 L 14.601562 65.207031 C 14.601562 66.355469 15.539062 67.289062 16.695312 67.289062 L 24.859375 67.289062 C 25.300781 67.289062 25.714844 67.152344 26.054688 66.917969 L 30.585938 64.179688 C 31.167969 63.808594 31.554688 63.164062 31.554688 62.425781 L 31.554688 45.03125 L 51.714844 45.03125 C 52.222656 45.03125 52.6875 44.851562 53.050781 44.554688 L 57.316406 42 C 57.96875 41.648438 58.414062 40.960938 58.414062 40.167969 L 58.414062 32.050781 C 58.414062 30.898438 57.476562 29.964844 56.316406 29.964844 L 31.554688 29.964844 L 31.554688 22.773438 L 53.953125 22.773438 C 54.492188 22.773438 54.980469 22.570312 55.347656 22.242188 L 59.675781 19.667969 C 60.261719 19.296875 60.652344 18.648438 60.652344 17.910156 L 60.652344 9.792969 C 60.652344 8.640625 59.714844 7.707031 58.554688 7.707031 Z M 58.554688 7.707031 " fill-opacity="1" fill-rule="nonzero"/><path fill="#000000" d="M 24.859375 67.5 L 16.695312 67.5 C 15.425781 67.5 14.390625 66.46875 14.390625 65.207031 L 14.390625 12.574219 C 14.390625 11.898438 14.6875 11.257812 15.207031 10.824219 C 15.386719 10.675781 15.582031 10.554688 15.789062 10.464844 L 20.007812 7.894531 C 20.050781 7.863281 20.097656 7.835938 20.140625 7.8125 L 20.164062 7.796875 C 20.171875 7.792969 20.175781 7.789062 20.179688 7.789062 C 20.523438 7.597656 20.90625 7.5 21.296875 7.5 L 58.554688 7.5 C 59.828125 7.5 60.859375 8.527344 60.859375 9.792969 L 60.859375 17.910156 C 60.859375 18.6875 60.46875 19.402344 59.8125 19.828125 C 59.804688 19.835938 59.792969 19.84375 59.785156 19.847656 L 55.472656 22.410156 C 55.050781 22.777344 54.511719 22.980469 53.953125 22.980469 L 31.761719 22.980469 L 31.761719 29.757812 L 56.316406 29.757812 C 57.589844 29.757812 58.621094 30.785156 58.621094 32.050781 L 58.621094 40.167969 C 58.621094 41.007812 58.160156 41.777344 57.417969 42.179688 L 53.171875 44.726562 C 52.761719 45.058594 52.246094 45.238281 51.714844 45.238281 L 31.761719 45.238281 L 31.761719 62.425781 C 31.761719 63.207031 31.367188 63.925781 30.707031 64.351562 C 30.703125 64.351562 30.699219 64.355469 30.695312 64.359375 L 26.164062 67.09375 C 25.777344 67.359375 25.328125 67.5 24.859375 67.5 Z M 20.378906 8.15625 L 20.355469 8.167969 C 20.308594 8.195312 20.273438 8.21875 20.238281 8.238281 C 20.234375 8.242188 20.230469 8.242188 20.230469 8.246094 L 15.996094 10.828125 C 15.988281 10.832031 15.976562 10.839844 15.96875 10.84375 C 15.792969 10.914062 15.628906 11.015625 15.480469 11.140625 C 15.054688 11.5 14.808594 12.019531 14.808594 12.574219 L 14.808594 65.207031 C 14.808594 66.242188 15.65625 67.082031 16.695312 67.082031 L 24.859375 67.082031 C 25.242188 67.082031 25.617188 66.964844 25.933594 66.746094 C 25.9375 66.742188 25.945312 66.738281 25.953125 66.734375 L 30.46875 64.007812 C 30.46875 64.007812 30.472656 64.003906 30.472656 64.003906 C 31.019531 63.65625 31.34375 63.066406 31.34375 62.425781 L 31.34375 45.03125 C 31.34375 44.917969 31.4375 44.824219 31.554688 44.824219 L 51.714844 44.824219 C 52.15625 44.824219 52.582031 44.671875 52.917969 44.394531 C 52.925781 44.386719 52.933594 44.382812 52.941406 44.375 L 57.207031 41.820312 C 57.210938 41.820312 57.210938 41.820312 57.214844 41.816406 C 57.824219 41.488281 58.203125 40.855469 58.203125 40.167969 L 58.203125 32.050781 C 58.203125 31.015625 57.359375 30.175781 56.316406 30.175781 L 31.554688 30.175781 C 31.4375 30.175781 31.34375 30.082031 31.34375 29.964844 L 31.34375 22.773438 C 31.34375 22.660156 31.4375 22.566406 31.554688 22.566406 L 53.953125 22.566406 C 54.417969 22.566406 54.863281 22.394531 55.210938 22.085938 C 55.21875 22.078125 55.230469 22.070312 55.242188 22.0625 L 59.546875 19.503906 C 59.550781 19.5 59.558594 19.496094 59.5625 19.492188 C 60.113281 19.144531 60.441406 18.554688 60.441406 17.910156 L 60.441406 9.792969 C 60.441406 8.757812 59.597656 7.917969 58.554688 7.917969 L 21.296875 7.917969 C 20.976562 7.917969 20.65625 8 20.378906 8.15625 Z M 20.378906 8.15625 " fill-opacity="1" fill-rule="nonzero"/></g><g clip-path="url(#428ed989b2)"><path fill="#ffffff" d="M 14.601562 65.207031 L 14.601562 12.574219 C 14.601562 11.421875 15.539062 10.488281 16.695312 10.488281 L 53.953125 10.488281 C 55.113281 10.488281 56.050781 11.421875 56.050781 12.574219 L 56.050781 20.691406 C 56.050781 21.839844 55.113281 22.773438 53.953125 22.773438 L 26.953125 22.773438 L 26.953125 32.746094 L 51.714844 32.746094 C 52.875 32.746094 53.8125 33.679688 53.8125 34.832031 L 53.8125 42.949219 C 53.8125 44.097656 52.875 45.03125 51.714844 45.03125 L 26.953125 45.03125 L 26.953125 65.207031 C 26.953125 66.359375 26.015625 67.289062 24.859375 67.289062 L 16.695312 67.289062 C 15.539062 67.289062 14.601562 66.359375 14.601562 65.207031 Z M 14.601562 65.207031 " fill-opacity="1" fill-rule="nonzero"/><path fill="#000000" d="M 24.859375 67.5 L 16.695312 67.5 C 15.425781 67.5 14.390625 66.46875 14.390625 65.207031 L 14.390625 12.574219 C 14.390625 11.308594 15.425781 10.28125 16.695312 10.28125 L 53.953125 10.28125 C 55.226562 10.28125 56.257812 11.308594 56.257812 12.574219 L 56.257812 20.691406 C 56.257812 21.953125 55.226562 22.980469 53.953125 22.980469 L 27.160156 22.980469 L 27.160156 32.539062 L 51.714844 32.539062 C 52.988281 32.539062 54.019531 33.566406 54.019531 34.832031 L 54.019531 42.949219 C 54.019531 44.210938 52.988281 45.238281 51.714844 45.238281 L 27.160156 45.238281 L 27.160156 65.207031 C 27.160156 66.46875 26.128906 67.5 24.859375 67.5 Z M 16.695312 10.699219 C 15.65625 10.699219 14.808594 11.539062 14.808594 12.574219 L 14.808594 65.207031 C 14.808594 66.242188 15.65625 67.082031 16.695312 67.082031 L 24.859375 67.082031 C 25.898438 67.082031 26.742188 66.242188 26.742188 65.207031 L 26.742188 45.03125 C 26.742188 44.917969 26.835938 44.824219 26.953125 44.824219 L 51.714844 44.824219 C 52.757812 44.824219 53.601562 43.984375 53.601562 42.949219 L 53.601562 34.832031 C 53.601562 33.796875 52.757812 32.957031 51.714844 32.957031 L 26.953125 32.957031 C 26.835938 32.957031 26.742188 32.863281 26.742188 32.746094 L 26.742188 22.773438 C 26.742188 22.660156 26.835938 22.566406 26.953125 22.566406 L 53.953125 22.566406 C 54.996094 22.566406 55.839844 21.722656 55.839844 20.691406 L 55.839844 12.574219 C 55.839844 11.539062 54.996094 10.699219 53.953125 10.699219 Z M 16.695312 10.699219 " fill-opacity="1" fill-rule="nonzero"/></g><path fill="#c2b092" d="M 26.953125 65.207031 C 26.953125 65.914062 26.597656 66.539062 26.054688 66.917969 L 30.585938 64.179688 C 31.167969 63.808594 31.554688 63.164062 31.554688 62.425781 L 31.554688 45.03125 L 26.953125 45.03125 Z M 26.953125 65.207031 " fill-opacity="1" fill-rule="nonzero"/><g clip-path="url(#1fade26fc8)"><path fill="#000000" d="M 26.054688 67.125 C 26.035156 67.125 26.015625 67.121094 25.996094 67.117188 C 25.9375 67.101562 25.890625 67.0625 25.867188 67.007812 C 25.820312 66.917969 25.847656 66.804688 25.933594 66.746094 C 26.441406 66.394531 26.742188 65.820312 26.742188 65.207031 L 26.742188 45.03125 C 26.742188 44.917969 26.835938 44.824219 26.953125 44.824219 L 31.554688 44.824219 C 31.667969 44.824219 31.761719 44.917969 31.761719 45.03125 L 31.761719 62.425781 C 31.761719 63.207031 31.367188 63.925781 30.707031 64.351562 C 30.703125 64.351562 30.699219 64.355469 30.695312 64.359375 L 26.160156 67.09375 C 26.128906 67.113281 26.089844 67.125 26.054688 67.125 Z M 27.160156 45.238281 L 27.160156 65.207031 C 27.160156 65.523438 27.09375 65.835938 26.972656 66.117188 L 30.46875 64.007812 C 30.46875 64.007812 30.472656 64.003906 30.472656 64.003906 C 31.019531 63.65625 31.34375 63.066406 31.34375 62.425781 L 31.34375 45.238281 Z M 27.160156 45.238281 " fill-opacity="1" fill-rule="nonzero"/></g><g clip-path="url(#6ff44d9402)"><path fill="#c2b092" d="M 58.554688 7.707031 L 21.296875 7.707031 C 20.925781 7.707031 20.578125 7.804688 20.273438 7.972656 L 20.246094 7.992188 C 20.203125 8.015625 20.160156 8.039062 20.121094 8.066406 L 15.886719 10.652344 C 16.136719 10.546875 16.40625 10.488281 16.695312 10.488281 L 53.953125 10.488281 C 54.507812 10.488281 55.011719 10.707031 55.386719 11.054688 L 59.964844 8.253906 C 59.59375 7.914062 59.097656 7.707031 58.554688 7.707031 Z M 58.554688 7.707031 " fill-opacity="1" fill-rule="nonzero"/></g><g clip-path="url(#277bf93086)"><path fill="#000000" d="M 55.386719 11.261719 C 55.335938 11.261719 55.285156 11.246094 55.242188 11.207031 C 54.890625 10.878906 54.433594 10.699219 53.953125 10.699219 L 16.695312 10.699219 C 16.441406 10.699219 16.199219 10.746094 15.96875 10.84375 C 15.867188 10.882812 15.75 10.84375 15.699219 10.746094 C 15.652344 10.648438 15.683594 10.53125 15.777344 10.472656 L 20.007812 7.894531 C 20.050781 7.863281 20.097656 7.835938 20.140625 7.8125 L 20.164062 7.796875 C 20.171875 7.792969 20.175781 7.789062 20.179688 7.785156 C 20.523438 7.597656 20.90625 7.5 21.296875 7.5 L 58.554688 7.5 C 59.128906 7.5 59.679688 7.710938 60.105469 8.097656 C 60.152344 8.140625 60.179688 8.207031 60.171875 8.273438 C 60.167969 8.335938 60.128906 8.394531 60.074219 8.429688 L 55.496094 11.234375 C 55.464844 11.253906 55.425781 11.261719 55.386719 11.261719 Z M 16.890625 10.28125 L 53.953125 10.28125 C 54.488281 10.28125 54.996094 10.464844 55.410156 10.796875 L 59.597656 8.230469 C 59.289062 8.027344 58.929688 7.917969 58.554688 7.917969 L 21.296875 7.917969 C 20.976562 7.917969 20.65625 8 20.378906 8.15625 L 20.355469 8.167969 C 20.308594 8.195312 20.273438 8.21875 20.238281 8.238281 C 20.234375 8.242188 20.230469 8.242188 20.230469 8.246094 Z M 16.890625 10.28125 " fill-opacity="1" fill-rule="nonzero"/></g><g clip-path="url(#af29c4e353)"><path fill="#c2b092" d="M 59.964844 8.253906 L 55.386719 11.054688 C 55.792969 11.433594 56.050781 11.972656 56.050781 12.574219 L 56.050781 20.691406 C 56.050781 21.308594 55.777344 21.859375 55.347656 22.242188 L 59.675781 19.667969 C 60.261719 19.296875 60.652344 18.648438 60.652344 17.910156 L 60.652344 9.792969 C 60.652344 9.179688 60.386719 8.632812 59.964844 8.253906 Z M 59.964844 8.253906 " fill-opacity="1" fill-rule="nonzero"/><path fill="#000000" d="M 55.347656 22.449219 C 55.285156 22.449219 55.222656 22.421875 55.179688 22.367188 C 55.117188 22.277344 55.128906 22.15625 55.210938 22.085938 C 55.609375 21.730469 55.839844 21.222656 55.839844 20.691406 L 55.839844 12.574219 C 55.839844 12.050781 55.628906 11.566406 55.242188 11.207031 C 55.195312 11.164062 55.171875 11.097656 55.179688 11.035156 C 55.183594 10.96875 55.222656 10.910156 55.277344 10.878906 L 59.855469 8.074219 C 59.933594 8.027344 60.035156 8.035156 60.105469 8.097656 C 60.585938 8.53125 60.859375 9.148438 60.859375 9.792969 L 60.859375 17.910156 C 60.859375 18.6875 60.46875 19.402344 59.8125 19.828125 C 59.804688 19.835938 59.792969 19.84375 59.785156 19.847656 L 55.457031 22.421875 C 55.421875 22.441406 55.386719 22.449219 55.347656 22.449219 Z M 55.714844 11.097656 C 56.066406 11.511719 56.257812 12.023438 56.257812 12.574219 L 56.257812 20.691406 C 56.257812 20.992188 56.199219 21.289062 56.085938 21.5625 L 59.546875 19.503906 C 59.550781 19.5 59.558594 19.496094 59.5625 19.492188 C 60.113281 19.144531 60.441406 18.554688 60.441406 17.910156 L 60.441406 9.792969 C 60.441406 9.316406 60.257812 8.859375 59.933594 8.515625 Z M 55.714844 11.097656 " fill-opacity="1" fill-rule="nonzero"/></g><path fill="#c2b092" d="M 31.554688 22.773438 L 26.953125 22.773438 L 26.953125 32.746094 L 31.554688 29.964844 Z M 31.554688 22.773438 " fill-opacity="1" fill-rule="nonzero"/><path fill="#000000" d="M 26.953125 32.957031 C 26.917969 32.957031 26.882812 32.945312 26.851562 32.929688 C 26.785156 32.890625 26.742188 32.824219 26.742188 32.746094 L 26.742188 22.773438 C 26.742188 22.660156 26.835938 22.566406 26.953125 22.566406 L 31.554688 22.566406 C 31.667969 22.566406 31.761719 22.660156 31.761719 22.773438 L 31.761719 29.964844 C 31.761719 30.039062 31.726562 30.105469 31.664062 30.144531 L 27.0625 32.925781 C 27.027344 32.945312 26.992188 32.957031 26.953125 32.957031 Z M 27.160156 22.980469 L 27.160156 32.378906 L 31.34375 29.847656 L 31.34375 22.980469 Z M 27.160156 22.980469 " fill-opacity="1" fill-rule="nonzero"/><path fill="#c2b092" d="M 56.316406 29.964844 L 31.554688 29.964844 L 26.953125 32.746094 L 51.714844 32.746094 C 52.265625 32.746094 52.761719 32.957031 53.132812 33.300781 L 57.710938 30.496094 C 57.339844 30.167969 56.855469 29.964844 56.316406 29.964844 Z M 56.316406 29.964844 " fill-opacity="1" fill-rule="nonzero"/><path fill="#000000" d="M 53.132812 33.507812 C 53.082031 33.507812 53.03125 33.488281 52.992188 33.453125 C 52.640625 33.132812 52.1875 32.957031 51.714844 32.957031 L 26.953125 32.957031 C 26.859375 32.957031 26.777344 32.894531 26.75 32.804688 C 26.726562 32.714844 26.761719 32.617188 26.84375 32.570312 L 31.445312 29.789062 C 31.476562 29.769531 31.515625 29.757812 31.554688 29.757812 L 56.316406 29.757812 C 56.882812 29.757812 57.425781 29.964844 57.851562 30.339844 C 57.898438 30.386719 57.925781 30.449219 57.917969 30.515625 C 57.914062 30.582031 57.875 30.640625 57.820312 30.675781 L 53.242188 33.476562 C 53.210938 33.496094 53.171875 33.507812 53.132812 33.507812 Z M 27.699219 32.539062 L 51.714844 32.539062 C 52.242188 32.539062 52.746094 32.71875 53.152344 33.042969 L 57.34375 30.476562 C 57.039062 30.28125 56.683594 30.175781 56.316406 30.175781 L 31.613281 30.175781 Z M 27.699219 32.539062 " fill-opacity="1" fill-rule="nonzero"/><path fill="#c2b092" d="M 57.710938 30.496094 L 53.132812 33.300781 C 53.550781 33.679688 53.8125 34.222656 53.8125 34.832031 L 53.8125 42.949219 C 53.8125 43.59375 53.515625 44.171875 53.050781 44.554688 L 57.316406 42 C 57.96875 41.648438 58.414062 40.960938 58.414062 40.167969 L 58.414062 32.050781 C 58.414062 31.429688 58.140625 30.878906 57.710938 30.496094 Z M 57.710938 30.496094 " fill-opacity="1" fill-rule="nonzero"/><path fill="#000000" d="M 53.050781 44.761719 C 52.984375 44.761719 52.921875 44.730469 52.878906 44.675781 C 52.816406 44.585938 52.832031 44.464844 52.917969 44.394531 C 53.351562 44.035156 53.601562 43.507812 53.601562 42.949219 L 53.601562 34.832031 C 53.601562 34.300781 53.386719 33.8125 52.992188 33.453125 C 52.941406 33.410156 52.917969 33.34375 52.925781 33.28125 C 52.929688 33.214844 52.96875 33.15625 53.023438 33.121094 L 57.601562 30.320312 C 57.679688 30.269531 57.78125 30.28125 57.851562 30.339844 C 58.339844 30.777344 58.621094 31.398438 58.621094 32.050781 L 58.621094 40.167969 C 58.621094 41.007812 58.160156 41.777344 57.417969 42.179688 L 53.160156 44.734375 C 53.125 44.753906 53.085938 44.761719 53.050781 44.761719 Z M 53.464844 33.339844 C 53.820312 33.753906 54.019531 34.285156 54.019531 34.832031 L 54.019531 42.949219 C 54.019531 43.257812 53.957031 43.558594 53.839844 43.839844 L 57.207031 41.820312 C 57.210938 41.820312 57.210938 41.820312 57.214844 41.816406 C 57.824219 41.488281 58.203125 40.855469 58.203125 40.167969 L 58.203125 32.050781 C 58.203125 31.570312 58.015625 31.105469 57.683594 30.757812 Z M 53.464844 33.339844 " fill-opacity="1" fill-rule="nonzero"/></svg>