<svg xmlns="http://www.w3.org/2000/svg" xmlns:xlink="http://www.w3.org/1999/xlink" width="200" zoomAndPan="magnify" viewBox="0 0 150 149.999998" height="200" preserveAspectRatio="xMidYMid meet" version="1.0"><defs><clipPath id="58d84b30d2"><path d="M 19.726562 18 L 129.976562 18 L 129.976562 135 L 19.726562 135 Z M 19.726562 18 " clip-rule="nonzero"/></clipPath></defs><g clip-path="url(#58d84b30d2)"><path fill="#000000" d="M 128.941406 32.316406 C 127.785156 29.230469 124.582031 29.429688 121.957031 30.054688 C 122.132812 29.660156 122.246094 29.25 122.296875 28.820312 C 122.347656 28.394531 122.335938 27.964844 122.257812 27.542969 C 122.179688 27.117188 122.042969 26.714844 121.84375 26.332031 C 121.644531 25.949219 121.394531 25.605469 121.09375 25.300781 C 120.789062 24.992188 120.449219 24.738281 120.070312 24.535156 C 119.691406 24.328125 119.292969 24.1875 118.871094 24.105469 C 118.445312 24.023438 118.023438 24.003906 117.59375 24.050781 C 117.167969 24.097656 116.757812 24.207031 116.359375 24.375 C 115.136719 24.84375 113.980469 25.4375 112.890625 26.164062 C 111.769531 23.925781 108.589844 23.730469 106.828125 25.496094 C 106.121094 26.167969 105.453125 26.875 104.824219 27.621094 C 104.714844 27.746094 104.636719 27.886719 104.585938 28.039062 C 104.535156 28.195312 104.515625 28.355469 104.527344 28.519531 C 104.542969 28.683594 104.585938 28.839844 104.660156 28.984375 C 104.734375 29.128906 104.832031 29.257812 104.957031 29.363281 C 105.082031 29.46875 105.222656 29.546875 105.378906 29.59375 C 105.535156 29.644531 105.695312 29.664062 105.859375 29.648438 C 106.019531 29.632812 106.175781 29.589844 106.320312 29.511719 C 106.464844 29.4375 106.589844 29.335938 106.695312 29.207031 C 107.261719 28.53125 107.867188 27.890625 108.507812 27.285156 C 109.386719 26.484375 110.640625 26.570312 110.8125 27.640625 C 110.835938 27.847656 110.839844 28.054688 110.828125 28.261719 C 110.816406 28.511719 110.875 28.742188 111 28.957031 C 111.128906 29.171875 111.304688 29.332031 111.53125 29.4375 C 111.753906 29.546875 111.988281 29.582031 112.234375 29.546875 C 112.480469 29.511719 112.699219 29.410156 112.882812 29.242188 C 114.183594 28.136719 115.628906 27.28125 117.222656 26.675781 C 119.042969 25.929688 120.492188 27.660156 119.578125 29.382812 C 119.183594 30.203125 118.707031 30.96875 118.140625 31.675781 C 117.273438 32.730469 118.617188 34.230469 119.757812 33.484375 C 119.777344 33.472656 121.726562 32.25 124.960938 32.125 C 125.328125 32.082031 125.671875 32.160156 125.988281 32.355469 C 126.304688 32.554688 126.523438 32.828125 126.644531 33.179688 C 127.4375 35.199219 124.8125 36.867188 123.070312 37.453125 C 122.84375 37.535156 122.660156 37.671875 122.511719 37.863281 C 122.367188 38.054688 122.285156 38.273438 122.265625 38.511719 C 122.246094 38.75 122.292969 38.976562 122.402344 39.191406 C 122.515625 39.402344 122.675781 39.570312 122.882812 39.691406 C 123.492188 40.066406 124.039062 40.523438 124.519531 41.050781 C 125.957031 42.558594 125.148438 45.199219 123.445312 46.273438 C 122.183594 47.109375 120.859375 47.835938 119.472656 48.449219 C 118.910156 48.273438 118.535156 47.902344 118.351562 47.339844 C 117.890625 45.9375 116.445312 44.195312 112.183594 43.855469 C 109.945312 43.675781 108.027344 43.566406 106.164062 43.785156 C 111.082031 40.585938 114.332031 39.882812 114.378906 39.875 C 114.539062 39.84375 114.6875 39.78125 114.820312 39.691406 C 114.957031 39.601562 115.070312 39.488281 115.160156 39.355469 C 115.25 39.21875 115.3125 39.070312 115.34375 38.910156 C 115.375 38.75 115.375 38.589844 115.34375 38.433594 C 115.3125 38.273438 115.253906 38.125 115.160156 37.988281 C 115.070312 37.851562 114.960938 37.738281 114.824219 37.648438 C 114.6875 37.558594 114.542969 37.496094 114.382812 37.464844 C 114.222656 37.433594 114.0625 37.433594 113.90625 37.464844 C 113.679688 37.507812 109.78125 38.320312 104.035156 42.242188 C 105.949219 38.207031 104.773438 34.253906 101.660156 32.363281 C 102.726562 29.664062 103.28125 25.707031 100.121094 23.976562 C 97.65625 22.625 95.609375 23.222656 94.238281 24.226562 C 94.070312 23.902344 93.867188 23.601562 93.625 23.328125 C 93.386719 23.054688 93.121094 22.808594 92.824219 22.597656 C 92.527344 22.386719 92.210938 22.214844 91.871094 22.078125 C 91.535156 21.941406 91.183594 21.847656 90.824219 21.796875 C 90.464844 21.742188 90.105469 21.730469 89.742188 21.765625 C 89.378906 21.796875 89.027344 21.875 88.679688 21.992188 C 88.335938 22.109375 88.011719 22.265625 87.703125 22.457031 C 87.394531 22.652344 87.113281 22.882812 86.859375 23.144531 C 85.082031 24.929688 85 27.136719 85.46875 29.210938 C 80.867188 28.347656 78.589844 34.292969 82.496094 37.089844 C 82.007812 37.441406 81.597656 37.871094 81.269531 38.375 C 80.9375 38.882812 80.714844 39.433594 80.59375 40.023438 C 80.472656 40.617188 80.464844 41.210938 80.566406 41.804688 C 80.671875 42.398438 80.878906 42.957031 81.191406 43.472656 C 82.402344 45.386719 83.273438 47.445312 83.808594 49.644531 C 82.265625 51.644531 80.546875 53.480469 78.648438 55.144531 C 78.839844 53.863281 78.820312 52.582031 78.582031 51.304688 C 78.347656 50.027344 77.910156 48.824219 77.273438 47.695312 C 77.1875 47.558594 77.078125 47.441406 76.945312 47.347656 C 76.816406 47.253906 76.671875 47.1875 76.511719 47.152344 C 76.355469 47.117188 76.199219 47.109375 76.039062 47.136719 C 75.878906 47.164062 75.730469 47.21875 75.59375 47.300781 C 75.457031 47.386719 75.339844 47.496094 75.246094 47.625 C 75.148438 47.757812 75.082031 47.902344 75.046875 48.058594 C 75.007812 48.214844 75 48.375 75.023438 48.535156 C 75.046875 48.695312 75.101562 48.84375 75.1875 48.980469 C 75.320312 49.164062 78.054688 53.9375 74.5625 58.5 C 73.359375 59.414062 72.050781 60.320312 70.765625 61.203125 C 69.613281 59.066406 64.464844 54.757812 68.242188 53.9375 C 68.484375 53.890625 68.695312 53.785156 68.875 53.613281 C 69.050781 53.441406 69.167969 53.234375 69.222656 52.992188 C 69.277344 52.75 69.257812 52.515625 69.171875 52.28125 C 69.085938 52.050781 68.941406 51.863281 68.742188 51.71875 C 63.074219 47.613281 62.726562 45.4375 65.8125 44.171875 C 66.007812 44.105469 66.179688 43.996094 66.324219 43.84375 C 66.464844 43.691406 66.5625 43.515625 66.617188 43.3125 C 66.667969 43.113281 66.671875 42.910156 66.625 42.707031 C 66.574219 42.503906 66.480469 42.324219 66.339844 42.167969 C 64.828125 40.605469 64.015625 38.800781 65.433594 37.1875 C 69.121094 33.417969 73.601562 41.304688 73.648438 41.960938 C 73.734375 42.175781 73.871094 42.355469 74.054688 42.496094 C 74.242188 42.636719 74.453125 42.714844 74.683594 42.738281 C 74.914062 42.757812 75.136719 42.71875 75.34375 42.613281 C 75.550781 42.511719 75.71875 42.359375 75.839844 42.164062 C 76.464844 41.128906 77.117188 40.449219 77.769531 40.140625 C 77.917969 40.070312 78.042969 39.972656 78.152344 39.851562 C 78.257812 39.730469 78.339844 39.59375 78.394531 39.441406 C 78.449219 39.289062 78.472656 39.132812 78.464844 38.96875 C 78.457031 38.808594 78.417969 38.652344 78.347656 38.507812 C 78.277344 38.359375 78.183594 38.234375 78.066406 38.125 C 77.945312 38.015625 77.808594 37.933594 77.65625 37.878906 C 77.503906 37.820312 77.347656 37.796875 77.1875 37.804688 C 77.027344 37.8125 76.871094 37.847656 76.726562 37.917969 C 76.074219 38.238281 75.5 38.667969 75.007812 39.203125 C 74.039062 37.53125 72.1875 35.121094 69.5 34.085938 C 68.320312 30.722656 70.433594 29.675781 70.867188 29.5 C 71.28125 29.34375 71.539062 29.050781 71.636719 28.617188 C 71.859375 27.542969 70.550781 26.886719 70.125 26.101562 C 69.03125 24.621094 69.398438 23.160156 70.042969 22.359375 C 72.730469 19.261719 76.839844 24.210938 77.183594 25.253906 C 77.316406 25.527344 77.523438 25.726562 77.804688 25.847656 C 78.085938 25.96875 78.371094 25.980469 78.660156 25.890625 C 78.949219 25.796875 79.175781 25.621094 79.335938 25.359375 C 79.496094 25.097656 79.550781 24.816406 79.5 24.515625 C 79.183594 23.296875 79.71875 22.269531 80.398438 21.929688 C 80.800781 21.695312 81.234375 21.582031 81.703125 21.597656 C 82.167969 21.609375 82.597656 21.746094 82.984375 22.007812 C 84.351562 22.855469 85.648438 20.828125 84.304688 19.933594 C 82.046875 18.414062 78.730469 19.152344 77.484375 21.554688 C 71.222656 14.988281 63.625 22.0625 68.5625 28.089844 C 67.007812 29.359375 66.339844 31.628906 66.867188 33.773438 C 65.902344 33.917969 65.039062 34.296875 64.277344 34.910156 C 63.515625 35.523438 62.960938 36.285156 62.613281 37.203125 C 62.269531 38.117188 62.175781 39.058594 62.339844 40.023438 C 62.503906 40.988281 62.902344 41.847656 63.53125 42.597656 C 59.757812 45.285156 61.367188 49.105469 65.679688 52.496094 C 63.496094 54.53125 64.292969 56.980469 66.71875 59.90625 C 67.460938 60.765625 68.140625 61.667969 68.757812 62.621094 C 54.171875 72.90625 22.8125 102.347656 22.707031 121.875 L 21.542969 122.792969 C 21.296875 122.992188 21.070312 123.214844 20.867188 123.464844 C 20.664062 123.710938 20.488281 123.976562 20.34375 124.261719 C 20.195312 124.546875 20.078125 124.84375 19.996094 125.152344 C 19.910156 125.460938 19.859375 125.777344 19.839844 126.097656 C 19.820312 126.417969 19.835938 126.734375 19.882812 127.050781 C 19.933594 127.367188 20.011719 127.675781 20.125 127.976562 C 20.238281 128.277344 20.378906 128.5625 20.550781 128.832031 C 20.722656 129.101562 20.921875 129.351562 21.144531 129.578125 L 24.785156 133.230469 C 25 133.4375 25.226562 133.625 25.476562 133.792969 C 25.722656 133.957031 25.984375 134.09375 26.261719 134.207031 C 26.535156 134.320312 26.820312 134.40625 27.109375 134.464844 C 27.402344 134.523438 27.699219 134.550781 27.996094 134.550781 C 28.292969 134.550781 28.585938 134.523438 28.878906 134.464844 C 29.171875 134.40625 29.453125 134.320312 29.730469 134.207031 C 30.003906 134.09375 30.265625 133.957031 30.515625 133.792969 C 30.761719 133.625 30.992188 133.4375 31.203125 133.230469 C 32.019531 132.402344 32.996094 131.339844 34.039062 130.824219 C 49.691406 122.425781 65.714844 109.894531 79.15625 95.527344 C 80.210938 94.367188 78.523438 92.667969 77.367188 93.847656 C 64.105469 108.023438 48.304688 120.382812 32.882812 128.65625 C 32.042969 129.105469 31.285156 129.671875 30.613281 130.347656 L 29.46875 131.488281 C 29.273438 131.6875 29.050781 131.835938 28.792969 131.941406 C 28.539062 132.050781 28.273438 132.101562 27.996094 132.101562 C 27.71875 132.101562 27.453125 132.050781 27.199219 131.941406 C 26.941406 131.835938 26.714844 131.6875 26.519531 131.488281 L 22.878906 127.839844 C 22.671875 127.628906 22.511719 127.382812 22.410156 127.105469 C 22.304688 126.824219 22.257812 126.535156 22.277344 126.238281 C 22.292969 125.941406 22.371094 125.660156 22.507812 125.394531 C 22.644531 125.128906 22.832031 124.90625 23.0625 124.71875 L 23.800781 124.132812 L 27.277344 127.617188 C 27.390625 127.734375 27.523438 127.824219 27.671875 127.886719 C 27.824219 127.949219 27.980469 127.980469 28.140625 127.980469 C 28.304688 127.980469 28.460938 127.949219 28.609375 127.886719 C 28.761719 127.824219 28.894531 127.734375 29.007812 127.617188 C 29.125 127.503906 29.210938 127.371094 29.273438 127.21875 C 29.335938 127.070312 29.367188 126.914062 29.367188 126.75 C 29.367188 126.585938 29.335938 126.429688 29.273438 126.28125 C 29.210938 126.128906 29.125 125.996094 29.007812 125.882812 L 25.160156 122.019531 C 26.671875 99.890625 58.578125 73.558594 68.390625 65.964844 C 73.863281 61.996094 80.515625 57.523438 84.195312 53.054688 C 84.15625 56.980469 82.390625 59.277344 82.179688 59.535156 C 79.398438 62.410156 76.386719 65.019531 73.148438 67.363281 C 55.28125 80.933594 44.589844 95.785156 39.847656 103.378906 C 37.769531 106.761719 36.132812 110.347656 34.9375 114.136719 C 34.34375 116.0625 33.464844 117.847656 32.296875 119.488281 L 29.375 121.28125 C 29.234375 121.367188 29.117188 121.476562 29.023438 121.609375 C 28.925781 121.738281 28.859375 121.886719 28.824219 122.042969 C 28.785156 122.203125 28.777344 122.363281 28.804688 122.523438 C 28.828125 122.683594 28.882812 122.832031 28.96875 122.972656 C 29.054688 123.109375 29.164062 123.230469 29.292969 123.324219 C 29.425781 123.421875 29.570312 123.488281 29.726562 123.523438 C 29.886719 123.5625 30.046875 123.570312 30.207031 123.542969 C 30.367188 123.519531 30.515625 123.464844 30.652344 123.378906 L 33.746094 121.480469 C 49.136719 112.941406 62.582031 101.910156 73.261719 91.625 C 74.160156 91.144531 77.75 89.660156 83.503906 92.742188 C 84.035156 93.023438 84.59375 93.214844 85.183594 93.3125 C 85.773438 93.414062 86.367188 93.417969 86.957031 93.324219 C 87.550781 93.230469 88.113281 93.046875 88.644531 92.773438 C 89.175781 92.496094 89.652344 92.144531 90.070312 91.714844 C 92.898438 94.703125 98.792969 98.523438 101.140625 92.433594 C 103.007812 92.953125 105.511719 92.199219 106.402344 90.085938 C 108.214844 91.199219 110.003906 92.234375 112.050781 92.351562 C 114.308594 92.414062 116.476562 90.453125 116.621094 88.183594 C 120.277344 88.699219 122.957031 84.34375 120.96875 81.253906 C 122.039062 80.460938 122.730469 79.414062 123.035156 78.113281 C 129.140625 76.269531 128.871094 68.667969 123.546875 65.675781 C 123.410156 65.59375 123.257812 65.542969 123.097656 65.519531 C 122.9375 65.496094 122.777344 65.507812 122.621094 65.546875 C 122.460938 65.589844 122.320312 65.65625 122.1875 65.753906 C 122.058594 65.855469 121.953125 65.972656 121.871094 66.113281 C 121.789062 66.253906 121.738281 66.40625 121.714844 66.566406 C 121.691406 66.726562 121.699219 66.886719 121.742188 67.042969 C 121.78125 67.203125 121.851562 67.347656 121.949219 67.476562 C 122.046875 67.605469 122.167969 67.710938 122.308594 67.796875 C 124.367188 69.007812 125.226562 70.578125 125.089844 72.886719 C 125 74.464844 123.066406 75.730469 121.828125 75.871094 C 121.53125 75.90625 121.28125 76.035156 121.074219 76.253906 C 120.871094 76.472656 120.761719 76.734375 120.742188 77.035156 C 120.703125 77.503906 120.5625 77.945312 120.324219 78.355469 C 120.085938 78.761719 119.769531 79.101562 119.378906 79.367188 C 118.65625 78.6875 117.867188 78.101562 117.007812 77.609375 C 118.5625 75.316406 117.324219 71.777344 114.664062 70.949219 C 111.292969 69.835938 107.832031 69.261719 104.285156 69.222656 C 102.675781 69.226562 102.617188 71.609375 104.226562 71.679688 C 107.519531 71.714844 110.730469 72.242188 113.863281 73.273438 C 114.222656 73.398438 114.523438 73.605469 114.765625 73.902344 C 115.007812 74.195312 115.15625 74.535156 115.210938 74.914062 C 115.273438 75.269531 115.238281 75.613281 115.105469 75.953125 C 114.96875 76.289062 114.757812 76.5625 114.46875 76.78125 C 114.214844 76.902344 114.019531 77.085938 113.878906 77.328125 C 113.738281 77.574219 113.683594 77.835938 113.707031 78.117188 C 113.734375 78.347656 113.824219 78.554688 113.96875 78.734375 C 114.117188 78.917969 114.300781 79.046875 114.519531 79.121094 C 116.246094 79.8125 117.667969 80.902344 118.785156 82.394531 C 119.050781 82.761719 119.183594 83.171875 119.1875 83.625 C 119.191406 84.082031 119.058594 84.492188 118.796875 84.859375 C 118.25 85.71875 117.074219 86.105469 115.660156 85.320312 C 114.664062 84.792969 113.507812 85.960938 114.015625 86.960938 C 114.183594 87.34375 114.230469 87.738281 114.15625 88.148438 C 114.078125 88.5625 113.898438 88.917969 113.605469 89.214844 C 113.328125 89.519531 112.988281 89.722656 112.59375 89.828125 C 112.195312 89.933594 111.800781 89.921875 111.410156 89.796875 C 109.832031 89.292969 108.382812 88.546875 107.058594 87.558594 C 107.253906 84.042969 104.074219 81.640625 101.679688 80.34375 C 101.953125 79.964844 102.136719 79.546875 102.230469 79.089844 C 107.398438 79.550781 109.371094 80.972656 110.382812 81.09375 C 110.667969 81.089844 110.917969 81 111.140625 80.820312 C 111.359375 80.644531 111.503906 80.417969 111.566406 80.140625 C 111.628906 79.863281 111.601562 79.59375 111.480469 79.339844 C 111.363281 79.082031 111.175781 78.890625 110.921875 78.761719 C 108.011719 77.480469 104.96875 76.757812 101.796875 76.59375 C 101.464844 76.089844 101.023438 75.703125 100.476562 75.441406 C 99.34375 74.894531 98.15625 74.503906 96.921875 74.277344 C 98.667969 71.867188 101.765625 67.523438 103.425781 64.828125 C 104.035156 64.667969 104.589844 64.390625 105.085938 64 C 105.582031 63.609375 105.984375 63.136719 106.285156 62.582031 C 109.015625 65.269531 114.054688 67.929688 117.332031 63.71875 C 117.878906 64.019531 118.460938 64.214844 119.078125 64.304688 C 119.695312 64.394531 120.308594 64.375 120.917969 64.246094 C 121.53125 64.117188 122.097656 63.882812 122.625 63.550781 C 123.152344 63.214844 123.605469 62.800781 123.984375 62.304688 C 124.707031 61.464844 125.613281 59.8125 124.417969 57.550781 C 127.019531 55.214844 126.167969 51.050781 122.898438 49.476562 C 123.554688 49.109375 124.191406 48.722656 124.804688 48.3125 C 128.027344 46.285156 128.828125 41.351562 125.8125 38.871094 C 128.253906 37.601562 129.949219 34.941406 128.941406 32.316406 Z M 83.101562 40.125 C 83.941406 37.941406 86.324219 39.359375 86.636719 37.5 C 86.671875 37.222656 86.613281 36.960938 86.464844 36.722656 C 86.316406 36.480469 86.113281 36.3125 85.847656 36.214844 C 85.234375 35.984375 83.539062 35.140625 83.046875 34.003906 C 82.609375 33.226562 83.359375 31.777344 84.007812 31.675781 C 84.863281 31.367188 86.34375 31.996094 86.75 32.253906 C 86.976562 32.382812 87.21875 32.4375 87.476562 32.414062 C 87.734375 32.394531 87.964844 32.296875 88.164062 32.128906 C 88.363281 31.960938 88.496094 31.75 88.5625 31.5 C 88.628906 31.246094 88.613281 31 88.523438 30.753906 C 87.382812 27.832031 87.40625 26.074219 88.59375 24.882812 C 88.769531 24.691406 88.972656 24.539062 89.207031 24.421875 C 89.4375 24.304688 89.683594 24.234375 89.941406 24.207031 C 90.199219 24.179688 90.453125 24.199219 90.703125 24.265625 C 90.953125 24.332031 91.183594 24.441406 91.394531 24.589844 C 92.050781 25.160156 92.4375 25.875 92.558594 26.734375 C 92.609375 26.980469 92.722656 27.191406 92.902344 27.367188 C 93.082031 27.542969 93.292969 27.652344 93.539062 27.699219 C 93.785156 27.742188 94.023438 27.714844 94.253906 27.613281 C 94.484375 27.511719 94.664062 27.355469 94.796875 27.144531 C 95.054688 26.738281 96.472656 24.777344 98.945312 26.132812 C 101.367188 27.460938 99.007812 32.300781 98.984375 32.347656 C 98.910156 32.503906 98.867188 32.667969 98.859375 32.839844 C 98.851562 33.015625 98.875 33.179688 98.9375 33.34375 C 99 33.503906 99.089844 33.648438 99.210938 33.769531 C 99.332031 33.894531 99.472656 33.988281 99.632812 34.050781 C 105.761719 37.277344 102.152344 44.582031 89.308594 54.445312 C 95.867188 44.539062 95.410156 37.195312 95.382812 36.828125 C 95.371094 36.664062 95.324219 36.511719 95.253906 36.367188 C 95.179688 36.222656 95.082031 36.097656 94.957031 35.992188 C 94.835938 35.886719 94.695312 35.808594 94.542969 35.761719 C 94.386719 35.710938 94.230469 35.691406 94.070312 35.703125 C 93.90625 35.714844 93.753906 35.757812 93.609375 35.832031 C 93.464844 35.902344 93.339844 36 93.234375 36.125 C 93.128906 36.246094 93.050781 36.386719 93 36.539062 C 92.949219 36.691406 92.929688 36.851562 92.9375 37.011719 C 92.945312 37.097656 93.347656 44.355469 86.613281 54.035156 C 86.84375 50.933594 86.175781 46.921875 83.285156 42.191406 C 83.089844 41.882812 82.976562 41.542969 82.945312 41.179688 C 82.914062 40.816406 82.96875 40.464844 83.101562 40.125 Z M 98.019531 63.84375 C 98.917969 64.03125 99.789062 64.304688 100.632812 64.65625 C 98.542969 67.875 95.171875 72.519531 94.054688 74.050781 C 92.273438 74.105469 90.554688 74.457031 88.898438 75.105469 C 93.101562 70.238281 96.199219 66.269531 98.019531 63.84375 Z M 99.835938 78.582031 C 99.800781 78.773438 99.703125 78.925781 99.542969 79.039062 C 99.382812 79.148438 99.207031 79.191406 99.015625 79.160156 C 97.484375 78.746094 96.851562 80.996094 98.335938 81.515625 C 98.40625 81.539062 105.261719 84.019531 104.5625 87.839844 C 104.363281 88.917969 103.964844 89.617188 103.386719 89.917969 C 102.527344 90.363281 101.269531 89.964844 100.867188 89.773438 C 100.699219 89.695312 100.523438 89.652344 100.339844 89.652344 C 100.152344 89.652344 99.976562 89.691406 99.8125 89.773438 C 99.644531 89.851562 99.503906 89.964844 99.386719 90.105469 C 99.269531 90.25 99.191406 90.414062 99.144531 90.59375 C 98.890625 91.652344 98.386719 92.964844 97.449219 93.191406 C 95.574219 93.640625 92.207031 90.539062 90.867188 88.96875 C 90.625 88.683594 90.3125 88.539062 89.9375 88.539062 C 89.6875 88.542969 89.457031 88.613281 89.25 88.753906 C 89.042969 88.890625 88.890625 89.078125 88.796875 89.308594 C 88.605469 89.667969 88.355469 89.976562 88.042969 90.238281 C 87.730469 90.496094 87.378906 90.683594 86.992188 90.804688 C 86.601562 90.921875 86.207031 90.960938 85.800781 90.921875 C 85.398438 90.882812 85.019531 90.765625 84.660156 90.574219 C 81.808594 89.046875 79.359375 88.488281 77.375 88.40625 C 85.1875 83.421875 91.609375 84.835938 91.925781 84.910156 C 92.082031 84.941406 92.238281 84.941406 92.390625 84.914062 C 92.546875 84.882812 92.691406 84.828125 92.824219 84.742188 C 92.957031 84.65625 93.070312 84.546875 93.164062 84.417969 C 93.253906 84.289062 93.320312 84.148438 93.355469 83.992188 C 93.394531 83.839844 93.402344 83.683594 93.378906 83.527344 C 93.355469 83.371094 93.300781 83.222656 93.222656 83.085938 C 93.144531 82.949219 93.039062 82.832031 92.914062 82.734375 C 92.789062 82.636719 92.652344 82.566406 92.5 82.523438 C 92.210938 82.453125 87.417969 81.355469 81.011719 83.816406 C 87.183594 77.238281 93.363281 74.878906 99.410156 77.65625 C 99.585938 77.734375 99.714844 77.863281 99.796875 78.039062 C 99.875 78.214844 99.890625 78.398438 99.835938 78.585938 Z M 123.472656 54.558594 C 123.226562 55.570312 122.175781 56.214844 122.175781 56.21875 C 122.023438 56.304688 121.894531 56.421875 121.792969 56.566406 C 121.691406 56.707031 121.621094 56.867188 121.589844 57.039062 C 121.554688 57.210938 121.558594 57.382812 121.597656 57.554688 C 121.636719 57.726562 121.710938 57.882812 121.816406 58.023438 C 123.042969 59.636719 122.425781 60.355469 122.128906 60.699219 C 120.703125 62.507812 118.800781 61.957031 117.824219 61.117188 C 117.6875 60.996094 117.53125 60.910156 117.355469 60.859375 C 117.179688 60.804688 117.003906 60.792969 116.820312 60.820312 C 116.640625 60.851562 116.476562 60.914062 116.324219 61.015625 C 116.171875 61.117188 116.046875 61.25 115.953125 61.40625 C 115.183594 62.703125 114.300781 63.378906 113.25 63.46875 C 110.832031 63.667969 107.878906 60.84375 106.945312 59.742188 C 106.8125 59.582031 106.644531 59.46875 106.453125 59.394531 C 106.257812 59.320312 106.058594 59.296875 105.851562 59.324219 C 105.644531 59.347656 105.457031 59.421875 105.289062 59.546875 C 105.121094 59.667969 104.992188 59.820312 104.902344 60.007812 C 104.21875 61.511719 103.28125 63.066406 101.445312 62.339844 C 99.773438 61.628906 98.027344 61.230469 96.210938 61.144531 C 94.398438 61.058594 92.621094 61.289062 90.890625 61.839844 C 97.730469 55.367188 107.40625 53.113281 112.847656 54.382812 C 113.003906 54.421875 113.164062 54.429688 113.324219 54.402344 C 113.484375 54.378906 113.632812 54.324219 113.773438 54.242188 C 113.914062 54.15625 114.03125 54.046875 114.125 53.917969 C 114.222656 53.785156 114.289062 53.640625 114.328125 53.484375 C 114.367188 53.324219 114.375 53.164062 114.351562 53.003906 C 114.328125 52.84375 114.273438 52.691406 114.191406 52.554688 C 114.105469 52.414062 114 52.296875 113.867188 52.199219 C 113.738281 52.101562 113.59375 52.035156 113.433594 51.996094 C 104.550781 50.378906 92.789062 54.019531 83.542969 66.222656 C 82.277344 67.808594 80.988281 69.386719 79.703125 70.910156 C 79.597656 71.035156 79.523438 71.175781 79.472656 71.332031 C 79.421875 71.484375 79.40625 71.644531 79.417969 71.808594 C 79.433594 71.96875 79.476562 72.121094 79.550781 72.265625 C 79.625 72.410156 79.726562 72.535156 79.851562 72.640625 C 79.976562 72.746094 80.113281 72.824219 80.269531 72.875 C 80.425781 72.921875 80.582031 72.941406 80.742188 72.925781 C 80.90625 72.914062 81.058594 72.867188 81.203125 72.792969 C 81.347656 72.71875 81.472656 72.621094 81.578125 72.496094 C 82.859375 70.96875 84.152344 69.390625 85.417969 67.804688 C 85.839844 67.375 89.628906 63.683594 95.148438 63.570312 C 90.347656 69.796875 85.246094 75.765625 79.847656 81.476562 L 71.46875 89.878906 C 71.398438 89.953125 71.339844 90.035156 71.285156 90.125 C 61.695312 99.332031 49.878906 109.113281 36.4375 117.101562 C 37.554688 114.289062 38.5 111.015625 39.871094 108.402344 C 51.140625 102.429688 62.652344 93.167969 74.132812 80.898438 C 74.246094 80.777344 74.328125 80.644531 74.386719 80.488281 C 74.441406 80.335938 74.46875 80.179688 74.464844 80.015625 C 74.457031 79.855469 74.421875 79.699219 74.355469 79.550781 C 74.289062 79.402344 74.195312 79.273438 74.078125 79.160156 C 73.957031 79.050781 73.824219 78.964844 73.671875 78.90625 C 73.519531 78.851562 73.363281 78.824219 73.199219 78.828125 C 73.035156 78.835938 72.882812 78.871094 72.734375 78.9375 C 72.585938 79.003906 72.457031 79.097656 72.34375 79.21875 C 62.230469 90.039062 52.09375 98.453125 42.167969 104.300781 C 46.933594 96.742188 57.304688 82.503906 74.5625 69.367188 C 77.910156 66.953125 81.015625 64.261719 83.886719 61.296875 C 88.796875 58.078125 93.433594 54.503906 97.792969 50.566406 C 97.953125 50.46875 98.097656 50.351562 98.222656 50.214844 C 103.613281 45.863281 106.597656 45.875 111.992188 46.304688 C 114.269531 46.488281 115.703125 47.128906 116.027344 48.113281 C 116.273438 48.875 116.707031 49.511719 117.324219 50.027344 C 117.9375 50.539062 118.644531 50.847656 119.4375 50.949219 C 121.824219 51.289062 123.769531 52.457031 123.472656 54.558594 Z M 123.472656 54.558594 " fill-opacity="1" fill-rule="nonzero"/></g><path fill="#000000" d="M 97.453125 86.355469 C 97.613281 86.351562 97.773438 86.320312 97.921875 86.257812 C 98.074219 86.195312 98.207031 86.105469 98.324219 85.988281 C 98.4375 85.871094 98.527344 85.738281 98.589844 85.585938 C 98.65625 85.433594 98.6875 85.277344 98.6875 85.113281 C 98.6875 84.949219 98.660156 84.789062 98.597656 84.636719 C 98.535156 84.484375 98.449219 84.351562 98.335938 84.234375 C 98.222656 84.117188 98.089844 84.023438 97.9375 83.957031 C 97.789062 83.890625 97.632812 83.859375 97.46875 83.855469 C 97.304688 83.855469 97.148438 83.886719 96.996094 83.953125 C 96.847656 84.015625 96.710938 84.105469 96.597656 84.222656 C 96.480469 84.335938 96.390625 84.472656 96.328125 84.621094 C 96.265625 84.773438 96.234375 84.929688 96.230469 85.09375 C 96.230469 85.257812 96.261719 85.417969 96.320312 85.570312 C 96.382812 85.722656 96.46875 85.859375 96.585938 85.976562 C 96.699219 86.09375 96.832031 86.183594 96.980469 86.25 C 97.128906 86.316406 97.289062 86.351562 97.453125 86.355469 Z M 97.453125 86.355469 " fill-opacity="1" fill-rule="nonzero"/><path fill="#000000" d="M 76.949219 74.632812 C 76.785156 74.636719 76.628906 74.667969 76.476562 74.730469 C 76.328125 74.796875 76.195312 74.886719 76.078125 75 C 75.960938 75.117188 75.875 75.25 75.808594 75.402344 C 75.746094 75.554688 75.714844 75.710938 75.714844 75.875 C 75.710938 76.039062 75.742188 76.199219 75.804688 76.351562 C 75.863281 76.503906 75.953125 76.636719 76.066406 76.753906 C 76.179688 76.875 76.3125 76.964844 76.460938 77.03125 C 76.613281 77.097656 76.769531 77.128906 76.933594 77.132812 C 77.097656 77.132812 77.253906 77.101562 77.40625 77.035156 C 77.554688 76.972656 77.6875 76.882812 77.804688 76.765625 C 77.921875 76.652344 78.011719 76.519531 78.074219 76.367188 C 78.136719 76.214844 78.167969 76.058594 78.167969 75.894531 C 78.171875 75.730469 78.140625 75.570312 78.078125 75.417969 C 78.019531 75.265625 77.929688 75.128906 77.816406 75.011719 C 77.703125 74.894531 77.570312 74.804688 77.421875 74.738281 C 77.269531 74.671875 77.113281 74.636719 76.949219 74.632812 Z M 76.949219 74.632812 " fill-opacity="1" fill-rule="nonzero"/></svg>