<svg xmlns="http://www.w3.org/2000/svg" xmlns:xlink="http://www.w3.org/1999/xlink" width="200" zoomAndPan="magnify" viewBox="0 0 150 112.499997" height="150" preserveAspectRatio="xMidYMid meet" version="1.0"><defs><clipPath id="7b82073cf5"><path d="M 11.53125 13 L 136 13 L 136 74 L 11.53125 74 Z M 11.53125 13 " clip-rule="nonzero"/></clipPath><clipPath id="3d7664f5ab"><path d="M 11.53125 45 L 26 45 L 26 50 L 11.53125 50 Z M 11.53125 45 " clip-rule="nonzero"/></clipPath></defs><path fill="#faf8d8" d="M 13.585938 47.347656 C 13.585938 47.347656 13.816406 49.324219 14.101562 49.410156 C 14.386719 49.496094 14.53125 47.375 14.53125 47.375 L 13.585938 47.347656 " fill-opacity="1" fill-rule="nonzero"/><path fill="#e8e5c0" d="M 14.53125 47.375 L 13.929688 47.355469 C 14.070312 47.730469 14.308594 48.558594 14.125 49.410156 C 14.394531 49.382812 14.53125 47.375 14.53125 47.375 " fill-opacity="1" fill-rule="nonzero"/><path fill="#faf8d8" d="M 14.730469 47.289062 C 14.730469 47.289062 14.960938 49.265625 15.246094 49.351562 C 15.53125 49.4375 15.675781 47.316406 15.675781 47.316406 L 14.730469 47.289062 " fill-opacity="1" fill-rule="nonzero"/><path fill="#e8e5c0" d="M 15.675781 47.316406 L 15.074219 47.300781 C 15.214844 47.675781 15.453125 48.5 15.269531 49.351562 C 15.539062 49.324219 15.675781 47.316406 15.675781 47.316406 " fill-opacity="1" fill-rule="nonzero"/><path fill="#faf8d8" d="M 15.960938 47.347656 C 15.960938 47.347656 16.191406 49.324219 16.476562 49.410156 C 16.761719 49.496094 16.90625 47.375 16.90625 47.375 L 15.960938 47.347656 " fill-opacity="1" fill-rule="nonzero"/><path fill="#e8e5c0" d="M 16.90625 47.375 L 16.304688 47.355469 C 16.445312 47.730469 16.683594 48.558594 16.5 49.410156 C 16.769531 49.382812 16.90625 47.375 16.90625 47.375 " fill-opacity="1" fill-rule="nonzero"/><path fill="#faf8d8" d="M 17.191406 47.433594 C 17.191406 47.433594 17.417969 49.410156 17.707031 49.496094 C 17.992188 49.582031 18.132812 47.460938 18.132812 47.460938 L 17.191406 47.433594 " fill-opacity="1" fill-rule="nonzero"/><path fill="#e8e5c0" d="M 18.132812 47.460938 L 17.535156 47.441406 C 17.675781 47.816406 17.914062 48.644531 17.726562 49.496094 C 18 49.46875 18.132812 47.460938 18.132812 47.460938 " fill-opacity="1" fill-rule="nonzero"/><path fill="#faf8d8" d="M 18.5625 47.660156 C 18.5625 47.660156 18.792969 49.636719 19.078125 49.722656 C 19.363281 49.808594 19.507812 47.691406 19.507812 47.691406 L 18.5625 47.660156 " fill-opacity="1" fill-rule="nonzero"/><path fill="#e8e5c0" d="M 19.507812 47.691406 L 18.90625 47.671875 C 19.046875 48.046875 19.289062 48.871094 19.101562 49.726562 C 19.371094 49.699219 19.507812 47.691406 19.507812 47.691406 " fill-opacity="1" fill-rule="nonzero"/><path fill="#faf8d8" d="M 19.851562 47.777344 C 19.851562 47.777344 20.078125 49.753906 20.367188 49.839844 C 20.652344 49.925781 20.792969 47.804688 20.792969 47.804688 L 19.851562 47.777344 " fill-opacity="1" fill-rule="nonzero"/><path fill="#e8e5c0" d="M 20.792969 47.804688 L 20.195312 47.785156 C 20.335938 48.160156 20.574219 48.988281 20.386719 49.839844 C 20.660156 49.8125 20.792969 47.804688 20.792969 47.804688 " fill-opacity="1" fill-rule="nonzero"/><path fill="#faf8d8" d="M 21.109375 47.574219 C 21.109375 47.574219 21.335938 49.550781 21.625 49.636719 C 21.910156 49.722656 22.054688 47.605469 22.054688 47.605469 L 21.109375 47.574219 " fill-opacity="1" fill-rule="nonzero"/><path fill="#e8e5c0" d="M 22.054688 47.605469 L 21.453125 47.585938 C 21.59375 47.960938 21.832031 48.785156 21.644531 49.640625 C 21.917969 49.609375 22.054688 47.605469 22.054688 47.605469 " fill-opacity="1" fill-rule="nonzero"/><path fill="#faf8d8" d="M 22.054688 47.433594 C 22.054688 47.433594 22.28125 49.410156 22.566406 49.496094 C 22.855469 49.582031 22.996094 47.460938 22.996094 47.460938 L 22.054688 47.433594 " fill-opacity="1" fill-rule="nonzero"/><path fill="#e8e5c0" d="M 22.996094 47.460938 L 22.398438 47.441406 C 22.535156 47.816406 22.777344 48.644531 22.589844 49.496094 C 22.859375 49.46875 22.996094 47.460938 22.996094 47.460938 " fill-opacity="1" fill-rule="nonzero"/><path fill="#faf8d8" d="M 22.855469 47.003906 C 22.855469 47.003906 23.082031 48.980469 23.367188 49.066406 C 23.65625 49.152344 23.796875 47.03125 23.796875 47.03125 L 22.855469 47.003906 " fill-opacity="1" fill-rule="nonzero"/><path fill="#e8e5c0" d="M 23.796875 47.03125 L 23.199219 47.011719 C 23.335938 47.386719 23.578125 48.214844 23.390625 49.066406 C 23.664062 49.039062 23.796875 47.03125 23.796875 47.03125 " fill-opacity="1" fill-rule="nonzero"/><path fill="#faf8d8" d="M 15.871094 54.019531 C 15.871094 54.019531 16.101562 52.042969 16.386719 51.953125 C 16.671875 51.867188 16.816406 53.988281 16.816406 53.988281 L 15.871094 54.019531 " fill-opacity="1" fill-rule="nonzero"/><path fill="#e8e5c0" d="M 16.816406 53.988281 L 16.214844 54.007812 C 16.355469 53.632812 16.59375 52.804688 16.410156 51.953125 C 16.679688 51.980469 16.816406 53.988281 16.816406 53.988281 " fill-opacity="1" fill-rule="nonzero"/><path fill="#faf8d8" d="M 17.300781 54.019531 C 17.300781 54.019531 17.53125 52.042969 17.816406 51.953125 C 18.101562 51.867188 18.246094 53.988281 18.246094 53.988281 L 17.300781 54.019531 " fill-opacity="1" fill-rule="nonzero"/><path fill="#e8e5c0" d="M 18.246094 53.988281 L 17.648438 54.007812 C 17.785156 53.632812 18.027344 52.804688 17.839844 51.953125 C 18.109375 51.980469 18.246094 53.988281 18.246094 53.988281 " fill-opacity="1" fill-rule="nonzero"/><path fill="#faf8d8" d="M 19.191406 53.953125 C 19.191406 53.953125 18.78125 52.007812 19.027344 51.832031 C 19.269531 51.660156 20.078125 53.625 20.078125 53.625 L 19.191406 53.953125 " fill-opacity="1" fill-rule="nonzero"/><path fill="#e8e5c0" d="M 20.078125 53.625 L 19.515625 53.832031 C 19.527344 53.433594 19.492188 52.574219 19.046875 51.824219 C 19.3125 51.765625 20.078125 53.625 20.078125 53.625 " fill-opacity="1" fill-rule="nonzero"/><path fill="#faf8d8" d="M 20.625 53.667969 C 20.625 53.667969 20.210938 51.71875 20.457031 51.546875 C 20.699219 51.375 21.507812 53.339844 21.507812 53.339844 L 20.625 53.667969 " fill-opacity="1" fill-rule="nonzero"/><path fill="#e8e5c0" d="M 21.507812 53.339844 L 20.945312 53.546875 C 20.957031 53.148438 20.925781 52.289062 20.476562 51.539062 C 20.742188 51.476562 21.507812 53.339844 21.507812 53.339844 " fill-opacity="1" fill-rule="nonzero"/><path fill="#faf8d8" d="M 21.507812 53.265625 C 21.507812 53.265625 21.097656 51.316406 21.34375 51.144531 C 21.585938 50.972656 22.394531 52.9375 22.394531 52.9375 L 21.507812 53.265625 " fill-opacity="1" fill-rule="nonzero"/><path fill="#e8e5c0" d="M 22.394531 52.9375 L 21.832031 53.144531 C 21.84375 52.746094 21.8125 51.886719 21.363281 51.136719 C 21.628906 51.078125 22.394531 52.9375 22.394531 52.9375 " fill-opacity="1" fill-rule="nonzero"/><path fill="#faf8d8" d="M 22.308594 52.550781 C 22.308594 52.550781 21.898438 50.601562 22.144531 50.429688 C 22.386719 50.257812 23.195312 52.222656 23.195312 52.222656 L 22.308594 52.550781 " fill-opacity="1" fill-rule="nonzero"/><path fill="#e8e5c0" d="M 23.195312 52.222656 L 22.632812 52.429688 C 22.644531 52.027344 22.613281 51.167969 22.164062 50.421875 C 22.429688 50.359375 23.195312 52.222656 23.195312 52.222656 " fill-opacity="1" fill-rule="nonzero"/><path fill="#faf8d8" d="M 23.109375 52.148438 C 23.109375 52.148438 22.699219 50.199219 22.945312 50.027344 C 23.1875 49.855469 23.996094 51.820312 23.996094 51.820312 L 23.109375 52.148438 " fill-opacity="1" fill-rule="nonzero"/><path fill="#e8e5c0" d="M 23.996094 51.820312 L 23.433594 52.027344 C 23.445312 51.628906 23.414062 50.769531 22.964844 50.019531 C 23.230469 49.960938 23.996094 51.820312 23.996094 51.820312 " fill-opacity="1" fill-rule="nonzero"/><path fill="#2e1617" d="M 14.675781 53.335938 C 14.675781 53.335938 18.105469 53.507812 20.507812 52.417969 C 22.910156 51.328125 24.570312 48.980469 23.941406 47.488281 C 23.3125 46 25.542969 45.886719 25.714844 45.828125 C 25.886719 45.769531 29.089844 48.0625 28 49.4375 C 26.914062 50.8125 26.742188 53.507812 23.769531 54.023438 C 20.792969 54.539062 17.878906 54.539062 16.90625 54.308594 C 15.933594 54.078125 15.304688 53.792969 15.304688 53.792969 L 14.675781 53.335938 " fill-opacity="1" fill-rule="nonzero"/><path fill="#79816a" d="M 85.328125 93.289062 C 85.15625 92.847656 84.414062 92.332031 83.652344 92.257812 C 82.886719 92.179688 82.066406 94.242188 82.296875 94.433594 C 82.527344 94.625 83.515625 93.535156 83.765625 93.804688 C 84.011719 94.070312 84.316406 94.585938 84.945312 94.375 C 85.578125 94.167969 85.5 93.726562 85.328125 93.289062 " fill-opacity="1" fill-rule="nonzero"/><path fill="#6f7660" d="M 84.945312 94.375 C 85.15625 94.304688 85.285156 94.210938 85.363281 94.097656 C 84.773438 93.898438 84.199219 93.132812 83.671875 93 C 83.160156 92.875 82.53125 94.039062 82.304688 94.4375 C 82.542969 94.605469 83.519531 93.539062 83.765625 93.804688 C 84.011719 94.070312 84.316406 94.585938 84.945312 94.375 " fill-opacity="1" fill-rule="nonzero"/><path fill="#b4baa2" d="M 82.992188 93.058594 C 82.992188 93.058594 83.25 92.589844 83.59375 92.648438 C 83.9375 92.703125 84.347656 93.039062 84.402344 92.933594 C 84.460938 92.828125 83.878906 92.53125 83.496094 92.484375 C 83.117188 92.4375 82.992188 93.058594 82.992188 93.058594 " fill-opacity="1" fill-rule="nonzero"/><path fill="#79816a" d="M 92.8125 95.285156 C 92.984375 94.84375 93.726562 94.328125 94.492188 94.253906 C 95.253906 94.175781 96.074219 96.238281 95.84375 96.429688 C 95.617188 96.621094 94.625 95.53125 94.375 95.800781 C 94.128906 96.066406 93.824219 96.582031 93.195312 96.371094 C 92.566406 96.164062 92.640625 95.722656 92.8125 95.285156 " fill-opacity="1" fill-rule="nonzero"/><path fill="#6f7660" d="M 93.195312 96.371094 C 92.984375 96.304688 92.855469 96.207031 92.777344 96.09375 C 93.371094 95.894531 93.941406 95.128906 94.472656 94.996094 C 94.980469 94.871094 95.613281 96.035156 95.835938 96.433594 C 95.597656 96.601562 94.621094 95.535156 94.375 95.800781 C 94.128906 96.066406 93.824219 96.582031 93.195312 96.371094 " fill-opacity="1" fill-rule="nonzero"/><path fill="#b4baa2" d="M 95.148438 95.054688 C 95.148438 95.054688 94.890625 94.585938 94.546875 94.644531 C 94.203125 94.703125 93.792969 95.035156 93.738281 94.929688 C 93.679688 94.824219 94.261719 94.527344 94.644531 94.480469 C 95.023438 94.433594 95.148438 95.054688 95.148438 95.054688 " fill-opacity="1" fill-rule="nonzero"/><path fill="#88a737" d="M 63.695312 66.574219 C 63.695312 66.574219 64.039062 78.265625 70.675781 81.585938 C 77.308594 84.910156 83.257812 83.878906 84.519531 85.140625 C 85.777344 86.402344 86.460938 91.789062 86.347656 92.589844 C 86.234375 93.394531 83.832031 92.820312 83.832031 94.195312 C 83.832031 95.570312 86.347656 98.320312 88.292969 97.519531 C 90.238281 96.71875 87.722656 96.371094 91.269531 96.945312 C 94.816406 97.519531 95.730469 96.945312 93.097656 93.964844 C 90.46875 90.984375 88.179688 86.515625 88.066406 83.765625 C 87.949219 81.015625 84.976562 80.441406 82.800781 80.441406 C 80.628906 80.441406 79.140625 76.886719 76.050781 75.972656 C 72.964844 75.054688 79.484375 64.28125 76.28125 60.269531 C 73.078125 56.257812 63.695312 66.574219 63.695312 66.574219 " fill-opacity="1" fill-rule="nonzero"/><path fill="#f25166" d="M 24.769531 47.863281 C 24.769531 47.863281 24.625 50.5 23.140625 51.328125 C 21.652344 52.160156 19.679688 53.507812 20.078125 53.992188 C 20.480469 54.480469 24.625 53.820312 24.714844 53.707031 C 24.800781 53.59375 26.714844 50.957031 26.742188 50.582031 C 26.773438 50.210938 26.113281 47.546875 26.113281 47.546875 L 24.769531 47.863281 " fill-opacity="1" fill-rule="nonzero"/><path fill="#f47083" d="M 23.3125 47.546875 C 23.3125 47.546875 26.113281 48.691406 25.714844 50.066406 C 25.3125 51.445312 26.859375 47.375 26.859375 47.203125 C 26.859375 47.03125 25.371094 44.566406 25.371094 44.566406 L 23.3125 47.546875 " fill-opacity="1" fill-rule="nonzero"/><path fill="#faf8d8" d="M 15.304688 47.488281 C 15.304688 47.488281 15.53125 49.464844 15.816406 49.550781 C 16.105469 49.636719 16.246094 47.519531 16.246094 47.519531 L 15.304688 47.488281 " fill-opacity="1" fill-rule="nonzero"/><path fill="#e8e5c0" d="M 16.246094 47.519531 L 15.648438 47.5 C 15.785156 47.875 16.027344 48.699219 15.839844 49.554688 C 16.109375 49.527344 16.246094 47.519531 16.246094 47.519531 " fill-opacity="1" fill-rule="nonzero"/><path fill="#faf8d8" d="M 17.90625 47.863281 C 17.90625 47.863281 18.132812 49.839844 18.421875 49.925781 C 18.707031 50.011719 18.847656 47.890625 18.847656 47.890625 L 17.90625 47.863281 " fill-opacity="1" fill-rule="nonzero"/><path fill="#e8e5c0" d="M 18.847656 47.890625 L 18.25 47.871094 C 18.390625 48.246094 18.628906 49.074219 18.441406 49.925781 C 18.714844 49.898438 18.847656 47.890625 18.847656 47.890625 " fill-opacity="1" fill-rule="nonzero"/><path fill="#faf8d8" d="M 19.078125 47.863281 C 19.078125 47.863281 19.308594 49.839844 19.59375 49.925781 C 19.878906 50.011719 20.023438 47.890625 20.023438 47.890625 L 19.078125 47.863281 " fill-opacity="1" fill-rule="nonzero"/><path fill="#e8e5c0" d="M 20.023438 47.890625 L 19.421875 47.871094 C 19.5625 48.246094 19.800781 49.074219 19.617188 49.925781 C 19.886719 49.898438 20.023438 47.890625 20.023438 47.890625 " fill-opacity="1" fill-rule="nonzero"/><path fill="#faf8d8" d="M 20.335938 48.117188 C 20.335938 48.117188 21.023438 49.984375 21.320312 50 C 21.621094 50.015625 21.261719 47.921875 21.261719 47.921875 L 20.335938 48.117188 " fill-opacity="1" fill-rule="nonzero"/><path fill="#e8e5c0" d="M 21.261719 47.921875 L 20.671875 48.046875 C 20.898438 48.378906 21.324219 49.125 21.34375 49.996094 C 21.601562 49.90625 21.261719 47.921875 21.261719 47.921875 " fill-opacity="1" fill-rule="nonzero"/><path fill="#faf8d8" d="M 21.222656 47.800781 C 21.222656 47.800781 21.910156 49.667969 22.207031 49.683594 C 22.507812 49.699219 22.148438 47.605469 22.148438 47.605469 L 21.222656 47.800781 " fill-opacity="1" fill-rule="nonzero"/><path fill="#e8e5c0" d="M 22.148438 47.605469 L 21.558594 47.730469 C 21.785156 48.0625 22.210938 48.808594 22.230469 49.679688 C 22.488281 49.589844 22.148438 47.605469 22.148438 47.605469 " fill-opacity="1" fill-rule="nonzero"/><path fill="#faf8d8" d="M 22.136719 47.515625 C 22.136719 47.515625 22.824219 49.382812 23.125 49.398438 C 23.421875 49.414062 23.0625 47.320312 23.0625 47.320312 L 22.136719 47.515625 " fill-opacity="1" fill-rule="nonzero"/><path fill="#e8e5c0" d="M 23.0625 47.320312 L 22.472656 47.445312 C 22.699219 47.777344 23.125 48.523438 23.144531 49.394531 C 23.402344 49.304688 23.0625 47.320312 23.0625 47.320312 " fill-opacity="1" fill-rule="nonzero"/><path fill="#faf8d8" d="M 22.679688 46.886719 C 22.679688 46.886719 23.371094 48.753906 23.667969 48.769531 C 23.964844 48.785156 23.605469 46.691406 23.605469 46.691406 L 22.679688 46.886719 " fill-opacity="1" fill-rule="nonzero"/><path fill="#e8e5c0" d="M 23.605469 46.691406 L 23.019531 46.8125 C 23.242188 47.144531 23.667969 47.890625 23.6875 48.765625 C 23.945312 48.671875 23.605469 46.691406 23.605469 46.691406 " fill-opacity="1" fill-rule="nonzero"/><path fill="#faf8d8" d="M 15.386719 54.335938 C 15.386719 54.335938 15.5 52.351562 15.78125 52.25 C 16.0625 52.144531 16.328125 54.253906 16.328125 54.253906 L 15.386719 54.335938 " fill-opacity="1" fill-rule="nonzero"/><path fill="#e8e5c0" d="M 16.328125 54.253906 L 15.730469 54.304688 C 15.847656 53.921875 16.039062 53.085938 15.804688 52.246094 C 16.074219 52.257812 16.328125 54.253906 16.328125 54.253906 " fill-opacity="1" fill-rule="nonzero"/><path fill="#faf8d8" d="M 16.617188 54.421875 C 16.617188 54.421875 16.730469 52.4375 17.011719 52.332031 C 17.292969 52.230469 17.558594 54.339844 17.558594 54.339844 L 16.617188 54.421875 " fill-opacity="1" fill-rule="nonzero"/><path fill="#e8e5c0" d="M 17.558594 54.339844 L 16.960938 54.394531 C 17.078125 54.011719 17.269531 53.171875 17.035156 52.332031 C 17.304688 52.34375 17.558594 54.339844 17.558594 54.339844 " fill-opacity="1" fill-rule="nonzero"/><path fill="#faf8d8" d="M 18.019531 54.421875 C 18.019531 54.421875 18.132812 52.4375 18.414062 52.332031 C 18.691406 52.230469 18.960938 54.339844 18.960938 54.339844 L 18.019531 54.421875 " fill-opacity="1" fill-rule="nonzero"/><path fill="#e8e5c0" d="M 18.960938 54.339844 L 18.363281 54.394531 C 18.480469 54.011719 18.671875 53.171875 18.433594 52.332031 C 18.707031 52.34375 18.960938 54.339844 18.960938 54.339844 " fill-opacity="1" fill-rule="nonzero"/><path fill="#faf8d8" d="M 19.707031 54.222656 C 19.707031 54.222656 19.820312 52.234375 20.101562 52.132812 C 20.378906 52.03125 20.648438 54.140625 20.648438 54.140625 L 19.707031 54.222656 " fill-opacity="1" fill-rule="nonzero"/><path fill="#e8e5c0" d="M 20.648438 54.140625 L 20.050781 54.191406 C 20.167969 53.808594 20.359375 52.96875 20.121094 52.128906 C 20.394531 52.140625 20.648438 54.140625 20.648438 54.140625 " fill-opacity="1" fill-rule="nonzero"/><path fill="#faf8d8" d="M 21.457031 54.199219 C 21.457031 54.199219 20.894531 52.289062 21.125 52.097656 C 21.351562 51.90625 22.3125 53.800781 22.3125 53.800781 L 21.457031 54.199219 " fill-opacity="1" fill-rule="nonzero"/><path fill="#e8e5c0" d="M 22.3125 53.800781 L 21.769531 54.054688 C 21.75 53.652344 21.648438 52.796875 21.144531 52.085938 C 21.40625 52.007812 22.3125 53.800781 22.3125 53.800781 " fill-opacity="1" fill-rule="nonzero"/><path fill="#faf8d8" d="M 22.714844 53.539062 C 22.714844 53.539062 22.152344 51.628906 22.382812 51.4375 C 22.613281 51.246094 23.574219 53.140625 23.574219 53.140625 L 22.714844 53.539062 " fill-opacity="1" fill-rule="nonzero"/><path fill="#e8e5c0" d="M 23.574219 53.140625 L 23.027344 53.394531 C 23.007812 52.992188 22.90625 52.140625 22.402344 51.429688 C 22.664062 51.347656 23.574219 53.140625 23.574219 53.140625 " fill-opacity="1" fill-rule="nonzero"/><path fill="#faf8d8" d="M 24.230469 52.558594 C 24.230469 52.558594 23.132812 50.898438 23.296875 50.648438 C 23.460938 50.398438 24.933594 51.925781 24.933594 51.925781 L 24.230469 52.558594 " fill-opacity="1" fill-rule="nonzero"/><path fill="#e8e5c0" d="M 24.933594 51.925781 L 24.488281 52.328125 C 24.351562 51.953125 24.003906 51.164062 23.3125 50.632812 C 23.539062 50.480469 24.933594 51.925781 24.933594 51.925781 " fill-opacity="1" fill-rule="nonzero"/><path fill="#faf8d8" d="M 25.261719 51.351562 C 25.261719 51.351562 23.703125 50.121094 23.78125 49.832031 C 23.855469 49.542969 25.734375 50.53125 25.734375 50.53125 L 25.261719 51.351562 " fill-opacity="1" fill-rule="nonzero"/><path fill="#e8e5c0" d="M 25.734375 50.53125 L 25.433594 51.054688 C 25.1875 50.738281 24.613281 50.101562 23.789062 49.8125 C 23.957031 49.59375 25.734375 50.53125 25.734375 50.53125 " fill-opacity="1" fill-rule="nonzero"/><path fill="#faf8d8" d="M 25.949219 50.691406 C 25.949219 50.691406 24.390625 49.460938 24.464844 49.171875 C 24.542969 48.882812 26.421875 49.875 26.421875 49.875 L 25.949219 50.691406 " fill-opacity="1" fill-rule="nonzero"/><path fill="#e8e5c0" d="M 26.421875 49.875 L 26.121094 50.394531 C 25.875 50.078125 25.296875 49.441406 24.476562 49.152344 C 24.644531 48.9375 26.421875 49.875 26.421875 49.875 " fill-opacity="1" fill-rule="nonzero"/><path fill="#79816a" d="M 60.277344 84.347656 C 60.671875 84.089844 61.023438 83.253906 60.941406 82.492188 C 60.855469 81.726562 58.671875 81.347656 58.535156 81.613281 C 58.394531 81.875 59.660156 82.625 59.453125 82.921875 C 59.242188 83.21875 58.800781 83.625 59.136719 84.199219 C 59.46875 84.773438 59.882812 84.605469 60.277344 84.347656 " fill-opacity="1" fill-rule="nonzero"/><path fill="#6f7660" d="M 59.136719 84.199219 C 59.246094 84.390625 59.367188 84.496094 59.492188 84.546875 C 59.566406 83.929688 60.195312 83.210938 60.214844 82.664062 C 60.234375 82.136719 58.964844 81.757812 58.53125 81.621094 C 58.417969 81.890625 59.660156 82.625 59.453125 82.921875 C 59.242188 83.21875 58.800781 83.625 59.136719 84.199219 " fill-opacity="1" fill-rule="nonzero"/><path fill="#b4baa2" d="M 60.019531 82.011719 C 60.019531 82.011719 60.53125 82.167969 60.546875 82.515625 C 60.558594 82.863281 60.316406 83.335938 60.433594 83.367188 C 60.546875 83.402344 60.714844 82.773438 60.683594 82.386719 C 60.652344 82.003906 60.019531 82.011719 60.019531 82.011719 " fill-opacity="1" fill-rule="nonzero"/><path fill="#79816a" d="M 60.371094 85.34375 C 60.835938 85.40625 61.648438 85.003906 62.082031 84.371094 C 62.515625 83.738281 61.109375 82.023438 60.832031 82.132812 C 60.554688 82.242188 61.027344 83.636719 60.671875 83.722656 C 60.320312 83.8125 59.722656 83.832031 59.601562 84.484375 C 59.480469 85.136719 59.902344 85.285156 60.371094 85.34375 " fill-opacity="1" fill-rule="nonzero"/><path fill="#6f7660" d="M 59.601562 84.484375 C 59.5625 84.703125 59.582031 84.863281 59.644531 84.984375 C 60.105469 84.5625 61.050781 84.429688 61.421875 84.027344 C 61.777344 83.640625 61.0625 82.527344 60.824219 82.136719 C 60.5625 82.265625 61.023438 83.636719 60.671875 83.722656 C 60.320312 83.8125 59.722656 83.832031 59.601562 84.484375 " fill-opacity="1" fill-rule="nonzero"/><path fill="#b4baa2" d="M 61.699219 83.40625 C 61.699219 83.40625 61.980469 83.859375 61.765625 84.132812 C 61.550781 84.40625 61.0625 84.605469 61.125 84.703125 C 61.191406 84.804688 61.730469 84.4375 61.953125 84.125 C 62.179688 83.816406 61.699219 83.40625 61.699219 83.40625 " fill-opacity="1" fill-rule="nonzero"/><path fill="#829a34" d="M 60.78125 84.457031 C 60.78125 84.457031 60.441406 82.886719 59.515625 82.75 C 58.589844 82.613281 58.40625 84.355469 57.839844 85.273438 C 57.269531 86.191406 59.324219 85.726562 59.324219 85.726562 L 60.78125 84.457031 " fill-opacity="1" fill-rule="nonzero"/><path fill="#94b644" d="M 53.402344 85.101562 C 53.402344 85.101562 47.953125 79.492188 48.738281 78.128906 C 49.527344 76.761719 56.828125 72.441406 56.820312 70.054688 C 56.8125 67.664062 49.945312 62.953125 47.25 62.382812 C 44.550781 61.816406 41.570312 68.449219 45.628906 70.421875 C 49.6875 72.394531 50.886719 72.621094 50.886719 72.621094 C 50.886719 72.621094 46.988281 75.519531 46.449219 76.761719 C 45.910156 78.003906 49.730469 85.566406 52.730469 87.40625 C 55.730469 89.246094 59.871094 87.453125 60.496094 86.761719 C 61.121094 86.070312 61.207031 84.15625 60.195312 83.644531 C 59.183594 83.132812 58.71875 85 57.839844 85.273438 C 56.960938 85.550781 56.175781 85.683594 55.191406 85.558594 C 54.207031 85.433594 53.402344 85.101562 53.402344 85.101562 " fill-opacity="1" fill-rule="nonzero"/><path fill="#8aab38" d="M 43.730469 66.160156 C 47.144531 64.101562 54.6875 68.765625 54.46875 70.53125 C 54.234375 72.421875 48.839844 76.257812 47.996094 77.453125 C 47.148438 78.652344 49.539062 82.339844 51.230469 84.5 C 52.925781 86.65625 54.480469 86.488281 57.0625 86.222656 C 59.011719 86.023438 60.082031 84.566406 60.488281 83.863281 C 60.402344 83.777344 60.304688 83.703125 60.195312 83.644531 C 59.183594 83.132812 58.71875 85 57.839844 85.273438 C 56.960938 85.550781 56.175781 85.683594 55.191406 85.558594 C 54.207031 85.433594 53.402344 85.101562 53.402344 85.101562 C 53.402344 85.101562 47.953125 79.492188 48.738281 78.128906 C 49.527344 76.761719 56.828125 72.441406 56.820312 70.054688 C 56.8125 67.664062 49.945312 62.953125 47.25 62.382812 C 45.730469 62.0625 44.121094 64.03125 43.730469 66.160156 " fill-opacity="1" fill-rule="nonzero"/><path fill="#829a34" d="M 52 66.847656 C 52.503906 66.820312 52.9375 67.207031 52.964844 67.710938 C 52.996094 68.21875 52.609375 68.652344 52.105469 68.679688 C 51.601562 68.710938 51.167969 68.324219 51.136719 67.816406 C 51.109375 67.3125 51.492188 66.878906 52 66.847656 " fill-opacity="1" fill-rule="nonzero"/><path fill="#829a34" d="M 53.714844 68.433594 C 53.808594 68.425781 53.890625 68.5 53.894531 68.59375 C 53.902344 68.6875 53.828125 68.769531 53.734375 68.777344 C 53.640625 68.78125 53.558594 68.710938 53.554688 68.613281 C 53.546875 68.519531 53.621094 68.4375 53.714844 68.433594 " fill-opacity="1" fill-rule="nonzero"/><path fill="#829a34" d="M 51.792969 70.191406 C 51.949219 70.183594 52.085938 70.300781 52.09375 70.460938 C 52.105469 70.617188 51.984375 70.753906 51.824219 70.761719 C 51.667969 70.773438 51.53125 70.652344 51.523438 70.492188 C 51.515625 70.335938 51.632812 70.199219 51.792969 70.191406 " fill-opacity="1" fill-rule="nonzero"/><path fill="#829a34" d="M 49.589844 68.75 C 49.671875 68.746094 49.746094 68.808594 49.75 68.894531 C 49.753906 68.980469 49.691406 69.050781 49.605469 69.054688 C 49.523438 69.0625 49.449219 68.996094 49.445312 68.910156 C 49.441406 68.828125 49.503906 68.757812 49.589844 68.75 " fill-opacity="1" fill-rule="nonzero"/><path fill="#829a34" d="M 47.851562 66.785156 C 48.027344 66.777344 48.183594 66.914062 48.191406 67.089844 C 48.203125 67.269531 48.066406 67.421875 47.886719 67.433594 C 47.710938 67.445312 47.554688 67.308594 47.546875 67.128906 C 47.535156 66.949219 47.671875 66.796875 47.851562 66.785156 " fill-opacity="1" fill-rule="nonzero"/><path fill="#829a34" d="M 48.917969 65.421875 C 49.054688 65.414062 49.171875 65.519531 49.179688 65.65625 C 49.1875 65.792969 49.082031 65.910156 48.945312 65.917969 C 48.808594 65.925781 48.691406 65.820312 48.683594 65.683594 C 48.675781 65.546875 48.78125 65.429688 48.917969 65.421875 " fill-opacity="1" fill-rule="nonzero"/><path fill="#829a34" d="M 49.402344 74.769531 C 49.550781 74.761719 49.679688 74.875 49.6875 75.019531 C 49.695312 75.167969 49.582031 75.296875 49.433594 75.304688 C 49.289062 75.3125 49.160156 75.199219 49.152344 75.054688 C 49.144531 74.90625 49.257812 74.777344 49.402344 74.769531 " fill-opacity="1" fill-rule="nonzero"/><path fill="#829a34" d="M 48.140625 79.667969 C 48.257812 79.660156 48.355469 79.746094 48.363281 79.863281 C 48.371094 79.980469 48.28125 80.078125 48.167969 80.085938 C 48.050781 80.09375 47.953125 80.003906 47.945312 79.886719 C 47.9375 79.773438 48.027344 79.671875 48.140625 79.667969 " fill-opacity="1" fill-rule="nonzero"/><path fill="#829a34" d="M 48.554688 81.171875 C 48.574219 81.171875 48.59375 81.1875 48.59375 81.207031 C 48.597656 81.230469 48.582031 81.246094 48.558594 81.25 C 48.539062 81.25 48.519531 81.234375 48.519531 81.210938 C 48.519531 81.191406 48.535156 81.171875 48.554688 81.171875 " fill-opacity="1" fill-rule="nonzero"/><path fill="#829a34" d="M 49.230469 80.636719 C 49.324219 80.628906 49.40625 80.703125 49.410156 80.796875 C 49.417969 80.890625 49.34375 80.972656 49.25 80.980469 C 49.15625 80.984375 49.074219 80.914062 49.070312 80.816406 C 49.0625 80.722656 49.136719 80.640625 49.230469 80.636719 " fill-opacity="1" fill-rule="nonzero"/><path fill="#829a34" d="M 49.507812 82.761719 C 49.644531 82.753906 49.761719 82.859375 49.769531 82.996094 C 49.777344 83.132812 49.671875 83.25 49.535156 83.257812 C 49.398438 83.265625 49.28125 83.160156 49.273438 83.023438 C 49.265625 82.886719 49.371094 82.769531 49.507812 82.761719 " fill-opacity="1" fill-rule="nonzero"/><path fill="#829a34" d="M 48.488281 80.984375 C 48.601562 80.980469 48.703125 81.066406 48.707031 81.183594 C 48.714844 81.296875 48.628906 81.398438 48.511719 81.40625 C 48.394531 81.410156 48.296875 81.324219 48.289062 81.207031 C 48.28125 81.089844 48.371094 80.992188 48.488281 80.984375 " fill-opacity="1" fill-rule="nonzero"/><g clip-path="url(#7b82073cf5)"><path fill="#a4c34e" d="M 31.949219 42.273438 C 31.949219 42.273438 31.207031 39.925781 28.175781 39.695312 C 25.140625 39.464844 24.457031 41.527344 24.457031 41.527344 C 24.457031 41.527344 19.019531 42.332031 15.875 44.109375 C 12.730469 45.886719 11.527344 47.144531 12.097656 48.121094 C 12.671875 49.09375 15.359375 47.949219 18.734375 49.09375 C 22.109375 50.238281 25.429688 46.628906 25.429688 46.628906 C 25.429688 46.628906 25.085938 51.902344 21.824219 53.105469 C 18.5625 54.308594 14.675781 53.335938 14.675781 53.335938 C 14.675781 53.335938 15.074219 54.996094 17.417969 55.511719 C 19.765625 56.027344 25.941406 55.054688 28.058594 53.90625 C 30.175781 52.761719 36.011719 54.480469 38.070312 61.875 C 40.128906 69.265625 39.214844 71.617188 49.96875 72.820312 C 60.722656 74.023438 70.617188 74.941406 77.425781 66.800781 C 84.230469 58.664062 94.699219 58.605469 102.878906 43.707031 C 111.058594 28.808594 113.75 20.097656 123.53125 17.804688 C 133.3125 15.511719 138.460938 14.710938 134.285156 14.136719 C 130.109375 13.5625 117.179688 11.214844 104.996094 29.667969 C 92.8125 48.121094 74.566406 51.789062 65.070312 52.074219 C 55.574219 52.359375 49.796875 54.078125 45.847656 55.855469 C 41.902344 57.632812 40.816406 53.390625 39.558594 47.546875 C 38.296875 41.699219 31.949219 42.273438 31.949219 42.273438 " fill-opacity="1" fill-rule="nonzero"/></g><path fill="#d3e77f" d="M 135.703125 14.511719 C 131.378906 14.066406 120.121094 13.929688 112.320312 23.019531 C 102.480469 34.480469 99.277344 48.464844 91.039062 52.132812 C 82.800781 55.800781 68.003906 55.644531 68.539062 65.921875 C 68.652344 68.128906 69.683594 70.011719 71.238281 71.601562 C 73.5 70.554688 75.578125 69.011719 77.425781 66.800781 C 84.230469 58.664062 94.699219 58.605469 102.878906 43.707031 C 111.058594 28.808594 113.75 20.097656 123.53125 17.804688 C 131.378906 15.964844 136.242188 15.085938 135.703125 14.511719 " fill-opacity="1" fill-rule="nonzero"/><path fill="#489496" d="M 98.101562 38.074219 C 86.675781 49.300781 72.898438 51.835938 65.070312 52.074219 C 55.574219 52.359375 49.796875 54.078125 45.847656 55.855469 C 41.902344 57.632812 40.816406 53.390625 39.558594 47.546875 C 38.691406 43.527344 35.417969 42.542969 33.457031 42.320312 C 34.855469 43.167969 37.382812 45.25 38.71875 49.6875 C 40.625 56.027344 40.703125 59.390625 48.710938 57.175781 C 56.71875 54.957031 62.820312 53.890625 72.429688 52.359375 C 81.050781 50.988281 94.761719 45.4375 98.101562 38.074219 " fill-opacity="1" fill-rule="nonzero"/><path fill="#d3e77f" d="M 65.730469 73.230469 C 65.738281 72.058594 64.65625 70.765625 59.808594 70.699219 C 51.339844 70.585938 43.789062 70.125 41.84375 64.625 C 40.789062 61.636719 38.722656 60.035156 37.054688 59.195312 C 37.449219 59.992188 37.792969 60.882812 38.070312 61.875 C 40.128906 69.265625 39.214844 71.617188 49.96875 72.820312 C 55.558594 73.445312 60.914062 73.992188 65.730469 73.230469 " fill-opacity="1" fill-rule="nonzero"/><path fill="#819a2d" d="M 83.832031 94.195312 C 83.832031 95.523438 86.183594 98.136719 88.097656 97.585938 C 86.847656 95.996094 87.46875 93.246094 87.378906 92.703125 C 87.265625 92.019531 87.035156 86.972656 85.546875 84.683594 C 84.058594 82.390625 77.195312 85.253906 73.421875 81.359375 C 70.867188 78.722656 73.496094 74.671875 75.464844 72.324219 C 76.253906 68.5625 78.40625 62.929688 76.28125 60.269531 C 73.078125 56.257812 63.695312 66.574219 63.695312 66.574219 C 63.695312 66.574219 64.039062 78.265625 70.675781 81.585938 C 77.308594 84.910156 83.257812 83.878906 84.519531 85.140625 C 85.777344 86.402344 86.460938 91.789062 86.347656 92.589844 C 86.234375 93.394531 83.832031 92.820312 83.832031 94.195312 " fill-opacity="1" fill-rule="nonzero"/><path fill="#718e29" d="M 72.964844 76.515625 C 72.964844 76.65625 72.847656 76.773438 72.707031 76.773438 C 72.5625 76.773438 72.449219 76.65625 72.449219 76.515625 C 72.449219 76.371094 72.5625 76.257812 72.707031 76.257812 C 72.847656 76.257812 72.964844 76.371094 72.964844 76.515625 " fill-opacity="1" fill-rule="nonzero"/><path fill="#faf8d8" d="M 13.042969 47.574219 C 13.042969 47.574219 13.273438 49.550781 13.558594 49.636719 C 13.84375 49.722656 13.988281 47.605469 13.988281 47.605469 L 13.042969 47.574219 " fill-opacity="1" fill-rule="nonzero"/><path fill="#e8e5c0" d="M 13.988281 47.605469 L 13.386719 47.585938 C 13.527344 47.960938 13.765625 48.785156 13.582031 49.640625 C 13.851562 49.609375 13.988281 47.605469 13.988281 47.605469 " fill-opacity="1" fill-rule="nonzero"/><path fill="#faf8d8" d="M 14.101562 47.574219 C 14.101562 47.574219 14.332031 49.550781 14.617188 49.636719 C 14.902344 49.722656 15.046875 47.605469 15.046875 47.605469 L 14.101562 47.574219 " fill-opacity="1" fill-rule="nonzero"/><path fill="#e8e5c0" d="M 15.046875 47.605469 L 14.445312 47.585938 C 14.585938 47.960938 14.824219 48.785156 14.640625 49.640625 C 14.910156 49.609375 15.046875 47.605469 15.046875 47.605469 " fill-opacity="1" fill-rule="nonzero"/><path fill="#faf8d8" d="M 16.648438 47.777344 C 16.648438 47.777344 16.875 49.753906 17.164062 49.839844 C 17.449219 49.925781 17.589844 47.804688 17.589844 47.804688 L 16.648438 47.777344 " fill-opacity="1" fill-rule="nonzero"/><path fill="#e8e5c0" d="M 17.589844 47.804688 L 16.992188 47.785156 C 17.128906 48.160156 17.371094 48.988281 17.183594 49.839844 C 17.457031 49.8125 17.589844 47.804688 17.589844 47.804688 " fill-opacity="1" fill-rule="nonzero"/><path fill="#718e29" d="M 74.851562 78.003906 C 74.851562 78.242188 74.660156 78.4375 74.421875 78.4375 C 74.183594 78.4375 73.992188 78.242188 73.992188 78.003906 C 73.992188 77.769531 74.183594 77.574219 74.421875 77.574219 C 74.660156 77.574219 74.851562 77.769531 74.851562 78.003906 " fill-opacity="1" fill-rule="nonzero"/><path fill="#718e29" d="M 76.050781 79.523438 C 76.050781 79.652344 75.949219 79.753906 75.824219 79.753906 C 75.695312 79.753906 75.59375 79.652344 75.59375 79.523438 C 75.59375 79.398438 75.695312 79.296875 75.824219 79.296875 C 75.949219 79.296875 76.050781 79.398438 76.050781 79.523438 " fill-opacity="1" fill-rule="nonzero"/><path fill="#718e29" d="M 74.277344 79.667969 C 74.277344 79.777344 74.1875 79.867188 74.078125 79.867188 C 73.96875 79.867188 73.878906 79.777344 73.878906 79.667969 C 73.878906 79.558594 73.96875 79.46875 74.078125 79.46875 C 74.1875 79.46875 74.277344 79.558594 74.277344 79.667969 " fill-opacity="1" fill-rule="nonzero"/><path fill="#718e29" d="M 78.683594 81.5 C 78.683594 81.929688 78.339844 82.273438 77.910156 82.273438 C 77.484375 82.273438 77.140625 81.929688 77.140625 81.5 C 77.140625 81.074219 77.484375 80.726562 77.910156 80.726562 C 78.339844 80.726562 78.683594 81.074219 78.683594 81.5 " fill-opacity="1" fill-rule="nonzero"/><path fill="#b5d161" d="M 84.574219 81.359375 C 84.574219 81.359375 86.460938 81.53125 86.921875 83.308594 C 87.378906 85.082031 87.265625 82.445312 86.578125 81.816406 C 85.890625 81.1875 84.574219 81.359375 84.574219 81.359375 " fill-opacity="1" fill-rule="nonzero"/><path fill="#4b5720" d="M 54.910156 53.097656 C 54.984375 54.960938 54.875 56.925781 54.429688 58.777344 C 52.976562 64.804688 58.484375 58.773438 59.183594 52.472656 C 57.636719 52.640625 56.21875 52.851562 54.910156 53.097656 " fill-opacity="1" fill-rule="nonzero"/><path fill="#4b5720" d="M 40.234375 50.503906 C 38.730469 52.207031 37.265625 54.074219 37.496094 54.652344 C 37.789062 55.378906 39.460938 53.796875 40.820312 52.546875 C 40.609375 51.921875 40.417969 51.238281 40.234375 50.503906 " fill-opacity="1" fill-rule="nonzero"/><path fill="#4b5720" d="M 37.324219 43.804688 C 35.195312 45.710938 32.863281 48.042969 33.378906 48.691406 C 34.015625 49.488281 36.53125 46.742188 38.621094 45.222656 C 38.246094 44.644531 37.800781 44.179688 37.324219 43.804688 " fill-opacity="1" fill-rule="nonzero"/><path fill="#4b5720" d="M 95.84375 42.273438 C 96.375 43.871094 96.445312 42.226562 96.097656 39.9375 C 95.800781 40.195312 95.507812 40.449219 95.210938 40.695312 C 95.488281 41.332031 95.710938 41.875 95.84375 42.273438 " fill-opacity="1" fill-rule="nonzero"/><path fill="#4b5720" d="M 75.199219 50.6875 C 75.21875 50.789062 75.234375 50.890625 75.25 50.984375 C 75.816406 54.199219 76.851562 53.980469 77.066406 50.199219 C 76.4375 50.378906 75.8125 50.539062 75.199219 50.6875 " fill-opacity="1" fill-rule="nonzero"/><path fill="#4b5720" d="M 68.480469 51.84375 C 67.757812 51.917969 67.066406 51.972656 66.40625 52.011719 C 66.378906 52.203125 66.355469 52.394531 66.328125 52.589844 C 65.234375 60.246094 67.476562 59.132812 68.480469 51.84375 " fill-opacity="1" fill-rule="nonzero"/><path fill="#4b5720" d="M 84.371094 47.523438 C 83.726562 47.820312 83.082031 48.097656 82.445312 48.355469 C 82.617188 49.339844 82.75 50.191406 82.800781 50.753906 C 82.988281 52.828125 84.105469 51.03125 84.371094 47.523438 " fill-opacity="1" fill-rule="nonzero"/><path fill="#4b5720" d="M 45.847656 55.855469 C 45.554688 55.988281 45.277344 56.085938 45.011719 56.15625 C 44.992188 57.070312 45 58.101562 45.046875 59.238281 C 45.210938 63.003906 47.242188 59.167969 48.390625 54.832031 C 47.464844 55.164062 46.621094 55.507812 45.847656 55.855469 " fill-opacity="1" fill-rule="nonzero"/><path fill="#4b5720" d="M 89.894531 47.777344 C 91.066406 51.097656 91.902344 48.917969 90.847656 43.941406 C 90.207031 44.363281 89.5625 44.765625 88.921875 45.144531 C 89.285156 46.09375 89.621094 47 89.894531 47.777344 " fill-opacity="1" fill-rule="nonzero"/><path fill="#79816a" d="M 35.761719 85.527344 C 36.167969 85.765625 37.070312 85.707031 37.714844 85.292969 C 38.363281 84.878906 37.726562 82.753906 37.429688 82.746094 C 37.132812 82.738281 37.027344 84.207031 36.667969 84.152344 C 36.308594 84.09375 35.75 83.878906 35.386719 84.4375 C 35.023438 84.992188 35.355469 85.289062 35.761719 85.527344 " fill-opacity="1" fill-rule="nonzero"/><path fill="#6f7660" d="M 35.386719 84.4375 C 35.265625 84.621094 35.222656 84.777344 35.234375 84.910156 C 35.820312 84.703125 36.742188 84.945312 37.242188 84.722656 C 37.71875 84.503906 37.492188 83.199219 37.421875 82.746094 C 37.132812 82.761719 37.027344 84.207031 36.667969 84.152344 C 36.308594 84.09375 35.75 83.878906 35.386719 84.4375 " fill-opacity="1" fill-rule="nonzero"/><path fill="#b4baa2" d="M 37.734375 84.257812 C 37.734375 84.257812 37.824219 84.78125 37.519531 84.953125 C 37.214844 85.121094 36.683594 85.113281 36.707031 85.230469 C 36.726562 85.347656 37.363281 85.21875 37.695312 85.019531 C 38.023438 84.820312 37.734375 84.257812 37.734375 84.257812 " fill-opacity="1" fill-rule="nonzero"/><path fill="#79816a" d="M 34.910156 86.054688 C 35.0625 86.5 35.785156 87.046875 36.542969 87.15625 C 37.304688 87.265625 38.210938 85.238281 37.988281 85.035156 C 37.769531 84.835938 36.730469 85.882812 36.496094 85.605469 C 36.257812 85.328125 35.976562 84.796875 35.339844 84.980469 C 34.699219 85.164062 34.757812 85.605469 34.910156 86.054688 " fill-opacity="1" fill-rule="nonzero"/><path fill="#6f7660" d="M 35.339844 84.980469 C 35.125 85.042969 34.992188 85.132812 34.914062 85.242188 C 35.492188 85.46875 36.03125 86.253906 36.558594 86.410156 C 37.0625 86.558594 37.738281 85.417969 37.980469 85.03125 C 37.75 84.855469 36.730469 85.878906 36.496094 85.605469 C 36.257812 85.328125 35.976562 84.796875 35.339844 84.980469 " fill-opacity="1" fill-rule="nonzero"/><path fill="#b4baa2" d="M 37.234375 86.382812 C 37.234375 86.382812 36.957031 86.839844 36.617188 86.765625 C 36.277344 86.695312 35.882812 86.34375 35.820312 86.445312 C 35.757812 86.546875 36.328125 86.867188 36.707031 86.933594 C 37.085938 86.996094 37.234375 86.382812 37.234375 86.382812 " fill-opacity="1" fill-rule="nonzero"/><path fill="#829a34" d="M 35.886719 86.027344 C 35.886719 86.027344 37.136719 85.023438 36.851562 84.132812 C 36.5625 83.242188 34.921875 83.851562 33.847656 83.75 C 32.773438 83.652344 34.105469 85.285156 34.105469 85.285156 L 35.886719 86.027344 " fill-opacity="1" fill-rule="nonzero"/><path fill="#94b644" d="M 32.027344 79.695312 C 32.027344 79.695312 34.617188 72.308594 36.1875 72.40625 C 37.757812 72.503906 44.871094 77.136719 47 76.0625 C 49.132812 74.992188 50.285156 66.734375 49.59375 64.0625 C 48.902344 61.390625 41.648438 61.667969 41.691406 66.1875 C 41.734375 70.703125 42.066406 71.882812 42.066406 71.882812 C 42.066406 71.882812 37.738281 69.675781 36.390625 69.746094 C 35.039062 69.816406 29.980469 76.609375 29.667969 80.117188 C 29.359375 83.625 32.804688 86.546875 33.699219 86.796875 C 34.597656 87.050781 36.347656 86.277344 36.351562 85.140625 C 36.359375 84.003906 34.484375 84.417969 33.847656 83.75 C 33.210938 83.085938 32.742188 82.4375 32.414062 81.5 C 32.089844 80.5625 32.027344 79.695312 32.027344 79.695312 " fill-opacity="1" fill-rule="nonzero"/><path fill="#8aab38" d="M 44.65625 62.585938 C 48.015625 64.730469 47.203125 73.574219 45.523438 74.164062 C 43.734375 74.796875 37.902344 71.667969 36.457031 71.4375 C 35.007812 71.210938 32.777344 75 31.601562 77.480469 C 30.425781 79.957031 31.265625 81.28125 32.652344 83.476562 C 33.699219 85.136719 35.480469 85.449219 36.289062 85.5 C 36.328125 85.386719 36.351562 85.265625 36.351562 85.140625 C 36.359375 84.003906 34.484375 84.417969 33.847656 83.75 C 33.210938 83.085938 32.742188 82.4375 32.414062 81.5 C 32.089844 80.5625 32.027344 79.695312 32.027344 79.695312 C 32.027344 79.695312 34.617188 72.308594 36.1875 72.40625 C 37.757812 72.503906 44.871094 77.136719 47 76.0625 C 49.132812 74.992188 50.285156 66.734375 49.59375 64.0625 C 49.207031 62.558594 46.734375 61.988281 44.65625 62.585938 " fill-opacity="1" fill-rule="nonzero"/><path fill="#829a34" d="M 47.71875 70.3125 C 47.96875 70.75 47.816406 71.3125 47.378906 71.5625 C 46.941406 71.8125 46.378906 71.660156 46.128906 71.222656 C 45.878906 70.78125 46.03125 70.222656 46.46875 69.972656 C 46.910156 69.71875 47.46875 69.871094 47.71875 70.3125 " fill-opacity="1" fill-rule="nonzero"/><path fill="#829a34" d="M 47.066406 72.554688 C 47.113281 72.636719 47.085938 72.742188 47.003906 72.789062 C 46.921875 72.835938 46.816406 72.808594 46.769531 72.726562 C 46.722656 72.644531 46.75 72.539062 46.832031 72.492188 C 46.914062 72.445312 47.019531 72.472656 47.066406 72.554688 " fill-opacity="1" fill-rule="nonzero"/><path fill="#829a34" d="M 44.640625 71.613281 C 44.71875 71.75 44.671875 71.925781 44.535156 72.003906 C 44.394531 72.082031 44.222656 72.035156 44.144531 71.898438 C 44.066406 71.761719 44.113281 71.585938 44.25 71.507812 C 44.386719 71.429688 44.5625 71.476562 44.640625 71.613281 " fill-opacity="1" fill-rule="nonzero"/><path fill="#829a34" d="M 44.945312 68.996094 C 44.988281 69.070312 44.964844 69.164062 44.890625 69.203125 C 44.816406 69.246094 44.722656 69.21875 44.679688 69.148438 C 44.640625 69.074219 44.664062 68.980469 44.738281 68.9375 C 44.8125 68.898438 44.90625 68.921875 44.945312 68.996094 " fill-opacity="1" fill-rule="nonzero"/><path fill="#829a34" d="M 45.929688 66.5625 C 46.019531 66.71875 45.964844 66.914062 45.808594 67.003906 C 45.652344 67.09375 45.457031 67.039062 45.367188 66.882812 C 45.277344 66.730469 45.332031 66.53125 45.488281 66.441406 C 45.640625 66.351562 45.839844 66.40625 45.929688 66.5625 " fill-opacity="1" fill-rule="nonzero"/><path fill="#829a34" d="M 47.621094 66.910156 C 47.691406 67.03125 47.648438 67.183594 47.53125 67.25 C 47.410156 67.320312 47.261719 67.277344 47.191406 67.160156 C 47.125 67.039062 47.164062 66.886719 47.285156 66.820312 C 47.402344 66.75 47.554688 66.792969 47.621094 66.910156 " fill-opacity="1" fill-rule="nonzero"/><path fill="#829a34" d="M 39.484375 71.507812 C 39.558594 71.636719 39.511719 71.800781 39.382812 71.875 C 39.257812 71.949219 39.09375 71.902344 39.019531 71.773438 C 38.949219 71.648438 38.992188 71.484375 39.121094 71.410156 C 39.246094 71.335938 39.410156 71.382812 39.484375 71.507812 " fill-opacity="1" fill-rule="nonzero"/><path fill="#829a34" d="M 34.546875 72.554688 C 34.605469 72.65625 34.570312 72.785156 34.46875 72.84375 C 34.367188 72.902344 34.238281 72.867188 34.183594 72.765625 C 34.125 72.664062 34.160156 72.535156 34.261719 72.476562 C 34.359375 72.421875 34.488281 72.457031 34.546875 72.554688 " fill-opacity="1" fill-rule="nonzero"/><path fill="#829a34" d="M 33.382812 73.597656 C 33.394531 73.613281 33.386719 73.636719 33.367188 73.648438 C 33.351562 73.660156 33.328125 73.652344 33.316406 73.636719 C 33.304688 73.617188 33.3125 73.59375 33.332031 73.582031 C 33.347656 73.570312 33.371094 73.578125 33.382812 73.597656 " fill-opacity="1" fill-rule="nonzero"/><path fill="#829a34" d="M 34.164062 73.964844 C 34.210938 74.046875 34.183594 74.152344 34.101562 74.199219 C 34.015625 74.246094 33.914062 74.214844 33.867188 74.132812 C 33.820312 74.050781 33.847656 73.945312 33.929688 73.898438 C 34.011719 73.851562 34.117188 73.882812 34.164062 73.964844 " fill-opacity="1" fill-rule="nonzero"/><path fill="#829a34" d="M 32.386719 75.160156 C 32.453125 75.277344 32.414062 75.429688 32.292969 75.496094 C 32.175781 75.566406 32.023438 75.523438 31.957031 75.40625 C 31.886719 75.285156 31.929688 75.132812 32.046875 75.066406 C 32.167969 75 32.316406 75.039062 32.386719 75.160156 " fill-opacity="1" fill-rule="nonzero"/><path fill="#829a34" d="M 33.519531 73.453125 C 33.578125 73.554688 33.542969 73.679688 33.441406 73.738281 C 33.339844 73.796875 33.214844 73.761719 33.15625 73.660156 C 33.097656 73.558594 33.132812 73.433594 33.234375 73.375 C 33.335938 73.316406 33.460938 73.351562 33.519531 73.453125 " fill-opacity="1" fill-rule="nonzero"/><path fill="#c7de6c" d="M 26.859375 45.597656 C 26.167969 45.300781 25.628906 46.0625 25.296875 46.765625 C 25.382812 46.679688 25.429688 46.628906 25.429688 46.628906 C 25.429688 46.628906 25.085938 51.902344 21.824219 53.105469 C 18.5625 54.308594 14.675781 53.335938 14.675781 53.335938 C 14.675781 53.335938 15.074219 54.996094 17.417969 55.511719 C 19.765625 56.027344 25.941406 55.054688 28.058594 53.90625 C 28.167969 53.847656 28.289062 53.796875 28.421875 53.753906 C 30.253906 50.257812 27.769531 45.988281 26.859375 45.597656 " fill-opacity="1" fill-rule="nonzero"/><path fill="#8aab38" d="M 29.945312 42.1875 C 29.945312 43.28125 29.0625 44.164062 27.972656 44.164062 C 26.882812 44.164062 26 43.28125 26 42.1875 C 26 41.097656 26.882812 40.210938 27.972656 40.210938 C 29.0625 40.210938 29.945312 41.097656 29.945312 42.1875 " fill-opacity="1" fill-rule="nonzero"/><path fill="#ffffff" d="M 29.546875 42.132812 C 29.546875 42.9375 28.894531 43.59375 28.089844 43.59375 C 27.28125 43.59375 26.628906 42.9375 26.628906 42.132812 C 26.628906 41.324219 27.28125 40.667969 28.089844 40.667969 C 28.894531 40.667969 29.546875 41.324219 29.546875 42.132812 " fill-opacity="1" fill-rule="nonzero"/><path fill="#592e14" d="M 29.144531 42.074219 C 29.144531 42.597656 28.722656 43.019531 28.203125 43.019531 C 27.679688 43.019531 27.257812 42.597656 27.257812 42.074219 C 27.257812 41.550781 27.679688 41.128906 28.203125 41.128906 C 28.722656 41.128906 29.144531 41.550781 29.144531 42.074219 " fill-opacity="1" fill-rule="nonzero"/><path fill="#1b1511" d="M 28.839844 42.09375 C 28.839844 42.425781 28.570312 42.695312 28.242188 42.695312 C 27.910156 42.695312 27.640625 42.425781 27.640625 42.09375 C 27.640625 41.761719 27.910156 41.492188 28.242188 41.492188 C 28.570312 41.492188 28.839844 41.761719 28.839844 42.09375 " fill-opacity="1" fill-rule="nonzero"/><path fill="#ffffff" d="M 28.859375 41.683594 C 28.859375 41.859375 28.714844 42.007812 28.535156 42.007812 C 28.355469 42.007812 28.210938 41.859375 28.210938 41.683594 C 28.210938 41.503906 28.355469 41.355469 28.535156 41.355469 C 28.714844 41.355469 28.859375 41.503906 28.859375 41.683594 " fill-opacity="1" fill-rule="nonzero"/><path fill="#ffffff" d="M 29.03125 42.332031 C 29.03125 42.414062 28.964844 42.484375 28.878906 42.484375 C 28.792969 42.484375 28.726562 42.414062 28.726562 42.332031 C 28.726562 42.246094 28.792969 42.179688 28.878906 42.179688 C 28.964844 42.179688 29.03125 42.246094 29.03125 42.332031 " fill-opacity="1" fill-rule="nonzero"/><g clip-path="url(#3d7664f5ab)"><path fill="#99b242" d="M 18.734375 49.09375 C 21.785156 50.128906 24.789062 47.28125 25.339844 46.722656 C 25.453125 46.191406 25.460938 45.609375 24.800781 46.246094 C 23.84375 47.164062 19.972656 48.121094 16.769531 47.660156 C 14.253906 47.300781 12.609375 47.28125 12.019531 47.292969 C 11.921875 47.589844 11.949219 47.863281 12.097656 48.121094 C 12.671875 49.09375 15.359375 47.949219 18.734375 49.09375 " fill-opacity="1" fill-rule="nonzero"/></g><path fill="#c7de6c" d="M 18.183594 43.917969 C 18.183594 43.917969 21.15625 42.734375 22.929688 42.292969 C 24.703125 41.855469 22.664062 41.988281 20.964844 42.542969 C 19.269531 43.09375 18.183594 43.917969 18.183594 43.917969 " fill-opacity="1" fill-rule="nonzero"/><path fill="#c7de6c" d="M 28.058594 39.945312 C 28.058594 39.945312 29.890625 40.441406 30.519531 41.242188 C 31.148438 42.046875 30.671875 40.859375 30.003906 40.421875 C 29.335938 39.980469 28.058594 39.945312 28.058594 39.945312 " fill-opacity="1" fill-rule="nonzero"/><path fill="#c7de6c" d="M 98.820312 38.988281 C 98.820312 38.988281 101.792969 37.308594 105.914062 30.660156 C 110.03125 24.011719 111.175781 23.171875 111.175781 23.171875 C 111.175781 23.171875 107.210938 26.6875 105.074219 30.507812 C 102.9375 34.328125 98.820312 38.988281 98.820312 38.988281 " fill-opacity="1" fill-rule="nonzero"/><path fill="#718e29" d="M 51.304688 59.085938 C 51.304688 59.632812 50.859375 60.078125 50.3125 60.078125 C 49.761719 60.078125 49.320312 59.632812 49.320312 59.085938 C 49.320312 58.535156 49.761719 58.089844 50.3125 58.089844 C 50.859375 58.089844 51.304688 58.535156 51.304688 59.085938 " fill-opacity="1" fill-rule="nonzero"/><path fill="#718e29" d="M 53.058594 61.722656 C 53.058594 62.039062 52.800781 62.292969 52.484375 62.292969 C 52.167969 62.292969 51.914062 62.039062 51.914062 61.722656 C 51.914062 61.402344 52.167969 61.148438 52.484375 61.148438 C 52.800781 61.148438 53.058594 61.402344 53.058594 61.722656 " fill-opacity="1" fill-rule="nonzero"/><path fill="#718e29" d="M 53.132812 64.511719 C 53.132812 64.972656 52.757812 65.351562 52.292969 65.351562 C 51.832031 65.351562 51.457031 64.972656 51.457031 64.511719 C 51.457031 64.046875 51.832031 63.667969 52.292969 63.667969 C 52.757812 63.667969 53.132812 64.046875 53.132812 64.511719 " fill-opacity="1" fill-rule="nonzero"/><path fill="#718e29" d="M 56.566406 65.121094 C 56.566406 65.246094 56.460938 65.351562 56.335938 65.351562 C 56.210938 65.351562 56.109375 65.246094 56.109375 65.121094 C 56.109375 64.996094 56.210938 64.890625 56.335938 64.890625 C 56.460938 64.890625 56.566406 64.996094 56.566406 65.121094 " fill-opacity="1" fill-rule="nonzero"/><path fill="#718e29" d="M 58.394531 62.253906 C 58.394531 62.488281 58.207031 62.675781 57.976562 62.675781 C 57.746094 62.675781 57.558594 62.488281 57.558594 62.253906 C 57.558594 62.023438 57.746094 61.835938 57.976562 61.835938 C 58.207031 61.835938 58.394531 62.023438 58.394531 62.253906 " fill-opacity="1" fill-rule="nonzero"/><path fill="#718e29" d="M 61.753906 57.441406 C 61.753906 57.882812 61.394531 58.242188 60.949219 58.242188 C 60.507812 58.242188 60.148438 57.882812 60.148438 57.441406 C 60.148438 57 60.507812 56.640625 60.949219 56.640625 C 61.394531 56.640625 61.753906 57 61.753906 57.441406 " fill-opacity="1" fill-rule="nonzero"/><path fill="#718e29" d="M 64.34375 55.1875 C 64.34375 55.355469 64.207031 55.492188 64.039062 55.492188 C 63.871094 55.492188 63.734375 55.355469 63.734375 55.1875 C 63.734375 55.019531 63.871094 54.882812 64.039062 54.882812 C 64.207031 54.882812 64.34375 55.019531 64.34375 55.1875 " fill-opacity="1" fill-rule="nonzero"/><path fill="#718e29" d="M 71.363281 55.609375 C 71.363281 55.925781 71.105469 56.179688 70.789062 56.179688 C 70.472656 56.179688 70.21875 55.925781 70.21875 55.609375 C 70.21875 55.292969 70.472656 55.035156 70.789062 55.035156 C 71.105469 55.035156 71.363281 55.292969 71.363281 55.609375 " fill-opacity="1" fill-rule="nonzero"/><path fill="#718e29" d="M 75.9375 55.609375 C 75.9375 55.839844 75.75 56.027344 75.519531 56.027344 C 75.289062 56.027344 75.097656 55.839844 75.097656 55.609375 C 75.097656 55.375 75.289062 55.1875 75.519531 55.1875 C 75.75 55.1875 75.9375 55.375 75.9375 55.609375 " fill-opacity="1" fill-rule="nonzero"/><path fill="#718e29" d="M 79.902344 54.730469 C 79.902344 54.898438 79.769531 55.035156 79.597656 55.035156 C 79.429688 55.035156 79.292969 54.898438 79.292969 54.730469 C 79.292969 54.558594 79.429688 54.425781 79.597656 54.425781 C 79.769531 54.425781 79.902344 54.558594 79.902344 54.730469 " fill-opacity="1" fill-rule="nonzero"/><path fill="#718e29" d="M 81.277344 56.640625 C 81.277344 56.933594 81.039062 57.175781 80.742188 57.175781 C 80.449219 57.175781 80.210938 56.933594 80.210938 56.640625 C 80.210938 56.34375 80.449219 56.105469 80.742188 56.105469 C 81.039062 56.105469 81.277344 56.34375 81.277344 56.640625 " fill-opacity="1" fill-rule="nonzero"/><path fill="#718e29" d="M 83.566406 52.4375 C 83.566406 52.5625 83.460938 52.667969 83.335938 52.667969 C 83.210938 52.667969 83.109375 52.5625 83.109375 52.4375 C 83.109375 52.308594 83.210938 52.207031 83.335938 52.207031 C 83.460938 52.207031 83.566406 52.308594 83.566406 52.4375 " fill-opacity="1" fill-rule="nonzero"/><path fill="#718e29" d="M 87.074219 52.285156 C 87.074219 52.578125 86.835938 52.820312 86.539062 52.820312 C 86.246094 52.820312 86.003906 52.578125 86.003906 52.285156 C 86.003906 51.988281 86.246094 51.75 86.539062 51.75 C 86.835938 51.75 87.074219 51.988281 87.074219 52.285156 " fill-opacity="1" fill-rule="nonzero"/><path fill="#718e29" d="M 41.3125 59.121094 C 41.3125 59.355469 41.125 59.542969 40.890625 59.542969 C 40.660156 59.542969 40.472656 59.355469 40.472656 59.121094 C 40.472656 58.890625 40.660156 58.703125 40.890625 58.703125 C 41.125 58.703125 41.3125 58.890625 41.3125 59.121094 " fill-opacity="1" fill-rule="nonzero"/><path fill="#718e29" d="M 33.988281 50.792969 C 33.988281 51.109375 33.734375 51.367188 33.417969 51.367188 C 33.101562 51.367188 32.847656 51.109375 32.847656 50.792969 C 32.847656 50.476562 33.101562 50.222656 33.417969 50.222656 C 33.734375 50.222656 33.988281 50.476562 33.988281 50.792969 " fill-opacity="1" fill-rule="nonzero"/><path fill="#718e29" d="M 31.929688 47.394531 C 31.929688 47.5625 31.792969 47.699219 31.625 47.699219 C 31.457031 47.699219 31.320312 47.5625 31.320312 47.394531 C 31.320312 47.226562 31.457031 47.089844 31.625 47.089844 C 31.792969 47.089844 31.929688 47.226562 31.929688 47.394531 " fill-opacity="1" fill-rule="nonzero"/><path fill="#718e29" d="M 33.152344 46.554688 C 33.152344 46.722656 33.015625 46.859375 32.84375 46.859375 C 32.675781 46.859375 32.539062 46.722656 32.539062 46.554688 C 32.539062 46.382812 32.675781 46.246094 32.84375 46.246094 C 33.015625 46.246094 33.152344 46.382812 33.152344 46.554688 " fill-opacity="1" fill-rule="nonzero"/><path fill="#718e29" d="M 32.996094 48.65625 C 32.996094 48.84375 32.84375 49 32.65625 49 C 32.464844 49 32.3125 48.84375 32.3125 48.65625 C 32.3125 48.464844 32.464844 48.308594 32.65625 48.308594 C 32.84375 48.308594 32.996094 48.464844 32.996094 48.65625 " fill-opacity="1" fill-rule="nonzero"/><path fill="#718e29" d="M 31.167969 49.722656 C 31.167969 49.871094 31.046875 49.992188 30.902344 49.992188 C 30.753906 49.992188 30.632812 49.871094 30.632812 49.722656 C 30.632812 49.578125 30.753906 49.457031 30.902344 49.457031 C 31.046875 49.457031 31.167969 49.578125 31.167969 49.722656 " fill-opacity="1" fill-rule="nonzero"/><path fill="#718e29" d="M 29.945312 46.589844 C 29.945312 46.695312 29.863281 46.78125 29.757812 46.78125 C 29.652344 46.78125 29.566406 46.695312 29.566406 46.589844 C 29.566406 46.484375 29.652344 46.402344 29.757812 46.402344 C 29.863281 46.402344 29.945312 46.484375 29.945312 46.589844 " fill-opacity="1" fill-rule="nonzero"/><path fill="#718e29" d="M 36.660156 49.914062 C 36.660156 50 36.589844 50.066406 36.507812 50.066406 C 36.421875 50.066406 36.355469 50 36.355469 49.914062 C 36.355469 49.832031 36.421875 49.761719 36.507812 49.761719 C 36.589844 49.761719 36.660156 49.832031 36.660156 49.914062 " fill-opacity="1" fill-rule="nonzero"/><path fill="#79816a" d="M 59.101562 93.527344 C 58.929688 93.085938 58.1875 92.570312 57.421875 92.496094 C 56.660156 92.417969 55.839844 94.480469 56.070312 94.671875 C 56.296875 94.863281 57.289062 93.773438 57.539062 94.042969 C 57.785156 94.308594 58.089844 94.824219 58.71875 94.617188 C 59.347656 94.40625 59.273438 93.964844 59.101562 93.527344 " fill-opacity="1" fill-rule="nonzero"/><path fill="#6f7660" d="M 58.71875 94.617188 C 58.929688 94.546875 59.058594 94.449219 59.136719 94.335938 C 58.542969 94.136719 57.972656 93.371094 57.441406 93.242188 C 56.933594 93.113281 56.300781 94.28125 56.074219 94.675781 C 56.316406 94.84375 57.292969 93.777344 57.539062 94.042969 C 57.785156 94.308594 58.089844 94.824219 58.71875 94.617188 " fill-opacity="1" fill-rule="nonzero"/><path fill="#b4baa2" d="M 56.765625 93.296875 C 56.765625 93.296875 57.023438 92.828125 57.367188 92.886719 C 57.710938 92.945312 58.121094 93.277344 58.175781 93.171875 C 58.234375 93.066406 57.652344 92.773438 57.269531 92.722656 C 56.890625 92.675781 56.765625 93.296875 56.765625 93.296875 " fill-opacity="1" fill-rule="nonzero"/><path fill="#87a538" d="M 61.636719 94.386719 C 61.636719 94.386719 59.84375 92.972656 58.816406 93.125 C 57.785156 93.277344 57.59375 98.703125 59.539062 98.933594 C 61.484375 99.160156 61.484375 96.601562 61.484375 96.601562 L 61.636719 94.386719 " fill-opacity="1" fill-rule="nonzero"/><path fill="#79816a" d="M 70.191406 90.078125 C 70.148438 89.574219 69.378906 88.652344 68.402344 88.113281 C 67.421875 87.578125 65.472656 88.945312 65.695312 89.261719 C 65.917969 89.574219 67.6875 89.195312 67.90625 89.589844 C 68.121094 89.984375 68.308594 90.640625 69.230469 90.832031 C 70.152344 91.027344 70.238281 90.582031 70.191406 90.078125 " fill-opacity="1" fill-rule="nonzero"/><path fill="#6f7660" d="M 69.230469 90.832031 C 69.539062 90.898438 69.75 90.890625 69.898438 90.835938 C 69.199219 90.292969 68.761719 89.246094 68.113281 88.800781 C 67.492188 88.375 66.167969 89.046875 65.703125 89.269531 C 65.949219 89.566406 67.691406 89.199219 67.90625 89.589844 C 68.121094 89.984375 68.308594 90.640625 69.230469 90.832031 " fill-opacity="1" fill-rule="nonzero"/><path fill="#b4baa2" d="M 67.195312 88.4375 C 67.195312 88.4375 67.730469 88.171875 68.160156 88.433594 C 68.59375 88.695312 68.996094 89.25 69.117188 89.191406 C 69.234375 89.132812 68.589844 88.503906 68.101562 88.226562 C 67.617188 87.949219 67.195312 88.4375 67.195312 88.4375 " fill-opacity="1" fill-rule="nonzero"/><path fill="#94b644" d="M 63.011719 59.007812 C 60.265625 61.414062 55 73.449219 59.234375 77.003906 C 63.46875 80.554688 70.445312 83.996094 70.5625 86.171875 C 70.675781 88.351562 66.785156 93.394531 66.097656 94.425781 C 65.414062 95.457031 62.4375 94.539062 60.609375 93.851562 C 58.777344 93.164062 58.546875 100.039062 61.179688 99.46875 C 63.8125 98.894531 63.925781 97.863281 65.753906 98.207031 C 67.585938 98.550781 69.644531 96.601562 72.046875 90.984375 C 74.449219 85.371094 73.421875 85.027344 71.132812 79.523438 C 68.84375 74.023438 68.84375 73.449219 68.84375 73.449219 C 68.84375 73.449219 73.421875 71.960938 77.425781 64.28125 C 82.117188 54.421875 65.753906 56.601562 63.011719 59.007812 " fill-opacity="1" fill-rule="nonzero"/><path fill="#79816a" d="M 59.976562 94.863281 C 59.808594 94.425781 59.0625 93.910156 58.300781 93.832031 C 57.539062 93.757812 56.71875 95.820312 56.945312 96.007812 C 57.175781 96.199219 58.167969 95.113281 58.414062 95.378906 C 58.664062 95.648438 58.96875 96.164062 59.597656 95.953125 C 60.226562 95.742188 60.148438 95.304688 59.976562 94.863281 " fill-opacity="1" fill-rule="nonzero"/><path fill="#6f7660" d="M 59.597656 95.953125 C 59.804688 95.882812 59.9375 95.785156 60.011719 95.675781 C 59.421875 95.472656 58.847656 94.710938 58.320312 94.578125 C 57.808594 94.449219 57.179688 95.617188 56.953125 96.015625 C 57.191406 96.179688 58.167969 95.113281 58.414062 95.378906 C 58.664062 95.648438 58.96875 96.164062 59.597656 95.953125 " fill-opacity="1" fill-rule="nonzero"/><path fill="#b4baa2" d="M 57.640625 94.632812 C 57.640625 94.632812 57.898438 94.167969 58.242188 94.222656 C 58.585938 94.28125 58.996094 94.617188 59.054688 94.511719 C 59.109375 94.40625 58.527344 94.109375 58.148438 94.0625 C 57.765625 94.015625 57.640625 94.632812 57.640625 94.632812 " fill-opacity="1" fill-rule="nonzero"/><path fill="#8bab3a" d="M 71.132812 79.523438 C 68.84375 74.023438 68.84375 73.449219 68.84375 73.449219 C 68.84375 73.449219 73.421875 71.960938 77.425781 64.28125 C 80.339844 58.15625 75.125 56.675781 70.101562 57.015625 C 71.875 57.945312 74.0625 59.671875 74.105469 62.523438 C 74.183594 67.335938 65.71875 72.839844 65.71875 72.839844 C 65.71875 72.839844 72.582031 82.542969 72.199219 86.363281 C 71.820312 90.183594 68.234375 96.984375 66.480469 97.136719 C 64.726562 97.289062 63.886719 97.214844 63.125 97.976562 C 62.429688 98.671875 61.042969 99.175781 59.765625 98.804688 C 60.082031 99.3125 60.550781 99.605469 61.179688 99.46875 C 63.8125 98.894531 63.925781 97.863281 65.753906 98.207031 C 67.585938 98.550781 69.644531 96.601562 72.046875 90.984375 C 74.449219 85.371094 73.421875 85.027344 71.132812 79.523438 " fill-opacity="1" fill-rule="nonzero"/><path fill="#b5d161" d="M 68.617188 60.382812 C 68.617188 60.382812 62.820312 60.996094 61.292969 66.191406 C 59.769531 71.386719 59.996094 65.425781 62.132812 62.292969 C 64.269531 59.160156 68.617188 60.382812 68.617188 60.382812 " fill-opacity="1" fill-rule="nonzero"/><path fill="#718e29" d="M 66.863281 68.710938 C 66.863281 69.09375 66.554688 69.398438 66.175781 69.398438 C 65.796875 69.398438 65.488281 69.09375 65.488281 68.710938 C 65.488281 68.332031 65.796875 68.023438 66.175781 68.023438 C 66.554688 68.023438 66.863281 68.332031 66.863281 68.710938 " fill-opacity="1" fill-rule="nonzero"/><path fill="#718e29" d="M 63.660156 71.042969 C 63.660156 71.148438 63.574219 71.234375 63.46875 71.234375 C 63.363281 71.234375 63.277344 71.148438 63.277344 71.042969 C 63.277344 70.9375 63.363281 70.851562 63.46875 70.851562 C 63.574219 70.851562 63.660156 70.9375 63.660156 71.042969 " fill-opacity="1" fill-rule="nonzero"/><path fill="#718e29" d="M 65.945312 71.117188 C 65.945312 71.183594 65.894531 71.234375 65.832031 71.234375 C 65.769531 71.234375 65.71875 71.183594 65.71875 71.117188 C 65.71875 71.054688 65.769531 71.003906 65.832031 71.003906 C 65.894531 71.003906 65.945312 71.054688 65.945312 71.117188 " fill-opacity="1" fill-rule="nonzero"/><path fill="#718e29" d="M 69.226562 65.921875 C 69.226562 66.113281 69.074219 66.265625 68.882812 66.265625 C 68.695312 66.265625 68.539062 66.113281 68.539062 65.921875 C 68.539062 65.734375 68.695312 65.578125 68.882812 65.578125 C 69.074219 65.578125 69.226562 65.734375 69.226562 65.921875 " fill-opacity="1" fill-rule="nonzero"/><path fill="#718e29" d="M 71.210938 63.746094 C 71.210938 64.082031 70.9375 64.355469 70.597656 64.355469 C 70.261719 64.355469 69.988281 64.082031 69.988281 63.746094 C 69.988281 63.40625 70.261719 63.132812 70.597656 63.132812 C 70.9375 63.132812 71.210938 63.40625 71.210938 63.746094 " fill-opacity="1" fill-rule="nonzero"/><path fill="#718e29" d="M 73.269531 67.335938 C 73.269531 67.84375 72.859375 68.253906 72.351562 68.253906 C 71.847656 68.253906 71.4375 67.84375 71.4375 67.335938 C 71.4375 66.832031 71.847656 66.421875 72.351562 66.421875 C 72.859375 66.421875 73.269531 66.832031 73.269531 67.335938 " fill-opacity="1" fill-rule="nonzero"/><path fill="#718e29" d="M 69.609375 70.660156 C 69.609375 70.851562 69.453125 71.003906 69.265625 71.003906 C 69.074219 71.003906 68.921875 70.851562 68.921875 70.660156 C 68.921875 70.472656 69.074219 70.316406 69.265625 70.316406 C 69.453125 70.316406 69.609375 70.472656 69.609375 70.660156 " fill-opacity="1" fill-rule="nonzero"/><path fill="#718e29" d="M 74.488281 64.050781 C 74.488281 64.386719 74.214844 64.664062 73.878906 64.664062 C 73.542969 64.664062 73.269531 64.386719 73.269531 64.050781 C 73.269531 63.714844 73.542969 63.441406 73.878906 63.441406 C 74.214844 63.441406 74.488281 63.714844 74.488281 64.050781 " fill-opacity="1" fill-rule="nonzero"/><path fill="#718e29" d="M 65.792969 75.09375 C 65.792969 75.535156 65.433594 75.894531 64.992188 75.894531 C 64.550781 75.894531 64.191406 75.535156 64.191406 75.09375 C 64.191406 74.648438 64.550781 74.289062 64.992188 74.289062 C 65.433594 74.289062 65.792969 74.648438 65.792969 75.09375 " fill-opacity="1" fill-rule="nonzero"/></svg>