<svg xmlns="http://www.w3.org/2000/svg" xmlns:xlink="http://www.w3.org/1999/xlink" width="200" zoomAndPan="magnify" viewBox="0 0 150 112.499997" height="150" preserveAspectRatio="xMidYMid meet" version="1.0"><defs><clipPath id="93a94e6dd3"><path d="M 35 11.199219 L 115 11.199219 L 115 61 L 35 61 Z M 35 11.199219 " clip-rule="nonzero"/></clipPath><clipPath id="3ef582c8e6"><path d="M 74 34 L 115.730469 34 L 115.730469 100 L 74 100 Z M 74 34 " clip-rule="nonzero"/></clipPath><clipPath id="818eefb238"><path d="M 34.34375 36 L 77 36 L 77 100 L 34.34375 100 Z M 34.34375 36 " clip-rule="nonzero"/></clipPath></defs><g clip-path="url(#93a94e6dd3)"><path fill="#000000" d="M 35.828125 37.125 L 73.75 12.148438 C 73.941406 12.023438 74.207031 11.953125 74.550781 11.9375 C 74.898438 11.917969 75.292969 11.957031 75.738281 12.046875 C 76.1875 12.140625 76.648438 12.28125 77.132812 12.472656 C 77.613281 12.660156 78.074219 12.882812 78.515625 13.140625 L 112.355469 32.785156 C 112.796875 33.042969 113.1875 33.3125 113.523438 33.597656 C 113.855469 33.882812 114.113281 34.160156 114.292969 34.429688 C 114.46875 34.699219 114.554688 34.941406 114.546875 35.15625 C 114.542969 35.367188 114.441406 35.539062 114.253906 35.664062 L 76.328125 60.640625 C 76.140625 60.765625 75.871094 60.835938 75.527344 60.855469 C 75.183594 60.871094 74.785156 60.832031 74.339844 60.742188 C 73.894531 60.648438 73.429688 60.507812 72.949219 60.320312 C 72.46875 60.128906 72.007812 59.90625 71.5625 59.652344 L 37.722656 40.003906 C 37.28125 39.746094 36.894531 39.476562 36.558594 39.191406 C 36.222656 38.90625 35.964844 38.628906 35.789062 38.359375 C 35.609375 38.089844 35.523438 37.847656 35.53125 37.636719 C 35.539062 37.421875 35.636719 37.25 35.828125 37.125 " fill-opacity="1" fill-rule="nonzero"/></g><g clip-path="url(#3ef582c8e6)"><path fill="#000000" d="M 76.917969 59.144531 L 113.488281 35.15625 C 113.753906 34.980469 114.007812 34.921875 114.253906 34.976562 C 114.496094 35.035156 114.707031 35.199219 114.890625 35.476562 C 115.074219 35.753906 115.214844 36.121094 115.3125 36.578125 C 115.40625 37.039062 115.453125 37.550781 115.445312 38.117188 L 115.089844 69.914062 C 115.085938 70.480469 115.027344 71.058594 114.921875 71.652344 C 114.8125 72.242188 114.664062 72.800781 114.46875 73.324219 C 114.277344 73.847656 114.058594 74.296875 113.808594 74.675781 C 113.5625 75.054688 113.304688 75.332031 113.039062 75.507812 L 76.46875 99.496094 C 76.203125 99.667969 75.945312 99.726562 75.703125 99.671875 C 75.460938 99.617188 75.246094 99.449219 75.0625 99.171875 C 74.878906 98.894531 74.738281 98.527344 74.644531 98.070312 C 74.546875 97.613281 74.503906 97.101562 74.507812 96.535156 L 74.863281 64.734375 C 74.871094 64.167969 74.925781 63.589844 75.035156 63 C 75.144531 62.410156 75.292969 61.851562 75.484375 61.328125 C 75.679688 60.804688 75.898438 60.351562 76.144531 59.972656 C 76.394531 59.59375 76.652344 59.320312 76.917969 59.144531 " fill-opacity="1" fill-rule="nonzero"/></g><path fill="#e2e2e2" d="M 78.039062 86.621094 L 86.390625 80.964844 C 86.597656 80.824219 86.792969 80.726562 86.980469 80.664062 C 87.171875 80.605469 87.335938 80.589844 87.480469 80.613281 C 87.625 80.640625 87.738281 80.710938 87.816406 80.820312 C 87.894531 80.929688 87.933594 81.074219 87.933594 81.25 L 87.933594 89.101562 C 87.933594 89.277344 87.894531 89.472656 87.816406 89.691406 C 87.738281 89.90625 87.625 90.125 87.480469 90.347656 C 87.335938 90.570312 87.171875 90.78125 86.980469 90.976562 C 86.792969 91.171875 86.597656 91.339844 86.390625 91.476562 L 78.039062 97.136719 C 77.835938 97.273438 77.640625 97.375 77.449219 97.433594 C 77.261719 97.496094 77.097656 97.511719 76.953125 97.484375 C 76.808594 97.457031 76.695312 97.386719 76.617188 97.277344 C 76.539062 97.167969 76.5 97.023438 76.5 96.847656 L 76.5 89 C 76.5 88.820312 76.539062 88.625 76.617188 88.410156 C 76.695312 88.191406 76.808594 87.972656 76.953125 87.75 C 77.097656 87.527344 77.261719 87.320312 77.449219 87.125 C 77.640625 86.929688 77.835938 86.761719 78.039062 86.621094 " fill-opacity="1" fill-rule="nonzero"/><path fill="#ffe200" d="M 78.492188 73.558594 L 86.511719 68.125 C 86.738281 67.972656 86.953125 67.867188 87.164062 67.804688 C 87.375 67.746094 87.558594 67.738281 87.71875 67.78125 C 87.878906 67.824219 88 67.914062 88.085938 68.054688 C 88.175781 68.191406 88.21875 68.367188 88.21875 68.582031 L 88.21875 75.867188 C 88.21875 76.082031 88.175781 76.316406 88.085938 76.574219 C 88 76.832031 87.878906 77.089844 87.71875 77.347656 C 87.558594 77.609375 87.375 77.851562 87.164062 78.074219 C 86.953125 78.296875 86.738281 78.484375 86.511719 78.640625 L 78.492188 84.074219 C 78.265625 84.226562 78.046875 84.332031 77.839844 84.394531 C 77.628906 84.453125 77.445312 84.460938 77.285156 84.417969 C 77.125 84.375 77 84.285156 76.914062 84.144531 C 76.828125 84.007812 76.785156 83.832031 76.785156 83.617188 L 76.785156 76.332031 C 76.785156 76.117188 76.828125 75.882812 76.914062 75.625 C 77 75.367188 77.125 75.109375 77.285156 74.851562 C 77.445312 74.589844 77.628906 74.347656 77.839844 74.125 C 78.046875 73.902344 78.265625 73.714844 78.492188 73.558594 " fill-opacity="1" fill-rule="nonzero"/><path fill="#f41809" d="M 77.785156 61.105469 L 87.21875 54.710938 C 87.351562 54.621094 87.480469 54.597656 87.601562 54.636719 C 87.722656 54.675781 87.832031 54.777344 87.925781 54.941406 C 88.019531 55.105469 88.09375 55.316406 88.140625 55.578125 C 88.191406 55.839844 88.21875 56.132812 88.21875 56.453125 L 88.21875 62.128906 C 88.21875 62.449219 88.191406 62.777344 88.140625 63.105469 C 88.09375 63.4375 88.019531 63.746094 87.925781 64.039062 C 87.832031 64.328125 87.722656 64.574219 87.601562 64.78125 C 87.480469 64.988281 87.351562 65.132812 87.21875 65.222656 L 77.785156 71.617188 C 77.652344 71.707031 77.523438 71.730469 77.402344 71.691406 C 77.28125 71.652344 77.171875 71.550781 77.078125 71.386719 C 76.984375 71.226562 76.914062 71.011719 76.863281 70.75 C 76.8125 70.488281 76.785156 70.195312 76.785156 69.875 L 76.785156 64.199219 C 76.785156 63.878906 76.8125 63.554688 76.863281 63.222656 C 76.914062 62.890625 76.984375 62.582031 77.078125 62.292969 C 77.171875 62 77.28125 61.753906 77.402344 61.546875 C 77.523438 61.339844 77.652344 61.195312 77.785156 61.105469 " fill-opacity="1" fill-rule="nonzero"/><path fill="#e2e2e2" d="M 91.402344 51.800781 L 99.832031 46.132812 C 100.039062 45.996094 100.234375 45.917969 100.425781 45.894531 C 100.613281 45.875 100.78125 45.910156 100.925781 46.011719 C 101.074219 46.109375 101.183594 46.261719 101.261719 46.464844 C 101.34375 46.667969 101.382812 46.90625 101.382812 47.183594 L 101.382812 53.515625 C 101.382812 53.792969 101.34375 54.085938 101.261719 54.394531 C 101.183594 54.703125 101.074219 55.003906 100.925781 55.296875 C 100.78125 55.59375 100.613281 55.855469 100.425781 56.089844 C 100.234375 56.324219 100.039062 56.507812 99.832031 56.648438 L 91.402344 62.3125 C 91.199219 62.449219 91 62.53125 90.8125 62.550781 C 90.621094 62.574219 90.453125 62.535156 90.308594 62.4375 C 90.164062 62.335938 90.050781 62.1875 89.972656 61.984375 C 89.894531 61.78125 89.855469 61.539062 89.855469 61.261719 L 89.855469 54.933594 C 89.855469 54.65625 89.894531 54.359375 89.972656 54.050781 C 90.050781 53.742188 90.164062 53.441406 90.308594 53.148438 C 90.453125 52.855469 90.621094 52.589844 90.8125 52.355469 C 91 52.125 91.199219 51.9375 91.402344 51.800781 " fill-opacity="1" fill-rule="nonzero"/><path fill="#f41809" d="M 91.070312 64.878906 L 100.164062 58.765625 C 100.328125 58.65625 100.480469 58.617188 100.632812 58.644531 C 100.78125 58.667969 100.910156 58.761719 101.027344 58.917969 C 101.140625 59.078125 101.226562 59.289062 101.289062 59.550781 C 101.351562 59.816406 101.382812 60.113281 101.382812 60.445312 L 101.382812 65.964844 C 101.382812 66.292969 101.351562 66.632812 101.289062 66.980469 C 101.226562 67.328125 101.140625 67.660156 101.027344 67.96875 C 100.910156 68.28125 100.78125 68.550781 100.632812 68.777344 C 100.480469 69.003906 100.328125 69.171875 100.164062 69.277344 L 91.070312 75.390625 C 90.910156 75.5 90.753906 75.539062 90.605469 75.515625 C 90.457031 75.488281 90.324219 75.394531 90.210938 75.238281 C 90.097656 75.082031 90.007812 74.867188 89.949219 74.605469 C 89.886719 74.339844 89.855469 74.042969 89.855469 73.710938 L 89.855469 68.195312 C 89.855469 67.863281 89.886719 67.523438 89.949219 67.175781 C 90.007812 66.828125 90.097656 66.5 90.210938 66.1875 C 90.324219 65.878906 90.457031 65.609375 90.605469 65.382812 C 90.753906 65.152344 90.910156 64.988281 91.070312 64.878906 " fill-opacity="1" fill-rule="nonzero"/><path fill="#e2e2e2" d="M 91.285156 77.445312 L 99.378906 72.003906 C 99.609375 71.851562 99.828125 71.773438 100.035156 71.769531 C 100.246094 71.765625 100.433594 71.835938 100.59375 71.980469 C 100.753906 72.125 100.878906 72.335938 100.964844 72.605469 C 101.050781 72.878906 101.09375 73.195312 101.09375 73.550781 L 101.09375 78.664062 C 101.09375 79.019531 101.050781 79.394531 100.964844 79.785156 C 100.878906 80.175781 100.753906 80.550781 100.59375 80.910156 C 100.433594 81.273438 100.246094 81.59375 100.035156 81.871094 C 99.828125 82.148438 99.609375 82.363281 99.378906 82.515625 L 91.285156 87.957031 C 91.058594 88.113281 90.839844 88.191406 90.628906 88.195312 C 90.417969 88.199219 90.234375 88.128906 90.070312 87.984375 C 89.910156 87.835938 89.785156 87.628906 89.699219 87.355469 C 89.613281 87.085938 89.570312 86.769531 89.570312 86.410156 L 89.570312 81.300781 C 89.570312 80.941406 89.613281 80.566406 89.699219 80.179688 C 89.785156 79.789062 89.910156 79.414062 90.070312 79.050781 C 90.234375 78.691406 90.417969 78.371094 90.628906 78.09375 C 90.839844 77.8125 91.058594 77.597656 91.285156 77.445312 " fill-opacity="1" fill-rule="nonzero"/><path fill="#0bd521" d="M 104.183594 68.316406 L 112.609375 62.652344 C 112.816406 62.511719 113.015625 62.433594 113.203125 62.414062 C 113.394531 62.390625 113.5625 62.429688 113.707031 62.527344 C 113.851562 62.628906 113.964844 62.78125 114.042969 62.984375 C 114.121094 63.1875 114.160156 63.429688 114.160156 63.707031 L 114.160156 70.023438 C 114.160156 70.304688 114.121094 70.597656 114.042969 70.90625 C 113.964844 71.21875 113.851562 71.519531 113.707031 71.8125 C 113.5625 72.109375 113.394531 72.371094 113.203125 72.605469 C 113.015625 72.839844 112.816406 73.027344 112.609375 73.164062 L 104.183594 78.828125 C 103.976562 78.96875 103.777344 79.046875 103.589844 79.066406 C 103.398438 79.089844 103.230469 79.050781 103.085938 78.949219 C 102.941406 78.851562 102.828125 78.699219 102.75 78.496094 C 102.671875 78.292969 102.632812 78.050781 102.632812 77.773438 L 102.632812 71.453125 C 102.632812 71.175781 102.671875 70.882812 102.75 70.574219 C 102.828125 70.261719 102.941406 69.960938 103.085938 69.667969 C 103.230469 69.371094 103.398438 69.109375 103.589844 68.875 C 103.777344 68.640625 103.976562 68.453125 104.183594 68.316406 " fill-opacity="1" fill-rule="nonzero"/><path fill="#ff7d00" d="M 104.203125 56.300781 L 112.964844 50.414062 C 113.148438 50.289062 113.324219 50.226562 113.492188 50.21875 C 113.664062 50.214844 113.8125 50.269531 113.941406 50.382812 C 114.070312 50.496094 114.171875 50.660156 114.242188 50.875 C 114.3125 51.089844 114.347656 51.339844 114.347656 51.625 L 114.347656 57.859375 C 114.347656 58.140625 114.3125 58.4375 114.242188 58.746094 C 114.171875 59.054688 114.070312 59.355469 113.941406 59.640625 C 113.8125 59.929688 113.664062 60.183594 113.492188 60.40625 C 113.324219 60.628906 113.148438 60.804688 112.964844 60.925781 L 104.203125 66.816406 C 104.019531 66.9375 103.84375 67.003906 103.671875 67.007812 C 103.503906 67.011719 103.355469 66.960938 103.222656 66.84375 C 103.09375 66.730469 102.996094 66.566406 102.925781 66.351562 C 102.855469 66.136719 102.820312 65.886719 102.820312 65.605469 L 102.820312 59.371094 C 102.820312 59.085938 102.855469 58.789062 102.925781 58.480469 C 102.996094 58.171875 103.09375 57.875 103.222656 57.585938 C 103.355469 57.296875 103.503906 57.042969 103.671875 56.820312 C 103.84375 56.597656 104.019531 56.425781 104.203125 56.300781 " fill-opacity="1" fill-rule="nonzero"/><path fill="#ff7d00" d="M 104.203125 43.320312 L 112.964844 37.433594 C 113.148438 37.308594 113.324219 37.226562 113.492188 37.179688 C 113.664062 37.136719 113.8125 37.136719 113.941406 37.175781 C 114.070312 37.21875 114.171875 37.296875 114.242188 37.417969 C 114.3125 37.539062 114.347656 37.691406 114.347656 37.871094 L 114.347656 45.648438 C 114.347656 45.828125 114.3125 46.027344 114.242188 46.242188 C 114.171875 46.457031 114.070312 46.671875 113.941406 46.886719 C 113.8125 47.101562 113.664062 47.300781 113.492188 47.484375 C 113.324219 47.667969 113.148438 47.824219 112.964844 47.945312 L 104.203125 53.835938 C 104.019531 53.957031 103.84375 54.042969 103.671875 54.085938 C 103.503906 54.128906 103.355469 54.132812 103.222656 54.089844 C 103.09375 54.050781 102.996094 53.96875 102.925781 53.847656 C 102.855469 53.726562 102.820312 53.578125 102.820312 53.394531 L 102.820312 45.621094 C 102.820312 45.4375 102.855469 45.238281 102.925781 45.023438 C 102.996094 44.808594 103.09375 44.59375 103.222656 44.378906 C 103.355469 44.164062 103.503906 43.964844 103.671875 43.78125 C 103.84375 43.597656 104.019531 43.445312 104.203125 43.320312 " fill-opacity="1" fill-rule="nonzero"/><g clip-path="url(#818eefb238)"><path fill="#000000" d="M 36.488281 36.976562 L 75.65625 60.367188 C 75.824219 60.46875 75.984375 60.660156 76.136719 60.945312 C 76.289062 61.234375 76.421875 61.589844 76.535156 62.015625 C 76.648438 62.445312 76.738281 62.910156 76.796875 63.417969 C 76.851562 63.921875 76.878906 64.425781 76.875 64.933594 L 76.503906 96.402344 C 76.496094 96.90625 76.460938 97.375 76.390625 97.800781 C 76.320312 98.230469 76.226562 98.589844 76.101562 98.875 C 75.980469 99.164062 75.839844 99.355469 75.683594 99.457031 C 75.527344 99.558594 75.363281 99.558594 75.199219 99.460938 L 36.027344 76.066406 C 35.859375 75.96875 35.699219 75.773438 35.546875 75.488281 C 35.394531 75.203125 35.261719 74.847656 35.148438 74.417969 C 35.035156 73.992188 34.949219 73.523438 34.890625 73.019531 C 34.832031 72.515625 34.804688 72.007812 34.8125 71.503906 L 35.179688 40.035156 C 35.1875 39.53125 35.226562 39.0625 35.292969 38.632812 C 35.363281 38.207031 35.460938 37.847656 35.582031 37.5625 C 35.703125 37.273438 35.84375 37.082031 36 36.980469 C 36.15625 36.878906 36.320312 36.878906 36.488281 36.976562 " fill-opacity="1" fill-rule="nonzero"/></g><path fill="#ffe200" d="M 64.4375 81.203125 L 72.914062 86.550781 C 73.109375 86.675781 73.296875 86.855469 73.480469 87.089844 C 73.660156 87.324219 73.820312 87.59375 73.960938 87.90625 C 74.097656 88.214844 74.203125 88.539062 74.28125 88.875 C 74.355469 89.214844 74.390625 89.539062 74.390625 89.855469 L 74.390625 95.625 C 74.390625 95.941406 74.355469 96.21875 74.28125 96.460938 C 74.203125 96.707031 74.097656 96.894531 73.960938 97.03125 C 73.820312 97.164062 73.660156 97.234375 73.480469 97.242188 C 73.296875 97.246094 73.109375 97.1875 72.914062 97.0625 L 64.4375 91.714844 C 64.242188 91.589844 64.054688 91.414062 63.871094 91.179688 C 63.691406 90.941406 63.53125 90.671875 63.390625 90.359375 C 63.253906 90.050781 63.148438 89.726562 63.070312 89.390625 C 62.996094 89.050781 62.960938 88.726562 62.960938 88.410156 L 62.960938 82.640625 C 62.960938 82.324219 62.996094 82.046875 63.070312 81.804688 C 63.148438 81.5625 63.253906 81.371094 63.390625 81.238281 C 63.53125 81.101562 63.691406 81.03125 63.871094 81.027344 C 64.054688 81.019531 64.242188 81.078125 64.4375 81.203125 " fill-opacity="1" fill-rule="nonzero"/><path fill="#0bd521" d="M 64.628906 68.179688 L 73.105469 73.53125 C 73.300781 73.652344 73.492188 73.804688 73.671875 73.980469 C 73.851562 74.160156 74.011719 74.351562 74.152344 74.554688 C 74.289062 74.757812 74.398438 74.960938 74.472656 75.160156 C 74.546875 75.359375 74.585938 75.539062 74.585938 75.707031 L 74.585938 83.734375 C 74.585938 83.898438 74.546875 84.035156 74.472656 84.140625 C 74.398438 84.242188 74.289062 84.3125 74.152344 84.339844 C 74.011719 84.367188 73.851562 84.355469 73.671875 84.304688 C 73.492188 84.253906 73.300781 84.167969 73.105469 84.042969 L 64.628906 78.695312 C 64.433594 78.570312 64.246094 78.421875 64.066406 78.242188 C 63.882812 78.066406 63.722656 77.875 63.585938 77.671875 C 63.445312 77.46875 63.339844 77.265625 63.265625 77.066406 C 63.191406 76.867188 63.152344 76.683594 63.152344 76.519531 L 63.152344 68.488281 C 63.152344 68.324219 63.191406 68.191406 63.265625 68.085938 C 63.339844 67.980469 63.445312 67.914062 63.585938 67.886719 C 63.722656 67.855469 63.882812 67.867188 64.066406 67.917969 C 64.246094 67.96875 64.433594 68.058594 64.628906 68.179688 " fill-opacity="1" fill-rule="nonzero"/><path fill="#ffe200" d="M 64.628906 55.746094 L 73.105469 61.09375 C 73.300781 61.21875 73.492188 61.378906 73.671875 61.574219 C 73.851562 61.769531 74.011719 61.988281 74.152344 62.226562 C 74.289062 62.464844 74.398438 62.707031 74.472656 62.953125 C 74.546875 63.199219 74.585938 63.425781 74.585938 63.640625 L 74.585938 70.925781 C 74.585938 71.140625 74.546875 71.324219 74.472656 71.472656 C 74.398438 71.625 74.289062 71.730469 74.152344 71.796875 C 74.011719 71.859375 73.851562 71.875 73.671875 71.84375 C 73.492188 71.808594 73.300781 71.730469 73.105469 71.609375 L 64.628906 66.257812 C 64.433594 66.136719 64.246094 65.976562 64.066406 65.777344 C 63.882812 65.582031 63.722656 65.367188 63.585938 65.125 C 63.445312 64.886719 63.339844 64.644531 63.265625 64.402344 C 63.191406 64.15625 63.152344 63.925781 63.152344 63.710938 L 63.152344 56.425781 C 63.152344 56.210938 63.191406 56.03125 63.265625 55.878906 C 63.339844 55.730469 63.445312 55.621094 63.585938 55.558594 C 63.722656 55.496094 63.882812 55.480469 64.066406 55.511719 C 64.246094 55.542969 64.433594 55.621094 64.628906 55.746094 " fill-opacity="1" fill-rule="nonzero"/><path fill="#f41809" d="M 51.566406 73.0625 L 60.042969 78.410156 C 60.238281 78.535156 60.425781 78.707031 60.605469 78.925781 C 60.789062 79.140625 60.949219 79.390625 61.085938 79.671875 C 61.226562 79.949219 61.332031 80.238281 61.40625 80.539062 C 61.484375 80.835938 61.519531 81.121094 61.519531 81.394531 L 61.519531 87.808594 C 61.519531 88.082031 61.484375 88.316406 61.40625 88.523438 C 61.332031 88.726562 61.226562 88.878906 61.085938 88.984375 C 60.949219 89.089844 60.789062 89.136719 60.605469 89.125 C 60.425781 89.113281 60.238281 89.046875 60.042969 88.925781 L 51.566406 83.574219 C 51.371094 83.453125 51.179688 83.28125 51 83.0625 C 50.820312 82.84375 50.660156 82.59375 50.519531 82.316406 C 50.382812 82.035156 50.273438 81.746094 50.199219 81.449219 C 50.125 81.148438 50.085938 80.867188 50.085938 80.59375 L 50.085938 74.175781 C 50.085938 73.90625 50.125 73.667969 50.199219 73.464844 C 50.273438 73.261719 50.382812 73.105469 50.519531 73.003906 C 50.660156 72.898438 50.820312 72.851562 51 72.859375 C 51.179688 72.871094 51.371094 72.9375 51.566406 73.0625 " fill-opacity="1" fill-rule="nonzero"/><path fill="#ffe200" d="M 51.566406 60.335938 L 60.042969 65.683594 C 60.238281 65.808594 60.425781 65.980469 60.605469 66.207031 C 60.789062 66.433594 60.949219 66.691406 61.085938 66.988281 C 61.226562 67.28125 61.332031 67.585938 61.40625 67.902344 C 61.484375 68.21875 61.519531 68.523438 61.519531 68.8125 L 61.519531 74.933594 C 61.519531 75.226562 61.484375 75.480469 61.40625 75.703125 C 61.332031 75.925781 61.226562 76.09375 61.085938 76.214844 C 60.949219 76.332031 60.789062 76.390625 60.605469 76.386719 C 60.425781 76.382812 60.238281 76.320312 60.042969 76.195312 L 51.566406 70.847656 C 51.371094 70.722656 51.179688 70.550781 51 70.324219 C 50.820312 70.097656 50.660156 69.839844 50.519531 69.546875 C 50.382812 69.25 50.273438 68.945312 50.199219 68.628906 C 50.125 68.3125 50.085938 68.011719 50.085938 67.71875 L 50.085938 61.597656 C 50.085938 61.308594 50.125 61.050781 50.199219 60.828125 C 50.273438 60.605469 50.382812 60.4375 50.519531 60.316406 C 50.660156 60.199219 50.820312 60.140625 51 60.144531 C 51.179688 60.148438 51.371094 60.210938 51.566406 60.335938 " fill-opacity="1" fill-rule="nonzero"/><path fill="#0000dd" d="M 51.660156 48.074219 L 60.136719 53.421875 C 60.332031 53.546875 60.519531 53.710938 60.703125 53.914062 C 60.882812 54.117188 61.042969 54.34375 61.183594 54.597656 C 61.320312 54.851562 61.425781 55.109375 61.503906 55.371094 C 61.578125 55.632812 61.613281 55.882812 61.613281 56.117188 L 61.613281 63.105469 C 61.613281 63.339844 61.578125 63.542969 61.503906 63.710938 C 61.425781 63.878906 61.320312 64 61.183594 64.078125 C 61.042969 64.15625 60.882812 64.183594 60.703125 64.15625 C 60.519531 64.132812 60.332031 64.058594 60.136719 63.933594 L 51.660156 58.585938 C 51.464844 58.460938 51.277344 58.296875 51.09375 58.09375 C 50.914062 57.890625 50.753906 57.664062 50.613281 57.410156 C 50.476562 57.15625 50.371094 56.898438 50.292969 56.636719 C 50.21875 56.375 50.183594 56.125 50.183594 55.890625 L 50.183594 48.902344 C 50.183594 48.667969 50.21875 48.464844 50.292969 48.296875 C 50.371094 48.128906 50.476562 48.007812 50.613281 47.929688 C 50.753906 47.851562 50.914062 47.824219 51.09375 47.851562 C 51.277344 47.875 51.464844 47.949219 51.660156 48.074219 " fill-opacity="1" fill-rule="nonzero"/><path fill="#ff7d00" d="M 38.40625 64.8125 L 46.878906 70.160156 C 47.078125 70.285156 47.265625 70.441406 47.445312 70.632812 C 47.628906 70.824219 47.789062 71.03125 47.925781 71.261719 C 48.066406 71.488281 48.171875 71.71875 48.246094 71.949219 C 48.320312 72.179688 48.359375 72.394531 48.359375 72.59375 L 48.359375 80.105469 C 48.359375 80.304688 48.320312 80.472656 48.246094 80.609375 C 48.171875 80.746094 48.066406 80.839844 47.925781 80.894531 C 47.789062 80.945312 47.628906 80.953125 47.445312 80.917969 C 47.265625 80.878906 47.078125 80.796875 46.878906 80.671875 L 38.40625 75.324219 C 38.207031 75.203125 38.019531 75.042969 37.839844 74.855469 C 37.65625 74.664062 37.496094 74.453125 37.359375 74.226562 C 37.21875 73.996094 37.113281 73.765625 37.039062 73.535156 C 36.964844 73.304688 36.925781 73.089844 36.925781 72.890625 L 36.925781 65.378906 C 36.925781 65.179688 36.964844 65.011719 37.039062 64.875 C 37.113281 64.738281 37.21875 64.644531 37.359375 64.589844 C 37.496094 64.539062 37.65625 64.53125 37.839844 64.570312 C 38.019531 64.605469 38.207031 64.6875 38.40625 64.8125 " fill-opacity="1" fill-rule="nonzero"/><path fill="#ffe200" d="M 38.597656 52.605469 L 47.074219 57.953125 C 47.269531 58.078125 47.457031 58.234375 47.640625 58.421875 C 47.820312 58.609375 47.980469 58.8125 48.117188 59.035156 C 48.257812 59.257812 48.363281 59.480469 48.4375 59.703125 C 48.515625 59.929688 48.550781 60.136719 48.550781 60.324219 L 48.550781 67.960938 C 48.550781 68.152344 48.515625 68.3125 48.4375 68.441406 C 48.363281 68.570312 48.257812 68.660156 48.117188 68.707031 C 47.980469 68.753906 47.820312 68.757812 47.640625 68.714844 C 47.457031 68.675781 47.269531 68.589844 47.074219 68.46875 L 38.597656 63.121094 C 38.402344 62.996094 38.210938 62.839844 38.03125 62.652344 C 37.851562 62.464844 37.691406 62.261719 37.550781 62.039062 C 37.414062 61.816406 37.304688 61.59375 37.230469 61.367188 C 37.15625 61.144531 37.117188 60.9375 37.117188 60.746094 L 37.117188 53.109375 C 37.117188 52.921875 37.15625 52.761719 37.230469 52.632812 C 37.304688 52.503906 37.414062 52.414062 37.550781 52.367188 C 37.691406 52.320312 37.851562 52.316406 38.03125 52.359375 C 38.210938 52.398438 38.402344 52.480469 38.597656 52.605469 " fill-opacity="1" fill-rule="nonzero"/><path fill="#e2e2e2" d="M 38.597656 40.054688 L 47.074219 45.402344 C 47.269531 45.523438 47.457031 45.675781 47.640625 45.855469 C 47.820312 46.035156 47.980469 46.226562 48.117188 46.433594 C 48.257812 46.640625 48.363281 46.847656 48.4375 47.050781 C 48.515625 47.253906 48.550781 47.4375 48.550781 47.609375 L 48.550781 55.574219 C 48.550781 55.742188 48.515625 55.882812 48.4375 55.992188 C 48.363281 56.097656 48.257812 56.167969 48.117188 56.203125 C 47.980469 56.234375 47.820312 56.226562 47.640625 56.175781 C 47.457031 56.125 47.269531 56.039062 47.074219 55.914062 L 38.597656 50.566406 C 38.402344 50.441406 38.210938 50.289062 38.03125 50.113281 C 37.851562 49.933594 37.691406 49.738281 37.550781 49.535156 C 37.414062 49.328125 37.304688 49.121094 37.230469 48.917969 C 37.15625 48.714844 37.117188 48.527344 37.117188 48.359375 L 37.117188 40.394531 C 37.117188 40.222656 37.15625 40.085938 37.230469 39.976562 C 37.304688 39.867188 37.414062 39.796875 37.550781 39.765625 C 37.691406 39.734375 37.851562 39.742188 38.03125 39.792969 C 38.210938 39.84375 38.402344 39.929688 38.597656 40.054688 " fill-opacity="1" fill-rule="nonzero"/><path fill="#0bd521" d="M 49.9375 30.457031 L 59.445312 36.136719 C 59.558594 36.203125 59.621094 36.296875 59.636719 36.417969 C 59.652344 36.539062 59.617188 36.679688 59.53125 36.835938 C 59.445312 36.992188 59.316406 37.15625 59.144531 37.324219 C 58.972656 37.492188 58.769531 37.652344 58.535156 37.804688 L 51.246094 42.621094 C 51.011719 42.773438 50.765625 42.910156 50.507812 43.027344 C 50.25 43.140625 50 43.230469 49.753906 43.292969 C 49.507812 43.355469 49.289062 43.382812 49.097656 43.378906 C 48.902344 43.375 48.75 43.339844 48.636719 43.273438 L 39.128906 37.59375 C 39.015625 37.527344 38.953125 37.429688 38.9375 37.308594 C 38.921875 37.1875 38.957031 37.050781 39.042969 36.894531 C 39.128906 36.738281 39.257812 36.574219 39.429688 36.40625 C 39.601562 36.238281 39.804688 36.078125 40.039062 35.921875 L 47.328125 31.109375 C 47.5625 30.953125 47.808594 30.820312 48.066406 30.703125 C 48.324219 30.585938 48.578125 30.496094 48.820312 30.4375 C 49.066406 30.375 49.285156 30.347656 49.476562 30.347656 C 49.671875 30.351562 49.824219 30.386719 49.9375 30.457031 " fill-opacity="1" fill-rule="nonzero"/><path fill="#e2e2e2" d="M 62.871094 38.5 L 72.378906 44.179688 C 72.488281 44.246094 72.554688 44.339844 72.570312 44.460938 C 72.582031 44.582031 72.546875 44.722656 72.464844 44.878906 C 72.378906 45.035156 72.25 45.195312 72.078125 45.363281 C 71.90625 45.535156 71.703125 45.695312 71.46875 45.847656 L 64.179688 50.664062 C 63.945312 50.816406 63.699219 50.953125 63.441406 51.070312 C 63.183594 51.183594 62.929688 51.273438 62.6875 51.335938 C 62.441406 51.398438 62.222656 51.425781 62.027344 51.421875 C 61.835938 51.417969 61.683594 51.382812 61.570312 51.316406 L 52.0625 45.636719 C 51.949219 45.566406 51.886719 45.472656 51.871094 45.351562 C 51.855469 45.230469 51.890625 45.09375 51.976562 44.9375 C 52.0625 44.78125 52.191406 44.617188 52.363281 44.449219 C 52.535156 44.28125 52.738281 44.121094 52.96875 43.964844 L 60.261719 39.152344 C 60.492188 38.996094 60.738281 38.863281 61 38.746094 C 61.257812 38.628906 61.507812 38.539062 61.753906 38.480469 C 61.996094 38.417969 62.214844 38.390625 62.410156 38.390625 C 62.605469 38.394531 62.757812 38.429688 62.871094 38.5 " fill-opacity="1" fill-rule="nonzero"/><path fill="#0bd521" d="M 76.148438 46.429688 L 85.65625 52.109375 C 85.769531 52.175781 85.832031 52.269531 85.847656 52.390625 C 85.863281 52.511719 85.828125 52.652344 85.742188 52.808594 C 85.65625 52.964844 85.527344 53.125 85.355469 53.292969 C 85.183594 53.460938 84.980469 53.625 84.746094 53.777344 L 77.457031 58.59375 C 77.222656 58.746094 76.976562 58.882812 76.71875 59 C 76.460938 59.113281 76.207031 59.203125 75.964844 59.265625 C 75.71875 59.328125 75.5 59.355469 75.308594 59.351562 C 75.113281 59.347656 74.960938 59.3125 74.847656 59.246094 L 65.339844 53.566406 C 65.226562 53.496094 65.164062 53.402344 65.148438 53.28125 C 65.132812 53.160156 65.167969 53.023438 65.253906 52.867188 C 65.339844 52.710938 65.46875 52.546875 65.640625 52.378906 C 65.8125 52.210938 66.015625 52.050781 66.25 51.894531 L 73.539062 47.082031 C 73.773438 46.925781 74.019531 46.792969 74.277344 46.675781 C 74.535156 46.558594 74.785156 46.46875 75.03125 46.410156 C 75.277344 46.347656 75.496094 46.320312 75.6875 46.320312 C 75.882812 46.324219 76.035156 46.359375 76.148438 46.429688 " fill-opacity="1" fill-rule="nonzero"/><path fill="#f41809" d="M 63.035156 21.917969 L 72.542969 27.601562 C 72.65625 27.667969 72.71875 27.761719 72.734375 27.882812 C 72.75 28.003906 72.714844 28.144531 72.628906 28.300781 C 72.542969 28.457031 72.414062 28.617188 72.242188 28.785156 C 72.070312 28.953125 71.867188 29.117188 71.636719 29.269531 L 64.34375 34.085938 C 64.113281 34.238281 63.867188 34.375 63.605469 34.492188 C 63.347656 34.605469 63.097656 34.695312 62.851562 34.757812 C 62.609375 34.816406 62.390625 34.847656 62.195312 34.84375 C 62.003906 34.839844 61.847656 34.804688 61.734375 34.738281 L 52.230469 29.058594 C 52.117188 28.988281 52.050781 28.894531 52.035156 28.773438 C 52.023438 28.652344 52.058594 28.515625 52.140625 28.359375 C 52.226562 28.203125 52.355469 28.039062 52.527344 27.871094 C 52.699219 27.703125 52.902344 27.542969 53.136719 27.386719 L 60.425781 22.574219 C 60.660156 22.417969 60.90625 22.285156 61.164062 22.167969 C 61.421875 22.050781 61.675781 21.960938 61.917969 21.902344 C 62.164062 21.839844 62.382812 21.808594 62.578125 21.8125 C 62.769531 21.816406 62.921875 21.851562 63.035156 21.917969 " fill-opacity="1" fill-rule="nonzero"/><path fill="#0bd521" d="M 76.132812 29.738281 L 85.640625 35.417969 C 85.753906 35.484375 85.820312 35.582031 85.832031 35.703125 C 85.847656 35.824219 85.8125 35.960938 85.726562 36.117188 C 85.644531 36.273438 85.515625 36.4375 85.339844 36.605469 C 85.167969 36.773438 84.964844 36.933594 84.734375 37.089844 L 77.441406 41.902344 C 77.210938 42.058594 76.964844 42.191406 76.707031 42.308594 C 76.445312 42.425781 76.195312 42.515625 75.949219 42.574219 C 75.707031 42.636719 75.488281 42.664062 75.292969 42.660156 C 75.101562 42.660156 74.945312 42.625 74.835938 42.554688 L 65.328125 36.875 C 65.214844 36.808594 65.148438 36.714844 65.136719 36.59375 C 65.121094 36.472656 65.15625 36.332031 65.242188 36.175781 C 65.324219 36.019531 65.453125 35.855469 65.625 35.6875 C 65.800781 35.519531 66 35.359375 66.234375 35.207031 L 73.523438 30.390625 C 73.757812 30.238281 74.003906 30.101562 74.261719 29.984375 C 74.523438 29.867188 74.773438 29.78125 75.019531 29.71875 C 75.261719 29.65625 75.480469 29.628906 75.675781 29.632812 C 75.867188 29.636719 76.019531 29.671875 76.132812 29.738281 " fill-opacity="1" fill-rule="nonzero"/><path fill="#ff7d00" d="M 89.691406 37.839844 L 99.199219 43.523438 C 99.3125 43.589844 99.378906 43.683594 99.390625 43.804688 C 99.40625 43.925781 99.371094 44.066406 99.285156 44.222656 C 99.203125 44.378906 99.074219 44.539062 98.898438 44.707031 C 98.726562 44.875 98.523438 45.035156 98.292969 45.191406 L 91 50.003906 C 90.769531 50.160156 90.523438 50.296875 90.265625 50.410156 C 90.003906 50.527344 89.753906 50.617188 89.507812 50.679688 C 89.265625 50.738281 89.046875 50.769531 88.851562 50.765625 C 88.660156 50.761719 88.503906 50.726562 88.394531 50.660156 L 78.886719 44.976562 C 78.773438 44.910156 78.707031 44.816406 78.695312 44.695312 C 78.679688 44.574219 78.714844 44.4375 78.800781 44.277344 C 78.882812 44.121094 79.011719 43.960938 79.183594 43.792969 C 79.359375 43.625 79.558594 43.464844 79.792969 43.308594 L 87.082031 38.496094 C 87.316406 38.339844 87.5625 38.207031 87.820312 38.089844 C 88.082031 37.972656 88.332031 37.882812 88.578125 37.820312 C 88.820312 37.761719 89.039062 37.730469 89.234375 37.734375 C 89.425781 37.738281 89.578125 37.773438 89.691406 37.839844 " fill-opacity="1" fill-rule="nonzero"/><path fill="#e2e2e2" d="M 75.753906 13.519531 L 85.261719 19.203125 C 85.375 19.269531 85.4375 19.363281 85.453125 19.484375 C 85.46875 19.605469 85.433594 19.746094 85.347656 19.902344 C 85.261719 20.058594 85.132812 20.21875 84.960938 20.386719 C 84.789062 20.554688 84.585938 20.714844 84.351562 20.871094 L 77.0625 25.683594 C 76.828125 25.839844 76.582031 25.976562 76.324219 26.089844 C 76.066406 26.207031 75.816406 26.296875 75.570312 26.359375 C 75.324219 26.417969 75.105469 26.449219 74.914062 26.445312 C 74.71875 26.441406 74.566406 26.40625 74.453125 26.339844 L 64.945312 20.65625 C 64.832031 20.589844 64.769531 20.496094 64.753906 20.375 C 64.738281 20.253906 64.773438 20.117188 64.859375 19.957031 C 64.945312 19.800781 65.074219 19.640625 65.246094 19.472656 C 65.417969 19.304688 65.621094 19.144531 65.855469 18.988281 L 73.144531 14.175781 C 73.378906 14.019531 73.625 13.886719 73.882812 13.769531 C 74.140625 13.652344 74.394531 13.5625 74.636719 13.5 C 74.882812 13.441406 75.101562 13.410156 75.292969 13.414062 C 75.488281 13.417969 75.640625 13.453125 75.753906 13.519531 " fill-opacity="1" fill-rule="nonzero"/><path fill="#ffe200" d="M 89.226562 21.332031 L 98.734375 27.011719 C 98.84375 27.078125 98.910156 27.171875 98.925781 27.292969 C 98.9375 27.414062 98.902344 27.554688 98.820312 27.710938 C 98.734375 27.867188 98.605469 28.03125 98.433594 28.199219 C 98.261719 28.367188 98.058594 28.527344 97.824219 28.679688 L 90.535156 33.496094 C 90.300781 33.648438 90.054688 33.785156 89.796875 33.902344 C 89.539062 34.015625 89.285156 34.105469 89.042969 34.167969 C 88.796875 34.230469 88.578125 34.257812 88.382812 34.253906 C 88.191406 34.25 88.039062 34.214844 87.925781 34.148438 L 78.417969 28.46875 C 78.304688 28.402344 78.242188 28.304688 78.226562 28.183594 C 78.210938 28.0625 78.246094 27.925781 78.332031 27.769531 C 78.417969 27.613281 78.546875 27.449219 78.71875 27.28125 C 78.890625 27.113281 79.09375 26.953125 79.324219 26.796875 L 86.617188 21.984375 C 86.847656 21.828125 87.09375 21.695312 87.355469 21.578125 C 87.613281 21.460938 87.863281 21.371094 88.109375 21.3125 C 88.351562 21.25 88.570312 21.222656 88.765625 21.222656 C 88.960938 21.226562 89.113281 21.261719 89.226562 21.332031 " fill-opacity="1" fill-rule="nonzero"/><path fill="#f41809" d="M 102.417969 29.4375 L 111.925781 35.117188 C 112.039062 35.183594 112.101562 35.277344 112.117188 35.398438 C 112.132812 35.523438 112.097656 35.660156 112.011719 35.816406 C 111.925781 35.972656 111.796875 36.136719 111.625 36.304688 C 111.453125 36.472656 111.25 36.632812 111.015625 36.785156 L 103.726562 41.601562 C 103.492188 41.753906 103.246094 41.890625 102.988281 42.007812 C 102.730469 42.125 102.480469 42.210938 102.234375 42.273438 C 101.988281 42.335938 101.769531 42.363281 101.578125 42.359375 C 101.382812 42.359375 101.230469 42.324219 101.117188 42.253906 L 91.609375 36.574219 C 91.496094 36.507812 91.433594 36.414062 91.417969 36.292969 C 91.402344 36.171875 91.4375 36.03125 91.523438 35.875 C 91.609375 35.71875 91.738281 35.554688 91.910156 35.386719 C 92.082031 35.21875 92.285156 35.058594 92.519531 34.90625 L 99.808594 30.089844 C 100.042969 29.9375 100.289062 29.800781 100.546875 29.683594 C 100.804688 29.566406 101.058594 29.480469 101.300781 29.417969 C 101.546875 29.355469 101.765625 29.328125 101.957031 29.332031 C 102.152344 29.335938 102.304688 29.371094 102.417969 29.4375 " fill-opacity="1" fill-rule="nonzero"/><path fill="#ffffff" d="M 53.097656 29.519531 L 61.472656 34.429688 C 61.617188 34.515625 61.734375 34.601562 61.824219 34.691406 C 61.917969 34.78125 61.972656 34.867188 61.996094 34.945312 C 62.015625 35.027344 62 35.097656 61.953125 35.15625 C 61.902344 35.214844 61.816406 35.257812 61.703125 35.285156 C 61.589844 35.3125 61.449219 35.324219 61.289062 35.316406 C 61.125 35.3125 60.953125 35.289062 60.769531 35.246094 C 60.585938 35.207031 60.402344 35.152344 60.222656 35.085938 C 60.046875 35.015625 59.882812 34.941406 59.738281 34.855469 L 51.363281 29.945312 C 51.21875 29.859375 51.101562 29.769531 51.011719 29.679688 C 50.917969 29.59375 50.863281 29.507812 50.839844 29.425781 C 50.820312 29.347656 50.835938 29.277344 50.886719 29.21875 C 50.933594 29.160156 51.019531 29.117188 51.132812 29.085938 C 51.25 29.058594 51.386719 29.046875 51.546875 29.054688 C 51.710938 29.0625 51.882812 29.085938 52.066406 29.125 C 52.253906 29.167969 52.433594 29.21875 52.613281 29.289062 C 52.789062 29.355469 52.953125 29.433594 53.097656 29.519531 " fill-opacity="0.4157" fill-rule="nonzero"/><path fill="#ffffff" d="M 40.597656 38.285156 L 48.972656 43.195312 C 49.117188 43.28125 49.234375 43.367188 49.324219 43.457031 C 49.417969 43.546875 49.472656 43.632812 49.492188 43.710938 C 49.515625 43.792969 49.5 43.863281 49.449219 43.921875 C 49.398438 43.980469 49.316406 44.023438 49.203125 44.050781 C 49.085938 44.078125 48.949219 44.089844 48.789062 44.082031 C 48.625 44.078125 48.453125 44.054688 48.269531 44.011719 C 48.082031 43.972656 47.902344 43.917969 47.722656 43.851562 C 47.542969 43.78125 47.382812 43.707031 47.238281 43.621094 L 38.863281 38.710938 C 38.71875 38.625 38.601562 38.539062 38.507812 38.449219 C 38.417969 38.359375 38.363281 38.273438 38.339844 38.191406 C 38.320312 38.113281 38.332031 38.042969 38.382812 37.984375 C 38.433594 37.925781 38.519531 37.882812 38.632812 37.851562 C 38.746094 37.824219 38.886719 37.8125 39.046875 37.820312 C 39.210938 37.828125 39.382812 37.851562 39.566406 37.890625 C 39.75 37.933594 39.933594 37.988281 40.113281 38.054688 C 40.289062 38.121094 40.453125 38.199219 40.597656 38.285156 " fill-opacity="0.4157" fill-rule="nonzero"/><path fill="#ffffff" d="M 39.496094 51.863281 L 47.871094 56.773438 C 48.015625 56.859375 48.132812 56.945312 48.222656 57.035156 C 48.316406 57.125 48.371094 57.210938 48.394531 57.292969 C 48.414062 57.371094 48.398438 57.441406 48.347656 57.5 C 48.300781 57.558594 48.214844 57.601562 48.101562 57.632812 C 47.984375 57.660156 47.847656 57.667969 47.6875 57.664062 C 47.523438 57.65625 47.351562 57.632812 47.167969 57.59375 C 46.980469 57.550781 46.800781 57.496094 46.621094 57.429688 C 46.445312 57.363281 46.28125 57.285156 46.136719 57.199219 L 37.761719 52.289062 C 37.617188 52.203125 37.5 52.117188 37.410156 52.027344 C 37.316406 51.9375 37.261719 51.851562 37.238281 51.773438 C 37.21875 51.691406 37.234375 51.621094 37.28125 51.5625 C 37.332031 51.503906 37.417969 51.460938 37.53125 51.433594 C 37.644531 51.40625 37.785156 51.394531 37.945312 51.402344 C 38.109375 51.40625 38.28125 51.429688 38.464844 51.472656 C 38.652344 51.511719 38.832031 51.566406 39.011719 51.632812 C 39.1875 51.703125 39.351562 51.777344 39.496094 51.863281 " fill-opacity="0.4157" fill-rule="nonzero"/><path fill="#ffffff" d="M 53.425781 46.699219 L 61.800781 51.605469 C 61.945312 51.691406 62.0625 51.78125 62.152344 51.871094 C 62.246094 51.960938 62.300781 52.042969 62.324219 52.125 C 62.34375 52.207031 62.328125 52.273438 62.28125 52.332031 C 62.230469 52.390625 62.144531 52.4375 62.03125 52.464844 C 61.917969 52.492188 61.777344 52.503906 61.617188 52.496094 C 61.453125 52.488281 61.28125 52.464844 61.097656 52.425781 C 60.910156 52.386719 60.730469 52.332031 60.550781 52.261719 C 60.375 52.195312 60.210938 52.117188 60.066406 52.03125 L 51.691406 47.121094 C 51.546875 47.039062 51.429688 46.949219 51.339844 46.859375 C 51.246094 46.769531 51.191406 46.683594 51.167969 46.605469 C 51.148438 46.523438 51.164062 46.453125 51.214844 46.394531 C 51.261719 46.335938 51.347656 46.292969 51.460938 46.265625 C 51.574219 46.238281 51.714844 46.226562 51.875 46.234375 C 52.039062 46.238281 52.210938 46.261719 52.394531 46.304688 C 52.582031 46.34375 52.761719 46.398438 52.941406 46.46875 C 53.117188 46.535156 53.28125 46.613281 53.425781 46.699219 " fill-opacity="0.4157" fill-rule="nonzero"/><path fill="#ffffff" d="M 66.652344 54.617188 L 75.023438 59.527344 C 75.167969 59.613281 75.289062 59.699219 75.378906 59.789062 C 75.46875 59.878906 75.523438 59.964844 75.546875 60.042969 C 75.566406 60.125 75.554688 60.195312 75.503906 60.253906 C 75.453125 60.3125 75.371094 60.355469 75.253906 60.382812 C 75.140625 60.410156 75 60.421875 74.839844 60.414062 C 74.675781 60.410156 74.503906 60.386719 74.320312 60.34375 C 74.136719 60.304688 73.953125 60.25 73.777344 60.183594 C 73.597656 60.113281 73.433594 60.035156 73.289062 59.953125 L 64.917969 55.042969 C 64.769531 54.957031 64.652344 54.867188 64.5625 54.777344 C 64.472656 54.6875 64.414062 54.605469 64.394531 54.523438 C 64.371094 54.445312 64.386719 54.375 64.4375 54.316406 C 64.488281 54.257812 64.570312 54.214844 64.683594 54.183594 C 64.800781 54.15625 64.9375 54.144531 65.101562 54.152344 C 65.261719 54.160156 65.4375 54.183594 65.621094 54.222656 C 65.804688 54.261719 65.984375 54.316406 66.164062 54.386719 C 66.34375 54.453125 66.503906 54.53125 66.652344 54.617188 " fill-opacity="0.4157" fill-rule="nonzero"/><path fill="#ffffff" d="M 53.242188 60.644531 L 61.613281 65.554688 C 61.761719 65.640625 61.878906 65.726562 61.96875 65.816406 C 62.058594 65.90625 62.117188 65.992188 62.136719 66.070312 C 62.160156 66.152344 62.144531 66.222656 62.09375 66.28125 C 62.042969 66.339844 61.960938 66.382812 61.847656 66.410156 C 61.730469 66.4375 61.59375 66.449219 61.429688 66.441406 C 61.269531 66.4375 61.09375 66.414062 60.910156 66.371094 C 60.726562 66.332031 60.546875 66.277344 60.367188 66.207031 C 60.1875 66.140625 60.027344 66.0625 59.878906 65.980469 L 51.507812 61.070312 C 51.363281 60.984375 51.242188 60.894531 51.152344 60.804688 C 51.0625 60.714844 51.007812 60.632812 50.984375 60.550781 C 50.964844 60.472656 50.976562 60.402344 51.027344 60.34375 C 51.078125 60.285156 51.160156 60.242188 51.277344 60.210938 C 51.390625 60.183594 51.53125 60.171875 51.691406 60.179688 C 51.855469 60.1875 52.027344 60.210938 52.210938 60.25 C 52.394531 60.289062 52.578125 60.34375 52.753906 60.414062 C 52.933594 60.480469 53.097656 60.558594 53.242188 60.644531 " fill-opacity="0.4157" fill-rule="nonzero"/><path fill="#ffffff" d="M 65.550781 67.800781 L 73.921875 72.710938 C 74.070312 72.796875 74.1875 72.882812 74.277344 72.972656 C 74.367188 73.0625 74.425781 73.148438 74.445312 73.226562 C 74.46875 73.308594 74.453125 73.378906 74.402344 73.4375 C 74.351562 73.496094 74.269531 73.539062 74.15625 73.566406 C 74.039062 73.59375 73.902344 73.605469 73.738281 73.597656 C 73.578125 73.59375 73.402344 73.570312 73.21875 73.527344 C 73.035156 73.488281 72.855469 73.433594 72.675781 73.367188 C 72.496094 73.296875 72.335938 73.222656 72.1875 73.136719 L 63.816406 68.226562 C 63.671875 68.140625 63.550781 68.050781 63.460938 67.960938 C 63.371094 67.875 63.316406 67.789062 63.292969 67.707031 C 63.273438 67.628906 63.285156 67.558594 63.335938 67.5 C 63.386719 67.441406 63.46875 67.398438 63.585938 67.367188 C 63.699219 67.339844 63.839844 67.328125 64 67.335938 C 64.164062 67.34375 64.335938 67.367188 64.519531 67.40625 C 64.703125 67.449219 64.886719 67.5 65.0625 67.570312 C 65.242188 67.636719 65.40625 67.714844 65.550781 67.800781 " fill-opacity="0.4157" fill-rule="nonzero"/><path fill="#ffffff" d="M 39.496094 64.679688 L 47.871094 69.589844 C 48.015625 69.675781 48.132812 69.761719 48.226562 69.851562 C 48.316406 69.941406 48.371094 70.027344 48.394531 70.109375 C 48.414062 70.1875 48.402344 70.257812 48.351562 70.316406 C 48.300781 70.375 48.21875 70.417969 48.101562 70.449219 C 47.988281 70.476562 47.847656 70.484375 47.6875 70.480469 C 47.523438 70.472656 47.351562 70.449219 47.167969 70.410156 C 46.984375 70.367188 46.800781 70.3125 46.621094 70.246094 C 46.445312 70.179688 46.28125 70.101562 46.136719 70.015625 L 37.761719 65.105469 C 37.617188 65.019531 37.5 64.933594 37.410156 64.84375 C 37.320312 64.753906 37.261719 64.667969 37.242188 64.589844 C 37.21875 64.507812 37.234375 64.4375 37.285156 64.378906 C 37.335938 64.320312 37.417969 64.277344 37.53125 64.25 C 37.648438 64.222656 37.785156 64.210938 37.949219 64.21875 C 38.109375 64.222656 38.28125 64.246094 38.46875 64.289062 C 38.652344 64.328125 38.832031 64.382812 39.011719 64.449219 C 39.191406 64.519531 39.351562 64.59375 39.496094 64.679688 " fill-opacity="0.4157" fill-rule="nonzero"/><path fill="#ffffff" d="M 52.875 73.148438 L 61.25 78.058594 C 61.394531 78.144531 61.511719 78.230469 61.601562 78.320312 C 61.691406 78.410156 61.75 78.496094 61.769531 78.578125 C 61.792969 78.65625 61.777344 78.726562 61.726562 78.785156 C 61.675781 78.84375 61.59375 78.886719 61.480469 78.917969 C 61.363281 78.945312 61.226562 78.957031 61.0625 78.949219 C 60.902344 78.941406 60.730469 78.917969 60.542969 78.878906 C 60.359375 78.835938 60.179688 78.78125 60 78.714844 C 59.820312 78.648438 59.660156 78.570312 59.515625 78.484375 L 51.140625 73.574219 C 50.996094 73.488281 50.878906 73.402344 50.785156 73.3125 C 50.695312 73.222656 50.640625 73.136719 50.617188 73.058594 C 50.597656 72.976562 50.609375 72.90625 50.660156 72.847656 C 50.710938 72.789062 50.792969 72.746094 50.910156 72.71875 C 51.023438 72.691406 51.164062 72.679688 51.324219 72.6875 C 51.488281 72.691406 51.660156 72.714844 51.84375 72.757812 C 52.027344 72.796875 52.210938 72.851562 52.390625 72.917969 C 52.566406 72.988281 52.730469 73.0625 52.875 73.148438 " fill-opacity="0.4157" fill-rule="nonzero"/><path fill="#ffffff" d="M 65.917969 81.015625 L 74.292969 85.921875 C 74.4375 86.007812 74.554688 86.097656 74.648438 86.1875 C 74.738281 86.277344 74.792969 86.359375 74.816406 86.441406 C 74.835938 86.523438 74.824219 86.589844 74.773438 86.648438 C 74.722656 86.707031 74.640625 86.753906 74.523438 86.78125 C 74.410156 86.808594 74.269531 86.820312 74.109375 86.8125 C 73.945312 86.804688 73.773438 86.78125 73.589844 86.742188 C 73.40625 86.703125 73.222656 86.648438 73.042969 86.578125 C 72.867188 86.511719 72.703125 86.433594 72.558594 86.347656 L 64.183594 81.4375 C 64.039062 81.355469 63.921875 81.265625 63.832031 81.175781 C 63.742188 81.085938 63.683594 81 63.664062 80.921875 C 63.640625 80.839844 63.65625 80.769531 63.707031 80.710938 C 63.757812 80.652344 63.839844 80.609375 63.953125 80.582031 C 64.070312 80.554688 64.207031 80.542969 64.371094 80.550781 C 64.53125 80.554688 64.703125 80.582031 64.890625 80.621094 C 65.074219 80.660156 65.253906 80.714844 65.433594 80.785156 C 65.613281 80.851562 65.773438 80.929688 65.917969 81.015625 " fill-opacity="0.4157" fill-rule="nonzero"/><path fill="#ffffff" d="M 66.285156 37.734375 L 74.65625 42.644531 C 74.804688 42.730469 74.921875 42.816406 75.011719 42.90625 C 75.101562 42.996094 75.160156 43.082031 75.179688 43.160156 C 75.203125 43.242188 75.1875 43.3125 75.136719 43.371094 C 75.085938 43.429688 75.003906 43.472656 74.890625 43.5 C 74.773438 43.527344 74.636719 43.539062 74.472656 43.535156 C 74.3125 43.527344 74.136719 43.503906 73.953125 43.460938 C 73.769531 43.421875 73.589844 43.367188 73.410156 43.300781 C 73.230469 43.230469 73.070312 43.15625 72.921875 43.070312 L 64.550781 38.160156 C 64.40625 38.074219 64.285156 37.988281 64.195312 37.898438 C 64.105469 37.808594 64.050781 37.722656 64.027344 37.640625 C 64.003906 37.5625 64.019531 37.492188 64.070312 37.433594 C 64.121094 37.375 64.203125 37.332031 64.320312 37.304688 C 64.433594 37.273438 64.574219 37.265625 64.734375 37.269531 C 64.894531 37.277344 65.070312 37.300781 65.253906 37.339844 C 65.4375 37.382812 65.621094 37.4375 65.796875 37.503906 C 65.976562 37.574219 66.140625 37.648438 66.285156 37.734375 " fill-opacity="0.4157" fill-rule="nonzero"/><path fill="#ffffff" d="M 66.101562 21.402344 L 74.472656 26.3125 C 74.621094 26.398438 74.738281 26.484375 74.828125 26.574219 C 74.917969 26.664062 74.976562 26.75 74.996094 26.832031 C 75.019531 26.910156 75.003906 26.980469 74.953125 27.039062 C 74.902344 27.097656 74.820312 27.140625 74.707031 27.167969 C 74.589844 27.199219 74.453125 27.207031 74.289062 27.203125 C 74.128906 27.195312 73.953125 27.171875 73.769531 27.132812 C 73.585938 27.089844 73.40625 27.035156 73.226562 26.96875 C 73.046875 26.902344 72.886719 26.824219 72.738281 26.738281 L 64.367188 21.828125 C 64.222656 21.742188 64.101562 21.65625 64.011719 21.566406 C 63.921875 21.476562 63.867188 21.390625 63.84375 21.3125 C 63.824219 21.230469 63.835938 21.160156 63.886719 21.101562 C 63.9375 21.042969 64.019531 21 64.136719 20.972656 C 64.25 20.945312 64.390625 20.933594 64.550781 20.941406 C 64.710938 20.945312 64.886719 20.96875 65.070312 21.011719 C 65.253906 21.050781 65.4375 21.105469 65.613281 21.171875 C 65.792969 21.242188 65.957031 21.316406 66.101562 21.402344 " fill-opacity="0.4157" fill-rule="nonzero"/><path fill="#ffffff" d="M 79.90625 29.265625 L 88.277344 34.175781 C 88.425781 34.261719 88.542969 34.347656 88.632812 34.4375 C 88.722656 34.527344 88.78125 34.613281 88.800781 34.691406 C 88.824219 34.773438 88.808594 34.84375 88.757812 34.902344 C 88.707031 34.960938 88.625 35.003906 88.511719 35.03125 C 88.394531 35.058594 88.257812 35.070312 88.09375 35.0625 C 87.933594 35.058594 87.761719 35.035156 87.574219 34.992188 C 87.390625 34.953125 87.210938 34.898438 87.03125 34.832031 C 86.851562 34.761719 86.691406 34.6875 86.542969 34.601562 L 78.171875 29.691406 C 78.027344 29.605469 77.90625 29.519531 77.816406 29.429688 C 77.726562 29.339844 77.671875 29.253906 77.648438 29.171875 C 77.628906 29.09375 77.640625 29.023438 77.691406 28.964844 C 77.742188 28.90625 77.824219 28.863281 77.941406 28.832031 C 78.054688 28.804688 78.195312 28.796875 78.355469 28.800781 C 78.519531 28.808594 78.691406 28.832031 78.875 28.871094 C 79.058594 28.914062 79.242188 28.96875 79.417969 29.035156 C 79.597656 29.101562 79.761719 29.179688 79.90625 29.265625 " fill-opacity="0.4157" fill-rule="nonzero"/><path fill="#ffffff" d="M 93.132812 37.183594 L 101.503906 42.09375 C 101.652344 42.179688 101.769531 42.265625 101.859375 42.355469 C 101.949219 42.445312 102.007812 42.53125 102.027344 42.613281 C 102.050781 42.691406 102.035156 42.761719 101.984375 42.820312 C 101.933594 42.878906 101.851562 42.921875 101.734375 42.949219 C 101.621094 42.980469 101.484375 42.988281 101.320312 42.984375 C 101.160156 42.976562 100.984375 42.953125 100.800781 42.914062 C 100.617188 42.871094 100.4375 42.816406 100.257812 42.75 C 100.078125 42.679688 99.917969 42.605469 99.769531 42.519531 L 91.398438 37.609375 C 91.25 37.523438 91.132812 37.4375 91.042969 37.347656 C 90.953125 37.257812 90.898438 37.171875 90.875 37.089844 C 90.851562 37.011719 90.867188 36.941406 90.917969 36.882812 C 90.96875 36.824219 91.050781 36.78125 91.167969 36.753906 C 91.28125 36.722656 91.417969 36.714844 91.582031 36.71875 C 91.742188 36.726562 91.917969 36.75 92.101562 36.789062 C 92.285156 36.832031 92.46875 36.886719 92.644531 36.953125 C 92.824219 37.023438 92.984375 37.097656 93.132812 37.183594 " fill-opacity="0.4157" fill-rule="nonzero"/><path fill="#ffffff" d="M 80.273438 45.78125 L 88.648438 50.691406 C 88.792969 50.777344 88.910156 50.863281 89 50.953125 C 89.09375 51.042969 89.148438 51.128906 89.171875 51.207031 C 89.191406 51.289062 89.175781 51.359375 89.125 51.417969 C 89.078125 51.476562 88.992188 51.519531 88.878906 51.546875 C 88.761719 51.574219 88.625 51.585938 88.464844 51.578125 C 88.300781 51.574219 88.128906 51.550781 87.945312 51.507812 C 87.757812 51.46875 87.578125 51.414062 87.398438 51.347656 C 87.222656 51.277344 87.058594 51.199219 86.914062 51.117188 L 78.539062 46.207031 C 78.394531 46.121094 78.277344 46.03125 78.1875 45.941406 C 78.09375 45.851562 78.039062 45.769531 78.015625 45.6875 C 77.996094 45.609375 78.011719 45.539062 78.058594 45.480469 C 78.109375 45.421875 78.195312 45.378906 78.308594 45.347656 C 78.421875 45.320312 78.5625 45.308594 78.722656 45.316406 C 78.886719 45.324219 79.058594 45.347656 79.242188 45.386719 C 79.429688 45.429688 79.609375 45.480469 79.789062 45.550781 C 79.964844 45.617188 80.128906 45.695312 80.273438 45.78125 " fill-opacity="0.4157" fill-rule="nonzero"/><path fill="#ffffff" d="M 103.015625 57.378906 C 102.898438 57.714844 102.730469 57.976562 102.511719 58.164062 C 102.289062 58.351562 102.085938 58.414062 101.894531 58.34375 C 101.703125 58.277344 101.582031 58.101562 101.53125 57.816406 C 101.480469 57.53125 101.511719 57.222656 101.632812 56.890625 C 101.75 56.554688 101.917969 56.292969 102.140625 56.105469 C 102.359375 55.917969 102.5625 55.855469 102.753906 55.921875 C 102.945312 55.992188 103.066406 56.167969 103.117188 56.453125 C 103.167969 56.734375 103.136719 57.046875 103.015625 57.378906 Z M 103.015625 57.378906 " fill-opacity="0.298" fill-rule="nonzero"/><path fill="#ffffff" d="M 90.160156 66.273438 C 90.039062 66.609375 89.871094 66.871094 89.652344 67.058594 C 89.433594 67.246094 89.226562 67.308594 89.035156 67.238281 C 88.84375 67.171875 88.722656 66.996094 88.671875 66.710938 C 88.621094 66.425781 88.65625 66.117188 88.773438 65.78125 C 88.894531 65.449219 89.0625 65.1875 89.28125 65 C 89.5 64.808594 89.707031 64.75 89.898438 64.816406 C 90.085938 64.886719 90.210938 65.0625 90.261719 65.347656 C 90.3125 65.628906 90.277344 65.9375 90.160156 66.273438 Z M 90.160156 66.273438 " fill-opacity="0.298" fill-rule="nonzero"/><path fill="#ffffff" d="M 89.976562 79.398438 C 89.855469 79.734375 89.6875 79.996094 89.46875 80.183594 C 89.25 80.371094 89.042969 80.433594 88.851562 80.363281 C 88.660156 80.296875 88.539062 80.121094 88.488281 79.835938 C 88.4375 79.550781 88.472656 79.242188 88.589844 78.910156 C 88.710938 78.574219 88.878906 78.3125 89.097656 78.125 C 89.316406 77.9375 89.523438 77.875 89.714844 77.941406 C 89.902344 78.011719 90.027344 78.1875 90.078125 78.472656 C 90.128906 78.753906 90.09375 79.066406 89.976562 79.398438 Z M 89.976562 79.398438 " fill-opacity="0.298" fill-rule="nonzero"/><path fill="#ffffff" d="M 103.363281 70.039062 C 103.242188 70.375 103.074219 70.636719 102.855469 70.824219 C 102.636719 71.011719 102.429688 71.074219 102.238281 71.007812 C 102.046875 70.9375 101.925781 70.761719 101.875 70.476562 C 101.824219 70.195312 101.859375 69.882812 101.976562 69.550781 C 102.097656 69.214844 102.265625 68.953125 102.484375 68.765625 C 102.703125 68.578125 102.910156 68.515625 103.101562 68.585938 C 103.289062 68.652344 103.414062 68.828125 103.464844 69.113281 C 103.515625 69.398438 103.480469 69.707031 103.363281 70.039062 Z M 103.363281 70.039062 " fill-opacity="0.298" fill-rule="nonzero"/><path fill="#ffffff" d="M 77.484375 74.8125 C 77.367188 75.144531 77.199219 75.40625 76.976562 75.597656 C 76.757812 75.785156 76.554688 75.84375 76.363281 75.777344 C 76.171875 75.710938 76.050781 75.535156 76 75.25 C 75.949219 74.964844 75.980469 74.65625 76.101562 74.320312 C 76.21875 73.988281 76.386719 73.726562 76.605469 73.535156 C 76.828125 73.347656 77.03125 73.289062 77.222656 73.355469 C 77.414062 73.421875 77.535156 73.601562 77.585938 73.882812 C 77.636719 74.167969 77.605469 74.476562 77.484375 74.8125 Z M 77.484375 74.8125 " fill-opacity="0.298" fill-rule="nonzero"/><path fill="#ffffff" d="M 76.910156 88.023438 C 76.792969 88.359375 76.625 88.621094 76.40625 88.808594 C 76.1875 88.996094 75.980469 89.054688 75.789062 88.988281 C 75.597656 88.921875 75.476562 88.746094 75.425781 88.460938 C 75.375 88.175781 75.410156 87.867188 75.527344 87.53125 C 75.644531 87.199219 75.816406 86.9375 76.035156 86.75 C 76.253906 86.558594 76.457031 86.5 76.648438 86.566406 C 76.839844 86.636719 76.960938 86.8125 77.011719 87.097656 C 77.066406 87.378906 77.03125 87.6875 76.910156 88.023438 Z M 76.910156 88.023438 " fill-opacity="0.298" fill-rule="nonzero"/><path fill="#ffffff" d="M 77.238281 58.292969 L 85.421875 53.074219 C 85.5625 52.984375 85.695312 52.917969 85.816406 52.878906 C 85.9375 52.835938 86.039062 52.828125 86.121094 52.84375 C 86.203125 52.859375 86.257812 52.90625 86.285156 52.976562 C 86.316406 53.046875 86.316406 53.140625 86.289062 53.257812 C 86.261719 53.371094 86.210938 53.5 86.128906 53.640625 C 86.050781 53.78125 85.949219 53.925781 85.832031 54.070312 C 85.710938 54.21875 85.582031 54.355469 85.4375 54.480469 C 85.296875 54.609375 85.15625 54.71875 85.011719 54.808594 L 76.828125 60.03125 C 76.6875 60.121094 76.554688 60.1875 76.433594 60.226562 C 76.3125 60.265625 76.210938 60.277344 76.128906 60.261719 C 76.050781 60.242188 75.992188 60.199219 75.964844 60.128906 C 75.933594 60.054688 75.933594 59.960938 75.960938 59.847656 C 75.988281 59.730469 76.039062 59.605469 76.121094 59.464844 C 76.199219 59.320312 76.300781 59.179688 76.417969 59.03125 C 76.539062 58.886719 76.671875 58.75 76.8125 58.621094 C 76.953125 58.496094 77.097656 58.386719 77.238281 58.292969 " fill-opacity="0.2471" fill-rule="nonzero"/><path fill="#ffffff" d="M 90.761719 50.15625 L 98.945312 44.9375 C 99.089844 44.84375 99.21875 44.78125 99.339844 44.738281 C 99.460938 44.699219 99.5625 44.6875 99.644531 44.707031 C 99.726562 44.722656 99.78125 44.769531 99.8125 44.839844 C 99.839844 44.910156 99.84375 45.003906 99.816406 45.121094 C 99.789062 45.234375 99.734375 45.363281 99.65625 45.503906 C 99.574219 45.644531 99.476562 45.789062 99.355469 45.933594 C 99.234375 46.078125 99.105469 46.214844 98.964844 46.34375 C 98.820312 46.472656 98.679688 46.582031 98.539062 46.671875 L 90.355469 51.894531 C 90.210938 51.984375 90.082031 52.050781 89.960938 52.089844 C 89.839844 52.128906 89.738281 52.140625 89.65625 52.125 C 89.574219 52.105469 89.519531 52.0625 89.488281 51.988281 C 89.460938 51.917969 89.457031 51.824219 89.484375 51.710938 C 89.511719 51.59375 89.566406 51.464844 89.644531 51.324219 C 89.726562 51.183594 89.824219 51.039062 89.945312 50.894531 C 90.0625 50.75 90.195312 50.613281 90.335938 50.484375 C 90.480469 50.355469 90.621094 50.246094 90.761719 50.15625 " fill-opacity="0.2471" fill-rule="nonzero"/><path fill="#ffffff" d="M 103.703125 41.445312 L 111.886719 36.222656 C 112.027344 36.132812 112.160156 36.066406 112.28125 36.027344 C 112.402344 35.988281 112.503906 35.976562 112.585938 35.992188 C 112.667969 36.011719 112.722656 36.054688 112.75 36.125 C 112.78125 36.199219 112.78125 36.292969 112.753906 36.40625 C 112.726562 36.523438 112.675781 36.648438 112.59375 36.789062 C 112.515625 36.933594 112.414062 37.074219 112.296875 37.222656 C 112.175781 37.367188 112.046875 37.503906 111.902344 37.632812 C 111.761719 37.757812 111.621094 37.867188 111.476562 37.960938 L 103.292969 43.179688 C 103.152344 43.269531 103.019531 43.335938 102.898438 43.375 C 102.777344 43.417969 102.675781 43.425781 102.59375 43.410156 C 102.511719 43.394531 102.457031 43.347656 102.429688 43.277344 C 102.398438 43.207031 102.398438 43.113281 102.425781 42.996094 C 102.453125 42.882812 102.503906 42.753906 102.585938 42.613281 C 102.664062 42.472656 102.765625 42.328125 102.882812 42.183594 C 103.003906 42.035156 103.136719 41.898438 103.277344 41.773438 C 103.417969 41.644531 103.5625 41.535156 103.703125 41.445312 " fill-opacity="0.2471" fill-rule="nonzero"/><path fill="#ffffff" d="M 64.3125 33.734375 L 72.496094 28.515625 C 72.636719 28.425781 72.769531 28.359375 72.890625 28.320312 C 73.011719 28.28125 73.113281 28.269531 73.195312 28.285156 C 73.277344 28.300781 73.332031 28.347656 73.359375 28.417969 C 73.390625 28.488281 73.390625 28.582031 73.363281 28.699219 C 73.335938 28.8125 73.285156 28.941406 73.203125 29.082031 C 73.125 29.222656 73.027344 29.367188 72.90625 29.511719 C 72.785156 29.660156 72.65625 29.796875 72.511719 29.921875 C 72.371094 30.050781 72.230469 30.160156 72.085938 30.25 L 63.90625 35.472656 C 63.761719 35.5625 63.628906 35.628906 63.507812 35.667969 C 63.386719 35.707031 63.285156 35.71875 63.207031 35.703125 C 63.125 35.683594 63.066406 35.640625 63.039062 35.570312 C 63.007812 35.496094 63.007812 35.402344 63.035156 35.289062 C 63.0625 35.175781 63.117188 35.046875 63.195312 34.90625 C 63.273438 34.761719 63.375 34.621094 63.492188 34.472656 C 63.613281 34.328125 63.746094 34.191406 63.886719 34.0625 C 64.027344 33.9375 64.171875 33.828125 64.3125 33.734375 " fill-opacity="0.2471" fill-rule="nonzero"/><path fill="#ffffff" d="M 51.273438 42.359375 L 59.453125 37.140625 C 59.597656 37.046875 59.726562 36.984375 59.847656 36.945312 C 59.972656 36.902344 60.070312 36.890625 60.152344 36.910156 C 60.234375 36.925781 60.289062 36.972656 60.320312 37.042969 C 60.347656 37.113281 60.351562 37.207031 60.324219 37.324219 C 60.296875 37.4375 60.242188 37.566406 60.164062 37.707031 C 60.085938 37.847656 59.984375 37.992188 59.863281 38.136719 C 59.746094 38.28125 59.613281 38.417969 59.472656 38.546875 C 59.332031 38.675781 59.1875 38.785156 59.046875 38.875 L 50.863281 44.097656 C 50.722656 44.1875 50.589844 44.253906 50.46875 44.292969 C 50.347656 44.332031 50.246094 44.34375 50.164062 44.328125 C 50.082031 44.308594 50.027344 44.265625 49.996094 44.195312 C 49.96875 44.121094 49.96875 44.027344 49.992188 43.914062 C 50.019531 43.796875 50.074219 43.671875 50.152344 43.527344 C 50.234375 43.386719 50.332031 43.246094 50.453125 43.097656 C 50.574219 42.953125 50.703125 42.816406 50.84375 42.6875 C 50.988281 42.558594 51.128906 42.449219 51.273438 42.359375 " fill-opacity="0.2471" fill-rule="nonzero"/><path fill="#ffffff" d="M 76.621094 25.664062 L 84.800781 20.441406 C 84.945312 20.351562 85.074219 20.285156 85.195312 20.246094 C 85.316406 20.207031 85.417969 20.195312 85.5 20.210938 C 85.582031 20.230469 85.636719 20.273438 85.667969 20.34375 C 85.695312 20.417969 85.699219 20.511719 85.671875 20.625 C 85.644531 20.742188 85.589844 20.867188 85.511719 21.007812 C 85.429688 21.152344 85.332031 21.292969 85.210938 21.441406 C 85.09375 21.585938 84.960938 21.722656 84.820312 21.851562 C 84.675781 21.976562 84.535156 22.085938 84.394531 22.179688 L 76.210938 27.398438 C 76.066406 27.488281 75.9375 27.554688 75.816406 27.59375 C 75.695312 27.636719 75.59375 27.644531 75.511719 27.628906 C 75.429688 27.613281 75.375 27.566406 75.34375 27.496094 C 75.316406 27.425781 75.3125 27.332031 75.339844 27.214844 C 75.367188 27.101562 75.421875 26.972656 75.5 26.832031 C 75.582031 26.691406 75.679688 26.546875 75.800781 26.402344 C 75.921875 26.253906 76.050781 26.117188 76.191406 25.992188 C 76.335938 25.863281 76.476562 25.753906 76.621094 25.664062 " fill-opacity="0.2471" fill-rule="nonzero"/><path fill="#ffffff" d="M 64.761719 50.15625 L 72.945312 44.9375 C 73.085938 44.84375 73.21875 44.78125 73.339844 44.742188 C 73.460938 44.699219 73.5625 44.6875 73.644531 44.707031 C 73.726562 44.722656 73.78125 44.769531 73.808594 44.839844 C 73.839844 44.910156 73.839844 45.003906 73.8125 45.121094 C 73.785156 45.234375 73.734375 45.363281 73.652344 45.503906 C 73.574219 45.644531 73.476562 45.789062 73.355469 45.933594 C 73.234375 46.078125 73.105469 46.214844 72.960938 46.34375 C 72.820312 46.472656 72.679688 46.582031 72.535156 46.671875 L 64.351562 51.894531 C 64.210938 51.984375 64.078125 52.050781 63.957031 52.089844 C 63.835938 52.128906 63.734375 52.140625 63.652344 52.125 C 63.574219 52.105469 63.515625 52.0625 63.488281 51.992188 C 63.457031 51.917969 63.457031 51.824219 63.484375 51.710938 C 63.511719 51.59375 63.566406 51.46875 63.644531 51.324219 C 63.722656 51.183594 63.824219 51.042969 63.941406 50.894531 C 64.0625 50.75 64.195312 50.613281 64.335938 50.484375 C 64.476562 50.355469 64.621094 50.246094 64.761719 50.15625 " fill-opacity="0.2471" fill-rule="nonzero"/><path fill="#ffffff" d="M 77.070312 42.082031 L 85.25 36.863281 C 85.394531 36.773438 85.523438 36.707031 85.644531 36.667969 C 85.765625 36.628906 85.867188 36.617188 85.949219 36.632812 C 86.03125 36.648438 86.085938 36.695312 86.117188 36.765625 C 86.144531 36.835938 86.148438 36.929688 86.121094 37.046875 C 86.09375 37.160156 86.039062 37.289062 85.960938 37.429688 C 85.878906 37.570312 85.78125 37.714844 85.660156 37.859375 C 85.542969 38.007812 85.410156 38.144531 85.269531 38.269531 C 85.125 38.398438 84.984375 38.507812 84.84375 38.597656 L 76.660156 43.820312 C 76.515625 43.910156 76.386719 43.976562 76.265625 44.015625 C 76.144531 44.054688 76.042969 44.066406 75.960938 44.050781 C 75.878906 44.03125 75.824219 43.988281 75.792969 43.917969 C 75.765625 43.84375 75.761719 43.75 75.789062 43.636719 C 75.816406 43.523438 75.871094 43.394531 75.949219 43.253906 C 76.03125 43.109375 76.128906 42.96875 76.25 42.820312 C 76.371094 42.675781 76.5 42.539062 76.640625 42.410156 C 76.785156 42.285156 76.925781 42.175781 77.070312 42.082031 " fill-opacity="0.2471" fill-rule="nonzero"/><path fill="#ffffff" d="M 90.394531 33.089844 L 98.578125 27.871094 C 98.722656 27.78125 98.851562 27.714844 98.972656 27.675781 C 99.09375 27.636719 99.195312 27.625 99.277344 27.640625 C 99.359375 27.65625 99.414062 27.703125 99.445312 27.773438 C 99.472656 27.84375 99.476562 27.9375 99.449219 28.054688 C 99.421875 28.167969 99.367188 28.296875 99.289062 28.4375 C 99.207031 28.578125 99.109375 28.722656 98.988281 28.867188 C 98.867188 29.015625 98.738281 29.152344 98.597656 29.277344 C 98.453125 29.40625 98.3125 29.515625 98.171875 29.605469 L 89.988281 34.828125 C 89.84375 34.917969 89.714844 34.984375 89.59375 35.023438 C 89.472656 35.0625 89.371094 35.074219 89.289062 35.058594 C 89.207031 35.039062 89.152344 34.996094 89.121094 34.925781 C 89.09375 34.851562 89.089844 34.757812 89.117188 34.644531 C 89.144531 34.53125 89.199219 34.402344 89.277344 34.261719 C 89.359375 34.117188 89.457031 33.976562 89.578125 33.828125 C 89.695312 33.683594 89.828125 33.546875 89.96875 33.417969 C 90.113281 33.292969 90.253906 33.183594 90.394531 33.089844 " fill-opacity="0.2471" fill-rule="nonzero"/></svg>