<svg xmlns="http://www.w3.org/2000/svg" xmlns:xlink="http://www.w3.org/1999/xlink" width="200" zoomAndPan="magnify" viewBox="0 0 150 149.999998" height="200" preserveAspectRatio="xMidYMid meet" version="1.0"><defs><clipPath id="90a9cc6c6b"><path d="M 21.890625 13.0625 L 128.390625 13.0625 L 128.390625 136.8125 L 21.890625 136.8125 Z M 21.890625 13.0625 " clip-rule="nonzero"/></clipPath></defs><g clip-path="url(#90a9cc6c6b)"><path fill="#000000" d="M 75.140625 13.0625 C 56.007812 13.0625 43.09375 21.046875 35.359375 31.460938 C 27.625 41.878906 24.871094 54.488281 24.871094 64.328125 L 24.871094 74.640625 C 24.871094 74.667969 24.875 74.695312 24.875 74.71875 C 23.148438 76.75 21.914062 79.628906 21.914062 83.191406 C 21.914062 89.875 26.621094 95.230469 32.765625 96.765625 C 36.757812 106.792969 41.742188 116.453125 48.398438 123.832031 C 55.359375 131.542969 64.292969 136.8125 75.140625 136.8125 C 85.984375 136.8125 94.925781 131.542969 101.886719 123.792969 C 108.542969 116.378906 113.523438 106.644531 117.515625 96.484375 C 123.59375 95.003906 128.367188 89.867188 128.367188 83.191406 C 128.367188 79.621094 127.128906 76.734375 125.390625 74.703125 C 125.40625 74.585938 125.410156 74.46875 125.410156 74.351562 L 125.410156 64.328125 C 125.410156 50.417969 121.800781 37.59375 113.550781 28.183594 C 105.304688 18.773438 92.484375 13.0625 75.140625 13.0625 Z M 75.140625 18.957031 C 91.210938 18.957031 102.046875 24.007812 109.101562 32.054688 C 116.152344 40.101562 119.496094 51.429688 119.496094 64.328125 L 119.496094 74.351562 C 119.488281 74.808594 119.585938 75.246094 119.785156 75.660156 C 119.71875 76.128906 119.761719 76.585938 119.917969 77.03125 C 120.070312 77.480469 120.320312 77.867188 120.660156 78.195312 C 121.578125 79.109375 122.453125 80.65625 122.453125 83.191406 C 122.453125 87.609375 119.292969 90.714844 115.054688 91.15625 C 114.5 91.214844 114 91.414062 113.558594 91.75 C 113.117188 92.089844 112.796875 92.519531 112.597656 93.039062 C 108.675781 103.304688 103.679688 112.953125 97.480469 119.859375 C 91.28125 126.765625 84.101562 130.921875 75.140625 130.921875 C 66.175781 130.921875 59 126.765625 52.800781 119.894531 C 46.601562 113.023438 41.597656 103.445312 37.675781 93.332031 C 37.476562 92.816406 37.15625 92.390625 36.71875 92.054688 C 36.277344 91.71875 35.78125 91.519531 35.230469 91.460938 C 31.085938 91.015625 27.828125 87.609375 27.828125 83.191406 C 27.828125 80.652344 28.699219 79.109375 29.617188 78.195312 C 30.257812 77.574219 30.554688 76.820312 30.507812 75.929688 C 30.699219 75.519531 30.792969 75.089844 30.785156 74.640625 L 30.785156 64.328125 C 30.785156 55.613281 33.355469 44.070312 40.113281 34.964844 C 46.871094 25.863281 57.613281 18.957031 75.140625 18.957031 Z M 57.484375 30.742188 C 57.085938 30.730469 56.699219 30.796875 56.328125 30.941406 C 55.953125 31.085938 55.625 31.296875 55.335938 31.574219 C 55.050781 31.851562 54.828125 32.175781 54.675781 32.542969 C 54.519531 32.910156 54.441406 33.289062 54.441406 33.6875 C 54.441406 46.445312 51.351562 52.363281 47.878906 56.519531 C 44.410156 60.675781 39.78125 63.039062 37.511719 68.503906 C 37.355469 68.867188 37.277344 69.246094 37.273438 69.640625 C 37.265625 70.035156 37.339844 70.414062 37.488281 70.78125 C 37.636719 71.144531 37.851562 71.46875 38.128906 71.746094 C 38.410156 72.027344 38.730469 72.242188 39.097656 72.394531 C 39.460938 72.542969 39.84375 72.621094 40.238281 72.617188 C 40.632812 72.617188 41.015625 72.539062 41.378906 72.386719 C 41.742188 72.234375 42.066406 72.015625 42.339844 71.734375 C 42.617188 71.453125 42.832031 71.128906 42.976562 70.761719 C 44.253906 67.6875 48.207031 65.339844 52.425781 60.289062 C 55.578125 56.511719 57.898438 50.242188 59.148438 42.054688 C 62.046875 45.734375 65.367188 48.542969 69.175781 49.769531 C 75.195312 51.703125 81.539062 51.351562 87.238281 51.332031 C 92.941406 51.316406 97.855469 51.667969 101.175781 53.785156 C 104.496094 55.902344 107.042969 59.886719 107.671875 69.242188 C 107.699219 69.632812 107.800781 70.003906 107.972656 70.351562 C 108.148438 70.703125 108.382812 71.007812 108.675781 71.265625 C 108.972656 71.519531 109.304688 71.710938 109.675781 71.839844 C 110.046875 71.964844 110.429688 72.011719 110.820312 71.988281 C 111.210938 71.960938 111.582031 71.863281 111.933594 71.6875 C 112.285156 71.515625 112.589844 71.28125 112.851562 70.988281 C 113.109375 70.691406 113.300781 70.359375 113.425781 69.992188 C 113.550781 69.621094 113.601562 69.242188 113.574219 68.851562 C 112.878906 58.46875 109.515625 52.105469 104.363281 48.820312 C 99.210938 45.53125 93.09375 45.421875 87.222656 45.441406 C 81.351562 45.457031 75.589844 45.636719 70.992188 44.15625 C 66.394531 42.675781 62.75 39.910156 60.179688 32.707031 C 59.976562 32.132812 59.628906 31.667969 59.136719 31.308594 C 58.644531 30.949219 58.09375 30.761719 57.484375 30.742188 Z M 58.875 77.886719 C 56.429688 77.886719 54.441406 79.867188 54.441406 82.304688 C 54.441406 84.746094 56.429688 86.726562 58.875 86.726562 C 61.324219 86.726562 63.3125 84.746094 63.3125 82.304688 C 63.3125 79.867188 61.324219 77.886719 58.875 77.886719 Z M 91.402344 77.886719 C 88.957031 77.886719 86.96875 79.867188 86.96875 82.304688 C 86.96875 84.746094 88.957031 86.726562 91.402344 86.726562 C 93.851562 86.726562 95.839844 84.746094 95.839844 82.304688 C 95.839844 79.867188 93.851562 77.886719 91.402344 77.886719 Z M 91.402344 77.886719 " fill-opacity="1" fill-rule="nonzero"/></g></svg>