<svg xmlns="http://www.w3.org/2000/svg" xmlns:xlink="http://www.w3.org/1999/xlink" width="200" zoomAndPan="magnify" viewBox="0 0 150 112.499997" height="150" preserveAspectRatio="xMidYMid meet" version="1.0"><defs><clipPath id="e932e8d4e5"><path d="M 53.859375 39.566406 L 96.347656 39.566406 L 96.347656 100.796875 L 53.859375 100.796875 Z M 53.859375 39.566406 " clip-rule="nonzero"/></clipPath><clipPath id="246e8ba2ff"><path d="M 68 46 L 83 46 L 83 100.800781 L 68 100.800781 Z M 68 46 " clip-rule="nonzero"/></clipPath><clipPath id="bd8545e4cf"><path d="M 59 11.199219 L 91 11.199219 L 91 96 L 59 96 Z M 59 11.199219 " clip-rule="nonzero"/></clipPath><clipPath id="a7ee395830"><path d="M 65 26 L 85 26 L 85 100.800781 L 65 100.800781 Z M 65 26 " clip-rule="nonzero"/></clipPath><clipPath id="77e265b32c"><path d="M 66 11.199219 L 84 11.199219 L 84 27 L 66 27 Z M 66 11.199219 " clip-rule="nonzero"/></clipPath></defs><g clip-path="url(#e932e8d4e5)"><path fill="#ef3220" d="M 91.589844 88.277344 C 88.335938 85.539062 83.640625 88.277344 83.640625 88.277344 L 81.03125 95.71875 C 81.03125 95.71875 86.0625 95.832031 88.257812 95.71875 C 90.453125 95.601562 94.390625 101.484375 95.902344 100.730469 C 97.417969 99.976562 94.84375 91.011719 91.589844 88.277344 Z M 58.617188 88.277344 C 55.363281 91.011719 52.789062 99.976562 54.304688 100.730469 C 55.816406 101.484375 59.753906 95.601562 61.949219 95.71875 C 64.144531 95.832031 69.175781 95.71875 69.175781 95.71875 L 66.566406 88.277344 C 66.566406 88.277344 61.871094 85.539062 58.617188 88.277344 Z M 67.375 66.042969 C 67.699219 66.042969 68.039062 65.898438 68.242188 65.675781 C 68.480469 65.421875 68.601562 65.117188 68.585938 64.816406 C 68.574219 64.488281 68.449219 64.195312 68.234375 63.980469 L 68.082031 63.832031 C 67.859375 63.609375 67.539062 63.480469 67.226562 63.480469 C 66.902344 63.480469 66.5625 63.621094 66.355469 63.84375 C 66.121094 64.097656 66 64.402344 66.011719 64.703125 C 66.027344 65.035156 66.152344 65.324219 66.367188 65.539062 L 66.515625 65.6875 C 66.738281 65.910156 67.058594 66.042969 67.375 66.042969 Z M 73 65.558594 L 72.957031 65.558594 C 72.609375 65.574219 72.308594 65.703125 72.105469 65.925781 C 71.882812 66.167969 71.761719 66.460938 71.761719 66.765625 L 71.761719 66.839844 C 71.761719 67.152344 71.894531 67.472656 72.117188 67.695312 C 72.335938 67.914062 72.65625 68.046875 72.949219 68.046875 C 72.964844 68.046875 72.976562 68.046875 72.992188 68.046875 C 73.339844 68.03125 73.640625 67.902344 73.84375 67.683594 C 74.070312 67.4375 74.1875 67.148438 74.1875 66.839844 L 74.1875 66.765625 C 74.1875 66.453125 74.054688 66.132812 73.832031 65.914062 C 73.613281 65.695312 73.292969 65.558594 73 65.558594 Z M 86.09375 53.484375 C 86.09375 47.457031 81.164062 42.554688 75.109375 42.554688 C 69.050781 42.554688 64.125 47.457031 64.125 53.484375 C 64.125 59.511719 69.050781 64.414062 75.109375 64.414062 C 81.164062 64.414062 86.09375 59.511719 86.09375 53.484375 Z M 80.113281 65.921875 C 80.007812 65.597656 79.804688 65.347656 79.546875 65.210938 L 79.53125 65.203125 L 79.292969 65.101562 L 79.265625 65.09375 C 79.160156 65.066406 79.054688 65.050781 78.945312 65.050781 C 78.84375 65.050781 78.742188 65.066406 78.640625 65.089844 C 78.539062 65.113281 78.421875 65.167969 78.335938 65.210938 C 78.140625 65.3125 78.0625 65.414062 77.988281 65.511719 L 77.96875 65.535156 C 77.796875 65.761719 77.703125 66.03125 77.707031 66.304688 C 77.714844 66.613281 77.835938 66.914062 78.058594 67.152344 C 78.261719 67.375 78.554688 67.503906 78.925781 67.527344 C 78.945312 67.527344 78.960938 67.527344 78.980469 67.527344 C 79.265625 67.527344 79.589844 67.390625 79.808594 67.175781 C 80.035156 66.945312 80.175781 66.605469 80.160156 66.304688 C 80.160156 66.285156 80.160156 66.269531 80.15625 66.25 C 80.15625 66.125 80.144531 66.019531 80.113281 65.921875 Z M 85.222656 62.742188 C 85.023438 62.640625 84.8125 62.585938 84.609375 62.585938 C 84.496094 62.585938 84.386719 62.601562 84.28125 62.636719 L 84.058594 62.710938 C 83.746094 62.8125 83.503906 63.003906 83.351562 63.257812 C 83.1875 63.542969 83.140625 63.914062 83.234375 64.207031 C 83.339844 64.527344 83.542969 64.78125 83.800781 64.917969 C 84 65.023438 84.210938 65.078125 84.414062 65.078125 C 84.527344 65.078125 84.636719 65.0625 84.742188 65.027344 L 84.964844 64.953125 C 85.277344 64.847656 85.523438 64.660156 85.671875 64.402344 C 85.839844 64.121094 85.882812 63.75 85.789062 63.457031 C 85.683594 63.132812 85.484375 62.878906 85.222656 62.742188 Z M 85.746094 46.796875 C 86.523438 46.796875 86.929688 46.191406 86.929688 45.589844 C 86.929688 44.988281 86.523438 44.382812 85.746094 44.382812 C 84.964844 44.382812 84.558594 44.992188 84.558594 45.589844 C 84.558594 46.191406 84.964844 46.796875 85.746094 46.796875 Z M 86.367188 57.828125 C 86.277344 58.140625 86.328125 58.511719 86.496094 58.769531 C 86.683594 59.058594 86.941406 59.25 87.230469 59.316406 C 87.328125 59.339844 87.429688 59.347656 87.523438 59.347656 C 87.730469 59.347656 87.925781 59.300781 88.128906 59.199219 L 88.277344 59.128906 C 88.578125 58.976562 88.785156 58.652344 88.855469 58.394531 C 88.941406 58.078125 88.890625 57.707031 88.726562 57.449219 C 88.539062 57.164062 88.277344 56.96875 87.992188 56.90625 C 87.894531 56.882812 87.792969 56.871094 87.695312 56.871094 C 87.492188 56.871094 87.292969 56.917969 87.089844 57.019531 L 86.945312 57.09375 C 86.644531 57.242188 86.4375 57.570312 86.367188 57.828125 Z M 62.121094 52.667969 C 62.132812 52.667969 62.148438 52.667969 62.164062 52.667969 C 62.496094 52.652344 62.789062 52.53125 63.007812 52.3125 L 63.082031 52.238281 C 63.304688 52.019531 63.4375 51.699219 63.4375 51.386719 C 63.4375 51.0625 63.292969 50.726562 63.070312 50.519531 C 62.828125 50.300781 62.535156 50.179688 62.25 50.179688 C 62.234375 50.179688 62.222656 50.179688 62.207031 50.179688 C 61.871094 50.191406 61.582031 50.316406 61.363281 50.53125 L 61.289062 50.605469 C 61.066406 50.828125 60.933594 51.148438 60.933594 51.460938 C 60.933594 51.78125 61.078125 52.121094 61.300781 52.324219 C 61.542969 52.546875 61.835938 52.667969 62.121094 52.667969 Z M 88.257812 53.558594 C 88.273438 53.558594 88.285156 53.558594 88.300781 53.558594 C 88.644531 53.542969 88.949219 53.414062 89.152344 53.195312 C 89.378906 52.949219 89.496094 52.660156 89.496094 52.351562 L 89.496094 52.277344 C 89.496094 51.964844 89.363281 51.644531 89.140625 51.421875 C 88.921875 51.207031 88.601562 51.070312 88.308594 51.070312 L 88.265625 51.070312 C 87.917969 51.085938 87.617188 51.214844 87.414062 51.433594 C 87.1875 51.679688 87.070312 51.96875 87.070312 52.277344 L 87.070312 52.351562 C 87.070312 52.664062 87.203125 52.984375 87.425781 53.207031 C 87.644531 53.425781 87.960938 53.558594 88.257812 53.558594 Z M 79.441406 42.191406 C 79.457031 42.191406 79.472656 42.191406 79.488281 42.191406 C 79.820312 42.175781 80.113281 42.054688 80.332031 41.835938 L 80.40625 41.761719 C 80.628906 41.542969 80.757812 41.222656 80.757812 40.910156 C 80.757812 40.589844 80.617188 40.25 80.394531 40.042969 C 80.152344 39.824219 79.859375 39.699219 79.574219 39.699219 C 79.558594 39.699219 79.542969 39.703125 79.53125 39.703125 C 79.195312 39.71875 78.90625 39.839844 78.6875 40.054688 L 78.613281 40.128906 C 78.390625 40.351562 78.257812 40.671875 78.257812 40.984375 C 78.257812 41.304688 78.402344 41.644531 78.625 41.847656 C 78.867188 42.070312 79.15625 42.191406 79.441406 42.191406 Z M 62.726562 57.832031 C 62.382812 57.847656 62.078125 57.976562 61.875 58.195312 C 61.652344 58.441406 61.53125 58.730469 61.53125 59.039062 L 61.53125 59.113281 C 61.53125 59.425781 61.664062 59.746094 61.886719 59.96875 C 62.105469 60.1875 62.425781 60.320312 62.71875 60.320312 L 62.761719 60.320312 C 63.109375 60.304688 63.410156 60.175781 63.613281 59.957031 C 63.839844 59.710938 63.957031 59.421875 63.957031 59.113281 L 63.957031 59.039062 C 63.957031 58.726562 63.824219 58.40625 63.605469 58.1875 C 63.382812 57.96875 63.066406 57.832031 62.769531 57.832031 C 62.757812 57.832031 62.742188 57.832031 62.726562 57.832031 Z M 70.363281 42.636719 L 70.4375 42.636719 C 70.75 42.636719 71.070312 42.503906 71.292969 42.28125 C 71.523438 42.054688 71.664062 41.714844 71.648438 41.414062 C 71.632812 41.066406 71.503906 40.765625 71.28125 40.5625 C 71.039062 40.339844 70.746094 40.222656 70.4375 40.222656 L 70.363281 40.222656 C 70.046875 40.222656 69.726562 40.355469 69.503906 40.574219 C 69.273438 40.804688 69.136719 41.144531 69.148438 41.445312 C 69.164062 41.792969 69.292969 42.09375 69.515625 42.292969 C 69.761719 42.519531 70.054688 42.636719 70.363281 42.636719 Z M 64.214844 45.859375 C 63.992188 45.660156 63.863281 45.359375 63.847656 45.011719 C 63.832031 44.710938 63.972656 44.371094 64.203125 44.140625 C 64.425781 43.921875 64.746094 43.789062 65.058594 43.789062 L 65.136719 43.789062 C 65.441406 43.789062 65.734375 43.90625 65.980469 44.128906 C 66.203125 44.332031 66.332031 44.632812 66.347656 44.980469 C 66.363281 45.28125 66.222656 45.621094 65.992188 45.847656 C 65.769531 46.070312 65.449219 46.203125 65.136719 46.203125 L 65.058594 46.203125 C 64.75 46.203125 64.460938 46.085938 64.214844 45.859375 " fill-opacity="1" fill-rule="nonzero"/></g><g clip-path="url(#246e8ba2ff)"><path fill="#51b59f" d="M 75.109375 46.566406 C 71.269531 46.566406 68.15625 49.664062 68.15625 53.484375 C 68.15625 57.304688 71.269531 60.402344 75.109375 60.402344 C 78.949219 60.402344 82.058594 57.304688 82.058594 53.484375 C 82.058594 49.664062 78.949219 46.566406 75.109375 46.566406 Z M 79.792969 95.691406 C 79.535156 96.917969 79.28125 98.148438 79.027344 99.375 C 78.949219 99.746094 78.566406 99.96875 78.214844 99.988281 C 77.074219 100.054688 75.929688 100.09375 74.785156 100.105469 C 73.851562 100.109375 72.839844 100.199219 71.914062 100.054688 C 71.160156 99.9375 70.914062 99.449219 70.71875 98.765625 C 70.441406 97.789062 70.175781 96.8125 69.90625 95.835938 C 69.785156 95.613281 69.742188 95.34375 69.816406 95.097656 C 70.078125 94.230469 71.144531 94.402344 71.828125 94.421875 L 78.980469 94.632812 C 79.554688 94.648438 79.902344 95.152344 79.792969 95.691406 " fill-opacity="1" fill-rule="nonzero"/></g><g clip-path="url(#bd8545e4cf)"><path fill="#f8e505" d="M 89.121094 52.351562 C 89.121094 52.578125 89.027344 52.78125 88.875 52.941406 C 88.726562 53.105469 88.5 53.179688 88.28125 53.1875 C 88.074219 53.195312 87.835938 53.085938 87.6875 52.941406 C 87.535156 52.792969 87.441406 52.566406 87.441406 52.351562 L 87.441406 52.277344 C 87.441406 52.050781 87.539062 51.851562 87.6875 51.6875 C 87.839844 51.523438 88.066406 51.453125 88.28125 51.441406 C 88.492188 51.433594 88.730469 51.542969 88.875 51.6875 C 89.027344 51.835938 89.121094 52.0625 89.121094 52.277344 Z M 88.496094 58.296875 C 88.441406 58.484375 88.289062 58.703125 88.109375 58.796875 C 88.058594 58.820312 88.011719 58.84375 87.960938 58.867188 C 87.75 58.972656 87.542969 59.003906 87.3125 58.953125 C 87.097656 58.90625 86.925781 58.746094 86.8125 58.570312 C 86.695312 58.390625 86.671875 58.125 86.726562 57.925781 C 86.777344 57.734375 86.929688 57.515625 87.113281 57.425781 C 87.164062 57.402344 87.210938 57.375 87.261719 57.351562 C 87.472656 57.246094 87.679688 57.214844 87.910156 57.265625 C 88.121094 57.316406 88.296875 57.472656 88.410156 57.652344 C 88.527344 57.828125 88.550781 58.09375 88.496094 58.296875 Z M 85.746094 46.425781 C 84.660156 46.425781 84.664062 44.753906 85.746094 44.753906 C 86.828125 44.753906 86.824219 46.425781 85.746094 46.425781 Z M 75.109375 64.042969 C 69.246094 64.042969 64.496094 59.316406 64.496094 53.484375 C 64.496094 47.652344 69.246094 42.925781 75.109375 42.925781 C 80.96875 42.925781 85.71875 47.652344 85.71875 53.484375 C 85.71875 59.316406 80.96875 64.042969 75.109375 64.042969 Z M 85.351562 64.214844 C 85.238281 64.40625 85.054688 64.53125 84.847656 64.601562 C 84.773438 64.625 84.699219 64.648438 84.621094 64.675781 C 84.410156 64.746094 84.167969 64.691406 83.976562 64.589844 C 83.78125 64.488281 83.65625 64.292969 83.589844 64.089844 C 83.523438 63.890625 83.570312 63.625 83.675781 63.445312 C 83.789062 63.257812 83.96875 63.132812 84.175781 63.0625 C 84.25 63.039062 84.328125 63.011719 84.398438 62.988281 C 84.617188 62.917969 84.855469 62.96875 85.046875 63.070312 C 85.242188 63.175781 85.367188 63.371094 85.433594 63.570312 C 85.5 63.773438 85.453125 64.039062 85.351562 64.214844 Z M 79.542969 66.910156 C 79.398438 67.054688 79.15625 67.167969 78.949219 67.15625 C 78.722656 67.140625 78.492188 67.074219 78.332031 66.902344 C 78.179688 66.734375 78.085938 66.523438 78.082031 66.296875 C 78.078125 66.101562 78.148438 65.914062 78.265625 65.765625 C 78.34375 65.664062 78.378906 65.609375 78.507812 65.539062 C 78.558594 65.515625 78.667969 65.460938 78.722656 65.453125 C 78.871094 65.414062 79.019531 65.414062 79.171875 65.453125 C 79.238281 65.480469 79.304688 65.511719 79.371094 65.539062 C 79.566406 65.640625 79.691406 65.835938 79.757812 66.039062 C 79.78125 66.109375 79.785156 66.1875 79.78125 66.269531 C 79.785156 66.285156 79.789062 66.304688 79.789062 66.320312 C 79.796875 66.527344 79.6875 66.765625 79.542969 66.910156 Z M 73.816406 66.839844 C 73.816406 67.066406 73.71875 67.269531 73.570312 67.433594 C 73.417969 67.597656 73.191406 67.667969 72.976562 67.675781 C 72.765625 67.6875 72.527344 67.578125 72.382812 67.433594 C 72.230469 67.28125 72.136719 67.054688 72.136719 66.839844 L 72.136719 66.765625 C 72.136719 66.539062 72.230469 66.339844 72.382812 66.175781 C 72.53125 66.011719 72.757812 65.941406 72.976562 65.929688 C 73.183594 65.921875 73.421875 66.03125 73.570312 66.175781 C 73.722656 66.328125 73.816406 66.550781 73.816406 66.765625 Z M 67.96875 65.425781 C 67.828125 65.578125 67.582031 65.671875 67.375 65.671875 C 67.160156 65.671875 66.933594 65.578125 66.78125 65.425781 L 66.632812 65.277344 C 66.472656 65.117188 66.394531 64.90625 66.386719 64.6875 C 66.375 64.464844 66.484375 64.253906 66.632812 64.09375 C 66.773438 63.941406 67.019531 63.851562 67.226562 63.851562 C 67.441406 63.851562 67.667969 63.941406 67.820312 64.09375 L 67.96875 64.242188 C 68.128906 64.402344 68.207031 64.613281 68.214844 64.835938 C 68.226562 65.058594 68.117188 65.265625 67.96875 65.425781 Z M 64.21875 44.996094 C 64.210938 44.789062 64.320312 44.550781 64.464844 44.40625 C 64.617188 44.253906 64.84375 44.160156 65.058594 44.160156 L 65.136719 44.160156 C 65.363281 44.160156 65.5625 44.253906 65.730469 44.40625 C 65.894531 44.554688 65.964844 44.78125 65.972656 44.996094 C 65.984375 45.203125 65.875 45.441406 65.730469 45.585938 C 65.578125 45.738281 65.351562 45.832031 65.136719 45.832031 L 65.058594 45.832031 C 64.832031 45.832031 64.628906 45.738281 64.464844 45.585938 C 64.300781 45.4375 64.230469 45.210938 64.21875 44.996094 Z M 63.585938 59.113281 C 63.585938 59.339844 63.492188 59.539062 63.339844 59.703125 C 63.1875 59.867188 62.960938 59.941406 62.746094 59.949219 C 62.535156 59.957031 62.296875 59.847656 62.152344 59.703125 C 62 59.554688 61.90625 59.328125 61.90625 59.113281 L 61.90625 59.039062 C 61.90625 58.8125 62 58.613281 62.152344 58.449219 C 62.304688 58.285156 62.527344 58.214844 62.746094 58.203125 C 62.953125 58.195312 63.195312 58.304688 63.339844 58.449219 C 63.492188 58.597656 63.585938 58.824219 63.585938 59.039062 Z M 61.308594 51.460938 C 61.308594 51.246094 61.402344 51.019531 61.554688 50.871094 C 61.578125 50.84375 61.605469 50.820312 61.628906 50.796875 C 61.789062 50.636719 62 50.558594 62.222656 50.550781 C 62.445312 50.539062 62.65625 50.648438 62.816406 50.796875 C 62.972656 50.9375 63.0625 51.179688 63.0625 51.386719 C 63.0625 51.601562 62.96875 51.824219 62.816406 51.976562 C 62.792969 52 62.765625 52.027344 62.742188 52.050781 C 62.582031 52.210938 62.371094 52.285156 62.148438 52.296875 C 61.925781 52.304688 61.714844 52.199219 61.554688 52.050781 C 61.398438 51.910156 61.308594 51.664062 61.308594 51.460938 Z M 69.765625 40.839844 C 69.921875 40.6875 70.148438 40.59375 70.363281 40.59375 L 70.4375 40.59375 C 70.664062 40.59375 70.867188 40.6875 71.03125 40.839844 C 71.195312 40.988281 71.265625 41.210938 71.277344 41.429688 C 71.285156 41.636719 71.175781 41.875 71.03125 42.019531 C 70.878906 42.171875 70.652344 42.265625 70.4375 42.265625 L 70.363281 42.265625 C 70.132812 42.265625 69.933594 42.171875 69.765625 42.019531 C 69.601562 41.871094 69.53125 41.644531 69.523438 41.429688 C 69.511719 41.222656 69.621094 40.984375 69.765625 40.839844 Z M 78.878906 40.390625 C 78.902344 40.367188 78.925781 40.34375 78.953125 40.316406 C 79.113281 40.15625 79.324219 40.082031 79.546875 40.074219 C 79.769531 40.0625 79.980469 40.171875 80.140625 40.316406 C 80.296875 40.460938 80.386719 40.703125 80.386719 40.910156 C 80.386719 41.125 80.292969 41.347656 80.140625 41.5 C 80.117188 41.523438 80.089844 41.550781 80.066406 41.574219 C 79.90625 41.734375 79.695312 41.808594 79.472656 41.820312 C 79.246094 41.828125 79.039062 41.71875 78.878906 41.574219 C 78.722656 41.433594 78.632812 41.1875 78.632812 40.984375 C 78.632812 40.769531 78.726562 40.542969 78.878906 40.390625 Z M 90.425781 55.261719 L 90.398438 55.246094 C 90.417969 54.8125 90.429688 54.382812 90.425781 53.949219 C 90.390625 50.59375 89.503906 47.328125 88.804688 44.140625 C 87.363281 37.570312 85.800781 30.992188 83.417969 24.902344 C 81.667969 20.421875 79.121094 11.984375 75.101562 11.203125 C 71.085938 11.984375 68.539062 20.421875 66.789062 24.902344 C 64.40625 30.992188 62.84375 37.570312 61.402344 44.140625 C 60.703125 47.328125 59.816406 50.59375 59.78125 53.949219 C 59.777344 54.382812 59.785156 54.8125 59.808594 55.246094 L 59.78125 55.261719 C 59.78125 55.261719 59.691406 74.289062 68.601562 95.769531 L 81.605469 95.769531 C 90.515625 74.289062 90.425781 55.261719 90.425781 55.261719 " fill-opacity="1" fill-rule="nonzero"/></g><g clip-path="url(#a7ee395830)"><path fill="#110f0d" d="M 74.59375 95.769531 L 74.59375 100.203125 C 74.59375 100.460938 74.804688 100.667969 75.0625 100.667969 C 75.320312 100.667969 75.527344 100.460938 75.527344 100.203125 L 75.527344 95.769531 Z M 76.832031 100.097656 C 76.789062 100.351562 76.960938 100.59375 77.214844 100.636719 C 77.242188 100.640625 77.265625 100.640625 77.292969 100.640625 C 77.515625 100.640625 77.714844 100.480469 77.753906 100.257812 L 78.523438 95.769531 L 77.578125 95.769531 Z M 72.648438 95.769531 L 71.703125 95.769531 L 72.472656 100.257812 C 72.511719 100.480469 72.710938 100.640625 72.933594 100.640625 C 72.960938 100.640625 72.984375 100.640625 73.011719 100.636719 C 73.265625 100.59375 73.4375 100.351562 73.394531 100.097656 Z M 82.929688 53.484375 C 82.929688 49.195312 79.421875 45.703125 75.109375 45.703125 C 70.796875 45.703125 67.285156 49.195312 67.285156 53.484375 C 67.285156 57.777344 70.796875 61.269531 75.109375 61.269531 C 79.421875 61.269531 82.929688 57.777344 82.929688 53.484375 Z M 83.863281 53.484375 C 83.863281 58.289062 79.933594 62.195312 75.109375 62.195312 C 70.28125 62.195312 66.355469 58.289062 66.355469 53.484375 C 66.355469 48.683594 70.28125 44.773438 75.109375 44.773438 C 79.933594 44.773438 83.863281 48.683594 83.863281 53.484375 Z M 84.660156 27.515625 C 81.308594 28.96875 78.09375 29.453125 75.296875 29.453125 C 69.734375 29.453125 65.824219 27.53125 65.765625 27.503906 C 65.535156 27.386719 65.441406 27.109375 65.558594 26.878906 C 65.675781 26.652344 65.957031 26.558594 66.1875 26.675781 C 66.269531 26.714844 74.679688 30.828125 84.285156 26.664062 C 84.523438 26.558594 84.796875 26.667969 84.898438 26.902344 C 85.003906 27.136719 84.894531 27.410156 84.660156 27.515625 " fill-opacity="1" fill-rule="nonzero"/></g><g clip-path="url(#77e265b32c)"><path fill="#ea7e16" d="M 83.394531 24.84375 C 81.398438 25.695312 78.675781 26.402344 75.101562 26.402344 C 71.5 26.402344 68.785156 25.683594 66.820312 24.820312 C 68.570312 20.320312 71.109375 11.980469 75.101562 11.203125 C 79.105469 11.980469 81.644531 20.351562 83.394531 24.84375 " fill-opacity="1" fill-rule="nonzero"/></g></svg>