<svg xmlns="http://www.w3.org/2000/svg" xmlns:xlink="http://www.w3.org/1999/xlink" width="200" zoomAndPan="magnify" viewBox="0 0 150 112.499997" height="150" preserveAspectRatio="xMidYMid meet" version="1.0"><defs><clipPath id="4ef9529ce5"><path d="M 20.976562 6.222656 L 125.507812 6.222656 L 125.507812 105.523438 L 20.976562 105.523438 Z M 20.976562 6.222656 " clip-rule="nonzero"/></clipPath></defs><g clip-path="url(#4ef9529ce5)"><path fill="#486cbd" d="M 123.730469 37.847656 C 122.5625 33.617188 120.765625 29.609375 118.15625 26.050781 C 110.996094 16.277344 98.933594 11.390625 87.152344 8.46875 C 81.683594 7.113281 76.078125 6.074219 70.441406 6.242188 C 59.929688 6.554688 49.808594 11.140625 41.804688 17.941406 C 32.488281 25.859375 24.109375 37.40625 21.761719 49.523438 C 19.425781 61.554688 22.347656 74.289062 30.125 83.839844 C 36.503906 91.679688 45.359375 97.261719 54.796875 100.917969 C 67.609375 105.878906 82.203125 107.398438 95.089844 102.636719 C 104.203125 99.273438 112.136719 92.820312 117.273438 84.59375 C 122.289062 76.5625 124.59375 67.085938 125.304688 57.648438 C 125.804688 51.046875 125.476562 44.195312 123.730469 37.847656 " fill-opacity="1" fill-rule="nonzero"/></g></svg>