<svg xmlns="http://www.w3.org/2000/svg" xmlns:xlink="http://www.w3.org/1999/xlink" width="200" zoomAndPan="magnify" viewBox="0 0 150 112.499997" height="150" preserveAspectRatio="xMidYMid meet" version="1.0"><defs><clipPath id="1edf42a048"><path d="M 80 10 L 121.410156 10 L 121.410156 32 L 80 32 Z M 80 10 " clip-rule="nonzero"/></clipPath></defs><path fill="#eb5346" d="M 79.417969 28.890625 C 79.417969 28.890625 62.371094 25.554688 56.179688 38.277344 C 49.992188 50.996094 48.019531 73.90625 75.230469 77.542969 C 102.441406 81.179688 108.230469 67.355469 108.839844 53.019531 C 109.449219 38.6875 101.535156 23.644531 79.417969 28.890625 Z M 79.417969 28.890625 " fill-opacity="1" fill-rule="nonzero"/><g clip-path="url(#1edf42a048)"><path fill="#2d876b" d="M 80.96875 31.171875 C 80.96875 31.171875 86.597656 16.410156 100.296875 12.246094 C 113.992188 8.082031 121.375 13.835938 121.070312 13.761719 C 120.027344 13.421875 118.960938 13.289062 117.867188 13.371094 C 116.773438 13.449219 115.734375 13.730469 114.753906 14.214844 C 111.558594 15.804688 106.992188 15.351562 103.644531 16.5625 C 100.296875 17.773438 101.816406 18.757812 98.46875 20.953125 C 95.121094 23.148438 86.75 24.511719 81.269531 31.699219 Z M 80.96875 31.171875 " fill-opacity="1" fill-rule="nonzero"/></g><path fill="#484339" d="M 75.714844 23.222656 C 75.714844 23.222656 79.75 25.503906 79.675781 31.972656 C 79.953125 32.164062 80.253906 32.257812 80.589844 32.257812 C 80.925781 32.257812 81.230469 32.164062 81.503906 31.972656 C 81.503906 31.972656 82.1875 27.085938 80.199219 22.695312 C 80.199219 22.695312 79.746094 21.179688 77.691406 21.410156 C 75.636719 21.636719 75.007812 22.699219 75.714844 23.222656 Z M 75.714844 23.222656 " fill-opacity="1" fill-rule="nonzero"/><path fill="#f47a64" d="M 101.117188 41.90625 C 101.261719 42.042969 101.4375 42.125 101.636719 42.152344 C 101.839844 42.179688 102.027344 42.144531 102.207031 42.050781 C 102.386719 41.957031 102.519531 41.816406 102.609375 41.636719 C 102.699219 41.457031 102.726562 41.265625 102.695312 41.066406 C 102.199219 38.160156 101.03125 33.878906 98.558594 35.269531 C 96.082031 36.664062 98.972656 39.921875 101.117188 41.90625 Z M 101.117188 41.90625 " fill-opacity="1" fill-rule="nonzero"/><path fill="#f47a64" d="M 103.875 57.789062 C 103.953125 58.074219 104.136719 58.226562 104.433594 58.25 C 104.726562 58.269531 104.933594 58.144531 105.050781 57.875 C 105.902344 55.929688 106.984375 52.710938 104.878906 52.59375 C 102.773438 52.472656 103.335938 55.769531 103.875 57.789062 Z M 103.875 57.789062 " fill-opacity="1" fill-rule="nonzero"/><path fill="#f47a64" d="M 97.410156 62.761719 C 97.378906 63.097656 97.453125 63.40625 97.632812 63.691406 C 97.8125 63.976562 98.058594 64.179688 98.375 64.296875 C 98.691406 64.414062 99.011719 64.425781 99.335938 64.332031 C 99.660156 64.234375 99.921875 64.050781 100.121094 63.777344 C 101.894531 61.371094 103.441406 58.371094 100.972656 57.5 C 98.503906 56.628906 97.679688 59.835938 97.410156 62.761719 Z M 97.410156 62.761719 " fill-opacity="1" fill-rule="nonzero"/><path fill="#f47a64" d="M 100.183594 54.730469 C 100.226562 54.90625 100.34375 55 100.523438 55.015625 C 100.707031 55.027344 100.832031 54.953125 100.902344 54.785156 C 101.425781 53.589844 102.089844 51.617188 100.796875 51.542969 C 99.503906 51.472656 99.851562 53.488281 100.183594 54.730469 Z M 100.183594 54.730469 " fill-opacity="1" fill-rule="nonzero"/><path fill="#f47a64" d="M 103.277344 64.859375 C 103.277344 65.046875 103.371094 65.167969 103.554688 65.214844 C 103.738281 65.265625 103.875 65.207031 103.972656 65.042969 C 104.71875 63.976562 105.761719 62.167969 104.507812 61.84375 C 103.257812 61.519531 103.199219 63.574219 103.277344 64.859375 Z M 103.277344 64.859375 " fill-opacity="1" fill-rule="nonzero"/><path fill="#f47a64" d="M 99.6875 47.855469 C 99.898438 48.015625 100.117188 48.027344 100.339844 47.886719 C 100.566406 47.746094 100.652344 47.546875 100.601562 47.289062 C 100.101562 44.902344 98.851562 40.488281 96.632812 41.925781 C 94.414062 43.359375 97.777344 46.371094 99.6875 47.855469 Z M 99.6875 47.855469 " fill-opacity="1" fill-rule="nonzero"/><path fill="#f47a64" d="M 103.058594 48.367188 C 103.449219 49.664062 105.34375 49.441406 105.445312 48.101562 C 105.566406 46.523438 105.308594 45.09375 103.925781 45.28125 C 102.546875 45.464844 102.609375 46.882812 103.058594 48.367188 Z M 103.058594 48.367188 " fill-opacity="1" fill-rule="nonzero"/><path fill="#f47a64" d="M 98.960938 67.589844 C 98.636719 68.59375 100.125 69.5 100.839844 68.730469 C 101.679688 67.824219 102.167969 66.808594 101.066406 66.164062 C 99.964844 65.523438 99.335938 66.433594 98.960938 67.589844 Z M 98.960938 67.589844 " fill-opacity="1" fill-rule="nonzero"/><path fill="#484339" d="M 53.324219 61.820312 C 53.324219 61.820312 45.996094 56.894531 48.632812 55.425781 C 51.269531 53.960938 51.679688 55.761719 51.476562 56.121094 C 51.476562 56.121094 49.648438 58.375 55.230469 61.820312 Z M 53.324219 61.820312 " fill-opacity="1" fill-rule="nonzero"/><path fill="#eb5346" d="M 31.199219 72.851562 C 31.332031 73.050781 37.078125 103.660156 65.238281 101.390625 C 93.394531 99.117188 90.179688 71.410156 90.179688 71.410156 Z M 31.199219 72.851562 " fill-opacity="1" fill-rule="nonzero"/><path fill="#ffe789" d="M 54.433594 60.472656 C 54.433594 60.472656 52.832031 61.648438 48.417969 60.890625 C 44.359375 60.195312 34.492188 58.769531 31.675781 67.929688 C 28.863281 77.089844 38.832031 89.578125 51.464844 92.910156 C 64.097656 96.242188 72.238281 92.457031 74.597656 90.261719 C 76.957031 88.066406 77.261719 87.3125 80.152344 87.234375 C 83.042969 87.160156 91.871094 79.96875 89.890625 69.519531 C 87.910156 59.074219 64.324219 47.785156 59.832031 54.378906 C 55.34375 60.972656 54.433594 60.472656 54.433594 60.472656 Z M 54.433594 60.472656 " fill-opacity="1" fill-rule="nonzero"/><path fill="#eb5346" d="M 56.105469 63.324219 C 56.105469 63.324219 44.398438 84.296875 74.792969 83.636719 C 74.792969 83.636719 81.527344 59.441406 56.105469 63.324219 Z M 56.105469 63.324219 " fill-opacity="1" fill-rule="nonzero"/><path fill="#f47a64" d="M 55.992188 63.289062 C 55.992188 63.289062 44.878906 82.515625 73.71875 81.910156 C 73.71875 81.910156 80.113281 59.730469 55.992188 63.289062 Z M 55.992188 63.289062 " fill-opacity="1" fill-rule="nonzero"/></svg>