<svg xmlns="http://www.w3.org/2000/svg" xmlns:xlink="http://www.w3.org/1999/xlink" width="300" zoomAndPan="magnify" viewBox="0 0 224.87999 225" height="300" preserveAspectRatio="xMidYMid meet" version="1.0"><defs><clipPath id="779b3a821d"><path d="M 21 25.191406 L 204 25.191406 L 204 199.847656 L 21 199.847656 Z M 21 25.191406 " clip-rule="nonzero"/></clipPath><clipPath id="0efa4027b0"><path d="M 20 25.191406 L 204 25.191406 L 204 199.847656 L 20 199.847656 Z M 20 25.191406 " clip-rule="nonzero"/></clipPath><clipPath id="5b99a0a33e"><path d="M 21 33 L 187 33 L 187 199.847656 L 21 199.847656 Z M 21 33 " clip-rule="nonzero"/></clipPath><clipPath id="95453de8e6"><path d="M 20 33 L 187 33 L 187 199.847656 L 20 199.847656 Z M 20 33 " clip-rule="nonzero"/></clipPath><clipPath id="387ee5c937"><path d="M 59 144 L 110 144 L 110 199.847656 L 59 199.847656 Z M 59 144 " clip-rule="nonzero"/></clipPath><clipPath id="c544283e30"><path d="M 126 107 L 204 107 L 204 199.847656 L 126 199.847656 Z M 126 107 " clip-rule="nonzero"/></clipPath><clipPath id="710c51a040"><path d="M 25 25.191406 L 78 25.191406 L 78 35 L 25 35 Z M 25 25.191406 " clip-rule="nonzero"/></clipPath><clipPath id="fac27dfe6c"><path d="M 24 25.191406 L 78 25.191406 L 78 36 L 24 36 Z M 24 25.191406 " clip-rule="nonzero"/></clipPath><clipPath id="66af3235ee"><path d="M 59 25.191406 L 117 25.191406 L 117 89 L 59 89 Z M 59 25.191406 " clip-rule="nonzero"/></clipPath><clipPath id="72b3dbaf4c"><path d="M 147 25.191406 L 202 25.191406 L 202 36 L 147 36 Z M 147 25.191406 " clip-rule="nonzero"/></clipPath><clipPath id="2faf578489"><path d="M 146 25.191406 L 203 25.191406 L 203 37 L 146 37 Z M 146 25.191406 " clip-rule="nonzero"/></clipPath></defs><g clip-path="url(#779b3a821d)"><path fill="#000000" d="M 143.570312 108.492188 L 201.667969 35.707031 C 204.835938 31.738281 202.019531 25.859375 196.945312 25.859375 L 166.761719 25.859375 C 165.785156 25.859375 164.839844 26.101562 163.996094 26.539062 L 163.996094 26.53125 L 147.414062 34.464844 L 147.417969 34.472656 C 146.535156 34.859375 145.742188 35.453125 145.121094 36.226562 L 115.5 73.339844 L 79.398438 28.132812 C 78.25 26.695312 76.515625 25.859375 74.675781 25.859375 L 44.492188 25.859375 C 43.34375 25.859375 42.316406 26.164062 41.441406 26.675781 L 41.441406 26.671875 L 25.183594 34.4375 C 25.027344 34.503906 24.878906 34.574219 24.730469 34.652344 L 24.699219 34.667969 C 21.582031 36.355469 20.355469 40.671875 22.855469 43.800781 L 80.964844 116.601562 L 22.90625 189.335938 C 19.738281 193.304688 22.554688 199.183594 27.628906 199.183594 L 57.816406 199.183594 C 58.71875 199.183594 59.597656 198.980469 60.394531 198.601562 L 60.398438 198.601562 C 60.421875 198.589844 60.445312 198.578125 60.46875 198.566406 L 77.253906 190.539062 L 77.246094 190.535156 C 78.09375 190.148438 78.855469 189.566406 79.457031 188.816406 L 109.027344 151.765625 L 145.0625 196.910156 C 146.210938 198.347656 147.949219 199.183594 149.785156 199.183594 L 180.023438 199.183594 C 181.097656 199.183594 182.070312 198.917969 182.90625 198.464844 L 199.203125 190.664062 L 199.199219 190.664062 C 202.765625 189.246094 204.324219 184.570312 201.664062 181.242188 Z M 143.570312 108.492188 " fill-opacity="1" fill-rule="nonzero"/></g><g clip-path="url(#0efa4027b0)"><path fill="#000000" d="M 180.023438 199.789062 L 149.785156 199.789062 C 147.753906 199.789062 145.859375 198.878906 144.589844 197.289062 L 109.027344 152.734375 L 79.929688 189.195312 C 79.304688 189.976562 78.492188 190.613281 77.578125 191.050781 C 77.558594 191.0625 77.535156 191.074219 77.515625 191.085938 L 60.667969 199.144531 C 60.664062 199.144531 60.648438 199.152344 60.644531 199.15625 C 59.769531 199.570312 58.789062 199.789062 57.816406 199.789062 L 27.628906 199.789062 C 25.046875 199.789062 22.75 198.34375 21.632812 196.011719 C 20.511719 193.679688 20.820312 190.976562 22.433594 188.957031 L 80.1875 116.601562 L 22.382812 44.179688 C 21.125 42.605469 20.652344 40.667969 21.046875 38.71875 C 21.4375 36.789062 22.683594 35.085938 24.378906 34.15625 C 24.398438 34.144531 24.417969 34.132812 24.4375 34.121094 L 24.460938 34.113281 C 24.609375 34.03125 24.769531 33.957031 24.933594 33.882812 L 41.167969 26.132812 C 42.175781 25.546875 43.296875 25.253906 44.492188 25.253906 L 74.675781 25.253906 C 76.707031 25.253906 78.601562 26.164062 79.871094 27.753906 L 115.5 72.367188 L 144.648438 35.847656 C 145.292969 35.042969 146.136719 34.386719 147.09375 33.953125 C 147.113281 33.941406 147.132812 33.929688 147.152344 33.917969 L 163.734375 25.984375 C 163.753906 25.976562 163.773438 25.96875 163.789062 25.960938 C 164.71875 25.5 165.742188 25.253906 166.761719 25.253906 L 196.945312 25.253906 C 199.527344 25.253906 201.824219 26.699219 202.941406 29.03125 C 204.0625 31.363281 203.753906 34.066406 202.140625 36.085938 L 144.34375 108.492188 L 202.136719 180.863281 C 203.46875 182.53125 203.921875 184.660156 203.382812 186.707031 C 202.84375 188.753906 201.378906 190.433594 199.460938 191.210938 L 183.167969 199.011719 C 183.164062 199.015625 183.15625 199.019531 183.152344 199.019531 C 182.195312 199.53125 181.140625 199.789062 180.023438 199.789062 Z M 109.027344 151.160156 C 109.210938 151.160156 109.386719 151.242188 109.5 151.386719 L 145.535156 196.53125 C 146.574219 197.832031 148.125 198.578125 149.785156 198.578125 L 180.023438 198.578125 C 180.953125 198.578125 181.828125 198.359375 182.617188 197.933594 C 182.640625 197.921875 182.664062 197.910156 182.683594 197.902344 L 198.902344 190.136719 C 198.925781 190.121094 198.949219 190.109375 198.976562 190.101562 C 200.554688 189.472656 201.765625 188.085938 202.214844 186.398438 C 202.652344 184.726562 202.28125 182.984375 201.191406 181.621094 L 143.097656 108.871094 C 142.921875 108.648438 142.921875 108.335938 143.097656 108.113281 L 201.195312 35.328125 C 202.515625 33.675781 202.765625 31.464844 201.851562 29.558594 C 200.9375 27.648438 199.058594 26.464844 196.945312 26.464844 L 166.761719 26.464844 C 165.910156 26.464844 165.046875 26.675781 164.273438 27.078125 C 164.242188 27.089844 164.214844 27.105469 164.183594 27.113281 L 147.75 34.976562 C 147.722656 34.996094 147.691406 35.011719 147.660156 35.027344 C 146.847656 35.382812 146.132812 35.929688 145.59375 36.605469 L 115.972656 73.71875 C 115.855469 73.859375 115.683594 73.945312 115.5 73.945312 C 115.316406 73.945312 115.140625 73.859375 115.027344 73.71875 L 78.925781 28.511719 C 77.886719 27.210938 76.339844 26.464844 74.675781 26.464844 L 44.492188 26.464844 C 43.5 26.464844 42.574219 26.710938 41.746094 27.199219 C 41.722656 27.210938 41.695312 27.222656 41.671875 27.234375 L 25.445312 34.984375 C 25.4375 34.988281 25.429688 34.992188 25.421875 34.996094 C 25.277344 35.054688 25.140625 35.121094 25.015625 35.1875 C 25.007812 35.191406 25 35.195312 24.992188 35.199219 C 24.992188 35.199219 24.988281 35.203125 24.988281 35.203125 C 23.585938 35.960938 22.554688 37.367188 22.230469 38.960938 C 21.910156 40.550781 22.296875 42.132812 23.324219 43.421875 L 81.4375 116.222656 C 81.613281 116.445312 81.613281 116.761719 81.4375 116.980469 L 23.378906 189.714844 C 22.058594 191.367188 21.808594 193.578125 22.722656 195.484375 C 23.636719 197.394531 25.515625 198.578125 27.628906 198.578125 L 57.816406 198.578125 C 58.621094 198.578125 59.402344 198.402344 60.136719 198.054688 C 60.140625 198.050781 60.148438 198.050781 60.152344 198.046875 L 60.203125 198.023438 L 76.914062 190.027344 C 76.9375 190.011719 76.964844 189.996094 76.992188 189.984375 C 77.769531 189.628906 78.457031 189.09375 78.984375 188.4375 L 108.558594 151.386719 C 108.671875 151.242188 108.84375 151.160156 109.027344 151.160156 Z M 109.027344 151.160156 " fill-opacity="1" fill-rule="nonzero"/></g><g clip-path="url(#5b99a0a33e)"><path fill="#ffffff" d="M 145.0625 196.910156 L 103.800781 145.214844 L 62.539062 196.910156 C 61.390625 198.347656 59.652344 199.183594 57.816406 199.183594 L 27.628906 199.183594 C 22.554688 199.183594 19.738281 193.304688 22.90625 189.335938 L 80.964844 116.601562 L 22.855469 43.800781 C 19.6875 39.832031 22.503906 33.953125 27.578125 33.953125 L 57.761719 33.953125 C 59.597656 33.953125 61.335938 34.789062 62.480469 36.226562 L 103.8125 87.980469 L 145.121094 36.226562 C 146.269531 34.789062 148.007812 33.953125 149.84375 33.953125 L 180.03125 33.953125 C 185.101562 33.953125 187.921875 39.832031 184.753906 43.800781 L 126.652344 116.585938 L 184.746094 189.335938 C 187.917969 193.304688 185.097656 199.183594 180.023438 199.183594 L 149.785156 199.183594 C 147.949219 199.183594 146.210938 198.347656 145.0625 196.910156 Z M 145.0625 196.910156 " fill-opacity="1" fill-rule="nonzero"/></g><g clip-path="url(#95453de8e6)"><path fill="#000000" d="M 180.023438 199.789062 L 149.785156 199.789062 C 147.753906 199.789062 145.859375 198.878906 144.589844 197.289062 L 103.800781 146.1875 L 63.011719 197.289062 C 61.742188 198.878906 59.847656 199.789062 57.816406 199.789062 L 27.628906 199.789062 C 25.046875 199.789062 22.75 198.34375 21.632812 196.011719 C 20.511719 193.679688 20.820312 190.976562 22.433594 188.957031 L 80.1875 116.601562 L 22.382812 44.179688 C 20.769531 42.160156 20.460938 39.457031 21.578125 37.125 C 22.699219 34.796875 24.996094 33.347656 27.578125 33.347656 L 57.761719 33.347656 C 59.792969 33.347656 61.683594 34.257812 62.953125 35.847656 L 103.8125 87.011719 L 144.648438 35.847656 C 145.917969 34.257812 147.8125 33.347656 149.84375 33.347656 L 180.03125 33.347656 C 182.609375 33.347656 184.910156 34.796875 186.027344 37.125 C 187.144531 39.457031 186.835938 42.160156 185.226562 44.179688 L 127.429688 116.585938 L 185.21875 188.957031 C 186.832031 190.976562 187.140625 193.679688 186.023438 196.011719 C 184.902344 198.339844 182.605469 199.789062 180.023438 199.789062 Z M 145.535156 196.53125 C 146.574219 197.832031 148.125 198.578125 149.785156 198.578125 L 180.023438 198.578125 C 182.136719 198.578125 184.015625 197.394531 184.929688 195.484375 C 185.847656 193.578125 185.59375 191.367188 184.273438 189.714844 L 126.179688 116.964844 C 126.003906 116.742188 126.003906 116.429688 126.179688 116.207031 L 184.28125 43.421875 C 185.597656 41.769531 185.851562 39.558594 184.9375 37.652344 C 184.023438 35.742188 182.140625 34.558594 180.03125 34.558594 L 149.84375 34.558594 C 148.183594 34.558594 146.632812 35.304688 145.59375 36.605469 L 104.28125 88.359375 C 104.167969 88.503906 103.996094 88.585938 103.8125 88.585938 C 103.628906 88.585938 103.453125 88.503906 103.339844 88.359375 L 62.011719 36.605469 C 60.972656 35.304688 59.421875 34.558594 57.761719 34.558594 L 27.578125 34.558594 C 25.464844 34.558594 23.585938 35.746094 22.671875 37.652344 C 21.753906 39.558594 22.007812 41.769531 23.324219 43.421875 L 81.4375 116.222656 C 81.613281 116.445312 81.613281 116.761719 81.4375 116.980469 L 23.378906 189.714844 C 22.058594 191.367188 21.808594 193.578125 22.722656 195.484375 C 23.636719 197.394531 25.515625 198.578125 27.628906 198.578125 L 57.816406 198.578125 C 59.480469 198.578125 61.027344 197.832031 62.066406 196.53125 L 103.328125 144.835938 C 103.445312 144.691406 103.617188 144.609375 103.800781 144.609375 C 103.984375 144.609375 104.160156 144.691406 104.273438 144.835938 Z M 145.535156 196.53125 " fill-opacity="1" fill-rule="nonzero"/></g><path fill="#c2b092" d="M 62.539062 196.910156 C 61.972656 197.617188 61.261719 198.179688 60.46875 198.566406 L 77.253906 190.539062 L 77.246094 190.535156 C 78.09375 190.148438 78.855469 189.566406 79.457031 188.816406 L 109.027344 151.765625 L 103.800781 145.214844 Z M 62.539062 196.910156 " fill-opacity="1" fill-rule="nonzero"/><g clip-path="url(#387ee5c937)"><path fill="#000000" d="M 60.46875 199.175781 C 60.242188 199.175781 60.027344 199.046875 59.921875 198.832031 C 59.777344 198.53125 59.902344 198.167969 60.203125 198.023438 C 60.925781 197.671875 61.570312 197.152344 62.066406 196.53125 L 103.328125 144.835938 C 103.445312 144.691406 103.617188 144.609375 103.800781 144.609375 C 103.984375 144.609375 104.160156 144.691406 104.273438 144.835938 L 109.5 151.386719 C 109.679688 151.609375 109.679688 151.921875 109.5 152.144531 L 79.929688 189.195312 C 79.304688 189.976562 78.492188 190.613281 77.578125 191.050781 C 77.558594 191.0625 77.535156 191.074219 77.515625 191.085938 L 60.730469 199.113281 C 60.644531 199.15625 60.554688 199.175781 60.46875 199.175781 Z M 103.800781 146.1875 L 63.796875 196.304688 L 76.914062 190.027344 C 76.9375 190.011719 76.964844 189.996094 76.992188 189.984375 C 77.769531 189.628906 78.457031 189.09375 78.984375 188.4375 L 108.253906 151.765625 Z M 103.800781 146.1875 " fill-opacity="1" fill-rule="nonzero"/></g><path fill="#c2b092" d="M 143.570312 108.492188 L 126.652344 116.585938 L 184.746094 189.335938 C 187.246094 192.464844 186.019531 196.777344 182.90625 198.464844 L 182.90625 198.46875 L 199.203125 190.664062 L 199.199219 190.664062 C 202.765625 189.246094 204.324219 184.570312 201.664062 181.242188 Z M 143.570312 108.492188 " fill-opacity="1" fill-rule="nonzero"/><g clip-path="url(#c544283e30)"><path fill="#000000" d="M 182.90625 199.074219 C 182.832031 199.074219 182.757812 199.058594 182.6875 199.03125 C 182.53125 198.96875 182.40625 198.847656 182.34375 198.691406 C 182.230469 198.40625 182.347656 198.078125 182.617188 197.933594 C 184.019531 197.171875 185.046875 195.769531 185.371094 194.171875 C 185.691406 192.585938 185.300781 191 184.273438 189.714844 L 126.179688 116.964844 C 126.066406 116.820312 126.023438 116.632812 126.0625 116.453125 C 126.105469 116.269531 126.226562 116.121094 126.394531 116.039062 L 143.308594 107.945312 C 143.5625 107.824219 143.867188 107.894531 144.042969 108.113281 L 202.136719 180.863281 C 203.46875 182.53125 203.921875 184.660156 203.382812 186.707031 C 202.84375 188.753906 201.378906 190.433594 199.460938 191.210938 L 183.167969 199.015625 C 183.085938 199.054688 182.996094 199.074219 182.90625 199.074219 Z M 127.601562 116.804688 L 185.21875 188.957031 C 186.476562 190.527344 186.949219 192.46875 186.554688 194.414062 C 186.414062 195.117188 186.160156 195.789062 185.808594 196.40625 L 198.902344 190.136719 C 198.925781 190.121094 198.949219 190.109375 198.976562 190.101562 C 200.554688 189.472656 201.765625 188.085938 202.214844 186.398438 C 202.65625 184.726562 202.28125 182.984375 201.191406 181.621094 L 143.398438 109.246094 Z M 127.601562 116.804688 " fill-opacity="1" fill-rule="nonzero"/></g><g clip-path="url(#710c51a040)"><path fill="#c2b092" d="M 74.675781 25.859375 L 44.492188 25.859375 C 43.34375 25.859375 42.316406 26.164062 41.441406 26.675781 L 41.441406 26.671875 L 25.183594 34.4375 C 25.902344 34.128906 26.707031 33.953125 27.578125 33.953125 L 57.761719 33.953125 C 58.707031 33.953125 59.625 34.179688 60.449219 34.589844 L 77.382812 26.503906 C 76.550781 26.085938 75.628906 25.859375 74.675781 25.859375 Z M 74.675781 25.859375 " fill-opacity="1" fill-rule="nonzero"/></g><g clip-path="url(#fac27dfe6c)"><path fill="#000000" d="M 60.449219 35.195312 C 60.359375 35.195312 60.265625 35.175781 60.179688 35.132812 C 59.429688 34.757812 58.589844 34.558594 57.761719 34.558594 L 27.578125 34.558594 C 26.824219 34.558594 26.097656 34.707031 25.421875 34.996094 C 25.117188 35.125 24.769531 34.988281 24.632812 34.6875 C 24.496094 34.386719 24.625 34.03125 24.921875 33.890625 L 41.167969 26.132812 C 42.175781 25.546875 43.296875 25.253906 44.492188 25.253906 L 74.675781 25.253906 C 75.699219 25.253906 76.726562 25.5 77.652344 25.960938 C 77.859375 26.066406 77.988281 26.277344 77.988281 26.511719 C 77.984375 26.742188 77.851562 26.953125 77.640625 27.050781 L 60.710938 35.136719 C 60.628906 35.175781 60.539062 35.195312 60.449219 35.195312 Z M 28.871094 33.347656 L 57.761719 33.347656 C 58.679688 33.347656 59.601562 33.542969 60.449219 33.917969 L 75.804688 26.585938 C 75.433594 26.507812 75.054688 26.464844 74.675781 26.464844 L 44.492188 26.464844 C 43.5 26.464844 42.574219 26.710938 41.746094 27.199219 C 41.722656 27.210938 41.695312 27.222656 41.671875 27.234375 Z M 28.871094 33.347656 " fill-opacity="1" fill-rule="nonzero"/></g><path fill="#c2b092" d="M 79.398438 28.132812 C 78.847656 27.441406 78.152344 26.890625 77.382812 26.503906 L 60.449219 34.589844 C 61.230469 34.976562 61.925781 35.53125 62.480469 36.226562 L 103.8125 87.980469 L 115.5 73.339844 Z M 79.398438 28.132812 " fill-opacity="1" fill-rule="nonzero"/><g clip-path="url(#66af3235ee)"><path fill="#000000" d="M 103.8125 88.585938 C 103.628906 88.585938 103.453125 88.503906 103.339844 88.359375 L 62.011719 36.605469 C 61.515625 35.988281 60.902344 35.492188 60.179688 35.132812 C 59.972656 35.03125 59.84375 34.816406 59.847656 34.585938 C 59.847656 34.351562 59.980469 34.144531 60.191406 34.042969 L 77.121094 25.957031 C 77.289062 25.878906 77.484375 25.878906 77.652344 25.960938 C 78.523438 26.398438 79.269531 27.003906 79.871094 27.753906 L 115.96875 72.960938 C 116.148438 73.179688 116.148438 73.496094 115.972656 73.71875 L 104.28125 88.359375 C 104.167969 88.503906 103.996094 88.585938 103.8125 88.585938 Z M 61.71875 34.65625 C 62.179688 34.996094 62.59375 35.394531 62.953125 35.847656 L 103.8125 87.011719 L 114.722656 73.339844 L 78.925781 28.511719 C 78.496094 27.972656 77.972656 27.527344 77.367188 27.183594 Z M 61.71875 34.65625 " fill-opacity="1" fill-rule="nonzero"/></g><path fill="#c2b092" d="M 184.484375 35.910156 C 186.355469 37.972656 186.769531 41.273438 184.753906 43.800781 L 126.652344 116.585938 L 143.570312 108.492188 L 201.667969 35.707031 C 203.683594 33.183594 203.273438 29.890625 201.410156 27.824219 Z M 184.484375 35.910156 " fill-opacity="1" fill-rule="nonzero"/><path fill="#000000" d="M 126.652344 117.191406 C 126.472656 117.191406 126.296875 117.113281 126.179688 116.964844 C 126.003906 116.742188 126.003906 116.429688 126.179688 116.207031 L 184.28125 43.421875 C 186.1875 41.035156 185.601562 38.039062 184.035156 36.316406 C 183.90625 36.175781 183.851562 35.980469 183.890625 35.792969 C 183.925781 35.605469 184.050781 35.445312 184.222656 35.363281 L 201.148438 27.277344 C 201.390625 27.164062 201.679688 27.21875 201.859375 27.417969 C 204.074219 29.871094 204.191406 33.515625 202.140625 36.085938 L 144.042969 108.871094 C 143.984375 108.941406 143.914062 109 143.832031 109.039062 L 126.914062 117.132812 C 126.832031 117.171875 126.742188 117.191406 126.652344 117.191406 Z M 185.433594 36.125 C 187.164062 38.542969 187.113281 41.816406 185.226562 44.179688 L 128.773438 114.898438 L 143.183594 108.003906 L 201.195312 35.328125 C 202.976562 33.097656 202.582031 30.332031 201.246094 28.574219 Z M 185.433594 36.125 " fill-opacity="1" fill-rule="nonzero"/><g clip-path="url(#72b3dbaf4c)"><path fill="#c2b092" d="M 196.945312 25.859375 L 166.761719 25.859375 C 165.785156 25.859375 164.839844 26.101562 163.996094 26.539062 L 163.996094 26.53125 L 147.414062 34.464844 L 147.417969 34.472656 C 148.175781 34.136719 148.996094 33.953125 149.84375 33.953125 L 180.03125 33.953125 C 181.871094 33.953125 183.414062 34.730469 184.484375 35.910156 L 201.410156 27.824219 C 200.339844 26.640625 198.792969 25.859375 196.945312 25.859375 Z M 196.945312 25.859375 " fill-opacity="1" fill-rule="nonzero"/></g><g clip-path="url(#2faf578489)"><path fill="#000000" d="M 184.484375 36.515625 C 184.316406 36.515625 184.152344 36.445312 184.035156 36.316406 C 183.007812 35.183594 181.585938 34.558594 180.03125 34.558594 L 149.84375 34.558594 C 149.101562 34.558594 148.367188 34.714844 147.660156 35.027344 C 147.421875 35.132812 147.140625 35.070312 146.964844 34.871094 C 146.839844 34.730469 146.785156 34.535156 146.824219 34.347656 C 146.863281 34.160156 146.980469 34 147.152344 33.917969 L 163.734375 25.984375 C 163.753906 25.976562 163.773438 25.96875 163.789062 25.960938 C 164.71875 25.5 165.742188 25.253906 166.761719 25.253906 L 196.945312 25.253906 C 198.851562 25.253906 200.597656 26.023438 201.859375 27.417969 C 201.984375 27.5625 202.039062 27.753906 202.003906 27.941406 C 201.964844 28.132812 201.84375 28.289062 201.667969 28.371094 L 184.742188 36.457031 C 184.660156 36.496094 184.570312 36.515625 184.484375 36.515625 Z M 151.15625 33.347656 L 180.03125 33.347656 C 181.773438 33.347656 183.386719 33.992188 184.613281 35.175781 L 200.355469 27.65625 C 199.40625 26.882812 198.21875 26.464844 196.945312 26.464844 L 166.761719 26.464844 C 165.910156 26.464844 165.046875 26.675781 164.273438 27.078125 C 164.242188 27.089844 164.214844 27.105469 164.183594 27.113281 Z M 151.15625 33.347656 " fill-opacity="1" fill-rule="nonzero"/></g></svg>