<svg xmlns="http://www.w3.org/2000/svg" xmlns:xlink="http://www.w3.org/1999/xlink" width="200" zoomAndPan="magnify" viewBox="0 0 150 112.499997" height="150" preserveAspectRatio="xMidYMid meet" version="1.0"><defs><clipPath id="03a86f4c4e"><path d="M 30.507812 33 L 92 33 L 92 101 L 30.507812 101 Z M 30.507812 33 " clip-rule="nonzero"/></clipPath><clipPath id="45c759640b"><path d="M 30.507812 33 L 89 33 L 89 95 L 30.507812 95 Z M 30.507812 33 " clip-rule="nonzero"/></clipPath><clipPath id="414504d16e"><path d="M 59 47 L 119 47 L 119 106.585938 L 59 106.585938 Z M 59 47 " clip-rule="nonzero"/></clipPath><clipPath id="b1c8ec6e72"><path d="M 59 47 L 119 47 L 119 106.585938 L 59 106.585938 Z M 59 47 " clip-rule="nonzero"/></clipPath></defs><g clip-path="url(#03a86f4c4e)"><path fill="#f8d207" d="M 85.960938 78.097656 C 85.738281 78.523438 85.511719 78.949219 85.269531 79.375 L 83.949219 81.460938 L 83.792969 81.671875 C 79.390625 87.84375 73.589844 93.121094 66.777344 96.472656 C 63.574219 98.046875 60.132812 99.214844 56.59375 99.707031 C 54.183594 100.039062 51.765625 99.832031 49.371094 99.464844 C 48.023438 99.253906 46.558594 98.949219 45.199219 99.171875 C 43.722656 99.417969 42.441406 100.351562 40.925781 100.460938 C 37.78125 100.6875 37.226562 98.40625 36.945312 95.792969 C 36.816406 94.597656 36.765625 93.277344 36.136719 92.210938 C 36.074219 92.101562 36.007812 91.996094 35.945312 91.890625 C 35.019531 90.402344 33.914062 89.128906 33.15625 87.46875 C 31.597656 84.039062 30.84375 80.261719 30.726562 76.503906 C 30.503906 69.265625 32.527344 62.046875 35.867188 55.675781 C 36.089844 55.25 36.316406 54.824219 36.558594 54.40625 L 36.5625 54.394531 C 36.910156 53.839844 37.488281 52.929688 37.839844 52.375 L 38.03125 52.101562 C 42.4375 45.929688 48.238281 40.652344 55.050781 37.300781 C 60.753906 34.496094 67.339844 33.011719 73.648438 34.261719 C 74.6875 34.472656 75.671875 35.15625 76.753906 35.089844 C 77.328125 35.0625 77.796875 34.78125 78.242188 34.457031 C 78.210938 34.484375 78.183594 34.519531 78.15625 34.550781 L 78.152344 34.554688 C 77.9375 34.820312 77.902344 35.191406 78.035156 35.503906 C 78.503906 36.628906 80.023438 39.394531 83.75 40.199219 C 84.070312 40.269531 84.414062 40.210938 84.679688 40.03125 C 84.679688 40.03125 84.679688 40.03125 84.683594 40.03125 C 84.757812 39.984375 84.828125 39.925781 84.886719 39.859375 C 84.890625 39.894531 84.894531 39.933594 84.902344 39.972656 C 84.988281 40.578125 85.292969 41.070312 85.675781 41.550781 C 85.960938 41.914062 86.289062 42.265625 86.597656 42.65625 C 87.464844 43.742188 88.09375 45.042969 88.671875 46.304688 C 90.230469 49.738281 90.984375 53.511719 91.101562 57.269531 C 91.324219 64.507812 89.300781 71.726562 85.960938 78.097656 " fill-opacity="1" fill-rule="nonzero"/></g><g clip-path="url(#45c759640b)"><path fill="#f8e405" d="M 88.523438 58 C 87.578125 65.179688 84.414062 71.96875 80.089844 77.714844 C 79.800781 78.097656 79.507812 78.480469 79.203125 78.863281 L 77.5625 80.707031 L 77.378906 80.890625 C 72.035156 86.257812 65.457031 90.523438 58.199219 92.71875 C 54.777344 93.753906 51.199219 94.34375 47.625 94.25 C 45.191406 94.183594 42.84375 93.585938 40.535156 92.832031 C 39.242188 92.40625 37.847656 91.867188 36.46875 91.867188 C 36.292969 91.867188 36.117188 91.875 35.945312 91.890625 C 35.019531 90.402344 33.914062 89.128906 33.15625 87.46875 C 31.597656 84.039062 30.84375 80.261719 30.726562 76.503906 C 30.503906 69.265625 32.527344 62.046875 35.867188 55.675781 C 36.089844 55.25 36.316406 54.824219 36.558594 54.40625 L 36.5625 54.394531 C 36.910156 53.839844 37.488281 52.929688 37.839844 52.375 L 38.03125 52.101562 C 42.4375 45.929688 48.238281 40.652344 55.050781 37.300781 C 60.753906 34.496094 67.339844 33.011719 73.648438 34.261719 C 74.6875 34.472656 75.671875 35.15625 76.753906 35.089844 C 77.328125 35.0625 77.796875 34.78125 78.242188 34.457031 C 78.210938 34.484375 78.183594 34.519531 78.15625 34.550781 L 78.152344 34.554688 C 77.9375 34.820312 77.902344 35.191406 78.035156 35.503906 C 78.503906 36.628906 80.023438 39.394531 83.75 40.199219 C 84.070312 40.269531 84.414062 40.210938 84.679688 40.03125 C 84.679688 40.03125 84.679688 40.03125 84.683594 40.03125 C 84.757812 40.015625 84.828125 40 84.902344 39.972656 C 85.007812 39.933594 85.113281 39.878906 85.203125 39.804688 C 85.160156 40.445312 85.375 41 85.675781 41.550781 C 85.90625 41.976562 86.1875 42.394531 86.441406 42.847656 C 87.117188 44.058594 87.53125 45.445312 87.894531 46.785156 C 88.878906 50.425781 89.015625 54.269531 88.523438 58 " fill-opacity="1" fill-rule="nonzero"/></g><g clip-path="url(#414504d16e)"><path fill="#fcfaae" d="M 118.128906 77.097656 C 118.128906 93.375 104.996094 106.570312 88.800781 106.570312 C 72.601562 106.570312 59.472656 93.375 59.472656 77.097656 C 59.472656 60.820312 72.601562 47.621094 88.800781 47.621094 C 104.996094 47.621094 118.128906 60.820312 118.128906 77.097656 " fill-opacity="1" fill-rule="nonzero"/></g><path fill="#f5e505" d="M 93.789062 75.707031 L 111.269531 75.707031 C 111.765625 75.707031 112.238281 75.492188 112.566406 75.117188 C 112.886719 74.75 113.035156 74.261719 112.96875 73.78125 C 112.40625 69.628906 110.773438 65.660156 108.238281 62.304688 C 107.933594 61.902344 107.476562 61.652344 106.980469 61.617188 C 106.941406 61.617188 106.902344 61.617188 106.867188 61.617188 C 106.414062 61.617188 105.976562 61.796875 105.660156 62.113281 L 93.304688 74.527344 C 92.871094 74.960938 93.179688 75.707031 93.789062 75.707031 " fill-opacity="1" fill-rule="nonzero"/><path fill="#f5e505" d="M 94.734375 61.980469 C 95.007812 61.773438 95.394531 61.875 95.539062 62.179688 C 96.578125 64.371094 94.460938 66.246094 93.589844 66.902344 C 93.417969 67.03125 93.171875 66.941406 93.125 66.730469 C 92.519531 64.054688 93.9375 62.578125 94.734375 61.980469 Z M 91.351562 72.566406 L 103.707031 60.152344 C 104.054688 59.804688 104.234375 59.320312 104.203125 58.824219 C 104.167969 58.328125 103.917969 57.867188 103.519531 57.558594 C 100.175781 55.011719 96.226562 53.371094 92.097656 52.808594 C 92.019531 52.796875 91.945312 52.792969 91.875 52.792969 C 91.46875 52.792969 91.074219 52.941406 90.769531 53.210938 C 90.394531 53.539062 90.179688 54.015625 90.179688 54.511719 L 90.179688 72.078125 C 90.179688 72.695312 90.921875 73.003906 91.351562 72.566406 " fill-opacity="1" fill-rule="nonzero"/><path fill="#f5e505" d="M 86.289062 52.886719 C 86.109375 52.820312 85.917969 52.792969 85.726562 52.792969 C 85.652344 52.792969 85.578125 52.796875 85.503906 52.808594 C 81.375 53.371094 77.425781 55.011719 74.085938 57.558594 C 73.683594 57.867188 73.433594 58.328125 73.402344 58.824219 C 73.371094 59.320312 73.550781 59.804688 73.894531 60.152344 L 86.25 72.566406 C 86.679688 73.003906 87.421875 72.695312 87.421875 72.078125 L 87.421875 54.511719 C 87.421875 53.8125 86.996094 53.152344 86.289062 52.886719 " fill-opacity="1" fill-rule="nonzero"/><path fill="#f5e505" d="M 73.109375 69.488281 C 75.480469 69.042969 76.746094 71.582031 77.148438 72.59375 C 77.226562 72.796875 77.078125 73.011719 76.871094 73 C 74.136719 72.898438 73.078125 71.148438 72.710938 70.21875 C 72.582031 69.902344 72.777344 69.550781 73.109375 69.488281 Z M 65.753906 75.609375 C 65.9375 75.679688 66.136719 75.707031 66.332031 75.707031 L 83.808594 75.707031 C 84.421875 75.707031 84.726562 74.960938 84.296875 74.527344 L 71.933594 62.101562 C 71.617188 61.785156 71.191406 61.617188 70.742188 61.617188 C 70.703125 61.617188 70.664062 61.613281 70.625 61.617188 C 70.125 61.652344 69.667969 61.902344 69.363281 62.304688 C 66.828125 65.660156 65.191406 69.628906 64.632812 73.785156 C 64.53125 74.535156 64.957031 75.304688 65.753906 75.609375 " fill-opacity="1" fill-rule="nonzero"/><path fill="#f5e505" d="M 83.8125 78.480469 L 66.390625 78.480469 C 66.128906 78.480469 65.863281 78.523438 65.625 78.636719 C 64.910156 78.96875 64.535156 79.695312 64.632812 80.40625 C 65.191406 84.5625 66.828125 88.53125 69.363281 91.886719 C 69.667969 92.289062 70.125 92.539062 70.625 92.574219 C 70.664062 92.578125 70.703125 92.578125 70.738281 92.578125 C 71.1875 92.578125 71.625 92.394531 71.945312 92.078125 L 84.296875 79.660156 C 84.726562 79.222656 84.421875 78.480469 83.8125 78.480469 " fill-opacity="1" fill-rule="nonzero"/><path fill="#f5e505" d="M 83.226562 91.582031 C 82.945312 91.761719 82.574219 91.636719 82.449219 91.324219 C 81.578125 89.097656 83.792969 87.398438 84.695312 86.816406 C 84.875 86.703125 85.109375 86.804688 85.140625 87.011719 C 85.550781 89.691406 84.054688 91.046875 83.226562 91.582031 Z M 86.25 81.621094 L 73.894531 94.035156 C 73.550781 94.382812 73.371094 94.867188 73.402344 95.359375 C 73.433594 95.863281 73.683594 96.324219 74.085938 96.628906 C 77.421875 99.175781 81.371094 100.820312 85.503906 101.386719 C 85.578125 101.390625 85.652344 101.398438 85.726562 101.398438 C 86.132812 101.398438 86.523438 101.25 86.828125 100.980469 C 87.207031 100.652344 87.421875 100.175781 87.421875 99.679688 L 87.421875 82.109375 C 87.421875 81.496094 86.679688 81.1875 86.25 81.621094 " fill-opacity="1" fill-rule="nonzero"/><path fill="#f5e505" d="M 91.351562 81.621094 C 90.921875 81.1875 90.179688 81.496094 90.179688 82.109375 L 90.179688 99.679688 C 90.179688 100.175781 90.394531 100.652344 90.769531 100.980469 C 91.074219 101.25 91.46875 101.398438 91.875 101.398438 C 91.949219 101.398438 92.019531 101.390625 92.097656 101.386719 C 96.222656 100.820312 100.167969 99.179688 103.5 96.640625 C 103.660156 96.523438 103.800781 96.378906 103.910156 96.214844 C 104.386719 95.480469 104.261719 94.589844 103.707031 94.035156 L 91.351562 81.621094 " fill-opacity="1" fill-rule="nonzero"/><path fill="#f5e505" d="M 102.75 82.128906 C 100.746094 83.449219 98.621094 81.605469 97.859375 80.832031 C 97.714844 80.679688 97.769531 80.421875 97.96875 80.351562 C 100.511719 79.394531 102.152344 80.59375 102.84375 81.304688 C 103.078125 81.546875 103.035156 81.941406 102.75 82.128906 Z M 111.269531 78.480469 L 93.789062 78.480469 C 93.175781 78.480469 92.871094 79.222656 93.304688 79.660156 L 105.65625 92.074219 C 105.980469 92.402344 106.40625 92.578125 106.863281 92.578125 C 106.902344 92.578125 106.9375 92.574219 106.980469 92.574219 C 107.476562 92.539062 107.933594 92.289062 108.238281 91.882812 C 110.773438 88.53125 112.40625 84.5625 112.96875 80.40625 C 113.035156 79.925781 112.886719 79.441406 112.566406 79.074219 C 112.238281 78.699219 111.765625 78.480469 111.269531 78.480469 " fill-opacity="1" fill-rule="nonzero"/><g clip-path="url(#b1c8ec6e72)"><path fill="#f8d207" d="M 88.820312 50.050781 C 88.082031 50.050781 87.335938 50.082031 86.589844 50.144531 C 71.800781 51.371094 60.761719 64.457031 61.984375 79.320312 C 63.203125 94.183594 76.226562 105.285156 91.015625 104.050781 C 105.800781 102.824219 116.839844 89.734375 115.621094 74.875 C 114.460938 60.761719 102.664062 50.050781 88.820312 50.050781 Z M 88.753906 106.570312 C 81.824219 106.570312 75.1875 104.132812 69.839844 99.578125 C 63.863281 94.492188 60.21875 87.367188 59.574219 79.519531 C 58.929688 71.671875 61.363281 64.046875 66.429688 58.039062 C 71.496094 52.035156 78.582031 48.371094 86.390625 47.722656 C 102.507812 46.390625 116.699219 58.476562 118.027344 74.671875 C 119.355469 90.871094 107.328125 105.132812 91.210938 106.46875 C 90.390625 106.539062 89.570312 106.570312 88.753906 106.570312 " fill-opacity="1" fill-rule="nonzero"/></g><path fill="#82cd27" d="M 118.757812 24.589844 C 118.714844 25.957031 117.582031 27.035156 116.222656 26.992188 C 115.964844 26.984375 115.710938 26.9375 115.480469 26.855469 L 115.402344 26.828125 C 115.402344 26.828125 114.867188 26.640625 113.917969 26.335938 C 113.445312 26.164062 112.859375 26.058594 112.1875 25.886719 C 111.507812 25.710938 110.738281 25.621094 109.894531 25.476562 C 109.050781 25.390625 108.128906 25.28125 107.144531 25.28125 C 106.898438 25.273438 106.65625 25.269531 106.402344 25.261719 C 106.152344 25.269531 105.894531 25.277344 105.640625 25.285156 C 105.125 25.300781 104.597656 25.320312 104.0625 25.382812 C 103.53125 25.433594 102.984375 25.480469 102.441406 25.585938 C 102.167969 25.628906 101.898438 25.671875 101.621094 25.71875 C 101.34375 25.765625 101.074219 25.832031 100.792969 25.890625 C 100.523438 25.953125 100.246094 26.011719 99.964844 26.082031 C 99.695312 26.15625 99.421875 26.238281 99.144531 26.3125 C 98.59375 26.460938 98.046875 26.648438 97.507812 26.835938 C 96.960938 27.019531 96.4375 27.253906 95.902344 27.460938 C 95.382812 27.699219 94.851562 27.921875 94.351562 28.183594 C 93.847656 28.441406 93.347656 28.699219 92.871094 28.984375 C 92.386719 29.253906 91.917969 29.542969 91.46875 29.839844 C 90.570312 30.4375 89.71875 31.042969 88.953125 31.667969 C 88.183594 32.289062 87.496094 32.917969 86.867188 33.515625 C 86.234375 34.097656 85.71875 34.699219 85.402344 35.359375 C 85.277344 35.625 85.171875 35.902344 85.089844 36.195312 C 84.976562 36.578125 84.910156 36.972656 84.890625 37.367188 C 84.875 37.714844 84.988281 38.128906 85.066406 38.527344 C 85.128906 38.875 85.175781 39.203125 85.101562 39.464844 C 85.089844 39.519531 85.066406 39.570312 85.046875 39.617188 C 85.003906 39.703125 84.953125 39.785156 84.886719 39.855469 L 84.886719 39.859375 C 84.609375 40.164062 84.164062 40.292969 83.75 40.199219 C 80.023438 39.394531 78.503906 36.628906 78.035156 35.503906 C 77.902344 35.191406 77.9375 34.820312 78.152344 34.554688 L 78.15625 34.550781 C 78.183594 34.519531 78.210938 34.484375 78.242188 34.457031 C 78.359375 34.371094 78.472656 34.285156 78.585938 34.199219 C 79.210938 33.835938 80.085938 33.839844 80.761719 33.628906 C 81.050781 33.539062 81.351562 33.433594 81.660156 33.3125 C 81.664062 33.3125 81.664062 33.3125 81.664062 33.3125 C 82.039062 33.164062 82.421875 32.988281 82.808594 32.777344 C 83.15625 32.585938 83.503906 32.355469 83.855469 32.105469 C 84.199219 31.851562 84.535156 31.554688 84.898438 31.261719 C 85.625 30.675781 86.421875 30.054688 87.308594 29.453125 C 88.175781 28.84375 89.117188 28.222656 90.121094 27.640625 C 91.121094 27.054688 92.167969 26.472656 93.265625 25.953125 C 93.820312 25.691406 94.378906 25.449219 94.941406 25.1875 C 95.511719 24.960938 96.078125 24.710938 96.664062 24.503906 C 97.25 24.304688 97.820312 24.074219 98.417969 23.898438 C 98.710938 23.808594 99.003906 23.714844 99.296875 23.621094 C 99.59375 23.539062 99.886719 23.457031 100.183594 23.378906 C 100.480469 23.300781 100.769531 23.210938 101.0625 23.136719 C 101.359375 23.074219 101.648438 23.003906 101.941406 22.941406 C 102.523438 22.804688 103.109375 22.691406 103.683594 22.589844 C 104.257812 22.46875 104.824219 22.398438 105.382812 22.324219 C 105.660156 22.28125 105.9375 22.242188 106.207031 22.207031 C 106.480469 22.175781 106.753906 22.15625 107.019531 22.125 C 108.089844 22.003906 109.105469 21.984375 110.046875 21.917969 C 110.515625 21.910156 110.96875 21.90625 111.398438 21.898438 C 111.617188 21.894531 111.828125 21.890625 112.027344 21.890625 C 112.230469 21.890625 112.429688 21.894531 112.621094 21.902344 C 113.390625 21.933594 114.070312 21.917969 114.617188 21.957031 C 115.722656 22.027344 116.363281 22.039062 116.363281 22.039062 C 117.726562 22.082031 118.800781 23.222656 118.757812 24.589844 " fill-opacity="1" fill-rule="nonzero"/><path fill="#82cd27" d="M 78.585938 34.199219 C 78.472656 34.285156 78.359375 34.371094 78.242188 34.457031 C 78.296875 34.398438 78.355469 34.347656 78.417969 34.304688 C 78.472656 34.265625 78.527344 34.230469 78.585938 34.199219 " fill-opacity="1" fill-rule="nonzero"/><path fill="#82cd27" d="M 85.042969 25.253906 C 85.042969 25.253906 83.070312 52.855469 33.003906 33.113281 C 34.070312 33.335938 37.03125 33.050781 43.476562 27.113281 C 52.015625 19.242188 70.808594 5.792969 85.042969 25.253906 " fill-opacity="1" fill-rule="nonzero"/><path fill="#82cd27" d="M 95.125 27.960938 C 86.011719 24.953125 79.441406 26.292969 79.378906 26.308594 L 79.007812 24.546875 C 79.292969 24.488281 86.117188 23.09375 95.6875 26.25 L 95.125 27.960938 " fill-opacity="1" fill-rule="nonzero"/></svg>