<svg xmlns="http://www.w3.org/2000/svg" xmlns:xlink="http://www.w3.org/1999/xlink" width="300" zoomAndPan="magnify" viewBox="0 0 224.87999 225" height="300" preserveAspectRatio="xMidYMid meet" version="1.0"><defs><clipPath id="e5117fd929"><path d="M 24.285156 23 L 200 23 L 200 202 L 24.285156 202 Z M 24.285156 23 " clip-rule="nonzero"/></clipPath><clipPath id="4b878ae658"><path d="M 24.285156 22.546875 L 200.441406 22.546875 L 200.441406 202.453125 L 24.285156 202.453125 Z M 24.285156 22.546875 " clip-rule="nonzero"/></clipPath><clipPath id="d1bd87182d"><path d="M 24.285156 29 L 184 29 L 184 202 L 24.285156 202 Z M 24.285156 29 " clip-rule="nonzero"/></clipPath><clipPath id="84ff11bd96"><path d="M 24.285156 28 L 185 28 L 185 202.453125 L 24.285156 202.453125 Z M 24.285156 28 " clip-rule="nonzero"/></clipPath><clipPath id="1e4d5c481d"><path d="M 85 22.546875 L 192 22.546875 L 192 77 L 85 77 Z M 85 22.546875 " clip-rule="nonzero"/></clipPath><clipPath id="fc66730358"><path d="M 137 102 L 200.441406 102 L 200.441406 195 L 137 195 Z M 137 102 " clip-rule="nonzero"/></clipPath></defs><g clip-path="url(#e5117fd929)"><path fill="#000000" d="M 193.460938 102.125 L 119.964844 102.125 C 119.078125 102.125 118.230469 102.3125 117.464844 102.644531 L 102.488281 108.28125 C 102.113281 108.382812 101.753906 108.519531 101.410156 108.6875 L 101.371094 108.703125 L 101.375 108.703125 C 99.28125 109.738281 97.835938 111.890625 97.835938 114.382812 L 97.835938 139.066406 C 97.835938 142.566406 100.667969 145.402344 104.164062 145.402344 L 137.835938 145.402344 C 134.324219 150.683594 129.96875 155.023438 125.054688 158.222656 C 123.476562 158.429688 121.878906 158.539062 120.265625 158.539062 C 96.996094 158.539062 78.066406 136.554688 78.066406 109.535156 C 78.066406 91.191406 86.796875 75.175781 99.683594 66.777344 C 101.253906 66.570312 102.847656 66.457031 104.464844 66.457031 C 116.730469 66.457031 128.390625 72.683594 136.449219 83.546875 L 143.804688 93.453125 C 145.671875 95.96875 149.046875 96.695312 151.746094 95.316406 L 151.746094 95.320312 L 166.226562 89.894531 C 167.011719 89.699219 167.769531 89.347656 168.457031 88.835938 L 188.257812 74.117188 C 191.0625 72.035156 191.648438 68.066406 189.566406 65.257812 L 182.210938 55.351562 C 167.039062 34.90625 144.460938 23.179688 120.265625 23.179688 C 108.359375 23.179688 96.882812 25.988281 86.453125 31.308594 C 71.769531 34.96875 58.351562 43.109375 47.558594 55.109375 C 32.972656 71.328125 24.941406 92.761719 24.941406 115.457031 C 24.941406 138.15625 32.972656 159.589844 47.558594 175.808594 C 62.640625 192.578125 82.851562 201.8125 104.464844 201.8125 C 116.371094 201.8125 127.847656 199.003906 138.277344 193.6875 C 152.960938 190.027344 166.382812 181.886719 177.171875 169.882812 C 185.929688 160.148438 192.28125 148.691406 196.046875 135.835938 C 198.53125 127.363281 199.789062 118.511719 199.789062 109.535156 L 199.789062 108.460938 C 199.789062 104.960938 196.957031 102.125 193.460938 102.125 Z M 193.460938 102.125 " fill-opacity="1" fill-rule="nonzero"/></g><g clip-path="url(#4b878ae658)"><path fill="#000000" d="M 104.464844 202.445312 C 82.667969 202.445312 62.289062 193.136719 47.089844 176.230469 C 32.398438 159.898438 24.308594 138.316406 24.308594 115.457031 C 24.308594 92.601562 32.398438 71.019531 47.089844 54.6875 C 57.851562 42.714844 71.386719 34.425781 86.230469 30.710938 C 96.875 25.292969 108.328125 22.546875 120.265625 22.546875 C 144.664062 22.546875 167.425781 34.367188 182.71875 54.972656 L 190.074219 64.878906 C 192.363281 67.964844 191.714844 72.335938 188.636719 74.628906 L 168.835938 89.347656 C 168.105469 89.886719 167.292969 90.273438 166.417969 90.5 L 151.980469 95.90625 C 148.957031 97.417969 145.3125 96.550781 143.292969 93.832031 L 135.941406 83.921875 C 128 73.222656 116.53125 67.089844 104.464844 67.089844 C 102.996094 67.089844 101.464844 67.1875 99.90625 67.386719 C 86.820312 75.984375 78.699219 92.117188 78.699219 109.535156 C 78.699219 136.207031 97.34375 157.90625 120.265625 157.90625 C 121.777344 157.90625 123.3125 157.804688 124.828125 157.613281 C 129.375 154.628906 133.34375 150.738281 136.636719 146.035156 L 104.164062 146.035156 C 100.324219 146.035156 97.203125 142.910156 97.203125 139.066406 L 97.203125 114.382812 C 97.203125 111.738281 98.667969 109.363281 101.027344 108.171875 C 101.066406 108.144531 101.105469 108.125 101.148438 108.109375 L 101.160156 108.105469 C 101.523438 107.929688 101.90625 107.785156 102.292969 107.679688 L 117.226562 102.054688 C 118.097656 101.683594 119.015625 101.492188 119.964844 101.492188 L 193.460938 101.492188 C 197.300781 101.492188 200.421875 104.617188 200.421875 108.460938 L 200.421875 109.535156 C 200.421875 118.574219 199.152344 127.480469 196.652344 136.015625 C 192.859375 148.960938 186.464844 160.5 177.644531 170.308594 C 166.878906 182.277344 153.34375 190.566406 138.5 194.285156 C 127.855469 199.699219 116.40625 202.445312 104.464844 202.445312 Z M 120.265625 23.816406 C 108.503906 23.816406 97.226562 26.527344 86.742188 31.871094 C 86.699219 31.894531 86.652344 31.910156 86.605469 31.921875 C 71.980469 35.570312 58.640625 43.734375 48.03125 55.535156 C 33.550781 71.632812 25.574219 92.917969 25.574219 115.457031 C 25.574219 138 33.550781 159.28125 48.03125 175.382812 C 62.988281 192.019531 83.03125 201.179688 104.464844 201.179688 C 116.226562 201.179688 127.507812 198.46875 137.992188 193.121094 C 138.035156 193.101562 138.078125 193.082031 138.125 193.070312 C 152.75 189.425781 166.089844 181.261719 176.703125 169.460938 C 185.394531 159.792969 191.699219 148.421875 195.441406 135.660156 C 197.90625 127.242188 199.15625 118.453125 199.15625 109.535156 L 199.15625 108.460938 C 199.15625 105.316406 196.601562 102.761719 193.460938 102.761719 L 119.964844 102.761719 C 119.1875 102.761719 118.429688 102.917969 117.714844 103.222656 C 117.703125 103.226562 117.695312 103.230469 117.6875 103.234375 L 102.710938 108.875 C 102.691406 108.882812 102.675781 108.886719 102.65625 108.890625 C 102.324219 108.984375 101.996094 109.105469 101.6875 109.257812 C 101.679688 109.261719 101.671875 109.265625 101.664062 109.265625 C 101.660156 109.269531 101.65625 109.269531 101.652344 109.273438 C 99.6875 110.242188 98.46875 112.199219 98.46875 114.382812 L 98.46875 139.066406 C 98.46875 142.210938 101.023438 144.765625 104.164062 144.765625 L 137.835938 144.765625 C 138.070312 144.765625 138.285156 144.894531 138.394531 145.101562 C 138.503906 145.308594 138.492188 145.558594 138.363281 145.75 C 134.816406 151.085938 130.457031 155.460938 125.398438 158.753906 C 125.320312 158.804688 125.230469 158.835938 125.136719 158.847656 C 123.519531 159.0625 121.882812 159.171875 120.265625 159.171875 C 96.648438 159.171875 77.433594 136.90625 77.433594 109.535156 C 77.433594 91.640625 85.824219 75.054688 99.339844 66.246094 C 99.417969 66.195312 99.507812 66.164062 99.601562 66.152344 C 101.257812 65.933594 102.894531 65.820312 104.464844 65.820312 C 116.933594 65.820312 128.777344 72.144531 136.957031 83.167969 L 144.308594 93.074219 C 145.96875 95.3125 148.976562 96.019531 151.457031 94.753906 C 151.496094 94.734375 151.535156 94.71875 151.578125 94.707031 L 166.003906 89.300781 C 166.027344 89.292969 166.050781 89.285156 166.074219 89.28125 C 166.800781 89.097656 167.476562 88.777344 168.078125 88.328125 L 187.878906 73.609375 C 190.402344 71.734375 190.929688 68.160156 189.058594 65.636719 L 181.703125 55.726562 C 166.652344 35.445312 144.257812 23.816406 120.265625 23.816406 Z M 120.265625 23.816406 " fill-opacity="1" fill-rule="nonzero"/></g><g clip-path="url(#d1bd87182d)"><path fill="#ffffff" d="M 104.464844 201.8125 C 82.847656 201.8125 62.640625 192.578125 47.558594 175.808594 C 32.972656 159.589844 24.941406 138.15625 24.941406 115.457031 C 24.941406 92.761719 32.972656 71.328125 47.558594 55.109375 C 62.640625 38.339844 82.847656 29.105469 104.464844 29.105469 C 128.660156 29.105469 151.238281 40.828125 166.410156 61.273438 L 173.761719 71.179688 C 175.847656 73.988281 175.261719 77.957031 172.457031 80.042969 L 152.65625 94.761719 C 149.851562 96.847656 145.886719 96.261719 143.800781 93.453125 L 136.449219 83.546875 C 128.390625 72.683594 116.730469 66.457031 104.464844 66.457031 C 81.195312 66.457031 62.265625 88.4375 62.265625 115.457031 C 62.265625 142.480469 81.195312 164.460938 104.464844 164.460938 C 117.671875 164.460938 129.910156 157.324219 137.835938 145.402344 L 104.164062 145.402344 C 100.667969 145.402344 97.835938 142.566406 97.835938 139.066406 L 97.835938 114.382812 C 97.835938 110.886719 100.667969 108.050781 104.164062 108.050781 L 177.660156 108.050781 C 181.15625 108.050781 183.988281 110.886719 183.988281 114.382812 L 183.988281 115.457031 C 183.988281 124.4375 182.730469 133.285156 180.246094 141.761719 C 176.480469 154.613281 170.128906 166.070312 161.371094 175.808594 C 146.292969 192.578125 126.082031 201.8125 104.464844 201.8125 Z M 104.464844 201.8125 " fill-opacity="1" fill-rule="nonzero"/></g><g clip-path="url(#84ff11bd96)"><path fill="#000000" d="M 104.464844 202.445312 C 82.667969 202.445312 62.289062 193.136719 47.089844 176.230469 C 32.398438 159.898438 24.308594 138.316406 24.308594 115.457031 C 24.308594 92.601562 32.398438 71.019531 47.089844 54.6875 C 62.289062 37.78125 82.667969 28.472656 104.464844 28.472656 C 128.863281 28.472656 151.625 40.289062 166.917969 60.894531 L 174.269531 70.804688 C 175.378906 72.296875 175.839844 74.132812 175.570312 75.976562 C 175.296875 77.816406 174.328125 79.441406 172.832031 80.550781 L 153.03125 95.269531 C 149.953125 97.558594 145.582031 96.914062 143.292969 93.832031 L 135.941406 83.921875 C 128 73.226562 116.527344 67.089844 104.464844 67.089844 C 81.542969 67.089844 62.898438 88.789062 62.898438 115.460938 C 62.898438 142.128906 81.542969 163.828125 104.464844 163.828125 C 117.042969 163.828125 128.710938 157.359375 136.636719 146.035156 L 104.164062 146.035156 C 100.324219 146.035156 97.203125 142.910156 97.203125 139.066406 L 97.203125 114.382812 C 97.203125 110.542969 100.324219 107.417969 104.164062 107.417969 L 177.660156 107.417969 C 181.496094 107.417969 184.621094 110.542969 184.621094 114.382812 L 184.621094 115.460938 C 184.621094 124.496094 183.351562 133.40625 180.851562 141.9375 C 177.058594 154.882812 170.664062 166.421875 161.84375 176.230469 C 146.640625 193.136719 126.261719 202.445312 104.464844 202.445312 Z M 104.464844 29.738281 C 83.03125 29.738281 62.988281 38.898438 48.027344 55.535156 C 33.550781 71.632812 25.574219 92.917969 25.574219 115.457031 C 25.574219 138 33.550781 159.285156 48.027344 175.382812 C 62.988281 192.019531 83.03125 201.179688 104.464844 201.179688 C 125.898438 201.179688 145.941406 192.019531 160.902344 175.382812 C 169.59375 165.71875 175.898438 154.34375 179.636719 141.582031 C 182.105469 133.164062 183.355469 124.375 183.355469 115.457031 L 183.355469 114.382812 C 183.355469 111.242188 180.800781 108.683594 177.660156 108.683594 L 104.164062 108.683594 C 101.023438 108.683594 98.46875 111.242188 98.46875 114.382812 L 98.46875 139.066406 C 98.46875 142.210938 101.023438 144.769531 104.164062 144.769531 L 137.835938 144.769531 C 138.070312 144.769531 138.285156 144.894531 138.394531 145.101562 C 138.503906 145.308594 138.492188 145.558594 138.363281 145.75 C 134.402344 151.710938 129.242188 156.621094 123.445312 159.953125 C 117.585938 163.316406 111.023438 165.09375 104.464844 165.09375 C 80.847656 165.09375 61.632812 142.828125 61.632812 115.457031 C 61.632812 88.089844 80.847656 65.820312 104.464844 65.820312 C 116.933594 65.820312 128.777344 72.144531 136.957031 83.167969 L 144.308594 93.074219 C 146.183594 95.597656 149.757812 96.125 152.277344 94.253906 L 172.078125 79.535156 C 173.300781 78.625 174.09375 77.296875 174.316406 75.789062 C 174.539062 74.285156 174.164062 72.78125 173.253906 71.558594 L 165.902344 61.652344 C 150.851562 41.371094 128.457031 29.738281 104.464844 29.738281 Z M 104.464844 29.738281 " fill-opacity="1" fill-rule="nonzero"/></g><path fill="#c2b092" d="M 62.265625 115.457031 C 62.265625 142.480469 81.195312 164.460938 104.464844 164.460938 C 111.820312 164.460938 118.875 162.246094 125.054688 158.222656 C 123.476562 158.429688 121.878906 158.539062 120.265625 158.539062 C 96.996094 158.539062 78.066406 136.554688 78.066406 109.535156 C 78.066406 91.191406 86.796875 75.175781 99.683594 66.777344 C 78.65625 69.546875 62.265625 90.316406 62.265625 115.457031 Z M 62.265625 115.457031 " fill-opacity="1" fill-rule="nonzero"/><path fill="#000000" d="M 104.464844 165.09375 C 80.847656 165.09375 61.632812 142.828125 61.632812 115.457031 C 61.632812 103.222656 65.523438 91.460938 72.589844 82.339844 C 79.617188 73.269531 89.210938 67.519531 99.601562 66.152344 C 99.894531 66.113281 100.175781 66.28125 100.277344 66.558594 C 100.378906 66.835938 100.277344 67.148438 100.027344 67.308594 C 86.871094 75.882812 78.699219 92.0625 78.699219 109.535156 C 78.699219 136.207031 97.34375 157.90625 120.265625 157.90625 C 121.828125 157.90625 123.410156 157.800781 124.972656 157.59375 C 125.261719 157.554688 125.546875 157.722656 125.648438 158.003906 C 125.75 158.28125 125.648438 158.589844 125.398438 158.753906 C 119.027344 162.902344 111.789062 165.09375 104.464844 165.09375 Z M 97.015625 67.875 C 77.378906 72.003906 62.898438 91.917969 62.898438 115.460938 C 62.898438 142.128906 81.542969 163.828125 104.464844 163.828125 C 110.65625 163.828125 116.785156 162.207031 122.351562 159.113281 C 121.652344 159.152344 120.957031 159.171875 120.265625 159.171875 C 96.648438 159.171875 77.433594 136.90625 77.433594 109.535156 C 77.433594 92.691406 84.871094 77.003906 97.015625 67.875 Z M 97.015625 67.875 " fill-opacity="1" fill-rule="nonzero"/><path fill="#c2b092" d="M 189.566406 65.257812 L 182.210938 55.351562 C 167.039062 34.90625 144.460938 23.179688 120.265625 23.179688 C 108.359375 23.179688 96.882812 25.988281 86.453125 31.308594 C 92.285156 29.855469 98.320312 29.105469 104.464844 29.105469 C 128.660156 29.105469 151.238281 40.828125 166.410156 61.273438 L 173.761719 71.179688 C 174.765625 72.53125 175.144531 74.148438 174.960938 75.695312 L 190.761719 69.773438 C 190.945312 68.226562 190.566406 66.609375 189.566406 65.257812 Z M 189.566406 65.257812 " fill-opacity="1" fill-rule="nonzero"/><g clip-path="url(#1e4d5c481d)"><path fill="#000000" d="M 174.960938 76.328125 C 174.824219 76.328125 174.683594 76.28125 174.570312 76.191406 C 174.398438 76.054688 174.308594 75.839844 174.332031 75.621094 C 174.503906 74.167969 174.121094 72.726562 173.253906 71.558594 L 165.902344 61.652344 C 150.851562 41.371094 128.457031 29.738281 104.464844 29.738281 C 98.429688 29.738281 92.421875 30.472656 86.605469 31.921875 C 86.292969 32 85.972656 31.832031 85.859375 31.53125 C 85.746094 31.226562 85.878906 30.890625 86.164062 30.742188 C 96.832031 25.304688 108.304688 22.546875 120.265625 22.546875 C 144.664062 22.546875 167.425781 34.367188 182.71875 54.972656 L 190.074219 64.878906 C 191.132812 66.308594 191.601562 68.074219 191.390625 69.847656 C 191.363281 70.082031 191.207031 70.285156 190.984375 70.367188 L 175.183594 76.285156 C 175.113281 76.3125 175.035156 76.328125 174.960938 76.328125 Z M 104.464844 28.472656 C 128.863281 28.472656 151.625 40.289062 166.917969 60.894531 L 174.269531 70.804688 C 175.128906 71.960938 175.601562 73.339844 175.636719 74.765625 L 190.167969 69.320312 C 190.234375 67.996094 189.847656 66.703125 189.058594 65.636719 L 181.703125 55.726562 C 166.652344 35.445312 144.257812 23.816406 120.265625 23.816406 C 110.347656 23.816406 100.769531 25.742188 91.722656 29.554688 C 95.917969 28.835938 100.1875 28.472656 104.464844 28.472656 Z M 104.464844 28.472656 " fill-opacity="1" fill-rule="nonzero"/></g><path fill="#c2b092" d="M 174.960938 75.695312 C 174.765625 77.367188 173.914062 78.957031 172.457031 80.042969 L 152.65625 94.761719 C 152.363281 94.976562 152.058594 95.15625 151.746094 95.316406 L 151.746094 95.320312 L 166.226562 89.894531 C 167.011719 89.699219 167.769531 89.347656 168.457031 88.835938 L 188.257812 74.117188 C 189.714844 73.035156 190.566406 71.445312 190.761719 69.773438 Z M 174.960938 75.695312 " fill-opacity="1" fill-rule="nonzero"/><path fill="#000000" d="M 151.746094 95.953125 C 151.53125 95.953125 151.324219 95.839844 151.207031 95.648438 C 151.113281 95.496094 151.089844 95.3125 151.136719 95.144531 C 151.1875 94.976562 151.300781 94.832031 151.457031 94.753906 C 151.769531 94.59375 152.039062 94.429688 152.277344 94.253906 L 172.078125 79.535156 C 173.347656 78.589844 174.148438 77.199219 174.332031 75.621094 C 174.363281 75.382812 174.519531 75.183594 174.742188 75.101562 L 190.542969 69.179688 C 190.75 69.101562 190.980469 69.140625 191.152344 69.277344 C 191.328125 69.410156 191.417969 69.628906 191.390625 69.847656 C 191.164062 71.777344 190.1875 73.472656 188.636719 74.628906 L 168.835938 89.347656 C 168.105469 89.886719 167.292969 90.273438 166.417969 90.5 L 151.96875 95.914062 C 151.894531 95.941406 151.820312 95.953125 151.746094 95.953125 Z M 175.535156 76.15625 C 175.230469 77.925781 174.28125 79.476562 172.835938 80.550781 L 156.035156 93.035156 L 166.003906 89.300781 C 166.027344 89.292969 166.050781 89.285156 166.074219 89.28125 C 166.800781 89.097656 167.476562 88.777344 168.078125 88.328125 L 187.878906 73.609375 C 188.851562 72.886719 189.550781 71.902344 189.90625 70.769531 Z M 175.535156 76.15625 " fill-opacity="1" fill-rule="nonzero"/><path fill="#c2b092" d="M 193.460938 102.125 L 119.964844 102.125 C 119.078125 102.125 118.230469 102.3125 117.464844 102.644531 L 102.488281 108.28125 C 103.023438 108.136719 103.582031 108.050781 104.164062 108.050781 L 177.660156 108.050781 C 179.167969 108.050781 180.550781 108.578125 181.636719 109.460938 L 197.363281 103.480469 C 196.289062 102.636719 194.933594 102.125 193.460938 102.125 Z M 193.460938 102.125 " fill-opacity="1" fill-rule="nonzero"/><path fill="#000000" d="M 181.636719 110.09375 C 181.492188 110.09375 181.351562 110.042969 181.238281 109.953125 C 180.214844 109.121094 178.976562 108.683594 177.660156 108.683594 L 104.164062 108.683594 C 103.667969 108.683594 103.160156 108.753906 102.65625 108.894531 C 102.328125 108.980469 101.992188 108.800781 101.886719 108.476562 C 101.78125 108.15625 101.949219 107.808594 102.265625 107.6875 L 117.226562 102.054688 C 118.097656 101.683594 119.019531 101.492188 119.964844 101.492188 L 193.460938 101.492188 C 195.03125 101.492188 196.515625 102.007812 197.753906 102.984375 C 197.933594 103.125 198.023438 103.351562 197.988281 103.578125 C 197.953125 103.800781 197.800781 103.992188 197.589844 104.074219 L 181.859375 110.050781 C 181.789062 110.078125 181.710938 110.09375 181.636719 110.09375 Z M 106.582031 107.417969 L 177.660156 107.417969 C 179.121094 107.417969 180.558594 107.886719 181.742188 108.742188 L 195.957031 103.339844 C 195.1875 102.957031 194.339844 102.761719 193.460938 102.761719 L 119.964844 102.761719 C 119.1875 102.761719 118.429688 102.917969 117.714844 103.226562 C 117.703125 103.230469 117.695312 103.234375 117.6875 103.234375 Z M 106.582031 107.417969 " fill-opacity="1" fill-rule="nonzero"/><path fill="#c2b092" d="M 197.363281 103.480469 L 181.636719 109.460938 C 183.070312 110.621094 183.988281 112.394531 183.988281 114.382812 L 183.988281 115.457031 C 183.988281 124.4375 182.726562 133.285156 180.246094 141.761719 C 176.480469 154.613281 170.128906 166.070312 161.371094 175.808594 C 154.597656 183.339844 146.785156 189.347656 138.277344 193.6875 C 152.960938 190.027344 166.382812 181.886719 177.171875 169.882812 C 185.929688 160.148438 192.28125 148.691406 196.046875 135.835938 C 198.53125 127.363281 199.789062 118.511719 199.789062 109.535156 L 199.789062 108.460938 C 199.789062 106.4375 198.839844 104.640625 197.363281 103.480469 Z M 197.363281 103.480469 " fill-opacity="1" fill-rule="nonzero"/><g clip-path="url(#fc66730358)"><path fill="#000000" d="M 138.277344 194.320312 C 138.019531 194.320312 137.78125 194.160156 137.683594 193.910156 C 137.574219 193.605469 137.703125 193.269531 137.992188 193.121094 C 146.519531 188.773438 154.226562 182.804688 160.902344 175.382812 C 169.59375 165.71875 175.898438 154.34375 179.636719 141.582031 C 182.105469 133.164062 183.355469 124.375 183.355469 115.457031 L 183.355469 114.382812 C 183.355469 112.65625 182.582031 111.042969 181.238281 109.953125 C 181.0625 109.808594 180.976562 109.582031 181.011719 109.359375 C 181.046875 109.136719 181.199219 108.949219 181.410156 108.867188 L 197.140625 102.890625 C 197.347656 102.808594 197.578125 102.847656 197.753906 102.984375 C 199.449219 104.316406 200.421875 106.3125 200.421875 108.460938 L 200.421875 109.535156 C 200.421875 118.574219 199.152344 127.480469 196.652344 136.015625 C 192.859375 148.960938 186.464844 160.5 177.644531 170.308594 C 166.863281 182.296875 153.304688 190.59375 138.429688 194.300781 C 138.378906 194.3125 138.328125 194.320312 138.277344 194.320312 Z M 182.804688 109.691406 C 183.96875 110.96875 184.621094 112.628906 184.621094 114.382812 L 184.621094 115.457031 C 184.621094 124.496094 183.351562 133.40625 180.851562 141.9375 C 177.058594 154.882812 170.664062 166.421875 161.84375 176.230469 C 156.367188 182.320312 150.207031 187.445312 143.472656 191.519531 C 156 187.359375 167.398438 179.808594 176.703125 169.460938 C 185.394531 159.792969 191.699219 148.421875 195.441406 135.660156 C 197.90625 127.242188 199.15625 118.453125 199.15625 109.535156 L 199.15625 108.460938 C 199.15625 106.820312 198.464844 105.289062 197.242188 104.203125 Z M 182.804688 109.691406 " fill-opacity="1" fill-rule="nonzero"/></g></svg>