<svg xmlns="http://www.w3.org/2000/svg" xmlns:xlink="http://www.w3.org/1999/xlink" width="300" zoomAndPan="magnify" viewBox="0 0 224.87999 225" height="300" preserveAspectRatio="xMidYMid meet" version="1.0"><defs><clipPath id="7ebd653ef9"><path d="M 34.257812 22.546875 L 190.921875 22.546875 L 190.921875 202.453125 L 34.257812 202.453125 Z M 34.257812 22.546875 " clip-rule="nonzero"/></clipPath><clipPath id="e366f1fa5b"><path d="M 34.257812 30 L 177 30 L 177 202.453125 L 34.257812 202.453125 Z M 34.257812 30 " clip-rule="nonzero"/></clipPath><clipPath id="35cee28346"><path d="M 38 22.546875 L 86 22.546875 L 86 34 L 38 34 Z M 38 22.546875 " clip-rule="nonzero"/></clipPath><clipPath id="1fb8da1d06"><path d="M 140 22.546875 L 190 22.546875 L 190 35 L 140 35 Z M 140 22.546875 " clip-rule="nonzero"/></clipPath><clipPath id="7fe05f679d"><path d="M 117 24 L 190.921875 24 L 190.921875 202 L 117 202 Z M 117 24 " clip-rule="nonzero"/></clipPath></defs><path fill="#000000" d="M 183.59375 23.171875 L 157.742188 23.171875 C 156.410156 23.171875 155.152344 23.59375 154.117188 24.328125 L 140.90625 32.332031 C 139.617188 33.0625 138.59375 34.238281 138.082031 35.699219 L 114.15625 103.925781 L 87.300781 27.355469 C 86.421875 24.851562 84.054688 23.171875 81.394531 23.171875 L 55.539062 23.171875 C 54.171875 23.171875 52.9375 23.601562 51.929688 24.3125 L 38.910156 32.210938 C 38.652344 32.34375 38.40625 32.492188 38.171875 32.660156 L 38.152344 32.671875 L 38.15625 32.671875 C 36 34.210938 34.90625 37.0625 35.875 39.828125 L 91.230469 197.652344 C 92.109375 200.15625 94.480469 201.835938 97.140625 201.835938 L 114.5 201.832031 C 115.605469 201.832031 116.660156 201.539062 117.578125 201.023438 L 117.585938 201.015625 C 117.691406 200.957031 117.796875 200.894531 117.898438 200.828125 L 131.332031 192.679688 C 131.445312 192.613281 131.554688 192.546875 131.660156 192.476562 L 131.664062 192.476562 C 132.796875 191.742188 133.695312 190.644531 134.164062 189.304688 L 189.5 31.484375 C 190.925781 27.421875 187.902344 23.171875 183.59375 23.171875 Z M 183.59375 23.171875 " fill-opacity="1" fill-rule="nonzero"/><g clip-path="url(#7ebd653ef9)"><path fill="#000000" d="M 97.140625 202.460938 C 94.21875 202.460938 91.605469 200.609375 90.640625 197.859375 L 35.285156 40.035156 C 34.269531 37.144531 35.257812 34.003906 37.742188 32.199219 C 37.769531 32.175781 37.800781 32.15625 37.828125 32.136719 C 38.074219 31.964844 38.332031 31.808594 38.601562 31.667969 L 51.605469 23.777344 C 51.605469 23.777344 51.609375 23.777344 51.609375 23.773438 C 52.761719 22.972656 54.121094 22.546875 55.539062 22.546875 L 81.394531 22.546875 C 84.316406 22.546875 86.929688 24.398438 87.894531 27.148438 L 114.15625 102.035156 L 137.488281 35.492188 C 138.039062 33.925781 139.140625 32.609375 140.597656 31.789062 L 153.773438 23.804688 C 154.941406 22.980469 156.3125 22.546875 157.742188 22.546875 L 183.59375 22.546875 C 185.851562 22.546875 187.898438 23.605469 189.207031 25.445312 C 190.515625 27.285156 190.839844 29.5625 190.089844 31.691406 L 134.753906 189.511719 C 134.253906 190.933594 133.277344 192.175781 132.003906 193 C 131.882812 193.078125 131.765625 193.152344 131.640625 193.222656 L 118.226562 201.359375 C 118.125 201.425781 118.011719 201.496094 117.894531 201.5625 C 117.886719 201.5625 117.882812 201.566406 117.875 201.570312 C 116.84375 202.152344 115.675781 202.457031 114.5 202.457031 Z M 38.546875 33.160156 C 38.535156 33.167969 38.527344 33.175781 38.519531 33.179688 C 36.457031 34.652344 35.632812 37.242188 36.464844 39.621094 L 91.820312 197.445312 C 92.609375 199.699219 94.75 201.210938 97.140625 201.210938 L 114.5 201.207031 C 115.464844 201.207031 116.421875 200.957031 117.269531 200.476562 C 117.273438 200.476562 117.277344 200.472656 117.285156 200.46875 C 117.378906 200.414062 117.46875 200.359375 117.558594 200.300781 L 131.007812 192.144531 C 131.125 192.078125 131.222656 192.015625 131.320312 191.953125 C 132.367188 191.277344 133.164062 190.261719 133.574219 189.097656 L 188.910156 31.277344 C 189.519531 29.535156 189.257812 27.671875 188.1875 26.167969 C 187.117188 24.660156 185.441406 23.796875 183.59375 23.796875 L 157.742188 23.796875 C 156.566406 23.796875 155.4375 24.15625 154.480469 24.835938 C 154.46875 24.84375 154.457031 24.851562 154.441406 24.859375 L 141.230469 32.863281 C 140.023438 33.546875 139.121094 34.625 138.671875 35.90625 L 114.75 104.132812 C 114.660156 104.382812 114.421875 104.550781 114.15625 104.550781 C 113.890625 104.550781 113.65625 104.382812 113.566406 104.132812 L 86.710938 27.5625 C 85.921875 25.3125 83.785156 23.796875 81.394531 23.796875 L 55.539062 23.796875 C 54.363281 23.796875 53.242188 24.152344 52.292969 24.824219 C 52.265625 24.84375 52.238281 24.859375 52.210938 24.871094 L 39.234375 32.746094 C 39.222656 32.753906 39.210938 32.757812 39.199219 32.765625 C 38.96875 32.886719 38.75 33.019531 38.546875 33.160156 Z M 38.546875 33.160156 " fill-opacity="1" fill-rule="nonzero"/></g><path fill="#ffffff" d="M 41.785156 31.515625 L 67.640625 31.515625 C 70.300781 31.515625 72.667969 33.195312 73.546875 35.699219 L 105.816406 127.707031 L 138.082031 35.699219 C 138.957031 33.195312 141.328125 31.515625 143.988281 31.515625 L 169.835938 31.515625 C 174.148438 31.515625 177.171875 35.765625 175.746094 39.828125 L 120.410156 197.648438 C 119.53125 200.152344 117.160156 201.832031 114.503906 201.832031 L 97.140625 201.835938 C 94.480469 201.835938 92.109375 200.15625 91.230469 197.652344 L 35.875 39.828125 C 34.449219 35.765625 37.472656 31.515625 41.785156 31.515625 Z M 41.785156 31.515625 " fill-opacity="1" fill-rule="nonzero"/><g clip-path="url(#e366f1fa5b)"><path fill="#000000" d="M 97.140625 202.460938 C 94.21875 202.460938 91.605469 200.609375 90.640625 197.859375 L 35.285156 40.035156 C 34.539062 37.90625 34.859375 35.628906 36.167969 33.789062 C 37.476562 31.945312 39.523438 30.890625 41.785156 30.890625 L 67.640625 30.890625 C 70.5625 30.890625 73.175781 32.742188 74.140625 35.492188 L 105.816406 125.816406 L 137.488281 35.492188 C 138.453125 32.742188 141.066406 30.890625 143.988281 30.890625 L 169.835938 30.890625 C 172.097656 30.890625 174.144531 31.945312 175.453125 33.789062 C 176.761719 35.628906 177.085938 37.90625 176.335938 40.035156 L 121 197.855469 C 120.035156 200.605469 117.421875 202.457031 114.5 202.457031 Z M 41.785156 32.140625 C 39.933594 32.140625 38.257812 33.003906 37.1875 34.511719 C 36.117188 36.015625 35.855469 37.878906 36.464844 39.621094 L 91.820312 197.445312 C 92.609375 199.699219 94.75 201.210938 97.140625 201.210938 L 114.5 201.207031 C 116.890625 201.207031 119.027344 199.695312 119.820312 197.441406 L 175.15625 39.621094 C 175.765625 37.878906 175.503906 36.015625 174.433594 34.511719 C 173.363281 33.003906 171.6875 32.140625 169.835938 32.140625 L 143.988281 32.140625 C 141.597656 32.140625 139.460938 33.652344 138.671875 35.90625 L 106.410156 127.914062 C 106.320312 128.164062 106.085938 128.332031 105.816406 128.332031 C 105.550781 128.332031 105.316406 128.164062 105.226562 127.914062 L 72.957031 35.90625 C 72.167969 33.652344 70.03125 32.140625 67.640625 32.140625 Z M 41.785156 32.140625 " fill-opacity="1" fill-rule="nonzero"/></g><path fill="#c2b092" d="M 81.394531 23.171875 L 55.539062 23.171875 C 54.171875 23.171875 52.9375 23.601562 51.929688 24.3125 L 38.910156 32.210938 C 39.761719 31.769531 40.734375 31.515625 41.785156 31.515625 L 67.640625 31.515625 C 69.101562 31.515625 70.472656 32.023438 71.558594 32.894531 L 85.3125 24.550781 C 84.226562 23.679688 82.855469 23.171875 81.394531 23.171875 Z M 81.394531 23.171875 " fill-opacity="1" fill-rule="nonzero"/><g clip-path="url(#35cee28346)"><path fill="#000000" d="M 71.558594 33.519531 C 71.417969 33.519531 71.28125 33.472656 71.167969 33.382812 C 70.167969 32.582031 68.914062 32.140625 67.640625 32.140625 L 41.785156 32.140625 C 40.871094 32.140625 40.003906 32.351562 39.199219 32.765625 C 38.898438 32.921875 38.53125 32.8125 38.367188 32.519531 C 38.199219 32.222656 38.296875 31.851562 38.585938 31.679688 L 51.605469 23.777344 C 51.605469 23.777344 51.609375 23.777344 51.609375 23.773438 C 52.761719 22.972656 54.121094 22.546875 55.539062 22.546875 L 81.394531 22.546875 C 82.953125 22.546875 84.484375 23.085938 85.703125 24.0625 C 85.863281 24.191406 85.949219 24.386719 85.9375 24.589844 C 85.921875 24.796875 85.8125 24.980469 85.636719 25.085938 L 71.882812 33.429688 C 71.785156 33.492188 71.671875 33.519531 71.558594 33.519531 Z M 42.292969 30.890625 L 67.640625 30.890625 C 69.050781 30.890625 70.441406 31.332031 71.597656 32.140625 L 84.152344 24.523438 C 83.3125 24.050781 82.359375 23.796875 81.394531 23.796875 L 55.539062 23.796875 C 54.363281 23.796875 53.242188 24.152344 52.292969 24.824219 C 52.265625 24.84375 52.238281 24.859375 52.210938 24.871094 Z M 42.292969 30.890625 " fill-opacity="1" fill-rule="nonzero"/></g><path fill="#c2b092" d="M 87.300781 27.355469 C 86.90625 26.226562 86.203125 25.265625 85.3125 24.550781 L 71.558594 32.894531 C 72.453125 33.609375 73.152344 34.570312 73.546875 35.699219 L 105.820312 127.707031 L 114.15625 103.925781 Z M 87.300781 27.355469 " fill-opacity="1" fill-rule="nonzero"/><path fill="#000000" d="M 105.820312 128.332031 C 105.550781 128.332031 105.316406 128.164062 105.226562 127.914062 L 72.957031 35.90625 C 72.609375 34.914062 71.992188 34.042969 71.167969 33.382812 C 71.007812 33.253906 70.921875 33.058594 70.933594 32.855469 C 70.949219 32.652344 71.058594 32.46875 71.234375 32.363281 L 84.984375 24.015625 C 85.210938 23.878906 85.496094 23.898438 85.703125 24.0625 C 86.710938 24.871094 87.46875 25.9375 87.894531 27.148438 L 114.75 103.71875 C 114.796875 103.851562 114.796875 103.996094 114.75 104.132812 L 106.410156 127.914062 C 106.320312 128.164062 106.085938 128.332031 105.820312 128.332031 Z M 72.597656 32.996094 C 73.285156 33.707031 73.8125 34.558594 74.140625 35.492188 L 105.820312 125.816406 L 113.492188 103.925781 L 86.710938 27.5625 C 86.410156 26.707031 85.910156 25.941406 85.246094 25.320312 Z M 72.597656 32.996094 " fill-opacity="1" fill-rule="nonzero"/><path fill="#c2b092" d="M 183.59375 23.171875 L 157.742188 23.171875 C 156.410156 23.171875 155.152344 23.59375 154.117188 24.328125 L 140.90625 32.332031 C 141.824219 31.808594 142.882812 31.515625 143.988281 31.515625 L 169.839844 31.515625 C 171.84375 31.515625 173.558594 32.441406 174.6875 33.832031 L 188.441406 25.484375 C 187.3125 24.097656 185.59375 23.171875 183.59375 23.171875 Z M 183.59375 23.171875 " fill-opacity="1" fill-rule="nonzero"/><g clip-path="url(#1fb8da1d06)"><path fill="#000000" d="M 174.6875 34.457031 C 174.503906 34.457031 174.324219 34.375 174.203125 34.222656 C 173.128906 32.898438 171.535156 32.140625 169.835938 32.140625 L 143.988281 32.140625 C 143.023438 32.140625 142.0625 32.394531 141.214844 32.875 C 140.914062 33.042969 140.539062 32.941406 140.367188 32.648438 C 140.191406 32.351562 140.289062 31.972656 140.582031 31.796875 L 153.773438 23.804688 C 154.941406 22.980469 156.3125 22.546875 157.742188 22.546875 L 183.59375 22.546875 C 185.667969 22.546875 187.613281 23.476562 188.925781 25.089844 C 189.042969 25.230469 189.089844 25.414062 189.058594 25.59375 C 189.027344 25.769531 188.921875 25.925781 188.765625 26.019531 L 175.015625 34.363281 C 174.914062 34.425781 174.800781 34.457031 174.6875 34.457031 Z M 144.488281 30.890625 L 169.839844 30.890625 C 171.730469 30.890625 173.515625 31.664062 174.8125 33.023438 L 187.464844 25.347656 C 186.421875 24.355469 185.046875 23.796875 183.59375 23.796875 L 157.742188 23.796875 C 156.566406 23.796875 155.4375 24.15625 154.480469 24.835938 C 154.46875 24.84375 154.457031 24.851562 154.441406 24.859375 Z M 144.488281 30.890625 " fill-opacity="1" fill-rule="nonzero"/></g><path fill="#c2b092" d="M 174.6875 33.832031 C 175.988281 35.429688 176.507812 37.652344 175.746094 39.828125 L 120.410156 197.648438 C 119.941406 198.988281 119.039062 200.089844 117.898438 200.824219 L 131.332031 192.679688 C 131.445312 192.613281 131.554688 192.546875 131.660156 192.476562 L 131.664062 192.476562 C 132.796875 191.742188 133.695312 190.644531 134.164062 189.304688 L 189.5 31.484375 C 190.265625 29.308594 189.742188 27.085938 188.441406 25.484375 Z M 174.6875 33.832031 " fill-opacity="1" fill-rule="nonzero"/><g clip-path="url(#7fe05f679d)"><path fill="#000000" d="M 117.902344 201.449219 C 117.691406 201.449219 117.488281 201.347656 117.371094 201.160156 C 117.1875 200.867188 117.273438 200.488281 117.558594 200.300781 C 118.605469 199.625 119.410156 198.609375 119.820312 197.441406 L 175.15625 39.621094 C 175.804688 37.773438 175.445312 35.757812 174.203125 34.222656 C 174.089844 34.082031 174.042969 33.902344 174.070312 33.722656 C 174.101562 33.546875 174.210938 33.390625 174.363281 33.296875 L 188.117188 24.953125 C 188.382812 24.789062 188.730469 24.847656 188.925781 25.09375 C 190.449219 26.964844 190.882812 29.429688 190.089844 31.691406 L 134.753906 189.511719 C 134.253906 190.933594 133.277344 192.175781 132.003906 193 C 131.882812 193.078125 131.765625 193.152344 131.640625 193.222656 L 118.226562 201.359375 C 118.125 201.421875 118.011719 201.449219 117.902344 201.449219 Z M 175.597656 34.011719 C 176.769531 35.796875 177.050781 38 176.335938 40.035156 L 121 197.855469 C 120.945312 198.015625 120.882812 198.171875 120.816406 198.328125 L 131.007812 192.144531 C 131.125 192.078125 131.222656 192.015625 131.320312 191.953125 C 132.367188 191.277344 133.164062 190.261719 133.574219 189.097656 L 188.910156 31.277344 C 189.5 29.601562 189.257812 27.78125 188.277344 26.316406 Z M 175.597656 34.011719 " fill-opacity="1" fill-rule="nonzero"/></g></svg>