<svg xmlns="http://www.w3.org/2000/svg" xmlns:xlink="http://www.w3.org/1999/xlink" width="200" zoomAndPan="magnify" viewBox="0 0 150 112.499997" height="150" preserveAspectRatio="xMidYMid meet" version="1.0"><defs><clipPath id="cc859bdd70"><path d="M 54 11.199219 L 91 11.199219 L 91 48 L 54 48 Z M 54 11.199219 " clip-rule="nonzero"/></clipPath><clipPath id="0598c83ee4"><path d="M 73 29 L 106.429688 29 L 106.429688 63 L 73 63 Z M 73 29 " clip-rule="nonzero"/></clipPath><clipPath id="bd484784e8"><path d="M 43.707031 29 L 78 29 L 78 67 L 43.707031 67 Z M 43.707031 29 " clip-rule="nonzero"/></clipPath></defs><g clip-path="url(#cc859bdd70)"><path fill="#f9d75b" d="M 81.898438 14.066406 C 82.265625 14.300781 82.621094 14.546875 82.96875 14.804688 C 83.3125 15.0625 83.644531 15.332031 83.964844 15.609375 C 86.402344 18.34375 88.328125 21.710938 89.582031 25.214844 C 89.675781 25.628906 89.75 26.042969 89.8125 26.457031 C 90.445312 30.621094 89.695312 35.070312 87.390625 38.996094 C 82.324219 47.632812 71.644531 50.472656 63.542969 45.339844 C 60.226562 43.242188 57.855469 40.132812 56.558594 36.601562 C 56.414062 36.210938 56.285156 35.8125 56.167969 35.410156 C 54.1875 31.375 54.84375 26.820312 56.851562 22.824219 C 57.019531 22.414062 57.203125 22.007812 57.402344 21.605469 C 57.601562 21.203125 57.816406 20.804688 58.046875 20.414062 C 59.199219 18.449219 60.640625 16.785156 62.277344 15.449219 C 62.605469 15.179688 62.941406 14.929688 63.289062 14.699219 C 63.597656 14.507812 63.910156 14.328125 64.222656 14.15625 C 64.539062 13.984375 64.855469 13.820312 65.175781 13.667969 C 68.859375 12.605469 72.582031 11.203125 76.3125 11.824219 C 76.632812 11.886719 76.953125 11.960938 77.273438 12.046875 C 78.867188 12.464844 80.425781 13.136719 81.898438 14.066406 Z M 81.898438 14.066406 " fill-opacity="1" fill-rule="nonzero"/></g><path fill="#feea89" d="M 80.921875 15.664062 C 81.285156 15.894531 81.632812 16.136719 81.972656 16.394531 C 82.3125 16.648438 82.636719 16.917969 82.945312 17.199219 C 85.230469 19.480469 86.847656 22.519531 87.816406 25.664062 C 87.90625 26.070312 87.980469 26.480469 88.039062 26.890625 C 88.574219 30.59375 87.894531 34.539062 85.847656 38.027344 C 81.300781 45.773438 71.722656 48.324219 64.453125 43.71875 C 61.179688 41.648438 58.933594 38.480469 57.867188 34.917969 C 57.75 34.523438 57.644531 34.125 57.539062 33.722656 C 56.210938 30.503906 56.832031 26.871094 58.359375 23.738281 C 58.519531 23.332031 58.699219 22.929688 58.890625 22.53125 C 59.085938 22.136719 59.296875 21.742188 59.523438 21.355469 C 60.660156 19.417969 62.113281 17.804688 63.761719 16.550781 C 64.09375 16.296875 64.433594 16.0625 64.78125 15.84375 C 65.050781 15.691406 65.320312 15.542969 65.589844 15.398438 C 68.539062 14.011719 71.742188 13.488281 74.847656 13.484375 C 75.199219 13.523438 75.546875 13.578125 75.894531 13.648438 C 77.628906 13.992188 79.328125 14.65625 80.921875 15.664062 Z M 80.921875 15.664062 " fill-opacity="1" fill-rule="nonzero"/><path fill="#fff3d9" d="M 85.753906 21.746094 C 85.710938 21.667969 85.46875 21.648438 85.410156 21.746094 C 84.804688 22.566406 85.433594 23.636719 85.394531 24.5 C 85.449219 24.84375 85.515625 25.207031 85.578125 25.585938 C 85.839844 27.09375 86.136719 28.808594 86.105469 30.292969 C 86.101562 30.691406 86.074219 31.082031 86.03125 31.46875 C 85.644531 34.964844 83.875 38.269531 81.15625 40.570312 C 80.898438 40.792969 80.628906 41 80.351562 41.199219 C 80.074219 41.394531 79.789062 41.578125 79.496094 41.75 C 79.140625 41.957031 78.765625 42.15625 78.523438 42.5 C 78.285156 42.839844 78.246094 43.382812 78.554688 43.636719 C 78.898438 43.925781 79.414062 43.707031 79.796875 43.46875 C 80.652344 42.933594 81.496094 42.34375 82.269531 41.675781 C 82.53125 41.453125 82.78125 41.21875 83.023438 40.976562 C 85.601562 38.378906 87.277344 34.878906 87.648438 31.222656 C 87.679688 30.90625 87.707031 30.585938 87.730469 30.261719 C 87.765625 29.152344 87.722656 28.023438 87.582031 26.910156 C 87.535156 26.539062 87.476562 26.167969 87.40625 25.800781 C 87.226562 24.238281 86.410156 23.050781 85.753906 21.746094 " fill-opacity="1" fill-rule="nonzero"/><path fill="#f9d75b" d="M 63.515625 36.820312 C 63.769531 36.871094 63.964844 37.011719 64.105469 37.238281 C 64.246094 37.464844 64.285156 37.710938 64.230469 37.980469 C 64.175781 38.246094 64.035156 38.457031 63.816406 38.609375 C 63.597656 38.761719 63.363281 38.808594 63.109375 38.757812 C 62.855469 38.703125 62.660156 38.5625 62.519531 38.335938 C 62.382812 38.109375 62.339844 37.863281 62.394531 37.597656 C 62.453125 37.328125 62.589844 37.117188 62.808594 36.96875 C 63.027344 36.816406 63.265625 36.765625 63.515625 36.820312 Z M 63.515625 36.820312 " fill-opacity="1" fill-rule="nonzero"/><path fill="#f9d75b" d="M 71.933594 39.621094 C 72.09375 39.65625 72.21875 39.742188 72.304688 39.886719 C 72.394531 40.027344 72.417969 40.183594 72.382812 40.351562 C 72.347656 40.519531 72.261719 40.652344 72.125 40.75 C 71.984375 40.84375 71.835938 40.875 71.679688 40.84375 C 71.519531 40.808594 71.394531 40.71875 71.308594 40.578125 C 71.21875 40.433594 71.191406 40.28125 71.230469 40.109375 C 71.265625 39.941406 71.351562 39.8125 71.488281 39.714844 C 71.625 39.621094 71.773438 39.589844 71.933594 39.621094 Z M 71.933594 39.621094 " fill-opacity="1" fill-rule="nonzero"/><path fill="#f9d75b" d="M 77.503906 24.410156 C 77.714844 24.457031 77.875 24.570312 77.992188 24.757812 C 78.105469 24.945312 78.140625 25.148438 78.09375 25.371094 C 78.046875 25.589844 77.933594 25.761719 77.753906 25.886719 C 77.574219 26.015625 77.378906 26.054688 77.167969 26.011719 C 76.960938 25.96875 76.796875 25.851562 76.683594 25.664062 C 76.566406 25.476562 76.535156 25.273438 76.582031 25.050781 C 76.625 24.832031 76.742188 24.660156 76.921875 24.535156 C 77.101562 24.410156 77.296875 24.367188 77.503906 24.410156 Z M 77.503906 24.410156 " fill-opacity="1" fill-rule="nonzero"/><path fill="#f9d75b" d="M 73.714844 29.644531 C 73.875 29.679688 74.023438 29.742188 74.15625 29.839844 C 74.289062 29.933594 74.402344 30.054688 74.492188 30.199219 C 74.578125 30.34375 74.636719 30.5 74.664062 30.667969 C 74.695312 30.835938 74.691406 31.007812 74.65625 31.175781 C 74.617188 31.34375 74.554688 31.5 74.460938 31.644531 C 74.367188 31.789062 74.25 31.910156 74.109375 32.003906 C 73.972656 32.101562 73.820312 32.164062 73.660156 32.199219 C 73.5 32.234375 73.335938 32.234375 73.175781 32.199219 C 73.015625 32.164062 72.867188 32.101562 72.734375 32.003906 C 72.601562 31.910156 72.488281 31.789062 72.398438 31.644531 C 72.3125 31.503906 72.253906 31.347656 72.226562 31.175781 C 72.195312 31.007812 72.199219 30.839844 72.234375 30.667969 C 72.273438 30.5 72.335938 30.34375 72.429688 30.199219 C 72.523438 30.054688 72.640625 29.9375 72.78125 29.839844 C 72.917969 29.746094 73.070312 29.679688 73.230469 29.644531 C 73.390625 29.613281 73.554688 29.613281 73.714844 29.644531 Z M 73.714844 29.644531 " fill-opacity="1" fill-rule="nonzero"/><path fill="#f9d75b" d="M 81.445312 34.480469 C 81.554688 34.503906 81.636719 34.5625 81.699219 34.660156 C 81.757812 34.757812 81.777344 34.867188 81.75 34.980469 C 81.726562 35.09375 81.667969 35.1875 81.574219 35.25 C 81.480469 35.316406 81.378906 35.335938 81.269531 35.316406 C 81.160156 35.292969 81.078125 35.230469 81.015625 35.132812 C 80.957031 35.035156 80.9375 34.929688 80.960938 34.816406 C 80.988281 34.699219 81.046875 34.609375 81.140625 34.542969 C 81.234375 34.480469 81.335938 34.457031 81.445312 34.480469 Z M 81.445312 34.480469 " fill-opacity="1" fill-rule="nonzero"/><path fill="#f9d75b" d="M 83.703125 26.636719 C 83.929688 26.683594 84.105469 26.808594 84.230469 27.015625 C 84.355469 27.21875 84.394531 27.4375 84.34375 27.679688 C 84.292969 27.917969 84.167969 28.109375 83.972656 28.246094 C 83.773438 28.378906 83.5625 28.425781 83.335938 28.378906 C 83.109375 28.328125 82.933594 28.203125 82.808594 28 C 82.683594 27.796875 82.644531 27.574219 82.695312 27.335938 C 82.746094 27.09375 82.867188 26.90625 83.066406 26.769531 C 83.261719 26.632812 83.472656 26.589844 83.703125 26.636719 Z M 83.703125 26.636719 " fill-opacity="1" fill-rule="nonzero"/><path fill="#f9d75b" d="M 82.828125 19.003906 C 83.035156 19.046875 83.195312 19.160156 83.308594 19.34375 C 83.421875 19.527344 83.457031 19.730469 83.410156 19.949219 C 83.363281 20.167969 83.253906 20.335938 83.074219 20.460938 C 82.894531 20.585938 82.703125 20.625 82.496094 20.582031 C 82.289062 20.539062 82.128906 20.425781 82.015625 20.238281 C 81.902344 20.054688 81.867188 19.855469 81.914062 19.636719 C 81.960938 19.417969 82.074219 19.246094 82.25 19.121094 C 82.429688 19 82.621094 18.960938 82.828125 19.003906 Z M 82.828125 19.003906 " fill-opacity="1" fill-rule="nonzero"/><path fill="#f9d75b" d="M 76.4375 36.433594 C 76.59375 36.464844 76.734375 36.527344 76.863281 36.617188 C 76.992188 36.710938 77.097656 36.824219 77.183594 36.960938 C 77.265625 37.097656 77.324219 37.25 77.351562 37.410156 C 77.378906 37.574219 77.375 37.734375 77.339844 37.898438 C 77.304688 38.058594 77.242188 38.210938 77.152344 38.347656 C 77.0625 38.484375 76.953125 38.601562 76.820312 38.691406 C 76.6875 38.785156 76.542969 38.847656 76.386719 38.878906 C 76.230469 38.910156 76.078125 38.910156 75.921875 38.878906 C 75.769531 38.847656 75.628906 38.785156 75.5 38.691406 C 75.371094 38.601562 75.265625 38.488281 75.179688 38.347656 C 75.09375 38.210938 75.039062 38.0625 75.011719 37.898438 C 74.984375 37.738281 74.988281 37.574219 75.023438 37.414062 C 75.054688 37.25 75.117188 37.101562 75.207031 36.964844 C 75.300781 36.824219 75.410156 36.710938 75.542969 36.617188 C 75.675781 36.527344 75.820312 36.464844 75.976562 36.433594 C 76.128906 36.398438 76.285156 36.398438 76.4375 36.433594 Z M 76.4375 36.433594 " fill-opacity="1" fill-rule="nonzero"/><path fill="#f9d75b" d="M 67.484375 43.167969 C 67.726562 43.214844 67.910156 43.347656 68.042969 43.5625 C 68.171875 43.777344 68.210938 44.007812 68.160156 44.261719 C 68.105469 44.515625 67.976562 44.710938 67.769531 44.855469 C 67.5625 45 67.339844 45.046875 67.101562 44.996094 C 66.863281 44.945312 66.675781 44.8125 66.542969 44.597656 C 66.414062 44.386719 66.375 44.152344 66.425781 43.898438 C 66.480469 43.648438 66.609375 43.449219 66.816406 43.304688 C 67.023438 43.164062 67.246094 43.117188 67.484375 43.167969 Z M 67.484375 43.167969 " fill-opacity="1" fill-rule="nonzero"/><path fill="#f9d75b" d="M 67.5625 38.726562 C 67.714844 38.757812 67.773438 38.855469 67.742188 39.015625 C 67.707031 39.175781 67.613281 39.238281 67.460938 39.207031 C 67.3125 39.175781 67.253906 39.078125 67.285156 38.917969 C 67.320312 38.757812 67.414062 38.695312 67.5625 38.726562 Z M 67.5625 38.726562 " fill-opacity="1" fill-rule="nonzero"/><path fill="#f9d75b" d="M 68.109375 33.53125 C 68.175781 33.546875 68.226562 33.582031 68.261719 33.644531 C 68.296875 33.703125 68.308594 33.765625 68.292969 33.835938 C 68.28125 33.90625 68.242188 33.964844 68.1875 34.003906 C 68.128906 34.042969 68.066406 34.054688 68 34.042969 C 67.933594 34.027344 67.882812 33.992188 67.84375 33.933594 C 67.808594 33.871094 67.796875 33.808594 67.8125 33.738281 C 67.828125 33.667969 67.863281 33.613281 67.921875 33.570312 C 67.980469 33.53125 68.039062 33.519531 68.109375 33.53125 Z M 68.109375 33.53125 " fill-opacity="1" fill-rule="nonzero"/><path fill="#f9d75b" d="M 73.867188 44.335938 C 73.945312 44.351562 74.003906 44.394531 74.046875 44.464844 C 74.089844 44.535156 74.101562 44.609375 74.085938 44.691406 C 74.070312 44.773438 74.027344 44.839844 73.957031 44.886719 C 73.890625 44.933594 73.816406 44.949219 73.742188 44.929688 C 73.664062 44.914062 73.601562 44.871094 73.558594 44.800781 C 73.515625 44.734375 73.503906 44.65625 73.519531 44.574219 C 73.539062 44.492188 73.578125 44.425781 73.648438 44.378906 C 73.714844 44.332031 73.789062 44.320312 73.867188 44.335938 Z M 73.867188 44.335938 " fill-opacity="1" fill-rule="nonzero"/><path fill="#f9d75b" d="M 79.699219 40.417969 C 79.785156 40.4375 79.847656 40.480469 79.894531 40.554688 C 79.941406 40.632812 79.953125 40.710938 79.933594 40.800781 C 79.917969 40.886719 79.871094 40.957031 79.800781 41.007812 C 79.726562 41.058594 79.648438 41.074219 79.566406 41.054688 C 79.484375 41.039062 79.417969 40.992188 79.371094 40.917969 C 79.328125 40.84375 79.3125 40.761719 79.332031 40.675781 C 79.351562 40.585938 79.394531 40.515625 79.46875 40.46875 C 79.539062 40.417969 79.617188 40.402344 79.699219 40.417969 Z M 79.699219 40.417969 " fill-opacity="1" fill-rule="nonzero"/><path fill="#f9d75b" d="M 75.65625 33.875 C 75.808594 33.90625 75.867188 34 75.832031 34.160156 C 75.800781 34.320312 75.707031 34.382812 75.558594 34.351562 C 75.40625 34.320312 75.347656 34.226562 75.378906 34.066406 C 75.414062 33.90625 75.507812 33.84375 75.65625 33.875 Z M 75.65625 33.875 " fill-opacity="1" fill-rule="nonzero"/><path fill="#f9d75b" d="M 80.40625 29.570312 C 80.476562 29.582031 80.53125 29.621094 80.570312 29.683594 C 80.609375 29.75 80.621094 29.816406 80.605469 29.890625 C 80.589844 29.964844 80.550781 30.023438 80.492188 30.066406 C 80.429688 30.109375 80.363281 30.121094 80.292969 30.105469 C 80.222656 30.09375 80.167969 30.054688 80.128906 29.988281 C 80.089844 29.925781 80.078125 29.859375 80.09375 29.785156 C 80.109375 29.710938 80.148438 29.652344 80.210938 29.609375 C 80.269531 29.566406 80.335938 29.554688 80.40625 29.570312 Z M 80.40625 29.570312 " fill-opacity="1" fill-rule="nonzero"/><path fill="#f9d75b" d="M 83.695312 31.464844 C 83.828125 31.492188 83.878906 31.574219 83.851562 31.714844 C 83.820312 31.855469 83.738281 31.914062 83.605469 31.886719 C 83.472656 31.859375 83.421875 31.773438 83.453125 31.632812 C 83.480469 31.492188 83.5625 31.4375 83.695312 31.464844 Z M 83.695312 31.464844 " fill-opacity="1" fill-rule="nonzero"/><path fill="#f9d75b" d="M 79.578125 18.171875 C 79.683594 18.191406 79.726562 18.261719 79.703125 18.375 C 79.679688 18.492188 79.613281 18.535156 79.503906 18.515625 C 79.394531 18.492188 79.355469 18.421875 79.378906 18.308594 C 79.402344 18.195312 79.46875 18.148438 79.578125 18.171875 Z M 79.578125 18.171875 " fill-opacity="1" fill-rule="nonzero"/><path fill="#f9d75b" d="M 80.664062 16.777344 C 80.734375 16.789062 80.789062 16.828125 80.828125 16.894531 C 80.867188 16.957031 80.878906 17.027344 80.863281 17.101562 C 80.847656 17.175781 80.808594 17.234375 80.75 17.277344 C 80.6875 17.316406 80.621094 17.332031 80.550781 17.316406 C 80.480469 17.300781 80.425781 17.261719 80.386719 17.199219 C 80.347656 17.136719 80.335938 17.066406 80.351562 16.992188 C 80.367188 16.917969 80.402344 16.859375 80.464844 16.816406 C 80.527344 16.773438 80.59375 16.761719 80.664062 16.777344 Z M 80.664062 16.777344 " fill-opacity="1" fill-rule="nonzero"/><path fill="#f9d75b" d="M 82.875 23.359375 C 83.007812 23.386719 83.058594 23.472656 83.03125 23.613281 C 83 23.753906 82.917969 23.808594 82.785156 23.78125 C 82.652344 23.753906 82.601562 23.671875 82.628906 23.527344 C 82.660156 23.386719 82.742188 23.332031 82.875 23.359375 Z M 82.875 23.359375 " fill-opacity="1" fill-rule="nonzero"/><path fill="#fef5a6" d="M 64.964844 16.140625 C 65.292969 15.953125 65.628906 15.777344 65.964844 15.617188 C 68.789062 14.441406 71.878906 14.113281 74.839844 14.703125 C 75.207031 14.816406 75.570312 14.953125 75.914062 15.105469 C 77.652344 15.882812 79.085938 17.164062 79.980469 18.917969 C 82.492188 23.820312 79.832031 30.523438 74.046875 33.890625 C 69.085938 36.777344 63.4375 36.277344 60.34375 32.988281 C 60.085938 32.714844 59.84375 32.421875 59.621094 32.109375 C 57.761719 30.007812 57.679688 27.140625 58.414062 24.476562 C 58.515625 24.09375 58.632812 23.714844 58.773438 23.339844 C 59.734375 20.714844 61.671875 18.246094 64.355469 16.511719 C 64.554688 16.382812 64.753906 16.257812 64.964844 16.140625 Z M 64.964844 16.140625 " fill-opacity="0.498" fill-rule="nonzero"/><path fill="#fef5a6" d="M 64.878906 15.976562 C 65.15625 15.816406 65.4375 15.675781 65.722656 15.542969 C 68.304688 14.402344 71.613281 14.351562 73.964844 15.824219 C 74.226562 16.007812 74.472656 16.214844 74.703125 16.4375 C 75.164062 16.882812 75.554688 17.40625 75.863281 18.003906 C 77.695312 21.589844 75.753906 26.492188 71.519531 28.957031 C 67.640625 31.214844 63.183594 30.636719 61.054688 27.765625 C 60.863281 27.503906 60.6875 27.222656 60.535156 26.921875 C 60.367188 26.59375 60.230469 26.253906 60.125 25.90625 C 59.171875 22.773438 60.699219 18.980469 63.867188 16.632812 C 64.1875 16.398438 64.523438 16.175781 64.878906 15.976562 Z M 64.878906 15.976562 " fill-opacity="1" fill-rule="nonzero"/><path fill="#fff3d9" d="M 64.726562 18.011719 C 65.054688 18.078125 65.359375 18.210938 65.632812 18.40625 C 65.90625 18.601562 66.136719 18.847656 66.316406 19.140625 C 66.496094 19.433594 66.617188 19.753906 66.671875 20.101562 C 66.730469 20.445312 66.722656 20.792969 66.652344 21.140625 C 66.578125 21.484375 66.445312 21.804688 66.253906 22.101562 C 66.058594 22.394531 65.824219 22.636719 65.539062 22.835938 C 65.253906 23.03125 64.949219 23.164062 64.617188 23.234375 C 64.285156 23.300781 63.957031 23.300781 63.628906 23.234375 C 63.300781 23.164062 63 23.03125 62.726562 22.835938 C 62.449219 22.640625 62.222656 22.394531 62.042969 22.101562 C 61.859375 21.808594 61.742188 21.488281 61.683594 21.144531 C 61.625 20.796875 61.632812 20.449219 61.707031 20.105469 C 61.777344 19.757812 61.910156 19.4375 62.105469 19.144531 C 62.296875 18.851562 62.535156 18.605469 62.820312 18.410156 C 63.101562 18.210938 63.410156 18.078125 63.738281 18.011719 C 64.070312 17.941406 64.398438 17.941406 64.726562 18.011719 Z M 64.726562 18.011719 " fill-opacity="1" fill-rule="nonzero"/><path fill="#f9d75b" d="M 63.210938 30.128906 C 63.210938 30.128906 73.902344 36.96875 74.789062 41.109375 C 74.789062 41.109375 75.261719 36.050781 82.058594 30.671875 C 82.058594 30.671875 77.855469 30.816406 74.789062 33.429688 C 74.789062 33.429688 71.425781 30.863281 63.210938 30.128906 Z M 63.210938 30.128906 " fill-opacity="1" fill-rule="nonzero"/><path fill="#ebc892" d="M 79.71875 97.109375 C 78.199219 100.800781 75.714844 100.800781 74.195312 97.109375 L 58.371094 58.652344 C 56.851562 54.960938 59.894531 51.941406 65.132812 51.941406 L 88.78125 51.941406 C 94.019531 51.941406 97.0625 54.960938 95.542969 58.652344 Z M 79.71875 97.109375 " fill-opacity="1" fill-rule="nonzero"/><path fill="#f7deb2" d="M 79.730469 93.488281 C 78.210938 96.882812 75.730469 96.882812 74.210938 93.488281 L 58.398438 58.113281 C 56.878906 54.71875 59.921875 51.941406 65.15625 51.941406 L 88.785156 51.941406 C 94.019531 51.941406 97.0625 54.71875 95.546875 58.113281 Z M 79.730469 93.488281 " fill-opacity="1" fill-rule="nonzero"/><path fill="#ebc892" d="M 95.59375 58.519531 L 95.113281 57.691406 C 94.835938 57.210938 95.003906 56.589844 95.484375 56.3125 L 95.640625 56.222656 C 95.453125 55.757812 95.171875 55.328125 94.804688 54.945312 L 94.71875 54.992188 C 94.238281 55.269531 93.617188 55.105469 93.339844 54.625 L 92.726562 53.5625 C 91.984375 53.257812 91.136719 53.042969 90.195312 52.933594 C 90.472656 52.988281 90.726562 53.15625 90.878906 53.417969 L 92.015625 55.386719 C 92.292969 55.867188 92.128906 56.488281 91.648438 56.761719 L 89.671875 57.902344 C 89.191406 58.175781 88.570312 58.011719 88.292969 57.53125 L 87.152344 55.5625 C 86.875 55.082031 87.042969 54.460938 87.523438 54.1875 L 89.5 53.046875 C 89.652344 52.957031 89.824219 52.917969 89.992188 52.914062 C 89.601562 52.878906 89.199219 52.855469 88.78125 52.855469 L 86.777344 52.855469 L 86.757812 52.867188 C 86.429688 53.054688 86.039062 53.035156 85.734375 52.855469 L 83.824219 52.855469 L 84.058594 53.257812 C 84.335938 53.738281 84.167969 54.359375 83.6875 54.632812 L 81.710938 55.773438 C 81.230469 56.046875 80.609375 55.882812 80.332031 55.402344 L 79.195312 53.433594 C 79.089844 53.25 79.046875 53.050781 79.0625 52.855469 L 75.121094 52.855469 L 73.753906 53.644531 C 73.273438 53.921875 72.652344 53.753906 72.375 53.273438 L 72.132812 52.855469 L 70.367188 52.855469 L 71.050781 54.035156 C 71.328125 54.515625 71.160156 55.136719 70.679688 55.414062 L 68.707031 56.550781 C 68.226562 56.828125 67.605469 56.660156 67.328125 56.179688 L 66.1875 54.210938 C 65.914062 53.742188 66.070312 53.136719 66.527344 52.855469 L 65.132812 52.855469 C 64.375 52.855469 63.664062 52.917969 63.003906 53.039062 C 62.929688 53.136719 62.832031 53.21875 62.722656 53.285156 L 60.746094 54.421875 C 60.410156 54.613281 60.011719 54.59375 59.703125 54.402344 C 58.726562 55.152344 58.128906 56.140625 58.007812 57.261719 C 58.023438 57.414062 58.046875 57.5625 58.082031 57.714844 L 58.4375 57.511719 C 58.917969 57.234375 59.539062 57.398438 59.816406 57.878906 L 60.957031 59.851562 C 61.234375 60.328125 61.070312 60.949219 60.589844 61.226562 L 59.652344 61.765625 L 60.238281 63.1875 L 61.351562 62.546875 C 61.832031 62.269531 62.453125 62.433594 62.730469 62.914062 L 63.871094 64.886719 C 64.148438 65.363281 63.980469 65.984375 63.5 66.261719 L 61.882812 67.191406 L 62.46875 68.613281 L 64.265625 67.582031 C 64.746094 67.304688 65.367188 67.46875 65.644531 67.949219 L 66.78125 69.921875 C 67.058594 70.398438 66.894531 71.019531 66.414062 71.296875 L 64.4375 72.433594 C 64.328125 72.496094 64.210938 72.535156 64.089844 72.554688 L 64.78125 74.230469 C 64.863281 74.035156 65.003906 73.867188 65.203125 73.753906 L 67.175781 72.617188 C 67.65625 72.339844 68.277344 72.503906 68.554688 72.984375 L 69.695312 74.953125 C 69.972656 75.433594 69.804688 76.054688 69.324219 76.332031 L 67.351562 77.46875 C 66.871094 77.746094 66.25 77.578125 65.972656 77.097656 L 65.933594 77.03125 L 70.273438 87.585938 L 70.476562 87.933594 C 70.558594 88.078125 70.601562 88.234375 70.605469 88.390625 L 71.476562 90.503906 C 71.789062 90.535156 72.082031 90.707031 72.25 90.996094 L 73.386719 92.96875 C 73.660156 93.4375 73.507812 94.039062 73.046875 94.324219 L 73.632812 95.75 L 73.785156 95.664062 C 74.265625 95.386719 74.886719 95.554688 75.164062 96.03125 L 76.300781 98.003906 C 76.578125 98.484375 76.414062 99.101562 75.933594 99.378906 L 75.800781 99.453125 C 77.117188 100.433594 78.609375 99.691406 79.660156 97.230469 L 79.003906 97.609375 C 78.523438 97.886719 77.902344 97.722656 77.625 97.242188 L 76.484375 95.269531 C 76.210938 94.789062 76.375 94.171875 76.855469 93.894531 L 78.832031 92.757812 C 79.3125 92.480469 79.933594 92.644531 80.210938 93.125 L 80.878906 94.28125 L 81.609375 92.5 L 81.53125 92.363281 C 81.253906 91.882812 81.421875 91.265625 81.902344 90.988281 L 82.335938 90.738281 L 83.304688 88.386719 C 83.246094 88.441406 83.183594 88.488281 83.113281 88.53125 L 81.140625 89.671875 C 80.660156 89.945312 80.039062 89.78125 79.761719 89.300781 L 78.621094 87.332031 C 78.34375 86.851562 78.511719 86.230469 78.992188 85.957031 L 80.96875 84.816406 C 81.449219 84.542969 82.070312 84.707031 82.347656 85.1875 L 83.484375 87.15625 C 83.570312 87.304688 83.617188 87.46875 83.621094 87.628906 L 84.410156 85.707031 L 83.667969 84.421875 C 83.390625 83.945312 83.558594 83.324219 84.039062 83.046875 L 85.960938 81.941406 L 87.257812 78.785156 C 87.132812 78.703125 87.023438 78.589844 86.941406 78.453125 L 85.800781 76.480469 C 85.523438 76.003906 85.691406 75.382812 86.171875 75.105469 L 88.144531 73.96875 C 88.492188 73.769531 88.910156 73.800781 89.222656 74.011719 L 90.53125 70.835938 L 90.453125 70.878906 C 89.972656 71.15625 89.351562 70.992188 89.074219 70.511719 L 87.933594 68.539062 C 87.65625 68.0625 87.824219 67.441406 88.304688 67.164062 L 90.28125 66.027344 C 90.761719 65.75 91.382812 65.917969 91.660156 66.394531 L 92.066406 67.101562 L 92.851562 65.199219 C 92.832031 64.890625 92.953125 64.582031 93.191406 64.371094 L 94.152344 62.035156 L 92.585938 62.9375 C 92.105469 63.214844 91.484375 63.046875 91.210938 62.570312 L 90.070312 60.597656 C 89.792969 60.117188 89.957031 59.5 90.4375 59.222656 L 92.414062 58.085938 C 92.894531 57.808594 93.515625 57.972656 93.792969 58.453125 L 94.863281 60.308594 L 95.546875 58.652344 C 95.5625 58.605469 95.578125 58.5625 95.59375 58.519531 Z M 82.476562 57.09375 L 84.453125 55.957031 C 84.933594 55.679688 85.554688 55.84375 85.832031 56.324219 L 86.96875 58.292969 C 87.246094 58.773438 87.082031 59.394531 86.601562 59.671875 L 84.625 60.808594 C 84.144531 61.085938 83.523438 60.917969 83.246094 60.441406 L 82.105469 58.46875 C 81.828125 57.988281 81.996094 57.371094 82.476562 57.09375 Z M 75.296875 67.941406 L 77.273438 66.804688 C 77.753906 66.527344 78.375 66.695312 78.652344 67.171875 L 79.789062 69.144531 C 80.066406 69.625 79.902344 70.242188 79.421875 70.519531 L 77.445312 71.65625 C 76.964844 71.933594 76.34375 71.769531 76.066406 71.289062 L 74.929688 69.316406 C 74.652344 68.839844 74.816406 68.21875 75.296875 67.941406 Z M 74.535156 66.621094 C 74.054688 66.898438 73.433594 66.734375 73.15625 66.253906 L 72.015625 64.28125 C 71.738281 63.804688 71.902344 63.183594 72.382812 62.90625 L 74.359375 61.769531 C 74.839844 61.492188 75.460938 61.660156 75.738281 62.136719 L 76.878906 64.109375 C 77.15625 64.589844 76.988281 65.207031 76.507812 65.484375 Z M 75.140625 74.746094 C 75.621094 74.46875 76.242188 74.636719 76.519531 75.117188 L 77.65625 77.085938 C 77.933594 77.566406 77.769531 78.1875 77.289062 78.460938 L 75.3125 79.601562 C 74.832031 79.875 74.210938 79.710938 73.933594 79.230469 L 72.792969 77.261719 C 72.519531 76.78125 72.683594 76.160156 73.164062 75.882812 Z M 78.210938 72.976562 L 80.1875 71.839844 C 80.667969 71.5625 81.289062 71.730469 81.566406 72.207031 L 82.707031 74.179688 C 82.984375 74.660156 82.816406 75.277344 82.335938 75.554688 L 80.359375 76.691406 C 79.878906 76.96875 79.257812 76.804688 78.980469 76.324219 L 77.84375 74.351562 C 77.5625 73.875 77.730469 73.253906 78.210938 72.976562 Z M 82.492188 68.75 C 82.011719 69.027344 81.390625 68.859375 81.113281 68.382812 L 79.976562 66.410156 C 79.699219 65.929688 79.863281 65.3125 80.34375 65.035156 L 82.320312 63.898438 C 82.800781 63.621094 83.421875 63.785156 83.699219 64.265625 L 84.839844 66.238281 C 85.117188 66.714844 84.949219 67.335938 84.46875 67.613281 Z M 79.40625 58.863281 C 79.886719 58.585938 80.507812 58.75 80.785156 59.230469 L 81.925781 61.199219 C 82.203125 61.679688 82.035156 62.300781 81.554688 62.578125 L 79.578125 63.714844 C 79.097656 63.992188 78.476562 63.824219 78.199219 63.34375 L 77.0625 61.375 C 76.785156 60.894531 76.949219 60.277344 77.429688 60 Z M 74.515625 54.964844 L 76.492188 53.828125 C 76.972656 53.550781 77.59375 53.714844 77.871094 54.195312 L 79.011719 56.167969 C 79.289062 56.644531 79.121094 57.265625 78.640625 57.542969 L 76.664062 58.679688 C 76.183594 58.957031 75.5625 58.789062 75.285156 58.3125 L 74.148438 56.339844 C 73.871094 55.859375 74.035156 55.242188 74.515625 54.964844 Z M 69.46875 57.871094 L 71.445312 56.734375 C 71.925781 56.457031 72.546875 56.625 72.824219 57.101562 L 73.964844 59.074219 C 74.242188 59.554688 74.074219 60.171875 73.59375 60.449219 L 71.621094 61.585938 C 71.140625 61.863281 70.519531 61.699219 70.242188 61.21875 L 69.101562 59.246094 C 68.824219 58.769531 68.988281 58.148438 69.46875 57.871094 Z M 63.660156 59.457031 C 63.179688 59.734375 62.558594 59.570312 62.28125 59.089844 L 61.140625 57.121094 C 60.863281 56.640625 61.03125 56.019531 61.511719 55.742188 L 63.484375 54.605469 C 63.964844 54.328125 64.585938 54.496094 64.863281 54.976562 L 66.003906 56.945312 C 66.28125 57.425781 66.113281 58.042969 65.632812 58.320312 Z M 66.574219 64.492188 C 66.09375 64.769531 65.472656 64.605469 65.195312 64.125 L 64.054688 62.15625 C 63.777344 61.675781 63.945312 61.054688 64.425781 60.777344 L 66.398438 59.640625 C 66.878906 59.363281 67.5 59.53125 67.777344 60.011719 L 68.917969 61.980469 C 69.195312 62.460938 69.03125 63.078125 68.550781 63.355469 Z M 69.488281 69.527344 C 69.007812 69.804688 68.386719 69.640625 68.109375 69.160156 L 66.96875 67.191406 C 66.691406 66.710938 66.855469 66.089844 67.339844 65.8125 L 69.3125 64.675781 C 69.792969 64.398438 70.414062 64.566406 70.691406 65.046875 L 71.832031 67.015625 C 72.109375 67.496094 71.941406 68.113281 71.460938 68.390625 Z M 70.25 70.847656 L 72.226562 69.710938 C 72.707031 69.433594 73.328125 69.601562 73.605469 70.082031 L 74.746094 72.050781 C 75.023438 72.53125 74.855469 73.152344 74.375 73.425781 L 72.398438 74.5625 C 71.917969 74.839844 71.296875 74.675781 71.019531 74.195312 L 69.882812 72.226562 C 69.605469 71.746094 69.769531 71.125 70.25 70.847656 Z M 70.269531 82.507812 C 69.789062 82.785156 69.167969 82.617188 68.890625 82.136719 L 67.75 80.167969 C 67.472656 79.6875 67.636719 79.066406 68.117188 78.792969 L 70.09375 77.65625 C 70.574219 77.378906 71.195312 77.542969 71.472656 78.023438 L 72.613281 79.992188 C 72.890625 80.472656 72.722656 81.09375 72.242188 81.371094 Z M 73.179688 87.542969 C 72.699219 87.820312 72.078125 87.652344 71.800781 87.171875 L 70.664062 85.203125 C 70.386719 84.722656 70.550781 84.105469 71.03125 83.828125 L 73.007812 82.691406 C 73.488281 82.414062 74.109375 82.578125 74.386719 83.058594 L 75.527344 85.027344 C 75.804688 85.507812 75.636719 86.128906 75.15625 86.40625 Z M 78.070312 91.441406 L 76.09375 92.578125 C 75.613281 92.855469 74.992188 92.6875 74.714844 92.207031 L 73.578125 90.238281 C 73.300781 89.757812 73.464844 89.140625 73.945312 88.863281 L 75.921875 87.726562 C 76.402344 87.449219 77.023438 87.613281 77.300781 88.09375 L 78.441406 90.0625 C 78.714844 90.542969 78.550781 91.164062 78.070312 91.441406 Z M 80.203125 83.496094 L 78.226562 84.636719 C 77.746094 84.910156 77.125 84.746094 76.847656 84.265625 L 75.710938 82.296875 C 75.433594 81.816406 75.597656 81.195312 76.078125 80.917969 L 78.054688 79.78125 C 78.535156 79.507812 79.15625 79.671875 79.433594 80.152344 L 80.574219 82.121094 C 80.851562 82.601562 80.683594 83.222656 80.203125 83.496094 Z M 85.25 80.589844 L 83.273438 81.726562 C 82.792969 82.003906 82.171875 81.839844 81.894531 81.359375 L 80.753906 79.386719 C 80.480469 78.910156 80.644531 78.289062 81.125 78.011719 L 83.101562 76.875 C 83.582031 76.597656 84.203125 76.765625 84.480469 77.242188 L 85.617188 79.214844 C 85.894531 79.695312 85.730469 80.3125 85.25 80.589844 Z M 87.382812 72.648438 L 85.40625 73.785156 C 84.925781 74.0625 84.304688 73.898438 84.027344 73.417969 L 82.890625 71.445312 C 82.613281 70.964844 82.777344 70.347656 83.257812 70.070312 L 85.234375 68.933594 C 85.714844 68.65625 86.335938 68.820312 86.613281 69.300781 L 87.753906 71.273438 C 88.027344 71.753906 87.863281 72.371094 87.382812 72.648438 Z M 89.515625 64.707031 L 87.539062 65.84375 C 87.058594 66.121094 86.4375 65.953125 86.160156 65.476562 L 85.023438 63.503906 C 84.746094 63.023438 84.910156 62.40625 85.390625 62.128906 L 87.367188 60.992188 C 87.847656 60.714844 88.46875 60.878906 88.746094 61.359375 L 89.886719 63.332031 C 90.164062 63.808594 89.996094 64.429688 89.515625 64.707031 Z M 89.515625 64.707031 " fill-opacity="1" fill-rule="nonzero"/><path fill="#fffcd8" d="M 77.613281 99.742188 C 78.386719 99.425781 79.125 98.550781 79.71875 97.109375 L 80.160156 96.035156 L 79.007812 96.699219 C 78.527344 96.976562 77.90625 96.808594 77.628906 96.328125 L 76.488281 94.359375 C 76.210938 93.878906 76.378906 93.257812 76.859375 92.984375 L 78.835938 91.84375 C 79.316406 91.570312 79.9375 91.734375 80.214844 92.214844 L 81.101562 93.75 L 81.835938 91.96875 L 81.535156 91.453125 C 81.257812 90.972656 81.425781 90.351562 81.90625 90.074219 L 82.832031 89.542969 L 84.628906 85.171875 L 83.667969 83.507812 C 83.390625 83.03125 83.558594 82.410156 84.039062 82.132812 L 86.011719 80.996094 C 86.136719 80.925781 86.269531 80.882812 86.402344 80.867188 L 87.578125 78.011719 C 87.320312 77.949219 87.085938 77.785156 86.941406 77.539062 L 85.800781 75.566406 C 85.523438 75.085938 85.691406 74.46875 86.171875 74.191406 L 88.148438 73.054688 C 88.609375 72.789062 89.199219 72.929688 89.488281 73.367188 L 91.023438 69.636719 L 90.453125 69.964844 C 89.972656 70.242188 89.351562 70.074219 89.074219 69.597656 L 87.9375 67.625 C 87.660156 67.144531 87.824219 66.527344 88.304688 66.25 L 90.28125 65.113281 C 90.761719 64.835938 91.382812 65 91.660156 65.480469 L 92.289062 66.566406 L 93.023438 64.785156 L 92.984375 64.71875 C 92.707031 64.238281 92.871094 63.621094 93.351562 63.34375 L 93.695312 63.144531 L 94.648438 60.828125 C 94.621094 60.847656 94.59375 60.867188 94.5625 60.886719 L 92.585938 62.023438 C 92.105469 62.300781 91.484375 62.132812 91.210938 61.652344 L 90.070312 59.683594 C 89.792969 59.203125 89.957031 58.585938 90.4375 58.308594 L 92.414062 57.171875 C 92.894531 56.894531 93.515625 57.058594 93.792969 57.539062 L 94.933594 59.507812 C 94.996094 59.617188 95.035156 59.734375 95.054688 59.851562 L 95.546875 58.652344 C 95.644531 58.410156 95.722656 58.171875 95.785156 57.933594 L 95.113281 56.777344 C 94.835938 56.296875 95.003906 55.679688 95.484375 55.402344 L 95.644531 55.308594 C 95.453125 54.847656 95.171875 54.417969 94.808594 54.03125 L 94.722656 54.082031 C 94.238281 54.359375 93.621094 54.191406 93.34375 53.710938 L 92.726562 52.648438 C 91.988281 52.34375 91.140625 52.128906 90.195312 52.019531 C 90.472656 52.074219 90.726562 52.242188 90.878906 52.503906 L 92.019531 54.476562 C 92.296875 54.953125 92.128906 55.574219 91.648438 55.851562 L 89.671875 56.988281 C 89.191406 57.265625 88.570312 57.097656 88.292969 56.621094 L 87.15625 54.648438 C 86.878906 54.167969 87.042969 53.550781 87.523438 53.273438 L 89.5 52.136719 C 89.65625 52.046875 89.824219 52.003906 89.996094 52.003906 C 89.605469 51.964844 89.199219 51.941406 88.78125 51.941406 L 86.777344 51.941406 L 86.761719 51.953125 C 86.433594 52.140625 86.039062 52.125 85.734375 51.941406 L 83.824219 51.941406 L 84.058594 52.347656 C 84.335938 52.824219 84.167969 53.445312 83.6875 53.722656 L 81.714844 54.859375 C 81.234375 55.136719 80.613281 54.96875 80.335938 54.492188 L 79.195312 52.519531 C 79.089844 52.339844 79.046875 52.136719 79.0625 51.941406 L 75.121094 51.941406 L 73.753906 52.730469 C 73.273438 53.007812 72.652344 52.84375 72.375 52.363281 L 72.132812 51.941406 L 70.367188 51.941406 L 71.050781 53.125 C 71.328125 53.605469 71.164062 54.222656 70.683594 54.5 L 68.707031 55.636719 C 68.226562 55.914062 67.605469 55.75 67.328125 55.269531 L 66.1875 53.296875 C 65.917969 52.828125 66.070312 52.226562 66.527344 51.941406 L 65.136719 51.941406 C 64.375 51.941406 63.664062 52.007812 63.003906 52.125 C 62.929688 52.222656 62.835938 52.304688 62.722656 52.371094 L 60.746094 53.507812 C 60.414062 53.699219 60.011719 53.679688 59.707031 53.488281 C 58.582031 54.351562 57.960938 55.523438 57.984375 56.859375 L 58.441406 56.597656 C 58.921875 56.324219 59.542969 56.488281 59.816406 56.96875 L 60.957031 58.9375 C 61.234375 59.417969 61.070312 60.039062 60.589844 60.3125 L 59.347656 61.027344 L 59.933594 62.453125 L 61.351562 61.632812 C 61.832031 61.359375 62.453125 61.523438 62.730469 62.003906 L 63.871094 63.972656 C 64.148438 64.453125 63.980469 65.074219 63.5 65.347656 L 61.582031 66.457031 L 62.171875 67.890625 C 62.207031 67.859375 62.246094 67.832031 62.289062 67.808594 L 64.265625 66.671875 C 64.746094 66.394531 65.367188 66.558594 65.644531 67.039062 L 66.785156 69.007812 C 67.0625 69.488281 66.894531 70.109375 66.414062 70.386719 L 64.441406 71.523438 C 64.210938 71.65625 63.949219 71.683594 63.710938 71.628906 L 69.128906 84.800781 C 69.210938 84.871094 69.28125 84.953125 69.339844 85.050781 L 70.480469 87.023438 C 70.667969 87.351562 70.648438 87.742188 70.464844 88.046875 L 71.113281 89.621094 C 71.542969 89.503906 72.019531 89.6875 72.253906 90.085938 L 73.390625 92.058594 C 73.667969 92.539062 73.503906 93.15625 73.023438 93.433594 L 72.746094 93.59375 L 73.332031 95.015625 L 73.785156 94.753906 C 74.265625 94.476562 74.886719 94.644531 75.164062 95.121094 L 76.304688 97.09375 C 76.582031 97.574219 76.417969 98.191406 75.933594 98.46875 L 75.210938 98.886719 C 75.652344 99.417969 76.128906 99.738281 76.609375 99.839844 L 76.699219 99.789062 C 76.988281 99.621094 77.328125 99.617188 77.613281 99.742188 Z M 83.117188 87.617188 L 81.140625 88.753906 C 80.660156 89.03125 80.039062 88.867188 79.761719 88.386719 L 78.621094 86.417969 C 78.34375 85.9375 78.511719 85.316406 78.992188 85.039062 L 80.96875 83.902344 C 81.449219 83.625 82.070312 83.792969 82.347656 84.273438 L 83.484375 86.242188 C 83.761719 86.722656 83.597656 87.339844 83.117188 87.617188 Z M 82.492188 67.835938 C 82.011719 68.113281 81.390625 67.945312 81.113281 67.464844 L 79.976562 65.496094 C 79.699219 65.015625 79.863281 64.398438 80.34375 64.121094 L 82.320312 62.984375 C 82.800781 62.707031 83.421875 62.871094 83.699219 63.351562 L 84.839844 65.320312 C 85.117188 65.800781 84.949219 66.421875 84.46875 66.699219 Z M 82.707031 73.265625 C 82.984375 73.742188 82.816406 74.363281 82.335938 74.640625 L 80.359375 75.777344 C 79.878906 76.054688 79.257812 75.886719 78.980469 75.410156 L 77.839844 73.4375 C 77.5625 72.960938 77.730469 72.339844 78.210938 72.0625 L 80.1875 70.925781 C 80.667969 70.648438 81.289062 70.816406 81.566406 71.292969 Z M 79.421875 69.605469 L 77.445312 70.742188 C 76.964844 71.019531 76.34375 70.851562 76.066406 70.375 L 74.929688 68.402344 C 74.652344 67.921875 74.816406 67.304688 75.296875 67.027344 L 77.273438 65.890625 C 77.753906 65.613281 78.375 65.777344 78.652344 66.257812 L 79.789062 68.230469 C 80.070312 68.707031 79.902344 69.328125 79.421875 69.605469 Z M 76.507812 64.570312 L 74.53125 65.707031 C 74.050781 65.984375 73.429688 65.816406 73.152344 65.339844 L 72.015625 63.367188 C 71.738281 62.886719 71.902344 62.269531 72.382812 61.992188 L 74.359375 60.855469 C 74.839844 60.578125 75.460938 60.742188 75.738281 61.222656 L 76.878906 63.195312 C 77.15625 63.671875 76.988281 64.292969 76.507812 64.570312 Z M 72.226562 68.796875 C 72.707031 68.519531 73.328125 68.6875 73.605469 69.164062 L 74.746094 71.136719 C 75.023438 71.617188 74.855469 72.234375 74.375 72.511719 L 72.398438 73.648438 C 71.917969 73.925781 71.296875 73.761719 71.019531 73.28125 L 69.882812 71.308594 C 69.605469 70.832031 69.769531 70.210938 70.25 69.933594 Z M 73.164062 74.96875 L 75.140625 73.832031 C 75.621094 73.554688 76.242188 73.722656 76.519531 74.203125 L 77.65625 76.171875 C 77.933594 76.652344 77.769531 77.269531 77.289062 77.546875 L 75.3125 78.683594 C 74.832031 78.960938 74.210938 78.796875 73.933594 78.316406 L 72.792969 76.347656 C 72.519531 75.867188 72.683594 75.246094 73.164062 74.96875 Z M 76.078125 80.003906 L 78.054688 78.867188 C 78.535156 78.589844 79.15625 78.757812 79.433594 79.238281 L 80.574219 81.207031 C 80.851562 81.6875 80.683594 82.304688 80.203125 82.582031 L 78.226562 83.71875 C 77.746094 83.996094 77.125 83.832031 76.847656 83.351562 L 75.710938 81.382812 C 75.429688 80.902344 75.597656 80.28125 76.078125 80.003906 Z M 85.25 79.675781 L 83.273438 80.8125 C 82.792969 81.089844 82.171875 80.921875 81.894531 80.445312 L 80.753906 78.472656 C 80.480469 77.992188 80.644531 77.375 81.125 77.097656 L 83.101562 75.960938 C 83.582031 75.683594 84.203125 75.847656 84.480469 76.328125 L 85.617188 78.300781 C 85.894531 78.777344 85.730469 79.398438 85.25 79.675781 Z M 87.382812 71.734375 L 85.40625 72.871094 C 84.925781 73.148438 84.304688 72.980469 84.027344 72.5 L 82.890625 70.53125 C 82.613281 70.050781 82.777344 69.433594 83.257812 69.15625 L 85.234375 68.019531 C 85.714844 67.742188 86.335938 67.90625 86.613281 68.386719 L 87.753906 70.355469 C 88.027344 70.835938 87.863281 71.457031 87.382812 71.734375 Z M 87.367188 60.074219 C 87.847656 59.800781 88.46875 59.964844 88.746094 60.445312 L 89.882812 62.414062 C 90.160156 62.894531 89.996094 63.515625 89.515625 63.789062 L 87.539062 64.929688 C 87.058594 65.203125 86.4375 65.039062 86.160156 64.558594 L 85.019531 62.589844 C 84.742188 62.109375 84.910156 61.488281 85.390625 61.210938 Z M 82.476562 56.175781 L 84.453125 55.039062 C 84.933594 54.765625 85.554688 54.929688 85.832031 55.410156 L 86.96875 57.378906 C 87.246094 57.859375 87.082031 58.480469 86.601562 58.753906 L 84.625 59.894531 C 84.144531 60.167969 83.523438 60.003906 83.246094 59.523438 L 82.105469 57.554688 C 81.828125 57.074219 81.996094 56.457031 82.476562 56.175781 Z M 79.40625 57.949219 C 79.886719 57.671875 80.507812 57.835938 80.785156 58.316406 L 81.925781 60.285156 C 82.203125 60.765625 82.035156 61.386719 81.554688 61.664062 L 79.578125 62.800781 C 79.097656 63.078125 78.476562 62.910156 78.199219 62.429688 L 77.0625 60.460938 C 76.785156 59.980469 76.949219 59.359375 77.429688 59.085938 Z M 74.515625 54.050781 L 76.492188 52.910156 C 76.972656 52.636719 77.59375 52.800781 77.871094 53.28125 L 79.011719 55.25 C 79.289062 55.730469 79.121094 56.351562 78.640625 56.628906 L 76.664062 57.765625 C 76.183594 58.042969 75.5625 57.875 75.285156 57.394531 L 74.148438 55.425781 C 73.871094 54.945312 74.035156 54.328125 74.515625 54.050781 Z M 69.46875 56.957031 L 71.445312 55.820312 C 71.925781 55.542969 72.546875 55.707031 72.824219 56.1875 L 73.964844 58.160156 C 74.242188 58.636719 74.074219 59.257812 73.59375 59.535156 L 71.621094 60.671875 C 71.140625 60.949219 70.519531 60.78125 70.242188 60.304688 L 69.101562 58.332031 C 68.824219 57.851562 68.988281 57.234375 69.46875 56.957031 Z M 63.660156 58.542969 C 63.179688 58.820312 62.558594 58.65625 62.28125 58.175781 L 61.140625 56.203125 C 60.863281 55.722656 61.03125 55.105469 61.511719 54.828125 L 63.484375 53.691406 C 63.964844 53.414062 64.585938 53.578125 64.863281 54.058594 L 66.003906 56.03125 C 66.28125 56.507812 66.113281 57.128906 65.632812 57.40625 Z M 66.574219 63.578125 C 66.09375 63.855469 65.472656 63.691406 65.195312 63.210938 L 64.054688 61.238281 C 63.777344 60.761719 63.945312 60.140625 64.425781 59.863281 L 66.398438 58.726562 C 66.878906 58.449219 67.5 58.617188 67.777344 59.09375 L 68.917969 61.066406 C 69.195312 61.546875 69.03125 62.164062 68.550781 62.441406 Z M 67.335938 64.898438 L 69.3125 63.761719 C 69.792969 63.484375 70.414062 63.652344 70.691406 64.128906 L 71.832031 66.101562 C 72.109375 66.582031 71.941406 67.199219 71.460938 67.476562 L 69.488281 68.613281 C 69.003906 68.890625 68.386719 68.726562 68.109375 68.246094 L 66.96875 66.277344 C 66.691406 65.796875 66.855469 65.175781 67.335938 64.898438 Z M 65.976562 76.1875 L 64.835938 74.21875 C 64.558594 73.738281 64.722656 73.117188 65.203125 72.84375 L 67.179688 71.703125 C 67.660156 71.429688 68.28125 71.59375 68.558594 72.074219 L 69.699219 74.042969 C 69.976562 74.523438 69.808594 75.144531 69.328125 75.417969 L 67.351562 76.558594 C 66.871094 76.832031 66.253906 76.667969 65.976562 76.1875 Z M 70.269531 81.59375 C 69.789062 81.867188 69.167969 81.703125 68.890625 81.222656 L 67.75 79.253906 C 67.472656 78.773438 67.636719 78.152344 68.117188 77.878906 L 70.09375 76.738281 C 70.574219 76.464844 71.195312 76.628906 71.472656 77.109375 L 72.613281 79.078125 C 72.890625 79.558594 72.722656 80.179688 72.242188 80.453125 Z M 73.179688 86.628906 C 72.699219 86.902344 72.078125 86.738281 71.800781 86.257812 L 70.664062 84.289062 C 70.386719 83.808594 70.550781 83.1875 71.03125 82.914062 L 73.007812 81.773438 C 73.488281 81.5 74.109375 81.664062 74.386719 82.144531 L 75.527344 84.113281 C 75.804688 84.59375 75.636719 85.214844 75.15625 85.488281 Z M 76.09375 91.664062 C 75.613281 91.9375 74.992188 91.773438 74.714844 91.292969 L 73.578125 89.324219 C 73.300781 88.84375 73.464844 88.222656 73.945312 87.949219 L 75.921875 86.808594 C 76.402344 86.535156 77.023438 86.699219 77.300781 87.179688 L 78.441406 89.148438 C 78.714844 89.628906 78.550781 90.25 78.070312 90.527344 Z M 76.09375 91.664062 " fill-opacity="1" fill-rule="nonzero"/><path fill="#e5ad59" d="M 58.371094 58.652344 L 74.195312 97.109375 C 75.164062 99.457031 76.519531 100.308594 77.769531 99.671875 C 72.191406 94.636719 69.363281 66.886719 68.226562 51.941406 L 65.132812 51.941406 C 59.894531 51.941406 56.851562 54.960938 58.371094 58.652344 Z M 58.371094 58.652344 " fill-opacity="0.498" fill-rule="nonzero"/><path fill="#e5ad59" d="M 77.234375 52.519531 C 77.273438 52.328125 77.308594 52.136719 77.339844 51.941406 L 65.132812 51.941406 C 62.515625 51.941406 60.445312 52.695312 59.21875 53.910156 C 58.972656 54.152344 58.761719 54.417969 58.585938 54.695312 C 58.132812 55.488281 57.933594 56.300781 57.921875 57.105469 C 57.917969 57.507812 57.957031 57.90625 58.027344 58.304688 C 58.699219 62.445312 62.078125 64.851562 65.339844 67.132812 C 65.648438 67.414062 65.933594 67.703125 66.199219 68.011719 C 66.503906 68.3125 66.796875 68.566406 67.089844 68.734375 C 67.386719 68.90625 67.6875 68.988281 68 68.929688 C 73.65625 67.558594 73.960938 59.019531 76.8125 54.144531 C 76.980469 53.613281 77.121094 53.070312 77.234375 52.519531 Z M 77.234375 52.519531 " fill-opacity="0.498" fill-rule="nonzero"/><path fill="#ffd3de" d="M 55.097656 33.765625 C 55.300781 33.765625 55.492188 33.589844 55.480469 33.382812 C 55.472656 33.175781 55.3125 33.003906 55.097656 33.003906 C 54.898438 33.003906 54.707031 33.179688 54.71875 33.382812 C 54.726562 33.589844 54.886719 33.765625 55.097656 33.765625 Z M 55.097656 33.765625 " fill-opacity="1" fill-rule="nonzero"/><path fill="#ffd3de" d="M 55.296875 33.503906 C 55.496094 33.503906 55.6875 33.328125 55.679688 33.121094 C 55.667969 32.914062 55.511719 32.738281 55.296875 32.738281 C 55.097656 32.738281 54.90625 32.914062 54.914062 33.121094 C 54.921875 33.328125 55.082031 33.503906 55.296875 33.503906 Z M 55.296875 33.503906 " fill-opacity="1" fill-rule="nonzero"/><path fill="#ffd3de" d="M 56.210938 33.566406 C 56.414062 33.566406 56.605469 33.390625 56.59375 33.1875 C 56.585938 32.980469 56.425781 32.804688 56.210938 32.804688 C 56.011719 32.804688 55.820312 32.980469 55.832031 33.1875 C 55.839844 33.394531 56 33.566406 56.210938 33.566406 Z M 56.210938 33.566406 " fill-opacity="1" fill-rule="nonzero"/><path fill="#e5ad59" d="M 88.78125 51.941406 L 73.632812 51.941406 C 75.167969 57.726562 79.75 62.277344 85.558594 63.78125 C 86.007812 63.898438 86.460938 63.996094 86.921875 64.074219 C 91.148438 64.730469 95.011719 62.085938 95.976562 57.871094 C 96.457031 55.945312 95.371094 54.261719 93.863281 53.238281 C 93.550781 53.035156 93.210938 52.851562 92.839844 52.691406 C 91.726562 52.210938 90.351562 51.941406 88.78125 51.941406 Z M 88.78125 51.941406 " fill-opacity="0.498" fill-rule="nonzero"/><g clip-path="url(#0598c83ee4)"><path fill="#2acbd3" d="M 106.433594 45.867188 C 106.433594 46.285156 106.417969 46.699219 106.390625 47.109375 C 106.359375 47.519531 106.3125 47.925781 106.253906 48.328125 C 105.328125 51.667969 103.65625 54.894531 101.550781 57.632812 C 101.277344 57.910156 100.992188 58.171875 100.699219 58.429688 C 97.769531 60.96875 93.945312 62.507812 89.757812 62.507812 C 80.546875 62.507812 73.078125 55.058594 73.078125 45.867188 C 73.078125 42.109375 74.328125 38.640625 76.4375 35.855469 C 76.671875 35.546875 76.914062 35.242188 77.171875 34.953125 C 79.335938 31.355469 83.195312 29.691406 87.292969 29.410156 C 87.695312 29.351562 88.101562 29.304688 88.511719 29.273438 C 88.921875 29.246094 89.339844 29.230469 89.757812 29.230469 C 91.851562 29.230469 93.855469 29.613281 95.699219 30.316406 C 96.070312 30.457031 96.429688 30.613281 96.78125 30.789062 C 97.082031 30.953125 97.375 31.121094 97.664062 31.296875 C 97.953125 31.472656 98.238281 31.65625 98.511719 31.847656 C 101.152344 34.378906 104.074219 36.773438 105.429688 40.160156 C 105.535156 40.457031 105.636719 40.757812 105.730469 41.0625 C 106.1875 42.585938 106.433594 44.199219 106.433594 45.867188 Z M 106.433594 45.867188 " fill-opacity="1" fill-rule="nonzero"/></g><path fill="#6ddbe8" d="M 104.710938 45.835938 C 104.710938 46.246094 104.695312 46.65625 104.664062 47.058594 C 104.628906 47.460938 104.582031 47.863281 104.515625 48.257812 C 103.867188 51.25 102.300781 54.0625 100.332031 56.390625 C 100.058594 56.660156 99.777344 56.921875 99.488281 57.167969 C 96.871094 59.410156 93.46875 60.761719 89.75 60.761719 C 81.488281 60.761719 74.789062 54.078125 74.789062 45.835938 C 74.789062 42.125 76.144531 38.730469 78.390625 36.117188 C 78.640625 35.828125 78.898438 35.546875 79.15625 35.265625 C 81.003906 32.605469 84.136719 31.355469 87.324219 31.101562 C 87.71875 31.035156 88.121094 30.988281 88.523438 30.953125 C 88.929688 30.921875 89.339844 30.90625 89.75 30.90625 C 91.816406 30.90625 93.785156 31.324219 95.578125 32.078125 C 95.933594 32.230469 96.285156 32.394531 96.625 32.578125 C 96.878906 32.726562 97.128906 32.875 97.371094 33.03125 C 99.902344 34.792969 101.886719 37.1875 103.417969 39.753906 C 103.5625 40.066406 103.691406 40.378906 103.808594 40.699219 C 104.390625 42.300781 104.710938 44.03125 104.710938 45.835938 Z M 104.710938 45.835938 " fill-opacity="1" fill-rule="nonzero"/><path fill="#e0f3f1" d="M 102.363281 52.785156 C 102.40625 52.707031 102.300781 52.5 102.195312 52.5 C 101.257812 52.394531 100.734375 53.4375 100.046875 53.820312 C 99.804688 54.035156 99.554688 54.265625 99.292969 54.5 C 98.25 55.449219 97.0625 56.527344 95.894531 57.222656 C 95.582031 57.410156 95.261719 57.578125 94.941406 57.734375 C 92.03125 59.109375 88.589844 59.25 85.464844 58.117188 C 85.164062 58.011719 84.867188 57.890625 84.578125 57.757812 C 84.289062 57.621094 84.003906 57.476562 83.726562 57.316406 C 83.390625 57.125 83.050781 56.910156 82.667969 56.875 C 82.285156 56.84375 81.84375 57.074219 81.796875 57.457031 C 81.746094 57.878906 82.164062 58.199219 82.542969 58.398438 C 83.378906 58.847656 84.253906 59.257812 85.152344 59.574219 C 85.453125 59.679688 85.757812 59.773438 86.066406 59.859375 C 89.355469 60.726562 92.90625 60.414062 95.929688 58.949219 C 96.191406 58.820312 96.453125 58.6875 96.71875 58.550781 C 97.597656 58.039062 98.457031 57.457031 99.253906 56.796875 C 99.515625 56.578125 99.777344 56.351562 100.027344 56.117188 C 101.152344 55.207031 101.675781 53.957031 102.363281 52.78125 " fill-opacity="1" fill-rule="nonzero"/><path fill="#2acbd3" d="M 79.746094 42.011719 C 79.746094 42.261719 79.65625 42.476562 79.480469 42.652344 C 79.300781 42.828125 79.089844 42.917969 78.839844 42.917969 C 78.589844 42.917969 78.375 42.828125 78.199219 42.652344 C 78.023438 42.476562 77.933594 42.261719 77.933594 42.011719 C 77.933594 41.765625 78.023438 41.550781 78.199219 41.375 C 78.375 41.199219 78.589844 41.109375 78.839844 41.109375 C 79.089844 41.109375 79.300781 41.199219 79.480469 41.375 C 79.65625 41.550781 79.746094 41.765625 79.746094 42.011719 Z M 79.746094 42.011719 " fill-opacity="1" fill-rule="nonzero"/><path fill="#2acbd3" d="M 81.691406 50.222656 C 81.691406 50.378906 81.636719 50.511719 81.523438 50.625 C 81.414062 50.734375 81.277344 50.792969 81.121094 50.792969 C 80.964844 50.792969 80.828125 50.734375 80.71875 50.625 C 80.605469 50.511719 80.550781 50.378906 80.550781 50.222656 C 80.550781 50.0625 80.605469 49.929688 80.71875 49.820312 C 80.828125 49.707031 80.964844 49.652344 81.121094 49.652344 C 81.277344 49.652344 81.414062 49.707031 81.523438 49.820312 C 81.636719 49.929688 81.691406 50.0625 81.691406 50.222656 Z M 81.691406 50.222656 " fill-opacity="1" fill-rule="nonzero"/><path fill="#2acbd3" d="M 96.273438 47.503906 C 96.273438 47.710938 96.199219 47.886719 96.054688 48.03125 C 95.90625 48.179688 95.730469 48.25 95.523438 48.25 C 95.316406 48.25 95.140625 48.179688 94.996094 48.03125 C 94.847656 47.886719 94.777344 47.710938 94.777344 47.503906 C 94.777344 47.296875 94.847656 47.121094 94.996094 46.976562 C 95.140625 46.832031 95.316406 46.757812 95.523438 46.757812 C 95.730469 46.757812 95.90625 46.832031 96.054688 46.976562 C 96.199219 47.121094 96.273438 47.296875 96.273438 47.503906 Z M 96.273438 47.503906 " fill-opacity="1" fill-rule="nonzero"/><path fill="#2acbd3" d="M 90.359375 47.058594 C 90.359375 47.21875 90.328125 47.371094 90.269531 47.515625 C 90.207031 47.660156 90.121094 47.789062 90.011719 47.902344 C 89.898438 48.011719 89.769531 48.101562 89.625 48.160156 C 89.476562 48.21875 89.324219 48.25 89.167969 48.25 C 89.007812 48.25 88.855469 48.21875 88.710938 48.160156 C 88.5625 48.101562 88.433594 48.011719 88.324219 47.902344 C 88.210938 47.789062 88.125 47.660156 88.0625 47.515625 C 88.003906 47.371094 87.972656 47.21875 87.972656 47.058594 C 87.972656 46.902344 88.003906 46.75 88.0625 46.605469 C 88.125 46.457031 88.210938 46.328125 88.324219 46.21875 C 88.433594 46.105469 88.5625 46.019531 88.710938 45.960938 C 88.855469 45.898438 89.007812 45.867188 89.167969 45.867188 C 89.324219 45.867188 89.476562 45.898438 89.625 45.960938 C 89.769531 46.019531 89.898438 46.105469 90.011719 46.21875 C 90.121094 46.328125 90.207031 46.457031 90.269531 46.605469 C 90.328125 46.75 90.359375 46.902344 90.359375 47.058594 Z M 90.359375 47.058594 " fill-opacity="1" fill-rule="nonzero"/><path fill="#2acbd3" d="M 90.359375 55.53125 C 90.359375 55.636719 90.320312 55.730469 90.246094 55.804688 C 90.171875 55.882812 90.078125 55.917969 89.96875 55.917969 C 89.863281 55.917969 89.769531 55.882812 89.695312 55.804688 C 89.621094 55.730469 89.582031 55.636719 89.582031 55.53125 C 89.582031 55.421875 89.621094 55.332031 89.695312 55.257812 C 89.769531 55.179688 89.863281 55.140625 89.96875 55.140625 C 90.078125 55.140625 90.171875 55.179688 90.246094 55.257812 C 90.320312 55.332031 90.359375 55.421875 90.359375 55.53125 Z M 90.359375 55.53125 " fill-opacity="1" fill-rule="nonzero"/><path fill="#2acbd3" d="M 97.59375 53.730469 C 97.59375 53.957031 97.515625 54.144531 97.355469 54.304688 C 97.199219 54.464844 97.007812 54.542969 96.78125 54.542969 C 96.558594 54.542969 96.367188 54.464844 96.207031 54.304688 C 96.046875 54.144531 95.96875 53.957031 95.96875 53.730469 C 95.96875 53.507812 96.046875 53.316406 96.207031 53.15625 C 96.367188 53 96.558594 52.917969 96.78125 52.917969 C 97.007812 52.917969 97.199219 53 97.355469 53.15625 C 97.515625 53.316406 97.59375 53.507812 97.59375 53.730469 Z M 97.59375 53.730469 " fill-opacity="1" fill-rule="nonzero"/><path fill="#2acbd3" d="M 103.097656 49.277344 C 103.097656 49.480469 103.027344 49.65625 102.882812 49.800781 C 102.738281 49.941406 102.5625 50.015625 102.359375 50.015625 C 102.15625 50.015625 101.980469 49.941406 101.839844 49.800781 C 101.695312 49.65625 101.621094 49.480469 101.621094 49.277344 C 101.621094 49.074219 101.695312 48.902344 101.839844 48.757812 C 101.980469 48.613281 102.15625 48.542969 102.359375 48.542969 C 102.5625 48.542969 102.738281 48.613281 102.882812 48.757812 C 103.027344 48.902344 103.097656 49.074219 103.097656 49.277344 Z M 103.097656 49.277344 " fill-opacity="1" fill-rule="nonzero"/><path fill="#2acbd3" d="M 86.421875 52.589844 C 86.421875 52.742188 86.394531 52.886719 86.335938 53.027344 C 86.277344 53.164062 86.195312 53.289062 86.085938 53.398438 C 85.980469 53.503906 85.855469 53.585938 85.714844 53.644531 C 85.574219 53.703125 85.429688 53.730469 85.277344 53.730469 C 85.125 53.730469 84.980469 53.703125 84.839844 53.644531 C 84.699219 53.585938 84.574219 53.503906 84.46875 53.398438 C 84.363281 53.289062 84.277344 53.164062 84.21875 53.027344 C 84.164062 52.886719 84.132812 52.742188 84.132812 52.589844 C 84.132812 52.4375 84.164062 52.292969 84.21875 52.152344 C 84.277344 52.011719 84.363281 51.890625 84.46875 51.78125 C 84.574219 51.675781 84.699219 51.59375 84.839844 51.535156 C 84.980469 51.476562 85.125 51.445312 85.277344 51.445312 C 85.429688 51.445312 85.574219 51.476562 85.714844 51.535156 C 85.855469 51.59375 85.980469 51.675781 86.085938 51.78125 C 86.195312 51.890625 86.277344 52.011719 86.335938 52.152344 C 86.394531 52.292969 86.421875 52.4375 86.421875 52.589844 Z M 86.421875 52.589844 " fill-opacity="1" fill-rule="nonzero"/><path fill="#2acbd3" d="M 76.761719 48.359375 C 76.761719 48.59375 76.679688 48.796875 76.511719 48.960938 C 76.34375 49.128906 76.140625 49.210938 75.90625 49.210938 C 75.671875 49.210938 75.46875 49.128906 75.300781 48.960938 C 75.132812 48.796875 75.050781 48.59375 75.050781 48.359375 C 75.050781 48.121094 75.132812 47.921875 75.300781 47.753906 C 75.46875 47.589844 75.671875 47.503906 75.90625 47.503906 C 76.140625 47.503906 76.34375 47.589844 76.511719 47.753906 C 76.679688 47.921875 76.761719 48.121094 76.761719 48.359375 Z M 76.761719 48.359375 " fill-opacity="1" fill-rule="nonzero"/><path fill="#2acbd3" d="M 80.214844 46.058594 C 80.214844 46.207031 80.140625 46.28125 79.988281 46.28125 C 79.839844 46.28125 79.765625 46.207031 79.765625 46.058594 C 79.765625 45.910156 79.839844 45.835938 79.988281 45.835938 C 80.140625 45.835938 80.214844 45.910156 80.214844 46.058594 Z M 80.214844 46.058594 " fill-opacity="1" fill-rule="nonzero"/><path fill="#2acbd3" d="M 84.523438 43.992188 C 84.523438 44.152344 84.441406 44.230469 84.285156 44.230469 C 84.125 44.230469 84.046875 44.152344 84.046875 43.992188 C 84.046875 43.835938 84.125 43.753906 84.285156 43.753906 C 84.441406 43.753906 84.523438 43.835938 84.523438 43.992188 Z M 84.523438 43.992188 " fill-opacity="1" fill-rule="nonzero"/><path fill="#2acbd3" d="M 78.960938 54.007812 C 78.960938 54.085938 78.933594 54.152344 78.878906 54.207031 C 78.824219 54.261719 78.757812 54.289062 78.679688 54.289062 C 78.605469 54.289062 78.539062 54.261719 78.484375 54.207031 C 78.429688 54.152344 78.402344 54.085938 78.402344 54.007812 C 78.402344 53.933594 78.429688 53.867188 78.484375 53.8125 C 78.539062 53.757812 78.605469 53.730469 78.679688 53.730469 C 78.757812 53.730469 78.824219 53.757812 78.878906 53.8125 C 78.933594 53.867188 78.960938 53.933594 78.960938 54.007812 Z M 78.960938 54.007812 " fill-opacity="1" fill-rule="nonzero"/><path fill="#2acbd3" d="M 84.878906 56.9375 C 84.878906 57.019531 84.851562 57.089844 84.792969 57.148438 C 84.734375 57.207031 84.664062 57.234375 84.582031 57.234375 C 84.5 57.234375 84.429688 57.207031 84.371094 57.148438 C 84.3125 57.089844 84.285156 57.019531 84.285156 56.9375 C 84.285156 56.855469 84.3125 56.785156 84.371094 56.726562 C 84.429688 56.667969 84.5 56.640625 84.582031 56.640625 C 84.664062 56.640625 84.734375 56.667969 84.792969 56.726562 C 84.851562 56.785156 84.878906 56.855469 84.878906 56.9375 Z M 84.878906 56.9375 " fill-opacity="1" fill-rule="nonzero"/><path fill="#2acbd3" d="M 87.972656 50.394531 C 87.972656 50.542969 87.898438 50.617188 87.75 50.617188 C 87.601562 50.617188 87.527344 50.542969 87.527344 50.394531 C 87.527344 50.246094 87.601562 50.171875 87.75 50.171875 C 87.898438 50.171875 87.972656 50.246094 87.972656 50.394531 Z M 87.972656 50.394531 " fill-opacity="1" fill-rule="nonzero"/><path fill="#2acbd3" d="M 93.660156 52.242188 C 93.660156 52.3125 93.636719 52.371094 93.585938 52.417969 C 93.539062 52.46875 93.480469 52.492188 93.410156 52.492188 C 93.339844 52.492188 93.28125 52.46875 93.230469 52.417969 C 93.183594 52.371094 93.15625 52.3125 93.15625 52.242188 C 93.15625 52.171875 93.183594 52.113281 93.230469 52.0625 C 93.28125 52.015625 93.339844 51.992188 93.410156 51.992188 C 93.480469 51.992188 93.539062 52.015625 93.585938 52.0625 C 93.636719 52.113281 93.660156 52.171875 93.660156 52.242188 Z M 93.660156 52.242188 " fill-opacity="1" fill-rule="nonzero"/><path fill="#2acbd3" d="M 93.804688 55.863281 C 93.804688 55.992188 93.738281 56.058594 93.605469 56.058594 C 93.476562 56.058594 93.410156 55.992188 93.410156 55.863281 C 93.410156 55.730469 93.476562 55.667969 93.605469 55.667969 C 93.738281 55.667969 93.804688 55.730469 93.804688 55.863281 Z M 93.804688 55.863281 " fill-opacity="1" fill-rule="nonzero"/><path fill="#2acbd3" d="M 102.109375 45.996094 C 102.109375 46.101562 102.054688 46.15625 101.949219 46.15625 C 101.84375 46.15625 101.789062 46.101562 101.789062 45.996094 C 101.789062 45.886719 101.84375 45.835938 101.949219 45.835938 C 102.054688 45.835938 102.109375 45.886719 102.109375 45.996094 Z M 102.109375 45.996094 " fill-opacity="1" fill-rule="nonzero"/><path fill="#2acbd3" d="M 103.734375 46.246094 C 103.734375 46.316406 103.710938 46.375 103.660156 46.425781 C 103.613281 46.476562 103.550781 46.5 103.484375 46.5 C 103.414062 46.5 103.351562 46.476562 103.304688 46.425781 C 103.253906 46.375 103.230469 46.316406 103.230469 46.246094 C 103.230469 46.175781 103.253906 46.117188 103.304688 46.070312 C 103.351562 46.019531 103.414062 45.996094 103.484375 45.996094 C 103.550781 45.996094 103.613281 46.019531 103.660156 46.070312 C 103.710938 46.117188 103.734375 46.175781 103.734375 46.246094 Z M 103.734375 46.246094 " fill-opacity="1" fill-rule="nonzero"/><path fill="#2acbd3" d="M 99.703125 51.25 C 99.703125 51.382812 99.636719 51.449219 99.503906 51.449219 C 99.371094 51.449219 99.304688 51.382812 99.304688 51.25 C 99.304688 51.117188 99.371094 51.054688 99.503906 51.054688 C 99.636719 51.054688 99.703125 51.117188 99.703125 51.25 Z M 99.703125 51.25 " fill-opacity="1" fill-rule="nonzero"/><path fill="#aae6ff" d="M 96.484375 32.871094 C 96.792969 33.054688 97.09375 33.246094 97.382812 33.445312 C 99.691406 35.210938 101.464844 37.605469 102.464844 40.339844 C 102.558594 40.703125 102.628906 41.0625 102.679688 41.425781 C 102.933594 43.238281 102.640625 45.046875 101.71875 46.636719 C 99.144531 51.089844 92.621094 52.148438 87.152344 48.996094 C 82.464844 46.296875 80.074219 41.382812 81.109375 37.230469 C 81.195312 36.882812 81.304688 36.542969 81.433594 36.203125 C 82.152344 33.648438 84.34375 32.191406 86.777344 31.503906 C 87.125 31.402344 87.476562 31.316406 87.835938 31.246094 C 90.351562 30.769531 93.226562 31.171875 95.894531 32.546875 C 96.09375 32.648438 96.289062 32.757812 96.484375 32.871094 Z M 96.484375 32.871094 " fill-opacity="0.498" fill-rule="nonzero"/><path fill="#aae6ff" d="M 96.570312 32.722656 C 96.832031 32.875 97.082031 33.039062 97.324219 33.210938 C 99.480469 34.792969 101.152344 37.5 101.164062 40.160156 C 101.148438 40.46875 101.113281 40.769531 101.054688 41.070312 C 100.933594 41.664062 100.71875 42.242188 100.40625 42.785156 C 98.519531 46.042969 93.75 46.816406 89.75 44.511719 C 86.085938 42.398438 84.335938 38.4375 85.523438 35.28125 C 85.632812 34.992188 85.765625 34.714844 85.921875 34.441406 C 86.09375 34.144531 86.292969 33.867188 86.507812 33.609375 C 88.476562 31.300781 92.175781 30.722656 95.5625 32.203125 C 95.902344 32.355469 96.242188 32.527344 96.570312 32.722656 Z M 96.570312 32.722656 " fill-opacity="0.498" fill-rule="nonzero"/><path fill="#e0f3f1" d="M 95.054688 34.398438 C 95.054688 34.722656 94.992188 35.03125 94.867188 35.332031 C 94.746094 35.628906 94.570312 35.894531 94.339844 36.121094 C 94.109375 36.347656 93.847656 36.527344 93.546875 36.648438 C 93.25 36.773438 92.9375 36.835938 92.613281 36.835938 C 92.289062 36.835938 91.976562 36.773438 91.679688 36.648438 C 91.378906 36.527344 91.117188 36.347656 90.886719 36.121094 C 90.660156 35.894531 90.480469 35.628906 90.359375 35.332031 C 90.234375 35.03125 90.171875 34.722656 90.171875 34.398438 C 90.171875 34.074219 90.234375 33.765625 90.359375 33.464844 C 90.480469 33.167969 90.660156 32.90625 90.886719 32.675781 C 91.117188 32.449219 91.378906 32.273438 91.679688 32.148438 C 91.976562 32.023438 92.289062 31.964844 92.613281 31.964844 C 92.9375 31.964844 93.25 32.023438 93.546875 32.148438 C 93.847656 32.273438 94.109375 32.449219 94.339844 32.675781 C 94.570312 32.90625 94.746094 33.167969 94.867188 33.464844 C 94.992188 33.765625 95.054688 34.074219 95.054688 34.398438 Z M 95.054688 34.398438 " fill-opacity="1" fill-rule="nonzero"/><path fill="#2acbd3" d="M 75.011719 37.882812 C 75.011719 37.882812 81.5 44.660156 78.121094 57.898438 C 78.121094 57.898438 72.648438 51.226562 73.445312 47.058594 Z M 75.011719 37.882812 " fill-opacity="1" fill-rule="nonzero"/><g clip-path="url(#bd484784e8)"><path fill="#f3808f" d="M 77.578125 46.828125 C 77.578125 47.996094 77.457031 49.132812 77.234375 50.234375 C 77.121094 50.785156 76.980469 51.328125 76.8125 51.859375 C 73.960938 56.734375 73.65625 65.273438 68 66.644531 C 67.371094 66.757812 66.804688 66.316406 66.199219 65.738281 C 66 65.542969 65.792969 65.332031 65.578125 65.121094 C 63.453125 62.5 59.605469 63.410156 57.144531 65.113281 C 56.859375 65.265625 56.574219 65.417969 56.289062 65.558594 C 54.859375 66.261719 53.40625 66.722656 51.800781 65.882812 C 48.59375 64.207031 49.050781 60.242188 47.390625 57.355469 C 47.152344 56.984375 46.890625 56.625 46.601562 56.28125 C 46.296875 55.828125 46.015625 55.363281 45.753906 54.882812 C 44.453125 52.488281 43.710938 49.746094 43.710938 46.828125 C 43.710938 37.5 51.292969 29.933594 60.644531 29.933594 C 69.996094 29.933594 77.578125 37.5 77.578125 46.828125 Z M 77.578125 46.828125 " fill-opacity="1" fill-rule="nonzero"/></g><path fill="#ffa4a9" d="M 76.21875 46.398438 C 76.21875 47.46875 76.109375 48.515625 75.902344 49.527344 C 75.800781 50.035156 75.671875 50.53125 75.519531 51.019531 C 72.910156 55.5 72.628906 63.351562 67.453125 64.609375 C 67.199219 64.65625 66.953125 64.601562 66.710938 64.480469 C 66.472656 64.359375 66.234375 64.167969 65.988281 63.941406 C 63.757812 60.582031 59.503906 61.488281 56.734375 63.609375 C 56.410156 63.773438 56.082031 63.921875 55.75 64.042969 C 54.753906 64.398438 53.730469 64.488281 52.632812 63.910156 C 49.695312 62.371094 50.113281 58.726562 48.59375 56.070312 C 48.375 55.730469 48.136719 55.402344 47.875 55.085938 C 47.59375 54.671875 47.335938 54.242188 47.097656 53.800781 C 45.90625 51.601562 45.226562 49.078125 45.226562 46.398438 C 45.226562 37.820312 52.164062 30.867188 60.722656 30.867188 C 69.28125 30.867188 76.21875 37.820312 76.21875 46.398438 Z M 76.21875 46.398438 " fill-opacity="1" fill-rule="nonzero"/><path fill="#ffb2ba" d="M 66.449219 33.792969 C 66.683594 34.203125 66.859375 34.644531 66.972656 35.117188 C 67.085938 35.59375 67.132812 36.085938 67.117188 36.605469 C 67.101562 37.121094 67.019531 37.648438 66.871094 38.191406 C 66.726562 38.730469 66.515625 39.273438 66.246094 39.816406 C 65.976562 40.359375 65.652344 40.894531 65.269531 41.417969 C 64.886719 41.945312 64.453125 42.449219 63.972656 42.9375 C 63.492188 43.425781 62.96875 43.882812 62.40625 44.3125 C 61.847656 44.746094 61.257812 45.136719 60.636719 45.496094 C 60.015625 45.851562 59.378906 46.164062 58.726562 46.4375 C 58.070312 46.707031 57.414062 46.925781 56.75 47.097656 C 56.085938 47.269531 55.429688 47.390625 54.78125 47.460938 C 54.132812 47.527344 53.507812 47.542969 52.902344 47.503906 C 52.292969 47.464844 51.71875 47.375 51.179688 47.230469 C 50.636719 47.085938 50.136719 46.894531 49.679688 46.648438 C 49.222656 46.40625 48.816406 46.117188 48.460938 45.78125 C 48.105469 45.449219 47.8125 45.074219 47.574219 44.664062 C 47.335938 44.253906 47.160156 43.808594 47.046875 43.335938 C 46.933594 42.863281 46.886719 42.367188 46.902344 41.851562 C 46.921875 41.335938 47 40.804688 47.148438 40.265625 C 47.292969 39.726562 47.503906 39.183594 47.773438 38.640625 C 48.042969 38.097656 48.367188 37.5625 48.75 37.035156 C 49.132812 36.511719 49.566406 36.003906 50.046875 35.519531 C 50.527344 35.03125 51.050781 34.570312 51.613281 34.140625 C 52.171875 33.710938 52.761719 33.316406 53.382812 32.960938 C 54.003906 32.601562 54.640625 32.289062 55.292969 32.019531 C 55.949219 31.75 56.605469 31.527344 57.269531 31.355469 C 57.933594 31.183594 58.589844 31.0625 59.238281 30.996094 C 59.886719 30.929688 60.511719 30.914062 61.117188 30.953125 C 61.726562 30.992188 62.300781 31.082031 62.84375 31.226562 C 63.382812 31.371094 63.882812 31.5625 64.339844 31.808594 C 64.796875 32.050781 65.203125 32.339844 65.558594 32.671875 C 65.914062 33.007812 66.210938 33.378906 66.449219 33.792969 Z M 66.449219 33.792969 " fill-opacity="1" fill-rule="nonzero"/><path fill="#ffd3de" d="M 63.628906 33.417969 C 63.8125 33.734375 63.945312 34.078125 64.035156 34.441406 C 64.121094 34.804688 64.15625 35.1875 64.144531 35.585938 C 64.132812 35.984375 64.066406 36.390625 63.957031 36.804688 C 63.84375 37.222656 63.683594 37.640625 63.472656 38.058594 C 63.265625 38.476562 63.015625 38.890625 62.71875 39.292969 C 62.425781 39.699219 62.09375 40.089844 61.722656 40.464844 C 61.351562 40.839844 60.949219 41.191406 60.515625 41.523438 C 60.085938 41.855469 59.628906 42.160156 59.152344 42.433594 C 58.675781 42.710938 58.183594 42.949219 57.679688 43.160156 C 57.175781 43.367188 56.667969 43.535156 56.15625 43.667969 C 55.648438 43.800781 55.140625 43.894531 54.644531 43.945312 C 54.144531 44 53.660156 44.011719 53.195312 43.980469 C 52.726562 43.953125 52.285156 43.882812 51.867188 43.769531 C 51.449219 43.660156 51.0625 43.511719 50.710938 43.324219 C 50.359375 43.136719 50.046875 42.914062 49.773438 42.65625 C 49.5 42.398438 49.273438 42.109375 49.089844 41.792969 C 48.90625 41.476562 48.769531 41.136719 48.683594 40.773438 C 48.597656 40.40625 48.558594 40.027344 48.574219 39.628906 C 48.585938 39.230469 48.648438 38.824219 48.761719 38.40625 C 48.875 37.988281 49.035156 37.570312 49.242188 37.152344 C 49.449219 36.734375 49.703125 36.324219 49.996094 35.917969 C 50.292969 35.515625 50.625 35.125 50.996094 34.75 C 51.367188 34.375 51.769531 34.019531 52.199219 33.6875 C 52.632812 33.355469 53.085938 33.054688 53.566406 32.777344 C 54.042969 32.503906 54.53125 32.261719 55.035156 32.054688 C 55.542969 31.847656 56.046875 31.675781 56.558594 31.542969 C 57.070312 31.410156 57.574219 31.316406 58.074219 31.265625 C 58.574219 31.214844 59.054688 31.203125 59.523438 31.230469 C 59.992188 31.261719 60.433594 31.332031 60.851562 31.441406 C 61.269531 31.554688 61.652344 31.703125 62.007812 31.890625 C 62.359375 32.078125 62.671875 32.300781 62.945312 32.558594 C 63.214844 32.8125 63.445312 33.101562 63.628906 33.417969 Z M 63.628906 33.417969 " fill-opacity="0.498" fill-rule="nonzero"/><path fill="#ffd3de" d="M 58.164062 33.992188 C 58.164062 34.230469 58.121094 34.460938 58.027344 34.683594 C 57.9375 34.902344 57.804688 35.097656 57.636719 35.269531 C 57.46875 35.4375 57.273438 35.566406 57.050781 35.660156 C 56.828125 35.75 56.597656 35.796875 56.359375 35.796875 C 56.121094 35.796875 55.890625 35.75 55.667969 35.660156 C 55.445312 35.566406 55.25 35.4375 55.082031 35.269531 C 54.914062 35.097656 54.78125 34.902344 54.691406 34.683594 C 54.597656 34.460938 54.554688 34.230469 54.554688 33.992188 C 54.554688 33.753906 54.597656 33.523438 54.691406 33.304688 C 54.78125 33.082031 54.914062 32.886719 55.082031 32.71875 C 55.25 32.550781 55.445312 32.417969 55.667969 32.328125 C 55.890625 32.234375 56.121094 32.191406 56.359375 32.191406 C 56.597656 32.191406 56.828125 32.234375 57.050781 32.328125 C 57.273438 32.417969 57.46875 32.550781 57.636719 32.71875 C 57.804688 32.886719 57.9375 33.082031 58.027344 33.304688 C 58.121094 33.523438 58.164062 33.753906 58.164062 33.992188 Z M 58.164062 33.992188 " fill-opacity="1" fill-rule="nonzero"/><path fill="#f3808f" d="M 71.351562 41.753906 C 71.351562 41.917969 71.320312 42.074219 71.257812 42.226562 C 71.195312 42.375 71.105469 42.511719 70.988281 42.625 C 70.875 42.742188 70.738281 42.832031 70.589844 42.894531 C 70.4375 42.957031 70.277344 42.988281 70.113281 42.988281 C 69.949219 42.988281 69.792969 42.957031 69.640625 42.894531 C 69.488281 42.832031 69.355469 42.742188 69.242188 42.625 C 69.125 42.511719 69.035156 42.375 68.972656 42.226562 C 68.910156 42.074219 68.878906 41.917969 68.878906 41.753906 C 68.878906 41.589844 68.910156 41.433594 68.972656 41.28125 C 69.035156 41.128906 69.125 40.996094 69.242188 40.882812 C 69.355469 40.765625 69.488281 40.675781 69.640625 40.613281 C 69.792969 40.550781 69.949219 40.519531 70.113281 40.519531 C 70.277344 40.519531 70.4375 40.550781 70.589844 40.613281 C 70.738281 40.675781 70.875 40.765625 70.988281 40.882812 C 71.105469 40.996094 71.195312 41.128906 71.257812 41.28125 C 71.320312 41.433594 71.351562 41.589844 71.351562 41.753906 Z M 71.351562 41.753906 " fill-opacity="1" fill-rule="nonzero"/><path fill="#f3808f" d="M 57.011719 50.46875 C 57.011719 50.703125 56.925781 50.90625 56.757812 51.070312 C 56.59375 51.238281 56.390625 51.324219 56.152344 51.324219 C 55.917969 51.324219 55.714844 51.238281 55.546875 51.070312 C 55.378906 50.90625 55.296875 50.703125 55.296875 50.46875 C 55.296875 50.230469 55.378906 50.03125 55.546875 49.863281 C 55.714844 49.695312 55.917969 49.613281 56.152344 49.613281 C 56.390625 49.613281 56.59375 49.695312 56.757812 49.863281 C 56.925781 50.03125 57.011719 50.230469 57.011719 50.46875 Z M 57.011719 50.46875 " fill-opacity="1" fill-rule="nonzero"/><path fill="#f3808f" d="M 71.679688 36.652344 C 71.679688 36.886719 71.597656 37.089844 71.429688 37.253906 C 71.261719 37.421875 71.058594 37.507812 70.824219 37.507812 C 70.585938 37.507812 70.382812 37.421875 70.214844 37.253906 C 70.050781 37.089844 69.964844 36.886719 69.964844 36.652344 C 69.964844 36.414062 70.050781 36.214844 70.214844 36.046875 C 70.382812 35.878906 70.585938 35.796875 70.824219 35.796875 C 71.058594 35.796875 71.261719 35.878906 71.429688 36.046875 C 71.597656 36.214844 71.679688 36.414062 71.679688 36.652344 Z M 71.679688 36.652344 " fill-opacity="1" fill-rule="nonzero"/><path fill="#f3808f" d="M 66.207031 48.679688 C 66.207031 48.9375 66.113281 49.15625 65.933594 49.339844 C 65.75 49.519531 65.53125 49.609375 65.273438 49.609375 C 65.015625 49.609375 64.792969 49.519531 64.613281 49.339844 C 64.429688 49.15625 64.339844 48.9375 64.339844 48.679688 C 64.339844 48.421875 64.429688 48.203125 64.613281 48.019531 C 64.792969 47.839844 65.015625 47.746094 65.273438 47.746094 C 65.53125 47.746094 65.75 47.839844 65.933594 48.019531 C 66.113281 48.203125 66.207031 48.421875 66.207031 48.679688 Z M 66.207031 48.679688 " fill-opacity="1" fill-rule="nonzero"/><path fill="#f3808f" d="M 55.90625 56.792969 C 55.90625 56.976562 55.839844 57.136719 55.707031 57.269531 C 55.574219 57.398438 55.414062 57.464844 55.230469 57.464844 C 55.042969 57.464844 54.882812 57.398438 54.75 57.269531 C 54.617188 57.136719 54.554688 56.976562 54.554688 56.792969 C 54.554688 56.605469 54.617188 56.445312 54.75 56.316406 C 54.882812 56.183594 55.042969 56.117188 55.230469 56.117188 C 55.414062 56.117188 55.574219 56.183594 55.707031 56.316406 C 55.839844 56.445312 55.90625 56.605469 55.90625 56.792969 Z M 55.90625 56.792969 " fill-opacity="1" fill-rule="nonzero"/><path fill="#f3808f" d="M 50.765625 51.144531 C 50.765625 51.328125 50.699219 51.488281 50.566406 51.621094 C 50.433594 51.753906 50.273438 51.820312 50.085938 51.820312 C 49.898438 51.820312 49.738281 51.753906 49.605469 51.621094 C 49.476562 51.488281 49.410156 51.328125 49.410156 51.144531 C 49.410156 50.957031 49.476562 50.796875 49.605469 50.664062 C 49.738281 50.535156 49.898438 50.46875 50.085938 50.46875 C 50.273438 50.46875 50.433594 50.535156 50.566406 50.664062 C 50.699219 50.796875 50.765625 50.957031 50.765625 51.144531 Z M 50.765625 51.144531 " fill-opacity="1" fill-rule="nonzero"/><path fill="#f3808f" d="M 71.679688 50.039062 C 71.679688 50.15625 71.636719 50.257812 71.554688 50.34375 C 71.46875 50.425781 71.371094 50.46875 71.25 50.46875 C 71.132812 50.46875 71.03125 50.425781 70.949219 50.34375 C 70.863281 50.257812 70.824219 50.15625 70.824219 50.039062 C 70.824219 49.921875 70.863281 49.820312 70.949219 49.738281 C 71.03125 49.652344 71.132812 49.613281 71.25 49.613281 C 71.371094 49.613281 71.46875 49.652344 71.554688 49.738281 C 71.636719 49.820312 71.679688 49.921875 71.679688 50.039062 Z M 71.679688 50.039062 " fill-opacity="1" fill-rule="nonzero"/><path fill="#f3808f" d="M 62.589844 46.769531 C 62.589844 46.847656 62.5625 46.910156 62.507812 46.964844 C 62.453125 47.019531 62.390625 47.046875 62.3125 47.046875 C 62.234375 47.046875 62.171875 47.019531 62.117188 46.964844 C 62.0625 46.910156 62.035156 46.847656 62.035156 46.769531 C 62.035156 46.695312 62.0625 46.628906 62.117188 46.574219 C 62.171875 46.523438 62.234375 46.496094 62.3125 46.496094 C 62.390625 46.496094 62.453125 46.523438 62.507812 46.574219 C 62.5625 46.628906 62.589844 46.695312 62.589844 46.769531 Z M 62.589844 46.769531 " fill-opacity="1" fill-rule="nonzero"/><path fill="#f3808f" d="M 59.960938 52.992188 C 59.960938 53.136719 59.890625 53.207031 59.746094 53.207031 C 59.601562 53.207031 59.53125 53.136719 59.53125 52.992188 C 59.53125 52.851562 59.601562 52.777344 59.746094 52.777344 C 59.890625 52.777344 59.960938 52.851562 59.960938 52.992188 Z M 59.960938 52.992188 " fill-opacity="1" fill-rule="nonzero"/><path fill="#f3808f" d="M 49.625 53.207031 C 49.625 53.351562 49.550781 53.421875 49.410156 53.421875 C 49.265625 53.421875 49.195312 53.351562 49.195312 53.207031 C 49.195312 53.066406 49.265625 52.992188 49.410156 52.992188 C 49.550781 52.992188 49.625 53.066406 49.625 53.207031 Z M 49.625 53.207031 " fill-opacity="1" fill-rule="nonzero"/><path fill="#f3808f" d="M 71.832031 45.726562 C 71.832031 45.886719 71.75 45.96875 71.589844 45.96875 C 71.429688 45.96875 71.351562 45.886719 71.351562 45.726562 C 71.351562 45.566406 71.429688 45.488281 71.589844 45.488281 C 71.75 45.488281 71.832031 45.566406 71.832031 45.726562 Z M 71.832031 45.726562 " fill-opacity="1" fill-rule="nonzero"/><path fill="#f3808f" d="M 65.457031 55.363281 C 65.457031 55.488281 65.414062 55.597656 65.324219 55.6875 C 65.234375 55.777344 65.125 55.820312 65 55.820312 C 64.875 55.820312 64.765625 55.777344 64.675781 55.6875 C 64.585938 55.597656 64.542969 55.488281 64.542969 55.363281 C 64.542969 55.238281 64.585938 55.128906 64.675781 55.039062 C 64.765625 54.949219 64.875 54.90625 65 54.90625 C 65.125 54.90625 65.234375 54.949219 65.324219 55.039062 C 65.414062 55.128906 65.457031 55.238281 65.457031 55.363281 Z M 65.457031 55.363281 " fill-opacity="1" fill-rule="nonzero"/><path fill="#f3808f" d="M 63.667969 51.324219 C 63.667969 51.449219 63.625 51.558594 63.535156 51.648438 C 63.445312 51.738281 63.335938 51.78125 63.210938 51.78125 C 63.082031 51.78125 62.976562 51.738281 62.886719 51.648438 C 62.796875 51.558594 62.75 51.449219 62.75 51.324219 C 62.75 51.195312 62.796875 51.089844 62.886719 51 C 62.976562 50.910156 63.082031 50.867188 63.210938 50.867188 C 63.335938 50.867188 63.445312 50.910156 63.535156 51 C 63.625 51.089844 63.667969 51.195312 63.667969 51.324219 Z M 63.667969 51.324219 " fill-opacity="1" fill-rule="nonzero"/><path fill="#f3808f" d="M 66.582031 44.285156 C 66.582031 44.410156 66.539062 44.519531 66.449219 44.609375 C 66.359375 44.699219 66.25 44.742188 66.125 44.742188 C 65.996094 44.742188 65.890625 44.699219 65.800781 44.609375 C 65.710938 44.519531 65.664062 44.410156 65.664062 44.285156 C 65.664062 44.160156 65.710938 44.050781 65.800781 43.960938 C 65.890625 43.871094 65.996094 43.828125 66.125 43.828125 C 66.25 43.828125 66.359375 43.871094 66.449219 43.960938 C 66.539062 44.050781 66.582031 44.160156 66.582031 44.285156 Z M 66.582031 44.285156 " fill-opacity="1" fill-rule="nonzero"/><path fill="#f3808f" d="M 62.542969 56.398438 C 62.542969 56.648438 62.457031 56.863281 62.277344 57.042969 C 62.097656 57.21875 61.882812 57.308594 61.632812 57.308594 C 61.382812 57.308594 61.167969 57.21875 60.988281 57.042969 C 60.8125 56.863281 60.722656 56.648438 60.722656 56.398438 C 60.722656 56.148438 60.8125 55.933594 60.988281 55.757812 C 61.167969 55.578125 61.382812 55.488281 61.632812 55.488281 C 61.882812 55.488281 62.097656 55.578125 62.277344 55.757812 C 62.457031 55.933594 62.542969 56.148438 62.542969 56.398438 Z M 62.542969 56.398438 " fill-opacity="1" fill-rule="nonzero"/><path fill="#f3808f" d="M 69.457031 54.300781 C 69.457031 54.46875 69.394531 54.609375 69.277344 54.730469 C 69.160156 54.847656 69.015625 54.90625 68.847656 54.90625 C 68.679688 54.90625 68.535156 54.847656 68.417969 54.730469 C 68.296875 54.609375 68.238281 54.46875 68.238281 54.300781 C 68.238281 54.132812 68.296875 53.988281 68.417969 53.871094 C 68.535156 53.753906 68.679688 53.691406 68.847656 53.691406 C 69.015625 53.691406 69.160156 53.753906 69.277344 53.871094 C 69.394531 53.988281 69.457031 54.132812 69.457031 54.300781 Z M 69.457031 54.300781 " fill-opacity="1" fill-rule="nonzero"/><path fill="#f3808f" d="M 68.847656 37.605469 C 68.847656 37.773438 68.789062 37.917969 68.671875 38.035156 C 68.550781 38.15625 68.40625 38.214844 68.238281 38.214844 C 68.070312 38.214844 67.929688 38.15625 67.808594 38.035156 C 67.691406 37.917969 67.632812 37.773438 67.632812 37.605469 C 67.632812 37.441406 67.691406 37.296875 67.808594 37.179688 C 67.929688 37.058594 68.070312 37 68.238281 37 C 68.40625 37 68.550781 37.058594 68.667969 37.179688 C 68.789062 37.296875 68.847656 37.441406 68.847656 37.605469 Z M 68.847656 37.605469 " fill-opacity="1" fill-rule="nonzero"/><path fill="#f3808f" d="M 67.945312 57.394531 C 67.945312 57.539062 67.875 57.609375 67.730469 57.609375 C 67.585938 57.609375 67.511719 57.539062 67.511719 57.394531 C 67.511719 57.25 67.585938 57.175781 67.730469 57.175781 C 67.875 57.175781 67.945312 57.25 67.945312 57.394531 Z M 67.945312 57.394531 " fill-opacity="1" fill-rule="nonzero"/><path fill="#f3808f" d="M 53.421875 50.46875 C 53.421875 50.625 53.34375 50.707031 53.183594 50.707031 C 53.023438 50.707031 52.945312 50.625 52.945312 50.46875 C 52.945312 50.308594 53.023438 50.226562 53.183594 50.226562 C 53.34375 50.226562 53.421875 50.308594 53.421875 50.46875 Z M 53.421875 50.46875 " fill-opacity="1" fill-rule="nonzero"/><path fill="#f3808f" d="M 51.609375 58.726562 C 51.609375 58.886719 51.527344 58.96875 51.367188 58.96875 C 51.207031 58.96875 51.128906 58.886719 51.128906 58.726562 C 51.128906 58.570312 51.207031 58.488281 51.367188 58.488281 C 51.527344 58.488281 51.609375 58.570312 51.609375 58.726562 Z M 51.609375 58.726562 " fill-opacity="1" fill-rule="nonzero"/><path fill="#ffd3de" d="M 52.621094 33.847656 C 51.191406 35.234375 49.359375 36.148438 48.324219 37.777344 C 48.027344 38.164062 47.75 38.566406 47.5 38.988281 C 47.25 39.414062 47.027344 39.859375 46.835938 40.324219 C 46.671875 40.707031 46.53125 41.101562 46.410156 41.503906 C 46.257812 41.914062 46.125 42.335938 46.011719 42.757812 C 45.785156 43.609375 45.640625 44.480469 45.574219 45.359375 C 45.53125 45.890625 45.523438 46.417969 45.539062 46.949219 C 45.6875 50.636719 46.910156 56.277344 51.496094 56.277344 C 53.484375 56.277344 54.398438 54.445312 53.636719 52.769531 C 52.414062 50.179688 50.121094 48.5 49.582031 45.582031 C 49.476562 45.109375 49.417969 44.628906 49.402344 44.152344 C 49.390625 43.792969 49.410156 43.4375 49.457031 43.082031 C 49.5 42.480469 49.621094 41.941406 49.800781 41.445312 C 49.984375 40.949219 50.222656 40.5 50.507812 40.082031 C 52.414062 37.523438 55.46875 36.300781 57.148438 33.558594 C 57.304688 33.097656 57.148438 32.488281 56.386719 32.335938 C 54.859375 32.03125 53.789062 33.40625 52.621094 33.847656 " fill-opacity="0.498" fill-rule="nonzero"/><path fill="#ffebf4" d="M 52.882812 61.238281 C 52.640625 62.058594 53.164062 63.1875 53.957031 63.578125 C 55.570312 64.371094 57.175781 63.125 58.53125 62.363281 C 59.296875 61.933594 60.183594 61.472656 61.078125 61.390625 C 62.296875 61.277344 63.519531 61.707031 64.566406 62.308594 C 65.46875 62.824219 66.355469 64.035156 67.460938 64 C 68.527344 63.96875 69.390625 62.976562 69.898438 62.140625 C 70.207031 61.636719 71.148438 59.761719 70.066406 59.515625 C 69.851562 59.46875 69.625 59.519531 69.421875 59.605469 C 68.617188 59.953125 68.425781 60.636719 68.164062 61.390625 C 68.050781 61.71875 67.820312 62.050781 67.476562 62.09375 C 67.335938 62.105469 67.195312 62.070312 67.0625 62.023438 C 66.097656 61.671875 65.300781 60.835938 64.441406 60.292969 C 63.535156 59.714844 62.507812 59.261719 61.410156 59.292969 C 58.625 59.367188 56.714844 62.414062 55.421875 61.597656 C 54.804688 61.207031 54.855469 60.265625 54.21875 60.171875 C 53.691406 60.089844 53.0625 60.640625 52.882812 61.238281 Z M 52.882812 61.238281 " fill-opacity="1" fill-rule="nonzero"/></svg>