<svg xmlns="http://www.w3.org/2000/svg" xmlns:xlink="http://www.w3.org/1999/xlink" width="200" zoomAndPan="magnify" viewBox="0 0 150 149.999998" height="200" preserveAspectRatio="xMidYMid meet" version="1.0"><defs><clipPath id="83b8fb8ff4"><path d="M 12.6875 12.6875 L 137.1875 12.6875 L 137.1875 137.1875 L 12.6875 137.1875 Z M 12.6875 12.6875 " clip-rule="nonzero"/></clipPath></defs><g clip-path="url(#83b8fb8ff4)"><path fill="#000000" d="M 67.15625 84.664062 C 67.15625 80.507812 65.535156 76.597656 62.597656 73.660156 C 56.71875 67.777344 46.464844 67.78125 40.589844 73.660156 C 37.652344 76.597656 36.03125 80.507812 36.03125 84.664062 C 36.03125 88.820312 37.652344 92.730469 40.589844 95.667969 C 43.527344 98.609375 47.4375 100.226562 51.59375 100.226562 C 55.75 100.226562 59.660156 98.609375 62.597656 95.667969 C 65.535156 92.730469 67.15625 88.820312 67.15625 84.664062 Z M 57.09375 90.164062 C 54.15625 93.105469 49.035156 93.105469 46.09375 90.164062 C 44.621094 88.695312 43.8125 86.742188 43.8125 84.664062 C 43.8125 82.585938 44.621094 80.632812 46.09375 79.164062 C 47.5625 77.691406 49.515625 76.882812 51.59375 76.882812 C 53.671875 76.882812 55.625 77.691406 57.09375 79.164062 C 58.566406 80.632812 59.375 82.585938 59.375 84.664062 C 59.375 86.742188 58.566406 88.695312 57.09375 90.164062 Z M 63.265625 104.117188 L 74.9375 84.664062 L 86.609375 104.117188 Z M 74.9375 111.894531 L 94.394531 111.902344 L 94.394531 119.683594 L 74.9375 119.675781 L 55.484375 119.683594 L 55.480469 111.902344 Z M 98.28125 69.101562 C 94.125 69.101562 90.214844 70.722656 87.277344 73.65625 C 84.335938 76.597656 82.71875 80.507812 82.71875 84.664062 C 82.71875 88.820312 84.335938 92.730469 87.277344 95.667969 C 90.214844 98.609375 94.125 100.226562 98.28125 100.226562 C 102.4375 100.226562 106.347656 98.609375 109.285156 95.667969 C 112.226562 92.730469 113.84375 88.820312 113.84375 84.664062 C 113.84375 80.507812 112.226562 76.597656 109.285156 73.660156 C 106.347656 70.722656 102.4375 69.101562 98.28125 69.101562 Z M 103.78125 90.164062 C 100.839844 93.105469 95.722656 93.105469 92.78125 90.164062 C 91.308594 88.695312 90.5 86.742188 90.5 84.664062 C 90.5 82.585938 91.308594 80.632812 92.78125 79.164062 C 94.25 77.691406 96.203125 76.882812 98.28125 76.882812 C 100.359375 76.882812 102.3125 77.691406 103.78125 79.164062 C 105.253906 80.632812 106.0625 82.585938 106.0625 84.664062 C 106.0625 86.742188 105.253906 88.695312 103.78125 90.164062 Z M 125.519531 73.503906 L 125.519531 63.265625 C 125.519531 54.703125 118.539062 51.59375 113.847656 51.59375 L 78.828125 51.59375 L 78.828125 35.316406 C 83.34375 33.707031 86.609375 29.425781 86.609375 24.359375 C 86.609375 17.925781 81.375 12.6875 74.9375 12.6875 C 68.503906 12.6875 63.265625 17.925781 63.265625 24.359375 C 63.265625 29.425781 66.53125 33.707031 71.046875 35.316406 L 71.046875 51.59375 L 36.03125 51.59375 C 27.46875 51.59375 24.359375 58.574219 24.359375 63.265625 L 24.359375 73.503906 C 18.101562 74.941406 12.6875 79.726562 12.6875 88.554688 L 12.6875 104.140625 C 12.765625 110.855469 16.441406 117.605469 24.359375 119.277344 L 24.359375 125.515625 C 24.359375 134.078125 31.339844 137.1875 36.03125 137.1875 L 113.847656 137.1875 C 122.410156 137.1875 125.519531 130.207031 125.519531 125.515625 L 125.519531 119.277344 C 133.433594 117.601562 137.109375 110.847656 137.1875 104.097656 L 137.1875 88.554688 C 137.1875 79.730469 131.78125 74.941406 125.519531 73.503906 Z M 74.9375 20.46875 C 77.082031 20.46875 78.828125 22.214844 78.828125 24.359375 C 78.828125 26.503906 77.082031 28.25 74.9375 28.25 C 72.792969 28.25 71.046875 26.503906 71.046875 24.359375 C 71.046875 22.214844 72.792969 20.46875 74.9375 20.46875 Z M 20.46875 104.09375 L 20.46875 88.554688 C 20.46875 84.5 22.277344 82.511719 24.359375 81.570312 L 24.359375 111.152344 C 21.113281 109.664062 20.496094 106.292969 20.46875 104.09375 Z M 117.738281 125.46875 C 117.691406 127.265625 116.984375 129.40625 113.847656 129.40625 L 36.074219 129.40625 C 34.28125 129.359375 32.140625 128.652344 32.140625 125.515625 L 32.140625 63.308594 C 32.183594 61.515625 32.894531 59.375 36.03125 59.375 L 113.804688 59.375 C 115.601562 59.421875 117.742188 60.132812 117.742188 63.265625 L 117.742188 125.46875 Z M 129.40625 104.046875 C 129.378906 106.277344 128.765625 109.65625 125.519531 111.148438 L 125.519531 81.566406 C 127.597656 82.515625 129.40625 84.5 129.40625 88.554688 Z M 129.40625 104.046875 " fill-opacity="1" fill-rule="nonzero"/></g></svg>