<svg xmlns="http://www.w3.org/2000/svg" xmlns:xlink="http://www.w3.org/1999/xlink" width="200" zoomAndPan="magnify" viewBox="0 0 150 112.499997" height="150" preserveAspectRatio="xMidYMid meet" version="1.0"><defs><clipPath id="a5365f9395"><path d="M 82 64 L 124.980469 64 L 124.980469 95 L 82 95 Z M 82 64 " clip-rule="nonzero"/></clipPath><clipPath id="a71eb024c9"><path d="M 26 8.617188 L 124.980469 8.617188 L 124.980469 103 L 26 103 Z M 26 8.617188 " clip-rule="nonzero"/></clipPath></defs><path fill="#cceddf" d="M 32.054688 43.25 C 32.148438 43.710938 32.050781 44.183594 31.984375 44.648438 C 31.695312 46.625 32.109375 48.933594 33.773438 50.027344 C 34.019531 50.1875 34.292969 50.324219 34.457031 50.5625 C 34.609375 50.78125 34.652344 51.058594 34.699219 51.320312 C 34.941406 52.621094 35.492188 53.886719 36.402344 54.84375 C 37.3125 55.800781 38.605469 56.429688 39.925781 56.402344 C 40.292969 57.445312 41.257812 58.207031 42.316406 58.507812 C 43.378906 58.8125 44.523438 58.703125 45.585938 58.394531 C 45.945312 58.289062 46.308594 58.160156 46.683594 58.160156 C 46.960938 58.160156 47.230469 58.238281 47.503906 58.292969 C 49.09375 58.632812 50.640625 58.480469 52.140625 57.84375 C 54.75 58.664062 57.710938 58.324219 60.066406 56.925781 C 60.152344 56.238281 59.789062 55.550781 59.265625 55.097656 C 58.738281 54.644531 58.074219 54.394531 57.40625 54.210938 C 56.128906 53.855469 54.804688 53.710938 53.496094 53.480469 C 48.773438 52.648438 44.128906 50.59375 40.949219 46.996094 C 37.769531 43.398438 36.292969 38.117188 37.9375 33.601562 C 38.589844 31.8125 39.75 30.152344 41.398438 29.203125 C 43.050781 28.25 45.226562 28.117188 46.839844 29.136719 C 48.628906 30.269531 49.628906 32.585938 48.40625 34.125 C 46.808594 36.140625 49.980469 36.199219 51.914062 34.527344 C 52.21875 34.261719 51.953125 33.710938 52.054688 33.316406 C 52.171875 32.859375 52.480469 32.46875 52.605469 32.011719 C 52.808594 31.269531 52.5 30.492188 52.136719 29.8125 C 51.679688 28.964844 51.132812 28.171875 50.585938 27.375 C 50.199219 26.8125 49.804688 26.242188 49.257812 25.832031 C 48.847656 25.527344 48.371094 25.332031 47.898438 25.132812 L 46.625 24.601562 C 44.972656 23.910156 43 23.242188 41.488281 24.199219 C 41.234375 24.359375 41.011719 24.558594 40.742188 24.6875 C 40.367188 24.863281 39.9375 24.882812 39.53125 24.964844 C 38.28125 25.21875 37.230469 26.046875 36.296875 26.914062 C 35.71875 27.449219 35.152344 28.023438 34.820312 28.738281 C 34.648438 29.097656 34.542969 29.488281 34.351562 29.835938 C 34.175781 30.164062 33.925781 30.445312 33.691406 30.734375 C 32.789062 31.855469 32.027344 33.191406 32.019531 34.636719 C 32.015625 35.316406 32.175781 35.992188 32.140625 36.667969 C 32.105469 37.3125 31.894531 37.929688 31.722656 38.550781 C 31.394531 39.753906 31.230469 41.066406 31.675781 42.230469 C 31.804688 42.566406 31.984375 42.890625 32.054688 43.25 Z M 32.054688 43.25 " fill-opacity="1" fill-rule="nonzero"/><path fill="#cceddf" d="M 60.8125 65.054688 C 60.761719 64.71875 59.003906 64.199219 58.6875 64.039062 C 56.179688 62.796875 53.050781 63.320312 50.703125 64.84375 C 48.355469 66.367188 46.691406 68.753906 45.425781 71.253906 C 44.394531 73.292969 43.574219 75.472656 42.140625 77.25 C 41.042969 78.605469 39.695312 79.632812 38.101562 80.332031 C 36.027344 81.230469 33.527344 81.417969 31.570312 80.285156 C 29.613281 79.152344 28.515625 76.480469 29.570312 74.480469 C 30.058594 73.546875 30.96875 72.726562 30.898438 71.679688 C 30.808594 70.378906 29.140625 69.6875 27.910156 70.121094 C 26.378906 70.660156 25.476562 72.554688 26.027344 74.085938 C 25.242188 74.53125 24.933594 75.550781 25.0625 76.441406 C 25.191406 77.335938 25.667969 78.132812 26.144531 78.898438 C 25.546875 79.316406 25.453125 80.195312 25.695312 80.882812 C 25.9375 81.570312 26.433594 82.132812 26.851562 82.730469 C 27.363281 83.460938 27.769531 84.277344 28.394531 84.914062 C 29.019531 85.550781 29.960938 85.984375 30.804688 85.707031 C 31.109375 85.605469 31.417969 85.421875 31.71875 85.523438 C 31.917969 85.589844 32.054688 85.773438 32.191406 85.9375 C 33.503906 87.511719 35.957031 87.992188 37.761719 87.027344 C 37.988281 86.910156 38.210938 86.769531 38.460938 86.734375 C 38.6875 86.707031 38.914062 86.769531 39.140625 86.816406 C 41.414062 87.269531 43.894531 85.554688 44.277344 83.265625 C 45.496094 83.8125 47.015625 83.125 47.703125 81.976562 C 48.386719 80.832031 48.371094 79.378906 48 78.097656 C 49.066406 77.609375 49.757812 76.515625 50.042969 75.378906 C 50.328125 74.242188 50.277344 73.046875 50.21875 71.875 C 52.605469 71.265625 54.601562 69.308594 55.257812 66.929688 C 56.492188 66.816406 57.699219 66.578125 58.886719 66.210938 C 59.238281 66.105469 60.890625 65.578125 60.8125 65.054688 Z M 60.8125 65.054688 " fill-opacity="1" fill-rule="nonzero"/><path fill="#cceddf" d="M 88.421875 84.277344 C 87.230469 82.839844 85.726562 81.695312 84.308594 80.480469 C 81.304688 77.898438 78.546875 74.757812 77.585938 70.914062 C 77.292969 69.753906 77.171875 68.542969 76.710938 67.4375 C 76.308594 66.480469 75.222656 64.871094 74.019531 65.484375 C 73.871094 65.558594 73.742188 65.65625 73.632812 65.777344 C 73.949219 65.085938 74.121094 64.363281 74.15625 63.601562 C 74.269531 61.128906 70.71875 63.898438 70.050781 64.703125 C 68.550781 66.527344 67.554688 68.589844 67.058594 70.898438 C 66.722656 72.46875 66.648438 74.085938 66.285156 75.648438 C 65.613281 78.550781 63.933594 81.183594 61.699219 83.148438 C 60.722656 84.003906 59.640625 84.746094 58.71875 85.660156 C 55.878906 88.476562 54.835938 92.964844 56.144531 96.746094 C 56.5625 97.945312 57.242188 99.121094 58.332031 99.765625 C 58.570312 99.90625 58.824219 100.019531 59.085938 100.101562 C 59.351562 100.183594 59.621094 100.238281 59.894531 100.257812 C 60.171875 100.277344 60.445312 100.269531 60.71875 100.226562 C 60.992188 100.183594 61.253906 100.113281 61.511719 100.007812 C 61.769531 99.90625 62.011719 99.777344 62.238281 99.617188 C 62.464844 99.460938 62.667969 99.277344 62.855469 99.074219 C 63.039062 98.867188 63.199219 98.644531 63.332031 98.402344 C 63.46875 98.160156 63.574219 97.90625 63.648438 97.640625 C 63.847656 96.933594 63.808594 96.113281 63.328125 95.558594 C 62.851562 95.003906 61.863281 94.894531 61.414062 95.472656 C 61.335938 94.929688 60.800781 94.550781 60.261719 94.46875 C 59.722656 94.386719 59.179688 94.535156 58.652344 94.683594 C 59.945312 94.136719 60.6875 92.539062 60.273438 91.195312 C 61.195312 90.789062 62.015625 90.230469 62.730469 89.523438 C 63.449219 88.816406 64.019531 88.003906 64.445312 87.089844 C 64.527344 86.90625 64.613281 86.710938 64.765625 86.585938 C 64.902344 86.476562 65.074219 86.429688 65.238281 86.375 C 66.703125 85.890625 67.867188 84.578125 68.171875 83.0625 C 68.503906 82.957031 68.820312 82.808594 69.117188 82.625 C 69.414062 82.441406 69.683594 82.222656 69.925781 81.972656 C 70.171875 81.71875 70.378906 81.441406 70.554688 81.136719 C 70.726562 80.835938 70.863281 80.515625 70.957031 80.175781 C 71.050781 79.839844 71.101562 79.496094 71.109375 79.144531 C 71.121094 78.796875 71.085938 78.449219 71.007812 78.109375 C 70.929688 77.765625 70.8125 77.4375 70.65625 77.125 C 70.496094 76.816406 70.300781 76.527344 70.074219 76.261719 C 70.6875 75.261719 70.9375 74.179688 70.816406 73.011719 C 70.785156 72.71875 70.730469 72.421875 70.78125 72.128906 C 70.824219 71.867188 70.953125 71.628906 71.054688 71.382812 C 71.3125 70.765625 71.394531 70.121094 71.300781 69.457031 C 71.265625 69.21875 71.210938 68.972656 71.277344 68.742188 C 71.359375 68.476562 71.585938 68.289062 71.800781 68.113281 C 72.359375 67.664062 72.832031 67.136719 73.222656 66.535156 C 72.96875 67.335938 73.027344 68.355469 73.097656 68.996094 L 73.535156 72.917969 C 73.601562 73.507812 73.679688 74.128906 74.046875 74.597656 C 74.425781 75.082031 75.09375 75.382812 75.222656 75.984375 C 75.28125 76.25 75.21875 76.523438 75.234375 76.792969 C 75.292969 77.65625 76.125 78.230469 76.875 78.664062 C 77.191406 78.847656 77.515625 79.039062 77.753906 79.320312 C 78.046875 79.660156 78.179688 80.105469 78.367188 80.515625 C 78.667969 81.160156 79.085938 81.714844 79.628906 82.175781 C 80.167969 82.636719 80.78125 82.964844 81.460938 83.15625 C 81.804688 83.253906 82.183594 83.324219 82.417969 83.59375 C 82.617188 83.828125 82.65625 84.15625 82.71875 84.457031 C 82.867188 85.121094 83.15625 85.714844 83.59375 86.242188 C 84.027344 86.765625 84.554688 87.164062 85.179688 87.433594 C 84.523438 89.109375 86.421875 90.839844 86.183594 92.625 C 86.113281 93.144531 85.964844 93.863281 86.457031 94.039062 C 85.320312 94.683594 84.636719 96.050781 84.808594 97.347656 C 84.144531 96.65625 83.339844 96.335938 82.382812 96.394531 C 82.179688 96.410156 81.945312 96.464844 81.851562 96.644531 C 81.789062 96.769531 81.8125 96.917969 81.847656 97.046875 C 82.089844 97.886719 82.933594 98.414062 83.773438 98.636719 C 86.128906 99.257812 88.722656 97.945312 90.007812 95.878906 C 91.296875 93.8125 91.417969 91.167969 90.773438 88.820312 C 90.316406 87.136719 89.53125 85.625 88.421875 84.277344 Z M 88.421875 84.277344 " fill-opacity="1" fill-rule="nonzero"/><path fill="#cceddf" d="M 89.414062 61.425781 C 90.316406 62.246094 91.339844 62.859375 92.488281 63.269531 C 93.636719 63.675781 94.816406 63.847656 96.035156 63.785156 C 97.027344 64.84375 98.777344 65.074219 100.011719 64.3125 C 100.199219 64.195312 100.382812 64.058594 100.601562 64.011719 C 100.964844 63.9375 101.320312 64.140625 101.652344 64.308594 C 103.058594 65.027344 104.847656 65.179688 106.183594 64.335938 C 106.390625 64.207031 106.59375 64.050781 106.835938 64.035156 C 107.082031 64.015625 107.300781 64.144531 107.519531 64.246094 C 109.019531 64.945312 110.941406 64.601562 112.101562 63.421875 C 112.375 63.144531 112.621094 62.820312 112.972656 62.652344 C 113.292969 62.5 113.660156 62.5 114.007812 62.449219 C 115.273438 62.277344 116.414062 61.398438 116.910156 60.222656 C 116.988281 60.03125 117.058594 59.828125 117.207031 59.683594 C 117.386719 59.507812 117.644531 59.453125 117.886719 59.390625 C 118.726562 59.171875 119.539062 58.75 120.089844 58.074219 C 120.644531 57.402344 120.902344 56.457031 120.636719 55.628906 C 121.710938 54.699219 122.347656 53.527344 122.554688 52.121094 C 122.59375 51.832031 122.613281 51.535156 122.722656 51.265625 C 122.84375 50.953125 123.074219 50.699219 123.265625 50.425781 C 124.078125 49.261719 124.207031 47.648438 123.582031 46.371094 C 123.390625 45.976562 123.128906 45.609375 122.980469 45.195312 C 122.710938 44.46875 122.789062 43.664062 122.667969 42.902344 C 122.460938 41.601562 121.691406 40.46875 120.9375 39.386719 C 120.46875 38.707031 119.980469 38.011719 119.296875 37.546875 C 118.882812 37.261719 118.40625 37.074219 118.007812 36.765625 C 117.757812 36.570312 117.542969 36.332031 117.296875 36.128906 C 116.445312 35.417969 115.25 35.179688 114.171875 35.421875 C 113.90625 35.484375 113.632812 35.574219 113.367188 35.519531 C 113.152344 35.480469 112.964844 35.351562 112.769531 35.257812 C 112.429688 35.101562 112.074219 35.03125 111.703125 35.054688 C 111.332031 35.078125 110.984375 35.1875 110.667969 35.386719 C 110.175781 35.703125 109.804688 36.222656 109.242188 36.398438 C 108.921875 36.5 108.574219 36.472656 108.246094 36.539062 C 107.917969 36.613281 107.632812 36.765625 107.390625 36.996094 C 107.148438 37.230469 106.984375 37.507812 106.898438 37.832031 C 106.800781 38.207031 106.832031 38.601562 106.789062 38.984375 C 106.675781 39.957031 106.089844 40.925781 106.398438 41.851562 C 106.625 42.53125 107.367188 43 108.078125 42.914062 C 107.863281 43.585938 108.417969 44.296875 109.074219 44.554688 C 109.730469 44.8125 110.460938 44.761719 111.164062 44.804688 C 112.109375 44.859375 114.527344 45.179688 114.398438 43.5625 C 114.285156 42.148438 112.335938 42.300781 111.40625 42.230469 C 110.390625 42.152344 109.394531 41.601562 108.886719 40.71875 C 108.378906 39.835938 108.433594 38.628906 109.101562 37.859375 C 109.800781 37.066406 110.957031 36.871094 112.011719 36.898438 C 114.191406 36.96875 116.125 37.699219 117.808594 39.09375 C 118.449219 39.625 119.027344 40.257812 119.351562 41.023438 C 119.945312 42.425781 119.601562 44.027344 119.25 45.507812 C 118.800781 47.417969 118.347656 49.328125 117.894531 51.242188 C 117.703125 52.058594 117.5 52.890625 117.054688 53.601562 C 116.488281 54.507812 115.574219 55.132812 114.640625 55.65625 C 112.867188 56.65625 110.957031 57.375 109.027344 58.003906 C 107.320312 58.5625 105.574219 59.050781 103.785156 59.25 C 101.316406 59.523438 98.820312 59.242188 96.335938 59.097656 C 94.25 58.980469 92.15625 58.964844 90.0625 59.050781 C 89.617188 59.070312 89.117188 59.121094 88.832031 59.464844 C 88.351562 60.046875 88.855469 60.914062 89.414062 61.425781 Z M 89.414062 61.425781 " fill-opacity="1" fill-rule="nonzero"/><g clip-path="url(#a5365f9395)"><path fill="#cceddf" d="M 124.230469 88.902344 C 123.890625 88.519531 123.292969 88.539062 122.789062 88.632812 C 121.15625 88.925781 119.601562 89.632812 117.945312 89.757812 C 116.46875 89.871094 114.996094 89.511719 113.578125 89.078125 C 112.234375 88.664062 110.894531 88.167969 109.75 87.347656 C 107.648438 85.839844 106.441406 83.417969 105.105469 81.199219 C 103.304688 78.210938 101.175781 75.476562 98.71875 73 C 96.261719 70.523438 93.550781 68.371094 90.578125 66.546875 C 89.425781 65.839844 88.214844 65.179688 86.894531 64.898438 C 85.9375 64.695312 83.871094 64.542969 83.214844 65.5 C 82.601562 66.390625 83.039062 68.199219 83.542969 69.019531 C 83.859375 69.53125 84.273438 69.945312 84.78125 70.265625 C 85.285156 70.582031 85.839844 70.777344 86.433594 70.839844 C 86.414062 71.648438 87.074219 72.320312 87.777344 72.714844 C 88.480469 73.109375 89.277344 73.347656 89.910156 73.851562 C 90.425781 74.261719 90.796875 74.824219 91.277344 75.273438 C 91.71875 75.6875 92.230469 75.992188 92.800781 76.191406 C 93.375 76.386719 93.960938 76.460938 94.566406 76.40625 C 95.332031 77.925781 96.882812 79.019531 98.570312 79.234375 C 98.398438 81.125 99.679688 83.050781 101.492188 83.621094 C 101.289062 85.851562 102.953125 88.101562 105.140625 88.558594 C 105.246094 89.925781 106.382812 91.144531 107.738281 91.34375 C 108.039062 91.386719 108.359375 91.390625 108.625 91.535156 C 108.894531 91.683594 109.078125 91.964844 109.273438 92.210938 C 110.242188 93.417969 112.011719 93.90625 113.460938 93.363281 C 113.777344 94.148438 114.589844 94.644531 115.417969 94.8125 C 116.246094 94.980469 117.101562 94.875 117.941406 94.765625 L 119.789062 94.523438 C 120.882812 94.378906 122.03125 94.214844 122.90625 93.542969 C 123.953125 92.738281 124.390625 91.347656 124.476562 90.023438 C 124.503906 89.632812 124.492188 89.195312 124.230469 88.902344 Z M 124.230469 88.902344 " fill-opacity="1" fill-rule="nonzero"/></g><g clip-path="url(#a71eb024c9)"><path fill="#ffa500" d="M 124.90625 88.519531 C 124.824219 87.335938 123.804688 86.21875 122.621094 86.253906 C 121.617188 86.289062 120.8125 87.050781 119.945312 87.554688 C 117.972656 88.710938 115.390625 88.535156 113.402344 87.40625 C 111.414062 86.277344 109.992188 84.304688 109.203125 82.15625 C 108.832031 81.136719 108.550781 80.023438 108.144531 79.011719 C 107.761719 77.667969 107.289062 76.367188 106.578125 75.164062 C 105.070312 72.625 102.664062 70.835938 100.265625 69.207031 C 98.148438 67.769531 95.996094 66.417969 94.058594 64.738281 C 92.886719 63.726562 91.753906 62.578125 90.523438 61.589844 C 91.796875 61.800781 93.050781 62.148438 94.304688 62.453125 C 98.628906 63.511719 103.136719 64.097656 107.539062 63.445312 C 111.941406 62.789062 116.257812 60.796875 119.109375 57.375 C 122.242188 53.613281 123.339844 48.25 121.9375 43.558594 C 121.117188 40.824219 119.40625 38.257812 116.882812 36.929688 C 114.359375 35.601562 110.984375 35.75 108.902344 37.699219 C 108.035156 38.511719 107.449219 39.800781 107.667969 40.902344 C 107.644531 42.011719 108.074219 43.113281 109.179688 43.734375 C 110.019531 44.203125 111.089844 44.308594 112.117188 44.355469 C 112.871094 44.386719 113.671875 44.386719 114.324219 44.085938 C 114.980469 43.789062 115.40625 43.085938 115.039062 42.5625 C 114.558594 41.871094 113.289062 41.988281 112.363281 41.703125 C 111.222656 41.347656 110.726562 40.28125 110.917969 39.308594 C 111.503906 39.039062 112.121094 38.941406 112.761719 39.019531 C 114.882812 39.269531 116.628906 41.039062 117.253906 43.085938 C 117.878906 45.132812 117.503906 47.378906 116.636719 49.335938 C 114.714844 53.648438 110.273438 56.722656 105.566406 57 C 102 57.210938 98.535156 55.949219 95.09375 54.984375 C 94.160156 54.722656 93.179688 54.472656 92.175781 54.28125 C 92.609375 53.785156 93.035156 53.285156 93.453125 52.777344 C 96.941406 48.566406 100.238281 43.832031 102.042969 38.039062 C 102.65625 36.070312 103.089844 33.980469 103.148438 31.847656 C 103.210938 29.546875 102.835938 27.253906 102.25 25.089844 C 100.890625 20.089844 98.371094 15.648438 95.082031 12.644531 C 93.855469 11.523438 92.511719 10.589844 91.0625 10.121094 C 89.832031 9.722656 85.867188 8.617188 82.785156 8.695312 C 77.726562 8.820312 76.082031 9.238281 71.394531 11.78125 C 66.707031 14.320312 64.230469 17.089844 61.117188 22.40625 C 60.207031 23.957031 58.375 29.113281 57.992188 31.015625 C 57.542969 33.238281 57.734375 38.597656 57.992188 40.875 C 58.402344 44.503906 58.796875 46.78125 59.476562 49.605469 C 57.238281 49.460938 54.917969 49.792969 52.695312 49.917969 C 49.953125 50.074219 47.015625 49.855469 44.796875 48.234375 C 42.972656 46.902344 41.875 44.792969 41.101562 42.664062 C 40.121094 39.972656 39.558594 37.011719 40.28125 34.238281 C 40.738281 32.476562 41.8125 30.824219 43.261719 29.765625 C 43.804688 29.730469 44.339844 29.757812 44.875 29.851562 C 45.867188 30.027344 46.964844 30.625 47.046875 31.628906 C 47.070312 31.929688 46.996094 32.234375 46.925781 32.535156 C 46.792969 33.097656 46.683594 33.683594 46.785156 34.25 C 46.890625 34.820312 47.257812 35.375 47.8125 35.542969 C 48.191406 35.65625 48.605469 35.578125 48.972656 35.421875 C 50.628906 34.71875 51.296875 32.585938 50.878906 30.832031 C 50.5 29.242188 49.730469 28.007812 48.695312 27.160156 C 47.835938 26.359375 46.664062 25.914062 45.496094 25.730469 C 41.964844 25.175781 38.179688 26.949219 36.339844 30.015625 C 35.164062 31.976562 34.769531 34.300781 34.535156 36.574219 C 34.128906 40.527344 34.148438 44.628906 35.558594 48.347656 C 36.96875 52.0625 39.972656 55.351562 43.84375 56.242188 C 45.75 56.679688 47.734375 56.527344 49.691406 56.484375 C 52.613281 56.425781 55.515625 56.625 58.402344 57.078125 C 56.109375 57.273438 53.859375 57.867188 52.335938 58.496094 C 47.992188 60.292969 44.429688 63.910156 42.699219 68.289062 C 41.847656 70.4375 41.425781 72.742188 40.523438 74.867188 C 39.648438 76.929688 38.1875 78.902344 36.097656 79.65625 C 35.183594 79.609375 34.292969 79.410156 33.5 78.957031 C 31.996094 78.101562 31.058594 76.0625 31.917969 74.558594 C 32.171875 74.109375 32.558594 73.738281 32.738281 73.257812 C 33.070312 72.359375 32.511719 71.285156 31.644531 70.890625 C 30.773438 70.496094 29.710938 70.707031 28.9375 71.269531 C 28.164062 71.832031 27.652344 72.691406 27.335938 73.59375 C 26.441406 76.125 27.035156 79.121094 28.820312 81.125 C 28.917969 81.238281 29.03125 81.351562 29.152344 81.460938 C 29.75 82.261719 30.464844 82.945312 31.289062 83.507812 C 33.695312 85.136719 36.804688 85.683594 39.621094 84.972656 C 42.433594 84.261719 44.914062 82.304688 46.261719 79.730469 C 47.097656 78.132812 47.5 76.351562 48.105469 74.65625 C 49.042969 72.039062 50.5 69.566406 52.574219 67.714844 C 54.644531 65.863281 57.363281 64.675781 60.140625 64.71875 C 60.285156 64.71875 60.4375 64.726562 60.589844 64.738281 C 58.871094 68.472656 59.660156 74.253906 59.519531 77.832031 C 59.496094 78.386719 59.472656 78.949219 59.390625 79.5 C 58.671875 80.863281 57.523438 81.941406 56.484375 83.082031 C 55.175781 84.515625 54.027344 86.066406 53.039062 87.738281 C 52.707031 88.285156 52.414062 88.855469 52.167969 89.441406 C 51.621094 90.546875 51.253906 91.707031 51.0625 92.921875 C 50.554688 96.257812 51.847656 99.988281 54.738281 101.714844 C 57.628906 103.445312 62.007812 102.457031 63.34375 99.359375 C 63.785156 98.34375 63.78125 96.957031 62.855469 96.351562 C 61.761719 95.632812 60.253906 96.507812 59.003906 96.117188 C 57.695312 95.707031 57.183594 94.003906 57.589844 92.695312 C 57.996094 91.386719 59.046875 90.390625 60.050781 89.460938 L 66.882812 83.152344 C 67.609375 82.480469 68.351562 81.792969 68.816406 80.917969 C 69.621094 79.417969 69.492188 77.613281 69.394531 75.910156 C 69.273438 73.738281 69.269531 71.433594 69.839844 69.359375 C 70.316406 68.449219 70.886719 67.597656 71.546875 66.8125 C 72.121094 66.136719 72.996094 65.542969 73.855469 64.921875 C 73.835938 64.988281 73.820312 65.050781 73.804688 65.117188 C 73.410156 66.644531 73.300781 68.191406 73.476562 69.761719 C 73.652344 71.328125 74.097656 72.816406 74.820312 74.21875 C 75.40625 75.351562 76.148438 76.378906 76.980469 77.339844 C 77.621094 78.164062 78.304688 78.878906 78.980469 79.429688 C 81.777344 82.140625 84.910156 84.613281 86.488281 88.132812 C 87.339844 90.046875 87.664062 92.046875 87.460938 94.128906 C 87.417969 94.5625 87.34375 94.988281 87.242188 95.414062 C 86.984375 95.84375 86.683594 96.238281 86.339844 96.605469 C 85.527344 97.464844 83.988281 98.054688 83.285156 97.109375 C 82.953125 96.664062 82.972656 96.050781 82.761719 95.539062 C 82.148438 94.058594 79.730469 94.144531 78.839844 95.476562 C 77.945312 96.808594 78.339844 98.675781 79.289062 99.96875 C 79.777344 100.625 80.367188 101.167969 81.0625 101.597656 C 82.1875 102.546875 83.761719 102.996094 85.246094 102.863281 C 87.308594 102.675781 89.1875 101.539062 90.675781 100.097656 C 93.160156 97.703125 94.777344 94.164062 94.101562 90.777344 C 92.996094 85.25 86.671875 82.421875 84.101562 77.402344 C 82.386719 74.058594 82.519531 70.105469 82.933594 66.359375 C 83.277344 66.871094 83.648438 67.367188 84.050781 67.835938 C 86.015625 70.175781 88.292969 72.148438 90.890625 73.757812 C 94.140625 75.773438 97.886719 77.203125 100.367188 80.117188 C 102.089844 82.144531 103.042969 84.71875 104.613281 86.871094 C 107.511719 90.847656 112.410156 93.089844 117.3125 93.414062 C 118.949219 93.519531 120.65625 93.414062 122.101562 92.644531 C 122.769531 92.289062 123.324219 91.800781 123.765625 91.183594 C 124.492188 90.484375 124.976562 89.515625 124.90625 88.519531 Z M 124.90625 88.519531 " fill-opacity="1" fill-rule="nonzero"/></g><path fill="#172951" d="M 70.367188 46.40625 C 70.367188 46.726562 70.328125 47.035156 70.25 47.328125 C 70.171875 47.625 70.0625 47.886719 69.917969 48.113281 C 69.773438 48.339844 69.605469 48.515625 69.417969 48.636719 C 69.230469 48.757812 69.03125 48.820312 68.828125 48.820312 C 68.625 48.820312 68.429688 48.757812 68.238281 48.636719 C 68.050781 48.515625 67.882812 48.339844 67.738281 48.113281 C 67.597656 47.886719 67.484375 47.625 67.40625 47.328125 C 67.328125 47.035156 67.289062 46.726562 67.289062 46.40625 C 67.289062 46.085938 67.328125 45.777344 67.40625 45.480469 C 67.484375 45.183594 67.597656 44.921875 67.738281 44.695312 C 67.882812 44.46875 68.050781 44.296875 68.238281 44.171875 C 68.429688 44.050781 68.625 43.988281 68.828125 43.988281 C 69.03125 43.988281 69.230469 44.050781 69.417969 44.171875 C 69.605469 44.296875 69.773438 44.46875 69.917969 44.695312 C 70.0625 44.921875 70.171875 45.183594 70.25 45.480469 C 70.328125 45.777344 70.367188 46.085938 70.367188 46.40625 Z M 70.367188 46.40625 " fill-opacity="1" fill-rule="nonzero"/><path fill="#172951" d="M 85.347656 47.207031 C 85.535156 47.285156 85.695312 47.414062 85.824219 47.601562 C 85.949219 47.785156 86.039062 48.011719 86.085938 48.273438 C 86.132812 48.539062 86.136719 48.824219 86.097656 49.125 C 86.058594 49.429688 85.976562 49.730469 85.855469 50.027344 C 85.734375 50.324219 85.582031 50.59375 85.394531 50.835938 C 85.210938 51.082031 85.007812 51.28125 84.789062 51.433594 C 84.570312 51.589844 84.351562 51.6875 84.128906 51.730469 C 83.90625 51.769531 83.703125 51.753906 83.515625 51.675781 C 83.324219 51.597656 83.167969 51.464844 83.039062 51.28125 C 82.910156 51.09375 82.824219 50.871094 82.777344 50.605469 C 82.726562 50.339844 82.722656 50.058594 82.765625 49.753906 C 82.804688 49.449219 82.886719 49.152344 83.007812 48.855469 C 83.128906 48.558594 83.28125 48.289062 83.464844 48.042969 C 83.652344 47.800781 83.851562 47.601562 84.070312 47.445312 C 84.292969 47.292969 84.511719 47.191406 84.734375 47.152344 C 84.953125 47.109375 85.160156 47.128906 85.347656 47.207031 Z M 85.347656 47.207031 " fill-opacity="1" fill-rule="nonzero"/><path fill="#172951" d="M 73.136719 49.332031 C 73.558594 49.96875 74.105469 50.46875 74.773438 50.839844 C 75.511719 51.242188 76.304688 51.429688 77.144531 51.398438 C 77.988281 51.367188 78.765625 51.128906 79.476562 50.675781 C 79.609375 50.589844 79.675781 50.402344 79.582031 50.261719 C 79.5 50.128906 79.3125 50.058594 79.171875 50.152344 C 79.078125 50.214844 78.980469 50.269531 78.882812 50.324219 C 78.804688 50.363281 78.726562 50.402344 78.648438 50.441406 L 78.582031 50.46875 C 78.558594 50.476562 78.472656 50.511719 78.578125 50.472656 C 78.527344 50.492188 78.472656 50.515625 78.417969 50.535156 C 78.183594 50.621094 77.941406 50.691406 77.695312 50.738281 C 77.632812 50.75 77.570312 50.761719 77.507812 50.769531 C 77.484375 50.773438 77.4375 50.777344 77.523438 50.769531 C 77.503906 50.769531 77.484375 50.777344 77.464844 50.777344 L 77.351562 50.789062 C 77.195312 50.804688 77.042969 50.808594 76.886719 50.808594 C 76.808594 50.808594 76.730469 50.800781 76.652344 50.796875 C 76.609375 50.792969 76.566406 50.789062 76.523438 50.785156 L 76.46875 50.777344 C 76.386719 50.769531 76.511719 50.785156 76.449219 50.777344 C 76.289062 50.753906 76.128906 50.722656 75.972656 50.679688 C 75.828125 50.644531 75.691406 50.597656 75.550781 50.546875 L 75.464844 50.511719 C 75.449219 50.503906 75.390625 50.476562 75.472656 50.511719 C 75.453125 50.503906 75.4375 50.5 75.421875 50.492188 C 75.355469 50.460938 75.292969 50.433594 75.230469 50.402344 C 75.007812 50.289062 74.800781 50.160156 74.601562 50.015625 C 74.578125 49.996094 74.550781 49.980469 74.53125 49.960938 C 74.613281 50.023438 74.539062 49.96875 74.519531 49.953125 C 74.476562 49.917969 74.433594 49.882812 74.390625 49.84375 C 74.3125 49.777344 74.238281 49.707031 74.164062 49.636719 C 74.035156 49.507812 73.914062 49.375 73.800781 49.230469 C 73.78125 49.207031 73.730469 49.140625 73.804688 49.238281 L 73.777344 49.203125 C 73.761719 49.179688 73.742188 49.15625 73.726562 49.132812 C 73.703125 49.097656 73.679688 49.0625 73.65625 49.03125 C 73.570312 48.898438 73.386719 48.828125 73.246094 48.921875 C 73.113281 49.007812 73.042969 49.195312 73.136719 49.335938 Z M 73.136719 49.332031 " fill-opacity="1" fill-rule="nonzero"/><path fill="#bf3434" d="M 55.628906 50.433594 C 55.5 50.5 55.367188 50.636719 55.433594 50.765625 C 55.453125 50.800781 55.480469 50.828125 55.515625 50.851562 C 55.742188 51.011719 56.019531 51.089844 56.289062 51.152344 C 56.558594 51.222656 56.832031 51.257812 57.109375 51.253906 C 57.316406 51.242188 57.519531 51.207031 57.722656 51.160156 C 58.363281 51.015625 58.753906 50.324219 57.898438 50.242188 C 57.148438 50.167969 56.320312 50.066406 55.628906 50.433594 Z M 55.628906 50.433594 " fill-opacity="1" fill-rule="nonzero"/><path fill="#bf3434" d="M 53.878906 51.734375 C 53.804688 51.753906 53.730469 51.785156 53.6875 51.847656 C 53.628906 51.945312 53.691406 52.078125 53.789062 52.140625 C 53.886719 52.199219 54.003906 52.203125 54.117188 52.207031 C 54.367188 52.214844 55.390625 52.429688 55.144531 51.996094 C 54.914062 51.59375 54.242188 51.636719 53.878906 51.734375 Z M 53.878906 51.734375 " fill-opacity="1" fill-rule="nonzero"/><path fill="#bf3434" d="M 113.21875 54.664062 C 113.167969 54.757812 113.128906 54.875 113.167969 54.980469 C 113.199219 55.050781 113.246094 55.101562 113.316406 55.136719 C 113.53125 55.253906 113.800781 55.15625 113.992188 55.007812 C 114.183594 54.859375 114.335938 54.65625 114.535156 54.519531 C 114.671875 54.429688 114.832031 54.363281 114.921875 54.226562 C 115.023438 54.082031 115.128906 53.691406 114.949219 53.558594 C 114.785156 53.4375 114.546875 53.625 114.414062 53.710938 C 114.019531 53.972656 113.457031 54.238281 113.21875 54.664062 Z M 113.21875 54.664062 " fill-opacity="1" fill-rule="nonzero"/><path fill="#bf3434" d="M 115.53125 52.597656 C 115.515625 52.902344 115.519531 53.207031 115.539062 53.511719 C 115.539062 53.558594 115.542969 53.605469 115.554688 53.652344 C 115.605469 53.816406 115.808594 53.902344 115.976562 53.867188 C 116.144531 53.828125 116.277344 53.6875 116.34375 53.527344 C 116.414062 53.371094 116.4375 53.195312 116.453125 53.023438 C 116.460938 52.847656 116.488281 52.679688 116.542969 52.511719 C 116.671875 52.160156 117.203125 51.386719 116.46875 51.363281 C 115.808594 51.339844 115.5625 52.0625 115.53125 52.597656 Z M 115.53125 52.597656 " fill-opacity="1" fill-rule="nonzero"/><path fill="#bf3434" d="M 101.933594 72.171875 C 102.125 72.34375 102.289062 72.535156 102.425781 72.75 C 102.519531 72.894531 102.597656 73.050781 102.738281 73.152344 C 102.914062 73.28125 103.101562 73.296875 103.296875 73.203125 C 103.492188 73.105469 103.59375 72.945312 103.597656 72.726562 C 103.609375 72.402344 103.335938 72.144531 103.082031 71.9375 C 102.785156 71.6875 102.339844 71.140625 101.898438 71.261719 C 101.355469 71.414062 101.65625 71.933594 101.933594 72.171875 Z M 101.933594 72.171875 " fill-opacity="1" fill-rule="nonzero"/><path fill="#bf3434" d="M 99.648438 69.933594 C 99.601562 70.085938 99.707031 70.234375 99.816406 70.347656 C 100.132812 70.667969 100.503906 70.890625 100.9375 71.015625 C 101.019531 71.042969 101.101562 71.054688 101.1875 71.050781 C 101.28125 71.042969 101.347656 71 101.394531 70.921875 C 101.410156 70.878906 101.421875 70.832031 101.421875 70.785156 C 101.453125 70.34375 101.121094 70.097656 100.746094 69.933594 C 100.488281 69.820312 99.773438 69.539062 99.648438 69.933594 Z M 99.648438 69.933594 " fill-opacity="1" fill-rule="nonzero"/><path fill="#bf3434" d="M 99.667969 23.300781 C 99.566406 22.070312 97.71875 14.859375 95.296875 16.882812 C 94.90625 17.207031 94.929688 17.832031 95.175781 18.273438 C 95.425781 18.714844 95.84375 19.03125 96.207031 19.378906 C 97.082031 20.222656 97.636719 21.238281 97.882812 22.425781 C 97.984375 22.917969 98.035156 23.449219 98.347656 23.832031 C 98.664062 24.21875 99.386719 24.300781 99.609375 23.851562 C 99.691406 23.683594 99.683594 23.488281 99.667969 23.300781 Z M 99.667969 23.300781 " fill-opacity="1" fill-rule="nonzero"/><path fill="#bf3434" d="M 102.132812 27.660156 C 102.070312 26.574219 100.984375 25.394531 100.097656 26.664062 C 99.523438 27.484375 99.585938 28.578125 99.671875 29.578125 C 99.832031 31.433594 99.988281 33.289062 100.148438 35.144531 C 100.5 35.289062 100.917969 35.109375 101.160156 34.816406 C 101.402344 34.527344 101.507812 34.144531 101.59375 33.773438 C 102.066406 31.761719 102.246094 29.722656 102.132812 27.660156 Z M 102.132812 27.660156 " fill-opacity="1" fill-rule="nonzero"/><path fill="#bf3434" d="M 96.121094 24.792969 C 95.476562 25.066406 95.753906 26.144531 95.882812 26.648438 C 96.027344 27.195312 96.179688 27.742188 96.34375 28.28125 C 96.40625 28.484375 96.511719 28.722656 96.722656 28.746094 C 96.808594 28.75 96.890625 28.730469 96.96875 28.683594 C 97.433594 28.449219 97.726562 27.949219 97.804688 27.429688 C 97.878906 26.914062 97.757812 26.386719 97.558594 25.902344 C 97.363281 25.417969 96.789062 24.507812 96.121094 24.792969 Z M 96.121094 24.792969 " fill-opacity="1" fill-rule="nonzero"/><path fill="#bf3434" d="M 63.636719 22.972656 C 64.113281 22.375 64.050781 21.230469 63.058594 21.460938 C 62.371094 21.625 61.683594 22.910156 61.347656 23.46875 C 60.859375 24.277344 60.507812 25.195312 60.488281 26.144531 C 60.484375 26.292969 60.492188 26.449219 60.578125 26.570312 C 60.695312 26.738281 60.929688 26.78125 61.125 26.722656 C 61.316406 26.664062 61.472656 26.519531 61.597656 26.363281 C 62.222656 25.597656 62.328125 24.515625 62.941406 23.738281 C 63.152344 23.46875 63.421875 23.242188 63.636719 22.972656 Z M 63.636719 22.972656 " fill-opacity="1" fill-rule="nonzero"/><path fill="#bf3434" d="M 65.136719 18.390625 C 64.90625 18.617188 64.683594 18.871094 64.570312 19.179688 C 64.472656 19.457031 64.472656 19.757812 64.472656 20.054688 C 64.472656 20.386719 64.472656 20.714844 64.472656 21.046875 C 64.472656 21.347656 64.472656 21.652344 64.570312 21.933594 C 64.671875 22.214844 64.886719 22.476562 65.179688 22.539062 C 65.503906 22.609375 65.839844 22.421875 66.042969 22.15625 C 66.242188 21.894531 66.339844 21.566406 66.429688 21.25 L 66.953125 19.410156 C 67.066406 19.019531 67.578125 17.984375 67.457031 17.597656 C 67.089844 16.507812 65.5625 17.976562 65.136719 18.390625 Z M 65.136719 18.390625 " fill-opacity="1" fill-rule="nonzero"/><path fill="#bf3434" d="M 64.460938 23.84375 C 63.890625 23.667969 62.660156 25.957031 62.898438 26.195312 C 63.167969 26.46875 63.644531 26.417969 63.953125 26.1875 C 64.410156 25.851562 65.484375 24.160156 64.460938 23.84375 Z M 64.460938 23.84375 " fill-opacity="1" fill-rule="nonzero"/></svg>