<svg xmlns="http://www.w3.org/2000/svg" xmlns:xlink="http://www.w3.org/1999/xlink" width="200" zoomAndPan="magnify" viewBox="0 0 150 112.499997" height="150" preserveAspectRatio="xMidYMid meet" version="1.0"><defs><clipPath id="b89e8e1c29"><path d="M 54 84 L 79 84 L 79 100.800781 L 54 100.800781 Z M 54 84 " clip-rule="nonzero"/></clipPath><clipPath id="e3c00900d1"><path d="M 58 88 L 73 88 L 73 100.800781 L 58 100.800781 Z M 58 88 " clip-rule="nonzero"/></clipPath><clipPath id="75c21f53b9"><path d="M 97 11.199219 L 98 11.199219 L 98 12 L 97 12 Z M 97 11.199219 " clip-rule="nonzero"/></clipPath><clipPath id="12e85d4869"><path d="M 22.523438 45 L 57 45 L 57 86 L 22.523438 86 Z M 22.523438 45 " clip-rule="nonzero"/></clipPath><clipPath id="a2aecddf16"><path d="M 95 11.199219 L 107 11.199219 L 107 45 L 95 45 Z M 95 11.199219 " clip-rule="nonzero"/></clipPath><clipPath id="a4f336e3f2"><path d="M 85 11.199219 L 97 11.199219 L 97 26 L 85 26 Z M 85 11.199219 " clip-rule="nonzero"/></clipPath><clipPath id="3ced1f42a2"><path d="M 126 54 L 127.808594 54 L 127.808594 61 L 126 61 Z M 126 54 " clip-rule="nonzero"/></clipPath><clipPath id="197a7ca9b9"><path d="M 113 37 L 127.808594 37 L 127.808594 55 L 113 55 Z M 113 37 " clip-rule="nonzero"/></clipPath><clipPath id="223d41077c"><path d="M 115 60 L 127.808594 60 L 127.808594 69 L 115 69 Z M 115 60 " clip-rule="nonzero"/></clipPath><clipPath id="062eebb13a"><path d="M 115 52 L 127.808594 52 L 127.808594 56 L 115 56 Z M 115 52 " clip-rule="nonzero"/></clipPath><clipPath id="7e680a76f4"><path d="M 115 48 L 127.808594 48 L 127.808594 51 L 115 51 Z M 115 48 " clip-rule="nonzero"/></clipPath><clipPath id="ce43b9bd96"><path d="M 115 56 L 127.808594 56 L 127.808594 61 L 115 61 Z M 115 56 " clip-rule="nonzero"/></clipPath></defs><g clip-path="url(#b89e8e1c29)"><path fill="#4ba2c2" d="M 67.042969 90.011719 C 63.496094 88.988281 60.035156 87.742188 56.882812 86 C 56.128906 85.585938 55.394531 85.140625 54.679688 84.664062 C 55.152344 86.671875 55.753906 88.664062 56.488281 90.59375 C 57.199219 92.472656 58.152344 94.59375 59.789062 96.074219 C 61.3125 97.453125 63.007812 97.933594 64.625 97.460938 C 64.1875 96.945312 63.785156 96.417969 63.414062 95.914062 C 61.820312 93.769531 60.328125 91.507812 58.882812 89.324219 C 58.769531 89.152344 58.816406 88.921875 58.988281 88.808594 C 59.160156 88.695312 59.390625 88.742188 59.503906 88.914062 C 60.941406 91.09375 62.429688 93.347656 64.011719 95.472656 C 64.96875 96.761719 66.109375 98.21875 67.585938 99.203125 C 68.347656 99.714844 69.492188 100.265625 70.625 99.992188 C 71.167969 99.863281 71.59375 99.578125 71.796875 99.214844 C 71.960938 98.917969 71.976562 98.582031 71.851562 98.214844 C 71.835938 98.171875 71.835938 98.132812 71.835938 98.09375 C 68.785156 96.640625 66.003906 94.003906 63.355469 90.050781 C 63.242188 89.878906 63.285156 89.648438 63.457031 89.535156 C 63.628906 89.421875 63.859375 89.46875 63.972656 89.636719 C 66.734375 93.761719 69.625 96.402344 72.804688 97.714844 C 72.980469 97.789062 73.1875 97.882812 73.421875 97.992188 C 75.269531 98.851562 77.3125 99.632812 78.128906 98.074219 C 78.378906 97.59375 78.53125 96.933594 78.546875 96.230469 C 78.144531 96.125 77.734375 95.984375 77.320312 95.796875 C 75.15625 94.832031 73.515625 93.035156 72.195312 91.40625 L 72.152344 91.351562 C 71.042969 91.082031 69.933594 90.800781 68.828125 90.5 C 68.226562 90.34375 67.628906 90.183594 67.042969 90.011719 " fill-opacity="1" fill-rule="nonzero"/></g><path fill="#221f2d" d="M 64.625 97.460938 C 63.007812 97.933594 61.3125 97.453125 59.789062 96.074219 C 58.152344 94.59375 57.199219 92.472656 56.488281 90.59375 C 55.753906 88.664062 55.152344 86.671875 54.679688 84.664062 C 54.371094 84.460938 54.066406 84.246094 53.765625 84.03125 L 53.785156 84.117188 C 54.28125 86.402344 54.957031 88.667969 55.792969 90.859375 C 56.535156 92.816406 57.535156 95.035156 59.289062 96.625 C 60.578125 97.789062 61.988281 98.386719 63.398438 98.386719 C 63.988281 98.386719 64.578125 98.273438 65.160156 98.0625 C 64.976562 97.863281 64.796875 97.664062 64.625 97.460938 " fill-opacity="1" fill-rule="nonzero"/><g clip-path="url(#e3c00900d1)"><path fill="#221f2d" d="M 71.835938 98.09375 C 71.835938 98.132812 71.835938 98.171875 71.851562 98.214844 C 71.976562 98.582031 71.960938 98.917969 71.796875 99.214844 C 71.59375 99.578125 71.167969 99.863281 70.625 99.992188 C 69.492188 100.265625 68.347656 99.714844 67.585938 99.203125 C 66.109375 98.21875 64.96875 96.761719 64.011719 95.472656 C 62.429688 93.347656 60.941406 91.09375 59.503906 88.914062 C 59.390625 88.742188 59.160156 88.695312 58.988281 88.808594 C 58.816406 88.921875 58.769531 89.152344 58.882812 89.324219 C 60.328125 91.507812 61.820312 93.769531 63.414062 95.914062 C 63.785156 96.417969 64.1875 96.945312 64.625 97.460938 C 64.796875 97.664062 64.976562 97.863281 65.160156 98.0625 C 65.757812 98.707031 66.417969 99.316406 67.171875 99.820312 C 67.886719 100.296875 68.90625 100.804688 70.007812 100.804688 C 70.269531 100.804688 70.535156 100.777344 70.800781 100.714844 C 71.558594 100.53125 72.144531 100.125 72.449219 99.570312 C 72.636719 99.230469 72.707031 98.855469 72.664062 98.464844 C 72.617188 98.441406 72.566406 98.417969 72.523438 98.402344 C 72.292969 98.304688 72.0625 98.203125 71.835938 98.09375 " fill-opacity="1" fill-rule="nonzero"/></g><path fill="#221f2d" d="M 78.546875 96.230469 C 78.53125 96.933594 78.378906 97.59375 78.128906 98.074219 C 77.3125 99.632812 75.269531 98.851562 73.421875 97.992188 C 73.1875 97.882812 72.980469 97.789062 72.804688 97.714844 C 69.625 96.402344 66.734375 93.761719 63.972656 89.636719 C 63.859375 89.46875 63.628906 89.421875 63.457031 89.535156 C 63.285156 89.648438 63.242188 89.878906 63.355469 90.050781 C 66.003906 94.003906 68.785156 96.640625 71.835938 98.09375 C 72.0625 98.203125 72.292969 98.304688 72.523438 98.402344 C 72.566406 98.417969 72.617188 98.441406 72.664062 98.464844 C 72.796875 98.523438 72.945312 98.589844 73.109375 98.664062 C 74.015625 99.085938 75.375 99.71875 76.59375 99.71875 C 77.472656 99.71875 78.277344 99.386719 78.789062 98.417969 C 79.070312 97.875 79.25 97.152344 79.28125 96.382812 C 79.039062 96.347656 78.792969 96.296875 78.546875 96.230469 " fill-opacity="1" fill-rule="nonzero"/><g clip-path="url(#75c21f53b9)"><path fill="#f4de6c" d="M 97.730469 11.738281 C 97.78125 11.730469 97.835938 11.71875 97.886719 11.710938 C 97.835938 11.71875 97.78125 11.730469 97.730469 11.738281 " fill-opacity="1" fill-rule="nonzero"/></g><path fill="#f4de6c" d="M 115.019531 61.394531 L 115.015625 61.394531 C 114.816406 61.34375 114.699219 61.140625 114.75 60.945312 C 115.925781 56.371094 115.65625 51.417969 113.984375 47 C 113.914062 46.808594 114.007812 46.59375 114.203125 46.519531 C 114.253906 46.5 114.3125 46.496094 114.363281 46.5 C 114.207031 45.953125 114.058594 45.390625 113.945312 44.847656 C 113.871094 44.828125 113.808594 44.792969 113.757812 44.734375 C 113.625 44.578125 113.644531 44.34375 113.800781 44.210938 L 113.808594 44.203125 C 110.539062 46.125 105.664062 48.679688 101.132812 45.101562 C 100.957031 44.960938 100.785156 44.804688 100.628906 44.644531 C 100.113281 44.414062 99.632812 44.109375 99.214844 43.753906 C 96.179688 41.1875 95.316406 36.761719 95.949219 32.839844 C 96.574219 28.917969 98.441406 25.332031 100.085938 21.714844 C 100.679688 20.402344 101.253906 19.058594 101.394531 17.628906 C 101.527344 16.199219 101.164062 14.648438 100.121094 13.664062 C 99.148438 12.742188 97.757812 12.441406 96.421875 12.300781 C 97.117188 16.316406 96.839844 20.496094 95.605469 24.382812 C 96.421875 24.324219 97.234375 24.289062 98.039062 24.277344 L 98.042969 24.277344 C 98.25 24.277344 98.414062 24.4375 98.417969 24.640625 C 98.417969 24.84375 98.253906 25.015625 98.050781 25.015625 C 97.15625 25.03125 96.257812 25.070312 95.351562 25.140625 C 95.335938 25.1875 95.320312 25.238281 95.304688 25.289062 C 94.246094 28.222656 92.664062 30.945312 91.488281 33.835938 C 90.320312 36.734375 89.570312 39.933594 90.296875 42.96875 C 91.078125 46.257812 93.488281 48.957031 94.425781 52.210938 C 95.882812 57.289062 93.527344 62.777344 94.433594 67.980469 C 95.253906 72.65625 98.566406 76.449219 100.820312 80.636719 C 102.601562 79.726562 104.34375 78.730469 106.042969 77.65625 C 106.21875 77.546875 106.449219 77.597656 106.558594 77.769531 C 106.667969 77.941406 106.617188 78.171875 106.441406 78.28125 C 104.722656 79.367188 102.960938 80.375 101.164062 81.296875 C 101.761719 82.484375 102.265625 83.710938 102.589844 85 C 103.148438 87.222656 103.15625 89.476562 102.785156 91.710938 C 105.328125 91.175781 107.582031 90.5 109.335938 89.714844 C 111.21875 88.878906 112.824219 85.851562 111.414062 82.273438 C 109.15625 76.550781 103.195312 74 100.5 68.277344 C 97.496094 61.878906 102.472656 59.003906 105.449219 59.003906 C 109.003906 59.003906 112.082031 60.523438 114.898438 62.390625 C 114.886719 62.101562 114.945312 61.804688 114.996094 61.523438 C 115.003906 61.480469 115.011719 61.4375 115.019531 61.394531 " fill-opacity="1" fill-rule="nonzero"/><path fill="#f4de6c" d="M 68.214844 33.714844 C 68.238281 33.089844 68.234375 32.460938 68.195312 31.832031 C 67.996094 28.636719 66.804688 26.289062 65.050781 23.839844 C 61.523438 26.132812 58.578125 28.675781 56.636719 31.402344 C 55.648438 32.789062 54.660156 34.375 53.671875 36.082031 C 54.949219 37.683594 55.9375 39.523438 56.640625 41.484375 C 60.289062 38.785156 64.132812 36.121094 68.214844 33.714844 " fill-opacity="1" fill-rule="nonzero"/><path fill="#f4de6c" d="M 72.441406 51.433594 C 74.269531 54.359375 77.460938 56.15625 79.671875 58.816406 C 81.925781 61.53125 83.046875 65.148438 82.734375 68.660156 C 82.339844 73.121094 79.777344 77.125 79.027344 81.539062 C 80.820312 81.648438 82.625 81.597656 84.390625 81.542969 L 88.449219 81.414062 C 88.875 81.398438 89.410156 81.382812 89.890625 81.597656 C 90.75 81.984375 91.117188 82.945312 91.097656 83.726562 C 91.089844 84.082031 91.011719 84.425781 90.902344 84.746094 C 91.441406 84.570312 91.976562 84.394531 92.507812 84.207031 C 92.242188 82.980469 91.8125 81.679688 91.132812 80.324219 C 88.945312 75.96875 89.703125 70.039062 90.714844 66.238281 C 91.59375 62.960938 91.226562 59.367188 89.703125 56.332031 C 88.738281 54.398438 87.324219 52.699219 86.417969 50.742188 C 84.402344 46.382812 85.078125 41.277344 86.261719 36.628906 C 87.148438 33.136719 88.300781 29.65625 88.75 26.109375 C 84.167969 27.097656 79.476562 28.75 74.714844 31.0625 C 73.535156 34.078125 72.167969 37.035156 71.371094 40.171875 C 70.425781 43.929688 70.398438 48.140625 72.441406 51.433594 " fill-opacity="1" fill-rule="nonzero"/><path fill="#f4de6c" d="M 75.386719 29.269531 C 75.292969 29.53125 75.195312 29.789062 75.097656 30.050781 C 79.753906 27.851562 84.347656 26.277344 88.835938 25.332031 C 88.925781 24.40625 88.964844 23.472656 88.929688 22.535156 C 88.8125 19.28125 87.679688 16.8125 85.925781 14.539062 C 82.777344 15.5 79.542969 16.648438 76.398438 17.960938 C 77.445312 21.660156 76.667969 25.640625 75.386719 29.269531 " fill-opacity="1" fill-rule="nonzero"/><path fill="#f4de6c" d="M 67.953125 78.804688 C 68.457031 78.484375 68.945312 78.511719 69.53125 78.726562 C 69.542969 78.660156 69.5625 78.597656 69.609375 78.546875 C 69.652344 78.496094 69.707031 78.464844 69.765625 78.445312 C 70.71875 75.886719 71.910156 73.398438 72.300781 70.699219 C 72.648438 68.253906 72.316406 65.710938 71.332031 63.441406 C 69.503906 59.222656 65.523438 55.917969 64.855469 51.375 C 64.417969 48.417969 65.472656 45.480469 66.378906 42.632812 C 67.21875 40.019531 67.945312 37.328125 68.164062 34.609375 C 64.199219 36.976562 60.453125 39.582031 56.894531 42.21875 C 58.03125 45.796875 58.246094 49.734375 57.523438 53.417969 C 57.394531 54.074219 57.242188 54.726562 57.082031 55.375 C 57.421875 55.589844 57.730469 55.839844 57.992188 56.132812 C 58.769531 57.007812 59.132812 58.1875 58.992188 59.367188 C 58.96875 59.554688 58.808594 59.691406 58.621094 59.691406 L 58.578125 59.691406 C 58.371094 59.664062 58.226562 59.480469 58.253906 59.277344 C 58.371094 58.308594 58.070312 57.34375 57.433594 56.625 C 57.273438 56.445312 57.089844 56.285156 56.894531 56.140625 C 56.757812 56.6875 56.628906 57.230469 56.507812 57.777344 C 56.96875 58.386719 57.246094 59.144531 57.246094 59.964844 C 57.246094 61.039062 56.777344 62.003906 56.03125 62.667969 C 56.148438 65.109375 56.804688 67.519531 57.960938 69.667969 C 58.839844 71.316406 59.992188 72.789062 61.039062 74.332031 C 64.089844 78.824219 66.296875 83.945312 66.96875 89.324219 C 66.996094 89.550781 67.019531 89.78125 67.042969 90.011719 C 67.628906 90.183594 68.226562 90.34375 68.828125 90.5 C 68.507812 88.964844 68.332031 87.40625 68.328125 85.855469 C 68.28125 85.777344 68.230469 85.699219 68.183594 85.621094 C 67.371094 84.242188 66.613281 82.746094 66.585938 81.136719 C 66.582031 80.933594 66.746094 80.765625 66.949219 80.761719 C 66.984375 80.761719 67.011719 80.769531 67.042969 80.78125 C 67.03125 79.917969 67.292969 79.21875 67.953125 78.804688 " fill-opacity="1" fill-rule="nonzero"/><path fill="#f4de6c" d="M 90.464844 85.714844 C 90.578125 85.734375 90.691406 85.757812 90.804688 85.78125 C 91.492188 85.820312 92.160156 85.890625 92.796875 86.023438 C 92.757812 85.671875 92.710938 85.3125 92.648438 84.941406 C 91.933594 85.191406 91.21875 85.429688 90.496094 85.65625 L 90.464844 85.714844 " fill-opacity="1" fill-rule="nonzero"/><g clip-path="url(#12e85d4869)"><path fill="#f4de6c" d="M 54.679688 84.664062 C 55.394531 85.140625 56.128906 85.585938 56.882812 86 C 56.859375 81.929688 56.199219 77.867188 54.53125 74.167969 C 53.527344 71.921875 52.132812 69.742188 51.976562 67.289062 C 51.894531 65.976562 52.171875 64.707031 52.542969 63.441406 C 51.046875 62.988281 49.957031 61.605469 49.957031 59.964844 C 49.957031 57.957031 51.589844 56.332031 53.601562 56.332031 C 53.734375 56.332031 53.867188 56.339844 53.996094 56.355469 C 53.898438 54.082031 53.152344 51.832031 51.832031 49.972656 C 50.71875 48.402344 49.550781 47.074219 48.53125 45.6875 C 47.273438 48.125 46.0625 50.460938 44.9375 52.472656 C 41.488281 58.585938 33.703125 64.21875 23.980469 64.925781 C 22.542969 65.027344 22.589844 67.484375 23.453125 69.417969 C 23.445312 69.386719 23.433594 69.351562 23.433594 69.316406 C 23.429688 69.109375 23.59375 68.941406 23.800781 68.941406 C 30.511719 68.851562 37.214844 67.988281 43.730469 66.375 C 43.214844 65.621094 42.914062 64.644531 42.914062 63.597656 C 42.914062 63.394531 43.082031 63.226562 43.285156 63.226562 C 43.492188 63.226562 43.65625 63.394531 43.65625 63.597656 C 43.65625 64.921875 44.199219 66.117188 45.066406 66.710938 C 45.457031 66.980469 46.082031 67.238281 46.84375 66.949219 C 47.035156 66.875 47.25 66.972656 47.324219 67.164062 C 47.398438 67.355469 47.300781 67.566406 47.109375 67.640625 C 46.800781 67.757812 46.484375 67.816406 46.171875 67.816406 C 45.644531 67.816406 45.121094 67.648438 44.644531 67.320312 C 44.503906 67.222656 44.367188 67.113281 44.242188 66.992188 C 44.210938 67.011719 44.175781 67.03125 44.136719 67.042969 C 37.496094 68.703125 30.65625 69.589844 23.808594 69.679688 L 23.804688 69.679688 C 23.671875 69.679688 23.558594 69.605469 23.492188 69.5 C 23.875 70.328125 24.40625 71.050781 25.039062 71.441406 C 30.160156 74.613281 36.527344 72.5 41.695312 74.660156 C 45.542969 76.269531 48.414062 79.433594 51.507812 82.210938 C 52.230469 82.867188 52.984375 83.46875 53.765625 84.03125 C 54.066406 84.246094 54.371094 84.460938 54.679688 84.664062 " fill-opacity="1" fill-rule="nonzero"/></g><path fill="#3d4d57" d="M 53.996094 56.355469 C 55.023438 56.464844 55.917969 57 56.507812 57.777344 C 56.628906 57.230469 56.757812 56.6875 56.894531 56.140625 C 56.195312 55.632812 55.277344 55.351562 54.242188 55.351562 C 54.039062 55.351562 53.871094 55.1875 53.871094 54.980469 C 53.871094 54.777344 54.039062 54.609375 54.242188 54.609375 C 55.324219 54.609375 56.292969 54.882812 57.082031 55.375 C 57.242188 54.726562 57.394531 54.074219 57.523438 53.417969 C 58.246094 49.734375 58.03125 45.796875 56.894531 42.21875 C 55.605469 43.175781 54.339844 44.132812 53.09375 45.085938 C 53.027344 45.140625 52.949219 45.164062 52.867188 45.164062 C 52.757812 45.164062 52.648438 45.113281 52.574219 45.019531 C 52.449219 44.859375 52.480469 44.625 52.640625 44.5 C 53.949219 43.496094 55.28125 42.488281 56.640625 41.484375 C 55.9375 39.523438 54.949219 37.683594 53.671875 36.082031 C 51.921875 39.105469 50.183594 42.484375 48.53125 45.6875 C 49.550781 47.074219 50.71875 48.402344 51.832031 49.972656 C 53.152344 51.832031 53.898438 54.082031 53.996094 56.355469 " fill-opacity="1" fill-rule="nonzero"/><path fill="#3d4d57" d="M 66.96875 89.324219 C 66.296875 83.945312 64.089844 78.824219 61.039062 74.332031 C 59.992188 72.789062 58.839844 71.316406 57.960938 69.667969 C 56.804688 67.519531 56.148438 65.109375 56.03125 62.667969 C 55.386719 63.246094 54.535156 63.597656 53.601562 63.597656 C 53.234375 63.597656 52.878906 63.542969 52.542969 63.441406 C 52.171875 64.707031 51.894531 65.976562 51.976562 67.289062 C 52.132812 69.742188 53.527344 71.921875 54.53125 74.167969 C 56.199219 77.867188 56.859375 81.929688 56.882812 86 C 60.035156 87.742188 63.496094 88.988281 67.042969 90.011719 C 67.019531 89.78125 66.996094 89.550781 66.96875 89.324219 " fill-opacity="1" fill-rule="nonzero"/><path fill="#ffffff" d="M 51.679688 59.964844 C 51.679688 58.90625 52.539062 58.050781 53.601562 58.050781 C 54.546875 58.050781 55.328125 58.726562 55.492188 59.621094 C 55.941406 59.726562 56.273438 60.125 56.273438 60.605469 C 56.273438 61.164062 55.820312 61.617188 55.257812 61.617188 C 55.082031 61.617188 54.914062 61.566406 54.769531 61.484375 C 54.445312 61.734375 54.042969 61.882812 53.601562 61.882812 C 52.539062 61.882812 51.679688 61.023438 51.679688 59.964844 Z M 56.03125 62.667969 C 56.777344 62.003906 57.246094 61.039062 57.246094 59.964844 C 57.246094 59.144531 56.96875 58.386719 56.507812 57.777344 C 55.917969 57 55.023438 56.464844 53.996094 56.355469 C 53.867188 56.339844 53.734375 56.332031 53.601562 56.332031 C 51.589844 56.332031 49.957031 57.957031 49.957031 59.964844 C 49.957031 61.605469 51.046875 62.988281 52.542969 63.441406 C 52.878906 63.542969 53.234375 63.597656 53.601562 63.597656 C 54.535156 63.597656 55.386719 63.246094 56.03125 62.667969 " fill-opacity="1" fill-rule="nonzero"/><path fill="#221f2d" d="M 53.011719 59.589844 C 53.011719 59.265625 53.277344 59.003906 53.601562 59.003906 C 53.929688 59.003906 54.191406 59.265625 54.191406 59.589844 C 54.191406 59.917969 53.929688 60.179688 53.601562 60.179688 C 53.277344 60.179688 53.011719 59.917969 53.011719 59.589844 Z M 54.769531 61.484375 C 54.457031 61.3125 54.242188 60.984375 54.242188 60.605469 C 54.242188 60.042969 54.699219 59.589844 55.257812 59.589844 C 55.339844 59.589844 55.417969 59.601562 55.492188 59.621094 C 55.328125 58.726562 54.546875 58.050781 53.601562 58.050781 C 52.539062 58.050781 51.679688 58.90625 51.679688 59.964844 C 51.679688 61.023438 52.539062 61.882812 53.601562 61.882812 C 54.042969 61.882812 54.445312 61.734375 54.769531 61.484375 " fill-opacity="1" fill-rule="nonzero"/><path fill="#ffffff" d="M 54.242188 60.605469 C 54.242188 60.984375 54.457031 61.3125 54.769531 61.484375 C 54.914062 61.566406 55.082031 61.617188 55.257812 61.617188 C 55.820312 61.617188 56.273438 61.164062 56.273438 60.605469 C 56.273438 60.125 55.941406 59.726562 55.492188 59.621094 C 55.417969 59.601562 55.339844 59.589844 55.257812 59.589844 C 54.699219 59.589844 54.242188 60.042969 54.242188 60.605469 " fill-opacity="1" fill-rule="nonzero"/><path fill="#ffffff" d="M 54.191406 59.589844 C 54.191406 59.265625 53.929688 59.003906 53.601562 59.003906 C 53.277344 59.003906 53.011719 59.265625 53.011719 59.589844 C 53.011719 59.917969 53.277344 60.179688 53.601562 60.179688 C 53.929688 60.179688 54.191406 59.917969 54.191406 59.589844 " fill-opacity="1" fill-rule="nonzero"/><path fill="#221f2d" d="M 58.253906 59.277344 C 58.226562 59.480469 58.371094 59.664062 58.578125 59.691406 L 58.621094 59.691406 C 58.808594 59.691406 58.96875 59.554688 58.992188 59.367188 C 59.132812 58.1875 58.769531 57.007812 57.992188 56.132812 C 57.730469 55.839844 57.421875 55.589844 57.082031 55.375 C 56.292969 54.882812 55.324219 54.609375 54.242188 54.609375 C 54.039062 54.609375 53.871094 54.777344 53.871094 54.980469 C 53.871094 55.1875 54.039062 55.351562 54.242188 55.351562 C 55.277344 55.351562 56.195312 55.632812 56.894531 56.140625 C 57.089844 56.285156 57.273438 56.445312 57.433594 56.625 C 58.070312 57.34375 58.371094 58.308594 58.253906 59.277344 " fill-opacity="1" fill-rule="nonzero"/><path fill="#65bed9" d="M 115.6875 62.316406 L 122.96875 67.488281 C 123.164062 67.625 123.363281 67.765625 123.5625 67.820312 C 124.011719 67.9375 124.480469 67.628906 124.730469 67.289062 C 124.992188 66.933594 125.101562 66.472656 125.222656 65.992188 L 125.285156 65.734375 C 125.304688 65.667969 125.316406 65.609375 125.335938 65.546875 C 122.601562 63.03125 119.265625 61.210938 115.671875 60.265625 C 115.609375 60.554688 115.542969 60.84375 115.46875 61.128906 C 115.425781 61.296875 115.277344 61.40625 115.109375 61.40625 L 115.019531 61.394531 C 115.011719 61.4375 115.003906 61.480469 114.996094 61.523438 C 114.945312 61.804688 114.886719 62.101562 114.898438 62.390625 C 114.96875 62.4375 115.039062 62.484375 115.109375 62.53125 C 115.121094 62.488281 115.140625 62.445312 115.167969 62.40625 C 115.285156 62.238281 115.519531 62.199219 115.6875 62.316406 " fill-opacity="1" fill-rule="nonzero"/><path fill="#65bed9" d="M 114.679688 46.738281 C 114.761719 46.945312 114.832031 47.15625 114.90625 47.367188 C 119.273438 46.277344 122.8125 43.25 125.441406 40.664062 C 125.066406 39.675781 124.664062 39.125 124.554688 38.984375 C 124.03125 38.332031 123.03125 38.269531 122.320312 38.488281 C 121.460938 38.75 120.738281 39.359375 120.039062 39.945312 L 114.28125 44.777344 C 114.183594 44.859375 114.058594 44.878906 113.945312 44.847656 C 114.058594 45.394531 114.207031 45.949219 114.367188 46.5 C 114.503906 46.515625 114.628906 46.601562 114.679688 46.738281 " fill-opacity="1" fill-rule="nonzero"/><path fill="#65bed9" d="M 115.679688 50.144531 C 117.226562 50.015625 118.789062 49.769531 120.300781 49.527344 C 122.402344 49.1875 124.570312 48.84375 126.746094 48.808594 C 126.578125 47.007812 126.328125 45.050781 125.996094 42.84375 C 125.917969 42.324219 125.8125 41.863281 125.695312 41.453125 C 123.039062 44.035156 119.507812 46.96875 115.136719 48.074219 C 115.347656 48.753906 115.53125 49.445312 115.679688 50.144531 " fill-opacity="1" fill-rule="nonzero"/><path fill="#65bed9" d="M 117.15625 57.296875 C 116.820312 57.253906 116.476562 57.203125 116.132812 57.148438 C 116.066406 57.949219 115.964844 58.746094 115.816406 59.535156 C 119.414062 60.476562 122.761719 62.265625 125.535156 64.730469 C 125.878906 63.335938 126.160156 62.027344 126.378906 60.765625 C 123.84375 59.007812 120.902344 57.839844 117.847656 57.390625 C 117.617188 57.355469 117.386719 57.328125 117.15625 57.296875 " fill-opacity="1" fill-rule="nonzero"/><path fill="#65bed9" d="M 116.179688 56.402344 C 116.535156 56.464844 116.898438 56.515625 117.25 56.5625 C 117.484375 56.59375 117.722656 56.621094 117.957031 56.65625 C 121.007812 57.105469 123.949219 58.25 126.511719 59.960938 C 126.765625 58.3125 126.921875 56.71875 126.972656 55.070312 C 123.394531 54.527344 119.765625 54.074219 116.167969 53.710938 C 116.21875 54.609375 116.226562 55.507812 116.179688 56.402344 " fill-opacity="1" fill-rule="nonzero"/><path fill="#65bed9" d="M 115.820312 50.878906 C 115.945312 51.566406 116.046875 52.261719 116.109375 52.960938 C 119.730469 53.320312 123.386719 53.78125 126.988281 54.320312 C 127.011719 52.816406 126.949219 51.25 126.808594 49.550781 C 124.671875 49.578125 122.511719 49.921875 120.417969 50.257812 C 118.917969 50.5 117.367188 50.742188 115.820312 50.878906 " fill-opacity="1" fill-rule="nonzero"/><path fill="#65bed9" d="M 126.371094 64.449219 C 126.269531 64.871094 126.164062 65.300781 126.050781 65.734375 C 126.167969 65.339844 126.273438 64.910156 126.371094 64.449219 " fill-opacity="1" fill-rule="nonzero"/><g clip-path="url(#a2aecddf16)"><path fill="#65bed9" d="M 96.421875 12.300781 C 97.757812 12.441406 99.148438 12.742188 100.121094 13.664062 C 101.164062 14.648438 101.527344 16.199219 101.394531 17.628906 C 101.253906 19.058594 100.679688 20.402344 100.085938 21.714844 C 98.441406 25.332031 96.574219 28.917969 95.949219 32.839844 C 95.316406 36.761719 96.179688 41.1875 99.214844 43.753906 C 99.632812 44.109375 100.113281 44.414062 100.628906 44.644531 C 94.894531 38.625 106.503906 19.46875 106.019531 15.332031 C 105.910156 14.382812 105.609375 13.425781 104.972656 12.714844 C 103.617188 11.203125 101.269531 11.246094 99.253906 11.511719 C 98.808594 11.570312 98.351562 11.640625 97.886719 11.710938 C 97.835938 11.71875 97.78125 11.730469 97.730469 11.738281 C 96.953125 11.863281 96.148438 12.003906 95.320312 12.167969 C 95.671875 12.097656 96.023438 12.03125 96.367188 11.972656 C 96.386719 12.082031 96.402344 12.191406 96.421875 12.300781 " fill-opacity="1" fill-rule="nonzero"/></g><path fill="#3d4d57" d="M 68.214844 33.714844 C 70.007812 32.65625 71.847656 31.648438 73.734375 30.710938 C 74.191406 30.484375 74.644531 30.265625 75.097656 30.050781 C 75.195312 29.789062 75.292969 29.53125 75.386719 29.269531 C 76.667969 25.644531 77.445312 21.660156 76.398438 17.960938 C 72.335938 19.660156 68.425781 21.640625 65.050781 23.839844 C 66.804688 26.289062 67.996094 28.636719 68.195312 31.832031 C 68.234375 32.460938 68.238281 33.089844 68.214844 33.714844 " fill-opacity="1" fill-rule="nonzero"/><path fill="#3d4d57" d="M 64.855469 51.375 C 65.523438 55.917969 69.503906 59.222656 71.332031 63.441406 C 72.316406 65.710938 72.648438 68.253906 72.300781 70.699219 C 71.910156 73.398438 70.71875 75.886719 69.765625 78.445312 C 69.886719 78.398438 70.027344 78.414062 70.132812 78.503906 C 71.835938 79.949219 74.101562 80.894531 76.871094 81.320312 C 77.585938 81.429688 78.304688 81.496094 79.027344 81.539062 C 79.777344 77.125 82.339844 73.121094 82.734375 68.660156 C 83.046875 65.148438 81.925781 61.53125 79.671875 58.816406 C 77.460938 56.15625 74.269531 54.359375 72.441406 51.433594 C 70.398438 48.140625 70.425781 43.929688 71.371094 40.171875 C 72.167969 37.035156 73.535156 34.078125 74.714844 31.0625 C 74.5 31.164062 74.28125 31.265625 74.066406 31.375 C 72.042969 32.378906 70.078125 33.464844 68.164062 34.609375 C 67.945312 37.328125 67.21875 40.019531 66.378906 42.632812 C 65.472656 45.480469 64.417969 48.417969 64.855469 51.375 " fill-opacity="1" fill-rule="nonzero"/><path fill="#3d4d57" d="M 68.828125 90.5 C 69.933594 90.800781 71.042969 91.082031 72.152344 91.351562 C 70.753906 89.613281 69.46875 87.765625 68.328125 85.855469 C 68.332031 87.40625 68.507812 88.964844 68.828125 90.5 " fill-opacity="1" fill-rule="nonzero"/><path fill="#3d4d57" d="M 86.261719 36.628906 C 85.078125 41.277344 84.402344 46.382812 86.417969 50.742188 C 87.324219 52.699219 88.738281 54.398438 89.703125 56.332031 C 91.226562 59.367188 91.59375 62.960938 90.714844 66.238281 C 89.703125 70.039062 88.945312 75.96875 91.132812 80.324219 C 91.8125 81.679688 92.242188 82.980469 92.507812 84.207031 C 95.355469 83.207031 98.132812 82.015625 100.820312 80.636719 C 98.566406 76.449219 95.253906 72.65625 94.433594 67.980469 C 93.527344 62.773438 95.882812 57.289062 94.425781 52.210938 C 93.488281 48.957031 91.078125 46.257812 90.296875 42.96875 C 89.570312 39.933594 90.320312 36.734375 91.488281 33.835938 C 92.664062 30.945312 94.246094 28.222656 95.304688 25.289062 C 95.320312 25.238281 95.335938 25.1875 95.351562 25.140625 C 93.183594 25.304688 90.980469 25.628906 88.75 26.109375 C 88.300781 29.65625 87.148438 33.136719 86.261719 36.628906 " fill-opacity="1" fill-rule="nonzero"/><g clip-path="url(#a4f336e3f2)"><path fill="#3d4d57" d="M 88.835938 25.332031 C 91.121094 24.847656 93.382812 24.53125 95.609375 24.378906 C 96.839844 20.496094 97.117188 16.3125 96.421875 12.300781 C 96.40625 12.191406 96.386719 12.082031 96.367188 11.972656 C 96.023438 12.03125 95.671875 12.097656 95.320312 12.167969 C 94.921875 12.246094 94.515625 12.332031 94.105469 12.417969 C 91.535156 12.957031 88.765625 13.675781 85.925781 14.535156 C 87.679688 16.8125 88.8125 19.28125 88.929688 22.535156 C 88.964844 23.472656 88.925781 24.402344 88.835938 25.332031 " fill-opacity="1" fill-rule="nonzero"/></g><path fill="#3d4d57" d="M 102.589844 85 C 102.265625 83.710938 101.761719 82.484375 101.164062 81.296875 C 98.410156 82.707031 95.566406 83.925781 92.648438 84.941406 C 92.710938 85.3125 92.757812 85.671875 92.796875 86.023438 C 93.066406 86.082031 93.335938 86.148438 93.59375 86.234375 C 95.753906 86.957031 96.691406 89.761719 96.410156 91.453125 C 96.3125 92.027344 96.082031 92.449219 95.765625 92.765625 C 98.242188 92.515625 100.621094 92.164062 102.785156 91.710938 C 103.15625 89.476562 103.148438 87.222656 102.589844 85 " fill-opacity="1" fill-rule="nonzero"/><path fill="#221f2d" d="M 75.097656 30.050781 C 74.644531 30.265625 74.191406 30.484375 73.734375 30.710938 C 71.847656 31.648438 70.007812 32.65625 68.214844 33.714844 C 64.132812 36.121094 60.289062 38.785156 56.640625 41.484375 C 55.28125 42.488281 53.949219 43.496094 52.640625 44.5 C 52.480469 44.625 52.449219 44.859375 52.574219 45.019531 C 52.648438 45.113281 52.757812 45.164062 52.867188 45.164062 C 52.949219 45.164062 53.027344 45.140625 53.09375 45.085938 C 54.339844 44.132812 55.605469 43.175781 56.894531 42.21875 C 60.453125 39.582031 64.199219 36.976562 68.164062 34.609375 C 70.078125 33.464844 72.042969 32.378906 74.066406 31.375 C 74.28125 31.265625 74.5 31.164062 74.714844 31.0625 C 79.476562 28.75 84.167969 27.097656 88.75 26.109375 C 90.980469 25.628906 93.183594 25.304688 95.351562 25.140625 C 96.257812 25.070312 97.15625 25.027344 98.050781 25.015625 C 98.253906 25.011719 98.417969 24.84375 98.417969 24.640625 C 98.414062 24.4375 98.25 24.273438 98.046875 24.273438 L 98.039062 24.273438 C 97.234375 24.285156 96.421875 24.324219 95.609375 24.382812 C 93.378906 24.535156 91.121094 24.851562 88.835938 25.332031 C 84.347656 26.277344 79.753906 27.851562 75.097656 30.050781 " fill-opacity="1" fill-rule="nonzero"/><g clip-path="url(#3ced1f42a2)"><path fill="#221f2d" d="M 127.371094 55.121094 L 127.3125 55.117188 C 127.199219 55.101562 127.085938 55.085938 126.972656 55.070312 C 126.921875 56.71875 126.765625 58.3125 126.511719 59.960938 C 126.675781 60.070312 126.839844 60.171875 127 60.285156 C 127.113281 60.367188 127.164062 60.503906 127.148438 60.632812 C 127.46875 58.695312 127.65625 56.832031 127.707031 54.890625 C 127.652344 55.027344 127.519531 55.121094 127.371094 55.121094 " fill-opacity="1" fill-rule="nonzero"/></g><g clip-path="url(#197a7ca9b9)"><path fill="#221f2d" d="M 113.753906 44.734375 C 113.804688 44.792969 113.875 44.828125 113.945312 44.847656 C 114.058594 44.878906 114.183594 44.859375 114.28125 44.78125 L 120.039062 39.945312 C 120.738281 39.359375 121.460938 38.75 122.320312 38.488281 C 123.03125 38.269531 124.03125 38.332031 124.550781 38.984375 C 124.664062 39.125 125.066406 39.675781 125.441406 40.664062 C 125.492188 40.613281 125.542969 40.5625 125.59375 40.511719 C 125.738281 40.367188 125.976562 40.371094 126.121094 40.515625 C 126.265625 40.660156 126.261719 40.894531 126.117188 41.039062 C 125.980469 41.175781 125.839844 41.3125 125.695312 41.453125 C 125.8125 41.863281 125.917969 42.324219 125.996094 42.84375 C 126.328125 45.050781 126.578125 47.007812 126.746094 48.808594 C 126.84375 48.808594 126.9375 48.804688 127.035156 48.800781 C 127.238281 48.800781 127.40625 48.96875 127.40625 49.171875 C 127.40625 49.378906 127.242188 49.542969 127.035156 49.542969 C 126.960938 49.542969 126.886719 49.546875 126.8125 49.550781 C 126.949219 51.25 127.011719 52.816406 126.988281 54.320312 C 127.136719 54.34375 127.28125 54.363281 127.425781 54.386719 C 127.5625 54.40625 127.667969 54.503906 127.714844 54.628906 C 127.785156 51.203125 127.449219 47.519531 126.730469 42.734375 C 126.351562 40.21875 125.414062 38.875 125.136719 38.523438 C 124.394531 37.59375 123.078125 37.476562 122.101562 37.777344 C 121.097656 38.089844 120.28125 38.773438 119.558594 39.378906 L 113.8125 44.203125 L 113.800781 44.210938 C 113.644531 44.34375 113.625 44.578125 113.753906 44.734375 " fill-opacity="1" fill-rule="nonzero"/></g><g clip-path="url(#223d41077c)"><path fill="#221f2d" d="M 126.371094 64.449219 C 126.679688 63.140625 126.933594 61.898438 127.136719 60.6875 C 127.128906 60.726562 127.113281 60.769531 127.085938 60.804688 C 127.015625 60.90625 126.898438 60.960938 126.785156 60.960938 C 126.707031 60.960938 126.632812 60.9375 126.566406 60.890625 C 126.507812 60.847656 126.441406 60.808594 126.378906 60.765625 C 126.160156 62.03125 125.878906 63.335938 125.535156 64.730469 C 125.640625 64.824219 125.742188 64.914062 125.84375 65.007812 C 125.996094 65.144531 126.007812 65.378906 125.867188 65.53125 C 125.792969 65.609375 125.691406 65.652344 125.59375 65.652344 C 125.503906 65.652344 125.414062 65.617188 125.339844 65.550781 L 125.332031 65.546875 C 125.316406 65.609375 125.304688 65.671875 125.285156 65.734375 L 125.222656 65.992188 C 125.101562 66.472656 124.992188 66.933594 124.730469 67.289062 C 124.480469 67.628906 124.011719 67.9375 123.5625 67.820312 C 123.363281 67.765625 123.164062 67.625 122.96875 67.488281 L 115.6875 62.316406 C 115.519531 62.199219 115.285156 62.238281 115.167969 62.40625 C 115.140625 62.445312 115.121094 62.488281 115.109375 62.53125 C 115.074219 62.675781 115.125 62.832031 115.253906 62.921875 L 122.539062 68.089844 C 122.773438 68.257812 123.039062 68.445312 123.371094 68.535156 C 123.503906 68.570312 123.636719 68.585938 123.765625 68.585938 C 124.40625 68.585938 124.992188 68.1875 125.332031 67.726562 C 125.679688 67.25 125.8125 66.699219 125.945312 66.167969 L 126.007812 65.917969 C 126.023438 65.855469 126.035156 65.796875 126.050781 65.734375 C 126.164062 65.300781 126.269531 64.871094 126.371094 64.449219 " fill-opacity="1" fill-rule="nonzero"/></g><path fill="#221f2d" d="M 115.175781 59.753906 C 115.226562 59.554688 115.429688 59.433594 115.628906 59.484375 C 115.691406 59.5 115.753906 59.519531 115.816406 59.535156 C 115.960938 58.746094 116.066406 57.949219 116.128906 57.148438 C 116.042969 57.132812 115.953125 57.121094 115.863281 57.105469 C 115.664062 57.066406 115.53125 56.871094 115.570312 56.671875 C 115.605469 56.46875 115.800781 56.335938 116.003906 56.375 C 116.0625 56.386719 116.121094 56.394531 116.179688 56.40625 C 116.226562 55.507812 116.21875 54.609375 116.164062 53.714844 C 116.085938 53.707031 116.011719 53.695312 115.933594 53.6875 C 115.730469 53.667969 115.578125 53.488281 115.601562 53.28125 C 115.621094 53.078125 115.804688 52.925781 116.007812 52.949219 C 116.042969 52.953125 116.074219 52.957031 116.109375 52.960938 C 116.046875 52.261719 115.945312 51.566406 115.820312 50.878906 C 115.699219 50.886719 115.578125 50.902344 115.453125 50.910156 L 115.425781 50.914062 C 115.234375 50.914062 115.070312 50.765625 115.054688 50.570312 C 115.042969 50.367188 115.195312 50.1875 115.398438 50.171875 C 115.492188 50.164062 115.585938 50.152344 115.679688 50.144531 C 115.527344 49.445312 115.347656 48.757812 115.132812 48.074219 C 115.027344 48.101562 114.917969 48.132812 114.808594 48.160156 L 114.726562 48.167969 C 114.554688 48.167969 114.402344 48.050781 114.363281 47.882812 C 114.316406 47.683594 114.441406 47.484375 114.644531 47.4375 C 114.730469 47.417969 114.816406 47.390625 114.90625 47.367188 C 114.832031 47.15625 114.757812 46.945312 114.679688 46.738281 C 114.628906 46.601562 114.503906 46.515625 114.363281 46.5 C 114.3125 46.496094 114.257812 46.5 114.199219 46.523438 C 114.007812 46.59375 113.914062 46.808594 113.984375 47 C 115.65625 51.417969 115.925781 56.371094 114.75 60.945312 C 114.699219 61.140625 114.816406 61.34375 115.015625 61.394531 L 115.109375 61.40625 C 115.273438 61.40625 115.425781 61.296875 115.46875 61.128906 C 115.542969 60.84375 115.609375 60.554688 115.671875 60.265625 C 115.597656 60.246094 115.523438 60.222656 115.445312 60.203125 C 115.246094 60.152344 115.125 59.953125 115.175781 59.753906 " fill-opacity="1" fill-rule="nonzero"/><path fill="#221f2d" d="M 115.628906 59.484375 C 115.429688 59.433594 115.226562 59.554688 115.175781 59.753906 C 115.125 59.953125 115.246094 60.152344 115.445312 60.203125 C 115.523438 60.222656 115.597656 60.246094 115.671875 60.265625 C 119.265625 61.210938 122.601562 63.03125 125.332031 65.546875 L 125.339844 65.550781 C 125.414062 65.617188 125.503906 65.652344 125.59375 65.652344 C 125.695312 65.652344 125.792969 65.609375 125.867188 65.53125 C 126.007812 65.378906 125.996094 65.144531 125.84375 65.007812 C 125.742188 64.914062 125.640625 64.824219 125.535156 64.730469 C 122.761719 62.265625 119.414062 60.476562 115.816406 59.535156 C 115.753906 59.519531 115.691406 59.5 115.628906 59.484375 " fill-opacity="1" fill-rule="nonzero"/><g clip-path="url(#062eebb13a)"><path fill="#221f2d" d="M 127.425781 54.386719 C 127.28125 54.363281 127.136719 54.34375 126.988281 54.320312 C 123.386719 53.78125 119.730469 53.320312 116.109375 52.960938 C 116.074219 52.957031 116.042969 52.953125 116.007812 52.949219 C 115.804688 52.925781 115.621094 53.078125 115.601562 53.28125 C 115.582031 53.488281 115.730469 53.667969 115.933594 53.6875 C 116.011719 53.695312 116.089844 53.707031 116.164062 53.710938 C 119.761719 54.074219 123.394531 54.527344 126.972656 55.070312 C 127.085938 55.085938 127.199219 55.101562 127.3125 55.117188 L 127.371094 55.121094 C 127.519531 55.121094 127.652344 55.027344 127.707031 54.890625 L 127.734375 54.808594 C 127.746094 54.746094 127.734375 54.683594 127.714844 54.628906 C 127.667969 54.503906 127.5625 54.40625 127.425781 54.386719 " fill-opacity="1" fill-rule="nonzero"/></g><path fill="#221f2d" d="M 114.644531 47.4375 C 114.441406 47.484375 114.316406 47.679688 114.363281 47.882812 C 114.402344 48.054688 114.554688 48.167969 114.726562 48.167969 L 114.808594 48.160156 C 114.917969 48.132812 115.027344 48.101562 115.136719 48.074219 C 119.507812 46.96875 123.039062 44.035156 125.695312 41.453125 C 125.839844 41.3125 125.980469 41.175781 126.117188 41.039062 C 126.261719 40.894531 126.265625 40.660156 126.121094 40.515625 C 125.976562 40.371094 125.738281 40.367188 125.59375 40.511719 C 125.542969 40.5625 125.492188 40.613281 125.441406 40.664062 C 122.8125 43.25 119.273438 46.277344 114.90625 47.367188 C 114.816406 47.390625 114.730469 47.417969 114.644531 47.4375 " fill-opacity="1" fill-rule="nonzero"/><g clip-path="url(#7e680a76f4)"><path fill="#221f2d" d="M 115.679688 50.144531 C 115.585938 50.152344 115.492188 50.164062 115.402344 50.171875 C 115.195312 50.1875 115.042969 50.363281 115.058594 50.570312 C 115.070312 50.765625 115.234375 50.910156 115.429688 50.910156 L 115.457031 50.910156 C 115.578125 50.902344 115.699219 50.886719 115.824219 50.875 C 117.367188 50.742188 118.917969 50.5 120.417969 50.257812 C 122.511719 49.921875 124.671875 49.578125 126.8125 49.550781 C 126.886719 49.546875 126.960938 49.542969 127.035156 49.542969 C 127.242188 49.542969 127.40625 49.378906 127.40625 49.171875 C 127.40625 48.96875 127.242188 48.800781 127.035156 48.800781 C 126.9375 48.800781 126.84375 48.808594 126.746094 48.808594 C 124.570312 48.84375 122.402344 49.1875 120.300781 49.527344 C 118.789062 49.769531 117.226562 50.015625 115.679688 50.144531 " fill-opacity="1" fill-rule="nonzero"/></g><g clip-path="url(#ce43b9bd96)"><path fill="#221f2d" d="M 127 60.285156 C 126.839844 60.171875 126.671875 60.070312 126.511719 59.960938 C 123.949219 58.25 121.007812 57.109375 117.957031 56.65625 C 117.722656 56.621094 117.484375 56.59375 117.25 56.5625 C 116.898438 56.515625 116.535156 56.464844 116.179688 56.40625 C 116.121094 56.394531 116.0625 56.386719 116.003906 56.375 C 115.800781 56.335938 115.605469 56.46875 115.570312 56.671875 C 115.53125 56.871094 115.664062 57.066406 115.863281 57.105469 C 115.953125 57.121094 116.042969 57.132812 116.128906 57.148438 C 116.472656 57.203125 116.820312 57.253906 117.152344 57.296875 C 117.386719 57.328125 117.617188 57.355469 117.847656 57.390625 C 120.902344 57.839844 123.84375 59.007812 126.378906 60.765625 C 126.441406 60.808594 126.503906 60.847656 126.566406 60.890625 C 126.632812 60.9375 126.707031 60.960938 126.785156 60.960938 C 126.898438 60.960938 127.015625 60.90625 127.085938 60.804688 C 127.113281 60.769531 127.125 60.726562 127.136719 60.6875 L 127.148438 60.632812 C 127.164062 60.503906 127.113281 60.367188 127 60.285156 " fill-opacity="1" fill-rule="nonzero"/></g><path fill="#221f2d" d="M 90.902344 84.746094 C 90.792969 85.078125 90.644531 85.382812 90.496094 85.65625 C 91.21875 85.429688 91.933594 85.191406 92.648438 84.941406 C 95.566406 83.925781 98.410156 82.707031 101.164062 81.296875 C 102.960938 80.375 104.722656 79.367188 106.441406 78.28125 C 106.617188 78.171875 106.667969 77.941406 106.558594 77.769531 C 106.449219 77.597656 106.21875 77.546875 106.042969 77.65625 C 104.34375 78.730469 102.601562 79.726562 100.820312 80.636719 C 98.132812 82.015625 95.355469 83.207031 92.507812 84.207031 C 91.976562 84.394531 91.441406 84.570312 90.902344 84.746094 " fill-opacity="1" fill-rule="nonzero"/><path fill="#65bed9" d="M 90.433594 85.761719 C 90.558594 85.769531 90.679688 85.773438 90.804688 85.78125 C 90.691406 85.757812 90.578125 85.734375 90.464844 85.714844 L 90.433594 85.761719 " fill-opacity="1" fill-rule="nonzero"/><path fill="#65bed9" d="M 89.703125 85.542969 C 90 85.046875 90.335938 84.386719 90.355469 83.707031 C 90.367188 83.1875 90.132812 82.519531 89.585938 82.273438 C 89.261719 82.128906 88.839844 82.144531 88.46875 82.15625 L 84.414062 82.28125 C 81.902344 82.359375 79.304688 82.441406 76.757812 82.050781 C 73.851562 81.605469 71.460938 80.601562 69.652344 79.070312 C 69.546875 78.980469 69.511719 78.851562 69.53125 78.726562 C 68.945312 78.511719 68.457031 78.484375 67.953125 78.804688 C 67.292969 79.21875 67.03125 79.917969 67.042969 80.78125 C 67.203125 80.824219 67.324219 80.953125 67.328125 81.125 C 67.355469 82.632812 68.117188 84.042969 68.824219 85.246094 C 69.992188 87.230469 71.320312 89.144531 72.773438 90.9375 C 74.039062 92.503906 75.605469 94.222656 77.625 95.121094 C 79.5 95.957031 81.261719 95.886719 82.652344 94.941406 C 82.074219 94.582031 81.527344 94.207031 81.019531 93.84375 C 78.832031 92.300781 76.707031 90.613281 74.652344 88.984375 C 74.492188 88.859375 74.464844 88.625 74.59375 88.464844 C 74.722656 88.304688 74.957031 88.277344 75.117188 88.40625 C 77.164062 90.027344 79.277344 91.707031 81.449219 93.242188 C 82.757812 94.167969 84.300781 95.199219 86.007812 95.675781 C 86.894531 95.925781 88.15625 96.09375 89.144531 95.484375 C 89.621094 95.191406 89.9375 94.789062 90.015625 94.378906 C 90.078125 94.050781 89.988281 93.722656 89.753906 93.414062 C 89.730469 93.378906 89.714844 93.34375 89.703125 93.304688 C 86.347656 92.871094 82.882812 91.226562 79.132812 88.289062 C 78.96875 88.164062 78.941406 87.929688 79.070312 87.769531 C 79.195312 87.609375 79.429688 87.582031 79.589844 87.707031 C 83.5 90.769531 87.070312 92.382812 90.507812 92.644531 C 90.695312 92.65625 90.921875 92.683594 91.179688 92.714844 C 93.203125 92.957031 95.386719 93.070312 95.675781 91.332031 C 95.90625 89.933594 95.121094 87.523438 93.359375 86.9375 C 92.226562 86.5625 90.90625 86.515625 89.507812 86.46875 C 87.382812 86.394531 84.980469 86.3125 82.609375 85.046875 C 82.429688 84.953125 82.363281 84.726562 82.457031 84.546875 C 82.554688 84.367188 82.78125 84.296875 82.960938 84.394531 C 85.179688 85.574219 87.390625 85.652344 89.535156 85.726562 C 89.574219 85.730469 89.617188 85.730469 89.660156 85.730469 C 89.660156 85.667969 89.667969 85.601562 89.703125 85.542969 " fill-opacity="1" fill-rule="nonzero"/><path fill="#221f2d" d="M 82.652344 94.941406 C 81.261719 95.886719 79.5 95.957031 77.625 95.121094 C 75.605469 94.222656 74.039062 92.503906 72.773438 90.9375 C 71.320312 89.144531 69.992188 87.230469 68.824219 85.246094 C 68.117188 84.042969 67.355469 82.632812 67.328125 81.125 C 67.324219 80.953125 67.203125 80.824219 67.042969 80.78125 C 67.011719 80.769531 66.984375 80.761719 66.949219 80.761719 C 66.746094 80.765625 66.582031 80.933594 66.585938 81.136719 C 66.613281 82.746094 67.371094 84.242188 68.183594 85.621094 C 68.230469 85.699219 68.28125 85.777344 68.328125 85.855469 C 69.46875 87.765625 70.753906 89.613281 72.152344 91.351562 L 72.195312 91.40625 C 73.515625 93.035156 75.15625 94.832031 77.320312 95.796875 C 77.734375 95.984375 78.144531 96.125 78.546875 96.230469 C 78.792969 96.296875 79.039062 96.347656 79.28125 96.382812 C 79.578125 96.425781 79.867188 96.453125 80.15625 96.453125 C 81.332031 96.453125 82.417969 96.078125 83.347656 95.347656 C 83.113281 95.214844 82.878906 95.078125 82.652344 94.941406 " fill-opacity="1" fill-rule="nonzero"/><path fill="#221f2d" d="M 90.496094 85.65625 C 90.644531 85.382812 90.792969 85.078125 90.902344 84.746094 C 91.011719 84.425781 91.089844 84.082031 91.097656 83.726562 C 91.117188 82.945312 90.75 81.984375 89.890625 81.597656 C 89.410156 81.382812 88.875 81.398438 88.449219 81.414062 L 84.390625 81.542969 C 82.625 81.597656 80.820312 81.648438 79.027344 81.539062 C 78.304688 81.496094 77.585938 81.429688 76.871094 81.320312 C 74.101562 80.894531 71.835938 79.949219 70.132812 78.503906 C 70.027344 78.414062 69.886719 78.398438 69.765625 78.445312 C 69.707031 78.464844 69.652344 78.496094 69.609375 78.546875 C 69.5625 78.597656 69.542969 78.660156 69.53125 78.726562 C 69.511719 78.851562 69.546875 78.980469 69.652344 79.070312 C 71.460938 80.601562 73.851562 81.605469 76.757812 82.050781 C 79.304688 82.441406 81.902344 82.359375 84.414062 82.28125 L 88.46875 82.15625 C 88.839844 82.144531 89.261719 82.128906 89.585938 82.273438 C 90.132812 82.519531 90.367188 83.1875 90.355469 83.707031 C 90.335938 84.386719 90 85.046875 89.703125 85.542969 C 89.667969 85.601562 89.660156 85.667969 89.660156 85.730469 C 89.921875 85.742188 90.179688 85.75 90.433594 85.761719 L 90.464844 85.714844 L 90.496094 85.65625 " fill-opacity="1" fill-rule="nonzero"/><path fill="#221f2d" d="M 89.703125 93.304688 C 89.714844 93.34375 89.730469 93.378906 89.753906 93.414062 C 89.988281 93.722656 90.078125 94.050781 90.015625 94.378906 C 89.9375 94.789062 89.621094 95.191406 89.144531 95.484375 C 88.15625 96.09375 86.894531 95.925781 86.007812 95.675781 C 84.300781 95.199219 82.757812 94.167969 81.449219 93.242188 C 79.277344 91.707031 77.164062 90.027344 75.117188 88.40625 C 74.957031 88.277344 74.722656 88.304688 74.59375 88.464844 C 74.464844 88.625 74.492188 88.859375 74.652344 88.984375 C 76.707031 90.613281 78.832031 92.300781 81.019531 93.84375 C 81.527344 94.207031 82.074219 94.582031 82.652344 94.941406 C 82.878906 95.078125 83.113281 95.214844 83.347656 95.347656 C 84.117188 95.773438 84.9375 96.148438 85.808594 96.390625 C 86.300781 96.527344 86.894531 96.644531 87.515625 96.644531 C 88.191406 96.644531 88.898438 96.507812 89.535156 96.117188 C 90.199219 95.707031 90.628906 95.140625 90.746094 94.515625 C 90.816406 94.136719 90.769531 93.757812 90.605469 93.398438 C 90.550781 93.394531 90.496094 93.386719 90.449219 93.382812 C 90.203125 93.363281 89.953125 93.335938 89.703125 93.304688 " fill-opacity="1" fill-rule="nonzero"/><path fill="#221f2d" d="M 96.410156 91.453125 C 96.691406 89.761719 95.753906 86.957031 93.59375 86.234375 C 93.335938 86.148438 93.066406 86.082031 92.796875 86.023438 C 92.160156 85.890625 91.492188 85.820312 90.804688 85.78125 C 90.679688 85.773438 90.558594 85.769531 90.433594 85.761719 C 90.179688 85.75 89.921875 85.742188 89.660156 85.730469 C 89.617188 85.730469 89.574219 85.730469 89.535156 85.726562 C 87.390625 85.652344 85.179688 85.574219 82.960938 84.394531 C 82.78125 84.296875 82.554688 84.367188 82.457031 84.546875 C 82.363281 84.726562 82.429688 84.953125 82.609375 85.046875 C 84.980469 86.3125 87.382812 86.394531 89.507812 86.46875 C 90.90625 86.515625 92.226562 86.5625 93.359375 86.9375 C 95.121094 87.523438 95.90625 89.933594 95.675781 91.332031 C 95.386719 93.070312 93.203125 92.957031 91.179688 92.714844 C 90.921875 92.683594 90.695312 92.65625 90.507812 92.644531 C 87.070312 92.382812 83.5 90.769531 79.589844 87.707031 C 79.429688 87.582031 79.195312 87.609375 79.070312 87.769531 C 78.941406 87.929688 78.96875 88.164062 79.132812 88.289062 C 82.882812 91.226562 86.347656 92.871094 89.703125 93.304688 C 89.953125 93.335938 90.203125 93.363281 90.449219 93.382812 C 90.496094 93.386719 90.550781 93.394531 90.605469 93.398438 C 90.75 93.414062 90.910156 93.429688 91.089844 93.453125 C 91.632812 93.515625 92.320312 93.597656 93.023438 93.597656 C 94.050781 93.597656 95.101562 93.421875 95.765625 92.765625 C 96.082031 92.449219 96.3125 92.027344 96.410156 91.453125 " fill-opacity="1" fill-rule="nonzero"/><path fill="#221f2d" d="M 23.804688 69.679688 L 23.808594 69.679688 C 30.65625 69.589844 37.496094 68.703125 44.136719 67.042969 C 44.175781 67.03125 44.210938 67.011719 44.242188 66.992188 C 44.050781 66.8125 43.882812 66.601562 43.730469 66.375 C 37.214844 67.988281 30.511719 68.851562 23.800781 68.941406 C 23.59375 68.941406 23.429688 69.109375 23.433594 69.316406 C 23.433594 69.351562 23.445312 69.386719 23.453125 69.417969 L 23.492188 69.5 C 23.558594 69.605469 23.671875 69.679688 23.804688 69.679688 " fill-opacity="1" fill-rule="nonzero"/><path fill="#221f2d" d="M 44.644531 67.320312 C 45.121094 67.648438 45.644531 67.816406 46.171875 67.816406 C 46.484375 67.816406 46.800781 67.757812 47.109375 67.640625 C 47.300781 67.566406 47.398438 67.355469 47.324219 67.164062 C 47.25 66.972656 47.035156 66.875 46.84375 66.949219 C 46.082031 67.238281 45.457031 66.980469 45.066406 66.710938 C 44.199219 66.117188 43.65625 64.921875 43.65625 63.597656 C 43.65625 63.394531 43.492188 63.226562 43.285156 63.226562 C 43.082031 63.226562 42.914062 63.394531 42.914062 63.597656 C 42.914062 64.644531 43.214844 65.621094 43.730469 66.375 C 43.882812 66.601562 44.050781 66.8125 44.242188 66.992188 C 44.367188 67.113281 44.503906 67.222656 44.644531 67.320312 " fill-opacity="1" fill-rule="nonzero"/></svg>