<svg xmlns="http://www.w3.org/2000/svg" xmlns:xlink="http://www.w3.org/1999/xlink" width="100" zoomAndPan="magnify" viewBox="0 0 75 74.999997" height="100" preserveAspectRatio="xMidYMid meet" version="1.0"><defs><clipPath id="9a44253f53"><path d="M 13.261719 7.5 L 62 7.5 L 62 67.5 L 13.261719 67.5 Z M 13.261719 7.5 " clip-rule="nonzero"/></clipPath><clipPath id="21836b4752"><path d="M 13.261719 10 L 58 10 L 58 67.5 L 13.261719 67.5 Z M 13.261719 10 " clip-rule="nonzero"/></clipPath><clipPath id="a9655ccf8b"><path d="M 14 7.5 L 62 7.5 L 62 62 L 14 62 Z M 14 7.5 " clip-rule="nonzero"/></clipPath></defs><g clip-path="url(#9a44253f53)"><path fill="#000000" d="M 61.78125 36.027344 C 61.734375 20.328125 48.726562 7.707031 32.9375 7.707031 L 20.175781 7.707031 C 19.742188 7.707031 19.339844 7.839844 19.003906 8.066406 L 14.707031 10.675781 C 14.550781 10.75 14.40625 10.835938 14.273438 10.941406 L 14.269531 10.945312 C 13.789062 11.328125 13.480469 11.914062 13.480469 12.574219 L 13.480469 65.207031 C 13.480469 66.355469 14.417969 67.289062 15.574219 67.289062 L 28.613281 67.289062 C 34.988281 67.289062 40.878906 65.203125 45.636719 61.679688 C 55.207031 57.066406 61.8125 47.296875 61.78125 36.027344 Z M 33.214844 52.222656 L 32.53125 52.222656 C 31.375 52.222656 30.4375 51.292969 30.4375 50.140625 L 30.4375 22.902344 C 38.425781 23.882812 44.742188 30.542969 44.820312 38.730469 C 44.867188 43.664062 42.671875 48.09375 39.191406 51.082031 C 37.339844 51.816406 35.324219 52.222656 33.214844 52.222656 Z M 33.214844 52.222656 " fill-opacity="1" fill-rule="nonzero"/><path fill="#000000" d="M 28.613281 67.5 L 15.574219 67.5 C 14.304688 67.5 13.269531 66.46875 13.269531 65.207031 L 13.269531 12.574219 C 13.269531 11.875 13.582031 11.226562 14.128906 10.789062 C 14.136719 10.785156 14.140625 10.777344 14.148438 10.773438 C 14.289062 10.664062 14.445312 10.570312 14.609375 10.492188 L 18.890625 7.890625 C 19.273438 7.636719 19.714844 7.5 20.175781 7.5 L 32.9375 7.5 C 48.914062 7.5 61.945312 20.296875 61.988281 36.027344 C 62.003906 41.511719 60.445312 46.847656 57.484375 51.460938 C 54.605469 55.945312 50.546875 59.539062 45.746094 61.859375 C 40.757812 65.546875 34.832031 67.5 28.613281 67.5 Z M 14.398438 11.109375 C 13.949219 11.46875 13.6875 12 13.6875 12.574219 L 13.6875 65.207031 C 13.6875 66.242188 14.535156 67.082031 15.574219 67.082031 L 28.613281 67.082031 C 34.746094 67.082031 40.59375 65.15625 45.511719 61.511719 C 45.523438 61.503906 45.535156 61.496094 45.546875 61.492188 C 55.3125 56.785156 61.601562 46.789062 61.570312 36.027344 C 61.527344 20.527344 48.683594 7.917969 32.9375 7.917969 L 20.175781 7.917969 C 19.796875 7.917969 19.433594 8.027344 19.121094 8.238281 C 19.117188 8.238281 19.117188 8.242188 19.113281 8.242188 L 14.816406 10.855469 C 14.808594 10.859375 14.800781 10.863281 14.792969 10.867188 C 14.652344 10.929688 14.523438 11.011719 14.402344 11.105469 C 14.402344 11.105469 14.398438 11.109375 14.398438 11.109375 Z M 33.214844 52.433594 L 32.53125 52.433594 C 31.261719 52.433594 30.226562 51.40625 30.226562 50.140625 L 30.226562 22.902344 C 30.226562 22.84375 30.253906 22.785156 30.296875 22.746094 C 30.34375 22.707031 30.402344 22.6875 30.464844 22.695312 C 34.410156 23.179688 38.0625 25.054688 40.75 27.972656 C 43.472656 30.929688 44.992188 34.75 45.03125 38.730469 C 45.078125 43.527344 43 48.089844 39.328125 51.242188 C 39.3125 51.257812 39.292969 51.269531 39.269531 51.277344 C 37.335938 52.042969 35.296875 52.433594 33.214844 52.433594 Z M 30.648438 23.140625 L 30.648438 50.140625 C 30.648438 51.175781 31.492188 52.015625 32.53125 52.015625 L 33.214844 52.015625 C 35.230469 52.015625 37.207031 51.640625 39.082031 50.902344 C 42.640625 47.832031 44.65625 43.398438 44.613281 38.734375 C 44.535156 30.886719 38.546875 24.222656 30.648438 23.140625 Z M 30.648438 23.140625 " fill-opacity="1" fill-rule="nonzero"/></g><g clip-path="url(#21836b4752)"><path fill="#ffffff" d="M 13.480469 65.207031 L 13.480469 12.574219 C 13.480469 11.421875 14.417969 10.488281 15.574219 10.488281 L 28.335938 10.488281 C 44.125 10.488281 57.132812 23.109375 57.175781 38.808594 C 57.222656 54.503906 44.390625 67.289062 28.613281 67.289062 L 15.574219 67.289062 C 14.417969 67.289062 13.480469 66.355469 13.480469 65.207031 Z M 28.613281 55.003906 C 37.601562 55.003906 44.910156 47.691406 44.820312 38.730469 C 44.734375 29.859375 37.328125 22.773438 28.40625 22.773438 L 27.929688 22.773438 C 26.773438 22.773438 25.835938 23.707031 25.835938 24.855469 L 25.835938 52.921875 C 25.835938 54.074219 26.773438 55.003906 27.929688 55.003906 Z M 28.613281 55.003906 " fill-opacity="1" fill-rule="nonzero"/><path fill="#000000" d="M 28.613281 67.5 L 15.574219 67.5 C 14.304688 67.5 13.269531 66.46875 13.269531 65.207031 L 13.269531 12.574219 C 13.269531 11.308594 14.304688 10.28125 15.574219 10.28125 L 28.335938 10.28125 C 44.308594 10.28125 57.34375 23.078125 57.386719 38.808594 C 57.398438 42.671875 56.644531 46.425781 55.144531 49.960938 C 53.699219 53.375 51.625 56.445312 48.976562 59.082031 C 46.332031 61.71875 43.25 63.789062 39.820312 65.238281 C 36.269531 66.738281 32.496094 67.5 28.613281 67.5 Z M 15.574219 10.699219 C 14.535156 10.699219 13.6875 11.539062 13.6875 12.574219 L 13.6875 65.207031 C 13.6875 66.242188 14.535156 67.082031 15.574219 67.082031 L 28.613281 67.082031 C 36.1875 67.082031 43.316406 64.136719 48.679688 58.785156 C 54.046875 53.4375 56.988281 46.34375 56.96875 38.808594 C 56.925781 23.308594 44.078125 10.699219 28.335938 10.699219 Z M 28.613281 55.214844 L 27.929688 55.214844 C 26.660156 55.214844 25.625 54.1875 25.625 52.921875 L 25.625 24.855469 C 25.625 23.59375 26.660156 22.566406 27.929688 22.566406 L 28.40625 22.566406 C 32.789062 22.566406 36.933594 24.238281 40.074219 27.277344 C 43.226562 30.328125 44.988281 34.394531 45.03125 38.730469 C 45.074219 43.113281 43.382812 47.25 40.273438 50.371094 C 37.164062 53.492188 33.019531 55.214844 28.613281 55.214844 Z M 27.929688 22.980469 C 26.890625 22.980469 26.042969 23.824219 26.042969 24.855469 L 26.042969 52.921875 C 26.042969 53.957031 26.890625 54.796875 27.929688 54.796875 L 28.613281 54.796875 C 32.910156 54.796875 36.945312 53.121094 39.976562 50.078125 C 43.007812 47.035156 44.652344 43.003906 44.613281 38.734375 C 44.527344 30.046875 37.257812 22.980469 28.40625 22.980469 Z M 27.929688 22.980469 " fill-opacity="1" fill-rule="nonzero"/></g><g clip-path="url(#a9655ccf8b)"><path fill="#c2b092" d="M 61.78125 36.027344 C 61.734375 20.328125 48.726562 7.707031 32.9375 7.707031 L 20.175781 7.707031 C 19.742188 7.707031 19.339844 7.839844 19.003906 8.066406 L 14.707031 10.675781 C 14.972656 10.558594 15.265625 10.488281 15.574219 10.488281 L 28.335938 10.488281 C 44.125 10.488281 57.132812 23.109375 57.175781 38.808594 C 57.203125 48.164062 52.65625 56.484375 45.636719 61.679688 C 55.207031 57.066406 61.8125 47.296875 61.78125 36.027344 Z M 61.78125 36.027344 " fill-opacity="1" fill-rule="nonzero"/><path fill="#000000" d="M 45.636719 61.886719 C 45.566406 61.886719 45.5 61.851562 45.460938 61.789062 C 45.402344 61.695312 45.425781 61.578125 45.511719 61.511719 C 52.710938 56.183594 56.992188 47.695312 56.96875 38.808594 C 56.925781 23.308594 44.078125 10.699219 28.335938 10.699219 L 15.574219 10.699219 C 15.304688 10.699219 15.042969 10.753906 14.792969 10.867188 C 14.695312 10.914062 14.574219 10.871094 14.523438 10.773438 C 14.472656 10.679688 14.503906 10.558594 14.597656 10.5 L 18.890625 7.890625 C 19.273438 7.636719 19.714844 7.5 20.175781 7.5 L 32.9375 7.5 C 48.914062 7.5 61.945312 20.296875 61.988281 36.027344 C 62.003906 41.511719 60.445312 46.847656 57.484375 51.460938 C 54.601562 55.949219 50.539062 59.546875 45.730469 61.867188 C 45.699219 61.878906 45.667969 61.886719 45.636719 61.886719 Z M 15.761719 10.28125 L 28.335938 10.28125 C 44.308594 10.28125 57.34375 23.078125 57.386719 38.808594 C 57.398438 43.414062 56.339844 47.820312 54.234375 51.898438 C 52.566406 55.132812 50.261719 58.054688 47.496094 60.453125 C 56.140625 55.414062 61.597656 46.054688 61.570312 36.027344 C 61.527344 20.527344 48.683594 7.917969 32.9375 7.917969 L 20.175781 7.917969 C 19.796875 7.917969 19.433594 8.027344 19.121094 8.238281 C 19.117188 8.238281 19.117188 8.242188 19.113281 8.242188 Z M 15.761719 10.28125 " fill-opacity="1" fill-rule="nonzero"/></g><path fill="#c2b092" d="M 33.214844 52.222656 L 32.53125 52.222656 C 31.902344 52.222656 31.335938 51.945312 30.953125 51.503906 L 26.371094 54.308594 C 26.753906 54.734375 27.308594 55.003906 27.929688 55.003906 L 28.613281 55.003906 C 32.652344 55.003906 36.351562 53.523438 39.191406 51.082031 C 37.339844 51.816406 35.324219 52.222656 33.214844 52.222656 Z M 33.214844 52.222656 " fill-opacity="1" fill-rule="nonzero"/><path fill="#000000" d="M 28.613281 55.214844 L 27.929688 55.214844 C 27.277344 55.214844 26.652344 54.933594 26.214844 54.449219 C 26.171875 54.402344 26.152344 54.339844 26.164062 54.28125 C 26.171875 54.21875 26.207031 54.164062 26.261719 54.132812 L 30.84375 51.328125 C 30.929688 51.273438 31.042969 51.292969 31.109375 51.367188 C 31.46875 51.78125 31.988281 52.015625 32.53125 52.015625 L 33.214844 52.015625 C 35.242188 52.015625 37.230469 51.636719 39.113281 50.890625 C 39.210938 50.851562 39.320312 50.890625 39.371094 50.976562 C 39.425781 51.0625 39.40625 51.175781 39.328125 51.242188 C 36.347656 53.804688 32.539062 55.214844 28.613281 55.214844 Z M 26.707031 54.347656 C 27.046875 54.636719 27.480469 54.796875 27.929688 54.796875 L 28.613281 54.796875 C 32.027344 54.796875 35.347656 53.703125 38.085938 51.695312 C 36.511719 52.183594 34.878906 52.433594 33.214844 52.433594 L 32.53125 52.433594 C 31.925781 52.433594 31.347656 52.195312 30.914062 51.773438 Z M 26.707031 54.347656 " fill-opacity="1" fill-rule="nonzero"/><path fill="#c2b092" d="M 30.4375 50.140625 L 30.4375 22.902344 C 29.769531 22.820312 29.09375 22.773438 28.40625 22.773438 L 27.929688 22.773438 C 26.773438 22.773438 25.835938 23.707031 25.835938 24.855469 L 25.835938 52.921875 C 25.835938 53.457031 26.039062 53.941406 26.371094 54.308594 L 30.953125 51.503906 C 30.632812 51.140625 30.4375 50.664062 30.4375 50.140625 Z M 30.4375 50.140625 " fill-opacity="1" fill-rule="nonzero"/><path fill="#000000" d="M 26.371094 54.519531 C 26.3125 54.519531 26.253906 54.496094 26.214844 54.449219 C 25.835938 54.027344 25.625 53.484375 25.625 52.921875 L 25.625 24.855469 C 25.625 23.59375 26.660156 22.566406 27.929688 22.566406 L 28.40625 22.566406 C 29.066406 22.566406 29.757812 22.609375 30.464844 22.695312 C 30.566406 22.707031 30.648438 22.796875 30.648438 22.902344 L 30.648438 50.140625 C 30.648438 50.589844 30.8125 51.027344 31.109375 51.367188 C 31.148438 51.414062 31.167969 51.476562 31.160156 51.535156 C 31.148438 51.597656 31.113281 51.652344 31.0625 51.683594 L 26.480469 54.488281 C 26.445312 54.507812 26.410156 54.519531 26.371094 54.519531 Z M 27.929688 22.980469 C 26.890625 22.980469 26.042969 23.824219 26.042969 24.855469 L 26.042969 52.921875 C 26.042969 53.324219 26.175781 53.714844 26.417969 54.039062 L 30.644531 51.449219 C 30.375 51.066406 30.226562 50.609375 30.226562 50.140625 L 30.226562 23.085938 C 29.601562 23.015625 28.992188 22.980469 28.40625 22.980469 Z M 27.929688 22.980469 " fill-opacity="1" fill-rule="nonzero"/></svg>